<?xml version="1.0" encoding="utf-8"?>
<!-- Generator: Adobe Illustrator 21.0.0, SVG Export Plug-In . SVG Version: 6.00 Build 0)  -->
<svg version="1.1" id="Layer_1" xmlns="http://www.w3.org/2000/svg" xmlns:xlink="http://www.w3.org/1999/xlink" x="0px" y="0px"
	 width="64px" height="64px" viewBox="0 0 64 64" enable-background="new 0 0 64 64" xml:space="preserve">
<path fill="#529320" d="M32,2C18.94,2,7.83,10.35,3.71,22h56.57C56.17,10.35,45.06,2,32,2z"/>
<path fill="#E81C27" d="M32,62c13.06,0,24.17-8.35,28.29-20H3.71C7.83,53.65,18.94,62,32,62z"/>
<path fill="#F5F5F5" d="M3.71,22C2.61,25.13,2,28.49,2,32s0.61,6.87,1.71,10h56.57C61.39,38.87,62,35.51,62,32s-0.61-6.87-1.71-10
	H3.71z"/>
<path fill="#F5F5F5" d="M59.37,44.29c-0.09,0.19-0.17,0.39-0.26,0.58h0.26V44.29z"/>
<path fill="#F5F5F5" d="M4.9,44.87c-0.09-0.19-0.18-0.39-0.26-0.58v0.58H4.9z"/>
<path fill="#F5F5F5" d="M5.63,18.8H5.06C5,18.91,4.95,19.02,4.9,19.13h0.74V18.8z"/>
<path fill="#F5F5F5" d="M5.63,21v-0.33h-1v-0.6h1.53V21h2.2v-2.27H8.03v1.93h-0.6v-1.93H7.1v1.93H6.5v-1.93H6.17v1H4.63
	c-0.11,0.24-0.22,0.49-0.32,0.74V21H5.63z"/>
<path fill="#F5F5F5" d="M5.63,44.87H4.9C4.95,44.98,5,45.09,5.06,45.2h0.58V44.87z"/>
<path fill="#F5F5F5" d="M4.63,44.27h1.53v0.93h2.2v-2.27H8.03v1.93h-0.6v-1.93H7.1v1.93H6.5v-1.93H6.17v1H4.47
	c0.05,0.12,0.11,0.24,0.16,0.35V44.27z"/>
<path fill="#F5F5F5" d="M5.63,43H4.09c0.04,0.11,0.09,0.22,0.13,0.33h1.41V43z"/>
<polygon fill="#F5F5F5" points="13.63,21 14.97,21 14.97,20.67 13.97,20.67 13.97,20.07 15.5,20.07 15.5,21 17.7,21 17.7,18.73 
	17.37,18.73 17.37,20.67 16.77,20.67 16.77,18.73 16.43,18.73 16.43,20.67 15.83,20.67 15.83,18.73 15.5,18.73 15.5,19.73 
	13.63,19.73 "/>
<polygon fill="#F5F5F5" points="13.03,21 13.03,19.73 11.7,19.73 11.7,20.07 12.7,20.07 12.7,20.67 11.17,20.67 11.17,19.73 
	8.97,19.73 8.97,21.07 9.3,21.07 9.3,20.07 10.83,20.07 10.83,21 "/>
<rect x="9.83" y="20.67" fill="#F5F5F5" width="0.47" height="0.33"/>
<rect x="8.9" y="18.8" fill="#F5F5F5" width="6.07" height="0.33"/>
<polygon fill="#F5F5F5" points="11.7,44.27 12.7,44.27 12.7,44.87 11.17,44.87 11.17,43.93 8.97,43.93 8.97,45.27 9.3,45.27 
	9.3,44.27 10.83,44.27 10.83,45.2 13.03,45.2 13.03,43.93 11.7,43.93 "/>
<rect x="9.83" y="44.87" fill="#F5F5F5" width="0.47" height="0.33"/>
<rect x="8.9" y="43" fill="#F5F5F5" width="6.07" height="0.33"/>
<polygon fill="#F5F5F5" points="17.37,44.87 16.77,44.87 16.77,42.93 16.43,42.93 16.43,44.87 15.83,44.87 15.83,42.93 15.5,42.93 
	15.5,43.93 13.63,43.93 13.63,45.2 14.97,45.2 14.97,44.87 13.97,44.87 13.97,44.27 15.5,44.27 15.5,45.2 17.7,45.2 17.7,42.93 
	17.37,42.93 "/>
<polygon fill="#F5F5F5" points="22.97,21 24.3,21 24.3,20.67 23.3,20.67 23.3,20.07 24.83,20.07 24.83,21 27.03,21 27.03,18.73 
	26.7,18.73 26.7,20.67 26.1,20.67 26.1,18.73 25.77,18.73 25.77,20.67 25.17,20.67 25.17,18.73 24.83,18.73 24.83,19.73 
	22.97,19.73 "/>
<polygon fill="#F5F5F5" points="22.37,21 22.37,19.73 21.03,19.73 21.03,20.07 22.03,20.07 22.03,20.67 20.5,20.67 20.5,19.73 
	18.3,19.73 18.3,21.07 18.63,21.07 18.63,20.07 20.17,20.07 20.17,21 "/>
<rect x="18.23" y="18.8" fill="#F5F5F5" width="6.07" height="0.33"/>
<rect x="19.17" y="20.67" fill="#F5F5F5" width="0.47" height="0.33"/>
<polygon fill="#F5F5F5" points="26.7,44.87 26.1,44.87 26.1,42.93 25.77,42.93 25.77,44.87 25.17,44.87 25.17,42.93 24.83,42.93 
	24.83,43.93 22.97,43.93 22.97,45.2 24.3,45.2 24.3,44.87 23.3,44.87 23.3,44.27 24.83,44.27 24.83,45.2 27.03,45.2 27.03,42.93 
	26.7,42.93 "/>
<rect x="19.17" y="44.87" fill="#F5F5F5" width="0.47" height="0.33"/>
<rect x="18.23" y="43" fill="#F5F5F5" width="6.07" height="0.33"/>
<polygon fill="#F5F5F5" points="21.03,44.27 22.03,44.27 22.03,44.87 20.5,44.87 20.5,43.93 18.3,43.93 18.3,45.27 18.63,45.27 
	18.63,44.27 20.17,44.27 20.17,45.2 22.37,45.2 22.37,43.93 21.03,43.93 "/>
<polygon fill="#F5F5F5" points="31.7,21 31.7,19.73 30.37,19.73 30.37,20.07 31.37,20.07 31.37,20.67 29.83,20.67 29.83,19.73 
	27.63,19.73 27.63,21.07 27.97,21.07 27.97,20.07 29.5,20.07 29.5,21 "/>
<rect x="27.57" y="18.8" fill="#F5F5F5" width="6.07" height="0.33"/>
<rect x="28.5" y="20.67" fill="#F5F5F5" width="0.47" height="0.33"/>
<polygon fill="#F5F5F5" points="32.3,21 33.63,21 33.63,20.67 32.63,20.67 32.63,20.07 34.17,20.07 34.17,21 36.37,21 36.37,18.73 
	36.03,18.73 36.03,20.67 35.43,20.67 35.43,18.73 35.1,18.73 35.1,20.67 34.5,20.67 34.5,18.73 34.17,18.73 34.17,19.73 32.3,19.73 
	"/>
<rect x="27.57" y="43" fill="#F5F5F5" width="6.07" height="0.33"/>
<polygon fill="#F5F5F5" points="30.37,44.27 31.37,44.27 31.37,44.87 29.83,44.87 29.83,43.93 27.63,43.93 27.63,45.27 27.97,45.27 
	27.97,44.27 29.5,44.27 29.5,45.2 31.7,45.2 31.7,43.93 30.37,43.93 "/>
<rect x="28.5" y="44.87" fill="#F5F5F5" width="0.47" height="0.33"/>
<polygon fill="#F5F5F5" points="36.03,44.87 35.43,44.87 35.43,42.93 35.1,42.93 35.1,44.87 34.5,44.87 34.5,42.93 34.17,42.93 
	34.17,43.93 32.3,43.93 32.3,45.2 33.63,45.2 33.63,44.87 32.63,44.87 32.63,44.27 34.17,44.27 34.17,45.2 36.37,45.2 36.37,42.93 
	36.03,42.93 "/>
<rect x="37.83" y="20.67" fill="#F5F5F5" width="0.47" height="0.33"/>
<rect x="36.9" y="18.8" fill="#F5F5F5" width="6.07" height="0.33"/>
<polygon fill="#F5F5F5" points="41.63,21 42.97,21 42.97,20.67 41.97,20.67 41.97,20.07 43.5,20.07 43.5,21 45.7,21 45.7,18.73 
	45.37,18.73 45.37,20.67 44.77,20.67 44.77,18.73 44.43,18.73 44.43,20.67 43.83,20.67 43.83,18.73 43.5,18.73 43.5,19.73 
	41.63,19.73 "/>
<polygon fill="#F5F5F5" points="41.03,21 41.03,19.73 39.7,19.73 39.7,20.07 40.7,20.07 40.7,20.67 39.17,20.67 39.17,19.73 
	36.97,19.73 36.97,21.07 37.3,21.07 37.3,20.07 38.83,20.07 38.83,21 "/>
<rect x="36.9" y="43" fill="#F5F5F5" width="6.07" height="0.33"/>
<polygon fill="#F5F5F5" points="45.37,44.87 44.77,44.87 44.77,42.93 44.43,42.93 44.43,44.87 43.83,44.87 43.83,42.93 43.5,42.93 
	43.5,43.93 41.63,43.93 41.63,45.2 42.97,45.2 42.97,44.87 41.97,44.87 41.97,44.27 43.5,44.27 43.5,45.2 45.7,45.2 45.7,42.93 
	45.37,42.93 "/>
<polygon fill="#F5F5F5" points="39.7,44.27 40.7,44.27 40.7,44.87 39.17,44.87 39.17,43.93 36.97,43.93 36.97,45.27 37.3,45.27 
	37.3,44.27 38.83,44.27 38.83,45.2 41.03,45.2 41.03,43.93 39.7,43.93 "/>
<rect x="37.83" y="44.87" fill="#F5F5F5" width="0.47" height="0.33"/>
<polygon fill="#F5F5F5" points="50.37,21 50.37,19.73 49.03,19.73 49.03,20.07 50.03,20.07 50.03,20.67 48.5,20.67 48.5,19.73 
	46.3,19.73 46.3,21.07 46.63,21.07 46.63,20.07 48.17,20.07 48.17,21 "/>
<rect x="47.17" y="20.67" fill="#F5F5F5" width="0.46" height="0.33"/>
<rect x="46.23" y="18.8" fill="#F5F5F5" width="6.07" height="0.33"/>
<polygon fill="#F5F5F5" points="50.97,21 52.3,21 52.3,20.67 51.3,20.67 51.3,20.07 52.83,20.07 52.83,21 55.03,21 55.03,18.73 
	54.7,18.73 54.7,20.67 54.1,20.67 54.1,18.73 53.77,18.73 53.77,20.67 53.17,20.67 53.17,18.73 52.83,18.73 52.83,19.73 
	50.97,19.73 "/>
<rect x="47.17" y="44.87" fill="#F5F5F5" width="0.46" height="0.33"/>
<polygon fill="#F5F5F5" points="49.03,44.27 50.03,44.27 50.03,44.87 48.5,44.87 48.5,43.93 46.3,43.93 46.3,45.27 46.63,45.27 
	46.63,44.27 48.17,44.27 48.17,45.2 50.37,45.2 50.37,43.93 49.03,43.93 "/>
<rect x="46.23" y="43" fill="#F5F5F5" width="6.07" height="0.33"/>
<polygon fill="#F5F5F5" points="54.7,44.87 54.1,44.87 54.1,42.93 53.77,42.93 53.77,44.87 53.17,44.87 53.17,42.93 52.83,42.93 
	52.83,43.93 50.97,43.93 50.97,45.2 52.3,45.2 52.3,44.87 51.3,44.87 51.3,44.27 52.83,44.27 52.83,45.2 55.03,45.2 55.03,42.93 
	54.7,42.93 "/>
<path fill="#F5F5F5" d="M55.57,19.13h3.54c-0.05-0.11-0.11-0.22-0.16-0.33h-3.38V19.13z"/>
<path fill="#F5F5F5" d="M58.37,20.07h1v0.6h-1.53v-0.93h-2.2v1.33h0.33v-1h1.53V21h2.2v-0.53c-0.1-0.25-0.21-0.49-0.33-0.74h-1.01
	V20.07z"/>
<rect x="56.5" y="20.67" fill="#F5F5F5" width="0.47" height="0.33"/>
<rect x="56.5" y="44.87" fill="#F5F5F5" width="0.47" height="0.33"/>
<path fill="#F5F5F5" d="M55.57,43v0.33h4.21c0.04-0.11,0.09-0.22,0.13-0.33H55.57z"/>
<path fill="#F5F5F5" d="M58.37,44.27h1v0.02c0.05-0.12,0.11-0.23,0.16-0.35h-1.16V44.27z"/>
<path fill="#F5F5F5" d="M57.83,44.87v-0.93h-2.2v1.33h0.33v-1h1.53v0.93h1.44c0.05-0.11,0.11-0.22,0.16-0.33H57.83z"/>
<path fill="#E81C27" d="M36.51,33.88c0.85-2.62,0.05-5.5-2.04-7.3c2.27,3.36,1.45,7.89-1.8,10.25l0.22-5.59v-4.41
	c-0.35-0.17-0.66-0.42-0.88-0.74c-0.23,0.32-0.53,0.57-0.88,0.74v4.41l0.23,5.59c-3.25-2.37-4.08-6.9-1.8-10.26
	c-2.09,1.8-2.9,4.68-2.04,7.3c0.57,1.76,1.79,3.13,3.31,3.93c-0.93,0.34-1.91,0.51-2.91,0.46c1.18,0.38,2.39,0.42,3.52,0.19
	l0.01,0.24L32,39.5l0.58-0.8l0.01-0.24c1.13,0.24,2.34,0.2,3.52-0.19c-1,0.05-1.98-0.13-2.91-0.46
	C34.72,37.01,35.94,35.64,36.51,33.88z"/>
<path fill="#E81C27" d="M38.73,29.13c-0.78-1.34-2.06-2.31-3.57-2.69c3.31,2.49,3.98,7.19,1.49,10.5c0,0.01-0.01,0.01-0.01,0.02
	C39.38,35.38,40.31,31.87,38.73,29.13z"/>
<path fill="#E81C27" d="M28.84,26.44c-1.5,0.38-2.79,1.35-3.57,2.69c-1.58,2.74-0.65,6.24,2.09,7.83c0-0.01-0.01-0.01-0.01-0.02
	C24.86,33.63,25.53,28.93,28.84,26.44z"/>
<path fill="#E81C27" d="M30.49,26.03c0.49,0.34,1.16,0.23,1.51-0.26c0.34,0.49,1.02,0.61,1.51,0.26c0.41-0.29,0.57-0.82,0.38-1.29
	c-0.1,0.55-0.64,0.92-1.2,0.82c-0.29-0.06-0.55-0.24-0.7-0.49c-0.15,0.26-0.4,0.44-0.7,0.49c-0.55,0.1-1.09-0.26-1.2-0.82
	C29.92,25.21,30.08,25.74,30.49,26.03z"/>
<linearGradient id="SVGID_1_" gradientUnits="userSpaceOnUse" x1="32" y1="62" x2="32" y2="2">
	<stop  offset="0" style="stop-color:#1A1A1A"/>
	<stop  offset="0.102" style="stop-color:#393939;stop-opacity:0.949"/>
	<stop  offset="0.3475" style="stop-color:#7F7F7F;stop-opacity:0.8262"/>
	<stop  offset="0.5688" style="stop-color:#B6B6B6;stop-opacity:0.7156"/>
	<stop  offset="0.7582" style="stop-color:#DEDEDE;stop-opacity:0.6209"/>
	<stop  offset="0.9081" style="stop-color:#F6F6F6;stop-opacity:0.5459"/>
	<stop  offset="1" style="stop-color:#FFFFFF;stop-opacity:0.5"/>
</linearGradient>
<circle opacity="0.1" fill="url(#SVGID_1_)" cx="32" cy="32" r="30"/>
</svg>
