<?xml version="1.0" encoding="utf-8"?>
<!-- Generator: Adobe Illustrator 15.0.0, SVG Export Plug-In . SVG Version: 6.00 Build 0)  -->
<!DOCTYPE svg PUBLIC "-//W3C//DTD SVG 1.1//EN" "http://www.w3.org/Graphics/SVG/1.1/DTD/svg11.dtd" [
	<!ENTITY ns_flows "http://ns.adobe.com/Flows/1.0/">
	<!ENTITY ns_extend "http://ns.adobe.com/Extensibility/1.0/">
	<!ENTITY ns_ai "http://ns.adobe.com/AdobeIllustrator/10.0/">
	<!ENTITY ns_graphs "http://ns.adobe.com/Graphs/1.0/">
]>
<svg version="1.1" id="Layer_1" xmlns:x="&ns_extend;" xmlns:i="&ns_ai;" xmlns:graph="&ns_graphs;"
	 xmlns="http://www.w3.org/2000/svg" xmlns:xlink="http://www.w3.org/1999/xlink" xmlns:a="http://ns.adobe.com/AdobeSVGViewerExtensions/3.0/"
	 x="0px" y="0px" width="64px" height="64px" viewBox="0 0 64 64" enable-background="new 0 0 64 64" xml:space="preserve">
<path fill="#FFEB3D" d="M41.598,2.153c-5.037,2.469-9.391,6.371-12.356,11.523c-1.563,2.715-2.625,5.574-3.211,8.479
	C24.259,30.861,32.126,33.573,36.544,32c1.241-0.442,1.5,4.042-3.333,5.337c-1.322,0.354,0.969,1.727,1.824,2.352
	c0,0-0.48,1.594-2.247,2.543c0,0,5.489,1.34,2.149,3.904c-1.512,1.158,0.203,3.137,1.066,3.854c1.422,1.18,2.977,2.248,4.658,3.182
	c4.859,2.693,10.152,3.912,15.338,3.805c-9.316,6.076-21.762,6.891-32.252,1.074C8.93,49.833,3.629,31.507,11.912,17.118
	C18.031,6.483,29.859,0.987,41.598,2.153z"/>
<path fill="#FFDD00" d="M22.496,9.321c-3.998,3.996,0.478,9.685,4.805,8.451c0.528-1.39,1.171-2.756,1.938-4.088
	c0.486-0.847,1.024-1.646,1.583-2.424C29.689,8.205,25.585,6.23,22.496,9.321z"/>
<path fill="#FFDD00" d="M17.789,29.837c5.532-5.531,0.094-13.248-5.871-12.727c-0.003,0.005-0.007,0.01-0.01,0.016
	c-2.431,4.223-3.683,8.784-3.877,13.33C10.678,32.563,14.597,33.029,17.789,29.837z"/>
<path fill="#FFDD00" d="M41.068,61.923c1.07-2.452,0.847-5.447-1.689-7.984c-5.421-5.42-12.943-0.31-12.755,5.511
	C31.297,61.454,36.246,62.243,41.068,61.923z"/>
<path fill="#FFDD00" d="M25.357,42.169c0,7.196-10.794,7.196-10.794,0S25.357,34.973,25.357,42.169z"/>
<radialGradient id="SVGID_1_" cx="39" cy="30.2495" r="29.8417" gradientTransform="matrix(1 0 0 1.0067 0 -0.2036)" gradientUnits="userSpaceOnUse">
	<stop  offset="0.6667" style="stop-color:#FFFFFF;stop-opacity:0.2"/>
	<stop  offset="0.7" style="stop-color:#F2F1EE;stop-opacity:0.2801"/>
	<stop  offset="0.7664" style="stop-color:#D2CCC1;stop-opacity:0.4393"/>
	<stop  offset="0.8594" style="stop-color:#9D9179;stop-opacity:0.6626"/>
	<stop  offset="0.9746" style="stop-color:#564017;stop-opacity:0.939"/>
	<stop  offset="1" style="stop-color:#452D00"/>
	<a:midPointStop  offset="0.6667" style="stop-color:#FFFFFF;stop-opacity:0.2"/>
	<a:midPointStop  offset="0.5538" style="stop-color:#FFFFFF;stop-opacity:0.2"/>
	<a:midPointStop  offset="1" style="stop-color:#452D00"/>
</radialGradient>
<path opacity="0.2" fill="url(#SVGID_1_)" d="M41.598,2.153c-5.037,2.469-9.391,6.371-12.356,11.523
	c-1.563,2.715-2.625,5.574-3.211,8.479C24.259,30.861,32.126,33.573,36.544,32c1.241-0.442,1.5,4.042-3.333,5.337
	c-1.322,0.354,0.969,1.727,1.824,2.352c0,0-0.48,1.594-2.247,2.543c0,0,5.489,1.34,2.149,3.904
	c-1.512,1.158,0.203,3.137,1.066,3.854c1.422,1.18,2.977,2.248,4.658,3.182c4.859,2.693,10.152,3.912,15.338,3.805
	c-9.316,6.076-21.762,6.891-32.252,1.074C8.93,49.833,3.629,31.507,11.912,17.118C18.031,6.483,29.859,0.987,41.598,2.153z"/>
<path fill="#E37A15" d="M21.543,42.357c4.645,1.292,7.513-0.19,9.782-2.044c0.543-0.443,2.333,0.234,3.709-0.625
	c0,0-0.34,1.742-2.055,2.595C28.15,44.684,22.564,44.301,21.543,42.357z"/>
<path fill="#E37A15" d="M25.572,48.298c3.9,0.246,8.522,0.737,8.778-0.824c-0.059-1.051,0.77-1.051,1.256-1.965
	c-1.611,1.164-4.098,0.537-4.893,1.102C28.4,48.251,25.572,48.298,25.572,48.298z"/>
<path fill="#E37A15" d="M32.832,37.807c0.02-0.688,3.192-0.548,4.231-3.528c-3.502,3.152-4.502-0.108-8.186,2.267
	c-1.749,1.128-2.732-0.522-2.688-0.19C26.857,41.147,31.05,36.6,32.832,37.807z"/>
<path fill="#45332C" d="M29.416,37.813c0.66-0.607,2.264-0.566,3.145-1.434C31.408,36.415,29.263,35.96,29.416,37.813z"/>
<path fill="#45332C" d="M20.572,30.804c0,4.333,5,4.333,5,0S20.572,26.471,20.572,30.804z"/>
<path fill="#AB968C" d="M23.322,29.692c0,1.001,1.5,1.001,1.5,0C24.822,28.693,23.322,28.693,23.322,29.692z"/>
</svg>
