<?xml version="1.0" encoding="utf-8"?>
<!-- Generator: Adobe Illustrator 15.0.0, SVG Export Plug-In . SVG Version: 6.00 Build 0)  -->
<!DOCTYPE svg PUBLIC "-//W3C//DTD SVG 1.1//EN" "http://www.w3.org/Graphics/SVG/1.1/DTD/svg11.dtd" [
	<!ENTITY ns_flows "http://ns.adobe.com/Flows/1.0/">
	<!ENTITY ns_extend "http://ns.adobe.com/Extensibility/1.0/">
	<!ENTITY ns_ai "http://ns.adobe.com/AdobeIllustrator/10.0/">
	<!ENTITY ns_graphs "http://ns.adobe.com/Graphs/1.0/">
]>
<svg version="1.1" id="Layer_1" xmlns:x="&ns_extend;" xmlns:i="&ns_ai;" xmlns:graph="&ns_graphs;"
	 xmlns="http://www.w3.org/2000/svg" xmlns:xlink="http://www.w3.org/1999/xlink" xmlns:a="http://ns.adobe.com/AdobeSVGViewerExtensions/3.0/"
	 x="0px" y="0px" width="64px" height="64px" viewBox="0 0 64 64" enable-background="new 0 0 64 64" xml:space="preserve">
<path fill="#FFEB3D" d="M22.402,2.153c5.037,2.469,9.391,6.371,12.355,11.523c1.563,2.715,2.625,5.574,3.211,8.479
	C39.74,30.861,31.874,33.573,27.457,32c-1.242-0.442-1.5,4.042,3.333,5.337c1.321,0.354-0.969,1.727-1.824,2.352
	c0,0,0.48,1.594,2.246,2.543c0,0-5.489,1.34-2.148,3.904c1.512,1.158-0.203,3.137-1.067,3.854c-1.422,1.18-2.977,2.248-4.658,3.182
	C18.479,55.864,13.186,57.083,8,56.976c9.316,6.076,21.762,6.891,32.252,1.074c14.818-8.217,20.119-26.543,11.836-40.932
	C45.969,6.483,34.141,0.987,22.402,2.153z"/>
<path fill="#FFDD00" d="M41.504,9.321c3.998,3.996-0.478,9.685-4.805,8.451c-0.528-1.39-1.171-2.756-1.938-4.088
	c-0.486-0.847-1.024-1.646-1.583-2.424C34.311,8.205,38.414,6.23,41.504,9.321z"/>
<path fill="#FFDD00" d="M46.211,29.837c-5.532-5.531-0.095-13.248,5.871-12.727c0.003,0.005,0.007,0.01,0.01,0.016
	c2.431,4.223,3.684,8.784,3.877,13.33C53.322,32.563,49.402,33.029,46.211,29.837z"/>
<path fill="#FFDD00" d="M22.932,61.923c-1.069-2.452-0.846-5.447,1.69-7.984c5.42-5.42,12.941-0.31,12.754,5.511
	C32.703,61.454,27.754,62.243,22.932,61.923z"/>
<path fill="#FFDD00" d="M38.643,42.169c0,7.196,10.795,7.196,10.795,0S38.643,34.973,38.643,42.169z"/>
<radialGradient id="SVGID_1_" cx="-401.7734" cy="30.2495" r="29.8417" gradientTransform="matrix(-1 0 0 1.0067 -376.7734 -0.2036)" gradientUnits="userSpaceOnUse">
	<stop  offset="0.6667" style="stop-color:#FFFFFF;stop-opacity:0.2"/>
	<stop  offset="0.7" style="stop-color:#F2F1EE;stop-opacity:0.2801"/>
	<stop  offset="0.7664" style="stop-color:#D2CCC1;stop-opacity:0.4393"/>
	<stop  offset="0.8594" style="stop-color:#9D9179;stop-opacity:0.6626"/>
	<stop  offset="0.9746" style="stop-color:#564017;stop-opacity:0.939"/>
	<stop  offset="1" style="stop-color:#452D00"/>
	<a:midPointStop  offset="0.6667" style="stop-color:#FFFFFF;stop-opacity:0.2"/>
	<a:midPointStop  offset="0.5538" style="stop-color:#FFFFFF;stop-opacity:0.2"/>
	<a:midPointStop  offset="1" style="stop-color:#452D00"/>
</radialGradient>
<path opacity="0.2" fill="url(#SVGID_1_)" d="M22.402,2.153c5.037,2.469,9.391,6.371,12.355,11.523
	c1.563,2.715,2.625,5.574,3.211,8.479C39.74,30.861,31.874,33.573,27.457,32c-1.242-0.442-1.5,4.042,3.333,5.337
	c1.321,0.354-0.969,1.727-1.824,2.352c0,0,0.48,1.594,2.246,2.543c0,0-5.489,1.34-2.148,3.904c1.512,1.158-0.203,3.137-1.067,3.854
	c-1.422,1.18-2.977,2.248-4.658,3.182C18.479,55.864,13.186,57.083,8,56.976c9.316,6.076,21.762,6.891,32.252,1.074
	c14.818-8.217,20.119-26.543,11.836-40.932C45.969,6.483,34.141,0.987,22.402,2.153z"/>
<path fill="#E37A15" d="M42.456,42.357c-4.645,1.292-7.513-0.19-9.782-2.044c-0.543-0.443-2.332,0.234-3.709-0.625
	c0,0,0.34,1.742,2.055,2.595C35.85,44.684,41.436,44.301,42.456,42.357z"/>
<path fill="#E37A15" d="M38.428,48.298c-3.9,0.246-8.521,0.737-8.777-0.824c0.059-1.051-0.77-1.051-1.256-1.965
	c1.612,1.164,4.098,0.537,4.893,1.102C35.6,48.251,38.428,48.298,38.428,48.298z"/>
<path fill="#E37A15" d="M31.168,37.807c-0.02-0.688-3.191-0.548-4.231-3.528c3.502,3.152,4.502-0.108,8.186,2.267
	c1.749,1.128,2.732-0.522,2.688-0.19C37.143,41.147,32.95,36.6,31.168,37.807z"/>
<path fill="#45332C" d="M34.584,37.813c-0.66-0.607-2.263-0.566-3.144-1.434C32.592,36.415,34.736,35.96,34.584,37.813z"/>
<path fill="#45332C" d="M43.428,30.804c0,4.333-5,4.333-5,0S43.428,26.471,43.428,30.804z"/>
<path fill="#AB968C" d="M40.678,29.692c0,1.001-1.5,1.001-1.5,0C39.178,28.693,40.678,28.693,40.678,29.692z"/>
</svg>
