<?xml version="1.0" encoding="utf-8"?>
<!-- Generator: Adobe Illustrator 15.0.0, SVG Export Plug-In . SVG Version: 6.00 Build 0)  -->
<!DOCTYPE svg PUBLIC "-//W3C//DTD SVG 1.1//EN" "http://www.w3.org/Graphics/SVG/1.1/DTD/svg11.dtd" [
	<!ENTITY ns_flows "http://ns.adobe.com/Flows/1.0/">
	<!ENTITY ns_extend "http://ns.adobe.com/Extensibility/1.0/">
	<!ENTITY ns_ai "http://ns.adobe.com/AdobeIllustrator/10.0/">
	<!ENTITY ns_graphs "http://ns.adobe.com/Graphs/1.0/">
]>
<svg version="1.1" id="Layer_1" xmlns:x="&ns_extend;" xmlns:i="&ns_ai;" xmlns:graph="&ns_graphs;"
	 xmlns="http://www.w3.org/2000/svg" xmlns:xlink="http://www.w3.org/1999/xlink" xmlns:a="http://ns.adobe.com/AdobeSVGViewerExtensions/3.0/"
	 x="0px" y="0px" width="64px" height="64px" viewBox="0 0 64 64" enable-background="new 0 0 64 64" xml:space="preserve">
<circle fill-rule="evenodd" clip-rule="evenodd" fill="#4E5E67" cx="32" cy="32" r="30"/>
<path fill-rule="evenodd" clip-rule="evenodd" fill="#424F57" d="M43.494,49.848c-5.648,1.65,9.158,5.996,2.854,5.697
	c-9.76-0.465-16.75-2.861-5.5,3.148c-7.35,3.15-7.699-4.35-12.334-2.203c-6.781,3.141-12.201-1.686-13.258-6.893
	c9.668,6.785,9.342-5.65,17.234,0.449C35.848,41.996,50.697,47.74,43.494,49.848z"/>
<path fill-rule="evenodd" clip-rule="evenodd" fill="#424F57" d="M41.068,5.004c1.488,1.795-3.049,2.059-3.6,0
	C37.057,3.459,40.049,3.773,41.068,5.004z"/>
<path fill-rule="evenodd" clip-rule="evenodd" fill="#424F57" d="M11.012,37.154c0,2.479-5.213,2.625-4.061,0.053
	C7.891,35.111,11.012,34.857,11.012,37.154z"/>
<path fill-rule="evenodd" clip-rule="evenodd" fill="#424F57" d="M29.934,38.711c0,6.42-12.148,7.422-12.148,1
	C17.785,32.928,29.934,31.928,29.934,38.711z"/>
<path fill-rule="evenodd" clip-rule="evenodd" fill="#424F57" d="M59.75,20.58c-1.84-4.881-5.576-9.58-9.707-12.551
	c3.404,3.871,4.705,6.871,4.705,6.871c-11.25-12.451-24.25,8.85-18.049-4.15c-5.301-4.551-12.301,2.199-8.945,6.93
	c-7.1-0.23-8.807,14.07,6.895,7.955c-0.438-2.672-5.406,0.891-4.773-3.182c3.133,2.701,5.281-2.262,6.895,1.061
	c2.354,4.848-6.158,7.061-2.652,11.139c2.682-7.861,6.934,2.973,1.061,4.242c3.563,3.424,7.24-2.361,6.363-5.303
	c1.715,1.195,3.758,3.4,5.834,2.65c1.354,12.617,13.039,1.369,9.545-6.363c-1.451-3.213-7.84-9.299-3.182-12.199
	c2.08,3.047,1.484,7.721,5.303,10.076C60.365,25.48,53.822,13.699,59.75,20.58z M41.861,26.791c0-2.398,3.861-2.592,4.537,1.158
	C46.824,30.311,41.861,29.191,41.861,26.791z M40.746,16.842c1.395-5.574,6.629-2.992,7.723,1.732
	C49.281,22.082,39.619,21.35,40.746,16.842z"/>
<path fill-rule="evenodd" clip-rule="evenodd" fill="#424F57" d="M54.133,43.699c1.594,2.109-23.857,15.623-0.574,3.793
	c1.793-0.91-15.188,20.619,2.59,0.344c5.139-5.861,6.408-24.855,1.289-5.453C56.375,46.416,38.674,23.217,54.133,43.699z"/>
<radialGradient id="SVGID_1_" cx="26.625" cy="25.75" r="30" gradientUnits="userSpaceOnUse">
	<stop  offset="0" style="stop-color:#FFFFFF;stop-opacity:0.2"/>
	<stop  offset="0.0881" style="stop-color:#F5F5F6;stop-opacity:0.2705"/>
	<stop  offset="0.2396" style="stop-color:#D9D9DF;stop-opacity:0.3916"/>
	<stop  offset="0.4362" style="stop-color:#ACACB8;stop-opacity:0.5489"/>
	<stop  offset="0.6703" style="stop-color:#6E6E83;stop-opacity:0.7362"/>
	<stop  offset="0.9333" style="stop-color:#1F1F40;stop-opacity:0.9466"/>
	<stop  offset="1" style="stop-color:#0A0A2E"/>
	<a:midPointStop  offset="0" style="stop-color:#FFFFFF;stop-opacity:0.2"/>
	<a:midPointStop  offset="0.5879" style="stop-color:#FFFFFF;stop-opacity:0.2"/>
	<a:midPointStop  offset="1" style="stop-color:#0A0A2E"/>
</radialGradient>
<circle opacity="0.5" fill="url(#SVGID_1_)" cx="32" cy="32" r="30"/>
</svg>
