<?xml version="1.0" encoding="utf-8"?>
<!-- Generator: Adobe Illustrator 15.0.0, SVG Export Plug-In . SVG Version: 6.00 Build 0)  -->
<!DOCTYPE svg PUBLIC "-//W3C//DTD SVG 1.1//EN" "http://www.w3.org/Graphics/SVG/1.1/DTD/svg11.dtd" [
	<!ENTITY ns_flows "http://ns.adobe.com/Flows/1.0/">
	<!ENTITY ns_extend "http://ns.adobe.com/Extensibility/1.0/">
	<!ENTITY ns_ai "http://ns.adobe.com/AdobeIllustrator/10.0/">
	<!ENTITY ns_graphs "http://ns.adobe.com/Graphs/1.0/">
]>
<svg version="1.1" id="Layer_1" xmlns:x="&ns_extend;" xmlns:i="&ns_ai;" xmlns:graph="&ns_graphs;"
	 xmlns="http://www.w3.org/2000/svg" xmlns:xlink="http://www.w3.org/1999/xlink" xmlns:a="http://ns.adobe.com/AdobeSVGViewerExtensions/3.0/"
	 x="0px" y="0px" width="64px" height="64px" viewBox="0 0 64 64" enable-background="new 0 0 64 64" xml:space="preserve">
<circle fill-rule="evenodd" clip-rule="evenodd" fill="#FFEB3D" cx="32" cy="32" r="30"/>
<path fill-rule="evenodd" clip-rule="evenodd" fill="#FFDD00" d="M43.494,49.846c-5.648,1.652,9.158,5.998,2.855,5.699
	c-9.76-0.465-16.75-2.861-5.5,3.148c-7.352,3.15-7.701-4.35-12.336-2.201c-6.779,3.141-12.201-1.688-13.258-6.895
	c9.668,6.785,9.342-5.652,17.234,0.451C35.848,41.996,50.699,47.74,43.494,49.846z"/>
<path fill-rule="evenodd" clip-rule="evenodd" fill="#FFDD00" d="M41.07,5.004c1.486,1.795-3.051,2.059-3.602,0
	C37.057,3.459,40.049,3.773,41.07,5.004z"/>
<path fill-rule="evenodd" clip-rule="evenodd" fill="#FFDD00" d="M11.014,37.154c0,2.479-5.213,2.625-4.063,0.053
	C7.891,35.111,11.014,34.859,11.014,37.154z"/>
<path fill-rule="evenodd" clip-rule="evenodd" fill="#FFDD00" d="M29.934,38.711c0,6.42-12.148,7.422-12.148,1
	C17.785,32.928,29.934,31.928,29.934,38.711z"/>
<path fill-rule="evenodd" clip-rule="evenodd" fill="#FFDD00" d="M59.75,20.58c-1.838-4.881-5.576-9.58-9.705-12.551
	c3.404,3.871,4.703,6.871,4.703,6.871c-11.25-12.451-24.25,8.85-18.049-4.15c-5.301-4.551-12.301,2.201-8.945,6.93
	c-7.1-0.23-8.805,14.07,6.895,7.955c-0.438-2.672-5.406,0.891-4.773-3.18c3.133,2.699,5.283-2.264,6.895,1.059
	c2.354,4.848-6.158,7.061-2.65,11.139c2.68-7.861,6.932,2.973,1.061,4.242c3.563,3.424,7.24-2.361,6.363-5.303
	c1.713,1.197,3.756,3.402,5.832,2.65c1.354,12.619,13.039,1.369,9.547-6.363c-1.453-3.215-7.842-9.297-3.18-12.199
	c2.078,3.047,1.482,7.721,5.301,10.076C60.367,25.48,53.824,13.701,59.75,20.58z M41.861,26.791c0-2.398,3.863-2.592,4.537,1.16
	C46.824,30.313,41.861,29.191,41.861,26.791z M40.746,16.842c1.395-5.576,6.629-2.992,7.723,1.734
	C49.281,22.082,39.619,21.35,40.746,16.842z"/>
<path fill-rule="evenodd" clip-rule="evenodd" fill="#FFDD00" d="M54.137,43.701c1.592,2.107-23.861,15.621-0.578,3.791
	c1.793-0.91-15.186,20.619,2.592,0.344c5.139-5.861,6.406-24.855,1.287-5.453C56.375,46.416,38.676,23.217,54.137,43.701z"/>
<radialGradient id="SVGID_1_" cx="27.875" cy="28" r="30" gradientUnits="userSpaceOnUse">
	<stop  offset="0.2485" style="stop-color:#FFFFFF;stop-opacity:0.2"/>
	<stop  offset="0.5281" style="stop-color:#B8AC95;stop-opacity:0.4977"/>
	<stop  offset="0.7583" style="stop-color:#826D45;stop-opacity:0.7427"/>
	<stop  offset="0.9203" style="stop-color:#614613;stop-opacity:0.9151"/>
	<stop  offset="1" style="stop-color:#543700"/>
	<a:midPointStop  offset="0.2485" style="stop-color:#FFFFFF;stop-opacity:0.2"/>
	<a:midPointStop  offset="0.4516" style="stop-color:#FFFFFF;stop-opacity:0.2"/>
	<a:midPointStop  offset="1" style="stop-color:#543700"/>
</radialGradient>
<circle opacity="0.2" fill="url(#SVGID_1_)" cx="32" cy="32" r="30"/>
<path fill="#FFFFFF" d="M53.748,27.33C50.91,34.77,39.35,33.68,37.23,28.475C38.84,20.115,52.189,19.398,53.748,27.33z"/>
<path fill="#FFFFFF" d="M10.252,27.33c2.846,7.439,14.406,6.35,16.521,1.145C25.166,20.107,11.82,19.395,10.252,27.33z"/>
<path fill="#45332C" d="M40.182,26.541c0,6.527,9.439,6.527,9.439,0C49.621,20.482,40.182,20.482,40.182,26.541z"/>
<path fill="#7D5037" d="M41.115,28.629c0,3.742,7.572,3.742,7.572,0C48.688,25.152,41.115,25.152,41.115,28.629z"/>
<path fill="#1A1626" d="M42.941,26.643c0,2.711,3.918,2.711,3.918,0C46.859,24.129,42.941,24.129,42.941,26.643z"/>
<path fill="#AB968C" d="M41.605,25.852c0,1.367,1.98,1.367,1.98,0C43.586,24.582,41.605,24.582,41.605,25.852z"/>
<path fill="#45332C" d="M14.385,26.537c0,6.529,9.443,6.529,9.443,0C23.828,20.479,14.385,20.479,14.385,26.537z"/>
<path fill="#7D5037" d="M15.318,28.627c0,3.742,7.574,3.742,7.574,0C22.893,25.152,15.318,25.152,15.318,28.627z"/>
<path fill="#1A1626" d="M17.146,26.641c0,2.709,3.92,2.709,3.92,0C21.066,24.125,17.146,24.125,17.146,26.641z"/>
<path fill="#AB968C" d="M15.809,25.85c0,1.369,1.98,1.369,1.98,0C17.789,24.58,15.809,24.58,15.809,25.85z"/>
<path fill="#E09500" d="M53.748,27.275c0-7.986-16.518-7.986-16.518,1.266C39.592,20.951,51.391,20.951,53.748,27.275z"/>
<path fill="#E09500" d="M10.252,27.275c0-7.986,16.521-7.986,16.521,1.264C24.416,20.945,12.615,20.945,10.252,27.275z"/>
<path fill="#E09500" d="M32,45.074c-4.104-1.205-10.178,0.572-10.178,0.572c2.314,2.521,4.01,5.789,10.178,5.789
	c7.064,0,8.266-3.711,10.176-5.789C42.176,45.646,36.096,43.861,32,45.074z"/>
<path fill="#FFFFFF" d="M23.375,46.07c4.297,3.607,12.98,3.631,17.303,0C36.096,46.27,27.988,46.27,23.375,46.07z"/>
<path fill="#E09500" d="M37.654,38.293c0,3.68-11.309,3.68-11.309,0C26.346,37.447,37.654,37.447,37.654,38.293z"/>
</svg>
