<?xml version="1.0" encoding="utf-8"?>
<!-- Generator: Adobe Illustrator 15.0.0, SVG Export Plug-In . SVG Version: 6.00 Build 0)  -->
<!DOCTYPE svg PUBLIC "-//W3C//DTD SVG 1.1//EN" "http://www.w3.org/Graphics/SVG/1.1/DTD/svg11.dtd" [
	<!ENTITY ns_flows "http://ns.adobe.com/Flows/1.0/">
	<!ENTITY ns_extend "http://ns.adobe.com/Extensibility/1.0/">
	<!ENTITY ns_ai "http://ns.adobe.com/AdobeIllustrator/10.0/">
	<!ENTITY ns_graphs "http://ns.adobe.com/Graphs/1.0/">
]>
<svg version="1.1" id="Layer_1" xmlns:x="&ns_extend;" xmlns:i="&ns_ai;" xmlns:graph="&ns_graphs;"
	 xmlns="http://www.w3.org/2000/svg" xmlns:xlink="http://www.w3.org/1999/xlink" xmlns:a="http://ns.adobe.com/AdobeSVGViewerExtensions/3.0/"
	 x="0px" y="0px" width="64px" height="64px" viewBox="0 0 64 64" enable-background="new 0 0 64 64" xml:space="preserve">
<circle fill-rule="evenodd" clip-rule="evenodd" fill="#99A8AE" cx="32" cy="32" r="30"/>
<path opacity="0.5" fill-rule="evenodd" clip-rule="evenodd" fill="#6E8189" d="M43.494,49.848c-5.648,1.65,9.158,5.996,2.855,5.697
	c-9.76-0.465-16.75-2.861-5.5,3.148c-7.352,3.15-7.701-4.35-12.336-2.203c-6.779,3.141-12.201-1.686-13.258-6.893
	c9.668,6.785,9.342-5.65,17.234,0.449C35.848,41.996,50.699,47.74,43.494,49.848z"/>
<path opacity="0.5" fill-rule="evenodd" clip-rule="evenodd" fill="#6E8189" d="M41.07,5.004c1.486,1.795-3.051,2.059-3.602,0
	C37.057,3.459,40.049,3.773,41.07,5.004z"/>
<path opacity="0.5" fill-rule="evenodd" clip-rule="evenodd" fill="#6E8189" d="M11.012,37.154c0,2.479-5.213,2.625-4.061,0.053
	C7.891,35.111,11.012,34.857,11.012,37.154z"/>
<path opacity="0.5" fill-rule="evenodd" clip-rule="evenodd" fill="#6E8189" d="M29.934,38.711c0,6.42-12.148,7.422-12.148,1
	C17.785,32.928,29.934,31.928,29.934,38.711z"/>
<path opacity="0.5" fill-rule="evenodd" clip-rule="evenodd" fill="#6E8189" d="M59.75,20.58c-1.838-4.881-5.576-9.58-9.705-12.551
	c3.404,3.871,4.703,6.871,4.703,6.871c-11.25-12.451-24.25,8.85-18.049-4.15c-5.301-4.551-12.301,2.199-8.945,6.93
	c-7.1-0.23-8.805,14.07,6.895,7.955c-0.438-2.672-5.406,0.891-4.773-3.182c3.133,2.701,5.283-2.262,6.895,1.061
	c2.354,4.848-6.158,7.061-2.65,11.139c2.68-7.861,6.932,2.973,1.061,4.242c3.561,3.424,7.238-2.361,6.363-5.303
	c1.713,1.195,3.756,3.4,5.832,2.65c1.354,12.617,13.039,1.369,9.547-6.363c-1.453-3.213-7.842-9.299-3.182-12.199
	c2.08,3.047,1.484,7.721,5.303,10.076C60.367,25.48,53.824,13.699,59.75,20.58z M41.861,26.791c0-2.398,3.863-2.592,4.537,1.158
	C46.824,30.311,41.861,29.191,41.861,26.791z M40.746,16.842c1.395-5.574,6.629-2.992,7.723,1.732
	C49.281,22.082,39.619,21.35,40.746,16.842z"/>
<path opacity="0.5" fill-rule="evenodd" clip-rule="evenodd" fill="#6E8189" d="M54.135,43.699
	c1.594,2.109-23.859,15.623-0.576,3.793c1.793-0.91-15.186,20.619,2.59,0.344c5.141-5.861,6.408-24.855,1.289-5.453
	C56.375,46.416,38.674,23.217,54.135,43.699z"/>
<radialGradient id="SVGID_1_" cx="26.625" cy="25.75" r="30" gradientUnits="userSpaceOnUse">
	<stop  offset="0" style="stop-color:#FFFFFF;stop-opacity:0.2"/>
	<stop  offset="0.292" style="stop-color:#BABAC3;stop-opacity:0.4336"/>
	<stop  offset="0.782" style="stop-color:#4B4B63;stop-opacity:0.8256"/>
	<stop  offset="1" style="stop-color:#1F1F3D"/>
	<a:midPointStop  offset="0" style="stop-color:#FFFFFF;stop-opacity:0.2"/>
	<a:midPointStop  offset="0.4788" style="stop-color:#FFFFFF;stop-opacity:0.2"/>
	<a:midPointStop  offset="1" style="stop-color:#1F1F3D"/>
</radialGradient>
<circle opacity="0.4" fill="url(#SVGID_1_)" cx="32" cy="32" r="30"/>
<path fill="#FFFFFF" d="M53.747,28.743c-2.838,7.438-14.398,6.35-16.517,1.145C38.84,21.527,52.188,20.811,53.747,28.743z"/>
<path fill="#FFFFFF" d="M10.253,28.743c2.844,7.438,14.404,6.35,16.52,1.145C25.167,21.521,11.821,20.808,10.253,28.743z"/>
<path fill="#302C3B" d="M40.182,27.953c0,6.527,9.44,6.527,9.44,0C49.622,21.895,40.182,21.895,40.182,27.953z"/>
<path fill="#4E5E67" d="M41.114,30.042c0,3.742,7.574,3.742,7.574,0C48.688,26.565,41.114,26.565,41.114,30.042z"/>
<path fill="#1A1626" d="M42.94,28.056c0,2.71,3.919,2.71,3.919,0C46.859,25.542,42.94,25.542,42.94,28.056z"/>
<path fill="#6E8189" d="M41.604,27.265c0,1.367,1.98,1.367,1.98,0C43.585,25.995,41.604,25.995,41.604,27.265z"/>
<path fill="#302C3B" d="M14.385,27.95c0,6.528,9.443,6.528,9.443,0C23.828,21.892,14.385,21.892,14.385,27.95z"/>
<path fill="#4E5E67" d="M15.318,30.04c0,3.742,7.573,3.742,7.573,0C22.892,26.564,15.318,26.564,15.318,30.04z"/>
<path fill="#1A1626" d="M17.147,28.054c0,2.709,3.918,2.709,3.918,0C21.065,25.538,17.147,25.538,17.147,28.054z"/>
<path fill="#6E8189" d="M15.809,27.262c0,1.369,1.979,1.369,1.979,0C17.788,25.992,15.809,25.992,15.809,27.262z"/>
<path fill="#4E5E67" d="M53.747,28.688c0-7.986-16.517-7.986-16.517,1.265C39.591,22.363,51.391,22.363,53.747,28.688z"/>
<path fill="#4E5E67" d="M10.253,28.688c0-7.986,16.52-7.986,16.52,1.264C24.415,22.358,12.616,22.358,10.253,28.688z"/>
<path fill="#302C3B" d="M31.999,46.487c-4.104-1.206-10.178,0.572-10.178,0.572c2.314,2.521,4.011,5.788,10.178,5.788
	c7.065,0,8.267-3.711,10.176-5.788C42.175,47.06,36.095,45.274,31.999,46.487z"/>
<path fill="#FFFFFF" d="M23.374,47.483c4.297,3.607,12.981,3.63,17.303,0C36.095,47.682,27.987,47.682,23.374,47.483z"/>
<path fill="#302C3B" d="M37.653,39.706c0,3.68-11.308,3.68-11.308,0C26.346,38.86,37.653,38.86,37.653,39.706z"/>
</svg>
