<?xml version="1.0" encoding="utf-8"?>
<!-- Generator: Adobe Illustrator 15.0.0, SVG Export Plug-In . SVG Version: 6.00 Build 0)  -->
<!DOCTYPE svg PUBLIC "-//W3C//DTD SVG 1.1//EN" "http://www.w3.org/Graphics/SVG/1.1/DTD/svg11.dtd" [
	<!ENTITY ns_flows "http://ns.adobe.com/Flows/1.0/">
	<!ENTITY ns_extend "http://ns.adobe.com/Extensibility/1.0/">
	<!ENTITY ns_ai "http://ns.adobe.com/AdobeIllustrator/10.0/">
	<!ENTITY ns_graphs "http://ns.adobe.com/Graphs/1.0/">
]>
<svg version="1.1" id="Layer_1" xmlns:x="&ns_extend;" xmlns:i="&ns_ai;" xmlns:graph="&ns_graphs;"
	 xmlns="http://www.w3.org/2000/svg" xmlns:xlink="http://www.w3.org/1999/xlink" xmlns:a="http://ns.adobe.com/AdobeSVGViewerExtensions/3.0/"
	 x="0px" y="0px" width="64px" height="64px" viewBox="0 0 64 64" enable-background="new 0 0 64 64" xml:space="preserve">
<circle fill-rule="evenodd" clip-rule="evenodd" fill="#FFEB3D" cx="32" cy="32" r="30"/>
<path fill-rule="evenodd" clip-rule="evenodd" fill="#FFDD00" d="M43.495,49.846c-5.648,1.652,9.157,5.998,2.855,5.699
	c-9.76-0.465-16.75-2.861-5.5,3.148c-7.352,3.15-7.701-4.35-12.336-2.201c-6.779,3.141-12.201-1.688-13.258-6.895
	c9.668,6.785,9.342-5.652,17.234,0.451C35.849,41.996,50.7,47.74,43.495,49.846z"/>
<path fill-rule="evenodd" clip-rule="evenodd" fill="#FFDD00" d="M41.071,5.004c1.486,1.795-3.051,2.059-3.602,0
	C37.058,3.459,40.05,3.773,41.071,5.004z"/>
<path fill-rule="evenodd" clip-rule="evenodd" fill="#FFDD00" d="M11.015,37.154c0,2.479-5.213,2.625-4.063,0.053
	C7.892,35.111,11.015,34.859,11.015,37.154z"/>
<path fill-rule="evenodd" clip-rule="evenodd" fill="#FFDD00" d="M29.935,38.711c0,6.42-12.148,7.422-12.148,1
	C17.786,32.928,29.935,31.928,29.935,38.711z"/>
<path fill-rule="evenodd" clip-rule="evenodd" fill="#FFDD00" d="M59.75,20.58c-1.838-4.881-5.576-9.58-9.704-12.551
	c3.403,3.871,4.702,6.871,4.702,6.871C43.499,2.449,30.499,23.75,36.7,10.75c-5.301-4.551-12.301,2.201-8.945,6.93
	c-7.1-0.23-8.805,14.07,6.895,7.955c-0.438-2.672-5.406,0.891-4.773-3.18c3.133,2.699,5.283-2.264,6.895,1.059
	c2.354,4.848-6.158,7.061-2.65,11.139c2.68-7.861,6.932,2.973,1.061,4.242c3.563,3.424,7.24-2.361,6.363-5.303
	c1.713,1.197,3.756,3.402,5.832,2.65c1.354,12.619,13.038,1.369,9.546-6.363c-1.453-3.215-7.841-9.297-3.18-12.199
	c2.078,3.047,1.482,7.721,5.301,10.076C60.367,25.48,53.824,13.701,59.75,20.58z M41.862,26.791c0-2.398,3.863-2.592,4.537,1.16
	C46.825,30.313,41.862,29.191,41.862,26.791z M40.747,16.842c1.395-5.576,6.629-2.992,7.723,1.734
	C49.282,22.082,39.62,21.35,40.747,16.842z"/>
<radialGradient id="SVGID_1_" cx="27.8755" cy="28" r="29.9998" gradientUnits="userSpaceOnUse">
	<stop  offset="0.2485" style="stop-color:#FFFFFF;stop-opacity:0.2"/>
	<stop  offset="0.4902" style="stop-color:#C6BEB0;stop-opacity:0.4573"/>
	<stop  offset="1" style="stop-color:#452D00"/>
	<a:midPointStop  offset="0.2485" style="stop-color:#FFFFFF;stop-opacity:0.2"/>
	<a:midPointStop  offset="0.512" style="stop-color:#FFFFFF;stop-opacity:0.2"/>
	<a:midPointStop  offset="1" style="stop-color:#452D00"/>
</radialGradient>
<circle opacity="0.3" fill="url(#SVGID_1_)" cx="32" cy="32" r="30"/>
</svg>
