<?xml version="1.0" encoding="utf-8"?>
<!-- Generator: Adobe Illustrator 15.0.0, SVG Export Plug-In . SVG Version: 6.00 Build 0)  -->
<!DOCTYPE svg PUBLIC "-//W3C//DTD SVG 1.1//EN" "http://www.w3.org/Graphics/SVG/1.1/DTD/svg11.dtd" [
	<!ENTITY ns_flows "http://ns.adobe.com/Flows/1.0/">
	<!ENTITY ns_extend "http://ns.adobe.com/Extensibility/1.0/">
	<!ENTITY ns_ai "http://ns.adobe.com/AdobeIllustrator/10.0/">
	<!ENTITY ns_graphs "http://ns.adobe.com/Graphs/1.0/">
]>
<svg version="1.1" id="Layer_1" xmlns:x="&ns_extend;" xmlns:i="&ns_ai;" xmlns:graph="&ns_graphs;"
	 xmlns="http://www.w3.org/2000/svg" xmlns:xlink="http://www.w3.org/1999/xlink" xmlns:a="http://ns.adobe.com/AdobeSVGViewerExtensions/3.0/"
	 x="0px" y="0px" width="64px" height="64px" viewBox="0 0 64 64" enable-background="new 0 0 64 64" xml:space="preserve">
<linearGradient id="SVGID_1_" gradientUnits="userSpaceOnUse" x1="32.0005" y1="36.2861" x2="32.0005" y2="3.7144">
	<stop  offset="0" style="stop-color:#D9F5FF"/>
	<stop  offset="1" style="stop-color:#FFFFFF"/>
	<a:midPointStop  offset="0" style="stop-color:#D9F5FF"/>
	<a:midPointStop  offset="0.5152" style="stop-color:#D9F5FF"/>
	<a:midPointStop  offset="1" style="stop-color:#FFFFFF"/>
</linearGradient>
<path fill="url(#SVGID_1_)" d="M15.795,36.286c-0.959,0-1.91-0.145-2.824-0.436c-3.688-1.161-6.17-4.432-6.17-8.136
	c0-2.472,1.127-4.824,3.084-6.454c0.509-0.424,1.057-0.787,1.646-1.089l-0.03-0.003l0.599-1.983
	c1.488-4.949,6.299-8.405,11.697-8.405c0.539,0,1.092,0.041,1.739,0.129c0.495,0.068,0.984,0.163,1.464,0.288l0.236-0.411
	c2.18-3.745,6.323-6.072,10.808-6.072c6.812,0,12.353,5.281,12.353,11.772c0,0.319-0.021,0.627-0.05,0.938l-0.017,0.229
	c0.523,0.189,1.034,0.424,1.53,0.696c3.292,1.809,5.34,5.177,5.34,8.787c0,4.755-3.396,8.821-8.257,9.883
	c-0.794,0.176-1.601,0.266-2.389,0.266H15.795z"/>
<linearGradient id="SVGID_2_" gradientUnits="userSpaceOnUse" x1="32.0005" y1="38" x2="32.0005" y2="2.0005">
	<stop  offset="0" style="stop-color:#8FBACC"/>
	<stop  offset="0.2558" style="stop-color:#9CC6D8"/>
	<stop  offset="0.6633" style="stop-color:#ABD4E6"/>
	<stop  offset="1" style="stop-color:#B0D9EB"/>
	<a:midPointStop  offset="0" style="stop-color:#8FBACC"/>
	<a:midPointStop  offset="0.3333" style="stop-color:#8FBACC"/>
	<a:midPointStop  offset="1" style="stop-color:#B0D9EB"/>
</linearGradient>
<path fill="url(#SVGID_2_)" d="M38.044,5.428c5.827,0,10.552,4.504,10.552,10.059c0,0.272-0.021,0.535-0.044,0.798
	c-2.437,0.18-4.654,1.106-6.396,2.547c1.296-0.71,2.795-1.121,4.397-1.121c0.593,0,1.172,0.057,1.734,0.16
	c0.954,0.183,1.854,0.515,2.672,0.966c2.654,1.456,4.441,4.176,4.441,7.302c0,4.003-2.932,7.354-6.859,8.213
	c-0.64,0.141-1.303,0.224-1.986,0.224h-0.002H15.795l0,0c-0.787,0-1.546-0.127-2.255-0.353c-2.867-0.899-4.937-3.471-4.937-6.507
	c0-2.064,0.954-3.909,2.466-5.164c0.687-0.569,1.482-1.015,2.358-1.309c0.741-0.244,1.537-0.386,2.367-0.386
	c2.32,0,4.377,1.049,5.693,2.675h0.067c-1.528-2.68-4.384-4.571-7.728-4.873c1.244-4.134,5.232-7.164,9.969-7.164
	c0.507,0,0.998,0.046,1.483,0.112c0.964,0.134,1.879,0.384,2.737,0.747c3.191,1.357,5.522,4.202,6.042,7.608
	c0-0.019,0.002-0.039,0.002-0.058c0-3.881-2.089-7.296-5.253-9.287C30.613,7.525,34.067,5.428,38.044,5.428 M38.044,2
	c-4.853,0-9.355,2.377-11.947,6.256c-0.099-0.017-0.199-0.029-0.3-0.044c-0.742-0.1-1.375-0.146-2-0.146
	c-6.196,0-11.718,3.966-13.428,9.647L9.96,19.066c-0.44,0.27-0.862,0.572-1.261,0.904C6.351,21.925,5,24.747,5,27.715
	c0,4.446,2.979,8.369,7.411,9.763C13.5,37.824,14.641,38,15.795,38h30.758c0.927,0,1.869-0.102,2.801-0.31
	C55.032,36.447,59,31.698,59,26.138c0-4.224-2.391-8.161-6.24-10.274c-0.186-0.101-0.374-0.199-0.564-0.291c0-0.029,0-0.054,0-0.086
	C52.195,8.051,45.846,2,38.044,2L38.044,2z"/>
<polygon fill="#75D6FF" points="33.801,48.456 35.713,45.591 32.766,47.449 31.998,42.395 31.231,47.449 28.287,45.591 
	30.197,48.453 25,49.202 30.199,49.947 28.287,52.809 31.229,50.95 31.998,56.005 32.769,50.95 35.713,52.809 33.798,49.944 
	39,49.202 "/>
<polygon fill="#75D6FF" points="51.8,45.456 53.713,42.591 50.766,44.449 49.999,39.394 49.231,44.449 46.287,42.591 48.197,45.453 
	43,46.202 48.2,46.947 46.287,49.809 49.229,47.95 49.999,53.005 50.768,47.95 53.713,49.809 51.798,46.944 57,46.202 "/>
<polygon fill="#75D6FF" points="15.803,45.456 17.713,42.59 14.768,44.448 14.001,39.394 13.234,44.45 10.284,42.59 12.197,45.453 
	7,46.199 12.2,46.947 10.284,49.81 13.231,47.948 14.001,53.007 14.771,47.948 17.713,49.81 15.8,46.944 21,46.199 "/>
<polygon fill="#75D6FF" points="22.289,56.609 23.652,54.559 21.549,55.888 21,52.277 20.454,55.888 18.348,54.559 19.713,56.605 
	16,57.138 19.716,57.672 18.348,59.716 20.451,58.389 21,62 21.549,58.389 23.652,59.716 22.287,57.671 26,57.138 "/>
<polygon fill="#75D6FF" points="44.289,56.609 45.652,54.559 43.549,55.888 43,52.277 42.454,55.888 40.348,54.559 41.713,56.605 
	38,57.138 41.716,57.672 40.348,59.716 42.451,58.389 43,62 43.549,58.389 45.652,59.716 44.287,57.671 48,57.138 "/>
</svg>
