<?xml version="1.0" encoding="utf-8"?>
<!-- Generator: Adobe Illustrator 15.0.0, SVG Export Plug-In . SVG Version: 6.00 Build 0)  -->
<!DOCTYPE svg PUBLIC "-//W3C//DTD SVG 1.1//EN" "http://www.w3.org/Graphics/SVG/1.1/DTD/svg11.dtd" [
	<!ENTITY ns_flows "http://ns.adobe.com/Flows/1.0/">
	<!ENTITY ns_extend "http://ns.adobe.com/Extensibility/1.0/">
	<!ENTITY ns_ai "http://ns.adobe.com/AdobeIllustrator/10.0/">
	<!ENTITY ns_graphs "http://ns.adobe.com/Graphs/1.0/">
]>
<svg version="1.1" id="Layer_1" xmlns:x="&ns_extend;" xmlns:i="&ns_ai;" xmlns:graph="&ns_graphs;"
	 xmlns="http://www.w3.org/2000/svg" xmlns:xlink="http://www.w3.org/1999/xlink" xmlns:a="http://ns.adobe.com/AdobeSVGViewerExtensions/3.0/"
	 x="0px" y="0px" width="64px" height="64px" viewBox="0 0 64 64" enable-background="new 0 0 64 64" xml:space="preserve">
<radialGradient id="SVGID_1_" cx="32.001" cy="32.0049" r="29.7584" gradientUnits="userSpaceOnUse">
	<stop  offset="0" style="stop-color:#FF9900"/>
	<stop  offset="0.0615" style="stop-color:#FF9F07"/>
	<stop  offset="0.4777" style="stop-color:#FFC431"/>
	<stop  offset="0.8046" style="stop-color:#FFDB4A"/>
	<stop  offset="1" style="stop-color:#FFE354"/>
	<a:midPointStop  offset="0" style="stop-color:#FF9900"/>
	<a:midPointStop  offset="0.4061" style="stop-color:#FF9900"/>
	<a:midPointStop  offset="1" style="stop-color:#FFE354"/>
</radialGradient>
<path fill="url(#SVGID_1_)" d="M37.611,15.686L32.001,2L26.39,15.686c1.822-0.32,3.691-0.516,5.609-0.516
	C33.92,15.17,35.789,15.365,37.611,15.686z"/>
<radialGradient id="SVGID_2_" cx="32.001" cy="32.0049" r="29.7543" gradientUnits="userSpaceOnUse">
	<stop  offset="0" style="stop-color:#FF9900"/>
	<stop  offset="0.0615" style="stop-color:#FF9F07"/>
	<stop  offset="0.4777" style="stop-color:#FFC431"/>
	<stop  offset="0.8046" style="stop-color:#FFDB4A"/>
	<stop  offset="1" style="stop-color:#FFE354"/>
	<a:midPointStop  offset="0" style="stop-color:#FF9900"/>
	<a:midPointStop  offset="0.4061" style="stop-color:#FF9900"/>
	<a:midPointStop  offset="1" style="stop-color:#FFE354"/>
</radialGradient>
<path fill="url(#SVGID_2_)" d="M26.39,48.316L32.001,62l5.61-13.684C35.789,48.635,33.92,48.83,32,48.83
	C30.082,48.83,28.212,48.635,26.39,48.316z"/>
<radialGradient id="SVGID_3_" cx="32.0127" cy="32.001" r="29.7512" gradientUnits="userSpaceOnUse">
	<stop  offset="0" style="stop-color:#FF9900"/>
	<stop  offset="0.0615" style="stop-color:#FF9F07"/>
	<stop  offset="0.4777" style="stop-color:#FFC431"/>
	<stop  offset="0.8046" style="stop-color:#FFDB4A"/>
	<stop  offset="1" style="stop-color:#FFE354"/>
	<a:midPointStop  offset="0" style="stop-color:#FF9900"/>
	<a:midPointStop  offset="0.4061" style="stop-color:#FF9900"/>
	<a:midPointStop  offset="1" style="stop-color:#FFE354"/>
</radialGradient>
<path fill="url(#SVGID_3_)" d="M48.316,37.611L62,32.002l-13.684-5.611c0.32,1.822,0.516,3.691,0.516,5.609
	C48.832,33.92,48.637,35.789,48.316,37.611z"/>
<radialGradient id="SVGID_4_" cx="32.0112" cy="32.001" r="29.7546" gradientUnits="userSpaceOnUse">
	<stop  offset="0" style="stop-color:#FF9900"/>
	<stop  offset="0.0615" style="stop-color:#FF9F07"/>
	<stop  offset="0.4777" style="stop-color:#FFC431"/>
	<stop  offset="0.8046" style="stop-color:#FFDB4A"/>
	<stop  offset="1" style="stop-color:#FFE354"/>
	<a:midPointStop  offset="0" style="stop-color:#FF9900"/>
	<a:midPointStop  offset="0.4061" style="stop-color:#FF9900"/>
	<a:midPointStop  offset="1" style="stop-color:#FFE354"/>
</radialGradient>
<path fill="url(#SVGID_4_)" d="M15.685,26.391L2,32.002l13.686,5.609c-0.32-1.822-0.516-3.691-0.516-5.611
	C15.169,30.082,15.365,28.213,15.685,26.391z"/>
<radialGradient id="SVGID_5_" cx="32.0122" cy="32.0049" r="29.7505" gradientUnits="userSpaceOnUse">
	<stop  offset="0" style="stop-color:#FF9900"/>
	<stop  offset="0.0615" style="stop-color:#FF9F07"/>
	<stop  offset="0.4777" style="stop-color:#FFC431"/>
	<stop  offset="0.8046" style="stop-color:#FFDB4A"/>
	<stop  offset="1" style="stop-color:#FFE354"/>
	<a:midPointStop  offset="0" style="stop-color:#FF9900"/>
	<a:midPointStop  offset="0.4061" style="stop-color:#FF9900"/>
	<a:midPointStop  offset="1" style="stop-color:#FFE354"/>
</radialGradient>
<path fill="url(#SVGID_5_)" d="M47.506,24.43l5.707-13.643L39.57,16.496c1.516,1.063,2.975,2.246,4.332,3.602
	C45.26,21.455,46.443,22.916,47.506,24.43z"/>
<radialGradient id="SVGID_6_" cx="32.0112" cy="32.0049" r="29.7524" gradientUnits="userSpaceOnUse">
	<stop  offset="0" style="stop-color:#FF9900"/>
	<stop  offset="0.0615" style="stop-color:#FF9F07"/>
	<stop  offset="0.4777" style="stop-color:#FFC431"/>
	<stop  offset="0.8046" style="stop-color:#FFDB4A"/>
	<stop  offset="1" style="stop-color:#FFE354"/>
	<a:midPointStop  offset="0" style="stop-color:#FF9900"/>
	<a:midPointStop  offset="0.4061" style="stop-color:#FF9900"/>
	<a:midPointStop  offset="1" style="stop-color:#FFE354"/>
</radialGradient>
<path fill="url(#SVGID_6_)" d="M16.496,39.568l-5.709,13.645l13.645-5.709c-1.516-1.063-2.975-2.246-4.332-3.604
	S17.558,41.084,16.496,39.568z"/>
<radialGradient id="SVGID_7_" cx="32.0112" cy="32.0049" r="29.7524" gradientUnits="userSpaceOnUse">
	<stop  offset="0" style="stop-color:#FF9900"/>
	<stop  offset="0.0615" style="stop-color:#FF9F07"/>
	<stop  offset="0.4777" style="stop-color:#FFC431"/>
	<stop  offset="0.8046" style="stop-color:#FFDB4A"/>
	<stop  offset="1" style="stop-color:#FFE354"/>
	<a:midPointStop  offset="0" style="stop-color:#FF9900"/>
	<a:midPointStop  offset="0.4061" style="stop-color:#FF9900"/>
	<a:midPointStop  offset="1" style="stop-color:#FFE354"/>
</radialGradient>
<path fill="url(#SVGID_7_)" d="M24.431,16.496l-13.645-5.709l5.709,13.643c1.063-1.514,2.246-2.975,3.604-4.332
	C21.457,18.742,22.916,17.559,24.431,16.496z"/>
<radialGradient id="SVGID_8_" cx="30.1572" cy="30.0962" r="13.9999" gradientUnits="userSpaceOnUse">
	<stop  offset="0" style="stop-color:#FFD500"/>
	<stop  offset="0.381" style="stop-color:#FFD200"/>
	<stop  offset="0.7146" style="stop-color:#FFC700"/>
	<stop  offset="1" style="stop-color:#FFB700"/>
	<a:midPointStop  offset="0" style="stop-color:#FFD500"/>
	<a:midPointStop  offset="0.7333" style="stop-color:#FFD500"/>
	<a:midPointStop  offset="1" style="stop-color:#FFB700"/>
</radialGradient>
<circle fill="url(#SVGID_8_)" cx="32" cy="32" r="14"/>
<linearGradient id="SVGID_9_" gradientUnits="userSpaceOnUse" x1="42" y1="53.7773" x2="42" y2="29.6489">
	<stop  offset="0" style="stop-color:#D9F5FF"/>
	<stop  offset="1" style="stop-color:#FFFFFF"/>
	<a:midPointStop  offset="0" style="stop-color:#D9F5FF"/>
	<a:midPointStop  offset="0.5152" style="stop-color:#D9F5FF"/>
	<a:midPointStop  offset="1" style="stop-color:#FFFFFF"/>
</linearGradient>
<path fill="url(#SVGID_9_)" d="M29.997,53.777c-0.711,0-1.414-0.107-2.092-0.323c-2.732-0.86-4.57-3.283-4.57-6.026
	c0-1.831,0.834-3.573,2.284-4.781c0.377-0.314,0.783-0.583,1.22-0.806l-0.022-0.003l0.444-1.469
	c1.102-3.667,4.665-6.227,8.664-6.227c0.4,0,0.809,0.03,1.289,0.096c0.367,0.051,0.729,0.12,1.084,0.213l0.176-0.304
	c1.613-2.774,4.684-4.499,8.004-4.499c5.047,0,9.15,3.913,9.15,8.721c0,0.236-0.016,0.465-0.037,0.695l-0.012,0.17
	c0.387,0.141,0.766,0.314,1.133,0.517c2.439,1.339,3.955,3.834,3.955,6.509c0,3.521-2.514,6.533-6.115,7.32
	c-0.588,0.131-1.186,0.197-1.77,0.197H29.997z"/>
<linearGradient id="SVGID_10_" gradientUnits="userSpaceOnUse" x1="33.1689" y1="33.5869" x2="49.1513" y2="56.2658">
	<stop  offset="0" style="stop-color:#FFEC8C"/>
	<stop  offset="0.1394" style="stop-color:#B0D9EB"/>
	<stop  offset="0.4292" style="stop-color:#ABD4E6"/>
	<stop  offset="0.7799" style="stop-color:#9CC6D8"/>
	<stop  offset="1" style="stop-color:#8FBACC"/>
	<a:midPointStop  offset="0" style="stop-color:#FFEC8C"/>
	<a:midPointStop  offset="0.5" style="stop-color:#FFEC8C"/>
	<a:midPointStop  offset="0.1394" style="stop-color:#B0D9EB"/>
	<a:midPointStop  offset="0.6667" style="stop-color:#B0D9EB"/>
	<a:midPointStop  offset="1" style="stop-color:#8FBACC"/>
</linearGradient>
<path fill="url(#SVGID_10_)" d="M46.477,30.918c4.316,0,7.816,3.337,7.816,7.451c0,0.202-0.016,0.396-0.033,0.591
	c-1.803,0.134-3.447,0.82-4.736,1.888c0.959-0.527,2.07-0.831,3.256-0.831c0.439,0,0.869,0.042,1.285,0.118
	c0.707,0.136,1.373,0.381,1.979,0.716c1.967,1.078,3.291,3.093,3.291,5.409c0,2.965-2.172,5.447-5.08,6.084
	c-0.475,0.104-0.967,0.164-1.473,0.164h-0.002H29.997l0,0c-0.582,0-1.145-0.094-1.67-0.261c-2.124-0.665-3.657-2.571-3.657-4.819
	c0-1.529,0.708-2.896,1.827-3.826c0.508-0.421,1.097-0.75,1.747-0.969c0.548-0.181,1.138-0.286,1.753-0.286
	c1.719,0,3.242,0.778,4.218,1.981h0.049c-1.133-1.984-3.247-3.386-5.724-3.609c0.922-3.063,3.877-5.307,7.384-5.307
	c0.375,0,0.738,0.034,1.1,0.084c0.713,0.098,1.391,0.283,2.027,0.553c2.363,1.005,4.09,3.112,4.475,5.636
	c0-0.014,0.002-0.029,0.002-0.043c0-2.874-1.547-5.403-3.891-6.879C40.973,32.473,43.531,30.918,46.477,30.918 M46.477,28.379
	c-3.594,0-6.93,1.761-8.85,4.635c-0.072-0.013-0.146-0.022-0.223-0.033c-0.549-0.073-1.018-0.107-1.48-0.107
	c-4.589,0-8.679,2.938-9.946,7.146l-0.304,1.002c-0.326,0.199-0.639,0.424-0.933,0.67C23.001,43.139,22,45.229,22,47.428
	c0,3.293,2.207,6.199,5.49,7.231c0.806,0.257,1.651,0.388,2.506,0.388h22.783c0.688,0,1.385-0.076,2.076-0.23
	C59.061,53.896,62,50.379,62,46.26c0-3.129-1.77-6.045-4.621-7.611c-0.139-0.074-0.277-0.147-0.42-0.216c0-0.021,0-0.039,0-0.063
	C56.959,32.861,52.256,28.379,46.477,28.379L46.477,28.379z"/>
</svg>
