<?xml version="1.0" encoding="utf-8"?>
<!-- Generator: Adobe Illustrator 15.0.0, SVG Export Plug-In . SVG Version: 6.00 Build 0)  -->
<!DOCTYPE svg PUBLIC "-//W3C//DTD SVG 1.1//EN" "http://www.w3.org/Graphics/SVG/1.1/DTD/svg11.dtd" [
	<!ENTITY ns_flows "http://ns.adobe.com/Flows/1.0/">
	<!ENTITY ns_extend "http://ns.adobe.com/Extensibility/1.0/">
	<!ENTITY ns_ai "http://ns.adobe.com/AdobeIllustrator/10.0/">
	<!ENTITY ns_graphs "http://ns.adobe.com/Graphs/1.0/">
]>
<svg version="1.1" id="Layer_1" xmlns:x="&ns_extend;" xmlns:i="&ns_ai;" xmlns:graph="&ns_graphs;"
	 xmlns="http://www.w3.org/2000/svg" xmlns:xlink="http://www.w3.org/1999/xlink" xmlns:a="http://ns.adobe.com/AdobeSVGViewerExtensions/3.0/"
	 x="0px" y="0px" width="64px" height="64px" viewBox="0 0 64 64" enable-background="new 0 0 64 64" xml:space="preserve">
<radialGradient id="SVGID_1_" cx="18.0513" cy="17.0537" r="14.93" gradientUnits="userSpaceOnUse">
	<stop  offset="0" style="stop-color:#FF9900"/>
	<stop  offset="0.0615" style="stop-color:#FF9F07"/>
	<stop  offset="0.4777" style="stop-color:#FFC431"/>
	<stop  offset="0.8046" style="stop-color:#FFDB4A"/>
	<stop  offset="1" style="stop-color:#FFE354"/>
	<a:midPointStop  offset="0" style="stop-color:#FF9900"/>
	<a:midPointStop  offset="0.4061" style="stop-color:#FF9900"/>
	<a:midPointStop  offset="1" style="stop-color:#FFE354"/>
</radialGradient>
<path fill="url(#SVGID_1_)" d="M20.866,8.866L18.052,2l-2.815,6.866c0.915-0.161,1.853-0.259,2.814-0.259
	C19.014,8.607,19.952,8.705,20.866,8.866z"/>
<radialGradient id="SVGID_2_" cx="18.0552" cy="17.0518" r="14.9263" gradientUnits="userSpaceOnUse">
	<stop  offset="0" style="stop-color:#FF9900"/>
	<stop  offset="0.0615" style="stop-color:#FF9F07"/>
	<stop  offset="0.4777" style="stop-color:#FFC431"/>
	<stop  offset="0.8046" style="stop-color:#FFDB4A"/>
	<stop  offset="1" style="stop-color:#FFE354"/>
	<a:midPointStop  offset="0" style="stop-color:#FF9900"/>
	<a:midPointStop  offset="0.4061" style="stop-color:#FF9900"/>
	<a:midPointStop  offset="1" style="stop-color:#FFE354"/>
</radialGradient>
<path fill="url(#SVGID_2_)" d="M9.865,14.237L3,17.053l6.865,2.813c-0.16-0.913-0.258-1.852-0.258-2.814S9.705,15.152,9.865,14.237z
	"/>
<radialGradient id="SVGID_3_" cx="18.0576" cy="17.0537" r="14.9264" gradientUnits="userSpaceOnUse">
	<stop  offset="0" style="stop-color:#FF9900"/>
	<stop  offset="0.0615" style="stop-color:#FF9F07"/>
	<stop  offset="0.4777" style="stop-color:#FFC431"/>
	<stop  offset="0.8046" style="stop-color:#FFDB4A"/>
	<stop  offset="1" style="stop-color:#FFE354"/>
	<a:midPointStop  offset="0" style="stop-color:#FF9900"/>
	<a:midPointStop  offset="0.4061" style="stop-color:#FF9900"/>
	<a:midPointStop  offset="1" style="stop-color:#FFE354"/>
</radialGradient>
<path fill="url(#SVGID_3_)" d="M25.831,13.253l2.863-6.845L21.85,9.273c0.761,0.532,1.492,1.126,2.173,1.806
	C24.703,11.761,25.297,12.494,25.831,13.253z"/>
<radialGradient id="SVGID_4_" cx="18.0571" cy="17.0537" r="14.9276" gradientUnits="userSpaceOnUse">
	<stop  offset="0" style="stop-color:#FF9900"/>
	<stop  offset="0.0615" style="stop-color:#FF9F07"/>
	<stop  offset="0.4777" style="stop-color:#FFC431"/>
	<stop  offset="0.8046" style="stop-color:#FFDB4A"/>
	<stop  offset="1" style="stop-color:#FFE354"/>
	<a:midPointStop  offset="0" style="stop-color:#FF9900"/>
	<a:midPointStop  offset="0.4061" style="stop-color:#FF9900"/>
	<a:midPointStop  offset="1" style="stop-color:#FFE354"/>
</radialGradient>
<path fill="url(#SVGID_4_)" d="M10.272,20.849l-2.864,6.846l6.846-2.865c-0.761-0.532-1.492-1.126-2.173-1.808
	C11.399,22.341,10.806,21.608,10.272,20.849z"/>
<radialGradient id="SVGID_5_" cx="18.0571" cy="17.0537" r="14.928" gradientUnits="userSpaceOnUse">
	<stop  offset="0" style="stop-color:#FF9900"/>
	<stop  offset="0.0615" style="stop-color:#FF9F07"/>
	<stop  offset="0.4777" style="stop-color:#FFC431"/>
	<stop  offset="0.8046" style="stop-color:#FFDB4A"/>
	<stop  offset="1" style="stop-color:#FFE354"/>
	<a:midPointStop  offset="0" style="stop-color:#FF9900"/>
	<a:midPointStop  offset="0.4061" style="stop-color:#FF9900"/>
	<a:midPointStop  offset="1" style="stop-color:#FFE354"/>
</radialGradient>
<path fill="url(#SVGID_5_)" d="M14.254,9.273L7.408,6.408l2.864,6.845c0.533-0.759,1.127-1.492,1.809-2.174
	C12.762,10.399,13.493,9.806,14.254,9.273z"/>
<radialGradient id="SVGID_6_" cx="17.127" cy="16.0962" r="7.0242" gradientUnits="userSpaceOnUse">
	<stop  offset="0" style="stop-color:#FFD500"/>
	<stop  offset="0.381" style="stop-color:#FFD200"/>
	<stop  offset="0.7146" style="stop-color:#FFC700"/>
	<stop  offset="1" style="stop-color:#FFB700"/>
	<a:midPointStop  offset="0" style="stop-color:#FFD500"/>
	<a:midPointStop  offset="0.7333" style="stop-color:#FFD500"/>
	<a:midPointStop  offset="1" style="stop-color:#FFB700"/>
</radialGradient>
<circle fill="url(#SVGID_6_)" cx="18.052" cy="17.052" r="7.024"/>
<linearGradient id="SVGID_7_" gradientUnits="userSpaceOnUse" x1="38.5996" y1="33.4453" x2="38.5996" y2="5.6958" gradientTransform="matrix(1 -0.002 0.002 1 -0.6512 -0.1476)">
	<stop  offset="0" style="stop-color:#D9F5FF"/>
	<stop  offset="1" style="stop-color:#FFFFFF"/>
	<a:midPointStop  offset="0" style="stop-color:#D9F5FF"/>
	<a:midPointStop  offset="0.5152" style="stop-color:#D9F5FF"/>
	<a:midPointStop  offset="1" style="stop-color:#FFFFFF"/>
</linearGradient>
<path fill="url(#SVGID_7_)" d="M24.211,33.247c-0.817,0.002-1.628-0.119-2.407-0.366c-3.145-0.983-5.263-3.766-5.269-6.92
	c-0.005-2.106,0.951-4.112,2.615-5.505c0.434-0.362,0.899-0.672,1.401-0.929l-0.026-0.004l0.508-1.689
	c1.259-4.221,5.351-7.173,9.949-7.182c0.46-0.001,0.931,0.034,1.483,0.107c0.422,0.058,0.839,0.137,1.246,0.242l0.201-0.35
	c1.852-3.194,5.377-5.184,9.197-5.191c5.804-0.012,10.532,4.479,10.543,10.008c0.001,0.273-0.018,0.535-0.042,0.801L53.6,16.465
	c0.445,0.16,0.88,0.36,1.304,0.591c2.808,1.535,4.558,4.4,4.563,7.477c0.009,4.05-2.877,7.521-7.016,8.434
	c-0.678,0.151-1.363,0.229-2.035,0.23L24.211,33.247z"/>
<linearGradient id="SVGID_8_" gradientUnits="userSpaceOnUse" x1="20.1411" y1="12.5776" x2="58.5152" y2="31.3272">
	<stop  offset="0" style="stop-color:#FFEC8C"/>
	<stop  offset="0.1394" style="stop-color:#B0D9EB"/>
	<stop  offset="0.4292" style="stop-color:#ABD4E6"/>
	<stop  offset="0.7799" style="stop-color:#9CC6D8"/>
	<stop  offset="1" style="stop-color:#8FBACC"/>
	<a:midPointStop  offset="0" style="stop-color:#FFEC8C"/>
	<a:midPointStop  offset="0.5" style="stop-color:#FFEC8C"/>
	<a:midPointStop  offset="0.1394" style="stop-color:#B0D9EB"/>
	<a:midPointStop  offset="0.6667" style="stop-color:#B0D9EB"/>
	<a:midPointStop  offset="1" style="stop-color:#8FBACC"/>
</linearGradient>
<path fill="url(#SVGID_8_)" d="M43.112,6.921c4.965-0.01,8.997,3.819,9.006,8.551c0.001,0.232-0.017,0.456-0.036,0.681
	c-2.074,0.157-3.963,0.95-5.444,2.181c1.103-0.608,2.379-0.96,3.745-0.963c0.504-0.001,0.998,0.046,1.478,0.134
	c0.813,0.154,1.579,0.435,2.277,0.818c2.264,1.236,3.791,3.55,3.796,6.213c0.007,3.41-2.485,6.27-5.829,7.008
	c-0.545,0.122-1.11,0.192-1.692,0.193H50.41l-26.203,0.052l0,0c-0.67,0.001-1.316-0.104-1.921-0.297
	c-2.444-0.761-4.211-2.948-4.216-5.534c-0.004-1.759,0.807-3.332,2.092-4.403c0.584-0.486,1.261-0.867,2.007-1.119
	c0.63-0.209,1.309-0.332,2.015-0.333c1.978-0.004,3.731,0.888,4.856,2.27h0.057c-1.306-2.28-3.741-3.887-6.592-4.139
	c1.054-3.523,4.446-6.111,8.481-6.12c0.432-0.001,0.85,0.038,1.264,0.095c0.821,0.111,1.601,0.322,2.333,0.631
	c2.722,1.151,4.712,3.57,5.16,6.473c0-0.017,0.003-0.034,0.003-0.05c-0.008-3.306-1.793-6.212-4.492-7.903
	C36.786,8.721,39.725,6.928,43.112,6.921 M43.107,4c-4.134,0.009-7.967,2.041-10.168,5.351c-0.084-0.014-0.169-0.024-0.256-0.037
	c-0.631-0.084-1.171-0.122-1.703-0.121c-5.278,0.011-9.977,3.398-11.423,8.241l-0.347,1.154c-0.375,0.229-0.734,0.488-1.072,0.772
	c-1.997,1.667-3.144,4.074-3.139,6.603c0.007,3.787,2.551,7.125,6.33,8.305c0.928,0.293,1.9,0.441,2.883,0.439l26.203-0.051
	c0.789-0.002,1.592-0.091,2.385-0.269c4.837-1.069,8.209-5.121,8.199-9.858c-0.007-3.598-2.05-6.948-5.332-8.742
	c-0.159-0.086-0.319-0.169-0.482-0.247c0-0.025,0-0.046,0-0.074C55.174,9.132,49.754,3.987,43.107,4L43.107,4z"/>
<radialGradient id="SVGID_9_" cx="-183.6045" cy="93.5498" r="3.295" gradientTransform="matrix(0.7831 0.285 -0.6296 1.73 222.0429 -68.4413)" gradientUnits="userSpaceOnUse">
	<stop  offset="0" style="stop-color:#ADF1FF"/>
	<stop  offset="0.159" style="stop-color:#A9F0FF"/>
	<stop  offset="0.3113" style="stop-color:#9EEDFF"/>
	<stop  offset="0.461" style="stop-color:#8AE8FF"/>
	<stop  offset="0.609" style="stop-color:#6FE1FF"/>
	<stop  offset="0.7558" style="stop-color:#4CD8FF"/>
	<stop  offset="0.8998" style="stop-color:#22CDFF"/>
	<stop  offset="1" style="stop-color:#00C4FF"/>
	<a:midPointStop  offset="0" style="stop-color:#ADF1FF"/>
	<a:midPointStop  offset="0.716" style="stop-color:#ADF1FF"/>
	<a:midPointStop  offset="1" style="stop-color:#00C4FF"/>
</radialGradient>
<path fill="url(#SVGID_9_)" d="M21.237,36.165c-3.001,2.4-5.114,4.846-5.961,7.176c-0.721,1.98,0.019,4.069,1.653,4.665
	c1.635,0.595,3.545-0.53,4.267-2.511C22.044,43.166,21.982,39.872,21.237,36.165z"/>
<radialGradient id="SVGID_10_" cx="-164.1841" cy="89.8379" r="3.8444" gradientTransform="matrix(0.7831 0.285 -0.6296 1.73 220.9753 -65.5079)" gradientUnits="userSpaceOnUse">
	<stop  offset="0" style="stop-color:#ADF1FF"/>
	<stop  offset="0.159" style="stop-color:#A9F0FF"/>
	<stop  offset="0.3113" style="stop-color:#9EEDFF"/>
	<stop  offset="0.461" style="stop-color:#8AE8FF"/>
	<stop  offset="0.609" style="stop-color:#6FE1FF"/>
	<stop  offset="0.7558" style="stop-color:#4CD8FF"/>
	<stop  offset="0.8998" style="stop-color:#22CDFF"/>
	<stop  offset="1" style="stop-color:#00C4FF"/>
	<a:midPointStop  offset="0" style="stop-color:#ADF1FF"/>
	<a:midPointStop  offset="0.716" style="stop-color:#ADF1FF"/>
	<a:midPointStop  offset="1" style="stop-color:#00C4FF"/>
</radialGradient>
<path fill="url(#SVGID_10_)" d="M38.027,37.395c-3.501,2.801-5.967,5.653-6.954,8.372c-0.841,2.311,0.021,4.747,1.929,5.442
	c1.907,0.694,4.136-0.618,4.978-2.929C38.969,45.563,38.896,41.72,38.027,37.395z"/>
<radialGradient id="SVGID_11_" cx="-145.543" cy="82.0059" r="3.295" gradientTransform="matrix(0.7831 0.285 -0.6296 1.73 218.7227 -59.3185)" gradientUnits="userSpaceOnUse">
	<stop  offset="0" style="stop-color:#ADF1FF"/>
	<stop  offset="0.159" style="stop-color:#A9F0FF"/>
	<stop  offset="0.3113" style="stop-color:#9EEDFF"/>
	<stop  offset="0.461" style="stop-color:#8AE8FF"/>
	<stop  offset="0.609" style="stop-color:#6FE1FF"/>
	<stop  offset="0.7558" style="stop-color:#4CD8FF"/>
	<stop  offset="0.8998" style="stop-color:#22CDFF"/>
	<stop  offset="1" style="stop-color:#00C4FF"/>
	<a:midPointStop  offset="0" style="stop-color:#ADF1FF"/>
	<a:midPointStop  offset="0.716" style="stop-color:#ADF1FF"/>
	<a:midPointStop  offset="1" style="stop-color:#00C4FF"/>
</radialGradient>
<path fill="url(#SVGID_11_)" d="M54.991,36.165c-3.001,2.4-5.114,4.846-5.961,7.176c-0.721,1.98,0.019,4.069,1.653,4.665
	c1.635,0.595,3.545-0.53,4.267-2.511C55.798,43.166,55.736,39.872,54.991,36.165z"/>
<radialGradient id="SVGID_12_" cx="-150.4995" cy="98.2314" r="3.2953" gradientTransform="matrix(0.7831 0.285 -0.6296 1.73 223.3894 -72.141)" gradientUnits="userSpaceOnUse">
	<stop  offset="0" style="stop-color:#ADF1FF"/>
	<stop  offset="0.159" style="stop-color:#A9F0FF"/>
	<stop  offset="0.3113" style="stop-color:#9EEDFF"/>
	<stop  offset="0.461" style="stop-color:#8AE8FF"/>
	<stop  offset="0.609" style="stop-color:#6FE1FF"/>
	<stop  offset="0.7558" style="stop-color:#4CD8FF"/>
	<stop  offset="0.8998" style="stop-color:#22CDFF"/>
	<stop  offset="1" style="stop-color:#00C4FF"/>
	<a:midPointStop  offset="0" style="stop-color:#ADF1FF"/>
	<a:midPointStop  offset="0.716" style="stop-color:#ADF1FF"/>
	<a:midPointStop  offset="1" style="stop-color:#00C4FF"/>
</radialGradient>
<path fill="url(#SVGID_12_)" d="M45.561,50c-3.001,2.4-5.114,4.846-5.961,7.176c-0.721,1.98,0.019,4.069,1.653,4.665
	c1.635,0.595,3.545-0.53,4.267-2.511C46.367,57.001,46.306,53.707,45.561,50z"/>
<radialGradient id="SVGID_13_" cx="-174.7354" cy="105.582" r="3.295" gradientTransform="matrix(0.7831 0.285 -0.6296 1.73 225.5036 -77.95)" gradientUnits="userSpaceOnUse">
	<stop  offset="0" style="stop-color:#ADF1FF"/>
	<stop  offset="0.159" style="stop-color:#A9F0FF"/>
	<stop  offset="0.3113" style="stop-color:#9EEDFF"/>
	<stop  offset="0.461" style="stop-color:#8AE8FF"/>
	<stop  offset="0.609" style="stop-color:#6FE1FF"/>
	<stop  offset="0.7558" style="stop-color:#4CD8FF"/>
	<stop  offset="0.8998" style="stop-color:#22CDFF"/>
	<stop  offset="1" style="stop-color:#00C4FF"/>
	<a:midPointStop  offset="0" style="stop-color:#ADF1FF"/>
	<a:midPointStop  offset="0.716" style="stop-color:#ADF1FF"/>
	<a:midPointStop  offset="1" style="stop-color:#00C4FF"/>
</radialGradient>
<path fill="url(#SVGID_13_)" d="M24.067,50c-3.001,2.4-5.114,4.846-5.961,7.176c-0.721,1.98,0.019,4.069,1.653,4.665
	c1.635,0.595,3.545-0.53,4.267-2.511C24.874,57.001,24.813,53.707,24.067,50z"/>
</svg>
