<?xml version="1.0" encoding="utf-8"?>
<!-- Generator: Adobe Illustrator 15.0.0, SVG Export Plug-In . SVG Version: 6.00 Build 0)  -->
<!DOCTYPE svg PUBLIC "-//W3C//DTD SVG 1.1//EN" "http://www.w3.org/Graphics/SVG/1.1/DTD/svg11.dtd" [
	<!ENTITY ns_flows "http://ns.adobe.com/Flows/1.0/">
	<!ENTITY ns_extend "http://ns.adobe.com/Extensibility/1.0/">
	<!ENTITY ns_ai "http://ns.adobe.com/AdobeIllustrator/10.0/">
	<!ENTITY ns_graphs "http://ns.adobe.com/Graphs/1.0/">
]>
<svg version="1.1" id="Layer_1" xmlns:x="&ns_extend;" xmlns:i="&ns_ai;" xmlns:graph="&ns_graphs;"
	 xmlns="http://www.w3.org/2000/svg" xmlns:xlink="http://www.w3.org/1999/xlink" xmlns:a="http://ns.adobe.com/AdobeSVGViewerExtensions/3.0/"
	 x="0px" y="0px" width="64px" height="64px" viewBox="0 0 64 64" enable-background="new 0 0 64 64" xml:space="preserve">
<radialGradient id="SVGID_1_" cx="-190.7808" cy="94.6611" r="3.2953" gradientTransform="matrix(0.7831 0.285 -0.6296 1.73 222.3625 -69.3195)" gradientUnits="userSpaceOnUse">
	<stop  offset="0" style="stop-color:#ADF1FF"/>
	<stop  offset="0.159" style="stop-color:#A9F0FF"/>
	<stop  offset="0.3113" style="stop-color:#9EEDFF"/>
	<stop  offset="0.461" style="stop-color:#8AE8FF"/>
	<stop  offset="0.609" style="stop-color:#6FE1FF"/>
	<stop  offset="0.7558" style="stop-color:#4CD8FF"/>
	<stop  offset="0.8998" style="stop-color:#22CDFF"/>
	<stop  offset="1" style="stop-color:#00C4FF"/>
	<a:midPointStop  offset="0" style="stop-color:#ADF1FF"/>
	<a:midPointStop  offset="0.716" style="stop-color:#ADF1FF"/>
	<a:midPointStop  offset="1" style="stop-color:#00C4FF"/>
</radialGradient>
<path fill="url(#SVGID_1_)" d="M15.237,35.165c-3.001,2.4-5.114,4.846-5.961,7.176c-0.721,1.98,0.019,4.069,1.653,4.665
	c1.635,0.595,3.545-0.53,4.267-2.511C16.044,42.166,15.982,38.872,15.237,35.165z"/>
<radialGradient id="SVGID_2_" cx="-170.9497" cy="91.8906" r="3.8441" gradientTransform="matrix(0.7831 0.285 -0.6296 1.73 221.5657 -67.1301)" gradientUnits="userSpaceOnUse">
	<stop  offset="0" style="stop-color:#ADF1FF"/>
	<stop  offset="0.159" style="stop-color:#A9F0FF"/>
	<stop  offset="0.3113" style="stop-color:#9EEDFF"/>
	<stop  offset="0.461" style="stop-color:#8AE8FF"/>
	<stop  offset="0.609" style="stop-color:#6FE1FF"/>
	<stop  offset="0.7558" style="stop-color:#4CD8FF"/>
	<stop  offset="0.8998" style="stop-color:#22CDFF"/>
	<stop  offset="1" style="stop-color:#00C4FF"/>
	<a:midPointStop  offset="0" style="stop-color:#ADF1FF"/>
	<a:midPointStop  offset="0.716" style="stop-color:#ADF1FF"/>
	<a:midPointStop  offset="1" style="stop-color:#00C4FF"/>
</radialGradient>
<path fill="url(#SVGID_2_)" d="M32.027,37.395c-3.501,2.801-5.967,5.653-6.954,8.372c-0.841,2.311,0.021,4.747,1.929,5.442
	c1.907,0.694,4.136-0.618,4.978-2.929C32.969,45.563,32.896,41.72,32.027,37.395z"/>
<radialGradient id="SVGID_3_" cx="-152.7192" cy="83.1182" r="3.295" gradientTransform="matrix(0.7831 0.285 -0.6296 1.73 219.0426 -60.1975)" gradientUnits="userSpaceOnUse">
	<stop  offset="0" style="stop-color:#ADF1FF"/>
	<stop  offset="0.159" style="stop-color:#A9F0FF"/>
	<stop  offset="0.3113" style="stop-color:#9EEDFF"/>
	<stop  offset="0.461" style="stop-color:#8AE8FF"/>
	<stop  offset="0.609" style="stop-color:#6FE1FF"/>
	<stop  offset="0.7558" style="stop-color:#4CD8FF"/>
	<stop  offset="0.8998" style="stop-color:#22CDFF"/>
	<stop  offset="1" style="stop-color:#00C4FF"/>
	<a:midPointStop  offset="0" style="stop-color:#ADF1FF"/>
	<a:midPointStop  offset="0.716" style="stop-color:#ADF1FF"/>
	<a:midPointStop  offset="1" style="stop-color:#00C4FF"/>
</radialGradient>
<path fill="url(#SVGID_3_)" d="M48.991,35.165c-3.001,2.4-5.114,4.846-5.961,7.176c-0.721,1.98,0.019,4.069,1.653,4.665
	c1.635,0.595,3.545-0.53,4.267-2.511C49.798,42.166,49.736,38.872,48.991,35.165z"/>
<radialGradient id="SVGID_4_" cx="-157.2651" cy="100.2842" r="3.295" gradientTransform="matrix(0.7831 0.285 -0.6296 1.73 223.9798 -73.7633)" gradientUnits="userSpaceOnUse">
	<stop  offset="0" style="stop-color:#ADF1FF"/>
	<stop  offset="0.159" style="stop-color:#A9F0FF"/>
	<stop  offset="0.3113" style="stop-color:#9EEDFF"/>
	<stop  offset="0.461" style="stop-color:#8AE8FF"/>
	<stop  offset="0.609" style="stop-color:#6FE1FF"/>
	<stop  offset="0.7558" style="stop-color:#4CD8FF"/>
	<stop  offset="0.8998" style="stop-color:#22CDFF"/>
	<stop  offset="1" style="stop-color:#00C4FF"/>
	<a:midPointStop  offset="0" style="stop-color:#ADF1FF"/>
	<a:midPointStop  offset="0.716" style="stop-color:#ADF1FF"/>
	<a:midPointStop  offset="1" style="stop-color:#00C4FF"/>
</radialGradient>
<path fill="url(#SVGID_4_)" d="M39.561,50c-3.001,2.4-5.114,4.846-5.961,7.176c-0.721,1.98,0.019,4.069,1.653,4.665
	c1.635,0.595,3.545-0.53,4.267-2.511C40.367,57.001,40.306,53.707,39.561,50z"/>
<radialGradient id="SVGID_5_" cx="-181.5015" cy="107.6338" r="3.2953" gradientTransform="matrix(0.7831 0.285 -0.6296 1.73 226.0937 -79.5714)" gradientUnits="userSpaceOnUse">
	<stop  offset="0" style="stop-color:#ADF1FF"/>
	<stop  offset="0.159" style="stop-color:#A9F0FF"/>
	<stop  offset="0.3113" style="stop-color:#9EEDFF"/>
	<stop  offset="0.461" style="stop-color:#8AE8FF"/>
	<stop  offset="0.609" style="stop-color:#6FE1FF"/>
	<stop  offset="0.7558" style="stop-color:#4CD8FF"/>
	<stop  offset="0.8998" style="stop-color:#22CDFF"/>
	<stop  offset="1" style="stop-color:#00C4FF"/>
	<a:midPointStop  offset="0" style="stop-color:#ADF1FF"/>
	<a:midPointStop  offset="0.716" style="stop-color:#ADF1FF"/>
	<a:midPointStop  offset="1" style="stop-color:#00C4FF"/>
</radialGradient>
<path fill="url(#SVGID_5_)" d="M18.067,50c-3.001,2.4-5.114,4.846-5.961,7.176c-0.721,1.98,0.019,4.069,1.653,4.665
	c1.635,0.595,3.545-0.53,4.267-2.511C18.874,57.001,18.813,53.707,18.067,50z"/>
<linearGradient id="SVGID_6_" gradientUnits="userSpaceOnUse" x1="32.0015" y1="30.5713" x2="32.0015" y2="3.4277">
	<stop  offset="0" style="stop-color:#D9F5FF"/>
	<stop  offset="1" style="stop-color:#FFFFFF"/>
	<a:midPointStop  offset="0" style="stop-color:#D9F5FF"/>
	<a:midPointStop  offset="0.5152" style="stop-color:#D9F5FF"/>
	<a:midPointStop  offset="1" style="stop-color:#FFFFFF"/>
</linearGradient>
<path fill="url(#SVGID_6_)" d="M18.195,30.571c-0.816,0-1.627-0.119-2.404-0.362c-3.143-0.968-5.256-3.693-5.256-6.779
	c0-2.06,0.959-4.021,2.627-5.38c0.434-0.353,0.9-0.655,1.402-0.906l-0.025-0.003l0.51-1.652c1.268-4.125,5.365-7.006,9.965-7.006
	c0.459,0,0.93,0.035,1.48,0.108c0.422,0.058,0.84,0.136,1.246,0.24l0.203-0.343c1.855-3.121,5.385-5.061,9.205-5.061
	c5.803,0,10.523,4.4,10.523,9.811c0,0.266-0.018,0.523-0.043,0.782l-0.014,0.19c0.445,0.159,0.881,0.354,1.303,0.581
	c2.805,1.507,4.549,4.314,4.549,7.323c0,3.962-2.893,7.352-7.033,8.235c-0.676,0.146-1.363,0.221-2.035,0.221H18.195z"/>
<linearGradient id="SVGID_7_" gradientUnits="userSpaceOnUse" x1="32.0005" y1="32" x2="32.0005" y2="2">
	<stop  offset="0" style="stop-color:#8FBACC"/>
	<stop  offset="0.2558" style="stop-color:#9CC6D8"/>
	<stop  offset="0.6633" style="stop-color:#ABD4E6"/>
	<stop  offset="1" style="stop-color:#B0D9EB"/>
	<a:midPointStop  offset="0" style="stop-color:#8FBACC"/>
	<a:midPointStop  offset="0.3333" style="stop-color:#8FBACC"/>
	<a:midPointStop  offset="1" style="stop-color:#B0D9EB"/>
</linearGradient>
<path fill="url(#SVGID_7_)" d="M37.148,4.856c4.965,0,8.988,3.753,8.988,8.382c0,0.227-0.018,0.445-0.037,0.664
	c-2.074,0.151-3.965,0.923-5.449,2.123c1.105-0.592,2.381-0.935,3.748-0.935c0.504,0,0.996,0.048,1.477,0.134
	c0.813,0.152,1.578,0.43,2.275,0.806c2.262,1.212,3.783,3.479,3.783,6.085c0,3.336-2.496,6.127-5.842,6.844
	c-0.545,0.117-1.109,0.187-1.693,0.187l0,0H18.195l0,0c-0.67,0-1.316-0.106-1.92-0.294c-2.443-0.75-4.205-2.893-4.205-5.422
	c0-1.721,0.813-3.258,2.102-4.304c0.584-0.476,1.262-0.846,2.008-1.092c0.631-0.202,1.311-0.32,2.016-0.32
	c1.977,0,3.729,0.874,4.852,2.229h0.057c-1.301-2.232-3.734-3.809-6.584-4.062c1.061-3.443,4.459-5.97,8.494-5.97
	c0.43,0,0.85,0.038,1.262,0.094c0.822,0.111,1.602,0.32,2.332,0.623c2.719,1.131,4.705,3.501,5.146,6.341
	c0-0.016,0.004-0.034,0.004-0.049c0-3.233-1.781-6.08-4.477-7.739C30.818,6.604,33.762,4.856,37.148,4.856 M37.148,2
	c-4.133,0-7.969,1.98-10.178,5.213c-0.084-0.014-0.168-0.024-0.254-0.037c-0.633-0.083-1.172-0.121-1.703-0.121
	c-5.279,0-9.982,3.305-11.439,8.04l-0.35,1.128c-0.375,0.223-0.734,0.477-1.072,0.754C10.15,18.604,9,20.956,9,23.43
	c0,3.705,2.537,6.974,6.314,8.136C16.24,31.854,17.213,32,18.195,32h26.203c0.789,0,1.59-0.085,2.385-0.258
	C51.621,30.706,55,26.748,55,22.115c0-3.52-2.035-6.802-5.314-8.563c-0.158-0.083-0.32-0.165-0.48-0.241c0-0.025,0-0.045,0-0.072
	C49.205,7.041,43.795,2,37.148,2L37.148,2z"/>
</svg>
