<?xml version="1.0" encoding="utf-8"?>
<!-- Generator: Adobe Illustrator 15.0.0, SVG Export Plug-In . SVG Version: 6.00 Build 0)  -->
<!DOCTYPE svg PUBLIC "-//W3C//DTD SVG 1.1//EN" "http://www.w3.org/Graphics/SVG/1.1/DTD/svg11.dtd" [
	<!ENTITY ns_flows "http://ns.adobe.com/Flows/1.0/">
	<!ENTITY ns_extend "http://ns.adobe.com/Extensibility/1.0/">
	<!ENTITY ns_ai "http://ns.adobe.com/AdobeIllustrator/10.0/">
	<!ENTITY ns_graphs "http://ns.adobe.com/Graphs/1.0/">
]>
<svg version="1.1" id="Layer_1" xmlns:x="&ns_extend;" xmlns:i="&ns_ai;" xmlns:graph="&ns_graphs;"
	 xmlns="http://www.w3.org/2000/svg" xmlns:xlink="http://www.w3.org/1999/xlink" xmlns:a="http://ns.adobe.com/AdobeSVGViewerExtensions/3.0/"
	 x="0px" y="0px" width="64px" height="64px" viewBox="0 0 64 64" enable-background="new 0 0 64 64" xml:space="preserve">
<path fill="#529320" d="M31.915,29.901c0,0-16.095-3.053-24.486,12.286c11.727-7.408,15.321,4.669,24.996,8.237
	c12.927,4.771,24.94-5.365,19.22-19.002C45.926,17.767,32.014,14.486,34.584,2C20.006,20.503,31.915,29.901,31.915,29.901z"/>
<path fill="#529320" d="M61.734,54.718c-1.727-1.704-1.596-7.844-8.33-1.186c-6.729,6.66-0.475,6.519,1.235,8.208
	C56.349,63.426,63.452,56.414,61.734,54.718z"/>
<path fill="#7AB51D" d="M51.7,51.354c-9.643,8.1-2.705,7.278-0.281,9.099c2.319,1.744,11.651-6.1,9.751-8.306
	C59.587,50.31,61.347,43.261,51.7,51.354z"/>
<radialGradient id="SVGID_1_" cx="171.9473" cy="114.8867" r="12.7761" gradientTransform="matrix(0.7154 -0.7103 1.9311 1.9174 -329.6223 -82.531)" gradientUnits="userSpaceOnUse">
	<stop  offset="0" style="stop-color:#FFD500"/>
	<stop  offset="0.3243" style="stop-color:#FFD200"/>
	<stop  offset="0.6087" style="stop-color:#FFC700"/>
	<stop  offset="0.8772" style="stop-color:#FFB500"/>
	<stop  offset="1" style="stop-color:#FFAA00"/>
	<a:midPointStop  offset="0" style="stop-color:#FFD500"/>
	<a:midPointStop  offset="0.7333" style="stop-color:#FFD500"/>
	<a:midPointStop  offset="1" style="stop-color:#FFAA00"/>
</radialGradient>
<path fill="url(#SVGID_1_)" d="M38.747,24.854c0.974-1.452,0.695-2.166-0.308-3.159c-0.997-0.993-1.973-1.515-3.692-0.801
	c0.976-1.453,0.695-2.167-0.304-3.16c-1.033-1.024-2.059-1.54-3.909-0.697c0.703-1.225,0.405-1.902-0.529-2.828
	c-1.032-1.024-2.051-1.55-3.841-0.767c0.644-1.156,0.335-1.831-0.598-2.746c-1.098-1.084-2.137-1.618-4.037-0.726
	c0.353-0.899-0.005-1.512-0.85-2.352c-1.122-1.114-2.162-1.693-3.989-0.858c0.239-0.802-0.088-1.424-0.896-2.222
	c-1.429-1.41-2.812-1.861-5.424-0.089c-2.251-2.157-5.11-1.512-5.741,1.326c-2.86,0.627-3.509,3.464-1.334,5.701
	c-1.786,2.593-1.333,3.964,0.088,5.384c0.803,0.803,1.428,1.128,2.236,0.889c-0.839,1.815-0.257,2.847,0.864,3.963
	c0.846,0.841,1.464,1.195,2.37,0.844c-0.898,1.887-0.361,2.917,0.73,4.009c0.922,0.925,1.603,1.232,2.765,0.593
	c-0.788,1.779-0.259,2.787,0.775,3.814c0.933,0.927,1.612,1.222,2.847,0.524c-0.849,1.837-0.332,2.854,0.702,3.881
	c1.001,0.992,1.72,1.272,3.182,0.302c-0.719,1.709-0.195,2.675,0.806,3.667c1,0.995,1.722,1.271,3.181,0.304
	c-0.716,1.706-0.192,2.676,0.809,3.669c0,0,12.589,10.539,20.498,2.686c7.909-7.852-2.706-20.352-2.706-20.352
	C41.441,24.661,40.465,24.14,38.747,24.854z"/>
<path fill="#E6A500" d="M14.498,10.48c0,0.002-0.288-0.843,0.487-2.04c-1.294,0.703-2.132,0.552-2.132,0.553
	c0-0.003,0.09,1.135-0.471,2.018C13.231,10.414,14.497,10.481,14.498,10.48z"/>
<path fill="#E6A500" d="M17.38,13.066c0.001-0.001,0.041,1.184-0.577,2.128c0.91-0.659,2.22-0.637,2.222-0.639
	c0,0-0.249-0.866,0.596-2.148C18.244,13.191,17.381,13.065,17.38,13.066z"/>
<path fill="#E6A500" d="M25.628,20.486c0.001-0.001-0.044,1.267-0.771,2.323c1.019-0.771,2.413-0.831,2.414-0.834
	c0,0-0.214-0.915,0.796-2.344C26.543,20.561,25.628,20.486,25.628,20.486z"/>
<path fill="#E6A500" d="M21.507,16.777c0.002-0.001-0.001,1.227-0.674,2.224c0.963-0.713,2.318-0.732,2.32-0.734
	c0.002,0-0.226-0.902,0.693-2.249C22.396,16.876,21.507,16.775,21.507,16.777z"/>
<path fill="#E6A500" d="M29.75,24.192c0,0-0.087,1.313-0.874,2.421c1.074-0.823,2.514-0.929,2.516-0.931
	c-0.003,0.001-0.178-0.946,0.895-2.446C30.684,24.243,29.75,24.192,29.75,24.192z"/>
<path fill="#E6A500" d="M37.993,31.609c0.003,0-0.171,1.4-1.065,2.617c1.188-0.931,2.709-1.123,2.711-1.124
	c-0.002,0.001-0.131-0.983,1.094-2.643C38.998,31.599,37.993,31.609,37.993,31.609z"/>
<path fill="#E6A500" d="M36.506,26.846c-1.658,1.079-2.635,1.049-2.637,1.051c0.002-0.001-0.131,1.355-0.969,2.52
	c1.128-0.878,2.613-1.025,2.616-1.027C35.513,29.39,35.361,28.428,36.506,26.846z"/>
<path fill="#E6A500" d="M9.338,15.602c0.002-0.002-0.066-1.258,0.536-2.1c-0.89,0.554-2.036,0.467-2.033,0.465
	c0,0.002,0.151,0.832-0.557,2.119C8.49,15.319,9.339,15.6,9.338,15.602z"/>
<path fill="#E6A500" d="M11.278,20.689c1.292-0.838,2.165-0.593,2.166-0.592c0.002-0.002-0.022-1.304,0.643-2.205
	c-0.953,0.613-2.145,0.574-2.143,0.57C11.943,18.466,12.069,19.323,11.278,20.689z"/>
<path fill="#E6A500" d="M20.917,28.285c0.002-0.002,0.063-1.386,0.838-2.399c-1.062,0.72-2.338,0.768-2.338,0.766
	c0,0,0.076,0.908-0.862,2.424C19.995,28.072,20.917,28.285,20.917,28.285z"/>
<path fill="#E6A500" d="M17.92,21.889c-1.006,0.671-2.241,0.675-2.238,0.673c-0.002,0,0.1,0.882-0.764,2.323
	c1.356-0.915,2.264-0.689,2.264-0.689C17.183,24.195,17.203,22.848,17.92,21.889z"/>
<path fill="#E6A500" d="M22.188,33.265c1.508-1.067,2.462-0.891,2.462-0.891c0.002-0.002,0.107-1.43,0.937-2.496
	c-1.116,0.78-2.438,0.867-2.438,0.867S23.2,31.675,22.188,33.265z"/>
<path fill="#E6A500" d="M25.822,37.454c1.593-1.141,2.563-0.985,2.561-0.984c0.001-0.004,0.152-1.477,1.036-2.597
	c-1.172,0.834-2.54,0.965-2.539,0.964C26.879,34.838,26.909,35.807,25.822,37.454z"/>
<path fill="#E6A500" d="M6.297,7.472c0,0,0.04,1.061-0.485,1.877C6.585,8.804,7.48,8.092,8.206,6.984
	C7.035,7.623,6.297,7.472,6.297,7.472z"/>
<linearGradient id="SVGID_2_" gradientUnits="userSpaceOnUse" x1="191.1719" y1="184.708" x2="183.0274" y2="144.3071" gradientTransform="matrix(0.7071 -0.7071 0.7071 0.7071 -187.2008 57.3105)">
	<stop  offset="0" style="stop-color:#297124"/>
	<stop  offset="1" style="stop-color:#77B516"/>
	<a:midPointStop  offset="0" style="stop-color:#297124"/>
	<a:midPointStop  offset="0.5" style="stop-color:#297124"/>
	<a:midPointStop  offset="1" style="stop-color:#77B516"/>
</linearGradient>
<path fill="url(#SVGID_2_)" d="M57.759,55.397c13.184-13.028-11.947-32.186-13.32-41.841C28.307,35.799,57.759,55.397,57.759,55.397
	z"/>
<linearGradient id="SVGID_3_" gradientUnits="userSpaceOnUse" x1="172.5547" y1="178.916" x2="158.3195" y2="143.3281" gradientTransform="matrix(0.7071 -0.7071 0.7071 0.7071 -187.2008 57.3105)">
	<stop  offset="0" style="stop-color:#297124"/>
	<stop  offset="0.1483" style="stop-color:#43871F"/>
	<stop  offset="0.325" style="stop-color:#5A9C1B"/>
	<stop  offset="0.5151" style="stop-color:#6AAA18"/>
	<stop  offset="0.7261" style="stop-color:#74B217"/>
	<stop  offset="1" style="stop-color:#77B516"/>
	<a:midPointStop  offset="0" style="stop-color:#297124"/>
	<a:midPointStop  offset="0.2424" style="stop-color:#297124"/>
	<a:midPointStop  offset="1" style="stop-color:#77B516"/>
</linearGradient>
<path fill="url(#SVGID_3_)" d="M22.731,38.156c-8.204,1.206-12.973,11.304-8.341,15.873c0,0-0.237-4.343,3.392-4.876
	c9.066-1.323,25.423,20.652,39.977,6.244C57.759,55.397,47.299,35.753,22.731,38.156z"/>
<path fill="#92C932" d="M44.363,15.82c0,0-9.456,13.012,4.826,28.203C49.189,44.022,41.305,27.13,44.363,15.82z"/>
<path fill="#92C932" d="M19.157,42.128c0,0,7.905-8.547,30.245,6.447C49.402,48.575,28.677,39.084,19.157,42.128z"/>
<path fill="#FFE12C" d="M10.083,7.612c-2.992-0.001-0.997,1.968,0,1.968C11.08,9.581,12.086,7.612,10.083,7.612z"/>
<path fill="#FFE12C" d="M13.47,4.268c-2.991,0-0.997,1.968,0,1.968C14.467,6.236,15.463,4.267,13.47,4.268z"/>
<path fill="#FFE12C" d="M7.541,3.771c-2.991,0-0.998,1.968,0,1.968C8.537,5.739,9.535,3.77,7.541,3.771z"/>
<path fill="#FFE12C" d="M14.076,11.553c-2.99,0-0.996,1.968,0.001,1.968C15.073,13.521,16.07,11.554,14.076,11.553z"/>
<path fill="#FFE12C" d="M18.444,7.008c-2.991,0-0.998,1.969,0,1.969C19.44,8.977,20.438,7.009,18.444,7.008z"/>
<path fill="#FFE12C" d="M23.327,10.293c-2.991,0.001-0.998,1.97,0,1.969C24.324,12.262,25.32,10.293,23.327,10.293z"/>
<path fill="#FFE12C" d="M28.004,13.799c-2.991-0.001-0.997,1.968,0,1.968C29.011,15.767,30.008,13.799,28.004,13.799z"/>
<path fill="#FFE12C" d="M18.532,15.497c-2.991,0-0.997,1.969,0,1.969C19.529,17.465,20.526,15.497,18.532,15.497z"/>
<path fill="#FFE12C" d="M22.749,19.443c-2.991,0-0.997,1.969,0,1.969S24.743,19.443,22.749,19.443z"/>
<path fill="#FFE12C" d="M35.164,30.836c-2.99,0-0.997,1.969,0.001,1.97C36.162,32.807,37.159,30.837,35.164,30.836z"/>
<path fill="#FFE12C" d="M26.624,23.103c-2.991,0-0.998,1.969,0,1.968C27.62,25.07,28.617,23.103,26.624,23.103z"/>
<path fill="#FFE12C" d="M30.725,26.932c-2.991,0-0.997,1.969,0,1.969S32.719,26.932,30.725,26.932z"/>
<path fill="#FFE12C" d="M39.216,34.838c-2.99,0-0.997,1.969,0,1.969S41.21,34.837,39.216,34.838z"/>
<path fill="#FFE12C" d="M32.275,17.521c-2.99,0-0.997,1.969,0,1.969S34.269,17.52,32.275,17.521z"/>
<path fill="#FFE12C" d="M36.463,21.656c-2.991,0-0.996,1.969,0,1.969C37.46,23.625,38.457,21.656,36.463,21.656z"/>
</svg>
