<?xml version="1.0" encoding="utf-8"?>
<!-- Generator: Adobe Illustrator 15.0.0, SVG Export Plug-In . SVG Version: 6.00 Build 0)  -->
<!DOCTYPE svg PUBLIC "-//W3C//DTD SVG 1.1//EN" "http://www.w3.org/Graphics/SVG/1.1/DTD/svg11.dtd" [
	<!ENTITY ns_flows "http://ns.adobe.com/Flows/1.0/">
	<!ENTITY ns_extend "http://ns.adobe.com/Extensibility/1.0/">
	<!ENTITY ns_ai "http://ns.adobe.com/AdobeIllustrator/10.0/">
	<!ENTITY ns_graphs "http://ns.adobe.com/Graphs/1.0/">
]>
<svg version="1.1" id="Layer_1" xmlns:x="&ns_extend;" xmlns:i="&ns_ai;" xmlns:graph="&ns_graphs;"
	 xmlns="http://www.w3.org/2000/svg" xmlns:xlink="http://www.w3.org/1999/xlink" xmlns:a="http://ns.adobe.com/AdobeSVGViewerExtensions/3.0/"
	 x="0px" y="0px" width="64px" height="64px" viewBox="0 0 64 64" enable-background="new 0 0 64 64" xml:space="preserve">
<radialGradient id="SVGID_1_" cx="23.3232" cy="15.5928" r="14.1439" gradientTransform="matrix(1.0397 0 0 1.022 -1.8423 -10.6885)" gradientUnits="userSpaceOnUse">
	<stop  offset="0" style="stop-color:#92C932"/>
	<stop  offset="0.2616" style="stop-color:#8BC230"/>
	<stop  offset="0.6443" style="stop-color:#79AE29"/>
	<stop  offset="1" style="stop-color:#629621"/>
	<a:midPointStop  offset="0" style="stop-color:#92C932"/>
	<a:midPointStop  offset="0.6242" style="stop-color:#92C932"/>
	<a:midPointStop  offset="1" style="stop-color:#629621"/>
</radialGradient>
<path fill="url(#SVGID_1_)" d="M33.343,3.85c13.562,0-17.571,20.192-17.571,6.844c0-3.796,3.573-5.046,4.359-6.137
	C23.96-0.749,31.553,3.85,33.343,3.85z"/>
<radialGradient id="SVGID_2_" cx="188.5107" cy="17.2236" r="13.9047" gradientTransform="matrix(-1.0397 0 0 1.022 232.3287 -10.6885)" gradientUnits="userSpaceOnUse">
	<stop  offset="0" style="stop-color:#92C932"/>
	<stop  offset="0.2616" style="stop-color:#8BC230"/>
	<stop  offset="0.6443" style="stop-color:#79AE29"/>
	<stop  offset="1" style="stop-color:#629621"/>
	<a:midPointStop  offset="0" style="stop-color:#92C932"/>
	<a:midPointStop  offset="0.6242" style="stop-color:#92C932"/>
	<a:midPointStop  offset="1" style="stop-color:#629621"/>
</radialGradient>
<path fill="url(#SVGID_2_)" d="M29.061,11.131c0,13.347,13.088,10.521,21.558,0.095c0-3.352-5.436-5.644-7.299-7.03
	C39.406,1.284,29.061,4.195,29.061,11.131z"/>
<radialGradient id="SVGID_3_" cx="179.8115" cy="24.9063" r="14.1045" gradientTransform="matrix(-1.0397 0 0 1.022 232.3287 -10.6885)" gradientUnits="userSpaceOnUse">
	<stop  offset="0" style="stop-color:#92C932"/>
	<stop  offset="0.2616" style="stop-color:#8BC230"/>
	<stop  offset="0.6443" style="stop-color:#79AE29"/>
	<stop  offset="1" style="stop-color:#629621"/>
	<a:midPointStop  offset="0" style="stop-color:#92C932"/>
	<a:midPointStop  offset="0.6242" style="stop-color:#92C932"/>
	<a:midPointStop  offset="1" style="stop-color:#629621"/>
</radialGradient>
<path fill="url(#SVGID_3_)" d="M38.943,15.673c-4.136,12.713,15.029,20.16,18.503,7.258C59,17.159,53.23,10.744,49.788,10.259
	C46.154,9.745,40.556,10.718,38.943,15.673z"/>
<radialGradient id="SVGID_4_" cx="535.0439" cy="587.8037" r="14.3618" gradientTransform="matrix(4.549341e-008 -1.0233 -1.0383 -4.471710e-008 658.4698 575.1697)" gradientUnits="userSpaceOnUse">
	<stop  offset="0" style="stop-color:#92C932"/>
	<stop  offset="0.2616" style="stop-color:#8BC230"/>
	<stop  offset="0.6443" style="stop-color:#79AE29"/>
	<stop  offset="1" style="stop-color:#629621"/>
	<a:midPointStop  offset="0" style="stop-color:#92C932"/>
	<a:midPointStop  offset="0.6242" style="stop-color:#92C932"/>
	<a:midPointStop  offset="1" style="stop-color:#629621"/>
</radialGradient>
<path fill="url(#SVGID_4_)" d="M48.43,21.512c-13.362,2.28-11.284,19.864,2.276,19.864C59.52,41.376,64.687,18.737,48.43,21.512z"/>
<radialGradient id="SVGID_5_" cx="436.7998" cy="796.2969" r="13.7882" gradientTransform="matrix(0.4874 -0.9039 -0.9172 -0.4791 557.1702 814.4069)" gradientUnits="userSpaceOnUse">
	<stop  offset="0" style="stop-color:#92C932"/>
	<stop  offset="0.2616" style="stop-color:#8BC230"/>
	<stop  offset="0.6443" style="stop-color:#79AE29"/>
	<stop  offset="1" style="stop-color:#629621"/>
	<a:midPointStop  offset="0" style="stop-color:#92C932"/>
	<a:midPointStop  offset="0.6242" style="stop-color:#92C932"/>
	<a:midPointStop  offset="1" style="stop-color:#629621"/>
</radialGradient>
<path fill="url(#SVGID_5_)" d="M48.348,33.159c-9.471-9.556-27.951,14.521-14.609,12.122c4.803-0.863,8.161,4.684,12.637,1.569
	C51.124,43.546,52.038,36.884,48.348,33.159z"/>
<radialGradient id="SVGID_6_" cx="13.6685" cy="25.251" r="16.4824" gradientTransform="matrix(1.0397 0 0 1.022 -1.8423 -10.6885)" gradientUnits="userSpaceOnUse">
	<stop  offset="0" style="stop-color:#92C932"/>
	<stop  offset="0.2616" style="stop-color:#8BC230"/>
	<stop  offset="0.6443" style="stop-color:#79AE29"/>
	<stop  offset="1" style="stop-color:#629621"/>
	<a:midPointStop  offset="0" style="stop-color:#92C932"/>
	<a:midPointStop  offset="0.6242" style="stop-color:#92C932"/>
	<a:midPointStop  offset="1" style="stop-color:#629621"/>
</radialGradient>
<path fill="url(#SVGID_6_)" d="M25.259,15.256c4.136,12.712-27.226,15.611-18.82,5.137c3.027-3.771,0.714-7.409,5.607-9.841
	C17.237,7.972,23.646,10.301,25.259,15.256z"/>
<radialGradient id="SVGID_7_" cx="536.1123" cy="420.626" r="16.8414" gradientTransform="matrix(-4.544674e-008 -1.0233 1.0383 -4.467122e-008 -427.9835 575.1697)" gradientUnits="userSpaceOnUse">
	<stop  offset="0" style="stop-color:#92C932"/>
	<stop  offset="0.2616" style="stop-color:#8BC230"/>
	<stop  offset="0.6443" style="stop-color:#79AE29"/>
	<stop  offset="1" style="stop-color:#629621"/>
	<a:midPointStop  offset="0" style="stop-color:#92C932"/>
	<a:midPointStop  offset="0.6242" style="stop-color:#92C932"/>
	<a:midPointStop  offset="1" style="stop-color:#629621"/>
</radialGradient>
<path fill="url(#SVGID_7_)" d="M15.771,21.095c13.345-2.38,12.093,19.836-1.47,19.836C6.857,40.931-1.738,24.218,15.771,21.095z"/>
<radialGradient id="SVGID_8_" cx="527.9658" cy="430.9844" r="15.8011" gradientTransform="matrix(-4.544674e-008 -1.0233 1.0383 -4.467122e-008 -427.9835 575.1697)" gradientUnits="userSpaceOnUse">
	<stop  offset="0" style="stop-color:#92C932"/>
	<stop  offset="0.2616" style="stop-color:#8BC230"/>
	<stop  offset="0.6443" style="stop-color:#79AE29"/>
	<stop  offset="1" style="stop-color:#629621"/>
	<a:midPointStop  offset="0" style="stop-color:#92C932"/>
	<a:midPointStop  offset="0.6242" style="stop-color:#92C932"/>
	<a:midPointStop  offset="1" style="stop-color:#629621"/>
</radialGradient>
<path fill="url(#SVGID_8_)" d="M14.745,32.206c45.231,8.725,12.933,9.741,10.75,11.816C22.116,47.235,4.102,40.931,14.745,32.206z"
	/>
<linearGradient id="SVGID_9_" gradientUnits="userSpaceOnUse" x1="23.2632" y1="48.877" x2="38.0488" y2="48.877">
	<stop  offset="0" style="stop-color:#91632E"/>
	<stop  offset="0.2923" style="stop-color:#8E612D"/>
	<stop  offset="0.4957" style="stop-color:#855A29"/>
	<stop  offset="0.672" style="stop-color:#764F22"/>
	<stop  offset="0.833" style="stop-color:#603F19"/>
	<stop  offset="0.9821" style="stop-color:#442A0D"/>
	<stop  offset="1" style="stop-color:#40270B"/>
	<a:midPointStop  offset="0" style="stop-color:#91632E"/>
	<a:midPointStop  offset="0.7758" style="stop-color:#91632E"/>
	<a:midPointStop  offset="1" style="stop-color:#40270B"/>
</linearGradient>
<path fill="url(#SVGID_9_)" d="M23.293,37.345c1.057,4.402,6.507,6,5.437,18.071c-0.276,3.125-7.259,4.938-2.829,4.71
	c3.467-0.181,2.933-2.131,5.426,0.785c2.935,3.436-0.633-2.467,4.45-1.25c5.602,1.34-0.938-1.045-0.752-3.766
	c0.552-8.086-2.466-11.721,1.613-14.429c-4.437-3.903-1.97-0.23-5.215,0.728c-4.736-1.469-3.755-4.077-6.683-6.159
	C23.391,35.075,23.169,36.828,23.293,37.345z"/>
<radialGradient id="SVGID_10_" cx="32.9063" cy="25.707" r="15.0562" gradientTransform="matrix(1.0397 0 0 1.022 -1.8423 -10.6885)" gradientUnits="userSpaceOnUse">
	<stop  offset="0" style="stop-color:#92C932"/>
	<stop  offset="0.2616" style="stop-color:#8BC230"/>
	<stop  offset="0.6443" style="stop-color:#79AE29"/>
	<stop  offset="1" style="stop-color:#629621"/>
	<a:midPointStop  offset="0" style="stop-color:#92C932"/>
	<a:midPointStop  offset="0.6242" style="stop-color:#92C932"/>
	<a:midPointStop  offset="1" style="stop-color:#629621"/>
</radialGradient>
<path fill="url(#SVGID_10_)" d="M44.467,18.134c4.189,12.695-23.741,14.91-22.444,1.623C23.248,7.192,40.66,6.597,44.467,18.134z"/>
<radialGradient id="SVGID_11_" cx="20.7339" cy="33.3799" r="15.3615" gradientTransform="matrix(1.0397 0 0 1.022 -1.8423 -10.6885)" gradientUnits="userSpaceOnUse">
	<stop  offset="0" style="stop-color:#92C932"/>
	<stop  offset="0.2616" style="stop-color:#8BC230"/>
	<stop  offset="0.6443" style="stop-color:#79AE29"/>
	<stop  offset="1" style="stop-color:#629621"/>
	<a:midPointStop  offset="0" style="stop-color:#92C932"/>
	<a:midPointStop  offset="0.6242" style="stop-color:#92C932"/>
	<a:midPointStop  offset="1" style="stop-color:#629621"/>
</radialGradient>
<path fill="url(#SVGID_11_)" d="M33.546,28.973c3,13.019-26.13,10.983-22.296-1.21C15.258,15.011,30.198,14.438,33.546,28.973z"/>
<radialGradient id="SVGID_12_" cx="35.3525" cy="38.9414" r="15.2344" gradientTransform="matrix(1.0397 0 0 1.022 -1.8423 -10.6885)" gradientUnits="userSpaceOnUse">
	<stop  offset="0" style="stop-color:#92C932"/>
	<stop  offset="0.2616" style="stop-color:#8BC230"/>
	<stop  offset="0.6443" style="stop-color:#79AE29"/>
	<stop  offset="1" style="stop-color:#629621"/>
	<a:midPointStop  offset="0" style="stop-color:#92C932"/>
	<a:midPointStop  offset="0.6242" style="stop-color:#92C932"/>
	<a:midPointStop  offset="1" style="stop-color:#629621"/>
</radialGradient>
<path fill="url(#SVGID_12_)" d="M49.746,32.206c3.321,12.942-26.624,12.895-23.327-0.054C29.061,21.78,46.458,19.396,49.746,32.206z
	"/>
<path opacity="0.5" fill="#679E23" d="M10.021,18.521c0.453,2.066,3.151,2.135,3.709,0.1C12.62,19.071,11.107,19.028,10.021,18.521z
	"/>
<path opacity="0.5" fill="#679E23" d="M41.182,7.04c0.453,2.067,3.152,2.136,3.714,0.1C43.783,7.592,42.269,7.547,41.182,7.04z"/>
<path opacity="0.5" fill="#679E23" d="M53.392,30.654c0.448,2.063,3.146,2.138,3.704,0.101
	C55.988,31.202,54.478,31.159,53.392,30.654z"/>
<path opacity="0.5" fill="#679E23" d="M42.665,31.882c0.448,2.063,3.146,2.138,3.704,0.101
	C45.262,32.43,43.751,32.387,42.665,31.882z"/>
<path opacity="0.5" fill="#679E23" d="M38.706,36.841c0.448,2.063,3.146,2.138,3.704,0.101
	C41.303,37.389,39.792,37.346,38.706,36.841z"/>
<path opacity="0.5" fill="#679E23" d="M28.804,35.753c0.448,2.063,3.146,2.138,3.704,0.101C31.4,36.301,29.89,36.258,28.804,35.753z
	"/>
<path opacity="0.5" fill="#679E23" d="M20.48,31.411c0.448,2.063,3.146,2.138,3.704,0.101C23.077,31.959,21.566,31.916,20.48,31.411
	z"/>
<path opacity="0.5" fill="#679E23" d="M14.235,32.205c0.448,2.063,3.146,2.138,3.704,0.101
	C16.832,32.753,15.321,32.71,14.235,32.205z"/>
<path opacity="0.5" fill="#679E23" d="M17.292,16.05c0.448,2.063,3.146,2.138,3.704,0.101C19.889,16.598,18.378,16.555,17.292,16.05
	z"/>
<path opacity="0.5" fill="#679E23" d="M7.499,34.164c0.448,2.063,3.146,2.138,3.704,0.101C10.096,34.712,8.585,34.669,7.499,34.164z
	"/>
<path opacity="0.5" fill="#679E23" d="M14.235,39.357c0.448,2.063,3.146,2.138,3.704,0.101
	C16.832,39.905,15.321,39.862,14.235,39.357z"/>
<path opacity="0.5" fill="#679E23" d="M20.127,41.094c0.448,2.063,3.146,2.138,3.704,0.101
	C22.724,41.642,21.213,41.599,20.127,41.094z"/>
<path opacity="0.5" fill="#679E23" d="M37.779,42.918c0.448,2.063,3.146,2.138,3.704,0.101
	C40.376,43.466,38.865,43.423,37.779,42.918z"/>
<path opacity="0.5" fill="#679E23" d="M45.062,42.124c0.448,2.063,3.146,2.138,3.704,0.101
	C47.658,42.672,46.147,42.629,45.062,42.124z"/>
<path opacity="0.5" fill="#679E23" d="M51.895,35.499c0.448,2.063,3.146,2.138,3.704,0.101
	C54.491,36.047,52.98,36.004,51.895,35.499z"/>
<path opacity="0.5" fill="#679E23" d="M23.299,7.965c0.452,2.063,3.151,2.137,3.708,0.101C25.896,8.51,24.385,8.476,23.299,7.965z"
	/>
<path opacity="0.5" fill="#679E23" d="M51.892,17.338c0.453,2.067,3.151,2.14,3.709,0.103C54.485,17.89,52.979,17.848,51.892,17.338
	z"/>
<path opacity="0.5" fill="#679E23" d="M38.362,17.339c0.448,2.066,3.146,2.135,3.704,0.099
	C40.96,17.888,39.449,17.849,38.362,17.339z"/>
<path opacity="0.5" fill="#679E23" d="M31.908,19.832c0.453,2.067,3.151,2.137,3.709,0.101
	C34.507,20.382,32.994,20.344,31.908,19.832z"/>
</svg>
