<?xml version="1.0" encoding="utf-8"?>
<!-- Generator: Adobe Illustrator 15.0.0, SVG Export Plug-In . SVG Version: 6.00 Build 0)  -->
<!DOCTYPE svg PUBLIC "-//W3C//DTD SVG 1.1//EN" "http://www.w3.org/Graphics/SVG/1.1/DTD/svg11.dtd" [
	<!ENTITY ns_flows "http://ns.adobe.com/Flows/1.0/">
	<!ENTITY ns_extend "http://ns.adobe.com/Extensibility/1.0/">
	<!ENTITY ns_ai "http://ns.adobe.com/AdobeIllustrator/10.0/">
	<!ENTITY ns_graphs "http://ns.adobe.com/Graphs/1.0/">
]>
<svg version="1.1" id="Layer_1" xmlns:x="&ns_extend;" xmlns:i="&ns_ai;" xmlns:graph="&ns_graphs;"
	 xmlns="http://www.w3.org/2000/svg" xmlns:xlink="http://www.w3.org/1999/xlink" xmlns:a="http://ns.adobe.com/AdobeSVGViewerExtensions/3.0/"
	 x="0px" y="0px" width="64px" height="64px" viewBox="0 0 64 64" enable-background="new 0 0 64 64" xml:space="preserve">
<radialGradient id="SVGID_1_" cx="262.7041" cy="166.25" r="20.3473" gradientTransform="matrix(0.6423 -0.6557 0.7318 0.7471 -249.0775 84.716)" gradientUnits="userSpaceOnUse">
	<stop  offset="0" style="stop-color:#FFBD3B"/>
	<stop  offset="0.2525" style="stop-color:#FDBA39"/>
	<stop  offset="0.4603" style="stop-color:#F6B032"/>
	<stop  offset="0.6521" style="stop-color:#EB9E25"/>
	<stop  offset="0.8334" style="stop-color:#DB8615"/>
	<stop  offset="1" style="stop-color:#C76900"/>
	<a:midPointStop  offset="0" style="stop-color:#FFBD3B"/>
	<a:midPointStop  offset="0.7455" style="stop-color:#FFBD3B"/>
	<a:midPointStop  offset="1" style="stop-color:#C76900"/>
</radialGradient>
<path fill="url(#SVGID_1_)" d="M31.59,55.246c17.013,17.61,40.882-7.188,23.871-24.798C31.498,5.645,7.626,30.441,31.59,55.246z"/>
<path fill="#EA8800" d="M57.806,50.766c-1.503-1.088-3.828-1.631-7.409-1.015c0,0-0.936,5.043,1.068,8.154
	C51.844,54.113,54.465,51.229,57.806,50.766z"/>
<path fill="#EA8800" d="M52.429,44.436c-1.789-1.357-4.479-2.163-8.509-1.752c0,0-0.688,5.661,1.828,9.365
	C45.893,47.764,48.658,44.689,52.429,44.436z"/>
<path fill="#EA8800" d="M45.847,38.152c-1.616-1.212-4.059-1.905-7.743-1.468c0,0-0.707,5.178,1.533,8.518
	C39.834,41.293,42.402,38.445,45.847,38.152z"/>
<path fill="#EA8800" d="M32.216,30.632c0,0-0.563,4.655,1.507,7.702c0.117-3.524,2.393-6.052,5.493-6.263
	C37.742,30.954,35.533,30.292,32.216,30.632z"/>
<path fill="#EA8800" d="M59.723,42.587c-1.039-1.01-2.88-1.705-5.995-1.673c0,0-1.235,3.554-0.177,6.164
	C54.873,43.554,56.424,42.527,59.723,42.587z"/>
<path fill="#EA8800" d="M55.164,35.595c-1.221-1.034-2.834-2.138-5.898-1.958c0,0-1.031,4.076,0.514,6.826
	C50.348,36.982,51.959,35.678,55.164,35.595z"/>
<path fill="#EA8800" d="M49.811,29.74c-1.558-1.186-3.789-1.967-6.997-1.829c0,0-0.065,4.547,2.275,7.66
	C45.009,31.187,46.091,29.657,49.811,29.74z"/>
<path fill="#EA8800" d="M42.438,23.815c-1.688-0.968-3.937-1.438-6.933-0.854c0,0,0.781,4.56,3.563,7.351
	C38.525,26.105,38.779,24.182,42.438,23.815z"/>
<path fill="#EA8800" d="M60.657,47.918c0,0,1.857-1.119,1.202-3.933c0,0-4.3,0.67-3.815,4.267
	C59.625,45.847,60.657,47.918,60.657,47.918z"/>
<path fill="#EA8800" d="M53.72,29.433c0,0,0.253-2.252-2.249-4.084c0,0-2.035,3.641,0.956,6.234
	C51.55,28.478,53.72,29.433,53.72,29.433z"/>
<path fill="#EA8800" d="M59.328,37.904c0,0,1.109-1.949-1.16-5.288c0,0-3.689,2.097-1.123,6.469
	C57.135,35.602,59.328,37.904,59.328,37.904z"/>
<path fill="#EA8800" d="M46.094,23.37c0,0-0.823-2.573-3.627-3.271c0,0,0.053,4.997,3.588,6.271
	C43.951,23.451,46.094,23.37,46.094,23.37z"/>
<path fill="#D67200" d="M43.311,59.656c-0.976-1.073-1.654-2.981-1.628-6.213c0,0,3.423-1.293,5.944-0.2
	C44.23,54.627,43.246,56.235,43.311,59.656z"/>
<path fill="#D67200" d="M36.557,54.947c-1-1.262-2.066-2.93-1.904-6.109c0,0,3.927-1.086,6.584,0.514
	C37.881,49.948,36.628,51.625,36.557,54.947z"/>
<path fill="#D67200" d="M30.894,49.414c-1.148-1.613-1.905-3.925-1.78-7.251c0,0,4.38-0.082,7.389,2.337
	C32.275,44.429,30.805,45.557,30.894,49.414z"/>
<path fill="#D67200" d="M25.167,41.789c-0.938-1.747-1.402-4.078-0.845-7.187c0,0,4.397,0.795,7.096,3.669
	C27.361,37.726,25.508,37.994,25.167,41.789z"/>
<path fill="#C25E00" d="M48.447,60.604c0,0-1.077,1.924-3.789,1.254c0,0,0.637-4.46,4.107-3.966
	C46.447,59.536,48.447,60.604,48.447,60.604z"/>
<path fill="#C25E00" d="M30.611,53.47c0,0-2.172,0.268-3.944-2.323c0,0,3.503-2.12,6.014,0.975
	C29.684,51.22,30.611,53.47,30.611,53.47z"/>
<path fill="#C25E00" d="M38.795,59.263c0,0-1.879,1.152-5.105-1.19c0,0,2.018-3.832,6.238-1.184
	C36.569,56.995,38.795,59.263,38.795,59.263z"/>
<path fill="#C25E00" d="M24.748,45.583c0,0-2.483-0.848-3.164-3.75c0,0,4.817,0.035,6.058,3.701
	C24.823,43.362,24.748,45.583,24.748,45.583z"/>
<path fill="#7AB51D" d="M31.739,6.301c-3.554,7.295-3.489,10.345-2.905,16.811C24.182,24.48,19.237,14.257,31.739,6.301z"/>
<path fill="#529320" d="M12.669,35.244c4.314-5.542,7.801-6.263,14.036-5.664C28.021,24.753,16.146,20.314,12.669,35.244z"/>
<path fill="#529320" d="M2,19.159c5.046,1.674,7.734-3.342,18.136-0.534C22.882,23.91,7.972,25.455,2,19.159z"/>
<path fill="#7AB51D" d="M40.291,20.151c-6.111,1.275-7.989,3.072-11.777,7.246C25.624,24.382,29.849,14.507,40.291,20.151z"/>
<path fill="#529320" d="M21.112,2.663c1.873,4.631-3.92,7.786-0.798,17.403C26.367,22.077,28.291,7.636,21.112,2.663z"/>
<path fill="#529320" d="M36.129,12.578c-5.341,4.481-6.028,8.1-5.445,14.563C26.03,28.507,21.735,16.203,36.129,12.578z"/>
<path fill="#7AB51D" d="M7.455,29.842c7.034-3.694,9.972-3.631,16.208-3.031C24.977,21.981,15.115,16.87,7.455,29.842z"/>
<path fill="#297124" d="M20.852,39.675c1.222-6.342,2.947-8.293,6.97-12.224C24.91,24.456,15.397,28.853,20.852,39.675z"/>
<path fill="#92C932" d="M9.409,2c2.07,15.581,9.938,17.505,14.731,19.223C22.66,6.069,16.9,7.283,9.409,2z"/>
<path fill="#7AB51D" d="M7.716,11.312c5.105,7.762,3.941,13.736,18.558,15.252C24.611,21.593,22.747,13.441,7.716,11.312z"/>
<path fill="#A6E639" d="M21.618,9.15c-0.53,6.354,8.635,5.09,7.793,17.592C23.663,26.978,12.942,18.159,21.618,9.15z"/>
<path fill="#92C932" d="M15.582,24.968c5.624-2.001,2.374,6.827,13.393,3.075C30.528,22.64,25.417,14.756,15.582,24.968z"/>
<path fill="#529320" d="M32.893,34.585c-2.399-4.918,2.438-11.233-3.606-11.675C26.02,22.671,16.968,29.635,32.893,34.585z"/>
</svg>
