<?xml version="1.0" encoding="utf-8"?>
<!-- Generator: Adobe Illustrator 15.0.0, SVG Export Plug-In . SVG Version: 6.00 Build 0)  -->
<!DOCTYPE svg PUBLIC "-//W3C//DTD SVG 1.1//EN" "http://www.w3.org/Graphics/SVG/1.1/DTD/svg11.dtd" [
	<!ENTITY ns_flows "http://ns.adobe.com/Flows/1.0/">
	<!ENTITY ns_extend "http://ns.adobe.com/Extensibility/1.0/">
	<!ENTITY ns_ai "http://ns.adobe.com/AdobeIllustrator/10.0/">
	<!ENTITY ns_graphs "http://ns.adobe.com/Graphs/1.0/">
]>
<svg version="1.1" id="Layer_1" xmlns:x="&ns_extend;" xmlns:i="&ns_ai;" xmlns:graph="&ns_graphs;"
	 xmlns="http://www.w3.org/2000/svg" xmlns:xlink="http://www.w3.org/1999/xlink" xmlns:a="http://ns.adobe.com/AdobeSVGViewerExtensions/3.0/"
	 x="0px" y="0px" width="64px" height="64px" viewBox="0 0 64 64" enable-background="new 0 0 64 64" xml:space="preserve">
<path fill="#874C14" d="M57.864,28.687C47.569,26.242,6.144,49.194,6.652,61.92c1.039,0.717,4.943-3.479,12.777-7.533
	c4.02-2.077,17.367-8.771,19.962-10.739c8.25-6.263,17.463-8.389,18.512-11.899C58.142,30.948,57.864,28.687,57.864,28.687z"/>
<path fill="#FFCB63" d="M9.453,10.722c0,0-1.24,9.602-1.037,13.883C8.654,29.608,7.533,36.44,7.533,36.44L6.634,48.446
	C5.539,59.512,5.853,63.857,7.648,61.186c1.004-1.492,2.434-2.49,2.434-2.49l11.977-7.542c0,0,4.127-3.725,8.764-3.725
	c1.945,0,2.542-4.578,6.427-4.963c3.088-0.305,2.811-3.142,5.277-3.944c5.227-1.7,8.314-5.487,8.314-5.487
	C53.007,19.544,22.925,3.382,9.453,10.722z"/>
<path fill="#B00000" d="M30.087,27.228c3.687-10.484,21.281-0.516,14.603,7.873C38.032,43.463,26.541,37.311,30.087,27.228z"/>
<linearGradient id="SVGID_1_" gradientUnits="userSpaceOnUse" x1="32.9595" y1="29.833" x2="38.098" y2="15.7151" gradientTransform="matrix(1 0 0 1 1.9902 8.3101)">
	<stop  offset="0" style="stop-color:#DB4D27"/>
	<stop  offset="0.2274" style="stop-color:#D54121"/>
	<stop  offset="0.637" style="stop-color:#C52111"/>
	<stop  offset="1" style="stop-color:#B50000"/>
	<a:midPointStop  offset="0" style="stop-color:#DB4D27"/>
	<a:midPointStop  offset="0.5758" style="stop-color:#DB4D27"/>
	<a:midPointStop  offset="1" style="stop-color:#B50000"/>
</linearGradient>
<path fill="url(#SVGID_1_)" d="M30.458,27.431c3.458-9.836,19.966-0.483,13.701,7.387C37.913,42.663,27.13,36.892,30.458,27.431z"/>
<path fill="#B00000" d="M11.017,17.012c5.82-10.05,22.052-0.675,15.004,8.091C19.138,33.658,5.677,26.23,11.017,17.012z"/>
<linearGradient id="SVGID_2_" gradientUnits="userSpaceOnUse" x1="14.1133" y1="19.6938" x2="19.4046" y2="5.1561" gradientTransform="matrix(1 0 0 1 1.9902 8.3101)">
	<stop  offset="0" style="stop-color:#DB4D27"/>
	<stop  offset="0.2274" style="stop-color:#D54121"/>
	<stop  offset="0.637" style="stop-color:#C52111"/>
	<stop  offset="1" style="stop-color:#B50000"/>
	<a:midPointStop  offset="0" style="stop-color:#DB4D27"/>
	<a:midPointStop  offset="0.5758" style="stop-color:#DB4D27"/>
	<a:midPointStop  offset="1" style="stop-color:#B50000"/>
</linearGradient>
<path fill="url(#SVGID_2_)" d="M11.435,17.071c5.506-9.506,20.861-0.637,14.193,7.654C19.117,32.819,6.382,25.793,11.435,17.071z"/>
<path fill="#B00000" d="M14.521,40.372c0.709-9.392,15.287-9.16,14.58,0.23C28.392,49.991,13.814,49.761,14.521,40.372z"/>
<linearGradient id="SVGID_3_" gradientUnits="userSpaceOnUse" x1="-5.9263" y1="73.1074" x2="-1.4316" y2="60.7584" gradientTransform="matrix(0.8941 -0.465 0.4636 0.8962 -5.8036 -21.2096)">
	<stop  offset="0" style="stop-color:#DB4D27"/>
	<stop  offset="0.2274" style="stop-color:#D54121"/>
	<stop  offset="0.637" style="stop-color:#C52111"/>
	<stop  offset="1" style="stop-color:#B50000"/>
	<a:midPointStop  offset="0" style="stop-color:#DB4D27"/>
	<a:midPointStop  offset="0.5758" style="stop-color:#DB4D27"/>
	<a:midPointStop  offset="1" style="stop-color:#B50000"/>
</linearGradient>
<path fill="url(#SVGID_3_)" d="M15.033,40.378c0.672-8.895,14.479-8.675,13.809,0.219C28.169,49.487,14.363,49.27,15.033,40.378z"/>
<path fill="#B00000" d="M7.533,36.44c6.141,2.002,5.389,10.842-0.898,12.006"/>
<path fill="#B00000" d="M10.082,58.695c0.508,0.273,11.879-6.774,11.977-7.542C16.525,44.495,5.585,51.638,10.082,58.695z"/>
<path fill="#FAC150" d="M30.888,18.33c1.732-1.056,3.429,1.372,1.695,2.427C30.849,21.814,29.156,19.387,30.888,18.33z"/>
<path fill="#FAC150" d="M37.021,19.666c1.605-0.978,3.174,1.271,1.57,2.246C36.987,22.89,35.417,20.642,37.021,19.666z"/>
<path fill="#FAC150" d="M34.53,17.409c1.137-0.691,2.25,0.902,1.113,1.597C34.507,19.698,33.394,18.104,34.53,17.409z"/>
<path fill="#FAC150" d="M47.45,30.854c1.305-0.795,2.584,1.035,1.275,1.83C47.421,33.481,46.142,31.653,47.45,30.854z"/>
<path fill="#FAC150" d="M25.392,31.153c-1.822-1.021-0.18-3.574,1.643-2.553C28.859,29.624,27.218,32.177,25.392,31.153z"/>
<path fill="#FAC150" d="M10.75,13.38c-1.197-0.67-0.117-2.347,1.078-1.677C13.025,12.375,11.947,14.052,10.75,13.38z"/>
<path fill="#FAC150" d="M27.933,16.276c-1.375-0.771-0.139-2.696,1.236-1.926C30.544,15.12,29.308,17.046,27.933,16.276z"/>
<path fill="#FAC150" d="M28.845,24.685c-0.846-0.474-0.084-1.659,0.762-1.186C30.455,23.976,29.693,25.161,28.845,24.685z"/>
<path fill="#FAC150" d="M12.3,34.715c0.797-1.288,2.865-0.173,2.068,1.116C13.572,37.118,11.503,36.004,12.3,34.715z"/>
<path fill="#FAC150" d="M31.505,39.854c0.904-1.461,3.25-0.197,2.345,1.264C32.949,42.579,30.603,41.314,31.505,39.854z"/>
<path fill="#FAC150" d="M9.841,31.185c0.834-1.35,3.006-0.18,2.172,1.172C11.177,33.708,9.003,32.536,9.841,31.185z"/>
<path fill="#FAC150" d="M29.644,44.36c0.42-0.678,1.508-0.092,1.088,0.588C30.314,45.626,29.224,45.038,29.644,44.36z"/>
<path fill="#FAC150" d="M22.783,31.013c0.539-0.873,1.941-0.115,1.402,0.756C23.646,32.644,22.242,31.887,22.783,31.013z"/>
<path fill="#FAC150" d="M16.701,31.124c0.383-0.617,1.377-0.083,0.992,0.535C17.31,32.277,16.32,31.742,16.701,31.124z"/>
<path fill="#FAC150" d="M12.316,45.392c0.785-1.27,2.822-0.174,2.037,1.096C13.57,47.755,11.533,46.657,12.316,45.392z"/>
<path fill="#FAC150" d="M7.638,49.937c0.584-0.945,2.1-0.129,1.516,0.816C8.57,51.696,7.056,50.882,7.638,49.937z"/>
<radialGradient id="SVGID_4_" cx="-20.6743" cy="-98.6123" r="37.4547" gradientTransform="matrix(0.8775 0.4931 -0.1891 0.3107 31.4259 60.507)" gradientUnits="userSpaceOnUse">
	<stop  offset="0.4909" style="stop-color:#995B11"/>
	<stop  offset="0.7333" style="stop-color:#CC8533"/>
	<a:midPointStop  offset="0.4909" style="stop-color:#995B11"/>
	<a:midPointStop  offset="0.5" style="stop-color:#995B11"/>
	<a:midPointStop  offset="0.7333" style="stop-color:#CC8533"/>
</radialGradient>
<path fill="url(#SVGID_4_)" d="M9.453,10.722c8.918-3.686,20.705,2.717,24.201,3.674c3.836,1.05,14.957,9.353,17.188,18.639
	c0,0,3.113-5.326,7.023-4.348C52.411,13.935,43.149,10.121,38.048,8.048C33.882,6.354,22.515-0.376,12.22,2.875
	C5.445,6.04,9.453,10.722,9.453,10.722z"/>
<linearGradient id="SVGID_5_" gradientUnits="userSpaceOnUse" x1="8.9951" y1="48.29" x2="8.9951" y2="37.251">
	<stop  offset="0" style="stop-color:#DB4D27"/>
	<stop  offset="0.2274" style="stop-color:#D54121"/>
	<stop  offset="0.637" style="stop-color:#C52111"/>
	<stop  offset="1" style="stop-color:#B50000"/>
	<a:midPointStop  offset="0" style="stop-color:#DB4D27"/>
	<a:midPointStop  offset="0.5758" style="stop-color:#DB4D27"/>
	<a:midPointStop  offset="1" style="stop-color:#B50000"/>
</linearGradient>
<path fill="url(#SVGID_5_)" d="M7.472,37.251C6.671,42.517,6.736,48.29,6.736,48.29C12.041,47.116,13.162,39.267,7.472,37.251z"/>
<linearGradient id="SVGID_6_" gradientUnits="userSpaceOnUse" x1="15.5835" y1="58.4043" x2="15.5835" y2="48.6807">
	<stop  offset="0" style="stop-color:#DB4D27"/>
	<stop  offset="0.2274" style="stop-color:#D54121"/>
	<stop  offset="0.637" style="stop-color:#C52111"/>
	<stop  offset="1" style="stop-color:#B50000"/>
	<a:midPointStop  offset="0" style="stop-color:#DB4D27"/>
	<a:midPointStop  offset="0.5758" style="stop-color:#DB4D27"/>
	<a:midPointStop  offset="1" style="stop-color:#B50000"/>
</linearGradient>
<path fill="url(#SVGID_6_)" d="M10.291,58.404c0,0,5.98-4.423,11.438-7.141C16.306,44.827,6.494,51.639,10.291,58.404z"/>
<path opacity="0.07" fill="#FFFFFF" d="M21.257,23.313c-1.822-1.021-0.182-3.574,1.643-2.553
	C24.722,21.782,23.082,24.336,21.257,23.313z"/>
<path opacity="0.07" fill="#FFFFFF" d="M16.435,17.649c0.795-1.287,2.863-0.172,2.068,1.117
	C17.707,20.054,15.638,18.938,16.435,17.649z"/>
<path opacity="0.07" fill="#FFFFFF" d="M13.847,22.284c0.852-1.379,3.068-0.184,2.217,1.195
	C15.21,24.86,12.992,23.665,13.847,22.284z"/>
<path opacity="0.07" fill="#FFFFFF" d="M23.781,19.817c0.383-0.617,1.375-0.083,0.992,0.535S23.398,20.436,23.781,19.817z"/>
<path opacity="0.07" fill="#FFFFFF" d="M34.97,29.775c-0.266,2.071-3.248,1.502-2.98-0.57C32.257,27.132,35.237,27.7,34.97,29.775z"
	/>
<path opacity="0.07" fill="#FFFFFF" d="M40.515,30.413c-1.49-0.258-1.229-2.593,0.264-2.336
	C42.271,28.335,42.009,30.671,40.515,30.413z"/>
<path opacity="0.07" fill="#FFFFFF" d="M39.782,34.942c-1.217-0.209-1.004-2.117,0.213-1.907
	C41.216,33.245,41.001,35.153,39.782,34.942z"/>
<path opacity="0.07" fill="#FFFFFF" d="M41.712,33.442c-0.715-0.125-0.592-1.246,0.127-1.121
	C42.554,32.446,42.429,33.565,41.712,33.442z"/>
<path opacity="0.07" fill="#FFFFFF" d="M20.779,42.548c-0.268,2.072-3.248,1.502-2.982-0.57
	C18.064,39.904,21.046,40.473,20.779,42.548z"/>
<path opacity="0.07" fill="#FFFFFF" d="M13.98,54.731c-0.266,2.072-3.248,1.502-2.98-0.57C11.267,52.087,14.248,52.655,13.98,54.731
	z"/>
<path opacity="0.07" fill="#FFFFFF" d="M24.642,43.43c-1.492-0.258-1.23-2.593,0.264-2.336
	C26.396,41.352,26.136,43.688,24.642,43.43z"/>
<path opacity="0.07" fill="#FFFFFF" d="M16.884,52.841c-1.492-0.258-1.23-2.592,0.264-2.336
	C18.638,50.763,18.378,53.099,16.884,52.841z"/>
<path opacity="0.07" fill="#FFFFFF" d="M18.054,38.848c-1.012-0.173-0.832-1.758,0.178-1.583
	C19.244,37.438,19.066,39.023,18.054,38.848z"/>
<path opacity="0.07" fill="#FFFFFF" d="M22.998,36.87c-1.012-0.174-0.832-1.758,0.178-1.584
	C24.187,35.46,24.009,37.046,22.998,36.87z"/>
<path opacity="0.07" fill="#FFFFFF" d="M8.513,41.47c-1.01-0.174-0.832-1.758,0.178-1.584C9.705,40.06,9.527,41.646,8.513,41.47z"/>
<path opacity="0.07" fill="#FFFFFF" d="M26.355,39.418c-0.986-0.172-0.814-1.718,0.174-1.546S27.343,39.589,26.355,39.418z"/>
<path opacity="0.07" fill="#FFFFFF" d="M8.898,45.157c-1.4-0.244-1.156-2.439,0.248-2.195C10.548,43.206,10.302,45.399,8.898,45.157
	z"/>
</svg>
