<?xml version="1.0" encoding="utf-8"?>
<!-- Generator: Adobe Illustrator 15.0.0, SVG Export Plug-In . SVG Version: 6.00 Build 0)  -->
<!DOCTYPE svg PUBLIC "-//W3C//DTD SVG 1.1//EN" "http://www.w3.org/Graphics/SVG/1.1/DTD/svg11.dtd" [
	<!ENTITY ns_flows "http://ns.adobe.com/Flows/1.0/">
	<!ENTITY ns_extend "http://ns.adobe.com/Extensibility/1.0/">
	<!ENTITY ns_ai "http://ns.adobe.com/AdobeIllustrator/10.0/">
	<!ENTITY ns_graphs "http://ns.adobe.com/Graphs/1.0/">
]>
<svg version="1.1" id="Layer_1" xmlns:x="&ns_extend;" xmlns:i="&ns_ai;" xmlns:graph="&ns_graphs;"
	 xmlns="http://www.w3.org/2000/svg" xmlns:xlink="http://www.w3.org/1999/xlink" xmlns:a="http://ns.adobe.com/AdobeSVGViewerExtensions/3.0/"
	 x="0px" y="0px" width="64px" height="64px" viewBox="0 0 64 64" enable-background="new 0 0 64 64" xml:space="preserve">
<linearGradient id="SVGID_1_" gradientUnits="userSpaceOnUse" x1="2.0068" y1="51.4375" x2="61.9932" y2="51.4375">
	<stop  offset="0" style="stop-color:#E6EBEF"/>
	<stop  offset="0.2857" style="stop-color:#E2E8EC"/>
	<stop  offset="0.5605" style="stop-color:#D7DFE3"/>
	<stop  offset="0.83" style="stop-color:#C3CFD3"/>
	<stop  offset="1" style="stop-color:#B3C2C6"/>
	<a:midPointStop  offset="0" style="stop-color:#E6EBEF"/>
	<a:midPointStop  offset="0.7152" style="stop-color:#E6EBEF"/>
	<a:midPointStop  offset="1" style="stop-color:#B3C2C6"/>
</linearGradient>
<path fill="url(#SVGID_1_)" d="M2.007,40.875C2.007,48.97,10.104,62,32,62s29.993-13.03,29.993-21.125H2.007z"/>
<path fill="#E6EBEF" d="M32,24.008c16.569,0,30,7.675,30,16.867c0,6.242-7.467,16.368-30,16.368S2,47.121,2,40.875
	C2,31.683,15.433,24.008,32,24.008z"/>
<path fill="#B3C2C6" d="M32,24.954c15.345,0,27.782,6.732,27.782,14.797c0,5.477-6.915,14.359-27.782,14.359
	S4.218,45.23,4.218,39.751C4.218,31.687,16.657,24.954,32,24.954z"/>
<radialGradient id="SVGID_2_" cx="37.2461" cy="44.0439" r="34.0062" gradientTransform="matrix(0.9998 0 0 0.5441 0.0129 18.718)" gradientUnits="userSpaceOnUse">
	<stop  offset="0" style="stop-color:#D47706"/>
	<stop  offset="0.4059" style="stop-color:#D27607"/>
	<stop  offset="0.5804" style="stop-color:#CB7109"/>
	<stop  offset="0.7105" style="stop-color:#BE6A0D"/>
	<stop  offset="0.8186" style="stop-color:#AC5E12"/>
	<stop  offset="0.912" style="stop-color:#96501A"/>
	<stop  offset="0.9956" style="stop-color:#7A3F22"/>
	<stop  offset="1" style="stop-color:#783E23"/>
	<a:midPointStop  offset="0" style="stop-color:#D47706"/>
	<a:midPointStop  offset="0.8485" style="stop-color:#D47706"/>
	<a:midPointStop  offset="1" style="stop-color:#783E23"/>
</radialGradient>
<path fill="url(#SVGID_2_)" d="M32,26.99c-15.087,0-27.319,6.397-27.319,14.059c0,0.673,0.115,1.398,0.357,2.153
	C7.395,48.317,15.144,54.11,32,54.11s24.605-5.796,26.963-10.91c0.242-0.754,0.357-1.479,0.357-2.151
	C59.32,33.388,47.089,26.99,32,26.99z"/>
<path fill="#C74900" d="M22.114,43.059c8.638,0,2.609,6.147,2.609,6.147L22.114,43.059z"/>
<path fill="#FF6A00" d="M17.814,47.079c0.628,1.804,6.909,2.129,6.909,2.129s-0.961-6.147-2.611-6.147
	C20.759,43.059,17.34,45.719,17.814,47.079z"/>
<path fill="#FF6A00" d="M52.821,38.722c7.679,0,2.322,5.466,2.322,5.466L52.821,38.722z"/>
<path fill="#C74900" d="M49.001,42.295c0.56,1.605,6.143,1.893,6.143,1.893s-0.854-5.466-2.322-5.466
	C51.617,38.722,48.58,41.084,49.001,42.295z"/>
<path fill="#EA8C00" d="M31.114,46.077c8.637,0,2.61,6.433,2.61,6.433L31.114,46.077z"/>
<path fill="#F9B700" d="M26.814,50.283c0.631,1.892,6.91,2.227,6.91,2.227s-0.959-6.433-2.61-6.433
	C29.759,46.077,26.341,48.86,26.814,50.283z"/>
<path fill="#EA8C00" d="M43.064,40.626c5.994,0,1.812,4.464,1.812,4.464L43.064,40.626z"/>
<path fill="#F9B700" d="M40.08,43.545c0.438,1.313,4.796,1.545,4.796,1.545s-0.666-4.464-1.812-4.464
	C42.123,40.626,39.751,42.558,40.08,43.545z"/>
<path fill="#EA8C00" d="M12.646,42.249c-7.675,0-2.32,5.721-2.32,5.721L12.646,42.249z"/>
<path fill="#F9B700" d="M16.47,45.988c-0.561,1.682-6.144,1.981-6.144,1.981s0.853-5.721,2.32-5.721
	C13.852,42.249,16.889,44.723,16.47,45.988z"/>
<path fill="#F9B700" d="M44.007,29.712c7.677,0,2.32,5.719,2.32,5.719L44.007,29.712z"/>
<path fill="#EA8C00" d="M40.185,33.451c0.56,1.679,6.143,1.979,6.143,1.979s-0.854-5.719-2.32-5.719
	C42.801,29.712,39.764,32.185,40.185,33.451z"/>
<linearGradient id="SVGID_3_" gradientUnits="userSpaceOnUse" x1="10.7656" y1="43.8574" x2="10.7656" y2="22.0007" gradientTransform="matrix(0.9333 0 0 1 12.5209 0)">
	<stop  offset="0" style="stop-color:#CED6D9"/>
	<stop  offset="0.3173" style="stop-color:#D7DEE1"/>
	<stop  offset="1" style="stop-color:#E7ECF0"/>
	<a:midPointStop  offset="0" style="stop-color:#CED6D9"/>
	<a:midPointStop  offset="0.4424" style="stop-color:#CED6D9"/>
	<a:midPointStop  offset="1" style="stop-color:#E7ECF0"/>
</linearGradient>
<path fill="url(#SVGID_3_)" d="M22.423,41.78c5.681,1.685,15.273,0,16.103-3.122c0.006-1.819,0.173-3.749-0.735-5.123
	c-0.753-1.14-0.604-2.71-1.523-3.567c-1.402-1.306-1.881-3.449-3.514-4.216c-1.845-0.862-3.348-2.815-5.445-2.969
	c-1.598-0.113-3.13-1.057-4.748-0.705c-1.583,0.341-3.327-0.116-4.653,0.676c-1.107,0.661-2.738,0.753-3.738,1.688
	c-0.952,0.889-2.931,1.755-3.717,3.229c-0.762,1.432-2.253,2.597-2.573,4.286c-0.23,1.222-1.176,2.332-1.024,3.614
	c0.121,1.025-0.238,2.018-0.259,3.074C10.223,43.188,16.845,40.129,22.423,41.78z"/>
<path fill="#F2F5F7" d="M23.748,32.551c-0.776-0.951-5.732,0.438-5.696,1.837C19.047,35.533,23.748,33.728,23.748,32.551z"/>
<path fill="#F2F5F7" d="M20.08,28.252c0.599-1.063-2.718-4.856-4.039-4.265C15.345,25.321,18.956,28.725,20.08,28.252z"/>
<path fill="#F2F5F7" d="M19.161,36.87c-0.441-1.131-5.603-1.235-6.01,0.11C13.743,38.358,18.792,37.992,19.161,36.87z"/>
<path fill="#F2F5F7" d="M25.428,41.239c-0.047-1.194-4.962-2.896-5.8-1.765C19.734,40.947,24.698,42.173,25.428,41.239z"/>
<path fill="#F2F5F7" d="M28.063,29.886c-0.442-1.132-5.602-1.233-6.009,0.11C22.645,31.374,27.695,31.008,28.063,29.886z"/>
<path fill="#F2F5F7" d="M35.396,30.866c0.092-1.204-4.555-3.365-5.511-2.306C29.823,30.051,34.572,31.739,35.396,30.866z"/>
<path fill="#F2F5F7" d="M28.147,41.749c0.695-1.006-2.253-5.071-3.627-4.597C23.706,38.424,26.983,42.123,28.147,41.749z"/>
<path fill="#F2F5F7" d="M29.479,28.415c0.693-1.006-2.253-5.07-3.627-4.596C25.037,25.088,28.314,28.79,29.479,28.415z"/>
<path fill="#F2F5F7" d="M12.32,40.794c0.415-1.142-3.49-4.349-4.7-3.555C7.155,38.665,11.288,41.441,12.32,40.794z"/>
<path fill="#F2F5F7" d="M35.023,38.269c0.693-1.008-2.252-5.071-3.625-4.595C30.581,34.941,33.858,38.641,35.023,38.269z"/>
<path fill="#F2F5F7" d="M29.169,39.239c0.691-1.008-2.254-5.073-3.627-4.597C24.727,35.911,28.003,39.613,29.169,39.239z"/>
<path fill="#F2F5F7" d="M37.785,37.977c0.978-0.765-0.56-5.473-2.021-5.404C34.584,33.555,36.556,38.008,37.785,37.977z"/>
<path fill="#F2F5F7" d="M20.749,31.033c1.256-0.053,2.956-4.728,1.746-5.515C20.945,25.633,19.75,30.351,20.749,31.033z"/>
<path fill="#F2F5F7" d="M13.517,39.053c0.575-1.064-2.835-4.817-4.149-4.22C8.7,36.168,12.397,39.531,13.517,39.053z"/>
<path fill="#F2F5F7" d="M9.928,32.759c1.26-0.054,2.954-4.728,1.747-5.515C10.125,27.358,8.927,32.076,9.928,32.759z"/>
<path fill="#F2F5F7" d="M30.969,40.651c0.768,0.942,5.793-0.426,5.778-1.813C35.761,37.704,30.987,39.486,30.969,40.651z"/>
<path fill="#F2F5F7" d="M29.61,41.455c1.257-0.023,3.076-4.655,1.889-5.471C29.948,36.059,28.627,40.747,29.61,41.455z"/>
<path fill="#F2F5F7" d="M22.952,34.949c1.101,0.602,5.124-2.467,4.527-3.75C26.098,30.5,22.479,33.86,22.952,34.949z"/>
<path fill="#F2F5F7" d="M18.806,24.896c0.785,0.943,5.727-0.488,5.68-1.889C23.48,21.872,18.795,23.717,18.806,24.896z"/>
<path fill="#F2F5F7" d="M12.683,30.51c1.246,0.227,3.993-3.914,2.985-4.941C14.122,25.331,11.861,29.625,12.683,30.51z"/>
<path fill="#F2F5F7" d="M13.917,40.233c0.786,0.945,5.728-0.486,5.683-1.887C18.592,37.212,13.909,39.057,13.917,40.233z"/>
<path fill="#F2F5F7" d="M7.839,35.849c1.028,0.704,5.365-1.951,4.915-3.286C11.457,31.73,7.487,34.718,7.839,35.849z"/>
<path fill="#F2F5F7" d="M28.066,24.446c-0.336,1.163,3.775,4.157,4.93,3.296C33.363,26.296,29.054,23.746,28.066,24.446z"/>
<path fill="#F2F5F7" d="M22.593,25.317c-0.337,1.164,3.774,4.156,4.929,3.298C27.89,27.166,23.58,24.619,22.593,25.317z"/>
<path fill="#F2F5F7" d="M30.176,30.74c-0.335,1.165,3.778,4.157,4.93,3.299C35.473,32.59,31.164,30.041,30.176,30.74z"/>
<path fill="#F2F5F7" d="M16.73,27.792c-0.639,1.039,2.526,4.951,3.87,4.407C21.348,30.892,17.871,27.36,16.73,27.792z"/>
<path fill="#F2F5F7" d="M19.18,35.269c-0.336,1.165,3.775,4.157,4.93,3.298C24.477,37.117,20.166,34.568,19.18,35.269z"/>
<path fill="#F2F5F7" d="M15.313,30.098c-1.275-0.023-3.346,4.475-2.185,5.323C14.703,35.403,16.272,30.833,15.313,30.098z"/>
<path fill="#F2F5F7" d="M29.162,29.691c-1.178,0.424-1.286,5.373,0.116,5.762C30.717,34.886,30.332,30.045,29.162,29.691z"/>
<path fill="#F2F5F7" d="M16.579,29.95c-1.181,0.422-1.288,5.371,0.115,5.762C18.132,35.145,17.748,30.304,16.579,29.95z"/>
<path fill="#77B516" d="M37.442,44.766c0,0.68-2.449,0.68-2.449,0C34.993,43.158,37.442,43.158,37.442,44.766z"/>
<path fill="#529320" d="M38.666,50.007c0,0.68-2.448,0.68-2.448,0C36.218,48.399,38.666,48.399,38.666,50.007z"/>
<path fill="#77B516" d="M50.185,45.624c0,0.679-2.448,0.679-2.448,0C47.736,44.016,50.185,44.016,50.185,45.624z"/>
<path fill="#529320" d="M43.687,38.325c0,0.679-2.448,0.679-2.448,0C41.238,36.717,43.687,36.717,43.687,38.325z"/>
<path fill="#77B516" d="M53.578,35.622c0,0.68-2.448,0.68-2.448,0C51.13,34.014,53.578,34.014,53.578,35.622z"/>
<path fill="#77B516" d="M24.135,49.824c0,0.68-2.449,0.68-2.449,0C21.686,48.216,24.135,48.216,24.135,49.824z"/>
<path fill="#529320" d="M18.848,43.652c0,0.679-2.448,0.679-2.448,0C16.399,42.044,18.848,42.044,18.848,43.652z"/>
<path fill="#C74900" d="M47.343,34.438c-5.722,0-1.729,4.264-1.729,4.264L47.343,34.438z"/>
<path fill="#FF6A00" d="M50.192,37.225c-0.419,1.252-4.579,1.477-4.579,1.477s0.637-4.264,1.729-4.264
	C48.239,34.438,50.506,36.282,50.192,37.225z"/>
<path fill="#C74900" d="M43.391,44.753c-8.635,0-2.609,6.434-2.609,6.434L43.391,44.753z"/>
<path fill="#FF6A00" d="M47.691,48.959c-0.633,1.89-6.91,2.228-6.91,2.228s0.961-6.434,2.609-6.434
	C44.744,44.753,48.165,47.536,47.691,48.959z"/>
</svg>
