<?xml version="1.0" encoding="utf-8"?>
<!-- Generator: Adobe Illustrator 15.0.0, SVG Export Plug-In . SVG Version: 6.00 Build 0)  -->
<!DOCTYPE svg PUBLIC "-//W3C//DTD SVG 1.1//EN" "http://www.w3.org/Graphics/SVG/1.1/DTD/svg11.dtd" [
	<!ENTITY ns_flows "http://ns.adobe.com/Flows/1.0/">
	<!ENTITY ns_extend "http://ns.adobe.com/Extensibility/1.0/">
	<!ENTITY ns_ai "http://ns.adobe.com/AdobeIllustrator/10.0/">
	<!ENTITY ns_graphs "http://ns.adobe.com/Graphs/1.0/">
]>
<svg version="1.1" id="Layer_1" xmlns:x="&ns_extend;" xmlns:i="&ns_ai;" xmlns:graph="&ns_graphs;"
	 xmlns="http://www.w3.org/2000/svg" xmlns:xlink="http://www.w3.org/1999/xlink" xmlns:a="http://ns.adobe.com/AdobeSVGViewerExtensions/3.0/"
	 x="0px" y="0px" width="64px" height="64px" viewBox="0 0 64 64" enable-background="new 0 0 64 64" xml:space="preserve">
<path fill="#B3C2C6" d="M32,62c28.295,0,46.301-27,0-27C-14.303,35,3.705,62,32,62z"/>
<linearGradient id="SVGID_1_" gradientUnits="userSpaceOnUse" x1="2" y1="45" x2="62" y2="45">
	<stop  offset="0" style="stop-color:#E8E8E8"/>
	<stop  offset="0.485" style="stop-color:#E5E5E5"/>
	<stop  offset="0.8835" style="stop-color:#DBDBDB"/>
	<stop  offset="1" style="stop-color:#D6D6D6"/>
	<a:midPointStop  offset="0" style="stop-color:#E8E8E8"/>
	<a:midPointStop  offset="0.7455" style="stop-color:#E8E8E8"/>
	<a:midPointStop  offset="1" style="stop-color:#D6D6D6"/>
</linearGradient>
<ellipse fill="url(#SVGID_1_)" cx="32" cy="45" rx="30" ry="15"/>
<path fill="#E3C77F" d="M52.039,51.983c8.811-5.078,6.771-18.121-17.193-17.743C26.953,33.078,0.809,36.558,8.6,46.6
	c1.039,7.042,12.359,9.732,19.404,9.732C34.174,57.429,49.836,56.083,52.039,51.983z"/>
<path fill="#FFDE8A" d="M36.286,37.449c0.791,0.882,2.91,1.684,4.495,2.072c2.606,0.64,5.407,0.778,8.193,0.167l0,0
	c0.559-0.122,0.635,0.884,0.075,1.008c-3.833,0.841-7.809,0.5-11.139-1.141c-0.587-0.291-4.063-1.53-2.52-3.611
	c1.755-2.365,5.496,0.912,7.841,1.79c0.993,0.372,2.639,0.559,3.259-1.101c0.402-1.076-1.006-2.124-1.745-2.573
	c-0.862-0.522-2.399-1.498-3.546-1.122c-1.119,0.365,0.742,1.773,2.465,2.417c0.504,0.189,0.15,1.191-0.372,0.994
	c-0.984-0.367-3.51-1.251-3.468-2.943c0.026-1.063,0.917-1.467,1.678-1.524c1.979-0.152,7.501,2.486,5.746,5.318
	c-1.694,2.734-4.334,1.935-7.22,0.037C37.355,35.48,35.004,36.019,36.286,37.449z"/>
<path fill="#FFDE8A" d="M50.34,52.505c-4.348-3.517-13.652-3.487-19.402-3.011c-3.545,0.293-11.15,1.015-12.488,5.278
	c-1.133,3.603,5.859,2.915,7.299,0.953c0.406-0.552-0.396-0.97-0.916-0.535c-2.479,2.067-7.297,1.3-4.6-1.329
	c1.027-1.002,2.615-1.558,3.92-2.002c3.742-1.278,7.836-1.487,11.754-1.531c3.629-0.042,7.295,0.371,10.756,1.491
	c1.23,0.397,5.963,2.754,2.637,3.745c-0.656,0.196-0.389,1.154,0.281,1.024C51.002,56.313,53.066,54.711,50.34,52.505z"/>
<path fill="#FFDE8A" d="M7.539,41.337c1.416-1.672,3.422-4.221,5.289-4.365c1.078-0.084,1.051,1.108,0.273,1.904
	c-0.756,0.771-1.836,1.319-2.738,1.845c-0.734,0.429-1.473,1.097-1.564,2.157c-0.068,0.798,0.514,1.486,1.115,1.816
	c0.969,0.531,2.064,0.273,2.924-0.052c0.506-0.191,0.104-1.175-0.402-0.983c-0.492,0.188-2.482,0.775-2.758-0.437
	c-0.26-1.148,1.695-1.856,2.271-2.235c1.02-0.672,2.561-1.842,2.59-3.479c0.025-1.356-1.283-1.584-2.07-1.392
	c-2.229,0.546-4.027,2.595-5.523,4.356C6.586,40.897,7.174,41.767,7.539,41.337L7.539,41.337z"/>
<path fill="#FFDE8A" d="M8.274,46.318c4.504,1.962,11.295-0.839,15.318-2.994c2.48-1.326,7.768-4.261,7.137-8.608
	c-0.533-3.673-5.385-0.953-5.695,1.293c-0.088,0.632,0.656,0.779,0.871,0.223c1.031-2.653,4.844-3.378,3.865-0.14
	c-0.373,1.234-1.324,2.222-2.109,3.021c-2.254,2.299-5.166,3.712-8.016,4.92c-2.637,1.121-5.473,1.83-8.424,1.824
	c-1.051-0.001-5.398-0.773-3.342-2.682c0.404-0.378-0.15-1.186-0.592-0.865C6.353,42.989,5.448,45.089,8.274,46.318z"/>
<path fill="#FFDE8A" d="M32.264,35.334c2.035,4.012,8.463,5.993,12.563,6.818c2.521,0.51,7.967,1.521,10.057-1.917
	c1.766-2.903-3.246-3.812-4.775-2.409c-0.43,0.396,0.008,0.934,0.484,0.666c2.275-1.271,5.391,0.439,2.811,2.155
	c-0.982,0.655-2.229,0.796-3.25,0.903c-2.932,0.309-5.813-0.392-8.527-1.2c-2.516-0.746-4.932-1.899-7.012-3.624
	c-0.742-0.614-3.361-3.694-0.797-3.844c0.506-0.028,0.586-0.924,0.088-0.954C32.848,31.861,30.984,32.816,32.264,35.334z"/>
<path fill="#FFDE8A" d="M49.585,51.051c0.728-2.561,1.678-6.36,3.521-7.781c1.067-0.823,1.553,0.329,1.102,1.617
	c-0.438,1.252-1.306,2.516-2,3.635c-0.564,0.911-1.032,2.054-0.669,3.123c0.274,0.805,1.167,1.056,1.925,0.956
	c1.219-0.164,2.228-1.162,2.966-2.063c0.434-0.529-0.401-1.185-0.835-0.655c-0.424,0.518-2.202,2.444-3.007,1.484
	c-0.763-0.91,0.931-2.929,1.355-3.684c0.751-1.338,1.821-3.51,1.146-5.084c-0.56-1.303-1.998-0.617-2.719,0.106
	c-2.041,2.052-2.997,5.233-3.765,7.934C48.422,51.289,49.398,51.709,49.585,51.051L49.585,51.051z"/>
<path fill="#FFDE8A" d="M38.309,39.713c-0.916-1.676-2.375-4.115-1.719-5.563c0.381-0.838,1.449-0.375,1.84,0.498
	c0.381,0.849,0.42,1.858,0.516,2.726c0.078,0.707,0.369,1.505,1.291,1.965c0.693,0.347,1.563,0.165,2.117-0.163
	c0.891-0.527,1.119-1.44,1.188-2.203c0.041-0.448-1.018-0.511-1.059-0.063c-0.039,0.438-0.348,2.141-1.561,1.899
	c-1.15-0.229-0.965-1.951-1.066-2.521c-0.178-1.009-0.584-2.593-2.055-3.219c-1.217-0.519-1.979,0.375-2.135,1.034
	c-0.447,1.866,0.646,3.967,1.609,5.733C37.508,40.262,38.543,40.144,38.309,39.713L38.309,39.713z"/>
<path fill="#FFDE8A" d="M37.558,51.724c2.65,0.247,6.558,0.488,8.292,2.042c1.005,0.898-0.038,1.587-1.39,1.378
	c-1.31-0.201-2.712-0.825-3.937-1.303c-1-0.389-2.209-0.641-3.194-0.088c-0.741,0.417-0.824,1.341-0.586,2.068
	c0.382,1.168,1.547,1.978,2.567,2.538c0.601,0.331,1.092-0.61,0.493-0.939c-0.586-0.322-2.806-1.72-2.01-2.686
	c0.756-0.916,3.05,0.38,3.871,0.66c1.452,0.494,3.781,1.149,5.205,0.197c1.179-0.788,0.244-2.075-0.6-2.652
	c-2.391-1.633-5.693-1.991-8.488-2.253C37.111,50.625,36.875,51.66,37.558,51.724L37.558,51.724z"/>
<path fill="#FFDE8A" d="M18.26,49.212c-2.461,1.013-6.033,2.615-8.291,2.045c-1.307-0.329-0.703-1.423,0.59-1.866
	c1.254-0.43,2.785-0.529,4.092-0.676c1.066-0.12,2.254-0.459,2.869-1.406c0.463-0.713,0.107-1.57-0.441-2.104
	c-0.881-0.856-2.289-1.032-3.453-1.055c-0.686-0.014-0.684,1.048,0,1.062c0.668,0.013,3.283,0.219,3.027,1.444
	c-0.244,1.162-2.877,1.08-3.734,1.214c-1.516,0.237-3.883,0.739-4.701,2.243c-0.678,1.246,0.748,1.951,1.764,2.07
	c2.875,0.335,5.967-0.882,8.563-1.949C19.166,49.978,18.895,48.951,18.26,49.212L18.26,49.212z"/>
<path fill="#FFDE8A" d="M14.781,47.179c2.461-1.013,6.033-2.615,8.291-2.045c1.307,0.329,0.703,1.423-0.59,1.866
	c-1.254,0.43-2.785,0.529-4.092,0.676c-1.066,0.12-2.254,0.459-2.869,1.406c-0.463,0.713-0.107,1.57,0.441,2.104
	c0.881,0.856,2.289,1.032,3.453,1.055c0.686,0.014,0.684-1.048,0-1.062c-0.668-0.013-3.283-0.219-3.027-1.444
	c0.244-1.162,2.877-1.08,3.734-1.214c1.516-0.237,3.883-0.739,4.701-2.243c0.678-1.246-0.748-1.951-1.764-2.07
	c-2.875-0.335-5.967,0.882-8.563,1.949C13.875,46.413,14.146,47.439,14.781,47.179L14.781,47.179z"/>
<path fill="#FFDE8A" d="M42.348,38.684c2.461-1.013,6.033-2.615,8.291-2.045c1.307,0.329,0.703,1.423-0.59,1.866
	c-1.254,0.43-2.785,0.529-4.092,0.676c-1.066,0.12-2.254,0.459-2.869,1.406c-0.463,0.713-0.107,1.57,0.441,2.104
	c0.881,0.856,2.289,1.032,3.453,1.055c0.686,0.014,0.684-1.048,0-1.062c-0.668-0.013-3.283-0.219-3.027-1.444
	c0.244-1.162,2.877-1.08,3.734-1.214c1.516-0.237,3.883-0.739,4.701-2.243c0.678-1.246-0.748-1.951-1.764-2.07
	c-2.875-0.335-5.967,0.882-8.563,1.949C41.441,37.918,41.713,38.944,42.348,38.684L42.348,38.684z"/>
<path fill="#FFDE8A" d="M10.063,50.334c3.884,4.021,13.123,5.127,18.89,5.356c3.553,0.142,11.189,0.354,13.039-3.715
	c1.563-3.438-5.462-3.609-7.13-1.837c-0.471,0.498,0.277,1.011,0.844,0.643c2.713-1.749,7.403-0.399,4.405,1.881
	c-1.142,0.869-2.788,1.227-4.135,1.509c-3.872,0.812-7.959,0.52-11.854,0.085c-3.608-0.401-7.196-1.259-10.493-2.792
	c-1.175-0.545-5.582-3.461-2.162-4.039c0.676-0.115,0.528-1.099-0.154-1.052C9.868,46.474,7.623,47.812,10.063,50.334z"/>
<path fill="#FFDE8A" d="M56.827,43.204c-3.355-4.474-12.385-6.721-18.076-7.665c-3.508-0.583-11.059-1.743-13.4,2.063
	c-1.979,3.216,4.969,4.26,6.846,2.71c0.527-0.437-0.148-1.038-0.758-0.743c-2.91,1.398-7.395-0.525-4.137-2.414
	c1.242-0.721,2.918-0.87,4.291-0.982c3.941-0.324,7.961,0.475,11.771,1.39c3.529,0.848,6.984,2.145,10.064,4.077
	c1.098,0.687,5.107,4.129,1.641,4.276c-0.684,0.03-0.66,1.024,0.023,1.063C56.538,47.059,58.933,46.01,56.827,43.204z"/>
<path fill="#FFDE8A" d="M37.229,47.846c-1.328-0.549-4.201-0.558-6.252-0.365c-3.377,0.315-6.764,1.167-9.797,2.716l0,0
	c-0.607,0.311-1.145-0.604-0.535-0.916c4.174-2.132,9.041-3.207,13.721-2.837c0.824,0.065,5.5,0.009,4.592,2.499
	c-1.031,2.83-6.924,1.071-10.098,1.071c-1.342,0-3.377,0.402-3.377,2.173c0,1.149,2.137,1.637,3.215,1.799
	c1.254,0.188,3.512,0.562,4.705-0.192c1.164-0.735-1.67-1.4-3.998-1.4c-0.684,0-0.707-1.062,0-1.062c1.332,0,4.719-0.059,5.42,1.541
	c0.443,1.005-0.434,1.696-1.313,2.018c-2.279,0.835-10.004,0.299-9.18-2.969c0.797-3.154,4.281-3.33,8.551-2.564
	C36.834,50.063,39.385,48.736,37.229,47.846z"/>
<path fill="#FFDE8A" d="M14.984,43.48c1.18,0.111,3.281-0.736,4.709-1.525c2.35-1.298,4.502-3.096,6.135-5.434l0,0
	c0.328-0.469,1.066,0.219,0.738,0.689c-2.246,3.218-5.398,5.663-8.959,6.715c-0.629,0.185-4.023,1.631-4.301-0.945
	c-0.314-2.928,4.658-3.057,6.977-4.001c0.982-0.4,2.318-1.379,1.648-3.019c-0.434-1.064-2.18-0.879-3.027-0.708
	c-0.988,0.2-2.779,0.526-3.367,1.58c-0.574,1.027,1.748,0.8,3.451,0.104c0.498-0.202,0.918,0.773,0.4,0.983
	c-0.973,0.397-3.428,1.461-4.545,0.188c-0.701-0.799-0.32-1.7,0.199-2.259c1.352-1.454,7.199-3.259,7.83,0.013
	c0.609,3.158-1.873,4.36-5.281,4.923C14.436,41.309,13.072,43.298,14.984,43.48z"/>
<path fill="#E3C77F" d="M18.592,15.923c0.023-2.466-0.197-7.009,1.381-10.795c1.061-0.987,2.184,1.921,1.99,1.762
	c-1.447,3.819-1.502,8.938-1.502,8.938C20.445,17.361,18.58,16.952,18.592,15.923z"/>
<path fill="#E3C77F" d="M16.125,15.82c-0.201-2.411-0.709-6.352,0.516-10.196c0.799-1.326,2.219,1.198,2.012,1.062
	c-1.09,3.864-0.674,8.867-0.674,8.867C18.104,17.052,16.207,16.826,16.125,15.82z"/>
<path fill="#E3C77F" d="M13.619,14.184c-0.143-1.719-0.467-4.677,0.666-7.438c0.764-0.775,1.865,0.978,1.686,0.883
	c-1.012,2.772-0.717,6.338-0.717,6.338C15.344,15.034,13.68,14.9,13.619,14.184z"/>
<linearGradient id="SVGID_2_" gradientUnits="userSpaceOnUse" x1="-296.3867" y1="414.1211" x2="-286.3857" y2="414.1211" gradientTransform="matrix(0.1736 0.9848 0.9848 -0.1736 -319.9008 366.9836)">
	<stop  offset="0" style="stop-color:#D3D8DB"/>
	<stop  offset="0.358" style="stop-color:#CFD5D8"/>
	<stop  offset="0.7017" style="stop-color:#C4CDD1"/>
	<stop  offset="1" style="stop-color:#B3C2C6"/>
	<a:midPointStop  offset="0" style="stop-color:#D3D8DB"/>
	<a:midPointStop  offset="0.7152" style="stop-color:#D3D8DB"/>
	<a:midPointStop  offset="1" style="stop-color:#B3C2C6"/>
</linearGradient>
<path fill="url(#SVGID_2_)" d="M13.301,15.758c-0.068-0.379,11.578-1.521,11.377-2.658c-0.199-1.135-11.572,1.551-11.756,0.512
	c-0.184-1.038,11.506-1.932,11.289-3.162c-0.217-1.231-11.508,1.928-11.689,0.889c-0.184-1.036,11.422-2.402,11.223-3.539
	C23.543,6.662,12.209,9.57,12.143,9.193c-0.201-1.139,11.199-3.668,12.84-3.958c2.848-0.502,4.381,0.674,5.326,1.405
	c0.945,0.73,1.908,1.225,3.551,0.936c16.002-2.822,27.277-8.464,28.102-3.783c0.826,4.68-11.699,3.234-27.701,6.057
	c-1.643,0.289-2.379,1.083-3.016,2.092c-0.637,1.011-1.674,2.64-4.523,3.143C25.08,15.373,13.5,16.896,13.301,15.758z"/>
<radialGradient id="SVGID_3_" cx="581.1074" cy="487.7686" r="4.2503" gradientTransform="matrix(1.7373 -0.3426 -0.0227 -0.2059 -945.2139 303.7991)" gradientUnits="userSpaceOnUse">
	<stop  offset="0" style="stop-color:#FFFFFF"/>
	<stop  offset="1" style="stop-color:#FFFFFF;stop-opacity:0"/>
	<a:midPointStop  offset="0" style="stop-color:#FFFFFF"/>
	<a:midPointStop  offset="0.5" style="stop-color:#FFFFFF"/>
	<a:midPointStop  offset="1" style="stop-color:#FFFFFF;stop-opacity:0"/>
</radialGradient>
<path opacity="0.3" fill="url(#SVGID_3_)" d="M60.926,2.788c-0.145-1.327-15.451,1.691-15.301,3.018
	C45.77,7.131,61.074,4.114,60.926,2.788z"/>
<path fill="#FFDE8A" d="M44.438,49.308c1.416-1.672,3.422-4.221,5.289-4.365c1.078-0.084,1.051,1.108,0.273,1.904
	c-0.756,0.771-1.836,1.319-2.738,1.845c-0.734,0.429-1.473,1.097-1.564,2.157c-0.068,0.798,0.514,1.486,1.115,1.816
	c0.969,0.531,2.064,0.273,2.924-0.052c0.506-0.191,0.104-1.175-0.402-0.983c-0.492,0.188-2.482,0.775-2.758-0.437
	c-0.26-1.148,1.695-1.856,2.271-2.235c1.02-0.672,2.561-1.842,2.59-3.479c0.025-1.356-1.283-1.584-2.07-1.392
	c-2.229,0.546-4.027,2.595-5.523,4.356C43.484,48.868,44.072,49.737,44.438,49.308L44.438,49.308z"/>
<radialGradient id="SVGID_4_" cx="32.3047" cy="42.7715" r="14.8528" gradientTransform="matrix(1 0 0 0.5678 0 15.6643)" gradientUnits="userSpaceOnUse">
	<stop  offset="0.1394" style="stop-color:#E8591C"/>
	<stop  offset="0.4623" style="stop-color:#E6581B"/>
	<stop  offset="0.6236" style="stop-color:#DE5418"/>
	<stop  offset="0.749" style="stop-color:#D14E13"/>
	<stop  offset="0.8553" style="stop-color:#BE450B"/>
	<stop  offset="0.9152" style="stop-color:#B03E05"/>
	<a:midPointStop  offset="0.1394" style="stop-color:#E8591C"/>
	<a:midPointStop  offset="0.8281" style="stop-color:#E8591C"/>
	<a:midPointStop  offset="0.9152" style="stop-color:#B03E05"/>
</radialGradient>
<path fill="url(#SVGID_4_)" d="M15.775,42.376c-0.086,1.701,4.443,2.021,2.982,4.517c-0.54,0.922,5.238-0.637,3.842,1.759
	c-1.342,2.302,4.395-1.029,4.658,1.079c0.289,2.312,3.719-0.622,6.154,1.295c1.73,1.362,4.377-2.055,6.08-1.07
	c1.7,0.982,3.843-2.813,6.078-2.498c3.531,0.495,0.922-2.861,1.844-2.78c3.807,0.335,0.936-1.156,0.936-2.101
	C48.35,33.887,16.254,32.813,15.775,42.376z"/>
<path fill="#FFDE8A" d="M14.213,7.083c-0.057,0.463,0.189,0.733,0.398,0.776c1.195,3.243,1.328,5.908,1.328,8.073
	c0,1.603,2.01,1.271,2.01,0.182c0-4.514-0.781-7.047-1.537-9.365C15.936,5.286,14.385,5.63,14.213,7.083z"/>
<path fill="#FFDE8A" d="M20.236,16.232c0-2.467,0-6.584-1.537-10.386c-0.615-1.519-2.027-1.202-2.199,0.361
	c-0.057,0.496,0.34,0.971,0.635,0.889c1.408,3.834,1.23,9.021,1.23,9.021C18.365,17.65,20.236,17.262,20.236,16.232z"/>
<linearGradient id="SVGID_5_" gradientUnits="userSpaceOnUse" x1="22.0088" y1="44.5352" x2="22.0088" y2="4.1411">
	<stop  offset="0.1939" style="stop-color:#F55E1D"/>
	<stop  offset="0.2808" style="stop-color:#F88941"/>
	<stop  offset="0.3866" style="stop-color:#FCB769"/>
	<stop  offset="0.4682" style="stop-color:#FED381"/>
	<stop  offset="0.5152" style="stop-color:#FFDE8A"/>
	<a:midPointStop  offset="0.1939" style="stop-color:#F55E1D"/>
	<a:midPointStop  offset="0.4151" style="stop-color:#F55E1D"/>
	<a:midPointStop  offset="0.5152" style="stop-color:#FFDE8A"/>
</linearGradient>
<path fill="url(#SVGID_5_)" d="M24,11.141c-0.064-4.979-1.25-7-2.625-7c-1.764,0-1.693,2.299-1.199,2.165
	c0.322-0.087,1.676,0.07,1.82,9.967c0.281,19.199-0.197,28.553,0.88,28.256C24.248,44.15,24.291,33.68,24,11.141z"/>
<path fill="#F56520" d="M43.288,44.5c1.736-1.727-5.953-1.084-6.161,0.369c-0.208,1.448,1.603,1.536,2.381,0.306
	C40.964,42.873,42.027,45.753,43.288,44.5z"/>
<path fill="#F56520" d="M28.212,45.528c2.396,0.509-2.35-5.576-3.681-4.955c-1.326,0.618-0.408,2.182,1.048,2.16
	C28.303,42.691,26.475,45.158,28.212,45.528z"/>
<path fill="#F56520" d="M31.599,38.356c-1.589,2.076,5.056,1.573,5.315-0.224c0.26-1.789-1.293-1.967-2.029-0.47
	C33.507,40.465,32.75,36.85,31.599,38.356z"/>
<path fill="#F56520" d="M41.445,40.435c0.52,1.065-1.778,1.186-1.778,0S40.981,39.483,41.445,40.435z"/>
<path fill="#F56520" d="M35.503,45.692c0.52,1.065-1.779,1.186-1.779,0S35.039,44.741,35.503,45.692z"/>
<path fill="#F56520" d="M31.137,43.446c0.414,0.851-1.42,0.946-1.42,0C29.717,42.501,30.767,42.688,31.137,43.446z"/>
<path fill="#BA3D02" d="M30.074,37.148c0.414,0.851-1.419,0.946-1.419,0C28.655,36.203,29.704,36.39,30.074,37.148z"/>
<path fill="#F56520" d="M33.606,36.787c0.415,0.85-1.419,0.945-1.419,0C32.188,35.841,33.237,36.027,33.606,36.787z"/>
<path fill="#F56520" d="M41.643,38.437c0.414,0.851-1.42,0.945-1.42,0C40.223,37.49,41.272,37.678,41.643,38.437z"/>
<path fill="#BA3D02" d="M43.635,41.856c0.414,0.851-1.419,0.945-1.419,0C42.216,40.91,43.265,41.098,43.635,41.856z"/>
<path fill="#BA3D02" d="M32.2,45.697c0.414,0.85-1.419,0.945-1.419,0C30.781,44.751,31.83,44.938,32.2,45.697z"/>
<path fill="#BA3D02" d="M33.979,40.166c0.401,0.824-1.374,0.916-1.374,0S33.62,39.431,33.979,40.166z"/>
<path fill="#BA3D02" d="M38.712,42.518c0.318,0.655-1.092,0.729-1.092,0C37.62,41.79,38.427,41.934,38.712,42.518z"/>
<path fill="#BA3D02" d="M39.026,37.297c0.318,0.655-1.092,0.729-1.092,0C37.935,36.569,38.741,36.713,39.026,37.297z"/>
<path fill="#BA3D02" d="M26.906,45.545c0.318,0.655-1.092,0.729-1.092,0C25.814,44.817,26.621,44.961,26.906,45.545z"/>
<path fill="#BA3D02" d="M21.704,39.098c0.318,0.655-1.092,0.729-1.092,0C20.612,38.37,21.419,38.514,21.704,39.098z"/>
<path fill="#F56520" d="M44.582,39.688c0.303,0.622-1.039,0.692-1.039,0S44.311,39.133,44.582,39.688z"/>
<path fill="#F56520" d="M25.68,44.012c0.414,0.851-1.42,0.946-1.42,0C24.26,43.066,25.31,43.253,25.68,44.012z"/>
<path fill="#F56520" d="M21.056,41.264c0.414,0.85-1.419,0.945-1.419,0C19.637,40.317,20.686,40.504,21.056,41.264z"/>
<path fill="#77B516" d="M39.854,41.537c-0.566-0.685-1.234-0.853-2.232-0.636c0.041-0.73,1.486-2.229,1.486-2.229
	s-1.32-0.167-2.359,1.348c-0.178-0.869-1.16-1.121-1.16-1.121s0.625,2.235-0.486,3.049c-0.014-0.592-0.248-1.745-0.248-1.745
	s-0.9,1.079-0.961,2.271c0,0-1.229,0.542-1.705,1.924c1.154,0.308,2.002-2.315,5.002-0.582c0,0-0.063-1.232-0.764-1.523
	C37.652,41.198,39.854,41.546,39.854,41.537z"/>
<path fill="#77B516" d="M29.514,38.574c0,0,0.107,1.172,0.262,1.74c-1.297-0.461-1.338-2.779-1.338-2.779s-0.871,0.521-0.791,1.404
	C26.217,37.789,25,38.328,25,38.328s1.813,1.02,2.063,1.707c-1.018,0.08-1.611,0.432-1.957,1.25c0,0.008,2.012-0.957,3.5-0.262
	c-0.588,0.479-0.295,1.68-0.295,1.68c2.379-2.521,3.939-0.25,4.961-0.875c-0.855-1.188-2.189-1.355-2.189-1.355
	C30.689,39.348,29.514,38.574,29.514,38.574z"/>
</svg>
