<?xml version="1.0" encoding="utf-8"?>
<!-- Generator: Adobe Illustrator 15.0.0, SVG Export Plug-In . SVG Version: 6.00 Build 0)  -->
<!DOCTYPE svg PUBLIC "-//W3C//DTD SVG 1.1//EN" "http://www.w3.org/Graphics/SVG/1.1/DTD/svg11.dtd" [
	<!ENTITY ns_flows "http://ns.adobe.com/Flows/1.0/">
	<!ENTITY ns_extend "http://ns.adobe.com/Extensibility/1.0/">
	<!ENTITY ns_ai "http://ns.adobe.com/AdobeIllustrator/10.0/">
	<!ENTITY ns_graphs "http://ns.adobe.com/Graphs/1.0/">
]>
<svg version="1.1" id="Layer_1" xmlns:x="&ns_extend;" xmlns:i="&ns_ai;" xmlns:graph="&ns_graphs;"
	 xmlns="http://www.w3.org/2000/svg" xmlns:xlink="http://www.w3.org/1999/xlink" xmlns:a="http://ns.adobe.com/AdobeSVGViewerExtensions/3.0/"
	 x="0px" y="0px" width="64px" height="64px" viewBox="0 0 64 64" enable-background="new 0 0 64 64" xml:space="preserve">
<linearGradient id="SVGID_1_" gradientUnits="userSpaceOnUse" x1="18.0005" y1="32.001" x2="34" y2="32.001">
	<stop  offset="0" style="stop-color:#D3D8DB"/>
	<stop  offset="0.358" style="stop-color:#CFD5D8"/>
	<stop  offset="0.7017" style="stop-color:#C4CDD1"/>
	<stop  offset="1" style="stop-color:#B3C2C6"/>
	<a:midPointStop  offset="0" style="stop-color:#D3D8DB"/>
	<a:midPointStop  offset="0.7152" style="stop-color:#D3D8DB"/>
	<a:midPointStop  offset="1" style="stop-color:#B3C2C6"/>
</linearGradient>
<path fill="url(#SVGID_1_)" d="M31,2c-0.459,0,0.883,12.482-1,12.482S29.718,2,28,2c-1.719,0,0.039,12.482-2,12.482S25.719,2,24,2
	S23.882,14.483,22,14.483C20.116,14.483,21.46,2,21,2c-1.385,0-3,11.448-3,13.518c0,6.207,2.938,8.313,4,9.311
	C23.061,25.826,24,26.897,24,28.967C24,49.14,20.298,62.001,26,62.001s2-12.861,2-33.035c0-2.069,0.939-3.142,1.999-4.139
	c1.061-0.997,4-3.103,4-9.31C33.998,13.449,32.384,2,31,2z"/>
<radialGradient id="SVGID_2_" cx="398.9707" cy="23.7451" r="4.4774" gradientTransform="matrix(0.0092 2.4482 -0.3438 0.0304 29.5863 -927.9327)" gradientUnits="userSpaceOnUse">
	<stop  offset="0" style="stop-color:#FFFFFF"/>
	<stop  offset="1" style="stop-color:#FFFFFF;stop-opacity:0"/>
	<a:midPointStop  offset="0" style="stop-color:#FFFFFF"/>
	<a:midPointStop  offset="0.5" style="stop-color:#FFFFFF"/>
	<a:midPointStop  offset="1" style="stop-color:#FFFFFF;stop-opacity:0"/>
</radialGradient>
<path opacity="0.2" fill="url(#SVGID_2_)" d="M25.134,60.911c-2.334,0.207-2.42-22.509-0.086-22.714
	C27.38,37.99,27.466,60.705,25.134,60.911z"/>
<linearGradient id="SVGID_3_" gradientUnits="userSpaceOnUse" x1="36" y1="32" x2="46" y2="32">
	<stop  offset="0" style="stop-color:#D3D8DB"/>
	<stop  offset="0.358" style="stop-color:#CFD5D8"/>
	<stop  offset="0.7017" style="stop-color:#C4CDD1"/>
	<stop  offset="1" style="stop-color:#B3C2C6"/>
	<a:midPointStop  offset="0" style="stop-color:#D3D8DB"/>
	<a:midPointStop  offset="0.7152" style="stop-color:#D3D8DB"/>
	<a:midPointStop  offset="1" style="stop-color:#B3C2C6"/>
</linearGradient>
<path fill="url(#SVGID_3_)" d="M39.75,36.94c0,13.304-3.75,25.061,1.25,25.061s2.5-4.191,2.5-25.061c0-4.174,2.5-5.217,2.5-10.434
	c0-2.22,0-13.559,0-21.913c0-0.942-0.525-3.735-2.5-2.081C41.051,4.567,36,18.552,36,26.507C36,32.245,39.75,33.161,39.75,36.94z"/>
<radialGradient id="SVGID_4_" cx="389.6826" cy="16.3115" r="4.2512" gradientTransform="matrix(-0.0594 2.1245 -0.3445 0.0161 69.3169 -776.0233)" gradientUnits="userSpaceOnUse">
	<stop  offset="0" style="stop-color:#FFFFFF"/>
	<stop  offset="1" style="stop-color:#FFFFFF;stop-opacity:0"/>
	<a:midPointStop  offset="0" style="stop-color:#FFFFFF"/>
	<a:midPointStop  offset="0.5" style="stop-color:#FFFFFF"/>
	<a:midPointStop  offset="1" style="stop-color:#FFFFFF;stop-opacity:0"/>
</radialGradient>
<path opacity="0.2" fill="url(#SVGID_4_)" d="M40.279,61.492c-2.219,0.104-1.695-18.613,0.523-18.713
	C43.021,42.675,42.5,61.391,40.279,61.492z"/>
</svg>
