<?xml version="1.0" encoding="utf-8"?>
<!-- Generator: Adobe Illustrator 15.0.0, SVG Export Plug-In . SVG Version: 6.00 Build 0)  -->
<!DOCTYPE svg PUBLIC "-//W3C//DTD SVG 1.1//EN" "http://www.w3.org/Graphics/SVG/1.1/DTD/svg11.dtd" [
	<!ENTITY ns_flows "http://ns.adobe.com/Flows/1.0/">
	<!ENTITY ns_extend "http://ns.adobe.com/Extensibility/1.0/">
	<!ENTITY ns_ai "http://ns.adobe.com/AdobeIllustrator/10.0/">
	<!ENTITY ns_graphs "http://ns.adobe.com/Graphs/1.0/">
]>
<svg version="1.1" id="Layer_1" xmlns:x="&ns_extend;" xmlns:i="&ns_ai;" xmlns:graph="&ns_graphs;"
	 xmlns="http://www.w3.org/2000/svg" xmlns:xlink="http://www.w3.org/1999/xlink" xmlns:a="http://ns.adobe.com/AdobeSVGViewerExtensions/3.0/"
	 x="0px" y="0px" width="64px" height="64px" viewBox="0 0 64 64" enable-background="new 0 0 64 64" xml:space="preserve">
<path fill="#C5D7E8" d="M30.016,56.34c0.582-0.493,1.223-1.169,1.674-2.162c0.727-1.586,0.895-7.82,0.895-7.82v-5.866h2.675v5.866
	c0,0,0.168,6.234,0.893,7.82c0.451,0.993,1.09,1.669,1.676,2.162c3.979,0.428,6.799,1.487,6.799,2.727
	c0,1.62-4.791,2.934-10.705,2.934c-5.914,0-10.708-1.313-10.708-2.934C23.213,57.827,26.036,56.768,30.016,56.34z"/>
<path fill="#C5D7E8" d="M48.678,12.138c-0.724-2.951-27.453-3.195-28.142,0c-0.74,3.423-2.223,10.755-2.223,16.62
	c0,14.666,15.193,14.666,16.294,14.666c1.1,0,16.293,0,16.293-14.666C50.9,21.914,49.732,16.423,48.678,12.138z"/>
<path fill="#E3EDF3" d="M47.27,12.74c-0.57-2.318-24.781-2.52-25.31-0.065c-0.422,1.949-0.766,3.72-1.045,5.323l27.505-0.002
	C48.078,16.146,47.68,14.406,47.27,12.74z"/>
<radialGradient id="SVGID_1_" cx="84.2832" cy="28.9858" r="14.8229" gradientTransform="matrix(0.8659 0 0 0.9987 -38.375 0.4169)" gradientUnits="userSpaceOnUse">
	<stop  offset="0" style="stop-color:#FFA200"/>
	<stop  offset="0.3315" style="stop-color:#FF9F00"/>
	<stop  offset="0.5786" style="stop-color:#FF9500"/>
	<stop  offset="0.7976" style="stop-color:#FF8500"/>
	<stop  offset="1" style="stop-color:#FF6F00"/>
	<a:midPointStop  offset="0" style="stop-color:#FFA200"/>
	<a:midPointStop  offset="0.7636" style="stop-color:#FFA200"/>
	<a:midPointStop  offset="1" style="stop-color:#FF6F00"/>
</radialGradient>
<path fill="url(#SVGID_1_)" d="M48.42,17.998c-0.186-0.978-27.33-0.981-27.515-0.004c-0.428,2.264-1.109,6.479-1.109,10.761
	c0,12.099,12.338,12.712,14.812,12.712c2.473,0,14.811-0.613,14.811-12.712C49.42,23.989,48.848,20.264,48.42,17.998z"/>
<path fill="#F9B700" d="M48.42,17.97c-0.264-0.687-4.064-1.777-13.813-1.777c-9.751,0-13.425,1.074-13.703,1.776
	c-0.283,0.72,4.35,2.224,13.703,2.224C44.736,20.192,48.725,18.776,48.42,17.97z"/>
<path fill="#E6EBEF" d="M34.068,60.919c7.199,0-10.046-0.97-6.101-2.953c3.213-1.618-3.592,0.1-3.592,0.948
	C24.375,59.85,28.127,60.919,34.068,60.919z"/>
<path fill="#93B0C0" d="M35.258,54.272c2.08,2.88,3.838,4.271,3.518,4.309C35.631,58.945,34.307,52.961,35.258,54.272z"/>
<path fill="#529320" d="M39.557,14.749c0.52-4.964,4.932-10.08,11.359-7.214c3.803,1.695,4.635,8.157,3.773,11.611
	c-0.104,0.414-1.422,1.019-1.818,1.04c-0.385,0.019-3.613-5.797-6.932-6.188C44.344,13.813,39.557,14.749,39.557,14.749z"/>
<path fill="#B8E866" d="M39.504,14.691c0-2.45,2.557-8.03,7.461-7.732c5.15,0.31,7.33,9.102,6.115,13.143
	c-0.164,0.55-4.398-1.528-6.783-2.667c-0.273-0.13-0.295-3.299-0.41-3.348c-0.248-0.105-1.051,2.936-1.818,2.705
	C40.904,15.841,39.504,14.993,39.504,14.691z"/>
<path fill="#89CC14" d="M46.299,8.521c0-0.909-3.557,0.754-3.557,1.601c0,0.995,1.645,5.354,1.904,5.323
	C44.922,15.413,46.299,10.234,46.299,8.521z"/>
<path fill="#89CC14" d="M41.803,10.872c-0.379-0.286-1.746,3.397-1.43,3.654c0.51,0.455,3.477,1.704,3.586,1.414
	C44.07,15.625,42.205,11.208,41.803,10.872z"/>
<path fill="#89CC14" d="M52.381,18.754c0.664-0.05-0.594-6.332-1.123-6.115c-0.844,0.336-3.98,3.717-3.932,4.078
	C47.377,17.102,51.684,18.807,52.381,18.754z"/>
<path fill="#89CC14" d="M50.301,11.212c0.307-1.012-2.947-3.76-3.283-2.691c-0.393,1.244-0.488,7.097-0.293,7.31
	C46.93,16.061,49.975,12.229,50.301,11.212z"/>
<path fill="#F9B700" d="M37.895,37.982c0.434,1.011,2.227-0.146,1.789-1.154c-1.992-4.643-5.234-12.479-7.232-17.122
	c-0.723-0.205-1.748-0.026-2.393-0.246C32.254,24.567,35.701,32.874,37.895,37.982z"/>
<path fill="#EA8800" d="M32.99,18.54c0,0.731-4.641,0.731-4.641,0C28.349,17.817,32.99,17.817,32.99,18.54z"/>
<path fill="#E81C27" d="M31.954,18.618L25.946,4.784c-0.641,0.252-1.295,0.477-1.955,0.688l5.695,13.146H31.954z"/>
<path fill="#E81C27" d="M9.227,5.708c0,0,10.211-2.511,14.76-3.675c0.307-0.079,0.906-0.108,1.314,1.022l-1.979,0.887L9.778,7.524
	C9.229,7.687,8.678,5.865,9.227,5.708z"/>
<path fill="#DB1A25" d="M23.034,4.244c-0.059-0.223,0.041-0.384,0.293-0.483l1.717-0.687c0.498-0.077,0.689,0.058,0.566,0.396
	c0.232,0.076,0.303,0.22,0.207,0.431c0.236,0.078,0.307,0.223,0.205,0.434c0.199,0.05,0.318,0.238,0.201,0.432
	c0.412,0.095,0.264,0.516-0.057,0.644l-1.711,0.685l0,0c-0.307,0.123-0.764-0.07-0.559-0.4c-0.232-0.051-0.324-0.24-0.209-0.429
	c-0.23-0.053-0.32-0.241-0.203-0.432c-0.234-0.049-0.328-0.239-0.211-0.429C23.168,4.401,23.092,4.351,23.034,4.244
	C23.004,4.177,23.069,4.312,23.034,4.244z"/>
<path fill="#302C3B" d="M22.938,4.182C22.975,4.247,22.899,4.115,22.938,4.182L22.938,4.182z"/>
<path fill="#302C3B" d="M9.731,7.398c0.418-0.124-0.086-1.662-0.504-1.536C8.809,5.987,9.313,7.524,9.731,7.398z"/>
<path fill="#C5D7E8" d="M45.939,13.999c-5.164,1.02-22.935,0.506-24.039-1.121c-0.109,0.346-0.305,1.046-0.303,1.048
	c1.408,1.855,19.146,2.53,24.397,1.203C45.995,15.129,45.995,14.55,45.939,13.999z"/>
<linearGradient id="SVGID_2_" gradientUnits="userSpaceOnUse" x1="24.1479" y1="37.5566" x2="24.1479" y2="13.1501">
	<stop  offset="0" style="stop-color:#FFFFFF;stop-opacity:0"/>
	<stop  offset="0.1142" style="stop-color:#FFFFFF;stop-opacity:0.1142"/>
	<stop  offset="1" style="stop-color:#FFFFFF"/>
	<a:midPointStop  offset="0" style="stop-color:#FFFFFF;stop-opacity:0"/>
	<a:midPointStop  offset="0.2303" style="stop-color:#FFFFFF;stop-opacity:0"/>
	<a:midPointStop  offset="1" style="stop-color:#FFFFFF"/>
</linearGradient>
<path opacity="0.7" fill="url(#SVGID_2_)" enable-background="new    " d="M22.133,16.118c0,0-2.633,12.368-0.535,17.735
	c0.488,1.247,4.797,5.2,4.605,3.098c-0.842-9.249,1.305-18.463,1.305-18.463S24.409,17.998,22.133,16.118z"/>
</svg>
