<?xml version="1.0" encoding="utf-8"?>
<!-- Generator: Adobe Illustrator 15.0.0, SVG Export Plug-In . SVG Version: 6.00 Build 0)  -->
<!DOCTYPE svg PUBLIC "-//W3C//DTD SVG 1.1//EN" "http://www.w3.org/Graphics/SVG/1.1/DTD/svg11.dtd" [
	<!ENTITY ns_flows "http://ns.adobe.com/Flows/1.0/">
	<!ENTITY ns_extend "http://ns.adobe.com/Extensibility/1.0/">
	<!ENTITY ns_ai "http://ns.adobe.com/AdobeIllustrator/10.0/">
	<!ENTITY ns_graphs "http://ns.adobe.com/Graphs/1.0/">
]>
<svg version="1.1" id="Layer_1" xmlns:x="&ns_extend;" xmlns:i="&ns_ai;" xmlns:graph="&ns_graphs;"
	 xmlns="http://www.w3.org/2000/svg" xmlns:xlink="http://www.w3.org/1999/xlink" xmlns:a="http://ns.adobe.com/AdobeSVGViewerExtensions/3.0/"
	 x="0px" y="0px" width="64px" height="64px" viewBox="0 0 64 64" enable-background="new 0 0 64 64" xml:space="preserve">
<path fill="#F5CFA0" d="M15.165,6.439c-1.828-1.867-5.775,0.975-3.287,3.514C10.96,10.27,8.266,12,13.409,23.045l40.23,2.93
	c0,0,2.145-1.23,1.002-3.68c0.406-0.295,1.203-4.301-2.6-4.301c0,0,3.736-2.631,0.746-5.684c1.581-1.613-0.83-5.748-3.611-4.285
	C49.177,5,44.778,5,44.778,8H32.515c1.347-1.563-1.677-6.059-4.906-2.764C26.391,4.254,24.799,4.254,24.037,6
	C24.037,6,17.387,6.479,15.165,6.439z"/>
<path fill="#B47D56" d="M36.821,18.488c-0.07,0.709-1.814,0.869-1.581-0.754c-1.11-0.336-1.181-2.912,0.911-1.928
	c0.672-1.609,3.11-0.615,1.893,1.291C38.973,18.051,37.87,19.564,36.821,18.488z M49.559,13.488
	c-0.071,0.709-1.815,0.869-1.581-0.754c-1.111-0.336-1.182-2.912,0.91-1.928c0.673-1.609,3.111-0.615,1.894,1.291
	C51.71,13.051,50.606,14.564,49.559,13.488z M28.208,10.488c0.07,0.709,1.813,0.869,1.58-0.754c1.111-0.336,1.182-2.912-0.91-1.928
	c-0.672-1.609-3.109-0.615-1.895,1.291C26.056,10.051,27.159,11.564,28.208,10.488z"/>
<path fill="#FFE8BB" d="M32.831,16.623c0,0,1.214,0.311,2.133-0.594c0,0,1.793,1.271,3.343-0.633c0,0,0.45,0.637,1.361,0.264
	c0,0-0.583,1.826,0.976,2.566c0,0-2.487,5.773,4.479,5.773c8.458,0,6.357-9.289,3.482-9.289c2.177-3.357-1.572-5.479-3.082-4.813
	c2.852-1.646,0.673-5.689-1.953-4.244c-1.164-2.598-3.933-1.26-3.933,0.158c-0.47-1.281-1.896-0.91-2.12-0.691
	c0.717-3.307-2.843-3.75-3.56-2.346c-2.309-2.266-5.644,0.93-3.329,3.203c-2.096,1.604-0.106,3.262,0.349,3.262
	c-0.905,1.777,0.647,2.482,0.647,2.482c-0.561,0-0.869,0.576-0.686,1.033c-1.318-0.607-2.229,0.232-2.229,0.232
	c-3.105-3.049-5.588,0.744-4.738,2.162c-1.986,0.537-2.234,3.092-2.234,4.033C21.737,24.229,32.83,26.514,32.831,16.623
	L32.831,16.623z"/>
<path fill="#E5BC5E" d="M33.688,6.744c-0.034,0.354-0.905,0.436-0.79-0.377c-0.555-0.168-0.592-1.457,0.455-0.965
	c0.335-0.805,1.556-0.309,0.947,0.646C34.763,6.525,34.212,7.283,33.688,6.744z"/>
<path fill="#B47D56" d="M52.303,21.256c-0.034-0.354-0.905-0.436-0.79,0.377c-0.555,0.168-0.592,1.455,0.455,0.965
	c0.335,0.805,1.556,0.307,0.947-0.646C53.378,21.475,52.827,20.717,52.303,21.256z"/>
<path fill="#E5BC5E" d="M46.709,17.396c0.694-0.072,0.852-1.852-0.74-1.615c-0.327-1.133-2.853-1.205-1.889,0.93
	c-1.577,0.688-0.601,3.174,1.267,1.934C46.28,19.592,47.764,18.465,46.709,17.396z M34.667,11.256
	c-0.034-0.354-0.905-0.436-0.79,0.377c-0.556,0.168-0.591,1.455,0.455,0.965c0.335,0.805,1.556,0.307,0.947-0.646
	C35.743,11.475,35.191,10.717,34.667,11.256z"/>
<path fill="#B47D56" d="M19.187,15.512c-0.071-0.709-1.813-0.869-1.581,0.754c-1.11,0.336-1.181,2.912,0.911,1.928
	c0.67,1.609,3.109,0.615,1.893-1.291C21.337,15.949,20.235,14.436,19.187,15.512z"/>
<path fill="#E5BC5E" d="M28.004,17.488c-0.071,0.709-1.813,0.869-1.581-0.754c-1.11-0.336-1.182-2.912,0.91-1.928
	c0.672-1.609,3.109-0.615,1.894,1.291C30.155,17.051,29.052,18.564,28.004,17.488z"/>
<path fill="#FFE8BB" d="M13.126,12.725c-2.141-2.111-5.783,0.818-3.279,3.287c-1.404,0.484-0.887,4.523,1.967,3.121
	c1.393,1.643,6.22,1.195,4.531-3.475C17.483,14.99,16.75,10.711,13.126,12.725z"/>
<path fill="#E5BC5E" d="M13.112,16.744c-0.034,0.354-0.904,0.436-0.79-0.377c-0.556-0.168-0.589-1.457,0.455-0.965
	c0.335-0.805,1.556-0.309,0.947,0.646C14.188,16.525,13.637,17.283,13.112,16.744z"/>
<path fill="#E03636" d="M9,22c0,1,4.899,40,4.899,40h6.857l-2.939-40C17.458,16.418,9,16.406,9,22z"/>
<path fill="#E6EBEF" d="M17.817,22l2.939,40h7.838l-1.959-40C26.363,16.412,17.458,16.418,17.817,22z"/>
<path fill="#E03636" d="M26.636,22l1.959,40h6.859V22C35.454,16.854,26.62,16.406,26.636,22z"/>
<path fill="#990000" d="M45.251,59l2.939-35c0.551-4.289-3.51-6.576-3.919-2l-1.96,40L45.251,59z"/>
<path fill="#E6EBEF" d="M35.454,22v40h6.857c0,0-0.109-0.277,1.96-40C44.562,16.412,35.454,16.414,35.454,22z"/>
<path fill="#99A8AE" d="M48.19,56l2.939-31c0.383-4.035-2.578-5.309-2.939-1l-2.939,35L48.19,56z"/>
<path fill="#990000" d="M51.13,53c0,0,0-1,2.939-27c0.424-3.758-2.275-4.996-2.939-1L48.19,56L51.13,53z"/>
<path fill="#FFE8BB" d="M18.632,4.93c-2.826-3.102-7.537,2.641-2.53,5.725c-0.837,2.008,1.825,4.98,4.392,2.24
	c0.93,1.02,5.235,0.809,3.397-4.125C29.362,4.072,20.543-1.549,18.632,4.93z"/>
<path fill="#E5BC5E" d="M20.166,6.512c-0.071-0.709-1.812-0.869-1.581,0.754c-1.11,0.336-1.18,2.912,0.911,1.928
	c0.671,1.609,3.11,0.615,1.893-1.291C22.317,6.949,21.214,5.436,20.166,6.512z M40.741,8.512c-0.071-0.709-1.815-0.869-1.582,0.754
	c-1.111,0.336-1.181,2.912,0.911,1.928c0.673,1.609,3.11,0.615,1.894-1.291C42.892,8.949,41.788,7.436,40.741,8.512z"/>
</svg>
