<?xml version="1.0" encoding="utf-8"?>
<!-- Generator: Adobe Illustrator 15.0.0, SVG Export Plug-In . SVG Version: 6.00 Build 0)  -->
<!DOCTYPE svg PUBLIC "-//W3C//DTD SVG 1.1//EN" "http://www.w3.org/Graphics/SVG/1.1/DTD/svg11.dtd" [
	<!ENTITY ns_flows "http://ns.adobe.com/Flows/1.0/">
	<!ENTITY ns_extend "http://ns.adobe.com/Extensibility/1.0/">
	<!ENTITY ns_ai "http://ns.adobe.com/AdobeIllustrator/10.0/">
	<!ENTITY ns_graphs "http://ns.adobe.com/Graphs/1.0/">
]>
<svg version="1.1" id="Layer_1" xmlns:x="&ns_extend;" xmlns:i="&ns_ai;" xmlns:graph="&ns_graphs;"
	 xmlns="http://www.w3.org/2000/svg" xmlns:xlink="http://www.w3.org/1999/xlink" xmlns:a="http://ns.adobe.com/AdobeSVGViewerExtensions/3.0/"
	 x="0px" y="0px" width="64px" height="64px" viewBox="0 0 64 64" enable-background="new 0 0 64 64" xml:space="preserve">
<radialGradient id="SVGID_1_" cx="32.5908" cy="27.2461" r="13.8235" gradientTransform="matrix(0.9961 0 0 3 -0.4626 -54.4922)" gradientUnits="userSpaceOnUse">
	<stop  offset="0" style="stop-color:#83B52D"/>
	<stop  offset="0.2551" style="stop-color:#72A127"/>
	<stop  offset="0.7765" style="stop-color:#466C17"/>
	<stop  offset="1" style="stop-color:#325410"/>
	<a:midPointStop  offset="0" style="stop-color:#83B52D"/>
	<a:midPointStop  offset="0.5455" style="stop-color:#83B52D"/>
	<a:midPointStop  offset="1" style="stop-color:#325410"/>
</radialGradient>
<rect x="27.205" y="8.299" fill="url(#SVGID_1_)" width="9.592" height="37.895"/>
<path fill="#F5CFA0" d="M32.001,14.6c-6.395,0-6.395-12.598,0-12.598C38.395,2.002,38.395,14.6,32.001,14.6z"/>
<linearGradient id="SVGID_2_" gradientUnits="userSpaceOnUse" x1="28.8037" y1="8.2998" x2="35.1982" y2="8.2998">
	<stop  offset="0" style="stop-color:#E8BF8E"/>
	<stop  offset="1" style="stop-color:#A3654A"/>
	<a:midPointStop  offset="0" style="stop-color:#E8BF8E"/>
	<a:midPointStop  offset="0.503" style="stop-color:#E8BF8E"/>
	<a:midPointStop  offset="1" style="stop-color:#A3654A"/>
</linearGradient>
<path fill="url(#SVGID_2_)" d="M32.001,13.023c-4.264,0-4.264-9.447,0-9.447C36.264,3.576,36.264,13.023,32.001,13.023z"/>
<linearGradient id="SVGID_3_" gradientUnits="userSpaceOnUse" x1="32.002" y1="22.4668" x2="32.002" y2="20.1074">
	<stop  offset="0" style="stop-color:#548C1B"/>
	<stop  offset="0.3437" style="stop-color:#669E22"/>
	<stop  offset="1" style="stop-color:#92C932"/>
	<a:midPointStop  offset="0" style="stop-color:#548C1B"/>
	<a:midPointStop  offset="0.5515" style="stop-color:#548C1B"/>
	<a:midPointStop  offset="1" style="stop-color:#92C932"/>
</linearGradient>
<rect x="26.779" y="20.107" fill="url(#SVGID_3_)" width="10.446" height="2.359"/>
<linearGradient id="SVGID_4_" gradientUnits="userSpaceOnUse" x1="32" y1="34.5859" x2="32" y2="32.2251">
	<stop  offset="0" style="stop-color:#548C1B"/>
	<stop  offset="0.3437" style="stop-color:#669E22"/>
	<stop  offset="1" style="stop-color:#92C932"/>
	<a:midPointStop  offset="0" style="stop-color:#548C1B"/>
	<a:midPointStop  offset="0.5515" style="stop-color:#548C1B"/>
	<a:midPointStop  offset="1" style="stop-color:#92C932"/>
</linearGradient>
<rect x="26.777" y="32.225" fill="url(#SVGID_4_)" width="10.446" height="2.361"/>
<radialGradient id="SVGID_5_" cx="23.7148" cy="32.8643" r="10.021" gradientTransform="matrix(0.9961 0 0 3 -0.4626 -65.7285)" gradientUnits="userSpaceOnUse">
	<stop  offset="0" style="stop-color:#92C932"/>
	<stop  offset="0.3269" style="stop-color:#7FB52B"/>
	<stop  offset="0.9958" style="stop-color:#4D8019"/>
	<stop  offset="1" style="stop-color:#4D8019"/>
	<a:midPointStop  offset="0" style="stop-color:#92C932"/>
	<a:midPointStop  offset="0.5455" style="stop-color:#92C932"/>
	<a:midPointStop  offset="1" style="stop-color:#4D8019"/>
</radialGradient>
<rect x="18.364" y="19.535" fill="url(#SVGID_5_)" width="9.59" height="26.658"/>
<path fill="#F5CFA0" d="M23.159,25.619c-6.395,0-6.395-12.596,0-12.596C29.554,13.023,29.554,25.619,23.159,25.619z"/>
<linearGradient id="SVGID_6_" gradientUnits="userSpaceOnUse" x1="19.9614" y1="19.3223" x2="26.356" y2="19.3223">
	<stop  offset="0" style="stop-color:#E8BF8E"/>
	<stop  offset="1" style="stop-color:#A3654A"/>
	<a:midPointStop  offset="0" style="stop-color:#E8BF8E"/>
	<a:midPointStop  offset="0.503" style="stop-color:#E8BF8E"/>
	<a:midPointStop  offset="1" style="stop-color:#A3654A"/>
</linearGradient>
<path fill="url(#SVGID_6_)" d="M23.159,24.045c-4.264,0-4.264-9.445,0-9.445C27.421,14.6,27.421,24.045,23.159,24.045z"/>
<linearGradient id="SVGID_7_" gradientUnits="userSpaceOnUse" x1="23.1592" y1="31.0527" x2="23.1592" y2="28.6895">
	<stop  offset="0" style="stop-color:#548C1B"/>
	<stop  offset="0.3437" style="stop-color:#669E22"/>
	<stop  offset="1" style="stop-color:#92C932"/>
	<a:midPointStop  offset="0" style="stop-color:#548C1B"/>
	<a:midPointStop  offset="0.5515" style="stop-color:#548C1B"/>
	<a:midPointStop  offset="1" style="stop-color:#92C932"/>
</linearGradient>
<path fill="url(#SVGID_7_)" d="M27.822,31.053h-9.327c-1.242,0-1.242-2.363,0-2.363h9.327
	C29.066,28.689,29.066,31.053,27.822,31.053z"/>
<linearGradient id="SVGID_8_" gradientUnits="userSpaceOnUse" x1="23.1592" y1="41.5566" x2="23.1592" y2="39.1953">
	<stop  offset="0" style="stop-color:#548C1B"/>
	<stop  offset="0.3437" style="stop-color:#669E22"/>
	<stop  offset="1" style="stop-color:#92C932"/>
	<a:midPointStop  offset="0" style="stop-color:#548C1B"/>
	<a:midPointStop  offset="0.5515" style="stop-color:#548C1B"/>
	<a:midPointStop  offset="1" style="stop-color:#92C932"/>
</linearGradient>
<path fill="url(#SVGID_8_)" d="M27.822,41.557h-9.327c-1.242,0-1.242-2.361,0-2.361h9.327
	C29.066,39.195,29.066,41.557,27.822,41.557z"/>
<radialGradient id="SVGID_9_" cx="41.4648" cy="31.29" r="11.023" gradientTransform="matrix(0.9961 0 0 3 -0.4626 -62.5801)" gradientUnits="userSpaceOnUse">
	<stop  offset="0" style="stop-color:#92C932"/>
	<stop  offset="0.3269" style="stop-color:#7FB52B"/>
	<stop  offset="0.9958" style="stop-color:#4D8019"/>
	<stop  offset="1" style="stop-color:#4D8019"/>
	<a:midPointStop  offset="0" style="stop-color:#92C932"/>
	<a:midPointStop  offset="0.5455" style="stop-color:#92C932"/>
	<a:midPointStop  offset="1" style="stop-color:#4D8019"/>
</radialGradient>
<rect x="36.047" y="16.463" fill="url(#SVGID_9_)" width="9.588" height="29.654"/>
<path fill="#F5CFA0" d="M40.84,22.547c-6.395,0-6.395-12.596,0-12.596S47.234,22.547,40.84,22.547z"/>
<linearGradient id="SVGID_10_" gradientUnits="userSpaceOnUse" x1="37.6426" y1="16.25" x2="44.0371" y2="16.25">
	<stop  offset="0" style="stop-color:#E8BF8E"/>
	<stop  offset="1" style="stop-color:#A3654A"/>
	<a:midPointStop  offset="0" style="stop-color:#E8BF8E"/>
	<a:midPointStop  offset="0.503" style="stop-color:#E8BF8E"/>
	<a:midPointStop  offset="1" style="stop-color:#A3654A"/>
</linearGradient>
<path fill="url(#SVGID_10_)" d="M40.84,20.973c-4.264,0-4.264-9.445,0-9.445S45.104,20.973,40.84,20.973z"/>
<linearGradient id="SVGID_11_" gradientUnits="userSpaceOnUse" x1="40.8398" y1="28.7285" x2="40.8398" y2="26.3672">
	<stop  offset="0" style="stop-color:#548C1B"/>
	<stop  offset="0.3437" style="stop-color:#669E22"/>
	<stop  offset="1" style="stop-color:#92C932"/>
	<a:midPointStop  offset="0" style="stop-color:#548C1B"/>
	<a:midPointStop  offset="0.5515" style="stop-color:#548C1B"/>
	<a:midPointStop  offset="1" style="stop-color:#92C932"/>
</linearGradient>
<path fill="url(#SVGID_11_)" d="M45.502,28.729h-9.324c-1.244,0-1.244-2.361,0-2.361h9.324
	C46.748,26.367,46.748,28.729,45.502,28.729z"/>
<linearGradient id="SVGID_12_" gradientUnits="userSpaceOnUse" x1="40.8398" y1="39.2324" x2="40.8398" y2="36.8711">
	<stop  offset="0" style="stop-color:#548C1B"/>
	<stop  offset="0.3437" style="stop-color:#669E22"/>
	<stop  offset="1" style="stop-color:#92C932"/>
	<a:midPointStop  offset="0" style="stop-color:#548C1B"/>
	<a:midPointStop  offset="0.5515" style="stop-color:#548C1B"/>
	<a:midPointStop  offset="1" style="stop-color:#92C932"/>
</linearGradient>
<path fill="url(#SVGID_12_)" d="M45.502,39.232h-9.324c-1.244,0-1.244-2.361,0-2.361h9.324
	C46.748,36.871,46.748,39.232,45.502,39.232z"/>
<path fill="#529320" d="M46.955,40.65c0,0-5.738,4.439-1.713,7.715C47.686,47.566,46.955,40.65,46.955,40.65z"/>
<path fill="#297124" d="M46.955,40.65c0,0-0.611,5.252-1.713,7.715C50.328,46.873,46.955,40.65,46.955,40.65z"/>
<path fill="#529320" d="M42.67,41.203c0,0-5.563,6.512,0,9.42C45.322,49.131,42.67,41.203,42.67,41.203z"/>
<path fill="#297124" d="M42.67,41.203c0,0,0.646,6.287,0,9.42C48.23,47.715,42.67,41.203,42.67,41.203z"/>
<path fill="#529320" d="M38.533,41.609c0,0-4.785,7.236,1.229,9.547C42.258,49.34,38.533,41.609,38.533,41.609z"/>
<path fill="#297124" d="M38.533,41.609c0,0,1.477,6.297,1.229,9.547C45.021,47.57,38.533,41.609,38.533,41.609z"/>
<path fill="#529320" d="M35.648,40.982c0,0-5.45,6.381,0,9.23C38.25,48.752,35.648,40.982,35.648,40.982z"/>
<path fill="#297124" d="M35.648,40.982c0,0,0.635,6.16,0,9.23C41.1,47.363,35.648,40.982,35.648,40.982z"/>
<path fill="#529320" d="M32.25,42.156c0,0-5.701,5.709-0.725,8.805C34.119,49.746,32.25,42.156,32.25,42.156z"/>
<path fill="#297124" d="M32.25,42.156c0,0,0.121,5.922-0.725,8.805C36.947,48.621,32.25,42.156,32.25,42.156z"/>
<path fill="#529320" d="M28.759,42.156c0,0-6.697,6.031-1.361,9.746C30.359,50.699,28.759,42.156,28.759,42.156z"/>
<path fill="#297124" d="M28.759,42.156c0,0-0.24,6.59-1.361,9.746C33.574,49.602,28.759,42.156,28.759,42.156z"/>
<path fill="#529320" d="M25.039,42.742c0,0-4.652,5.447,0,7.881C27.259,49.375,25.039,42.742,25.039,42.742z"/>
<path fill="#297124" d="M25.039,42.742c0,0,0.542,5.26,0,7.881C29.693,48.189,25.039,42.742,25.039,42.742z"/>
<path fill="#529320" d="M20.587,40.545c0,0-4.742,7.094,1.162,9.387C24.209,48.158,20.587,40.545,20.587,40.545z"/>
<path fill="#297124" d="M20.587,40.545c0,0,1.42,6.197,1.162,9.387C26.935,46.43,20.587,40.545,20.587,40.545z"/>
<path fill="#529320" d="M17.067,39.43c0,0-3.527,6.707,1.939,8.244C21.021,45.887,17.067,39.43,17.067,39.43z"/>
<path fill="#297124" d="M17.067,39.43c0,0,1.86,5.385,1.939,8.244C23.275,44.121,17.067,39.43,17.067,39.43z"/>
<radialGradient id="SVGID_13_" cx="31.938" cy="39.8359" r="16.8437" gradientTransform="matrix(1 0 0 3 0 -79.6719)" gradientUnits="userSpaceOnUse">
	<stop  offset="0.2848" style="stop-color:#E8BF8E"/>
	<stop  offset="0.4717" style="stop-color:#DFB584"/>
	<stop  offset="0.791" style="stop-color:#C8996B"/>
	<stop  offset="1" style="stop-color:#B58457"/>
	<a:midPointStop  offset="0.2848" style="stop-color:#E8BF8E"/>
	<a:midPointStop  offset="0.5882" style="stop-color:#E8BF8E"/>
	<a:midPointStop  offset="1" style="stop-color:#B58457"/>
</radialGradient>
<path fill="url(#SVGID_13_)" d="M46.139,45.199c-0.01,0.101-0.021,0.198-0.031,0.298c-0.592-0.788-2.518-0.775-2.697,0.338
	c-0.602-0.722-2.346-0.697-2.68,0.247c-0.59-0.742-2.35-0.717-2.738,0.192c-0.586-0.831-2.607-0.779-2.924,0.241
	c-0.418-0.979-2.588-1.005-3.07-0.051c-0.483-0.954-2.65-0.928-3.067,0.051c-0.318-1.021-2.336-1.072-2.925-0.241
	c-0.39-0.908-2.15-0.935-2.737-0.191c-0.334-0.945-2.079-0.97-2.68-0.248c-0.181-1.113-2.104-1.126-2.697-0.338
	c-0.01-0.1-0.021-0.197-0.031-0.298c-0.133-1.404-2.997-1.047-2.855,0.27c0.498,4.494,1.283,8.971,1.556,13.477
	c0.061,1.093,1.814,1.282,2.404,0.574c0.004,0.116,0.016,0.233,0.02,0.35c0.031,1.082,1.779,1.28,2.405,0.593
	c0.118,1.018,1.856,1.176,2.461,0.474c0.272,0.911,2.019,0.993,2.561,0.255c0.381,0.895,2.329,0.902,2.73,0.023
	c0.268,0.986,2.38,1.043,2.858,0.168c0.479,0.875,2.592,0.818,2.858-0.169c0.402,0.88,2.35,0.872,2.73-0.022
	c0.543,0.738,2.287,0.656,2.561-0.254c0.605,0.701,2.344,0.543,2.461-0.476c0.625,0.688,2.373,0.49,2.404-0.592
	c0.004-0.117,0.016-0.234,0.02-0.352c0.588,0.711,2.346,0.521,2.406-0.572c0.271-4.506,1.059-8.982,1.557-13.477
	C49.137,44.15,46.271,43.795,46.139,45.199z"/>
<path fill="#B08551" d="M31.999,46.465C32.529,54.989,32,61.382,32,61.382S31.523,54.864,31.999,46.465z"/>
<path fill="#B08551" d="M28.931,46.516c0.53,8.524,0.21,14.698,0.21,14.698S28.456,54.915,28.931,46.516z"/>
<path fill="#B08551" d="M26.006,46.274c0.531,8.524,0.405,14.916,0.405,14.916S25.53,54.674,26.006,46.274z"/>
<path fill="#B08551" d="M23.269,46.083c0.53,8.524,0.581,14.853,0.581,14.853S22.793,54.482,23.269,46.083z"/>
<path fill="#B08551" d="M20.589,45.835c0.53,8.524,0.8,14.627,0.8,14.627S20.113,54.234,20.589,45.835z"/>
<path fill="#B08551" d="M17.892,45.497c0.53,8.524,1.073,14.022,1.073,14.022S17.416,53.896,17.892,45.497z"/>
<path fill="#B08551" d="M35.09,46.516c-0.529,8.524-0.209,14.698-0.209,14.698S35.566,54.915,35.09,46.516z"/>
<path fill="#B08551" d="M38.016,46.274c-0.529,8.524-0.404,14.916-0.404,14.916S38.492,54.674,38.016,46.274z"/>
<path fill="#B08551" d="M40.752,46.083c-0.529,8.524-0.58,14.853-0.58,14.853S41.229,54.482,40.752,46.083z"/>
<path fill="#B08551" d="M43.434,45.835c-0.531,8.524-0.801,14.627-0.801,14.627S43.908,54.234,43.434,45.835z"/>
<path fill="#B08551" d="M46.131,45.497C45.6,54.021,45.057,59.52,45.057,59.52S46.605,53.896,46.131,45.497z"/>
</svg>
