<?xml version="1.0" encoding="utf-8"?>
<!-- Generator: Adobe Illustrator 15.0.0, SVG Export Plug-In . SVG Version: 6.00 Build 0)  -->
<!DOCTYPE svg PUBLIC "-//W3C//DTD SVG 1.1//EN" "http://www.w3.org/Graphics/SVG/1.1/DTD/svg11.dtd" [
	<!ENTITY ns_flows "http://ns.adobe.com/Flows/1.0/">
	<!ENTITY ns_extend "http://ns.adobe.com/Extensibility/1.0/">
	<!ENTITY ns_ai "http://ns.adobe.com/AdobeIllustrator/10.0/">
	<!ENTITY ns_graphs "http://ns.adobe.com/Graphs/1.0/">
]>
<svg version="1.1" id="Layer_1" xmlns:x="&ns_extend;" xmlns:i="&ns_ai;" xmlns:graph="&ns_graphs;"
	 xmlns="http://www.w3.org/2000/svg" xmlns:xlink="http://www.w3.org/1999/xlink" xmlns:a="http://ns.adobe.com/AdobeSVGViewerExtensions/3.0/"
	 x="0px" y="0px" width="64px" height="64px" viewBox="0 0 64 64" enable-background="new 0 0 64 64" xml:space="preserve">
<path fill="#18B5F8" d="M62,39.101c0,0-40.412,6.607-60,4.016V62h60V39.101z"/>
<path fill="#D6A67A" d="M10.455,16.313c-0.268,0.419-0.111,1.471,0.982,1.29c2.377-0.395,1.752-1.788,4.73-2.4
	C15.143,11.845,10.832,15.721,10.455,16.313z"/>
<path fill="#E3C19B" d="M47.209,31.271c-1.877-9.886-4.998-20.026-7.176-20.426c-4.783-1.048-22.407-1.012-24.002-0.488
	c-0.82,0.27-5.01,1.544-8.135,2.167c-0.563,0.111-2.393,1.959-3.541,2.756c-1.629,1.131-0.375,2.477,0.879,1.75
	c1.125-0.652,2.457-1.71,3.287-1.979c2.791-0.9,5.354,1.882,8.687-0.435c6.682-0.472,17.714,2.587,18.2,3.766
	c3,7.276,1.271,10.343,2.684,15.921c-0.926,2.041-5.043,13.613-1.502,13.613c10.502,0,16.689-3.246,25.41-3.248v-9.238
	C58.627,35.431,52.727,32.072,47.209,31.271z"/>
<path fill="#D6A67A" d="M36.867,48.271c4.473-4.379,4.471-5.259-0.002-9.635L36.867,48.271z"/>
<path fill="#D6A67A" d="M23.109,32.954c0,0,5.971,3.613,6.465,1.986C31.059,30.048,22.117,33.072,23.109,32.954z"/>
<path fill="#D6A67A" d="M23.109,53.951c0,0,5.971-3.611,6.465-1.985C31.059,56.858,22.117,53.835,23.109,53.951z"/>
<path fill="#E3C19B" d="M11.619,43.456c0,7.27,5.48,10.777,13.105,10.338c1.533-0.089,6.538-1.041,8.33-1.944
	c1.838-0.923,4.668-4.006,5.254-5.896c0.369-1.194,0.369-3.805,0-5c-0.586-1.889-3.416-4.973-5.254-5.896
	c-1.792-0.902-6.797-1.854-8.33-1.943C17.1,32.676,11.619,36.181,11.619,43.456z"/>
<path fill="#D6A67A" d="M29.678,41.2c1.461,0,1.461,4.508,0,4.508C29.342,45.708,29.342,41.2,29.678,41.2z"/>
<path fill="#BF8C6B" d="M22.262,35.267c-0.82,1.662-0.861,4.844-0.287,6.029c0.109,0.254,0.891,0.086,0.816-0.129
	c-0.611-1.652-0.625-4.316,0.053-5.863C22.93,35.095,22.377,35.011,22.262,35.267z"/>
<path fill="#BF8C6B" d="M22.262,51.646c-0.82-1.663-0.861-4.848-0.287-6.034c0.109-0.254,0.891-0.086,0.816,0.129
	c-0.611,1.655-0.625,4.315,0.053,5.867C22.93,51.813,22.377,51.897,22.262,51.646z"/>
<path fill="#E81C27" d="M24.523,32.465c-17.533-2.281-17.533,24.259,0,21.979C21.326,51.428,21.326,35.479,24.523,32.465z"/>
<path fill="#302C3B" d="M25.771,34.415c3.967,0,3.967,8.133,0,8.133C21.803,42.548,21.803,34.415,25.771,34.415z"/>
<path fill="#44618B" d="M25.771,35.431c2.381,0,2.381,6.102,0,6.102C23.389,41.532,23.389,35.431,25.771,35.431z"/>
<path fill="#302C3B" d="M25.771,44.36c3.967,0,3.967,8.133,0,8.133C21.803,52.493,21.803,44.36,25.771,44.36z"/>
<path fill="#44618B" d="M25.771,45.376c2.381,0,2.381,6.101,0,6.101C23.389,51.477,23.389,45.376,25.771,45.376z"/>
<rect x="24.879" y="41.929" fill="#006DAE" width="1.787" height="3.051"/>
<polygon fill="#006DAE" points="26.666,33.3 26.666,35.05 24.879,35.05 24.879,33.053 "/>
<polygon fill="#006DAE" points="26.666,51.858 26.666,53.606 24.879,53.854 24.879,51.858 "/>
<path fill="#45332C" d="M35.076,41.852c1.418,0,1.418,3.206,0,3.206C32.325,45.058,32.325,41.852,35.076,41.852z"/>
<path fill-rule="evenodd" clip-rule="evenodd" fill="#8E3ED6" d="M49.471,31.725c4.633,0.661,7.754,2.69,12.529,3.378v9.955
	c-3.432-0.092-15.623,3.213-21.779,2.859c2.906-0.586,5.488-2.699,5.488-4.463c0-3.615-8.768-6.08-8.768-6.08s0.436-1.943,1.15-3.07
	C44.834,35.997,50.771,33.302,49.471,31.725z"/>
<path fill="#48C2F9" d="M2,62h60V49.18c-31.226-5.728-28.988,3.958-60,1.003V62z"/>
<path fill="#7ED2FC" d="M62,54.833c-21.779-1.336-32.574,2.998-60,1.498V62h60V54.833z"/>
</svg>
