<?xml version="1.0" encoding="utf-8"?>
<!-- Generator: Adobe Illustrator 15.0.0, SVG Export Plug-In . SVG Version: 6.00 Build 0)  -->
<!DOCTYPE svg PUBLIC "-//W3C//DTD SVG 1.1//EN" "http://www.w3.org/Graphics/SVG/1.1/DTD/svg11.dtd" [
	<!ENTITY ns_flows "http://ns.adobe.com/Flows/1.0/">
	<!ENTITY ns_extend "http://ns.adobe.com/Extensibility/1.0/">
	<!ENTITY ns_ai "http://ns.adobe.com/AdobeIllustrator/10.0/">
	<!ENTITY ns_graphs "http://ns.adobe.com/Graphs/1.0/">
]>
<svg version="1.1" id="Layer_1" xmlns:x="&ns_extend;" xmlns:i="&ns_ai;" xmlns:graph="&ns_graphs;"
	 xmlns="http://www.w3.org/2000/svg" xmlns:xlink="http://www.w3.org/1999/xlink" xmlns:a="http://ns.adobe.com/AdobeSVGViewerExtensions/3.0/"
	 x="0px" y="0px" width="64px" height="64px" viewBox="0 0 64 64" enable-background="new 0 0 64 64" xml:space="preserve">
<path fill="#45332C" d="M21.029,60.745c0,0,0.396,0.624,0,1.255h-6.188c-0.443-0.627,0-1.255,0-1.255H21.029z"/>
<path fill="#614A36" d="M21.584,12.181c2.04,5.062-1.268,6.448,3.433,8.412c4.992-0.106,3.101-3.157,6.484-6.672
	C30,11.974,24.756,10.964,21.584,12.181z"/>
<path fill="#423225" d="M33.598,10.288c0,0-2.835,3.211-1.898,3.68C34.514,15.38,33.633,9.68,33.598,10.288z"/>
<path fill="#423225" d="M20.831,8.061c0,0,1.556,3.977,0.513,4.101C18.21,12.535,21.009,7.478,20.831,8.061z"/>
<path fill="#38332D" d="M20.663,8.381c-0.485,4.354,2.003,7.267,5.211,7.826c3.205,0.559,6.718-1.306,7.771-5.562
	C34.668,6.488,21.138,4.128,20.663,8.381z"/>
<radialGradient id="SVGID_1_" cx="52.3594" cy="35.8779" r="3.0997" gradientTransform="matrix(1.006 0 0 0.8401 -0.8445 5.7385)" gradientUnits="userSpaceOnUse">
	<stop  offset="0" style="stop-color:#6E8189"/>
	<stop  offset="0.1728" style="stop-color:#5F6D77"/>
	<stop  offset="0.5252" style="stop-color:#464A56"/>
	<stop  offset="0.8136" style="stop-color:#363442"/>
	<stop  offset="1" style="stop-color:#302C3B"/>
	<a:midPointStop  offset="0" style="stop-color:#6E8189"/>
	<a:midPointStop  offset="0.3879" style="stop-color:#6E8189"/>
	<a:midPointStop  offset="1" style="stop-color:#302C3B"/>
</radialGradient>
<path fill="url(#SVGID_1_)" d="M52.818,40.924c-0.467,0.831-3.184,1.315-3.381,0.096c-0.516-3.17,0.643-5.314,2.246-6.366
	C53.979,35.843,54.945,37.146,52.818,40.924z"/>
<path fill="#423225" d="M16.859,14.542c0.321-1.275-1.272-1.809-1.692-0.624c-3.371-0.115-2.733,2.396-3.298,2.663
	c0.512,3.165,1.94,8.549,2.736,9.022c2.432,1.448,2.548-3.412,1.753-4.851c-0.724-1.315-2.189-3.281-1.701-4.692
	C14.859,15.479,16.499,15.977,16.859,14.542z"/>
<path fill="#594640" d="M21.029,56.977c0,0,0.71,2.023,0,3.769c0,0-2.655,0.628-6.188,0c-0.646-1.894,0-3.769,0-3.769H21.029z"/>
<path fill="#594640" d="M38.777,52.864c0.387,1.11-1.115,8.25-5.418,9.136c-4.259,0,0.969-5.764-0.051-7.987
	C33.309,54.013,34.91,50.231,38.777,52.864z"/>
<path fill="#45332C" d="M38.777,52.864C39.951,53.762,38.887,62,33.359,62c-2.906,0,2.475-5.311,1.461-8.863
	C34.82,53.137,34.91,50.231,38.777,52.864z"/>
<path fill="#6E8189" d="M26.118,34.97c-3.021-1.825-12.782-1.551-12.782-1.551c-2.17,9.058-0.901,12.276,1.122,24.26
	c0,0,3.192,0.093,6.756-0.486c-2.109-9.486-1.759-8.111-0.203-15.856c2.27,5.298,3.057,5.575,4.316,7.271
	c1.484,1.987,8.005,6.208,8.005,6.208s1.986-3.082,5.719-1.835c0.666-2.007-8.195-6.784-9.121-8.961
	C28.913,41.601,27.254,36.248,26.118,34.97z"/>
<path fill="#7AB51D" d="M26.664,35.437c0,0-6.435,1.676-13.639-1.783c2.606-7.267,6.329-11.591,8.308-16.342
	c1.908-1.141,7.593,1.037,7.593,1.828C28.852,23.693,25.709,27.844,26.664,35.437z"/>
<path fill="#614A36" d="M10.3,15.489c-0.002-0.229,2.383,0.338,3.092,0.136c-0.136,2.231,1.209,3.27,1.875,5.602
	c3.982-2.466,8.932,0.123,7.271,1.274c-1.919,1.339-6.875,5.178-9.306,3.73C12.257,25.65,10.329,17.709,10.3,15.489z"/>
<path fill="#529320" d="M23.213,22.701c4.038-3.279-0.006-8.012-3.316-4.402c-2.356,1.561-4.29,2.527-4.29,2.527
	c2.986,2.15,2.242,5.022,2.242,5.022S21.553,24.05,23.213,22.701z"/>
<path fill="#6E8189" d="M52.131,34.926c0.652,0.396-0.004,1.423-0.652,1.019c-7.689-4.783-28.925-18.173-28.925-18.173l0.649-1.018
	C23.203,16.754,41.814,28.664,52.131,34.926z"/>
<path fill="#302C3B" d="M11.492,8.747l14.44,9.071c0.792,0.486-0.468,2.43-1.244,1.943L10.25,10.69
	C9.468,10.2,10.699,8.252,11.492,8.747z"/>
<path fill="#423225" d="M15.196,13.014c0.252,1.038,1.256,1.038,1.638,0.354c1.249-2.002,0.395-2.376-0.245-2.189
	C15.728,9.438,13.81,13.392,15.196,13.014z"/>
<path fill="#99A8AE" d="M13.815,15.516c-0.061,0.168-0.117,0.356-0.172,0.538c-1.201,0.318-3.372-0.42-3.574-0.486
	c0.159-0.803-0.158-1.975-0.043-2.723c0.279-1.847,1.627-4.75,2.655-3.507c0.291-0.361,1.015-0.09,1.132,0.289
	c0,0,0.897-0.469,1.276,0.46c0.734-0.214,1.761,0.309-0.471,3.207l1.357,0.995C15.69,15.642,14.024,14.938,13.815,15.516z"/>
<path fill="#614A36" d="M10.882,13.001c-0.206-1.859,2.481-1.841,2.593,0.596C13.25,13.892,11.338,13.717,10.882,13.001z"/>
<path fill="#E81C27" d="M33.746,11.191c3.266-10.305-12.873-13.119-13.365-2.33C21.584,13.733,31.258,15.434,33.746,11.191z"/>
<path fill="#38332D" d="M29.67,12.009c1.275-4.016-5.016-5.112-5.208-0.908C24.462,11.101,27.151,12.315,29.67,12.009z"/>
</svg>
