<?xml version="1.0" encoding="utf-8"?>
<!-- Generator: Adobe Illustrator 15.0.0, SVG Export Plug-In . SVG Version: 6.00 Build 0)  -->
<!DOCTYPE svg PUBLIC "-//W3C//DTD SVG 1.1//EN" "http://www.w3.org/Graphics/SVG/1.1/DTD/svg11.dtd" [
	<!ENTITY ns_flows "http://ns.adobe.com/Flows/1.0/">
	<!ENTITY ns_extend "http://ns.adobe.com/Extensibility/1.0/">
	<!ENTITY ns_ai "http://ns.adobe.com/AdobeIllustrator/10.0/">
	<!ENTITY ns_graphs "http://ns.adobe.com/Graphs/1.0/">
]>
<svg version="1.1" id="Layer_1" xmlns:x="&ns_extend;" xmlns:i="&ns_ai;" xmlns:graph="&ns_graphs;"
	 xmlns="http://www.w3.org/2000/svg" xmlns:xlink="http://www.w3.org/1999/xlink" xmlns:a="http://ns.adobe.com/AdobeSVGViewerExtensions/3.0/"
	 x="0px" y="0px" width="64px" height="64px" viewBox="0 0 64 64" enable-background="new 0 0 64 64" xml:space="preserve">
<path fill="#7AB51D" d="M8,58.901c0,0,2.693,2.688,6.544,2.505L17.149,62c0.206-0.33,0.092-0.45,0.092-0.45
	s-1.786-1.842-8.942-2.935C8.299,58.615,8.103,58.574,8,58.901z"/>
<path fill="#302C3B" d="M14.656,57.1c-1.132,1.209-5.603-0.896-6.357,1.516c0,0,2.487,2.525,6.338,2.342l2.604,0.593
	C20.798,55.853,14.656,57.1,14.656,57.1z"/>
<path fill="#7AB51D" d="M11.498,57.416c0.661,1.098,1.23,1.423,1.462,0.834c0.484,0.589,0.917,0.329,1.017-0.031
	c0.569,0.45,0.955-0.062,0.362-0.897C13.992,56.87,11.32,57.12,11.498,57.416z"/>
<path fill="#7AB51D" d="M55.816,53.982c0,0,0.892-3.713-1.256-6.936l-0.843-2.552c-0.387-0.007-0.43,0.153-0.43,0.153
	s-0.643,2.493,2.131,9.225C55.419,53.873,55.485,54.063,55.816,53.982z"/>
<path fill="#302C3B" d="M50.842,49.179c1.613,0.35,2.136,5.292,4.577,4.694c0,0,0.86-3.45-1.288-6.673l-0.843-2.552
	C49.109,45.021,49.896,46.541,50.842,49.179z"/>
<path fill="#7AB51D" d="M52.744,51.735c0.592-1.137,0.573-1.796-0.046-1.69c0.25-0.722-0.195-0.961-0.553-0.859
	c0.088-0.725-0.547-0.791-0.951,0.151C50.99,49.869,52.585,52.042,52.744,51.735z"/>
<path fill="#E3C19B" d="M23.793,33.569c-2.928,2.794-7.773,8.783-7.712,10.821c0.157,5.191-1.085,11.544-1.085,11.544
	c0.239,1.089,2.853,1.563,3.443,0.775c1.103-4.981,3.354-5.796,2.574-11.344c4.206-2.774,6.413-7.316,8.357-7.803
	c0.226,5.821,5.268,12.123,6.332,12.376c1.155,0.274,5.875-1.266,13.859-1.052c0.652,0.017,0.201-3.243-0.124-3.24
	c-6.001,0.067-8.849-1.652-11.972-0.007c-0.373-3.841-2.021-5.853-2.103-9.663C35.349,35.285,23.793,33.569,23.793,33.569z"/>
<path fill="#F2F5F7" d="M14.996,55.935c-0.141,0.845-0.238,1.464-0.238,1.464s1.132,1.077,3.304,0.934
	c0.127-0.59,0.232-1.112,0.378-1.622C17.925,57.079,15.59,56.697,14.996,55.935z"/>
<path fill="#F2F5F7" d="M50.709,45.609c-0.44,0.021-0.862,0.032-1.271,0.038c0.457,0.972,0.386,2.646,0.124,3.24
	c0.378,0.002,0.758,0.005,1.146,0.016C51.361,48.921,51.034,45.595,50.709,45.609z"/>
<path fill="#D6A67A" d="M19.895,16.752c1.334-1.089,1.219,1.946,1.312,2.297c0,0,1.653-2.551,4.736-3.534
	c0,0-0.717-1.175-1.472-3.19C23.089,6.578,19.895,16.752,19.895,16.752z"/>
<path fill="#E3C19B" d="M13.955,7.859c-0.093,0.911,0.129,1.591,0.516,2.313c0.6,1.11,0.237,1.861-0.407,2.952
	c-0.614,1.035,0.527,1.437,1.426,1.147c0.263,0.216,0.326,0.67,0.326,0.67s0.837,0.342,0.554,1.5c0.923,0.492,0.01,2.12,1.807,1.633
	c1.754-0.475,3.663-2.494,3.944-2.999c0.443-0.799,0.099-2.753,0.099-2.753c1.015,0.81,2.378-1.538,1.802-3.708
	C23.067,5.017,18.701,1.03,13.955,7.859z"/>
<path fill="#D6A67A" d="M21.581,10.021C21.317,9.172,21.779,8.218,22.473,8c0,0-0.876,1.381-0.152,2.652
	C22.32,10.652,21.763,10.613,21.581,10.021z"/>
<path fill="#F5F5F5" d="M17.873,10.775c-0.333,0.64-1.397,1.209-1.794,1.222C14.51,9.459,16.995,9.758,17.873,10.775z"/>
<path fill="#45332C" d="M16.125,11.994c1.072-0.291-0.22-3.05-0.579-1.299C15.57,10.98,15.907,12.054,16.125,11.994z"/>
<path fill="#D6A67A" d="M17.873,10.775c-0.549-1.009-2.597-1.346-2.327-0.08C15.679,9.945,17.102,10.068,17.873,10.775z"/>
<path fill="#F5F5F5" d="M15.881,10.647c0.069,0.265,0.448,0.162,0.379-0.103C16.194,10.302,15.815,10.403,15.881,10.647z"/>
<path fill="#BF8C6B" d="M17.526,8.911c-0.89-0.351-2.327,0.009-2.755,0.538c-0.097,0.105,0.119,0.609,0.2,0.533
	c0.634-0.61,1.827-0.944,2.644-0.677C17.721,9.339,17.661,8.958,17.526,8.911z"/>
<path fill="#BF8C6B" d="M15.948,15.322c0.398,0.13,0.229,0.562,0.229,0.562c-0.165,0.045-0.052,0.625,0.192,0.559
	c1.211-0.328,1.46-1.25,1.668-1.784C16.686,14.947,15.176,14.635,15.948,15.322z"/>
<path fill="#FFFFFF" d="M15.948,15.322c0,0,0.147,0.502,0.229,0.562c0.266-0.071,1.192-0.553,1.629-1.064L15.948,15.322z"/>
<path fill="#EFDE8B" d="M24.484,3.313c-1.172-1.228-3.07-1.719-5.962-0.936c-2.665,0.721-4.038,2.045-4.823,1.893
	c0,0-0.023,0.482,0.252,0.813c-0.363,0.118-0.648-0.068-0.648-0.064c-0.145,0.489-0.297,1.702,0.652,2.84
	c3.793-2.724,4.438-1.3,5.718-0.375c0.295,0.215-0.074,1.629,1.363,2.57c-0.498-2.818,2.794-3.433,3.054-0.948
	c0.168,1.591-0.341,2.417-0.618,2.869c0.662,0.023,1.125,0.669,1.125,0.669C27.604,11.83,26.729,4.238,24.484,3.313z"/>
<path fill="#D6A67A" d="M16.15,13.581c-0.027,0.412-0.545,0.677-0.872,0.766c-0.439,0.119-0.919,0.018-1.194-0.242
	C14.149,13.68,15.353,14.359,16.15,13.581z"/>
<path fill="#1A1626" d="M30.271,42.787c0,0,4.184-0.104,6.53-1.539c-0.458-4.664-1.465-8.473-3.188-10.869
	C28.561,31.37,24.866,34.362,30.271,42.787z"/>
<path fill="#302C3B" d="M24.264,31.214c-1.431,2.349-3.828,5.737-5.37,7.202c0,0,2.303,3.003,6.461,3.602
	c3.185-2.731,15.033-4.665,8.258-11.639C28.561,31.37,24.264,31.214,24.264,31.214z"/>
<path fill="#E3C19B" d="M23.604,20.988c-2.452-1.246-3.742,3.428-3.734,4.715c-2.207-1.122-5.975-2.125-5.919-2.527
	c0.145-1.031-0.077-1.097-1.053-2.33c-0.27-0.341-0.857,0.208-0.857,0.208c-0.845-0.628-0.803,0.243-1.356,0.513
	c-0.515,0.25-0.307,0.676-0.792,1.03c-1.08,0.789,0.559,2.386,2.481,2.98c1.377,0.427,5.684,4.953,9.306,4.797
	C22.883,30.323,26.15,22.913,23.604,20.988z"/>
<path fill="#7AB51D" d="M25.42,14.32c-1.352,0.156-2.969,2.975-4.343,3.114c-3.446,6.298,2.121,8.611,2.626,14.479
	c0.803,1.316,9.441,0.675,10.244-1.414C29.387,25.055,35.915,16.616,25.42,14.32z"/>
<path fill="#E3C19B" d="M29.815,17.705c-2.57,3.322,4.107,4.857,5.436,5.05c-1.523,1.897-5.343,7.595-5.724,7.421
	c-1.109-0.5-1.144-0.099-2.578,0.628c-0.398,0.199,0.073,0.836,0.073,0.836c-0.79,0.696,0.117,0.791,0.304,1.354
	c0.174,0.521,0.647,0.392,0.932,0.902c0.636,1.137,2.556-0.152,3.487-1.865c0.666-1.228,7.606-6.438,8.044-9.866
	C39.936,21.029,32.225,15.614,29.815,17.705z"/>
<path fill="#529320" d="M31.018,22.102c1.08-2.349,2.466-4.096,3.07-4.567C25.526,10.261,21.258,18.668,31.018,22.102z"/>
</svg>
