<?xml version="1.0" encoding="utf-8"?>
<!-- Generator: Adobe Illustrator 19.0.0, SVG Export Plug-In . SVG Version: 6.00 Build 0)  -->
<svg version="1.1" id="Layer_1" xmlns="http://www.w3.org/2000/svg" xmlns:xlink="http://www.w3.org/1999/xlink" x="0px" y="0px"
	 width="64px" height="64px" viewBox="0 0 64 64" enable-background="new 0 0 64 64" xml:space="preserve">
<path fill="#FFCC66" d="M21.584,12.18c2.04,5.062-1.268,6.449,3.433,8.412c4.991-0.105,3.102-3.156,6.484-6.672
	C30.001,11.973,24.756,10.963,21.584,12.18z"/>
<path fill="#E6B045" d="M33.598,10.287c0,0-2.836,3.211-1.899,3.68C34.515,15.379,33.634,9.68,33.598,10.287z"/>
<path fill="#E6B045" d="M20.831,8.061c0,0,1.556,3.977,0.513,4.1C18.21,12.535,21.009,7.477,20.831,8.061z"/>
<path fill="#594640" d="M20.663,8.381c-0.485,4.354,2.003,7.266,5.211,7.826c3.204,0.559,6.719-1.307,7.77-5.562
	C34.669,6.488,21.138,4.127,20.663,8.381z"/>
<path fill="#E81C27" d="M33.746,11.191c3.267-10.305-12.873-13.119-13.365-2.33C21.584,13.733,31.259,15.434,33.746,11.191z"/>
<path fill="#594640" d="M37.853,26.155c-0.698-0.162-1.393-1.402-1.923-2.973c0.66,0.258,1.417,0.354,2.288,0.186
	C32.021,19.62,35.588,6.134,26.588,9.087c-1.515,0.498-1.435,2.408-1.435,2.408c6.532-0.883,1.52,8.408,6.552,11.063
	c-0.496-0.492-0.496-1.521-0.363-2.738C32.307,23.315,33.965,26.628,37.853,26.155z"/>
<path fill="#453631" d="M37.853,26.155c-0.698-0.162-2.795-1.912-3.326-3.483c1.807,1.088,2.868,1.246,3.692,0.695
	c-8.068-2.277-4.808-16.848-13.066-11.873c5.529-0.563,1.52,8.408,6.552,11.063c-1.443-1.563-1.342-2.885-0.771-3.709
	C31.899,22.343,33.965,26.628,37.853,26.155z"/>
<radialGradient id="SVGID_1_" cx="52.3603" cy="35.8765" r="3.1" gradientTransform="matrix(1.006 0 0 0.8401 -0.8445 5.7383)" gradientUnits="userSpaceOnUse">
	<stop  offset="0" style="stop-color:#6E8189"/>
	<stop  offset="0.1728" style="stop-color:#5F6D77"/>
	<stop  offset="0.5252" style="stop-color:#464A56"/>
	<stop  offset="0.8136" style="stop-color:#363442"/>
	<stop  offset="1" style="stop-color:#302C3B"/>
</radialGradient>
<path fill="url(#SVGID_1_)" d="M52.819,40.924c-0.468,0.83-3.184,1.314-3.382,0.096c-0.516-3.17,0.644-5.314,2.246-6.367
	C53.978,35.842,54.945,37.145,52.819,40.924z"/>
<path fill="#E6B045" d="M16.859,14.541c0.321-1.275-1.273-1.809-1.692-0.623c-3.371-0.115-2.733,2.395-3.298,2.662
	c0.316,1.951,2.137,8.666,2.736,9.023c2.432,1.447,2.542-2.945,1.747-4.385c-0.724-1.314-2.184-3.748-1.695-5.158
	C14.859,15.479,16.499,15.977,16.859,14.541z"/>
<path fill="#45332C" d="M21.029,60.744c0,0,0.396,0.625,0,1.256h-5.188c-0.443-0.627,0-1.256,0-1.256H21.029z"/>
<path fill="#594640" d="M21.029,56.977c0,0,0.71,2.023,0,3.768c0,0-1.655,0.629-5.188,0c-0.646-1.893,0-3.768,0-3.768H21.029z"/>
<path fill="#594640" d="M38.778,52.863c0.386,1.111-0.517,8.25-4.819,9.137c-4.26,0,0.969-5.764-0.052-7.988
	C33.907,54.012,34.911,50.231,38.778,52.863z"/>
<path fill="#45332C" d="M38.778,52.863C39.952,53.762,39.486,62,33.959,62c-2.906,0,2.474-5.311,1.46-8.863
	C35.419,53.137,34.911,50.231,38.778,52.863z"/>
<path fill="#6E8189" d="M25.996,34.653c-3.021-1.824-10.66-1.235-10.66-1.235c-2.17,9.059-1.901,12.277,0.122,24.26
	c0,0,2.192,0.094,5.756-0.486c-2.109-9.486-1.759-8.111-0.203-15.855c2.27,5.297,2.632,6.211,3.892,7.906
	c1.483,1.988,9.029,5.572,9.029,5.572s1.387-3.082,5.119-1.836c0.666-2.006-9.194-5.783-10.12-7.961
	C27.912,42.6,27.133,35.933,25.996,34.653z"/>
<path fill="#8E3ED6" d="M26.543,35.12c0,0-4.313,1.991-11.518-1.468c2.606-7.266,4.329-11.59,6.308-16.342
	c1.908-1.141,7.593,1.037,7.593,1.828C28.852,23.693,25.588,27.528,26.543,35.12z"/>
<path fill="#FFCC66" d="M10.3,15.488c-0.002-0.229,2.383,0.338,3.092,0.137c-0.136,2.231,0.994,3.949,1.869,6.068
	c3.983-2.467,8.938-0.344,7.276,0.807c-1.919,1.34-6.875,4.766-9.306,3.318C12.257,25.238,10.329,17.709,10.3,15.488z"/>
<path fill="#5D1E96" d="M23.213,22.701c4.037-3.279-0.006-8.012-3.316-4.402c-2.357,1.561-4.296,2.994-4.296,2.994
	c2.986,2.15,2.248,4.142,2.248,4.142S21.553,24.049,23.213,22.701z"/>
<path fill="#6E8189" d="M52.131,34.926c0.653,0.395-0.003,1.422-0.651,1.018C43.79,31.16,22.554,17.772,22.554,17.772l0.649-1.018
	C23.203,16.754,41.814,28.664,52.131,34.926z"/>
<path fill="#302C3B" d="M11.492,8.746l14.44,9.072c0.792,0.486-0.468,2.43-1.244,1.943L10.25,10.689
	C9.468,10.199,10.699,8.252,11.492,8.746z"/>
<path fill="#E6B045" d="M15.196,13.014c0.252,1.037,1.256,1.037,1.638,0.354c1.249-2.002,0.395-2.377-0.245-2.19
	C15.727,9.438,13.81,13.391,15.196,13.014z"/>
<path fill="#99A8AE" d="M13.815,15.516c-0.061,0.168-0.117,0.356-0.172,0.537c-1.201,0.318-3.372-0.42-3.574-0.486
	c0.159-0.803-0.158-1.975-0.043-2.723c0.279-1.846,1.627-4.75,2.655-3.506c0.291-0.361,1.015-0.09,1.132,0.289
	c0,0,0.897-0.469,1.276,0.459c0.734-0.213,1.761,0.309-0.471,3.207l1.358,0.996C15.69,15.641,14.024,14.938,13.815,15.516z"/>
<path fill="#FFCC66" d="M10.882,13c-0.206-1.859,2.481-1.84,2.593,0.596C13.25,13.891,11.338,13.717,10.882,13z"/>
</svg>
