<?xml version="1.0" encoding="utf-8"?>
<!-- Generator: Adobe Illustrator 15.0.0, SVG Export Plug-In . SVG Version: 6.00 Build 0)  -->
<!DOCTYPE svg PUBLIC "-//W3C//DTD SVG 1.1//EN" "http://www.w3.org/Graphics/SVG/1.1/DTD/svg11.dtd" [
	<!ENTITY ns_flows "http://ns.adobe.com/Flows/1.0/">
	<!ENTITY ns_extend "http://ns.adobe.com/Extensibility/1.0/">
	<!ENTITY ns_ai "http://ns.adobe.com/AdobeIllustrator/10.0/">
	<!ENTITY ns_graphs "http://ns.adobe.com/Graphs/1.0/">
]>
<svg version="1.1" id="Layer_1" xmlns:x="&ns_extend;" xmlns:i="&ns_ai;" xmlns:graph="&ns_graphs;"
	 xmlns="http://www.w3.org/2000/svg" xmlns:xlink="http://www.w3.org/1999/xlink" xmlns:a="http://ns.adobe.com/AdobeSVGViewerExtensions/3.0/"
	 x="0px" y="0px" width="64px" height="64px" viewBox="0 0 64 64" enable-background="new 0 0 64 64" xml:space="preserve">
<rect x="2" y="16.232" fill="#99A8AE" width="60" height="1.537"/>
<path fill="#875B49" d="M48,35.752c-0.691-0.025-1.568-1.076-2.352-2.465c0.672,0.125,1.4,0.08,2.193-0.236
	c-6.523-2.434-4.096-16.363-12.744-12.125l1.258,3.955C41.395,21.918,40.258,35.652,48,35.752z"/>
<path fill="#6B4435" d="M48,35.752c-0.691-0.025-2.984-1.307-3.768-2.697c1.902,0.705,2.932,0.664,3.609-0.004
	c-7.41-0.943-5.193-14.65-11.824-9.982l0.338,1.813C40.873,23.25,37.768,36.021,48,35.752z"/>
<path fill="#8E3ED6" d="M34.559,20.613c-1.41,0.598,2.172,6.852,3.568,4.76C39.602,23.168,36.58,19.754,34.559,20.613z"/>
<path fill="#8E3ED6" d="M38.053,39.467l-1.611-6.533L32,34.195l-4.441-1.262l-1.611,6.533c0.58,3.24,1.176,2.125,1.043,7.186
	c-0.066,2.473-5.258,8.539,5.01,8.539s5.076-6.066,5.01-8.539C36.873,41.592,37.471,42.707,38.053,39.467z"/>
<path fill="#302C3B" d="M32,46.561c-3.002,0-5.01-0.873-5.01-0.873v1.285c0,0,2.008,1.949,5.01,1.949c2.998,0,5.01-1.949,5.01-1.949
	v-1.285C37.01,45.688,34.998,46.561,32,46.561z"/>
<rect x="52" y="14" fill="#6E8189" width="1" height="6"/>
<rect x="53" y="8" fill="#302C3B" width="3" height="18"/>
<rect x="56" y="14" fill="#6E8189" width="2" height="6"/>
<rect x="56.5" y="13" fill="#302C3B" width="1" height="2"/>
<rect x="11" y="14" fill="#6E8189" width="1" height="6"/>
<rect x="8" y="8" fill="#302C3B" width="3" height="18"/>
<rect x="6" y="14" fill="#6E8189" width="2" height="6"/>
<rect x="6.5" y="13" fill="#302C3B" width="1" height="2"/>
<path fill="#B88A6F" d="M27.559,32.934c0,0-0.953-1.881-3.045-2.496c0,0-4.168-6.766-4.168-11.146c0-0.672-2.764-0.902-2.691-0.232
	c0.76,6.916,2.051,10.631,6.6,16.109c0.693,0.834,1.693,4.299,1.693,4.299C26.883,39.346,27.559,32.934,27.559,32.934z"/>
<path fill="#B88A6F" d="M36.441,32.934c0,0,0.953-1.881,3.045-2.496c0,0,4.168-6.766,4.168-11.146c0-0.672,2.766-0.902,2.691-0.232
	c-0.76,6.916-2.051,10.631-6.6,16.109c-0.693,0.834-1.693,4.299-1.693,4.299C37.117,39.346,36.441,32.934,36.441,32.934z"/>
<path fill="#946346" d="M34.5,33.754c0,2.635-5,2.635-5,0c0-0.787,0-3.025,0-3.025h5C34.5,30.729,34.5,33.045,34.5,33.754z"/>
<path fill="#946346" d="M36.486,30.131c1.445,1.441,2.887-3.787,1.039-3.451C36.662,26.838,35.814,29.461,36.486,30.131z"/>
<path fill="#946346" d="M27.52,30.131c0.672-0.67-0.176-3.293-1.041-3.451C24.633,26.344,26.074,31.572,27.52,30.131z"/>
<path fill="#B88A6F" d="M32.002,20.613c-3.85,0-5.705,3.133-5.473,7.166c0.047,0.811,0.273,1.98,0.553,2.982
	c0.576,2.08,3.623,4.176,4.92,4.176c1.299,0,4.342-2.096,4.922-4.176c0.277-1.002,0.504-2.172,0.551-2.982
	C37.707,23.746,35.855,20.613,32.002,20.613z"/>
<path fill="#423225" d="M36.246,26.314c-0.869-0.518-2.426-0.58-3.041-0.229c-0.129,0.07-0.092,0.445,0.018,0.398
	c0.879-0.365,2.217-0.385,3.041,0.039C36.375,26.58,36.377,26.389,36.246,26.314z"/>
<path fill="#423225" d="M27.762,26.314c0.865-0.518,2.42-0.58,3.039-0.229c0.129,0.07,0.094,0.445-0.02,0.398
	c-0.879-0.365-2.215-0.385-3.037,0.039C27.631,26.58,27.627,26.389,27.762,26.314z"/>
<path fill="#946346" d="M33.195,30.207c0,0.777-2.385,0.777-2.385,0C30.811,30.027,33.195,30.027,33.195,30.207z"/>
<path fill="#FFFFFF" d="M36.16,27.891c-0.512,1.344-2.605,1.146-2.986,0.205C33.461,26.582,35.877,26.451,36.16,27.891z"/>
<path fill="#613F34" d="M33.695,27.742c0,1.191,1.727,1.191,1.727,0C35.422,26.635,33.695,26.635,33.695,27.742z"/>
<path fill="#7D5037" d="M33.867,28.123c0,0.686,1.383,0.686,1.383,0C35.25,27.49,33.867,27.49,33.867,28.123z"/>
<path fill="#1A1626" d="M34.199,27.762c0,0.494,0.717,0.494,0.717,0C34.916,27.301,34.199,27.301,34.199,27.762z"/>
<path fill="#AB968C" d="M33.957,27.617c0,0.25,0.361,0.25,0.361,0C34.318,27.385,33.957,27.385,33.957,27.617z"/>
<path fill="#45332C" d="M36.16,27.879c0-1.447-2.986-1.447-2.986,0.229C33.598,26.732,35.734,26.732,36.16,27.879z"/>
<path fill="#FFFFFF" d="M27.842,27.891c0.518,1.344,2.609,1.146,2.992,0.205C30.543,26.582,28.127,26.451,27.842,27.891z"/>
<path fill="#613F34" d="M28.586,27.746c0,1.191,1.723,1.191,1.723,0C30.309,26.637,28.586,26.637,28.586,27.746z"/>
<path fill="#7D5037" d="M28.758,28.125c0,0.686,1.381,0.686,1.381,0C30.139,27.492,28.758,27.492,28.758,28.125z"/>
<path fill="#1A1626" d="M29.086,27.764c0,0.496,0.719,0.496,0.719,0C29.805,27.303,29.086,27.303,29.086,27.764z"/>
<path fill="#AB968C" d="M28.844,27.619c0,0.25,0.363,0.25,0.363,0C29.207,27.387,28.844,27.387,28.844,27.619z"/>
<path fill="#45332C" d="M27.842,27.879c0-1.447,2.992-1.447,2.992,0.227C30.408,26.732,28.27,26.732,27.842,27.879z"/>
<path fill="#875B49" d="M37.475,28.051c-0.809-4.164-4.662-3.627-1.949-6.406C37.221,21.113,39.197,25.592,37.475,28.051z"/>
<path fill="#875B49" d="M35.525,21.645c-1.646,4.141-7.541,3.592-9.018,6.139c-0.592-2.125-0.297-6.174,3.426-7.469
	C33.295,19.146,35.953,21.014,35.525,21.645z"/>
<path fill="#6B4435" d="M35.525,21.645c-0.953,2.377-4.133,1.865-8.24,3.652C31.104,22.6,32.682,23.771,35.525,21.645z"/>
<path fill="#6B4435" d="M35.525,21.645c-1.479,4.758-6.764,3.725-9.018,6.139C27.506,24.961,33.057,25.58,35.525,21.645z"/>
<path fill="#6B4435" d="M37.453,25.424c-1.332-3.678-3.221-2.197-2.852-3.164C35.695,21.693,37.146,22.869,37.453,25.424z"/>
<path fill="#45332C" d="M34.061,31.945c-0.225-0.361-0.771-0.602-2.059-0.602s-1.834,0.24-2.061,0.602
	c-0.121,0.191,0.053,0.502,0.053,0.502c0.215,0.391,0.184,0.502,2.008,0.502c1.82,0,1.793-0.111,2.008-0.502
	C34.01,32.447,34.184,32.137,34.061,31.945z"/>
<path fill="#FFFFFF" d="M33.607,31.943c0.01-0.055-0.02-0.123-0.063-0.15c0,0-0.391-0.25-1.543-0.25c-1.15,0-1.543,0.25-1.543,0.25
	c-0.045,0.027-0.072,0.096-0.061,0.15l0.02,0.104c0.01,0.055,0.059,0.098,0.111,0.098h2.945c0.051,0,0.102-0.043,0.111-0.098
	L33.607,31.943z"/>
<path fill="#FFFFFF" d="M32.002,32.75c0.631,0,1.529,0,1.504-0.209c-0.002-0.037-0.014-0.08-0.029-0.127
	c-0.012-0.053-0.025-0.066-0.135-0.066c-0.236,0-2.498,0-2.682,0c-0.107,0-0.121,0.014-0.135,0.066
	c-0.012,0.047-0.023,0.09-0.029,0.127C30.473,32.75,31.371,32.75,32.002,32.75z"/>
<path fill="#946346" d="M24.039,53.092c0,0,6.303,4.613,5.252-3.76c-0.121-0.975-3.674-3.773-4.311-3.773L24.039,53.092z"/>
<path fill="#B88A6F" d="M27.16,58.152c0,0-0.539,1.453-3.539,0.369c-1.42-5.953-3.344-5.127-4.184-9.393
	c0,0,2.734-3.072,6.035,0.629C27.486,53.42,25.08,55.34,27.16,58.152z"/>
<path fill="#302C3B" d="M27.492,61.41c0.625-1.836-0.332-3.258-0.332-3.258c-1.605,0.914-3.539,0.369-3.539,0.369
	c-4.967,0.969-5.133,1.74-5.016,2.889H27.492z"/>
<path fill="#8E3ED6" d="M27.422,62c0.322-0.223,0.07-0.59,0.07-0.59h-8.887c0,0-0.297,0.26,0.027,0.59H27.422z"/>
<path fill="#E6EBEF" d="M25.473,49.758c0,0-3.217-2.584-6.035-0.629c0,0-0.41-5.572,5.543-3.57
	C25.873,45.859,26.131,49.482,25.473,49.758z"/>
<path fill="#8E3ED6" d="M23.615,58.391c-0.484-0.33-3.131,0.615-2.863,0.848c0.988,0.852,1.662,1.004,1.729,0.391
	c0.662,0.42,1.027,0.063,1.023-0.301C24.215,59.598,24.459,59.016,23.615,58.391z"/>
<path fill="#946346" d="M39.961,53.092c0,0-6.303,4.613-5.252-3.76c0.121-0.975,3.674-3.773,4.311-3.773L39.961,53.092z"/>
<path fill="#B88A6F" d="M36.84,58.152c0,0,0.541,1.453,3.539,0.369c1.42-5.953,3.344-5.127,4.184-9.393c0,0-2.734-3.072-6.035,0.629
	C36.514,53.42,38.92,55.34,36.84,58.152z"/>
<path fill="#302C3B" d="M36.51,61.41c-0.625-1.836,0.33-3.258,0.33-3.258c1.607,0.914,3.539,0.369,3.539,0.369
	c4.967,0.969,5.133,1.74,5.016,2.889H36.51z"/>
<path fill="#8E3ED6" d="M36.578,62c-0.32-0.223-0.068-0.59-0.068-0.59h8.885c0,0,0.297,0.26-0.025,0.59H36.578z"/>
<path fill="#E6EBEF" d="M38.527,49.758c0,0,3.217-2.584,6.035-0.629c0,0,0.41-5.572-5.543-3.57
	C38.127,45.859,37.869,49.482,38.527,49.758z"/>
<path fill="#8E3ED6" d="M40.385,58.391c0.486-0.33,3.131,0.615,2.865,0.848c-0.988,0.852-1.662,1.004-1.729,0.391
	c-0.664,0.42-1.029,0.063-1.025-0.301C39.787,59.598,39.543,59.016,40.385,58.391z"/>
<path fill="#B88A6F" d="M17.24,17.776c-0.029,2.475,3.398,3.42,3.5,0H17.24z"/>
<path fill="#B88A6F" d="M17.906,16.531c0,0,0.352,0.408,0.873,0.07c0.211,0.533,0.816,0.412,1.051,0.123
	c0.047,0.229,0.539,0.291,0.539,0.291s-1.598,0.335-1.73,0.994c-0.295,1.443,1.176,1.504,1.633,1.274
	c1.252-0.628,1.041-1.669,1.678-2.962c0.119-0.242,0.084-0.889-1.002-0.415c0,0,0.025-0.852-0.998-0.558
	c0.063-0.597-0.91-0.592-1.1-0.137c-0.592-0.428-1.098-0.09-1.131,0.191C16.514,15.32,16.916,17.35,17.906,16.531z"/>
<path fill="#B88A6F" d="M46.76,17.776c0.029,2.475-3.396,3.42-3.5,0H46.76z"/>
<path fill="#B88A6F" d="M46.094,16.531c0,0-0.352,0.408-0.871,0.07c-0.213,0.533-0.818,0.412-1.051,0.123
	c-0.049,0.229-0.541,0.291-0.541,0.291s1.598,0.335,1.732,0.994c0.295,1.443-1.176,1.504-1.633,1.274
	c-1.254-0.628-1.043-1.669-1.678-2.962c-0.119-0.242-0.084-0.889,1.002-0.415c0,0-0.027-0.852,0.996-0.558
	c-0.061-0.597,0.91-0.592,1.1-0.137c0.592-0.428,1.1-0.09,1.133,0.191C47.488,15.32,47.086,17.35,46.094,16.531z"/>
</svg>
