<?xml version="1.0" encoding="utf-8"?>
<!-- Generator: Adobe Illustrator 15.0.0, SVG Export Plug-In . SVG Version: 6.00 Build 0)  -->
<!DOCTYPE svg PUBLIC "-//W3C//DTD SVG 1.1//EN" "http://www.w3.org/Graphics/SVG/1.1/DTD/svg11.dtd" [
	<!ENTITY ns_flows "http://ns.adobe.com/Flows/1.0/">
	<!ENTITY ns_extend "http://ns.adobe.com/Extensibility/1.0/">
	<!ENTITY ns_ai "http://ns.adobe.com/AdobeIllustrator/10.0/">
	<!ENTITY ns_graphs "http://ns.adobe.com/Graphs/1.0/">
]>
<svg version="1.1" id="Layer_1" xmlns:x="&ns_extend;" xmlns:i="&ns_ai;" xmlns:graph="&ns_graphs;"
	 xmlns="http://www.w3.org/2000/svg" xmlns:xlink="http://www.w3.org/1999/xlink" xmlns:a="http://ns.adobe.com/AdobeSVGViewerExtensions/3.0/"
	 x="0px" y="0px" width="64px" height="64px" viewBox="0 0 64 64" enable-background="new 0 0 64 64" xml:space="preserve">
<linearGradient id="SVGID_1_" gradientUnits="userSpaceOnUse" x1="69.5215" y1="-136.311" x2="105.1248" y2="-132.5964" gradientTransform="matrix(1 0 0 -1 -56 -80)">
	<stop  offset="0" style="stop-color:#B9F44C"/>
	<stop  offset="0.1759" style="stop-color:#95E76C"/>
	<stop  offset="0.3211" style="stop-color:#7EDE81"/>
	<stop  offset="0.4131" style="stop-color:#76DB88"/>
	<stop  offset="0.637" style="stop-color:#4AC5A3"/>
	<stop  offset="0.8767" style="stop-color:#20B0BC"/>
	<stop  offset="1" style="stop-color:#10A8C6"/>
	<a:midPointStop  offset="0" style="stop-color:#B9F44C"/>
	<a:midPointStop  offset="0.5" style="stop-color:#B9F44C"/>
	<a:midPointStop  offset="0.1759" style="stop-color:#95E76C"/>
	<a:midPointStop  offset="0.5" style="stop-color:#95E76C"/>
	<a:midPointStop  offset="0.3211" style="stop-color:#7EDE81"/>
	<a:midPointStop  offset="0.5" style="stop-color:#7EDE81"/>
	<a:midPointStop  offset="0.4131" style="stop-color:#76DB88"/>
	<a:midPointStop  offset="0.5" style="stop-color:#76DB88"/>
	<a:midPointStop  offset="0.637" style="stop-color:#4AC5A3"/>
	<a:midPointStop  offset="0.5" style="stop-color:#4AC5A3"/>
	<a:midPointStop  offset="0.8767" style="stop-color:#20B0BC"/>
	<a:midPointStop  offset="0.5" style="stop-color:#20B0BC"/>
	<a:midPointStop  offset="1" style="stop-color:#10A8C6"/>
</linearGradient>
<path fill="url(#SVGID_1_)" d="M59.484,51.285c-0.125-0.592,1.908-1.492,0.736-2.369c-12.521-4.447-43.479-0.775-57.969,7.497
	c-0.41,0.236-0.254,0.953,0.004,1.053c6.646,2.596,15.418,3.621,24.254,3.529c14.73-0.15,29.641-3.404,35.176-7.667
	C62.945,52.361,60.055,52.115,59.484,51.285z"/>
<radialGradient id="SVGID_2_" cx="61.0381" cy="-1576.2769" r="30.2132" gradientTransform="matrix(0.9996 -0.0698 -0.0147 -0.2105 -52.2908 -274.1669)" gradientUnits="userSpaceOnUse">
	<stop  offset="0.6319" style="stop-color:#FFFFFF;stop-opacity:0.3"/>
	<stop  offset="0.7129" style="stop-color:#E5E5E6;stop-opacity:0.328"/>
	<stop  offset="0.8593" style="stop-color:#A3A1A7;stop-opacity:0.3882"/>
	<stop  offset="1" style="stop-color:#393644;stop-opacity:0.4752"/>
	<a:midPointStop  offset="0.6319" style="stop-color:#FFFFFF;stop-opacity:0.3"/>
	<a:midPointStop  offset="0.5" style="stop-color:#FFFFFF;stop-opacity:0.3"/>
	<a:midPointStop  offset="0.7129" style="stop-color:#E5E5E6;stop-opacity:0.328"/>
	<a:midPointStop  offset="0.5" style="stop-color:#E5E5E6;stop-opacity:0.328"/>
	<a:midPointStop  offset="0.8593" style="stop-color:#A3A1A7;stop-opacity:0.3882"/>
	<a:midPointStop  offset="0.5" style="stop-color:#A3A1A7;stop-opacity:0.3882"/>
	<a:midPointStop  offset="1" style="stop-color:#393644;stop-opacity:0.4752"/>
</radialGradient>
<path opacity="0.25" fill="url(#SVGID_2_)" enable-background="new    " d="M59.484,51.285c-0.125-0.592,1.908-1.492,0.736-2.369
	c-12.521-4.447-43.479-0.775-57.969,7.497c-0.41,0.236-0.254,0.953,0.004,1.053c6.646,2.596,15.418,3.621,24.254,3.529
	c14.73-0.15,29.641-3.404,35.176-7.667C62.945,52.361,60.055,52.115,59.484,51.285z"/>
<path id="Shape_6_" fill="#A6DD3A" d="M13.334,55.467c-0.375-0.777,0.449-1.576,1.859-1.787c1.398-0.205,2.848,0.254,3.223,1.031
	c0.377,0.779-0.463,1.579-1.859,1.788C15.145,56.708,13.711,56.245,13.334,55.467z M12.49,55.592
	c0.498,1.038,2.416,1.655,4.291,1.376c1.863-0.275,2.982-1.344,2.482-2.382c-0.502-1.035-2.434-1.65-4.295-1.373
	C13.09,53.49,11.986,54.557,12.49,55.592z"/>
<path id="Combined-Shape_6_" fill="#A6DD3A" d="M16.033,54.664c0.029,0.061-0.012,0.102-0.127,0.119l-0.336,0.051
	c-0.113,0.016-0.186-0.008-0.217-0.068l-0.297-0.609c-0.027-0.063,0.014-0.104,0.127-0.121l0.168-0.023
	c1.074-0.16,2.186,0.193,2.473,0.789c0.143,0.291,0.059,0.596-0.215,0.851c-0.047,0.055-0.129,0.066-0.236,0.035l-0.447-0.147
	c-0.107-0.033-0.129-0.076-0.064-0.133c0.141-0.143,0.193-0.314,0.113-0.48c-0.131-0.27-0.564-0.453-1.041-0.467L16.033,54.664z"/>
<path fill="#E3C19B" d="M55.184,22.802c-0.225-0.719-2.496-0.525-5.012,0c-2.371,0.492-4.209-0.693-6.326-0.656l-5.383-2.01
	c-0.344,1.203-0.371,2.287-0.734,3.484c2.035,0.652,3.902,0.992,5.096,1.23c2.707,0.631,7.541-0.205,7.541-0.205
	c4.07,0.729,4.391,0.625,2.73-0.217c-0.033-0.344,1.191-0.352,2.568-0.438C58.395,23.82,55.184,22.802,55.184,22.802z"/>
<path fill="#E3C19B" d="M6.291,29.857c-0.107-0.744,2.021-1.551,4.516-2.164c2.354-0.582,3.492-2.443,5.418-3.324l3.879-3.914
	c0.832,0.936,0.65,2.352,1.5,3.271c-1.549,1.469-2.311,1.91-3.281,2.641c-2.166,1.736-6.885,3.07-6.885,3.07
	c-3.352,2.414-3.686,2.459-2.555,0.984c-0.121-0.322-1.227,0.197-2.506,0.715C3.842,32.16,6.291,29.857,6.291,29.857z"/>
<path fill-rule="evenodd" clip-rule="evenodd" fill="#8E3ED6" d="M40.508,34.758c-0.422-0.299-4.537-2.532-7.771-3.075
	c-0.352-0.955,0.275-4.232,1.219-4.721c1.664-0.861,1.625-2.787,1.857-3.893c0,0,1.201,0.248,1.916,0.551
	c0,0,1.195-1.602,0.762-3.484c-0.998-0.703-2.541-2.07-4.895-2.561c-0.98-0.203-4.295-0.76-5.371-0.748
	c-2.977,0.027-5.672,0.486-8.121,3.627c0.32,2.129,1.5,3.271,1.5,3.271s1.783-1.246,2.754-1.549
	c1.59,7.975-6.188,10.467,0.805,18.147c4.959-1.355,5.824-0.83,4.959-3.25c2.049,0.512,2.08,1.213,7.27,2.148
	C38.816,39.48,41.473,35.438,40.508,34.758z"/>
<path fill-rule="evenodd" clip-rule="evenodd" fill="#C28FEF" d="M24.357,22.177c1.313,7.713-5.668,9.92,1.506,17.493
	c0.23-0.064,0.316-0.625,0.529-0.682C20.002,31.636,26.684,28.796,24.357,22.177z"/>
<path fill-rule="evenodd" clip-rule="evenodd" fill="#E3C19B" d="M43.061,38.439c0.121-1.551-0.012-2.576-2.553-3.682
	c-2.229-0.256-3.664,3.215-3.117,4.465c0.486,0.227,1.74,0.404,1.74,0.404c-0.352,2.914,2.084,4.895,2.541,8.305
	c0.24,1.793-0.715,2.92,1.666,3.34c1.633,0.287,2.658,2.324,5.283,0.475c1.273-0.896-3.875-1.242-4.846-3.596
	C43.391,47.213,42.951,39.834,43.061,38.439z"/>
<path fill-rule="evenodd" clip-rule="evenodd" fill="#E3C19B" d="M29.998,42.645c0.977-1.25,1.176-2.994,0.393-4.629
	c-2.223-0.707-4.932,0.336-5.229,2.309c0.324,0.482,0.766,0.697,0.766,0.697c-1.939,2.273-0.793,5.41-2.264,8.588
	c-0.773,1.672-2.283,2.063-0.316,3.838c1.346,1.217,1.16,3.565,4.607,3.554c1.672-0.006-2.885-3.366-2.475-5.95
	C25.645,50.021,29.125,43.768,29.998,42.645z"/>
<path fill="#C28FEF" d="M38.576,20.744c-0.996-0.701-2.092-2.857-5.455-3.623c-0.975-0.221-3.813-0.563-4.889-0.553
	c-2.979,0.029-5.621,1.053-8.07,4.195c0,0,0,0.359,0.188,0.748c1.502-1.865,3.053-3.014,4.715-3.625
	c0.986,0.398,4.297,1.994,5.809,6.016c1.963-3.727,4.094-4.514,4.955-4.688c1.146,0.869,2.078,1.947,2.707,2.391
	C38.535,21.605,38.678,21.189,38.576,20.744z"/>
<path fill="#EFDE8B" d="M47.043,19.144c-0.709-0.027-1.607-1.1-2.412-2.518c0.691,0.127,1.436,0.082,2.25-0.242
	C40.195,13.9,42.682-0.318,33.82,4.006l1.289,4.04C40.273,5.02,39.107,19.041,47.043,19.144z"/>
<path fill="#BA9D52" d="M47.043,19.144c-0.709-0.027-3.059-1.334-3.861-2.754c1.949,0.719,3.004,0.678,3.699-0.006
	c-7.596-0.961-5.322-14.956-12.119-10.188l0.348,1.851C39.738,6.381,36.557,19.417,47.043,19.144z"/>
<path fill="#8E3ED6" d="M33.268,3.688c-1.445,0.611,2.227,6.997,3.656,4.86C38.436,6.295,35.34,2.813,33.268,3.688z"/>
<path fill="#D6A67A" d="M33.207,17.103c0,2.691-5.125,2.691-5.125,0c0-0.803,0-3.088,0-3.088h5.125
	C33.207,14.015,33.207,16.38,33.207,17.103z"/>
<path fill="#D6A67A" d="M35.242,13.406c1.482,1.471,2.959-3.867,1.066-3.523C35.424,10.044,34.555,12.722,35.242,13.406z"/>
<path fill="#D6A67A" d="M26.055,13.406c0.688-0.684-0.182-3.361-1.066-3.523C23.096,9.539,24.572,14.876,26.055,13.406z"/>
<path fill="#E3C19B" d="M30.646,3.688c-3.945,0-5.846,3.2-5.607,7.317c0.047,0.826,0.279,2.02,0.566,3.043
	c0.59,2.125,3.713,4.264,5.041,4.264c1.332,0,4.451-2.139,5.045-4.264c0.285-1.023,0.516-2.217,0.564-3.043
	C36.494,6.888,34.596,3.688,30.646,3.688z"/>
<path fill="#594640" d="M34.996,9.507c-0.891-0.525-2.484-0.592-3.117-0.23c-0.131,0.072-0.094,0.455,0.02,0.406
	c0.9-0.373,2.271-0.393,3.117,0.039C35.129,9.781,35.131,9.585,34.996,9.507z"/>
<path fill="#594640" d="M26.303,9.507c0.885-0.525,2.48-0.592,3.113-0.23c0.133,0.072,0.098,0.455-0.02,0.406
	c-0.9-0.373-2.27-0.393-3.113,0.039C26.168,9.781,26.164,9.585,26.303,9.507z"/>
<path fill="#D6A67A" d="M31.869,13.484c0,0.793-2.443,0.793-2.443,0C29.426,13.3,31.869,13.3,31.869,13.484z"/>
<path fill="#FFFFFF" d="M34.91,11.119c-0.525,1.371-2.672,1.17-3.063,0.209C32.143,9.781,34.617,9.65,34.91,11.119z"/>
<path fill="#613F34" d="M32.383,10.966c0,1.219,1.77,1.219,1.77,0C34.152,9.835,32.383,9.835,32.383,10.966z"/>
<path fill="#7D5037" d="M32.559,11.355c0,0.699,1.418,0.699,1.418,0C33.977,10.708,32.559,10.708,32.559,11.355z"/>
<path fill="#1A1626" d="M32.9,10.988c0,0.504,0.732,0.504,0.732,0C33.633,10.517,32.9,10.517,32.9,10.988z"/>
<path fill="#AB968C" d="M32.65,10.837c0,0.256,0.371,0.256,0.371,0C33.021,10.601,32.65,10.601,32.65,10.837z"/>
<path fill="#45332C" d="M34.91,11.107c0-1.479-3.063-1.479-3.063,0.232C32.283,9.935,34.473,9.935,34.91,11.107z"/>
<path fill="#FFFFFF" d="M26.385,11.119c0.529,1.371,2.674,1.17,3.066,0.209C29.152,9.781,26.676,9.65,26.385,11.119z"/>
<path fill="#613F34" d="M27.146,10.97c0,1.217,1.766,1.217,1.766,0C28.912,9.839,27.146,9.839,27.146,10.97z"/>
<path fill="#7D5037" d="M27.322,11.359c0,0.697,1.414,0.697,1.414,0C28.736,10.71,27.322,10.71,27.322,11.359z"/>
<path fill="#1A1626" d="M27.658,10.99c0,0.504,0.736,0.504,0.736,0C28.395,10.519,27.658,10.519,27.658,10.99z"/>
<path fill="#AB968C" d="M27.41,10.841c0,0.254,0.373,0.254,0.373,0C27.783,10.603,27.41,10.603,27.41,10.841z"/>
<path fill="#45332C" d="M26.385,11.107c0-1.479,3.066-1.479,3.066,0.23C29.014,9.935,26.822,9.935,26.385,11.107z"/>
<path fill="#EFDE8B" d="M36.256,11.281c-0.828-4.25-4.777-3.701-1.998-6.538C35.996,4.198,38.021,8.771,36.256,11.281z"/>
<path fill="#EFDE8B" d="M34.258,4.741c-1.688,4.229-7.729,3.667-9.24,6.269c-0.607-2.17-0.305-6.304,3.51-7.626
	C31.973,2.192,34.695,4.096,34.258,4.741z"/>
<path fill="#BA9D52" d="M34.258,4.743c-0.977,2.427-4.234,1.905-8.445,3.728C29.727,5.715,31.344,6.914,34.258,4.743z"/>
<path fill="#BA9D52" d="M34.258,4.741c-1.516,4.858-6.932,3.804-9.24,6.269C26.039,8.126,31.729,8.759,34.258,4.741z"/>
<path fill="#BA9D52" d="M36.232,8.599c-1.363-3.753-3.299-2.243-2.922-3.229C34.434,4.792,35.92,5.991,36.232,8.599z"/>
<path fill="#C97E55" d="M30.648,14.861c-0.928-0.408-0.938-0.018-2.367,0.078c0.537,0.607,0.934,1.389,2.365,1.389
	c1.646,0,1.924-0.887,2.367-1.389C31.584,14.843,31.576,14.453,30.648,14.861z"/>
<path fill="#FFFFFF" d="M28.711,15.089c0.936,0.969,2.949,0.957,3.875,0C31.145,15.244,30.152,15.244,28.711,15.089z"/>
<path fill="#792CBF" d="M25.705,23.902c-0.398,1.818,2.109,3.49,3.486,2.432C27.895,26.447,26.256,24.958,25.705,23.902z"/>
</svg>
