<?xml version="1.0" encoding="utf-8"?>
<!-- Generator: Adobe Illustrator 19.0.0, SVG Export Plug-In . SVG Version: 6.00 Build 0)  -->
<svg version="1.1" id="Layer_1" xmlns="http://www.w3.org/2000/svg" xmlns:xlink="http://www.w3.org/1999/xlink" x="0px" y="0px"
	 width="64px" height="64px" viewBox="0 0 64 64" enable-background="new 0 0 64 64" xml:space="preserve">
<linearGradient id="SVGID_1_" gradientUnits="userSpaceOnUse" x1="13.5573" y1="56.3071" x2="49.0912" y2="52.5997">
	<stop  offset="0" style="stop-color:#B9F44C"/>
	<stop  offset="0.1759" style="stop-color:#95E76C"/>
	<stop  offset="0.3211" style="stop-color:#7EDE81"/>
	<stop  offset="0.4131" style="stop-color:#76DB88"/>
	<stop  offset="0.637" style="stop-color:#4AC5A3"/>
	<stop  offset="0.8767" style="stop-color:#20B0BC"/>
	<stop  offset="1" style="stop-color:#10A8C6"/>
</linearGradient>
<path fill="url(#SVGID_1_)" d="M59.429,51.284c-0.124-0.59,1.906-1.492,0.735-2.368c-12.496-4.448-43.393-0.775-57.854,7.497
	c-0.41,0.236-0.253,0.953,0.004,1.053c6.633,2.595,15.388,3.62,24.206,3.528c14.7-0.15,29.581-3.404,35.107-7.666
	C62.883,52.361,59.998,52.114,59.429,51.284z"/>
<radialGradient id="SVGID_2_" cx="31.875" cy="53.3796" r="30.2229" gradientTransform="matrix(0.9976 -0.0698 0.0147 0.2105 -0.708 44.3675)" gradientUnits="userSpaceOnUse">
	<stop  offset="0.6319" style="stop-color:#FFFFFF;stop-opacity:0.3"/>
	<stop  offset="0.7129" style="stop-color:#E5E5E6;stop-opacity:0.328"/>
	<stop  offset="0.8593" style="stop-color:#A3A1A7;stop-opacity:0.3882"/>
	<stop  offset="1" style="stop-color:#393644;stop-opacity:0.4752"/>
</radialGradient>
<path opacity="0.25" fill="url(#SVGID_2_)" enable-background="new    " d="M59.429,51.284c-0.124-0.59,1.906-1.492,0.735-2.368
	c-12.496-4.448-43.393-0.775-57.854,7.497c-0.41,0.236-0.253,0.953,0.004,1.053c6.633,2.595,15.388,3.62,24.206,3.528
	c14.7-0.15,29.581-3.404,35.107-7.666C62.883,52.361,59.998,52.114,59.429,51.284z"/>
<path id="Shape_3_" fill="#A6DD3A" d="M13.37,55.468c-0.375-0.778,0.449-1.577,1.857-1.788c1.394-0.206,2.841,0.254,3.215,1.032
	c0.377,0.778-0.462,1.578-1.855,1.786C15.178,56.707,13.747,56.245,13.37,55.468z M12.527,55.593
	c0.498,1.037,2.412,1.653,4.284,1.375c1.86-0.277,2.976-1.345,2.477-2.382c-0.502-1.036-2.428-1.65-4.287-1.374
	C13.127,53.489,12.026,54.557,12.527,55.593z"/>
<path id="Combined-Shape_3_" fill="#A6DD3A" d="M16.065,54.664c0.028,0.06-0.013,0.102-0.127,0.119l-0.336,0.051
	c-0.113,0.016-0.186-0.008-0.217-0.068l-0.295-0.609c-0.028-0.063,0.013-0.104,0.127-0.121l0.166-0.025
	c1.072-0.16,2.182,0.195,2.468,0.791c0.142,0.291,0.059,0.594-0.214,0.849c-0.047,0.054-0.128,0.067-0.236,0.035l-0.446-0.147
	c-0.107-0.032-0.129-0.075-0.065-0.132c0.141-0.144,0.194-0.314,0.113-0.48c-0.131-0.271-0.564-0.454-1.039-0.468L16.065,54.664z"/>
<path fill="#FFCC66" d="M55.166,22.788c-0.229-0.718-2.546-0.525-5.113,0c-2.419,0.491-4.295-0.694-6.454-0.655l-5.489-2.009
	c-0.352,1.203-0.421,2.842-0.792,4.037c2.076,0.652,4.058,0.717,5.275,0.955c2.76,0.629,7.656-0.486,7.656-0.486
	c4.152,0.728,4.479,0.624,2.787-0.217c-0.033-0.342,1.213-0.351,2.62-0.437C58.44,23.804,55.166,22.788,55.166,22.788z"/>
<path fill="#FFCC66" d="M5.289,29.838c-0.11-0.743,2.063-1.55,4.607-2.163c2.4-0.58,3.563-2.44,5.526-3.322l3.956-3.911
	c0.851,0.937,0.665,2.862,1.532,3.782c-1.581,1.466-2.612,1.586-3.604,2.314c-2.21,1.737-6.768,2.88-6.768,2.88
	c-3.419,2.413-3.759,2.457-2.607,0.983c-0.122-0.323-1.251,0.198-2.558,0.716C2.79,32.139,5.289,29.838,5.289,29.838z"/>
<path fill-rule="evenodd" clip-rule="evenodd" fill="#7AB51D" d="M40.405,34.271c-0.431-0.297-4.628-2.529-7.928-3.069
	c-0.358-0.957,2.417-4.015,2.884-7.59c0,0,1.226,0.247,1.956,0.55c0,0,1.26-2.156,0.819-4.037c-1.018-0.702-2.593-2.069-4.995-2.56
	c-0.999-0.202-4.38-0.758-5.478-0.747c-3.036,0.026-5.786,0.485-8.285,3.624c0.326,2.128,1.532,3.782,1.532,3.782
	s1.817-1.246,2.81-1.548c1.621,7.969-6.314,9.948,0.82,17.621c5.058-1.355,5.941-0.829,5.058-3.247
	c2.092,0.51,2.124,1.211,7.416,2.146C38.47,39.454,41.388,34.949,40.405,34.271z"/>
<path fill-rule="evenodd" clip-rule="evenodd" fill="#89CC14" d="M23.721,22.676c1.337,7.707-5.784,9.401,1.534,16.968
	c0.236-0.064,0.323-0.625,0.541-0.681C19.275,31.615,26.093,29.29,23.721,22.676z"/>
<path fill-rule="evenodd" clip-rule="evenodd" fill="#FFCC66" d="M42.8,38.413c0.123-1.55,0.195-3.036-2.395-4.143
	c-2.273-0.254-3.95,3.678-3.391,4.926c0.496,0.228,1.757,0.619,1.757,0.619c-0.358,2.911,1.855,4.891,2.322,8.297
	c0.244,1.792-0.73,2.919,1.698,3.337c1.665,0.288,3.001,2.111,5.679,0.263c1.299-0.898-3.953-1.241-4.942-3.594
	C43.134,47.182,42.687,39.808,42.8,38.413z"/>
<path fill-rule="evenodd" clip-rule="evenodd" fill="#FFCC66" d="M29.474,42.616c0.995-1.25,1.199-2.991,0.399-4.626
	c-2.265-0.706-5.03,0.337-5.331,2.307c0.328,0.482,0.586,0.94,0.586,0.94c-1.979,2.271-0.827,4.936-2.328,8.109
	c-0.79,1.67-2.329,2.062-0.324,3.836c1.374,1.217,1.396,3.791,4.915,3.779c1.704-0.007-2.942-3.363-2.525-5.947
	C25.034,49.986,28.582,43.737,29.474,42.616z"/>
<path fill="#89CC14" d="M38.225,20.731c-1.017-0.699-2.135-2.854-5.565-3.619c-0.995-0.222-3.891-0.563-4.987-0.554
	c-3.036,0.028-5.733,1.053-8.233,4.191c0,0,0.007,0.435,0.2,0.82c1.53-1.861,3.105-3.084,4.801-3.694
	c1.008,0.397,4.385,1.993,5.925,6.011c2.004-3.723,4.179-4.51,5.057-4.684c1.168,0.87,2.12,1.945,2.761,2.389
	C38.182,21.591,38.329,21.176,38.225,20.731z"/>
<path fill="#E6B045" d="M27.912,17.421c0,2.459,4.773,2.459,4.773,0v-2.55h-4.773V17.421z"/>
<path fill="#E6B045" d="M24.529,9.321c-1.93-0.347-0.424,5.046,1.087,3.559C26.316,12.191,25.431,9.485,24.529,9.321z"/>
<path fill="#E6B045" d="M36.069,9.321c-0.902,0.164-1.788,2.87-1.086,3.559C36.494,14.367,38,8.975,36.069,9.321z"/>
<path fill="#FFCC66" d="M30.299,3c-3.989,0-5.913,3.017-5.671,7.212c0.048,0.844,0.57,3.597,1.064,4.583
	c0.508,1.013,2.198,2.569,3.236,2.891c0.654,0.205,2.088,0.205,2.742,0c1.038-0.321,2.728-1.878,3.235-2.891
	c0.495-0.986,1.017-3.739,1.065-4.583C36.214,6.017,34.29,3,30.299,3z"/>
<path fill="#E6A400" d="M30.299,14.42c-0.897-0.264-2.227,0.125-2.227,0.125c0.507,0.552,0.877,1.267,2.227,1.267
	c1.546,0,1.81-0.811,2.228-1.267C32.526,14.545,31.195,14.154,30.299,14.42z"/>
<path fill="#FFFFFF" d="M28.411,14.64c0.941,0.788,2.842,0.792,3.789,0C31.195,14.681,29.422,14.683,28.411,14.64z"/>
<path fill="#E6B045" d="M31.537,12.938c0,0.805-2.475,0.805-2.475,0C29.063,12.752,31.537,12.752,31.537,12.938z"/>
<path fill="#594640" d="M30.299,3c-2.744,0-4.402,0.906-5.118,0.558c0,0-0.078,0.468,0.202,0.773c0,0-0.296,0.255-0.772-0.177
	c-0.457,1.478,0.895,2.331,5.688,2.331c4.795,0,3.649-1.166,6.008,0.882C36.074,4.843,34.469,3,30.299,3z"/>
<path fill="#453631" d="M32.329,5.201c-2.64,0.975-3.605-0.782-6.095-0.954c1.187,0.561,1.764,1.421,2.736,2.043
	c-2.117-0.709-3.672-1.927-3.79-2.729c0,0-0.353,1.169,1.044,2.042c-1.337,0.124-1.614-1.445-1.614-1.445
	c-0.677,1.088-0.582,4.592,0.168,7.188c0.125-0.927-0.16-1.31,0.269-2.427c1.285-3.342,0.459-1.938,5.254-1.938
	c4.793,0,3.93-1.279,5.251,1.938c0.395,0.958,0.144,1.5,0.27,2.427C37.397,5.485,35.131,4.169,32.329,5.201z"/>
<path fill="#FFFFFF" d="M34.571,10.536c-0.533,1.394-2.702,1.191-3.1,0.214C31.773,9.182,34.277,9.048,34.571,10.536z"/>
<path fill="#FFFFFF" d="M26.028,10.536c0.53,1.394,2.702,1.191,3.099,0.214C28.826,9.181,26.318,9.046,26.028,10.536z"/>
<path fill="#C1873C" d="M34.792,8.857c-0.913-0.451-2.657-0.475-3.308-0.157c-0.14,0.059-0.048,0.488,0.069,0.448
	c0.906-0.336,2.368-0.344,3.217,0.029C34.886,9.225,34.932,8.921,34.792,8.857z"/>
<path fill="#C1873C" d="M25.806,8.857c0.912-0.451,2.658-0.475,3.309-0.157c0.139,0.059,0.048,0.488-0.07,0.448
	c-0.907-0.336-2.367-0.344-3.22,0.029C25.714,9.225,25.667,8.921,25.806,8.857z"/>
<path fill="#613F34" d="M32.025,10.388c0,1.225,1.771,1.225,1.771,0C33.797,9.251,32.025,9.251,32.025,10.388z"/>
<path fill="#7D5037" d="M32.201,10.779c0,0.702,1.422,0.702,1.422,0C33.623,10.128,32.201,10.128,32.201,10.779z"/>
<path fill="#1A1626" d="M32.542,10.407c0,0.506,0.736,0.506,0.736,0C33.278,9.936,32.542,9.936,32.542,10.407z"/>
<path fill="#AB968C" d="M32.292,10.258c0,0.256,0.37,0.256,0.37,0C32.662,10.021,32.292,10.021,32.292,10.258z"/>
<path fill="#613F34" d="M26.801,10.388c0,1.225,1.772,1.225,1.772,0C28.573,9.251,26.801,9.251,26.801,10.388z"/>
<path fill="#7D5037" d="M26.976,10.778c0,0.703,1.422,0.703,1.422,0C28.398,10.128,26.976,10.128,26.976,10.778z"/>
<path fill="#1A1626" d="M27.319,10.407c0,0.506,0.736,0.506,0.736,0C28.056,9.936,27.319,9.936,27.319,10.407z"/>
<path fill="#AB968C" d="M27.069,10.258c0,0.256,0.37,0.256,0.37,0C27.44,10.021,27.069,10.021,27.069,10.258z"/>
<path fill="#E6B045" d="M34.571,10.525c0-1.497-3.1-1.497-3.1,0.237C31.916,9.34,34.129,9.34,34.571,10.525z"/>
<path fill="#E6B045" d="M26.028,10.525c0-1.497,3.099-1.497,3.099,0.237C28.684,9.339,26.47,9.339,26.028,10.525z"/>
</svg>
