<?xml version="1.0" encoding="utf-8"?>
<!-- Generator: Adobe Illustrator 15.0.0, SVG Export Plug-In . SVG Version: 6.00 Build 0)  -->
<!DOCTYPE svg PUBLIC "-//W3C//DTD SVG 1.1//EN" "http://www.w3.org/Graphics/SVG/1.1/DTD/svg11.dtd" [
	<!ENTITY ns_flows "http://ns.adobe.com/Flows/1.0/">
	<!ENTITY ns_extend "http://ns.adobe.com/Extensibility/1.0/">
	<!ENTITY ns_ai "http://ns.adobe.com/AdobeIllustrator/10.0/">
	<!ENTITY ns_graphs "http://ns.adobe.com/Graphs/1.0/">
]>
<svg version="1.1" id="Layer_1" xmlns:x="&ns_extend;" xmlns:i="&ns_ai;" xmlns:graph="&ns_graphs;"
	 xmlns="http://www.w3.org/2000/svg" xmlns:xlink="http://www.w3.org/1999/xlink" xmlns:a="http://ns.adobe.com/AdobeSVGViewerExtensions/3.0/"
	 x="0px" y="0px" width="64px" height="64px" viewBox="0 0 64 64" enable-background="new 0 0 64 64" xml:space="preserve">
<path fill="#423225" d="M10.453,16.313c-0.266,0.419-0.109,1.471,0.984,1.29c2.375-0.395,1.752-1.789,4.729-2.4
	C15.141,11.845,10.83,15.72,10.453,16.313z"/>
<path fill="#18B5F8" d="M62,39.101c0,0-40.412,6.607-60,4.016V62h60V39.101z"/>
<path fill="#614A36" d="M16.031,10.357c-0.82,0.27-5.012,1.544-8.137,2.167c-0.563,0.111-2.393,1.959-3.541,2.756
	c-1.627,1.131-0.373,2.477,0.881,1.75c1.125-0.652,2.457-1.71,3.285-1.979c2.793-0.9,5.355,1.882,8.688-0.435
	c6.682-0.472,17.715,2.587,18.201,3.766c3,7.276,1.271,10.343,2.684,15.921c-0.926,2.04-5.043,13.613-1.502,13.613
	c10.502,0,16.689-3.246,25.41-3.248v-9.238c0,0-6.908-4.869-14.641-5.706c-1.877-9.886-5.164-18.405-7.326-18.879
	C35.25,9.798,17.625,9.834,16.031,10.357z"/>
<path fill-rule="evenodd" clip-rule="evenodd" fill="#423225" d="M54,41.532c0,0,2.148-8.481-5.936-10.574
	C54.521,33.967,54,41.532,54,41.532z"/>
<path fill-rule="evenodd" clip-rule="evenodd" fill="#423225" d="M51.605,36.948c-1.125,0.27-2.014-2.381-0.889-2.646
	C51.844,34.032,52.732,36.683,51.605,36.948z"/>
<path fill="#423225" d="M36.867,48.271c4.473-4.379,4.471-5.259-0.002-9.635L36.867,48.271z"/>
<path fill="#423225" d="M23.109,32.954c0,0,5.971,3.613,6.465,1.986C31.059,30.048,22.117,33.072,23.109,32.954z"/>
<path fill="#423225" d="M23.109,53.951c0,0,5.971-3.612,6.465-1.985C31.059,56.858,22.117,53.835,23.109,53.951z"/>
<path fill="#614A36" d="M11.619,43.456c0,7.27,5.48,10.776,13.105,10.337c1.533-0.089,6.538-1.04,8.33-1.943
	c1.838-0.923,4.668-4.007,5.254-5.896c0.369-1.194,0.369-3.805,0-4.999c-0.586-1.89-3.416-4.973-5.254-5.896
	c-1.792-0.902-6.797-1.854-8.33-1.943C17.1,32.675,11.619,36.181,11.619,43.456z"/>
<path fill="#423225" d="M29.678,41.2c1.461,0,1.461,4.508,0,4.508C29.342,45.708,29.342,41.2,29.678,41.2z"/>
<path fill="#36281D" d="M22.262,35.266c-0.82,1.663-0.861,4.845-0.287,6.03c0.109,0.254,0.891,0.086,0.816-0.129
	c-0.611-1.652-0.625-4.316,0.053-5.863C22.93,35.095,22.377,35.01,22.262,35.266z"/>
<path fill="#36281D" d="M22.262,51.646c-0.82-1.663-0.861-4.847-0.287-6.033c0.109-0.254,0.891-0.086,0.816,0.128
	c-0.611,1.655-0.625,4.316,0.053,5.868C22.93,51.812,22.377,51.897,22.262,51.646z"/>
<path fill="#E81C27" d="M24.523,32.464c-17.533-2.281-17.533,24.259,0,21.979C21.326,51.427,21.326,35.478,24.523,32.464z"/>
<path fill="#302C3B" d="M25.771,34.415c3.967,0,3.967,8.133,0,8.133C21.803,42.548,21.803,34.415,25.771,34.415z"/>
<path fill="#44618B" d="M25.771,35.431c2.381,0,2.381,6.102,0,6.102C23.389,41.532,23.389,35.431,25.771,35.431z"/>
<path fill="#302C3B" d="M25.771,44.36c3.967,0,3.967,8.133,0,8.133C21.803,52.493,21.803,44.36,25.771,44.36z"/>
<path fill="#44618B" d="M25.771,45.376c2.381,0,2.381,6.1,0,6.1C23.389,51.476,23.389,45.376,25.771,45.376z"/>
<rect x="24.879" y="41.929" fill="#006DAE" width="1.787" height="3.05"/>
<polygon fill="#006DAE" points="26.666,33.3 26.666,35.05 24.879,35.05 24.879,33.053 "/>
<polygon fill="#006DAE" points="26.666,51.858 26.666,53.606 24.879,53.854 24.879,51.858 "/>
<path fill="#45332C" d="M35.076,41.851c1.418,0,1.418,3.206,0,3.206C32.325,45.057,32.325,41.851,35.076,41.851z"/>
<path fill="#48C2F9" d="M2,62h60V49.18c-31.226-5.728-28.988,3.958-60,1.003V62z"/>
<path fill="#7ED2FC" d="M62,54.833c-21.779-1.336-32.574,2.998-60,1.498V62h60V54.833z"/>
</svg>
