<?xml version="1.0" encoding="utf-8"?>
<!-- Generator: Adobe Illustrator 15.0.0, SVG Export Plug-In . SVG Version: 6.00 Build 0)  -->
<!DOCTYPE svg PUBLIC "-//W3C//DTD SVG 1.1//EN" "http://www.w3.org/Graphics/SVG/1.1/DTD/svg11.dtd" [
	<!ENTITY ns_flows "http://ns.adobe.com/Flows/1.0/">
	<!ENTITY ns_extend "http://ns.adobe.com/Extensibility/1.0/">
	<!ENTITY ns_ai "http://ns.adobe.com/AdobeIllustrator/10.0/">
	<!ENTITY ns_graphs "http://ns.adobe.com/Graphs/1.0/">
]>
<svg version="1.1" id="Layer_1" xmlns:x="&ns_extend;" xmlns:i="&ns_ai;" xmlns:graph="&ns_graphs;"
	 xmlns="http://www.w3.org/2000/svg" xmlns:xlink="http://www.w3.org/1999/xlink" xmlns:a="http://ns.adobe.com/AdobeSVGViewerExtensions/3.0/"
	 x="0px" y="0px" width="64px" height="64px" viewBox="0 0 64 64" enable-background="new 0 0 64 64" xml:space="preserve">
<linearGradient id="SVGID_1_" gradientUnits="userSpaceOnUse" x1="69.5215" y1="-136.3105" x2="105.1248" y2="-132.5959" gradientTransform="matrix(1 0 0 -1 -56 -80)">
	<stop  offset="0" style="stop-color:#B9F44C"/>
	<stop  offset="0.1759" style="stop-color:#95E76C"/>
	<stop  offset="0.3211" style="stop-color:#7EDE81"/>
	<stop  offset="0.4131" style="stop-color:#76DB88"/>
	<stop  offset="0.637" style="stop-color:#4AC5A3"/>
	<stop  offset="0.8767" style="stop-color:#20B0BC"/>
	<stop  offset="1" style="stop-color:#10A8C6"/>
	<a:midPointStop  offset="0" style="stop-color:#B9F44C"/>
	<a:midPointStop  offset="0.5" style="stop-color:#B9F44C"/>
	<a:midPointStop  offset="0.1759" style="stop-color:#95E76C"/>
	<a:midPointStop  offset="0.5" style="stop-color:#95E76C"/>
	<a:midPointStop  offset="0.3211" style="stop-color:#7EDE81"/>
	<a:midPointStop  offset="0.5" style="stop-color:#7EDE81"/>
	<a:midPointStop  offset="0.4131" style="stop-color:#76DB88"/>
	<a:midPointStop  offset="0.5" style="stop-color:#76DB88"/>
	<a:midPointStop  offset="0.637" style="stop-color:#4AC5A3"/>
	<a:midPointStop  offset="0.5" style="stop-color:#4AC5A3"/>
	<a:midPointStop  offset="0.8767" style="stop-color:#20B0BC"/>
	<a:midPointStop  offset="0.5" style="stop-color:#20B0BC"/>
	<a:midPointStop  offset="1" style="stop-color:#10A8C6"/>
</linearGradient>
<path fill="url(#SVGID_1_)" d="M59.484,51.284c-0.125-0.591,1.908-1.492,0.736-2.368c-12.521-4.448-43.479-0.775-57.967,7.496
	c-0.412,0.236-0.256,0.953,0.004,1.053c6.645,2.596,15.418,3.621,24.252,3.529c14.731-0.15,29.641-3.404,35.176-7.666
	C62.945,52.361,60.055,52.114,59.484,51.284z"/>
<radialGradient id="SVGID_2_" cx="61.0127" cy="-1576.4531" r="30.213" gradientTransform="matrix(0.9996 -0.0698 -0.0147 -0.2105 -52.2683 -274.2069)" gradientUnits="userSpaceOnUse">
	<stop  offset="0.6319" style="stop-color:#FFFFFF;stop-opacity:0.3"/>
	<stop  offset="0.7129" style="stop-color:#E5E5E6;stop-opacity:0.328"/>
	<stop  offset="0.8593" style="stop-color:#A3A1A7;stop-opacity:0.3882"/>
	<stop  offset="1" style="stop-color:#393644;stop-opacity:0.4752"/>
	<a:midPointStop  offset="0.6319" style="stop-color:#FFFFFF;stop-opacity:0.3"/>
	<a:midPointStop  offset="0.5" style="stop-color:#FFFFFF;stop-opacity:0.3"/>
	<a:midPointStop  offset="0.7129" style="stop-color:#E5E5E6;stop-opacity:0.328"/>
	<a:midPointStop  offset="0.5" style="stop-color:#E5E5E6;stop-opacity:0.328"/>
	<a:midPointStop  offset="0.8593" style="stop-color:#A3A1A7;stop-opacity:0.3882"/>
	<a:midPointStop  offset="0.5" style="stop-color:#A3A1A7;stop-opacity:0.3882"/>
	<a:midPointStop  offset="1" style="stop-color:#393644;stop-opacity:0.4752"/>
</radialGradient>
<path opacity="0.25" fill="url(#SVGID_2_)" enable-background="new    " d="M59.484,51.284c-0.125-0.591,1.908-1.492,0.736-2.368
	c-12.521-4.448-43.479-0.775-57.967,7.496c-0.412,0.236-0.256,0.953,0.004,1.053c6.645,2.596,15.418,3.621,24.252,3.529
	c14.731-0.15,29.641-3.404,35.176-7.666C62.945,52.361,60.055,52.114,59.484,51.284z"/>
<path id="Shape_7_" fill="#A6DD3A" d="M13.333,55.467c-0.375-0.777,0.449-1.576,1.861-1.787c1.396-0.205,2.846,0.254,3.221,1.031
	c0.377,0.779-0.463,1.578-1.859,1.787C15.144,56.707,13.712,56.244,13.333,55.467z M12.49,55.592
	c0.498,1.037,2.416,1.654,4.291,1.375c1.863-0.275,2.982-1.344,2.482-2.381c-0.502-1.036-2.434-1.65-4.295-1.374
	C13.089,53.489,11.986,54.557,12.49,55.592z"/>
<path id="Combined-Shape_7_" fill="#A6DD3A" d="M16.033,54.664c0.029,0.061-0.012,0.102-0.127,0.119l-0.336,0.051
	c-0.113,0.016-0.186-0.008-0.217-0.068l-0.297-0.609c-0.027-0.063,0.014-0.104,0.129-0.121l0.166-0.024
	c1.074-0.159,2.186,0.194,2.473,0.79c0.143,0.291,0.059,0.596-0.215,0.85c-0.047,0.055-0.129,0.066-0.236,0.035l-0.447-0.146
	c-0.107-0.033-0.129-0.076-0.064-0.133c0.141-0.143,0.193-0.314,0.113-0.48c-0.131-0.27-0.564-0.453-1.041-0.467L16.033,54.664z"/>
<path fill="#B88A6F" d="M55.213,22.788c-0.229-0.719-2.551-0.525-5.123,0c-2.424,0.49-4.305-0.694-6.467-0.655l-5.5-2.009
	c-0.354,1.203-0.422,2.842-0.793,4.037c2.08,0.652,4.064,0.717,5.285,0.955c2.766,0.629,7.67-0.486,7.67-0.486
	c4.16,0.729,4.488,0.624,2.793-0.217c-0.033-0.342,1.215-0.352,2.625-0.438C58.492,23.804,55.213,22.788,55.213,22.788z"/>
<path fill="#B88A6F" d="M5.238,29.838c-0.111-0.743,2.066-1.55,4.615-2.163c2.404-0.58,3.57-2.439,5.537-3.322l3.963-3.91
	c0.854,0.937,0.666,2.861,1.535,3.781c-1.584,1.467-2.617,1.586-3.609,2.314c-2.217,1.736-6.783,2.88-6.783,2.88
	c-3.426,2.413-3.766,2.457-2.611,0.983c-0.123-0.323-1.254,0.197-2.563,0.716C2.732,32.14,5.238,29.838,5.238,29.838z"/>
<path fill="#7AB51D" d="M40.422,34.271c-0.432-0.297-4.637-2.529-7.944-3.069c-0.357-0.957,2.422-4.016,2.891-7.59
	c0,0,1.229,0.246,1.959,0.55c0,0,1.264-2.156,0.822-4.037c-1.021-0.702-2.6-2.069-5.006-2.56c-1-0.203-4.389-0.758-5.489-0.748
	c-3.043,0.026-5.799,0.485-8.303,3.625c0.328,2.127,1.535,3.781,1.535,3.781s1.82-1.246,2.816-1.548
	c1.623,7.97-6.326,9.948,0.82,17.621c5.068-1.355,5.953-0.829,5.068-3.247c2.096,0.511,2.129,1.211,7.43,2.146
	C38.484,39.454,41.408,34.949,40.422,34.271z"/>
<path fill="#89CC14" d="M23.705,22.676c1.34,7.707-5.795,9.401,1.537,16.969c0.236-0.064,0.324-0.625,0.543-0.682
	C19.251,31.615,26.082,29.29,23.705,22.676z"/>
<path fill="#B88A6F" d="M42.822,38.413c0.123-1.55,0.195-3.036-2.4-4.144c-2.277-0.254-3.957,3.679-3.398,4.926
	c0.498,0.229,1.762,0.619,1.762,0.619c-0.359,2.912,1.859,4.892,2.326,8.297c0.244,1.793-0.73,2.92,1.701,3.338
	c1.668,0.287,3.008,2.111,5.691,0.263c1.301-0.897-3.961-1.241-4.953-3.594C43.156,47.182,42.709,39.809,42.822,38.413z"/>
<path fill="#B88A6F" d="M29.47,42.616c0.996-1.25,1.201-2.991,0.398-4.626c-2.27-0.706-5.039,0.337-5.342,2.307
	c0.33,0.482,0.588,0.939,0.588,0.939c-1.982,2.271-0.828,4.937-2.332,8.109c-0.793,1.67-2.334,2.063-0.324,3.836
	c1.375,1.217,1.398,3.791,4.924,3.779c1.707-0.008-2.947-3.363-2.529-5.947C25.021,49.986,28.576,43.736,29.47,42.616z"/>
<path fill="#89CC14" d="M38.238,20.731c-1.02-0.699-2.139-2.854-5.577-3.619c-0.996-0.223-3.898-0.563-4.996-0.555
	c-3.043,0.028-5.746,1.053-8.25,4.191c0,0,0.008,0.436,0.201,0.82c1.533-1.861,3.111-3.084,4.811-3.694
	c1.01,0.397,4.393,1.993,5.936,6.011c2.008-3.723,4.188-4.51,5.067-4.684c1.172,0.87,2.125,1.945,2.768,2.389
	C38.195,21.591,38.342,21.176,38.238,20.731z"/>
<path fill="#946346" d="M27.904,17.421c0,2.459,4.783,2.459,4.783,0v-2.55h-4.783V17.421z"/>
<path fill="#946346" d="M24.515,9.32c-1.934-0.346-0.426,5.047,1.088,3.56C26.306,12.19,25.419,9.485,24.515,9.32z"/>
<path fill="#946346" d="M36.078,9.32c-0.904,0.165-1.791,2.87-1.09,3.56C36.504,14.367,38.012,8.975,36.078,9.32z"/>
<path fill="#B88A6F" d="M30.296,3c-3.996,0-5.924,3.018-5.684,7.212c0.049,0.844,0.572,3.598,1.066,4.583
	c0.51,1.013,2.203,2.569,3.242,2.892c0.656,0.205,2.092,0.205,2.748,0c1.041-0.321,2.735-1.879,3.241-2.892
	c0.498-0.985,1.02-3.739,1.068-4.583C36.223,6.018,34.295,3,30.296,3z"/>
<path fill="#80553C" d="M30.296,14.42c-0.898-0.264-2.232,0.125-2.232,0.125c0.508,0.552,0.879,1.267,2.232,1.267
	c1.549,0,1.814-0.811,2.232-1.267C32.527,14.545,31.195,14.153,30.296,14.42z"/>
<path fill="#FFFFFF" d="M28.404,14.64c0.943,0.788,2.848,0.793,3.797,0C31.195,14.681,29.417,14.683,28.404,14.64z"/>
<path fill="#946346" d="M31.537,12.938c0,0.805-2.48,0.805-2.48,0C29.056,12.752,31.537,12.752,31.537,12.938z"/>
<path fill="#875B49" d="M30.296,3c-2.75,0-4.412,0.906-5.127,0.559c0,0-0.08,0.467,0.201,0.772c0,0-0.297,0.255-0.773-0.177
	c-0.457,1.478,0.896,2.33,5.699,2.33c4.805,0,3.657-1.166,6.02,0.883C36.084,4.843,34.475,3,30.296,3z"/>
<path fill="#6B4435" d="M32.33,5.201c-2.645,0.975-3.611-0.782-6.105-0.954c1.188,0.562,1.766,1.421,2.74,2.043
	c-2.121-0.709-3.68-1.927-3.797-2.729c0,0-0.354,1.17,1.047,2.043c-1.342,0.123-1.619-1.445-1.619-1.445
	c-0.678,1.088-0.584,4.592,0.168,7.188c0.125-0.928-0.16-1.311,0.27-2.428c1.289-3.342,0.461-1.938,5.266-1.938
	c4.803,0,3.938-1.278,5.262,1.938c0.395,0.958,0.143,1.5,0.27,2.428C37.408,5.484,35.139,4.169,32.33,5.201z"/>
<path fill="#FFFFFF" d="M34.576,10.536c-0.533,1.395-2.708,1.191-3.106,0.214C31.773,9.182,34.283,9.048,34.576,10.536z"/>
<path fill="#FFFFFF" d="M26.015,10.536c0.533,1.395,2.709,1.191,3.107,0.214C28.82,9.182,26.308,9.046,26.015,10.536z"/>
<path fill="#80553C" d="M34.799,8.857c-0.916-0.451-2.663-0.476-3.315-0.157c-0.141,0.059-0.049,0.487,0.068,0.448
	c0.908-0.336,2.374-0.344,3.223,0.028C34.893,9.225,34.938,8.921,34.799,8.857z"/>
<path fill="#80553C" d="M25.794,8.857c0.914-0.451,2.662-0.476,3.316-0.157c0.139,0.059,0.047,0.487-0.072,0.448
	c-0.906-0.336-2.371-0.344-3.225,0.028C25.703,9.225,25.656,8.921,25.794,8.857z"/>
<path fill="#613F34" d="M32.025,10.388c0,1.225,1.776,1.225,1.776,0C33.801,9.251,32.025,9.251,32.025,10.388z"/>
<path fill="#7D5037" d="M32.203,10.778c0,0.703,1.424,0.703,1.424,0C33.627,10.128,32.203,10.128,32.203,10.778z"/>
<path fill="#1A1626" d="M32.542,10.407c0,0.506,0.739,0.506,0.739,0C33.281,9.937,32.542,9.937,32.542,10.407z"/>
<path fill="#AB968C" d="M32.292,10.258c0,0.257,0.371,0.257,0.371,0C32.664,10.021,32.292,10.021,32.292,10.258z"/>
<path fill="#613F34" d="M26.791,10.388c0,1.225,1.775,1.225,1.775,0C28.566,9.251,26.791,9.251,26.791,10.388z"/>
<path fill="#7D5037" d="M26.966,10.778c0,0.703,1.426,0.703,1.426,0C28.392,10.128,26.966,10.128,26.966,10.778z"/>
<path fill="#1A1626" d="M27.31,10.407c0,0.506,0.736,0.506,0.736,0C28.048,9.937,27.31,9.937,27.31,10.407z"/>
<path fill="#AB968C" d="M27.058,10.258c0,0.257,0.373,0.257,0.373,0C27.431,10.021,27.058,10.021,27.058,10.258z"/>
<path fill="#946346" d="M34.576,10.524c0-1.497-3.106-1.497-3.106,0.238C31.916,9.34,34.135,9.34,34.576,10.524z"/>
<path fill="#946346" d="M26.015,10.524c0-1.497,3.107-1.497,3.107,0.238C28.677,9.339,26.46,9.339,26.015,10.524z"/>
</svg>
