<?xml version="1.0" encoding="utf-8"?>
<!-- Generator: Adobe Illustrator 15.0.0, SVG Export Plug-In . SVG Version: 6.00 Build 0)  -->
<!DOCTYPE svg PUBLIC "-//W3C//DTD SVG 1.1//EN" "http://www.w3.org/Graphics/SVG/1.1/DTD/svg11.dtd" [
	<!ENTITY ns_flows "http://ns.adobe.com/Flows/1.0/">
	<!ENTITY ns_extend "http://ns.adobe.com/Extensibility/1.0/">
	<!ENTITY ns_ai "http://ns.adobe.com/AdobeIllustrator/10.0/">
	<!ENTITY ns_graphs "http://ns.adobe.com/Graphs/1.0/">
]>
<svg version="1.1" id="Layer_1" xmlns:x="&ns_extend;" xmlns:i="&ns_ai;" xmlns:graph="&ns_graphs;"
	 xmlns="http://www.w3.org/2000/svg" xmlns:xlink="http://www.w3.org/1999/xlink" xmlns:a="http://ns.adobe.com/AdobeSVGViewerExtensions/3.0/"
	 x="0px" y="0px" width="64px" height="64px" viewBox="0 0 64 64" enable-background="new 0 0 64 64" xml:space="preserve">
<radialGradient id="SVGID_1_" cx="31.7402" cy="51.3555" r="28.2138" gradientTransform="matrix(1.0074 0 0 0.9864 0.0244 -2.058)" gradientUnits="userSpaceOnUse">
	<stop  offset="0" style="stop-color:#FAC703"/>
	<stop  offset="0.3506" style="stop-color:#FAC103"/>
	<stop  offset="0.7991" style="stop-color:#FAB203"/>
	<stop  offset="1" style="stop-color:#FAA803"/>
	<a:midPointStop  offset="0" style="stop-color:#FAC703"/>
	<a:midPointStop  offset="0.6545" style="stop-color:#FAC703"/>
	<a:midPointStop  offset="1" style="stop-color:#FAA803"/>
</radialGradient>
<path fill="url(#SVGID_1_)" d="M9.458,55.026c-4.898,1.603,3.693,9.135,8.787,6.369c16.517-8.968,34.302-17.645,35.544-18.567
	c5.783-4.291-0.805-11.249-8.043-5.368C42.218,40.331,23.605,50.399,9.458,55.026z"/>
<path opacity="0.7" fill="#FFE600" d="M29.132,46.796V55.6c0.877-0.459,1.746-0.911,2.604-1.357v-8.738
	C30.888,45.932,30.019,46.363,29.132,46.796z"/>
<path opacity="0.7" fill="#FFE600" d="M22.212,50.022v9.234c1.443-0.771,2.885-1.535,4.313-2.288v-8.922
	C25.109,48.715,23.666,49.377,22.212,50.022z"/>
<path opacity="0.7" fill="#FFE600" d="M46.462,36.917v9.767c0.545-0.277,1.063-0.542,1.557-0.796v-9.883
	C47.509,36.249,46.989,36.547,46.462,36.917z"/>
<path opacity="0.7" fill="#FFE600" d="M42.081,39.878v9.043c1.168-0.598,2.279-1.164,3.314-1.692v-9.5
	C44.663,38.274,43.524,39.012,42.081,39.878z"/>
<path fill="#B00505" d="M27.796,19.785c6.681-7.598,14.341-2.957,18.134-5.273c1.578-0.962,0.691,3.948,1.33,7.244
	c0.484,2.486-10.244-4.928-16.232,1.248C31.029,23.004,27.181,20.481,27.796,19.785z"/>
<path fill="#4F5E66" d="M27.9,22.101c-1.344-2.138,2.58-3.555,3.635-1.842c0.971,1.575,3.013,3.42,3.289,4.305
	c2.6,0.243,3.197,1.026,4.955,1.103l0.648,3.177c0,0-6.186-0.65-7.953-1.499C30.839,26.557,28.775,23.493,27.9,22.101z"/>
<path fill="#006DAE" d="M22.341,52.757c-0.168,1.51,0.086,3.155,3.836,2.396c6.174-1.252,2.482-4.963,2.482-4.963
	C27.203,48.11,22.701,49.532,22.341,52.757z"/>
<path fill="#014D87" d="M26.025,52.277c-1.545,0.35-2.492,3.067-3.686,0.479c-0.621,2.984,1.488,3.65,3.703,2.672
	c3.227-1.301,5.393-1.919,2.617-5.239C29.968,54.272,27.431,51.962,26.025,52.277z"/>
<path fill="#006DAE" d="M36.653,46.004c1.074,1.69,9.078-1.017,7.516-2.159c-1.088-0.798-2.016-1.222-2.016-1.222
	C39.513,39.89,35.823,44.703,36.653,46.004z"/>
<path fill="#014D87" d="M36.653,46.004c-0.232,0.894,2.811,1.109,4.604,1.109c4.291,0,4.238-2.784,2.912-3.269
	C40.452,42.483,44.372,47.371,36.653,46.004z"/>
<path fill="#1A1726" d="M42.153,42.622c0,0-1.104-7.462-3.402-9.728c-1.096-1.081-3.459-2.629-6.212-3.64
	c-4.99,0.497-5.863,1.76-10.691,3.757c-0.049,4.721,2.445,5.922,1.75,9.61c-1.303,6.91-1.256,10.135-1.256,10.135
	c1.275-3.765,5.246-3.765,6.318-2.567c0,0,0.992-3.646,1.725-7.567c0.316-1.694-0.816-5.232-1.146-7.298
	c2.029,0.075,4.216,1.295,4.662,1.8c1.182,1.34,0.727,7.879,2.754,8.88C38.108,42.622,39.987,41.176,42.153,42.622z"/>
<path fill="#003366" d="M35.108,42.597c0.279,1.583,0.691,2.987,1.545,3.407c1.455-3.382,3.334-4.828,5.5-3.382c0,0,0,0,0-0.001
	c-0.361-2.415-3.359-3.521-5.293-1.943C36.206,41.215,35.618,41.854,35.108,42.597z"/>
<path fill="#003366" d="M22.546,49.609c-0.219,2.124-0.205,3.147-0.205,3.147c1.275-3.765,5.246-3.765,6.318-2.567
	c0,0,0.449-1.65,0.965-3.921c-1.076-0.45-2.469-0.484-3.795-0.212C24.05,46.42,22.728,47.867,22.546,49.609z"/>
<path fill="#006DAE" d="M33.03,29.462c-2.101-3.849,0.107-6.693-2.16-9.677c-3.15-4.143-11.361,2.482-11.361,2.482
	c0.299,5.877,1.783,5.654,2.346,11.565C22.099,36.433,34.694,32.518,33.03,29.462z"/>
<path fill="#D6A67A" d="M18.304,13.12c-2.266-0.431-0.496,6.252,1.275,4.409C20.402,16.674,19.363,13.322,18.304,13.12z"/>
<path fill="#D6A67A" d="M31.851,13.12c-1.059,0.202-2.1,3.554-1.277,4.409C32.347,19.372,34.112,12.689,31.851,13.12z"/>
<path fill="#E3C19B" d="M25.078,5.974c-4.684,0-6.939,3.41-6.656,8.15c0.055,0.953,0.67,4.064,1.25,5.181
	c0.594,1.141,2.578,2.901,3.795,3.266c0.77,0.23,2.451,0.23,3.221,0c1.217-0.364,3.201-2.125,3.795-3.266
	c0.582-1.116,1.195-4.228,1.252-5.181C32.017,9.383,29.761,5.974,25.078,5.974z"/>
<path fill="#E81C26" d="M27.861,4.532c-0.023,3.048-5.564,3.201-5.545,0.152C22.316,1.157,27.861,1.105,27.861,4.532z"/>
<path fill="#1A1726" d="M32.398,10.835c-0.047,3.441-14.686,3.46-14.639,0.018C17.759,1.345,32.398,1.524,32.398,10.835z"/>
<path fill="#BF8C6B" d="M25.078,18.879c-1.055-0.3-2.615,0.141-2.615,0.141c0.594,0.622,1.031,1.431,2.615,1.431
	c1.814,0,2.123-0.917,2.613-1.431C27.691,19.02,26.128,18.578,25.078,18.879z"/>
<path fill="#FFFFFF" d="M22.861,19.125c1.104,0.892,3.334,0.896,4.445,0C26.128,19.173,24.046,19.174,22.861,19.125z"/>
<path fill="#BF8C6B" d="M26.529,17.202c0,0.91-2.904,0.91-2.904,0C23.625,16.993,26.529,16.993,26.529,17.202z"/>
<path fill="#E81C26" d="M31.839,13.254c-4.477-0.576-9.051-0.57-13.527,0.018c-0.881,0.121-1.537-2.284-0.553-2.419
	c5.473-1.498,8.801-1.601,14.639-0.018C33.38,10.966,32.718,13.373,31.839,13.254z"/>
<path fill="#003366" d="M31.544,12.535c-0.184-0.46-0.637-0.826-1.24-0.955c-4.557-0.985-6.09-0.985-10.648,0
	c-0.602,0.13-1.055,0.495-1.24,0.955h-0.928v0.371c0,0.537,0.279,1.009,0.703,1.296l-0.164,1.717
	c-0.035,0.377,0.182,0.741,0.574,0.954c0,0,2.771,1.009,3.742,1.235c0.49,0.114,1.041-0.076,1.307-0.424
	c0.232-0.302,0.6-0.899,0.988-1.251c0.178-0.159,0.506-0.159,0.682,0c0.391,0.352,0.758,0.95,0.99,1.251
	c0.266,0.348,0.816,0.538,1.305,0.424c0.973-0.227,3.744-1.235,3.744-1.235c0.389-0.213,0.609-0.577,0.574-0.954l-0.154-1.615
	c0.523-0.265,0.887-0.787,0.887-1.397v-0.371H31.544z"/>
<linearGradient id="SVGID_2_" gradientUnits="userSpaceOnUse" x1="78.5459" y1="-90.4736" x2="83.2254" y2="-98.5789" gradientTransform="matrix(1 0 0 -1 -56 -80)">
	<stop  offset="0.0638" style="stop-color:#008CC9"/>
	<stop  offset="0.3298" style="stop-color:#BCEBFF"/>
	<stop  offset="0.6117" style="stop-color:#75D6FF"/>
	<stop  offset="0.8032" style="stop-color:#ABE6FF"/>
	<stop  offset="1" style="stop-color:#75D6FF"/>
	<a:midPointStop  offset="0.0638" style="stop-color:#008CC9"/>
	<a:midPointStop  offset="0.5" style="stop-color:#008CC9"/>
	<a:midPointStop  offset="0.3298" style="stop-color:#BCEBFF"/>
	<a:midPointStop  offset="0.5" style="stop-color:#BCEBFF"/>
	<a:midPointStop  offset="0.6117" style="stop-color:#75D6FF"/>
	<a:midPointStop  offset="0.5" style="stop-color:#75D6FF"/>
	<a:midPointStop  offset="0.8032" style="stop-color:#ABE6FF"/>
	<a:midPointStop  offset="0.5" style="stop-color:#ABE6FF"/>
	<a:midPointStop  offset="1" style="stop-color:#75D6FF"/>
</linearGradient>
<path fill="url(#SVGID_2_)" d="M27.326,17.589c-0.166,0-0.559-0.369-0.635-0.477c-0.451-0.642-0.869-1.189-1.414-1.407
	c-0.189-0.075-0.4-0.076-0.59-0.001c-0.545,0.217-0.963,0.765-1.414,1.408c-0.076,0.107-0.311,0.519-0.635,0.477
	c-0.857-0.112-2.883-0.904-3.689-1.197c-0.162-0.104-0.252-0.265-0.236-0.431l0.291-3.06c0.037-0.372,0.371-0.688,0.83-0.789
	c2.275-0.491,3.205-0.719,5.148-0.719s2.875,0.229,5.148,0.719c0.459,0.101,0.793,0.416,0.828,0.789l0.293,3.06
	c0.016,0.166-0.072,0.327-0.236,0.431c-0.807,0.293-2.85,1.015-3.588,1.187L27.326,17.589z"/>
<path opacity="0.5" fill="#FFFFFF" enable-background="new    " d="M24.98,11.395c-0.236,0-0.445,0.007-0.656,0.015l-5.525,3.63
	l-0.088,0.923c-0.016,0.166,0.074,0.327,0.236,0.431c0.027,0.01,0.066,0.024,0.098,0.036l7.551-4.961
	C26.107,11.42,25.597,11.395,24.98,11.395z"/>
<path opacity="0.47" fill="#006EAD" enable-background="new    " d="M19.003,13.771c0.035-0.371,0.369-0.688,0.832-0.788
	c2.271-0.491,3.203-0.72,5.146-0.72c1.941,0,2.873,0.229,5.146,0.72c0.463,0.1,0.797,0.417,0.832,0.788c0,0,0.301,2.278,0.291,2.192
	l-0.291-3.06c-0.035-0.371-0.369-0.688-0.832-0.789c-2.271-0.49-3.203-0.719-5.146-0.719s-2.873,0.229-5.146,0.719
	c-0.463,0.101-0.797,0.418-0.832,0.789l-0.291,3.06C18.703,16.049,19.003,13.771,19.003,13.771z"/>
<path fill="#4F5E66" d="M19.449,21.76c2.725-1.418,4.922,2.104,2.736,3.224c-2.008,1.026-4.287,3.07-5.441,3.399
	c-0.107,2.43-1.396,3.116-1.004,6.494l-4.207-0.951c0,0,0.359-5.789,1.34-7.495C13.781,24.851,17.671,22.687,19.449,21.76z"/>
<path fill="#E81C26" d="M30.482,19.303c-3.645,4.579-8.463,3.085-10.811,0c0,0-0.326,1.422-0.115,2.939
	c0.463,2.132,5.668,4.195,9.6,1.772c0.641-0.395,1.33-0.91,1.859-1.512c0.77-0.874,0.813-2.18,0.057-3.065
	C30.833,19.158,30.603,19.022,30.482,19.303z"/>
<path fill="#E81C26" d="M11.585,33.199l4.084,0.742c1.891,2.899,1.84,3.976,0.73,3.686c0,0,0.338,2.479-0.883,2.71
	c-0.768,0.147-1.395-0.604-1.395-0.604C11.57,39.513,10.529,37.028,11.585,33.199z"/>
<path fill="#E81C26" d="M44.604,29.206c0.318-1.901-1.428-3.377-4.828-3.54l-0.457,3.048c2.051,2.07,3.113,2.509,3.09,1.634
	c0,0,1.998,0.847,2.432,0.019C45.11,29.847,44.604,29.206,44.604,29.206z"/>
<path fill="#008CC9" d="M32.046,25.928c-1.625,3.898-7.834,5.007-10.906,3.861c0.285,1.009,0.543,2.239,0.715,4.044
	c0.244,2.6,12.839-1.315,11.175-4.371C32.335,28.187,32.117,27.023,32.046,25.928z"/>
</svg>
