<?xml version="1.0" encoding="utf-8"?>
<!-- Generator: Adobe Illustrator 15.0.0, SVG Export Plug-In . SVG Version: 6.00 Build 0)  -->
<!DOCTYPE svg PUBLIC "-//W3C//DTD SVG 1.1//EN" "http://www.w3.org/Graphics/SVG/1.1/DTD/svg11.dtd" [
	<!ENTITY ns_flows "http://ns.adobe.com/Flows/1.0/">
	<!ENTITY ns_extend "http://ns.adobe.com/Extensibility/1.0/">
	<!ENTITY ns_ai "http://ns.adobe.com/AdobeIllustrator/10.0/">
	<!ENTITY ns_graphs "http://ns.adobe.com/Graphs/1.0/">
]>
<svg version="1.1" id="Layer_1" xmlns:x="&ns_extend;" xmlns:i="&ns_ai;" xmlns:graph="&ns_graphs;"
	 xmlns="http://www.w3.org/2000/svg" xmlns:xlink="http://www.w3.org/1999/xlink" xmlns:a="http://ns.adobe.com/AdobeSVGViewerExtensions/3.0/"
	 x="0px" y="0px" width="64px" height="64px" viewBox="0 0 64 64" enable-background="new 0 0 64 64" xml:space="preserve">
<path fill="#E6B045" d="M10.454,16.313c-0.267,0.419-0.11,1.471,0.983,1.29c2.376-0.394,1.752-1.788,4.729-2.4
	C15.142,11.845,10.831,15.72,10.454,16.313z"/>
<path fill="#18B5F8" d="M62,39.102c0,0-40.412,6.605-60,4.014V62h60V39.102z"/>
<path fill="#FFCC66" d="M16.031,10.357c-0.82,0.27-5.011,1.544-8.136,2.167c-0.563,0.112-2.393,1.959-3.541,2.757
	c-1.628,1.13-0.374,2.477,0.88,1.75c1.125-0.653,2.457-1.71,3.286-1.978c2.792-0.901,5.354,1.881,8.688-0.435
	c6.682-0.472,17.714,2.586,18.2,3.766c3,7.277,1.271,10.343,2.684,15.922c-0.926,2.039-5.043,13.611-1.502,13.611
	c10.502,0,16.69-3.246,25.41-3.246v-9.238c0,0-6.907-4.87-14.641-5.707c-1.877-9.886-5.164-18.405-7.326-18.879
	C35.25,9.798,17.626,9.834,16.031,10.357z"/>
<path fill-rule="evenodd" clip-rule="evenodd" fill="#E6B045" d="M54.001,41.531c0,0,2.148-8.48-5.937-10.573
	C54.522,33.967,54.001,41.531,54.001,41.531z"/>
<path fill-rule="evenodd" clip-rule="evenodd" fill="#E6B045" d="M51.606,36.947c-1.125,0.27-2.015-2.381-0.889-2.646
	C51.845,34.033,52.733,36.682,51.606,36.947z"/>
<path fill="#E6B045" d="M36.867,48.27c4.473-4.377,4.471-5.258-0.002-9.635L36.867,48.27z"/>
<path fill="#E6B045" d="M23.109,32.955c0,0,5.971,3.612,6.465,1.985C31.059,30.048,22.117,33.072,23.109,32.955z"/>
<path fill="#E6B045" d="M23.109,53.951c0,0,5.971-3.613,6.465-1.984C31.059,56.857,22.117,53.834,23.109,53.951z"/>
<path fill="#FFCC66" d="M11.619,43.455c0,7.271,5.48,10.777,13.105,10.338c1.533-0.088,6.537-1.041,8.33-1.943
	c1.838-0.924,4.668-4.006,5.254-5.896c0.369-1.193,0.369-3.805,0-5c-0.586-1.889-3.416-4.973-5.254-5.895
	c-1.793-0.904-6.797-1.855-8.33-1.945C17.1,32.675,11.619,36.182,11.619,43.455z"/>
<path fill="#E6B045" d="M29.678,41.199c1.461,0,1.461,4.508,0,4.508C29.342,45.707,29.342,41.199,29.678,41.199z"/>
<path fill="#C1873C" d="M22.262,35.266c-0.82,1.662-0.861,4.844-0.287,6.029c0.109,0.254,0.891,0.086,0.816-0.129
	c-0.611-1.652-0.625-4.316,0.053-5.863C22.93,35.094,22.377,35.01,22.262,35.266z"/>
<path fill="#C1873C" d="M22.262,51.646c-0.82-1.664-0.861-4.848-0.287-6.035c0.109-0.254,0.891-0.086,0.816,0.129
	c-0.611,1.656-0.625,4.316,0.053,5.867C22.93,51.813,22.377,51.896,22.262,51.646z"/>
<path fill="#E81C27" d="M24.523,32.464c-17.533-2.281-17.533,24.258,0,21.979C21.326,51.428,21.326,35.479,24.523,32.464z"/>
<path fill="#302C3B" d="M25.771,34.414c3.967,0,3.967,8.133,0,8.133C21.803,42.547,21.803,34.414,25.771,34.414z"/>
<path fill="#44618B" d="M25.771,35.432c2.381,0,2.381,6.1,0,6.1C23.389,41.531,23.389,35.432,25.771,35.432z"/>
<path fill="#302C3B" d="M25.771,44.359c3.967,0,3.967,8.133,0,8.133C21.803,52.492,21.803,44.359,25.771,44.359z"/>
<path fill="#44618B" d="M25.771,45.375c2.381,0,2.381,6.102,0,6.102C23.389,51.477,23.389,45.375,25.771,45.375z"/>
<rect x="24.879" y="41.928" fill="#006DAE" width="1.787" height="3.051"/>
<polygon fill="#006DAE" points="26.666,33.301 26.666,35.049 24.879,35.049 24.879,33.053 "/>
<polygon fill="#006DAE" points="26.666,51.857 26.666,53.607 24.879,53.855 24.879,51.857 "/>
<path fill="#45332C" d="M35.076,41.852c1.418,0,1.418,3.205,0,3.205C32.324,45.057,32.324,41.852,35.076,41.852z"/>
<path fill="#48C2F9" d="M2,62h60V49.18c-31.227-5.727-28.988,3.957-60,1.004V62z"/>
<path fill="#7ED2FC" d="M62,54.834C40.221,53.496,29.426,57.83,2,56.33V62h60V54.834z"/>
</svg>
