<?xml version="1.0" encoding="utf-8"?>
<!-- Generator: Adobe Illustrator 19.0.0, SVG Export Plug-In . SVG Version: 6.00 Build 0)  -->
<svg version="1.1" id="Layer_1" xmlns="http://www.w3.org/2000/svg" xmlns:xlink="http://www.w3.org/1999/xlink" x="0px" y="0px"
	 width="64px" height="64px" viewBox="0 0 64 64" enable-background="new 0 0 64 64" xml:space="preserve">
<linearGradient id="SVGID_1_" gradientUnits="userSpaceOnUse" x1="13.6162" y1="56.3067" x2="49.1502" y2="52.5994">
	<stop  offset="0" style="stop-color:#B9F44C"/>
	<stop  offset="0.1759" style="stop-color:#95E76C"/>
	<stop  offset="0.3211" style="stop-color:#7EDE81"/>
	<stop  offset="0.4131" style="stop-color:#76DB88"/>
	<stop  offset="0.637" style="stop-color:#4AC5A3"/>
	<stop  offset="0.8767" style="stop-color:#20B0BC"/>
	<stop  offset="1" style="stop-color:#10A8C6"/>
</linearGradient>
<path fill="url(#SVGID_1_)" d="M59.488,51.284c-0.124-0.59,1.906-1.492,0.735-2.368c-12.496-4.448-43.393-0.774-57.854,7.497
	c-0.41,0.236-0.253,0.953,0.004,1.053c6.633,2.595,15.388,3.62,24.206,3.528c14.7-0.15,29.581-3.404,35.107-7.666
	C62.942,52.361,60.057,52.114,59.488,51.284z"/>
<radialGradient id="SVGID_2_" cx="31.934" cy="53.3793" r="30.2229" gradientTransform="matrix(0.9976 -0.0698 0.0147 0.2105 -0.7079 44.3713)" gradientUnits="userSpaceOnUse">
	<stop  offset="0.6319" style="stop-color:#FFFFFF;stop-opacity:0.3"/>
	<stop  offset="0.7129" style="stop-color:#E5E5E6;stop-opacity:0.328"/>
	<stop  offset="0.8593" style="stop-color:#A3A1A7;stop-opacity:0.3882"/>
	<stop  offset="1" style="stop-color:#393644;stop-opacity:0.4752"/>
</radialGradient>
<path opacity="0.25" fill="url(#SVGID_2_)" enable-background="new    " d="M59.488,51.284c-0.124-0.59,1.906-1.492,0.735-2.368
	c-12.496-4.448-43.393-0.774-57.854,7.497c-0.41,0.236-0.253,0.953,0.004,1.053c6.633,2.595,15.388,3.62,24.206,3.528
	c14.7-0.15,29.581-3.404,35.107-7.666C62.942,52.361,60.057,52.114,59.488,51.284z"/>
<path id="Shape_1_" fill="#A6DD3A" d="M13.429,55.468c-0.375-0.778,0.449-1.577,1.856-1.788c1.395-0.206,2.841,0.254,3.215,1.032
	c0.377,0.778-0.462,1.578-1.855,1.786C15.237,56.707,13.806,56.245,13.429,55.468z M12.586,55.593
	c0.498,1.037,2.412,1.653,4.284,1.375c1.86-0.277,2.976-1.345,2.477-2.382c-0.502-1.036-2.428-1.65-4.287-1.374
	C13.186,53.489,12.085,54.556,12.586,55.593z"/>
<path id="Combined-Shape_1_" fill="#A6DD3A" d="M16.124,54.664c0.028,0.061-0.013,0.102-0.127,0.119l-0.336,0.051
	c-0.113,0.016-0.186-0.008-0.217-0.068l-0.295-0.609c-0.028-0.063,0.013-0.104,0.127-0.121l0.166-0.025
	c1.072-0.16,2.182,0.195,2.468,0.791c0.142,0.291,0.059,0.594-0.214,0.849c-0.047,0.054-0.128,0.067-0.236,0.035l-0.446-0.146
	c-0.107-0.032-0.129-0.075-0.065-0.132c0.141-0.144,0.194-0.314,0.113-0.48c-0.131-0.271-0.564-0.454-1.039-0.468L16.124,54.664z"/>
<path fill="#FFCC66" d="M55.139,22.802c-0.225-0.718-2.492-0.524-5.002,0c-2.368,0.492-4.202-0.693-6.315-0.655l-5.371-2.011
	c-0.343,1.204-0.37,2.288-0.733,3.484c2.032,0.653,3.896,0.993,5.086,1.23c2.701,0.631,7.525-0.205,7.525-0.205
	c4.063,0.729,4.383,0.625,2.726-0.217c-0.032-0.343,1.188-0.351,2.564-0.436C58.342,23.819,55.139,22.802,55.139,22.802z"/>
<path fill="#FFCC66" d="M6.341,29.857c-0.107-0.745,2.018-1.552,4.508-2.164c2.349-0.582,3.485-2.444,5.407-3.324l3.87-3.914
	c0.832,0.936,0.65,2.351,1.498,3.272c-1.547,1.468-2.306,1.909-3.274,2.64c-2.162,1.736-6.871,3.071-6.871,3.071
	c-3.346,2.414-3.679,2.459-2.551,0.984c-0.12-0.323-1.224,0.196-2.501,0.715C3.897,32.16,6.341,29.857,6.341,29.857z"/>
<path fill-rule="evenodd" clip-rule="evenodd" fill="#8E3ED6" d="M40.491,34.757c-0.422-0.298-4.528-2.53-7.756-3.073
	c-0.351-0.956,0.274-4.233,1.215-4.721c1.662-0.861,1.623-2.788,1.854-3.893c0,0,1.198,0.247,1.912,0.55c0,0,1.192-1.602,0.76-3.484
	c-0.995-0.702-2.535-2.069-4.885-2.559c-0.978-0.203-4.286-0.76-5.359-0.749c-2.972,0.027-5.662,0.486-8.106,3.628
	c0.32,2.129,1.498,3.272,1.498,3.272s1.779-1.246,2.749-1.549c1.586,7.975-6.176,10.467,0.803,18.145
	c4.948-1.355,5.813-0.83,4.948-3.249c2.046,0.511,2.077,1.212,7.256,2.147C38.803,39.479,41.454,35.436,40.491,34.757z"/>
<path fill-rule="evenodd" clip-rule="evenodd" fill="#C28FEF" d="M24.373,22.178c1.309,7.713-5.658,9.92,1.502,17.492
	c0.23-0.064,0.315-0.626,0.529-0.682C20.025,31.636,26.694,28.797,24.373,22.178z"/>
<path fill-rule="evenodd" clip-rule="evenodd" fill="#FFCC66" d="M43.039,38.438c0.121-1.551-0.013-2.575-2.548-3.682
	c-2.224-0.255-3.657,3.216-3.111,4.465c0.484,0.228,1.737,0.405,1.737,0.405c-0.351,2.914,2.079,4.894,2.535,8.304
	c0.24,1.793-0.714,2.921,1.663,3.34c1.629,0.287,2.652,2.325,5.272,0.476c1.271-0.897-3.866-1.242-4.835-3.596
	C43.367,47.213,42.929,39.834,43.039,38.438z"/>
<path fill-rule="evenodd" clip-rule="evenodd" fill="#FFCC66" d="M30.002,42.644c0.974-1.25,1.173-2.994,0.392-4.63
	c-2.218-0.706-4.923,0.337-5.218,2.309c0.323,0.483,0.765,0.698,0.765,0.698c-1.938,2.272-0.793,5.41-2.261,8.587
	c-0.771,1.672-2.277,2.063-0.315,3.838c1.343,1.217,1.157,3.565,4.599,3.554c1.668-0.006-2.879-3.365-2.47-5.95
	C25.657,50.02,29.13,43.766,30.002,42.644z"/>
<path fill="#C28FEF" d="M38.564,20.744c-0.995-0.701-2.089-2.857-5.445-3.623c-0.973-0.221-3.805-0.563-4.879-0.553
	c-2.972,0.028-5.609,1.053-8.055,4.194c0,0,0,0.36,0.188,0.748c1.499-1.864,3.047-3.014,4.705-3.624
	c0.985,0.398,4.289,1.994,5.798,6.015c1.96-3.726,4.086-4.513,4.945-4.688c1.144,0.87,2.073,1.947,2.701,2.391
	C38.522,21.604,38.665,21.188,38.564,20.744z"/>
<path fill="#594640" d="M47.013,19.143c-0.707-0.027-1.604-1.099-2.406-2.517c0.688,0.127,1.433,0.081,2.244-0.242
	C40.179,13.9,42.661-0.318,33.816,4.008l1.286,4.038C40.257,5.021,39.094,19.041,47.013,19.143z"/>
<path fill="#453631" d="M47.013,19.143c-0.707-0.027-3.053-1.334-3.854-2.753c1.945,0.718,2.998,0.678,3.691-0.006
	C39.272,15.423,41.539,1.43,34.757,6.196l0.346,1.85C39.723,6.382,36.547,19.418,47.013,19.143z"/>
<path fill="#8E3ED6" d="M33.266,3.689c-1.442,0.61,2.221,6.995,3.649,4.859C38.423,6.297,35.333,2.813,33.266,3.689z"/>
<path fill="#E6B045" d="M33.204,17.103c0,2.69-5.114,2.69-5.114,0c0-0.803,0-3.088,0-3.088h5.114
	C33.204,14.015,33.204,16.381,33.204,17.103z"/>
<path fill="#E6B045" d="M35.236,13.405c1.479,1.471,2.952-3.866,1.064-3.523C35.417,10.044,34.549,12.722,35.236,13.405z"/>
<path fill="#E6B045" d="M26.065,13.405c0.687-0.684-0.18-3.361-1.064-3.523C23.112,9.539,24.587,14.876,26.065,13.405z"/>
<path fill="#FFCC66" d="M30.649,3.689c-3.938,0-5.834,3.199-5.597,7.316c0.047,0.827,0.279,2.021,0.564,3.043
	c0.589,2.125,3.707,4.265,5.032,4.265c1.329,0,4.441-2.14,5.034-4.265c0.284-1.022,0.515-2.216,0.564-3.043
	C36.484,6.889,34.591,3.689,30.649,3.689z"/>
<path fill="#594640" d="M34.99,9.508c-0.889-0.526-2.48-0.592-3.11-0.231c-0.132,0.072-0.094,0.455,0.018,0.407
	c0.899-0.373,2.268-0.394,3.11,0.039C35.122,9.78,35.124,9.586,34.99,9.508z"/>
<path fill="#594640" d="M26.314,9.508c0.884-0.526,2.476-0.592,3.107-0.231c0.132,0.072,0.097,0.455-0.019,0.407
	c-0.899-0.373-2.266-0.394-3.107,0.039C26.179,9.78,26.175,9.586,26.314,9.508z"/>
<path fill="#E6B045" d="M31.87,13.483c0,0.793-2.439,0.793-2.439,0C29.431,13.3,31.87,13.3,31.87,13.483z"/>
<path fill="#FFFFFF" d="M34.903,11.118c-0.523,1.372-2.666,1.171-3.055,0.21C32.142,9.781,34.612,9.649,34.903,11.118z"/>
<path fill="#613F34" d="M32.382,10.967c0,1.218,1.766,1.218,1.766,0C34.148,9.836,32.382,9.836,32.382,10.967z"/>
<path fill="#7D5037" d="M32.558,11.355c0,0.699,1.415,0.699,1.415,0C33.973,10.709,32.558,10.709,32.558,11.355z"/>
<path fill="#1A1626" d="M32.898,10.987c0,0.505,0.732,0.505,0.732,0C33.63,10.516,32.898,10.516,32.898,10.987z"/>
<path fill="#AB968C" d="M32.649,10.838c0,0.256,0.37,0.256,0.37,0C33.02,10.601,32.649,10.601,32.649,10.838z"/>
<path fill="#45332C" d="M34.903,11.106c0-1.477-3.055-1.477-3.055,0.233C32.282,9.935,34.467,9.935,34.903,11.106z"/>
<path fill="#FFFFFF" d="M26.396,11.118c0.529,1.372,2.668,1.171,3.061,0.21C29.157,9.781,26.686,9.649,26.396,11.118z"/>
<path fill="#613F34" d="M27.155,10.971c0,1.216,1.763,1.216,1.763,0C28.918,9.839,27.155,9.839,27.155,10.971z"/>
<path fill="#7D5037" d="M27.332,11.358c0,0.698,1.411,0.698,1.411,0C28.743,10.711,27.332,10.711,27.332,11.358z"/>
<path fill="#1A1626" d="M27.667,10.989c0,0.505,0.735,0.505,0.735,0C28.402,10.518,27.667,10.518,27.667,10.989z"/>
<path fill="#AB968C" d="M27.42,10.842c0,0.254,0.371,0.254,0.371,0C27.791,10.603,27.42,10.603,27.42,10.842z"/>
<path fill="#45332C" d="M26.396,11.106c0-1.477,3.061-1.477,3.061,0.232C29.02,9.935,26.833,9.935,26.396,11.106z"/>
<path fill="#594640" d="M36.248,11.281c-0.828-4.25-4.77-3.702-1.994-6.538C35.988,4.199,38.009,8.771,36.248,11.281z"/>
<path fill="#594640" d="M34.254,4.742c-1.685,4.227-7.714,3.666-9.224,6.267c-0.606-2.169-0.304-6.302,3.504-7.624
	C31.972,2.192,34.69,4.097,34.254,4.742z"/>
<path fill="#453631" d="M34.254,4.743c-0.975,2.426-4.227,1.904-8.429,3.728C29.731,5.717,31.345,6.914,34.254,4.743z"/>
<path fill="#453631" d="M34.254,4.742c-1.513,4.857-6.918,3.803-9.224,6.267C26.051,8.127,31.729,8.76,34.254,4.742z"/>
<path fill="#453631" d="M36.225,8.599c-1.361-3.753-3.293-2.243-2.916-3.229C34.428,4.792,35.912,5.991,36.225,8.599z"/>
<path fill="#D47706" d="M30.65,14.86c-0.925-0.407-0.935-0.017-2.362,0.078c0.537,0.608,0.933,1.39,2.36,1.39
	c1.644,0,1.92-0.888,2.363-1.39C31.584,14.844,31.576,14.453,30.65,14.86z"/>
<path fill="#FFFFFF" d="M28.717,15.089c0.934,0.969,2.944,0.958,3.867,0.001C31.147,15.244,30.155,15.244,28.717,15.089z"/>
<path fill="#792CBF" d="M25.717,23.901c-0.396,1.818,2.106,3.49,3.481,2.432C27.902,26.447,26.267,24.958,25.717,23.901z"/>
</svg>
