<?xml version="1.0" encoding="utf-8"?>
<!-- Generator: Adobe Illustrator 15.0.0, SVG Export Plug-In . SVG Version: 6.00 Build 0)  -->
<!DOCTYPE svg PUBLIC "-//W3C//DTD SVG 1.1//EN" "http://www.w3.org/Graphics/SVG/1.1/DTD/svg11.dtd" [
	<!ENTITY ns_flows "http://ns.adobe.com/Flows/1.0/">
	<!ENTITY ns_extend "http://ns.adobe.com/Extensibility/1.0/">
	<!ENTITY ns_ai "http://ns.adobe.com/AdobeIllustrator/10.0/">
	<!ENTITY ns_graphs "http://ns.adobe.com/Graphs/1.0/">
]>
<svg version="1.1" id="Layer_1" xmlns:x="&ns_extend;" xmlns:i="&ns_ai;" xmlns:graph="&ns_graphs;"
	 xmlns="http://www.w3.org/2000/svg" xmlns:xlink="http://www.w3.org/1999/xlink" xmlns:a="http://ns.adobe.com/AdobeSVGViewerExtensions/3.0/"
	 x="0px" y="0px" width="64px" height="64px" viewBox="0 0 64 64" enable-background="new 0 0 64 64" xml:space="preserve">
<path fill="#EFDE8B" d="M38.103,9.784c-0.479,0.201-1.413-0.234-2.39-0.933c0.499-0.129,0.98-0.393,1.421-0.862
	c-5.226,0.422-6.345-9.319-12.056-4.719l1.62,2.811c1.146-2.971,2.195,4.761,6.272,4.189c-0.5-0.077-0.936-0.683-1.376-1.453
	C33.645,10.462,36.023,11.707,38.103,9.784z"/>
<path fill="#BA9D52" d="M38.103,9.784c-0.479,0.201-2.451,0.059-3.428-0.64c1.521-0.128,2.209-0.481,2.459-1.155
	c-5.354,1.721-6.979-7.098-11.242-3.037l0.807,1.129c1.146-2.971,2.195,4.761,6.272,4.189c-1.51-0.306-2.01-1.126-2.025-1.853
	C32.995,10.063,36.023,11.707,38.103,9.784z"/>
<path fill="#8E3ED6" d="M24.502,3.196c-0.834,0.797,0.12,3.464,1.977,3.085C28.001,5.974,25.605,2.135,24.502,3.196z"/>
<path fill="#D6A67A" d="M20.608,15.643c1.364-1.037,1.146,1.979,1.226,2.33c0,0,1.132-1.546,4.233-2.418
	c0,0-0.673-1.194-1.355-3.226C23.534,6.564,20.608,15.643,20.608,15.643z"/>
<path fill="#E3C19B" d="M14.525,7.133C14.404,8.01,14.481,8.96,14.843,9.67c0.56,1.093,0.175,1.806-0.503,2.837
	c-0.646,0.979,0.478,1.404,1.38,1.156c0.256,0.217,0.173,0.52,0.173,0.52c0.891,0.435,1.134,1.402,0.872,1.754
	c0,0,0.252,0.057,0.319,0.481c0.197,1.214,1.026,1.378,2.635,0.334c3.178-2.063,2.762-4.741,2.762-4.741
	c0.982,0.816,2.66-1.475,2.158-3.588C23.812,4.915,19.475,0.701,14.525,7.133z"/>
<path fill="#D6A67A" d="M22.087,10.332c-0.232-0.854,0.259-1.787,0.956-1.979c0,0-0.919,1.343-0.241,2.632
	C22.802,10.984,22.248,10.928,22.087,10.332z"/>
<path fill="#F5F5F5" d="M18.004,10.473c-0.313,0.646-1.354,1.242-1.748,1.267C14.619,9.26,17.101,9.484,18.004,10.473z"/>
<path fill="#45332C" d="M16.3,11.735c1.06-0.321-0.307-3.028-0.613-1.275C15.72,10.742,16.086,11.801,16.3,11.735z"/>
<path fill="#45332C" d="M18.004,10.473c-0.574-0.988-2.623-1.265-2.317-0.013C15.797,9.709,17.217,9.79,18.004,10.473z"/>
<path fill="#F5F5F5" d="M16.019,10.402c0.076,0.262,0.45,0.148,0.375-0.114C16.32,10.05,15.946,10.161,16.019,10.402z"/>
<path fill="#594640" d="M17.831,8.721c-0.874-0.38-2.338,0.065-2.782,0.578c-0.1,0.101,0.129,0.481,0.203,0.4
	c0.505-0.549,1.62-0.979,2.604-0.799C17.964,8.92,17.963,8.771,17.831,8.721z"/>
<path fill="#C97E55" d="M16.352,14.636c0.391,0.139,0.161,0.602,0.161,0.602c-0.301,0.068-0.085,0.878,0.252,0.699
	c0.979-0.519,1.688-1.541,1.643-1.858c-0.203,0.062-1.786,0.423-2.515,0.104C15.893,14.183,15.922,14.527,16.352,14.636z"/>
<path fill="#FFFFFF" d="M16.352,14.636l0.161,0.602c0.266-0.06,1.206-0.531,1.658-1.012C18.171,14.226,17.051,14.688,16.352,14.636z
	"/>
<path fill="#EFDE8B" d="M25.406,4.732c-0.782-2.398-3.577-3.23-6.507-2.447c-3.794,1.014-5.121,3.819-4.374,4.848
	c3.8-3.275,6.303,4.829,7.268,1.688c0.483-1.572,2.614-1.362,2.705,0.58c0.092,1.961-0.978,2.563-0.978,2.563
	c0.687,0.735,1.306,0.69,1.306,0.69C27.679,11.404,27.752,5.312,25.406,4.732z"/>
<path fill="#BA9D52" d="M25.406,4.732c-0.782-2.398-5.195-2.424-6.48-1.799c2.051-0.203,4.691,0.469,5.166,1.208
	c-1.733-0.019-4.381-0.352-7.1,0.522c1.734-0.215,3.484,0.816,7.047,0.488c0,0-2.35,1.179-5.35,0.764
	c0.984,0.781,3.207,1.183,4.256,1.217c-1.078,0.348-2.337,0.552-5.323-0.47c2.081,1.08,3.499,4.345,4.171,2.157
	c0.483-1.572,2.614-1.362,2.705,0.58c0.092,1.961-0.978,2.563-0.978,2.563c0.687,0.735,1.306,0.69,1.306,0.69
	C27.679,11.404,27.752,5.312,25.406,4.732z"/>
<path fill="#D6A67A" d="M16.401,13.018c-0.042,0.397-0.564,0.635-0.895,0.71c-0.44,0.1-0.914-0.015-1.18-0.275
	C14.406,13.045,15.581,13.742,16.401,13.018z"/>
<path fill="#8E3ED6" d="M8,58.901c0,0,2.693,2.688,6.544,2.505L16.801,62c0.206-0.33,0.092-0.45,0.092-0.45
	s-1.438-1.842-8.594-2.935C8.299,58.615,8.103,58.574,8,58.901z"/>
<path fill="#302C3B" d="M14.656,57.1c-1.132,1.209-5.603-0.896-6.357,1.516c0,0,2.487,2.525,6.338,2.342l2.256,0.593
	C20.449,55.853,14.656,57.1,14.656,57.1z"/>
<path fill="#8E3ED6" d="M11.498,57.416c0.661,1.098,1.23,1.423,1.462,0.834c0.484,0.589,0.917,0.329,1.017-0.031
	c0.569,0.45,0.955-0.062,0.362-0.897C13.992,56.87,11.32,57.12,11.498,57.416z"/>
<path fill="#8E3ED6" d="M55.816,53.982c0,0,0.892-3.713-1.256-6.936l-0.843-2.288c-0.387-0.007-0.43,0.153-0.43,0.153
	s-0.643,2.229,2.131,8.961C55.419,53.873,55.485,54.063,55.816,53.982z"/>
<path fill="#302C3B" d="M50.842,49.179c1.613,0.35,2.136,5.292,4.577,4.694c0,0,0.86-3.45-1.288-6.673l-0.843-2.288
	C49.109,45.285,49.896,46.541,50.842,49.179z"/>
<path fill="#8E3ED6" d="M52.744,51.735c0.592-1.137,0.573-1.796-0.046-1.69c0.25-0.722-0.195-0.961-0.553-0.859
	c0.088-0.725-0.547-0.791-0.951,0.151C50.99,49.869,52.585,52.042,52.744,51.735z"/>
<path fill="#E3C19B" d="M23.793,33.569c-2.928,2.794-7.773,8.783-7.712,10.821c0.157,5.191-1.085,11.544-1.085,11.544
	c0.239,1.089,2.504,1.563,3.095,0.775c1.103-4.981,3.134-5.98,2.354-11.528c4.206-2.775,6.981-7.132,8.926-7.618
	c0.226,5.821,5.268,12.123,6.332,12.376c1.155,0.274,5.875-1.266,13.859-1.052c0.652,0.017,0.201-2.979-0.124-2.977
	c-6.001,0.067-8.982-1.684-12.105-0.038c-0.373-3.841-1.888-6.085-1.969-9.896C35.349,35.285,23.793,33.569,23.793,33.569z"/>
<path fill="#F2F5F7" d="M14.996,55.935c-0.141,0.845-0.238,1.464-0.238,1.464s0.783,1.077,2.955,0.934
	c0.127-0.59,0.232-1.112,0.378-1.622C17.576,57.079,15.59,56.697,14.996,55.935z"/>
<path fill="#F2F5F7" d="M50.709,45.873c-0.44,0.021-0.862,0.032-1.271,0.038c0.457,0.972,0.386,2.383,0.124,2.977
	c0.378,0.002,0.758,0.005,1.146,0.016C51.361,48.921,51.034,45.858,50.709,45.873z"/>
<path fill="#1A1626" d="M30.271,42.787c0,0,4.184-0.104,6.53-1.539c-0.458-4.664-2.298-8.868-4.021-11.266
	C27.728,30.975,24.866,34.362,30.271,42.787z"/>
<path fill="#302C3B" d="M25.264,31.214c-1.431,2.349-4.828,5.737-6.37,7.202c0,0,2.303,3.003,6.461,3.602
	c3.185-2.731,14.2-5.061,7.425-12.035C27.728,30.975,25.264,31.214,25.264,31.214z"/>
<path fill="#E3C19B" d="M23.604,20.988c-2.452-1.246-3.171,4.273-3.71,5.43c-2.207-1.122-6.055-2.438-5.999-2.84
	c0.145-1.032-0.021-1.499-0.997-2.732c-0.27-0.341-0.857,0.208-0.857,0.208c-0.845-0.628-0.803,0.243-1.356,0.513
	c-0.515,0.25-0.307,0.676-0.792,1.03c-1.08,0.789,0.774,2.333,2.697,2.928c1.377,0.427,5.938,4.331,9.09,4.85
	C22.868,30.569,26.15,22.913,23.604,20.988z"/>
<path fill="#8E3ED6" d="M25.516,14.414c-1.352,0.156-2.371,2.253-3.745,2.393c-0.233,0.426-0.427,1.057-0.43,1.566
	c-0.015,3.027-3.938,7.183,0.843,7.795c0.597,0.077,2.288,3.053,2.52,5.746c0.803,1.316,7.608,0.278,8.411-1.81
	C28.554,24.659,34.184,19.544,25.516,14.414z"/>
<path fill="#E3C19B" d="M28.465,17.073c-2.253,2.601,3.949,3.907,6.844,5.376c-1.523,1.897-5.525,7.955-5.906,7.781
	c-1.109-0.5-1.592-0.406-3.026,0.319c-0.398,0.199,0.073,0.837,0.073,0.837c-0.79,0.696,0.117,0.79,0.304,1.354
	c0.174,0.521,0.647,0.392,0.932,0.902c0.636,1.137,2.556-0.152,3.487-1.866c0.666-1.228,5.864-4.888,8.044-9.865
	C39.675,20.863,30.874,14.981,28.465,17.073z"/>
<path fill="#732EB0" d="M30.66,21.396c1.08-2.349,2.25-3.645,2.854-4.115C24.548,10.502,20.9,17.963,30.66,21.396z"/>
</svg>
