<?xml version="1.0" encoding="utf-8"?>
<!-- Generator: Adobe Illustrator 15.0.0, SVG Export Plug-In . SVG Version: 6.00 Build 0)  -->
<!DOCTYPE svg PUBLIC "-//W3C//DTD SVG 1.1//EN" "http://www.w3.org/Graphics/SVG/1.1/DTD/svg11.dtd" [
	<!ENTITY ns_flows "http://ns.adobe.com/Flows/1.0/">
	<!ENTITY ns_extend "http://ns.adobe.com/Extensibility/1.0/">
	<!ENTITY ns_ai "http://ns.adobe.com/AdobeIllustrator/10.0/">
	<!ENTITY ns_graphs "http://ns.adobe.com/Graphs/1.0/">
]>
<svg version="1.1" id="Layer_1" xmlns:x="&ns_extend;" xmlns:i="&ns_ai;" xmlns:graph="&ns_graphs;"
	 xmlns="http://www.w3.org/2000/svg" xmlns:xlink="http://www.w3.org/1999/xlink" xmlns:a="http://ns.adobe.com/AdobeSVGViewerExtensions/3.0/"
	 x="0px" y="0px" width="64px" height="64px" viewBox="0 0 64 64" enable-background="new 0 0 64 64" xml:space="preserve">
<rect x="2" y="16.234" fill="#99A8AE" width="60" height="1.537"/>
<rect x="50" y="14.002" fill="#6E8189" width="1" height="6"/>
<rect x="51" y="8" fill="#302C3B" width="5" height="18.002"/>
<rect x="56" y="14.002" fill="#6E8189" width="2" height="6"/>
<rect x="56.5" y="13.002" fill="#302C3B" width="1" height="2"/>
<rect x="13" y="14.002" fill="#6E8189" width="1" height="6"/>
<rect x="8" y="8" fill="#302C3B" width="5" height="18.002"/>
<rect x="6" y="14.002" fill="#6E8189" width="2" height="6"/>
<rect x="6.5" y="13.002" fill="#302C3B" width="1" height="2"/>
<path fill="#7AB51D" d="M41.053,39.468c-5.408-1.359-4.611-6.533-4.611-6.533L32,34.196l-4.441-1.262c0,0,0.797,5.174-4.611,6.533
	c0.697,2.613,3.098,3.475,2.043,7.186c-2.043,7.193,2.076,8.539,7.01,8.539s9.053-1.346,7.01-8.539
	C37.955,42.942,40.355,42.081,41.053,39.468z"/>
<path fill="#302C3B" d="M38.764,44.541c0,0-3.264,1.565-6.764,1.565s-6.764-1.565-6.764-1.565l-0.127,1.642
	c0,0,3.391,2.574,6.891,2.574s6.891-2.574,6.891-2.574L38.764,44.541z"/>
<path fill="#614A36" d="M27.559,32.935c0,0-0.477-1.762-3.045-2.496c-0.973-4.599-3.057-6.733-4.168-11.146h-2.691
	c1.824,4.871-1.342,9.393,4.6,16.174c-0.158,2.211,0.693,4.002,0.693,4.002C28.881,38.708,27.559,32.935,27.559,32.935z"/>
<path fill="#614A36" d="M16.99,17.776c-0.033,2.475,3.883,3.42,4,0H16.99z"/>
<path fill="#614A36" d="M17.732,16.465c0,0,0.391,0.453,0.969,0.078c0.234,0.592,0.906,0.458,1.166,0.136
	c0.053,0.255,0.6,0.324,0.6,0.324s-1.773,0.372-1.922,1.103c-0.328,1.604,1.305,1.67,1.813,1.415
	c1.391-0.696,1.156-1.853,1.861-3.287c0.133-0.27,0.094-0.987-1.111-0.461c0,0,0.029-0.945-1.107-0.619
	c0.068-0.662-1.01-0.657-1.221-0.151c-0.656-0.475-1.219-0.1-1.256,0.212C16.186,15.121,16.633,17.373,17.732,16.465z"/>
<path fill="#614A36" d="M47.01,17.776c0.033,2.475-3.883,3.42-4,0H47.01z"/>
<path fill="#614A36" d="M46.268,16.465c0,0-0.391,0.453-0.969,0.078c-0.234,0.592-0.906,0.458-1.166,0.136
	c-0.053,0.255-0.6,0.324-0.6,0.324s1.773,0.372,1.922,1.103c0.328,1.604-1.305,1.67-1.813,1.415
	c-1.391-0.696-1.156-1.853-1.861-3.287c-0.133-0.27-0.094-0.987,1.111-0.461c0,0-0.029-0.945,1.107-0.619
	c-0.068-0.662,1.01-0.657,1.221-0.151c0.656-0.475,1.219-0.1,1.256,0.212C47.814,15.121,47.367,17.373,46.268,16.465z"/>
<path fill="#614A36" d="M36.441,32.935c0,0,0.477-1.762,3.045-2.496c0.975-4.599,3.057-6.733,4.168-11.146h2.691
	c-1.824,4.871,1.342,9.393-4.6,16.174c0.158,2.211-0.693,4.002-0.693,4.002C35.119,38.708,36.441,32.935,36.441,32.935z"/>
<path fill="#423225" d="M28.885,33.241c0,3.136,6.125,3.136,6.125,0v-3.25h-6.125V33.241z"/>
<path fill="#423225" d="M26.172,25.911c-1.949-0.352-0.428,5.101,1.098,3.596C27.977,28.811,27.082,26.077,26.172,25.911z"/>
<path fill="#423225" d="M37.83,25.911c-0.912,0.166-1.807,2.899-1.098,3.596C38.258,31.012,39.779,25.56,37.83,25.911z"/>
<path fill="#614A36" d="M32,19.521c-4.029,0-5.973,3.049-5.729,7.29c0.049,0.853,0.576,3.636,1.076,4.634
	c0.512,1.021,2.221,2.595,3.268,2.921c0.662,0.205,2.109,0.205,2.771,0c1.047-0.326,2.756-1.899,3.268-2.921
	c0.5-0.998,1.027-3.781,1.076-4.634C37.975,22.569,36.031,19.521,32,19.521z"/>
<path fill="#423225" d="M33.25,29.565c0,0.813-2.498,0.813-2.498,0C30.752,29.378,33.25,29.378,33.25,29.565z"/>
<path fill="#38332D" d="M32,19.521c-2.771,0-4.447,0.915-5.17,0.563c0,0-0.078,0.473,0.205,0.781c0,0-0.299,0.258-0.781-0.178
	c-0.461,1.493,0.904,2.357,5.746,2.357c4.844,0,3.688-1.181,6.068,0.891C37.834,21.383,36.213,19.521,32,19.521z"/>
<path fill="#26221E" d="M34.051,21.746c-2.666,0.984-3.641-0.792-6.156-0.964c1.197,0.565,1.781,1.436,2.764,2.063
	c-2.139-0.717-3.709-1.948-3.828-2.757c0,0-0.355,1.181,1.055,2.063c-1.35,0.124-1.631-1.46-1.631-1.46
	c-0.684,1.098-0.588,4.639,0.17,7.266c0.127-0.938-0.162-1.324,0.271-2.455c1.297-3.377,0.463-1.959,5.307-1.959
	c4.842,0,3.969-1.293,5.305,1.959c0.398,0.97,0.145,1.518,0.271,2.455C39.172,22.034,36.881,20.702,34.051,21.746z"/>
<path fill="#FFFFFF" d="M36.316,27.138c-0.539,1.41-2.73,1.203-3.131,0.217C33.49,25.77,36.02,25.633,36.316,27.138z"/>
<path fill="#FFFFFF" d="M27.686,27.138c0.537,1.41,2.73,1.203,3.131,0.217C30.512,25.77,27.98,25.633,27.686,27.138z"/>
<path fill="#36281D" d="M36.539,25.44c-0.922-0.457-2.684-0.479-3.342-0.16c-0.141,0.062-0.049,0.495,0.072,0.454
	c0.914-0.34,2.391-0.349,3.248,0.029C36.633,25.813,36.68,25.506,36.539,25.44z"/>
<path fill="#36281D" d="M27.461,25.44c0.922-0.457,2.686-0.479,3.344-0.16c0.141,0.062,0.049,0.495-0.07,0.454
	c-0.918-0.34-2.393-0.349-3.252,0.029C27.369,25.813,27.322,25.506,27.461,25.44z"/>
<path fill="#613F34" d="M33.744,26.987c0,1.237,1.789,1.237,1.789,0C35.533,25.839,33.744,25.839,33.744,26.987z"/>
<path fill="#7D5037" d="M33.922,27.384c0,0.709,1.436,0.709,1.436,0C35.357,26.726,33.922,26.726,33.922,27.384z"/>
<path fill="#1A1626" d="M34.268,27.008c0,0.513,0.742,0.513,0.742,0C35.01,26.531,34.268,26.531,34.268,27.008z"/>
<path fill="#AB968C" d="M34.014,26.857c0,0.26,0.375,0.26,0.375,0C34.389,26.616,34.014,26.616,34.014,26.857z"/>
<path fill="#613F34" d="M28.467,26.987c0,1.237,1.791,1.237,1.791,0C30.258,25.839,28.467,25.839,28.467,26.987z"/>
<path fill="#7D5037" d="M28.645,27.383c0,0.71,1.436,0.71,1.436,0C30.08,26.726,28.645,26.726,28.645,27.383z"/>
<path fill="#1A1626" d="M28.99,27.008c0,0.513,0.744,0.513,0.744,0C29.734,26.531,28.99,26.531,28.99,27.008z"/>
<path fill="#AB968C" d="M28.738,26.857c0,0.26,0.375,0.26,0.375,0C29.113,26.616,28.738,26.616,28.738,26.857z"/>
<path fill="#423225" d="M36.316,27.127c0-1.513-3.131-1.513-3.131,0.24C33.633,25.928,35.869,25.928,36.316,27.127z"/>
<path fill="#423225" d="M27.686,27.127c0-1.513,3.131-1.513,3.131,0.24C30.369,25.928,28.133,25.928,27.686,27.127z"/>
<path fill="#45332C" d="M34.061,31.526c-0.225-0.361-0.771-0.602-2.059-0.602s-1.834,0.24-2.061,0.602
	c-0.121,0.191,0.053,0.502,0.053,0.502c0.215,0.391,0.184,0.502,2.008,0.502c1.82,0,1.793-0.111,2.008-0.502
	C34.01,32.028,34.184,31.718,34.061,31.526z"/>
<path fill="#FFFFFF" d="M33.607,31.524c0.01-0.055-0.02-0.123-0.063-0.15c0,0-0.391-0.25-1.543-0.25c-1.15,0-1.543,0.25-1.543,0.25
	c-0.045,0.027-0.072,0.096-0.061,0.15l0.02,0.104c0.01,0.055,0.059,0.098,0.111,0.098h2.945c0.051,0,0.102-0.043,0.111-0.098
	L33.607,31.524z"/>
<path fill="#FFFFFF" d="M32.002,32.331c0.631,0,1.529,0,1.504-0.209c-0.002-0.037-0.014-0.08-0.029-0.127
	c-0.012-0.053-0.025-0.066-0.135-0.066c-0.236,0-2.498,0-2.682,0c-0.107,0-0.121,0.014-0.135,0.066
	c-0.012,0.047-0.023,0.09-0.029,0.127C30.473,32.331,31.371,32.331,32.002,32.331z"/>
<path fill="#423225" d="M23.039,53.093c0,0,2.574,1.448,4.404,1.448c0.951-3.628-2.602-8.472-3.463-8.981L23.039,53.093z"/>
<path fill="#614A36" d="M25.418,58.153c0,0-0.277,1.474-3.539,0.369c-0.477-3.33-3.004-6.521-3.441-9.393
	c0,0,2.734-3.072,6.035,0.629C25.963,52.846,23.947,55.192,25.418,58.153z"/>
<path fill="#E6EBEF" d="M24.473,49.759c0,0-3.217-2.584-6.035-0.629c0,0-0.41-5.572,5.543-3.57
	C24.873,45.86,25.131,49.483,24.473,49.759z"/>
<path fill="#302C3B" d="M25.75,61.411c0.625-1.836-0.332-3.258-0.332-3.258c-1.605,0.914-3.539,0.369-3.539,0.369
	c-4.967,0.969-5.133,1.74-5.016,2.889H25.75z"/>
<path fill="#7AB51D" d="M25.68,62.001c0.322-0.223,0.07-0.59,0.07-0.59h-8.887c0,0-0.297,0.26,0.027,0.59H25.68z"/>
<path fill="#7AB51D" d="M21.873,58.392c-0.484-0.33-3.131,0.615-2.863,0.848c0.988,0.852,1.662,1.004,1.729,0.391
	c0.662,0.42,1.027,0.063,1.023-0.301C22.473,59.599,22.717,59.017,21.873,58.392z"/>
<path fill="#423225" d="M40.961,53.093c0,0-2.574,1.448-4.402,1.448c-0.953-3.628,2.6-8.472,3.461-8.981L40.961,53.093z"/>
<path fill="#614A36" d="M38.584,58.153c0,0,0.277,1.474,3.539,0.369c0.477-3.33,3.004-6.521,3.439-9.393
	c0,0-2.734-3.072-6.035,0.629C38.039,52.846,40.053,55.192,38.584,58.153z"/>
<path fill="#E6EBEF" d="M39.527,49.759c0,0,3.217-2.584,6.035-0.629c0,0,0.41-5.572-5.543-3.57
	C39.127,45.86,38.869,49.483,39.527,49.759z"/>
<path fill="#302C3B" d="M38.252,61.411c-0.625-1.836,0.332-3.258,0.332-3.258c1.605,0.914,3.539,0.369,3.539,0.369
	c4.967,0.969,5.133,1.74,5.016,2.889H38.252z"/>
<path fill="#7AB51D" d="M38.322,62.001c-0.322-0.223-0.07-0.59-0.07-0.59h8.887c0,0,0.297,0.26-0.027,0.59H38.322z"/>
<path fill="#7AB51D" d="M42.129,58.392c0.484-0.33,3.131,0.615,2.863,0.848c-0.988,0.852-1.662,1.004-1.729,0.391
	c-0.662,0.42-1.027,0.063-1.023-0.301C41.529,59.599,41.285,59.017,42.129,58.392z"/>
</svg>
