<?xml version="1.0" encoding="utf-8"?>
<!-- Generator: Adobe Illustrator 15.0.0, SVG Export Plug-In . SVG Version: 6.00 Build 0)  -->
<!DOCTYPE svg PUBLIC "-//W3C//DTD SVG 1.1//EN" "http://www.w3.org/Graphics/SVG/1.1/DTD/svg11.dtd" [
	<!ENTITY ns_flows "http://ns.adobe.com/Flows/1.0/">
	<!ENTITY ns_extend "http://ns.adobe.com/Extensibility/1.0/">
	<!ENTITY ns_ai "http://ns.adobe.com/AdobeIllustrator/10.0/">
	<!ENTITY ns_graphs "http://ns.adobe.com/Graphs/1.0/">
]>
<svg version="1.1" id="Layer_1" xmlns:x="&ns_extend;" xmlns:i="&ns_ai;" xmlns:graph="&ns_graphs;"
	 xmlns="http://www.w3.org/2000/svg" xmlns:xlink="http://www.w3.org/1999/xlink" xmlns:a="http://ns.adobe.com/AdobeSVGViewerExtensions/3.0/"
	 x="0px" y="0px" width="64px" height="64px" viewBox="0 0 64 64" enable-background="new 0 0 64 64" xml:space="preserve">
<path fill="#856050" d="M48.533,38.396c1.059,15.764-4.707,10.284-5.592,17.55c-0.113,0.917,3.85,1.287,3.975,0.039
	c-0.811-4.041,3.594-2.593,6.004-9.197C53.344,45.625,49.131,41.83,48.533,38.396z"/>
<path fill="#302C3B" d="M59.361,34.368C60.973,26.408,46.672,24,48,33.139c10.266-2.229,1.516,10.339,14,14.432
	C58.172,42.125,58.275,39.725,59.361,34.368z"/>
<path fill="#856050" d="M15.441,55.429c0.838,0.219,3.006-0.037,1.289-3.772c-1.104-2.402,5.502-5.134,7.266-10.482
	C14.357,42.679,10.982,50.96,15.441,55.429z"/>
<path fill="#302C3B" d="M16.73,51.656c0,0-0.436,2.09-1.289,3.772c-0.129,0.255,2.496,1.517,3.307,1.447
	C18.586,55.184,19.502,50.142,16.73,51.656z"/>
<path fill="#302C3B" d="M46.916,55.985c-2.313,0.709-3.143-0.507-3.975-0.039c-0.197,0.11-1.395,2.103,0.688,3.844
	C43.887,60.004,47.549,58.193,46.916,55.985z"/>
<linearGradient id="SVGID_1_" gradientUnits="userSpaceOnUse" x1="31.4868" y1="62" x2="31.4868" y2="11.9751">
	<stop  offset="0" style="stop-color:#916958"/>
	<stop  offset="0.537" style="stop-color:#AE7B65"/>
	<stop  offset="1" style="stop-color:#C2886F"/>
	<a:midPointStop  offset="0" style="stop-color:#916958"/>
	<a:midPointStop  offset="0.4545" style="stop-color:#916958"/>
	<a:midPointStop  offset="1" style="stop-color:#C2886F"/>
</linearGradient>
<path fill="url(#SVGID_1_)" d="M60,57.19c-0.354-0.341,0.176-1.474,0-1.925c-0.438-1.126-3.305-1.886-4-2.886
	c-0.574-0.823-0.021-3.534-1-3.849c-3-0.961-6-3.848-6-4.81c0-1.684,2-3.608,2-6.734c0-3.607-2.375-7.696-7-7.696
	c-4,0-7.438,1.653-10,2.887c-6,0.961-7.791-2.067-9-6.734c-1.068-4.123-2.5-13.469-10-13.469c-3,0-4.879,2.286-6.055,3.707
	c-1.25,1.512-4.795,4.559-4.898,5.598c-0.262,2.627-0.75,3.729,1.832,3.93c-0.115,0.732,1.938,1.107,2.188-0.367
	c0.271-1.595,3.375-0.25,5.041-2.619C14.775,28.455,12,31.215,12,36.025c0,1.528,0.307,2.779,0.811,3.816
	C10.244,39.48,7.9,38.926,7,38.926c-1.104,0-1.715,0.884-2,1.91c-0.582,2.089-3,7.115-3,9.625c0,3.897,3,5.768,4,5.768
	c0.625,0,0.529-4.93-0.334-5.553C3.859,49.37,6.742,44.941,8,43.732c1.414-1.357,4,1.913,8,1.913c1.248,0,2.193-0.62,2.912-1.479
	c2.043,0.489,4.018,0.517,5.088,0.517c5.166,0,10.5-1.924,14-1.924c2.945,0,4.85,5.406,10,6.734c2.16,0.557,4.215,1.704,5,2.886
	c0.957,1.443,3,9.62,7,9.62C62,62,60.354,57.53,60,57.19z"/>
<path fill="#38434A" d="M5.666,50.676c0,0-0.666,2.666-1.666,4.59c-0.15,0.292,1.16,2.335,3.234,1.846
	C7.125,54.18,9.453,50.676,5.666,50.676z"/>
<path fill="#529320" d="M29.428,15.906c-0.496,1.047-1.953,5.03-5.094,6.413C27.787,26.735,30.895,18.48,29.428,15.906z"/>
<path fill="#94989B" d="M38.795,20.846c-7.066,5.111-9.236,6.779-7.631,9.696C37.508,32.917,35.553,29.204,38.795,20.846z"/>
<path fill="#302C3B" d="M11.943,16.283c-0.18-0.263-3.377-1.016-1.848,1.313C10.82,16.775,12.125,16.546,11.943,16.283z"/>
<path fill="#302C3B" d="M5.506,18.879c1.322,1.677,2.307,3.391,3.002,5.379C8.715,24.846,9.67,24.594,9.463,24
	c-0.725-2.067-1.734-3.864-3.104-5.611C5.947,17.854,5.199,18.49,5.506,18.879z"/>
<path fill="#302C3B" d="M38.139,36.148c0,0,0.705,4.624-1.043,6.749c0,0,1.846-0.187,2.621,0.428
	c1.568-3.781,0.549-7.778,0.547-7.781L38.139,36.148z"/>
<path fill="#302C3B" d="M29.826,34.673c0,0-1.621,4.988-0.176,9.64c0,0-1.51,0.094-2.621,0.428
	c-1.234-5.942,0.477-10.155,0.477-10.158L29.826,34.673z"/>
<path fill="#99A8AE" d="M24.656,26.735c0,0-1.318,11.001,10.129,11.337c7.002,0.207,9.875-8.825,7.271-8.975
	C38.764,28.907,30.244,34.549,24.656,26.735z"/>
<path fill="#302C3B" d="M26,28.329c0,0,1.779,7.819,8.785,7.819c3.211,0,6.115-3.101,6.115-6.949
	C37.512,29.645,32.088,31.963,26,28.329z"/>
<path fill="#302C3B" d="M25.248,22.748c0-4.979-2.248-7.888-5.689-7.888L20,16.784c2.221,2.137,2.615,4.104,3,5.772
	c1,4.329,3,5.772,3,5.772S25.248,24.81,25.248,22.748z"/>
<path fill="#302C3B" d="M22.127,19.01c1.504-4.164-1.127-6.695-4.654-6.695c0,0-0.645,1.879,0.467,3.826
	c0.941,1.654,2.17,2.603,2.17,5.332C20.111,25.021,22,25.443,22,25.443S21,22.136,22.127,19.01z"/>
<path fill="#302C3B" d="M17,16.784c0-3.026-2-5.772-2-5.772c4.502,0,4.59,4.887,4,7.697c-0.406,1.93,0,3.848,0,3.848
	S17,21.595,17,16.784z"/>
<path fill="#302C3B" d="M13,11.012c-1.5,0-3.553,1.393-2,2.887c0.969,0.932,2.082,0.962,3,2.886c0,0,0.916-1.042,0-1.924
	C11.176,12.145,13,11.012,13,11.012z"/>
<path fill="#C2886F" d="M12,8.126c0,0,0,5.772,1.418,5.772C16.521,13.898,17.67,10.051,12,8.126z"/>
<path fill="#302C3B" d="M19.303,23.748c-3.328,0.154-6.988-0.511-10.373-1.576c-0.727-0.232-1.199,0.657-0.467,0.889
	c3.539,1.116,7.344,1.954,10.84,1.809V23.748z"/>
<path fill="#856050" d="M13,10.051c0,0,0,2.886,1,2.886C14.957,12.937,15,11.012,13,10.051z"/>
<path fill="#755035" d="M28.115,15.916c0.977-1.125,1.279,0.797,2.299,0.963c0,0,0.238-1.633,2.756-2.939
	c0,0-0.818-0.883-1.813-2.469C29.197,6.83,28.115,15.916,28.115,15.916z"/>
<path fill="#916B50" d="M21.42,9.338c0.068,0.785,0.375,1.325,0.832,1.875c0.711,0.845,0.516,1.537,0.129,2.563
	c-0.369,0.972,0.699,1.131,1.443,0.744c0.266,0.142,0.395,0.516,0.395,0.516s0.793,0.154,0.734,1.181
	c0.891,0.271,0.357,1.794,1.855,1.097c1.465-0.68,2.811-2.688,2.975-3.16c0.258-0.746-0.369-2.345-0.369-2.345
	c1.027,0.524,1.84-1.677,0.977-3.421C28.961,5.494,24.467,2.813,21.42,9.338z"/>
<path fill="#755035" d="M28.479,9.963c-0.375-0.678-0.123-1.557,0.451-1.852c0,0-0.545,1.307,0.301,2.268
	C29.23,10.379,28.732,10.435,28.479,9.963z"/>
<path fill="#F5F5F5" d="M25.342,11.186c-0.186,0.594-1.027,1.242-1.373,1.316C22.17,10.604,24.404,10.463,25.342,11.186z"/>
<path fill="#45332C" d="M24.008,12.491c0.893-0.413-0.695-2.546-0.725-1.007C23.354,11.723,23.826,12.576,24.008,12.491z"/>
<path fill="#755035" d="M25.342,11.186c-0.648-0.767-2.504-0.729-2.059,0.299C23.279,10.83,24.547,10.709,25.342,11.186z"/>
<path fill="#F5F5F5" d="M23.572,11.391c0.104,0.213,0.42,0.066,0.316-0.145C23.789,11.049,23.473,11.193,23.572,11.391z"/>
<path fill="#664129" d="M24.732,9.662c-0.842-0.154-2.045,0.375-2.334,0.892c-0.068,0.104,0.205,0.496,0.264,0.418
	c0.457-0.616,1.451-1.087,2.211-0.989C24.971,9.994,24.857,9.682,24.732,9.662z"/>
<path fill="#664129" d="M24.4,15.336c0.371,0.045,0.291,0.438,0.291,0.438c-0.137,0.063,0.059,0.536,0.262,0.442
	c1.01-0.47,1.076-1.287,1.172-1.772C24.986,14.901,23.607,14.876,24.4,15.336z"/>
<path fill="#FFFFFF" d="M24.4,15.336c0,0,0.211,0.4,0.291,0.438c0.223-0.102,0.959-0.654,1.256-1.158L24.4,15.336z"/>
<path fill="#614036" d="M29.926,3.828c-1.232-0.853-2.98-0.968-5.395,0.151c-2.223,1.03-3.211,2.368-3.928,2.362
	c0,0,0.061,0.412,0.357,0.648c-0.303,0.157-0.582,0.045-0.582,0.049c-0.049,0.436,0.018,1.486,1.041,2.299
	c2.885-2.903,3.686-1.802,4.963-1.221c0.295,0.137,0.203,1.39,1.621,1.96c-0.902-2.306,1.893-3.347,2.529-1.286
	c0.408,1.319,0.098,2.1-0.072,2.523c0.584-0.083,1.057,0.408,1.057,0.408C34.025,10.559,32.051,4.258,29.926,3.828z"/>
<path fill="#755035" d="M24.289,13.83c0.043,0.354-0.367,0.659-0.641,0.785c-0.367,0.17-0.803,0.161-1.09-0.016
	C22.547,14.229,23.717,14.614,24.289,13.83z"/>
<path fill="#302C3B" d="M31.156,7.107c0,0-0.932-0.117-0.885,0.094c0.191,0.878-0.148,3.07-0.148,3.07s-2.568-0.904-3.893-3.112
	c-0.111-0.189-0.682,0.354-0.682,0.569c-0.006,1.316,4.354,3.555,4.354,3.555s-0.721,3.637-1.52,4.818
	C31.459,14.695,31.156,7.107,31.156,7.107z"/>
<path fill="#E81C27" d="M25.344,2.137c-3.572,0.715-5.885,4.023-5.168,7.388c0.197,0.928,3.805-1.03,6.393-1.548
	c2.361-0.472,6.781,0.105,6.537-1.035C32.389,3.576,28.914,1.424,25.344,2.137z"/>
<path fill="#916B50" d="M21.979,23.362l-0.906,0.052c-0.787-0.509-1.58-0.176-2.424-0.205c-0.432-0.014-0.984,0.287-0.861,0.555
	l0.639,0.131c-0.385,0.41-1.162,1.112-0.551,1.326c1.117,0.39,0.938,0.994,2.277,1.199c0.488,0.074,1.238-0.466,1.486-0.795
	l0.895-0.113L21.979,23.362z"/>
<path fill="#7AB51D" d="M28.053,22.174c0,0-3.736,0.797-6.563,1.047c0,0,0.832,1.691,0.461,2.521c0,0,6.291-0.172,7.977-1.149
	c1.527-0.886,3.879-5.379,3.879-5.379l4.988,1.633c0,0,3.639-0.494,6.428-3.388c0,0-3.758-4.356-13.051-4.774
	c0,0-1.293,0.902-2.406,3.09C28.955,17.693,29.35,19.469,28.053,22.174z"/>
<path fill="#D0D0D0" d="M38.795,20.846c0,0-4.896,4.58-5.914,7.451c-0.689,1.945,1.605,4.65,2.047,5.541
	c0,0,2.252,0.094,3.449-1.252c0,0,0.021-1.025-1.721-3.48c0,0,5.654-2.326,7.822-4.414c2.164-2.088,2.641-4.04,0.744-7.233
	L38.795,20.846z"/>
<path fill="#594640" d="M36.639,38.314c0,0-3.283,2.525-3.348,3.137c-0.07,0.613,0.766,0.724,0.766,0.724s3.266-0.229,6.619-1.729
	l-2.732-9.668c0,0-1.145,1.475-3.99,2.204L36.639,38.314z"/>
<path fill="#38434A" d="M60,57.19c0,0-0.336,2.405-2.672,3.484C57.328,60.675,58,62,60,62S61.707,57.19,60,57.19z"/>
<path fill="#302C3B" d="M35.146,37.324c0,0-0.049,2.053,0.957,4.63c0,0-0.922,0.577-1.928,0.413
	c-1.09-2.637-0.834-5.043-0.834-5.043H35.146z"/>
<path fill="#856050" d="M4.631,21.303c0.121,0.768-0.207,1.662-0.031,1.653C4.773,22.947,6.152,21.281,4.631,21.303z"/>
<path fill="#856050" d="M6.057,25.605c-0.26-0.296-0.26-0.296-0.623-0.444C8.156,21.741,7.857,22.074,6.057,25.605z"/>
<path fill="#99A8AE" d="M9.164,22.632c0,1.519-2.369,1.519-2.369,0S9.164,21.113,9.164,22.632z"/>
</svg>
