<?xml version="1.0" encoding="utf-8"?>
<!-- Generator: Adobe Illustrator 15.0.0, SVG Export Plug-In . SVG Version: 6.00 Build 0)  -->
<!DOCTYPE svg PUBLIC "-//W3C//DTD SVG 1.1//EN" "http://www.w3.org/Graphics/SVG/1.1/DTD/svg11.dtd" [
	<!ENTITY ns_flows "http://ns.adobe.com/Flows/1.0/">
	<!ENTITY ns_extend "http://ns.adobe.com/Extensibility/1.0/">
	<!ENTITY ns_ai "http://ns.adobe.com/AdobeIllustrator/10.0/">
	<!ENTITY ns_graphs "http://ns.adobe.com/Graphs/1.0/">
]>
<svg version="1.1" id="Layer_1" xmlns:x="&ns_extend;" xmlns:i="&ns_ai;" xmlns:graph="&ns_graphs;"
	 xmlns="http://www.w3.org/2000/svg" xmlns:xlink="http://www.w3.org/1999/xlink" xmlns:a="http://ns.adobe.com/AdobeSVGViewerExtensions/3.0/"
	 x="0px" y="0px" width="64px" height="64px" viewBox="0 0 64 64" enable-background="new 0 0 64 64" xml:space="preserve">
<path fill="#856050" d="M48.532,38.396c1.059,15.764-4.706,10.285-5.592,17.551c-0.112,0.916,3.851,1.286,3.975,0.038
	c-0.81-4.04,3.594-2.593,6.004-9.196C53.344,45.625,49.131,41.83,48.532,38.396z"/>
<path fill="#856050" d="M4.63,21.303c0.121,0.768-0.207,1.662-0.031,1.653C4.772,22.947,6.152,21.281,4.63,21.303z"/>
<path fill="#856050" d="M6.056,25.605c-0.26-0.296-0.26-0.296-0.623-0.444C8.155,21.741,7.856,22.074,6.056,25.605z"/>
<path fill="#302C3B" d="M59.36,34.368C60.973,26.408,46.671,24,48,33.139c10.265-2.229,1.515,10.339,14,14.432
	C58.171,42.125,58.275,39.725,59.36,34.368z"/>
<path fill="#856050" d="M15.44,55.429c0.839,0.22,3.007-0.036,1.29-3.772c-1.104-2.402,5.502-5.133,7.265-10.482
	C14.357,42.68,10.982,50.961,15.44,55.429z"/>
<path fill="#302C3B" d="M16.73,51.656c0,0-0.436,2.09-1.29,3.772c-0.129,0.255,2.497,1.517,3.308,1.447
	C18.586,55.184,19.501,50.142,16.73,51.656z"/>
<path fill="#302C3B" d="M46.915,55.985c-2.312,0.71-3.143-0.507-3.975-0.038c-0.196,0.109-1.394,2.102,0.688,3.843
	C43.886,60.004,47.549,58.193,46.915,55.985z"/>
<linearGradient id="SVGID_1_" gradientUnits="userSpaceOnUse" x1="31.4868" y1="62" x2="31.4868" y2="11.9751">
	<stop  offset="0" style="stop-color:#916958"/>
	<stop  offset="0.537" style="stop-color:#AE7B65"/>
	<stop  offset="1" style="stop-color:#C2886F"/>
	<a:midPointStop  offset="0" style="stop-color:#916958"/>
	<a:midPointStop  offset="0.4545" style="stop-color:#916958"/>
	<a:midPointStop  offset="1" style="stop-color:#C2886F"/>
</linearGradient>
<path fill="url(#SVGID_1_)" d="M60,57.19c-0.354-0.341,0.176-1.474,0-1.925c-0.438-1.126-3.305-1.886-4-2.886
	c-0.574-0.823-0.021-3.534-1-3.849c-3-0.961-6-3.848-6-4.81c0-1.684,2-3.608,2-6.734c0-3.607-2.375-7.696-7-7.696
	c-4,0-7.438,1.653-10,2.887c-6,0.961-7.791-2.067-9-6.734c-1.068-4.123-2.5-13.469-10-13.469c-3,0-4.879,2.286-6.055,3.707
	c-1.25,1.512-4.796,4.559-4.899,5.598c-0.262,2.627-0.75,3.729,1.833,3.93c-0.115,0.732,1.937,1.107,2.188-0.367
	c0.271-1.595,3.375-0.25,5.04-2.619C14.774,28.455,12,31.215,12,36.025c0,1.529,0.306,2.779,0.811,3.816
	C10.244,39.48,7.9,38.926,7,38.926c-1.104,0-1.715,0.884-2,1.91c-0.582,2.089-3,7.115-3,9.625c0,3.897,3,5.768,4,5.768
	c0.625,0,0.528-4.93-0.334-5.553C3.858,49.37,6.742,44.941,8,43.732c1.414-1.357,4,1.913,8,1.913c1.247,0,2.192-0.62,2.911-1.478
	c2.043,0.488,4.018,0.516,5.089,0.516c5.166,0,10.5-1.924,14-1.924c2.945,0,4.85,5.406,10,6.734c2.16,0.557,4.215,1.704,5,2.886
	c0.957,1.443,3,9.62,7,9.62C62,62,60.354,57.53,60,57.19z"/>
<path fill="#38434A" d="M5.666,50.676c0,0-0.666,2.666-1.666,4.59c-0.15,0.292,1.159,2.335,3.233,1.846
	C7.124,54.18,9.452,50.676,5.666,50.676z"/>
<path fill="#7AB51D" d="M29.427,15.906c-0.495,1.047-1.953,5.03-5.094,6.413C27.786,26.735,30.894,18.48,29.427,15.906z"/>
<path fill="#94989B" d="M38.795,20.846c-7.067,5.111-9.237,6.779-7.631,9.696C37.508,32.917,35.552,29.204,38.795,20.846z"/>
<path fill="#302C3B" d="M11.943,16.283c-0.18-0.263-3.377-1.016-1.848,1.313C10.819,16.775,12.125,16.546,11.943,16.283z"/>
<path fill="#302C3B" d="M5.505,18.879c1.322,1.677,2.308,3.391,3.003,5.379C8.715,24.846,9.67,24.594,9.463,24
	c-0.725-2.067-1.735-3.864-3.104-5.611C5.946,17.854,5.198,18.49,5.505,18.879z"/>
<path fill="#302C3B" d="M38.139,36.148c0,0,0.704,4.625-1.044,6.75c0,0,1.847-0.188,2.621,0.428
	c1.568-3.782,0.549-7.779,0.548-7.782L38.139,36.148z"/>
<path fill="#302C3B" d="M29.826,34.674c0,0-1.622,4.988-0.177,9.639c0,0-1.509,0.094-2.621,0.428
	c-1.233-5.941,0.477-10.154,0.478-10.158L29.826,34.674z"/>
<path fill="#99A8AE" d="M24.656,26.735c0,0-1.319,11.001,10.128,11.337c7.003,0.207,9.875-8.825,7.271-8.975
	C38.763,28.907,30.243,34.549,24.656,26.735z"/>
<path fill="#302C3B" d="M26,28.329c0,0,1.778,7.819,8.784,7.819c3.211,0,6.115-3.101,6.115-6.949
	C37.511,29.645,32.087,31.963,26,28.329z"/>
<path fill="#302C3B" d="M25.248,22.748c0-4.979-2.248-7.888-5.689-7.888L20,16.784c2.221,2.137,2.615,4.104,3,5.772
	c1,4.329,3,5.772,3,5.772S25.248,24.81,25.248,22.748z"/>
<path fill="#302C3B" d="M22.127,19.01c1.504-4.164-1.127-6.695-4.654-6.695c0,0-0.645,1.879,0.467,3.826
	c0.941,1.654,2.17,2.603,2.17,5.332C20.111,25.021,22,25.443,22,25.443S21,22.136,22.127,19.01z"/>
<path fill="#302C3B" d="M17,16.784c0-3.026-2-5.772-2-5.772c4.502,0,4.59,4.887,4,7.697c-0.406,1.93,0,3.848,0,3.848
	S17,21.595,17,16.784z"/>
<path fill="#302C3B" d="M13,11.012c-1.5,0-3.553,1.393-2,2.887c0.969,0.932,2.082,0.962,3,2.886c0,0,0.916-1.042,0-1.924
	C11.176,12.145,13,11.012,13,11.012z"/>
<path fill="#C2886F" d="M12,8.126c0,0,0,5.772,1.418,5.772C16.521,13.898,17.67,10.051,12,8.126z"/>
<path fill="#302C3B" d="M19.302,23.748c-3.328,0.154-6.987-0.511-10.372-1.576c-0.728-0.232-1.199,0.657-0.467,0.889
	c3.538,1.116,7.344,1.954,10.839,1.809V23.748z"/>
<path fill="#856050" d="M13,10.051c0,0,0,2.886,1,2.886C14.957,12.937,15,11.012,13,10.051z"/>
<path fill="#99A8AE" d="M9.163,22.632c0,1.519-2.369,1.519-2.369,0S9.163,21.113,9.163,22.632z"/>
<path fill="#F7C259" d="M28.114,15.916c0.978-1.125,1.279,0.797,2.3,0.963c0,0,0.237-1.633,2.755-2.939c0,0-0.818-0.883-1.813-2.469
	C29.196,6.83,28.114,15.916,28.114,15.916z"/>
<path fill="#FFCC66" d="M21.42,9.338c0.067,0.785,0.374,1.325,0.832,1.875c0.711,0.845,0.516,1.537,0.128,2.563
	c-0.369,0.972,0.7,1.131,1.443,0.744c0.266,0.142,0.396,0.516,0.396,0.516s0.792,0.154,0.733,1.181
	c0.891,0.271,0.357,1.794,1.856,1.097c1.464-0.68,2.81-2.688,2.974-3.16c0.258-0.746-0.368-2.345-0.368-2.345
	c1.027,0.524,1.839-1.677,0.977-3.421C28.96,5.494,24.466,2.813,21.42,9.338z"/>
<path fill="#E6B045" d="M28.478,9.963c-0.374-0.678-0.123-1.557,0.451-1.852c0,0-0.545,1.307,0.301,2.268
	C29.229,10.379,28.732,10.435,28.478,9.963z"/>
<path fill="#F5F5F5" d="M25.342,11.186c-0.187,0.594-1.027,1.242-1.374,1.316C22.17,10.604,24.403,10.463,25.342,11.186z"/>
<path fill="#45332C" d="M24.007,12.491c0.894-0.413-0.695-2.546-0.724-1.007C23.353,11.723,23.826,12.576,24.007,12.491z"/>
<path fill="#E6B045" d="M25.342,11.186c-0.649-0.767-2.504-0.729-2.059,0.299C23.278,10.83,24.547,10.709,25.342,11.186z"/>
<path fill="#F5F5F5" d="M23.571,11.391c0.104,0.213,0.421,0.066,0.316-0.145C23.789,11.049,23.472,11.193,23.571,11.391z"/>
<path fill="#C1873C" d="M24.731,9.662c-0.841-0.154-2.044,0.375-2.333,0.892c-0.069,0.104,0.205,0.496,0.264,0.418
	c0.457-0.616,1.45-1.087,2.21-0.989C24.971,9.994,24.856,9.682,24.731,9.662z"/>
<path fill="#E6A400" d="M24.399,15.336c0.371,0.045,0.292,0.438,0.292,0.438c-0.138,0.063,0.058,0.536,0.261,0.442
	c1.011-0.47,1.076-1.287,1.173-1.772C24.985,14.901,23.606,14.876,24.399,15.336z"/>
<path fill="#FFFFFF" d="M24.399,15.336c0,0,0.211,0.4,0.292,0.438c0.222-0.102,0.958-0.654,1.255-1.158L24.399,15.336z"/>
<path fill="#594640" d="M29.925,3.828c-1.231-0.853-2.98-0.968-5.394,0.151c-2.224,1.03-3.212,2.368-3.928,2.362
	c0,0,0.06,0.412,0.356,0.648c-0.302,0.157-0.582,0.045-0.581,0.049c-0.049,0.436,0.018,1.486,1.041,2.299
	c2.885-2.903,3.686-1.802,4.963-1.221c0.294,0.137,0.203,1.39,1.62,1.96c-0.901-2.306,1.893-3.347,2.529-1.286
	c0.408,1.319,0.098,2.1-0.072,2.523c0.585-0.083,1.058,0.408,1.058,0.408C34.025,10.559,32.051,4.258,29.925,3.828z"/>
<path fill="#E6B045" d="M24.289,13.83c0.043,0.354-0.367,0.659-0.641,0.785c-0.367,0.17-0.804,0.161-1.09-0.016
	C22.547,14.229,23.716,14.614,24.289,13.83z"/>
<path fill="#302C3B" d="M31.156,7.107c0,0-0.932-0.117-0.886,0.094c0.191,0.878-0.147,3.07-0.147,3.07s-2.569-0.904-3.894-3.112
	c-0.111-0.189-0.681,0.354-0.682,0.569c-0.006,1.316,4.354,3.555,4.354,3.555s-0.72,3.637-1.519,4.818
	C31.458,14.695,31.156,7.107,31.156,7.107z"/>
<path fill="#E81C27" d="M25.343,2.137c-3.572,0.715-5.885,4.023-5.168,7.388c0.197,0.928,3.805-1.03,6.394-1.548
	c2.36-0.472,6.78,0.105,6.536-1.035C32.389,3.576,28.914,1.424,25.343,2.137z"/>
<path fill="#FFCC66" d="M21.978,23.362l-0.905,0.052c-0.788-0.509-1.58-0.176-2.425-0.205c-0.432-0.014-0.983,0.287-0.86,0.555
	l0.639,0.131c-0.386,0.41-1.162,1.112-0.551,1.326c1.116,0.39,0.937,0.994,2.277,1.199c0.487,0.074,1.237-0.466,1.485-0.795
	l0.895-0.113L21.978,23.362z"/>
<path fill="#92C932" d="M28.052,22.174c0,0-3.735,0.797-6.563,1.047c0,0,0.832,1.691,0.462,2.521c0,0,6.29-0.172,7.976-1.149
	c1.527-0.886,3.88-5.379,3.88-5.379l4.988,1.633c0,0,3.638-0.494,6.428-3.388c0,0-3.759-4.356-13.051-4.774
	c0,0-1.294,0.902-2.407,3.09C28.954,17.693,29.349,19.469,28.052,22.174z"/>
<path fill="#D0D0D0" d="M38.795,20.846c0,0-4.896,4.58-5.915,7.451c-0.689,1.945,1.605,4.65,2.048,5.541
	c0,0,2.252,0.094,3.448-1.252c0,0,0.021-1.025-1.721-3.48c0,0,5.655-2.326,7.822-4.414c2.164-2.088,2.641-4.04,0.745-7.233
	L38.795,20.846z"/>
<path fill="#594640" d="M36.638,38.314c0,0-3.282,2.525-3.348,3.137c-0.069,0.613,0.767,0.725,0.767,0.725s3.265-0.229,6.619-1.73
	l-2.732-9.667c0,0-1.145,1.474-3.991,2.204L36.638,38.314z"/>
<path fill="#38434A" d="M60,57.19c0,0-0.336,2.405-2.672,3.484C57.328,60.675,58,62,60,62S61.707,57.19,60,57.19z"/>
<path fill="#302C3B" d="M35.146,37.324c0,0-0.049,2.053,0.957,4.631c0,0-0.923,0.576-1.929,0.412
	c-1.09-2.637-0.834-5.043-0.834-5.043H35.146z"/>
</svg>
