<?xml version="1.0" encoding="utf-8"?>
<!-- Generator: Adobe Illustrator 19.0.0, SVG Export Plug-In . SVG Version: 6.00 Build 0)  -->
<svg version="1.1" id="Layer_1" xmlns="http://www.w3.org/2000/svg" xmlns:xlink="http://www.w3.org/1999/xlink" x="0px" y="0px"
	 width="64px" height="64px" viewBox="0 0 64 64" enable-background="new 0 0 64 64" xml:space="preserve">
<path fill="#7AB51D" d="M8,58.901c0,0,2.693,2.688,6.544,2.505L17.149,62c0.206-0.33,0.092-0.45,0.092-0.45
	s-1.786-1.842-8.942-2.935C8.299,58.615,8.103,58.574,8,58.901z"/>
<path fill="#302C3B" d="M14.656,57.1c-1.132,1.209-5.602-0.896-6.357,1.516c0,0,2.487,2.525,6.338,2.342l2.604,0.593
	C20.798,55.853,14.656,57.1,14.656,57.1z"/>
<path fill="#7AB51D" d="M11.498,57.416c0.661,1.098,1.23,1.423,1.462,0.834c0.484,0.589,0.917,0.329,1.017-0.031
	c0.569,0.45,0.955-0.062,0.362-0.897C13.992,56.87,11.32,57.12,11.498,57.416z"/>
<path fill="#7AB51D" d="M55.816,53.983c0,0,0.892-3.712-1.256-6.936l-0.843-2.552c-0.387-0.006-0.43,0.153-0.43,0.153
	s-0.643,2.493,2.131,9.225C55.419,53.873,55.485,54.063,55.816,53.983z"/>
<path fill="#302C3B" d="M50.842,49.179c1.613,0.35,2.136,5.292,4.577,4.694c0,0,0.86-3.45-1.288-6.673l-0.843-2.552
	C49.109,45.022,49.896,46.542,50.842,49.179z"/>
<path fill="#7AB51D" d="M52.744,51.736c0.592-1.137,0.573-1.796-0.046-1.691c0.25-0.722-0.195-0.96-0.553-0.859
	c0.088-0.724-0.547-0.791-0.951,0.151C50.99,49.87,52.585,52.043,52.744,51.736z"/>
<path fill="#FFCC66" d="M23.793,33.569c-2.928,2.794-7.773,8.783-7.712,10.821c0.157,5.191-1.085,11.544-1.085,11.544
	c0.239,1.089,2.853,1.563,3.443,0.775c1.103-4.981,3.354-5.795,2.574-11.343c4.206-2.775,6.413-7.317,8.358-7.803
	c0.226,5.821,5.268,12.123,6.332,12.376c1.155,0.274,5.875-1.265,13.859-1.052c0.652,0.017,0.201-3.243-0.124-3.24
	c-6.001,0.067-8.849-1.653-11.972-0.007c-0.373-3.841-2.021-5.853-2.103-9.664C35.349,35.286,23.793,33.569,23.793,33.569z"/>
<path fill="#F2F5F7" d="M14.996,55.935c-0.141,0.845-0.238,1.464-0.238,1.464s1.132,1.077,3.304,0.934
	c0.127-0.59,0.232-1.112,0.378-1.622C17.925,57.079,15.59,56.697,14.996,55.935z"/>
<path fill="#F2F5F7" d="M50.709,45.61c-0.441,0.021-0.862,0.032-1.271,0.038c0.457,0.972,0.386,2.646,0.124,3.24
	c0.378,0.002,0.758,0.005,1.147,0.016C51.361,48.921,51.034,45.595,50.709,45.61z"/>
<path fill="#F7C259" d="M19.895,16.753c1.334-1.089,1.219,1.946,1.312,2.296c0,0,1.653-2.551,4.736-3.534
	c0,0-0.717-1.175-1.472-3.191C23.089,6.579,19.895,16.753,19.895,16.753z"/>
<path fill="#FFCC66" d="M13.955,7.86c-0.093,0.911,0.129,1.591,0.516,2.313c0.6,1.11,0.237,1.862-0.407,2.953
	c-0.614,1.035,0.527,1.436,1.426,1.147c0.263,0.215,0.326,0.67,0.326,0.67s0.837,0.341,0.554,1.5c0.923,0.493,0.01,2.12,1.807,1.633
	c1.754-0.475,3.663-2.494,3.944-3c0.443-0.799,0.099-2.753,0.099-2.753c1.015,0.81,2.378-1.538,1.802-3.707
	C23.067,5.017,18.701,1.03,13.955,7.86z"/>
<path fill="#E6B045" d="M21.581,10.022c-0.264-0.849,0.198-1.803,0.892-2.021c0,0-0.876,1.38-0.152,2.652
	C22.32,10.653,21.763,10.614,21.581,10.022z"/>
<path fill="#F5F5F5" d="M17.873,10.776c-0.333,0.64-1.397,1.208-1.794,1.222C14.51,9.46,16.995,9.758,17.873,10.776z"/>
<path fill="#45332C" d="M16.125,11.995c1.072-0.291-0.22-3.05-0.579-1.299C15.57,10.981,15.907,12.054,16.125,11.995z"/>
<path fill="#E6B045" d="M17.873,10.776c-0.549-1.009-2.597-1.346-2.327-0.08C15.679,9.946,17.102,10.069,17.873,10.776z"/>
<path fill="#F5F5F5" d="M15.881,10.648c0.069,0.265,0.448,0.162,0.379-0.102C16.194,10.302,15.815,10.403,15.881,10.648z"/>
<path fill="#C1873C" d="M17.526,8.912c-0.89-0.351-2.327,0.008-2.755,0.538c-0.097,0.105,0.119,0.609,0.2,0.533
	c0.634-0.611,1.827-0.944,2.644-0.677C17.721,9.339,17.661,8.958,17.526,8.912z"/>
<path fill="#E6A400" d="M15.948,15.323c0.398,0.129,0.229,0.561,0.229,0.561c-0.165,0.045-0.052,0.625,0.192,0.558
	c1.211-0.328,1.46-1.25,1.668-1.784C16.686,14.948,15.176,14.635,15.948,15.323z"/>
<path fill="#FFFFFF" d="M15.948,15.323c0,0,0.148,0.502,0.229,0.561c0.266-0.072,1.192-0.553,1.629-1.065L15.948,15.323z"/>
<path fill="#594640" d="M24.484,3.314c-1.172-1.227-3.07-1.719-5.962-0.936c-2.665,0.721-4.038,2.045-4.823,1.893
	c0,0-0.023,0.483,0.252,0.813c-0.363,0.118-0.648-0.068-0.648-0.064c-0.145,0.489-0.297,1.702,0.652,2.84
	c3.793-2.724,4.437-1.3,5.718-0.375c0.295,0.214-0.074,1.628,1.363,2.57c-0.498-2.819,2.794-3.433,3.054-0.949
	c0.168,1.591-0.341,2.417-0.618,2.869c0.662,0.023,1.125,0.669,1.125,0.669C27.604,11.83,26.73,4.239,24.484,3.314z"/>
<path fill="#E6B045" d="M16.15,13.581c-0.027,0.412-0.545,0.677-0.872,0.766c-0.439,0.12-0.919,0.018-1.194-0.242
	C14.149,13.68,15.353,14.359,16.15,13.581z"/>
<path fill="#1A1626" d="M30.271,42.788c0,0,4.184-0.104,6.53-1.539c-0.458-4.664-1.465-8.473-3.188-10.87
	C28.561,31.371,24.866,34.363,30.271,42.788z"/>
<path fill="#302C3B" d="M24.264,31.214c-1.431,2.349-3.828,5.738-5.37,7.203c0,0,2.303,3.002,6.461,3.601
	c3.184-2.731,15.033-4.665,8.258-11.639C28.561,31.371,24.264,31.214,24.264,31.214z"/>
<path fill="#FFCC66" d="M23.605,20.988c-2.452-1.246-3.742,3.428-3.734,4.715c-2.207-1.122-5.975-2.125-5.919-2.527
	c0.145-1.032-0.077-1.097-1.053-2.33c-0.269-0.341-0.857,0.208-0.857,0.208c-0.845-0.628-0.803,0.243-1.356,0.513
	c-0.515,0.249-0.307,0.676-0.792,1.03c-1.08,0.789,0.558,2.386,2.481,2.98c1.377,0.427,5.684,4.954,9.306,4.797
	C22.883,30.323,26.15,22.914,23.605,20.988z"/>
<path fill="#7AB51D" d="M25.42,14.32c-1.352,0.156-2.969,2.975-4.343,3.114c-3.446,6.298,2.121,8.612,2.626,14.479
	c0.803,1.317,9.441,0.675,10.244-1.413C29.387,25.055,35.915,16.617,25.42,14.32z"/>
<path fill="#FFCC66" d="M29.815,17.706c-2.57,3.322,4.107,4.858,5.436,5.05c-1.524,1.898-5.343,7.594-5.724,7.421
	c-1.109-0.5-1.143-0.099-2.578,0.628c-0.398,0.199,0.073,0.836,0.073,0.836c-0.79,0.696,0.117,0.791,0.304,1.354
	c0.174,0.521,0.648,0.392,0.932,0.902c0.636,1.137,2.556-0.152,3.487-1.866c0.666-1.228,7.606-6.439,8.044-9.866
	C39.936,21.03,32.225,15.614,29.815,17.706z"/>
<path fill="#529320" d="M31.018,22.102c1.08-2.349,2.466-4.096,3.07-4.567C25.526,10.261,21.258,18.668,31.018,22.102z"/>
</svg>
