<?xml version="1.0" encoding="utf-8"?>
<!-- Generator: Adobe Illustrator 15.0.0, SVG Export Plug-In . SVG Version: 6.00 Build 0)  -->
<!DOCTYPE svg PUBLIC "-//W3C//DTD SVG 1.1//EN" "http://www.w3.org/Graphics/SVG/1.1/DTD/svg11.dtd" [
	<!ENTITY ns_flows "http://ns.adobe.com/Flows/1.0/">
	<!ENTITY ns_extend "http://ns.adobe.com/Extensibility/1.0/">
	<!ENTITY ns_ai "http://ns.adobe.com/AdobeIllustrator/10.0/">
	<!ENTITY ns_graphs "http://ns.adobe.com/Graphs/1.0/">
]>
<svg version="1.1" id="Layer_1" xmlns:x="&ns_extend;" xmlns:i="&ns_ai;" xmlns:graph="&ns_graphs;"
	 xmlns="http://www.w3.org/2000/svg" xmlns:xlink="http://www.w3.org/1999/xlink" xmlns:a="http://ns.adobe.com/AdobeSVGViewerExtensions/3.0/"
	 x="0px" y="0px" width="64px" height="64px" viewBox="0 0 64 64" enable-background="new 0 0 64 64" xml:space="preserve">
<radialGradient id="SVGID_1_" cx="31.9814" cy="51.7412" r="28.2151" gradientTransform="matrix(1.0074 0 0 0.9864 -0.2178 -2.4359)" gradientUnits="userSpaceOnUse">
	<stop  offset="0" style="stop-color:#FAC703"/>
	<stop  offset="0.3506" style="stop-color:#FAC103"/>
	<stop  offset="0.7991" style="stop-color:#FAB203"/>
	<stop  offset="1" style="stop-color:#FAA803"/>
	<a:midPointStop  offset="0" style="stop-color:#FAC703"/>
	<a:midPointStop  offset="0.6545" style="stop-color:#FAC703"/>
	<a:midPointStop  offset="1" style="stop-color:#FAA803"/>
</radialGradient>
<path fill="url(#SVGID_1_)" d="M9.459,55.026c-4.9,1.603,3.692,9.135,8.786,6.369c16.517-8.968,34.304-17.645,35.545-18.568
	c5.783-4.291-0.805-11.248-8.042-5.367C42.218,40.331,23.606,50.399,9.459,55.026z"/>
<path opacity="0.7" fill="#FFE600" d="M29.133,46.796v8.803c0.877-0.458,1.744-0.91,2.604-1.356v-8.739
	C30.887,45.931,30.018,46.362,29.133,46.796z"/>
<path opacity="0.7" fill="#FFE600" d="M22.212,50.022v9.234c1.443-0.771,2.885-1.535,4.314-2.289v-8.922
	C25.109,48.715,23.667,49.377,22.212,50.022z"/>
<path opacity="0.7" fill="#FFE600" d="M46.463,36.917v9.767c0.545-0.277,1.062-0.542,1.557-0.796v-9.883
	C47.509,36.249,46.989,36.546,46.463,36.917z"/>
<path opacity="0.7" fill="#FFE600" d="M42.081,39.878v9.043c1.169-0.598,2.28-1.164,3.314-1.692v-9.5
	C44.664,38.274,43.525,39.011,42.081,39.878z"/>
<path fill="#B00505" d="M27.797,19.785c6.681-7.597,14.341-2.957,18.134-5.273c1.577-0.962,0.691,3.948,1.329,7.244
	c0.485,2.486-10.244-4.928-16.233,1.248C31.028,23.004,27.182,20.482,27.797,19.785z"/>
<path fill="#4F5E66" d="M27.899,22.101c-1.343-2.138,2.582-3.555,3.636-1.842c0.971,1.575,3.014,3.419,3.29,4.305
	c2.6,0.243,3.197,1.026,4.954,1.103l0.648,3.177c0,0-6.187-0.65-7.952-1.499C30.84,26.557,28.776,23.493,27.899,22.101z"/>
<path fill="#006DAE" d="M22.341,52.757c-0.167,1.51,0.086,3.155,3.837,2.395c6.173-1.251,2.481-4.963,2.481-4.963
	C27.203,48.11,22.701,49.532,22.341,52.757z"/>
<path fill="#014D87" d="M26.026,52.277c-1.545,0.349-2.494,3.067-3.686,0.479c-0.622,2.984,1.488,3.65,3.704,2.672
	c3.227-1.301,5.392-1.919,2.616-5.24C29.968,54.272,27.432,51.962,26.026,52.277z"/>
<path fill="#006DAE" d="M36.653,46.004c1.074,1.69,9.078-1.017,7.517-2.159c-1.089-0.798-2.017-1.223-2.017-1.223
	C39.513,39.89,35.824,44.702,36.653,46.004z"/>
<path fill="#014D87" d="M36.653,46.004c-0.231,0.894,2.812,1.108,4.604,1.108c4.292,0,4.238-2.783,2.913-3.268
	C40.452,42.483,44.373,47.371,36.653,46.004z"/>
<path fill="#1A1726" d="M42.153,42.622c0,0-1.104-7.462-3.402-9.727c-1.096-1.081-3.458-2.629-6.213-3.64
	c-4.989,0.497-5.862,1.759-10.69,3.756c-0.048,4.721,2.446,5.922,1.751,9.61c-1.304,6.91-1.257,10.135-1.257,10.135
	c1.276-3.766,5.246-3.766,6.319-2.568c0,0,0.992-3.646,1.726-7.566c0.316-1.694-0.817-5.232-1.146-7.299
	c2.027,0.076,4.216,1.296,4.662,1.801c1.18,1.34,0.727,7.879,2.753,8.88C38.108,42.622,39.987,41.176,42.153,42.622z"/>
<path fill="#003366" d="M35.109,42.597c0.279,1.582,0.691,2.986,1.544,3.407c1.455-3.382,3.334-4.828,5.5-3.382c0,0,0,0,0-0.002
	c-0.361-2.414-3.358-3.521-5.292-1.943C36.206,41.214,35.619,41.854,35.109,42.597z"/>
<path fill="#003366" d="M22.546,49.609c-0.219,2.124-0.206,3.147-0.206,3.147c1.276-3.766,5.246-3.766,6.319-2.568
	c0,0,0.449-1.649,0.965-3.92c-1.075-0.45-2.469-0.484-3.794-0.213C24.051,46.419,22.728,47.867,22.546,49.609z"/>
<path fill="#006DAE" d="M33.031,29.462c-2.101-3.849,0.107-6.693-2.162-9.677c-3.15-4.142-11.36,2.483-11.36,2.483
	c0.298,5.877,1.782,5.654,2.345,11.565C22.1,36.433,34.695,32.517,33.031,29.462z"/>
<path fill="#F5BC2C" d="M18.304,13.12c-2.265-0.431-0.496,6.252,1.276,4.409C20.402,16.674,19.363,13.322,18.304,13.12z"/>
<path fill="#F5BC2C" d="M31.851,13.12c-1.059,0.202-2.1,3.554-1.276,4.409C32.346,19.373,34.113,12.689,31.851,13.12z"/>
<path fill="#FDCA47" d="M25.077,5.974c-4.684,0-6.939,3.41-6.656,8.15c0.056,0.954,0.67,4.064,1.25,5.181
	c0.594,1.141,2.579,2.901,3.795,3.266c0.769,0.23,2.452,0.23,3.219,0c1.217-0.365,3.203-2.125,3.797-3.266
	c0.582-1.116,1.195-4.227,1.252-5.181C32.018,9.383,29.76,5.974,25.077,5.974z"/>
<path fill="#E81C26" d="M27.861,4.533c-0.022,3.048-5.564,3.201-5.545,0.152C22.315,1.157,27.861,1.105,27.861,4.533z"/>
<path fill="#1A1726" d="M32.398,10.835c-0.046,3.442-14.686,3.46-14.639,0.018C17.759,1.345,32.398,1.525,32.398,10.835z"/>
<path fill="#E6A400" d="M25.077,18.879c-1.055-0.299-2.614,0.141-2.614,0.141c0.594,0.623,1.031,1.431,2.614,1.431
	c1.816,0,2.124-0.917,2.615-1.431C27.692,19.021,26.129,18.579,25.077,18.879z"/>
<path fill="#FFFFFF" d="M22.861,19.125c1.104,0.892,3.334,0.897,4.446,0C26.129,19.173,24.047,19.174,22.861,19.125z"/>
<path fill="#E6A400" d="M26.53,17.203c0,0.91-2.905,0.91-2.905,0C23.625,16.994,26.53,16.994,26.53,17.203z"/>
<path fill="#E81C26" d="M31.838,13.254c-4.475-0.576-9.05-0.571-13.525,0.017c-0.882,0.121-1.538-2.284-0.553-2.419
	c5.472-1.498,8.8-1.601,14.639-0.018C33.381,10.966,32.719,13.373,31.838,13.254z"/>
<path fill="#003366" d="M31.545,12.535c-0.186-0.459-0.638-0.826-1.24-0.955c-4.558-0.985-6.091-0.985-10.649,0
	c-0.603,0.13-1.056,0.496-1.241,0.955h-0.928v0.372c0,0.537,0.28,1.009,0.704,1.296l-0.164,1.716
	c-0.036,0.377,0.183,0.741,0.574,0.954c0,0,2.772,1.009,3.744,1.236c0.489,0.114,1.04-0.077,1.306-0.424
	c0.231-0.302,0.599-0.9,0.988-1.251c0.177-0.159,0.506-0.159,0.682,0c0.39,0.351,0.757,0.95,0.989,1.251
	c0.267,0.347,0.817,0.538,1.306,0.424c0.972-0.227,3.742-1.236,3.742-1.236c0.391-0.213,0.611-0.577,0.574-0.954l-0.153-1.615
	c0.524-0.265,0.886-0.787,0.886-1.397v-0.372H31.545z"/>
<linearGradient id="SVGID_2_" gradientUnits="userSpaceOnUse" x1="78.5459" y1="-90.4741" x2="83.2254" y2="-98.5794" gradientTransform="matrix(1 0 0 -1 -56 -80)">
	<stop  offset="0.0638" style="stop-color:#008CC9"/>
	<stop  offset="0.3298" style="stop-color:#BCEBFF"/>
	<stop  offset="0.6117" style="stop-color:#75D6FF"/>
	<stop  offset="0.8032" style="stop-color:#ABE6FF"/>
	<stop  offset="1" style="stop-color:#75D6FF"/>
	<a:midPointStop  offset="0.0638" style="stop-color:#008CC9"/>
	<a:midPointStop  offset="0.5" style="stop-color:#008CC9"/>
	<a:midPointStop  offset="0.3298" style="stop-color:#BCEBFF"/>
	<a:midPointStop  offset="0.5" style="stop-color:#BCEBFF"/>
	<a:midPointStop  offset="0.6117" style="stop-color:#75D6FF"/>
	<a:midPointStop  offset="0.5" style="stop-color:#75D6FF"/>
	<a:midPointStop  offset="0.8032" style="stop-color:#ABE6FF"/>
	<a:midPointStop  offset="0.5" style="stop-color:#ABE6FF"/>
	<a:midPointStop  offset="1" style="stop-color:#75D6FF"/>
</linearGradient>
<path fill="url(#SVGID_2_)" d="M27.326,17.589c-0.166,0-0.56-0.37-0.636-0.477c-0.45-0.642-0.867-1.189-1.412-1.407
	c-0.19-0.075-0.401-0.076-0.591-0.001c-0.545,0.216-0.962,0.765-1.414,1.408c-0.075,0.107-0.31,0.519-0.634,0.477
	c-0.858-0.112-2.883-0.905-3.69-1.198c-0.162-0.104-0.251-0.265-0.235-0.43l0.291-3.06c0.037-0.373,0.371-0.689,0.831-0.789
	c2.274-0.492,3.204-0.719,5.147-0.719s2.875,0.229,5.147,0.719c0.461,0.1,0.795,0.416,0.83,0.789l0.292,3.06
	c0.015,0.166-0.073,0.327-0.235,0.43c-0.809,0.293-2.851,1.015-3.589,1.187L27.326,17.589z"/>
<path opacity="0.5" fill="#FFFFFF" enable-background="new    " d="M24.981,11.395c-0.237,0-0.446,0.007-0.656,0.015l-5.526,3.63
	l-0.088,0.922c-0.016,0.166,0.073,0.327,0.235,0.431c0.027,0.01,0.067,0.025,0.098,0.037l7.552-4.961
	C26.108,11.42,25.598,11.395,24.981,11.395z"/>
<path opacity="0.47" fill="#006EAD" enable-background="new    " d="M19.003,13.771c0.036-0.372,0.37-0.688,0.833-0.788
	c2.272-0.491,3.203-0.72,5.146-0.72c1.942,0,2.873,0.229,5.147,0.72c0.463,0.099,0.797,0.417,0.83,0.788
	c0,0,0.301,2.278,0.293,2.192l-0.293-3.059c-0.033-0.372-0.367-0.688-0.83-0.789c-2.272-0.491-3.204-0.719-5.147-0.719
	c-1.942,0-2.873,0.229-5.146,0.719c-0.463,0.1-0.797,0.417-0.833,0.789l-0.291,3.059C18.703,16.049,19.003,13.771,19.003,13.771z"/>
<path fill="#4F5E66" d="M19.448,21.76c2.725-1.418,4.922,2.104,2.737,3.223c-2.007,1.026-4.286,3.07-5.441,3.4
	c-0.107,2.429-1.396,3.116-1.004,6.494l-4.208-0.951c0,0,0.359-5.789,1.339-7.495C13.781,24.851,17.672,22.687,19.448,21.76z"/>
<path fill="#E81C26" d="M30.483,19.303c-3.646,4.579-8.463,3.085-10.812,0c0,0-0.325,1.422-0.115,2.939
	c0.463,2.132,5.668,4.195,9.6,1.772c0.641-0.395,1.329-0.91,1.859-1.511c0.769-0.874,0.813-2.18,0.057-3.066
	C30.834,19.159,30.604,19.022,30.483,19.303z"/>
<path fill="#E81C26" d="M11.586,33.198l4.083,0.743c1.89,2.899,1.839,3.976,0.73,3.685c0,0,0.338,2.479-0.882,2.711
	c-0.768,0.146-1.396-0.605-1.396-0.605C11.57,39.513,10.53,37.028,11.586,33.198z"/>
<path fill="#E81C26" d="M44.605,29.206c0.317-1.901-1.429-3.377-4.828-3.54l-0.458,3.047c2.051,2.071,3.113,2.509,3.091,1.634
	c0,0,1.998,0.846,2.431,0.019C45.111,29.847,44.605,29.206,44.605,29.206z"/>
<path fill="#008CC9" d="M32.047,25.928c-1.625,3.898-7.835,5.007-10.906,3.862c0.284,1.009,0.542,2.239,0.713,4.043
	c0.246,2.6,12.841-1.316,11.177-4.371C32.334,28.187,32.118,27.023,32.047,25.928z"/>
</svg>
