<?xml version="1.0" encoding="utf-8"?>
<!-- Generator: Adobe Illustrator 15.0.0, SVG Export Plug-In . SVG Version: 6.00 Build 0)  -->
<!DOCTYPE svg PUBLIC "-//W3C//DTD SVG 1.1//EN" "http://www.w3.org/Graphics/SVG/1.1/DTD/svg11.dtd" [
	<!ENTITY ns_flows "http://ns.adobe.com/Flows/1.0/">
	<!ENTITY ns_extend "http://ns.adobe.com/Extensibility/1.0/">
	<!ENTITY ns_ai "http://ns.adobe.com/AdobeIllustrator/10.0/">
	<!ENTITY ns_graphs "http://ns.adobe.com/Graphs/1.0/">
]>
<svg version="1.1" id="Layer_1" xmlns:x="&ns_extend;" xmlns:i="&ns_ai;" xmlns:graph="&ns_graphs;"
	 xmlns="http://www.w3.org/2000/svg" xmlns:xlink="http://www.w3.org/1999/xlink" xmlns:a="http://ns.adobe.com/AdobeSVGViewerExtensions/3.0/"
	 x="0px" y="0px" width="64px" height="64px" viewBox="0 0 64 64" enable-background="new 0 0 64 64" xml:space="preserve">
<path fill="#302C3B" d="M60.805,26.297c2.656-4.414-8.041-6.656-12.275-0.477v1.447c0,0,8.732-2.711,6.736,2.629
	C53.045,35.846,62,40.824,62,40.824S57.074,32.49,60.805,26.297z"/>
<path fill="#302C3B" d="M12.868,58.834l0.572-4.783c0,0-0.865,0.016-1.816-0.254c-0.262,0.885-0.66,2.432-0.914,4.266
	C11.903,58.746,12.868,58.834,12.868,58.834z"/>
<path fill="#785647" d="M27.619,46.762c-0.707,0.568-1.545,1.293-2.145,1.932l-3.522-1.105c0,0,3.208-5.293,10.892-8.783
	c0,0-8.641-3.426-11.544,1.076c0,0-3.871,6.195-5.18,7.67c-1.311,1.475,0.064,2.797,0.723,3.016c0.66,0.219,9.837,1.045,9.837,1.045
	s1.256-1.145,2.828-1.797C28.838,48.256,28.111,47.289,27.619,46.762z"/>
<path fill="#302C3B" d="M28.998,45.691c0,0-0.615,0.449-1.379,1.07c0.492,0.527,1.219,1.494,1.889,3.053
	c0.754-0.318,1.576-0.52,2.371-0.438C31.879,49.377,30.695,46.607,28.998,45.691z"/>
<path fill="#785647" d="M38.902,34.051l-0.797,6.357c0,0,8.025,1.461,11.393,0.105c0,0,2.984,7.84,8.5,12.789
	c0.414-0.799,0.914-2.074,1.262-3.961c-2.16-1.471-5.506-4.799-7.057-11.816C52.203,37.525,45.68,38.369,38.902,34.051z"/>
<path fill="#302C3B" d="M57.998,53.303c0.738,0.666,1.527,1.281,2.359,1.816c0,0,0.826-2.207,0.887-4.73
	c0,0-0.818-0.248-1.984-1.047C58.912,51.229,58.412,52.504,57.998,53.303z"/>
<path fill="#B47D56" d="M36.445,40.824c4.514,10.939,16.074,5.645,16.074,5.645c-2.225,6.689-0.59,11.277,0.809,13.646
	c1.213-0.662,1.967-2.15,2.326-3.037c-3.123-3.787-0.893-8.822-0.289-10.801c0.664-2.174-0.303-3.568-0.303-3.568
	c-2.721-0.672-4.322,1.334-7.549-3.139C44.289,35.104,36.445,40.824,36.445,40.824z"/>
<path fill="#302C3B" d="M54.744,62c1.557-0.076,2.01-3.834,2.01-3.834c-0.426-0.352-0.789-0.713-1.1-1.088
	c-0.359,0.887-1.113,2.375-2.326,3.037C54.072,61.367,54.744,62,54.744,62z"/>
<path fill="#785647" d="M13.741,7.738c0,0-0.207-2.242,2.047-5.738c0,0,2.299,2.441,2.518,7.094L13.741,7.738z"/>
<path fill="#302C3B" d="M13.544,6.01c5.992,15.016,14.159,17.236,14.159,17.236C25.746,7.26,13.544,6.01,13.544,6.01z"/>
<path fill="#302C3B" d="M7.804,9.051c0,0,6.219,0.779,5.719-3.205C9.479,5.469,7.804,9.051,7.804,9.051z"/>
<path fill="#302C3B" d="M14.921,6.691c2.221,2.773,6.025,0.957,6.025,0.957S16.345,4.197,14.921,6.691z"/>
<path fill="#302C3B" d="M17.366,8.797c2.221,2.773,6.587,1.779,6.587,1.779S20.931,6.326,17.366,8.797z"/>
<path fill="#302C3B" d="M19.837,11.488c2.221,2.771,6.024,0.953,6.024,0.953S21.261,8.994,19.837,11.488z"/>
<path fill="#302C3B" d="M22.312,13.457c2.313,3.596,6.251,3.781,6.251,3.781S25.877,10.986,22.312,13.457z"/>
<path fill="#302C3B" d="M22.883,16.42c2.223,2.773,6.352,4.48,6.352,4.48S26.449,13.949,22.883,16.42z"/>
<path fill="#302C3B" d="M23.217,18.814c2.221,2.773,5.846,4.691,5.846,4.691S26.781,16.342,23.217,18.814z"/>
<path fill="#B47D56" d="M44.313,23.119c-9.902-1.973-15.477,3.441-16.639-0.686c-2.723-9.666-5.909-10.863-8.442-9.6
	c0.141-0.781,0.443-1.33,0.443-1.33c-2.076,0.398-3.373-2.891-3.373-2.891c-0.377-3.652-4.375-6.424-4.375-6.424
	c-0.826,2.266-0.447,6.285-0.447,6.285c-1.391,2.762-8.316,10.213-9.139,11.336c-0.824,1.123,5.699,4.031,7.482,3.656
	c6.715-1.426,5.475-4.328,5.475-4.328c4.146,5.979-5.547,10.893-0.461,19.639c-1.863,1.709-8.045,3.254-8.045,3.254
	C4.897,52.768,8.282,56.66,10.71,58.063c0.254-1.834,0.652-3.381,0.914-4.266c-0.941-0.27-1.963-0.822-2.33-1.955
	c-0.744-2.281,0.678-7.414,0.678-7.414c6.582,0.846,10.725-1.357,15.444-2.605c4.725-1.25,9.305-0.43,13.809,0.473
	C53.836,45.227,55.711,25.396,44.313,23.119z"/>
<path fill="#F5CFA0" d="M6.415,15.084c-2.412,2.766-4.879,4.791-4.34,5.77c0.771,1.395,0.195,2.271,1.967,3.402
	c0.59,0.979,0.914,0.002,1.752,1.096c0.373,0.488,1.416-0.557,2.57-1.258c0.461-0.279,0.953-0.523,1.461-0.629
	C10.694,18.186,4.515,21.916,6.415,15.084z"/>
<path fill="#302C3B" d="M4.095,21.504c-0.273,0.219-0.939,0.383-1.143,0.088c-0.203-0.297,0.139-0.941,0.412-1.16
	c0.271-0.217,0.658-0.154,0.857,0.143C4.427,20.869,4.368,21.285,4.095,21.504z"/>
<path fill="#785647" d="M12.251,4.391c-0.113,0.443-0.705,3.586,0.217,4.684c0.621,0.742,0.684,0.621,0.6,0.188
	c-0.086-0.436,0.268-1.24,0.238-0.84c-0.027,0.404,0.082,0.707,0.223,0.322c0.139-0.379,0.521-0.916,0.361-0.363
	c-0.162,0.547-0.158,1.393,0.168,1.406c0.32,0.002,0.48-0.283,0.555-0.588C15.458,5.816,12.382,3.871,12.251,4.391z"/>
<path fill="#D6A57C" d="M3.321,19.99c-0.234,0.164-0.191,0.264,0.014,0.176c0.207-0.086,1.217-0.373,1.301,0.828
	c0,0,0.057,0.539,0.184,0.002C4.946,20.461,4.646,19.076,3.321,19.99z"/>
<path fill="#302C3B" d="M8.36,21.236c-0.107,2.389-2.279,3.053-4.318,3.02C6.085,23.559,7.815,22.789,8.36,21.236z"/>
<path fill="#302C3B" d="M6.29,13.365c0,0,1.262-0.877,3.375-1.77c2.914-1.23,1.705-3.35,1.705-3.35
	C6.966,9.16,6.29,13.365,6.29,13.365z"/>
<path fill="#9E6C49" d="M14.837,38.777l3.908-3.041c0,0-4.643,2.771-4.987-5.152C13.758,30.584,12.101,35.184,14.837,38.777z"/>
<path fill="#9E6C49" d="M37.033,42.084c0,0-1.182-1.674-1.88-6.609c0,0,0.073,5.549-3.831,5.723
	C31.322,41.197,33.416,41.451,37.033,42.084z"/>
<path fill="#9E6C49" d="M48.24,40.502c0,0,2.768-1.725,3.359-6.35c0,0-1.884,6.35-4.446,3.406
	C47.153,37.559,47.428,39.486,48.24,40.502z"/>
<path fill="#302C3B" d="M11.868,13.922c0,1.633-1.845,1.633-1.845,0S11.868,12.289,11.868,13.922z"/>
<path fill="#6E8189" d="M10.923,13.505c0,0.409-0.567,0.409-0.567,0C10.355,13.097,10.923,13.097,10.923,13.505z"/>
</svg>
