<?xml version="1.0" encoding="utf-8"?>
<!-- Generator: Adobe Illustrator 15.0.0, SVG Export Plug-In . SVG Version: 6.00 Build 0)  -->
<!DOCTYPE svg PUBLIC "-//W3C//DTD SVG 1.1//EN" "http://www.w3.org/Graphics/SVG/1.1/DTD/svg11.dtd" [
	<!ENTITY ns_flows "http://ns.adobe.com/Flows/1.0/">
	<!ENTITY ns_extend "http://ns.adobe.com/Extensibility/1.0/">
	<!ENTITY ns_ai "http://ns.adobe.com/AdobeIllustrator/10.0/">
	<!ENTITY ns_graphs "http://ns.adobe.com/Graphs/1.0/">
]>
<svg version="1.1" id="Layer_1" xmlns:x="&ns_extend;" xmlns:i="&ns_ai;" xmlns:graph="&ns_graphs;"
	 xmlns="http://www.w3.org/2000/svg" xmlns:xlink="http://www.w3.org/1999/xlink" xmlns:a="http://ns.adobe.com/AdobeSVGViewerExtensions/3.0/"
	 x="0px" y="0px" width="64px" height="64px" viewBox="0 0 64 64" enable-background="new 0 0 64 64" xml:space="preserve">
<path fill="#B39284" d="M39.86,11.309c-0.239-4.031-3.53-6.763-3.53-6.763C35.842,6.21,34.858,7.51,34.858,7.51
	C33.546,4.202,29.706,2,29.706,2c0.866,2.871,0.651,5.324,0.651,5.324c-2.252-1.109-4.46-0.669-4.46-0.669
	c1.515,2.038,1.212,4.655,1.212,4.655H39.86z"/>
<path fill="#AD8C7D" d="M22.505,12.507c-1.84-3.948-6.492-5.591-12.752-5.802c-2.352-0.08-11.414-2.614-6.131,3.904
	c3.453,4.262-0.32,15.619,4.826,18.822C14.58,33.248,24.349,16.463,22.505,12.507z"/>
<linearGradient id="SVGID_1_" gradientUnits="userSpaceOnUse" x1="2.9497" y1="18.0137" x2="18.1206" y2="18.0137">
	<stop  offset="0" style="stop-color:#FFA194"/>
	<stop  offset="1" style="stop-color:#BD6C6C"/>
	<a:midPointStop  offset="0" style="stop-color:#FFA194"/>
	<a:midPointStop  offset="0.5" style="stop-color:#FFA194"/>
	<a:midPointStop  offset="1" style="stop-color:#BD6C6C"/>
</linearGradient>
<path fill="url(#SVGID_1_)" d="M10.458,9.672C8.207,8.36,0.46,5.887,3.753,9.688c5.348,6.172-0.32,20.786,9,18.419l5.367-10.488
	C14.326,15,13.595,11.497,10.458,9.672z"/>
<path fill="#AD8C7D" d="M41.484,12.507c1.838-3.948,6.492-5.591,12.75-5.802c2.354-0.08,11.416-2.614,6.133,3.904
	c-3.455,4.262,0.32,15.619-4.826,18.822C49.41,33.248,39.641,16.463,41.484,12.507z"/>
<linearGradient id="SVGID_2_" gradientUnits="userSpaceOnUse" x1="45.8691" y1="18.0137" x2="61.04" y2="18.0137">
	<stop  offset="0" style="stop-color:#BD6C6C"/>
	<stop  offset="1" style="stop-color:#FFA194"/>
	<a:midPointStop  offset="0" style="stop-color:#BD6C6C"/>
	<a:midPointStop  offset="0.5" style="stop-color:#BD6C6C"/>
	<a:midPointStop  offset="1" style="stop-color:#FFA194"/>
</linearGradient>
<path fill="url(#SVGID_2_)" d="M53.531,9.672c2.252-1.312,9.998-3.785,6.705,0.017c-5.348,6.172,0.32,20.786-9,18.419l-5.367-10.488
	C49.662,15,50.395,11.497,53.531,9.672z"/>
<linearGradient id="SVGID_3_" gradientUnits="userSpaceOnUse" x1="32.0059" y1="62" x2="32.0059" y2="8.0005">
	<stop  offset="0" style="stop-color:#855F4E"/>
	<stop  offset="1" style="stop-color:#B39284"/>
	<a:midPointStop  offset="0" style="stop-color:#855F4E"/>
	<a:midPointStop  offset="0.5" style="stop-color:#855F4E"/>
	<a:midPointStop  offset="1" style="stop-color:#B39284"/>
</linearGradient>
<path fill="url(#SVGID_3_)" d="M57.006,47.639c0,9.932-19.17,14.361-25,14.361c-5.83,0-25-4.43-25-14.361
	C7.005,26.631,12.5,8,32.005,8C51.514,8,57.006,26.631,57.006,47.639z"/>
<ellipse fill="#302C3B" cx="43.379" cy="30.354" rx="3.5" ry="4.5"/>
<path id="Shape_8_" fill="#6E8189" d="M42.738,28.418c0,1.365-1.75,1.365-1.75,0C40.988,27.055,42.738,27.055,42.738,28.418
	L42.738,28.418z"/>
<ellipse fill="#302C3B" cx="20.632" cy="30.5" rx="3.5" ry="4.5"/>
<path id="Shape_7_" fill="#6E8189" d="M19.996,28.564c0,1.363-1.75,1.363-1.75,0S19.996,27.201,19.996,28.564L19.996,28.564z"/>
<path fill="#FFF3E0" d="M21.591,47.816c-1.246-4.24-11.563-15.867-11.563-15.867s4.84,21.503,12.563,21.503
	C22.591,53.452,22.2,49.888,21.591,47.816z"/>
<path fill="#FFF3E0" d="M42.42,47.816c1.246-4.24,11.564-15.867,11.564-15.867s-4.84,21.503-12.564,21.503
	C41.42,53.452,41.812,49.888,42.42,47.816z"/>
<path fill="#19171F" d="M32.007,59c-4.655,0-6.571-3.744-5.073-3.266c0.861,0.275,9.282,0.275,10.142,0
	C38.576,55.26,36.658,59,32.007,59z"/>
<linearGradient id="SVGID_4_" gradientUnits="userSpaceOnUse" x1="32.0059" y1="57.5068" x2="32.0059" y2="36.6143">
	<stop  offset="0" style="stop-color:#4A2F24"/>
	<stop  offset="0.2508" style="stop-color:#664639"/>
	<stop  offset="0.5259" style="stop-color:#7E594A"/>
	<stop  offset="0.7824" style="stop-color:#8C6554"/>
	<stop  offset="1" style="stop-color:#916958"/>
	<a:midPointStop  offset="0" style="stop-color:#4A2F24"/>
	<a:midPointStop  offset="0.3273" style="stop-color:#4A2F24"/>
	<a:midPointStop  offset="1" style="stop-color:#916958"/>
</linearGradient>
<path fill="url(#SVGID_4_)" d="M44.542,50.116c0,9.854-25.073,9.854-25.073,0c0-6.41,6.728-13.502,12.535-13.502
	C37.815,36.614,44.542,43.706,44.542,50.116z"/>
<radialGradient id="SVGID_5_" cx="-25.6191" cy="66.2793" r="5.7651" gradientTransform="matrix(0.9134 0.2442 -0.3804 1.4674 84.6707 -42.3022)" gradientUnits="userSpaceOnUse">
	<stop  offset="0.2242" style="stop-color:#171417"/>
	<stop  offset="0.3809" style="stop-color:#382A26"/>
	<stop  offset="0.5379" style="stop-color:#513A31"/>
	<stop  offset="0.6803" style="stop-color:#614439"/>
	<stop  offset="0.7939" style="stop-color:#66483B"/>
	<a:midPointStop  offset="0.2242" style="stop-color:#171417"/>
	<a:midPointStop  offset="0.3404" style="stop-color:#171417"/>
	<a:midPointStop  offset="0.7939" style="stop-color:#66483B"/>
</radialGradient>
<path fill="url(#SVGID_5_)" d="M36.216,53.263c-5.786,0-1.171-11.288,2.157-9.647C42.863,45.834,41.996,53.263,36.216,53.263z"/>
<radialGradient id="SVGID_6_" cx="1406.3525" cy="66.2793" r="5.7645" gradientTransform="matrix(-0.9134 0.2442 0.3804 1.4674 1287.2698 -391.9619)" gradientUnits="userSpaceOnUse">
	<stop  offset="0.2242" style="stop-color:#171417"/>
	<stop  offset="0.3809" style="stop-color:#382A26"/>
	<stop  offset="0.5379" style="stop-color:#513A31"/>
	<stop  offset="0.6803" style="stop-color:#614439"/>
	<stop  offset="0.7939" style="stop-color:#66483B"/>
	<a:midPointStop  offset="0.2242" style="stop-color:#171417"/>
	<a:midPointStop  offset="0.3404" style="stop-color:#171417"/>
	<a:midPointStop  offset="0.7939" style="stop-color:#66483B"/>
</radialGradient>
<path fill="url(#SVGID_6_)" d="M27.797,53.263c5.783,0,1.168-11.288-2.159-9.647C21.148,45.834,22.016,53.263,27.797,53.263z"/>
</svg>
