<?xml version="1.0" encoding="utf-8"?>
<!-- Generator: Adobe Illustrator 15.0.0, SVG Export Plug-In . SVG Version: 6.00 Build 0)  -->
<!DOCTYPE svg PUBLIC "-//W3C//DTD SVG 1.1//EN" "http://www.w3.org/Graphics/SVG/1.1/DTD/svg11.dtd" [
	<!ENTITY ns_flows "http://ns.adobe.com/Flows/1.0/">
	<!ENTITY ns_extend "http://ns.adobe.com/Extensibility/1.0/">
	<!ENTITY ns_ai "http://ns.adobe.com/AdobeIllustrator/10.0/">
	<!ENTITY ns_graphs "http://ns.adobe.com/Graphs/1.0/">
]>
<svg version="1.1" id="Layer_1" xmlns:x="&ns_extend;" xmlns:i="&ns_ai;" xmlns:graph="&ns_graphs;"
	 xmlns="http://www.w3.org/2000/svg" xmlns:xlink="http://www.w3.org/1999/xlink" xmlns:a="http://ns.adobe.com/AdobeSVGViewerExtensions/3.0/"
	 x="0px" y="0px" width="64px" height="64px" viewBox="0 0 64 64" enable-background="new 0 0 64 64" xml:space="preserve">
<radialGradient id="SVGID_1_" cx="52.2734" cy="41.6172" r="18.7134" gradientTransform="matrix(0.9029 0.4298 -0.2481 0.5211 15.3996 -2.5391)" gradientUnits="userSpaceOnUse">
	<stop  offset="0" style="stop-color:#5B666E"/>
	<stop  offset="0.2305" style="stop-color:#515862"/>
	<stop  offset="1" style="stop-color:#302C3B"/>
	<a:midPointStop  offset="0" style="stop-color:#5B666E"/>
	<a:midPointStop  offset="0.4788" style="stop-color:#5B666E"/>
	<a:midPointStop  offset="1" style="stop-color:#302C3B"/>
</radialGradient>
<path fill="url(#SVGID_1_)" d="M50.4,38.337C58.188,41.849,62,52.425,62,52.425s-10.836,3.977-18.619,0.471
	c-7.787-3.51-11.516-9.154-9.578-13.176C35.742,35.7,42.615,34.831,50.4,38.337z"/>
<path fill="#1A1626" d="M19.209,12.333c0,0-3.061-8.355-17.209-10.334c13.574,4.643,15.008,10.68,15.008,10.68L19.209,12.333z"/>
<path fill="#1A1626" d="M19.209,10.708c0,0-1.299-5.895-10.639-8.393c8.711,4.25,9.125,8.445,9.125,8.445L19.209,10.708z"/>
<radialGradient id="SVGID_2_" cx="36.6113" cy="34.8203" r="4.1829" gradientTransform="matrix(1 0 0 1.288 0 -10.0299)" gradientUnits="userSpaceOnUse">
	<stop  offset="0" style="stop-color:#5B666E"/>
	<stop  offset="0.2305" style="stop-color:#515862"/>
	<stop  offset="1" style="stop-color:#302C3B"/>
	<a:midPointStop  offset="0" style="stop-color:#5B666E"/>
	<a:midPointStop  offset="0.4788" style="stop-color:#5B666E"/>
	<a:midPointStop  offset="1" style="stop-color:#302C3B"/>
</radialGradient>
<path fill="url(#SVGID_2_)" d="M38.205,36.669c0.543,4.609-7.34,4.637-7.34,0C30.865,32.028,36.994,26.37,38.205,36.669z"/>
<radialGradient id="SVGID_3_" cx="30.4375" cy="23.3691" r="9.1466" gradientTransform="matrix(0.7071 0.7071 -0.5366 0.5366 21.4547 -10.6932)" gradientUnits="userSpaceOnUse">
	<stop  offset="0" style="stop-color:#5B666E"/>
	<stop  offset="0.2305" style="stop-color:#515862"/>
	<stop  offset="1" style="stop-color:#302C3B"/>
	<a:midPointStop  offset="0" style="stop-color:#5B666E"/>
	<a:midPointStop  offset="0.4788" style="stop-color:#5B666E"/>
	<a:midPointStop  offset="1" style="stop-color:#302C3B"/>
</radialGradient>
<path fill="url(#SVGID_3_)" d="M32.105,23.606c10.49,12.596-7.137,11.904-10.514,4.074C18.215,19.845,23.916,13.772,32.105,23.606z"
	/>
<linearGradient id="SVGID_4_" gradientUnits="userSpaceOnUse" x1="17.3218" y1="46.2432" x2="34.5488" y2="46.2432">
	<stop  offset="0" style="stop-color:#302C3B"/>
	<stop  offset="0.7695" style="stop-color:#515862"/>
	<stop  offset="1" style="stop-color:#5B666E"/>
	<a:midPointStop  offset="0" style="stop-color:#302C3B"/>
	<a:midPointStop  offset="0.5212" style="stop-color:#302C3B"/>
	<a:midPointStop  offset="1" style="stop-color:#5B666E"/>
</linearGradient>
<path fill="url(#SVGID_4_)" d="M31.357,35.091c-1.01,1.379-9.408-1.217-12.473,1.293c-4.867,3.998,3.008,18.615,4.979,21.012
	c-1.564-2.75-6.729-19.326-3.313-18.98c9.992,1.008,13.998-3.037,13.998-3.037L31.357,35.091z"/>
<linearGradient id="SVGID_5_" gradientUnits="userSpaceOnUse" x1="39.3418" y1="62.001" x2="39.3418" y2="39.6943">
	<stop  offset="0" style="stop-color:#302C3B"/>
	<stop  offset="0.2404" style="stop-color:#343140"/>
	<stop  offset="0.5401" style="stop-color:#3F414D"/>
	<stop  offset="0.8701" style="stop-color:#525A63"/>
	<stop  offset="1" style="stop-color:#5B666E"/>
	<a:midPointStop  offset="0" style="stop-color:#302C3B"/>
	<a:midPointStop  offset="0.6606" style="stop-color:#302C3B"/>
	<a:midPointStop  offset="1" style="stop-color:#5B666E"/>
</linearGradient>
<path fill="url(#SVGID_5_)" d="M33.359,39.981c0,0,2.773,3.908,9.723,3.039c1.826-0.229-1.213,16.229-2.301,18.98
	c1.369-2.398,6.838-17.014,3.459-21.012c-2.129-2.51-7.963,0.084-8.664-1.295L33.359,39.981z"/>
<linearGradient id="SVGID_6_" gradientUnits="userSpaceOnUse" x1="8.4453" y1="36.208" x2="25.8223" y2="36.208">
	<stop  offset="0" style="stop-color:#302C3B"/>
	<stop  offset="0.7695" style="stop-color:#515862"/>
	<stop  offset="1" style="stop-color:#5B666E"/>
	<a:midPointStop  offset="0" style="stop-color:#302C3B"/>
	<a:midPointStop  offset="0.5212" style="stop-color:#302C3B"/>
	<a:midPointStop  offset="1" style="stop-color:#5B666E"/>
</linearGradient>
<path fill="url(#SVGID_6_)" d="M25.367,29.431c-1.299,0.387-3.418-4.67-6.326-4.48C14.41,25.261,9.055,45.231,8.445,47.472
	c1.008-2.277,8.041-19.941,9.424-18.949c4.602,3.307,7.953,1.643,7.953,1.643L25.367,29.431z"/>
<radialGradient id="SVGID_7_" cx="12.4424" cy="14.7813" r="10.6176" gradientUnits="userSpaceOnUse">
	<stop  offset="0" style="stop-color:#5B666E"/>
	<stop  offset="0.2305" style="stop-color:#515862"/>
	<stop  offset="1" style="stop-color:#302C3B"/>
	<a:midPointStop  offset="0" style="stop-color:#5B666E"/>
	<a:midPointStop  offset="0.4788" style="stop-color:#5B666E"/>
	<a:midPointStop  offset="1" style="stop-color:#302C3B"/>
</radialGradient>
<path fill="url(#SVGID_7_)" d="M14.545,10.968c-2.025-0.522-4.6,0.669-4.6,3.373c-6.79,6.489-4.702,13.518,8.564,9.482
	C30.185,20.275,24.285,5.997,14.545,10.968z"/>
<path fill="#1A1626" d="M10.617,25.312c-2.689,0.83-3.67-0.168-3.67-0.168l-0.148,0.498c-1.762-0.916-1.666-5.584-0.594-5.584
	C7.275,20.058,12.02,24.878,10.617,25.312z"/>
<ellipse fill="#1A1626" cx="13.401" cy="15.522" rx="1.94" ry="2.527"/>
<path id="Shape_10_" fill="#FFFFFF" d="M13.047,14.435c0,0.768-0.969,0.768-0.969,0C12.078,13.669,13.047,13.669,13.047,14.435
	L13.047,14.435z"/>
</svg>
