<?xml version="1.0" encoding="utf-8"?>
<!-- Generator: Adobe Illustrator 15.0.0, SVG Export Plug-In . SVG Version: 6.00 Build 0)  -->
<!DOCTYPE svg PUBLIC "-//W3C//DTD SVG 1.1//EN" "http://www.w3.org/Graphics/SVG/1.1/DTD/svg11.dtd" [
	<!ENTITY ns_flows "http://ns.adobe.com/Flows/1.0/">
	<!ENTITY ns_extend "http://ns.adobe.com/Extensibility/1.0/">
	<!ENTITY ns_ai "http://ns.adobe.com/AdobeIllustrator/10.0/">
	<!ENTITY ns_graphs "http://ns.adobe.com/Graphs/1.0/">
]>
<svg version="1.1" id="Layer_1" xmlns:x="&ns_extend;" xmlns:i="&ns_ai;" xmlns:graph="&ns_graphs;"
	 xmlns="http://www.w3.org/2000/svg" xmlns:xlink="http://www.w3.org/1999/xlink" xmlns:a="http://ns.adobe.com/AdobeSVGViewerExtensions/3.0/"
	 x="0px" y="0px" width="64px" height="64px" viewBox="0 0 64 64" enable-background="new 0 0 64 64" xml:space="preserve">
<radialGradient id="SVGID_1_" cx="31.999" cy="31.8682" r="29.7809" gradientUnits="userSpaceOnUse">
	<stop  offset="0" style="stop-color:#FF4747"/>
	<stop  offset="0.2175" style="stop-color:#FC4545"/>
	<stop  offset="0.4084" style="stop-color:#F13E3D"/>
	<stop  offset="0.5891" style="stop-color:#DF3231"/>
	<stop  offset="0.7637" style="stop-color:#C62120"/>
	<stop  offset="0.9323" style="stop-color:#A50B0A"/>
	<stop  offset="1" style="stop-color:#960100"/>
	<a:midPointStop  offset="0" style="stop-color:#FF4747"/>
	<a:midPointStop  offset="0.7333" style="stop-color:#FF4747"/>
	<a:midPointStop  offset="1" style="stop-color:#960100"/>
</radialGradient>
<path fill="url(#SVGID_1_)" d="M60.658,26.393c1.48,5.762-4.883,12.508-12.84,10.596c10.137-7.372,5.502-16.792,0.145-21.315
	c-5.811-4.904-0.186-6.477,1.688-4.701c-0.045-3.584-12.684-2.773-1.629,8.732c5.68,5.912-1.02,18.985-9.002,9.045
	c-0.075-0.093-0.119-0.188-0.179-0.282c1.29-0.536,2.347-1.989,2.347-4.384c0-0.987-0.193-1.799-0.495-2.47
	c0.921-1.877,1.769-4.12,1.769-6.925C42.461,7.981,38.104,2,32,2S21.537,7.981,21.537,14.69c0,2.806,0.849,5.05,1.77,6.926
	c-0.301,0.671-0.494,1.481-0.494,2.469c0,2.395,1.057,3.848,2.347,4.384c-0.06,0.094-0.104,0.189-0.179,0.282
	c-7.982,9.94-14.686-3.135-9.004-9.045C27.033,8.2,14.393,7.391,14.348,10.973c1.873-1.775,7.5-0.203,1.688,4.701
	c-5.359,4.523-9.99,13.943,0.145,21.315c-7.959,1.912-14.32-4.834-12.838-10.596c-2.584,4.748-0.668,13.731,9.584,15.463
	c-10.92,2.508-7.637,17.555,0.059,15.137c-6.592-0.389-5.859-7.959-3.193-10.24c2.949-2.523,6.68-0.746,13.479-1.881
	c-0.074,6.111,5.889,9.396,2.76,12.896c-3.313,3.703-7.844-0.299-7.148-3.939c-3.164,6.537,5.844,11.736,9.791,4.148
	c3.043-5.842-5.041-16.375,3.332-16.375c8.369,0,0.287,10.533,3.328,16.375c3.947,7.588,12.955,2.389,9.791-4.148
	c0.693,3.643-3.836,7.643-7.146,3.939c-3.131-3.5,2.834-6.785,2.76-12.896c6.795,1.135,10.525-0.645,13.473,1.881
	c2.67,2.281,3.4,9.852-3.191,10.24c7.697,2.418,10.98-12.629,0.061-15.137C61.324,40.124,63.24,31.141,60.658,26.393z"/>
<linearGradient id="SVGID_2_" gradientUnits="userSpaceOnUse" x1="6.8101" y1="49.3232" x2="23.4551" y2="49.3232">
	<stop  offset="0" style="stop-color:#FFC7D4"/>
	<stop  offset="0.189" style="stop-color:#FDC3D0"/>
	<stop  offset="0.3877" style="stop-color:#F9B6C5"/>
	<stop  offset="0.591" style="stop-color:#F1A1B3"/>
	<stop  offset="0.796" style="stop-color:#E6849A"/>
	<stop  offset="1" style="stop-color:#D95F7A"/>
	<a:midPointStop  offset="0" style="stop-color:#FFC7D4"/>
	<a:midPointStop  offset="0.697" style="stop-color:#FFC7D4"/>
	<a:midPointStop  offset="1" style="stop-color:#D95F7A"/>
</linearGradient>
<path fill="url(#SVGID_2_)" d="M9.908,47.218c2.947-2.523,6.33-0.314,13.359-2.346c0,0,0.096-1.877,0.188-3.27
	c-2.135,1.611-6.055,1.402-9.324,1.881c-10.754,1.572-8.365,14.465-1.146,13.51C7.641,56.128,7.24,49.499,9.908,47.218z"/>
<linearGradient id="SVGID_3_" gradientUnits="userSpaceOnUse" x1="1.9995" y1="34.126" x2="24.7085" y2="34.126">
	<stop  offset="0" style="stop-color:#FFC7D4"/>
	<stop  offset="0.189" style="stop-color:#FDC3D0"/>
	<stop  offset="0.3877" style="stop-color:#F9B6C5"/>
	<stop  offset="0.591" style="stop-color:#F1A1B3"/>
	<stop  offset="0.796" style="stop-color:#E6849A"/>
	<stop  offset="1" style="stop-color:#D95F7A"/>
	<a:midPointStop  offset="0" style="stop-color:#FFC7D4"/>
	<a:midPointStop  offset="0.697" style="stop-color:#FFC7D4"/>
	<a:midPointStop  offset="1" style="stop-color:#D95F7A"/>
</linearGradient>
<path fill="url(#SVGID_3_)" d="M23.869,37.976c1.197-1.834,1.336-4.793-1.068-2.104c-8.125,9.09-22.219,1.654-19.459-9.477
	c-2.963,4.029-1.543,14.567,9.584,15.461C15.721,40.931,21.473,41.647,23.869,37.976z"/>
<radialGradient id="SVGID_4_" cx="15.1792" cy="23.4063" r="10.4176" gradientUnits="userSpaceOnUse">
	<stop  offset="0" style="stop-color:#FFC7D4"/>
	<stop  offset="0.189" style="stop-color:#FDC3D0"/>
	<stop  offset="0.3877" style="stop-color:#F9B6C5"/>
	<stop  offset="0.591" style="stop-color:#F1A1B3"/>
	<stop  offset="0.796" style="stop-color:#E6849A"/>
	<stop  offset="1" style="stop-color:#D95F7A"/>
	<a:midPointStop  offset="0" style="stop-color:#FFC7D4"/>
	<a:midPointStop  offset="0.697" style="stop-color:#FFC7D4"/>
	<a:midPointStop  offset="1" style="stop-color:#D95F7A"/>
</radialGradient>
<path fill="url(#SVGID_4_)" d="M16.18,36.989c0,0,2.852-0.291,4.705-2.461c-7.523,2.791-13.695-9.323-4.271-17.51
	c7.32-6.359-0.131-8.867-2.266-6.045c0.785-0.777,7.164-0.338,1.352,4.566C10.34,20.065,4.676,29.467,16.18,36.989z"/>
<radialGradient id="SVGID_5_" cx="31.999" cy="50.4902" r="12.8862" gradientUnits="userSpaceOnUse">
	<stop  offset="0" style="stop-color:#FFC7D4"/>
	<stop  offset="0.189" style="stop-color:#FDC3D0"/>
	<stop  offset="0.3877" style="stop-color:#F9B6C5"/>
	<stop  offset="0.591" style="stop-color:#F1A1B3"/>
	<stop  offset="0.796" style="stop-color:#E6849A"/>
	<stop  offset="1" style="stop-color:#D95F7A"/>
	<a:midPointStop  offset="0" style="stop-color:#FFC7D4"/>
	<a:midPointStop  offset="0.697" style="stop-color:#FFC7D4"/>
	<a:midPointStop  offset="1" style="stop-color:#D95F7A"/>
</radialGradient>
<path fill="url(#SVGID_5_)" d="M37.408,59.001c-3.133-3.5,0.004-6.662,0.574-12.178c0.383-3.721-1.01-7.842-5.982-7.842
	s-6.367,4.121-5.982,7.842c0.568,5.516,3.705,8.678,0.574,12.178c-3.311,3.703-9.5-0.156-7.713-5.172
	c-4.4,7.299,6.771,11.842,10.719,4.254c3.041-5.842-5.969-16.078,2.402-16.078c8.369,0-0.639,10.236,2.4,16.078
	c3.949,7.588,15.119,3.045,10.719-4.254C46.904,58.845,40.719,62.704,37.408,59.001z"/>
<linearGradient id="SVGID_6_" gradientUnits="userSpaceOnUse" x1="40.5449" y1="49.3232" x2="57.1885" y2="49.3232">
	<stop  offset="0" style="stop-color:#D95F7A"/>
	<stop  offset="0.204" style="stop-color:#E6849A"/>
	<stop  offset="0.409" style="stop-color:#F1A1B3"/>
	<stop  offset="0.6123" style="stop-color:#F9B6C5"/>
	<stop  offset="0.811" style="stop-color:#FDC3D0"/>
	<stop  offset="1" style="stop-color:#FFC7D4"/>
	<a:midPointStop  offset="0" style="stop-color:#D95F7A"/>
	<a:midPointStop  offset="0.303" style="stop-color:#D95F7A"/>
	<a:midPointStop  offset="1" style="stop-color:#FFC7D4"/>
</linearGradient>
<path fill="url(#SVGID_6_)" d="M49.867,43.483c-3.27-0.479-7.188-0.27-9.322-1.881c0.092,1.393,0.188,3.27,0.188,3.27
	c7.027,2.029,10.41-0.18,13.357,2.346c2.668,2.281,2.268,8.91-3.076,9.775C58.232,57.948,60.623,45.056,49.867,43.483z"/>
<linearGradient id="SVGID_7_" gradientUnits="userSpaceOnUse" x1="39.291" y1="34.125" x2="62" y2="34.125">
	<stop  offset="0" style="stop-color:#D95F7A"/>
	<stop  offset="0.204" style="stop-color:#E6849A"/>
	<stop  offset="0.409" style="stop-color:#F1A1B3"/>
	<stop  offset="0.6123" style="stop-color:#F9B6C5"/>
	<stop  offset="0.811" style="stop-color:#FDC3D0"/>
	<stop  offset="1" style="stop-color:#FFC7D4"/>
	<a:midPointStop  offset="0" style="stop-color:#D95F7A"/>
	<a:midPointStop  offset="0.303" style="stop-color:#D95F7A"/>
	<a:midPointStop  offset="1" style="stop-color:#FFC7D4"/>
</linearGradient>
<path fill="url(#SVGID_7_)" d="M60.658,26.393c2.76,11.133-11.336,18.569-19.461,9.477c-2.404-2.688-2.264,0.271-1.066,2.105
	c2.396,3.672,8.146,2.955,10.941,3.881C62.201,40.962,63.621,30.424,60.658,26.393z"/>
<radialGradient id="SVGID_8_" cx="48.8203" cy="23.4063" r="10.4172" gradientUnits="userSpaceOnUse">
	<stop  offset="0" style="stop-color:#FFC7D4"/>
	<stop  offset="0.189" style="stop-color:#FDC3D0"/>
	<stop  offset="0.3877" style="stop-color:#F9B6C5"/>
	<stop  offset="0.591" style="stop-color:#F1A1B3"/>
	<stop  offset="0.796" style="stop-color:#E6849A"/>
	<stop  offset="1" style="stop-color:#D95F7A"/>
	<a:midPointStop  offset="0" style="stop-color:#FFC7D4"/>
	<a:midPointStop  offset="0.697" style="stop-color:#FFC7D4"/>
	<a:midPointStop  offset="1" style="stop-color:#D95F7A"/>
</radialGradient>
<path fill="url(#SVGID_8_)" d="M43.115,34.528c1.852,2.17,4.703,2.461,4.703,2.461c11.504-7.522,5.838-16.926,0.48-21.45
	c-5.813-4.904,0.564-5.344,1.352-4.566c-2.135-2.822-9.586-0.314-2.266,6.045C56.809,25.206,50.637,37.319,43.115,34.528z"/>
<path fill="#9E0606" d="M35.102,10.354c0,1.854-3.082,1.854-3.082,0C32.02,8.504,35.102,8.504,35.102,10.354z"/>
<path fill="#9E0606" d="M30.225,12.049c0,1.277-2.125,1.277-2.125,0C28.1,10.774,30.225,10.774,30.225,12.049z"/>
<path fill="#9E0606" d="M31.578,6.194c0,1.278-2.125,1.278-2.125,0C29.453,4.92,31.578,4.92,31.578,6.194z"/>
<path fill="#9E0606" d="M27.149,15.235c0,0.638-1.063,0.638-1.063,0C26.087,14.595,27.149,14.595,27.149,15.235z"/>
<path fill="#9E0606" d="M27.353,8.966c0,0.883-1.469,0.883-1.469,0C25.884,8.085,27.353,8.085,27.353,8.966z"/>
<path fill="#9E0606" d="M31.578,16.733c0,0.884-1.469,0.884-1.469,0C30.109,15.854,31.578,15.854,31.578,16.733z"/>
<path fill="#302C3B" d="M28.223,24.084c0,3.369-3.822,3.369-3.822,0C24.4,20.717,28.223,20.717,28.223,24.084z"/>
<path fill="#FFFFFF" d="M26.264,23.227c0,0.842-1.176,0.842-1.176,0C25.088,22.383,26.264,22.383,26.264,23.227z"/>
<path fill="#302C3B" d="M39.6,24.084c0,3.369-3.824,3.369-3.824,0C35.775,20.717,39.6,20.717,39.6,24.084z"/>
<path fill="#FFFFFF" d="M37.639,23.227c0,0.842-1.176,0.842-1.176,0C36.463,22.383,37.639,22.383,37.639,23.227z"/>
<path fill="#9E0606" d="M30.225,30.787c-0.004,1.918-0.16,3.47-0.344,3.47c-0.188,0.002-0.33-1.55-0.326-3.468
	c0.006-1.919,0.158-3.471,0.344-3.471C30.084,27.317,30.229,28.869,30.225,30.787z"/>
<path fill="#9E0606" d="M32.313,30.785c-0.008,2.252-0.123,4.074-0.262,4.076c-0.139,0-0.246-1.821-0.24-4.076
	c0.008-2.249,0.123-4.076,0.264-4.076C32.213,26.708,32.318,28.533,32.313,30.785z"/>
<path fill="#9E0606" d="M34.443,30.742c-0.004,1.871-0.152,3.388-0.332,3.388c-0.176,0-0.316-1.513-0.313-3.386
	c0.008-1.871,0.156-3.39,0.332-3.389C34.313,27.355,34.451,28.871,34.443,30.742z"/>
</svg>
