<?xml version="1.0" encoding="utf-8"?>
<!-- Generator: Adobe Illustrator 15.0.0, SVG Export Plug-In . SVG Version: 6.00 Build 0)  -->
<!DOCTYPE svg PUBLIC "-//W3C//DTD SVG 1.1//EN" "http://www.w3.org/Graphics/SVG/1.1/DTD/svg11.dtd" [
	<!ENTITY ns_flows "http://ns.adobe.com/Flows/1.0/">
	<!ENTITY ns_extend "http://ns.adobe.com/Extensibility/1.0/">
	<!ENTITY ns_ai "http://ns.adobe.com/AdobeIllustrator/10.0/">
	<!ENTITY ns_graphs "http://ns.adobe.com/Graphs/1.0/">
]>
<svg version="1.1" id="Layer_1" xmlns:x="&ns_extend;" xmlns:i="&ns_ai;" xmlns:graph="&ns_graphs;"
	 xmlns="http://www.w3.org/2000/svg" xmlns:xlink="http://www.w3.org/1999/xlink" xmlns:a="http://ns.adobe.com/AdobeSVGViewerExtensions/3.0/"
	 x="0px" y="0px" width="64px" height="64px" viewBox="0 0 64 64" enable-background="new 0 0 64 64" xml:space="preserve">
<path fill="#B47D56" d="M20.936,4.352c-0.175-1.631,9.593,4.684,9.988,15.526c0.033,0.696-4.548,0.056-7.347-2.363
	C23.577,17.514,21.561,10.275,20.936,4.352z"/>
<path fill="#785647" d="M21.948,6.981c-0.1-1.146,6.427,4.532,6.589,12.044c0.016,0.482-3.067-0.583-4.933-2.627
	C23.604,16.398,22.313,11.143,21.948,6.981z"/>
<path fill="#302C3B" d="M18.858,14.08c0,0,12.298,6.111,13.744-2.32C24.524,8.05,18.858,14.08,18.858,14.08z"/>
<path fill="#302C3B" d="M27.483,12.546c6.257,9.492,18.712,16.397,26.084,10.485C51.518,9.54,37.986,5.516,27.483,12.546z"/>
<path fill="#3E3A47" d="M32.075,15.095c5.131,10.836,17.621,20.667,26.914,16.696C59.281,18.078,45.051,10.802,32.075,15.095z"/>
<path fill="#302C3B" d="M39.825,20.167c2.328,11.891,11.489,27.072,21.427,25.819C63.806,27.602,53.396,19.627,39.825,20.167z"/>
<path fill="#3E3A47" d="M47.616,27.708c-1.757,12.003,3.115,21.583,10.442,28.569C67.574,48.742,58.186,28.538,47.616,27.708z"/>
<linearGradient id="SVGID_1_" gradientUnits="userSpaceOnUse" x1="43.834" y1="62" x2="43.834" y2="36.1714">
	<stop  offset="0.2545" style="stop-color:#995F34"/>
	<stop  offset="0.5224" style="stop-color:#9F663C"/>
	<stop  offset="0.9401" style="stop-color:#B17A52"/>
	<stop  offset="1" style="stop-color:#B47D56"/>
	<a:midPointStop  offset="0.2545" style="stop-color:#995F34"/>
	<a:midPointStop  offset="0.6098" style="stop-color:#995F34"/>
	<a:midPointStop  offset="1" style="stop-color:#B47D56"/>
</linearGradient>
<path fill="url(#SVGID_1_)" d="M31.954,14.953c-5.317,8.905-0.611,29.596-0.611,29.596C38.939,46.361,32.421,62,37.426,62
	c14.204,0,20.633-5.723,20.633-5.723C60.25,35.846,42.879,15.707,31.954,14.953z"/>
<linearGradient id="SVGID_2_" gradientUnits="userSpaceOnUse" x1="31.6313" y1="41.2295" x2="41.8658" y2="45.9601">
	<stop  offset="0" style="stop-color:#302C3B;stop-opacity:0.4"/>
	<stop  offset="1" style="stop-color:#302C3B;stop-opacity:0"/>
	<a:midPointStop  offset="0" style="stop-color:#302C3B;stop-opacity:0.4"/>
	<a:midPointStop  offset="0.6098" style="stop-color:#302C3B;stop-opacity:0.4"/>
	<a:midPointStop  offset="1" style="stop-color:#302C3B;stop-opacity:0"/>
</linearGradient>
<path fill="url(#SVGID_2_)" d="M37.734,25.76c-9.795-0.786-6.392,18.789-6.392,18.789C38.939,46.361,32.421,62,37.426,62
	C35.55,50.822,45.552,40.463,37.734,25.76z"/>
<linearGradient id="SVGID_3_" gradientUnits="userSpaceOnUse" x1="27.3159" y1="54.4238" x2="21.394" y2="35.9306">
	<stop  offset="0.2545" style="stop-color:#995F34"/>
	<stop  offset="0.5224" style="stop-color:#9F663C"/>
	<stop  offset="0.9401" style="stop-color:#B17A52"/>
	<stop  offset="1" style="stop-color:#B47D56"/>
	<a:midPointStop  offset="0.2545" style="stop-color:#995F34"/>
	<a:midPointStop  offset="0.6098" style="stop-color:#995F34"/>
	<a:midPointStop  offset="1" style="stop-color:#B47D56"/>
</linearGradient>
<path fill="url(#SVGID_3_)" d="M36.495,16.813C35.994,14.382,33.52,4.71,28.321,2.006c-0.629-0.327-1.161,12.275-1.161,12.275
	c-10.813,8.997-23.164,24.1-24.651,26.829c-1.477,2.708,3.831,9.646,3.831,9.646c1.59,0.201,3.569,1.646,4.38,2.261
	c1.497,1.141,5.133-3.273,9.21-4.091c15.341-3.085,18.381-8.528,18.892-13.657C40.013,23.313,36.495,16.813,36.495,16.813z"/>
<linearGradient id="SVGID_4_" gradientUnits="userSpaceOnUse" x1="11.5181" y1="53.5283" x2="11.5181" y2="26.1553">
	<stop  offset="0" style="stop-color:#DBAF76"/>
	<stop  offset="0.1314" style="stop-color:#E3B882"/>
	<stop  offset="0.3809" style="stop-color:#EDC593"/>
	<stop  offset="0.6554" style="stop-color:#F3CD9D"/>
	<stop  offset="1" style="stop-color:#F5CFA0"/>
	<a:midPointStop  offset="0" style="stop-color:#DBAF76"/>
	<a:midPointStop  offset="0.2485" style="stop-color:#DBAF76"/>
	<a:midPointStop  offset="1" style="stop-color:#F5CFA0"/>
</linearGradient>
<path fill="url(#SVGID_4_)" d="M14.86,26.155C8.536,32.961,3.172,39.432,2.249,41.125c-1.477,2.708,4.091,9.63,4.091,9.63
	c1.59,0.201,3.529,1.972,4.34,2.587c1.497,1.142,5.478-3.281,9.25-4.417C24.809,41.992,11.781,36.967,14.86,26.155z"/>
<path fill="#302C3B" d="M6.442,44.197c-0.529,0.401-1.82,0.701-2.211,0.158c-0.393-0.544,0.269-1.727,0.796-2.127
	c0.525-0.397,1.271-0.282,1.66,0.261C7.08,43.031,6.97,43.799,6.442,44.197z"/>
<path fill="#302C3B" d="M16.348,41.225c-0.12,2.521-1.304,4.996-3.123,6.792c-0.925,0.892-2.008,1.607-3.178,2.069
	c-1.167,0.467-2.411,0.682-3.635,0.662c2.332-0.759,4.451-1.82,6.119-3.479c0.84-0.812,1.569-1.75,2.202-2.764
	C15.352,43.48,15.915,42.399,16.348,41.225z"/>
<path fill="#785647" d="M28.338,3.865c0.164-1.138,5.196,6.075,3.641,13.402c-0.098,0.473-3.799-0.838-4.184-3.839
	C27.795,13.428,27.742,7.994,28.338,3.865z"/>
<path fill="#D6A57C" d="M5.195,40.107c-0.537,0.352-0.442,0.569,0.029,0.381c0.473-0.188,2.777-0.813,2.97,1.794
	c0,0,0.13,1.167,0.422,0.009C8.905,41.126,8.215,38.123,5.195,40.107z"/>
<path fill="#302C3B" d="M26.802,27.17c0,4.237-4.786,4.237-4.786,0S26.802,22.934,26.802,27.17z"/>
<path fill="#6E8189" d="M24.348,26.09c0,1.058-1.472,1.058-1.472,0C22.876,25.03,24.348,25.03,24.348,26.09z"/>
<path fill="#302C3B" d="M15.773,23.845c0,0,2.733-1.873,7.306-3.772c6.31-2.621,3.69-7.146,3.69-7.146
	C17.236,14.881,15.773,23.845,15.773,23.845z"/>
</svg>
