<?xml version="1.0" encoding="utf-8"?>
<!-- Generator: Adobe Illustrator 19.0.0, SVG Export Plug-In . SVG Version: 6.00 Build 0)  -->
<svg version="1.1" id="Layer_1" xmlns="http://www.w3.org/2000/svg" xmlns:xlink="http://www.w3.org/1999/xlink" x="0px" y="0px"
	 width="64px" height="64px" viewBox="0 0 64 64" enable-background="new 0 0 64 64" xml:space="preserve">
<linearGradient id="SVGID_1_" gradientUnits="userSpaceOnUse" x1="27.6759" y1="347.5456" x2="27.6759" y2="289.5555" gradientTransform="matrix(1 0 0 -1 0 350.7617)">
	<stop  offset="0.097" style="stop-color:#523B26"/>
	<stop  offset="0.1659" style="stop-color:#58412D"/>
	<stop  offset="0.3181" style="stop-color:#5F4834"/>
	<stop  offset="0.6606" style="stop-color:#614A36"/>
</linearGradient>
<path fill="url(#SVGID_1_)" d="M38.24,41.98c2.654,5.252,3.475,10.254,0.309,15.578c-3.951,6.645-9.172,2.738-8.889-0.17
	c1.422-14.604-6.559-21.533-8.758-25.279c-1.178-2.01-9.693-1.365-9.693-1.365s-5.186-12.879,0-24.287
	c4.934,0.83,9.309,0.728,9.693,0.504c9.906-5.809,22.584-3.125,22.584-3.125l2.961,29.174C46.447,33.009,34.291,34.165,38.24,41.98z
	"/>
<path fill="#452F1B" d="M37.899,3.995c-0.473-0.017-9.967-0.469-16.617,3.609c-0.145,0.088-2.605,0.766-9.619-0.316
	c-4.074,9.598-0.787,20.26,0.057,22.672c6.473-0.398,8.387,0.1,9.828,1.768c4.795,5.545,10.049,13.506,8.858,25.732
	c-0.213,2.217,3.98,5.637,7.5-0.285c2.684-4.512,2.582-9.092-0.33-14.857c-2.432-4.807,0.609-7.697,4.537-9.084
	c0.33,0.42,0.674,0.828,1.01,1.244c-3.281,1.041-6.014,3.6-4.213,7.162c3.17,6.275,3.256,11.301,0.283,16.303
	c-4.396,7.391-10.643,3.143-10.275-0.629c1.133-11.645-3.51-18.76-8.658-24.826c-1.053-1.244-6.606-1.199-9.537-0.957
	c0,0-6.152-14.291,0.045-25.908c6.496,1.084,9.664,0.686,9.82,0.654c8.125-4.588,17.729-3.775,18.553-3.723
	C38.736,3.044,38.322,3.524,37.899,3.995z"/>
<path fill="#452F1B" d="M39.502,22.075l0.4-1.559c-1.926-3.822-10.766-7.35-17.981-3.803C28.797,14.259,37.854,18.308,39.502,22.075
	z"/>
<path fill="#452F1B" d="M49.256,2.632c-2.613-0.609-6.877-0.801-9.057-0.475c-1.652,0.246-3.055,0.933-3.762,1.558
	c-1.916,1.699-2.244,6.842,3.088,6.842c3.996,0,5.84,0,10.037,0C54.156,10.558,53.143,3.536,49.256,2.632z"/>
<radialGradient id="SVGID_2_" cx="41.5639" cy="354.8574" r="6.4558" gradientTransform="matrix(0.9875 0.005 0.0033 -0.6308 3.3025 229.9272)" gradientUnits="userSpaceOnUse">
	<stop  offset="0.4545" style="stop-color:#614A36"/>
	<stop  offset="0.7335" style="stop-color:#5C4531"/>
	<stop  offset="1" style="stop-color:#523B26"/>
</radialGradient>
<path fill="url(#SVGID_2_)" d="M48.623,4.021c-1.793-0.353-6.59-0.672-8.273-0.379c-1.061,0.184-2.318,0.602-2.774,1.006
	c-1.236,1.094-1.6,4.412,1.838,4.412c2.578,0,7.281,0,9.988,0C52.365,9.06,51.242,4.536,48.623,4.021z"/>
<path fill="#452F1B" d="M49.635,9.05c-7.006,0-5.801,0-11.287,0c-6.035,0-6.035,9.291,0,9.291c5.395,0,5.627,0,11.287,0
	C55.666,18.341,55.666,9.05,49.635,9.05z"/>
<radialGradient id="SVGID_3_" cx="41.9861" cy="371.1252" r="8.1308" gradientTransform="matrix(0.9875 0.0041 0.0033 -0.5175 3.2487 205.5733)" gradientUnits="userSpaceOnUse">
	<stop  offset="0.4545" style="stop-color:#614A36"/>
	<stop  offset="0.7335" style="stop-color:#5C4531"/>
	<stop  offset="1" style="stop-color:#523B26"/>
</radialGradient>
<path fill="url(#SVGID_3_)" d="M49.74,10.466c-4.873,0-7.676,0-11.49,0c-4.049,0-4.049,6.461,0,6.461c3.752,0,7.557,0,11.49,0
	C53.818,16.927,53.818,10.466,49.74,10.466z"/>
<path fill="#452F1B" d="M51.697,25.183c-6.107,0-8.514,0-13.291,0c-4.197,0-4.383,5.44-1.807,7.865
	c0.684,0.644,2.605,1.461,4.379,1.773c2.771,0.488,7.789,0.582,11.232-0.209C57.42,33.415,57.268,25.183,51.697,25.183z"/>
<radialGradient id="SVGID_4_" cx="20.4478" cy="330.2875" r="8.363" gradientTransform="matrix(0.9528 0.005 0.0032 -0.6308 26.9461 238.4288)" gradientUnits="userSpaceOnUse">
	<stop  offset="0.4545" style="stop-color:#614A36"/>
	<stop  offset="0.7335" style="stop-color:#5C4531"/>
	<stop  offset="1" style="stop-color:#523B26"/>
</radialGradient>
<path fill="url(#SVGID_4_)" d="M51.713,26.683c-4.275,0-9.918,0-13.262,0c-2.939,0-2.389,4.373-0.457,5.506
	c0.729,0.426,2.092,0.977,3.775,1.242c1.766,0.279,6.438,0.504,10.021-0.26C55.424,32.396,55.613,26.683,51.713,26.683z"/>
<path fill="#452F1B" d="M51.166,16.843c-7.42,0-7.143,0-12.951,0c-6.397,0-6.397,9.842,0,9.842c5.713,0,6.957,0,12.951,0
	C57.557,26.685,57.557,16.843,51.166,16.843z"/>
<radialGradient id="SVGID_5_" cx="42.9217" cy="361.0144" r="8.9587" gradientTransform="matrix(0.9875 0.0041 0.0033 -0.5175 3.2821 208.4037)" gradientUnits="userSpaceOnUse">
	<stop  offset="0.4545" style="stop-color:#614A36"/>
	<stop  offset="0.7335" style="stop-color:#5C4531"/>
	<stop  offset="1" style="stop-color:#523B26"/>
</radialGradient>
<path fill="url(#SVGID_5_)" d="M51.279,18.341c-5.162,0-9.129,0-13.168,0c-4.289,0-4.289,6.844,0,6.844c3.973,0,9,0,13.168,0
	C55.598,25.185,55.598,18.341,51.279,18.341z"/>
</svg>
