<?xml version="1.0" encoding="utf-8"?>
<!-- Generator: Adobe Illustrator 15.0.0, SVG Export Plug-In . SVG Version: 6.00 Build 0)  -->
<!DOCTYPE svg PUBLIC "-//W3C//DTD SVG 1.1//EN" "http://www.w3.org/Graphics/SVG/1.1/DTD/svg11.dtd" [
	<!ENTITY ns_flows "http://ns.adobe.com/Flows/1.0/">
	<!ENTITY ns_extend "http://ns.adobe.com/Extensibility/1.0/">
	<!ENTITY ns_ai "http://ns.adobe.com/AdobeIllustrator/10.0/">
	<!ENTITY ns_graphs "http://ns.adobe.com/Graphs/1.0/">
]>
<svg version="1.1" id="Layer_1" xmlns:x="&ns_extend;" xmlns:i="&ns_ai;" xmlns:graph="&ns_graphs;"
	 xmlns="http://www.w3.org/2000/svg" xmlns:xlink="http://www.w3.org/1999/xlink" xmlns:a="http://ns.adobe.com/AdobeSVGViewerExtensions/3.0/"
	 x="0px" y="0px" width="64px" height="64px" viewBox="0 0 64 64" enable-background="new 0 0 64 64" xml:space="preserve">
<radialGradient id="SVGID_1_" cx="-8.9517" cy="43.1943" r="30.8583" gradientTransform="matrix(0.97 0 0 1.1358 36.6832 -7.5395)" gradientUnits="userSpaceOnUse">
	<stop  offset="0" style="stop-color:#FFCC66"/>
	<stop  offset="0.4485" style="stop-color:#FFCC66"/>
	<stop  offset="0.7332" style="stop-color:#FECB64"/>
	<stop  offset="0.87" style="stop-color:#FAC65C"/>
	<stop  offset="0.9751" style="stop-color:#F4BD4F"/>
	<stop  offset="1" style="stop-color:#F2BA4B"/>
	<a:midPointStop  offset="0" style="stop-color:#FFCC66"/>
	<a:midPointStop  offset="0.5" style="stop-color:#FFCC66"/>
	<a:midPointStop  offset="0.4485" style="stop-color:#FFCC66"/>
	<a:midPointStop  offset="0.8333" style="stop-color:#FFCC66"/>
	<a:midPointStop  offset="1" style="stop-color:#F2BA4B"/>
</radialGradient>
<path fill="url(#SVGID_1_)" d="M54.642,32.356c-10.288-5.806-10.86-14.275-16.852-18.985c-2.23-1.751-2.788-6.388-2.788-8.815
	c0-2.528-22.66-2.442-22.66,0c0,6.461-2.494,10.184-3.538,17.49c-0.299,2.094,0.273,9.151,0.624,11.245
	c0.697,4.166,4.481,5.541,7.125,4.189c0,0,3.426,4.231,7.731,1.203c0,0,3.404,3.963,7.757,1.152c0,0,0,12.516,0,16.996
	c0,5.963,7.747,5.963,7.747,0c0-6.589,0-22.656,0-24.56c0-2.911,3.393,4.776,11.033,4.776
	C54.635,37.049,56.297,33.291,54.642,32.356z"/>
<path fill="#D9A640" d="M31.322,56.832V41.033c-2.374,1.025-5.004,0.519-7.135-1.434c-2.65,1.572-5.563,0.986-7.813-1.257
	c-3.021,1.155-6.918-0.534-7.656-4.935c-0.334-1.998-0.951-9.187-0.625-11.463c1.066-7.473,3.53-11.016,3.53-17.545
	c0-3.201,24.099-3.201,24.099,0c0,2.167,0.412,6.759,2.515,8.411c6.197,4.87,6.641,13.213,16.761,18.923
	c2.363,1.334,0.383,6.029-4.176,6.029c-5.316,0-8.652-3.473-10.313-4.979v24.047C40.509,63.723,31.322,63.723,31.322,56.832z
	 M32.762,38.518v18.314c0,5.001,6.306,5.001,6.306,0v-24.56c0-1.497,1.1-1.696,1.98-0.943c1.798,1.538,4.701,5.005,9.772,5.005
	c3.147,0,4.355-2.854,3.464-3.356c-10.383-5.86-11.272-14.591-16.942-19.046c-2.507-1.97-3.047-6.804-3.061-9.229
	c-1.888-1.769-19.443-1.558-21.219,0.013c-0.028,6.358-2.579,10.672-3.546,17.431c-0.274,1.926,0.259,8.86,0.621,11.027
	c0.713,4.256,4.62,4.781,6.607,3.404c0,0,3.243,4.684,7.66,1.145C26.409,40.16,29.409,41.217,32.762,38.518z"/>
</svg>
