<?xml version="1.0" encoding="utf-8"?>
<!-- Generator: Adobe Illustrator 15.0.0, SVG Export Plug-In . SVG Version: 6.00 Build 0)  -->
<!DOCTYPE svg PUBLIC "-//W3C//DTD SVG 1.1//EN" "http://www.w3.org/Graphics/SVG/1.1/DTD/svg11.dtd" [
	<!ENTITY ns_flows "http://ns.adobe.com/Flows/1.0/">
	<!ENTITY ns_extend "http://ns.adobe.com/Extensibility/1.0/">
	<!ENTITY ns_ai "http://ns.adobe.com/AdobeIllustrator/10.0/">
	<!ENTITY ns_graphs "http://ns.adobe.com/Graphs/1.0/">
]>
<svg version="1.1" id="Layer_1" xmlns:x="&ns_extend;" xmlns:i="&ns_ai;" xmlns:graph="&ns_graphs;"
	 xmlns="http://www.w3.org/2000/svg" xmlns:xlink="http://www.w3.org/1999/xlink" xmlns:a="http://ns.adobe.com/AdobeSVGViewerExtensions/3.0/"
	 x="0px" y="0px" width="64px" height="64px" viewBox="0 0 64 64" enable-background="new 0 0 64 64" xml:space="preserve">
<linearGradient id="SVGID_1_" gradientUnits="userSpaceOnUse" x1="27.6772" y1="60.7842" x2="27.6772" y2="2.7944">
	<stop  offset="0.097" style="stop-color:#F2BA4B"/>
	<stop  offset="0.1248" style="stop-color:#F4BD50"/>
	<stop  offset="0.2254" style="stop-color:#FAC65D"/>
	<stop  offset="0.3592" style="stop-color:#FECB64"/>
	<stop  offset="0.6606" style="stop-color:#FFCC66"/>
	<a:midPointStop  offset="0.097" style="stop-color:#F2BA4B"/>
	<a:midPointStop  offset="0.156" style="stop-color:#F2BA4B"/>
	<a:midPointStop  offset="0.6606" style="stop-color:#FFCC66"/>
</linearGradient>
<path fill="url(#SVGID_1_)" d="M38.242,22.021c2.653-5.253,3.474-10.255,0.307-15.579c-3.95-6.645-9.171-2.737-8.887,0.171
	c1.421,14.603-6.561,21.532-8.759,25.279c-1.179,2.01-9.693,1.366-9.693,1.366s-5.185,12.878,0,24.287
	c4.934-0.83,9.309-0.729,9.693-0.504c9.906,5.808,22.583,3.125,22.583,3.125l2.962-29.174
	C46.448,30.992,34.292,29.834,38.242,22.021z"/>
<path fill="#D9A640" d="M37.898,60.006c-0.473,0.017-9.967,0.468-16.617-3.61c-0.145-0.088-2.606-0.766-9.62,0.317
	c-4.073-9.599-0.787-20.26,0.058-22.673c6.474,0.399,8.386-0.099,9.828-1.768c4.795-5.545,10.048-13.506,8.858-25.732
	c-0.214-2.216,3.979-5.637,7.5,0.286c2.683,4.511,2.58,9.093-0.332,14.856c-2.432,4.808,0.609,7.697,4.537,9.085
	c0.33-0.421,0.674-0.829,1.011-1.245c-3.281-1.04-6.014-3.6-4.213-7.162c3.169-6.274,3.257-11.301,0.282-16.302
	c-4.396-7.392-10.642-3.144-10.274,0.628c1.133,11.645-3.51,18.761-8.659,24.826c-1.054,1.244-6.605,1.199-9.538,0.957
	c0,0-6.151,14.292,0.046,25.91c6.496-1.084,9.663-0.687,9.82-0.655c8.124,4.588,17.729,3.775,18.553,3.723
	C38.737,60.957,38.323,60.477,37.898,60.006z"/>
<path fill="#D9A640" d="M39.503,41.926l0.4,1.559c-1.927,3.822-10.766,7.35-17.981,3.803C28.796,49.741,37.854,45.693,39.503,41.926
	z"/>
<path fill="#D9A640" d="M49.256,61.369c-2.612,0.608-6.876,0.8-9.057,0.475c-1.652-0.247-3.055-0.934-3.76-1.56
	c-1.918-1.698-2.246-6.841,3.086-6.841c3.996,0,5.841,0,10.038,0C54.156,53.443,53.144,60.464,49.256,61.369z"/>
<radialGradient id="SVGID_2_" cx="42.1543" cy="60.4453" r="6.4558" gradientTransform="matrix(0.9874 -0.005 0.0033 0.6308 3.6953 19.7915)" gradientUnits="userSpaceOnUse">
	<stop  offset="0.4545" style="stop-color:#FFCC66"/>
	<stop  offset="0.6609" style="stop-color:#FDC961"/>
	<stop  offset="0.9065" style="stop-color:#F6BF53"/>
	<stop  offset="1" style="stop-color:#F2BA4B"/>
	<a:midPointStop  offset="0.4545" style="stop-color:#FFCC66"/>
	<a:midPointStop  offset="0.6703" style="stop-color:#FFCC66"/>
	<a:midPointStop  offset="1" style="stop-color:#F2BA4B"/>
</radialGradient>
<path fill="url(#SVGID_2_)" d="M48.625,59.98c-1.794,0.353-6.592,0.671-8.274,0.379c-1.062-0.184-2.319-0.602-2.774-1.006
	c-1.236-1.095-1.6-4.412,1.839-4.412c2.577,0,7.281,0,9.988,0C52.366,54.941,51.242,59.465,48.625,59.98z"/>
<path fill="#D9A640" d="M49.635,54.95c-7.005,0-5.801,0-11.286,0c-6.037,0-6.037-9.29,0-9.29c5.394,0,5.628,0,11.286,0
	C55.667,45.66,55.667,54.95,49.635,54.95z"/>
<radialGradient id="SVGID_3_" cx="42.5762" cy="12.0469" r="8.1317" gradientTransform="matrix(0.9874 -0.0041 0.0033 0.5175 3.8552 44.246)" gradientUnits="userSpaceOnUse">
	<stop  offset="0.4545" style="stop-color:#FFCC66"/>
	<stop  offset="0.6609" style="stop-color:#FDC961"/>
	<stop  offset="0.9065" style="stop-color:#F6BF53"/>
	<stop  offset="1" style="stop-color:#F2BA4B"/>
	<a:midPointStop  offset="0.4545" style="stop-color:#FFCC66"/>
	<a:midPointStop  offset="0.6703" style="stop-color:#FFCC66"/>
	<a:midPointStop  offset="1" style="stop-color:#F2BA4B"/>
</radialGradient>
<path fill="url(#SVGID_3_)" d="M49.742,53.536c-4.874,0-7.677,0-11.49,0c-4.05,0-4.05-6.462,0-6.462c3.751,0,7.555,0,11.49,0
	C53.818,47.074,53.818,53.536,49.742,53.536z"/>
<path fill="#D9A640" d="M51.697,38.817c-6.106,0-8.514,0-13.29,0c-4.197,0-4.383-5.438-1.808-7.865
	c0.684-0.644,2.606-1.461,4.379-1.772c2.771-0.489,7.789-0.583,11.232,0.208C57.42,30.584,57.268,38.817,51.697,38.817z"/>
<radialGradient id="SVGID_4_" cx="20.8804" cy="35.875" r="8.3632" gradientTransform="matrix(0.9528 -0.005 0.0032 0.6308 27.4741 11.2893)" gradientUnits="userSpaceOnUse">
	<stop  offset="0.4545" style="stop-color:#FFCC66"/>
	<stop  offset="0.6609" style="stop-color:#FDC961"/>
	<stop  offset="0.9065" style="stop-color:#F6BF53"/>
	<stop  offset="1" style="stop-color:#F2BA4B"/>
	<a:midPointStop  offset="0.4545" style="stop-color:#FFCC66"/>
	<a:midPointStop  offset="0.6703" style="stop-color:#FFCC66"/>
	<a:midPointStop  offset="1" style="stop-color:#F2BA4B"/>
</radialGradient>
<path fill="url(#SVGID_4_)" d="M51.713,37.318c-4.275,0-9.918,0-13.261,0c-2.939,0-2.39-4.375-0.458-5.507
	c0.729-0.426,2.092-0.976,3.775-1.241c1.767-0.278,6.438-0.505,10.021,0.26C55.426,31.605,55.614,37.318,51.713,37.318z"/>
<path fill="#D9A640" d="M51.168,47.158c-7.422,0-7.144,0-12.953,0c-6.395,0-6.395-9.842,0-9.842c5.713,0,6.957,0,12.953,0
	C57.559,37.316,57.559,47.158,51.168,47.158z"/>
<radialGradient id="SVGID_5_" cx="43.5117" cy="1.9346" r="8.9597" gradientTransform="matrix(0.9874 -0.0041 0.0033 0.5175 3.8887 41.4152)" gradientUnits="userSpaceOnUse">
	<stop  offset="0.4545" style="stop-color:#FFCC66"/>
	<stop  offset="0.6609" style="stop-color:#FDC961"/>
	<stop  offset="0.9065" style="stop-color:#F6BF53"/>
	<stop  offset="1" style="stop-color:#F2BA4B"/>
	<a:midPointStop  offset="0.4545" style="stop-color:#FFCC66"/>
	<a:midPointStop  offset="0.6703" style="stop-color:#FFCC66"/>
	<a:midPointStop  offset="1" style="stop-color:#F2BA4B"/>
</radialGradient>
<path fill="url(#SVGID_5_)" d="M51.28,45.66c-5.161,0-9.129,0-13.169,0c-4.289,0-4.289-6.845,0-6.845c3.974,0,9.001,0,13.169,0
	C55.599,38.815,55.599,45.66,51.28,45.66z"/>
</svg>
