<?xml version="1.0" encoding="utf-8"?>
<!-- Generator: Adobe Illustrator 19.0.0, SVG Export Plug-In . SVG Version: 6.00 Build 0)  -->
<svg version="1.1" id="Layer_1" xmlns="http://www.w3.org/2000/svg" xmlns:xlink="http://www.w3.org/1999/xlink" x="0px" y="0px"
	 width="64px" height="64px" viewBox="0 0 64 64" enable-background="new 0 0 64 64" xml:space="preserve">
<radialGradient id="SVGID_1_" cx="2.7735" cy="52.0992" r="30.8577" gradientTransform="matrix(4.354970e-011 -0.97 1.1358 5.099549e-011 -17.6569 38.6903)" gradientUnits="userSpaceOnUse">
	<stop  offset="0.4485" style="stop-color:#916B50"/>
	<stop  offset="0.77" style="stop-color:#8F694E"/>
	<stop  offset="0.9245" style="stop-color:#8A6246"/>
	<stop  offset="1" style="stop-color:#855C3F"/>
</radialGradient>
<path fill="url(#SVGID_1_)" d="M32.356,9.359C26.551,19.646,18.08,20.218,13.371,26.21c-1.752,2.23-6.389,2.787-8.814,2.787
	c-2.529,0-2.443,22.66,0,22.66c6.461,0,10.184,2.494,17.488,3.537c2.096,0.299,9.152-0.273,11.246-0.623
	c4.166-0.697,5.541-4.482,4.189-7.125c0,0,4.23-3.426,1.203-7.732c0,0,3.963-3.404,1.152-7.756c0,0,12.516,0,16.996,0
	c5.963,0,5.963-7.746,0-7.746c-6.59,0-22.656,0-24.561,0c-2.91,0,4.777-3.393,4.777-11.033C37.049,9.365,33.291,7.703,32.356,9.359z
	"/>
<path fill="#754E31" d="M56.832,32.677H41.033c1.025,2.375,0.517,5.004-1.434,7.135c1.572,2.65,0.986,5.563-1.258,7.814
	c1.156,3.02-0.533,6.918-4.934,7.656c-1.998,0.334-9.188,0.951-11.463,0.625c-7.473-1.066-11.016-3.531-17.545-3.531
	c-3.201,0-3.201-24.098,0-24.098c2.166,0,6.758-0.412,8.41-2.516c4.871-6.197,13.215-6.641,18.924-16.76
	c1.334-2.363,6.029-0.383,6.029,4.176c0,5.316-3.473,8.652-4.979,10.313h24.047C63.723,23.492,63.723,32.677,56.832,32.677z
	 M38.518,31.238h18.314c5,0,5-6.307,0-6.307H32.272c-1.496,0-1.695-1.1-0.943-1.981c1.539-1.797,5.006-4.701,5.006-9.771
	c0-3.148-2.854-4.355-3.355-3.465c-5.861,10.383-14.592,11.273-19.047,16.943c-1.969,2.506-6.803,3.047-9.229,3.061
	c-1.77,1.887-1.559,19.441,0.012,21.219c6.359,0.027,10.672,2.578,17.432,3.545c1.926,0.275,8.859-0.258,11.027-0.621
	c4.256-0.713,4.781-4.619,3.404-6.608c0,0,4.684-3.242,1.145-7.66C40.16,37.591,41.217,34.591,38.518,31.238z"/>
</svg>
