<?xml version="1.0" encoding="utf-8"?>
<!-- Generator: Adobe Illustrator 19.0.0, SVG Export Plug-In . SVG Version: 6.00 Build 0)  -->
<svg version="1.1" id="Layer_1" xmlns="http://www.w3.org/2000/svg" xmlns:xlink="http://www.w3.org/1999/xlink" x="0px" y="0px"
	 width="64px" height="64px" viewBox="0 0 64 64" enable-background="new 0 0 64 64" xml:space="preserve">
<path fill="#F0C59E" d="M27.897,45.964c-3.94,5.402,1.342,11.771,5.281,10.313c7.922-2.936,11.061-2.604,18.5-1.156
	c6.677,1.299,11.425-9.881,8.718-14.313c-4.013-6.567-2.623-17.08-8.53-24.5L27.897,45.964z"/>
<path fill="#E0AF82" d="M52.037,19.027c2.017,3.486,2.952,7.669,3.86,11.736c0.92,4.113,1.787,7.998,3.711,11.146
	c0.754,1.233,0.465,4.416-1.326,7.605c-1.949,3.477-4.467,4.896-6.308,4.537c0,0-6.607-1.287-9.374-1.287
	c-3.066,0-6.119,0.646-10.209,2.162c-1.988,0.736-6.428-3.492-3.394-7.73L52.037,19.027 M52.183,15.689L27.411,45.977
	c-3.965,5.438,1.75,12.276,5.676,10.826c4-1.482,6.782-2.037,9.514-2.037c2.679,0,5.309,0.533,8.992,1.25
	c6.676,1.299,12.43-10.715,9.723-15.148C57.302,34.3,58.091,23.109,52.183,15.689L52.183,15.689z"/>
<radialGradient id="SVGID_1_" cx="52.1082" cy="23.7783" r="30.4256" gradientTransform="matrix(1.0187 0 0 0.7499 -22.6805 8.4048)" gradientUnits="userSpaceOnUse">
	<stop  offset="0.4485" style="stop-color:#FCD5B2"/>
	<stop  offset="0.7565" style="stop-color:#FBD3B0"/>
	<stop  offset="0.9046" style="stop-color:#F6CDA8"/>
	<stop  offset="1" style="stop-color:#F0C59E"/>
</radialGradient>
<path fill="url(#SVGID_1_)" d="M52.814,16.609c-1.971-5.898-5.563-8.424-11.979-4.062c-5.844-5.981-9.149-6.415-14.438,0.417
	c-5.529-3.096-10.19-0.632-13.063,4.355c-4.125-2.652-9.069-0.058-9.896,5.27c-3.565,23.043,2.584,24.136,9.75,22.083
	c4.635,7.785,12.521,1.771,12.521,1.771s6.281,9.536,16.188,1.083c4.518,5.109,12.956,0.768,13.542-5.438
	C55.837,37.874,55.183,23.705,52.814,16.609z"/>
<path fill="#E0AF82" d="M53.109,16.42c-1.328-3.974-3.442-6.665-6.643-6.665c-1.55,0-3.355,0.632-5.449,2.056
	C37.998,8.721,35.55,7,33.159,7c-2.238,0-4.426,1.508-6.983,4.811c-1.651-0.924-3.219-1.344-4.682-1.344
	c-3.434,0-6.289,2.31-8.305,5.807c-0.944-0.607-1.948-0.883-2.943-0.883c-3.352,0-6.615,3.124-7.252,7.232
	C0.109,41.287,3.9,45.933,9.253,45.933c1.256,0,2.598-0.255,3.959-0.646c1.823,3.063,4.16,3.992,6.322,3.992
	c3.333,0,6.254-2.207,6.254-2.207s2.934,4.306,7.965,4.306c2.316,0,5.076-0.912,8.199-3.577c1.372,1.553,3.145,2.218,4.964,2.218
	c4.169,0,8.581-3.493,8.989-7.813C56.304,37.99,55.478,23.516,53.109,16.42z M53.914,42.018c-0.291,3.084-3.692,6.001-6.998,6.001
	c-1.395,0-2.561-0.519-3.466-1.542l-0.537-0.609c-0.091-2.592-1.379-18.594-1.277-22.435l-2-0.053
	c-0.104,3.948,1.197,20.104,1.282,22.674l-0.265,0.226c-2.408,2.057-4.73,3.099-6.9,3.099c-3.872,0-6.295-3.407-6.313-3.433
	l-0.545-0.793c-0.012-1.713-0.232-17.883-0.107-22.537l-2-0.053c-0.125,4.693,0.098,20.955,0.108,22.68l-0.309,0.23
	c-0.024,0.017-2.458,1.807-5.054,1.807c-2.546,0-4.505-1.892-5.244-4.092c-1.561-4.641-0.63-16.088-0.582-17.875l-2-0.055
	c-0.046,1.744-0.842,13.496,0.574,18.205c-1.164,0.311-2.165,0.47-3.029,0.47c-1.434,0-2.461-0.42-3.234-1.321
	c-1.581-1.846-3.047-6.758-1.047-19.682c0.474-3.055,2.84-5.539,5.275-5.539c1.712,0,3.628,1.701,3.628,1.701
	c1.263-2.193,3.772-6.625,7.62-6.625c1.922,0,3.918,1.209,5.208,1.931C28.805,11.684,30.689,9,33.158,9
	c2.863,0,4.755,2.496,7.599,5.406c1.668-1.135,3.744-2.651,5.709-2.651c2.348,0,3.571,1.782,4.746,5.298
	C53.491,23.881,54.284,38.096,53.914,42.018z"/>
</svg>
