<?xml version="1.0" encoding="utf-8"?>
<!-- Generator: Adobe Illustrator 19.0.0, SVG Export Plug-In . SVG Version: 6.00 Build 0)  -->
<svg version="1.1" id="Layer_1" xmlns="http://www.w3.org/2000/svg" xmlns:xlink="http://www.w3.org/1999/xlink" x="0px" y="0px"
	 width="64px" height="64px" viewBox="0 0 64 64" enable-background="new 0 0 64 64" xml:space="preserve">
<path fill="#916B50" d="M12.715,34.208C4.102,15.46,17.469,2,31.992,2c10.797,0,19.953,10.177,21.533,20.079
	c2.049,12.752-2.397,29.08-16.092,31.251c-9.104,1.443-11.922,13.5-23.244,6.502C5.121,54.228,18.381,46.544,12.715,34.208z"/>
<radialGradient id="SVGID_1_" cx="39.8474" cy="39.4179" r="32.5345" gradientTransform="matrix(1 0 0 1.2034 0 -7.8048)" gradientUnits="userSpaceOnUse">
	<stop  offset="0.3152" style="stop-color:#754E31;stop-opacity:0"/>
	<stop  offset="0.8667" style="stop-color:#754E31;stop-opacity:0.9"/>
</radialGradient>
<path fill="url(#SVGID_1_)" d="M33.631,45.677c0,0,6.293-7.199,13.764-7.708C55,20.972,40.164,2.734,25.985,7.574
	c-12.418,4.237-13.551,21.235-9.166,23.005c4.939,1.992,7.902,7.032,2.188,10.948c-4.051,2.777,0.828,11.98,4.232,7.95
	C26.703,45.372,29.147,44.131,33.631,45.677z"/>
<path fill="#66452B" d="M33.631,45.677c0,0-1.883-2.825-6.012-2.386c-1.264,0.137,3.41-3.75-1.836-7.415
	c-0.715-7.992-7.078-7.682-6.219-9.838c1.191-2.961,8.285-1.9,11.822,4.363c0.053-11.037-14.998-6.828-12.232-12.582
	c6.424-13.347,32.854-5.904,28.24,20.149C55,20.972,40.164,2.734,25.985,7.574c-12.418,4.237-13.551,21.235-9.166,23.005
	c4.939,1.992,7.902,7.032,2.188,10.948c-4.051,2.777,0.828,11.98,4.232,7.95C26.703,45.372,29.147,44.131,33.631,45.677z"/>
</svg>
