<?xml version="1.0" encoding="utf-8"?>
<!-- Generator: Adobe Illustrator 19.0.0, SVG Export Plug-In . SVG Version: 6.00 Build 0)  -->
<svg version="1.1" id="Layer_1" xmlns="http://www.w3.org/2000/svg" xmlns:xlink="http://www.w3.org/1999/xlink" x="0px" y="0px"
	 width="64px" height="64px" viewBox="0 0 64 64" enable-background="new 0 0 64 64" xml:space="preserve">
<linearGradient id="SVGID_1_" gradientUnits="userSpaceOnUse" x1="27.6764" y1="60.7839" x2="27.6764" y2="2.7938">
	<stop  offset="0.097" style="stop-color:#AB795B"/>
	<stop  offset="0.1922" style="stop-color:#B28266"/>
	<stop  offset="0.3363" style="stop-color:#B7886D"/>
	<stop  offset="0.6606" style="stop-color:#B88A6F"/>
</linearGradient>
<path fill="url(#SVGID_1_)" d="M38.242,22.02c2.652-5.252,3.473-10.254,0.307-15.578c-3.951-6.644-9.172-2.738-8.887,0.17
	c1.42,14.604-6.56,21.533-8.76,25.279c-1.178,2.01-9.693,1.365-9.693,1.365s-5.183,12.879,0,24.287
	c4.934-0.83,9.309-0.729,9.693-0.504c9.906,5.809,22.584,3.125,22.584,3.125l2.961-29.174C46.447,30.991,34.291,29.835,38.242,22.02
	z"/>
<path fill="#996748" d="M37.898,60.005c-0.473,0.018-9.967,0.469-16.617-3.609c-0.145-0.088-2.605-0.766-9.619,0.316
	c-4.073-9.598-0.787-20.26,0.057-22.672c6.475,0.399,8.387-0.1,9.828-1.767c4.795-5.545,10.049-13.506,8.859-25.733
	c-0.215-2.217,3.979-5.637,7.5,0.285c2.682,4.512,2.58,9.094-0.332,14.857c-2.432,4.807,0.609,7.697,4.537,9.084
	c0.33-0.42,0.674-0.828,1.01-1.244c-3.281-1.041-6.014-3.6-4.213-7.162c3.17-6.275,3.258-11.301,0.283-16.303
	c-4.396-7.391-10.643-3.143-10.273,0.629c1.133,11.645-3.51,18.76-8.66,24.826c-1.053,1.244-6.606,1.199-9.537,0.957
	c0,0-6.151,14.291,0.045,25.908c6.496-1.084,9.664-0.686,9.82-0.654c8.125,4.588,17.729,3.775,18.553,3.723
	C38.736,60.956,38.322,60.476,37.898,60.005z"/>
<path fill="#996748" d="M39.502,41.925l0.4,1.559c-1.926,3.822-10.766,7.35-17.98,3.803C28.797,49.741,37.853,45.692,39.502,41.925z
	"/>
<path fill="#996748" d="M49.256,61.368c-2.613,0.609-6.877,0.801-9.057,0.475c-1.652-0.246-3.055-0.934-3.76-1.559
	c-1.918-1.699-2.246-6.842,3.086-6.842c3.996,0,5.84,0,10.037,0C54.156,53.442,53.143,60.464,49.256,61.368z"/>
<radialGradient id="SVGID_2_" cx="41.7672" cy="60.097" r="6.4558" gradientTransform="matrix(0.9875 -0.005 0.0033 0.6308 4.0757 20.0075)" gradientUnits="userSpaceOnUse">
	<stop  offset="0.4545" style="stop-color:#B88A6F"/>
	<stop  offset="0.6999" style="stop-color:#B5866A"/>
	<stop  offset="0.9919" style="stop-color:#AB795C"/>
	<stop  offset="1" style="stop-color:#AB795B"/>
</radialGradient>
<path fill="url(#SVGID_2_)" d="M48.625,59.979c-1.795,0.353-6.592,0.672-8.275,0.379c-1.061-0.184-2.318-0.602-2.773-1.006
	c-1.236-1.094-1.6-4.412,1.838-4.412c2.578,0,7.281,0,9.988,0C52.365,54.94,51.242,59.464,48.625,59.979z"/>
<path fill="#996748" d="M49.635,54.95c-7.006,0-5.801,0-11.287,0c-6.035,0-6.035-9.291,0-9.291c5.395,0,5.629,0,11.287,0
	C55.666,45.659,55.666,54.95,49.635,54.95z"/>
<radialGradient id="SVGID_3_" cx="42.1899" cy="11.8198" r="8.1314" gradientTransform="matrix(0.9875 -0.0041 0.0033 0.5175 4.2353 44.3617)" gradientUnits="userSpaceOnUse">
	<stop  offset="0.4545" style="stop-color:#B88A6F"/>
	<stop  offset="0.6999" style="stop-color:#B5866A"/>
	<stop  offset="0.9919" style="stop-color:#AB795C"/>
	<stop  offset="1" style="stop-color:#AB795B"/>
</radialGradient>
<path fill="url(#SVGID_3_)" d="M49.742,53.536c-4.875,0-7.678,0-11.49,0c-4.051,0-4.051-6.463,0-6.463c3.75,0,7.555,0,11.49,0
	C53.818,47.073,53.818,53.536,49.742,53.536z"/>
<path fill="#996748" d="M51.697,38.817c-6.108,0-8.514,0-13.291,0c-4.197,0-4.383-5.439-1.807-7.865
	c0.684-0.642,2.605-1.461,4.379-1.771c2.772-0.49,7.789-0.584,11.232,0.207C57.42,30.585,57.268,38.817,51.697,38.817z"/>
<radialGradient id="SVGID_4_" cx="20.6581" cy="35.5275" r="8.3632" gradientTransform="matrix(0.9528 -0.005 0.0032 0.6308 27.686 11.506)" gradientUnits="userSpaceOnUse">
	<stop  offset="0.4545" style="stop-color:#B88A6F"/>
	<stop  offset="0.6999" style="stop-color:#B5866A"/>
	<stop  offset="0.9919" style="stop-color:#AB795C"/>
	<stop  offset="1" style="stop-color:#AB795B"/>
</radialGradient>
<path fill="url(#SVGID_4_)" d="M51.713,37.317c-4.275,0-9.918,0-13.262,0c-2.939,0-2.389-4.373-0.457-5.506
	c0.729-0.426,2.092-0.977,3.775-1.242c1.766-0.277,6.438-0.504,10.021,0.26C55.426,31.604,55.613,37.317,51.713,37.317z"/>
<path fill="#996748" d="M51.168,47.157c-7.422,0-7.145,0-12.953,0c-6.394,0-6.394-9.842,0-9.842c5.713,0,6.957,0,12.953,0
	C57.559,37.315,57.559,47.157,51.168,47.157z"/>
<radialGradient id="SVGID_5_" cx="43.125" cy="1.7078" r="8.9587" gradientTransform="matrix(0.9875 -0.0041 0.0033 0.5175 4.2687 41.531)" gradientUnits="userSpaceOnUse">
	<stop  offset="0.4545" style="stop-color:#B88A6F"/>
	<stop  offset="0.6999" style="stop-color:#B5866A"/>
	<stop  offset="0.9919" style="stop-color:#AB795C"/>
	<stop  offset="1" style="stop-color:#AB795B"/>
</radialGradient>
<path fill="url(#SVGID_5_)" d="M51.279,45.659c-5.16,0-9.129,0-13.168,0c-4.289,0-4.289-6.844,0-6.844c3.973,0,9,0,13.168,0
	C55.598,38.815,55.598,45.659,51.279,45.659z"/>
</svg>
