<?xml version="1.0" encoding="utf-8"?>
<!-- Generator: Adobe Illustrator 15.0.0, SVG Export Plug-In . SVG Version: 6.00 Build 0)  -->
<!DOCTYPE svg PUBLIC "-//W3C//DTD SVG 1.1//EN" "http://www.w3.org/Graphics/SVG/1.1/DTD/svg11.dtd" [
	<!ENTITY ns_flows "http://ns.adobe.com/Flows/1.0/">
	<!ENTITY ns_extend "http://ns.adobe.com/Extensibility/1.0/">
	<!ENTITY ns_ai "http://ns.adobe.com/AdobeIllustrator/10.0/">
	<!ENTITY ns_graphs "http://ns.adobe.com/Graphs/1.0/">
]>
<svg version="1.1" id="Layer_1" xmlns:x="&ns_extend;" xmlns:i="&ns_ai;" xmlns:graph="&ns_graphs;"
	 xmlns="http://www.w3.org/2000/svg" xmlns:xlink="http://www.w3.org/1999/xlink" xmlns:a="http://ns.adobe.com/AdobeSVGViewerExtensions/3.0/"
	 x="0px" y="0px" width="64px" height="64px" viewBox="0 0 64 64" enable-background="new 0 0 64 64" xml:space="preserve">
<path fill="#F2BA4B" d="M27.896,45.964c-3.939,5.402,1.342,11.771,5.281,10.313c7.922-2.936,11.061-2.604,18.5-1.156
	c6.678,1.299,11.426-9.881,8.719-14.313c-4.014-6.567-2.623-17.081-8.531-24.5L27.896,45.964z"/>
<path fill="#D9A640" d="M52.037,19.026c2.018,3.487,2.951,7.669,3.86,11.737c0.919,4.113,1.787,7.998,3.712,11.146
	c0.753,1.234,0.463,4.417-1.326,7.607c-1.949,3.476-4.468,4.895-6.309,4.535c0,0-6.607-1.286-9.374-1.286
	c-3.066,0-6.119,0.646-10.208,2.161c-1.988,0.738-6.429-3.491-3.395-7.73L52.037,19.026 M52.183,15.689L27.411,45.977
	c-3.965,5.438,1.75,12.276,5.676,10.826c3.999-1.481,6.782-2.037,9.514-2.037c2.679,0,5.309,0.533,8.992,1.25
	c6.676,1.299,12.431-10.716,9.723-15.148C57.302,34.3,58.091,23.109,52.183,15.689L52.183,15.689z"/>
<radialGradient id="SVGID_1_" cx="52.1074" cy="23.7783" r="30.4245" gradientTransform="matrix(1.0187 0 0 0.7499 -22.6806 8.4045)" gradientUnits="userSpaceOnUse">
	<stop  offset="0.4485" style="stop-color:#FFCC66"/>
	<stop  offset="0.7332" style="stop-color:#FECB64"/>
	<stop  offset="0.87" style="stop-color:#FAC65C"/>
	<stop  offset="0.9751" style="stop-color:#F4BD4F"/>
	<stop  offset="1" style="stop-color:#F2BA4B"/>
	<a:midPointStop  offset="0.4485" style="stop-color:#FFCC66"/>
	<a:midPointStop  offset="0.8333" style="stop-color:#FFCC66"/>
	<a:midPointStop  offset="1" style="stop-color:#F2BA4B"/>
</radialGradient>
<path fill="url(#SVGID_1_)" d="M52.813,16.609c-1.971-5.899-5.563-8.425-11.979-4.063c-5.844-5.98-9.148-6.416-14.438,0.417
	c-5.529-3.096-10.189-0.632-13.063,4.354c-4.125-2.652-9.069-0.058-9.896,5.271c-3.564,23.043,2.583,24.137,9.75,22.084
	c4.635,7.785,12.521,1.771,12.521,1.771s6.281,9.536,16.188,1.083c4.518,5.109,12.955,0.768,13.541-5.438
	C55.836,37.874,55.183,23.705,52.813,16.609z"/>
<path fill="#D9A640" d="M53.108,16.419c-1.327-3.974-3.442-6.665-6.642-6.665c-1.551,0-3.355,0.632-5.45,2.056
	C37.998,8.721,35.549,7,33.159,7c-2.238,0-4.425,1.507-6.982,4.81c-1.651-0.924-3.219-1.344-4.681-1.344
	c-3.434,0-6.29,2.31-8.305,5.807c-0.944-0.607-1.948-0.883-2.943-0.883c-3.352,0-6.615,3.124-7.252,7.232
	C0.108,41.288,3.9,45.933,9.253,45.933c1.256,0,2.597-0.256,3.958-0.646c1.823,3.063,4.16,3.992,6.322,3.992
	c3.333,0,6.254-2.207,6.254-2.207s2.935,4.306,7.966,4.306c2.315,0,5.075-0.912,8.198-3.577c1.372,1.552,3.146,2.218,4.964,2.218
	c4.168,0,8.582-3.493,8.989-7.813C56.304,37.99,55.478,23.515,53.108,16.419z M53.914,42.017c-0.291,3.086-3.692,6.002-6.998,6.002
	c-1.395,0-2.561-0.52-3.465-1.543l-0.538-0.607c-0.091-2.594-1.379-18.595-1.278-22.436l-1.998-0.053
	c-0.105,3.948,1.195,20.104,1.281,22.674l-0.264,0.226c-2.41,2.056-4.731,3.099-6.9,3.099c-3.873,0-6.295-3.406-6.313-3.432
	l-0.545-0.794c-0.012-1.714-0.232-17.883-0.108-22.537l-1.999-0.054c-0.125,4.694,0.097,20.957,0.108,22.682l-0.309,0.229
	c-0.024,0.019-2.458,1.808-5.054,1.808c-2.545,0-4.504-1.892-5.244-4.092c-1.56-4.64-0.629-16.088-0.582-17.876l-1.999-0.054
	c-0.046,1.744-0.843,13.496,0.573,18.205c-1.164,0.31-2.165,0.47-3.028,0.47c-1.434,0-2.461-0.42-3.234-1.322
	c-1.582-1.844-3.047-6.757-1.047-19.681c0.474-3.055,2.84-5.539,5.275-5.539c1.712,0,3.628,1.701,3.628,1.701
	c1.263-2.192,3.771-6.625,7.62-6.625c1.922,0,3.918,1.208,5.208,1.931C28.805,11.683,30.688,9,33.158,9
	c2.863,0,4.755,2.495,7.598,5.405c1.669-1.134,3.745-2.651,5.711-2.651c2.347,0,3.57,1.783,4.744,5.298
	C53.49,23.88,54.285,38.096,53.914,42.017z"/>
</svg>
