<?xml version="1.0" encoding="utf-8"?>
<!-- Generator: Adobe Illustrator 19.0.0, SVG Export Plug-In . SVG Version: 6.00 Build 0)  -->
<svg version="1.1" id="Layer_1" xmlns="http://www.w3.org/2000/svg" xmlns:xlink="http://www.w3.org/1999/xlink" x="0px" y="0px"
	 width="64px" height="64px" viewBox="0 0 64 64" enable-background="new 0 0 64 64" xml:space="preserve">
<radialGradient id="SVGID_1_" cx="382.5936" cy="-671.9778" r="46.1359" gradientTransform="matrix(0.7109 0.7199 -0.5521 0.5591 -619.223 120.9294)" gradientUnits="userSpaceOnUse">
	<stop  offset="0.4364" style="stop-color:#FCD5B2"/>
	<stop  offset="0.7049" style="stop-color:#FBD3B0"/>
	<stop  offset="0.8242" style="stop-color:#F6CDA9"/>
	<stop  offset="0.903" style="stop-color:#F0C59E"/>
</radialGradient>
<path fill="url(#SVGID_1_)" d="M49.982,12.255c-5.934,6.246-0.643,12.668-3.805,13.037c-0.822,0.092-3.168-2.602-3.168-2.602
	c-4.031-4.242-9.648-10.017-17.977-18.449c-4.188-4.244-10.426,2.066-6.232,6.314c-1.051-1.066-2.125-2.154-3.226-3.272
	C11.388,3.046,5.115,9.324,9.34,13.597c1.129,1.144,2.197,2.228,3.229,3.271c-4.184-4.234-10.418,2.078-6.236,6.313
	c0.893,0.904,2.945,2.98,5.367,5.436c-4.352-4.039-9.428,1.285-5.395,5.658c4.59,4.975,14.027,14.988,19.082,20.092
	c7.246,7.314,18.063,9.848,25.932,1.57c17.109-17.998,0.375-26.266,4.678-43.6C56.527,10.191,52.945,9.14,49.982,12.255z"/>
<path fill="#0FB4D4" d="M43.021,15.578c-3.895-7.869-10.709-9.912-10.777-9.932c-1.354-0.391-0.932-1.883,0.422-1.488
	c0.305,0.088,7.533,2.256,11.729,10.727C44.996,16.103,43.66,16.869,43.021,15.578z"/>
<path fill="#0FB4D4" d="M45.043,10.355c-1.896-4.781-6.688-6.781-6.736-6.801c-1.318-0.537-0.748-1.971,0.572-1.438
	c0.221,0.088,5.443,2.25,7.586,7.662C46.957,11.015,45.57,11.687,45.043,10.355z"/>
<path fill="#0FB4D4" d="M17.004,51.853c-7.568-1.092-9.748-8.502-9.838-8.816c-0.387-1.367,1.082-1.793,1.475-0.426
	c0.08,0.275,2.012,6.762,8.576,7.709C18.591,50.517,18.222,52.033,17.004,51.853z"/>
<path fill="#0FB4D4" d="M15.992,57.019c-8.521-1.074-11.73-8.414-11.861-8.727c-0.563-1.322,0.844-1.932,1.408-0.611
	c0.029,0.068,3.016,6.838,10.643,7.801C17.552,55.654,17.209,57.173,15.992,57.019z"/>
<path fill="#E0AF82" d="M45.306,25.019c-2.965,3.25-2.676,13.279,3.254,18.77c-4.768-5.578-4.1-15.649-1.088-18.617L45.306,25.019z"
	/>
<path fill="#E0AF82" d="M49.422,11.718c-5.627,5.803-1.787,12.516-3.248,12.807c-0.594,0.117-1.949-1.992-20.603-20.83
	c-3.656-3.691-8.818-0.537-8.928,3.584L16.109,6.74c-4.92-4.969-12.269,2.406-7.32,7.406l0.541,0.549
	c-4.008,0.109-7.225,5.311-3.549,9.033l2.647,2.68c-3.869,0.027-6.051,4.754-2.691,8.396c4.559,4.941,13.984,14.945,19.1,20.111
	c9.508,9.6,20.182,8.762,27.039,1.568c17.502-18.361,0.627-26.91,4.857-43.959C57.439,9.668,53.185,7.839,49.422,11.718z
	 M55.244,12.15c-4.379,17.658,12.344,25.557-4.482,43.254c-5.834,6.135-15.381,7.967-24.84-1.584
	C20.818,48.666,11.41,38.681,6.859,33.748c-3.383-3.668,0.711-7.904,4.315-4.561l11.961,12.107l1.086-1.094L6.869,22.634
	c-2.674-2.705-0.148-6.393,2.59-6.391c0.914,0,1.799,0.406,2.557,1.172c0,0.002,17.354,17.566,17.354,17.566l1.086-1.094
	L9.877,13.052c-3.469-3.502,1.688-8.709,5.145-5.221l20.582,20.836l1.086-1.096L19.279,9.941c-3.428-3.603,1.797-8.592,5.205-5.15
	c19.26,19.445,19.986,21.496,21.774,21.274c4.313-0.541-1.535-7.285,4.271-13.272C52.884,10.365,55.566,10.843,55.244,12.15z"/>
</svg>
