<?xml version="1.0" encoding="utf-8"?>
<!-- Generator: Adobe Illustrator 15.0.0, SVG Export Plug-In . SVG Version: 6.00 Build 0)  -->
<!DOCTYPE svg PUBLIC "-//W3C//DTD SVG 1.1//EN" "http://www.w3.org/Graphics/SVG/1.1/DTD/svg11.dtd" [
	<!ENTITY ns_flows "http://ns.adobe.com/Flows/1.0/">
	<!ENTITY ns_extend "http://ns.adobe.com/Extensibility/1.0/">
	<!ENTITY ns_ai "http://ns.adobe.com/AdobeIllustrator/10.0/">
	<!ENTITY ns_graphs "http://ns.adobe.com/Graphs/1.0/">
]>
<svg version="1.1" id="Layer_1" xmlns:x="&ns_extend;" xmlns:i="&ns_ai;" xmlns:graph="&ns_graphs;"
	 xmlns="http://www.w3.org/2000/svg" xmlns:xlink="http://www.w3.org/1999/xlink" xmlns:a="http://ns.adobe.com/AdobeSVGViewerExtensions/3.0/"
	 x="0px" y="0px" width="64px" height="64px" viewBox="0 0 64 64" enable-background="new 0 0 64 64" xml:space="preserve">
<radialGradient id="SVGID_1_" cx="-8.9521" cy="43.1943" r="30.8583" gradientTransform="matrix(-4.239895e-008 -0.97 1.1358 -4.964735e-008 -7.5398 27.3165)" gradientUnits="userSpaceOnUse">
	<stop  offset="0" style="stop-color:#FFCC66"/>
	<stop  offset="0.4485" style="stop-color:#FFCC66"/>
	<stop  offset="0.7332" style="stop-color:#FECB64"/>
	<stop  offset="0.87" style="stop-color:#FAC65C"/>
	<stop  offset="0.9751" style="stop-color:#F4BD4F"/>
	<stop  offset="1" style="stop-color:#F2BA4B"/>
	<a:midPointStop  offset="0" style="stop-color:#FFCC66"/>
	<a:midPointStop  offset="0.5" style="stop-color:#FFCC66"/>
	<a:midPointStop  offset="0.4485" style="stop-color:#FFCC66"/>
	<a:midPointStop  offset="0.8333" style="stop-color:#FFCC66"/>
	<a:midPointStop  offset="1" style="stop-color:#F2BA4B"/>
</radialGradient>
<path fill="url(#SVGID_1_)" d="M32.356,9.358c-5.806,10.288-14.275,10.86-18.985,16.852c-1.751,2.23-6.388,2.788-8.815,2.788
	c-2.528,0-2.442,22.66,0,22.66c6.461,0,10.184,2.494,17.49,3.538c2.094,0.299,9.151-0.273,11.245-0.624
	c4.166-0.697,5.541-4.481,4.189-7.125c0,0,4.231-3.426,1.203-7.731c0,0,3.963-3.404,1.152-7.757c0,0,12.516,0,16.996,0
	c5.963,0,5.963-7.747,0-7.747c-6.589,0-22.656,0-24.56,0c-2.911,0,4.776-3.393,4.776-11.033C37.049,9.365,33.291,7.703,32.356,9.358
	z"/>
<path fill="#D9A640" d="M56.832,32.678H41.033c1.025,2.375,0.519,5.004-1.434,7.135c1.572,2.65,0.986,5.563-1.257,7.813
	c1.155,3.021-0.534,6.918-4.935,7.656c-1.998,0.334-9.187,0.951-11.463,0.625c-7.473-1.066-11.016-3.53-17.545-3.53
	c-3.201,0-3.201-24.1,0-24.1c2.167,0,6.759-0.412,8.411-2.515c4.87-6.197,13.213-6.641,18.923-16.761
	c1.334-2.363,6.029-0.383,6.029,4.176c0,5.316-3.473,8.652-4.979,10.313h24.047C63.723,23.491,63.723,32.678,56.832,32.678z
	 M38.518,31.238h18.314c5.001,0,5.001-6.306,0-6.306h-24.56c-1.497,0-1.696-1.1-0.943-1.98c1.538-1.798,5.005-4.701,5.005-9.772
	c0-3.147-2.854-4.355-3.356-3.464c-5.86,10.383-14.591,11.272-19.046,16.942c-1.97,2.507-6.804,3.047-9.229,3.061
	c-1.769,1.888-1.558,19.443,0.013,21.22c6.358,0.028,10.672,2.579,17.431,3.546c1.926,0.274,8.86-0.259,11.027-0.621
	c4.256-0.713,4.781-4.62,3.404-6.607c0,0,4.684-3.243,1.145-7.66C40.16,37.592,41.217,34.592,38.518,31.238z"/>
</svg>
