<?xml version="1.0" encoding="utf-8"?>
<!-- Generator: Adobe Illustrator 15.0.0, SVG Export Plug-In . SVG Version: 6.00 Build 0)  -->
<!DOCTYPE svg PUBLIC "-//W3C//DTD SVG 1.1//EN" "http://www.w3.org/Graphics/SVG/1.1/DTD/svg11.dtd" [
	<!ENTITY ns_flows "http://ns.adobe.com/Flows/1.0/">
	<!ENTITY ns_extend "http://ns.adobe.com/Extensibility/1.0/">
	<!ENTITY ns_ai "http://ns.adobe.com/AdobeIllustrator/10.0/">
	<!ENTITY ns_graphs "http://ns.adobe.com/Graphs/1.0/">
]>
<svg version="1.1" id="Layer_1" xmlns:x="&ns_extend;" xmlns:i="&ns_ai;" xmlns:graph="&ns_graphs;"
	 xmlns="http://www.w3.org/2000/svg" xmlns:xlink="http://www.w3.org/1999/xlink" xmlns:a="http://ns.adobe.com/AdobeSVGViewerExtensions/3.0/"
	 x="0px" y="0px" width="64px" height="64px" viewBox="0 0 64 64" enable-background="new 0 0 64 64" xml:space="preserve">
<linearGradient id="SVGID_1_" gradientUnits="userSpaceOnUse" x1="27.6772" y1="60.7842" x2="27.6772" y2="2.7939" gradientTransform="matrix(1 0 0 -1 -9.765625e-004 64)">
	<stop  offset="0.097" style="stop-color:#F2BA4B"/>
	<stop  offset="0.1248" style="stop-color:#F4BD50"/>
	<stop  offset="0.2254" style="stop-color:#FAC65D"/>
	<stop  offset="0.3592" style="stop-color:#FECB64"/>
	<stop  offset="0.6606" style="stop-color:#FFCC66"/>
	<a:midPointStop  offset="0.097" style="stop-color:#F2BA4B"/>
	<a:midPointStop  offset="0.156" style="stop-color:#F2BA4B"/>
	<a:midPointStop  offset="0.6606" style="stop-color:#FFCC66"/>
</linearGradient>
<path fill="url(#SVGID_1_)" d="M38.241,41.979c2.653,5.253,3.474,10.255,0.307,15.579c-3.95,6.645-9.17,2.737-8.886-0.171
	c1.42-14.603-6.561-21.532-8.759-25.279c-1.179-2.01-9.693-1.366-9.693-1.366s-5.185-12.878,0-24.287
	c4.934,0.83,9.309,0.729,9.693,0.504c9.906-5.808,22.583-3.125,22.583-3.125l2.962,29.174
	C46.447,33.009,34.291,34.166,38.241,41.979z"/>
<path fill="#D9A640" d="M37.897,3.995c-0.473-0.017-9.966-0.468-16.616,3.61c-0.145,0.088-2.606,0.766-9.62-0.317
	c-4.073,9.599-0.787,20.26,0.058,22.673c6.474-0.399,8.386,0.099,9.828,1.768c4.795,5.545,10.047,13.506,8.858,25.732
	c-0.214,2.216,3.978,5.637,7.5-0.286c2.683-4.511,2.58-9.093-0.332-14.856c-2.432-4.808,0.609-7.697,4.537-9.085
	c0.33,0.421,0.674,0.829,1.011,1.245c-3.281,1.04-6.014,3.6-4.213,7.162c3.169,6.274,3.257,11.301,0.282,16.302
	c-4.396,7.392-10.641,3.144-10.273-0.628c1.133-11.645-3.51-18.761-8.659-24.826c-1.054-1.244-6.605-1.199-9.538-0.957
	c0,0-6.151-14.292,0.046-25.91c6.496,1.084,9.663,0.687,9.82,0.655c8.124-4.588,17.728-3.775,18.552-3.723
	C38.736,3.043,38.322,3.524,37.897,3.995z"/>
<path fill="#D9A640" d="M39.502,22.075l0.4-1.559c-1.927-3.822-10.765-7.35-17.98-3.803C28.796,14.259,37.854,18.307,39.502,22.075z
	"/>
<path fill="#D9A640" d="M49.255,2.631c-2.612-0.608-6.876-0.8-9.057-0.475c-1.652,0.247-3.055,0.934-3.76,1.56
	c-1.918,1.698-2.246,6.841,3.086,6.841c3.996,0,5.841,0,10.038,0C54.155,10.557,53.143,3.537,49.255,2.631z"/>
<radialGradient id="SVGID_2_" cx="42.1543" cy="60.4453" r="6.4553" gradientTransform="matrix(0.9874 0.005 0.0033 -0.6308 3.6948 44.2085)" gradientUnits="userSpaceOnUse">
	<stop  offset="0.4545" style="stop-color:#FFCC66"/>
	<stop  offset="0.6609" style="stop-color:#FDC961"/>
	<stop  offset="0.9065" style="stop-color:#F6BF53"/>
	<stop  offset="1" style="stop-color:#F2BA4B"/>
	<a:midPointStop  offset="0.4545" style="stop-color:#FFCC66"/>
	<a:midPointStop  offset="0.6703" style="stop-color:#FFCC66"/>
	<a:midPointStop  offset="1" style="stop-color:#F2BA4B"/>
</radialGradient>
<path fill="url(#SVGID_2_)" d="M48.624,4.02c-1.794-0.353-6.592-0.671-8.274-0.379c-1.062,0.184-2.319,0.602-2.774,1.006
	c-1.236,1.095-1.6,4.412,1.839,4.412c2.577,0,7.281,0,9.988,0C52.365,9.059,51.241,4.536,48.624,4.02z"/>
<path fill="#D9A640" d="M49.634,9.05c-7.005,0-5.801,0-11.286,0c-6.036,0-6.036,9.29,0,9.29c5.394,0,5.628,0,11.286,0
	C55.666,18.34,55.666,9.05,49.634,9.05z"/>
<radialGradient id="SVGID_3_" cx="42.5752" cy="12.0469" r="8.1315" gradientTransform="matrix(0.9874 0.0041 0.0033 -0.5175 3.8548 19.7535)" gradientUnits="userSpaceOnUse">
	<stop  offset="0.4545" style="stop-color:#FFCC66"/>
	<stop  offset="0.6609" style="stop-color:#FDC961"/>
	<stop  offset="0.9065" style="stop-color:#F6BF53"/>
	<stop  offset="1" style="stop-color:#F2BA4B"/>
	<a:midPointStop  offset="0.4545" style="stop-color:#FFCC66"/>
	<a:midPointStop  offset="0.6703" style="stop-color:#FFCC66"/>
	<a:midPointStop  offset="1" style="stop-color:#F2BA4B"/>
</radialGradient>
<path fill="url(#SVGID_3_)" d="M49.741,10.464c-4.874,0-7.677,0-11.49,0c-4.05,0-4.05,6.462,0,6.462c3.751,0,7.555,0,11.49,0
	C53.817,16.926,53.817,10.464,49.741,10.464z"/>
<path fill="#D9A640" d="M51.696,25.183c-6.106,0-8.514,0-13.29,0c-4.197,0-4.383,5.438-1.808,7.865
	c0.684,0.644,2.606,1.461,4.379,1.772c2.771,0.489,7.789,0.583,11.232-0.208C57.419,33.416,57.267,25.183,51.696,25.183z"/>
<radialGradient id="SVGID_4_" cx="20.8799" cy="35.874" r="8.3637" gradientTransform="matrix(0.9528 0.005 0.0032 -0.6308 27.4736 52.711)" gradientUnits="userSpaceOnUse">
	<stop  offset="0.4545" style="stop-color:#FFCC66"/>
	<stop  offset="0.6609" style="stop-color:#FDC961"/>
	<stop  offset="0.9065" style="stop-color:#F6BF53"/>
	<stop  offset="1" style="stop-color:#F2BA4B"/>
	<a:midPointStop  offset="0.4545" style="stop-color:#FFCC66"/>
	<a:midPointStop  offset="0.6703" style="stop-color:#FFCC66"/>
	<a:midPointStop  offset="1" style="stop-color:#F2BA4B"/>
</radialGradient>
<path fill="url(#SVGID_4_)" d="M51.712,26.682c-4.275,0-9.918,0-13.261,0c-2.939,0-2.39,4.375-0.458,5.507
	c0.729,0.426,2.092,0.976,3.775,1.241c1.767,0.278,6.438,0.505,10.021-0.26C55.425,32.396,55.613,26.682,51.712,26.682z"/>
<path fill="#D9A640" d="M51.167,16.842c-7.422,0-7.144,0-12.953,0c-6.395,0-6.395,9.842,0,9.842c5.713,0,6.957,0,12.953,0
	C57.558,26.684,57.558,16.842,51.167,16.842z"/>
<radialGradient id="SVGID_5_" cx="43.5107" cy="1.9346" r="8.9603" gradientTransform="matrix(0.9874 0.0041 0.0033 -0.5175 3.8882 22.5843)" gradientUnits="userSpaceOnUse">
	<stop  offset="0.4545" style="stop-color:#FFCC66"/>
	<stop  offset="0.6609" style="stop-color:#FDC961"/>
	<stop  offset="0.9065" style="stop-color:#F6BF53"/>
	<stop  offset="1" style="stop-color:#F2BA4B"/>
	<a:midPointStop  offset="0.4545" style="stop-color:#FFCC66"/>
	<a:midPointStop  offset="0.6703" style="stop-color:#FFCC66"/>
	<a:midPointStop  offset="1" style="stop-color:#F2BA4B"/>
</radialGradient>
<path fill="url(#SVGID_5_)" d="M51.279,18.34c-5.161,0-9.129,0-13.169,0c-4.289,0-4.289,6.845,0,6.845c3.974,0,9.001,0,13.169,0
	C55.598,25.185,55.598,18.34,51.279,18.34z"/>
</svg>
