<?xml version="1.0" encoding="utf-8"?>
<!-- Generator: Adobe Illustrator 15.0.0, SVG Export Plug-In . SVG Version: 6.00 Build 0)  -->
<!DOCTYPE svg PUBLIC "-//W3C//DTD SVG 1.1//EN" "http://www.w3.org/Graphics/SVG/1.1/DTD/svg11.dtd" [
	<!ENTITY ns_flows "http://ns.adobe.com/Flows/1.0/">
	<!ENTITY ns_extend "http://ns.adobe.com/Extensibility/1.0/">
	<!ENTITY ns_ai "http://ns.adobe.com/AdobeIllustrator/10.0/">
	<!ENTITY ns_graphs "http://ns.adobe.com/Graphs/1.0/">
]>
<svg version="1.1" id="Layer_1" xmlns:x="&ns_extend;" xmlns:i="&ns_ai;" xmlns:graph="&ns_graphs;"
	 xmlns="http://www.w3.org/2000/svg" xmlns:xlink="http://www.w3.org/1999/xlink" xmlns:a="http://ns.adobe.com/AdobeSVGViewerExtensions/3.0/"
	 x="0px" y="0px" width="64px" height="64px" viewBox="0 0 64 64" enable-background="new 0 0 64 64" xml:space="preserve">
<radialGradient id="SVGID_1_" cx="404.4824" cy="-918.627" r="28.4522" gradientTransform="matrix(0.5725 0.6961 -0.5421 0.4639 -716.1518 169.9629)" gradientUnits="userSpaceOnUse">
	<stop  offset="0.4364" style="stop-color:#FFCC66"/>
	<stop  offset="0.6859" style="stop-color:#FECB64"/>
	<stop  offset="0.7967" style="stop-color:#FAC65D"/>
	<stop  offset="0.88" style="stop-color:#F4BD50"/>
	<stop  offset="0.903" style="stop-color:#F2BA4B"/>
	<a:midPointStop  offset="0.4364" style="stop-color:#FFCC66"/>
	<a:midPointStop  offset="0.844" style="stop-color:#FFCC66"/>
	<a:midPointStop  offset="0.903" style="stop-color:#F2BA4B"/>
</radialGradient>
<path fill="url(#SVGID_1_)" d="M28.328,21.886c-3.608,3.208-1.028,6.986-2.793,7.055c-0.457,0.017-1.604-1.577-1.604-1.577
	c-1.994-2.524-4.778-5.963-8.916-10.992c-2.079-2.531-5.857,0.697-3.773,3.23c-0.522-0.635-1.057-1.283-1.603-1.949
	c-2.079-2.528-5.873,0.681-3.774,3.23c0.56,0.682,1.091,1.328,1.602,1.95c-2.076-2.525-5.853,0.705-3.775,3.23
	c0.443,0.539,1.464,1.777,2.665,3.241c-2.182-2.425-5.265,0.307-3.278,2.903c2.263,2.953,6.926,8.906,9.438,11.949
	c3.6,4.366,9.432,6.224,14.216,1.975c10.398-9.238,1.61-14.527,4.913-23.948C32.052,21.017,30.126,20.287,28.328,21.886z"/>
<path fill="#D9A640" d="M25.07,28.752c-1.809,1.673-2.188,7.242,0.785,10.538c-2.328-3.294-1.418-8.846,0.401-10.361L25.07,28.752z"
	/>
<path fill="#D9A640" d="M28.038,21.539c-3.473,3.088-1.66,7.093-2.479,6.946c-0.236-0.044-0.795-0.737-1.275-1.405
	c-2.101-2.656-4.934-6.151-8.922-10.998c-1.805-2.196-4.83-0.729-5.15,1.557l-0.227-0.275c-2.481-2.979-6.964,0.811-4.467,3.808
	l0.24,0.294c-2.221-0.079-4.243,2.664-2.413,4.888l1.284,1.562c-2.137-0.115-3.562,2.408-1.906,4.571
	c2.239,2.924,6.893,8.867,9.446,11.962c2.791,3.385,8.788,7.159,14.853,2.033c10.604-9.421,1.808-14.905,5.047-24.146
	C32.595,20.836,30.43,19.518,28.038,21.539z M31.218,22.032c-3.431,9.786,5.446,14.673-4.775,23.754
	c-5.141,4.344-10.533,1.779-13.582-1.918c-2.548-3.086-7.191-9.018-9.428-11.938c-1.648-2.154,0.812-4.283,2.582-2.329l5.942,7.227
	l0.693-0.577l-5.949-7.234l0.001-0.001l-2.665-3.242c-1.719-2.062,1.385-4.687,3.079-2.652l8.617,10.478l0.693-0.579L7.327,21.953
	v0.001l-1.117-1.361c-1.757-2.136,1.436-4.651,3.082-2.652l1.603,1.951h0.001l8.614,10.476l0.692-0.579l-8.625-10.489
	c-1.707-2.048,1.397-4.672,3.091-2.639c4.014,4.816,6.815,8.333,8.898,10.969c0.854,1.188,1.523,1.781,1.986,1.765
	c2.485-0.098-0.461-4.027,3.064-7.161C30.139,20.945,31.442,21.396,31.218,22.032z"/>
<radialGradient id="SVGID_2_" cx="1322.3926" cy="-180.7515" r="28.4522" gradientTransform="matrix(-0.5725 0.6961 0.5421 0.4639 905.6614 -811.287)" gradientUnits="userSpaceOnUse">
	<stop  offset="0.4364" style="stop-color:#FFCC66"/>
	<stop  offset="0.6859" style="stop-color:#FECB64"/>
	<stop  offset="0.7967" style="stop-color:#FAC65D"/>
	<stop  offset="0.88" style="stop-color:#F4BD50"/>
	<stop  offset="0.903" style="stop-color:#F2BA4B"/>
	<a:midPointStop  offset="0.4364" style="stop-color:#FFCC66"/>
	<a:midPointStop  offset="0.844" style="stop-color:#FFCC66"/>
	<a:midPointStop  offset="0.903" style="stop-color:#F2BA4B"/>
</radialGradient>
<path fill="url(#SVGID_2_)" d="M35.672,21.896c3.609,3.208,1.027,6.986,2.793,7.055c0.455,0.017,1.605-1.577,1.605-1.577
	c1.992-2.522,4.777-5.963,8.914-10.992c2.08-2.531,5.857,0.698,3.775,3.23c0.521-0.635,1.057-1.283,1.602-1.95
	c2.08-2.526,5.873,0.682,3.773,3.231c-0.559,0.682-1.09,1.328-1.6,1.951c2.074-2.526,5.852,0.705,3.775,3.229
	c-0.445,0.541-1.465,1.779-2.666,3.242c2.182-2.425,5.264,0.307,3.277,2.903c-2.262,2.953-6.926,8.906-9.438,11.95
	c-3.6,4.366-9.432,6.223-14.215,1.974c-10.398-9.238-1.611-14.528-4.914-23.948C31.947,21.026,33.873,20.298,35.672,21.896z"/>
<path fill="#D9A640" d="M38.93,28.763c1.809,1.672,2.188,7.242-0.785,10.537c2.328-3.294,1.418-8.846-0.402-10.361L38.93,28.763z"/>
<path fill="#D9A640" d="M31.932,22.345c3.238,9.239-5.558,14.726,5.046,24.146c6.063,5.126,12.061,1.352,14.854-2.033
	c2.553-3.095,7.205-9.038,9.445-11.962c1.656-2.162,0.23-4.687-1.906-4.57l1.285-1.563c1.828-2.223-0.193-4.968-2.414-4.887
	l0.24-0.295c2.496-2.997-1.986-6.787-4.467-3.808l-0.229,0.276c-0.318-2.286-3.344-3.754-5.15-1.558
	c-3.986,4.846-6.82,8.342-8.92,10.998c-0.48,0.668-1.039,1.361-1.275,1.405c-0.818,0.146,0.992-3.858-2.48-6.947
	C33.57,19.527,31.405,20.846,31.932,22.345z M35.383,22.242c3.525,3.134,0.578,7.064,3.064,7.162
	c0.463,0.016,1.131-0.578,1.986-1.766c2.082-2.637,4.885-6.151,8.896-10.969c1.695-2.033,4.799,0.591,3.092,2.639l-8.625,10.489
	l0.693,0.579L53.105,19.9v0.002l1.604-1.952c1.645-1.999,4.838,0.517,3.08,2.653l-1.117,1.36l0,0l-9.1,11.066l0.693,0.577
	l8.617-10.476c1.693-2.035,4.797,0.59,3.08,2.652l-2.666,3.241v0.001l-5.949,7.234l0.693,0.577l5.943-7.227
	c1.77-1.954,4.229,0.175,2.582,2.33c-2.236,2.919-6.881,8.851-9.428,11.937c-3.049,3.697-8.441,6.262-13.582,1.918
	c-10.222-9.081-1.346-13.968-4.776-23.754C32.557,21.405,33.859,20.955,35.383,22.242z"/>
</svg>
