<?xml version="1.0" encoding="utf-8"?>
<!-- Generator: Adobe Illustrator 19.0.0, SVG Export Plug-In . SVG Version: 6.00 Build 0)  -->
<svg version="1.1" id="Layer_1" xmlns="http://www.w3.org/2000/svg" xmlns:xlink="http://www.w3.org/1999/xlink" x="0px" y="0px"
	 width="64px" height="64px" viewBox="0 0 64 64" enable-background="new 0 0 64 64" xml:space="preserve">
<radialGradient id="SVGID_1_" cx="404.2252" cy="-918.5189" r="28.4536" gradientTransform="matrix(0.5725 0.6961 -0.5421 0.4639 -715.9607 170.1041)" gradientUnits="userSpaceOnUse">
	<stop  offset="0.4364" style="stop-color:#B88A6F"/>
	<stop  offset="0.7049" style="stop-color:#B7886D"/>
	<stop  offset="0.8242" style="stop-color:#B28266"/>
	<stop  offset="0.903" style="stop-color:#AB795B"/>
</radialGradient>
<path fill="url(#SVGID_1_)" d="M28.327,21.886c-3.607,3.207-1.027,6.986-2.793,7.055c-0.457,0.016-1.603-1.578-1.603-1.578
	c-1.994-2.524-4.779-5.963-8.916-10.992c-2.08-2.531-5.857,0.697-3.773,3.231c-0.523-0.635-1.057-1.283-1.604-1.949
	c-2.078-2.527-5.873,0.682-3.773,3.231c0.559,0.682,1.09,1.328,1.602,1.951c-2.076-2.525-5.853,0.705-3.775,3.23
	c0.443,0.539,1.463,1.777,2.664,3.24c-2.182-2.424-5.264,0.307-3.277,2.904c2.262,2.953,6.926,8.906,9.438,11.949
	c3.6,4.365,9.432,6.223,14.217,1.975c10.396-9.238,1.609-14.527,4.912-23.949C32.052,21.017,30.126,20.286,28.327,21.886z"/>
<path fill="#996748" d="M25.069,28.751c-1.809,1.674-2.188,7.242,0.785,10.539c-2.328-3.295-1.418-8.846,0.402-10.361L25.069,28.751
	z"/>
<path fill="#996748" d="M28.038,21.538c-3.473,3.088-1.66,7.094-2.48,6.947c-0.236-0.045-0.795-0.738-1.275-1.406
	c-2.1-2.656-4.934-6.15-8.922-10.998c-1.805-2.195-4.83-0.729-5.15,1.557l-0.227-0.275c-2.48-2.979-6.963,0.81-4.467,3.809
	l0.24,0.293c-2.221-0.078-4.242,2.664-2.412,4.889l1.283,1.561c-2.137-0.115-3.561,2.408-1.906,4.572
	c2.24,2.924,6.893,8.867,9.447,11.961c2.791,3.385,8.787,7.16,14.852,2.033c10.604-9.42,1.809-14.904,5.047-24.145
	C32.595,20.835,30.431,19.517,28.038,21.538z M31.218,22.033c-3.43,9.785,5.447,14.672-4.775,23.754
	c-5.141,4.344-10.533,1.779-13.582-1.918c-2.547-3.086-7.191-9.017-9.428-11.937c-1.648-2.154,0.813-4.283,2.582-2.33l5.943,7.226
	l0.693-0.576l-5.949-7.234v-0.002l-2.664-3.242c-1.719-2.06,1.385-4.685,3.078-2.652l8.617,10.479l0.693-0.58l-9.1-11.066v0.002
	L6.21,20.593c-1.758-2.137,1.436-4.652,3.082-2.652l1.602,1.951h0.002l8.613,10.475l0.693-0.578l-8.625-10.49
	c-1.707-2.047,1.396-4.672,3.09-2.639c4.014,4.816,6.816,8.334,8.899,10.969c0.855,1.188,1.523,1.781,1.986,1.766
	c2.486-0.098-0.461-4.027,3.064-7.162C30.14,20.945,31.442,21.396,31.218,22.033z"/>
<radialGradient id="SVGID_2_" cx="1322.1069" cy="-180.6332" r="28.4539" gradientTransform="matrix(-0.5725 0.6961 0.5421 0.4639 905.4117 -811.0978)" gradientUnits="userSpaceOnUse">
	<stop  offset="0.4364" style="stop-color:#B88A6F"/>
	<stop  offset="0.7049" style="stop-color:#B7886D"/>
	<stop  offset="0.8242" style="stop-color:#B28266"/>
	<stop  offset="0.903" style="stop-color:#AB795B"/>
</radialGradient>
<path fill="url(#SVGID_2_)" d="M35.673,21.896c3.607,3.207,1.027,6.986,2.791,7.055c0.457,0.016,1.606-1.578,1.606-1.578
	c1.992-2.521,4.777-5.963,8.914-10.992c2.082-2.531,5.859,0.699,3.775,3.23c0.521-0.635,1.057-1.283,1.604-1.949
	c2.078-2.527,5.873,0.682,3.773,3.231c-0.561,0.682-1.09,1.328-1.602,1.951c2.076-2.525,5.852,0.705,3.775,3.229
	c-0.443,0.541-1.465,1.779-2.666,3.242c2.182-2.424,5.266,0.307,3.279,2.904c-2.262,2.953-6.926,8.906-9.438,11.949
	c-3.602,4.367-9.434,6.223-14.217,1.975c-10.396-9.238-1.611-14.529-4.912-23.949C31.946,21.027,33.872,20.298,35.673,21.896z"/>
<path fill="#996748" d="M38.929,28.763c1.809,1.672,2.189,7.242-0.783,10.537c2.328-3.295,1.416-8.846-0.402-10.361L38.929,28.763z"
	/>
<path fill="#996748" d="M31.933,22.345c3.238,9.238-5.559,14.725,5.045,24.145c6.064,5.127,12.063,1.352,14.854-2.033
	c2.555-3.094,7.207-9.037,9.447-11.961c1.654-2.162,0.23-4.688-1.906-4.57l1.283-1.563c1.83-2.223-0.191-4.969-2.414-4.887
	l0.24-0.295c2.498-2.998-1.984-6.787-4.467-3.809l-0.227,0.277c-0.318-2.287-3.344-3.754-5.15-1.559
	c-3.986,4.846-6.82,8.342-8.922,10.998c-0.48,0.668-1.039,1.361-1.275,1.406c-0.818,0.147,0.994-3.859-2.479-6.947
	C33.569,19.527,31.405,20.845,31.933,22.345z M35.382,22.242c3.527,3.135,0.58,7.064,3.064,7.162
	c0.465,0.016,1.131-0.578,1.986-1.766c2.084-2.637,4.885-6.15,8.898-10.969c1.693-2.033,4.797,0.592,3.092,2.639l-8.625,10.49
	l0.691,0.578L53.104,19.9v0.002l1.604-1.951c1.646-2,4.838,0.516,3.082,2.652l-1.117,1.361l0,0l-9.102,11.066l0.693,0.576
	l8.617-10.475c1.695-2.035,4.797,0.59,3.08,2.652l-2.666,3.24l0.002,0.002l-5.949,7.234l0.693,0.576l5.943-7.227
	c1.77-1.953,4.229,0.176,2.58,2.33c-2.236,2.92-6.879,8.852-9.426,11.937c-3.049,3.697-8.443,6.262-13.582,1.918
	c-10.223-9.082-1.346-13.969-4.777-23.754C32.558,21.406,33.86,20.954,35.382,22.242z"/>
</svg>
