<?xml version="1.0" encoding="utf-8"?>
<!-- Generator: Adobe Illustrator 15.0.0, SVG Export Plug-In . SVG Version: 6.00 Build 0)  -->
<!DOCTYPE svg PUBLIC "-//W3C//DTD SVG 1.1//EN" "http://www.w3.org/Graphics/SVG/1.1/DTD/svg11.dtd" [
	<!ENTITY ns_flows "http://ns.adobe.com/Flows/1.0/">
	<!ENTITY ns_extend "http://ns.adobe.com/Extensibility/1.0/">
	<!ENTITY ns_ai "http://ns.adobe.com/AdobeIllustrator/10.0/">
	<!ENTITY ns_graphs "http://ns.adobe.com/Graphs/1.0/">
]>
<svg version="1.1" id="Layer_1" xmlns:x="&ns_extend;" xmlns:i="&ns_ai;" xmlns:graph="&ns_graphs;"
	 xmlns="http://www.w3.org/2000/svg" xmlns:xlink="http://www.w3.org/1999/xlink" xmlns:a="http://ns.adobe.com/AdobeSVGViewerExtensions/3.0/"
	 x="0px" y="0px" width="64px" height="64px" viewBox="0 0 64 64" enable-background="new 0 0 64 64" xml:space="preserve">
<linearGradient id="SVGID_1_" gradientUnits="userSpaceOnUse" x1="32" y1="62" x2="32" y2="10.0005">
	<stop  offset="0" style="stop-color:#C9D1D6"/>
	<stop  offset="1" style="stop-color:#E6EBEF"/>
	<a:midPointStop  offset="0" style="stop-color:#C9D1D6"/>
	<a:midPointStop  offset="0.5" style="stop-color:#C9D1D6"/>
	<a:midPointStop  offset="1" style="stop-color:#E6EBEF"/>
</linearGradient>
<path fill="url(#SVGID_1_)" d="M58.563,62H5.435c-4.58,0-4.58-52,0-52h53.129C63.146,10,63.146,62,58.563,62z"/>
<path fill="#F2F5F7" d="M9.999,62c-0.667,0-1.333,0-2,0c-1.362-17.307-1.362-34.693,0-52c0.667,0,1.333,0,2,0
	C8.751,27.307,8.751,44.693,9.999,62z"/>
<path fill="#F2F5F7" d="M17.999,62c-0.667,0-1.333,0-2,0c-0.908-17.307-0.908-34.693,0-52c0.667,0,1.333,0,2,0
	C17.204,27.307,17.204,44.693,17.999,62z"/>
<path fill="#F2F5F7" d="M25.999,62c-0.667,0-1.333,0-2,0c-0.412-15.719-0.45-31.505-0.113-47.236c0.676,0,1.352,0,2.028,0
	C25.661,30.495,25.689,46.281,25.999,62z"/>
<path fill="#F2F5F7" d="M39.999,62c-0.667,0-1.333,0-2,0c0.31-15.719,0.338-31.505,0.085-47.236c0.677,0,1.353,0,2.028,0
	C40.449,30.495,40.411,46.281,39.999,62z"/>
<path fill="#F2F5F7" d="M47.999,62c-0.667,0-1.333,0-2,0c0.795-17.307,0.795-34.693,0-52c0.667,0,1.333,0,2,0
	C48.907,27.307,48.907,44.693,47.999,62z"/>
<path fill="#F2F5F7" d="M55.999,62c-0.667,0-1.333,0-2,0c1.248-17.307,1.248-34.693,0-52c0.667,0,1.333,0,2,0
	C57.361,27.307,57.361,44.693,55.999,62z"/>
<path fill="#CFD8DD" d="M31.999,16.601c-15.442,0-13.5-13.013-13.5-13.013c2.318-2.14,25.14-2.094,27,0
	C45.499,3.588,47.441,16.601,31.999,16.601z"/>
<path fill="#B3C2C6" d="M44.677,11.72c0,6.508-25.355,6.508-25.355,0C19.321,7.381,44.677,7.381,44.677,11.72z"/>
<linearGradient id="SVGID_2_" gradientUnits="userSpaceOnUse" x1="31.9995" y1="62" x2="31.9995" y2="29.6006">
	<stop  offset="0" style="stop-color:#CC1922"/>
	<stop  offset="1" style="stop-color:#E81C27"/>
	<a:midPointStop  offset="0" style="stop-color:#CC1922"/>
	<a:midPointStop  offset="0.5" style="stop-color:#CC1922"/>
	<a:midPointStop  offset="1" style="stop-color:#E81C27"/>
</linearGradient>
<path fill="url(#SVGID_2_)" d="M35.999,31.606c-1.077-2.675-6.923-2.675-8,0c-4,9.935-5,30.394-5,30.394h18
	C40.999,62,39.999,41.541,35.999,31.606z"/>
<radialGradient id="SVGID_3_" cx="31.999" cy="24.4868" r="8.4615" gradientUnits="userSpaceOnUse">
	<stop  offset="0" style="stop-color:#E81C27"/>
	<stop  offset="1" style="stop-color:#CC1922"/>
	<a:midPointStop  offset="0" style="stop-color:#E81C27"/>
	<a:midPointStop  offset="0.5" style="stop-color:#E81C27"/>
	<a:midPointStop  offset="1" style="stop-color:#CC1922"/>
</radialGradient>
<path fill="url(#SVGID_3_)" d="M35.999,31.606c-0.904,0.969-7.202,1.074-8,0c-1.891-2.544-5-9.584-5-9.584s7.848-5.422,9-5.422
	c1.154,0,9,5.422,9,5.422S38.173,29.276,35.999,31.606z"/>
<path fill="#FFFFFF" d="M18.499,3.588L13.999,10c0,0,2.25,4.432,4.5,18.353l13.5-11.752C31.999,16.601,18.499,11.377,18.499,3.588z"
	/>
<path fill="#FFFFFF" d="M45.499,3.588l4.5,6.412c0,0-2.25,4.432-4.5,18.353l-13.5-11.752C31.999,16.601,45.499,11.377,45.499,3.588z
	"/>
</svg>
