<?xml version="1.0" encoding="utf-8"?>
<!-- Generator: Adobe Illustrator 15.0.0, SVG Export Plug-In . SVG Version: 6.00 Build 0)  -->
<!DOCTYPE svg PUBLIC "-//W3C//DTD SVG 1.1//EN" "http://www.w3.org/Graphics/SVG/1.1/DTD/svg11.dtd" [
	<!ENTITY ns_flows "http://ns.adobe.com/Flows/1.0/">
	<!ENTITY ns_extend "http://ns.adobe.com/Extensibility/1.0/">
	<!ENTITY ns_ai "http://ns.adobe.com/AdobeIllustrator/10.0/">
	<!ENTITY ns_graphs "http://ns.adobe.com/Graphs/1.0/">
]>
<svg version="1.1" id="Layer_1" xmlns:x="&ns_extend;" xmlns:i="&ns_ai;" xmlns:graph="&ns_graphs;"
	 xmlns="http://www.w3.org/2000/svg" xmlns:xlink="http://www.w3.org/1999/xlink" xmlns:a="http://ns.adobe.com/AdobeSVGViewerExtensions/3.0/"
	 x="0px" y="0px" width="64px" height="64px" viewBox="0 0 64 64" enable-background="new 0 0 64 64" xml:space="preserve">
<path fill="#946346" d="M8.682,27.566c-7.797-1.406-1.707,20.397,4.396,14.383C15.907,39.162,12.329,28.225,8.682,27.566z"/>
<path fill="#946346" d="M55.319,27.566c-3.648,0.659-7.227,11.596-4.396,14.383C57.028,47.963,63.112,26.16,55.319,27.566z"/>
<path fill="#B88A6F" d="M32,2C15.876,2,8.111,15.131,9.081,32.015c0.199,3.394,1.143,8.29,2.308,12.485
	C13.806,53.22,26.566,62,32,62c5.432,0,18.192-8.78,20.612-17.5c1.165-4.195,2.108-9.091,2.308-12.485C55.887,15.131,48.125,2,32,2z
	"/>
<path fill="#FFFFFF" d="M49.417,32.475c-2.155,5.639-10.917,4.813-12.521,0.867C38.113,27,48.231,26.458,49.417,32.475z"/>
<path fill="#FFFFFF" d="M14.583,32.475c2.154,5.639,10.919,4.814,12.524,0.867C25.891,27,15.77,26.458,14.583,32.475z"/>
<path fill="#84401E" d="M32,48.072c-3.919-1.723-3.949-0.07-9.999,0.336c2.271,2.578,3.942,5.895,9.997,5.895
	c6.949,0,8.123-3.766,10.003-5.895C35.947,48.002,35.922,46.35,32,48.072z"/>
<path fill="#FFFFFF" d="M23.817,49.051c3.949,4.11,12.467,4.057,16.366,0.002C34.103,49.706,29.899,49.706,23.817,49.051z"/>
<path fill="#423225" d="M49.769,25.882c-3.633-2.166-10.15-2.431-12.728-0.955c-0.547,0.297-0.399,1.862,0.072,1.667
	c3.677-1.532,9.28-1.608,12.733,0.163C50.309,26.991,50.319,26.197,49.769,25.882z"/>
<path fill="#423225" d="M14.232,25.882c3.633-2.166,10.147-2.431,12.729-0.955c0.547,0.297,0.401,1.862-0.073,1.667
	c-3.678-1.532-9.276-1.61-12.731,0.163C13.691,26.991,13.682,26.197,14.232,25.882z"/>
<path fill="#946346" d="M37,42.18c0,3.254-10,3.254-10,0C27,41.434,37,41.434,37,42.18z"/>
<path fill="#613F34" d="M39.091,31.862c0,4.994,7.223,4.994,7.223,0C46.313,27.227,39.091,27.227,39.091,31.862z"/>
<path fill="#7D5037" d="M39.805,33.459c0,2.864,5.795,2.864,5.795,0C45.6,30.802,39.805,30.802,39.805,33.459z"/>
<path fill="#1A1626" d="M41.203,31.941c0,2.073,2.999,2.073,2.999,0C44.202,30.017,41.203,30.017,41.203,31.941z"/>
<path fill="#AB968C" d="M40.179,31.335c0,1.047,1.515,1.047,1.515,0C41.693,30.363,40.179,30.363,40.179,31.335z"/>
<path fill="#613F34" d="M17.689,31.87c0,4.994,7.222,4.994,7.222,0C24.911,27.234,17.689,27.234,17.689,31.87z"/>
<path fill="#7D5037" d="M18.403,33.467c0,2.864,5.794,2.864,5.794,0C24.197,30.81,18.403,30.81,18.403,33.467z"/>
<path fill="#1A1626" d="M19.8,31.948c0,2.073,2.999,2.073,2.999,0C22.799,30.024,19.8,30.024,19.8,31.948z"/>
<path fill="#AB968C" d="M18.776,31.342c0,1.048,1.515,1.048,1.515,0C20.291,30.371,18.776,30.371,18.776,31.342z"/>
<path fill="#45332C" d="M49.417,32.432c0-6.057-12.521-6.057-12.521,0.959C38.682,27.634,47.631,27.634,49.417,32.432z"/>
<path fill="#45332C" d="M14.583,32.432c0-6.057,12.524-6.057,12.524,0.957C25.32,27.631,16.372,27.631,14.583,32.432z"/>
</svg>
