<?xml version="1.0" encoding="utf-8"?>
<!-- Generator: Adobe Illustrator 15.0.0, SVG Export Plug-In . SVG Version: 6.00 Build 0)  -->
<!DOCTYPE svg PUBLIC "-//W3C//DTD SVG 1.1//EN" "http://www.w3.org/Graphics/SVG/1.1/DTD/svg11.dtd" [
	<!ENTITY ns_flows "http://ns.adobe.com/Flows/1.0/">
	<!ENTITY ns_extend "http://ns.adobe.com/Extensibility/1.0/">
	<!ENTITY ns_ai "http://ns.adobe.com/AdobeIllustrator/10.0/">
	<!ENTITY ns_graphs "http://ns.adobe.com/Graphs/1.0/">
]>
<svg version="1.1" id="Layer_1" xmlns:x="&ns_extend;" xmlns:i="&ns_ai;" xmlns:graph="&ns_graphs;"
	 xmlns="http://www.w3.org/2000/svg" xmlns:xlink="http://www.w3.org/1999/xlink" xmlns:a="http://ns.adobe.com/AdobeSVGViewerExtensions/3.0/"
	 x="0px" y="0px" width="64px" height="64px" viewBox="0 0 64 64" enable-background="new 0 0 64 64" xml:space="preserve">
<path fill="#3B2C29" d="M23.92,9.117c-5.444,23.344-4.943,22.848,6.519,22.848C24.097,27.529,36.245,8.801,23.92,9.117z"/>
<path fill="#453631" d="M21.958,8.756c-3.975,17.736-0.546,22.291,2.498,23.209h3.49C19.782,26.217,32.542,8.408,21.958,8.756z"/>
<path fill="#3B2C29" d="M39.941,9.115c5.447,23.346,4.947,22.846-6.514,22.846C39.259,28.404,27.618,8.799,39.941,9.115z"/>
<path fill="#453631" d="M41.908,8.756c5.806,16.135-0.015,22.457-2.5,23.205h-3.49C44.081,26.686,31.323,8.406,41.908,8.756z"/>
<path fill="#594640" d="M42.873,17.428c1.683,4.102,0.018,12.52-3.465,14.537c3.859,0,6.21-5.34,7.357-12.682
	C48.196,10.109,39.874,10.105,42.873,17.428z"/>
<path fill="#594640" d="M17.53,20.986c1.406,6.623,3.136,10.979,6.927,10.979c-4.223-4.371-3.727-13.586-2.527-15.879
	C28.05,12.447,15.153,9.779,17.53,20.986z"/>
<path fill="#8E3ED6" d="M20.522,32.738c7.696-5.117,15.26-5.117,22.957,0c2.442,1.623,2.947,7.74,3.255,13.037L42.395,62H21.606
	l-4.339-16.225C17.575,40.479,18.08,34.361,20.522,32.738z"/>
<path fill="#E6B045" d="M27.792,29.674c0-0.723,0-3.932,0-3.932h8.417c0,0,0,3.16,0,3.932
	C36.209,33.904,27.792,33.904,27.792,29.674z"/>
<path fill="#FFCC66" d="M31.999,3.506c-7.256,0-10.751,5.902-10.313,13.492c0.09,1.525,0.516,3.725,1.037,5.611
	c1.091,3.918,6.833,7.865,9.276,7.865c2.446,0,8.187-3.947,9.278-7.865c0.523-1.887,0.946-4.086,1.039-5.611
	C42.75,9.408,39.255,3.506,31.999,3.506z"/>
<path fill="#D47706" d="M32,24.213c-1.765-0.773-1.776-0.029-4.501,0.154c1.023,1.158,1.775,2.648,4.499,2.648
	c3.127,0,3.655-1.693,4.501-2.648C33.776,24.184,33.765,23.439,32,24.213z"/>
<path fill="#FFFFFF" d="M28.32,24.654c1.776,1.848,5.608,1.824,7.361,0C32.948,24.949,31.053,24.949,28.32,24.654z"/>
<path fill="#594640" d="M39.994,14.24c-1.635-0.973-4.567-1.092-5.726-0.428c-0.248,0.133-0.181,0.838,0.033,0.748
	c1.653-0.688,4.175-0.723,5.729,0.074C40.239,14.74,40.243,14.383,39.994,14.24z"/>
<path fill="#594640" d="M24.003,14.24c1.633-0.973,4.568-1.092,5.729-0.428c0.248,0.133,0.181,0.838-0.034,0.748
	c-1.654-0.688-4.175-0.723-5.729,0.074C23.761,14.74,23.758,14.383,24.003,14.24z"/>
<path fill="#E6B045" d="M34.25,21.566c0,1.461-4.501,1.461-4.501,0C29.749,21.23,34.25,21.23,34.25,21.566z"/>
<path fill="#FFFFFF" d="M39.838,17.205c-0.971,2.533-4.913,2.162-5.636,0.389C34.749,14.742,39.306,14.498,39.838,17.205z"/>
<path fill="#613F34" d="M35.192,16.93c0,2.244,3.248,2.244,3.248,0C38.44,14.844,35.192,14.844,35.192,16.93z"/>
<path fill="#7D5037" d="M35.512,17.648c0,1.283,2.608,1.283,2.608,0C38.12,16.451,35.512,16.451,35.512,17.648z"/>
<path fill="#1A1626" d="M36.141,16.963c0,0.934,1.35,0.934,1.35,0C37.49,16.098,36.141,16.098,36.141,16.963z"/>
<path fill="#AB968C" d="M35.679,16.691c0,0.471,0.684,0.471,0.684,0C36.362,16.256,35.679,16.256,35.679,16.691z"/>
<path fill="#45332C" d="M39.838,17.186c0-2.723-5.636-2.723-5.636,0.432C35.007,15.029,39.034,15.029,39.838,17.186z"/>
<path fill="#FFFFFF" d="M24.163,17.205c0.969,2.533,4.912,2.164,5.636,0.389C29.253,14.742,24.695,14.498,24.163,17.205z"/>
<path fill="#613F34" d="M25.56,16.932c0,2.246,3.248,2.246,3.248,0C28.808,14.85,25.56,14.85,25.56,16.932z"/>
<path fill="#7D5037" d="M25.88,17.65c0,1.285,2.607,1.285,2.607,0C28.488,16.457,25.88,16.457,25.88,17.65z"/>
<path fill="#1A1626" d="M26.509,16.967c0,0.932,1.35,0.932,1.35,0C27.859,16.102,26.509,16.102,26.509,16.967z"/>
<path fill="#AB968C" d="M26.047,16.695c0,0.471,0.682,0.471,0.682,0C26.729,16.26,26.047,16.26,26.047,16.695z"/>
<path fill="#45332C" d="M24.163,17.186c0-2.723,5.636-2.723,5.636,0.43C28.994,15.027,24.966,15.027,24.163,17.186z"/>
<path fill="#594640" d="M40.107,4.563c-5.089,5.207-0.233,5.543,2.766,12.865c1.683,4.102,2.745,9.197,3.893,1.855
	C48.196,10.109,42.691,3.795,40.107,4.563z"/>
<path fill="#594640" d="M27.618,2.568C21.167,4.084,15.153,9.779,17.53,20.986c1.406,6.623,3.2-2.607,4.399-4.9
	c6.121-3.639,16.586-6.393,18.178-11.523C40.914,3.379,34.073,0.879,27.618,2.568z"/>
<path fill="#453631" d="M22.677,10.732c2.728-0.553,15.779-0.814,17.43-6.17C37.022,7.018,33.828,7.688,22.677,10.732z"/>
<path fill="#453631" d="M17.97,19.252c4.577-6.104,19.573-5.43,22.137-14.689C35.129,12.334,19.221,13.387,17.97,19.252z"/>
<path fill="#453631" d="M38.598,5.832c-1.182,1.859,2.923-0.873,7.349,11.104C44.855,9.934,41.119,5.113,38.598,5.832z"/>
<path fill="#E6B045" d="M52.041,55.422c-0.563-3.246-4.917-6.438-6.237-4.146C43.452,55.355,52.364,57.286,52.041,55.422z"/>
<path fill="#4ABDFF" d="M50.654,55.188c-4.816-3.131-10.578-3.101-15.402,0.001C33.596,56.251,33.047,62,33.047,62H52.84
	C52.84,62,52.293,56.248,50.654,55.188z"/>
<path fill="#E6B045" d="M45.867,53.426c0-0.538,0-2.925,0-2.925h-5.85c0,0,0,2.351,0,2.925
	C40.018,55.792,45.867,55.792,45.867,53.426z"/>
<path fill="#594640" d="M42.941,31.984c-10.515,0-9.502,8.421-9.502,12.356h19.006C52.445,40.405,53.459,31.984,42.941,31.984z"/>
<path fill="#E6B045" d="M34.379,42.76c-3.339-0.511-1.162,7.4,1.451,5.218C37.037,46.968,35.939,42.998,34.379,42.76z"/>
<path fill="#E6B045" d="M51.506,42.76c-1.563,0.238-2.662,4.208-1.451,5.218C52.668,50.16,54.844,42.249,51.506,42.76z"/>
<path fill="#FFCC66" d="M51.396,42.592c0-5.614-3.32-4.364-8.455-4.364c-5.133,0-8.453-1.25-8.453,4.364c0,0,0.016,2.141,0.564,4.95
	c0.896,4.602,4.617,6.407,7.889,6.407s6.996-1.806,7.889-6.407C51.377,44.73,51.396,42.592,51.396,42.592z"/>
<path fill="#594640" d="M42.768,36.119c-1.535,2.734-7.289,4.446-9.268,4.268C35.293,38.58,36.086,33.922,42.768,36.119z"/>
<path fill="#453631" d="M33.5,40.387c2.52-0.656,5.791-1.996,9.268-4.268C41.232,38.854,36.18,41.013,33.5,40.387z"/>
<path fill="#594640" d="M50.529,35.973c-2.174,3.257-10.313,5.294-13.107,5.082C39.953,38.9,41.078,33.355,50.529,35.973z"/>
<path fill="#453631" d="M37.422,41.055c6.686-1.857,13.107-5.082,13.107-5.082C48.355,39.229,42.299,41.526,37.422,41.055z"/>
<path fill="#594640" d="M50.844,35.224c2.605,4.239-4.176,5.977-6.979,5.806C46.379,39.375,48.064,35.091,50.844,35.224z"/>
<path fill="#453631" d="M43.865,41.029c3.369-1.544,8.506-1.859,6.979-5.806C53.449,39.463,46.838,41.412,43.865,41.029z"/>
<path fill="#FFFFFF" d="M49.178,44.334c-0.777,2.035-3.943,1.737-4.523,0.313C45.094,42.359,48.752,42.163,49.178,44.334z"/>
<g>
	<path fill="#613F34" d="M45.461,44.117c0,1.786,2.588,1.786,2.588,0C48.049,42.459,45.461,42.459,45.461,44.117z"/>
	<path fill="#7D5037" d="M45.717,44.689c0,1.024,2.076,1.024,2.076,0C47.793,43.739,45.717,43.739,45.717,44.689z"/>
	<path fill="#1A1626" d="M46.217,44.147c0,0.739,1.074,0.739,1.074,0C47.291,43.459,46.217,43.459,46.217,44.147z"/>
	<path fill="#AB968C" d="M45.852,43.931c0,0.373,0.543,0.373,0.543,0C46.395,43.584,45.852,43.584,45.852,43.931z"/>
</g>
<path fill="#E6B045" d="M49.178,44.318c0-2.184-4.523-2.184-4.523,0.348C45.301,42.588,48.533,42.588,49.178,44.318z"/>
<path fill="#FFFFFF" d="M36.707,44.334c0.775,2.035,3.943,1.737,4.523,0.313C40.789,42.358,37.137,42.163,36.707,44.334z"/>
<g>
	<path fill="#613F34" d="M37.838,44.117c0,1.786,2.586,1.786,2.586,0C40.424,42.459,37.838,42.459,37.838,44.117z"/>
	<path fill="#7D5037" d="M38.094,44.688c0,1.026,2.074,1.026,2.074,0C40.168,43.739,38.094,43.739,38.094,44.688z"/>
	<path fill="#1A1626" d="M38.594,44.146c0,0.741,1.074,0.741,1.074,0C39.668,43.457,38.594,43.457,38.594,44.146z"/>
	<path fill="#AB968C" d="M38.227,43.929c0,0.375,0.541,0.375,0.541,0C38.768,43.581,38.227,43.581,38.227,43.929z"/>
</g>
<path fill="#E6B045" d="M36.707,44.318c0-2.184,4.523-2.184,4.523,0.346C40.584,42.588,37.352,42.588,36.707,44.318z"/>
<path fill="#C1873C" d="M49.596,42.103c-1.352-0.668-3.938-0.701-4.902-0.234c-0.203,0.091-0.068,0.727,0.105,0.664
	c1.344-0.496,3.508-0.509,4.766,0.043C49.73,42.647,49.803,42.198,49.596,42.103z"/>
<path fill="#C1873C" d="M36.287,42.103c1.354-0.668,3.939-0.701,4.904-0.234c0.203,0.091,0.066,0.727-0.104,0.664
	c-1.346-0.496-3.51-0.509-4.768,0.043C36.154,42.647,36.082,42.198,36.287,42.103z"/>
<path fill="#E6A400" d="M42.941,49.77c-1.328-0.391-3.299,0.185-3.299,0.185c0.754,0.817,1.301,1.874,3.299,1.874
	c2.291,0,2.68-1.201,3.299-1.874C46.24,49.954,44.27,49.376,42.941,49.77z"/>
<path fill="#FFFFFF" d="M40.148,50.093c1.393,1.167,4.207,1.175,5.605,0C44.27,50.155,41.645,50.157,40.148,50.093z"/>
<path fill="#E6B045" d="M44.773,48.021c0,1.19-3.662,1.19-3.662,0C41.111,47.747,44.773,47.747,44.773,48.021z"/>
<path fill="#E32B56" d="M29.503,54.669c-0.982-0.688-5.299-2.493-5.299-2.493h-4.797c0,0-4.318,1.81-5.307,2.494
	C12.445,55.813,11.894,62,11.894,62h19.793C31.687,62,31.14,55.811,29.503,54.669z"/>
<path fill="#E6B045" d="M24.714,52.839c0-0.538,0-2.925,0-2.925h-5.85c0,0,0,2.351,0,2.925
	C18.865,55.205,24.714,55.205,24.714,52.839z"/>
<path fill="#594640" d="M14.285,43.937c-7.076,4.172-0.855,7.97-2.869,9.768C15.33,56.13,24.91,51.95,14.285,43.937z"/>
<path fill="#453631" d="M12.171,45.521c1.736,6.659,5.311,6.89,5.012,8.095C20.505,51.876,20.537,46.264,12.171,45.521z"/>
<path fill="#594640" d="M29.296,43.937c7.076,4.172,0.855,7.97,2.871,9.768C28.255,56.13,18.673,51.95,29.296,43.937z"/>
<path fill="#453631" d="M31.41,45.521c-1.734,6.659-5.311,6.89-5.01,8.095C23.078,51.876,23.044,46.264,31.41,45.521z"/>
<path fill="#594640" d="M12.113,43.769H31.46C34.276,28.646,9.296,28.646,12.113,43.769z"/>
<path fill="#453631" d="M12.087,43.582c0,0,11.016,4.105,18.652-0.651c-1.543,0.291-4.051-5.605-15.775-6.047
	C14.535,43.582,12.474,41.764,12.087,43.582z"/>
<path fill="#CFD8DD" d="M30.552,42.689c0.822-11.314-18.359-11.314-17.535,0C13.732,33.188,29.835,33.188,30.552,42.689z"/>
<path fill="#FFFFFF" d="M30.552,42.323c0.822-11.313-18.359-11.313-17.535,0C13.732,32.821,29.835,32.821,30.552,42.323z"/>
<path fill="#E6B045" d="M13.22,42.767c-3.336-0.506-1.162,7.364,1.451,5.193C15.884,46.953,14.785,43.005,13.22,42.767z"/>
<path fill="#E6B045" d="M30.349,42.767c-1.561,0.238-2.66,4.187-1.451,5.193C31.513,50.129,33.685,42.261,30.349,42.767z"/>
<path fill="#FFCC66" d="M30.24,42.785c-3.195-0.91-7.289-5.256-15.07-4.729c0.137,1.708-0.313,3.646-1.814,4.735
	c0,0-0.006,1.535,0.543,4.345c0.895,4.602,4.617,6.407,7.887,6.407c3.273,0,6.994-1.806,7.891-6.407
	C30.222,44.324,30.24,42.785,30.24,42.785z"/>
<path fill="#FFFFFF" d="M28.035,44.294c-0.777,2.036-3.943,1.738-4.525,0.313C23.951,42.318,27.607,42.123,28.035,44.294z"/>
<path fill="#613F34" d="M24.318,44.078c0,1.786,2.586,1.786,2.586,0C26.904,42.42,24.318,42.42,24.318,44.078z"/>
<path fill="#7D5037" d="M24.574,44.648c0,1.024,2.074,1.024,2.074,0C26.648,43.698,24.574,43.698,24.574,44.648z"/>
<path fill="#1A1626" d="M25.072,44.105c0,0.742,1.076,0.742,1.076,0C26.148,43.418,25.072,43.418,25.072,44.105z"/>
<path fill="#AB968C" d="M24.708,43.889c0,0.376,0.541,0.376,0.541,0C25.25,43.541,24.708,43.541,24.708,43.889z"/>
<path fill="#E6B045" d="M28.035,44.279c0-2.186-4.525-2.186-4.525,0.346C24.156,42.549,27.388,42.549,28.035,44.279z"/>
<path fill="#FFFFFF" d="M15.562,44.294c0.775,2.036,3.943,1.738,4.525,0.313C19.648,42.316,15.992,42.121,15.562,44.294z"/>
<path fill="#613F34" d="M16.695,44.078c0,1.784,2.586,1.784,2.586,0C19.281,42.42,16.695,42.42,16.695,44.078z"/>
<path fill="#7D5037" d="M16.951,44.648c0,1.022,2.072,1.022,2.072,0C19.023,43.698,16.951,43.698,16.951,44.648z"/>
<path fill="#1A1626" d="M17.449,44.105c0,0.74,1.074,0.74,1.074,0C18.523,43.418,17.449,43.418,17.449,44.105z"/>
<path fill="#AB968C" d="M17.083,43.889c0,0.374,0.543,0.374,0.543,0C17.626,43.541,17.083,43.541,17.083,43.889z"/>
<path fill="#E6B045" d="M15.562,44.279c0-2.186,4.525-2.186,4.525,0.346C19.443,42.547,16.207,42.547,15.562,44.279z"/>
<path fill="#C1873C" d="M28.453,42.063c-1.35-0.672-3.938-0.703-4.9-0.236c-0.207,0.091-0.07,0.726,0.105,0.666
	c1.34-0.498,3.504-0.509,4.764,0.043C28.587,42.606,28.658,42.156,28.453,42.063z"/>
<path fill="#C1873C" d="M15.142,42.063c1.354-0.672,3.939-0.703,4.904-0.236c0.207,0.091,0.068,0.726-0.104,0.666
	c-1.344-0.498-3.51-0.509-4.768,0.043C15.007,42.606,14.939,42.156,15.142,42.063z"/>
<path fill="#E6A400" d="M21.798,49.729c-1.328-0.391-3.299,0.185-3.299,0.185c0.75,0.814,1.303,1.875,3.299,1.875
	c2.289,0,2.682-1.201,3.299-1.875C25.097,49.914,23.125,49.337,21.798,49.729z"/>
<path fill="#FFFFFF" d="M19.001,50.052c1.395,1.169,4.211,1.175,5.611,0C23.125,50.115,20.5,50.115,19.001,50.052z"/>
<path fill="#E6B045" d="M23.632,47.979c0,1.19-3.666,1.19-3.666,0C19.966,47.706,23.632,47.706,23.632,47.979z"/>
<path fill="#FFCC66" d="M47.406,52.978c-1.614,0.012-4.026,2.17-2.333,2.126c-0.234,0.538-0.047,1.048,1.06,0.382
	c-0.341,0.563,0.522,0.71,1.093,0.394c0.127,1.163,2.136-0.062,2.888,0.119c1.077,0.258,1.361,0.505,1.561,0.296
	C53.126,54.774,50.082,52.951,47.406,52.978z"/>
<path fill="#FFCC66" d="M17.333,52.529c-2.676-0.025-5.72,1.797-4.268,3.316c0.199,0.209,0.483-0.037,1.561-0.295
	c0.752-0.182,2.761,1.043,2.888-0.119c0.57,0.316,1.434,0.168,1.093-0.395c1.106,0.666,1.294,0.156,1.06-0.381
	C21.36,54.699,18.948,52.541,17.333,52.529z"/>
</svg>
