<?xml version="1.0" encoding="utf-8"?>
<!-- Generator: Adobe Illustrator 15.0.0, SVG Export Plug-In . SVG Version: 6.00 Build 0)  -->
<!DOCTYPE svg PUBLIC "-//W3C//DTD SVG 1.1//EN" "http://www.w3.org/Graphics/SVG/1.1/DTD/svg11.dtd" [
	<!ENTITY ns_flows "http://ns.adobe.com/Flows/1.0/">
	<!ENTITY ns_extend "http://ns.adobe.com/Extensibility/1.0/">
	<!ENTITY ns_ai "http://ns.adobe.com/AdobeIllustrator/10.0/">
	<!ENTITY ns_graphs "http://ns.adobe.com/Graphs/1.0/">
]>
<svg version="1.1" id="Layer_1" xmlns:x="&ns_extend;" xmlns:i="&ns_ai;" xmlns:graph="&ns_graphs;"
	 xmlns="http://www.w3.org/2000/svg" xmlns:xlink="http://www.w3.org/1999/xlink" xmlns:a="http://ns.adobe.com/AdobeSVGViewerExtensions/3.0/"
	 x="0px" y="0px" width="64px" height="64px" viewBox="0 0 64 64" enable-background="new 0 0 64 64" xml:space="preserve">
<path fill="#99A8AE" d="M60,29.342c0,2.148-1.74,3.887-3.887,3.887H7.887C5.74,33.229,4,31.49,4,29.342v-6.684
	c0-2.146,1.74-3.887,3.887-3.887h48.227c2.146,0,3.887,1.74,3.887,3.887V29.342z"/>
<path fill="#FFFFFF" d="M59.25,23.375c0,1.998-3,1.998-3,0C56.25,21.375,59.25,21.375,59.25,23.375z"/>
<path fill="#FFFFFF" d="M59.25,28.625c0,2-3,2-3,0C56.25,26.627,59.25,26.627,59.25,28.625z"/>
<path fill="#FFFFFF" d="M7.75,23.375c0,1.998-3,1.998-3,0C4.75,21.375,7.75,21.375,7.75,23.375z"/>
<path fill="#FFFFFF" d="M7.75,28.625c0,2-3,2-3,0C4.75,26.627,7.75,26.627,7.75,28.625z"/>
<circle fill="#302C3B" cx="32" cy="26" r="22"/>
<path fill="#3B2C29" d="M21.25,15.836c-7.247,35.001-6.584,34.251,8.673,34.251C21.479,43.441,37.65,15.36,21.25,15.836z"/>
<path fill="#453631" d="M18.636,15.294c-5.288,26.593-0.727,33.421,3.326,34.794h4.642C15.74,41.475,32.723,14.771,18.636,15.294z"
	/>
<path fill="#3B2C29" d="M42.571,15.835c7.247,35.001,6.582,34.251-8.672,34.251C41.663,44.753,26.17,15.359,42.571,15.835z"/>
<path fill="#453631" d="M45.184,15.293c7.732,24.193-0.016,33.674-3.324,34.793h-4.642C48.081,42.178,31.101,14.769,45.184,15.293z"
	/>
<path fill="#594640" d="M46.471,28.293c2.238,6.15,0.023,18.773-4.611,21.795c5.137,0,8.267-8.002,9.792-19.01
	C53.559,17.326,42.48,17.318,46.471,28.293z"/>
<path fill="#594640" d="M12.743,33.631c1.873,9.934,4.176,16.457,9.219,16.457c-5.623-6.551-4.96-20.366-3.363-23.805
	C26.744,20.831,9.577,16.829,12.743,33.631z"/>
<path fill="#FFCC66" d="M32,7.389c-11.126,0-16.484,9.061-15.814,20.711c0.137,2.342,0.788,5.72,1.591,8.614
	C19.446,42.73,28.251,48.789,32,48.789c3.747,0,12.554-6.059,14.222-12.075c0.805-2.895,1.456-6.272,1.595-8.614
	C48.484,16.45,43.128,7.389,32,7.389z"/>
<path fill="#D47706" d="M32,39.179c-2.705-1.188-2.726-0.048-6.899,0.231c1.566,1.779,2.72,4.067,6.897,4.067
	c4.796,0,5.606-2.598,6.903-4.067C34.724,39.131,34.705,37.99,32,39.179z"/>
<path fill="#FFFFFF" d="M26.353,39.854c2.726,2.836,8.603,2.799,11.295,0.002C33.45,40.307,30.552,40.307,26.353,39.854z"/>
<path fill="#594640" d="M44.262,23.868c-2.508-1.494-7.004-1.677-8.784-0.659c-0.376,0.206-0.275,1.285,0.051,1.15
	c2.538-1.057,6.403-1.109,8.786,0.112C44.634,24.633,44.64,24.084,44.262,23.868z"/>
<path fill="#594640" d="M19.74,23.868c2.506-1.494,7.002-1.677,8.784-0.659c0.376,0.206,0.276,1.285-0.053,1.15
	c-2.538-1.057-6.401-1.111-8.784,0.112C19.367,24.633,19.36,24.084,19.74,23.868z"/>
<path fill="#E6B045" d="M35.449,35.113c0,2.244-6.898,2.244-6.898,0C28.551,34.598,35.449,34.598,35.449,35.113z"/>
<path fill="#FFFFFF" d="M44.019,28.416c-1.486,3.891-7.534,3.32-8.64,0.598C36.217,24.639,43.2,24.264,44.019,28.416z"/>
<path fill="#613F34" d="M36.893,27.994c0,3.445,4.984,3.445,4.984,0C41.877,24.795,36.893,24.795,36.893,27.994z"/>
<path fill="#7D5037" d="M37.385,29.096c0,1.977,3.998,1.977,3.998,0C41.383,27.262,37.385,27.262,37.385,29.096z"/>
<path fill="#1A1626" d="M38.351,28.048c0,1.431,2.068,1.431,2.068,0C40.419,26.721,38.351,26.721,38.351,28.048z"/>
<path fill="#AB968C" d="M37.644,27.631c0,0.722,1.044,0.722,1.044,0C38.688,26.959,37.644,26.959,37.644,27.631z"/>
<path fill="#45332C" d="M44.019,28.387c0-4.179-8.64-4.179-8.64,0.662C36.61,25.076,42.785,25.076,44.019,28.387z"/>
<path fill="#FFFFFF" d="M19.981,28.416c1.488,3.891,7.536,3.322,8.644,0.598C27.785,24.639,20.802,24.264,19.981,28.416z"/>
<path fill="#613F34" d="M22.125,27.999c0,3.446,4.982,3.446,4.982,0C27.107,24.8,22.125,24.8,22.125,27.999z"/>
<path fill="#7D5037" d="M22.617,29.102c0,1.977,3.998,1.977,3.998,0C26.615,27.268,22.617,27.268,22.617,29.102z"/>
<path fill="#1A1626" d="M23.581,28.053c0,1.43,2.07,1.43,2.07,0C25.651,26.726,23.581,26.726,23.581,28.053z"/>
<path fill="#AB968C" d="M22.875,27.635c0,0.724,1.045,0.724,1.045,0C23.92,26.965,22.875,26.965,22.875,27.635z"/>
<path fill="#45332C" d="M19.981,28.387c0-4.179,8.644-4.179,8.644,0.66C27.392,25.074,21.217,25.074,19.981,28.387z"/>
<path fill="#594640" d="M42.791,9.007c-6.771,7.807-0.311,8.312,3.68,19.286c2.238,6.15,3.655,13.793,5.181,2.785
	C53.559,17.326,46.231,7.858,42.791,9.007z"/>
<path fill="#594640" d="M26.17,5.947C17.582,8.276,9.577,17.018,12.743,34.223c1.873,10.172,2.653-3.646,4.251-7.166
	c8.146-5.583,23.679-10.171,25.797-18.047C43.864,7.191,34.761,3.354,26.17,5.947z"/>
<path fill="#453631" d="M19.591,18.256c3.631-0.828,21.002-1.219,23.2-9.25C38.686,12.688,34.432,13.691,19.591,18.256z"/>
<path fill="#453631" d="M13.33,31.031c6.091-9.149,26.047-8.139,29.461-22.024C36.164,20.661,14.995,22.236,13.33,31.031z"/>
<path fill="#453631" d="M40.782,10.91c-1.572,2.787,3.892-1.309,9.78,16.646C49.109,17.06,44.135,9.832,40.782,10.91z"/>
<path fill="#CFD8DD" d="M57.537,52.486l-1.092-0.822c-0.033-1.843-4.383-3.986-8.575-5.627c-8.948,6.322-23.566,5.037-33.018,0.516
	c-3.753,1.559-7.266,3.456-7.296,5.111l-1.096,0.822C3.721,52.438,2,62,2,62h60C62,62,60.279,52.438,57.537,52.486z"/>
<path fill="#99A8AE" d="M11.797,62h-1.535c0-5.379-3.801-9.514-3.801-9.514l1.096-0.822C7.557,51.664,11.797,55.904,11.797,62z"/>
<path fill="#99A8AE" d="M52.205,62h1.533c0-5.379,3.799-9.514,3.799-9.514l-1.092-0.822C56.445,51.664,52.205,55.904,52.205,62z"/>
<polygon fill="#FFFFFF" points="19.1,56.418 19.1,62 20.422,57.572 30.781,57.572 32.104,62 32.104,56.418 "/>
<rect x="38.922" y="54.209" fill="#FFFFFF" width="6.924" height="6.637"/>
<rect x="38.922" y="60.846" fill="#99A8AE" width="6.924" height="1.154"/>
<rect x="40.654" y="60.846" fill="#FFE12C" width="1.154" height="1.154"/>
<rect x="42.961" y="60.846" fill="#A6E639" width="1.154" height="1.154"/>
<rect x="39.824" y="53.559" fill="#BEC3CF" width="1.658" height="0.65"/>
<rect x="40.773" y="53.559" fill="#99A8AE" width="0.709" height="0.65"/>
<rect x="42.229" y="53.559" fill="#BEC3CF" width="0.986" height="0.65"/>
<rect x="42.846" y="53.559" fill="#99A8AE" width="0.369" height="0.65"/>
<path fill="#BEC3CF" d="M44.691,57.488c0,3.078-4.615,3.078-4.615,0C40.076,54.412,44.691,54.412,44.691,57.488z"/>
<path fill="#E6EBEF" d="M44.602,57.746c0,2.836-4.434,2.836-4.434,0C40.168,54.906,44.602,54.906,44.602,57.746z"/>
<path fill="#018BC9" d="M4.83,53.617c0,0-1.793,1.834-1.873,4.402c0,0.859,2.156,3.459,2.156,3.459s1.799-1.646,2.615-3.137
	C5.373,55.479,4.83,53.617,4.83,53.617z"/>
<path fill="#99A8AE" d="M47.67,42.609c-10.777,8.875-23.75,6.441-31.344,0c-2.984,0-2.607,2.113-2.607,4.227
	c0,4.756,10.385,7.047,18.281,7.047s18.281-2.291,18.281-7.047C50.281,44.723,50.658,42.609,47.67,42.609"/>
<radialGradient id="SVGID_1_" cx="28.001" cy="19.1675" r="17.316" gradientTransform="matrix(1 0 0 1.5 0 -9.5837)" gradientUnits="userSpaceOnUse">
	<stop  offset="0.1879" style="stop-color:#E6EBEF"/>
	<stop  offset="0.4083" style="stop-color:#D5DDE1"/>
	<stop  offset="0.8405" style="stop-color:#AAB7BD"/>
	<stop  offset="1" style="stop-color:#99A8AE"/>
	<a:midPointStop  offset="0.1879" style="stop-color:#E6EBEF"/>
	<a:midPointStop  offset="0.5556" style="stop-color:#E6EBEF"/>
	<a:midPointStop  offset="1" style="stop-color:#99A8AE"/>
</radialGradient>
<path fill="url(#SVGID_1_)" d="M53.73,25.09c0.176-0.949,0.27-1.92,0.27-2.91c0-10.273-9.85-18.602-22-18.602S10,11.906,10,22.18
	c0,0.99,0.094,1.961,0.27,2.91C13.76,11.268,50.242,11.268,53.73,25.09z"/>
<path fill="#CFD8DD" d="M32,2C18.746,2,8,12.746,8,26s10.746,24,24,24s24-10.746,24-24S45.254,2,32,2z M32,47.5
	c-11.873,0-21.5-9.627-21.5-21.5c0-11.875,9.627-21.5,21.5-21.5c11.875,0,21.5,9.625,21.5,21.5C53.5,37.873,43.875,47.5,32,47.5z"/>
<polygon fill="#CFD8DD" points="45.518,43.906 44.809,40.83 46.871,38.811 50.715,38.811 "/>
<path fill="#302C3B" d="M38.387,43.781c-0.797,0-0.797-0.969,0-0.969c5.953,0,7.391-2.5,9.953-3.313
	c0.666-0.211,1.234,1.469,0.125,2.201C48.09,41.947,44.262,43.781,38.387,43.781z"/>
<radialGradient id="SVGID_2_" cx="24.25" cy="18.2197" r="31.086" gradientUnits="userSpaceOnUse">
	<stop  offset="0" style="stop-color:#FFFFFF"/>
	<stop  offset="0.7879" style="stop-color:#FFFFFF;stop-opacity:0"/>
	<a:midPointStop  offset="0" style="stop-color:#FFFFFF"/>
	<a:midPointStop  offset="0.4848" style="stop-color:#FFFFFF"/>
	<a:midPointStop  offset="0.7879" style="stop-color:#FFFFFF;stop-opacity:0"/>
</radialGradient>
<path opacity="0.8" fill="url(#SVGID_2_)" d="M10.521,25.463c-0.016,0.34-0.025,0.681-0.025,1.023
	C10.496,38.395,20.124,47.5,32,47.5s21.504-9.105,21.504-21.014c0-0.343-0.01-0.684-0.025-1.023
	C49.829,12.099,14.173,12.099,10.521,25.463z"/>
</svg>
