<?xml version="1.0" encoding="utf-8"?>
<!-- Generator: Adobe Illustrator 19.0.0, SVG Export Plug-In . SVG Version: 6.00 Build 0)  -->
<svg version="1.1" id="Layer_1" xmlns="http://www.w3.org/2000/svg" xmlns:xlink="http://www.w3.org/1999/xlink" x="0px" y="0px"
	 width="64px" height="64px" viewBox="0 0 64 64" enable-background="new 0 0 64 64" xml:space="preserve">
<path fill="#006DAE" d="M9.788,52.752c2.7-1.365,13.907-4.969,13.907-4.969h16.695c0,0,11.199,3.596,13.885,4.965
	C58.18,54.732,59,62,59,62H5C5,62,5.871,54.728,9.788,52.752z"/>
<polygon fill="#664129" points="24.465,50.73 32,55.297 39.535,50.73 39.535,41.912 24.465,41.912 "/>
<rect x="15.829" y="57.277" fill="#FFE12C" width="9.817" height="0.914"/>
<rect x="15.829" y="60.174" fill="#014D87" width="9.817" height="1.826"/>
<rect x="32" y="54.624" fill="#014D87" width="3.529" height="7.376"/>
<polygon fill="#018BC9" points="25.646,59.072 15.829,59.072 15.829,60.273 16.927,60.273 20.738,61.553 24.55,60.273 
	25.646,60.273 "/>
<path fill="#FFE12C" d="M42.021,55.012l0.846-1.029c1.102,0.774,2.015-0.178,2.015-0.178s0.916,0.951,2.015,0.178l0.844,1.029
	c-1.413,0.903,0.494,2.369,0.042,3.957c-0.628,2.201-2.135,1.961-2.9,2.836c-0.768-0.875-2.27-0.635-2.899-2.836
	C41.532,57.381,43.441,55.915,42.021,55.012z"/>
<path fill="#018BC9" d="M23.396,55.12c0,0-3.626-3.714-0.913-7.452c0.462-0.631,1.973-1.685,1.973-1.685
	c0,2.525,7.545,8.399,7.545,8.399v1.068c0,0-1.049-1.098-4.244-0.56c0,0-0.333-1.109,0.114-2.103
	C27.87,52.789,25.505,53.191,23.396,55.12z"/>
<path fill="#018BC9" d="M40.602,55.12c0,0,3.629-3.714,0.916-7.452c-0.462-0.631-1.973-1.685-1.973-1.685
	c0,2.525-7.545,8.399-7.545,8.399v1.982c0,0,1.046-2.012,4.242-1.474c0,0,0.333-1.109-0.112-2.103
	C36.13,52.789,38.492,53.191,40.602,55.12z"/>
<path fill="#006DAE" d="M34.844,59.262c0,1.217-2.16,1.217-2.16,0C32.684,58.043,34.844,58.043,34.844,59.262z"/>
<path fill="#014D87" d="M43.56,48.604l1.006,2.791c0,0,8.566,3.09,10.585,3.902c2.004,0.806,1.191-1.793-0.382-2.732
	C54.18,52.211,47.046,49.475,43.56,48.604z"/>
<path fill="#006DAE" d="M47.2,50.624c0.662,1.112-1.228,1.058-1.942-0.038C44.464,49.368,46.511,49.463,47.2,50.624z"/>
<path fill="#014D87" d="M20.441,48.604l-1.008,2.791c0,0-8.564,3.09-10.585,3.902c-2.002,0.806-1.192-1.793,0.384-2.732
	C9.82,52.211,16.952,49.475,20.441,48.604z"/>
<path fill="#006DAE" d="M16.8,50.624c-0.662,1.112,1.228,1.058,1.942-0.038C19.536,49.368,17.489,49.463,16.8,50.624z"/>
<path fill="#E6A400" d="M47.042,58.165c0,2.462-4.32,2.462-4.32,0C42.722,55.703,47.042,55.703,47.042,58.165z"/>
<rect x="43.262" y="55.131" fill="#E6A400" width="3.24" height="0.615"/>
<path fill="#014D87" d="M11.457,62c0.573-1.831-0.102-4.617-0.818-6.15C9.97,54.421,10.223,60.992,11.457,62z"/>
<path fill="#014D87" d="M53.361,55.85c-0.719,1.533-1.394,4.319-0.818,6.15C53.777,60.992,54.03,54.421,53.361,55.85z"/>
<path fill="#755035" d="M14.901,24.236c-5.719-1.031-1.252,14.957,3.225,10.547C20.198,32.739,17.575,24.72,14.901,24.236z"/>
<path fill="#755035" d="M49.101,24.236c-2.674,0.483-5.299,8.503-3.223,10.547C50.354,39.193,54.815,23.205,49.101,24.236z"/>
<path fill="#916B50" d="M32.001,5.488c-11.824,0-17.521,8.945-16.807,21.384c0.143,2.503,1.693,10.665,3.158,13.593
	c1.498,2.996,6.512,7.615,9.584,8.57c1.939,0.604,6.188,0.604,8.127,0c3.072-0.955,8.086-5.574,9.586-8.57
	c1.465-2.928,3.016-11.09,3.158-13.593C49.522,14.434,43.825,5.488,32.001,5.488z"/>
<path fill="#664129" d="M32.001,39.35c-2.66-0.781-6.6,0.371-6.6,0.371c1.5,1.635,2.6,3.756,6.6,3.756
	c4.582,0,5.359-2.408,6.6-3.756C38.601,39.721,34.657,38.564,32.001,39.35z"/>
<path fill="#FFFFFF" d="M26.407,39.996c2.787,2.34,8.418,2.355,11.221,0C34.657,40.125,29.399,40.125,26.407,39.996z"/>
<path fill="#755035" d="M35.667,34.953c0,2.385-7.332,2.385-7.332,0C28.335,34.404,35.667,34.404,35.667,34.953z"/>
<path fill="#4A2E24" d="M47.577,20.075c1.146,5.819,0.414,7.426,0.785,10.163c0.728-2.706,1.178-5.085,1.39-10.163H47.577z"/>
<path fill="#4A2E24" d="M16.428,20.075h-2.219c0.31,5.453,0.787,7.922,1.435,10.163C16.013,27.5,15.179,26.358,16.428,20.075z"/>
<path fill="#FFFFFF" d="M44.659,27.834c-1.58,4.136-8.008,3.529-9.185,0.635C36.368,23.819,43.792,23.422,44.659,27.834z"/>
<path fill="#FFFFFF" d="M19.341,27.834c1.58,4.136,8.01,3.529,9.185,0.635C27.632,23.817,20.21,23.42,19.341,27.834z"/>
<path fill="#664129" d="M45.315,22.855c-2.705-1.342-7.879-1.407-9.807-0.472c-0.412,0.182-0.141,1.454,0.207,1.332
	c2.688-0.995,7.02-1.018,9.535,0.086C45.585,23.943,45.726,23.044,45.315,22.855z"/>
<path fill="#664129" d="M18.687,22.855c2.703-1.342,7.877-1.407,9.807-0.472c0.412,0.182,0.141,1.454-0.207,1.332
	c-2.691-0.995-7.02-1.018-9.537,0.086C18.415,23.943,18.276,23.044,18.687,22.855z"/>
<path fill="#613F34" d="M37.114,27.394c0,3.629,5.25,3.629,5.25,0C42.364,24.024,37.114,24.024,37.114,27.394z"/>
<path fill="#7D5037" d="M37.634,28.555c0,2.081,4.211,2.081,4.211,0C41.845,26.623,37.634,26.623,37.634,28.555z"/>
<path fill="#1A1626" d="M38.65,27.45c0,1.507,2.18,1.507,2.18,0C40.829,26.053,38.65,26.053,38.65,27.45z"/>
<path fill="#AB968C" d="M37.905,27.011c0,0.761,1.102,0.761,1.102,0C39.007,26.305,37.905,26.305,37.905,27.011z"/>
<path fill="#613F34" d="M21.638,27.393c0,3.63,5.25,3.63,5.25,0C26.888,24.023,21.638,24.023,21.638,27.393z"/>
<path fill="#7D5037" d="M22.157,28.554c0,2.081,4.211,2.081,4.211,0C26.368,26.622,22.157,26.622,22.157,28.554z"/>
<path fill="#1A1626" d="M23.173,27.45c0,1.506,2.18,1.506,2.18,0C25.353,26.052,23.173,26.052,23.173,27.45z"/>
<path fill="#AB968C" d="M22.429,27.01c0,0.761,1.1,0.761,1.1,0C23.528,26.304,22.429,26.304,22.429,27.01z"/>
<path fill="#755035" d="M44.659,27.803c0-4.44-9.185-4.44-9.185,0.703C36.786,24.286,43.347,24.286,44.659,27.803z"/>
<path fill="#755035" d="M19.341,27.803c0-4.44,9.185-4.44,9.185,0.702C27.216,24.283,20.653,24.283,19.341,27.803z"/>
<path opacity="0.2" d="M15.061,20.57c0,0-0.109,0.565-0.109,0.936c3.754,1.926,11.297,2.938,17.051,2.938
	c5.75,0,13.291-1.012,17.047-2.936c-0.062-0.531-0.111-0.938-0.111-0.938H15.061z"/>
<path opacity="0.2" d="M14.256,21.91c1.344,1.555,5.415,3.908,17.742,3.908c12.341,0,16.404-2.356,17.746-3.911
	C49.744,21.331,14.256,21.205,14.256,21.91z"/>
<path fill="#014D87" d="M53.563,15.123c-4.539-3.639-5.055-8.914-6.891-9.201C35.239,4.139,34.849,2,32,2
	c-2.853,0-3.239,2.139-14.672,3.922c-1.834,0.287-2.352,5.563-6.893,9.201c-2.188,1.756,3.113,3.309,5.012,6.443
	c1.025,1.691,32.082,1.691,33.104,0C50.451,18.432,55.754,16.879,53.563,15.123z"/>
<path fill="#006DAE" d="M32,12.951c0,0-14.255,0-18.403,3.738v3.508H32h18.403V16.69C46.255,12.951,32,12.951,32,12.951z"/>
<path fill="#302C3B" d="M32,18.525c-17.005,0-18.403,2.617-18.403,2.617s0,3.676,18.403,3.676c18.403,0,18.403-3.676,18.403-3.676
	S49.003,18.525,32,18.525z"/>
<path fill="#FFE12C" d="M32,17.525c0,0-11.23-0.205-18.403,2.021v1.596c0,0,2.975-1.93,18.403-1.93
	c15.431,0,18.403,1.93,18.403,1.93v-1.596C43.23,17.32,32,17.525,32,17.525z"/>
<path fill="#FFE12C" d="M36.254,7.031L34.997,5.6C33.357,6.678,32,5.353,32,5.353S30.641,6.678,29.005,5.6l-1.257,1.432
	c2.105,1.26-0.731,3.297-0.061,5.502c0.934,3.064,3.173,2.73,4.313,3.945c1.14-1.215,3.379-0.881,4.311-3.945
	C36.984,10.328,34.146,8.291,36.254,7.031z"/>
</svg>
