<?xml version="1.0" encoding="utf-8"?>
<!-- Generator: Adobe Illustrator 19.0.0, SVG Export Plug-In . SVG Version: 6.00 Build 0)  -->
<svg version="1.1" id="Layer_1" xmlns="http://www.w3.org/2000/svg" xmlns:xlink="http://www.w3.org/1999/xlink" x="0px" y="0px"
	 width="64px" height="64px" viewBox="0 0 64 64" enable-background="new 0 0 64 64" xml:space="preserve">
<g>
	<g>
		<g>
			<path fill="#018BC9" d="M6.787,51.719c2.701-1.515,13.908-5.521,13.908-5.521h16.695c0,0,11.197,3.997,13.881,5.519
				C55.178,53.922,56,62,56,62H2C2,62,2.869,53.916,6.787,51.719"/>
			<rect x="21.463" y="42.465" fill="#423225" width="15.072" height="7.705"/>
			<g>
				<path fill="#006DAE" d="M8.912,62c0.576-2.037-0.1-5.133-0.818-6.836C7.428,53.575,7.678,60.879,8.912,62"/>
			</g>
			<g>
				<rect x="29" y="54.484" fill="#006DAE" width="3.375" height="7.516"/>
				<path fill="#018BC9" d="M31.859,59.208c0,1.24-2.348,1.24-2.348,0C29.512,57.969,31.859,57.969,31.859,59.208z"/>
				<g>
					<path fill="#FFFFFF" d="M35.75,46.863c-2.072,0.835-4.365,1.314-6.75,1.314c-2.387,0-4.682-0.479-6.75-1.314L29,57.823
						L35.75,46.863z"/>
					<g>
						<g>
							<path fill="#006DAE" d="M19.408,45.766c-2.045,4.464-1.092,7.313-1.092,7.313c1.723-1.118,5.104-2.354,5.105-2.356
								c-1.225,1.249-2.197,3.301-2.197,3.301C24.896,54.446,29,57.823,29,57.823S23.291,45.948,19.408,45.766z"/>
							<path fill="#018BC9" d="M21.961,43.46c0,0-1.008-0.301-1.44,0.265c-2.529,3.35-1.688,8.09-1.688,8.09
								c1.725-1.121,5.164-1.451,5.166-1.452c-1.226,1.25-1.75,2.656-1.75,2.656c2.594,0.885,6.75,4.805,6.75,4.805
								S25.529,50.573,21.961,43.46z"/>
						</g>
						<g>
							<path fill="#006DAE" d="M38.588,45.766c2.045,4.464,1.094,7.313,1.094,7.313c-1.721-1.118-5.106-2.354-5.108-2.356
								c1.229,1.249,2.199,3.301,2.199,3.301C33.1,54.446,29,57.823,29,57.823S34.705,45.948,38.588,45.766z"/>
							<path fill="#018BC9" d="M36.037,43.46c0,0,1.008-0.301,1.438,0.265c2.529,3.35,1.688,8.09,1.688,8.09
								c-1.721-1.121-5.164-1.451-5.164-1.452c1.227,1.25,1.752,2.656,1.752,2.656C33.152,53.903,29,57.823,29,57.823
								S32.467,50.573,36.037,43.46z"/>
						</g>
					</g>
				</g>
			</g>
		</g>
		<g>
			<g>
				<path fill="#423225" d="M11.9,20.749c-5.719-1.031-1.252,14.957,3.225,10.547C17.197,29.252,14.574,21.232,11.9,20.749z"/>
				<path fill="#423225" d="M46.1,20.749c-2.674,0.483-5.299,8.503-3.223,10.547C47.354,35.706,51.814,19.718,46.1,20.749z"/>
			</g>
			<path fill="#614A36" d="M29,2.001c-11.824,0-17.521,8.945-16.807,21.384c0.143,2.503,1.693,10.665,3.158,13.593
				c1.498,2.995,6.512,7.614,9.584,8.57c1.939,0.604,6.188,0.604,8.127,0c3.072-0.956,8.086-5.575,9.586-8.57
				c1.465-2.928,3.016-11.09,3.158-13.593C46.521,10.946,40.824,2.001,29,2.001z"/>
			<g>
				<path fill="#36281D" d="M29,35.862c-2.66-0.782-6.6,0.37-6.6,0.37c1.5,1.635,2.6,3.756,6.6,3.756c4.582,0,5.359-2.407,6.6-3.756
					C35.6,36.232,31.656,35.076,29,35.862z"/>
				<g>
					<path fill="#FFFFFF" d="M23.406,36.509c2.787,2.34,8.418,2.354,11.221,0C31.656,36.637,26.399,36.638,23.406,36.509z"/>
				</g>
			</g>
			<path fill="#423225" d="M32.666,31.465c0,2.386-7.332,2.386-7.332,0C25.334,30.917,32.666,30.917,32.666,31.465z"/>
			<path fill="#38332D" d="M29,2c-8.135,0-13.049,2.688-15.168,1.655c0,0-0.231,1.388,0.6,2.291c0,0-0.877,0.758-2.291-0.522
				C10.793,9.802,14.793,12.338,29,12.338c14.207,0,10.813-3.46,17.797,2.616C46.111,7.465,41.354,2,29,2z"/>
			<path fill="#26221E" d="M35.016,8.529c-7.822,2.888-10.682-2.321-18.061-2.824c3.51,1.657,5.223,4.208,8.106,6.049
				c-6.274-2.101-10.877-5.712-11.227-8.085c0,0-1.047,3.464,3.094,6.053c-3.959,0.367-4.785-4.283-4.785-4.283
				c-2.004,3.221-1.727,13.606,0.5,21.313c0.371-2.75-0.475-3.887,0.797-7.201c3.805-9.904,1.355-5.745,15.563-5.745
				c14.205,0,11.641-3.793,15.56,5.745c1.17,2.844,0.426,4.451,0.799,7.201C50.031,9.374,43.314,5.467,35.016,8.529z"/>
			<g>
				<path fill="#FFFFFF" d="M41.658,24.347c-1.58,4.136-8.008,3.529-9.186,0.635C33.367,20.332,40.791,19.935,41.658,24.347z"/>
				<path fill="#FFFFFF" d="M16.34,24.347c1.58,4.136,8.01,3.529,9.186,0.635C24.631,20.33,17.209,19.933,16.34,24.347z"/>
				<g>
					<path fill="#36281D" d="M42.314,19.368c-2.705-1.342-7.879-1.407-9.807-0.472c-0.412,0.182-0.141,1.454,0.207,1.332
						c2.688-0.995,7.02-1.019,9.535,0.086C42.584,20.456,42.725,19.557,42.314,19.368z"/>
					<path fill="#36281D" d="M15.686,19.368c2.703-1.342,7.877-1.407,9.807-0.472c0.412,0.182,0.141,1.454-0.207,1.332
						c-2.691-0.995-7.02-1.019-9.537,0.086C15.414,20.456,15.275,19.557,15.686,19.368z"/>
				</g>
				<g>
					<path fill="#613F34" d="M34.113,23.906c0,3.629,5.25,3.629,5.25,0C39.363,20.537,34.113,20.537,34.113,23.906z"/>
					<path fill="#7D5037" d="M34.633,25.067c0,2.081,4.211,2.081,4.211,0C38.844,23.136,34.633,23.136,34.633,25.067z"/>
					<path fill="#1A1626" d="M35.648,23.963c0,1.507,2.18,1.507,2.18,0C37.828,22.565,35.648,22.565,35.648,23.963z"/>
					<path fill="#AB968C" d="M34.904,23.523c0,0.761,1.102,0.761,1.102,0C36.006,22.817,34.904,22.817,34.904,23.523z"/>
				</g>
				<g>
					<path fill="#613F34" d="M18.637,23.905c0,3.63,5.25,3.63,5.25,0C23.887,20.536,18.637,20.536,18.637,23.905z"/>
					<path fill="#7D5037" d="M19.156,25.066c0,2.081,4.211,2.081,4.211,0C23.367,23.135,19.156,23.135,19.156,25.066z"/>
					<path fill="#1A1626" d="M20.172,23.963c0,1.506,2.18,1.506,2.18,0C22.352,22.565,20.172,22.565,20.172,23.963z"/>
					<path fill="#AB968C" d="M19.428,23.522c0,0.761,1.1,0.761,1.1,0C20.527,22.816,19.428,22.816,19.428,23.522z"/>
				</g>
				<path fill="#423225" d="M41.658,24.315c0-4.44-9.186-4.44-9.186,0.703C33.785,20.799,40.346,20.799,41.658,24.315z"/>
				<path fill="#423225" d="M16.34,24.315c0-4.44,9.186-4.44,9.186,0.702C24.215,20.796,17.652,20.796,16.34,24.315z"/>
			</g>
		</g>
	</g>
	<g>
		<path fill="#018BC9" d="M54.176,62H43.488c0,0,2.777-4.176,4.504-4.11C56.887,58.226,54.176,62,54.176,62z"/>
		<path fill="#423225" d="M51.879,46.344c0.277-1.474,3.279,0.238,2.131,2.164c-0.465,0.779,6.137,7.054,5.732,8.485
			c-0.725,2.576-6.104,3.71-6.463,4.691c-0.359,0.979-6.051-2.608-5.117-3.358c3.059-2.465,0.633-2.804,2.361-5.719
			C51.822,50.415,51.504,48.315,51.879,46.344z"/>
		<g>
			<rect x="52.643" y="35.581" fill="#99A8AE" width="5.502" height="26.419"/>
			<path fill="#6E8189" d="M52.643,39.063c0.838,0.392,1.768,0.618,2.752,0.618c0.984,0,1.916-0.226,2.75-0.618v-2.781h-5.502
				V39.063z"/>
			<g>
				<path fill="#99A8AE" d="M58.145,25.977v6.55l-2.75,2.146l-2.752-2.146v-6.55c-2.271,1.045-3.854,3.334-3.854,5.998
					c0,3.648,2.959,6.606,6.605,6.606c3.648,0,6.605-2.958,6.605-6.606C62,29.311,60.418,27.021,58.145,25.977z"/>
				<path fill="#6E8189" d="M61.447,31.718c0-0.478-0.051-0.945-0.146-1.395c0.236,0.634,0.367,1.317,0.367,2.032
					c0,3.001-2.295,5.483-5.281,5.893C59.309,37.423,61.447,34.813,61.447,31.718z"/>
				<path fill="#CFD8DD" d="M52.643,26.208c-1.861,0.838-3.227,2.627-3.523,4.775c0.539-1.904,1.832-3.477,3.523-4.34V26.208z"/>
			</g>
		</g>
		<path fill="#614A36" d="M59.191,49.798c1.764,0.693,1.135,2.218,0.736,2.648c1.221,1.035,0.861,2.501,0.514,2.855
			c1.242,3.505-9.172,3.958-5.264,1.389c-3.16-0.185-1.318-2.007,0.379-2.673c-4.305,1.065-2.844-1.545,0.613-2.622
			C50.256,52.788,59.201,43.605,59.191,49.798z"/>
	</g>
</g>
</svg>
