<?xml version="1.0" encoding="utf-8"?>
<!-- Generator: Adobe Illustrator 15.0.0, SVG Export Plug-In . SVG Version: 6.00 Build 0)  -->
<!DOCTYPE svg PUBLIC "-//W3C//DTD SVG 1.1//EN" "http://www.w3.org/Graphics/SVG/1.1/DTD/svg11.dtd" [
	<!ENTITY ns_flows "http://ns.adobe.com/Flows/1.0/">
	<!ENTITY ns_extend "http://ns.adobe.com/Extensibility/1.0/">
	<!ENTITY ns_ai "http://ns.adobe.com/AdobeIllustrator/10.0/">
	<!ENTITY ns_graphs "http://ns.adobe.com/Graphs/1.0/">
]>
<svg version="1.1" id="Layer_1" xmlns:x="&ns_extend;" xmlns:i="&ns_ai;" xmlns:graph="&ns_graphs;"
	 xmlns="http://www.w3.org/2000/svg" xmlns:xlink="http://www.w3.org/1999/xlink" xmlns:a="http://ns.adobe.com/AdobeSVGViewerExtensions/3.0/"
	 x="0px" y="0px" width="64px" height="64px" viewBox="0 0 64 64" enable-background="new 0 0 64 64" xml:space="preserve">
<ellipse fill="#B00505" cx="32.011" cy="31.875" rx="19.3" ry="10.125"/>
<path fill="#E81C27" d="M9.789,52.619c2.699-1.385,14.846-4.512,14.846-4.512L32,49.959l7.363-1.852c0,0,12.229,3.121,14.912,4.508
	C58.178,54.629,59,62,59,62H5C5,62,5.873,54.623,9.789,52.619"/>
<polygon fill="#FFE12C" points="11.459,62 52.543,62 53.477,58.295 10.729,58.295 "/>
<rect x="23.486" y="43.477" fill="#D6A67A" width="17.027" height="8.945"/>
<path fill="#302C3B" d="M24.635,50.117C26.203,52.861,32,56.727,32,56.727s5.797-3.865,7.363-6.609
	C34.59,51.52,29.41,51.52,24.635,50.117z"/>
<path fill="#B00505" d="M11.459,62c0.572-1.857-0.102-4.684-0.82-6.238C9.969,54.313,10.223,60.979,11.459,62"/>
<path fill="#B00505" d="M53.361,55.762c-0.717,1.555-1.395,4.381-0.818,6.238C53.777,60.979,54.027,54.313,53.361,55.762"/>
<rect x="32.002" y="54.709" fill="#302C3B" width="0.922" height="7.291"/>
<path fill="#B00505" d="M32.002,62c0,0-3.73-10.508-12.957-8.367c0,0-0.363-5.377,4.287-8.215c1.439-0.879-1.557,4.604,8.668,9.293
	L32.002,62"/>
<path fill="#B00505" d="M32.002,58.295c0,0,3.381-5.148,12.951-4.662c0,0,0.365-5.377-4.281-8.215
	c-1.443-0.879,1.996,5.221-8.672,9.293L32.002,62"/>
<path fill="#D6A67A" d="M14.9,24.236c-5.719-1.031-1.252,14.957,3.225,10.547C20.197,32.74,17.574,24.721,14.9,24.236z"/>
<path fill="#D6A67A" d="M49.1,24.236c-2.674,0.484-5.299,8.504-3.223,10.547C50.354,39.193,54.814,23.205,49.1,24.236z"/>
<path fill="#E3C19B" d="M32,5.488c-11.824,0-17.521,8.945-16.807,21.385c0.143,2.502,1.693,10.664,3.158,13.592
	c1.498,2.996,6.512,7.615,9.584,8.57c1.939,0.604,6.188,0.604,8.127,0c3.072-0.955,8.086-5.574,9.586-8.57
	c1.465-2.928,3.016-11.09,3.158-13.592C49.521,14.434,43.824,5.488,32,5.488z"/>
<path fill="#BF8C6B" d="M32,39.35c-2.66-0.781-6.6,0.371-6.6,0.371c1.5,1.635,2.6,3.756,6.6,3.756c4.582,0,5.359-2.408,6.6-3.756
	C38.6,39.721,34.656,38.564,32,39.35z"/>
<path fill="#FFFFFF" d="M26.406,39.996c2.787,2.34,8.418,2.355,11.221,0C34.656,40.125,29.398,40.125,26.406,39.996z"/>
<path fill="#D6A67A" d="M35.666,34.953c0,2.385-7.332,2.385-7.332,0C28.334,34.404,35.666,34.404,35.666,34.953z"/>
<path fill="#BA9D52" d="M47.576,22.076c1.146,3.818,0.414,5.426,0.785,8.162c0.729-2.705,1.178-5.084,1.391-8.162H47.576z"/>
<path fill="#BA9D52" d="M16.428,22.076h-2.219c0.309,3.453,0.787,5.922,1.434,8.162C16.012,27.5,15.178,26.359,16.428,22.076z"/>
<path fill="#FFFFFF" d="M44.658,27.834c-1.58,4.137-8.008,3.529-9.186,0.635C36.367,23.82,43.791,23.422,44.658,27.834z"/>
<path fill="#FFFFFF" d="M19.34,27.834c1.58,4.137,8.01,3.529,9.186,0.635C27.631,23.818,20.209,23.42,19.34,27.834z"/>
<path fill="#BF8C6B" d="M45.314,22.855c-2.705-1.342-7.879-1.406-9.807-0.471c-0.412,0.182-0.141,1.453,0.207,1.332
	c2.688-0.996,7.02-1.02,9.535,0.086C45.584,23.943,45.725,23.045,45.314,22.855z"/>
<path fill="#BF8C6B" d="M18.686,22.855c2.703-1.342,7.877-1.406,9.807-0.471c0.412,0.182,0.141,1.453-0.207,1.332
	c-2.691-0.996-7.02-1.02-9.537,0.086C18.414,23.943,18.275,23.045,18.686,22.855z"/>
<path fill="#613F34" d="M37.113,27.395c0,3.629,5.25,3.629,5.25,0C42.363,24.025,37.113,24.025,37.113,27.395z"/>
<path fill="#7D5037" d="M37.633,28.555c0,2.082,4.211,2.082,4.211,0C41.844,26.623,37.633,26.623,37.633,28.555z"/>
<path fill="#1A1626" d="M38.648,27.451c0,1.506,2.18,1.506,2.18,0C40.828,26.053,38.648,26.053,38.648,27.451z"/>
<path fill="#AB968C" d="M37.904,27.012c0,0.76,1.102,0.76,1.102,0C39.006,26.305,37.904,26.305,37.904,27.012z"/>
<path fill="#613F34" d="M21.637,27.393c0,3.631,5.25,3.631,5.25,0C26.887,24.023,21.637,24.023,21.637,27.393z"/>
<path fill="#7D5037" d="M22.156,28.555c0,2.08,4.211,2.08,4.211,0C26.367,26.623,22.156,26.623,22.156,28.555z"/>
<path fill="#1A1626" d="M23.172,27.451c0,1.506,2.18,1.506,2.18,0C25.352,26.053,23.172,26.053,23.172,27.451z"/>
<path fill="#AB968C" d="M22.428,27.01c0,0.762,1.1,0.762,1.1,0C23.527,26.305,22.428,26.305,22.428,27.01z"/>
<path fill="#D6A67A" d="M44.658,27.803c0-4.439-9.186-4.439-9.186,0.703C36.785,24.287,43.346,24.287,44.658,27.803z"/>
<path fill="#D6A67A" d="M19.34,27.803c0-4.439,9.186-4.439,9.186,0.703C27.215,24.283,20.652,24.283,19.34,27.803z"/>
<path opacity="0.2" d="M32.002,18.65c-28.152,0-19.24,16.826-19.24,15.225c0-5.594,8.617-10.125,19.25-10.125
	c10.631,0,19.25,4.531,19.25,10.125C51.262,35.465,60.152,18.65,32.002,18.65z"/>
<radialGradient id="SVGID_1_" cx="32.0078" cy="8.7207" r="16.5135" gradientTransform="matrix(1 0 0 0.9392 0 6.9561)" gradientUnits="userSpaceOnUse">
	<stop  offset="0.2606" style="stop-color:#A10505"/>
	<stop  offset="0.4829" style="stop-color:#B20B0D"/>
	<stop  offset="0.9239" style="stop-color:#E01923"/>
	<stop  offset="1" style="stop-color:#E81C27"/>
	<a:midPointStop  offset="0.2606" style="stop-color:#A10505"/>
	<a:midPointStop  offset="0.5528" style="stop-color:#A10505"/>
	<a:midPointStop  offset="1" style="stop-color:#E81C27"/>
</radialGradient>
<path fill="url(#SVGID_1_)" d="M52.174,24.461c0,5.369,0.443-3.361-20.166-3.361c-20.609,0.002-20.166,8.73-20.166,3.361
	c0-13.242,9.027-20.375,20.166-20.375C43.145,4.086,52.174,11.219,52.174,24.461z"/>
<path fill="#E81C27" d="M37.559,20.238H26.455c0,0,0-12.449,0-15.215c0-4.031,11.104-4.031,11.104,0
	C37.559,8.082,37.559,20.238,37.559,20.238z"/>
<radialGradient id="SVGID_2_" cx="32.0078" cy="14.0269" r="14.9762" gradientTransform="matrix(1 0 0 0.9392 0 6.9561)" gradientUnits="userSpaceOnUse">
	<stop  offset="0" style="stop-color:#747080"/>
	<stop  offset="1" style="stop-color:#302C3B"/>
	<a:midPointStop  offset="0" style="stop-color:#747080"/>
	<a:midPointStop  offset="0.5" style="stop-color:#747080"/>
	<a:midPointStop  offset="1" style="stop-color:#302C3B"/>
</radialGradient>
<path fill="url(#SVGID_2_)" d="M52.174,24.461c0-1.373-0.119-2.664-0.307-3.906c-3.537-3.846-11.102-6.502-19.863-6.502
	c-8.754,0-16.313,2.65-19.855,6.49c-0.188,1.246-0.307,2.541-0.307,3.918c0,5.369-0.443-3.359,20.166-3.361
	C52.617,21.1,52.174,29.83,52.174,24.461z"/>
<path fill="#E81C27" d="M32.008,17.811c-12.15,0-22,5.107-22,11.412c0,2.672,1.777,5.131,4.746,7.074
	c-1.26-1.266-1.986-2.684-1.986-4.188c0-5.254,8.617-9.51,19.25-9.51c10.631,0,19.25,4.256,19.25,9.51
	c0,1.492-0.715,2.898-1.955,4.154c2.938-1.938,4.695-4.383,4.695-7.041C54.008,22.918,44.158,17.811,32.008,17.811z"/>
<path fill="#FFE12C" d="M37.957,8.773c-1.49-2.883-4.695-2.275-5.951-4.688c-1.254,2.412-4.461,1.805-5.949,4.688
	c-1.496,2.895,1.309,4.135-0.438,5.803c0,0,1.865,1.314,1.332,4.301c0,0,2.037-0.963,5.055,1.139
	c3.018-2.102,5.055-1.139,5.055-1.139c-0.531-2.986,1.334-4.301,1.334-4.301C36.648,12.908,39.453,11.668,37.957,8.773z"/>
<path fill="#302C3B" d="M35.307,15.914h-1.16v0.465h1.064v0.381h-1.064v0.564h1.213v0.393h-1.66v-2.191h1.607V15.914z"/>
<path fill="#302C3B" d="M28.654,15.527h1.561v0.383h-1.107v0.506h0.973v0.381h-0.973v0.918h-0.453V15.527z"/>
<path fill="#302C3B" d="M31.127,17.717H30.67v-2.191h0.457V17.717z"/>
<path fill="#302C3B" d="M32.977,15.58c0.08,0.033,0.148,0.086,0.205,0.154c0.045,0.055,0.084,0.115,0.109,0.184
	c0.027,0.068,0.043,0.145,0.043,0.23c0,0.105-0.027,0.209-0.08,0.309s-0.139,0.17-0.26,0.213c0.1,0.039,0.172,0.098,0.213,0.174
	c0.043,0.074,0.066,0.189,0.066,0.342v0.146c0,0.1,0.002,0.168,0.01,0.205c0.012,0.059,0.041,0.098,0.084,0.127v0.053h-0.506
	c-0.012-0.047-0.023-0.088-0.029-0.117c-0.012-0.061-0.018-0.125-0.02-0.188l-0.004-0.205c0-0.141-0.025-0.232-0.072-0.279
	c-0.045-0.047-0.133-0.07-0.26-0.07h-0.449v0.859h-0.445v-2.191h1.049C32.779,15.527,32.896,15.545,32.977,15.58z M32.027,15.904
	v0.59h0.494c0.098,0,0.172-0.014,0.221-0.037c0.086-0.041,0.131-0.123,0.131-0.244c0-0.133-0.043-0.223-0.127-0.268
	c-0.045-0.027-0.117-0.041-0.213-0.041H32.027z"/>
<path fill="#E81C27" d="M35.469,9.227c-0.838-0.84-2.037,0.387-2.385,0.463c0.074-0.35,1.301-1.549,0.463-2.389
	c-0.242-0.242-2.838-0.242-3.08,0c-0.838,0.84,0.387,2.039,0.461,2.389c-0.348-0.076-1.547-1.303-2.385-0.463
	c-0.242,0.244-0.242,2.836,0,3.08c0.838,0.836,2.037-0.387,2.385-0.463c-0.074,0.348-1.299,1.547-0.461,2.387
	c0.242,0.24,2.838,0.24,3.08,0c0.838-0.84-0.389-2.039-0.463-2.387c0.348,0.076,1.547,1.299,2.385,0.463
	C35.711,12.063,35.711,9.471,35.469,9.227z"/>
</svg>
