<?xml version="1.0" encoding="utf-8"?>
<!-- Generator: Adobe Illustrator 19.0.0, SVG Export Plug-In . SVG Version: 6.00 Build 0)  -->
<svg version="1.1" id="Layer_1" xmlns="http://www.w3.org/2000/svg" xmlns:xlink="http://www.w3.org/1999/xlink" x="0px" y="0px"
	 width="64px" height="64px" viewBox="0 0 64 64" enable-background="new 0 0 64 64" xml:space="preserve">
<path fill="#FFCC66" d="M10.553,42.8c-1.831-1.927,0.134,3.637-1.565,1.847C7.406,42.98,8.209,40.19,8.209,40.19l2.695-0.509
	C10.904,39.682,12.066,44.394,10.553,42.8z"/>
<path fill="#FFCC66" d="M31.889,43.455c2.797-2.419-0.471-4.955-0.471-4.955l-2.327,1.553
	C29.004,39.858,30.886,44.322,31.889,43.455z"/>
<path fill="#302C3B" d="M24.673,36.853H12.262c-1.082,5.025,0.186,10.995-1.079,23.245c-0.16,1.543,5.806,1.552,5.752,0
	c-0.249-7.146,0.458-11.612,0.964-15.968c0.037-0.325,1.101-0.325,1.138,0c0.507,4.355,1.213,8.821,0.964,15.968
	c-0.054,1.552,5.912,1.543,5.752,0C24.486,47.848,25.755,41.878,24.673,36.853z"/>
<path fill="#CFD8DD" d="M26.822,62h-6.837C18.777,56.905,26.822,57.9,26.822,62z"/>
<path fill="#7AB51D" d="M26.382,23.273c-0.644-1.523-5.449-3.329-5.449-3.329h-4.931c0,0-4.959,1.74-5.449,3.329
	c-2.479,8.033-2.743,9.242-2.464,17.219c0.028,0.813,2.944-0.259,2.954-0.659c0.188-7.177,0.137-5.512,1.219-11.098
	c0.648,3.709-0.228,7.704,0,8.117c0.802,1.462,11.609,1.462,12.411,0c0.228-0.413-0.648-4.408,0-8.117
	c2.044,4.753,2.278,5.613,4.497,11.769c0.135,0.373,2.659-1.032,2.463-1.817C30.166,32.822,28.737,28.849,26.382,23.273z"/>
<path fill="#CFD8DD" d="M10.112,62h6.837C18.157,56.905,10.112,57.9,10.112,62z"/>
<path fill="#E6B045" d="M21.189,19.941c0-0.469,0-2.549,0-2.549h-5.447c0,0,0,2.051,0,2.549
	C15.742,22.685,21.189,22.685,21.189,19.941z"/>
<path fill="#E6B045" d="M11.523,10.217c-2.322-0.42-0.508,6.063,1.309,4.277C13.672,13.664,12.607,10.412,11.523,10.217z"/>
<path fill="#E6B045" d="M25.408,10.217c-1.084,0.195-2.149,3.447-1.309,4.277C25.926,16.279,27.732,9.797,25.408,10.217z"/>
<path fill="#FFCC66" d="M18.467,2.611c-4.805,0-7.119,3.631-6.826,8.67c0.059,1.016,0.684,4.324,1.279,5.516
	c0.615,1.211,2.647,3.086,3.897,3.476c0.791,0.244,2.51,0.244,3.299,0c1.25-0.391,3.291-2.266,3.896-3.476
	c0.596-1.191,1.221-4.5,1.279-5.516C25.584,6.242,23.27,2.611,18.467,2.611z"/>
<path fill="#E6A400" d="M18.467,16.348c-1.084-0.322-2.676,0.146-2.676,0.146c0.605,0.664,1.055,1.523,2.676,1.523
	c1.863,0,2.176-0.977,2.684-1.523C21.15,16.494,19.551,16.025,18.467,16.348z"/>
<path fill="#FFFFFF" d="M16.191,16.611c1.133,0.947,3.428,0.947,4.559,0C19.551,16.66,17.412,16.66,16.191,16.611z"/>
<path fill="#E6B045" d="M19.961,14.563c0,0.965-2.979,0.965-2.979,0C16.982,14.338,19.961,14.338,19.961,14.563z"/>
<path fill="#594640" d="M18.467,2.611c-3.301,0-5.303,1.084-6.162,0.674c0,0-0.088,0.557,0.244,0.928c0,0-0.352,0.303-0.928-0.215
	c-0.547,1.777,1.074,2.801,6.846,2.801c5.769,0,4.392-1.394,7.234,1.064C25.418,4.828,23.484,2.611,18.467,2.611z"/>
<path fill="#453631" d="M20.906,5.258c-3.172,1.17-4.334-0.938-7.332-1.143C15,4.779,15.693,5.824,16.865,6.564
	c-2.549-0.848-4.414-2.313-4.561-3.279c0,0-0.42,1.406,1.26,2.461c-1.611,0.145-1.943-1.738-1.943-1.738
	c-0.818,1.299-0.703,5.516,0.205,8.641c0.146-1.113-0.195-1.572,0.322-2.92c1.543-4.022,0.547-2.334,6.318-2.334
	c5.769,0,4.725-1.531,6.316,2.334c0.478,1.152,0.176,1.807,0.332,2.92C27.01,5.6,24.275,4.018,20.906,5.258z"/>
<path fill="#FFFFFF" d="M23.611,11.672c-0.644,1.68-3.262,1.436-3.728,0.254C20.244,10.041,23.26,9.885,23.611,11.672z"/>
<path fill="#FFFFFF" d="M13.32,11.672c0.645,1.68,3.262,1.436,3.73,0.254C16.689,10.041,13.682,9.885,13.32,11.672z"/>
<path fill="#C1873C" d="M23.875,9.65c-1.104-0.537-3.203-0.566-3.983-0.186c-0.166,0.068-0.059,0.586,0.088,0.537
	c1.092-0.4,2.85-0.41,3.865,0.039C23.982,10.09,24.041,9.729,23.875,9.65z"/>
<path fill="#C1873C" d="M13.057,9.65c1.103-0.537,3.203-0.566,3.984-0.186c0.166,0.068,0.059,0.586-0.078,0.537
	c-1.094-0.4-2.852-0.41-3.877,0.039C12.949,10.09,12.891,9.729,13.057,9.65z"/>
<path fill="#613F34" d="M20.545,11.496c0,1.475,2.129,1.475,2.129,0C22.674,10.129,20.545,10.129,20.545,11.496z"/>
<path fill="#7D5037" d="M20.75,11.965c0,0.85,1.719,0.85,1.719,0C22.469,11.184,20.75,11.184,20.75,11.965z"/>
<path fill="#1A1626" d="M21.17,11.516c0,0.615,0.879,0.615,0.879,0C22.049,10.949,21.17,10.949,21.17,11.516z"/>
<path fill="#AB968C" d="M20.867,11.34c0,0.313,0.44,0.313,0.44,0C21.307,11.057,20.867,11.057,20.867,11.34z"/>
<path fill="#613F34" d="M14.258,11.496c0,1.475,2.129,1.475,2.129,0C16.387,10.129,14.258,10.129,14.258,11.496z"/>
<path fill="#7D5037" d="M14.473,11.965c0,0.84,1.709,0.84,1.709,0C16.182,11.184,14.473,11.184,14.473,11.965z"/>
<path fill="#1A1626" d="M14.883,11.516c0,0.615,0.879,0.615,0.879,0C15.762,10.949,14.883,10.949,14.883,11.516z"/>
<path fill="#AB968C" d="M14.58,11.34c0,0.313,0.449,0.313,0.449,0C15.029,11.057,14.58,11.057,14.58,11.34z"/>
<path fill="#E6B045" d="M23.611,11.662c0-1.807-3.728-1.807-3.728,0.283C20.408,10.236,23.074,10.236,23.611,11.662z"/>
<path fill="#E6B045" d="M13.32,11.662c0-1.807,3.73-1.807,3.73,0.283C16.523,10.236,13.857,10.236,13.32,11.662z"/>
<path fill="#FFCC66" d="M53.447,42.8c1.831-1.927-0.134,3.637,1.565,1.847c1.581-1.666,0.778-4.456,0.778-4.456l-2.695-0.509
	C53.096,39.682,51.934,44.394,53.447,42.8z"/>
<path fill="#FFCC66" d="M32.111,43.455c-2.797-2.419,0.471-4.955,0.471-4.955l2.327,1.553
	C34.996,39.858,33.114,44.322,32.111,43.455z"/>
<path fill="#302C3B" d="M39.327,36.853h12.411c1.082,5.025-0.187,10.995,1.079,23.245c0.16,1.543-5.806,1.552-5.752,0
	c0.249-7.146-0.458-11.612-0.964-15.968c-0.037-0.325-1.101-0.325-1.138,0c-0.507,4.355-1.213,8.821-0.964,15.968
	c0.054,1.552-5.912,1.543-5.752,0C39.514,47.848,38.245,41.878,39.327,36.853z"/>
<path fill="#CFD8DD" d="M37.178,62h6.837C45.223,56.905,37.178,57.9,37.178,62z"/>
<path fill="#7AB51D" d="M37.618,23.273c0.644-1.523,5.449-3.329,5.449-3.329h4.931c0,0,4.959,1.74,5.449,3.329
	c2.479,8.033,2.743,9.242,2.464,17.219c-0.028,0.813-2.944-0.259-2.954-0.659c-0.188-7.177-0.137-5.512-1.219-11.098
	c-0.648,3.709,0.228,7.704,0,8.117c-0.802,1.462-11.609,1.462-12.411,0c-0.227-0.413,0.648-4.408,0-8.117
	c-2.044,4.753-2.278,5.613-4.497,11.769c-0.135,0.373-2.659-1.032-2.463-1.817C33.834,32.822,35.263,28.849,37.618,23.273z"/>
<path fill="#CFD8DD" d="M53.888,62h-6.837C45.843,56.905,53.888,57.9,53.888,62z"/>
<path fill="#E6B045" d="M48.256,19.941c0-0.469,0-2.549,0-2.549h-5.447c0,0,0,2.051,0,2.549
	C42.809,22.685,48.256,22.685,48.256,19.941z"/>
<path fill="#E6B045" d="M38.59,10.217c-2.322-0.42-0.508,6.063,1.309,4.277C40.738,13.664,39.674,10.412,38.59,10.217z"/>
<path fill="#E6B045" d="M52.475,10.217c-1.084,0.195-2.149,3.447-1.309,4.277C52.992,16.279,54.799,9.797,52.475,10.217z"/>
<path fill="#FFCC66" d="M45.533,2.611c-4.805,0-7.119,3.631-6.826,8.67c0.059,1.016,0.684,4.324,1.279,5.516
	c0.615,1.211,2.646,3.086,3.896,3.476c0.791,0.244,2.51,0.244,3.299,0c1.25-0.391,3.291-2.266,3.897-3.476
	c0.596-1.191,1.221-4.5,1.279-5.516C52.65,6.242,50.336,2.611,45.533,2.611z"/>
<path fill="#E6A400" d="M45.533,16.348c-1.084-0.322-2.676,0.146-2.676,0.146c0.606,0.664,1.055,1.523,2.676,1.523
	c1.863,0,2.176-0.977,2.684-1.523C48.217,16.494,46.617,16.025,45.533,16.348z"/>
<path fill="#FFFFFF" d="M43.258,16.611c1.133,0.947,3.428,0.947,4.559,0C46.617,16.66,44.479,16.66,43.258,16.611z"/>
<path fill="#E6B045" d="M47.027,14.563c0,0.965-2.979,0.965-2.979,0C44.049,14.338,47.027,14.338,47.027,14.563z"/>
<path fill="#594640" d="M45.533,2.611c-3.301,0-5.303,1.084-6.162,0.674c0,0-0.088,0.557,0.244,0.928c0,0-0.352,0.303-0.928-0.215
	c-0.547,1.777,1.074,2.801,6.846,2.801c5.77,0,4.393-1.394,7.234,1.064C52.484,4.828,50.551,2.611,45.533,2.611z"/>
<path fill="#453631" d="M47.973,5.258c-3.172,1.17-4.334-0.938-7.332-1.143c1.426,0.664,2.119,1.709,3.291,2.449
	c-2.549-0.848-4.414-2.313-4.56-3.279c0,0-0.42,1.406,1.26,2.461c-1.611,0.145-1.943-1.738-1.943-1.738
	c-0.818,1.299-0.703,5.516,0.205,8.641c0.146-1.113-0.195-1.572,0.322-2.92c1.543-4.022,0.547-2.334,6.318-2.334
	c5.77,0,4.725-1.531,6.316,2.334c0.479,1.152,0.176,1.807,0.332,2.92C54.076,5.6,51.342,4.018,47.973,5.258z"/>
<path fill="#FFFFFF" d="M50.678,11.672c-0.645,1.68-3.262,1.436-3.729,0.254C47.311,10.041,50.326,9.885,50.678,11.672z"/>
<path fill="#FFFFFF" d="M40.387,11.672c0.645,1.68,3.262,1.436,3.73,0.254C43.756,10.041,40.748,9.885,40.387,11.672z"/>
<path fill="#C1873C" d="M50.941,9.65c-1.103-0.537-3.203-0.566-3.982-0.186c-0.166,0.068-0.058,0.586,0.088,0.537
	c1.092-0.4,2.85-0.41,3.865,0.039C51.049,10.09,51.107,9.729,50.941,9.65z"/>
<path fill="#C1873C" d="M40.123,9.65c1.104-0.537,3.203-0.566,3.984-0.186c0.166,0.068,0.059,0.586-0.078,0.537
	c-1.094-0.4-2.852-0.41-3.877,0.039C40.016,10.09,39.957,9.729,40.123,9.65z"/>
<path fill="#613F34" d="M47.611,11.496c0,1.475,2.129,1.475,2.129,0C49.74,10.129,47.611,10.129,47.611,11.496z"/>
<path fill="#7D5037" d="M47.816,11.965c0,0.85,1.719,0.85,1.719,0C49.535,11.184,47.816,11.184,47.816,11.965z"/>
<path fill="#1A1626" d="M48.236,11.516c0,0.615,0.879,0.615,0.879,0C49.115,10.949,48.236,10.949,48.236,11.516z"/>
<path fill="#AB968C" d="M47.934,11.34c0,0.313,0.439,0.313,0.439,0C48.373,11.057,47.934,11.057,47.934,11.34z"/>
<path fill="#613F34" d="M41.324,11.496c0,1.475,2.129,1.475,2.129,0C43.453,10.129,41.324,10.129,41.324,11.496z"/>
<path fill="#7D5037" d="M41.539,11.965c0,0.84,1.709,0.84,1.709,0C43.248,11.184,41.539,11.184,41.539,11.965z"/>
<path fill="#1A1626" d="M41.949,11.516c0,0.615,0.879,0.615,0.879,0C42.828,10.949,41.949,10.949,41.949,11.516z"/>
<path fill="#AB968C" d="M41.646,11.34c0,0.313,0.449,0.313,0.449,0C42.096,11.057,41.646,11.057,41.646,11.34z"/>
<path fill="#E6B045" d="M50.678,11.662c0-1.807-3.729-1.807-3.729,0.283C47.475,10.236,50.141,10.236,50.678,11.662z"/>
<path fill="#E6B045" d="M40.387,11.662c0-1.807,3.73-1.807,3.73,0.283C43.59,10.236,40.924,10.236,40.387,11.662z"/>
</svg>
