<?xml version="1.0" encoding="utf-8"?>
<!-- Generator: Adobe Illustrator 15.0.0, SVG Export Plug-In . SVG Version: 6.00 Build 0)  -->
<!DOCTYPE svg PUBLIC "-//W3C//DTD SVG 1.1//EN" "http://www.w3.org/Graphics/SVG/1.1/DTD/svg11.dtd" [
	<!ENTITY ns_flows "http://ns.adobe.com/Flows/1.0/">
	<!ENTITY ns_extend "http://ns.adobe.com/Extensibility/1.0/">
	<!ENTITY ns_ai "http://ns.adobe.com/AdobeIllustrator/10.0/">
	<!ENTITY ns_graphs "http://ns.adobe.com/Graphs/1.0/">
]>
<svg version="1.1" id="Layer_1" xmlns:x="&ns_extend;" xmlns:i="&ns_ai;" xmlns:graph="&ns_graphs;"
	 xmlns="http://www.w3.org/2000/svg" xmlns:xlink="http://www.w3.org/1999/xlink" xmlns:a="http://ns.adobe.com/AdobeSVGViewerExtensions/3.0/"
	 x="0px" y="0px" width="64px" height="64px" viewBox="0 0 64 64" enable-background="new 0 0 64 64" xml:space="preserve">
<path fill="#3B2C29" d="M10.218,9.117c-5.445,23.344-4.943,22.848,6.518,22.848C10.394,27.529,22.542,8.801,10.218,9.117z"/>
<path fill="#453631" d="M8.255,8.756C4.281,26.492,7.71,31.047,10.753,31.965h3.49C6.08,26.217,18.839,8.408,8.255,8.756z"/>
<path fill="#3B2C29" d="M26.24,9.115c5.447,23.346,4.947,22.846-6.514,22.846C25.556,28.404,13.916,8.799,26.24,9.115z"/>
<path fill="#453631" d="M28.207,8.756c5.804,16.135-0.016,22.457-2.5,23.205h-3.49C30.378,26.686,17.621,8.406,28.207,8.756z"/>
<path fill="#594640" d="M29.171,17.428c1.682,4.102,0.018,12.52-3.465,14.537c3.859,0,6.209-5.34,7.357-12.682
	C34.493,10.109,26.171,10.105,29.171,17.428z"/>
<path fill="#594640" d="M3.828,20.986c1.406,6.623,3.135,10.979,6.926,10.979c-4.223-4.371-3.727-13.586-2.527-15.879
	C14.347,12.447,1.451,9.779,3.828,20.986z"/>
<path fill="#8E3ED6" d="M27.745,32.738c-7.695-5.117-13.979-4.509-19.829,0.491C5.504,35.29,6.23,43.544,7.534,49.775h2.338V62
	h20.789L31,45.775C30.692,40.479,30.188,34.361,27.745,32.738z"/>
<polygon fill="#732EB0" points="14.321,51.074 12.657,51.074 12.127,39.477 "/>
<path fill="#7AB51D" d="M38.582,32.738c7.695-5.117,13.979-4.509,19.829,0.491c2.411,2.061,1.686,10.314,0.382,16.546h-2.338V62
	H35.666l-0.34-16.225C35.635,40.479,36.139,34.361,38.582,32.738z"/>
<polygon fill="#529320" points="52.006,51.074 53.67,51.074 54.199,39.477 "/>
<path fill="#E6B045" d="M14.298,29.674c0-0.723,0-3.932,0-3.932h8c0,0,0,3.16,0,3.932C22.298,33.904,14.298,33.904,14.298,29.674z"
	/>
<path fill="#FFCC66" d="M18.296,3.506c-7.256,0-10.752,5.902-10.314,13.492c0.09,1.525,0.516,3.725,1.037,5.611
	c1.092,3.918,6.834,7.865,9.277,7.865c2.445,0,8.188-3.947,9.277-7.865c0.523-1.887,0.947-4.086,1.039-5.611
	C29.048,9.408,25.552,3.506,18.296,3.506z"/>
<path fill="#D47706" d="M18.298,24.213c-1.766-0.773-1.777-0.029-4.502,0.154c1.023,1.158,1.775,2.648,4.5,2.648
	c3.127,0,3.654-1.693,4.502-2.648C20.074,24.184,20.062,23.439,18.298,24.213z"/>
<path fill="#FFFFFF" d="M14.617,24.654c1.777,1.848,5.609,1.824,7.361,0C19.246,24.949,17.351,24.949,14.617,24.654z"/>
<path fill="#594640" d="M26.292,14.24c-1.635-0.973-4.568-1.092-5.727-0.428c-0.248,0.133-0.18,0.838,0.033,0.748
	c1.654-0.688,4.176-0.723,5.729,0.074C26.537,14.74,26.541,14.383,26.292,14.24z"/>
<path fill="#594640" d="M10.3,14.24c1.633-0.973,4.568-1.092,5.73-0.428c0.248,0.133,0.18,0.838-0.035,0.748
	c-1.654-0.688-4.174-0.723-5.729,0.074C10.058,14.74,10.056,14.383,10.3,14.24z"/>
<path fill="#E6B045" d="M20.548,21.566c0,1.461-4.502,1.461-4.502,0C16.046,21.23,20.548,21.23,20.548,21.566z"/>
<path fill="#FFFFFF" d="M26.136,17.205c-0.971,2.533-4.914,2.162-5.637,0.389C21.046,14.742,25.603,14.498,26.136,17.205z"/>
<path fill="#613F34" d="M21.49,16.93c0,2.244,3.248,2.244,3.248,0C24.738,14.844,21.49,14.844,21.49,16.93z"/>
<path fill="#7D5037" d="M21.81,17.648c0,1.283,2.607,1.283,2.607,0C24.417,16.451,21.81,16.451,21.81,17.648z"/>
<path fill="#1A1626" d="M22.439,16.963c0,0.934,1.35,0.934,1.35,0C23.789,16.098,22.439,16.098,22.439,16.963z"/>
<path fill="#AB968C" d="M21.976,16.691c0,0.471,0.684,0.471,0.684,0C22.66,16.256,21.976,16.256,21.976,16.691z"/>
<path fill="#45332C" d="M26.136,17.186c0-2.723-5.637-2.723-5.637,0.432C21.304,15.029,25.332,15.029,26.136,17.186z"/>
<path fill="#FFFFFF" d="M10.46,17.205c0.969,2.533,4.912,2.164,5.635,0.389C15.55,14.742,10.992,14.498,10.46,17.205z"/>
<path fill="#613F34" d="M11.857,16.932c0,2.246,3.248,2.246,3.248,0C15.105,14.85,11.857,14.85,11.857,16.932z"/>
<path fill="#7D5037" d="M12.177,17.65c0,1.285,2.607,1.285,2.607,0C14.785,16.457,12.177,16.457,12.177,17.65z"/>
<path fill="#1A1626" d="M12.806,16.967c0,0.932,1.35,0.932,1.35,0C14.156,16.102,12.806,16.102,12.806,16.967z"/>
<path fill="#AB968C" d="M12.345,16.695c0,0.471,0.682,0.471,0.682,0C13.027,16.26,12.345,16.26,12.345,16.695z"/>
<path fill="#45332C" d="M10.46,17.186c0-2.723,5.635-2.723,5.635,0.43C15.291,15.027,11.263,15.027,10.46,17.186z"/>
<path fill="#594640" d="M26.406,4.563c-5.09,5.207-0.234,5.543,2.766,12.865c1.682,4.102,2.744,9.197,3.892,1.855
	C34.493,10.109,28.99,3.795,26.406,4.563z"/>
<path fill="#594640" d="M13.916,2.568C7.464,4.084,1.451,9.779,3.828,20.986c1.406,6.623,3.199-2.607,4.398-4.9
	c6.121-3.639,16.588-6.393,18.18-11.523C27.212,3.379,20.371,0.879,13.916,2.568z"/>
<path fill="#453631" d="M8.974,10.732c2.729-0.553,15.779-0.814,17.432-6.17C23.32,7.018,20.126,7.688,8.974,10.732z"/>
<path fill="#453631" d="M4.267,19.252c4.578-6.104,19.574-5.43,22.139-14.689C21.427,12.334,5.519,13.387,4.267,19.252z"/>
<path fill="#453631" d="M24.896,5.832c-1.182,1.859,2.922-0.873,7.348,11.104C31.154,9.934,27.417,5.113,24.896,5.832z"/>
<path fill="#E6B045" d="M52.505,29.674c0-0.723,0-3.932,0-3.932h-8.418c0,0,0,3.16,0,3.932
	C44.087,33.904,52.505,33.904,52.505,29.674z"/>
<path fill="#E6B045" d="M37.585,14.672c-3.584-0.645-0.785,9.361,2.018,6.602C40.903,19.992,39.259,14.975,37.585,14.672z"/>
<path fill="#E6B045" d="M59.011,14.672c-1.676,0.303-3.32,5.32-2.018,6.602C59.798,24.033,62.591,14.027,59.011,14.672z"/>
<path fill="#FFCC66" d="M48.298,2.941c-7.408,0-10.979,5.598-10.531,13.381c0.09,1.566,1.063,6.674,1.979,8.506
	c0.939,1.873,4.08,4.764,6.006,5.361c1.215,0.379,3.877,0.379,5.094,0c1.922-0.598,5.066-3.488,6.002-5.361
	c0.92-1.832,1.891-6.939,1.98-8.506C59.274,8.539,55.704,2.941,48.298,2.941z"/>
<path fill="#E6A400" d="M48.298,24.131c-1.668-0.49-4.135,0.232-4.135,0.232c0.939,1.023,1.629,2.348,4.135,2.348
	c2.869,0,3.359-1.504,4.135-2.348C52.433,24.363,49.962,23.639,48.298,24.131z"/>
<path fill="#FFFFFF" d="M44.792,24.535c1.748,1.463,5.275,1.473,7.031,0C49.962,24.615,46.667,24.615,44.792,24.535z"/>
<path fill="#E6B045" d="M50.597,21.379c0,1.492-4.596,1.492-4.596,0C46.001,21.037,50.597,21.037,50.597,21.379z"/>
<path fill="#594640" d="M48.298,2.941c-5.096,0-8.176,1.68-9.504,1.035c0,0-0.145,0.867,0.375,1.434c0,0-0.547,0.475-1.434-0.326
	C36.89,7.822,39.397,9.41,48.298,9.41s6.773-2.166,11.15,1.637C59.021,6.359,56.038,2.941,48.298,2.941z"/>
<path fill="#453631" d="M52.065,7.025c-4.9,1.809-6.691-1.453-11.314-1.768c2.199,1.037,3.273,2.635,5.078,3.785
	c-3.932-1.313-6.814-3.574-7.033-5.059c0,0-0.656,2.168,1.938,3.789c-2.48,0.229-2.996-2.682-2.996-2.682
	c-1.258,2.016-1.084,8.514,0.311,13.338c0.232-1.723-0.297-2.434,0.5-4.506c2.383-6.199,0.85-3.598,9.75-3.598
	s7.295-2.371,9.75,3.598c0.732,1.777,0.266,2.783,0.5,4.506C61.476,7.553,57.265,5.109,52.065,7.025z"/>
<path fill="#FFFFFF" d="M56.228,16.926c-0.99,2.588-5.018,2.207-5.754,0.395C51.034,14.412,55.685,14.164,56.228,16.926z"/>
<path fill="#FFFFFF" d="M40.366,16.926c0.99,2.588,5.016,2.207,5.754,0.395C45.562,14.41,40.909,14.162,40.366,16.926z"/>
<path fill="#C1873C" d="M56.64,13.809c-1.695-0.84-4.936-0.881-6.146-0.295c-0.258,0.113-0.086,0.908,0.133,0.834
	c1.684-0.625,4.398-0.639,5.973,0.053C56.81,14.488,56.896,13.926,56.64,13.809z"/>
<path fill="#C1873C" d="M39.956,13.809c1.691-0.84,4.936-0.881,6.143-0.295c0.26,0.113,0.088,0.908-0.129,0.834
	c-1.686-0.625-4.398-0.639-5.975,0.053C39.784,14.488,39.7,13.926,39.956,13.809z"/>
<path fill="#613F34" d="M51.501,16.648c0,2.271,3.289,2.271,3.289,0C54.79,14.541,51.501,14.541,51.501,16.648z"/>
<path fill="#7D5037" d="M51.825,17.375c0,1.305,2.641,1.305,2.641,0C54.466,16.166,51.825,16.166,51.825,17.375z"/>
<path fill="#1A1626" d="M52.462,16.686c0,0.941,1.367,0.941,1.367,0C53.829,15.809,52.462,15.809,52.462,16.686z"/>
<path fill="#AB968C" d="M51.997,16.41c0,0.475,0.689,0.475,0.689,0C52.687,15.967,51.997,15.967,51.997,16.41z"/>
<path fill="#613F34" d="M41.804,16.648c0,2.271,3.289,2.271,3.289,0C45.093,14.541,41.804,14.541,41.804,16.648z"/>
<path fill="#7D5037" d="M42.13,17.375c0,1.301,2.639,1.301,2.639,0C44.769,16.166,42.13,16.166,42.13,17.375z"/>
<path fill="#1A1626" d="M42.767,16.686c0,0.941,1.365,0.941,1.365,0C44.132,15.809,42.767,15.809,42.767,16.686z"/>
<path fill="#AB968C" d="M42.3,16.408c0,0.477,0.689,0.477,0.689,0C42.989,15.967,42.3,15.967,42.3,16.408z"/>
<path fill="#E6B045" d="M56.228,16.904c0-2.779-5.754-2.779-5.754,0.441C51.296,14.705,55.405,14.705,56.228,16.904z"/>
<path fill="#E6B045" d="M40.366,16.904c0-2.779,5.754-2.779,5.754,0.439C45.298,14.703,41.187,14.703,40.366,16.904z"/>
<path fill="#E32B56" d="M40.876,54.669c-0.982-0.688-5.299-2.493-5.299-2.493h-4.796c0,0-4.318,1.81-5.307,2.494
	C23.818,55.813,23.267,62,23.267,62H43.06C43.06,62,42.513,55.811,40.876,54.669z"/>
<path fill="#E6B045" d="M36.087,52.839c0-0.538,0-2.925,0-2.925h-5.849c0,0,0,2.351,0,2.925
	C30.238,55.205,36.087,55.205,36.087,52.839z"/>
<path fill="#594640" d="M25.658,43.937c-7.076,4.172-0.855,7.97-2.869,9.768C26.703,56.13,36.282,51.95,25.658,43.937z"/>
<path fill="#453631" d="M23.544,45.521c1.736,6.659,5.311,6.89,5.012,8.095C31.878,51.876,31.91,46.264,23.544,45.521z"/>
<path fill="#594640" d="M40.669,43.937c7.076,4.172,0.855,7.97,2.871,9.768C39.628,56.13,30.046,51.95,40.669,43.937z"/>
<path fill="#453631" d="M42.782,45.521c-1.734,6.659-5.311,6.89-5.01,8.095C34.45,51.876,34.417,46.264,42.782,45.521z"/>
<path fill="#594640" d="M23.486,43.769h19.347C45.649,28.646,20.669,28.646,23.486,43.769z"/>
<path fill="#453631" d="M23.46,43.582c0,0,11.015,4.105,18.652-0.651c-1.543,0.291-4.051-5.605-15.775-6.047
	C25.908,43.582,23.847,41.764,23.46,43.582z"/>
<path fill="#CFD8DD" d="M41.925,42.689c0.822-11.314-18.359-11.314-17.535,0C25.105,33.188,41.208,33.188,41.925,42.689z"/>
<path fill="#FFFFFF" d="M41.925,42.323c0.822-11.313-18.359-11.313-17.535,0C25.105,32.821,41.208,32.821,41.925,42.323z"/>
<path fill="#E6B045" d="M24.593,42.767c-3.336-0.506-1.162,7.364,1.451,5.193C27.257,46.953,26.158,43.005,24.593,42.767z"/>
<path fill="#E6B045" d="M41.722,42.767c-1.561,0.238-2.66,4.187-1.451,5.193C42.886,50.129,45.058,42.261,41.722,42.767z"/>
<path fill="#FFCC66" d="M41.612,42.785c-3.195-0.91-7.289-5.256-15.07-4.729c0.137,1.708-0.313,3.646-1.814,4.735
	c0,0-0.006,1.535,0.543,4.345c0.895,4.602,4.617,6.407,7.886,6.407c3.273,0,6.994-1.806,7.891-6.407
	C41.595,44.324,41.612,42.785,41.612,42.785z"/>
<path fill="#FFFFFF" d="M39.407,44.294c-0.777,2.036-3.943,1.738-4.525,0.313C35.323,42.318,38.979,42.123,39.407,44.294z"/>
<path fill="#613F34" d="M35.69,44.078c0,1.786,2.586,1.786,2.586,0C38.276,42.42,35.69,42.42,35.69,44.078z"/>
<path fill="#7D5037" d="M35.946,44.648c0,1.024,2.074,1.024,2.074,0C38.021,43.698,35.946,43.698,35.946,44.648z"/>
<path fill="#1A1626" d="M36.444,44.105c0,0.742,1.076,0.742,1.076,0C37.521,43.418,36.444,43.418,36.444,44.105z"/>
<path fill="#AB968C" d="M36.081,43.889c0,0.376,0.541,0.376,0.541,0C36.622,43.541,36.081,43.541,36.081,43.889z"/>
<path fill="#E6B045" d="M39.407,44.279c0-2.186-4.525-2.186-4.525,0.346C35.528,42.549,38.761,42.549,39.407,44.279z"/>
<path fill="#FFFFFF" d="M26.935,44.294c0.775,2.036,3.943,1.738,4.525,0.313C31.021,42.316,27.365,42.121,26.935,44.294z"/>
<path fill="#613F34" d="M28.068,44.078c0,1.784,2.586,1.784,2.586,0C30.654,42.42,28.068,42.42,28.068,44.078z"/>
<path fill="#7D5037" d="M28.324,44.648c0,1.022,2.072,1.022,2.072,0C30.396,43.698,28.324,43.698,28.324,44.648z"/>
<path fill="#1A1626" d="M28.822,44.105c0,0.74,1.074,0.74,1.074,0C29.896,43.418,28.822,43.418,28.822,44.105z"/>
<path fill="#AB968C" d="M28.457,43.889c0,0.374,0.543,0.374,0.543,0C29,43.541,28.457,43.541,28.457,43.889z"/>
<path fill="#E6B045" d="M26.935,44.279c0-2.186,4.525-2.186,4.525,0.346C30.816,42.547,27.58,42.547,26.935,44.279z"/>
<path fill="#C1873C" d="M39.825,42.063c-1.35-0.672-3.938-0.703-4.9-0.236c-0.207,0.091-0.07,0.726,0.105,0.666
	c1.34-0.498,3.504-0.509,4.764,0.043C39.96,42.606,40.03,42.156,39.825,42.063z"/>
<path fill="#C1873C" d="M26.515,42.063c1.354-0.672,3.939-0.703,4.904-0.236c0.207,0.091,0.068,0.726-0.104,0.666
	c-1.344-0.498-3.51-0.509-4.768,0.043C26.38,42.606,26.312,42.156,26.515,42.063z"/>
<path fill="#E6A400" d="M33.171,49.729c-1.328-0.391-3.298,0.185-3.298,0.185c0.75,0.814,1.303,1.875,3.298,1.875
	c2.289,0,2.682-1.201,3.299-1.875C36.47,49.914,34.497,49.337,33.171,49.729z"/>
<path fill="#FFFFFF" d="M30.375,50.052c1.395,1.169,4.21,1.175,5.611,0C34.497,50.115,31.873,50.115,30.375,50.052z"/>
<path fill="#E6B045" d="M35.005,47.979c0,1.19-3.666,1.19-3.666,0C31.339,47.706,35.005,47.706,35.005,47.979z"/>
<path fill="#FFCC66" d="M23.336,57.252c0.843,0.424,2.689-2.339,1.822-2.713c-7.489-3.228-8.343-4.729-12.667-6.762
	c-1.697-0.798-4.958,1.998-4.958,1.998C8.627,53.75,13.419,52.264,23.336,57.252z"/>
<path fill="#FFCC66" d="M26.862,53.404c1.666-0.393,4.768,1.096,3.01,1.477c0.396,0.463,0.348,1.004-0.982,0.637
	c0.512,0.459-0.336,0.818-1.014,0.654c0.201,1.16-2.219,0.477-2.941,0.84c-1.037,0.52-1.26,0.83-1.523,0.678
	C21.481,56.58,24.096,54.051,26.862,53.404z"/>
<path fill="#FFCC66" d="M42.99,57.252c-0.843,0.424-2.689-2.339-1.822-2.713c7.489-3.228,8.343-4.729,12.667-6.762
	c1.697-0.798,4.958,1.998,4.958,1.998C57.699,53.75,52.907,52.264,42.99,57.252z"/>
<path fill="#FFCC66" d="M39.465,53.404c-1.666-0.393-4.768,1.096-3.01,1.477c-0.396,0.463-0.348,1.004,0.982,0.637
	c-0.512,0.459,0.336,0.818,1.014,0.654c-0.201,1.16,2.219,0.477,2.941,0.84c1.037,0.52,1.26,0.83,1.523,0.678
	C44.846,56.58,42.23,54.051,39.465,53.404z"/>
</svg>
