<?xml version="1.0" encoding="utf-8"?>
<!-- Generator: Adobe Illustrator 15.0.0, SVG Export Plug-In . SVG Version: 6.00 Build 0)  -->
<!DOCTYPE svg PUBLIC "-//W3C//DTD SVG 1.1//EN" "http://www.w3.org/Graphics/SVG/1.1/DTD/svg11.dtd" [
	<!ENTITY ns_flows "http://ns.adobe.com/Flows/1.0/">
	<!ENTITY ns_extend "http://ns.adobe.com/Extensibility/1.0/">
	<!ENTITY ns_ai "http://ns.adobe.com/AdobeIllustrator/10.0/">
	<!ENTITY ns_graphs "http://ns.adobe.com/Graphs/1.0/">
]>
<svg version="1.1" id="Layer_1" xmlns:x="&ns_extend;" xmlns:i="&ns_ai;" xmlns:graph="&ns_graphs;"
	 xmlns="http://www.w3.org/2000/svg" xmlns:xlink="http://www.w3.org/1999/xlink" xmlns:a="http://ns.adobe.com/AdobeSVGViewerExtensions/3.0/"
	 x="0px" y="0px" width="64px" height="64px" viewBox="0 0 64 64" enable-background="new 0 0 64 64" xml:space="preserve">
<path fill="#3B2C29" d="M40.465,6.614c-3.536,15.134-3.204,14.812,4.227,14.812C40.582,18.546,48.451,6.409,40.465,6.614z"/>
<path fill="#453631" d="M39.195,6.38c-2.579,11.492-0.36,14.45,1.609,15.046h2.266C37.779,17.696,46.048,6.155,39.195,6.38z"/>
<path fill="#3B2C29" d="M50.854,6.614c3.525,15.134,3.201,14.812-4.229,14.812C50.404,19.112,42.855,6.409,50.854,6.614z"/>
<path fill="#453631" d="M52.123,6.38c3.768,10.457-0.01,14.558-1.621,15.046h-2.255C53.527,17.999,45.258,6.155,52.123,6.38z"/>
<path fill="#594640" d="M52.748,12.004c1.092,2.656,0.01,8.113-2.246,9.422c2.5,0,4.033-3.466,4.775-8.221
	C56.203,7.259,50.805,7.259,52.748,12.004z"/>
<path fill="#594640" d="M36.323,14.309c0.909,4.296,2.032,7.117,4.481,7.117c-2.732-2.831-2.41-8.807-1.629-10.291
	C43.141,8.772,34.78,7.044,36.323,14.309z"/>
<path fill="#FFCC66" d="M47.808,20.65v-2.257h-4.211c0,0,0,2.257,0,2.258c-0.601,0.164-2.552,0.487-2.552,0.487
	s2.419,6.98,4.658,6.98c2.241,0,4.66-6.98,4.66-6.98S48.409,20.815,47.808,20.65z"/>
<path fill="#E6B045" d="M43.297,19.371c2.184,2.249,2.621,2.247,4.805-0.001L43.297,19.371z"/>
<path fill="#FFCC66" d="M41.438,59.513c0-5.148-0.98-8.529-0.98-15.293h4.157c0,6.957-0.609,9.539-0.214,15.186L41.438,59.513z"/>
<path fill="#302C3B" d="M44.311,57.76c0,1.446-2.912,1.591-2.912,0c0,0-1.704,3.075-0.866,4.24h4.715
	C46.084,60.841,44.311,57.76,44.311,57.76z"/>
<path fill="#FFCC66" d="M50.037,59.513c0-5.148,0.922-8.529,0.922-15.293h-3.924c0,6.957,0.575,9.539,0.202,15.186L50.037,59.513z"
	/>
<path fill="#302C3B" d="M47.321,57.76c0,1.446,2.752,1.591,2.752,0c0,0,1.605,3.075,0.815,4.24h-4.452
	C45.65,60.841,47.321,57.76,47.321,57.76z"/>
<path fill="#FFCC66" d="M51.505,37.063c2.947-1.988,4.765-4.828,4.463-5.614c-1.5-3.905-2.73-9.224-4.717-10.027l-1.405,4.304
	c0.916-0.354,2.466,4.054,3.496,5.481c0.151,0.21-0.468,2.097-2.877,4.306L51.505,37.063z"/>
<path fill="#FFCC66" d="M30.181,41.701c0.57-3.415,3.682-6.94,5.653-11.273c1.727-3.795,2.306-8.203,4.292-9.007l1.405,4.304
	c-0.916-0.354-3.563,5.018-4.071,6.881c-1.014,3.715-2.994,4.433-3.605,8.157c-0.593,3.613-1.497,1.057-1.513-0.226
	C31.563,42.708,29.874,43.538,30.181,41.701z"/>
<path fill="#FFCC66" d="M45.696,2.973c-4.696,0-6.97,3.827-6.686,8.748c0.059,0.986,0.341,2.412,0.673,3.642
	c0.711,2.539,4.432,5.097,6.013,5.097c1.593,0,5.313-2.558,6.017-5.097c0.342-1.229,0.615-2.655,0.674-3.642
	C52.67,6.8,50.404,2.973,45.696,2.973z"/>
<path fill="#D47706" d="M45.696,16.397c-1.142-0.498-1.151-0.02-2.919,0.098c0.664,0.752,1.152,1.719,2.919,1.719
	c2.032,0,2.375-1.094,2.921-1.719C46.849,16.378,46.84,15.899,45.696,16.397z"/>
<path fill="#FFFFFF" d="M43.316,16.681c1.15,1.201,3.63,1.191,4.774,0C46.313,16.876,45.082,16.876,43.316,16.681z"/>
<path fill="#594640" d="M50.883,9.935c-1.055-0.635-2.959-0.703-3.711-0.273c-0.156,0.078-0.117,0.537,0.02,0.479
	c1.075-0.439,2.705-0.469,3.711,0.049C51.039,10.257,51.049,10.032,50.883,9.935z"/>
<path fill="#594640" d="M40.512,9.935c1.066-0.635,2.969-0.703,3.721-0.273c0.156,0.078,0.117,0.537-0.029,0.479
	C43.141,9.7,41.5,9.671,40.492,10.188C40.355,10.257,40.355,10.032,40.512,9.935z"/>
<path fill="#E6B045" d="M47.162,14.68c0,0.946-2.92,0.946-2.92,0C44.242,14.465,47.162,14.465,47.162,14.68z"/>
<path fill="#FFFFFF" d="M50.785,11.857c-0.635,1.641-3.184,1.396-3.652,0.254C47.484,10.257,50.434,10.101,50.785,11.857z"/>
<path fill="#613F34" d="M47.768,11.682c0,1.455,2.109,1.455,2.109,0C49.877,10.326,47.768,10.326,47.768,11.682z"/>
<path fill="#7D5037" d="M47.974,12.141c0,0.84,1.698,0.84,1.698,0C49.672,11.369,47.974,11.369,47.974,12.141z"/>
<path fill="#1A1626" d="M48.384,11.701c0,0.605,0.878,0.605,0.878,0C49.262,11.135,48.384,11.135,48.384,11.701z"/>
<path fill="#AB968C" d="M48.091,11.525c0,0.303,0.438,0.303,0.438,0C48.529,11.242,48.091,11.242,48.091,11.525z"/>
<path fill="#45332C" d="M50.785,11.848c0-1.767-3.652-1.767-3.652,0.273C47.65,10.443,50.258,10.443,50.785,11.848z"/>
<path fill="#FFFFFF" d="M40.621,11.857c0.625,1.641,3.184,1.406,3.65,0.254C43.92,10.257,40.961,10.101,40.621,11.857z"/>
<path fill="#613F34" d="M41.527,11.682c0,1.455,2.102,1.455,2.102,0C43.629,10.326,41.527,10.326,41.527,11.682z"/>
<path fill="#7D5037" d="M41.734,12.141c0,0.84,1.688,0.84,1.688,0C43.422,11.369,41.734,11.369,41.734,12.141z"/>
<path fill="#1A1626" d="M42.145,11.701c0,0.605,0.867,0.605,0.867,0C43.012,11.145,42.145,11.145,42.145,11.701z"/>
<path fill="#AB968C" d="M41.84,11.525c0,0.303,0.441,0.303,0.441,0C42.281,11.242,41.84,11.242,41.84,11.525z"/>
<path fill="#45332C" d="M40.621,11.848c0-1.767,3.65-1.767,3.65,0.273C43.754,10.443,41.137,10.443,40.621,11.848z"/>
<path fill="#594640" d="M50.961,3.666c-3.301,3.368-0.156,3.593,1.787,8.338c1.092,2.656,1.787,5.956,2.529,1.201
	C56.203,7.259,52.631,3.168,50.961,3.666z"/>
<path fill="#594640" d="M42.855,2.367c-4.177,0.986-8.075,4.677-6.532,11.941c0.909,4.296,2.071-1.689,2.853-3.174
	c3.965-2.362,10.75-4.149,11.785-7.469C51.479,2.895,47.044,1.273,42.855,2.367z"/>
<path fill="#453631" d="M39.652,7.659c1.77-0.361,10.234-0.527,11.309-3.993C48.959,5.248,46.888,5.688,39.652,7.659z"/>
<path fill="#453631" d="M36.607,13.186c2.967-3.954,12.684-3.524,14.354-9.52C47.729,8.694,37.417,9.378,36.607,13.186z"/>
<path fill="#453631" d="M49.975,4.486c-0.762,1.201,1.895-0.566,4.764,7.195C54.035,7.142,51.615,4.018,49.975,4.486z"/>
<path fill="#8E3ED6" d="M37.14,46.999c0-8.791,4.389-13.632,4.389-18.382c-1.905-1.541,0-3.315-1.588-7.327l1.192-0.358
	c1.551,3.554,7.558,3.557,9.109,0l1.194,0.358c-1.588,4.012,0.317,5.786-1.588,7.327c0,4.75,4.389,9.591,4.389,18.382H37.14z"/>
<path fill="#5D1E96" d="M45.672,44.836c4.437,0,7.564-0.832,8.361-1.068c0.127,1.018,0.204,2.09,0.204,3.231
	c0,0-3.399,1.131-8.565,1.131c-5.087,0-8.532-1.131-8.532-1.131c0-1.142,0.075-2.214,0.204-3.231
	C38.145,44.003,41.298,44.836,45.672,44.836z"/>
<path fill="#3B2C29" d="M13.059,6.614c-3.536,15.134-3.204,14.812,4.227,14.812C13.176,18.546,21.045,6.409,13.059,6.614z"/>
<path fill="#453631" d="M11.789,6.38c-2.579,11.492-0.36,14.45,1.609,15.046h2.266C10.373,17.696,18.642,6.155,11.789,6.38z"/>
<path fill="#3B2C29" d="M23.447,6.614c3.525,15.134,3.201,14.812-4.229,14.812C22.998,19.112,15.449,6.409,23.447,6.614z"/>
<path fill="#453631" d="M24.717,6.38c3.768,10.457-0.01,14.558-1.621,15.046h-2.255C26.121,17.999,17.852,6.155,24.717,6.38z"/>
<path fill="#594640" d="M25.342,12.004c1.092,2.656,0.01,8.113-2.246,9.422c2.5,0,4.033-3.466,4.775-8.221
	C28.797,7.259,23.398,7.259,25.342,12.004z"/>
<path fill="#594640" d="M8.917,14.309c0.909,4.296,2.032,7.117,4.481,7.117c-2.732-2.831-2.41-8.807-1.629-10.291
	C15.734,8.772,7.374,7.044,8.917,14.309z"/>
<path fill="#FFCC66" d="M16.192,20.65v-2.257h4.211c0,0,0,2.257,0,2.258c0.601,0.164,2.552,0.487,2.552,0.487
	s-2.419,6.98-4.658,6.98c-2.241,0-4.66-6.98-4.66-6.98S15.591,20.815,16.192,20.65z"/>
<path fill="#E6B045" d="M20.703,19.371c-2.184,2.249-2.621,2.247-4.805-0.001L20.703,19.371z"/>
<path fill="#FFCC66" d="M22.563,59.513c0-5.148,0.98-8.529,0.98-15.293h-4.157c0,6.957,0.609,9.539,0.214,15.186L22.563,59.513z"/>
<path fill="#302C3B" d="M19.689,57.76c0,1.446,2.912,1.591,2.912,0c0,0,1.704,3.075,0.866,4.24h-4.715
	C17.916,60.841,19.689,57.76,19.689,57.76z"/>
<path fill="#FFCC66" d="M13.963,59.513c0-5.148-0.922-8.529-0.922-15.293h3.924c0,6.957-0.575,9.539-0.202,15.186L13.963,59.513z"/>
<path fill="#302C3B" d="M16.679,57.76c0,1.446-2.752,1.591-2.752,0c0,0-1.605,3.075-0.815,4.24h4.452
	C18.35,60.841,16.679,57.76,16.679,57.76z"/>
<path fill="#FFCC66" d="M12.495,37.063c-2.947-1.988-4.765-4.828-4.463-5.614c1.5-3.905,2.73-9.224,4.717-10.027l1.405,4.304
	c-0.916-0.354-2.466,4.054-3.496,5.481c-0.151,0.21,0.468,2.097,2.877,4.306L12.495,37.063z"/>
<path fill="#FFCC66" d="M33.683,41.489c-2.739-4.232-3.545-6.729-5.517-11.062c-1.727-3.795-2.306-8.203-4.292-9.007l-1.405,4.304
	c0.916-0.354,3.563,5.018,4.071,6.881c1.014,3.715,2.93,4.067,3.541,7.792C30.674,44.011,33.803,44.008,33.683,41.489z"/>
<path fill="#FFCC66" d="M18.29,2.973c-4.696,0-6.97,3.827-6.686,8.748c0.059,0.986,0.341,2.412,0.673,3.642
	c0.711,2.539,4.432,5.097,6.013,5.097c1.593,0,5.313-2.558,6.017-5.097c0.342-1.229,0.615-2.655,0.674-3.642
	C25.264,6.8,22.998,2.973,18.29,2.973z"/>
<path fill="#D47706" d="M18.29,16.397c-1.142-0.498-1.151-0.02-2.919,0.098c0.664,0.752,1.152,1.719,2.919,1.719
	c2.032,0,2.375-1.094,2.921-1.719C19.442,16.378,19.434,15.899,18.29,16.397z"/>
<path fill="#FFFFFF" d="M15.91,16.681c1.15,1.201,3.63,1.191,4.774,0C18.906,16.876,17.676,16.876,15.91,16.681z"/>
<path fill="#594640" d="M23.477,9.935c-1.055-0.635-2.959-0.703-3.711-0.273c-0.156,0.078-0.117,0.537,0.02,0.479
	c1.075-0.439,2.705-0.469,3.711,0.049C23.633,10.257,23.643,10.032,23.477,9.935z"/>
<path fill="#594640" d="M13.105,9.935c1.066-0.635,2.969-0.703,3.721-0.273c0.156,0.078,0.117,0.537-0.029,0.479
	c-1.063-0.439-2.703-0.469-3.711,0.049C12.949,10.257,12.949,10.032,13.105,9.935z"/>
<path fill="#E6B045" d="M19.756,14.68c0,0.946-2.92,0.946-2.92,0C16.836,14.465,19.756,14.465,19.756,14.68z"/>
<path fill="#FFFFFF" d="M23.379,11.857c-0.635,1.641-3.184,1.396-3.652,0.254C20.078,10.257,23.027,10.101,23.379,11.857z"/>
<path fill="#613F34" d="M20.361,11.682c0,1.455,2.109,1.455,2.109,0C22.471,10.326,20.361,10.326,20.361,11.682z"/>
<path fill="#7D5037" d="M20.567,12.141c0,0.84,1.698,0.84,1.698,0C22.266,11.369,20.567,11.369,20.567,12.141z"/>
<path fill="#1A1626" d="M20.978,11.701c0,0.605,0.878,0.605,0.878,0C21.855,11.135,20.978,11.135,20.978,11.701z"/>
<path fill="#AB968C" d="M20.685,11.525c0,0.303,0.438,0.303,0.438,0C21.123,11.242,20.685,11.242,20.685,11.525z"/>
<path fill="#45332C" d="M23.379,11.848c0-1.767-3.652-1.767-3.652,0.273C20.244,10.443,22.852,10.443,23.379,11.848z"/>
<path fill="#FFFFFF" d="M13.215,11.857c0.625,1.641,3.184,1.406,3.65,0.254C16.514,10.257,13.555,10.101,13.215,11.857z"/>
<path fill="#613F34" d="M14.121,11.682c0,1.455,2.102,1.455,2.102,0C16.223,10.326,14.121,10.326,14.121,11.682z"/>
<path fill="#7D5037" d="M14.328,12.141c0,0.84,1.688,0.84,1.688,0C16.016,11.369,14.328,11.369,14.328,12.141z"/>
<path fill="#1A1626" d="M14.738,11.701c0,0.605,0.867,0.605,0.867,0C15.605,11.145,14.738,11.145,14.738,11.701z"/>
<path fill="#AB968C" d="M14.434,11.525c0,0.303,0.441,0.303,0.441,0C14.875,11.242,14.434,11.242,14.434,11.525z"/>
<path fill="#45332C" d="M13.215,11.848c0-1.767,3.65-1.767,3.65,0.273C16.348,10.443,13.73,10.443,13.215,11.848z"/>
<path fill="#594640" d="M23.555,3.666c-3.301,3.368-0.156,3.593,1.787,8.338c1.092,2.656,1.787,5.956,2.529,1.201
	C28.797,7.259,25.225,3.168,23.555,3.666z"/>
<path fill="#594640" d="M15.449,2.367c-4.177,0.986-8.075,4.677-6.532,11.941c0.909,4.296,2.071-1.689,2.853-3.174
	c3.965-2.362,10.75-4.149,11.785-7.469C24.072,2.895,19.638,1.273,15.449,2.367z"/>
<path fill="#453631" d="M12.246,7.659c1.77-0.361,10.234-0.527,11.309-3.993C21.553,5.248,19.481,5.688,12.246,7.659z"/>
<path fill="#453631" d="M9.201,13.186c2.967-3.954,12.684-3.524,14.354-9.52C20.322,8.694,10.011,9.378,9.201,13.186z"/>
<path fill="#453631" d="M22.568,4.486c-0.762,1.201,1.895-0.566,4.764,7.195C26.629,7.142,24.209,4.018,22.568,4.486z"/>
<path fill="#8E3ED6" d="M26.86,46.999c0-8.791-4.389-13.632-4.389-18.382c1.905-1.541,0-3.315,1.588-7.327l-1.192-0.358
	c-1.551,3.554-7.558,3.557-9.109,0l-1.194,0.358c1.588,4.012-0.317,5.786,1.588,7.327c0,4.75-4.389,9.591-4.389,18.382H26.86z"/>
<path fill="#5D1E96" d="M18.328,44.836c-4.437,0-7.564-0.832-8.361-1.068c-0.127,1.018-0.204,2.09-0.204,3.231
	c0,0,3.399,1.131,8.565,1.131c5.087,0,8.532-1.131,8.532-1.131c0-1.142-0.075-2.214-0.204-3.231
	C25.855,44.003,22.702,44.836,18.328,44.836z"/>
</svg>
