<?xml version="1.0" encoding="utf-8"?>
<!-- Generator: Adobe Illustrator 19.0.0, SVG Export Plug-In . SVG Version: 6.00 Build 0)  -->
<svg version="1.1" id="Layer_1" xmlns="http://www.w3.org/2000/svg" xmlns:xlink="http://www.w3.org/1999/xlink" x="0px" y="0px"
	 width="64px" height="64px" viewBox="0 0 64 64" enable-background="new 0 0 64 64" xml:space="preserve">
<path fill="#CFD8DD" d="M57.537,52.486l-1.092-0.822c-0.064-3.563-16.264-8.25-16.264-8.25H23.818c0,0-16.197,4.688-16.262,8.25
	l-1.096,0.822C3.721,52.438,2,62,2,62h60C62,62,60.279,52.438,57.537,52.486z"/>
<path fill="#99A8AE" d="M11.797,62h-1.535c0-5.379-3.801-9.514-3.801-9.514l1.096-0.822C7.557,51.664,11.797,55.904,11.797,62z"/>
<path fill="#99A8AE" d="M52.205,62h1.533c0-5.379,3.799-9.514,3.799-9.514l-1.092-0.822C56.445,51.664,52.205,55.904,52.205,62z"/>
<polygon fill="#FFFFFF" points="19.1,56.418 19.1,62 20.422,57.572 30.781,57.572 32.104,62 32.104,56.418 "/>
<rect x="38.922" y="54.209" fill="#FFFFFF" width="6.924" height="6.637"/>
<g>
	<rect x="38.922" y="60.846" fill="#99A8AE" width="6.924" height="1.154"/>
	<rect x="40.654" y="60.846" fill="#FFE12C" width="1.154" height="1.154"/>
	<rect x="42.961" y="60.846" fill="#A6E639" width="1.154" height="1.154"/>
</g>
<rect x="39.824" y="53.559" fill="#BEC3CF" width="1.658" height="0.65"/>
<rect x="40.773" y="53.559" fill="#99A8AE" width="0.709" height="0.65"/>
<rect x="42.229" y="53.559" fill="#BEC3CF" width="0.986" height="0.65"/>
<rect x="42.846" y="53.559" fill="#99A8AE" width="0.369" height="0.65"/>
<g>
	<path fill="#BEC3CF" d="M44.691,57.488c0,3.078-4.615,3.078-4.615,0C40.076,54.412,44.691,54.412,44.691,57.488z"/>
	<path fill="#E6EBEF" d="M44.602,57.746c0,2.836-4.434,2.836-4.434,0C40.168,54.906,44.602,54.906,44.602,57.746z"/>
</g>
<path fill="#018BC9" d="M4.83,53.617c0,0-1.793,1.834-1.873,4.402c0,0.859,2.156,3.459,2.156,3.459s1.799-1.646,2.615-3.137
	C5.373,55.479,4.83,53.617,4.83,53.617z"/>
<path fill="#99A8AE" d="M47.67,42.609c-2.129,0-29.217,0-31.344,0c-2.984,0-2.607,2.113-2.607,4.226
	c0,4.756,10.385,7.047,18.281,7.047c7.896,0,18.281-2.291,18.281-7.047C50.281,44.723,50.658,42.609,47.67,42.609"/>
<path fill="#99A8AE" d="M60,29.342c0,2.148-1.74,3.887-3.887,3.887H7.887C5.74,33.229,4,31.49,4,29.342v-6.684
	c0-2.146,1.74-3.887,3.887-3.887h48.227c2.146,0,3.887,1.74,3.887,3.887V29.342z"/>
<circle fill="#302C3B" cx="32" cy="26" r="22"/>
<path fill="#FFFFFF" d="M59.25,23.375c0,1.998-3,1.998-3,0C56.25,21.375,59.25,21.375,59.25,23.375z"/>
<path fill="#FFFFFF" d="M59.25,28.625c0,2-3,2-3,0C56.25,26.627,59.25,26.627,59.25,28.625z"/>
<path fill="#FFFFFF" d="M7.75,23.375c0,1.998-3,1.998-3,0C4.75,21.375,7.75,21.375,7.75,23.375z"/>
<path fill="#FFFFFF" d="M7.75,28.625c0,2-3,2-3,0C4.75,26.627,7.75,26.627,7.75,28.625z"/>
<path fill="#755035" d="M15.679,24.737c-5.459-0.984-1.195,14.276,3.078,10.067C20.734,32.854,18.232,25.198,15.679,24.737z"/>
<path fill="#755035" d="M48.323,24.737c-2.553,0.461-5.058,8.116-3.076,10.067C49.52,39.014,53.778,23.753,48.323,24.737z"/>
<path fill="#916B50" d="M32.001,6.841c-11.287,0-16.725,8.539-16.043,20.412c0.137,2.389,1.617,10.181,3.015,12.976
	c1.431,2.858,6.216,7.268,9.148,8.18c1.852,0.576,5.906,0.576,7.758,0c2.933-0.912,7.718-5.321,9.15-8.18
	c1.397-2.795,2.878-10.587,3.014-12.976C48.726,15.38,43.287,6.841,32.001,6.841z"/>
<path fill="#664129" d="M32.001,39.163c-2.539-0.747-6.3,0.354-6.3,0.354c1.432,1.56,2.481,3.585,6.3,3.585
	c4.374,0,5.115-2.298,6.3-3.585C38.301,39.517,34.536,38.413,32.001,39.163z"/>
<path fill="#FFFFFF" d="M26.661,39.78c2.661,2.233,8.036,2.247,10.711,0C34.536,39.902,29.518,39.903,26.661,39.78z"/>
<path fill="#755035" d="M35.5,34.966c0,2.277-6.998,2.277-6.998,0C28.502,34.443,35.5,34.443,35.5,34.966z"/>
<path fill="#614036" d="M32.001,6.841c-7.765,0-12.456,2.565-14.479,1.579c0,0-0.22,1.325,0.572,2.188c0,0-0.837,0.724-2.187-0.498
	c-1.286,4.178,2.531,6.599,16.093,6.599s10.321-3.303,16.987,2.497C48.334,12.057,43.793,6.841,32.001,6.841z"/>
<path fill="#4A2E24" d="M37.743,13.073c-7.467,2.756-10.196-2.216-17.239-2.696c3.35,1.582,4.985,4.017,7.736,5.774
	c-5.988-2.005-10.382-5.452-10.716-7.717c0,0-0.999,3.307,2.953,5.777c-3.779,0.351-4.567-4.089-4.567-4.089
	c-1.913,3.074-1.648,12.988,0.477,20.344c0.354-2.625-0.452-3.71,0.761-6.874c3.632-9.453,1.294-5.483,14.855-5.483
	c13.56,0,11.111-3.62,14.853,5.483c1.117,2.715,0.407,4.249,0.763,6.874C52.076,13.879,45.665,10.149,37.743,13.073z"/>
<path fill="#FFFFFF" d="M44.084,28.171c-1.509,3.948-7.645,3.369-8.769,0.606C36.17,24.339,43.256,23.96,44.084,28.171z"/>
<path fill="#FFFFFF" d="M19.916,28.171c1.509,3.948,7.646,3.369,8.769,0.606C27.83,24.337,20.746,23.958,19.916,28.171z"/>
<path fill="#664129" d="M44.71,23.419c-2.582-1.281-7.521-1.344-9.36-0.45c-0.394,0.173-0.135,1.388,0.197,1.271
	c2.565-0.95,6.7-0.973,9.102,0.082C44.968,24.457,45.102,23.599,44.71,23.419z"/>
<path fill="#664129" d="M19.292,23.419c2.58-1.281,7.519-1.344,9.36-0.45c0.394,0.173,0.135,1.388-0.197,1.271
	c-2.569-0.95-6.7-0.973-9.103,0.082C19.033,24.457,18.9,23.599,19.292,23.419z"/>
<path fill="#613F34" d="M36.882,27.751c0,3.464,5.011,3.464,5.011,0C41.893,24.535,36.882,24.535,36.882,27.751z"/>
<path fill="#7D5037" d="M37.378,28.859c0,1.986,4.02,1.986,4.02,0C41.397,27.016,37.378,27.016,37.378,28.859z"/>
<path fill="#1A1626" d="M38.347,27.805c0,1.438,2.081,1.438,2.081,0C40.428,26.471,38.347,26.471,38.347,27.805z"/>
<path fill="#AB968C" d="M37.637,27.385c0,0.726,1.052,0.726,1.052,0C38.688,26.711,37.637,26.711,37.637,27.385z"/>
<path fill="#613F34" d="M22.108,27.75c0,3.465,5.012,3.465,5.012,0C27.12,24.534,22.108,24.534,22.108,27.75z"/>
<path fill="#7D5037" d="M22.604,28.858c0,1.986,4.02,1.986,4.02,0C26.624,27.015,22.604,27.015,22.604,28.858z"/>
<path fill="#1A1626" d="M23.574,27.805c0,1.438,2.08,1.438,2.08,0C25.654,26.47,23.574,26.47,23.574,27.805z"/>
<path fill="#AB968C" d="M22.864,27.385c0,0.726,1.049,0.726,1.049,0C23.913,26.71,22.864,26.71,22.864,27.385z"/>
<path fill="#755035" d="M44.084,28.142c0-4.239-8.769-4.239-8.769,0.671C36.568,24.784,42.831,24.784,44.084,28.142z"/>
<path fill="#755035" d="M19.916,28.142c0-4.239,8.769-4.239,8.769,0.67C27.434,24.781,21.169,24.781,19.916,28.142z"/>
<radialGradient id="SVGID_1_" cx="28.001" cy="19.1674" r="17.316" gradientTransform="matrix(1 0 0 1.5 0 -9.5837)" gradientUnits="userSpaceOnUse">
	<stop  offset="0.1879" style="stop-color:#E6EBEF"/>
	<stop  offset="0.4083" style="stop-color:#D5DDE1"/>
	<stop  offset="0.8405" style="stop-color:#AAB7BD"/>
	<stop  offset="1" style="stop-color:#99A8AE"/>
</radialGradient>
<path fill="url(#SVGID_1_)" d="M53.73,25.09c0.176-0.949,0.27-1.92,0.27-2.91c0-10.274-9.85-18.602-22-18.602S10,11.906,10,22.18
	c0,0.99,0.094,1.961,0.27,2.91C13.76,11.268,50.242,11.268,53.73,25.09z"/>
<path fill="#CFD8DD" d="M32,2C18.746,2,8,12.746,8,26s10.746,24,24,24s24-10.746,24-24S45.254,2,32,2z M32,47.5
	c-11.873,0-21.5-9.627-21.5-21.5c0-11.875,9.627-21.5,21.5-21.5c11.875,0,21.5,9.625,21.5,21.5C53.5,37.873,43.875,47.5,32,47.5z"/>
<polygon fill="#CFD8DD" points="45.518,43.906 44.809,40.83 46.871,38.811 50.715,38.811 "/>
<path fill="#302C3B" d="M38.387,43.781c-0.797,0-0.797-0.969,0-0.969c5.953,0,7.391-2.5,9.953-3.313
	c0.666-0.211,1.234,1.469,0.125,2.201C48.09,41.947,44.262,43.781,38.387,43.781z"/>
<radialGradient id="SVGID_2_" cx="24.25" cy="18.2204" r="31.0857" gradientUnits="userSpaceOnUse">
	<stop  offset="0" style="stop-color:#FFFFFF"/>
	<stop  offset="0.7879" style="stop-color:#FFFFFF;stop-opacity:0"/>
</radialGradient>
<path opacity="0.8" fill="url(#SVGID_2_)" d="M10.521,25.463c-0.016,0.34-0.025,0.681-0.025,1.024
	C10.496,38.395,20.124,47.5,32,47.5c11.876,0,21.504-9.105,21.504-21.013c0-0.344-0.01-0.685-0.025-1.024
	C49.829,12.1,14.173,12.1,10.521,25.463z"/>
</svg>
