<?xml version="1.0" encoding="utf-8"?>
<!-- Generator: Adobe Illustrator 19.0.0, SVG Export Plug-In . SVG Version: 6.00 Build 0)  -->
<svg version="1.1" id="Layer_1" xmlns="http://www.w3.org/2000/svg" xmlns:xlink="http://www.w3.org/1999/xlink" x="0px" y="0px"
	 width="64px" height="64px" viewBox="0 0 64 64" enable-background="new 0 0 64 64" xml:space="preserve">
<path fill="#92C932" d="M5.522,32.739c7.697-5.117,15.262-5.117,22.957,0c2.443,1.622,2.947,7.739,3.256,13.036h-4.34V62H6.606
	V45.775H2.268C2.574,40.479,3.08,34.361,5.522,32.739z"/>
<polygon fill="#7AB51D" points="26.611,46.075 28.018,46.075 26.611,38.477 "/>
<path fill="#FFCC66" d="M26.611,62h4.024l1.1-16.225c0,0-2.563-0.658-5.123,0V62z"/>
<path fill="#E6B045" d="M12.791,29.674c0-0.722,0-3.931,0-3.931h8.418c0,0,0,3.159,0,3.931
	C21.209,33.905,12.791,33.905,12.791,29.674z"/>
<path fill="#92C932" d="M58.477,32.739c-7.695-5.117-15.26-5.117-22.957,0c-2.441,1.622-2.947,7.739-3.254,13.036h4.338V62h20.789
	V45.775h4.34C61.424,40.479,60.92,34.361,58.477,32.739z"/>
<polygon fill="#7AB51D" points="54.609,50.075 56.609,45.775 56.609,38.477 "/>
<polygon fill="#7AB51D" points="9.391,50.06 7.391,45.775 7.391,38.461 "/>
<polygon fill="#7AB51D" points="37.389,46.075 35.98,46.075 37.389,38.477 "/>
<path fill="#FFCC66" d="M37.389,62h-4.025l-1.098-16.225c0,0,2.561-0.658,5.123,0V62z"/>
<path fill="#E6B045" d="M51.207,29.674c0-0.722,0-3.931,0-3.931h-8.418c0,0,0,3.159,0,3.931
	C42.789,33.905,51.207,33.905,51.207,29.674z"/>
<path fill="#4ABDFF" d="M50.359,55.188c-4.816-3.131-10.578-3.101-15.402,0.001C33.301,56.251,32.752,62,32.752,62h19.793
	C52.545,62,51.998,56.248,50.359,55.188z"/>
<path fill="#E6B045" d="M45.572,53.426c0-0.538,0-2.925,0-2.925h-5.85c0,0,0,2.351,0,2.925
	C39.723,55.792,45.572,55.792,45.572,53.426z"/>
<path fill="#594640" d="M42.646,31.984c-10.516,0-9.502,8.421-9.502,12.356H52.15C52.15,40.405,53.164,31.984,42.646,31.984z"/>
<path fill="#E6B045" d="M34.084,42.76c-3.34-0.511-1.162,7.4,1.451,5.218C36.742,46.968,35.645,42.998,34.084,42.76z"/>
<path fill="#E6B045" d="M51.211,42.76c-1.563,0.238-2.662,4.208-1.451,5.218C52.373,50.16,54.549,42.249,51.211,42.76z"/>
<path fill="#FFCC66" d="M51.102,42.592c0-5.614-3.32-4.364-8.455-4.364c-5.133,0-8.453-1.25-8.453,4.364c0,0,0.016,2.141,0.564,4.95
	c0.896,4.602,4.617,6.407,7.889,6.407s6.996-1.806,7.889-6.407C51.082,44.73,51.102,42.592,51.102,42.592z"/>
<path fill="#594640" d="M42.473,36.119c-1.535,2.734-7.289,4.446-9.268,4.268C34.998,38.58,35.791,33.922,42.473,36.119z"/>
<path fill="#453631" d="M33.205,40.387c2.52-0.656,5.791-1.996,9.268-4.268C40.938,38.854,35.885,41.013,33.205,40.387z"/>
<path fill="#594640" d="M50.234,35.973c-2.174,3.257-10.313,5.294-13.107,5.082C39.658,38.9,40.783,33.355,50.234,35.973z"/>
<path fill="#453631" d="M37.127,41.055c6.686-1.857,13.107-5.082,13.107-5.082C48.061,39.229,42.004,41.526,37.127,41.055z"/>
<path fill="#594640" d="M50.549,35.224c2.605,4.239-4.176,5.977-6.979,5.806C46.084,39.375,47.77,35.091,50.549,35.224z"/>
<path fill="#453631" d="M43.57,41.029c3.369-1.544,8.506-1.859,6.979-5.806C53.154,39.463,46.543,41.412,43.57,41.029z"/>
<path fill="#FFFFFF" d="M48.883,44.334c-0.777,2.035-3.943,1.737-4.523,0.313C44.799,42.359,48.457,42.163,48.883,44.334z"/>
<g>
	<path fill="#613F34" d="M45.166,44.117c0,1.786,2.588,1.786,2.588,0C47.754,42.459,45.166,42.459,45.166,44.117z"/>
	<path fill="#7D5037" d="M45.422,44.689c0,1.024,2.076,1.024,2.076,0C47.498,43.739,45.422,43.739,45.422,44.689z"/>
	<path fill="#1A1626" d="M45.922,44.147c0,0.739,1.074,0.739,1.074,0C46.996,43.459,45.922,43.459,45.922,44.147z"/>
	<path fill="#AB968C" d="M45.557,43.931c0,0.373,0.543,0.373,0.543,0C46.1,43.584,45.557,43.584,45.557,43.931z"/>
</g>
<path fill="#E6B045" d="M48.883,44.318c0-2.184-4.523-2.184-4.523,0.348C45.006,42.588,48.238,42.588,48.883,44.318z"/>
<path fill="#FFFFFF" d="M36.412,44.334c0.775,2.035,3.943,1.737,4.523,0.313C40.494,42.358,36.842,42.163,36.412,44.334z"/>
<g>
	<path fill="#613F34" d="M37.543,44.117c0,1.786,2.586,1.786,2.586,0C40.129,42.459,37.543,42.459,37.543,44.117z"/>
	<path fill="#7D5037" d="M37.799,44.688c0,1.026,2.074,1.026,2.074,0C39.873,43.739,37.799,43.739,37.799,44.688z"/>
	<path fill="#1A1626" d="M38.299,44.146c0,0.741,1.074,0.741,1.074,0C39.373,43.457,38.299,43.457,38.299,44.146z"/>
	<path fill="#AB968C" d="M37.932,43.929c0,0.375,0.541,0.375,0.541,0C38.473,43.581,37.932,43.581,37.932,43.929z"/>
</g>
<path fill="#E6B045" d="M36.412,44.318c0-2.184,4.523-2.184,4.523,0.346C40.289,42.588,37.057,42.588,36.412,44.318z"/>
<path fill="#C1873C" d="M49.301,42.103c-1.352-0.668-3.938-0.701-4.902-0.234c-0.203,0.091-0.068,0.727,0.105,0.664
	c1.344-0.496,3.508-0.509,4.766,0.043C49.436,42.647,49.508,42.198,49.301,42.103z"/>
<path fill="#C1873C" d="M35.992,42.103c1.354-0.668,3.939-0.701,4.904-0.234c0.203,0.091,0.066,0.727-0.104,0.664
	c-1.346-0.496-3.51-0.509-4.768,0.043C35.859,42.647,35.787,42.198,35.992,42.103z"/>
<path fill="#E6A400" d="M42.646,49.77c-1.328-0.391-3.299,0.185-3.299,0.185c0.754,0.817,1.301,1.874,3.299,1.874
	c2.291,0,2.68-1.201,3.299-1.874C45.945,49.954,43.975,49.376,42.646,49.77z"/>
<path fill="#FFFFFF" d="M39.854,50.093c1.393,1.167,4.207,1.175,5.605,0C43.975,50.155,41.35,50.157,39.854,50.093z"/>
<path fill="#E6B045" d="M44.479,48.021c0,1.19-3.662,1.19-3.662,0C40.816,47.747,44.479,47.747,44.479,48.021z"/>
<path fill="#E32B56" d="M29.207,54.669c-0.982-0.688-5.299-2.493-5.299-2.493h-4.797c0,0-4.318,1.81-5.307,2.494
	C12.148,55.813,11.598,62,11.598,62h19.793C31.391,62,30.844,55.811,29.207,54.669z"/>
<path fill="#E6B045" d="M24.418,52.839c0-0.538,0-2.925,0-2.925h-5.85c0,0,0,2.351,0,2.925
	C18.568,55.205,24.418,55.205,24.418,52.839z"/>
<path fill="#594640" d="M13.988,43.937c-7.076,4.172-0.856,7.97-2.869,9.768C15.033,56.13,24.613,51.95,13.988,43.937z"/>
<path fill="#453631" d="M11.875,45.521c1.736,6.659,5.311,6.89,5.012,8.095C20.209,51.876,20.24,46.264,11.875,45.521z"/>
<path fill="#594640" d="M29,43.937c7.076,4.172,0.855,7.97,2.871,9.768C27.959,56.13,18.377,51.95,29,43.937z"/>
<path fill="#453631" d="M31.113,45.521c-1.734,6.659-5.311,6.89-5.01,8.095C22.781,51.876,22.748,46.264,31.113,45.521z"/>
<path fill="#594640" d="M11.816,43.769h19.348C33.98,28.646,9,28.646,11.816,43.769z"/>
<path fill="#453631" d="M11.791,43.582c0,0,11.016,4.105,18.652-0.651c-1.543,0.291-4.051-5.605-15.775-6.047
	C14.238,43.582,12.178,41.764,11.791,43.582z"/>
<path fill="#CFD8DD" d="M30.256,42.689c0.822-11.314-18.359-11.314-17.535,0C13.436,33.188,29.539,33.188,30.256,42.689z"/>
<path fill="#FFFFFF" d="M30.256,42.323c0.822-11.313-18.359-11.313-17.535,0C13.436,32.821,29.539,32.821,30.256,42.323z"/>
<path fill="#E6B045" d="M12.924,42.767c-3.336-0.506-1.162,7.364,1.451,5.193C15.588,46.953,14.488,43.005,12.924,42.767z"/>
<path fill="#E6B045" d="M30.053,42.767c-1.56,0.238-2.66,4.186-1.451,5.193C31.217,50.129,33.389,42.261,30.053,42.767z"/>
<path fill="#FFCC66" d="M29.943,42.785c-3.195-0.91-7.289-5.256-15.07-4.729c0.137,1.708-0.313,3.646-1.814,4.735
	c0,0-0.006,1.535,0.543,4.345c0.895,4.602,4.617,6.407,7.887,6.407c3.273,0,6.994-1.806,7.891-6.407
	C29.926,44.324,29.943,42.785,29.943,42.785z"/>
<path fill="#FFFFFF" d="M27.738,44.294c-0.777,2.036-3.943,1.738-4.525,0.313C23.654,42.318,27.311,42.123,27.738,44.294z"/>
<path fill="#613F34" d="M24.021,44.078c0,1.786,2.586,1.786,2.586,0C26.607,42.42,24.021,42.42,24.021,44.078z"/>
<path fill="#7D5037" d="M24.277,44.648c0,1.025,2.074,1.025,2.074,0C26.352,43.698,24.277,43.698,24.277,44.648z"/>
<path fill="#1A1626" d="M24.775,44.105c0,0.742,1.076,0.742,1.076,0C25.852,43.418,24.775,43.418,24.775,44.105z"/>
<path fill="#AB968C" d="M24.412,43.889c0,0.376,0.541,0.376,0.541,0C24.953,43.541,24.412,43.541,24.412,43.889z"/>
<path fill="#E6B045" d="M27.738,44.279c0-2.186-4.525-2.186-4.525,0.346C23.859,42.549,27.092,42.549,27.738,44.279z"/>
<path fill="#FFFFFF" d="M15.266,44.294c0.775,2.036,3.943,1.738,4.525,0.313C19.352,42.316,15.695,42.121,15.266,44.294z"/>
<path fill="#613F34" d="M16.398,44.078c0,1.784,2.586,1.784,2.586,0C18.984,42.42,16.398,42.42,16.398,44.078z"/>
<path fill="#7D5037" d="M16.654,44.648c0,1.022,2.072,1.022,2.072,0C18.727,43.698,16.654,43.698,16.654,44.648z"/>
<path fill="#1A1626" d="M17.152,44.105c0,0.74,1.074,0.74,1.074,0C18.227,43.418,17.152,43.418,17.152,44.105z"/>
<path fill="#AB968C" d="M16.787,43.889c0,0.374,0.543,0.374,0.543,0C17.33,43.541,16.787,43.541,16.787,43.889z"/>
<path fill="#E6B045" d="M15.266,44.279c0-2.186,4.525-2.186,4.525,0.346C19.146,42.547,15.91,42.547,15.266,44.279z"/>
<path fill="#C1873C" d="M28.156,42.063c-1.35-0.672-3.938-0.703-4.9-0.236c-0.207,0.091-0.07,0.725,0.105,0.666
	c1.34-0.498,3.504-0.509,4.764,0.043C28.291,42.606,28.361,42.156,28.156,42.063z"/>
<path fill="#C1873C" d="M14.846,42.063c1.353-0.672,3.939-0.703,4.904-0.236c0.207,0.091,0.068,0.725-0.104,0.666
	c-1.344-0.498-3.51-0.509-4.768,0.043C14.711,42.606,14.643,42.156,14.846,42.063z"/>
<path fill="#E6A400" d="M21.502,49.729c-1.328-0.391-3.299,0.185-3.299,0.185c0.75,0.814,1.303,1.875,3.299,1.875
	c2.289,0,2.682-1.201,3.299-1.875C24.801,49.914,22.828,49.337,21.502,49.729z"/>
<path fill="#FFFFFF" d="M18.705,50.052c1.395,1.169,4.211,1.175,5.611,0C22.828,50.115,20.203,50.115,18.705,50.052z"/>
<path fill="#E6B045" d="M23.336,47.979c0,1.19-3.666,1.19-3.666,0C19.67,47.706,23.336,47.706,23.336,47.979z"/>
<path fill="#FFCC66" d="M12.102,57.492c0.805,0.491,2.559-2.121,1.822-2.712c-4.498-3.604-6.533-9.005-6.533-9.005
	c-2.283-0.691-5.123,0-5.123,0C2.559,51.142,8.182,55.101,12.102,57.492z"/>
<path fill="#FFCC66" d="M15.627,53.645c1.666-0.392,4.768,1.096,3.01,1.478c0.395,0.462,0.348,1.003-0.982,0.637
	c0.51,0.458-0.338,0.817-1.016,0.654c0.201,1.159-2.217,0.477-2.941,0.84c-1.035,0.52-1.258,0.829-1.523,0.677
	C10.244,56.821,12.861,54.291,15.627,53.645z"/>
<path fill="#FFCC66" d="M51.898,57.492c-0.807,0.491-2.558-2.121-1.822-2.712c4.496-3.604,6.533-9.005,6.533-9.005
	c2.283-0.691,5.123,0,5.123,0C61.441,51.142,55.818,55.101,51.898,57.492z"/>
<path fill="#FFCC66" d="M48.373,53.645c-1.666-0.392-4.768,1.096-3.01,1.478c-0.396,0.462-0.348,1.003,0.982,0.637
	c-0.512,0.458,0.336,0.817,1.014,0.654c-0.201,1.159,2.219,0.477,2.941,0.84c1.037,0.52,1.26,0.829,1.523,0.677
	C53.754,56.821,51.139,54.291,48.373,53.645z"/>
<path fill="#E6B045" d="M36.289,14.673c-3.586-0.646-0.785,9.36,2.017,6.6C39.607,19.993,37.963,14.976,36.289,14.673z"/>
<path fill="#E6B045" d="M57.715,14.673c-1.676,0.303-3.32,5.32-2.02,6.6C58.5,24.033,61.295,14.027,57.715,14.673z"/>
<path fill="#FFCC66" d="M47,2.941c-7.408,0-10.977,5.599-10.529,13.381c0.09,1.567,1.061,6.675,1.979,8.506
	c0.939,1.873,4.08,4.764,6.004,5.362c1.215,0.379,3.877,0.379,5.094,0c1.924-0.599,5.066-3.489,6.004-5.362
	c0.92-1.831,1.889-6.938,1.979-8.506C57.979,8.54,54.408,2.941,47,2.941z"/>
<path fill="#E6A400" d="M47,24.132c-1.666-0.491-4.135,0.232-4.135,0.232c0.939,1.024,1.629,2.349,4.135,2.349
	c2.871,0,3.359-1.505,4.137-2.349C51.137,24.363,48.666,23.639,47,24.132z"/>
<path fill="#FFFFFF" d="M43.496,24.535c1.746,1.464,5.275,1.474,7.031,0C48.666,24.615,45.371,24.615,43.496,24.535z"/>
<path fill="#E6B045" d="M49.299,21.379c0,1.493-4.596,1.493-4.596,0C44.703,21.037,49.299,21.037,49.299,21.379z"/>
<path fill="#594640" d="M47,2.941c-5.096,0-8.176,1.681-9.504,1.035c0,0-0.143,0.868,0.377,1.434c0,0-0.549,0.474-1.436-0.327
	C35.594,7.823,38.1,9.411,47,9.411c8.902,0,6.773-2.166,11.152,1.636C57.723,6.36,54.74,2.941,47,2.941z"/>
<path fill="#453631" d="M50.77,7.026c-4.9,1.808-6.691-1.453-11.316-1.769c2.201,1.038,3.274,2.636,5.078,3.786
	c-3.93-1.313-6.813-3.574-7.033-5.059c0,0-0.654,2.167,1.938,3.788c-2.479,0.23-2.996-2.681-2.996-2.681
	c-1.256,2.015-1.084,8.514,0.313,13.338c0.23-1.723-0.297-2.434,0.5-4.507c2.383-6.199,0.85-3.597,9.748-3.597
	c8.902,0,7.295-2.372,9.752,3.597c0.73,1.777,0.266,2.784,0.498,4.507C60.178,7.554,55.969,5.11,50.77,7.026z"/>
<path fill="#FFFFFF" d="M54.932,16.926c-0.99,2.588-5.017,2.207-5.754,0.396C49.736,14.413,54.387,14.164,54.932,16.926z"/>
<path fill="#FFFFFF" d="M39.068,16.926c0.99,2.588,5.017,2.207,5.754,0.396C44.264,14.41,39.613,14.163,39.068,16.926z"/>
<path fill="#C1873C" d="M55.342,13.809c-1.693-0.84-4.936-0.881-6.145-0.294c-0.258,0.112-0.088,0.908,0.131,0.833
	c1.684-0.624,4.399-0.638,5.975,0.054C55.514,14.489,55.6,13.927,55.342,13.809z"/>
<path fill="#C1873C" d="M38.658,13.809c1.693-0.84,4.936-0.881,6.145-0.294c0.26,0.112,0.088,0.908-0.129,0.833
	c-1.688-0.624-4.398-0.638-5.977,0.054C38.488,14.489,38.402,13.927,38.658,13.809z"/>
<path fill="#613F34" d="M50.205,16.648c0,2.273,3.289,2.273,3.289,0C53.494,14.541,50.205,14.541,50.205,16.648z"/>
<path fill="#7D5037" d="M50.529,17.376c0,1.304,2.639,1.304,2.639,0C53.168,16.166,50.529,16.166,50.529,17.376z"/>
<path fill="#1A1626" d="M51.166,16.686c0,0.942,1.365,0.942,1.365,0C52.531,15.81,51.166,15.81,51.166,16.686z"/>
<path fill="#AB968C" d="M50.699,16.41c0,0.475,0.689,0.475,0.689,0C51.389,15.968,50.699,15.968,50.699,16.41z"/>
<path fill="#613F34" d="M40.508,16.648c0,2.273,3.289,2.273,3.289,0C43.797,14.541,40.508,14.541,40.508,16.648z"/>
<path fill="#7D5037" d="M40.832,17.376c0,1.3,2.641,1.3,2.641,0C43.473,16.166,40.832,16.166,40.832,17.376z"/>
<path fill="#1A1626" d="M41.471,16.686c0,0.942,1.363,0.942,1.363,0C42.834,15.809,41.471,15.809,41.471,16.686z"/>
<path fill="#AB968C" d="M41.004,16.409c0,0.476,0.688,0.476,0.688,0C41.691,15.967,41.004,15.967,41.004,16.409z"/>
<path fill="#E6B045" d="M54.932,16.904c0-2.778-5.754-2.778-5.754,0.441C49.998,14.705,54.109,14.705,54.932,16.904z"/>
<path fill="#E6B045" d="M39.068,16.904c0-2.778,5.754-2.778,5.754,0.44C44.002,14.704,39.891,14.704,39.068,16.904z"/>
<path fill="#E6B045" d="M6.289,14.673c-3.586-0.646-0.785,9.36,2.017,6.6C9.607,19.993,7.963,14.976,6.289,14.673z"/>
<path fill="#E6B045" d="M27.715,14.673c-1.676,0.303-3.32,5.32-2.02,6.6C28.5,24.033,31.295,14.027,27.715,14.673z"/>
<path fill="#FFCC66" d="M17,2.941c-7.408,0-10.977,5.599-10.529,13.381c0.09,1.567,1.061,6.675,1.978,8.506
	c0.939,1.873,4.08,4.764,6.004,5.362c1.215,0.379,3.877,0.379,5.094,0c1.924-0.599,5.066-3.489,6.004-5.362
	c0.92-1.831,1.889-6.938,1.979-8.506C27.979,8.54,24.408,2.941,17,2.941z"/>
<path fill="#E6A400" d="M17,24.132c-1.666-0.491-4.135,0.232-4.135,0.232c0.939,1.024,1.629,2.349,4.135,2.349
	c2.871,0,3.359-1.505,4.137-2.349C21.137,24.363,18.666,23.639,17,24.132z"/>
<path fill="#FFFFFF" d="M13.496,24.535c1.746,1.464,5.275,1.474,7.031,0C18.666,24.615,15.371,24.615,13.496,24.535z"/>
<path fill="#E6B045" d="M19.299,21.379c0,1.493-4.596,1.493-4.596,0C14.703,21.037,19.299,21.037,19.299,21.379z"/>
<path fill="#594640" d="M17,2.941c-5.096,0-8.176,1.681-9.504,1.035c0,0-0.143,0.868,0.377,1.434c0,0-0.549,0.474-1.436-0.327
	C5.594,7.823,8.1,9.411,17,9.411c8.902,0,6.773-2.166,11.152,1.636C27.723,6.36,24.74,2.941,17,2.941z"/>
<path fill="#453631" d="M20.77,7.026c-4.9,1.808-6.691-1.453-11.316-1.769c2.201,1.038,3.273,2.636,5.078,3.786
	c-3.93-1.313-6.812-3.574-7.033-5.059c0,0-0.654,2.167,1.938,3.788c-2.479,0.23-2.996-2.681-2.996-2.681
	c-1.256,2.015-1.084,8.514,0.313,13.338c0.23-1.723-0.297-2.434,0.5-4.507c2.383-6.199,0.85-3.597,9.748-3.597
	c8.902,0,7.295-2.372,9.752,3.597c0.73,1.777,0.266,2.784,0.498,4.507C30.178,7.554,25.969,5.11,20.77,7.026z"/>
<path fill="#FFFFFF" d="M24.932,16.926c-0.99,2.588-5.017,2.207-5.754,0.396C19.736,14.413,24.387,14.164,24.932,16.926z"/>
<path fill="#FFFFFF" d="M9.068,16.926c0.99,2.588,5.017,2.207,5.754,0.396C14.264,14.41,9.613,14.163,9.068,16.926z"/>
<path fill="#C1873C" d="M25.342,13.809c-1.693-0.84-4.936-0.881-6.145-0.294c-0.258,0.112-0.088,0.908,0.131,0.833
	c1.684-0.624,4.399-0.638,5.975,0.054C25.514,14.489,25.6,13.927,25.342,13.809z"/>
<path fill="#C1873C" d="M8.658,13.809c1.693-0.84,4.936-0.881,6.144-0.294c0.26,0.112,0.088,0.908-0.129,0.833
	c-1.688-0.624-4.398-0.638-5.977,0.054C8.488,14.489,8.402,13.927,8.658,13.809z"/>
<path fill="#613F34" d="M20.205,16.648c0,2.273,3.289,2.273,3.289,0C23.494,14.541,20.205,14.541,20.205,16.648z"/>
<path fill="#7D5037" d="M20.529,17.376c0,1.304,2.639,1.304,2.639,0C23.168,16.166,20.529,16.166,20.529,17.376z"/>
<path fill="#1A1626" d="M21.166,16.686c0,0.942,1.365,0.942,1.365,0C22.531,15.81,21.166,15.81,21.166,16.686z"/>
<path fill="#AB968C" d="M20.699,16.41c0,0.475,0.69,0.475,0.69,0C21.389,15.968,20.699,15.968,20.699,16.41z"/>
<path fill="#613F34" d="M10.508,16.648c0,2.273,3.289,2.273,3.289,0C13.797,14.541,10.508,14.541,10.508,16.648z"/>
<path fill="#7D5037" d="M10.832,17.376c0,1.3,2.641,1.3,2.641,0C13.473,16.166,10.832,16.166,10.832,17.376z"/>
<path fill="#1A1626" d="M11.471,16.686c0,0.942,1.363,0.942,1.363,0C12.834,15.809,11.471,15.809,11.471,16.686z"/>
<path fill="#AB968C" d="M11.004,16.409c0,0.476,0.688,0.476,0.688,0C11.691,15.967,11.004,15.967,11.004,16.409z"/>
<path fill="#E6B045" d="M24.932,16.904c0-2.778-5.754-2.778-5.754,0.441C19.998,14.705,24.109,14.705,24.932,16.904z"/>
<path fill="#E6B045" d="M9.068,16.904c0-2.778,5.754-2.778,5.754,0.44C14.002,14.704,9.891,14.704,9.068,16.904z"/>
</svg>
