<?xml version="1.0" encoding="utf-8"?>
<!-- Generator: Adobe Illustrator 15.0.0, SVG Export Plug-In . SVG Version: 6.00 Build 0)  -->
<!DOCTYPE svg PUBLIC "-//W3C//DTD SVG 1.1//EN" "http://www.w3.org/Graphics/SVG/1.1/DTD/svg11.dtd" [
	<!ENTITY ns_flows "http://ns.adobe.com/Flows/1.0/">
	<!ENTITY ns_extend "http://ns.adobe.com/Extensibility/1.0/">
	<!ENTITY ns_ai "http://ns.adobe.com/AdobeIllustrator/10.0/">
	<!ENTITY ns_graphs "http://ns.adobe.com/Graphs/1.0/">
]>
<svg version="1.1" id="Layer_1" xmlns:x="&ns_extend;" xmlns:i="&ns_ai;" xmlns:graph="&ns_graphs;"
	 xmlns="http://www.w3.org/2000/svg" xmlns:xlink="http://www.w3.org/1999/xlink" xmlns:a="http://ns.adobe.com/AdobeSVGViewerExtensions/3.0/"
	 x="0px" y="0px" width="64px" height="64px" viewBox="0 0 64 64" enable-background="new 0 0 64 64" xml:space="preserve">
<path fill="#018BC9" d="M9.789,50.152c2.701-1.748,13.908-6.363,13.908-6.363h16.695c0,0,11.195,4.605,13.881,6.359
	C58.178,52.691,59,62,59,62H5C5,62,5.873,52.682,9.789,50.152z"/>
<path fill="#BEC3CF" d="M12.779,48.506c2.43-1.354,4.633-2.197,4.633-2.197L18.943,62h-5.76L12.779,48.506z"/>
<path fill="#BEC3CF" d="M51.221,48.506c-2.43-1.354-4.631-2.197-4.631-2.197L45.059,62h5.76L51.221,48.506z"/>
<path fill="#D6A67A" d="M23.359,45.828c0,7.09,17.281,7.09,17.281,0c0-4.322,0-11.471,0-11.471H23.359
	C23.359,34.357,23.359,40.246,23.359,45.828z"/>
<path fill="#BEC3CF" d="M12.951,58.369c1.936-1.037,36.191-1.039,38.127-0.002C52.273,59.01,53.074,62,53.074,62H10.955
	C10.955,62,11.756,59.012,12.951,58.369z"/>
<path fill="#D6A67A" d="M14.902,20.75c-5.719-1.031-1.252,14.957,3.225,10.547C20.199,29.252,17.576,21.232,14.902,20.75z"/>
<path fill="#D6A67A" d="M49.102,20.75c-2.674,0.482-5.299,8.502-3.223,10.547C50.355,35.707,54.816,19.719,49.102,20.75z"/>
<path fill="#E3C19B" d="M32.002,2.002c-11.824,0-17.521,8.945-16.807,21.383c0.143,2.504,1.693,10.666,3.158,13.594
	c1.498,2.994,6.512,7.613,9.584,8.57c1.939,0.604,6.188,0.604,8.127,0c3.072-0.957,8.086-5.576,9.586-8.57
	c1.465-2.928,3.016-11.09,3.158-13.594C49.523,10.947,43.826,2.002,32.002,2.002z"/>
<path fill="#BF8C6B" d="M32.002,35.863c-2.66-0.783-6.6,0.369-6.6,0.369c1.5,1.635,2.6,3.756,6.6,3.756
	c4.582,0,5.359-2.406,6.6-3.756C38.602,36.232,34.658,35.076,32.002,35.863z"/>
<path fill="#FFFFFF" d="M26.408,36.51c2.787,2.34,8.418,2.354,11.221,0C34.658,36.637,29.4,36.639,26.408,36.51z"/>
<path fill="#D6A67A" d="M35.668,31.465c0,2.387-7.332,2.387-7.332,0C28.336,30.918,35.668,30.918,35.668,31.465z"/>
<path fill="#EFDE8B" d="M32.002,2c-8.135,0-13.049,2.688-15.168,1.656c0,0-0.23,1.387,0.6,2.291c0,0-0.877,0.758-2.291-0.521
	c-1.348,4.377,2.652,6.912,16.859,6.912s10.813-3.459,17.797,2.617C49.113,7.465,44.355,2,32.002,2z"/>
<path fill="#BA9D52" d="M38.018,8.529c-7.822,2.889-10.682-2.32-18.061-2.824c3.51,1.658,5.223,4.209,8.105,6.049
	c-6.273-2.1-10.877-5.711-11.227-8.084c0,0-1.047,3.463,3.094,6.053c-3.959,0.367-4.785-4.283-4.785-4.283
	c-2.004,3.221-1.727,13.605,0.5,21.313c0.371-2.75-0.475-3.887,0.797-7.201c3.805-9.904,1.355-5.746,15.563-5.746
	c14.205,0,11.641-3.793,15.561,5.746c1.17,2.844,0.426,4.451,0.799,7.201C53.033,9.375,46.316,5.467,38.018,8.529z"/>
<path fill="#FFFFFF" d="M44.66,24.348c-1.58,4.135-8.008,3.529-9.186,0.635C36.369,20.332,43.793,19.936,44.66,24.348z"/>
<path fill="#FFFFFF" d="M19.342,24.348c1.58,4.135,8.01,3.529,9.186,0.635C27.633,20.33,20.211,19.934,19.342,24.348z"/>
<path fill="#BF8C6B" d="M45.316,19.369c-2.705-1.342-7.879-1.408-9.807-0.473c-0.412,0.182-0.141,1.455,0.207,1.332
	c2.688-0.994,7.02-1.018,9.535,0.086C45.586,20.457,45.727,19.557,45.316,19.369z"/>
<path fill="#BF8C6B" d="M18.688,19.369c2.703-1.342,7.877-1.408,9.807-0.473c0.412,0.182,0.141,1.455-0.207,1.332
	c-2.691-0.994-7.02-1.018-9.537,0.086C18.416,20.457,18.277,19.557,18.688,19.369z"/>
<path fill="#613F34" d="M37.115,23.906c0,3.629,5.25,3.629,5.25,0C42.365,20.537,37.115,20.537,37.115,23.906z"/>
<path fill="#7D5037" d="M37.635,25.068c0,2.08,4.211,2.08,4.211,0C41.846,23.137,37.635,23.137,37.635,25.068z"/>
<path fill="#1A1626" d="M38.65,23.963c0,1.508,2.18,1.508,2.18,0C40.83,22.566,38.65,22.566,38.65,23.963z"/>
<path fill="#AB968C" d="M37.906,23.523c0,0.762,1.102,0.762,1.102,0C39.008,22.818,37.906,22.818,37.906,23.523z"/>
<path fill="#613F34" d="M21.639,23.906c0,3.629,5.25,3.629,5.25,0C26.889,20.537,21.639,20.537,21.639,23.906z"/>
<path fill="#7D5037" d="M22.158,25.066c0,2.082,4.211,2.082,4.211,0C26.369,23.135,22.158,23.135,22.158,25.066z"/>
<path fill="#1A1626" d="M23.174,23.963c0,1.506,2.18,1.506,2.18,0C25.354,22.564,23.174,22.564,23.174,23.963z"/>
<path fill="#AB968C" d="M22.43,23.523c0,0.76,1.1,0.76,1.1,0C23.529,22.816,22.43,22.816,22.43,23.523z"/>
<path fill="#D6A67A" d="M44.66,24.316c0-4.441-9.186-4.441-9.186,0.703C36.787,20.799,43.348,20.799,44.66,24.316z"/>
<path fill="#D6A67A" d="M19.342,24.316c0-4.441,9.186-4.441,9.186,0.701C27.217,20.797,20.654,20.797,19.342,24.316z"/>
<path fill="#E5BC5E" d="M7.459,62C7.459,62,2,55.031,2,48.258C2,39.084,17.461,46.963,26.436,62H7.459z"/>
<path fill="#018BC9" d="M10.211,50.088c-0.406-1.6-1.758-3.088-3.014-3.324c-1.254-0.234-1.939,0.875-1.531,2.475
	s1.762,3.086,3.016,3.322C9.936,52.795,10.619,51.688,10.211,50.088"/>
<path fill="#E81C27" d="M16.035,52.775c-0.352-1.508-1.592-2.928-2.764-3.174s-1.834,0.779-1.48,2.287
	c0.352,1.506,1.592,2.928,2.762,3.174C15.725,55.309,16.387,54.283,16.035,52.775"/>
<path fill="#FFE12C" d="M21.475,57.438c-0.443-1.449-1.748-2.752-2.91-2.912c-1.16-0.158-1.742,0.887-1.299,2.34
	c0.441,1.447,1.744,2.752,2.906,2.914C21.334,59.938,21.914,58.889,21.475,57.438"/>
<path fill="#7AB51D" d="M11.35,57.852c-0.541-1.668-2.031-3.129-3.318-3.264c-1.285-0.133-1.883,1.113-1.34,2.783
	c0.545,1.67,2.033,3.129,3.318,3.266C11.297,60.77,11.895,59.521,11.35,57.852"/>
<path fill="#594640" d="M54.104,62c3.652-13.504,4.789-20.883,3.779-21.146C56.85,40.582,53.959,47.861,50.082,62H54.104z"/>
<path fill="#302C3B" d="M57.172,42.143c0,0-2.66-3.377,0.203-7.498c1.496-2.152,2.631-1.74,3.354-4.379
	c0.539-1.977,3.826,7.635-2.938,12.041L57.172,42.143z"/>
<path fill="#1A1626" d="M60.594,35.613c-0.518,1.891-1.455,3.141-2.072,3.807c0.029-1.662,0.424-3.666,0.424-3.666
	c-0.719,1.391-1.059,2.82-1.223,3.803c-0.449-1.277-0.24-2.953-0.24-2.953c-1.705,3.123-0.045,5.117-0.045,5.117
	C60.986,39.328,60.594,35.613,60.594,35.613"/>
<path fill="#99A8AE" d="M54.391,47.898c0.457,0.189,0.932,0.359,1.428,0.49c0.498,0.131,0.994,0.215,1.49,0.275
	c0,0,2.047-7.426,0.574-7.811C56.414,40.467,54.391,47.898,54.391,47.898"/>
</svg>
