<?xml version="1.0" encoding="utf-8"?>
<!-- Generator: Adobe Illustrator 15.0.0, SVG Export Plug-In . SVG Version: 6.00 Build 0)  -->
<!DOCTYPE svg PUBLIC "-//W3C//DTD SVG 1.1//EN" "http://www.w3.org/Graphics/SVG/1.1/DTD/svg11.dtd" [
	<!ENTITY ns_flows "http://ns.adobe.com/Flows/1.0/">
	<!ENTITY ns_extend "http://ns.adobe.com/Extensibility/1.0/">
	<!ENTITY ns_ai "http://ns.adobe.com/AdobeIllustrator/10.0/">
	<!ENTITY ns_graphs "http://ns.adobe.com/Graphs/1.0/">
]>
<svg version="1.1" id="Layer_1" xmlns:x="&ns_extend;" xmlns:i="&ns_ai;" xmlns:graph="&ns_graphs;"
	 xmlns="http://www.w3.org/2000/svg" xmlns:xlink="http://www.w3.org/1999/xlink" xmlns:a="http://ns.adobe.com/AdobeSVGViewerExtensions/3.0/"
	 x="0px" y="0px" width="64px" height="64px" viewBox="0 0 64 64" enable-background="new 0 0 64 64" xml:space="preserve">
<ellipse fill="#B00505" cx="32" cy="33.547" rx="21.131" ry="10.602"/>
<path fill="#211E1A" d="M20.926,15.477c-7.467,37.398-6.783,36.598,8.934,36.598C21.162,44.973,37.822,14.969,20.926,15.477z"/>
<path fill="#26221E" d="M18.232,14.898c-5.449,28.412-0.748,35.709,3.426,37.176h4.783C15.25,42.871,32.744,14.34,18.232,14.898z"/>
<path fill="#211E1A" d="M42.891,15.477c7.465,37.396,6.781,36.596-8.934,36.596C41.955,46.373,25.994,14.967,42.891,15.477z"/>
<path fill="#26221E" d="M45.582,14.896c7.965,25.85-0.018,35.979-3.426,37.176h-4.781C48.566,43.621,31.072,14.338,45.582,14.896z"
	/>
<path fill="#38332D" d="M46.686,28.787c2.271,6.572,0.023,20.059-4.68,23.287c5.213,0,8.389-8.551,9.938-20.311
	C53.877,17.068,42.637,17.061,46.686,28.787z"/>
<path fill="#38332D" d="M12.457,34.49c1.9,10.613,4.238,17.584,9.355,17.584c-5.705-7-5.035-21.762-3.412-25.434
	C26.666,20.813,9.244,16.537,12.457,34.49z"/>
<path fill="#E81C27" d="M12.258,53.156c2.398-1.305,13.195-4.254,13.195-4.254L32,50.65l6.545-1.748c0,0,10.871,2.943,13.256,4.25
	C55.27,55.051,56,62,56,62H8C8,62,8.777,55.047,12.258,53.156"/>
<polygon fill="#FFE12C" points="13.742,62 50.262,62 51.09,58.508 13.092,58.508 "/>
<rect x="25.453" y="44.537" fill="#423225" width="13.092" height="8.434"/>
<path fill="#302C3B" d="M25.453,50.799C26.848,53.385,32,57.027,32,57.027s5.154-3.643,6.545-6.229
	C34.303,52.119,29.699,52.119,25.453,50.799z"/>
<path fill="#B00505" d="M13.742,62c0.508-1.75-0.09-4.414-0.729-5.881C12.418,54.752,12.643,61.037,13.742,62"/>
<path fill="#B00505" d="M50.988,56.119c-0.637,1.467-1.24,4.131-0.727,5.881C51.357,61.037,51.58,54.752,50.988,56.119"/>
<rect x="32.002" y="55.127" fill="#302C3B" width="0.82" height="6.873"/>
<path fill="#B00505" d="M32.002,62c0,0-2.869-9.906-9.959-7.889c0,0-0.281-5.068,3.293-7.744c1.107-0.828-1.197,4.34,6.664,8.762
	L32.002,62"/>
<path fill="#B00505" d="M32.002,58.508c0,0,2.6-4.854,9.957-4.396c0,0,0.281-5.068-3.293-7.744
	c-1.107-0.828,1.535,4.922-6.666,8.762L32.002,62"/>
<path fill="#614A36" d="M32,6.49c-11.609,0-17.201,9.455-16.502,21.611c0.143,2.443,0.822,5.969,1.66,8.988
	c1.742,6.277,10.93,12.6,14.842,12.6c3.91,0,13.1-6.322,14.84-12.6c0.84-3.02,1.52-6.545,1.664-8.988
	C49.201,15.945,43.611,6.49,32,6.49z"/>
<path fill="#36281D" d="M32,39.662c-2.822-1.24-2.844-0.051-7.199,0.242c1.635,1.855,2.838,4.244,7.197,4.244
	c5.004,0,5.85-2.711,7.203-4.244C34.842,39.611,34.822,38.422,32,39.662z"/>
<path fill="#FFFFFF" d="M26.107,40.367c2.844,2.959,8.977,2.92,11.785,0C33.514,40.838,30.488,40.838,26.107,40.367z"/>
<path fill="#36281D" d="M44.795,23.686c-2.617-1.561-7.309-1.75-9.166-0.688c-0.393,0.213-0.287,1.34,0.053,1.199
	c2.648-1.104,6.682-1.158,9.168,0.117C45.184,24.484,45.189,23.912,44.795,23.686z"/>
<path fill="#36281D" d="M19.207,23.686c2.615-1.561,7.307-1.75,9.166-0.688c0.393,0.213,0.289,1.34-0.055,1.199
	c-2.648-1.104-6.68-1.158-9.166,0.117C18.818,24.484,18.811,23.912,19.207,23.686z"/>
<path fill="#423225" d="M35.6,35.42c0,2.342-7.199,2.342-7.199,0C28.4,34.883,35.6,34.883,35.6,35.42z"/>
<path fill="#FFFFFF" d="M44.541,28.432c-1.551,4.061-7.861,3.465-9.016,0.623C36.4,24.49,43.688,24.1,44.541,28.432z"/>
<path fill="#613F34" d="M37.105,27.99c0,3.596,5.201,3.596,5.201,0C42.307,24.652,37.105,24.652,37.105,27.99z"/>
<path fill="#7D5037" d="M37.619,29.141c0,2.063,4.172,2.063,4.172,0C41.791,27.227,37.619,27.227,37.619,29.141z"/>
<path fill="#1A1626" d="M38.627,28.047c0,1.492,2.158,1.492,2.158,0C40.785,26.662,38.627,26.662,38.627,28.047z"/>
<path fill="#AB968C" d="M37.889,27.611c0,0.754,1.09,0.754,1.09,0C38.979,26.912,37.889,26.912,37.889,27.611z"/>
<path fill="#45332C" d="M44.541,28.4c0-4.361-9.016-4.361-9.016,0.691C36.811,24.945,43.254,24.945,44.541,28.4z"/>
<path fill="#FFFFFF" d="M19.459,28.432c1.553,4.061,7.863,3.467,9.02,0.623C27.602,24.49,20.314,24.1,19.459,28.432z"/>
<path fill="#613F34" d="M21.695,27.996c0,3.596,5.199,3.596,5.199,0C26.895,24.658,21.695,24.658,21.695,27.996z"/>
<path fill="#7D5037" d="M22.209,29.146c0,2.063,4.172,2.063,4.172,0C26.381,27.232,22.209,27.232,22.209,29.146z"/>
<path fill="#1A1626" d="M23.215,28.053c0,1.492,2.16,1.492,2.16,0C25.375,26.668,23.215,26.668,23.215,28.053z"/>
<path fill="#AB968C" d="M22.479,27.617c0,0.754,1.09,0.754,1.09,0C23.568,26.916,22.479,26.916,22.479,27.617z"/>
<path fill="#45332C" d="M19.459,28.4c0-4.361,9.02-4.361,9.02,0.689C27.191,24.945,20.748,24.945,19.459,28.4z"/>
<path fill="#38332D" d="M42.949,8.18c-6.871,8.342-0.313,8.881,3.736,20.607c2.271,6.572,3.709,14.736,5.258,2.977
	C53.877,17.068,46.441,6.953,42.949,8.18z"/>
<path fill="#38332D" d="M26.082,4.986C17.369,7.416,9.244,16.537,12.457,34.49c1.9,10.613,2.672-3.666,4.293-7.338
	C25.016,21.324,40.801,16.4,42.949,8.18C44.041,6.283,34.803,2.279,26.082,4.986z"/>
<path fill="#26221E" d="M19.215,18.063c3.742-0.885,21.637-1.301,23.9-9.883C38.887,12.113,34.506,13.186,19.215,18.063z"/>
<path fill="#26221E" d="M12.766,31.711c6.275-9.773,26.834-8.695,30.35-23.531C36.289,20.633,14.48,22.316,12.766,31.711z"/>
<path fill="#26221E" d="M41.047,10.215C39.428,13.191,45.055,8.816,51.121,28C49.627,16.785,44.5,9.063,41.047,10.215z"/>
<path opacity="0.2" d="M31.992,19.658c-30.711,0-20.988,17.842-20.988,16.143c0-5.932,9.4-10.736,21-10.736
	c11.598,0,21,4.805,21,10.736C53.004,37.486,62.703,19.658,31.992,19.658z"/>
<radialGradient id="SVGID_1_" cx="89.4854" cy="15.75" r="16.5131" gradientTransform="matrix(1.0909 0 0 0.9959 -65.6198 0.2549)" gradientUnits="userSpaceOnUse">
	<stop  offset="0.2606" style="stop-color:#A10505"/>
	<stop  offset="0.4829" style="stop-color:#B20B0D"/>
	<stop  offset="0.9239" style="stop-color:#E01923"/>
	<stop  offset="1" style="stop-color:#E81C27"/>
	<a:midPointStop  offset="0.2606" style="stop-color:#A10505"/>
	<a:midPointStop  offset="0.5528" style="stop-color:#A10505"/>
	<a:midPointStop  offset="1" style="stop-color:#E81C27"/>
</radialGradient>
<path fill="url(#SVGID_1_)" d="M53.998,25.816c0,5.693,0.484-3.563-21.998-3.563c-22.484,0.002-22,9.256-22,3.563
	c0-14.041,9.85-21.604,22-21.604S53.998,11.775,53.998,25.816z"/>
<path fill="#E81C27" d="M38.057,21.34H25.943c0,0,0-13.201,0-16.133c0-4.275,12.113-4.275,12.113,0
	C38.057,8.449,38.057,21.34,38.057,21.34z"/>
<radialGradient id="SVGID_2_" cx="89.4854" cy="21.0557" r="14.9761" gradientTransform="matrix(1.0909 0 0 0.9959 -65.6198 0.2549)" gradientUnits="userSpaceOnUse">
	<stop  offset="0" style="stop-color:#747080"/>
	<stop  offset="1" style="stop-color:#302C3B"/>
	<a:midPointStop  offset="0" style="stop-color:#747080"/>
	<a:midPointStop  offset="0.5" style="stop-color:#747080"/>
	<a:midPointStop  offset="1" style="stop-color:#302C3B"/>
</radialGradient>
<path fill="url(#SVGID_2_)" d="M53.998,25.816c0-1.455-0.129-2.824-0.332-4.141c-3.861-4.078-12.113-6.895-21.67-6.895
	c-9.551,0-17.797,2.811-21.66,6.881C10.131,22.984,10,24.357,10,25.816c0,5.693-0.484-3.561,22-3.563
	C54.482,22.254,53.998,31.51,53.998,25.816z"/>
<path fill="#E81C27" d="M32,18.766c-13.256,0-24,5.416-24,12.102c0,2.832,1.938,5.439,5.178,7.5
	c-1.375-1.342-2.168-2.846-2.168-4.439c0-5.572,9.4-10.084,21-10.084c11.598,0,21,4.512,21,10.084c0,1.582-0.779,3.072-2.133,4.404
	C54.082,36.277,56,33.686,56,30.867C56,24.182,45.254,18.766,32,18.766z"/>
<path fill="#FFE12C" d="M37.949,10.846c-1.49-2.883-4.695-2.275-5.951-4.688c-1.254,2.412-4.461,1.805-5.949,4.688
	c-1.496,2.895,1.309,4.135-0.438,5.803c0,0,1.865,1.314,1.332,4.301c0,0,2.037-0.963,5.055,1.139
	c3.018-2.102,5.055-1.139,5.055-1.139c-0.531-2.986,1.334-4.301,1.334-4.301C36.641,14.98,39.445,13.74,37.949,10.846z"/>
<path fill="#302C3B" d="M35.299,17.986h-1.16v0.465h1.064v0.381h-1.064v0.564h1.213v0.393h-1.66v-2.191h1.607V17.986z"/>
<path fill="#302C3B" d="M28.646,17.6h1.561v0.383H29.1v0.506h0.973v0.381H29.1v0.918h-0.453V17.6z"/>
<path fill="#302C3B" d="M31.119,19.789h-0.457v-2.191h0.457V19.789z"/>
<path fill="#302C3B" d="M32.969,17.652c0.08,0.033,0.148,0.086,0.205,0.154c0.045,0.055,0.084,0.115,0.109,0.184
	c0.027,0.068,0.043,0.145,0.043,0.23c0,0.105-0.027,0.209-0.08,0.309s-0.139,0.17-0.26,0.213c0.1,0.039,0.172,0.098,0.213,0.174
	c0.043,0.074,0.066,0.189,0.066,0.342v0.146c0,0.1,0.002,0.168,0.01,0.205c0.012,0.059,0.041,0.098,0.084,0.127v0.053h-0.506
	c-0.012-0.047-0.023-0.088-0.029-0.117c-0.012-0.061-0.018-0.125-0.02-0.188l-0.004-0.205c0-0.141-0.025-0.232-0.072-0.279
	c-0.045-0.047-0.133-0.07-0.26-0.07H32.02v0.859h-0.445v-2.191h1.049C32.771,17.6,32.889,17.617,32.969,17.652z M32.02,17.977v0.59
	h0.494c0.098,0,0.172-0.014,0.221-0.037c0.086-0.041,0.131-0.123,0.131-0.244c0-0.133-0.043-0.223-0.127-0.268
	c-0.045-0.027-0.117-0.041-0.213-0.041H32.02z"/>
<path fill="#E81C27" d="M35.461,11.299c-0.838-0.84-2.037,0.387-2.385,0.463c0.074-0.35,1.301-1.549,0.463-2.389
	c-0.242-0.242-2.838-0.242-3.08,0c-0.838,0.84,0.387,2.039,0.461,2.389c-0.348-0.076-1.547-1.303-2.385-0.463
	c-0.242,0.244-0.242,2.836,0,3.08c0.838,0.836,2.037-0.387,2.385-0.463c-0.074,0.348-1.299,1.547-0.461,2.387
	c0.242,0.24,2.838,0.24,3.08,0c0.838-0.84-0.389-2.039-0.463-2.387c0.348,0.076,1.547,1.299,2.385,0.463
	C35.703,14.135,35.703,11.543,35.461,11.299z"/>
</svg>
