<?xml version="1.0" encoding="utf-8"?>
<!-- Generator: Adobe Illustrator 15.0.0, SVG Export Plug-In . SVG Version: 6.00 Build 0)  -->
<!DOCTYPE svg PUBLIC "-//W3C//DTD SVG 1.1//EN" "http://www.w3.org/Graphics/SVG/1.1/DTD/svg11.dtd" [
	<!ENTITY ns_flows "http://ns.adobe.com/Flows/1.0/">
	<!ENTITY ns_extend "http://ns.adobe.com/Extensibility/1.0/">
	<!ENTITY ns_ai "http://ns.adobe.com/AdobeIllustrator/10.0/">
	<!ENTITY ns_graphs "http://ns.adobe.com/Graphs/1.0/">
]>
<svg version="1.1" id="Layer_1" xmlns:x="&ns_extend;" xmlns:i="&ns_ai;" xmlns:graph="&ns_graphs;"
	 xmlns="http://www.w3.org/2000/svg" xmlns:xlink="http://www.w3.org/1999/xlink" xmlns:a="http://ns.adobe.com/AdobeSVGViewerExtensions/3.0/"
	 x="0px" y="0px" width="64px" height="64px" viewBox="0 0 64 64" enable-background="new 0 0 64 64" xml:space="preserve">
<path fill="#E6B045" d="M52.041,55.48c-0.563-3.246-4.917-6.438-6.237-4.146C43.452,55.414,52.364,57.345,52.041,55.48z"/>
<path fill="#7AB51D" d="M43.478,32.797c-7.695-5.117-15.259-5.117-22.957,0c-2.441,1.623-2.947,7.74-3.254,13.037l4.338,16.225
	h20.789l4.34-16.225C46.425,40.537,45.921,34.42,43.478,32.797z"/>
<path fill="#E6B045" d="M36.208,29.732c0-0.723,0-3.932,0-3.932h-8.417c0,0,0,3.16,0,3.932
	C27.791,33.963,36.208,33.963,36.208,29.732z"/>
<path fill="#E6B045" d="M21.291,14.73c-3.586-0.645-0.785,9.361,2.018,6.602C24.609,20.051,22.964,15.033,21.291,14.73z"/>
<path fill="#E6B045" d="M42.716,14.73c-1.676,0.303-3.32,5.32-2.02,6.602C43.501,24.092,46.296,14.086,42.716,14.73z"/>
<path fill="#FFCC66" d="M32.001,3c-7.408,0-10.977,5.598-10.529,13.381c0.09,1.566,1.061,6.674,1.979,8.506
	c0.939,1.873,4.08,4.764,6.004,5.361c1.215,0.379,3.876,0.379,5.093,0c1.924-0.598,5.066-3.488,6.004-5.361
	c0.92-1.832,1.889-6.939,1.979-8.506C42.979,8.598,39.409,3,32.001,3z"/>
<path fill="#E6A400" d="M32.001,24.189c-1.666-0.49-4.135,0.232-4.135,0.232c0.939,1.023,1.629,2.348,4.135,2.348
	c2.871,0,3.359-1.504,4.136-2.348C36.138,24.422,33.667,23.697,32.001,24.189z"/>
<path fill="#FFFFFF" d="M28.498,24.594c1.746,1.463,5.275,1.473,7.031,0C33.667,24.674,30.373,24.674,28.498,24.594z"/>
<path fill="#E6B045" d="M34.3,21.438c0,1.492-4.595,1.492-4.595,0C29.705,21.096,34.3,21.096,34.3,21.438z"/>
<path fill="#594640" d="M32.001,3c-5.096,0-8.176,1.68-9.504,1.035c0,0-0.143,0.867,0.377,1.434c0,0-0.549,0.475-1.436-0.326
	c-0.844,2.738,1.662,4.326,10.563,4.326c8.902,0,6.773-2.166,11.152,1.637C42.724,6.418,39.741,3,32.001,3z"/>
<path fill="#453631" d="M35.771,7.084c-4.9,1.809-6.691-1.453-11.316-1.768c2.201,1.037,3.273,2.635,5.078,3.785
	c-3.93-1.313-6.813-3.574-7.033-5.059c0,0-0.654,2.168,1.938,3.789c-2.479,0.229-2.996-2.682-2.996-2.682
	c-1.256,2.016-1.084,8.514,0.313,13.338c0.23-1.723-0.297-2.434,0.5-4.506c2.383-6.199,0.85-3.598,9.748-3.598
	c8.902,0,7.294-2.371,9.751,3.598c0.73,1.777,0.266,2.783,0.498,4.506C45.179,7.611,40.97,5.168,35.771,7.084z"/>
<path fill="#FFFFFF" d="M39.933,16.984c-0.99,2.588-5.018,2.207-5.754,0.395C34.737,14.471,39.388,14.223,39.933,16.984z"/>
<path fill="#FFFFFF" d="M24.07,16.984c0.99,2.588,5.018,2.207,5.754,0.395C29.265,14.469,24.615,14.221,24.07,16.984z"/>
<path fill="#C1873C" d="M40.343,13.867c-1.693-0.84-4.936-0.881-6.145-0.295c-0.258,0.113-0.088,0.908,0.131,0.834
	c1.684-0.625,4.398-0.639,5.975,0.053C40.515,14.547,40.601,13.984,40.343,13.867z"/>
<path fill="#C1873C" d="M23.66,13.867c1.693-0.84,4.936-0.881,6.145-0.295c0.26,0.113,0.088,0.908-0.129,0.834
	c-1.688-0.625-4.398-0.639-5.977,0.053C23.49,14.547,23.404,13.984,23.66,13.867z"/>
<path fill="#613F34" d="M35.206,16.707c0,2.271,3.289,2.271,3.289,0C38.495,14.6,35.206,14.6,35.206,16.707z"/>
<path fill="#7D5037" d="M35.53,17.434c0,1.305,2.639,1.305,2.639,0C38.169,16.225,35.53,16.225,35.53,17.434z"/>
<path fill="#1A1626" d="M36.167,16.744c0,0.941,1.365,0.941,1.365,0C37.532,15.867,36.167,15.867,36.167,16.744z"/>
<path fill="#AB968C" d="M35.7,16.469c0,0.475,0.689,0.475,0.689,0C36.39,16.025,35.7,16.025,35.7,16.469z"/>
<path fill="#613F34" d="M25.509,16.707c0,2.271,3.289,2.271,3.289,0C28.798,14.6,25.509,14.6,25.509,16.707z"/>
<path fill="#7D5037" d="M25.833,17.434c0,1.301,2.641,1.301,2.641,0C28.474,16.225,25.833,16.225,25.833,17.434z"/>
<path fill="#1A1626" d="M26.472,16.744c0,0.941,1.363,0.941,1.363,0C27.835,15.867,26.472,15.867,26.472,16.744z"/>
<path fill="#AB968C" d="M26.005,16.467c0,0.477,0.688,0.477,0.688,0C26.693,16.025,26.005,16.025,26.005,16.467z"/>
<path fill="#E6B045" d="M39.933,16.963c0-2.779-5.754-2.779-5.754,0.441C34.999,14.764,39.11,14.764,39.933,16.963z"/>
<path fill="#E6B045" d="M24.07,16.963c0-2.779,5.754-2.779,5.754,0.439C29.003,14.762,24.892,14.762,24.07,16.963z"/>
<path fill="#4ABDFF" d="M50.654,55.246c-4.816-3.131-10.578-3.101-15.402,0.001c-1.656,1.063-2.205,6.812-2.205,6.812H52.84
	C52.84,62.059,52.293,56.307,50.654,55.246z"/>
<path fill="#E6B045" d="M45.867,53.484c0-0.538,0-2.925,0-2.925h-5.85c0,0,0,2.351,0,2.925
	C40.018,55.851,45.867,55.851,45.867,53.484z"/>
<path fill="#594640" d="M42.941,32.043c-10.515,0-9.502,8.421-9.502,12.356h19.006C52.445,40.464,53.459,32.043,42.941,32.043z"/>
<path fill="#E6B045" d="M34.379,42.818c-3.339-0.511-1.162,7.4,1.451,5.218C37.037,47.026,35.939,43.057,34.379,42.818z"/>
<path fill="#E6B045" d="M51.506,42.818c-1.563,0.238-2.662,4.208-1.451,5.218C52.668,50.219,54.844,42.308,51.506,42.818z"/>
<path fill="#FFCC66" d="M51.396,42.65c0-5.614-3.32-4.364-8.455-4.364c-5.133,0-8.453-1.25-8.453,4.364c0,0,0.016,2.141,0.564,4.95
	c0.896,4.602,4.617,6.407,7.889,6.407s6.996-1.806,7.889-6.407C51.377,44.789,51.396,42.65,51.396,42.65z"/>
<path fill="#594640" d="M42.768,36.178c-1.535,2.734-7.289,4.446-9.268,4.268C35.293,38.639,36.086,33.98,42.768,36.178z"/>
<path fill="#453631" d="M33.5,40.445c2.52-0.656,5.791-1.996,9.268-4.268C41.232,38.912,36.18,41.071,33.5,40.445z"/>
<path fill="#594640" d="M50.529,36.031c-2.174,3.257-10.313,5.294-13.107,5.082C39.953,38.959,41.078,33.414,50.529,36.031z"/>
<path fill="#453631" d="M37.422,41.113c6.686-1.857,13.107-5.082,13.107-5.082C48.355,39.288,42.299,41.585,37.422,41.113z"/>
<path fill="#594640" d="M50.844,35.282c2.605,4.239-4.176,5.977-6.979,5.806C46.379,39.434,48.064,35.149,50.844,35.282z"/>
<path fill="#453631" d="M43.865,41.088c3.369-1.544,8.506-1.859,6.979-5.806C53.449,39.521,46.838,41.471,43.865,41.088z"/>
<path fill="#FFFFFF" d="M49.178,44.393c-0.777,2.035-3.943,1.737-4.523,0.313C45.094,42.418,48.752,42.222,49.178,44.393z"/>
<path fill="#613F34" d="M45.461,44.176c0,1.786,2.588,1.786,2.588,0C48.049,42.518,45.461,42.518,45.461,44.176z"/>
<path fill="#7D5037" d="M45.717,44.748c0,1.024,2.076,1.024,2.076,0C47.793,43.798,45.717,43.798,45.717,44.748z"/>
<path fill="#1A1626" d="M46.217,44.206c0,0.739,1.074,0.739,1.074,0C47.291,43.518,46.217,43.518,46.217,44.206z"/>
<path fill="#AB968C" d="M45.852,43.989c0,0.373,0.543,0.373,0.543,0C46.395,43.643,45.852,43.643,45.852,43.989z"/>
<path fill="#E6B045" d="M49.178,44.377c0-2.184-4.523-2.184-4.523,0.348C45.301,42.646,48.533,42.646,49.178,44.377z"/>
<path fill="#FFFFFF" d="M36.707,44.393c0.775,2.035,3.943,1.737,4.523,0.313C40.789,42.417,37.137,42.222,36.707,44.393z"/>
<path fill="#613F34" d="M37.838,44.176c0,1.786,2.586,1.786,2.586,0C40.424,42.518,37.838,42.518,37.838,44.176z"/>
<path fill="#7D5037" d="M38.094,44.746c0,1.026,2.074,1.026,2.074,0C40.168,43.798,38.094,43.798,38.094,44.746z"/>
<path fill="#1A1626" d="M38.594,44.204c0,0.741,1.074,0.741,1.074,0C39.668,43.516,38.594,43.516,38.594,44.204z"/>
<path fill="#AB968C" d="M38.227,43.987c0,0.375,0.541,0.375,0.541,0C38.768,43.64,38.227,43.64,38.227,43.987z"/>
<path fill="#E6B045" d="M36.707,44.377c0-2.184,4.523-2.184,4.523,0.346C40.584,42.646,37.352,42.646,36.707,44.377z"/>
<path fill="#C1873C" d="M49.596,42.161c-1.352-0.668-3.938-0.701-4.902-0.234c-0.203,0.091-0.068,0.727,0.105,0.664
	c1.344-0.496,3.508-0.509,4.766,0.043C49.73,42.706,49.803,42.257,49.596,42.161z"/>
<path fill="#C1873C" d="M36.287,42.161c1.354-0.668,3.939-0.701,4.904-0.234c0.203,0.091,0.066,0.727-0.104,0.664
	c-1.346-0.496-3.51-0.509-4.768,0.043C36.154,42.706,36.082,42.257,36.287,42.161z"/>
<path fill="#E6A400" d="M42.941,49.828c-1.328-0.391-3.299,0.185-3.299,0.185c0.754,0.817,1.301,1.874,3.299,1.874
	c2.291,0,2.68-1.201,3.299-1.874C46.24,50.013,44.27,49.435,42.941,49.828z"/>
<path fill="#FFFFFF" d="M40.148,50.151c1.393,1.167,4.207,1.175,5.605,0C44.27,50.214,41.645,50.216,40.148,50.151z"/>
<path fill="#E6B045" d="M44.773,48.08c0,1.19-3.662,1.19-3.662,0C41.111,47.806,44.773,47.806,44.773,48.08z"/>
<path fill="#E32B56" d="M29.503,54.728c-0.982-0.688-5.299-2.493-5.299-2.493h-4.797c0,0-4.318,1.81-5.307,2.494
	c-1.656,1.144-2.207,7.33-2.207,7.33h19.793C31.687,62.059,31.14,55.869,29.503,54.728z"/>
<path fill="#E6B045" d="M24.714,52.897c0-0.538,0-2.925,0-2.925h-5.85c0,0,0,2.351,0,2.925
	C18.865,55.264,24.714,55.264,24.714,52.897z"/>
<path fill="#594640" d="M14.285,43.995c-7.076,4.172-0.855,7.97-2.869,9.768C15.33,56.188,24.91,52.009,14.285,43.995z"/>
<path fill="#453631" d="M12.171,45.58c1.736,6.659,5.311,6.89,5.012,8.095C20.505,51.935,20.537,46.322,12.171,45.58z"/>
<path fill="#594640" d="M29.296,43.995c7.076,4.172,0.855,7.97,2.871,9.768C28.255,56.188,18.673,52.009,29.296,43.995z"/>
<path fill="#453631" d="M31.41,45.58c-1.734,6.659-5.311,6.89-5.01,8.095C23.078,51.935,23.044,46.322,31.41,45.58z"/>
<path fill="#594640" d="M12.113,43.827H31.46C34.276,28.705,9.296,28.705,12.113,43.827z"/>
<path fill="#453631" d="M12.087,43.641c0,0,11.016,4.105,18.652-0.651c-1.543,0.291-4.051-5.605-15.775-6.047
	C14.535,43.641,12.474,41.822,12.087,43.641z"/>
<path fill="#CFD8DD" d="M30.552,42.748c0.822-11.314-18.359-11.314-17.535,0C13.732,33.246,29.835,33.246,30.552,42.748z"/>
<path fill="#FFFFFF" d="M30.552,42.382c0.822-11.313-18.359-11.313-17.535,0C13.732,32.88,29.835,32.88,30.552,42.382z"/>
<path fill="#E6B045" d="M13.22,42.825c-3.336-0.506-1.162,7.364,1.451,5.193C15.884,47.012,14.785,43.063,13.22,42.825z"/>
<path fill="#E6B045" d="M30.349,42.825c-1.561,0.238-2.66,4.187-1.451,5.193C31.513,50.188,33.685,42.319,30.349,42.825z"/>
<path fill="#FFCC66" d="M30.24,42.844c-3.195-0.91-7.289-5.256-15.07-4.729c0.137,1.708-0.313,3.646-1.814,4.735
	c0,0-0.006,1.535,0.543,4.345c0.895,4.602,4.617,6.407,7.887,6.407c3.273,0,6.994-1.806,7.891-6.407
	C30.222,44.383,30.24,42.844,30.24,42.844z"/>
<path fill="#FFFFFF" d="M28.035,44.353c-0.777,2.036-3.943,1.738-4.525,0.313C23.951,42.377,27.607,42.182,28.035,44.353z"/>
<path fill="#613F34" d="M24.318,44.137c0,1.786,2.586,1.786,2.586,0C26.904,42.479,24.318,42.479,24.318,44.137z"/>
<path fill="#7D5037" d="M24.574,44.707c0,1.024,2.074,1.024,2.074,0C26.648,43.757,24.574,43.757,24.574,44.707z"/>
<path fill="#1A1626" d="M25.072,44.164c0,0.742,1.076,0.742,1.076,0C26.148,43.477,25.072,43.477,25.072,44.164z"/>
<path fill="#AB968C" d="M24.708,43.947c0,0.376,0.541,0.376,0.541,0C25.25,43.6,24.708,43.6,24.708,43.947z"/>
<path fill="#E6B045" d="M28.035,44.338c0-2.186-4.525-2.186-4.525,0.346C24.156,42.607,27.388,42.607,28.035,44.338z"/>
<path fill="#FFFFFF" d="M15.562,44.353c0.775,2.036,3.943,1.738,4.525,0.313C19.648,42.375,15.992,42.18,15.562,44.353z"/>
<path fill="#613F34" d="M16.695,44.137c0,1.784,2.586,1.784,2.586,0C19.281,42.479,16.695,42.479,16.695,44.137z"/>
<path fill="#7D5037" d="M16.951,44.707c0,1.022,2.072,1.022,2.072,0C19.023,43.757,16.951,43.757,16.951,44.707z"/>
<path fill="#1A1626" d="M17.449,44.164c0,0.74,1.074,0.74,1.074,0C18.523,43.477,17.449,43.477,17.449,44.164z"/>
<path fill="#AB968C" d="M17.083,43.947c0,0.374,0.543,0.374,0.543,0C17.626,43.6,17.083,43.6,17.083,43.947z"/>
<path fill="#E6B045" d="M15.562,44.338c0-2.186,4.525-2.186,4.525,0.346C19.443,42.605,16.207,42.605,15.562,44.338z"/>
<path fill="#C1873C" d="M28.453,42.122c-1.35-0.672-3.938-0.703-4.9-0.236c-0.207,0.091-0.07,0.726,0.105,0.666
	c1.34-0.498,3.504-0.509,4.764,0.043C28.587,42.665,28.658,42.215,28.453,42.122z"/>
<path fill="#C1873C" d="M15.142,42.122c1.354-0.672,3.939-0.703,4.904-0.236c0.207,0.091,0.068,0.726-0.104,0.666
	c-1.344-0.498-3.51-0.509-4.768,0.043C15.007,42.665,14.939,42.215,15.142,42.122z"/>
<path fill="#E6A400" d="M21.798,49.788c-1.328-0.391-3.299,0.185-3.299,0.185c0.75,0.814,1.303,1.875,3.299,1.875
	c2.289,0,2.682-1.201,3.299-1.875C25.097,49.973,23.125,49.396,21.798,49.788z"/>
<path fill="#FFFFFF" d="M19.001,50.11c1.395,1.169,4.211,1.175,5.611,0C23.125,50.174,20.5,50.174,19.001,50.11z"/>
<path fill="#E6B045" d="M23.632,48.038c0,1.19-3.666,1.19-3.666,0C19.966,47.765,23.632,47.765,23.632,48.038z"/>
<path fill="#FFCC66" d="M47.406,53.036c-1.614,0.012-4.026,2.17-2.333,2.126c-0.234,0.538-0.047,1.048,1.06,0.382
	c-0.341,0.563,0.522,0.71,1.093,0.394c0.127,1.163,2.136-0.062,2.888,0.119c1.077,0.258,1.361,0.505,1.561,0.296
	C53.126,54.833,50.082,53.01,47.406,53.036z"/>
<path fill="#FFCC66" d="M17.333,52.588c-2.676-0.025-5.72,1.797-4.268,3.316c0.199,0.209,0.483-0.037,1.561-0.295
	c0.752-0.182,2.761,1.043,2.888-0.119c0.57,0.316,1.434,0.168,1.093-0.395c1.106,0.666,1.294,0.156,1.06-0.381
	C21.36,54.758,18.948,52.6,17.333,52.588z"/>
</svg>
