<?xml version="1.0" encoding="utf-8"?>
<!-- Generator: Adobe Illustrator 15.0.0, SVG Export Plug-In . SVG Version: 6.00 Build 0)  -->
<!DOCTYPE svg PUBLIC "-//W3C//DTD SVG 1.1//EN" "http://www.w3.org/Graphics/SVG/1.1/DTD/svg11.dtd" [
	<!ENTITY ns_flows "http://ns.adobe.com/Flows/1.0/">
	<!ENTITY ns_extend "http://ns.adobe.com/Extensibility/1.0/">
	<!ENTITY ns_ai "http://ns.adobe.com/AdobeIllustrator/10.0/">
	<!ENTITY ns_graphs "http://ns.adobe.com/Graphs/1.0/">
]>
<svg version="1.1" id="Layer_1" xmlns:x="&ns_extend;" xmlns:i="&ns_ai;" xmlns:graph="&ns_graphs;"
	 xmlns="http://www.w3.org/2000/svg" xmlns:xlink="http://www.w3.org/1999/xlink" xmlns:a="http://ns.adobe.com/AdobeSVGViewerExtensions/3.0/"
	 x="0px" y="0px" width="64px" height="64px" viewBox="0 0 64 64" enable-background="new 0 0 64 64" xml:space="preserve">
<path fill="#3B2C29" d="M8.921,9.117c-5.443,23.344-4.943,22.848,6.52,22.848C9.099,27.529,21.247,8.801,8.921,9.117z"/>
<path fill="#453631" d="M6.96,8.756C2.985,26.492,6.413,31.047,9.458,31.965h3.49C4.782,26.217,17.544,8.408,6.96,8.756z"/>
<path fill="#3B2C29" d="M24.942,9.115c5.447,23.346,4.947,22.846-6.514,22.846C24.261,28.404,12.618,8.799,24.942,9.115z"/>
<path fill="#453631" d="M26.909,8.756c5.807,16.135-0.014,22.457-2.5,23.205h-3.49C29.083,26.686,16.323,8.406,26.909,8.756z"/>
<path fill="#594640" d="M27.874,17.428c1.684,4.102,0.018,12.52-3.465,14.537c3.859,0,6.211-5.34,7.357-12.682
	C33.198,10.109,24.876,10.105,27.874,17.428z"/>
<path fill="#594640" d="M2.53,20.986c1.406,6.623,3.137,10.979,6.928,10.979c-4.223-4.371-3.727-13.586-2.527-15.879
	C13.052,12.447,0.153,9.779,2.53,20.986z"/>
<path fill="#8E3ED6" d="M5.522,32.738c7.697-5.117,15.262-5.117,22.957,0c2.443,1.623,2.947,7.74,3.256,13.037h-4.34V62H6.606
	V45.775H2.269C2.575,40.479,3.081,34.361,5.522,32.738z"/>
<polygon fill="#732EB0" points="26.612,46.074 28.019,46.074 26.612,38.477 "/>
<path fill="#FFCC66" d="M26.612,62h4.023l1.1-16.225c0,0-2.563-0.658-5.123,0V62z"/>
<path fill="#E6B045" d="M12.792,29.674c0-0.723,0-3.932,0-3.932h8.418c0,0,0,3.16,0,3.932C21.21,33.904,12.792,33.904,12.792,29.674
	z"/>
<path fill="#FFCC66" d="M16.999,3.506c-7.256,0-10.75,5.902-10.313,13.492c0.09,1.525,0.516,3.725,1.037,5.611
	c1.09,3.918,6.832,7.865,9.275,7.865c2.447,0,8.188-3.947,9.279-7.865c0.523-1.887,0.945-4.086,1.039-5.611
	C27.751,9.408,24.257,3.506,16.999,3.506z"/>
<path fill="#D47706" d="M17.001,24.213c-1.764-0.773-1.775-0.029-4.5,0.154c1.023,1.158,1.775,2.648,4.498,2.648
	c3.129,0,3.656-1.693,4.502-2.648C18.778,24.184,18.767,23.439,17.001,24.213z"/>
<path fill="#FFFFFF" d="M13.321,24.654c1.775,1.848,5.607,1.824,7.361,0C17.948,24.949,16.054,24.949,13.321,24.654z"/>
<path fill="#594640" d="M24.995,14.24c-1.635-0.973-4.566-1.092-5.725-0.428c-0.248,0.133-0.182,0.838,0.033,0.748
	c1.652-0.688,4.174-0.723,5.729,0.074C25.241,14.74,25.245,14.383,24.995,14.24z"/>
<path fill="#594640" d="M9.005,14.24c1.633-0.973,4.568-1.092,5.729-0.428c0.248,0.133,0.182,0.838-0.033,0.748
	c-1.654-0.688-4.176-0.723-5.73,0.074C8.763,14.74,8.759,14.383,9.005,14.24z"/>
<path fill="#E6B045" d="M19.251,21.566c0,1.461-4.502,1.461-4.502,0C14.749,21.23,19.251,21.23,19.251,21.566z"/>
<path fill="#FFFFFF" d="M24.839,17.205c-0.971,2.533-4.912,2.162-5.635,0.389C19.751,14.742,24.308,14.498,24.839,17.205z"/>
<path fill="#613F34" d="M20.194,16.93c0,2.244,3.248,2.244,3.248,0C23.442,14.844,20.194,14.844,20.194,16.93z"/>
<path fill="#7D5037" d="M20.513,17.648c0,1.283,2.609,1.283,2.609,0C23.122,16.451,20.513,16.451,20.513,17.648z"/>
<path fill="#1A1626" d="M21.142,16.963c0,0.934,1.35,0.934,1.35,0C22.491,16.098,21.142,16.098,21.142,16.963z"/>
<path fill="#AB968C" d="M20.681,16.691c0,0.471,0.684,0.471,0.684,0C21.364,16.256,20.681,16.256,20.681,16.691z"/>
<path fill="#45332C" d="M24.839,17.186c0-2.723-5.635-2.723-5.635,0.432C20.009,15.029,24.036,15.029,24.839,17.186z"/>
<path fill="#FFFFFF" d="M9.163,17.205c0.969,2.533,4.912,2.164,5.637,0.389C14.255,14.742,9.696,14.498,9.163,17.205z"/>
<path fill="#613F34" d="M10.562,16.932c0,2.246,3.248,2.246,3.248,0C13.81,14.85,10.562,14.85,10.562,16.932z"/>
<path fill="#7D5037" d="M10.882,17.65c0,1.285,2.607,1.285,2.607,0C13.489,16.457,10.882,16.457,10.882,17.65z"/>
<path fill="#1A1626" d="M11.511,16.967c0,0.932,1.35,0.932,1.35,0C12.86,16.102,11.511,16.102,11.511,16.967z"/>
<path fill="#AB968C" d="M11.048,16.695c0,0.471,0.682,0.471,0.682,0C11.729,16.26,11.048,16.26,11.048,16.695z"/>
<path fill="#45332C" d="M9.163,17.186c0-2.723,5.637-2.723,5.637,0.43C13.995,15.027,9.968,15.027,9.163,17.186z"/>
<path fill="#594640" d="M25.108,4.563c-5.088,5.207-0.232,5.543,2.766,12.865c1.684,4.102,2.746,9.197,3.893,1.855
	C33.198,10.109,27.692,3.795,25.108,4.563z"/>
<path fill="#594640" d="M12.618,2.568C6.167,4.084,0.153,9.779,2.53,20.986c1.406,6.623,3.201-2.607,4.4-4.9
	c6.121-3.639,16.586-6.393,18.178-11.523C25.915,3.379,19.075,0.879,12.618,2.568z"/>
<path fill="#453631" d="M7.679,10.732c2.727-0.553,15.779-0.814,17.43-6.17C22.024,7.018,18.829,7.688,7.679,10.732z"/>
<path fill="#453631" d="M2.972,19.252c4.576-6.104,19.572-5.43,22.137-14.689C20.13,12.334,4.222,13.387,2.972,19.252z"/>
<path fill="#453631" d="M23.599,5.832c-1.182,1.859,2.924-0.873,7.35,11.104C29.856,9.934,26.12,5.113,23.599,5.832z"/>
<path fill="#3B2C29" d="M38.921,9.117c-5.443,23.344-4.943,22.848,6.52,22.848C39.099,27.529,51.247,8.801,38.921,9.117z"/>
<path fill="#453631" d="M36.96,8.756c-3.975,17.736-0.547,22.291,2.498,23.209h3.49C34.782,26.217,47.544,8.408,36.96,8.756z"/>
<path fill="#3B2C29" d="M54.942,9.115c5.447,23.346,4.947,22.846-6.514,22.846C54.261,28.404,42.618,8.799,54.942,9.115z"/>
<path fill="#453631" d="M56.909,8.756c5.807,16.135-0.014,22.457-2.5,23.205h-3.49C59.083,26.686,46.323,8.406,56.909,8.756z"/>
<path fill="#594640" d="M57.874,17.428c1.684,4.102,0.018,12.52-3.465,14.537c3.859,0,6.211-5.34,7.357-12.682
	C63.198,10.109,54.876,10.105,57.874,17.428z"/>
<path fill="#594640" d="M32.53,20.986c1.406,6.623,3.137,10.979,6.928,10.979c-4.223-4.371-3.727-13.586-2.527-15.879
	C43.052,12.447,30.153,9.779,32.53,20.986z"/>
<path fill="#8E3ED6" d="M58.478,32.738c-7.695-5.117-15.26-5.117-22.957,0c-2.441,1.623-2.947,7.74-3.254,13.037h4.338V62h20.789
	V45.775h4.34C61.425,40.479,60.921,34.361,58.478,32.738z"/>
<polygon fill="#732EB0" points="54.61,50.074 56.61,45.775 56.61,38.477 "/>
<polygon fill="#732EB0" points="9.392,50.059 7.392,45.775 7.392,38.461 "/>
<polygon fill="#732EB0" points="37.39,46.074 35.981,46.074 37.39,38.477 "/>
<path fill="#FFCC66" d="M37.39,62h-4.025l-1.098-16.225c0,0,2.561-0.658,5.123,0V62z"/>
<path fill="#E6B045" d="M51.208,29.674c0-0.723,0-3.932,0-3.932H42.79c0,0,0,3.16,0,3.932C42.79,33.904,51.208,33.904,51.208,29.674
	z"/>
<path fill="#FFCC66" d="M46.999,3.506c-7.256,0-10.75,5.902-10.313,13.492c0.09,1.525,0.516,3.725,1.037,5.611
	c1.09,3.918,6.832,7.865,9.275,7.865c2.447,0,8.188-3.947,9.279-7.865c0.523-1.887,0.945-4.086,1.039-5.611
	C57.751,9.408,54.257,3.506,46.999,3.506z"/>
<path fill="#D47706" d="M47.001,24.213c-1.764-0.773-1.775-0.029-4.5,0.154c1.023,1.158,1.775,2.648,4.498,2.648
	c3.129,0,3.656-1.693,4.502-2.648C48.778,24.184,48.767,23.439,47.001,24.213z"/>
<path fill="#FFFFFF" d="M43.321,24.654c1.775,1.848,5.607,1.824,7.361,0C47.948,24.949,46.054,24.949,43.321,24.654z"/>
<path fill="#594640" d="M54.995,14.24c-1.635-0.973-4.566-1.092-5.725-0.428c-0.248,0.133-0.182,0.838,0.033,0.748
	c1.652-0.688,4.174-0.723,5.729,0.074C55.241,14.74,55.245,14.383,54.995,14.24z"/>
<path fill="#594640" d="M39.005,14.24c1.633-0.973,4.568-1.092,5.729-0.428c0.248,0.133,0.182,0.838-0.033,0.748
	c-1.654-0.688-4.176-0.723-5.73,0.074C38.763,14.74,38.759,14.383,39.005,14.24z"/>
<path fill="#E6B045" d="M49.251,21.566c0,1.461-4.502,1.461-4.502,0C44.749,21.23,49.251,21.23,49.251,21.566z"/>
<path fill="#FFFFFF" d="M54.839,17.205c-0.971,2.533-4.912,2.162-5.635,0.389C49.751,14.742,54.308,14.498,54.839,17.205z"/>
<path fill="#613F34" d="M50.194,16.93c0,2.244,3.248,2.244,3.248,0C53.442,14.844,50.194,14.844,50.194,16.93z"/>
<path fill="#7D5037" d="M50.513,17.648c0,1.283,2.609,1.283,2.609,0C53.122,16.451,50.513,16.451,50.513,17.648z"/>
<path fill="#1A1626" d="M51.142,16.963c0,0.934,1.35,0.934,1.35,0C52.491,16.098,51.142,16.098,51.142,16.963z"/>
<path fill="#AB968C" d="M50.681,16.691c0,0.471,0.684,0.471,0.684,0C51.364,16.256,50.681,16.256,50.681,16.691z"/>
<path fill="#45332C" d="M54.839,17.186c0-2.723-5.635-2.723-5.635,0.432C50.009,15.029,54.036,15.029,54.839,17.186z"/>
<path fill="#FFFFFF" d="M39.163,17.205c0.969,2.533,4.912,2.164,5.637,0.389C44.255,14.742,39.696,14.498,39.163,17.205z"/>
<path fill="#613F34" d="M40.562,16.932c0,2.246,3.248,2.246,3.248,0C43.81,14.85,40.562,14.85,40.562,16.932z"/>
<path fill="#7D5037" d="M40.882,17.65c0,1.285,2.607,1.285,2.607,0C43.489,16.457,40.882,16.457,40.882,17.65z"/>
<path fill="#1A1626" d="M41.511,16.967c0,0.932,1.35,0.932,1.35,0C42.86,16.102,41.511,16.102,41.511,16.967z"/>
<path fill="#AB968C" d="M41.048,16.695c0,0.471,0.682,0.471,0.682,0C41.729,16.26,41.048,16.26,41.048,16.695z"/>
<path fill="#45332C" d="M39.163,17.186c0-2.723,5.637-2.723,5.637,0.43C43.995,15.027,39.968,15.027,39.163,17.186z"/>
<path fill="#594640" d="M55.108,4.563c-5.088,5.207-0.232,5.543,2.766,12.865c1.684,4.102,2.746,9.197,3.893,1.855
	C63.198,10.109,57.692,3.795,55.108,4.563z"/>
<path fill="#594640" d="M42.618,2.568C36.167,4.084,30.153,9.779,32.53,20.986c1.406,6.623,3.201-2.607,4.4-4.9
	c6.121-3.639,16.586-6.393,18.178-11.523C55.915,3.379,49.075,0.879,42.618,2.568z"/>
<path fill="#453631" d="M37.679,10.732c2.727-0.553,15.779-0.814,17.43-6.17C52.024,7.018,48.829,7.688,37.679,10.732z"/>
<path fill="#453631" d="M32.972,19.252c4.576-6.104,19.572-5.43,22.137-14.689C50.13,12.334,34.222,13.387,32.972,19.252z"/>
<path fill="#453631" d="M53.599,5.832c-1.182,1.859,2.924-0.873,7.35,11.104C59.856,9.934,56.12,5.113,53.599,5.832z"/>
<path fill="#4ABDFF" d="M50.36,55.188c-4.816-3.131-10.578-3.101-15.402,0.001C33.302,56.251,32.753,62,32.753,62h19.793
	C52.546,62,51.999,56.248,50.36,55.188z"/>
<path fill="#E6B045" d="M45.573,53.426c0-0.538,0-2.925,0-2.925h-5.85c0,0,0,2.351,0,2.925
	C39.724,55.792,45.573,55.792,45.573,53.426z"/>
<path fill="#594640" d="M42.647,31.984c-10.516,0-9.502,8.421-9.502,12.356h19.006C52.151,40.405,53.165,31.984,42.647,31.984z"/>
<path fill="#E6B045" d="M34.085,42.76c-3.34-0.511-1.162,7.4,1.451,5.218C36.743,46.968,35.646,42.998,34.085,42.76z"/>
<path fill="#E6B045" d="M51.212,42.76c-1.563,0.238-2.662,4.208-1.451,5.218C52.374,50.16,54.55,42.249,51.212,42.76z"/>
<path fill="#FFCC66" d="M51.103,42.592c0-5.614-3.32-4.364-8.455-4.364c-5.133,0-8.453-1.25-8.453,4.364c0,0,0.016,2.141,0.564,4.95
	c0.896,4.602,4.617,6.407,7.889,6.407s6.996-1.806,7.889-6.407C51.083,44.73,51.103,42.592,51.103,42.592z"/>
<path fill="#594640" d="M42.474,36.119c-1.535,2.734-7.289,4.446-9.268,4.268C34.999,38.58,35.792,33.922,42.474,36.119z"/>
<path fill="#453631" d="M33.206,40.387c2.52-0.656,5.791-1.996,9.268-4.268C40.938,38.854,35.886,41.013,33.206,40.387z"/>
<path fill="#594640" d="M50.235,35.973c-2.174,3.257-10.313,5.294-13.107,5.082C39.659,38.9,40.784,33.355,50.235,35.973z"/>
<path fill="#453631" d="M37.128,41.055c6.686-1.857,13.107-5.082,13.107-5.082C48.062,39.229,42.005,41.526,37.128,41.055z"/>
<path fill="#594640" d="M50.55,35.224c2.605,4.239-4.176,5.977-6.979,5.806C46.085,39.375,47.771,35.091,50.55,35.224z"/>
<path fill="#453631" d="M43.571,41.029c3.369-1.544,8.506-1.859,6.979-5.806C53.155,39.463,46.544,41.412,43.571,41.029z"/>
<path fill="#FFFFFF" d="M48.884,44.334c-0.777,2.035-3.943,1.737-4.523,0.313C44.8,42.359,48.458,42.163,48.884,44.334z"/>
<path fill="#613F34" d="M45.167,44.117c0,1.786,2.588,1.786,2.588,0C47.755,42.459,45.167,42.459,45.167,44.117z"/>
<path fill="#7D5037" d="M45.423,44.689c0,1.024,2.076,1.024,2.076,0C47.499,43.739,45.423,43.739,45.423,44.689z"/>
<path fill="#1A1626" d="M45.923,44.147c0,0.739,1.074,0.739,1.074,0C46.997,43.459,45.923,43.459,45.923,44.147z"/>
<path fill="#AB968C" d="M45.558,43.931c0,0.373,0.543,0.373,0.543,0C46.101,43.584,45.558,43.584,45.558,43.931z"/>
<path fill="#E6B045" d="M48.884,44.318c0-2.184-4.523-2.184-4.523,0.348C45.007,42.588,48.239,42.588,48.884,44.318z"/>
<path fill="#FFFFFF" d="M36.413,44.334c0.775,2.035,3.943,1.737,4.523,0.313C40.495,42.358,36.843,42.163,36.413,44.334z"/>
<path fill="#613F34" d="M37.544,44.117c0,1.786,2.586,1.786,2.586,0C40.13,42.459,37.544,42.459,37.544,44.117z"/>
<path fill="#7D5037" d="M37.8,44.688c0,1.026,2.074,1.026,2.074,0C39.874,43.739,37.8,43.739,37.8,44.688z"/>
<path fill="#1A1626" d="M38.3,44.146c0,0.741,1.074,0.741,1.074,0C39.374,43.457,38.3,43.457,38.3,44.146z"/>
<path fill="#AB968C" d="M37.933,43.929c0,0.375,0.541,0.375,0.541,0C38.474,43.581,37.933,43.581,37.933,43.929z"/>
<path fill="#E6B045" d="M36.413,44.318c0-2.184,4.523-2.184,4.523,0.346C40.29,42.588,37.058,42.588,36.413,44.318z"/>
<path fill="#C1873C" d="M49.302,42.103c-1.352-0.668-3.938-0.701-4.902-0.234c-0.203,0.091-0.068,0.727,0.105,0.664
	c1.344-0.496,3.508-0.509,4.766,0.043C49.437,42.647,49.509,42.198,49.302,42.103z"/>
<path fill="#C1873C" d="M35.993,42.103c1.354-0.668,3.939-0.701,4.904-0.234c0.203,0.091,0.066,0.727-0.104,0.664
	c-1.346-0.496-3.51-0.509-4.768,0.043C35.86,42.647,35.788,42.198,35.993,42.103z"/>
<path fill="#E6A400" d="M42.647,49.77c-1.328-0.391-3.299,0.185-3.299,0.185c0.754,0.817,1.301,1.874,3.299,1.874
	c2.291,0,2.68-1.201,3.299-1.874C45.946,49.954,43.976,49.376,42.647,49.77z"/>
<path fill="#FFFFFF" d="M39.854,50.093c1.393,1.167,4.207,1.175,5.605,0C43.976,50.155,41.351,50.157,39.854,50.093z"/>
<path fill="#E6B045" d="M44.479,48.021c0,1.19-3.662,1.19-3.662,0C40.817,47.747,44.479,47.747,44.479,48.021z"/>
<path fill="#E32B56" d="M29.208,54.669c-0.982-0.688-5.299-2.493-5.299-2.493h-4.797c0,0-4.318,1.81-5.307,2.494
	C12.149,55.813,11.599,62,11.599,62h19.793C31.392,62,30.845,55.811,29.208,54.669z"/>
<path fill="#E6B045" d="M24.419,52.839c0-0.538,0-2.925,0-2.925h-5.85c0,0,0,2.351,0,2.925
	C18.569,55.205,24.419,55.205,24.419,52.839z"/>
<path fill="#594640" d="M13.989,43.937c-7.076,4.172-0.855,7.97-2.869,9.768C15.034,56.13,24.614,51.95,13.989,43.937z"/>
<path fill="#453631" d="M11.876,45.521c1.736,6.659,5.311,6.89,5.012,8.095C20.21,51.876,20.241,46.264,11.876,45.521z"/>
<path fill="#594640" d="M29.001,43.937c7.076,4.172,0.855,7.97,2.871,9.768C27.96,56.13,18.378,51.95,29.001,43.937z"/>
<path fill="#453631" d="M31.114,45.521c-1.734,6.659-5.311,6.89-5.01,8.095C22.782,51.876,22.749,46.264,31.114,45.521z"/>
<path fill="#594640" d="M11.817,43.769h19.348C33.981,28.646,9.001,28.646,11.817,43.769z"/>
<path fill="#453631" d="M11.792,43.582c0,0,11.016,4.105,18.652-0.651c-1.543,0.291-4.051-5.605-15.775-6.047
	C14.239,43.582,12.179,41.764,11.792,43.582z"/>
<path fill="#CFD8DD" d="M30.257,42.689c0.822-11.314-18.359-11.314-17.535,0C13.437,33.188,29.54,33.188,30.257,42.689z"/>
<path fill="#FFFFFF" d="M30.257,42.323c0.822-11.313-18.359-11.313-17.535,0C13.437,32.821,29.54,32.821,30.257,42.323z"/>
<path fill="#E6B045" d="M12.925,42.767c-3.336-0.506-1.162,7.364,1.451,5.193C15.589,46.953,14.489,43.005,12.925,42.767z"/>
<path fill="#E6B045" d="M30.054,42.767c-1.561,0.238-2.66,4.187-1.451,5.193C31.218,50.129,33.39,42.261,30.054,42.767z"/>
<path fill="#FFCC66" d="M29.944,42.785c-3.195-0.91-7.289-5.256-15.07-4.729c0.137,1.708-0.313,3.646-1.814,4.735
	c0,0-0.006,1.535,0.543,4.345c0.895,4.602,4.617,6.407,7.887,6.407c3.273,0,6.994-1.806,7.891-6.407
	C29.927,44.324,29.944,42.785,29.944,42.785z"/>
<path fill="#FFFFFF" d="M27.739,44.294c-0.777,2.036-3.943,1.738-4.525,0.313C23.655,42.318,27.312,42.123,27.739,44.294z"/>
<path fill="#613F34" d="M24.022,44.078c0,1.786,2.586,1.786,2.586,0C26.608,42.42,24.022,42.42,24.022,44.078z"/>
<path fill="#7D5037" d="M24.278,44.648c0,1.024,2.074,1.024,2.074,0C26.353,43.698,24.278,43.698,24.278,44.648z"/>
<path fill="#1A1626" d="M24.776,44.105c0,0.742,1.076,0.742,1.076,0C25.853,43.418,24.776,43.418,24.776,44.105z"/>
<path fill="#AB968C" d="M24.413,43.889c0,0.376,0.541,0.376,0.541,0C24.954,43.541,24.413,43.541,24.413,43.889z"/>
<path fill="#E6B045" d="M27.739,44.279c0-2.186-4.525-2.186-4.525,0.346C23.86,42.549,27.093,42.549,27.739,44.279z"/>
<path fill="#FFFFFF" d="M15.267,44.294c0.775,2.036,3.943,1.738,4.525,0.313C19.353,42.316,15.696,42.121,15.267,44.294z"/>
<path fill="#613F34" d="M16.399,44.078c0,1.784,2.586,1.784,2.586,0C18.985,42.42,16.399,42.42,16.399,44.078z"/>
<path fill="#7D5037" d="M16.655,44.648c0,1.022,2.072,1.022,2.072,0C18.728,43.698,16.655,43.698,16.655,44.648z"/>
<path fill="#1A1626" d="M17.153,44.105c0,0.74,1.074,0.74,1.074,0C18.228,43.418,17.153,43.418,17.153,44.105z"/>
<path fill="#AB968C" d="M16.788,43.889c0,0.374,0.543,0.374,0.543,0C17.331,43.541,16.788,43.541,16.788,43.889z"/>
<path fill="#E6B045" d="M15.267,44.279c0-2.186,4.525-2.186,4.525,0.346C19.147,42.547,15.911,42.547,15.267,44.279z"/>
<path fill="#C1873C" d="M28.157,42.063c-1.35-0.672-3.938-0.703-4.9-0.236c-0.207,0.091-0.07,0.726,0.105,0.666
	c1.34-0.498,3.504-0.509,4.764,0.043C28.292,42.606,28.362,42.156,28.157,42.063z"/>
<path fill="#C1873C" d="M14.847,42.063c1.354-0.672,3.939-0.703,4.904-0.236c0.207,0.091,0.068,0.726-0.104,0.666
	c-1.344-0.498-3.51-0.509-4.768,0.043C14.712,42.606,14.644,42.156,14.847,42.063z"/>
<path fill="#E6A400" d="M21.503,49.729c-1.328-0.391-3.299,0.185-3.299,0.185c0.75,0.814,1.303,1.875,3.299,1.875
	c2.289,0,2.682-1.201,3.299-1.875C24.802,49.914,22.829,49.337,21.503,49.729z"/>
<path fill="#FFFFFF" d="M18.706,50.052c1.395,1.169,4.211,1.175,5.611,0C22.829,50.115,20.204,50.115,18.706,50.052z"/>
<path fill="#E6B045" d="M23.337,47.979c0,1.19-3.666,1.19-3.666,0C19.671,47.706,23.337,47.706,23.337,47.979z"/>
<path fill="#FFCC66" d="M12.103,57.492c0.805,0.49,2.559-2.121,1.822-2.713c-4.498-3.604-6.533-9.004-6.533-9.004
	c-2.283-0.691-5.123,0-5.123,0C2.56,51.141,8.183,55.1,12.103,57.492z"/>
<path fill="#FFCC66" d="M15.628,53.645c1.666-0.393,4.768,1.096,3.01,1.477c0.395,0.463,0.348,1.004-0.982,0.637
	c0.51,0.459-0.338,0.818-1.016,0.654c0.201,1.16-2.217,0.477-2.941,0.84c-1.035,0.52-1.258,0.83-1.523,0.678
	C10.245,56.82,12.862,54.291,15.628,53.645z"/>
<path fill="#FFCC66" d="M51.899,57.492c-0.807,0.49-2.559-2.121-1.822-2.713c4.496-3.604,6.533-9.004,6.533-9.004
	c2.283-0.691,5.123,0,5.123,0C61.442,51.141,55.819,55.1,51.899,57.492z"/>
<path fill="#FFCC66" d="M48.374,53.645c-1.666-0.393-4.768,1.096-3.01,1.477c-0.396,0.463-0.348,1.004,0.982,0.637
	c-0.512,0.459,0.336,0.818,1.014,0.654c-0.201,1.16,2.219,0.477,2.941,0.84c1.037,0.52,1.26,0.83,1.523,0.678
	C53.755,56.82,51.14,54.291,48.374,53.645z"/>
</svg>
