<?xml version="1.0" encoding="utf-8"?>
<!-- Generator: Adobe Illustrator 19.0.0, SVG Export Plug-In . SVG Version: 6.00 Build 0)  -->
<svg version="1.1" id="Layer_1" xmlns="http://www.w3.org/2000/svg" xmlns:xlink="http://www.w3.org/1999/xlink" x="0px" y="0px"
	 width="64px" height="64px" viewBox="0 0 64 64" enable-background="new 0 0 64 64" xml:space="preserve">
<path fill="#E6EBEF" d="M9.789,50.424c2.699-1.707,13.906-6.217,13.906-6.217h16.695c0,0,11.197,4.499,13.882,6.214
	C58.177,52.905,59,62,59,62H5C5,62,5.87,52.896,9.789,50.424"/>
<path fill="#CFD7DC" d="M10.451,62c0.628-2.291-0.112-5.778-0.895-7.697C8.829,52.515,9.102,60.74,10.451,62"/>
<path fill="#CFD7DC" d="M53.549,62c-0.628-2.291,0.109-5.778,0.893-7.697C55.169,52.515,54.895,60.74,53.549,62"/>
<path fill="#302C3B" d="M47.379,54.747c-0.951-6.022-3.851-9.916-8.62-11.573c-7.731-2.685-20.891,1.25-21.168,4.984l-1.275-0.186
	c0-4.67,14.685-8.605,22.808-5.785c5.173,1.797,8.31,5.969,9.324,12.4L47.379,54.747z"/>
<path fill="#CFD8DD" d="M47.912,53.619c2.384,0,4.32,1.878,4.32,4.191S50.296,62,47.912,62c-2.385,0-4.319-1.876-4.319-4.189
	S45.527,53.619,47.912,53.619"/>
<path fill="#4E5E67" d="M47.912,54.667c1.791,0,3.238,1.405,3.238,3.145c0,1.735-1.447,3.141-3.238,3.141
	c-1.79,0-3.241-1.405-3.241-3.141C44.671,56.072,46.122,54.667,47.912,54.667"/>
<path fill="#BEC3CF" d="M47.912,55.19c1.492,0,2.699,1.173,2.699,2.621c0,1.447-1.207,2.617-2.699,2.617
	c-1.492,0-2.701-1.17-2.701-2.617C45.211,56.363,46.42,55.19,47.912,55.19"/>
<rect x="24.162" y="40" fill="#946346" width="15.674" height="11.037"/>
<path fill="#018BC9" d="M39.02,47.51c-2.153,1.104-4.537,1.737-7.02,1.737c-2.48,0-4.866-0.633-7.02-1.74L32,62L39.02,47.51z"/>
<path fill="#BEC3CF" d="M22.025,44.73c-2.127,6.393-1.136,10.475-1.136,10.475c1.791-1.605,5.31-3.376,5.31-3.378
	c-1.274,1.79-2.284,4.73-2.284,4.73C27.735,57.163,32,62,32,62S26.064,44.991,22.025,44.73z"/>
<path fill="#E6EBEF" d="M24.681,41.429c0,0-1.049-0.432-1.495,0.376c-2.631,4.801-1.755,11.589-1.755,11.589
	c1.791-1.604,5.367-2.078,5.369-2.08c-1.275,1.79-1.819,3.806-1.819,3.806C27.678,56.384,32,62,32,62S28.392,51.614,24.681,41.429z"
	/>
<path fill="#BEC3CF" d="M41.973,44.73c2.127,6.393,1.138,10.475,1.138,10.475c-1.791-1.605-5.31-3.376-5.311-3.378
	c1.275,1.79,2.286,4.73,2.286,4.73C36.265,57.163,32,62,32,62S37.933,44.991,41.973,44.73z"/>
<path fill="#E6EBEF" d="M39.319,41.429c0,0,1.049-0.432,1.495,0.376c2.631,4.801,1.755,11.589,1.755,11.589
	c-1.791-1.604-5.369-2.078-5.369-2.08c1.273,1.79,1.819,3.806,1.819,3.806C36.319,56.384,32,62,32,62S35.607,51.614,39.319,41.429z"
	/>
<path fill="#302C3B" d="M22.643,53.257h-1.274c-0.002-2.39-2.004-4.332-4.468-4.332c-2.462-0.001-4.466,1.943-4.468,4.332H11.16
	c0-3.069,2.575-5.569,5.741-5.57C20.068,47.686,22.645,50.188,22.643,53.257"/>
<path fill="#99A8AE" d="M11.16,53.257l-0.002,6.566c0.002,1.188,0.618,2.057,1.915,2.148c0.822,0.059,0.814-1.181-0.003-1.238
	c-0.853-0.06-0.635-1.058-0.635-1.639l-0.002-5.838C12.436,52.459,11.158,52.459,11.16,53.257"/>
<path fill="#99A8AE" d="M21.369,53.257v5.66c-0.002,0.594,0.256,1.753-0.638,1.816c-0.816,0.058-0.822,1.297,0,1.238
	c1.22-0.086,1.912-0.892,1.913-2.05l-0.001-6.665C22.645,52.458,21.369,52.459,21.369,53.257"/>
<path fill="#302C3B" d="M13.934,61.975l-0.933-0.001c-0.817,0-0.815-1.363,0-1.362l0.933,0.002
	C14.753,60.61,14.753,61.974,13.934,61.975z"/>
<path fill="#302C3B" d="M20.802,61.974h-0.93c-0.821,0-0.821-1.362-0.002-1.362l0.932,0.002
	C21.62,60.611,21.62,61.974,20.802,61.974z"/>
<path fill="#946346" d="M14.9,20.749c-5.718-1.031-1.252,14.957,3.225,10.547C20.198,29.252,17.575,21.232,14.9,20.749z"/>
<path fill="#946346" d="M49.1,20.749c-2.675,0.483-5.299,8.503-3.224,10.547C50.354,35.706,54.815,19.718,49.1,20.749z"/>
<path fill="#B88A6F" d="M32,2.001c-11.823,0-17.521,8.945-16.807,21.384c0.144,2.503,1.693,10.665,3.158,13.593
	c1.499,2.995,6.512,7.614,9.584,8.57c1.94,0.604,6.189,0.604,8.128,0c3.072-0.956,8.086-5.575,9.585-8.57
	c1.466-2.928,3.016-11.09,3.158-13.593C49.521,10.946,43.825,2.001,32,2.001z"/>
<path fill="#80553C" d="M32,35.862c-2.66-0.782-6.6,0.37-6.6,0.37c1.501,1.635,2.601,3.756,6.6,3.756c4.582,0,5.36-2.407,6.6-3.756
	C38.6,36.232,34.656,35.076,32,35.862z"/>
<path fill="#FFFFFF" d="M26.407,36.509c2.786,2.34,8.418,2.354,11.221,0C34.656,36.637,29.399,36.638,26.407,36.509z"/>
<path fill="#946346" d="M35.667,31.465c0,2.386-7.333,2.386-7.333,0C28.334,30.917,35.667,30.917,35.667,31.465z"/>
<path fill="#875B49" d="M32,2c-8.134,0-13.049,2.688-15.168,1.655c0,0-0.231,1.388,0.601,2.291c0,0-0.877,0.758-2.292-0.521
	C13.793,9.802,17.793,12.338,32,12.338c14.207,0,10.813-3.46,17.797,2.616C49.112,7.465,44.354,2,32,2z"/>
<path fill="#6B4435" d="M38.016,8.529c-7.821,2.888-10.682-2.321-18.06-2.824c3.509,1.657,5.223,4.208,8.104,6.049
	c-6.272-2.101-10.877-5.712-11.226-8.085c0,0-1.047,3.464,3.093,6.053c-3.958,0.367-4.784-4.283-4.784-4.283
	c-2.005,3.221-1.727,13.607,0.5,21.313c0.371-2.75-0.476-3.887,0.796-7.201c3.805-9.904,1.357-5.745,15.563-5.745
	c14.206,0,11.642-3.793,15.562,5.745c1.169,2.844,0.425,4.451,0.798,7.201C53.032,9.374,46.314,5.467,38.016,8.529z"/>
<path fill="#FFFFFF" d="M44.658,24.347c-1.579,4.136-8.007,3.529-9.185,0.635C36.367,20.332,43.791,19.934,44.658,24.347z"/>
<path fill="#FFFFFF" d="M19.34,24.347c1.58,4.136,8.01,3.529,9.185,0.635C27.632,20.33,20.21,19.933,19.34,24.347z"/>
<path fill="#80553C" d="M45.314,19.368c-2.704-1.342-7.879-1.407-9.807-0.472c-0.412,0.182-0.141,1.454,0.208,1.332
	c2.687-0.995,7.019-1.019,9.534,0.086C45.585,20.456,45.725,19.557,45.314,19.368z"/>
<path fill="#80553C" d="M18.685,19.368c2.704-1.342,7.878-1.407,9.807-0.472c0.413,0.182,0.141,1.454-0.206,1.332
	c-2.691-0.995-7.021-1.019-9.537,0.086C18.415,20.456,18.276,19.557,18.685,19.368z"/>
<path fill="#613F34" d="M37.113,23.906c0,3.629,5.25,3.629,5.25,0C42.363,20.537,37.113,20.537,37.113,23.906z"/>
<path fill="#7D5037" d="M37.633,25.067c0,2.081,4.212,2.081,4.212,0C41.845,23.136,37.633,23.136,37.633,25.067z"/>
<path fill="#1A1626" d="M38.648,23.963c0,1.507,2.18,1.507,2.18,0C40.828,22.565,38.648,22.565,38.648,23.963z"/>
<path fill="#AB968C" d="M37.905,23.523c0,0.761,1.101,0.761,1.101,0C39.006,22.817,37.905,22.817,37.905,23.523z"/>
<path fill="#613F34" d="M21.637,23.905c0,3.63,5.25,3.63,5.25,0C26.887,20.536,21.637,20.536,21.637,23.905z"/>
<path fill="#7D5037" d="M22.156,25.066c0,2.081,4.211,2.081,4.211,0C26.367,23.135,22.156,23.135,22.156,25.066z"/>
<path fill="#1A1626" d="M23.172,23.963c0,1.506,2.18,1.506,2.18,0C25.351,22.564,23.172,22.564,23.172,23.963z"/>
<path fill="#AB968C" d="M22.428,23.522c0,0.761,1.101,0.761,1.101,0C23.528,22.816,22.428,22.816,22.428,23.522z"/>
<path fill="#946346" d="M44.658,24.315c0-4.44-9.185-4.44-9.185,0.703C36.785,20.799,43.347,20.799,44.658,24.315z"/>
<path fill="#946346" d="M19.34,24.315c0-4.44,9.185-4.44,9.185,0.702C27.215,20.796,20.652,20.796,19.34,24.315z"/>
</svg>
