<?xml version="1.0" encoding="utf-8"?>
<!-- Generator: Adobe Illustrator 19.0.0, SVG Export Plug-In . SVG Version: 6.00 Build 0)  -->
<svg version="1.1" id="Layer_1" xmlns="http://www.w3.org/2000/svg" xmlns:xlink="http://www.w3.org/1999/xlink" x="0px" y="0px"
	 width="64px" height="64px" viewBox="0 0 64 64" enable-background="new 0 0 64 64" xml:space="preserve">
<path fill="#E6EBEF" d="M9.788,52.143c2.699-1.452,13.906-5.292,13.906-5.292h16.695c0,0,11.197,3.831,13.883,5.289
	c3.904,2.115,4.727,9.86,4.727,9.86h-54C4.999,62,5.87,54.248,9.788,52.143z"/>
<path fill="#DBA97F" d="M40.499,48.257c0-1.141,0-6.203,0-6.203h-17c0,0,0,4.985,0,6.203C23.499,53.278,40.499,53.278,40.499,48.257
	z"/>
<path fill="#BEC3CF" d="M11.456,62c0.574-1.952-0.102-4.921-0.818-6.556C9.969,53.923,10.221,60.927,11.456,62z"/>
<path fill="#006DAE" d="M49.45,57.527c0.102-2.172,0.111-3.393-0.752-7.669c-0.209-0.348-4.881-2.133-5.479-1.992
	c0.779,4.671,0.828,6.587,0.771,9.217c-6.484-0.156-17.502-0.156-23.986,0.001c-0.057-2.631-0.008-4.547,0.774-9.218
	c-0.6-0.141-5.27,1.645-5.479,1.992c-0.863,4.276-0.855,5.497-0.754,7.669C13.669,58.035,13.098,62,13.098,62h37.801
	C50.899,62,50.329,58.035,49.45,57.527z"/>
<path fill="#C49A45" d="M61.2,24.303c-1.08,2.176-2.23,4.033-3.648,5.598l-1.756-0.387l0.531,1.604
	c-4.338,3.863-11.109,5.557-24.416,5.557c-20.322,0-26.559-5.813-29.291-12.371C0.147,18.373,63.391,19.891,61.2,24.303z"/>
<path fill="#DBA97F" d="M14.901,24.235c-5.719-1.031-1.252,14.957,3.225,10.547C20.198,32.738,17.575,24.719,14.901,24.235z"/>
<path fill="#DBA97F" d="M49.1,24.235c-2.674,0.483-5.299,8.503-3.223,10.547C50.354,39.192,54.815,23.204,49.1,24.235z"/>
<path fill="#FCD5B2" d="M32.001,5.487c-11.824,0-17.521,8.945-16.807,21.384c0.143,2.503,1.693,10.665,3.158,13.593
	c1.498,2.995,6.512,7.614,9.584,8.57c1.939,0.604,6.188,0.604,8.127,0c3.072-0.956,8.086-5.575,9.586-8.57
	c1.465-2.928,3.016-11.09,3.158-13.593C49.522,14.433,43.825,5.487,32.001,5.487z"/>
<path fill="#CC9D76" d="M32.001,39.349c-2.66-0.782-6.6,0.37-6.6,0.37c1.5,1.635,2.6,3.756,6.6,3.756c4.582,0,5.359-2.407,6.6-3.756
	C38.6,39.719,34.657,38.563,32.001,39.349z"/>
<path fill="#FFFFFF" d="M26.407,39.995c2.787,2.34,8.418,2.355,11.221,0C34.657,40.123,29.399,40.124,26.407,39.995z"/>
<path fill="#DBA97F" d="M35.667,34.951c0,2.386-7.332,2.386-7.332,0C28.335,34.403,35.667,34.403,35.667,34.951z"/>
<path fill="#1E1513" d="M47.577,22.074c1.146,3.819,0.414,5.426,0.785,8.163c0.727-2.706,1.178-5.085,1.389-8.163H47.577z"/>
<path fill="#1E1513" d="M16.426,22.074h-2.219c0.311,3.453,0.787,5.922,1.436,8.163C16.012,27.499,15.178,26.357,16.426,22.074z"/>
<path fill="#FFFFFF" d="M44.659,27.833c-1.58,4.136-8.008,3.529-9.186,0.635C36.368,23.818,43.792,23.421,44.659,27.833z"/>
<path fill="#FFFFFF" d="M19.341,27.833c1.58,4.136,8.01,3.529,9.185,0.635C27.632,23.816,20.21,23.419,19.341,27.833z"/>
<path fill="#CC9D76" d="M45.315,22.854c-2.705-1.342-7.879-1.407-9.807-0.472c-0.412,0.182-0.141,1.454,0.207,1.332
	c2.688-0.995,7.019-1.019,9.535,0.086C45.585,23.942,45.725,23.043,45.315,22.854z"/>
<path fill="#CC9D76" d="M18.686,22.854c2.703-1.342,7.877-1.407,9.807-0.472c0.412,0.182,0.141,1.454-0.207,1.332
	c-2.691-0.995-7.02-1.019-9.537,0.086C18.415,23.942,18.276,23.043,18.686,22.854z"/>
<path fill="#613F34" d="M37.114,27.392c0,3.629,5.25,3.629,5.25,0C42.364,24.023,37.114,24.023,37.114,27.392z"/>
<path fill="#7D5037" d="M37.633,28.554c0,2.081,4.211,2.081,4.211,0C41.844,26.622,37.633,26.622,37.633,28.554z"/>
<path fill="#1A1626" d="M38.649,27.449c0,1.507,2.18,1.507,2.18,0C40.829,26.052,38.649,26.052,38.649,27.449z"/>
<path fill="#AB968C" d="M37.905,27.01c0,0.761,1.102,0.761,1.102,0C39.007,26.304,37.905,26.304,37.905,27.01z"/>
<path fill="#613F34" d="M21.637,27.392c0,3.63,5.25,3.63,5.25,0C26.887,24.022,21.637,24.022,21.637,27.392z"/>
<path fill="#7D5037" d="M22.157,28.553c0,2.081,4.211,2.081,4.211,0C26.368,26.621,22.157,26.621,22.157,28.553z"/>
<path fill="#1A1626" d="M23.173,27.449c0,1.506,2.18,1.506,2.18,0C25.352,26.051,23.173,26.051,23.173,27.449z"/>
<path fill="#AB968C" d="M22.428,27.009c0,0.761,1.1,0.761,1.1,0C23.528,26.303,22.428,26.303,22.428,27.009z"/>
<path fill="#DBA97F" d="M44.659,27.802c0-4.44-9.186-4.44-9.186,0.703C36.786,24.285,43.346,24.285,44.659,27.802z"/>
<path fill="#DBA97F" d="M19.341,27.802c0-4.44,9.185-4.44,9.185,0.702C27.216,24.282,20.653,24.282,19.341,27.802z"/>
<path fill="#E5BC5E" d="M32.174,2c-5.389,0-9.185,1.77-11.002,2.291c-6.877,1.973-7.955,7.658-7.955,14.225h37.91
	C51.128,12.221,41.954,2,32.174,2z"/>
<path fill="#D4AE57" d="M43.003,4.639C40.786,4.076,40.413,2,32.174,2c11.404,1.65,16.379,9.311,12.184,16.516h6.77
	C51.128,12.221,49.581,6.307,43.003,4.639z"/>
<path fill="#C49A45" d="M61.2,24.303c-4.34,8.742-9.814-4.773-29.289-4.773c-16.605,0-26.559,11.332-29.291,4.773
	c-1.826-4.379,0.594-6.256,4.455-7.289l2.066,1.42l0.268-1.93c0.246-0.045,0.494-0.088,0.744-0.127l1.029,1.02l0.406-1.238
	c11.639-1.662,12.424-4.225,20.322-4.225c8.34,0,10.371,3.223,21.201,3.836l0.715,1.828l2.338-1.455
	C61.727,17.267,63.085,20.508,61.2,24.303z"/>
<path fill="#6E8189" d="M53.032,54.813c-4.455,0-8.967-3.027-8.967-8.817v-8.631c0-0.902,1.635-3.635,1.635-3.635
	s1.635,2.732,1.635,3.635v8.631c0,3.832,2.863,5.547,5.697,5.547c2.836,0,5.697-1.715,5.697-5.547v-8.631
	c0-0.902,1.635-3.635,1.635-3.635s1.637,2.732,1.637,3.635v8.631C62.001,51.785,57.489,54.813,53.032,54.813z"/>
<rect x="51.475" y="55.754" fill="#8A6859" width="3.113" height="6.246"/>
<path fill="#6E8189" d="M54.669,37.365c0-0.902-1.637-3.635-1.637-3.635s-1.635,2.732-1.635,3.635v19.213h3.27L54.669,37.365z"/>
</svg>
