<?xml version="1.0" encoding="utf-8"?>
<!-- Generator: Adobe Illustrator 15.0.0, SVG Export Plug-In . SVG Version: 6.00 Build 0)  -->
<!DOCTYPE svg PUBLIC "-//W3C//DTD SVG 1.1//EN" "http://www.w3.org/Graphics/SVG/1.1/DTD/svg11.dtd" [
	<!ENTITY ns_flows "http://ns.adobe.com/Flows/1.0/">
	<!ENTITY ns_extend "http://ns.adobe.com/Extensibility/1.0/">
	<!ENTITY ns_ai "http://ns.adobe.com/AdobeIllustrator/10.0/">
	<!ENTITY ns_graphs "http://ns.adobe.com/Graphs/1.0/">
]>
<svg version="1.1" id="Layer_1" xmlns:x="&ns_extend;" xmlns:i="&ns_ai;" xmlns:graph="&ns_graphs;"
	 xmlns="http://www.w3.org/2000/svg" xmlns:xlink="http://www.w3.org/1999/xlink" xmlns:a="http://ns.adobe.com/AdobeSVGViewerExtensions/3.0/"
	 x="0px" y="0px" width="64px" height="64px" viewBox="0 0 64 64" enable-background="new 0 0 64 64" xml:space="preserve">
<path fill="#3B2C29" d="M13.076,13.402C4.363,50.801,5.161,50,23.501,50C13.352,42.898,32.794,12.895,13.076,13.402z"/>
<path fill="#453631" d="M9.933,12.824C3.575,41.236,9.06,48.533,13.931,50h5.582C6.453,40.797,26.869,12.265,9.933,12.824z"/>
<path fill="#3B2C29" d="M38.709,13.401c8.713,37.397,7.914,36.597-10.425,36.597C37.617,44.299,18.99,12.893,38.709,13.401z"/>
<path fill="#453631" d="M41.85,12.822c9.295,25.85-0.02,35.979-3.998,37.176h-5.58C45.334,41.547,24.917,12.263,41.85,12.822z"/>
<path fill="#594640" d="M43.396,26.713c2.691,6.572,0.029,20.059-5.545,23.287c6.178,0,9.939-8.551,11.773-20.311
	C51.918,14.994,38.602,14.986,43.396,26.713z"/>
<path fill="#594640" d="M2.849,32.416C5.099,43.029,7.869,50,13.931,50c-6.759-7-5.964-21.762-4.043-25.434
	C19.681,18.738-0.957,14.463,2.849,32.416z"/>
<path fill="#E6EBEF" d="M6.255,51.906c2.4-1.49,12.362-5.424,12.362-5.424h14.841c0,0,9.951,3.926,12.338,5.422
	C49.268,54.068,50,62,50,62H2C2,62,2.772,54.061,6.255,51.906"/>
<rect x="19.3" y="42.816" fill="#E6B045" width="13.396" height="9.625"/>
<path fill="#018BC9" d="M32,48.311c-1.841,1.043-3.878,1.643-6,1.643s-4.159-0.6-6-1.645L26,62L32,48.311z"/>
<path fill="#BEC3CF" d="M17.474,46.939c-1.817,5.576-0.972,9.135-0.972,9.135c1.532-1.398,4.538-2.943,4.541-2.945
	c-1.091,1.563-1.955,4.123-1.955,4.123C22.353,57.781,26,62,26,62S20.927,47.168,17.474,46.939z"/>
<path fill="#E6EBEF" d="M19.743,44.063c0,0-0.896-0.377-1.277,0.328c-2.248,4.186-1.5,10.104-1.5,10.104
	c1.53-1.396,4.589-1.813,4.589-1.814C20.464,54.242,20,55.998,20,55.998C22.306,57.104,26,62,26,62S22.916,52.943,19.743,44.063z"/>
<path fill="#BEC3CF" d="M34.525,46.939c1.814,5.576,0.969,9.135,0.969,9.135c-1.529-1.398-4.539-2.943-4.539-2.945
	c1.091,1.563,1.953,4.123,1.953,4.123C29.643,57.781,26,62,26,62S31.072,47.168,34.525,46.939z"/>
<path fill="#E6EBEF" d="M32.254,44.063c0,0,0.896-0.377,1.279,0.328c2.248,4.186,1.5,10.104,1.5,10.104
	c-1.529-1.396-4.588-1.813-4.59-1.814C31.533,54.242,32,55.998,32,55.998C29.693,57.104,26,62,26,62S29.081,52.943,32.254,44.063z"
	/>
<path fill="#CFD7DC" d="M7.881,62c0.512-2-0.09-5.039-0.728-6.713C6.561,53.729,6.785,60.9,7.881,62"/>
<path fill="#FFCC66" d="M26,4.415c-11.609,0-17.201,9.455-16.502,21.611c0.143,2.444,0.822,5.969,1.661,8.989
	c1.741,6.277,10.929,12.6,14.841,12.6c3.911,0,13.1-6.322,14.84-12.6c0.84-3.02,1.52-6.545,1.664-8.989
	C43.201,13.87,37.611,4.415,26,4.415z"/>
<path fill="#D47706" d="M26,37.588c-2.822-1.24-2.844-0.051-7.2,0.242c1.636,1.855,2.839,4.244,7.198,4.244
	c5.003,0,5.849-2.711,7.203-4.244C28.842,37.537,28.823,36.348,26,37.588z"/>
<path fill="#FFFFFF" d="M20.108,38.293c2.844,2.959,8.977,2.92,11.784,0C27.514,38.764,24.488,38.764,20.108,38.293z"/>
<path fill="#594640" d="M38.795,21.61c-2.617-1.56-7.308-1.75-9.166-0.688c-0.394,0.214-0.287,1.341,0.053,1.2
	c2.648-1.104,6.681-1.158,9.167,0.117C39.184,22.409,39.189,21.837,38.795,21.61z"/>
<path fill="#594640" d="M13.207,21.61c2.615-1.56,7.307-1.75,9.166-0.688c0.394,0.214,0.289,1.341-0.054,1.2
	c-2.648-1.104-6.68-1.159-9.167,0.117C12.818,22.409,12.811,21.837,13.207,21.61z"/>
<path fill="#E6B045" d="M29.6,33.346c0,2.342-7.2,2.342-7.2,0C22.4,32.808,29.6,32.808,29.6,33.346z"/>
<path fill="#FFFFFF" d="M38.541,26.357c-1.551,4.06-7.861,3.465-9.016,0.623C30.401,22.415,37.688,22.024,38.541,26.357z"/>
<path fill="#613F34" d="M31.106,25.916c0,3.596,5.201,3.596,5.201,0C36.307,22.578,31.106,22.578,31.106,25.916z"/>
<path fill="#7D5037" d="M31.62,27.066c0,2.063,4.171,2.063,4.171,0C35.791,25.152,31.62,25.152,31.62,27.066z"/>
<path fill="#1A1626" d="M32.626,25.973c0,1.492,2.159,1.492,2.159,0C34.785,24.588,32.626,24.588,32.626,25.973z"/>
<path fill="#AB968C" d="M31.889,25.537c0,0.754,1.09,0.754,1.09,0C32.979,24.837,31.889,24.837,31.889,25.537z"/>
<path fill="#45332C" d="M38.541,26.326c0-4.361-9.016-4.361-9.016,0.691C30.811,22.871,37.254,22.871,38.541,26.326z"/>
<path fill="#FFFFFF" d="M13.459,26.357c1.552,4.06,7.862,3.466,9.019,0.623C21.602,22.415,14.314,22.024,13.459,26.357z"/>
<path fill="#613F34" d="M15.695,25.922c0,3.596,5.2,3.596,5.2,0C20.895,22.584,15.695,22.584,15.695,25.922z"/>
<path fill="#7D5037" d="M16.208,27.072c0,2.062,4.172,2.062,4.172,0C20.38,25.158,16.208,25.158,16.208,27.072z"/>
<path fill="#1A1626" d="M17.215,25.979c0,1.492,2.159,1.492,2.159,0C19.375,24.593,17.215,24.593,17.215,25.979z"/>
<path fill="#AB968C" d="M16.478,25.542c0,0.755,1.09,0.755,1.09,0C17.568,24.842,16.478,24.842,16.478,25.542z"/>
<path fill="#45332C" d="M13.459,26.326c0-4.361,9.019-4.361,9.019,0.689C21.191,22.87,14.748,22.87,13.459,26.326z"/>
<path fill="#594640" d="M38.973,6.105c-8.14,8.342-0.371,8.881,4.424,20.607c2.691,6.572,4.395,14.736,6.229,2.977
	C51.918,14.994,43.109,4.879,38.973,6.105z"/>
<path fill="#594640" d="M18.99,2.911C8.667,5.341-0.957,14.463,2.849,32.416c2.25,10.614,5.118-4.177,7.039-7.849
	c9.793-5.828,26.54-10.241,29.084-18.461C40.264,4.209,29.32,0.205,18.99,2.911z"/>
<path fill="#453631" d="M11.081,15.988c4.365-0.885,25.25-1.302,27.892-9.883C34.037,10.039,28.924,11.11,11.081,15.988z"/>
<path fill="#453631" d="M3.553,29.637c7.324-9.773,31.316-8.695,35.419-23.531C31.006,18.558,5.555,20.241,3.553,29.637z"/>
<path fill="#453631" d="M36.559,8.14c-1.891,2.978,4.678-1.397,11.756,17.785C46.57,14.71,40.588,6.988,36.559,8.14z"/>
<linearGradient id="SVGID_1_" gradientUnits="userSpaceOnUse" x1="25.9985" y1="33.291" x2="25.9985" y2="20.9321">
	<stop  offset="0" style="stop-color:#FFFFFF;stop-opacity:0.2"/>
	<stop  offset="1" style="stop-color:#FFFFFF"/>
	<a:midPointStop  offset="0" style="stop-color:#FFFFFF;stop-opacity:0.2"/>
	<a:midPointStop  offset="0.5" style="stop-color:#FFFFFF;stop-opacity:0.2"/>
	<a:midPointStop  offset="1" style="stop-color:#FFFFFF"/>
</linearGradient>
<path opacity="0.8" fill="url(#SVGID_1_)" d="M8.833,20.932c0,0,0,6.256,0,8.429c0,1.524,7.192,2.889,10.532,3.778
	c0.848,0.229,2.019,0.357,2.505-0.801c0.827-1.97,1.407-3.403,2.4-5.745c0.433-1.029,3.024-1.031,3.459,0
	c0.991,2.342,1.573,3.774,2.4,5.745c0.486,1.159,1.657,1.03,2.505,0.801c3.338-0.889,10.53-2.254,10.53-3.778
	c0-2.173,0-8.429,0-8.429H8.833z"/>
<path fill="#F5F5F5" d="M29.245,31.572c0,0-2.138-4.295-2.539-5.088c-0.133-0.262-0.382-0.412-0.688-0.414
	c-0.259,0.016-0.565,0.107-0.724,0.414c-0.401,0.793-2.539,5.088-2.539,5.088c-0.108,0.21-1.026-0.113-0.92-0.324
	c0,0,2.14-4.294,2.544-5.088c0.286-0.561,0.927-0.922,1.637-0.922c0.002,0,0.004,0,0.004,0c0.704,0.002,1.317,0.354,1.604,0.922
	c0.402,0.794,2.542,5.088,2.542,5.088C30.271,31.459,29.326,31.73,29.245,31.572z"/>
<path fill="#302C3B" d="M43.852,22.005c-11.883-0.935-23.823-0.935-35.706,0C8.098,21.381,8.049,20.757,8,20.131
	c11.979-0.943,24.017-0.943,36,0C43.947,20.757,43.9,21.381,43.852,22.005z"/>
<path fill="#E6B045" d="M50.063,42.439c0.896-2.025-2.037-3.449-2.166-1.957c-0.174,1.998,0.305,4.059-0.709,6.363
	c-1.35,3.064,3.098,9.789,3.346,8.779s5.137-2.643,5.582-5.275C56.365,48.887,49.699,43.258,50.063,42.439z"/>
<path fill="#CAE8F0" d="M54.5,47v-7.5c0.686,0,1.25-0.564,1.25-1.252c0-0.686-0.564-1.248-1.25-1.248h-5
	c-0.689,0-1.25,0.563-1.25,1.248c0,0.688,0.561,1.252,1.25,1.252V47c0,3.125-7.5,10.652-7.5,12.5C42,62,49.422,62,52,62s10,0,10-2.5
	C62,57.652,54.5,50.125,54.5,47z"/>
<linearGradient id="SVGID_2_" gradientUnits="userSpaceOnUse" x1="43.25" y1="55.75" x2="60.75" y2="55.75">
	<stop  offset="0" style="stop-color:#A3F01F"/>
	<stop  offset="1" style="stop-color:#62AD00"/>
	<a:midPointStop  offset="0" style="stop-color:#A3F01F"/>
	<a:midPointStop  offset="0.5" style="stop-color:#A3F01F"/>
	<a:midPointStop  offset="1" style="stop-color:#62AD00"/>
</linearGradient>
<path fill="url(#SVGID_2_)" d="M48.875,50.75c-2.178,3.783-5.625,7.42-5.625,8.459c0,1.049,5.385,1.541,8.75,1.541
	c3.363,0,8.75-0.492,8.75-1.541c0-1.039-3.449-4.676-5.625-8.459H48.875z"/>
<path fill="#FFCC66" d="M55.895,43.955c1.691,0.852,0.926,2.311,0.49,2.705c1.121,1.143,0.629,2.568,0.252,2.889
	c1.404,2.492-5.752,2.523-4.314,0.461c-1.719,0.232-2.184-1.678-0.432-2.186c-1.975,0.357-1.725-1.877-0.551-2.138
	c0.441-0.098,0.891-0.308,1.398-0.417c-2.01,0.334-1.697-2.01-0.697-2.466C53.834,41.984,56.176,40.943,55.895,43.955z"/>
</svg>
