<?xml version="1.0" encoding="utf-8"?>
<!-- Generator: Adobe Illustrator 15.0.0, SVG Export Plug-In . SVG Version: 6.00 Build 0)  -->
<!DOCTYPE svg PUBLIC "-//W3C//DTD SVG 1.1//EN" "http://www.w3.org/Graphics/SVG/1.1/DTD/svg11.dtd" [
	<!ENTITY ns_flows "http://ns.adobe.com/Flows/1.0/">
	<!ENTITY ns_extend "http://ns.adobe.com/Extensibility/1.0/">
	<!ENTITY ns_ai "http://ns.adobe.com/AdobeIllustrator/10.0/">
	<!ENTITY ns_graphs "http://ns.adobe.com/Graphs/1.0/">
]>
<svg version="1.1" id="Layer_1" xmlns:x="&ns_extend;" xmlns:i="&ns_ai;" xmlns:graph="&ns_graphs;"
	 xmlns="http://www.w3.org/2000/svg" xmlns:xlink="http://www.w3.org/1999/xlink" xmlns:a="http://ns.adobe.com/AdobeSVGViewerExtensions/3.0/"
	 x="0px" y="0px" width="64px" height="64px" viewBox="0 0 64 64" enable-background="new 0 0 64 64" xml:space="preserve">
<path fill="#302C3B" d="M15.996,61.9c-1.504-0.567,0.239-2.203-0.316-4.356c-1.087-4.201,2.659-3.944,3.106-1.948
	C19.746,59.876,17.75,62.562,15.996,61.9z"/>
<path fill="#FDCA47" d="M18.002,55.825c-0.274-5.206,1.084-5.942-0.873-9.408c1.021-3.065,0.502-4.807,0.502-4.807l-4.873-4.364
	c0,0,0.299,8.048,1.238,11.026c1.149,3.668,1.86,7.953,1.86,7.953C15.955,58.38,18.127,58.166,18.002,55.825z"/>
<path fill="#FDCA47" d="M9.281,29.854c0.947-1.077,1.216-2.243,1.216-2.243L8.333,25.62c-2.776,4.668-2.632,4.126-1.819,5.415
	c1.851,2.932,5.93,3.922,5.93,3.922s0.477-2.316-0.017-2.547C11.066,31.768,10.729,30.541,9.281,29.854z"/>
<path fill="#FDCA47" d="M22.607,28.689c-0.67-0.314-1.059-1.174-1.059-1.174l2.116-2.376c2.87,3.934,3.128,3.029,1.976,5.134
	c-0.967,1.766-5.41,3.803-5.41,3.803s-1.834-1.64-1.359-1.893C20.928,31.091,21.143,29.28,22.607,28.689z"/>
<path fill="#302C3B" d="M31.498,52.759c-3.746-2.371-1.148-5.225,0.462-4.226C39.153,52.992,35.295,55.163,31.498,52.759z"/>
<path fill="#FDCA47" d="M32.09,49.762c-3.558-3.441-3.057-5.183-6.801-5.959c-1.111-5.996-4.957-9.149-4.957-9.149
	c-2.684,3.523-1.787,6.598-1.787,6.598s3.039,5.083,5.682,6.397c3.254,1.604,6.562,4.029,6.562,4.029
	C32.25,53.118,33.694,51.314,32.09,49.762z"/>
<path fill="#302C3B" d="M22.361,36.553c-0.496-1.089-1.15-2.207-2.663-3.768c-1.49-1.539,0.456-3.738,0.184-6.106l1.759,1.17
	l2.601-2.015c0,0-1.036-3.072-3.743-3.228c-1.576-1.995-7.15-2.407-10.043,0.35c-2.202,0.711-2.699,3.632-2.699,3.632l2.693,1.344
	l0.387-0.504c0.209,3.17,1.606,3.688,1.664,9.658c0.021,2.258,0.598,6.861,0.598,6.861h4.77l0.053-1.912
	c0.121,0.012,0.236,0.034,0.36,0.034c0.177,0,0.378-0.039,0.591-0.108l0.896,1.469l4.576-3.26
	C23.441,37.766,22.796,37.503,22.361,36.553z"/>
<path fill="#E6B045" d="M13.352,21.626c0,2.32,4.5,2.32,4.5,0v-2.405h-4.5V21.626z"/>
<path fill="#E6B045" d="M10.162,13.986c-1.819-0.328-0.399,4.759,1.024,3.356C11.847,16.692,11.012,14.14,10.162,13.986z"/>
<path fill="#E6B045" d="M21.043,13.986c-0.852,0.154-1.687,2.706-1.024,3.356C21.442,18.746,22.862,13.658,21.043,13.986z"/>
<path fill="#FFCC66" d="M15.602,8.021c-3.761,0-5.574,2.846-5.347,6.804c0.046,0.796,0.538,3.393,1.005,4.325
	c0.478,0.954,2.072,2.423,3.05,2.727c0.617,0.192,1.969,0.192,2.586,0c0.978-0.304,2.572-1.773,3.05-2.727
	c0.467-0.932,0.959-3.528,1.005-4.325C21.178,10.867,19.364,8.021,15.602,8.021z"/>
<path fill="#E6A400" d="M15.602,18.795c-0.846-0.249-2.1,0.118-2.1,0.118c0.478,0.521,0.827,1.195,2.1,1.195
	c1.458,0,1.706-0.766,2.1-1.195C17.701,18.913,16.447,18.545,15.602,18.795z"/>
<path fill="#FFFFFF" d="M13.822,19.001c0.888,0.744,2.68,0.749,3.571,0C16.447,19.042,14.774,19.042,13.822,19.001z"/>
<path fill="#E6B045" d="M16.769,17.396c0,0.759-2.332,0.759-2.332,0C14.437,17.222,16.769,17.222,16.769,17.396z"/>
<path fill="#594640" d="M15.602,8.021c-2.587,0-4.15,0.855-4.825,0.527c0,0-0.073,0.441,0.191,0.729c0,0-0.279,0.241-0.729-0.166
	c-0.43,1.393,0.845,2.2,5.363,2.2c4.521,0,3.441-1.101,5.664,0.833C21.047,9.76,19.533,8.021,15.602,8.021z"/>
<path fill="#453631" d="M17.516,10.099c-2.488,0.918-3.397-0.739-5.746-0.899c1.118,0.527,1.663,1.339,2.58,1.925
	c-1.996-0.668-3.462-1.817-3.573-2.573c0,0-0.332,1.103,0.984,1.926c-1.26,0.117-1.522-1.362-1.522-1.362
	c-0.638,1.024-0.549,4.329,0.159,6.781c0.118-0.875-0.151-1.237,0.253-2.292c1.211-3.151,0.433-1.829,4.953-1.829
	c4.519,0,3.704-1.206,4.951,1.829c0.372,0.905,0.135,1.417,0.253,2.292C22.294,10.367,20.157,9.124,17.516,10.099z"/>
<path fill="#FFFFFF" d="M19.63,15.131c-0.503,1.315-2.548,1.123-2.922,0.202C16.992,13.854,19.354,13.727,19.63,15.131z"/>
<path fill="#FFFFFF" d="M11.575,15.131c0.501,1.315,2.548,1.123,2.922,0.202C14.213,13.854,11.85,13.727,11.575,15.131z"/>
<path fill="#C1873C" d="M19.838,13.547c-0.86-0.427-2.506-0.447-3.119-0.149c-0.131,0.057-0.045,0.462,0.066,0.424
	c0.854-0.317,2.232-0.325,3.033,0.027C19.926,13.894,19.97,13.607,19.838,13.547z"/>
<path fill="#C1873C" d="M11.365,13.547c0.86-0.427,2.507-0.447,3.121-0.149c0.131,0.057,0.045,0.462-0.066,0.424
	c-0.856-0.317-2.232-0.325-3.035,0.027C11.279,13.894,11.235,13.607,11.365,13.547z"/>
<path fill="#613F34" d="M17.229,14.991c0,1.155,1.67,1.155,1.67,0C18.899,13.919,17.229,13.919,17.229,14.991z"/>
<path fill="#7D5037" d="M17.396,15.36c0,0.662,1.34,0.662,1.34,0C18.735,14.746,17.396,14.746,17.396,15.36z"/>
<path fill="#1A1626" d="M17.718,15.009c0,0.479,0.693,0.479,0.693,0C18.411,14.564,17.718,14.564,17.718,15.009z"/>
<path fill="#AB968C" d="M17.481,14.869c0,0.242,0.35,0.242,0.35,0C17.831,14.645,17.481,14.645,17.481,14.869z"/>
<path fill="#613F34" d="M12.304,14.991c0,1.155,1.672,1.155,1.672,0C13.976,13.919,12.304,13.919,12.304,14.991z"/>
<path fill="#7D5037" d="M12.47,15.36c0,0.663,1.34,0.663,1.34,0C13.81,14.746,12.47,14.746,12.47,15.36z"/>
<path fill="#1A1626" d="M12.793,15.009c0,0.479,0.694,0.479,0.694,0C13.487,14.564,12.793,14.564,12.793,15.009z"/>
<path fill="#AB968C" d="M12.558,14.869c0,0.243,0.35,0.243,0.35,0C12.907,14.644,12.558,14.644,12.558,14.869z"/>
<path fill="#E6B045" d="M19.63,15.121c0-1.413-2.922-1.413-2.922,0.224C17.126,14.002,19.213,14.002,19.63,15.121z"/>
<path fill="#E6B045" d="M11.575,15.121c0-1.413,2.922-1.413,2.922,0.224C14.079,14.001,11.992,14.001,11.575,15.121z"/>
<path fill="#302C3B" d="M20.344,2.004c-0.292-0.103-2.761,1.792-2.836,3.368c-0.085,1.787-0.191,3.074-0.267,3.85
	c-0.751-0.104-2.529-0.1-3.276,0.015c-0.075-0.774-0.181-2.066-0.266-3.864c-0.077-1.576-2.545-3.471-2.839-3.368
	C10.386,2.167,9.529,5,10.337,6.231c1.164,1.771,1.662,2.875,1.877,3.519c-0.666,0.311-1.229,0.733-1.597,1.283
	c3.411-1.213,6.674-1.213,10.085,0c-0.384-0.577-0.983-1.016-1.694-1.329c0.224-0.649,0.722-1.742,1.859-3.473
	C21.676,5,20.82,2.167,20.344,2.004z"/>
<path fill="#302C3B" d="M37.995,61.9c-1.504-0.566,0.24-2.203-0.316-4.355c-1.086-4.201,2.66-3.945,3.107-1.949
	C41.745,59.877,39.749,62.563,37.995,61.9z"/>
<path fill="#FDCA47" d="M40.001,55.826c-0.273-5.207,1.084-5.943-0.873-9.408c1.021-3.066,0.502-4.807,0.502-4.807l-4.873-4.365
	c0,0,0.299,8.049,1.238,11.027c1.15,3.668,1.861,7.953,1.861,7.953C37.954,58.381,40.126,58.166,40.001,55.826z"/>
<path fill="#FDCA47" d="M31.28,29.854c0.947-1.077,1.217-2.243,1.217-2.243l-2.164-1.991c-2.777,4.668-2.633,4.126-1.82,5.416
	c1.852,2.931,5.93,3.921,5.93,3.921s0.477-2.316-0.016-2.547C33.065,31.768,32.728,30.542,31.28,29.854z"/>
<path fill="#FDCA47" d="M44.606,28.69c-0.67-0.314-1.059-1.174-1.059-1.174l2.117-2.376c2.869,3.934,3.127,3.029,1.975,5.134
	c-0.967,1.766-5.41,3.804-5.41,3.804s-1.834-1.64-1.359-1.893C42.927,31.091,43.142,29.281,44.606,28.69z"/>
<path fill="#302C3B" d="M53.497,52.76c-3.746-2.371-1.148-5.225,0.463-4.227C61.153,52.992,57.294,55.164,53.497,52.76z"/>
<path fill="#FDCA47" d="M54.089,49.762c-3.557-3.441-3.057-5.182-6.801-5.959c-1.111-5.996-4.957-9.148-4.957-9.148
	c-2.684,3.523-1.787,6.598-1.787,6.598s3.039,5.082,5.682,6.396c3.254,1.605,6.563,4.029,6.563,4.029
	C54.249,53.119,55.694,51.314,54.089,49.762z"/>
<path fill="#302C3B" d="M44.36,36.553c-0.496-1.088-1.15-2.207-2.662-3.767c-1.49-1.54,0.455-3.738,0.184-6.106l1.758,1.17
	l2.602-2.015c0,0-1.037-3.072-3.744-3.228c-1.576-1.995-7.15-2.407-10.043,0.35c-2.201,0.711-2.699,3.632-2.699,3.632l2.693,1.344
	l0.387-0.504c0.209,3.17,1.607,3.689,1.664,9.657c0.021,2.258,0.598,6.861,0.598,6.861h4.77l0.053-1.911
	c0.121,0.012,0.236,0.034,0.361,0.034c0.176,0,0.377-0.039,0.59-0.108l0.896,1.468l4.576-3.26
	C45.44,37.766,44.796,37.504,44.36,36.553z"/>
<path fill="#E6B045" d="M35.351,21.626c0,2.32,4.5,2.32,4.5,0v-2.405h-4.5V21.626z"/>
<path fill="#E6B045" d="M32.161,13.987c-1.818-0.328-0.398,4.759,1.025,3.356C33.847,16.693,33.011,14.141,32.161,13.987z"/>
<path fill="#E6B045" d="M43.042,13.987c-0.852,0.154-1.686,2.706-1.023,3.356C43.442,18.746,44.862,13.659,43.042,13.987z"/>
<path fill="#FFCC66" d="M37.601,8.022c-3.76,0-5.574,2.846-5.346,6.804c0.045,0.796,0.537,3.393,1.004,4.325
	c0.479,0.954,2.072,2.423,3.051,2.727c0.617,0.192,1.969,0.192,2.586,0c0.977-0.304,2.572-1.773,3.049-2.727
	c0.467-0.932,0.959-3.528,1.006-4.325C43.177,10.868,41.364,8.022,37.601,8.022z"/>
<path fill="#E6A400" d="M37.601,18.796c-0.846-0.249-2.1,0.118-2.1,0.118c0.479,0.521,0.828,1.195,2.1,1.195
	c1.459,0,1.707-0.766,2.1-1.195C39.7,18.914,38.446,18.545,37.601,18.796z"/>
<path fill="#FFFFFF" d="M35.821,19.002c0.889,0.744,2.68,0.749,3.572,0C38.446,19.042,36.774,19.043,35.821,19.002z"/>
<path fill="#E6B045" d="M38.769,17.397c0,0.759-2.332,0.759-2.332,0C36.437,17.222,38.769,17.222,38.769,17.397z"/>
<path fill="#594640" d="M37.601,8.021c-2.586,0-4.15,0.855-4.824,0.527c0,0-0.074,0.441,0.191,0.729c0,0-0.279,0.241-0.73-0.166
	c-0.43,1.393,0.846,2.2,5.363,2.2c4.521,0,3.441-1.101,5.664,0.833C43.046,9.76,41.532,8.021,37.601,8.021z"/>
<path fill="#453631" d="M39.515,10.099c-2.488,0.918-3.396-0.739-5.746-0.899c1.119,0.527,1.664,1.339,2.58,1.925
	c-1.996-0.668-3.461-1.817-3.572-2.573c0,0-0.332,1.103,0.984,1.926c-1.26,0.117-1.523-1.362-1.523-1.362
	c-0.637,1.024-0.549,4.329,0.16,6.781c0.117-0.875-0.152-1.237,0.252-2.292c1.211-3.151,0.434-1.829,4.953-1.829
	s3.705-1.206,4.951,1.829c0.373,0.905,0.135,1.417,0.254,2.292C44.294,10.368,42.157,9.125,39.515,10.099z"/>
<path fill="#FFFFFF" d="M41.63,15.132c-0.504,1.315-2.549,1.123-2.922,0.202C38.991,13.854,41.353,13.728,41.63,15.132z"/>
<path fill="#FFFFFF" d="M33.575,15.132c0.5,1.315,2.547,1.123,2.922,0.202C36.212,13.854,33.849,13.727,33.575,15.132z"/>
<path fill="#C1873C" d="M41.837,13.547c-0.859-0.427-2.506-0.447-3.119-0.149c-0.131,0.057-0.045,0.462,0.066,0.424
	c0.855-0.317,2.232-0.325,3.033,0.027C41.925,13.894,41.97,13.607,41.837,13.547z"/>
<path fill="#C1873C" d="M33.364,13.547c0.861-0.427,2.508-0.447,3.121-0.149c0.131,0.057,0.045,0.462-0.066,0.424
	c-0.855-0.317-2.232-0.325-3.035,0.027C33.278,13.894,33.235,13.607,33.364,13.547z"/>
<path fill="#613F34" d="M39.229,14.991c0,1.155,1.67,1.155,1.67,0C40.899,13.919,39.229,13.919,39.229,14.991z"/>
<path fill="#7D5037" d="M39.396,15.361c0,0.662,1.34,0.662,1.34,0C40.735,14.746,39.396,14.746,39.396,15.361z"/>
<path fill="#1A1626" d="M39.718,15.01c0,0.479,0.693,0.479,0.693,0C40.411,14.565,39.718,14.565,39.718,15.01z"/>
<path fill="#AB968C" d="M39.481,14.87c0,0.242,0.35,0.242,0.35,0C39.831,14.645,39.481,14.645,39.481,14.87z"/>
<path fill="#613F34" d="M34.304,14.991c0,1.155,1.672,1.155,1.672,0C35.976,13.919,34.304,13.919,34.304,14.991z"/>
<path fill="#7D5037" d="M34.47,15.36c0,0.663,1.34,0.663,1.34,0C35.81,14.746,34.47,14.746,34.47,15.36z"/>
<path fill="#1A1626" d="M34.792,15.01c0,0.479,0.695,0.479,0.695,0C35.487,14.564,34.792,14.564,34.792,15.01z"/>
<path fill="#AB968C" d="M34.558,14.869c0,0.243,0.35,0.243,0.35,0C34.907,14.645,34.558,14.645,34.558,14.869z"/>
<path fill="#E6B045" d="M41.63,15.122c0-1.413-2.922-1.413-2.922,0.224C39.126,14.003,41.212,14.003,41.63,15.122z"/>
<path fill="#E6B045" d="M33.575,15.122c0-1.413,2.922-1.413,2.922,0.224C36.079,14.002,33.991,14.002,33.575,15.122z"/>
<path fill="#302C3B" d="M42.343,2.004c-0.291-0.103-2.76,1.792-2.836,3.368c-0.084,1.787-0.191,3.074-0.266,3.85
	c-0.752-0.104-2.529-0.1-3.277,0.015c-0.074-0.774-0.18-2.066-0.266-3.864c-0.076-1.576-2.545-3.471-2.838-3.368
	C32.386,2.167,31.528,5,32.337,6.232c1.164,1.771,1.662,2.875,1.877,3.519c-0.666,0.311-1.23,0.733-1.598,1.283
	c3.412-1.213,6.674-1.213,10.086,0c-0.385-0.577-0.984-1.016-1.695-1.329c0.225-0.649,0.723-1.742,1.859-3.473
	C43.675,5,42.819,2.167,42.343,2.004z"/>
</svg>
