<?xml version="1.0" encoding="utf-8"?>
<!-- Generator: Adobe Illustrator 15.0.0, SVG Export Plug-In . SVG Version: 6.00 Build 0)  -->
<!DOCTYPE svg PUBLIC "-//W3C//DTD SVG 1.1//EN" "http://www.w3.org/Graphics/SVG/1.1/DTD/svg11.dtd" [
	<!ENTITY ns_flows "http://ns.adobe.com/Flows/1.0/">
	<!ENTITY ns_extend "http://ns.adobe.com/Extensibility/1.0/">
	<!ENTITY ns_ai "http://ns.adobe.com/AdobeIllustrator/10.0/">
	<!ENTITY ns_graphs "http://ns.adobe.com/Graphs/1.0/">
]>
<svg version="1.1" id="Layer_1" xmlns:x="&ns_extend;" xmlns:i="&ns_ai;" xmlns:graph="&ns_graphs;"
	 xmlns="http://www.w3.org/2000/svg" xmlns:xlink="http://www.w3.org/1999/xlink" xmlns:a="http://ns.adobe.com/AdobeSVGViewerExtensions/3.0/"
	 x="0px" y="0px" width="64px" height="64px" viewBox="0 0 64 64" enable-background="new 0 0 64 64" xml:space="preserve">
<path fill="#211E1A" d="M13.076,13.402C4.363,50.799,5.16,49.998,23.502,49.998C13.352,42.898,32.795,12.894,13.076,13.402z"/>
<path fill="#26221E" d="M9.934,12.824c-6.359,28.412-0.873,35.709,3.998,37.174h5.582C6.453,40.796,26.869,12.264,9.934,12.824z"/>
<path fill="#211E1A" d="M38.709,13.401c8.713,37.398,7.914,36.597-10.426,36.597C37.617,44.299,18.99,12.892,38.709,13.401z"/>
<path fill="#26221E" d="M41.85,12.822c9.295,25.849-0.02,35.979-3.998,37.176h-5.58C45.334,41.546,24.918,12.262,41.85,12.822z"/>
<path fill="#38332D" d="M43.396,26.712c2.691,6.572,0.029,20.059-5.545,23.286c6.178,0,9.939-8.55,11.773-20.309
	C51.918,14.994,38.602,14.986,43.396,26.712z"/>
<path fill="#38332D" d="M2.85,32.415c2.25,10.614,5.02,17.583,11.082,17.583C7.172,43,7.967,28.238,9.889,24.566
	C19.682,18.738-0.957,14.462,2.85,32.415z"/>
<path fill="#E6EBEF" d="M6.256,51.906c2.4-1.49,12.361-5.424,12.361-5.424h14.842c0,0,9.951,3.926,12.338,5.422
	C49.268,54.068,50,62,50,62H2C2,62,2.771,54.061,6.256,51.906"/>
<rect x="19.301" y="42.816" fill="#423225" width="13.396" height="9.625"/>
<path fill="#018BC9" d="M32,48.311c-1.842,1.043-3.879,1.641-6,1.641c-2.123,0-4.16-0.598-6-1.643L26,62L32,48.311z"/>
<path fill="#BEC3CF" d="M17.475,46.939c-1.818,5.576-0.973,9.133-0.973,9.133c1.533-1.396,4.539-2.941,4.541-2.943
	c-1.09,1.561-1.955,4.123-1.955,4.123C22.354,57.781,26,62,26,62S20.928,47.168,17.475,46.939z"/>
<path fill="#E6EBEF" d="M19.742,44.063c0,0-0.896-0.377-1.277,0.328c-2.248,4.186-1.5,10.104-1.5,10.104
	c1.531-1.396,4.59-1.813,4.59-1.814C20.465,54.24,20,55.998,20,55.998C22.307,57.104,26,62,26,62S22.916,52.943,19.742,44.063z"/>
<path fill="#BEC3CF" d="M34.525,46.939c1.814,5.576,0.969,9.133,0.969,9.133c-1.529-1.396-4.539-2.941-4.539-2.943
	c1.092,1.561,1.953,4.123,1.953,4.123C29.643,57.781,26,62,26,62S31.072,47.168,34.525,46.939z"/>
<path fill="#E6EBEF" d="M32.254,44.063c0,0,0.896-0.377,1.279,0.328c2.248,4.186,1.5,10.104,1.5,10.104
	c-1.529-1.396-4.588-1.813-4.59-1.814C31.533,54.24,32,55.998,32,55.998C29.693,57.104,26,62,26,62S29.08,52.943,32.254,44.063z"/>
<path fill="#CFD7DC" d="M7.881,62c0.512-2-0.09-5.039-0.727-6.713C6.561,53.727,6.785,60.9,7.881,62"/>
<path fill="#614A36" d="M26,4.415c-11.609,0-17.201,9.455-16.502,21.611c0.143,2.444,0.822,5.969,1.66,8.989
	C12.9,41.292,22.088,47.615,26,47.615c3.91,0,13.1-6.323,14.84-12.601c0.84-3.02,1.52-6.544,1.664-8.989
	C43.201,13.87,37.611,4.415,26,4.415z"/>
<path fill="#36281D" d="M26,37.587c-2.822-1.24-2.844-0.051-7.199,0.242c1.635,1.855,2.838,4.244,7.197,4.244
	c5.004,0,5.85-2.711,7.203-4.244C28.842,37.536,28.822,36.347,26,37.587z"/>
<path fill="#FFFFFF" d="M20.107,38.292c2.844,2.959,8.977,2.92,11.785,0C27.514,38.763,24.488,38.763,20.107,38.292z"/>
<path fill="#36281D" d="M38.795,21.61c-2.617-1.56-7.309-1.75-9.166-0.688c-0.393,0.214-0.287,1.341,0.053,1.2
	c2.648-1.104,6.682-1.158,9.168,0.117C39.184,22.409,39.189,21.836,38.795,21.61z"/>
<path fill="#36281D" d="M13.207,21.61c2.615-1.56,7.307-1.75,9.166-0.688c0.393,0.214,0.289,1.341-0.055,1.2
	c-2.648-1.104-6.68-1.159-9.166,0.117C12.818,22.409,12.811,21.836,13.207,21.61z"/>
<path fill="#423225" d="M29.6,33.345c0,2.342-7.199,2.342-7.199,0C22.4,32.808,29.6,32.808,29.6,33.345z"/>
<path fill="#FFFFFF" d="M38.541,26.357c-1.551,4.06-7.861,3.465-9.016,0.623C30.4,22.415,37.688,22.024,38.541,26.357z"/>
<path fill="#613F34" d="M31.105,25.916c0,3.596,5.201,3.596,5.201,0C36.307,22.578,31.105,22.578,31.105,25.916z"/>
<path fill="#7D5037" d="M31.619,27.066c0,2.063,4.172,2.063,4.172,0C35.791,25.152,31.619,25.152,31.619,27.066z"/>
<path fill="#1A1626" d="M32.627,25.972c0,1.492,2.158,1.492,2.158,0C34.785,24.587,32.627,24.587,32.627,25.972z"/>
<path fill="#AB968C" d="M31.889,25.537c0,0.754,1.09,0.754,1.09,0C32.979,24.836,31.889,24.836,31.889,25.537z"/>
<path fill="#45332C" d="M38.541,26.326c0-4.361-9.016-4.361-9.016,0.691C30.811,22.871,37.254,22.871,38.541,26.326z"/>
<path fill="#FFFFFF" d="M13.459,26.357c1.553,4.06,7.863,3.466,9.02,0.623C21.602,22.415,14.314,22.024,13.459,26.357z"/>
<path fill="#613F34" d="M15.695,25.921c0,3.596,5.199,3.596,5.199,0C20.895,22.583,15.695,22.583,15.695,25.921z"/>
<path fill="#7D5037" d="M16.209,27.072c0,2.062,4.172,2.062,4.172,0C20.381,25.158,16.209,25.158,16.209,27.072z"/>
<path fill="#1A1626" d="M17.215,25.978c0,1.492,2.16,1.492,2.16,0C19.375,24.592,17.215,24.592,17.215,25.978z"/>
<path fill="#AB968C" d="M16.479,25.542c0,0.755,1.09,0.755,1.09,0C17.568,24.841,16.479,24.841,16.479,25.542z"/>
<path fill="#45332C" d="M13.459,26.326c0-4.361,9.02-4.361,9.02,0.689C21.191,22.87,14.748,22.87,13.459,26.326z"/>
<path fill="#38332D" d="M38.973,6.105c-8.141,8.342-0.371,8.881,4.424,20.607c2.691,6.572,4.395,14.736,6.229,2.977
	C51.918,14.994,43.109,4.878,38.973,6.105z"/>
<path fill="#38332D" d="M18.99,2.911C8.666,5.34-0.957,14.462,2.85,32.415c2.25,10.614,5.117-4.177,7.039-7.849
	c9.793-5.828,26.539-10.241,29.084-18.461C40.264,4.208,29.32,0.205,18.99,2.911z"/>
<path fill="#26221E" d="M11.08,15.988c4.365-0.885,25.25-1.302,27.893-9.883C34.037,10.039,28.924,11.11,11.08,15.988z"/>
<path fill="#26221E" d="M3.553,29.636c7.324-9.773,31.316-8.695,35.42-23.531C31.006,18.557,5.555,20.241,3.553,29.636z"/>
<path fill="#26221E" d="M36.559,8.139c-1.891,2.978,4.678-1.397,11.756,17.785C46.57,14.709,40.588,6.988,36.559,8.139z"/>
<linearGradient id="SVGID_1_" gradientUnits="userSpaceOnUse" x1="25.9985" y1="33.29" x2="25.9985" y2="20.9316">
	<stop  offset="0" style="stop-color:#FFFFFF;stop-opacity:0.2"/>
	<stop  offset="1" style="stop-color:#FFFFFF"/>
	<a:midPointStop  offset="0" style="stop-color:#FFFFFF;stop-opacity:0.2"/>
	<a:midPointStop  offset="0.5" style="stop-color:#FFFFFF;stop-opacity:0.2"/>
	<a:midPointStop  offset="1" style="stop-color:#FFFFFF"/>
</linearGradient>
<path opacity="0.8" fill="url(#SVGID_1_)" d="M8.832,20.931c0,0,0,6.256,0,8.429c0,1.524,7.193,2.889,10.533,3.778
	c0.848,0.229,2.018,0.357,2.504-0.801c0.828-1.97,1.408-3.403,2.4-5.745c0.434-1.029,3.025-1.031,3.459,0
	c0.992,2.342,1.574,3.774,2.4,5.745c0.486,1.158,1.658,1.029,2.506,0.801c3.338-0.889,10.529-2.253,10.529-3.778
	c0-2.173,0-8.429,0-8.429H8.832z"/>
<path fill="#F5F5F5" d="M29.244,31.571c0,0-2.137-4.294-2.539-5.087c-0.133-0.262-0.381-0.412-0.688-0.414
	c-0.26,0.016-0.566,0.107-0.725,0.414c-0.4,0.793-2.539,5.087-2.539,5.087c-0.107,0.211-1.025-0.113-0.92-0.324
	c0,0,2.141-4.294,2.545-5.088c0.285-0.561,0.926-0.922,1.637-0.922c0.002,0,0.004,0,0.004,0c0.703,0.002,1.316,0.354,1.604,0.922
	c0.402,0.794,2.541,5.088,2.541,5.088C30.271,31.458,29.326,31.729,29.244,31.571z"/>
<path fill="#302C3B" d="M43.852,22.004c-11.883-0.935-23.822-0.935-35.705,0C8.098,21.38,8.049,20.756,8,20.13
	c11.979-0.943,24.016-0.943,36,0C43.947,20.756,43.9,21.38,43.852,22.004z"/>
<path fill="#423225" d="M50.063,42.438c0.896-2.025-2.037-3.449-2.166-1.957c-0.174,1.998,0.305,4.06-0.709,6.364
	c-1.35,3.064,3.098,9.789,3.346,8.779s5.137-2.643,5.582-5.275C56.365,48.887,49.699,43.258,50.063,42.438z"/>
<path fill="#CAE8F0" d="M54.5,47v-7.501c0.686,0,1.25-0.564,1.25-1.252c0-0.686-0.564-1.248-1.25-1.248h-5
	c-0.689,0-1.25,0.563-1.25,1.248c0,0.688,0.561,1.252,1.25,1.252V47c0,3.125-7.5,10.652-7.5,12.5C42,62,49.422,62,52,62s10,0,10-2.5
	C62,57.652,54.5,50.125,54.5,47z"/>
<linearGradient id="SVGID_2_" gradientUnits="userSpaceOnUse" x1="43.25" y1="55.75" x2="60.75" y2="55.75">
	<stop  offset="0" style="stop-color:#A3F01F"/>
	<stop  offset="1" style="stop-color:#62AD00"/>
	<a:midPointStop  offset="0" style="stop-color:#A3F01F"/>
	<a:midPointStop  offset="0.5" style="stop-color:#A3F01F"/>
	<a:midPointStop  offset="1" style="stop-color:#62AD00"/>
</linearGradient>
<path fill="url(#SVGID_2_)" d="M48.875,50.75c-2.178,3.783-5.625,7.42-5.625,8.459c0,1.049,5.385,1.541,8.75,1.541
	c3.363,0,8.75-0.492,8.75-1.541c0-1.039-3.449-4.676-5.625-8.459H48.875z"/>
<path fill="#614A36" d="M55.895,43.955c1.691,0.852,0.926,2.311,0.49,2.705c1.121,1.143,0.629,2.568,0.252,2.889
	c1.404,2.492-5.752,2.523-4.314,0.461c-1.719,0.232-2.184-1.678-0.432-2.186c-1.975,0.357-1.725-1.877-0.551-2.139
	c0.441-0.098,0.891-0.309,1.398-0.416c-2.01,0.334-1.697-2.01-0.697-2.467C53.834,41.983,56.176,40.942,55.895,43.955z"/>
</svg>
