<?xml version="1.0" encoding="utf-8"?>
<!-- Generator: Adobe Illustrator 19.0.0, SVG Export Plug-In . SVG Version: 6.00 Build 0)  -->
<svg version="1.1" id="Layer_1" xmlns="http://www.w3.org/2000/svg" xmlns:xlink="http://www.w3.org/1999/xlink" x="0px" y="0px"
	 width="64px" height="64px" viewBox="0 0 64 64" enable-background="new 0 0 64 64" xml:space="preserve">
<path fill="#302C3B" d="M10.539,50.848c2.699-1.645,14.848-5.285,14.848-5.285h14.727c0,0,12.226,3.631,14.912,5.281
	C58.93,53.237,59.75,62,59.75,62h-54C5.75,62,6.621,53.229,10.539,50.848"/>
<path fill="#916B50" d="M24.75,48.411c0,2.239,8,13.038,8,13.038s8-10.275,8-13.038V37.779h-16V48.411z"/>
<path fill="#1A1626" d="M12.207,62c0.576-2.209-0.102-5.568-0.82-7.416C10.721,52.861,10.973,60.783,12.207,62"/>
<path fill="#1A1626" d="M54.111,54.584c-0.719,1.85-1.395,5.206-0.82,7.415C54.527,60.785,54.779,52.861,54.111,54.584"/>
<path fill="#755035" d="M15.65,24.236c-5.718-1.031-1.252,14.957,3.225,10.547C20.948,32.739,18.325,24.72,15.65,24.236z"/>
<path fill="#755035" d="M49.85,24.236c-2.675,0.483-5.299,8.503-3.224,10.547C51.104,39.193,55.565,23.205,49.85,24.236z"/>
<path fill="#916B50" d="M32.75,5.488c-11.823,0-17.521,8.945-16.807,21.384c0.143,2.503,1.693,10.665,3.158,13.593
	c1.499,2.995,6.512,7.614,9.584,8.57c1.941,0.604,6.189,0.604,8.128,0c3.072-0.956,8.086-5.575,9.585-8.57
	c1.466-2.928,3.016-11.09,3.158-13.593C50.271,14.434,44.575,5.488,32.75,5.488z"/>
<path fill="#664129" d="M32.75,39.35c-2.66-0.782-6.6,0.37-6.6,0.37c1.501,1.635,2.601,3.756,6.6,3.756
	c4.582,0,5.36-2.407,6.6-3.756C39.349,39.72,35.406,38.563,32.75,39.35z"/>
<path fill="#FFFFFF" d="M27.157,39.996c2.786,2.34,8.418,2.354,11.221,0C35.406,40.124,30.149,40.125,27.157,39.996z"/>
<path fill="#755035" d="M36.417,34.952c0,2.386-7.333,2.386-7.333,0C29.084,34.404,36.417,34.404,36.417,34.952z"/>
<path fill="#FFFFFF" d="M45.408,27.834c-1.579,4.136-8.007,3.529-9.185,0.635C37.117,23.819,44.541,23.422,45.408,27.834z"/>
<path fill="#FFFFFF" d="M20.09,27.834c1.58,4.136,8.01,3.529,9.186,0.635C28.382,23.817,20.96,23.42,20.09,27.834z"/>
<path fill="#664129" d="M46.064,22.855c-2.704-1.342-7.879-1.407-9.807-0.472c-0.412,0.182-0.141,1.454,0.208,1.332
	c2.686-0.995,7.02-1.019,9.534,0.086C46.335,23.943,46.474,23.044,46.064,22.855z"/>
<path fill="#664129" d="M19.435,22.855c2.704-1.342,7.878-1.407,9.807-0.472c0.413,0.182,0.141,1.454-0.206,1.332
	c-2.691-0.995-7.021-1.019-9.537,0.086C19.165,23.943,19.026,23.044,19.435,22.855z"/>
<path fill="#613F34" d="M37.863,27.393c0,3.629,5.25,3.629,5.25,0C43.113,24.024,37.863,24.024,37.863,27.393z"/>
<path fill="#7D5037" d="M38.383,28.555c0,2.081,4.212,2.081,4.212,0C42.595,26.623,38.383,26.623,38.383,28.555z"/>
<path fill="#1A1626" d="M39.398,27.45c0,1.507,2.18,1.507,2.18,0C41.578,26.053,39.398,26.053,39.398,27.45z"/>
<path fill="#AB968C" d="M38.655,27.011c0,0.761,1.101,0.761,1.101,0C39.756,26.305,38.655,26.305,38.655,27.011z"/>
<path fill="#613F34" d="M22.387,27.392c0,3.63,5.25,3.63,5.25,0C27.637,24.023,22.387,24.023,22.387,27.392z"/>
<path fill="#7D5037" d="M22.906,28.554c0,2.081,4.211,2.081,4.211,0C27.117,26.622,22.906,26.622,22.906,28.554z"/>
<path fill="#1A1626" d="M23.922,27.45c0,1.506,2.18,1.506,2.18,0C26.101,26.052,23.922,26.052,23.922,27.45z"/>
<path fill="#AB968C" d="M23.178,27.01c0,0.761,1.101,0.761,1.101,0C24.278,26.304,23.178,26.304,23.178,27.01z"/>
<path fill="#755035" d="M45.408,27.803c0-4.44-9.185-4.44-9.185,0.703C37.535,24.286,44.097,24.286,45.408,27.803z"/>
<path fill="#755035" d="M20.09,27.803c0-4.44,9.186-4.44,9.186,0.702C27.965,24.283,21.402,24.283,20.09,27.803z"/>
<path fill="#4A2E24" d="M46.644,16.503c0.458,2.989,0.988,4.383,1.791,6.342c1.174,2.863,0.429,4.483,0.802,7.254
	c1.306-4.869,1.723-8.685,1.47-13.596H46.644z"/>
<path fill="#4A2E24" d="M18.854,16.503c-0.459,2.989-0.989,4.383-1.792,6.342c-1.174,2.863-0.428,4.483-0.802,7.254
	c-1.306-4.869-1.723-8.685-1.47-13.596H18.854z"/>
<polygon fill="#E6EBEF" points="56.744,38.039 42.91,62 49.84,62 61.941,41.039 "/>
<polygon fill="#CFD8DD" points="48.418,60.557 60.041,39.496 60.908,39.996 "/>
<path fill="#CFD8DD" d="M61.941,41.039c-0.668,1.154-5.863-1.846-5.197-3C57.412,36.884,62.607,39.884,61.941,41.039z"/>
<path fill="#E81C27" d="M48.715,51.948l-1,1.731c-0.668,1.154,4.529,4.154,5.195,3l1-1.731
	C53.244,56.103,48.047,53.103,48.715,51.948z"/>
<path fill="#1A1626" d="M14.723,6.938V17.55c10.486,0,18.027,3.388,18.027,3.388s7.541-3.388,18.027-3.388V6.938H14.723z"/>
<polygon fill="#302C3B" points="32.75,2 3.5,5.556 3.5,6.493 32.75,10.938 62,6.493 62,5.556 "/>
<path fill="#FFCF0A" d="M3.5,6.493v24.054c0,0.645,1,0.645,1,0V6.641L3.5,6.493z"/>
<path fill="#F0C100" d="M5,29.398c-0.314-0.391-1.646-0.355-2,0c-0.178,0.176-0.193,0.842,0,1c0.389,0.313,1.646,0.354,2,0
	C5.176,30.221,5.156,29.592,5,29.398"/>
<path fill="#F0C100" d="M6,37.898c0,2.209-0.002,2-2,2c-2,0-2,0.209-2-2s0.896-6,2-6S6,35.689,6,37.898"/>
<path fill="#C79414" d="M3.75,39.898c0,0,0.25-3.059,0.25-3.998l0.25,3.998H3.75z"/>
<path fill="#C79414" d="M2.75,39.898c0,0,0.25-3.059,0.25-3.998l0.25,3.998H2.75z"/>
<path fill="#C79414" d="M4.75,39.898c0,0,0.25-3.059,0.25-3.998l0.25,3.998H4.75z"/>
<path fill="#FFCF0A" d="M3.998,29.898c1.104,0,2,0.895,2,2c0,1.104-0.896,1.998-2,1.998C2.894,33.896,2,33.002,2,31.898
	C2,30.793,2.894,29.898,3.998,29.898"/>
<path fill="#755035" d="M36.827,49.051c-1.939,0.604-6.188,0.604-8.127,0c-1.024-0.318-2.265-1.049-3.518-1.985
	c6.623,5.663,8.527,5.667,15.135,0.021C39.073,48.013,37.843,48.734,36.827,49.051z"/>
</svg>
