<?xml version="1.0" encoding="utf-8"?>
<!-- Generator: Adobe Illustrator 15.0.0, SVG Export Plug-In . SVG Version: 6.00 Build 0)  -->
<!DOCTYPE svg PUBLIC "-//W3C//DTD SVG 1.1//EN" "http://www.w3.org/Graphics/SVG/1.1/DTD/svg11.dtd" [
	<!ENTITY ns_flows "http://ns.adobe.com/Flows/1.0/">
	<!ENTITY ns_extend "http://ns.adobe.com/Extensibility/1.0/">
	<!ENTITY ns_ai "http://ns.adobe.com/AdobeIllustrator/10.0/">
	<!ENTITY ns_graphs "http://ns.adobe.com/Graphs/1.0/">
]>
<svg version="1.1" id="Layer_1" xmlns:x="&ns_extend;" xmlns:i="&ns_ai;" xmlns:graph="&ns_graphs;"
	 xmlns="http://www.w3.org/2000/svg" xmlns:xlink="http://www.w3.org/1999/xlink" xmlns:a="http://ns.adobe.com/AdobeSVGViewerExtensions/3.0/"
	 x="0px" y="0px" width="64px" height="64px" viewBox="0 0 64 64" enable-background="new 0 0 64 64" xml:space="preserve">
<path fill="#594640" d="M11.52,33.445C-7.787,44.838,9.187,55.213,3.688,60.124C14.367,66.753,40.51,55.33,11.52,33.445z"/>
<path fill="#453631" d="M5.752,37.774c4.74,18.193,14.49,18.818,13.677,22.112C28.493,55.135,28.576,39.801,5.752,37.774z"/>
<path fill="#594640" d="M52.48,33.445c19.307,11.393,2.333,21.768,7.831,26.679C49.633,66.753,23.49,55.33,52.48,33.445z"/>
<path fill="#453631" d="M58.248,37.774c-4.74,18.193-14.49,18.818-13.677,22.112C35.507,55.135,35.424,39.801,58.248,37.774z"/>
<path fill="#594640" d="M5.59,32.982h52.79C66.063-8.327-2.092-8.327,5.59,32.982z"/>
<path fill="#453631" d="M5.527,32.474c0,0,30.047,11.218,50.881-1.782c-4.207,0.796-11.041-15.307-43.035-16.515
	C12.201,32.474,6.576,27.51,5.527,32.474z"/>
<path fill="#CFD8DD" d="M55.904,30.039c2.239-30.91-50.086-30.91-47.846,0C10.01,4.079,53.952,4.079,55.904,30.039z"/>
<path fill="#FFFFFF" d="M55.904,29.039c2.239-30.91-50.086-30.91-47.846,0C10.01,3.079,53.952,3.079,55.904,29.039z"/>
<path fill="#E6B045" d="M8.619,30.251c-9.107-1.386-3.174,20.11,3.957,14.182C15.881,41.684,12.881,30.901,8.619,30.251z"/>
<path fill="#E6B045" d="M55.351,30.251c-4.263,0.649-7.263,11.432-3.958,14.182C58.525,50.359,64.456,28.866,55.351,30.251z"/>
<path fill="#FFCC66" d="M55.055,30.294c-8.727-2.48-19.894-14.355-41.121-12.92c0.373,4.669-0.855,9.961-4.949,12.938
	c0,0-0.019,4.194,1.475,11.872c2.445,12.568,12.598,17.502,21.525,17.502s19.083-4.934,21.525-17.502
	C55.004,34.504,55.055,30.294,55.055,30.294z"/>
<path fill="#FFFFFF" d="M49.035,34.42c-2.124,5.559-10.763,4.744-12.347,0.854C37.89,29.024,47.868,28.489,49.035,34.42z"/>
<path fill="#613F34" d="M38.893,33.828c0,4.879,7.059,4.879,7.059,0C45.951,29.299,38.893,29.299,38.893,33.828z"/>
<path fill="#7D5037" d="M39.592,35.389c0,2.798,5.66,2.798,5.66,0C45.252,32.792,39.592,32.792,39.592,35.389z"/>
<path fill="#1A1626" d="M40.957,33.904c0,2.025,2.93,2.025,2.93,0C43.887,32.025,40.957,32.025,40.957,33.904z"/>
<path fill="#AB968C" d="M39.957,33.313c0,1.022,1.479,1.022,1.479,0C41.436,32.364,39.957,32.364,39.957,33.313z"/>
<path fill="#E6B045" d="M49.035,34.379c0-5.969-12.347-5.969-12.347,0.945C38.452,29.651,47.271,29.651,49.035,34.379z"/>
<path fill="#FFFFFF" d="M15.002,34.42c2.123,5.559,10.766,4.744,12.347,0.854C26.147,29.021,16.173,28.487,15.002,34.42z"/>
<path fill="#613F34" d="M18.09,33.826c0,4.879,7.057,4.879,7.057,0C25.146,29.299,18.09,29.299,18.09,33.826z"/>
<path fill="#7D5037" d="M18.787,35.387c0,2.798,5.662,2.798,5.662,0C24.449,32.791,18.787,32.791,18.787,35.387z"/>
<path fill="#1A1626" d="M20.154,33.904c0,2.023,2.928,2.023,2.928,0C23.082,32.023,20.154,32.023,20.154,33.904z"/>
<path fill="#AB968C" d="M19.152,33.312c0,1.023,1.479,1.023,1.479,0C20.632,32.362,19.152,32.362,19.152,33.312z"/>
<path fill="#E6B045" d="M15.002,34.379c0-5.969,12.347-5.969,12.347,0.943C25.587,29.647,16.766,29.647,15.002,34.379z"/>
<path fill="#C1873C" d="M50.176,28.326c-3.688-1.83-10.744-1.919-13.373-0.644c-0.563,0.247-0.191,1.982,0.283,1.816
	c3.664-1.357,9.572-1.389,13.002,0.117C50.544,29.809,50.734,28.582,50.176,28.326z"/>
<path fill="#C1873C" d="M13.863,28.326c3.688-1.83,10.742-1.919,13.373-0.644c0.563,0.247,0.191,1.982-0.281,1.816
	c-3.67-1.357-9.573-1.389-13.005,0.117C13.494,29.809,13.306,28.582,13.863,28.326z"/>
<path fill="#E6A400" d="M32.02,49.266c-3.627-1.066-9,0.506-9,0.506c2.047,2.229,3.547,5.121,9,5.121c6.248,0,7.311-3.283,9-5.121
	C41.02,49.771,35.643,48.193,32.02,49.266z"/>
<path fill="#FFFFFF" d="M24.393,50.148c3.801,3.19,11.48,3.21,15.301,0C35.643,50.322,28.473,50.324,24.393,50.148z"/>
<path fill="#E6B045" d="M37.02,44.487c0,3.254-10,3.254-10,0C27.02,43.74,37.02,43.74,37.02,44.487z"/>
</svg>
