<?xml version="1.0" encoding="utf-8"?>
<!-- Generator: Adobe Illustrator 19.0.0, SVG Export Plug-In . SVG Version: 6.00 Build 0)  -->
<svg version="1.1" id="Layer_1" xmlns="http://www.w3.org/2000/svg" xmlns:xlink="http://www.w3.org/1999/xlink" x="0px" y="0px"
	 width="64px" height="64px" viewBox="0 0 64 64" enable-background="new 0 0 64 64" xml:space="preserve">
<path fill="#947D41" d="M19.076,13.402C10.363,50.8,11.161,49.999,29.501,49.999C19.353,42.898,38.794,12.893,19.076,13.402z"/>
<path fill="#BA9D52" d="M15.933,12.823c-6.357,28.413-0.873,35.709,3.998,37.176h5.582C12.453,40.797,32.869,12.264,15.933,12.823z"
	/>
<path fill="#947D41" d="M44.71,13.401c8.711,37.396,7.914,36.596-10.426,36.596C43.617,44.299,24.99,12.892,44.71,13.401z"/>
<path fill="#BA9D52" d="M47.851,12.822c9.295,25.85-0.021,35.979-3.998,37.175h-5.58C51.333,41.547,30.917,12.263,47.851,12.822z"/>
<path fill="#EFDE8B" d="M49.398,26.713c2.691,6.571,0.027,20.058-5.545,23.286c6.176,0,9.939-8.55,11.774-20.311
	C57.917,14.994,44.601,14.986,49.398,26.713z"/>
<path fill="#EFDE8B" d="M8.849,32.415c2.25,10.614,5.02,17.584,11.082,17.584C13.173,43,13.968,28.238,15.888,24.565
	C25.681,18.738,5.044,14.463,8.849,32.415z"/>
<path fill="#E6EBEF" d="M12.257,51.71c2.398-1.517,12.361-5.525,12.361-5.525h14.84c0,0,9.953,3.999,12.34,5.523
	C55.269,53.916,55.999,62,55.999,62h-48C7.999,62,8.773,53.908,12.257,51.71"/>
<path fill="#CFD7DC" d="M12.845,62c0.559-2.036-0.1-5.136-0.795-6.842C11.404,53.568,11.646,60.881,12.845,62"/>
<path fill="#CFD7DC" d="M51.154,62c-0.557-2.036,0.098-5.136,0.795-6.842C52.595,53.568,52.351,60.881,51.154,62"/>
<path fill="#302C3B" d="M45.669,55.553c-0.846-5.353-3.422-8.813-7.662-10.287c-6.871-2.386-18.568,1.111-18.816,4.431l-1.133-0.165
	c0-4.15,13.053-7.649,20.273-5.143c4.598,1.598,7.387,5.306,8.289,11.023L45.669,55.553z"/>
<path fill="#CFD8DD" d="M46.144,54.551c2.119,0,3.84,1.669,3.84,3.726c0,2.057-1.721,3.724-3.84,3.724
	c-2.119,0-3.84-1.667-3.84-3.724C42.304,56.22,44.025,54.551,46.144,54.551"/>
<path fill="#4E5E67" d="M46.144,55.482c1.592,0,2.879,1.249,2.879,2.795c0,1.542-1.287,2.791-2.879,2.791s-2.881-1.249-2.881-2.791
	C43.263,56.731,44.552,55.482,46.144,55.482"/>
<path fill="#BEC3CF" d="M46.144,55.947c1.326,0,2.398,1.043,2.398,2.33c0,1.286-1.072,2.326-2.398,2.326
	c-1.326,0-2.4-1.04-2.4-2.326C43.744,56.99,44.818,55.947,46.144,55.947"/>
<rect x="25.033" y="42.444" fill="#D6A67A" width="13.932" height="9.811"/>
<path fill="#018BC9" d="M38.24,49.12c-1.914,0.981-4.033,1.544-6.24,1.544c-2.205,0-4.324-0.563-6.238-1.547L31.999,62L38.24,49.12z
	"/>
<path fill="#BEC3CF" d="M23.134,46.649c-1.891,5.683-1.01,9.311-1.01,9.311c1.592-1.426,4.719-3.001,4.719-3.002
	c-1.133,1.591-2.029,4.204-2.029,4.204C28.208,57.701,31.999,62,31.999,62S26.724,46.881,23.134,46.649z"/>
<path fill="#E6EBEF" d="M25.494,43.715c0,0-0.932-0.384-1.328,0.334c-2.34,4.268-1.56,10.301-1.56,10.301
	c1.592-1.425,4.771-1.847,4.773-1.849c-1.135,1.591-1.617,3.383-1.617,3.383C28.158,57.008,31.999,62,31.999,62
	S28.792,52.768,25.494,43.715z"/>
<path fill="#BEC3CF" d="M40.865,46.649c1.891,5.683,1.012,9.311,1.012,9.311c-1.592-1.426-4.721-3.001-4.723-3.002
	c1.135,1.591,2.033,4.204,2.033,4.204C35.79,57.701,31.999,62,31.999,62S37.275,46.881,40.865,46.649z"/>
<path fill="#E6EBEF" d="M38.505,43.715c0,0,0.934-0.384,1.33,0.334c2.338,4.268,1.559,10.301,1.559,10.301
	c-1.592-1.425-4.771-1.847-4.771-1.849c1.131,1.591,1.617,3.383,1.617,3.383c-2.4,1.124-6.24,6.116-6.24,6.116
	S35.206,52.768,38.505,43.715z"/>
<path fill="#302C3B" d="M23.683,54.228H22.55c-0.002-2.124-1.781-3.851-3.971-3.851c-2.189-0.001-3.971,1.728-3.973,3.851h-1.131
	c0-2.729,2.289-4.95,5.104-4.951C21.394,49.276,23.683,51.5,23.683,54.228"/>
<path fill="#99A8AE" d="M13.476,54.228l-0.002,5.837c0.002,1.057,0.549,1.828,1.701,1.909c0.732,0.053,0.725-1.049-0.002-1.101
	c-0.758-0.053-0.564-0.939-0.564-1.456l-0.002-5.189C14.609,53.519,13.474,53.519,13.476,54.228"/>
<path fill="#99A8AE" d="M22.55,54.228v5.031c-0.002,0.527,0.227,1.558-0.566,1.614c-0.727,0.052-0.731,1.153,0,1.101
	c1.084-0.076,1.699-0.793,1.699-1.821v-5.925C23.683,53.518,22.55,53.519,22.55,54.228"/>
<path fill="#302C3B" d="M15.941,61.977l-0.828-0.001c-0.727,0-0.727-1.212,0-1.211l0.828,0.002
	C16.669,60.764,16.669,61.976,15.941,61.977z"/>
<path fill="#302C3B" d="M22.046,61.976H21.22c-0.73,0-0.73-1.211-0.002-1.211l0.828,0.002
	C22.773,60.765,22.773,61.976,22.046,61.976z"/>
<path fill="#E3C19B" d="M31.999,4.415c-11.609,0-17.201,9.455-16.502,21.611c0.143,2.443,0.822,5.969,1.662,8.988
	c1.74,6.278,10.928,12.601,14.84,12.601s13.1-6.322,14.842-12.601c0.838-3.019,1.518-6.545,1.662-8.988
	C49.201,13.87,43.611,4.415,31.999,4.415z"/>
<path fill="#C97E55" d="M32.001,37.587c-2.822-1.24-2.844-0.05-7.201,0.242c1.637,1.856,2.84,4.244,7.199,4.244
	c5.002,0,5.848-2.711,7.203-4.244C34.843,37.537,34.824,36.347,32.001,37.587z"/>
<path fill="#FFFFFF" d="M26.109,38.292c2.844,2.959,8.977,2.92,11.783,0.001C33.515,38.764,30.488,38.764,26.109,38.292z"/>
<path fill="#594640" d="M44.794,21.61c-2.615-1.56-7.307-1.75-9.164-0.688c-0.395,0.214-0.287,1.341,0.053,1.2
	c2.648-1.104,6.682-1.158,9.168,0.117C45.183,22.409,45.191,21.837,44.794,21.61z"/>
<path fill="#594640" d="M19.206,21.61c2.615-1.56,7.307-1.75,9.166-0.688c0.395,0.214,0.289,1.341-0.053,1.2
	c-2.648-1.104-6.68-1.159-9.168,0.117C18.818,22.409,18.812,21.837,19.206,21.61z"/>
<path fill="#D6A67A" d="M35.601,33.345c0,2.342-7.201,2.342-7.201,0C28.4,32.807,35.601,32.807,35.601,33.345z"/>
<path fill="#FFFFFF" d="M44.542,26.357c-1.553,4.06-7.861,3.464-9.018,0.623C36.402,22.415,43.689,22.024,44.542,26.357z"/>
<path fill="#613F34" d="M37.107,25.916c0,3.596,5.199,3.596,5.199,0C42.306,22.578,37.107,22.578,37.107,25.916z"/>
<path fill="#7D5037" d="M37.62,27.065c0,2.063,4.172,2.063,4.172,0C41.792,25.152,37.62,25.152,37.62,27.065z"/>
<path fill="#1A1626" d="M38.626,25.972c0,1.492,2.16,1.492,2.16,0C40.786,24.587,38.626,24.587,38.626,25.972z"/>
<path fill="#AB968C" d="M37.89,25.536c0,0.754,1.09,0.754,1.09,0C38.98,24.837,37.89,24.837,37.89,25.536z"/>
<path fill="#45332C" d="M44.542,26.326c0-4.361-9.018-4.361-9.018,0.69C36.812,22.871,43.255,22.871,44.542,26.326z"/>
<path fill="#FFFFFF" d="M19.46,26.357c1.551,4.06,7.861,3.466,9.017,0.623C27.603,22.415,20.314,22.024,19.46,26.357z"/>
<path fill="#613F34" d="M21.695,25.921c0,3.596,5.201,3.596,5.201,0C26.896,22.584,21.695,22.584,21.695,25.921z"/>
<path fill="#7D5037" d="M22.208,27.071c0,2.063,4.172,2.063,4.172,0C26.38,25.158,22.208,25.158,22.208,27.071z"/>
<path fill="#1A1626" d="M23.216,25.977c0,1.492,2.158,1.492,2.158,0C25.374,24.593,23.216,24.593,23.216,25.977z"/>
<path fill="#AB968C" d="M22.478,25.542c0,0.754,1.09,0.754,1.09,0C23.568,24.842,22.478,24.842,22.478,25.542z"/>
<path fill="#45332C" d="M19.46,26.326c0-4.361,9.017-4.361,9.017,0.688C27.191,22.87,20.747,22.87,19.46,26.326z"/>
<path fill="#EFDE8B" d="M44.972,6.105c-8.139,8.342-0.371,8.881,4.426,20.607c2.691,6.571,4.394,14.736,6.229,2.976
	C57.917,14.994,49.109,4.878,44.972,6.105z"/>
<path fill="#EFDE8B" d="M24.99,2.911C14.667,5.341,5.044,14.463,8.849,32.415c2.25,10.614,5.119-4.177,7.039-7.85
	c9.793-5.827,26.539-10.24,29.084-18.46C46.265,4.209,35.32,0.205,24.99,2.911z"/>
<path fill="#BA9D52" d="M17.081,15.988c4.365-0.885,25.25-1.302,27.891-9.883C40.036,10.039,34.925,11.11,17.081,15.988z"/>
<path fill="#BA9D52" d="M9.554,29.637c7.324-9.774,31.315-8.695,35.418-23.531C37.007,18.557,11.556,20.241,9.554,29.637z"/>
<path fill="#BA9D52" d="M42.558,8.139c-1.889,2.977,4.678-1.398,11.758,17.785C52.57,14.71,46.589,6.987,42.558,8.139z"/>
</svg>
