<?xml version="1.0" encoding="utf-8"?>
<!-- Generator: Adobe Illustrator 15.0.0, SVG Export Plug-In . SVG Version: 6.00 Build 0)  -->
<!DOCTYPE svg PUBLIC "-//W3C//DTD SVG 1.1//EN" "http://www.w3.org/Graphics/SVG/1.1/DTD/svg11.dtd" [
	<!ENTITY ns_flows "http://ns.adobe.com/Flows/1.0/">
	<!ENTITY ns_extend "http://ns.adobe.com/Extensibility/1.0/">
	<!ENTITY ns_ai "http://ns.adobe.com/AdobeIllustrator/10.0/">
	<!ENTITY ns_graphs "http://ns.adobe.com/Graphs/1.0/">
]>
<svg version="1.1" id="Layer_1" xmlns:x="&ns_extend;" xmlns:i="&ns_ai;" xmlns:graph="&ns_graphs;"
	 xmlns="http://www.w3.org/2000/svg" xmlns:xlink="http://www.w3.org/1999/xlink" xmlns:a="http://ns.adobe.com/AdobeSVGViewerExtensions/3.0/"
	 x="0px" y="0px" width="64px" height="64px" viewBox="0 0 64 64" enable-background="new 0 0 64 64" xml:space="preserve">
<path fill="#3B2C29" d="M55.146,35.659C56.68,63.706,56.202,63.032,42.974,60.7C51.194,56.872,40.986,32.784,55.146,35.659z"/>
<path fill="#453631" d="M57.484,35.642c0.977,21.277-3.906,25.836-7.605,26.275l-4.028-0.709
	C56.442,56.235,45.341,33.085,57.484,35.642z"/>
<path fill="#3B2C29" d="M36.657,32.396c-11.038,25.834-10.359,25.359,2.868,27.691C33.52,54.796,50.944,34.538,36.657,32.396z"/>
<path fill="#453631" d="M34.46,31.581c-9.983,17.44-4.554,25.92-1.837,27.29l4.028,0.711C28.304,51.831,46.748,33.331,34.46,31.581z
	"/>
<path fill="#594640" d="M31.581,41.392c-2.775,4.393-2.567,14.447,1.04,17.482c-4.452-0.785-6.079-7.424-5.909-16.133
	C26.927,31.863,36.533,33.554,31.581,41.392z"/>
<path fill="#594640" d="M60.106,50.657c-2.972,7.357-5.853,12.031-10.228,11.26c5.762-4.186,7.064-14.92,6.146-17.813
	C49.702,38.661,65.13,38.206,60.106,50.657z"/>
<radialGradient id="SVGID_1_" cx="-876.9355" cy="-339.7207" r="9.8119" gradientTransform="matrix(1.4308 0.2523 -0.2682 1.5209 1198.2924 742.7767)" gradientUnits="userSpaceOnUse">
	<stop  offset="0.4182" style="stop-color:#FF0071"/>
	<stop  offset="0.6534" style="stop-color:#F6006B"/>
	<stop  offset="1" style="stop-color:#E0005D"/>
	<a:midPointStop  offset="0.4182" style="stop-color:#FF0071"/>
	<a:midPointStop  offset="0.5979" style="stop-color:#FF0071"/>
	<a:midPointStop  offset="1" style="stop-color:#E0005D"/>
</radialGradient>
<path fill="url(#SVGID_1_)" d="M34.349,6.33c-2.462-6.216-12.396-5.71-13.638,1.333c-0.833,4.725,3.014,8.663,10.378,17.155
	c9.825-5.461,14.788-7.847,15.621-12.57C47.952,5.204,38.789,1.332,34.349,6.33z"/>
<path fill="#30231E" d="M30.775,58.978c-1.607-9.113-17.732-6.492-16.088,2.838L30.775,58.978z"/>
<path fill="#3B2C29" d="M8.854,35.659C7.32,63.706,7.798,63.032,21.026,60.7C12.806,56.872,23.014,32.784,8.854,35.659z"/>
<path fill="#453631" d="M6.516,35.642c-0.977,21.277,3.906,25.836,7.605,26.275l4.028-0.709
	C7.558,56.235,18.659,33.085,6.516,35.642z"/>
<path fill="#3B2C29" d="M27.343,32.396c11.038,25.834,10.359,25.359-2.868,27.691C30.48,54.796,13.056,34.538,27.343,32.396z"/>
<path fill="#453631" d="M29.54,31.581c9.983,17.44,4.554,25.92,1.837,27.29l-4.028,0.711C35.696,51.831,17.252,33.331,29.54,31.581z
	"/>
<path fill="#594640" d="M32.419,41.392c2.775,4.393,2.567,14.447-1.04,17.482c4.452-0.785,6.079-7.424,5.909-16.133
	C37.073,31.863,27.467,33.554,32.419,41.392z"/>
<path fill="#594640" d="M3.894,50.657c2.972,7.357,5.853,12.031,10.228,11.26c-5.762-4.186-7.064-14.92-6.146-17.813
	C14.298,38.661-1.13,38.206,3.894,50.657z"/>
<path fill="#FFCC66" d="M17.034,27.538c-8.373,1.477-11.206,9-9.157,17.67c0.414,1.744,1.354,4.193,2.339,6.266
	c2.057,4.299,10.637,7.484,13.456,6.986c2.822-0.498,7.496-6.02,7.957-10.762c0.222-2.283,0.263-4.908,0.059-6.689
	C30.645,32.163,25.409,26.061,17.034,27.538z"/>
<path fill="#594640" d="M26.608,27.108c-4.813,7.043,0.858,6.446,5.811,14.284c2.775,4.393,5.039,10.059,4.869,1.35
	C37.073,31.863,29.435,25.696,26.608,27.108z"/>
<path fill="#594640" d="M11.788,27.348C4.651,30.41-1.13,38.206,3.894,50.657c2.972,7.357,3.163-3.66,4.081-6.553
	c6.323-5.443,17.842-10.752,18.634-16.997C27.299,25.578,18.895,24.083,11.788,27.348z"/>
<path fill="#453631" d="M7.748,37.774c3.034-1.191,18.044-4.15,18.86-10.667C23.548,30.569,19.998,31.991,7.748,37.774z"/>
<path fill="#453631" d="M4.049,48.565c4.039-7.975,21.483-10.25,22.56-21.458C22.444,37.089,4.299,41.542,4.049,48.565z"/>
<path fill="#453631" d="M25.125,28.879c-0.985,2.387,3.194-1.602,10.74,11.319C33.181,32.341,27.889,27.538,25.125,28.879z"/>
<path fill="#E6A400" d="M26.851,51.448c2.272,2.41-3.214,3.398-4.985,1.045L26.851,51.448z"/>
<path fill="#CC9200" d="M25.523,51.052c-1.208-0.359-2.03,0.73-3.658,1.441c1.58,0.408,3.651,0.135,3.837-0.537
	c0,0,0.676,0.338,1.208-0.27C27.501,51.015,26.68,50.198,25.523,51.052z"/>
<path fill="#E6B045" d="M24.031,47.644c0.473,1.539-4.255,2.998-4.729,1.459C19.191,48.751,23.923,47.29,24.031,47.644z"/>
<path fill="#E6B045" d="M29.099,42.499c0.377,2.143-6.538,3.363-6.976,0.883C21.887,39.729,28.34,38.69,29.099,42.499z"/>
<path fill="#E6B045" d="M10.819,45.724c0.378,2.141,7.295,0.922,6.857-1.559C16.649,40.651,10.229,41.884,10.819,45.724z"/>
<path fill="#613F34" d="M10.82,45.724c0.379,2.141,7.295,0.922,6.857-1.559C17.324,45.407,11.544,46.577,10.82,45.724z"/>
<path fill="#613F34" d="M29.099,42.499c0.377,2.143-6.538,3.363-6.976,0.883C22.88,44.429,28.709,43.55,29.099,42.499z"/>
<path fill="#30231E" d="M33.225,58.978c1.607-9.113,17.732-6.492,16.088,2.838L33.225,58.978z"/>
<path fill="#FFCC66" d="M46.966,27.538c8.373,1.477,11.206,9,9.157,17.67c-0.414,1.744-1.354,4.193-2.339,6.266
	c-2.057,4.299-10.637,7.484-13.456,6.986c-2.822-0.498-7.496-6.02-7.957-10.762c-0.222-2.283-0.263-4.908-0.059-6.689
	C33.355,32.163,38.591,26.061,46.966,27.538z"/>
<path fill="#594640" d="M37.392,27.108c4.813,7.043-0.619,7.143-5.571,14.981c0-2.816-3.131-6.533-3.928-6.078
	C30.189,29.424,35.216,26.021,37.392,27.108z"/>
<path fill="#594640" d="M52.212,27.348c7.137,3.062,12.918,10.858,7.895,23.309c-2.972,7.357-3.163-3.66-4.081-6.553
	c-6.323-5.443-17.842-10.752-18.634-16.997C36.701,25.578,45.105,24.083,52.212,27.348z"/>
<path fill="#453631" d="M56.252,37.774c-3.034-1.191-18.044-4.15-18.86-10.667C40.452,30.569,44.002,31.991,56.252,37.774z"/>
<path fill="#453631" d="M59.951,48.565c-4.039-7.975-21.483-10.25-22.56-21.458C41.556,37.089,59.701,41.542,59.951,48.565z"/>
<path fill="#453631" d="M38.875,28.879c0.985,2.387-2.758-1.563-7.675,6.049C32.998,29.094,36.111,27.538,38.875,28.879z"/>
<path fill="#E6A400" d="M37.149,51.448c-2.272,2.41,3.214,3.398,4.985,1.045L37.149,51.448z"/>
<path fill="#CC9200" d="M38.477,51.052c1.208-0.359,2.03,0.73,3.658,1.441c-1.58,0.408-3.651,0.135-3.837-0.537
	c0,0-0.676,0.338-1.208-0.27C36.499,51.015,37.32,50.198,38.477,51.052z"/>
<path fill="#E6B045" d="M39.969,47.644c-0.473,1.539,4.255,2.998,4.729,1.459C44.809,48.751,40.077,47.29,39.969,47.644z"/>
<path fill="#E6B045" d="M34.901,42.499c-0.377,2.143,6.538,3.363,6.976,0.883C42.113,39.729,35.66,38.69,34.901,42.499z"/>
<path fill="#E6B045" d="M53.181,45.724c-0.378,2.141-7.295,0.922-6.857-1.559C47.351,40.651,53.771,41.884,53.181,45.724z"/>
<path fill="#613F34" d="M53.18,45.724c-0.379,2.141-7.295,0.922-6.857-1.559C46.676,45.407,52.456,46.577,53.18,45.724z"/>
<path fill="#613F34" d="M34.901,42.499c-0.377,2.143,6.538,3.363,6.976,0.883C41.12,44.429,35.291,43.55,34.901,42.499z"/>
</svg>
