<?xml version="1.0" encoding="utf-8"?>
<!-- Generator: Adobe Illustrator 15.0.0, SVG Export Plug-In . SVG Version: 6.00 Build 0)  -->
<!DOCTYPE svg PUBLIC "-//W3C//DTD SVG 1.1//EN" "http://www.w3.org/Graphics/SVG/1.1/DTD/svg11.dtd" [
	<!ENTITY ns_flows "http://ns.adobe.com/Flows/1.0/">
	<!ENTITY ns_extend "http://ns.adobe.com/Extensibility/1.0/">
	<!ENTITY ns_ai "http://ns.adobe.com/AdobeIllustrator/10.0/">
	<!ENTITY ns_graphs "http://ns.adobe.com/Graphs/1.0/">
]>
<svg version="1.1" id="Layer_1" xmlns:x="&ns_extend;" xmlns:i="&ns_ai;" xmlns:graph="&ns_graphs;"
	 xmlns="http://www.w3.org/2000/svg" xmlns:xlink="http://www.w3.org/1999/xlink" xmlns:a="http://ns.adobe.com/AdobeSVGViewerExtensions/3.0/"
	 x="0px" y="0px" width="64px" height="64px" viewBox="0 0 64 64" enable-background="new 0 0 64 64" xml:space="preserve">
<linearGradient id="SVGID_1_" gradientUnits="userSpaceOnUse" x1="33.4297" y1="62" x2="33.4297" y2="43.7754">
	<stop  offset="0" style="stop-color:#302C3B"/>
	<stop  offset="1" style="stop-color:#443F54"/>
	<a:midPointStop  offset="0" style="stop-color:#302C3B"/>
	<a:midPointStop  offset="0.5" style="stop-color:#302C3B"/>
	<a:midPointStop  offset="1" style="stop-color:#443F54"/>
</linearGradient>
<path fill="url(#SVGID_1_)" d="M58.583,58.83c-5.494,0-50.723-15.055-50.723-15.055L9.364,62h6.256c0,0,0.109-5.83,0.979-8.672
	c8.234,0,12.422,8.672,15.633,8.672c5.064,0,21.297,0,26.352,0C59.14,62,59.14,58.83,58.583,58.83z"/>
<path fill="#1A1626" d="M7.86,43.775L9.364,62h3.256c0,0-0.306-5.026,0.11-10.869c9.521-2.155,17.607,6.369,20.36,7.662
	C22.502,43.975,7.86,43.775,7.86,43.775z"/>
<radialGradient id="SVGID_2_" cx="35.3848" cy="32.6436" r="24.6194" gradientUnits="userSpaceOnUse">
	<stop  offset="0" style="stop-color:#BF7C60"/>
	<stop  offset="0.3715" style="stop-color:#BC7A5E"/>
	<stop  offset="0.6674" style="stop-color:#B27459"/>
	<stop  offset="0.9365" style="stop-color:#A16951"/>
	<stop  offset="1" style="stop-color:#9C664E"/>
	<a:midPointStop  offset="0" style="stop-color:#BF7C60"/>
	<a:midPointStop  offset="0.7515" style="stop-color:#BF7C60"/>
	<a:midPointStop  offset="1" style="stop-color:#9C664E"/>
</radialGradient>
<path fill="url(#SVGID_2_)" d="M54.501,50.326C39.278,44.834,31.157,39.752,30.339,14.18L8.405,13.791
	c1.566,19.545-2.146,14.256-3.043,25.551c-0.424,5.33,3.469,9.973,10.416,9.973c8.922,0,15.938,9.516,17.498,9.516
	c4.98,0,24.625,0,24.625,0S60.433,52.465,54.501,50.326z"/>
<rect x="13.999" y="12" fill="#1A1626" width="2" height="20"/>
<radialGradient id="SVGID_3_" cx="19.501" cy="9.1641" r="11.2188" gradientUnits="userSpaceOnUse">
	<stop  offset="0" style="stop-color:#BF7C60"/>
	<stop  offset="0.3715" style="stop-color:#BC7A5E"/>
	<stop  offset="0.6674" style="stop-color:#B27459"/>
	<stop  offset="0.9365" style="stop-color:#A16951"/>
	<stop  offset="1" style="stop-color:#9C664E"/>
	<a:midPointStop  offset="0" style="stop-color:#BF7C60"/>
	<a:midPointStop  offset="0.7515" style="stop-color:#BF7C60"/>
	<a:midPointStop  offset="1" style="stop-color:#9C664E"/>
</radialGradient>
<path fill="url(#SVGID_3_)" d="M34.003,2.729H4.999L6.224,13.98c0,0,4.279,1.619,13.23,1.619c7.982,0,13.232-0.811,13.232-0.811
	L34.003,2.729z"/>
<path fill="#1A1626" d="M19.501,2C13.735,2,4.999,2.326,4.999,2.729s8.736,0.729,14.502,0.729c5.768,0,14.502-0.326,14.502-0.729
	S25.269,2,19.501,2z"/>
</svg>
