<?xml version="1.0" encoding="utf-8"?>
<!-- Generator: Adobe Illustrator 15.0.0, SVG Export Plug-In . SVG Version: 6.00 Build 0)  -->
<!DOCTYPE svg PUBLIC "-//W3C//DTD SVG 1.1//EN" "http://www.w3.org/Graphics/SVG/1.1/DTD/svg11.dtd" [
	<!ENTITY ns_flows "http://ns.adobe.com/Flows/1.0/">
	<!ENTITY ns_extend "http://ns.adobe.com/Extensibility/1.0/">
	<!ENTITY ns_ai "http://ns.adobe.com/AdobeIllustrator/10.0/">
	<!ENTITY ns_graphs "http://ns.adobe.com/Graphs/1.0/">
]>
<svg version="1.1" id="Layer_1" xmlns:x="&ns_extend;" xmlns:i="&ns_ai;" xmlns:graph="&ns_graphs;"
	 xmlns="http://www.w3.org/2000/svg" xmlns:xlink="http://www.w3.org/1999/xlink" xmlns:a="http://ns.adobe.com/AdobeSVGViewerExtensions/3.0/"
	 x="0px" y="0px" width="64px" height="64px" viewBox="0 0 64 64" enable-background="new 0 0 64 64" xml:space="preserve">
<path fill="#30231E" d="M53.303,60.999c0-8.5-15.001-8.699-15.001,0H53.303z"/>
<path fill="#3B2C29" d="M37.192,36.409c-5.855,25.126-5.318,24.59,7.004,24.59C37.377,56.228,50.439,36.068,37.192,36.409z"/>
<path fill="#453631" d="M35.079,36.021c-4.271,19.091-0.585,23.994,2.688,24.979h3.751C32.742,54.815,46.46,35.646,35.079,36.021z"
	/>
<path fill="#3B2C29" d="M54.415,36.409c5.854,25.126,5.317,24.588-7.005,24.588C53.681,57.168,41.164,36.066,54.415,36.409z"/>
<path fill="#453631" d="M56.525,36.019c6.244,17.369-0.014,24.174-2.688,24.979H50.09C58.865,55.32,45.147,35.645,56.525,36.019z"/>
<path fill="#FFCC66" d="M45.876,30.37c-7.802,0-11.559,6.354-11.089,14.521c0.096,1.643,0.553,4.01,1.117,6.039
	c1.17,4.218,7.343,8.466,9.972,8.466c2.628,0,8.801-4.248,9.972-8.466c0.563-2.029,1.019-4.396,1.116-6.039
	C57.432,36.725,53.676,30.37,45.876,30.37z"/>
<path fill="#FFFFFF" d="M54.301,45.114c-1.042,2.729-5.282,2.326-6.059,0.418C48.833,42.464,53.729,42.203,54.301,45.114z"/>
<path fill="#FFFFFF" d="M37.449,45.114c1.043,2.729,5.283,2.328,6.06,0.418C42.92,42.464,38.024,42.203,37.449,45.114z"/>
<path fill="#D47706" d="M45.876,52.658c-1.897-0.833-1.912-0.033-4.839,0.165c1.101,1.246,1.908,2.851,4.838,2.851
	c3.361,0,3.929-1.822,4.839-2.851C47.785,52.625,47.771,51.825,45.876,52.658z"/>
<path fill="#FFFFFF" d="M41.915,53.134c1.912,1.989,6.032,1.961,7.919,0C46.893,53.449,44.859,53.449,41.915,53.134z"/>
<path fill="#594640" d="M54.472,41.925c-1.757-1.048-4.912-1.176-6.158-0.463c-0.264,0.145-0.192,0.902,0.035,0.807
	c1.779-0.74,4.49-0.778,6.16,0.078C54.732,42.46,54.738,42.076,54.472,41.925z"/>
<path fill="#594640" d="M37.279,41.925c1.757-1.048,4.909-1.176,6.158-0.463c0.264,0.145,0.194,0.902-0.035,0.807
	c-1.781-0.74-4.488-0.778-6.158,0.078C37.018,42.46,37.014,42.076,37.279,41.925z"/>
<path fill="#E6B045" d="M48.294,49.81c0,1.572-4.837,1.572-4.837,0C43.457,49.448,48.294,49.448,48.294,49.81z"/>
<path fill="#594640" d="M54.592,31.507c-5.471,5.604-0.249,5.967,2.972,13.846c1.808,4.414,0.02,13.478-3.727,15.646
	c4.151,0,6.679-5.744,7.911-13.646C63.289,37.479,57.371,30.682,54.592,31.507z"/>
<path fill="#594640" d="M41.164,29.361c-6.935,1.631-13.401,7.761-10.843,19.821c1.511,7.134,3.371,11.816,7.445,11.816
	c-4.542-4.703-4.007-14.621-2.716-17.089c6.579-3.914,17.83-6.881,19.541-12.403C55.459,30.231,48.106,27.543,41.164,29.361z"/>
<path fill="#453631" d="M35.851,38.147c2.934-0.594,16.967-0.875,18.741-6.641C51.273,34.15,47.841,34.871,35.851,38.147z"/>
<path fill="#453631" d="M30.794,47.317c4.921-6.567,21.04-5.842,23.798-15.811C49.238,39.874,32.139,41.005,30.794,47.317z"/>
<path fill="#453631" d="M52.969,32.873c-1.27,2.001,3.144-0.938,7.898,11.948C59.696,37.288,55.678,32.101,52.969,32.873z"/>
<path fill="#613F34" d="M49.306,44.817c0,2.415,3.493,2.415,3.493,0C52.799,42.574,49.306,42.574,49.306,44.817z"/>
<path fill="#7D5037" d="M49.652,45.591c0,1.384,2.802,1.384,2.802,0C52.454,44.305,49.652,44.305,49.652,45.591z"/>
<path fill="#1A1626" d="M50.328,44.856c0,1.001,1.451,1.001,1.451,0C51.779,43.924,50.328,43.924,50.328,44.856z"/>
<path fill="#AB968C" d="M49.833,44.563c0,0.506,0.732,0.506,0.732,0C50.565,44.093,49.833,44.093,49.833,44.563z"/>
<path fill="#613F34" d="M38.951,44.82c0,2.416,3.495,2.416,3.495,0C42.446,42.577,38.951,42.577,38.951,44.82z"/>
<path fill="#7D5037" d="M39.297,45.594c0,1.386,2.803,1.386,2.803,0C42.1,44.308,39.297,44.308,39.297,45.594z"/>
<path fill="#1A1626" d="M39.974,44.858c0,1.003,1.451,1.003,1.451,0C41.425,43.928,39.974,43.928,39.974,44.858z"/>
<path fill="#AB968C" d="M39.478,44.566c0,0.507,0.731,0.507,0.731,0C40.209,44.097,39.478,44.097,39.478,44.566z"/>
<path fill="#45332C" d="M54.301,45.094c0-2.932-6.059-2.932-6.059,0.465C49.107,42.771,53.438,42.771,54.301,45.094z"/>
<path fill="#45332C" d="M37.449,45.094c0-2.932,6.06-2.932,6.06,0.462C42.644,42.771,38.314,42.771,37.449,45.094z"/>
<radialGradient id="SVGID_1_" cx="32.0796" cy="4.8721" r="15.0194" gradientTransform="matrix(1 0 0 1.1161 0 -0.5655)" gradientUnits="userSpaceOnUse">
	<stop  offset="0.4182" style="stop-color:#FF0071"/>
	<stop  offset="0.6534" style="stop-color:#F6006B"/>
	<stop  offset="1" style="stop-color:#E0005D"/>
	<a:midPointStop  offset="0.4182" style="stop-color:#FF0071"/>
	<a:midPointStop  offset="0.5979" style="stop-color:#FF0071"/>
	<a:midPointStop  offset="1" style="stop-color:#E0005D"/>
</radialGradient>
<path fill="url(#SVGID_1_)" d="M32.001,6.52C28.178,0.31,17.6,2.734,17.6,10.536c0,5.233,4.88,8.735,14.401,16.464
	C41.521,19.271,46.4,15.77,46.4,10.535C46.399,2.734,35.823,0.309,32.001,6.52z"/>
<path fill="#30231E" d="M25.553,60.999c0-8.5-15.001-8.699-15.001,0H25.553z"/>
<path fill="#3B2C29" d="M9.442,36.409c-5.855,25.126-5.318,24.59,7.004,24.59C9.627,56.228,22.689,36.068,9.442,36.409z"/>
<path fill="#453631" d="M7.329,36.021c-4.271,19.091-0.585,23.994,2.688,24.979h3.751C4.992,54.815,18.71,35.646,7.329,36.021z"/>
<path fill="#3B2C29" d="M26.665,36.409c5.854,25.126,5.317,24.588-7.005,24.588C25.931,57.168,13.414,36.066,26.665,36.409z"/>
<path fill="#453631" d="M28.775,36.019c6.244,17.369-0.014,24.174-2.688,24.979H22.34C31.115,55.32,17.397,35.645,28.775,36.019z"/>
<path fill="#FFCC66" d="M18.126,30.37c-7.802,0-11.559,6.354-11.089,14.521c0.096,1.643,0.553,4.01,1.117,6.039
	c1.17,4.218,7.343,8.466,9.972,8.466c2.628,0,8.801-4.248,9.972-8.466c0.563-2.029,1.019-4.396,1.116-6.039
	C29.682,36.725,25.926,30.37,18.126,30.37z"/>
<path fill="#FFFFFF" d="M26.551,45.114c-1.042,2.729-5.282,2.326-6.059,0.418C21.083,42.464,25.979,42.203,26.551,45.114z"/>
<path fill="#FFFFFF" d="M9.699,45.114c1.043,2.729,5.283,2.328,6.06,0.418C15.17,42.464,10.274,42.203,9.699,45.114z"/>
<path fill="#D47706" d="M18.126,52.658c-1.897-0.833-1.912-0.033-4.839,0.165c1.101,1.246,1.908,2.851,4.838,2.851
	c3.361,0,3.929-1.822,4.839-2.851C20.035,52.625,20.021,51.825,18.126,52.658z"/>
<path fill="#FFFFFF" d="M14.165,53.134c1.912,1.989,6.032,1.961,7.919,0C19.143,53.449,17.109,53.449,14.165,53.134z"/>
<path fill="#594640" d="M26.722,41.925c-1.757-1.048-4.912-1.176-6.158-0.463c-0.264,0.145-0.192,0.902,0.035,0.807
	c1.779-0.74,4.49-0.778,6.16,0.078C26.982,42.46,26.988,42.076,26.722,41.925z"/>
<path fill="#594640" d="M9.529,41.925c1.757-1.048,4.909-1.176,6.158-0.463c0.264,0.145,0.194,0.902-0.035,0.807
	c-1.781-0.74-4.488-0.778-6.158,0.078C9.268,42.46,9.264,42.076,9.529,41.925z"/>
<path fill="#E6B045" d="M20.544,49.81c0,1.572-4.837,1.572-4.837,0C15.707,49.448,20.544,49.448,20.544,49.81z"/>
<path fill="#594640" d="M26.842,31.507c-5.471,5.604-0.249,5.967,2.972,13.846c1.808,4.414,0.02,13.478-3.727,15.646
	c4.151,0,6.679-5.744,7.911-13.646C35.539,37.479,29.621,30.682,26.842,31.507z"/>
<path fill="#594640" d="M13.414,29.361C6.479,30.992,0.013,37.122,2.571,49.183c1.511,7.134,3.371,11.816,7.445,11.816
	C5.475,56.296,6.01,46.378,7.301,43.91c6.579-3.914,17.83-6.881,19.541-12.403C27.709,30.231,20.356,27.543,13.414,29.361z"/>
<path fill="#453631" d="M8.101,38.147c2.934-0.594,16.967-0.875,18.741-6.641C23.523,34.15,20.091,34.871,8.101,38.147z"/>
<path fill="#453631" d="M3.044,47.317c4.921-6.567,21.04-5.842,23.798-15.811C21.488,39.874,4.389,41.005,3.044,47.317z"/>
<path fill="#453631" d="M25.219,32.873c-1.27,2.001,3.144-0.938,7.898,11.948C31.946,37.288,27.928,32.101,25.219,32.873z"/>
<path fill="#613F34" d="M21.556,44.817c0,2.415,3.493,2.415,3.493,0C25.049,42.574,21.556,42.574,21.556,44.817z"/>
<path fill="#7D5037" d="M21.902,45.591c0,1.384,2.802,1.384,2.802,0C24.704,44.305,21.902,44.305,21.902,45.591z"/>
<path fill="#1A1626" d="M22.578,44.856c0,1.001,1.451,1.001,1.451,0C24.029,43.924,22.578,43.924,22.578,44.856z"/>
<path fill="#AB968C" d="M22.083,44.563c0,0.506,0.732,0.506,0.732,0C22.815,44.093,22.083,44.093,22.083,44.563z"/>
<path fill="#613F34" d="M11.201,44.82c0,2.416,3.495,2.416,3.495,0C14.696,42.577,11.201,42.577,11.201,44.82z"/>
<path fill="#7D5037" d="M11.547,45.594c0,1.386,2.803,1.386,2.803,0C14.35,44.308,11.547,44.308,11.547,45.594z"/>
<path fill="#1A1626" d="M12.224,44.858c0,1.003,1.451,1.003,1.451,0C13.675,43.928,12.224,43.928,12.224,44.858z"/>
<path fill="#AB968C" d="M11.728,44.566c0,0.507,0.731,0.507,0.731,0C12.459,44.097,11.728,44.097,11.728,44.566z"/>
<path fill="#45332C" d="M26.551,45.094c0-2.932-6.059-2.932-6.059,0.465C21.357,42.771,25.688,42.771,26.551,45.094z"/>
<path fill="#45332C" d="M9.699,45.094c0-2.932,6.06-2.932,6.06,0.462C14.894,42.771,10.564,42.771,9.699,45.094z"/>
</svg>
