<?xml version="1.0" encoding="utf-8"?>
<!-- Generator: Adobe Illustrator 19.0.0, SVG Export Plug-In . SVG Version: 6.00 Build 0)  -->
<svg version="1.1" id="Layer_1" xmlns="http://www.w3.org/2000/svg" xmlns:xlink="http://www.w3.org/1999/xlink" x="0px" y="0px"
	 width="64px" height="64px" viewBox="0 0 64 64" enable-background="new 0 0 64 64" xml:space="preserve">
<path fill="#7AB51D" d="M43.479,32.738c-7.696-5.117-15.261-5.117-22.957,0c-2.442,1.623-4.947,6.74-5.255,12.037l6.339,1V62h20.789
	V45.775l6.339-1C48.426,39.479,45.921,34.361,43.479,32.738z"/>
<path fill="#E6B045" d="M36.209,29.674c0-0.723,0-3.932,0-3.932h-8.418c0,0,0,3.16,0,3.932
	C27.791,33.904,36.209,33.904,36.209,29.674z"/>
<path fill="#E6B045" d="M21.29,14.672c-3.585-0.645-0.785,9.361,2.018,6.601C24.608,19.992,22.964,14.975,21.29,14.672z"/>
<path fill="#E6B045" d="M42.716,14.672c-1.676,0.303-3.32,5.32-2.019,6.601C43.502,24.033,46.296,14.027,42.716,14.672z"/>
<path fill="#FFCC66" d="M32.002,2.941c-7.408,0-10.977,5.598-10.53,13.381c0.09,1.566,1.061,6.674,1.978,8.506
	c0.94,1.873,4.08,4.764,6.005,5.361c1.215,0.379,3.877,0.379,5.094,0c1.923-0.598,5.066-3.488,6.003-5.361
	c0.92-1.832,1.89-6.939,1.979-8.506C42.979,8.539,39.409,2.941,32.002,2.941z"/>
<path fill="#E6A400" d="M32.002,24.131c-1.667-0.49-4.135,0.232-4.135,0.232c0.939,1.023,1.629,2.348,4.135,2.348
	c2.87,0,3.359-1.504,4.136-2.348C36.138,24.363,33.667,23.639,32.002,24.131z"/>
<path fill="#FFFFFF" d="M28.497,24.535c1.747,1.463,5.275,1.473,7.031,0C33.667,24.615,30.372,24.615,28.497,24.535z"/>
<path fill="#E6B045" d="M34.301,21.379c0,1.492-4.596,1.492-4.596,0C29.705,21.037,34.301,21.037,34.301,21.379z"/>
<path fill="#594640" d="M32.002,2.941c-5.096,0-8.176,1.68-9.504,1.035c0,0-0.144,0.867,0.376,1.434c0,0-0.548,0.475-1.435-0.326
	C20.595,7.822,23.102,9.41,32.002,9.41c8.901,0,6.773-2.166,11.151,1.637C42.725,6.359,39.742,2.941,32.002,2.941z"/>
<path fill="#453631" d="M35.771,7.025c-4.9,1.809-6.691-1.453-11.316-1.768c2.2,1.037,3.274,2.635,5.078,3.785
	C25.603,7.731,22.72,5.469,22.5,3.984c0,0-0.655,2.168,1.938,3.789c-2.479,0.228-2.996-2.682-2.996-2.682
	c-1.257,2.016-1.084,8.514,0.312,13.338c0.231-1.723-0.297-2.434,0.5-4.506c2.383-6.199,0.85-3.598,9.749-3.598
	c8.901,0,7.295-2.371,9.751,3.598c0.731,1.777,0.266,2.783,0.499,4.506C45.18,7.553,40.97,5.109,35.771,7.025z"/>
<path fill="#FFFFFF" d="M39.933,16.926c-0.99,2.588-5.018,2.207-5.754,0.394C34.738,14.412,39.389,14.164,39.933,16.926z"/>
<path fill="#FFFFFF" d="M24.07,16.926c0.99,2.588,5.017,2.207,5.754,0.394C29.266,14.41,24.614,14.162,24.07,16.926z"/>
<path fill="#C1873C" d="M40.344,13.809c-1.694-0.84-4.936-0.881-6.146-0.295c-0.258,0.113-0.087,0.908,0.132,0.834
	c1.684-0.625,4.398-0.639,5.974,0.053C40.515,14.488,40.601,13.926,40.344,13.809z"/>
<path fill="#C1873C" d="M23.66,13.809c1.692-0.84,4.935-0.881,6.144-0.295c0.26,0.113,0.088,0.908-0.129,0.834
	c-1.687-0.625-4.398-0.639-5.976,0.053C23.489,14.488,23.404,13.926,23.66,13.809z"/>
<path fill="#613F34" d="M35.206,16.648c0,2.272,3.289,2.272,3.289,0C38.495,14.541,35.206,14.541,35.206,16.648z"/>
<path fill="#7D5037" d="M35.53,17.375c0,1.305,2.64,1.305,2.64,0C38.17,16.166,35.53,16.166,35.53,17.375z"/>
<path fill="#1A1626" d="M36.167,16.685c0,0.941,1.366,0.941,1.366,0C37.533,15.809,36.167,15.809,36.167,16.685z"/>
<path fill="#AB968C" d="M35.701,16.41c0,0.475,0.69,0.475,0.69,0C36.391,15.967,35.701,15.967,35.701,16.41z"/>
<path fill="#613F34" d="M25.509,16.648c0,2.272,3.289,2.272,3.289,0C28.798,14.541,25.509,14.541,25.509,16.648z"/>
<path fill="#7D5037" d="M25.834,17.375c0,1.301,2.64,1.301,2.64,0C28.474,16.166,25.834,16.166,25.834,17.375z"/>
<path fill="#1A1626" d="M26.472,16.685c0,0.941,1.364,0.941,1.364,0C27.836,15.809,26.472,15.809,26.472,16.685z"/>
<path fill="#AB968C" d="M26.005,16.408c0,0.477,0.688,0.477,0.688,0C26.693,15.967,26.005,15.967,26.005,16.408z"/>
<path fill="#E6B045" d="M39.933,16.904c0-2.779-5.754-2.779-5.754,0.441C35,14.705,39.11,14.705,39.933,16.904z"/>
<path fill="#E6B045" d="M24.07,16.904c0-2.779,5.754-2.779,5.754,0.439C29.003,14.703,24.892,14.703,24.07,16.904z"/>
<path fill="#E32B56" d="M39.713,54.669c-0.982-0.688-5.299-2.493-5.299-2.493h-4.797c0,0-4.318,1.809-5.307,2.494
	C22.654,55.813,22.104,62,22.104,62h19.793C41.896,62,41.35,55.811,39.713,54.669z"/>
<path fill="#E6B045" d="M34.924,52.839c0-0.538,0-2.925,0-2.925h-5.85c0,0,0,2.35,0,2.925
	C29.074,55.205,34.924,55.205,34.924,52.839z"/>
<path fill="#594640" d="M24.494,43.937c-7.076,4.172-0.855,7.97-2.869,9.768C25.539,56.13,35.119,51.95,24.494,43.937z"/>
<path fill="#453631" d="M22.381,45.521c1.736,6.659,5.311,6.89,5.012,8.095C30.715,51.876,30.746,46.264,22.381,45.521z"/>
<path fill="#594640" d="M39.506,43.937c7.076,4.172,0.855,7.97,2.871,9.768C38.465,56.13,28.883,51.95,39.506,43.937z"/>
<path fill="#453631" d="M41.619,45.521c-1.734,6.659-5.311,6.89-5.01,8.095C33.287,51.876,33.254,46.264,41.619,45.521z"/>
<path fill="#594640" d="M22.322,43.769H41.67C44.486,28.646,19.506,28.646,22.322,43.769z"/>
<path fill="#453631" d="M22.297,43.582c0,0,11.016,4.105,18.652-0.651c-1.543,0.291-4.051-5.605-15.775-6.047
	C24.744,43.582,22.684,41.764,22.297,43.582z"/>
<path fill="#CFD8DD" d="M40.762,42.689c0.822-11.314-18.359-11.314-17.535,0C23.941,33.188,40.045,33.188,40.762,42.689z"/>
<path fill="#FFFFFF" d="M40.762,42.323c0.822-11.313-18.359-11.313-17.535,0C23.941,32.821,40.045,32.821,40.762,42.323z"/>
<path fill="#E6B045" d="M23.43,42.767c-3.336-0.506-1.162,7.364,1.451,5.193C26.094,46.953,24.994,43.005,23.43,42.767z"/>
<path fill="#E6B045" d="M40.559,42.767c-1.561,0.238-2.66,4.186-1.451,5.193C41.723,50.129,43.895,42.261,40.559,42.767z"/>
<path fill="#FFCC66" d="M40.449,42.785c-3.195-0.91-7.289-5.256-15.07-4.729c0.137,1.708-0.313,3.646-1.814,4.735
	c0,0-0.006,1.535,0.543,4.345c0.895,4.602,4.617,6.407,7.887,6.407c3.273,0,6.994-1.806,7.891-6.407
	C40.432,44.324,40.449,42.785,40.449,42.785z"/>
<path fill="#FFFFFF" d="M38.244,44.294c-0.777,2.036-3.943,1.738-4.525,0.313C34.16,42.318,37.817,42.123,38.244,44.294z"/>
<path fill="#613F34" d="M34.527,44.078c0,1.786,2.586,1.786,2.586,0C37.113,42.42,34.527,42.42,34.527,44.078z"/>
<path fill="#7D5037" d="M34.783,44.648c0,1.024,2.074,1.024,2.074,0C36.857,43.698,34.783,43.698,34.783,44.648z"/>
<path fill="#1A1626" d="M35.281,44.105c0,0.742,1.076,0.742,1.076,0C36.357,43.418,35.281,43.418,35.281,44.105z"/>
<path fill="#AB968C" d="M34.918,43.889c0,0.376,0.541,0.376,0.541,0C35.459,43.541,34.918,43.541,34.918,43.889z"/>
<path fill="#E6B045" d="M38.244,44.279c0-2.186-4.525-2.186-4.525,0.346C34.365,42.549,37.598,42.549,38.244,44.279z"/>
<path fill="#FFFFFF" d="M25.771,44.294c0.775,2.036,3.943,1.738,4.525,0.313C29.858,42.316,26.201,42.121,25.771,44.294z"/>
<path fill="#613F34" d="M26.904,44.078c0,1.784,2.586,1.784,2.586,0C29.49,42.42,26.904,42.42,26.904,44.078z"/>
<path fill="#7D5037" d="M27.16,44.648c0,1.022,2.072,1.022,2.072,0C29.233,43.698,27.16,43.698,27.16,44.648z"/>
<path fill="#1A1626" d="M27.658,44.105c0,0.74,1.074,0.74,1.074,0C28.733,43.418,27.658,43.418,27.658,44.105z"/>
<path fill="#AB968C" d="M27.293,43.889c0,0.374,0.543,0.374,0.543,0C27.836,43.541,27.293,43.541,27.293,43.889z"/>
<path fill="#E6B045" d="M25.771,44.279c0-2.186,4.525-2.186,4.525,0.346C29.652,42.547,26.416,42.547,25.771,44.279z"/>
<path fill="#C1873C" d="M38.662,42.063c-1.35-0.672-3.938-0.703-4.9-0.236c-0.207,0.091-0.07,0.726,0.105,0.666
	c1.34-0.498,3.504-0.509,4.764,0.043C38.797,42.606,38.867,42.156,38.662,42.063z"/>
<path fill="#C1873C" d="M25.352,42.063c1.353-0.672,3.939-0.703,4.904-0.236c0.207,0.091,0.068,0.726-0.104,0.666
	c-1.344-0.498-3.51-0.509-4.768,0.043C25.217,42.606,25.149,42.156,25.352,42.063z"/>
<path fill="#E6A400" d="M32.008,49.729c-1.328-0.391-3.299,0.185-3.299,0.185c0.75,0.814,1.303,1.875,3.299,1.875
	c2.289,0,2.682-1.201,3.299-1.875C35.307,49.914,33.334,49.337,32.008,49.729z"/>
<path fill="#FFFFFF" d="M29.211,50.052c1.394,1.169,4.211,1.175,5.611,0C33.334,50.115,30.709,50.115,29.211,50.052z"/>
<path fill="#E6B045" d="M33.842,47.979c0,1.19-3.666,1.19-3.666,0C30.176,47.706,33.842,47.706,33.842,47.979z"/>
<path fill="#FFCC66" d="M41.567,58.081c-0.594,0.731-1.94-2.198-1.523-3.047c4.083-8.303,3.291-5.617,2.979-9.357
	c2.57-0.556,5.711-0.901,5.711-0.901C48.733,50.744,48.733,49.26,41.567,58.081z"/>
<path fill="#FFCC66" d="M38.281,54.203c-1.562-0.406-4.45,1.055-2.804,1.45c-0.365,0.459-0.316,1,0.925,0.644
	c-0.475,0.455,0.321,0.82,0.954,0.662c-0.179,1.157,2.078,0.494,2.758,0.863c0.974,0.527,1.185,0.84,1.431,0.689
	C43.341,57.42,40.873,54.871,38.281,54.203z"/>
<path fill="#FFCC66" d="M22.434,58.081c0.594,0.731,1.94-2.198,1.523-3.047c-4.083-8.303-3.291-5.617-2.979-9.357
	c-2.57-0.556-5.711-0.901-5.711-0.901C15.267,50.744,15.267,49.26,22.434,58.081z"/>
<path fill="#FFCC66" d="M25.719,54.203c1.562-0.406,4.45,1.055,2.804,1.45c0.365,0.459,0.316,1-0.925,0.644
	c0.475,0.455-0.321,0.82-0.954,0.662c0.179,1.157-2.078,0.494-2.758,0.863c-0.974,0.527-1.185,0.84-1.431,0.689
	C20.659,57.42,23.127,54.871,25.719,54.203z"/>
</svg>
