<?xml version="1.0" encoding="utf-8"?>
<!-- Generator: Adobe Illustrator 19.0.0, SVG Export Plug-In . SVG Version: 6.00 Build 0)  -->
<svg version="1.1" id="Layer_1" xmlns="http://www.w3.org/2000/svg" xmlns:xlink="http://www.w3.org/1999/xlink" x="0px" y="0px"
	 width="64px" height="64px" viewBox="0 0 64 64" enable-background="new 0 0 64 64" xml:space="preserve">
<path fill="#40281F" d="M19.076,13.402C10.363,50.8,11.161,49.999,29.502,49.999C19.352,42.898,38.795,12.893,19.076,13.402z"/>
<path fill="#4A2E24" d="M15.933,12.823c-6.358,28.413-0.873,35.709,3.998,37.176h5.582C12.453,40.797,32.869,12.265,15.933,12.823z"
	/>
<path fill="#40281F" d="M44.71,13.401c8.712,37.396,7.914,36.596-10.426,36.596C43.617,44.299,24.99,12.892,44.71,13.401z"/>
<path fill="#4A2E24" d="M47.85,12.822c9.295,25.85-0.021,35.979-3.998,37.175h-5.58C51.334,41.547,30.918,12.263,47.85,12.822z"/>
<path fill="#614036" d="M49.397,26.713c2.691,6.571,0.028,20.058-5.545,23.286c6.177,0,9.94-8.55,11.774-20.311
	C57.918,14.994,44.601,14.986,49.397,26.713z"/>
<path fill="#614036" d="M8.849,32.415c2.25,10.614,5.019,17.584,11.082,17.584C13.173,43,13.968,28.238,15.888,24.565
	C25.681,18.738,5.044,14.463,8.849,32.415z"/>
<path fill="#018BC9" d="M12.257,52.131c2.399-1.457,12.362-5.302,12.362-5.302H39.46c0,0,9.952,3.837,12.338,5.298
	C55.269,54.246,56,62,56,62H8C8,62,8.773,54.24,12.257,52.131"/>
<polygon fill="#916B50" points="24.427,49.975 32.002,62 39.572,49.975 39.572,40.563 24.427,40.563 "/>
<path fill="#006DAE" d="M50.988,55.437c-0.639,1.637-1.239,4.607-0.729,6.563C51.357,60.926,51.581,53.914,50.988,55.437"/>
<path fill="#006DAE" d="M14.025,62c0.512-1.955-0.089-4.928-0.729-6.563C12.702,53.912,12.928,60.924,14.025,62"/>
<path fill="#006DAE" d="M32.002,62h-3.471c0,0-2.704-3.514-7.451-5.311c0,0,2.329-2.889,5.459-4.137
	C30.555,56.539,32.002,62,32.002,62"/>
<path fill="#E6EBEF" d="M32.002,62c0,0-3.26-11.346-11.318-9.035c0,0-0.319-5.806,3.744-8.87c1.257-0.949-1.132,3.162,3.956,8.886
	C31.12,56.058,32.002,62,32.002,62"/>
<path fill="#006DAE" d="M32.002,62h3.471c0,0,2.702-3.514,7.449-5.311c0,0-2.329-2.889-5.461-4.137
	C33.446,56.539,32.002,62,32.002,62"/>
<path fill="#E6EBEF" d="M32.002,62c0,0,3.256-11.346,11.314-9.035c0,0,0.319-5.806-3.742-8.87c-1.259-0.949,1.13,3.162-3.956,8.886
	C32.88,56.058,32.002,62,32.002,62"/>
<path fill="#916B50" d="M32,4.415c-11.609,0-17.201,9.455-16.502,21.611c0.143,2.443,0.822,5.969,1.661,8.988
	C18.9,41.293,28.088,47.615,32,47.615c3.911,0,13.1-6.322,14.841-12.601c0.839-3.02,1.519-6.545,1.663-8.988
	C49.201,13.87,43.611,4.415,32,4.415z"/>
<path fill="#7A421B" d="M32.001,37.587c-2.822-1.24-2.844-0.05-7.2,0.242c1.636,1.856,2.839,4.244,7.198,4.244
	c5.003,0,5.849-2.711,7.203-4.244C34.843,37.537,34.823,36.347,32.001,37.587z"/>
<path fill="#FFFFFF" d="M26.108,38.292c2.844,2.959,8.976,2.92,11.784,0.001C33.514,38.764,30.488,38.764,26.108,38.292z"/>
<path fill="#423225" d="M44.795,21.61c-2.616-1.56-7.308-1.75-9.165-0.688c-0.394,0.214-0.287,1.341,0.053,1.2
	c2.648-1.104,6.682-1.158,9.168,0.117C45.183,22.409,45.19,21.837,44.795,21.61z"/>
<path fill="#423225" d="M19.207,21.61c2.615-1.56,7.307-1.75,9.166-0.688c0.394,0.214,0.289,1.341-0.054,1.2
	c-2.648-1.104-6.68-1.159-9.167,0.117C18.818,22.409,18.811,21.837,19.207,21.61z"/>
<path fill="#755035" d="M35.6,33.345c0,2.342-7.2,2.342-7.2,0C28.4,32.808,35.6,32.808,35.6,33.345z"/>
<path fill="#FFFFFF" d="M44.542,26.357c-1.552,4.059-7.861,3.464-9.017,0.623C36.401,22.415,43.688,22.024,44.542,26.357z"/>
<path fill="#613F34" d="M37.106,25.916c0,3.596,5.2,3.596,5.2,0C42.306,22.578,37.106,22.578,37.106,25.916z"/>
<path fill="#7D5037" d="M37.62,27.065c0,2.063,4.172,2.063,4.172,0C41.792,25.152,37.62,25.152,37.62,27.065z"/>
<path fill="#1A1626" d="M38.627,25.973c0,1.492,2.159,1.492,2.159,0C40.786,24.587,38.627,24.587,38.627,25.973z"/>
<path fill="#AB968C" d="M37.889,25.536c0,0.754,1.09,0.754,1.09,0C38.979,24.837,37.889,24.837,37.889,25.536z"/>
<path fill="#45332C" d="M44.542,26.326c0-4.361-9.017-4.361-9.017,0.69C36.811,22.871,43.255,22.871,44.542,26.326z"/>
<path fill="#FFFFFF" d="M19.46,26.357c1.552,4.059,7.862,3.466,9.019,0.623C27.602,22.415,20.314,22.024,19.46,26.357z"/>
<path fill="#613F34" d="M21.695,25.921c0,3.596,5.2,3.596,5.2,0C26.895,22.584,21.695,22.584,21.695,25.921z"/>
<path fill="#7D5037" d="M22.209,27.071c0,2.063,4.172,2.063,4.172,0C26.381,25.158,22.209,25.158,22.209,27.071z"/>
<path fill="#1A1626" d="M23.216,25.977c0,1.492,2.159,1.492,2.159,0C25.375,24.593,23.216,24.593,23.216,25.977z"/>
<path fill="#AB968C" d="M22.478,25.542c0,0.754,1.09,0.754,1.09,0C23.568,24.842,22.478,24.842,22.478,25.542z"/>
<path fill="#45332C" d="M19.46,26.326c0-4.361,9.019-4.361,9.019,0.688C27.191,22.87,20.748,22.87,19.46,26.326z"/>
<path fill="#614036" d="M44.972,6.105c-8.14,8.342-0.371,8.881,4.425,20.607c2.691,6.571,4.395,14.736,6.229,2.976
	C57.918,14.994,49.109,4.878,44.972,6.105z"/>
<path fill="#614036" d="M24.99,2.911C14.667,5.341,5.044,14.463,8.849,32.415c2.25,10.614,5.118-4.177,7.039-7.85
	c9.793-5.827,26.539-10.24,29.084-18.46C46.264,4.209,35.32,0.205,24.99,2.911z"/>
<path fill="#4A2E24" d="M17.081,15.988c4.365-0.885,25.25-1.302,27.892-9.883C40.037,10.039,34.925,11.11,17.081,15.988z"/>
<path fill="#4A2E24" d="M9.553,29.637c7.324-9.774,31.315-8.695,35.419-23.531C37.007,18.558,11.555,20.241,9.553,29.637z"/>
<path fill="#4A2E24" d="M42.558,8.14c-1.89,2.977,4.678-1.398,11.757,17.785C52.57,14.71,46.589,6.987,42.558,8.14z"/>
<path fill="#755035" d="M25.779,45.13c5.478,6.497,6.965,6.492,12.442-0.008c-2.375,1.544-4.702,2.513-6.227,2.513
	C30.472,47.635,28.15,46.67,25.779,45.13z"/>
</svg>
