<?xml version="1.0" encoding="utf-8"?>
<!-- Generator: Adobe Illustrator 15.0.0, SVG Export Plug-In . SVG Version: 6.00 Build 0)  -->
<!DOCTYPE svg PUBLIC "-//W3C//DTD SVG 1.1//EN" "http://www.w3.org/Graphics/SVG/1.1/DTD/svg11.dtd" [
	<!ENTITY ns_flows "http://ns.adobe.com/Flows/1.0/">
	<!ENTITY ns_extend "http://ns.adobe.com/Extensibility/1.0/">
	<!ENTITY ns_ai "http://ns.adobe.com/AdobeIllustrator/10.0/">
	<!ENTITY ns_graphs "http://ns.adobe.com/Graphs/1.0/">
]>
<svg version="1.1" id="Layer_1" xmlns:x="&ns_extend;" xmlns:i="&ns_ai;" xmlns:graph="&ns_graphs;"
	 xmlns="http://www.w3.org/2000/svg" xmlns:xlink="http://www.w3.org/1999/xlink" xmlns:a="http://ns.adobe.com/AdobeSVGViewerExtensions/3.0/"
	 x="0px" y="0px" width="64px" height="64px" viewBox="0 0 64 64" enable-background="new 0 0 64 64" xml:space="preserve">
<path fill="#947D41" d="M17.781,15.476c-7.561,37.397-6.869,36.596,9.051,36.596C18.021,44.973,34.896,14.967,17.781,15.476z"/>
<path fill="#BA9D52" d="M15.055,14.897c-5.518,28.414-0.758,35.708,3.471,37.175h4.844C12.033,42.871,29.754,14.338,15.055,14.897z"
	/>
<path fill="#947D41" d="M40.031,15.475c7.561,37.396,6.867,36.595-9.049,36.595C39.082,46.373,22.916,14.966,40.031,15.475z"/>
<path fill="#BA9D52" d="M42.756,14.896c8.068,25.85-0.016,35.979-3.469,37.174h-4.844C45.779,43.621,28.061,14.336,42.756,14.896z"
	/>
<path fill="#EFDE8B" d="M44.1,28.787c2.336,6.571,0.023,20.057-4.813,23.286c5.361,0,8.627-8.549,10.219-20.31
	C51.496,17.068,39.936,17.06,44.1,28.787z"/>
<path fill="#EFDE8B" d="M8.906,34.488c1.953,10.615,4.355,17.584,9.619,17.584c-5.867-6.998-5.176-21.76-3.51-25.433
	C23.516,20.812,5.602,16.537,8.906,34.488z"/>
<path fill="#E6EBEF" d="M9.254,53.713c2.402-1.223,13.453-4.451,13.453-4.451h12.658c0,0,11.047,3.221,13.436,4.449
	C52.27,55.488,53,62,53,62H5C5,62,5.773,55.482,9.254,53.713"/>
<polygon fill="#D6A67A" points="22.279,51.084 29,54.355 35.719,51.084 35.719,44 22.279,44 "/>
<path fill="#CFD8DD" d="M10.738,62c0.512-1.641-0.09-4.137-0.727-5.512C9.418,55.209,9.643,61.098,10.738,62"/>
<path fill="#CFD8DD" d="M39.561,55.455C38.34,55.018,29,54.355,29,54.355s8.236,1.023,9.32,1.508C39.406,56.35,39.561,62,39.561,62
	h1.24C40.801,62,40.781,55.893,39.561,55.455z"/>
<path fill="#068AC7" d="M27.908,51.094c-6.387-1.576-5.455-4.506-5.455-4.506s-1.09,0.125-1.09,2.512
	c0,5.256,7.637,5.256,7.637,5.256S28.113,51.145,27.908,51.094"/>
<path fill="#068AC7" d="M35.545,46.588c0,0,0.93,2.93-5.455,4.506C29.887,51.145,29,54.355,29,54.355s7.637,0,7.637-5.256
	C36.637,46.713,35.545,46.588,35.545,46.588"/>
<path fill="#068AC7" d="M22.453,57.844c0.902,0,1.637,0.672,1.637,1.5c0,0.83-0.734,1.5-1.637,1.5c-0.904,0-1.635-0.67-1.635-1.5
	C20.818,58.516,21.549,57.844,22.453,57.844"/>
<path fill="#068AC7" d="M35.545,57.844c0.904,0,1.637,0.672,1.637,1.5c0,0.83-0.732,1.5-1.637,1.5c-0.906,0-1.637-0.67-1.637-1.5
	C33.908,58.516,34.639,57.844,35.545,57.844"/>
<line fill="none" x1="14.828" y1="62" x2="43.172" y2="62"/>
<path fill="#E3C19B" d="M29,6.489c-11.609,0-17.201,9.455-16.502,21.611c0.143,2.443,0.822,5.968,1.66,8.988
	C15.9,43.367,25.088,49.689,29,49.689c3.91,0,13.1-6.322,14.84-12.602c0.84-3.02,1.52-6.544,1.664-8.988
	C46.201,15.944,40.611,6.489,29,6.489z"/>
<path fill="#C97E55" d="M29,39.66c-2.822-1.24-2.844-0.049-7.199,0.242c1.635,1.857,2.838,4.244,7.197,4.244
	c5.004,0,5.85-2.711,7.203-4.244C31.842,39.611,31.822,38.42,29,39.66z"/>
<path fill="#FFFFFF" d="M23.107,40.365c2.844,2.959,8.977,2.92,11.785,0.002C30.514,40.838,27.488,40.838,23.107,40.365z"/>
<path fill="#594640" d="M41.795,23.684c-2.617-1.56-7.309-1.75-9.166-0.688c-0.393,0.214-0.287,1.341,0.053,1.2
	c2.648-1.104,6.682-1.158,9.168,0.117C42.184,24.483,42.189,23.911,41.795,23.684z"/>
<path fill="#594640" d="M16.207,23.684c2.615-1.56,7.307-1.75,9.166-0.688c0.393,0.214,0.289,1.341-0.055,1.2
	c-2.648-1.104-6.68-1.159-9.166,0.117C15.818,24.483,15.811,23.911,16.207,23.684z"/>
<path fill="#D6A67A" d="M32.6,35.418c0,2.342-7.199,2.342-7.199,0C25.4,34.881,32.6,34.881,32.6,35.418z"/>
<path fill="#FFFFFF" d="M41.541,28.431c-1.551,4.06-7.861,3.464-9.016,0.623C33.4,24.489,40.688,24.098,41.541,28.431z"/>
<path fill="#613F34" d="M34.105,27.99c0,3.596,5.201,3.596,5.201,0C39.307,24.652,34.105,24.652,34.105,27.99z"/>
<path fill="#7D5037" d="M34.619,29.139c0,2.063,4.172,2.063,4.172,0C38.791,27.226,34.619,27.226,34.619,29.139z"/>
<path fill="#1A1626" d="M35.627,28.046c0,1.492,2.158,1.492,2.158,0C37.785,26.661,35.627,26.661,35.627,28.046z"/>
<path fill="#AB968C" d="M34.889,27.61c0,0.754,1.09,0.754,1.09,0C35.979,26.911,34.889,26.911,34.889,27.61z"/>
<path fill="#45332C" d="M41.541,28.4c0-4.361-9.016-4.361-9.016,0.69C33.811,24.945,40.254,24.945,41.541,28.4z"/>
<path fill="#FFFFFF" d="M16.459,28.431c1.553,4.06,7.863,3.466,9.02,0.623C24.602,24.489,17.314,24.098,16.459,28.431z"/>
<path fill="#613F34" d="M18.695,27.995c0,3.596,5.199,3.596,5.199,0C23.895,24.658,18.695,24.658,18.695,27.995z"/>
<path fill="#7D5037" d="M19.209,29.145c0,2.063,4.172,2.063,4.172,0C23.381,27.232,19.209,27.232,19.209,29.145z"/>
<path fill="#1A1626" d="M20.215,28.051c0,1.492,2.16,1.492,2.16,0C22.375,26.667,20.215,26.667,20.215,28.051z"/>
<path fill="#AB968C" d="M19.479,27.616c0,0.754,1.09,0.754,1.09,0C20.568,26.916,19.479,26.916,19.479,27.616z"/>
<path fill="#45332C" d="M16.459,28.4c0-4.361,9.02-4.361,9.02,0.688C24.191,24.944,17.748,24.944,16.459,28.4z"/>
<path fill="#EFDE8B" d="M40.26,8.179c-7.064,8.342-0.324,8.881,3.84,20.607c2.336,6.571,3.814,14.737,5.406,2.976
	C51.496,17.068,43.85,6.952,40.26,8.179z"/>
<path fill="#EFDE8B" d="M22.916,4.985c-8.961,2.43-17.314,11.552-14.01,29.503c1.953,10.615,2.768-3.803,4.436-7.476
	c8.5-5.827,24.707-10.613,26.918-18.833C41.379,6.283,31.881,2.279,22.916,4.985z"/>
<path fill="#BA9D52" d="M16.051,18.062c3.789-0.885,21.916-1.302,24.209-9.883C35.977,12.113,31.537,13.184,16.051,18.062z"/>
<path fill="#BA9D52" d="M9.518,31.71c6.355-9.774,27.18-8.695,30.742-23.531C33.344,20.631,11.256,22.315,9.518,31.71z"/>
<path fill="#BA9D52" d="M38.164,10.213c-1.641,2.977,4.061-1.398,10.205,17.785C46.854,16.784,41.662,9.061,38.164,10.213z"/>
<path fill="#E6EBEF" d="M29,11c-14.01,0-20.814,7-20.814,7v6.891C8.186,24.89,14.602,22,29,22c14.396,0,20.813,3,20.813,3v-7
	C49.813,18,43.01,11,29,11"/>
<path fill="#E6EBEF" d="M48.521,4.804C44.119,2.935,41.488,2,38.186,2c-1.52,0-5.385,1.453-9.188,1.402
	C25.195,3.453,21.332,2,19.811,2c-3.305,0-5.932,0.936-10.338,2.805C5.074,6.671,2,8.205,2,11.812c0,5.115,6.186,7.01,6.186,7.01
	s20.953-8.412,41.627,0c0,0,6.188-1.895,6.188-7.01C56,8.205,52.926,6.671,48.521,4.804"/>
<path fill="#CFD8DD" d="M44.254,13.832c-4.154,4.086-2.887-7.793-5.773-7.75c-2.973,0.043-4.119,7.666-9.541,7.555
	c-5.625-0.113-5.105-8.574-8.934-8.143c-3.711,0.418-3.361,13.486-8.859,6.338C2.658,0.789,10.43,25,2.025,12.386
	c0.377,5.613,6.16,6.436,6.16,6.436c4.111-1.877,23.9-7.439,41.627,0c0,0,5.262-0.646,6.082-5.895
	C46.125,22.789,58.396-0.086,44.254,13.832z"/>
<path fill="#99A8AE" d="M19.998,7.607c0,0,1.32,7.402-3.654,8.285c-4.975,0.885-8.018-4.869-8.018-4.869
	c2.182,6.922-0.141,7.799-0.141,7.799C17.641,14.966,29,15.087,29,15.087C21.758,15.087,19.998,7.607,19.998,7.607"/>
<path fill="#99A8AE" d="M49.672,11.025c0,0-3.041,5.752-8.018,4.869S38,7.607,38,7.607s-1.758,7.48-9,7.48
	c0,0,11.357-0.121,20.813,3.734C49.813,18.822,47.492,17.945,49.672,11.025"/>
<path fill="#D6A67A" d="M47.787,55.262c1.484-1.43-0.711-3.527-1.322-2.311c-0.818,1.629-1.066,3.51-2.75,5.139
	c-0.857,0.83-1.121,2.367-1.088,3.91h1.867C44.494,62,47.186,55.84,47.787,55.262z"/>
<polygon fill="#1A1626" points="53.365,55.574 47.598,53.475 44.494,62 47.344,62 "/>
<path fill="#CFD8DD" d="M47.732,53.523l8.938,3.252c3.441-9.404,7.727-22.303,3.703-30.021
	C56.295,29.378,52.916,39.355,47.732,53.523z"/>
<path fill="#BEC3CF" d="M54.822,56.104l1.848,0.672c3.441-9.404,7.727-22.303,3.703-30.021c-0.432,0.277-0.855,0.638-1.275,1.077
	C61.902,35.572,58.031,47.313,54.822,56.104z"/>
<path opacity="0.1" fill="#FFFFFF" d="M49.441,48.836l11.375-5.303c0.52-2.24,0.904-4.471,1.08-6.617l-9.711,4.527
	C51.32,43.705,50.412,46.178,49.441,48.836z"/>
<path opacity="0.2" fill="#FFFFFF" d="M52.186,41.443l9.711-4.527c0.08-0.982,0.113-1.947,0.096-2.887l-8.432,3.934
	C53.111,39.061,52.656,40.219,52.186,41.443z"/>
<path fill="#E6EBEF" d="M58.375,29.925c-2.471,2.697-4.57,8.122-10.281,23.729l0.439,0.16C52.965,41.703,55.908,33.23,58.375,29.925
	z"/>
<path fill="#E3C19B" d="M53.004,57.758c1.256,1.234,0.076,2.229-0.449,2.428c0.643,1.305-0.277,1.66-0.727,1.814h-4.484
	c-2.691-1.357-1.023-2.32,0.738-2.213c-4.209-0.781-1.854-2.338,1.617-1.891C43.949,56.766,55.57,52.744,53.004,57.758z"/>
</svg>
