<?xml version="1.0" encoding="utf-8"?>
<!-- Generator: Adobe Illustrator 15.0.0, SVG Export Plug-In . SVG Version: 6.00 Build 0)  -->
<!DOCTYPE svg PUBLIC "-//W3C//DTD SVG 1.1//EN" "http://www.w3.org/Graphics/SVG/1.1/DTD/svg11.dtd" [
	<!ENTITY ns_flows "http://ns.adobe.com/Flows/1.0/">
	<!ENTITY ns_extend "http://ns.adobe.com/Extensibility/1.0/">
	<!ENTITY ns_ai "http://ns.adobe.com/AdobeIllustrator/10.0/">
	<!ENTITY ns_graphs "http://ns.adobe.com/Graphs/1.0/">
]>
<svg version="1.1" id="Layer_1" xmlns:x="&ns_extend;" xmlns:i="&ns_ai;" xmlns:graph="&ns_graphs;"
	 xmlns="http://www.w3.org/2000/svg" xmlns:xlink="http://www.w3.org/1999/xlink" xmlns:a="http://ns.adobe.com/AdobeSVGViewerExtensions/3.0/"
	 x="0px" y="0px" width="64px" height="64px" viewBox="0 0 64 64" enable-background="new 0 0 64 64" xml:space="preserve">
<path fill="#594640" d="M16.447,28.375c0,6.196-9.205,6.196-9.205,0S16.447,22.179,16.447,28.375z"/>
<path fill="#594640" d="M16.205,21.927c0,6.196-9.205,6.196-9.205,0C7,15.729,16.205,15.729,16.205,21.927z"/>
<path fill="#594640" d="M17.758,16.698c0,6.196-9.203,6.196-9.203,0S17.758,10.502,17.758,16.698z"/>
<path fill="#594640" d="M20.404,13.154c0,6.196-9.203,6.196-9.203,0S20.404,6.958,20.404,13.154z"/>
<path fill="#594640" d="M24.627,9.494c0,6.196-9.205,6.196-9.205,0S24.627,3.298,24.627,9.494z"/>
<path fill="#594640" d="M36.629,6.647c0,6.197-9.205,6.197-9.205,0C27.424,0.451,36.629,0.451,36.629,6.647z"/>
<path fill="#594640" d="M29.725,7.577c0,6.196-9.205,6.196-9.205,0S29.725,1.381,29.725,7.577z"/>
<path fill="#594640" d="M47.553,28.375c0,6.196,9.205,6.196,9.205,0S47.553,22.179,47.553,28.375z"/>
<path fill="#594640" d="M47.795,21.927c0,6.196,9.205,6.196,9.205,0C57,15.729,47.795,15.729,47.795,21.927z"/>
<path fill="#594640" d="M46.242,16.698c0,6.196,9.205,6.196,9.205,0S46.242,10.502,46.242,16.698z"/>
<path fill="#594640" d="M43.596,13.154c0,6.196,9.205,6.196,9.205,0S43.596,6.958,43.596,13.154z"/>
<path fill="#594640" d="M39.375,9.494c0,6.196,9.203,6.196,9.203,0S39.375,3.298,39.375,9.494z"/>
<path fill="#594640" d="M34.277,7.577c0,6.196,9.203,6.196,9.203,0S34.277,1.381,34.277,7.577z"/>
<path fill="#453631" d="M17.422,29.375c0,6.196-9.205,6.196-9.205,0S17.422,23.179,17.422,29.375z"/>
<path fill="#453631" d="M18.18,23.927c0,6.196-9.205,6.196-9.205,0C8.975,17.729,18.18,17.729,18.18,23.927z"/>
<path fill="#453631" d="M20.732,18.698c0,6.196-9.205,6.196-9.205,0S20.732,12.502,20.732,18.698z"/>
<path fill="#453631" d="M25.6,14.494c0,6.196-9.205,6.196-9.205,0S25.6,8.298,25.6,14.494z"/>
<path fill="#453631" d="M36.604,10.647c0,6.197-9.205,6.197-9.205,0C27.398,4.451,36.604,4.451,36.604,10.647z"/>
<path fill="#453631" d="M30.697,11.577c0,6.196-9.203,6.196-9.203,0S30.697,5.381,30.697,11.577z"/>
<path fill="#453631" d="M46.58,29.375c0,6.196,9.205,6.196,9.205,0S46.58,23.179,46.58,29.375z"/>
<path fill="#453631" d="M45.822,23.927c0,6.196,9.205,6.196,9.205,0C55.027,17.729,45.822,17.729,45.822,23.927z"/>
<path fill="#453631" d="M43.27,18.698c0,6.196,9.203,6.196,9.203,0S43.27,12.502,43.27,18.698z"/>
<path fill="#453631" d="M38.4,14.494c0,6.196,9.205,6.196,9.205,0S38.4,8.298,38.4,14.494z"/>
<path fill="#453631" d="M33.303,11.577c0,6.196,9.205,6.196,9.205,0S33.303,5.381,33.303,11.577z"/>
<path fill="#E6B045" d="M11.014,31.009c-7.018-1.266-1.535,18.357,3.957,12.945C17.516,41.445,14.297,31.603,11.014,31.009z"/>
<path fill="#E6B045" d="M52.988,31.009c-3.283,0.594-6.504,10.436-3.957,12.945C54.527,49.366,60.002,29.744,52.988,31.009z"/>
<path fill="#FFCC66" d="M32,8C17.49,8,10.498,18.979,11.373,34.243c0.176,3.072,2.078,13.09,3.877,16.684
	c1.84,3.676,7.99,9.345,11.762,10.518c2.381,0.74,7.596,0.74,9.977,0c3.77-1.173,9.924-6.842,11.764-10.518
	c1.799-3.594,3.701-13.611,3.875-16.684C53.504,18.979,46.514,8,32,8z"/>
<path fill="#E6A400" d="M32,49.558c-3.266-0.96-8.1,0.455-8.1,0.455c1.842,2.006,3.191,4.609,8.1,4.609
	c5.623,0,6.58-2.955,8.1-4.609C40.1,50.013,35.26,48.593,32,49.558z"/>
<path fill="#FFFFFF" d="M25.137,50.353c3.42,2.871,10.33,2.889,13.77,0C35.26,50.509,28.809,50.511,25.137,50.353z"/>
<path fill="#E6B045" d="M36.5,44.161c0,2.928-8.998,2.928-8.998,0C27.502,43.489,36.5,43.489,36.5,44.161z"/>
<path fill="#FFFFFF" d="M47.535,35.425c-1.938,5.076-9.826,4.332-11.271,0.779C37.359,30.499,46.471,30.01,47.535,35.425z"/>
<path fill="#FFFFFF" d="M16.463,35.425c1.939,5.076,9.83,4.332,11.273,0.779C26.639,30.496,17.531,30.008,16.463,35.425z"/>
<path fill="#C1873C" d="M48.342,29.315c-3.318-1.647-9.67-1.727-12.037-0.579c-0.506,0.223-0.172,1.784,0.256,1.635
	c3.297-1.222,8.615-1.25,11.701,0.105C48.672,30.651,48.844,29.546,48.342,29.315z"/>
<path fill="#C1873C" d="M15.66,29.315c3.318-1.647,9.668-1.727,12.035-0.579c0.506,0.223,0.172,1.784-0.254,1.635
	c-3.303-1.222-8.615-1.25-11.703,0.105C15.326,30.651,15.158,29.546,15.66,29.315z"/>
<path fill="#613F34" d="M38.275,34.884c0,4.455,6.443,4.455,6.443,0C44.719,30.75,38.275,30.75,38.275,34.884z"/>
<path fill="#7D5037" d="M38.914,36.31c0,2.555,5.168,2.555,5.168,0C44.082,33.938,38.914,33.938,38.914,36.31z"/>
<path fill="#1A1626" d="M40.16,34.954c0,1.85,2.674,1.85,2.674,0C42.834,33.239,40.16,33.239,40.16,34.954z"/>
<path fill="#AB968C" d="M39.248,34.415c0,0.934,1.35,0.934,1.35,0C40.598,33.548,39.248,33.548,39.248,34.415z"/>
<path fill="#613F34" d="M19.281,34.884c0,4.453,6.443,4.453,6.443,0C25.725,30.749,19.281,30.749,19.281,34.884z"/>
<path fill="#7D5037" d="M19.918,36.308c0,2.555,5.17,2.555,5.17,0C25.088,33.938,19.918,33.938,19.918,36.308z"/>
<path fill="#1A1626" d="M21.166,34.954c0,1.848,2.674,1.848,2.674,0C23.84,33.237,21.166,33.237,21.166,34.954z"/>
<path fill="#AB968C" d="M20.252,34.413c0,0.934,1.352,0.934,1.352,0C21.604,33.546,20.252,33.546,20.252,34.413z"/>
<path fill="#E6B045" d="M47.535,35.387c0-5.45-11.271-5.45-11.271,0.863C37.873,31.071,45.926,31.071,47.535,35.387z"/>
<path fill="#E6B045" d="M16.463,35.387c0-5.45,11.273-5.45,11.273,0.861C26.127,31.067,18.072,31.067,16.463,35.387z"/>
<path fill="#453631" d="M54.342,24.401c-3.063-4.799-7.684-16.7-22.342-16.7c-14.656,0-19.277,11.901-22.342,16.7
	c-0.172,5.435,0.605,8.296,2.246,13.975c0.455-3.375-0.584-4.771,0.979-8.837c4.668-12.156,1.684-7.052,19.117-7.052
	c17.436,0,14.449-5.104,19.119,7.052c1.561,4.066,0.521,5.462,0.977,8.837C53.736,32.698,54.516,29.836,54.342,24.401z"/>
<path fill="#594640" d="M37.582,14.14c-0.156-4.229-6.27-5.328-7.857-1.41C32.051,11.476,35.824,12.154,37.582,14.14z"/>
<path fill="#594640" d="M45.426,12.224c-0.154-4.229-6.268-5.328-7.857-1.41C39.896,9.56,43.668,10.238,45.426,12.224z"/>
<path fill="#594640" d="M26.594,10.008c-2.605-3.334-8.203-0.639-7.191,3.466C20.553,11.093,24.006,9.43,26.594,10.008z"/>
<path fill="#594640" d="M16.205,17.385c-3.797-1.868-7.664,2.994-4.967,6.25C11.238,20.991,13.623,17.991,16.205,17.385z"/>
<path fill="#594640" d="M25.883,15.828c-2.223-3.603-8.082-1.544-7.531,2.648C19.758,16.237,23.373,14.966,25.883,15.828z"/>
<path fill="#594640" d="M42.355,16.323c-0.33-4.219-6.484-5.063-7.91-1.082C36.719,13.891,40.518,14.412,42.355,16.323z"/>
<path fill="#594640" d="M51.289,23.907c3.225-2.738,0.307-8.221-3.754-7.046C49.961,17.914,51.762,21.297,51.289,23.907z"/>
</svg>
