<?xml version="1.0" encoding="utf-8"?>
<!-- Generator: Adobe Illustrator 19.0.0, SVG Export Plug-In . SVG Version: 6.00 Build 0)  -->
<svg version="1.1" id="Layer_1" xmlns="http://www.w3.org/2000/svg" xmlns:xlink="http://www.w3.org/1999/xlink" x="0px" y="0px"
	 width="64px" height="64px" viewBox="0 0 64 64" enable-background="new 0 0 64 64" xml:space="preserve">
<path fill="#5C3A2E" d="M13.076,13.402C4.363,50.8,5.161,49.999,23.502,49.999C13.352,42.898,32.795,12.893,13.076,13.402z"/>
<path fill="#6B4435" d="M9.933,12.823C3.575,41.236,9.06,48.532,13.932,49.999h5.582C6.453,40.797,26.869,12.265,9.933,12.823z"/>
<path fill="#5C3A2E" d="M38.71,13.401c8.712,37.396,7.914,36.596-10.426,36.596C37.617,44.299,18.99,12.892,38.71,13.401z"/>
<path fill="#6B4435" d="M41.85,12.822c9.295,25.85-0.021,35.979-3.998,37.175h-5.58C45.334,41.547,24.918,12.263,41.85,12.822z"/>
<path fill="#875B49" d="M43.397,26.713c2.691,6.571,0.028,20.058-5.545,23.286c6.177,0,9.939-8.55,11.773-20.311
	C51.918,14.994,38.601,14.986,43.397,26.713z"/>
<path fill="#875B49" d="M2.85,32.415C5.1,43.029,7.869,49.999,13.932,49.999C7.173,43,7.968,28.238,9.889,24.565
	C19.682,18.738-0.956,14.463,2.85,32.415z"/>
<path fill="#302C3B" d="M6.258,50.384c2.398-1.714,13.453-6.241,13.453-6.241h12.658c0,0,11.044,4.517,13.433,6.237
	C49.27,52.873,50,62,50,62H2C2,62,2.774,52.864,6.258,50.384"/>
<path fill="#946346" d="M19.037,47.844c0,3.835,4.72,4.992,6.963,4.981c2.245-0.011,6.962-1.217,6.962-4.981V36.768H19.037V47.844z"
	/>
<path fill="#1A1626" d="M44.846,54.273c-0.64,1.929-1.239,5.427-0.728,7.727C45.215,60.736,45.438,52.48,44.846,54.273"/>
<path fill="#1A1626" d="M7.884,62c0.512-2.3-0.09-5.798-0.729-7.727C6.563,52.48,6.785,60.736,7.884,62"/>
<path fill="#1A1626" d="M26,61.427c-7.104,0-8.445-10.384-8.498-10.824l1.124-0.142C18.64,50.559,19.9,60.28,26,60.28
	c6.102,0,7.361-9.721,7.375-9.819l1.122,0.142C34.446,51.043,33.101,61.427,26,61.427"/>
<path fill="#E6EBEF" d="M26,51.679h-5.669c0,0,1.027,6.881,5.669,6.881c4.641,0,5.67-6.881,5.67-6.881H26z"/>
<path fill="#BEC3CF" d="M21.878,55.942c0,0,1.622-4.264,4.147-4.264c2.526,0,4.096,4.264,4.096,4.264s1.549-2.544,1.549-4.264
	H20.331C20.331,51.679,20.484,53.592,21.878,55.942"/>
<path fill="#FFFFFF" d="M19.037,44.142c0,0-8.694,5.386-0.666,13.506c0,0,3.802-5.97,7.629-5.97
	C26,51.679,19.037,49.654,19.037,44.142"/>
<path fill="#FFFFFF" d="M32.962,44.142c0,0,8.722,5.386,0.692,13.506c0,0-3.802-5.97-7.629-5.97
	C26.025,51.679,32.962,49.654,32.962,44.142"/>
<path fill="#FFFFFF" d="M25.434,53.973c0,0.764,1.133,0.764,1.133,0C26.567,53.208,25.434,53.208,25.434,53.973z"/>
<path fill="#FFFFFF" d="M25.434,57.413c0,0.764,1.133,0.764,1.133,0C26.567,56.649,25.434,56.649,25.434,57.413z"/>
<path fill="#1A1626" d="M37.662,57.783c-0.196-0.011-0.459,1.667-0.697,4.217h0.939C37.94,59.467,37.857,57.796,37.662,57.783"/>
<path fill="#1A1626" d="M11.079,56.265C10.8,56.283,10.682,58.618,10.745,62h1.288C11.733,58.592,11.362,56.251,11.079,56.265"/>
<path fill="#1A1626" d="M34.482,62c-0.037-1.647-0.165-2.702-0.371-2.713c-0.208-0.013-0.452,1.045-0.671,2.713H34.482z"/>
<path fill="#1A1626" d="M40.921,56.265c-0.283-0.015-0.654,2.326-0.956,5.734h1.29C41.318,58.618,41.2,56.283,40.921,56.265"/>
<path fill="#1A1626" d="M14.336,57.783c-0.193,0.013-0.276,1.684-0.24,4.217h0.939C14.797,59.45,14.534,57.772,14.336,57.783"/>
<path fill="#1A1626" d="M17.889,59.287c-0.206,0.011-0.334,1.063-0.371,2.713h1.042C18.343,60.332,18.097,59.274,17.889,59.287"/>
<polygon fill="#9E6C49" points="49.507,62 52.134,50.685 50.663,50.303 46.944,62 "/>
<path fill="#9E6C49" d="M60.237,41.314l-1.473-0.381l-0.215,0.773c-1.152,0.764-2.254,2.457-2.836,4.576
	c-0.586,2.127-0.5,4.131,0.105,5.352l-0.213,0.773l1.473,0.385c1.627,0.424,3.65-1.799,4.523-4.969
	C62.475,44.656,61.862,41.74,60.237,41.314"/>
<path fill="#B47D56" d="M60.13,47.439c-0.871,3.17-2.896,5.395-4.523,4.969c-1.625-0.424-2.238-3.336-1.365-6.506
	c0.871-3.168,2.896-5.393,4.523-4.969C60.39,41.357,61.003,44.267,60.13,47.439"/>
<polygon fill="#9E6C49" points="55.804,51.691 45.497,49.002 48.259,38.961 58.567,41.652 "/>
<path fill="#785647" d="M48.243,39.015l-2.732,9.93c0.014,0.021,0.023,0.047,0.033,0.068l2.85,0.744
	c1.176-0.742,2.307-2.463,2.902-4.623c0.594-2.162,0.498-4.203-0.141-5.418l-2.85-0.748C48.284,38.986,48.265,39.004,48.243,39.015"
	/>
<path fill="#9E6C49" d="M49.192,38.432l-1.475-0.379l-0.211,0.773c-1.152,0.762-2.254,2.457-2.84,4.576
	c-0.582,2.125-0.498,4.129,0.109,5.35l-0.213,0.773l1.473,0.385c1.627,0.424,3.65-1.799,4.523-4.969
	C51.431,41.773,50.819,38.857,49.192,38.432"/>
<path fill="#B47D56" d="M49.087,44.557c-0.873,3.17-2.896,5.395-4.523,4.969c-1.627-0.424-2.24-3.336-1.367-6.504
	c0.871-3.17,2.896-5.396,4.524-4.969C49.347,38.476,49.956,41.387,49.087,44.557"/>
<path fill="#9E6C49" d="M59.393,47.248c-0.762,2.773-2.369,4.762-3.59,4.443c-1.219-0.318-1.59-2.824-0.828-5.596
	c0.764-2.773,2.371-4.764,3.592-4.443C59.786,41.969,60.157,44.474,59.393,47.248"/>
<path fill="#785647" d="M52.86,50.924L52.86,50.924c-0.109,0.393-0.529,0.629-0.936,0.524l-1.471-0.383
	c-0.406-0.105-0.648-0.516-0.539-0.91L52.86,50.924z"/>
<path fill="#B88A6F" d="M26,4.415c-11.609,0-17.201,9.455-16.502,21.611c0.143,2.443,0.822,5.969,1.661,8.988
	C12.9,41.293,22.088,47.615,26,47.615c3.911,0,13.1-6.322,14.841-12.601c0.839-3.02,1.519-6.545,1.663-8.988
	C43.201,13.87,37.611,4.415,26,4.415z"/>
<path fill="#84401E" d="M26.001,37.587c-2.822-1.24-2.844-0.05-7.2,0.242c1.636,1.857,2.839,4.244,7.198,4.244
	c5.003,0,5.849-2.711,7.203-4.244C28.843,37.537,28.823,36.347,26.001,37.587z"/>
<path fill="#FFFFFF" d="M20.108,38.292c2.844,2.959,8.976,2.92,11.784,0.001C27.515,38.764,24.488,38.764,20.108,38.292z"/>
<path fill="#423225" d="M38.795,21.61c-2.616-1.56-7.308-1.75-9.165-0.688c-0.393,0.214-0.287,1.341,0.053,1.2
	c2.648-1.104,6.682-1.158,9.168,0.117C39.183,22.409,39.19,21.837,38.795,21.61z"/>
<path fill="#423225" d="M13.207,21.61c2.615-1.56,7.307-1.75,9.166-0.688c0.394,0.214,0.289,1.341-0.054,1.2
	c-2.648-1.104-6.68-1.159-9.167,0.117C12.818,22.409,12.811,21.837,13.207,21.61z"/>
<path fill="#946346" d="M29.6,33.345c0,2.342-7.2,2.342-7.2,0C22.4,32.807,29.6,32.807,29.6,33.345z"/>
<path fill="#FFFFFF" d="M38.542,26.357c-1.552,4.06-7.861,3.464-9.017,0.623C30.401,22.415,37.688,22.024,38.542,26.357z"/>
<path fill="#613F34" d="M31.106,25.916c0,3.596,5.2,3.596,5.2,0C36.307,22.578,31.106,22.578,31.106,25.916z"/>
<path fill="#7D5037" d="M31.62,27.065c0,2.063,4.172,2.063,4.172,0C35.792,25.152,31.62,25.152,31.62,27.065z"/>
<path fill="#1A1626" d="M32.627,25.973c0,1.492,2.159,1.492,2.159,0C34.786,24.587,32.627,24.587,32.627,25.973z"/>
<path fill="#AB968C" d="M31.89,25.536c0,0.754,1.09,0.754,1.09,0C32.979,24.837,31.89,24.837,31.89,25.536z"/>
<path fill="#45332C" d="M38.542,26.326c0-4.361-9.017-4.361-9.017,0.69C30.811,22.871,37.255,22.871,38.542,26.326z"/>
<path fill="#FFFFFF" d="M13.46,26.357c1.552,4.06,7.862,3.466,9.019,0.623C21.602,22.415,14.314,22.024,13.46,26.357z"/>
<path fill="#613F34" d="M15.695,25.921c0,3.596,5.2,3.596,5.2,0C20.895,22.584,15.695,22.584,15.695,25.921z"/>
<path fill="#7D5037" d="M16.209,27.071c0,2.063,4.172,2.063,4.172,0C20.381,25.158,16.209,25.158,16.209,27.071z"/>
<path fill="#1A1626" d="M17.216,25.977c0,1.492,2.159,1.492,2.159,0C19.375,24.593,17.216,24.593,17.216,25.977z"/>
<path fill="#AB968C" d="M16.478,25.542c0,0.754,1.09,0.754,1.09,0C17.568,24.842,16.478,24.842,16.478,25.542z"/>
<path fill="#45332C" d="M13.46,26.326c0-4.361,9.019-4.361,9.019,0.689C21.191,22.87,14.748,22.87,13.46,26.326z"/>
<path fill="#875B49" d="M38.973,6.105c-8.14,8.342-0.371,8.881,4.425,20.607c2.691,6.571,4.394,14.736,6.229,2.976
	C51.918,14.994,43.109,4.878,38.973,6.105z"/>
<path fill="#875B49" d="M18.99,2.911C8.667,5.341-0.956,14.463,2.85,32.415c2.25,10.614,5.118-4.177,7.039-7.85
	c9.793-5.827,26.539-10.24,29.084-18.46C40.265,4.209,29.32,0.205,18.99,2.911z"/>
<path fill="#6B4435" d="M11.081,15.988c4.365-0.885,25.25-1.302,27.892-9.883C34.037,10.039,28.925,11.11,11.081,15.988z"/>
<path fill="#6B4435" d="M3.554,29.637c7.324-9.774,31.315-8.695,35.419-23.531C31.007,18.557,5.556,20.241,3.554,29.637z"/>
<path fill="#6B4435" d="M36.558,8.14c-1.89,2.977,4.678-1.398,11.757,17.785C46.57,14.71,40.589,6.987,36.558,8.14z"/>
</svg>
