<?xml version="1.0" encoding="utf-8"?>
<!-- Generator: Adobe Illustrator 19.0.0, SVG Export Plug-In . SVG Version: 6.00 Build 0)  -->
<svg version="1.1" id="Layer_1" xmlns="http://www.w3.org/2000/svg" xmlns:xlink="http://www.w3.org/1999/xlink" x="0px" y="0px"
	 width="64px" height="64px" viewBox="0 0 64 64" enable-background="new 0 0 64 64" xml:space="preserve">
<path fill="#3B2C29" d="M17.782,15.477c-7.561,37.397-6.87,36.597,9.05,36.597C18.022,44.973,34.896,14.968,17.782,15.477z"/>
<path fill="#453631" d="M15.054,14.898c-5.518,28.413-0.758,35.709,3.471,37.176h4.844C12.033,42.871,29.754,14.339,15.054,14.898z"
	/>
<path fill="#3B2C29" d="M40.031,15.476c7.562,37.396,6.868,36.596-9.049,36.596C39.083,46.373,22.916,14.967,40.031,15.476z"/>
<path fill="#453631" d="M42.757,14.896c8.068,25.85-0.017,35.979-3.469,37.175h-4.844C45.78,43.621,28.061,14.337,42.757,14.896z"/>
<path fill="#594640" d="M44.099,28.787c2.336,6.571,0.024,20.058-4.812,23.286c5.36,0,8.626-8.55,10.218-20.311
	C51.496,17.068,39.936,17.061,44.099,28.787z"/>
<path fill="#594640" d="M8.906,34.489c1.954,10.614,4.356,17.584,9.619,17.584c-5.867-6.999-5.176-21.761-3.51-25.434
	C23.515,20.813,5.602,16.537,8.906,34.489z"/>
<path fill="#E6EBEF" d="M9.255,53.713c2.401-1.223,13.453-4.451,13.453-4.451h12.658c0,0,11.046,3.221,13.435,4.449
	C52.269,55.488,53,62,53,62H5C5,62,5.773,55.482,9.255,53.713"/>
<polygon fill="#E6B045" points="22.28,51.084 29,54.355 35.719,51.084 35.719,44 22.28,44 "/>
<path fill="#CFD8DD" d="M10.738,62c0.513-1.641-0.09-4.137-0.727-5.512C9.419,55.209,9.642,61.098,10.738,62"/>
<path fill="#CFD8DD" d="M39.561,55.455C38.341,55.018,29,54.355,29,54.355s8.237,1.023,9.321,1.508
	C39.406,56.35,39.561,62,39.561,62h1.24C40.801,62,40.782,55.893,39.561,55.455z"/>
<path fill="#068AC7" d="M27.909,51.094c-6.388-1.576-5.455-4.506-5.455-4.506s-1.091,0.125-1.091,2.512
	c0,5.256,7.637,5.256,7.637,5.256S28.113,51.145,27.909,51.094"/>
<path fill="#068AC7" d="M35.546,46.588c0,0,0.929,2.93-5.455,4.506C29.886,51.145,29,54.355,29,54.355s7.637,0,7.637-5.256
	C36.636,46.713,35.546,46.588,35.546,46.588"/>
<path fill="#068AC7" d="M22.454,57.844c0.901,0,1.637,0.672,1.637,1.5c0,0.83-0.735,1.5-1.637,1.5c-0.905,0-1.636-0.67-1.636-1.5
	C20.818,58.516,21.549,57.844,22.454,57.844"/>
<path fill="#068AC7" d="M35.546,57.844c0.903,0,1.636,0.672,1.636,1.5c0,0.83-0.732,1.5-1.636,1.5c-0.906,0-1.637-0.67-1.637-1.5
	C33.909,58.516,34.639,57.844,35.546,57.844"/>
<line fill="none" x1="14.828" y1="62" x2="43.172" y2="62"/>
<path fill="#FFCC66" d="M29,6.489c-11.609,0-17.201,9.455-16.502,21.611c0.143,2.443,0.822,5.969,1.66,8.988
	C15.9,43.367,25.088,49.689,29,49.689c3.91,0,13.1-6.322,14.84-12.601c0.84-3.02,1.52-6.545,1.664-8.988
	C46.201,15.944,40.611,6.489,29,6.489z"/>
<path fill="#D47706" d="M29,39.661c-2.822-1.24-2.844-0.05-7.199,0.242c1.635,1.856,2.838,4.244,7.197,4.244
	c5.004,0,5.85-2.711,7.203-4.244C31.842,39.611,31.822,38.421,29,39.661z"/>
<path fill="#FFFFFF" d="M23.107,40.366c2.844,2.959,8.977,2.92,11.785,0.001C30.513,40.838,27.488,40.838,23.107,40.366z"/>
<path fill="#594640" d="M41.795,23.685c-2.617-1.56-7.309-1.75-9.166-0.688c-0.393,0.214-0.287,1.341,0.053,1.2
	c2.648-1.104,6.682-1.158,9.168,0.117C42.183,24.483,42.189,23.911,41.795,23.685z"/>
<path fill="#594640" d="M16.207,23.685c2.615-1.56,7.307-1.75,9.166-0.688c0.393,0.214,0.289,1.341-0.055,1.2
	c-2.648-1.104-6.68-1.159-9.166,0.117C15.818,24.483,15.81,23.911,16.207,23.685z"/>
<path fill="#E6B045" d="M32.599,35.419c0,2.342-7.199,2.342-7.199,0C25.4,34.882,32.599,34.882,32.599,35.419z"/>
<path fill="#FFFFFF" d="M41.541,28.432c-1.551,4.059-7.861,3.464-9.016,0.623C33.4,24.489,40.687,24.099,41.541,28.432z"/>
<path fill="#613F34" d="M34.105,27.99c0,3.596,5.201,3.596,5.201,0C39.306,24.652,34.105,24.652,34.105,27.99z"/>
<path fill="#7D5037" d="M34.619,29.14c0,2.063,4.172,2.063,4.172,0C38.791,27.227,34.619,27.227,34.619,29.14z"/>
<path fill="#1A1626" d="M35.627,28.047c0,1.492,2.158,1.492,2.158,0C37.785,26.661,35.627,26.661,35.627,28.047z"/>
<path fill="#AB968C" d="M34.888,27.61c0,0.754,1.09,0.754,1.09,0C35.978,26.911,34.888,26.911,34.888,27.61z"/>
<path fill="#45332C" d="M41.541,28.4c0-4.361-9.016-4.361-9.016,0.69C33.81,24.945,40.254,24.945,41.541,28.4z"/>
<path fill="#FFFFFF" d="M16.459,28.432c1.553,4.059,7.863,3.466,9.02,0.623C24.601,24.489,17.314,24.099,16.459,28.432z"/>
<path fill="#613F34" d="M18.695,27.995c0,3.596,5.199,3.596,5.199,0C23.894,24.658,18.695,24.658,18.695,27.995z"/>
<path fill="#7D5037" d="M19.209,29.146c0,2.063,4.172,2.063,4.172,0C23.381,27.232,19.209,27.232,19.209,29.146z"/>
<path fill="#1A1626" d="M20.215,28.052c0,1.492,2.16,1.492,2.16,0C22.375,26.667,20.215,26.667,20.215,28.052z"/>
<path fill="#AB968C" d="M19.478,27.616c0,0.754,1.09,0.754,1.09,0C20.568,26.916,19.478,26.916,19.478,27.616z"/>
<path fill="#45332C" d="M16.459,28.4c0-4.361,9.02-4.361,9.02,0.688C24.191,24.944,17.748,24.944,16.459,28.4z"/>
<path fill="#594640" d="M40.259,8.18c-7.064,8.342-0.323,8.881,3.84,20.607c2.336,6.571,3.814,14.736,5.406,2.976
	C51.496,17.068,43.85,6.952,40.259,8.18z"/>
<path fill="#594640" d="M22.916,4.985c-8.961,2.43-17.313,11.552-14.01,29.504c1.954,10.614,2.769-3.804,4.436-7.477
	C21.842,21.186,38.05,16.399,40.259,8.18C41.38,6.283,31.881,2.279,22.916,4.985z"/>
<path fill="#453631" d="M16.051,18.063c3.789-0.885,21.916-1.302,24.209-9.883C35.976,12.113,31.537,13.185,16.051,18.063z"/>
<path fill="#453631" d="M9.518,31.711c6.356-9.774,27.179-8.695,30.741-23.531C33.344,20.632,11.256,22.315,9.518,31.711z"/>
<path fill="#453631" d="M38.164,10.214c-1.641,2.977,4.061-1.398,10.205,17.785C46.853,16.784,41.662,9.061,38.164,10.214z"/>
<path fill="#E6EBEF" d="M29,11c-14.01,0-20.814,7-20.814,7v6.891c0,0,6.416-2.891,20.814-2.891c14.397,0,20.813,3,20.813,3v-7
	C49.812,18,43.009,11,29,11"/>
<path fill="#E6EBEF" d="M48.522,4.805C44.119,2.936,41.489,2,38.186,2c-1.521,0-5.386,1.453-9.188,1.402
	C25.196,3.453,21.332,2,19.81,2c-3.305,0-5.932,0.936-10.338,2.805C5.074,6.672,2,8.205,2,11.813c0,5.115,6.186,7.01,6.186,7.01
	s20.953-8.412,41.627,0c0,0,6.188-1.895,6.188-7.01C56,8.205,52.926,6.672,48.522,4.805"/>
<path fill="#CFD8DD" d="M44.254,13.832c-4.153,4.086-2.886-7.793-5.772-7.75c-2.974,0.043-4.12,7.666-9.541,7.555
	c-5.625-0.113-5.106-8.574-8.934-8.142c-3.712,0.418-3.362,13.486-8.859,6.338C2.659,0.789,10.43,25,2.026,12.387
	C2.402,18,8.185,18.822,8.185,18.822c4.111-1.877,23.901-7.439,41.627,0c0,0,5.263-0.646,6.082-5.895
	C46.125,22.789,58.397-0.086,44.254,13.832z"/>
<path fill="#99A8AE" d="M19.998,7.607c0,0,1.32,7.402-3.654,8.285c-4.975,0.885-8.018-4.869-8.018-4.869
	c2.182,6.922-0.141,7.799-0.141,7.799C17.64,14.967,29,15.088,29,15.088C21.758,15.088,19.998,7.607,19.998,7.607"/>
<path fill="#99A8AE" d="M49.672,11.025c0,0-3.041,5.752-8.018,4.869C36.677,15.012,38,7.607,38,7.607s-1.758,7.481-9,7.481
	c0,0,11.357-0.121,20.813,3.734C49.812,18.822,47.492,17.945,49.672,11.025"/>
<path fill="#E6B045" d="M47.787,55.262c1.485-1.431-0.711-3.528-1.322-2.312c-0.818,1.629-1.066,3.511-2.75,5.14
	c-0.857,0.829-1.121,2.367-1.088,3.909l1.867,0C44.494,62,47.185,55.839,47.787,55.262z"/>
<polygon fill="#1A1626" points="53.365,55.574 47.597,53.475 44.494,62 47.344,62 "/>
<path fill="#CFD8DD" d="M47.732,53.524l8.938,3.253c3.441-9.405,7.727-22.303,3.703-30.022
	C56.295,29.378,52.916,39.356,47.732,53.524z"/>
<path fill="#BEC3CF" d="M54.822,56.104l1.848,0.672c3.441-9.405,7.727-22.303,3.703-30.022c-0.432,0.277-0.855,0.638-1.275,1.077
	C61.902,35.573,58.031,47.313,54.822,56.104z"/>
<path opacity="0.1" fill="#FFFFFF" d="M49.441,48.837l11.375-5.303c0.52-2.241,0.904-4.471,1.08-6.618l-9.711,4.527
	C51.32,43.705,50.412,46.179,49.441,48.837z"/>
<path opacity="0.2" fill="#FFFFFF" d="M52.185,41.443l9.711-4.527c0.08-0.983,0.113-1.946,0.096-2.886l-8.432,3.932
	C53.111,39.06,52.656,40.22,52.185,41.443z"/>
<path fill="#E6EBEF" d="M58.375,29.926c-2.471,2.696-4.57,8.12-10.281,23.729l0.44,0.16C52.965,41.704,55.908,33.23,58.375,29.926z"
	/>
<path fill="#FFCC66" d="M53.005,57.758c1.256,1.235,0.076,2.229-0.45,2.427c0.642,1.305-0.277,1.66-0.726,1.815h-4.484
	c-2.691-1.357-1.023-2.321,0.738-2.212c-4.21-0.781-1.854-2.339,1.616-1.89C43.95,56.766,55.57,52.744,53.005,57.758z"/>
</svg>
