<?xml version="1.0" encoding="utf-8"?>
<!-- Generator: Adobe Illustrator 19.0.0, SVG Export Plug-In . SVG Version: 6.00 Build 0)  -->
<svg version="1.1" id="Layer_1" xmlns="http://www.w3.org/2000/svg" xmlns:xlink="http://www.w3.org/1999/xlink" x="0px" y="0px"
	 width="64px" height="64px" viewBox="0 0 64 64" enable-background="new 0 0 64 64" xml:space="preserve">
<path fill="#38332D" d="M11.519,33.446c-19.308,11.393-2.332,21.768-7.83,26.678C14.367,66.753,40.51,55.331,11.519,33.446z"/>
<path fill="#26221E" d="M5.752,37.774c4.74,18.193,14.49,18.818,13.678,22.113C28.494,55.136,28.576,39.802,5.752,37.774z"/>
<path fill="#38332D" d="M52.48,33.446c19.307,11.393,2.334,21.768,7.832,26.678C49.633,66.753,23.49,55.331,52.48,33.446z"/>
<path fill="#26221E" d="M58.248,37.774c-4.74,18.193-14.49,18.818-13.676,22.113C35.508,55.136,35.424,39.802,58.248,37.774z"/>
<path fill="#38332D" d="M5.59,32.983h52.791C66.062-8.327-2.093-8.327,5.59,32.983z"/>
<path fill="#26221E" d="M5.527,32.473c0,0,30.047,11.219,50.881-1.781c-4.207,0.797-11.041-15.307-43.035-16.516
	C12.201,32.473,6.576,27.511,5.527,32.473z"/>
<path fill="#CFD8DD" d="M55.904,30.038c2.24-30.908-50.086-30.908-47.846,0C10.01,4.079,53.953,4.079,55.904,30.038z"/>
<path fill="#FFFFFF" d="M55.904,29.038c2.24-30.908-50.086-30.908-47.846,0C10.01,3.079,53.953,3.079,55.904,29.038z"/>
<path fill="#423225" d="M8.619,30.251c-9.108-1.385-3.174,20.111,3.957,14.184C15.881,41.684,12.881,30.901,8.619,30.251z"/>
<path fill="#423225" d="M55.351,30.251c-4.264,0.65-7.264,11.434-3.959,14.184C58.525,50.36,64.457,28.866,55.351,30.251z"/>
<path fill="#614A36" d="M55.055,30.294c-8.727-2.479-19.893-14.354-41.121-12.92c0.373,4.67-0.855,9.961-4.949,12.938
	c0,0-0.018,4.195,1.475,11.873c2.445,12.568,12.598,17.502,21.525,17.502c8.928,0,19.084-4.934,21.525-17.502
	C55.004,34.505,55.055,30.294,55.055,30.294z"/>
<path fill="#FFFFFF" d="M49.035,34.421c-2.123,5.559-10.762,4.744-12.346,0.854C37.891,29.024,47.869,28.489,49.035,34.421z"/>
<path fill="#613F34" d="M38.892,33.829c0,4.879,7.059,4.879,7.059,0C45.951,29.3,38.892,29.3,38.892,33.829z"/>
<path fill="#7D5037" d="M39.592,35.39c0,2.797,5.66,2.797,5.66,0C45.252,32.792,39.592,32.792,39.592,35.39z"/>
<path fill="#1A1626" d="M40.957,33.905c0,2.025,2.93,2.025,2.93,0C43.887,32.026,40.957,32.026,40.957,33.905z"/>
<path fill="#AB968C" d="M39.957,33.313c0,1.023,1.479,1.023,1.479,0C41.435,32.364,39.957,32.364,39.957,33.313z"/>
<path fill="#423225" d="M49.035,34.38c0-5.971-12.346-5.971-12.346,0.945C38.453,29.651,47.271,29.651,49.035,34.38z"/>
<path fill="#FFFFFF" d="M15.002,34.421c2.123,5.559,10.766,4.744,12.348,0.854C26.148,29.022,16.174,28.487,15.002,34.421z"/>
<path fill="#613F34" d="M18.09,33.827c0,4.879,7.057,4.879,7.057,0C25.146,29.3,18.09,29.3,18.09,33.827z"/>
<path fill="#7D5037" d="M18.787,35.388c0,2.797,5.662,2.797,5.662,0C24.449,32.792,18.787,32.792,18.787,35.388z"/>
<path fill="#1A1626" d="M20.154,33.905c0,2.023,2.928,2.023,2.928,0C23.082,32.024,20.154,32.024,20.154,33.905z"/>
<path fill="#AB968C" d="M19.152,33.311c0,1.023,1.48,1.023,1.48,0C20.633,32.362,19.152,32.362,19.152,33.311z"/>
<path fill="#423225" d="M15.002,34.38c0-5.971,12.348-5.971,12.348,0.943C25.588,29.647,16.766,29.647,15.002,34.38z"/>
<path fill="#36281D" d="M50.176,28.327c-3.688-1.83-10.744-1.92-13.373-0.645c-0.563,0.248-0.191,1.983,0.283,1.816
	c3.664-1.357,9.572-1.389,13.002,0.117C50.545,29.809,50.734,28.583,50.176,28.327z"/>
<path fill="#36281D" d="M13.863,28.327c3.688-1.83,10.742-1.92,13.373-0.645c0.563,0.248,0.191,1.983-0.281,1.816
	c-3.67-1.357-9.572-1.389-13.004,0.117C13.494,29.809,13.307,28.583,13.863,28.327z"/>
<path fill="#36281D" d="M32.019,49.266c-3.627-1.066-9,0.506-9,0.506c2.047,2.229,3.547,5.121,9,5.121c6.248,0,7.31-3.283,9-5.121
	C41.019,49.772,35.642,48.194,32.019,49.266z"/>
<path fill="#FFFFFF" d="M24.392,50.149c3.801,3.19,11.481,3.209,15.301,0C35.642,50.323,28.473,50.325,24.392,50.149z"/>
<path fill="#423225" d="M37.019,44.487c0,3.254-10,3.254-10,0C27.019,43.741,37.019,43.741,37.019,44.487z"/>
</svg>
