<?xml version="1.0" encoding="utf-8"?>
<!-- Generator: Adobe Illustrator 19.0.0, SVG Export Plug-In . SVG Version: 6.00 Build 0)  -->
<svg version="1.1" id="Layer_1" xmlns="http://www.w3.org/2000/svg" xmlns:xlink="http://www.w3.org/1999/xlink" x="0px" y="0px"
	 width="64px" height="64px" viewBox="0 0 64 64" enable-background="new 0 0 64 64" xml:space="preserve">
<path fill="#211E1A" d="M20.725,15.476c-8.108,37.397-7.365,36.597,9.701,36.597C20.982,44.972,39.074,14.967,20.725,15.476z"/>
<path fill="#26221E" d="M17.801,14.896c-5.918,28.413-0.813,35.709,3.721,37.176h5.193C14.562,42.87,33.558,14.338,17.801,14.896z"
	/>
<path fill="#211E1A" d="M44.578,15.475c8.105,37.396,7.363,36.596-9.701,36.596C43.56,46.372,26.228,14.966,44.578,15.475z"/>
<path fill="#26221E" d="M47.5,14.896c8.648,25.85-0.02,35.979-3.721,37.175h-5.191C50.742,43.62,31.744,14.336,47.5,14.896z"/>
<path fill="#38332D" d="M48.939,28.786c2.504,6.571,0.025,20.058-5.16,23.286c5.748,0,9.25-8.55,10.955-20.311
	C56.867,17.067,44.476,17.059,48.939,28.786z"/>
<path fill="#38332D" d="M11.209,34.488c2.094,10.614,4.67,17.584,10.313,17.584c-6.291-6.999-5.551-21.761-3.764-25.434
	C26.871,20.812,7.668,16.536,11.209,34.488z"/>
<path fill="#302C3B" d="M13.006,50.949c2.4-1.631,13.197-4.314,13.197-4.314h13.092c0,0,10.867,2.676,13.256,4.311
	C56.019,53.316,56.75,62,56.75,62h-48C8.75,62,9.525,53.309,13.006,50.949"/>
<path fill="#614A36" d="M25.75,48.535c0,2.219,7,12.918,7,12.918s7-10.182,7-12.918V38h-14V48.535z"/>
<path fill="#1A1626" d="M14.488,62C15,59.811,14.4,56.482,13.76,54.65C13.168,52.943,13.392,60.795,14.488,62"/>
<path fill="#1A1626" d="M51.738,54.65c-0.639,1.834-1.24,5.16-0.729,7.348C52.107,60.795,52.332,52.945,51.738,54.65"/>
<polygon fill="#E6EBEF" points="56.744,38.039 42.91,62 49.84,62 61.941,41.039 "/>
<polygon fill="#CFD8DD" points="48.418,60.557 60.041,39.496 60.908,39.996 "/>
<path fill="#CFD8DD" d="M61.941,41.039c-0.668,1.154-5.863-1.846-5.197-3C57.412,36.883,62.607,39.883,61.941,41.039z"/>
<path fill="#E81C27" d="M48.715,51.947l-1,1.732c-0.668,1.154,4.529,4.154,5.195,3l1-1.732
	C53.244,56.102,48.047,53.102,48.715,51.947z"/>
<path fill="#614A36" d="M32.75,6.488c-11.609,0-17.201,9.455-16.502,21.611c0.143,2.443,0.822,5.969,1.662,8.988
	c1.74,6.278,10.928,12.601,14.84,12.601c3.912,0,13.1-6.322,14.842-12.601c0.838-3.02,1.518-6.545,1.662-8.988
	C49.951,15.943,44.361,6.488,32.75,6.488z"/>
<path fill="#36281D" d="M32.752,39.66c-2.822-1.24-2.844-0.05-7.201,0.242c1.637,1.856,2.84,4.244,7.199,4.244
	c5.002,0,5.848-2.711,7.203-4.244C35.594,39.61,35.574,38.42,32.752,39.66z"/>
<path fill="#FFFFFF" d="M26.859,40.365c2.844,2.959,8.977,2.92,11.783,0.001C34.266,40.837,31.238,40.837,26.859,40.365z"/>
<path fill="#423225" d="M45.545,23.684c-2.615-1.56-7.307-1.75-9.164-0.688c-0.394,0.214-0.287,1.341,0.053,1.2
	c2.649-1.104,6.682-1.158,9.168,0.117C45.933,24.482,45.941,23.91,45.545,23.684z"/>
<path fill="#423225" d="M19.957,23.684c2.615-1.56,7.307-1.75,9.166-0.688c0.395,0.214,0.289,1.341-0.053,1.2
	c-2.648-1.104-6.68-1.159-9.168,0.117C19.568,24.482,19.562,23.91,19.957,23.684z"/>
<path fill="#423225" d="M36.351,35.418c0,2.342-7.201,2.342-7.201,0C29.15,34.881,36.351,34.881,36.351,35.418z"/>
<path fill="#FFFFFF" d="M45.293,28.431c-1.553,4.06-7.861,3.464-9.018,0.623C37.152,24.488,44.439,24.098,45.293,28.431z"/>
<path fill="#613F34" d="M37.857,27.989c0,3.596,5.199,3.596,5.199,0C43.057,24.651,37.857,24.651,37.857,27.989z"/>
<path fill="#7D5037" d="M38.371,29.139c0,2.063,4.172,2.063,4.172,0C42.543,27.226,38.371,27.226,38.371,29.139z"/>
<path fill="#1A1626" d="M39.377,28.046c0,1.492,2.16,1.492,2.16,0C41.537,26.66,39.377,26.66,39.377,28.046z"/>
<path fill="#AB968C" d="M38.641,27.609c0,0.754,1.09,0.754,1.09,0C39.73,26.91,38.641,26.91,38.641,27.609z"/>
<path fill="#45332C" d="M45.293,28.399c0-4.361-9.018-4.361-9.018,0.69C37.562,24.944,44.006,24.944,45.293,28.399z"/>
<path fill="#FFFFFF" d="M20.211,28.431c1.551,4.06,7.861,3.466,9.018,0.623C28.353,24.488,21.064,24.098,20.211,28.431z"/>
<path fill="#613F34" d="M22.445,27.994c0,3.596,5.201,3.596,5.201,0C27.646,24.657,22.445,24.657,22.445,27.994z"/>
<path fill="#7D5037" d="M22.959,29.145c0,2.063,4.172,2.063,4.172,0C27.131,27.231,22.959,27.231,22.959,29.145z"/>
<path fill="#1A1626" d="M23.967,28.051c0,1.492,2.158,1.492,2.158,0C26.125,26.666,23.967,26.666,23.967,28.051z"/>
<path fill="#AB968C" d="M23.228,27.615c0,0.754,1.09,0.754,1.09,0C24.318,26.915,23.228,26.915,23.228,27.615z"/>
<path fill="#45332C" d="M20.211,28.399c0-4.361,9.018-4.361,9.018,0.688C27.941,24.943,21.498,24.943,20.211,28.399z"/>
<path fill="#38332D" d="M44.822,8.179c-7.574,8.342-0.346,8.881,4.117,20.607c2.504,6.571,4.09,14.736,5.795,2.976
	C56.867,17.067,48.672,6.951,44.822,8.179z"/>
<path fill="#38332D" d="M26.228,4.984c-9.608,2.43-18.561,11.552-15.02,29.504c2.094,10.614,4.762-4.177,6.549-7.85
	c9.113-5.827,24.695-10.24,27.064-18.46C46.023,6.282,35.84,2.278,26.228,4.984z"/>
<path fill="#26221E" d="M18.867,18.062c4.063-0.885,23.496-1.302,25.955-9.883C40.228,12.112,35.473,13.184,18.867,18.062z"/>
<path fill="#26221E" d="M11.863,31.71c6.816-9.774,29.141-8.695,32.959-23.531C37.41,20.631,13.726,22.314,11.863,31.71z"/>
<path fill="#26221E" d="M42.576,10.213c-1.76,2.976,4.352-1.399,10.939,17.785C51.892,16.783,46.326,9.061,42.576,10.213z"/>
<path fill="#1A1626" d="M11.959,6.938v10.614c12.07,0,20.873,3.386,20.873,3.386s8.68-3.389,20.752-3.389V6.938H11.959z"/>
<polygon fill="#302C3B" points="32.75,2 3.5,5.555 3.5,6.492 32.75,10.938 62,6.492 62,5.555 "/>
<path fill="#FFCF0A" d="M3.5,6.492v24.055c0,0.645,1,0.645,1,0V6.641L3.5,6.492z"/>
<path fill="#F0C100" d="M5,29.397c-0.314-0.39-1.646-0.354-2,0c-0.178,0.177-0.193,0.843,0,1c0.389,0.313,1.646,0.354,2,0
	C5.176,30.221,5.156,29.591,5,29.397"/>
<path fill="#F0C100" d="M6,37.897c0,2.209-0.002,2-2,2c-2,0-2,0.209-2-2c0-2.209,0.896-6,2-6C5.103,31.897,6,35.688,6,37.897"/>
<path fill="#C79414" d="M3.75,39.897c0,0,0.25-3.059,0.25-3.998l0.25,3.998H3.75z"/>
<path fill="#C79414" d="M2.75,39.897c0,0,0.25-3.059,0.25-3.998l0.25,3.998H2.75z"/>
<path fill="#C79414" d="M4.75,39.897c0,0,0.25-3.059,0.25-3.998l0.25,3.998H4.75z"/>
<path fill="#FFCF0A" d="M3.998,29.898c1.103,0,2,0.895,2,1.999c0,1.104-0.897,1.999-2,1.999S2,33.001,2,31.897
	C2,30.793,2.894,29.898,3.998,29.898"/>
<path fill="#423225" d="M32.736,49.742c-1.634,0-4.19-1.113-6.738-2.855c5.983,6.089,7.499,6.086,13.48-0.003
	C36.927,48.627,34.37,49.742,32.736,49.742z"/>
</svg>
