<?xml version="1.0" encoding="utf-8"?>
<!-- Generator: Adobe Illustrator 15.0.0, SVG Export Plug-In . SVG Version: 6.00 Build 0)  -->
<!DOCTYPE svg PUBLIC "-//W3C//DTD SVG 1.1//EN" "http://www.w3.org/Graphics/SVG/1.1/DTD/svg11.dtd" [
	<!ENTITY ns_flows "http://ns.adobe.com/Flows/1.0/">
	<!ENTITY ns_extend "http://ns.adobe.com/Extensibility/1.0/">
	<!ENTITY ns_ai "http://ns.adobe.com/AdobeIllustrator/10.0/">
	<!ENTITY ns_graphs "http://ns.adobe.com/Graphs/1.0/">
]>
<svg version="1.1" id="Layer_1" xmlns:x="&ns_extend;" xmlns:i="&ns_ai;" xmlns:graph="&ns_graphs;"
	 xmlns="http://www.w3.org/2000/svg" xmlns:xlink="http://www.w3.org/1999/xlink" xmlns:a="http://ns.adobe.com/AdobeSVGViewerExtensions/3.0/"
	 x="0px" y="0px" width="64px" height="64px" viewBox="0 0 64 64" enable-background="new 0 0 64 64" xml:space="preserve">
<path fill="#3B2C29" d="M23.921,9.213c-5.444,23.344-4.943,22.848,6.519,22.848C24.098,27.625,36.246,8.896,23.921,9.213z"/>
<path fill="#453631" d="M21.959,8.852c-3.975,17.736-0.546,22.291,2.498,23.209h3.49C19.782,26.313,32.543,8.504,21.959,8.852z"/>
<path fill="#3B2C29" d="M39.942,9.211c5.447,23.346,4.947,22.846-6.514,22.846C39.26,28.5,27.618,8.895,39.942,9.211z"/>
<path fill="#453631" d="M41.909,8.852c5.806,16.135-0.015,22.457-2.5,23.205h-3.49C44.082,26.781,31.323,8.502,41.909,8.852z"/>
<path fill="#594640" d="M42.874,17.523c1.683,4.102,0.018,12.52-3.465,14.537c3.859,0,6.21-5.34,7.357-12.682
	C48.197,10.205,39.875,10.201,42.874,17.523z"/>
<path fill="#594640" d="M17.53,21.082c1.406,6.623,3.136,10.979,6.927,10.979c-4.223-4.371-3.727-13.586-2.527-15.879
	C28.051,12.543,15.153,9.875,17.53,21.082z"/>
<path fill="#8E3ED6" d="M43.479,32.738c-7.696-5.117-15.261-5.117-22.957,0c-2.442,1.623-3.947,6.74-4.255,12.037l5.339,1V62h20.789
	V45.775l5.339-1C47.426,39.479,45.921,34.361,43.479,32.738z"/>
<path fill="#E6B045" d="M27.792,29.77c0-0.723,0-3.932,0-3.932h8.418c0,0,0,3.16,0,3.932C36.21,34,27.792,34,27.792,29.77z"/>
<path fill="#FFCC66" d="M31.999,3.602c-7.256,0-10.751,5.902-10.313,13.492c0.09,1.525,0.516,3.725,1.037,5.611
	c1.091,3.918,6.833,7.865,9.276,7.865c2.446,0,8.188-3.947,9.278-7.865c0.523-1.887,0.946-4.086,1.039-5.611
	C42.751,9.504,39.256,3.602,31.999,3.602z"/>
<path fill="#D47706" d="M32.001,24.309c-1.765-0.773-1.776-0.029-4.501,0.154c1.023,1.158,1.775,2.648,4.499,2.648
	c3.128,0,3.655-1.693,4.502-2.648C33.777,24.279,33.766,23.535,32.001,24.309z"/>
<path fill="#FFFFFF" d="M28.32,24.75c1.776,1.848,5.608,1.824,7.361,0C32.948,25.045,31.054,25.045,28.32,24.75z"/>
<path fill="#594640" d="M39.995,14.336c-1.635-0.973-4.567-1.092-5.726-0.428c-0.248,0.133-0.181,0.838,0.033,0.748
	c1.653-0.688,4.175-0.723,5.729,0.074C40.24,14.836,40.244,14.479,39.995,14.336z"/>
<path fill="#594640" d="M24.004,14.336c1.633-0.973,4.568-1.092,5.729-0.428c0.248,0.133,0.181,0.838-0.034,0.748
	c-1.654-0.688-4.175-0.723-5.729,0.074C23.762,14.836,23.759,14.479,24.004,14.336z"/>
<path fill="#E6B045" d="M34.251,21.662c0,1.461-4.502,1.461-4.502,0C29.749,21.326,34.251,21.326,34.251,21.662z"/>
<path fill="#FFFFFF" d="M39.839,17.301c-0.971,2.533-4.913,2.162-5.636,0.389C34.75,14.838,39.307,14.594,39.839,17.301z"/>
<path fill="#613F34" d="M35.193,17.025c0,2.244,3.248,2.244,3.248,0C38.441,14.939,35.193,14.939,35.193,17.025z"/>
<path fill="#7D5037" d="M35.513,17.744c0,1.283,2.608,1.283,2.608,0C38.121,16.547,35.513,16.547,35.513,17.744z"/>
<path fill="#1A1626" d="M36.142,17.059c0,0.934,1.35,0.934,1.35,0C37.491,16.193,36.142,16.193,36.142,17.059z"/>
<path fill="#AB968C" d="M35.68,16.787c0,0.471,0.684,0.471,0.684,0C36.363,16.352,35.68,16.352,35.68,16.787z"/>
<path fill="#45332C" d="M39.839,17.281c0-2.723-5.636-2.723-5.636,0.432C35.008,15.125,39.035,15.125,39.839,17.281z"/>
<path fill="#FFFFFF" d="M24.163,17.301c0.969,2.533,4.912,2.164,5.636,0.389C29.254,14.838,24.695,14.594,24.163,17.301z"/>
<path fill="#613F34" d="M25.561,17.027c0,2.246,3.248,2.246,3.248,0C28.809,14.945,25.561,14.945,25.561,17.027z"/>
<path fill="#7D5037" d="M25.881,17.746c0,1.285,2.607,1.285,2.607,0C28.488,16.553,25.881,16.553,25.881,17.746z"/>
<path fill="#1A1626" d="M26.51,17.063c0,0.932,1.35,0.932,1.35,0C27.859,16.197,26.51,16.197,26.51,17.063z"/>
<path fill="#AB968C" d="M26.048,16.791c0,0.471,0.682,0.471,0.682,0C26.729,16.355,26.048,16.355,26.048,16.791z"/>
<path fill="#45332C" d="M24.163,17.281c0-2.723,5.636-2.723,5.636,0.43C28.994,15.123,24.967,15.123,24.163,17.281z"/>
<path fill="#594640" d="M40.108,4.658c-5.089,5.207-0.233,5.543,2.766,12.865c1.683,4.102,2.745,9.197,3.893,1.855
	C48.197,10.205,42.692,3.891,40.108,4.658z"/>
<path fill="#594640" d="M27.618,2.664C21.167,4.18,15.153,9.875,17.53,21.082c1.406,6.623,3.2-2.607,4.399-4.9
	c6.121-3.639,16.587-6.393,18.179-11.523C40.915,3.475,34.074,0.975,27.618,2.664z"/>
<path fill="#453631" d="M22.678,10.828c2.728-0.553,15.779-0.814,17.431-6.17C37.023,7.113,33.829,7.783,22.678,10.828z"/>
<path fill="#453631" d="M17.971,19.348c4.577-6.104,19.573-5.43,22.138-14.689C35.13,12.43,19.222,13.482,17.971,19.348z"/>
<path fill="#453631" d="M38.599,5.928c-1.182,1.859,2.923-0.873,7.349,11.104C44.856,10.029,41.12,5.209,38.599,5.928z"/>
<path fill="#4ABDFF" d="M39.712,55.188c-4.816-3.131-10.578-3.101-15.402,0.001C22.653,56.251,22.104,62,22.104,62h19.793
	C41.897,62,41.351,56.248,39.712,55.188z"/>
<path fill="#E6B045" d="M34.925,53.426c0-0.538,0-2.925,0-2.925h-5.85c0,0,0,2.351,0,2.925
	C29.075,55.792,34.925,55.792,34.925,53.426z"/>
<path fill="#594640" d="M31.999,31.984c-10.516,0-9.502,8.421-9.502,12.356h19.006C41.503,40.405,42.517,31.984,31.999,31.984z"/>
<path fill="#E6B045" d="M23.437,42.76c-3.34-0.511-1.162,7.4,1.451,5.218C26.095,46.968,24.997,42.998,23.437,42.76z"/>
<path fill="#E6B045" d="M40.563,42.76c-1.563,0.238-2.662,4.208-1.451,5.218C41.726,50.16,43.901,42.249,40.563,42.76z"/>
<path fill="#FFCC66" d="M40.454,42.592c0-5.614-3.32-4.364-8.455-4.364c-5.133,0-8.453-1.25-8.453,4.364c0,0,0.016,2.141,0.564,4.95
	c0.896,4.602,4.617,6.407,7.889,6.407s6.996-1.806,7.889-6.407C40.435,44.73,40.454,42.592,40.454,42.592z"/>
<path fill="#594640" d="M31.825,36.119c-1.535,2.734-7.289,4.446-9.268,4.268C24.351,38.58,25.144,33.922,31.825,36.119z"/>
<path fill="#453631" d="M22.558,40.387c2.52-0.656,5.791-1.996,9.268-4.268C30.29,38.854,25.237,41.013,22.558,40.387z"/>
<path fill="#594640" d="M39.587,35.973c-2.174,3.257-10.313,5.294-13.107,5.082C29.011,38.9,30.136,33.355,39.587,35.973z"/>
<path fill="#453631" d="M26.479,41.055c6.686-1.857,13.107-5.082,13.107-5.082C37.413,39.229,31.356,41.526,26.479,41.055z"/>
<path fill="#594640" d="M39.901,35.224c2.605,4.239-4.176,5.977-6.979,5.806C35.437,39.375,37.122,35.091,39.901,35.224z"/>
<path fill="#453631" d="M32.923,41.029c3.369-1.544,8.506-1.859,6.979-5.806C42.507,39.463,35.896,41.412,32.923,41.029z"/>
<path fill="#FFFFFF" d="M38.235,44.334c-0.777,2.035-3.943,1.737-4.523,0.313C34.151,42.359,37.81,42.163,38.235,44.334z"/>
<path fill="#613F34" d="M34.519,44.117c0,1.786,2.588,1.786,2.588,0C37.106,42.459,34.519,42.459,34.519,44.117z"/>
<path fill="#7D5037" d="M34.774,44.689c0,1.024,2.076,1.024,2.076,0C36.851,43.739,34.774,43.739,34.774,44.689z"/>
<path fill="#1A1626" d="M35.274,44.147c0,0.739,1.074,0.739,1.074,0C36.349,43.459,35.274,43.459,35.274,44.147z"/>
<path fill="#AB968C" d="M34.909,43.931c0,0.373,0.543,0.373,0.543,0C35.452,43.584,34.909,43.584,34.909,43.931z"/>
<path fill="#E6B045" d="M38.235,44.318c0-2.184-4.523-2.184-4.523,0.348C34.358,42.588,37.591,42.588,38.235,44.318z"/>
<path fill="#FFFFFF" d="M25.765,44.334c0.775,2.035,3.943,1.737,4.523,0.313C29.847,42.358,26.194,42.163,25.765,44.334z"/>
<path fill="#613F34" d="M26.896,44.117c0,1.786,2.586,1.786,2.586,0C29.481,42.459,26.896,42.459,26.896,44.117z"/>
<path fill="#7D5037" d="M27.151,44.688c0,1.026,2.074,1.026,2.074,0C29.226,43.739,27.151,43.739,27.151,44.688z"/>
<path fill="#1A1626" d="M27.651,44.146c0,0.741,1.074,0.741,1.074,0C28.726,43.457,27.651,43.457,27.651,44.146z"/>
<path fill="#AB968C" d="M27.284,43.929c0,0.375,0.541,0.375,0.541,0C27.825,43.581,27.284,43.581,27.284,43.929z"/>
<path fill="#E6B045" d="M25.765,44.318c0-2.184,4.523-2.184,4.523,0.346C29.642,42.588,26.409,42.588,25.765,44.318z"/>
<path fill="#C1873C" d="M38.653,42.103c-1.352-0.668-3.938-0.701-4.902-0.234c-0.203,0.091-0.068,0.727,0.105,0.664
	c1.344-0.496,3.508-0.509,4.766,0.043C38.788,42.647,38.86,42.198,38.653,42.103z"/>
<path fill="#C1873C" d="M25.345,42.103c1.354-0.668,3.939-0.701,4.904-0.234c0.203,0.091,0.066,0.727-0.104,0.664
	c-1.346-0.496-3.51-0.509-4.768,0.043C25.212,42.647,25.14,42.198,25.345,42.103z"/>
<path fill="#E6A400" d="M31.999,49.77c-1.328-0.391-3.299,0.185-3.299,0.185c0.754,0.817,1.301,1.874,3.299,1.874
	c2.291,0,2.68-1.201,3.299-1.874C35.298,49.954,33.327,49.376,31.999,49.77z"/>
<path fill="#FFFFFF" d="M29.206,50.093c1.393,1.167,4.207,1.175,5.605,0C33.327,50.155,30.702,50.157,29.206,50.093z"/>
<path fill="#E6B045" d="M33.831,48.021c0,1.19-3.662,1.19-3.662,0C30.169,47.747,33.831,47.747,33.831,48.021z"/>
<path fill="#FFCC66" d="M41.566,58.081c-0.594,0.731-1.939-2.198-1.522-3.047c4.083-8.303,3.291-5.617,2.979-9.357
	c2.57-0.556,4.711-0.901,4.711-0.901C47.733,50.744,48.733,49.26,41.566,58.081z"/>
<path fill="#FFCC66" d="M38.281,54.203c-1.562-0.406-4.45,1.055-2.804,1.45c-0.365,0.459-0.316,1,0.925,0.644
	c-0.475,0.455,0.321,0.82,0.954,0.662c-0.179,1.157,2.078,0.494,2.758,0.863c0.974,0.527,1.185,0.84,1.431,0.689
	C43.341,57.42,40.873,54.871,38.281,54.203z"/>
<path fill="#FFCC66" d="M22.434,58.081c0.594,0.731,1.939-2.198,1.522-3.047c-4.083-8.303-3.291-5.617-2.979-9.357
	c-2.57-0.556-4.711-0.901-4.711-0.901C16.267,50.744,15.267,49.26,22.434,58.081z"/>
<path fill="#FFCC66" d="M25.719,54.203c1.562-0.406,4.45,1.055,2.804,1.45c0.365,0.459,0.316,1-0.925,0.644
	c0.475,0.455-0.321,0.82-0.954,0.662c0.179,1.157-2.078,0.494-2.758,0.863c-0.974,0.527-1.185,0.84-1.431,0.689
	C20.659,57.42,23.127,54.871,25.719,54.203z"/>
</svg>
