<?xml version="1.0" encoding="utf-8"?>
<!-- Generator: Adobe Illustrator 15.0.0, SVG Export Plug-In . SVG Version: 6.00 Build 0)  -->
<!DOCTYPE svg PUBLIC "-//W3C//DTD SVG 1.1//EN" "http://www.w3.org/Graphics/SVG/1.1/DTD/svg11.dtd" [
	<!ENTITY ns_flows "http://ns.adobe.com/Flows/1.0/">
	<!ENTITY ns_extend "http://ns.adobe.com/Extensibility/1.0/">
	<!ENTITY ns_ai "http://ns.adobe.com/AdobeIllustrator/10.0/">
	<!ENTITY ns_graphs "http://ns.adobe.com/Graphs/1.0/">
]>
<svg version="1.1" id="Layer_1" xmlns:x="&ns_extend;" xmlns:i="&ns_ai;" xmlns:graph="&ns_graphs;"
	 xmlns="http://www.w3.org/2000/svg" xmlns:xlink="http://www.w3.org/1999/xlink" xmlns:a="http://ns.adobe.com/AdobeSVGViewerExtensions/3.0/"
	 x="0px" y="0px" width="64px" height="64px" viewBox="0 0 64 64" enable-background="new 0 0 64 64" xml:space="preserve">
<path fill="#302C3B" d="M6.789,52.002c2.699-1.473,13.906-5.369,13.906-5.369h16.697c0,0,11.195,3.887,13.881,5.365
	C55.178,54.145,56,62,56,62H2C2,62,2.871,54.137,6.789,52.002z"/>
<polygon fill="#FFCC66" points="21.465,49.818 28.998,61.02 36.535,49.818 36.535,40.287 21.465,40.287 "/>
<path fill="#1A1626" d="M6.789,52.002c9.531-5.172,15.605-0.586,15.605-0.586L28.998,62C28.998,62,18.887,50.969,6.789,52.002z"/>
<path fill="#4E5E67" d="M5.104,51.258c9.092-9.695,16.35-8.359,16.35-8.359c-2.82,6.084,0.213,9.055,7.545,17.887V62
	C28.998,62,18.799,49.195,5.104,51.258z"/>
<path fill="#018BC9" d="M7.066,50.381c6.904-7.029,14.387-7.262,14.387-7.262c0,7.035,0.977,6.982,7.545,17.666
	C28.998,60.785,19.662,48.982,7.066,50.381z"/>
<path fill="#1A1626" d="M8.457,62c0.574-1.979-0.102-4.99-0.818-6.646C6.971,53.809,7.223,60.912,8.457,62z"/>
<path fill="#1A1626" d="M50.363,55.354c-0.721,1.656-1.395,4.668-0.82,6.646C50.775,60.912,51.031,53.809,50.363,55.354z"/>
<path fill="#1A1626" d="M51.213,52.002c-9.535-5.172-15.609-0.586-15.609-0.586L29,62C29,62,39.113,50.969,51.213,52.002z"/>
<path fill="#4E5E67" d="M52.895,51.258c-9.09-9.695-16.35-8.359-16.35-8.359c2.822,6.084-0.213,9.055-7.545,17.887V62
	C29,62,39.203,49.195,52.895,51.258z"/>
<path fill="#018BC9" d="M50.932,50.381c-6.902-7.029-14.387-7.262-14.387-7.262c0,7.035-0.975,6.982-7.545,17.666
	C29,60.785,38.336,48.982,50.932,50.381z"/>
<path fill="#E6B045" d="M20.758,45.398c7.494,8.637,9,8.631,16.49-0.006L20.758,45.398z"/>
<path fill="#E6B045" d="M11.901,23.479c-5.719-1.031-1.252,14.957,3.225,10.547C17.198,31.981,14.575,23.962,11.901,23.479z"/>
<path fill="#E6B045" d="M46.101,23.479c-2.674,0.483-5.299,8.503-3.223,10.547C47.354,38.436,51.815,22.447,46.101,23.479z"/>
<path fill="#FFCC66" d="M29.001,4.73c-11.824,0-17.521,8.945-16.807,21.384c0.143,2.503,1.693,10.665,3.158,13.593
	c1.498,2.996,6.512,7.615,9.584,8.57c1.939,0.604,6.188,0.604,8.127,0c3.072-0.955,8.086-5.574,9.586-8.57
	c1.465-2.928,3.016-11.09,3.158-13.593C46.522,13.676,40.825,4.73,29.001,4.73z"/>
<path fill="#E6A400" d="M29.001,38.592c-2.66-0.781-6.6,0.371-6.6,0.371c1.5,1.635,2.6,3.756,6.6,3.756
	c4.582,0,5.359-2.408,6.6-3.756C35.601,38.963,31.657,37.807,29.001,38.592z"/>
<path fill="#FFFFFF" d="M23.407,39.238c2.787,2.34,8.418,2.355,11.221,0C31.657,39.367,26.399,39.367,23.407,39.238z"/>
<path fill="#E6B045" d="M32.667,34.195c0,2.385-7.332,2.385-7.332,0C25.335,33.646,32.667,33.646,32.667,34.195z"/>
<path fill="#006DAE" d="M29.001,4.729c-21.469,0-18.579,17.061-16.357,24.751c0.371-2.75-0.475-3.887,0.797-7.201
	c3.805-9.904,1.355-5.745,15.563-5.745c14.205,0,11.641-3.793,15.561,5.745c1.17,2.844,0.426,4.451,0.799,7.201
	C46.705,24.482,51.588,4.729,29.001,4.729z"/>
<path fill="#FFFFFF" d="M41.659,27.076c-1.58,4.136-8.008,3.529-9.186,0.635C33.368,23.062,40.792,22.664,41.659,27.076z"/>
<path fill="#FFFFFF" d="M16.341,27.076c1.58,4.136,8.01,3.529,9.186,0.635C24.632,23.06,17.21,22.662,16.341,27.076z"/>
<path fill="#C1873C" d="M42.315,22.098c-2.705-1.342-7.879-1.407-9.807-0.472c-0.412,0.182-0.141,1.454,0.207,1.332
	c2.688-0.995,7.02-1.019,9.535,0.086C42.585,23.186,42.726,22.286,42.315,22.098z"/>
<path fill="#C1873C" d="M15.687,22.098c2.703-1.342,7.877-1.407,9.807-0.472c0.412,0.182,0.141,1.454-0.207,1.332
	c-2.691-0.995-7.02-1.019-9.537,0.086C15.415,23.186,15.276,22.286,15.687,22.098z"/>
<path fill="#613F34" d="M34.114,26.636c0,3.629,5.25,3.629,5.25,0C39.364,23.267,34.114,23.267,34.114,26.636z"/>
<path fill="#7D5037" d="M34.634,27.797c0,2.081,4.211,2.081,4.211,0C38.845,25.865,34.634,25.865,34.634,27.797z"/>
<path fill="#1A1626" d="M35.649,26.692c0,1.507,2.18,1.507,2.18,0C37.829,25.295,35.649,25.295,35.649,26.692z"/>
<path fill="#AB968C" d="M34.905,26.253c0,0.761,1.102,0.761,1.102,0C36.007,25.547,34.905,25.547,34.905,26.253z"/>
<path fill="#613F34" d="M18.638,26.635c0,3.63,5.25,3.63,5.25,0C23.888,23.266,18.638,23.266,18.638,26.635z"/>
<path fill="#7D5037" d="M19.157,27.796c0,2.081,4.211,2.081,4.211,0C23.368,25.864,19.157,25.864,19.157,27.796z"/>
<path fill="#1A1626" d="M20.173,26.692c0,1.506,2.18,1.506,2.18,0C22.353,25.294,20.173,25.294,20.173,26.692z"/>
<path fill="#AB968C" d="M19.429,26.252c0,0.761,1.1,0.761,1.1,0C20.528,25.546,19.429,25.546,19.429,26.252z"/>
<path fill="#E6B045" d="M41.659,27.045c0-4.44-9.186-4.44-9.186,0.703C33.786,23.528,40.347,23.528,41.659,27.045z"/>
<path fill="#E6B045" d="M16.341,27.045c0-4.44,9.186-4.44,9.186,0.702C24.216,23.525,17.653,23.525,16.341,27.045z"/>
<path fill="#006DAE" d="M10.578,40.516c-0.094-2.93-1.378-19.282,24.056-24.203C15.872-0.617,4.633,25.151,10.578,40.516z"/>
<path fill="#018BC9" d="M8.021,34.75C9.072,9.876,39.73,15.798,40.549,7.411C35.456,0.695,3.453,2.284,8.021,34.75z"/>
<path fill="#0FB4D4" d="M7.053,24.641C12.536,4.403,38.845,9.778,40.549,7.411C35.872-0.055,10.547-4.006,7.053,24.641z"/>
<rect x="56.016" y="54" fill-rule="evenodd" clip-rule="evenodd" fill="#4E5E67" width="1.328" height="8"/>
<rect x="56.68" y="54" fill-rule="evenodd" clip-rule="evenodd" fill="#302C3B" width="1.33" height="8"/>
<path fill="#302C3B" d="M39.883,45.08c2.018,1.711,5.039,1.615,6.941-0.293c1.9-1.906,1.998-4.934,0.293-6.957L39.883,45.08z"/>
<path fill="#302C3B" d="M39.561,37.506c-1.9,1.908-1.998,4.938-0.295,6.957l7.236-7.25C44.484,35.502,41.463,35.602,39.561,37.506z"
	/>
<path fill="#4E5E67" d="M46.619,37.094l-7.471,7.492c0.094,0.107,0.506,0.521,0.615,0.615l7.473-7.488
	C47.143,37.6,46.73,37.188,46.619,37.094z"/>
<path fill="#6E8189" d="M40.48,43.25l-1,1.002c0.1,0.102,0.514,0.516,0.613,0.617l1.004-1.004
	C40.996,43.764,40.584,43.348,40.48,43.25z"/>
<path fill-rule="evenodd" clip-rule="evenodd" fill="#4E5E67" d="M39.035,43.361c0.422,0.555,0.307-3.094,0.408-4.842
	C39.51,37.396,37.33,41.109,39.035,43.361z"/>
<polyline fill="#302C3B" points="58.318,58.305 58.803,57.816 61.578,60 62,59.576 59.822,56.797 60.307,56.311 48.979,42.268 
	48.32,40.881 42.928,46.287 44.311,46.947 "/>
<polygon fill="#4E5E67" points="45.59,45.666 44.404,44.807 43.221,45.992 44.607,46.652 58.572,58.047 59.061,57.557 "/>
<polygon fill="#4E5E67" points="48.996,51.033 51.084,52.908 54.924,49.057 53.055,46.967 "/>
<polygon fill="#6E8189" points="49.254,50.777 51.346,52.643 52.205,51.783 50.111,49.92 "/>
<rect x="58.069" y="57.23" transform="matrix(0.7057 -0.7085 0.7085 0.7057 -23.2158 59.0525)" fill="#4E5E67" width="2.817" height="0.485"/>
<polygon fill="#6E8189" points="59.061,57.557 58.572,58.047 58.902,58.396 59.398,57.896 "/>
</svg>
