<?xml version="1.0" encoding="utf-8"?>
<!-- Generator: Adobe Illustrator 19.0.0, SVG Export Plug-In . SVG Version: 6.00 Build 0)  -->
<svg version="1.1" id="Layer_1" xmlns="http://www.w3.org/2000/svg" xmlns:xlink="http://www.w3.org/1999/xlink" x="0px" y="0px"
	 width="64px" height="64px" viewBox="0 0 64 64" enable-background="new 0 0 64 64" xml:space="preserve">
<path fill="#755035" d="M8.682,27.565c-7.797-1.406-1.707,20.397,4.396,14.383C15.907,39.161,12.329,28.224,8.682,27.565z"/>
<path fill="#755035" d="M55.319,27.565c-3.649,0.659-7.227,11.596-4.396,14.383C57.028,47.962,63.112,26.159,55.319,27.565z"/>
<path fill="#916B50" d="M32,2.001c-16.123,0-23.892,12.198-22.918,29.159c0.195,3.413,2.309,14.544,4.307,18.536
	c2.044,4.084,8.879,10.383,13.068,11.687c2.646,0.823,8.439,0.823,11.084,0c4.189-1.304,11.026-7.603,13.07-11.687
	c1.999-3.992,4.112-15.123,4.307-18.536C55.892,14.199,48.125,2.001,32,2.001z"/>
<path fill="#664129" d="M32,48.175c-3.628-1.067-9,0.505-9,0.505c2.047,2.229,3.547,5.121,9,5.121c6.248,0,7.31-3.283,8.999-5.121
	C40.999,48.68,35.622,47.102,32,48.175z"/>
<path fill="#FFFFFF" d="M24.373,49.057c3.8,3.19,11.48,3.21,15.301,0C35.622,49.231,28.453,49.233,24.373,49.057z"/>
<path fill="#755035" d="M37,42.178c0,3.254-9.999,3.254-9.999,0C27.001,41.431,37,41.431,37,42.178z"/>
<path fill="#FFFFFF" d="M49.26,32.471c-2.153,5.64-10.918,4.813-12.524,0.866C37.955,26.998,48.078,26.455,49.26,32.471z"/>
<path fill="#FFFFFF" d="M14.736,32.471c2.154,5.64,10.922,4.813,12.525,0.866C26.043,26.995,15.923,26.453,14.736,32.471z"/>
<path fill="#664129" d="M50.156,25.683c-3.688-1.83-10.744-1.919-13.373-0.644c-0.563,0.247-0.191,1.982,0.283,1.816
	c3.664-1.357,9.572-1.39,13.002,0.117C50.524,27.167,50.715,25.939,50.156,25.683z"/>
<path fill="#664129" d="M13.843,25.683c3.688-1.83,10.742-1.919,13.373-0.644c0.563,0.247,0.191,1.982-0.281,1.816
	c-3.67-1.357-9.573-1.39-13.005,0.117C13.474,27.167,13.286,25.939,13.843,25.683z"/>
<path fill="#613F34" d="M38.972,31.871c0,4.949,7.159,4.949,7.159,0C46.132,27.277,38.972,27.277,38.972,31.871z"/>
<path fill="#7D5037" d="M39.68,33.455c0,2.838,5.743,2.838,5.743,0C45.424,30.82,39.68,30.82,39.68,33.455z"/>
<path fill="#1A1626" d="M41.066,31.949c0,2.055,2.972,2.055,2.972,0C44.038,30.043,41.066,30.043,41.066,31.949z"/>
<path fill="#AB968C" d="M40.052,31.349c0,1.037,1.5,1.037,1.5,0C41.552,30.387,40.052,30.387,40.052,31.349z"/>
<path fill="#613F34" d="M17.868,31.87c0,4.949,7.159,4.949,7.159,0C25.027,27.276,17.868,27.276,17.868,31.87z"/>
<path fill="#7D5037" d="M18.576,33.453c0,2.838,5.743,2.838,5.743,0C24.319,30.819,18.576,30.819,18.576,33.453z"/>
<path fill="#1A1626" d="M19.962,31.948c0,2.054,2.972,2.054,2.972,0C22.933,30.041,19.962,30.041,19.962,31.948z"/>
<path fill="#AB968C" d="M18.947,31.347c0,1.038,1.5,1.038,1.5,0C20.447,30.385,18.947,30.385,18.947,31.347z"/>
<path fill="#755035" d="M49.26,32.43c0-6.056-12.524-6.056-12.524,0.959C38.525,27.634,47.472,27.634,49.26,32.43z"/>
<path fill="#755035" d="M14.736,32.43c0-6.056,12.525-6.056,12.525,0.957C25.474,27.63,16.525,27.63,14.736,32.43z"/>
</svg>
