<?xml version="1.0" encoding="utf-8"?>
<!-- Generator: Adobe Illustrator 15.0.0, SVG Export Plug-In . SVG Version: 6.00 Build 0)  -->
<!DOCTYPE svg PUBLIC "-//W3C//DTD SVG 1.1//EN" "http://www.w3.org/Graphics/SVG/1.1/DTD/svg11.dtd" [
	<!ENTITY ns_flows "http://ns.adobe.com/Flows/1.0/">
	<!ENTITY ns_extend "http://ns.adobe.com/Extensibility/1.0/">
	<!ENTITY ns_ai "http://ns.adobe.com/AdobeIllustrator/10.0/">
	<!ENTITY ns_graphs "http://ns.adobe.com/Graphs/1.0/">
]>
<svg version="1.1" id="Layer_1" xmlns:x="&ns_extend;" xmlns:i="&ns_ai;" xmlns:graph="&ns_graphs;"
	 xmlns="http://www.w3.org/2000/svg" xmlns:xlink="http://www.w3.org/1999/xlink" xmlns:a="http://ns.adobe.com/AdobeSVGViewerExtensions/3.0/"
	 x="0px" y="0px" width="64px" height="64px" viewBox="0 0 64 64" enable-background="new 0 0 64 64" xml:space="preserve">
<path fill="#7AB51D" d="M43.479,32.797c-7.695-5.117-15.26-5.117-22.957,0c-2.441,1.623-2.947,7.74-3.254,13.037h4.338v16.225
	h20.789V45.834h4.34C46.426,40.537,45.922,34.42,43.479,32.797z"/>
<polygon fill="#529320" points="22.391,46.133 20.982,46.133 22.391,38.535 "/>
<path fill="#FFCC66" d="M22.391,62.059h-4.025l-1.098-16.225c0,0,2.561-0.658,5.123,0V62.059z"/>
<polygon fill="#529320" points="41.611,46.133 43.018,46.133 41.611,38.535 "/>
<path fill="#FFCC66" d="M41.611,62.059h4.023l1.1-16.225c0,0-2.563-0.658-5.123,0V62.059z"/>
<path fill="#E6B045" d="M36.209,29.732c0-0.723,0-3.932,0-3.932h-8.418c0,0,0,3.16,0,3.932
	C27.791,33.963,36.209,33.963,36.209,29.732z"/>
<path fill="#E6B045" d="M21.291,14.73c-3.586-0.645-0.785,9.361,2.018,6.602C24.609,20.051,22.965,15.033,21.291,14.73z"/>
<path fill="#E6B045" d="M42.717,14.73c-1.676,0.303-3.32,5.32-2.02,6.602C43.502,24.092,46.297,14.086,42.717,14.73z"/>
<path fill="#FFCC66" d="M32.002,3c-7.408,0-10.977,5.598-10.529,13.381c0.09,1.566,1.061,6.674,1.979,8.506
	c0.939,1.873,4.08,4.764,6.004,5.361c1.215,0.379,3.877,0.379,5.094,0c1.924-0.598,5.066-3.488,6.004-5.361
	c0.92-1.832,1.889-6.939,1.979-8.506C42.98,8.598,39.41,3,32.002,3z"/>
<path fill="#E6A400" d="M32.002,24.189c-1.666-0.49-4.135,0.232-4.135,0.232c0.939,1.023,1.629,2.348,4.135,2.348
	c2.871,0,3.359-1.504,4.137-2.348C36.139,24.422,33.668,23.697,32.002,24.189z"/>
<path fill="#FFFFFF" d="M28.498,24.594c1.746,1.463,5.275,1.473,7.031,0C33.668,24.674,30.373,24.674,28.498,24.594z"/>
<path fill="#E6B045" d="M34.301,21.438c0,1.492-4.596,1.492-4.596,0C29.705,21.096,34.301,21.096,34.301,21.438z"/>
<path fill="#594640" d="M32.002,3c-5.096,0-8.176,1.68-9.504,1.035c0,0-0.143,0.867,0.377,1.434c0,0-0.549,0.475-1.436-0.326
	c-0.844,2.738,1.662,4.326,10.563,4.326c8.902,0,6.773-2.166,11.152,1.637C42.725,6.418,39.742,3,32.002,3z"/>
<path fill="#453631" d="M35.771,7.084c-4.9,1.809-6.691-1.453-11.316-1.768c2.201,1.037,3.273,2.635,5.078,3.785
	c-3.93-1.313-6.813-3.574-7.033-5.059c0,0-0.654,2.168,1.938,3.789c-2.479,0.229-2.996-2.682-2.996-2.682
	c-1.256,2.016-1.084,8.514,0.313,13.338c0.23-1.723-0.297-2.434,0.5-4.506c2.383-6.199,0.85-3.598,9.748-3.598
	c8.902,0,7.295-2.371,9.752,3.598c0.73,1.777,0.266,2.783,0.498,4.506C45.18,7.611,40.971,5.168,35.771,7.084z"/>
<path fill="#FFFFFF" d="M39.934,16.984c-0.99,2.588-5.018,2.207-5.754,0.395C34.738,14.471,39.389,14.223,39.934,16.984z"/>
<path fill="#FFFFFF" d="M24.07,16.984c0.99,2.588,5.018,2.207,5.754,0.395C29.266,14.469,24.615,14.221,24.07,16.984z"/>
<path fill="#C1873C" d="M40.344,13.867c-1.693-0.84-4.936-0.881-6.145-0.295c-0.258,0.113-0.088,0.908,0.131,0.834
	c1.684-0.625,4.398-0.639,5.975,0.053C40.516,14.547,40.602,13.984,40.344,13.867z"/>
<path fill="#C1873C" d="M23.66,13.867c1.693-0.84,4.936-0.881,6.145-0.295c0.26,0.113,0.088,0.908-0.129,0.834
	c-1.688-0.625-4.398-0.639-5.977,0.053C23.49,14.547,23.404,13.984,23.66,13.867z"/>
<path fill="#613F34" d="M35.207,16.707c0,2.271,3.289,2.271,3.289,0C38.496,14.6,35.207,14.6,35.207,16.707z"/>
<path fill="#7D5037" d="M35.531,17.434c0,1.305,2.639,1.305,2.639,0C38.17,16.225,35.531,16.225,35.531,17.434z"/>
<path fill="#1A1626" d="M36.168,16.744c0,0.941,1.365,0.941,1.365,0C37.533,15.867,36.168,15.867,36.168,16.744z"/>
<path fill="#AB968C" d="M35.701,16.469c0,0.475,0.689,0.475,0.689,0C36.391,16.025,35.701,16.025,35.701,16.469z"/>
<path fill="#613F34" d="M25.51,16.707c0,2.271,3.289,2.271,3.289,0C28.799,14.6,25.51,14.6,25.51,16.707z"/>
<path fill="#7D5037" d="M25.834,17.434c0,1.301,2.641,1.301,2.641,0C28.475,16.225,25.834,16.225,25.834,17.434z"/>
<path fill="#1A1626" d="M26.473,16.744c0,0.941,1.363,0.941,1.363,0C27.836,15.867,26.473,15.867,26.473,16.744z"/>
<path fill="#AB968C" d="M26.006,16.467c0,0.477,0.688,0.477,0.688,0C26.693,16.025,26.006,16.025,26.006,16.467z"/>
<path fill="#E6B045" d="M39.934,16.963c0-2.779-5.754-2.779-5.754,0.441C35,14.764,39.111,14.764,39.934,16.963z"/>
<path fill="#E6B045" d="M24.07,16.963c0-2.779,5.754-2.779,5.754,0.439C29.004,14.762,24.893,14.762,24.07,16.963z"/>
<path fill="#E32B56" d="M29.137,54.729c-0.982-0.688-5.299-2.494-5.299-2.494h-4.797c0,0-4.318,1.811-5.307,2.494
	c-1.656,1.145-2.207,7.33-2.207,7.33H31.32C31.32,62.059,30.773,55.869,29.137,54.729z"/>
<path fill="#E6B045" d="M24.348,52.898c0-0.539,0-2.926,0-2.926h-5.85c0,0,0,2.352,0,2.926
	C18.498,55.264,24.348,55.264,24.348,52.898z"/>
<path fill="#594640" d="M13.918,43.996c-7.076,4.172-0.855,7.969-2.869,9.768C14.963,56.189,24.543,52.01,13.918,43.996z"/>
<path fill="#453631" d="M11.805,45.58c1.736,6.66,5.311,6.891,5.012,8.096C20.139,51.936,20.17,46.322,11.805,45.58z"/>
<path fill="#594640" d="M28.93,43.996c7.076,4.172,0.855,7.969,2.871,9.768C27.889,56.189,18.307,52.01,28.93,43.996z"/>
<path fill="#453631" d="M31.043,45.58c-1.734,6.66-5.311,6.891-5.01,8.096C22.711,51.936,22.678,46.322,31.043,45.58z"/>
<path fill="#594640" d="M11.746,43.828h19.348C33.91,28.705,8.93,28.705,11.746,43.828z"/>
<path fill="#453631" d="M11.721,43.641c0,0,11.016,4.105,18.652-0.65c-1.543,0.291-4.051-5.605-15.775-6.047
	C14.168,43.641,12.107,41.822,11.721,43.641z"/>
<path fill="#CFD8DD" d="M30.186,42.748c0.822-11.314-18.359-11.314-17.535,0C13.365,33.246,29.469,33.246,30.186,42.748z"/>
<path fill="#FFFFFF" d="M30.186,42.383c0.822-11.314-18.359-11.314-17.535,0C13.365,32.881,29.469,32.881,30.186,42.383z"/>
<path fill="#E6B045" d="M12.854,42.826c-3.336-0.506-1.162,7.363,1.451,5.193C15.518,47.012,14.418,43.064,12.854,42.826z"/>
<path fill="#E6B045" d="M29.982,42.826c-1.561,0.238-2.66,4.186-1.451,5.193C31.146,50.188,33.318,42.32,29.982,42.826z"/>
<path fill="#FFCC66" d="M29.873,42.844c-3.195-0.91-7.289-5.256-15.07-4.729c0.137,1.707-0.313,3.645-1.814,4.734
	c0,0-0.006,1.535,0.543,4.346c0.895,4.602,4.617,6.406,7.887,6.406c3.273,0,6.994-1.805,7.891-6.406
	C29.855,44.383,29.873,42.844,29.873,42.844z"/>
<path fill="#FFFFFF" d="M27.668,44.354c-0.777,2.035-3.943,1.738-4.525,0.313C23.584,42.377,27.24,42.182,27.668,44.354z"/>
<path fill="#613F34" d="M23.951,44.137c0,1.787,2.586,1.787,2.586,0C26.537,42.479,23.951,42.479,23.951,44.137z"/>
<path fill="#7D5037" d="M24.207,44.707c0,1.025,2.074,1.025,2.074,0C26.281,43.758,24.207,43.758,24.207,44.707z"/>
<path fill="#1A1626" d="M24.705,44.164c0,0.742,1.076,0.742,1.076,0C25.781,43.477,24.705,43.477,24.705,44.164z"/>
<path fill="#AB968C" d="M24.342,43.947c0,0.377,0.541,0.377,0.541,0C24.883,43.6,24.342,43.6,24.342,43.947z"/>
<path fill="#E6B045" d="M27.668,44.338c0-2.186-4.525-2.186-4.525,0.346C23.789,42.607,27.021,42.607,27.668,44.338z"/>
<path fill="#FFFFFF" d="M15.195,44.354c0.775,2.035,3.943,1.738,4.525,0.313C19.281,42.375,15.625,42.18,15.195,44.354z"/>
<path fill="#613F34" d="M16.328,44.137c0,1.785,2.586,1.785,2.586,0C18.914,42.479,16.328,42.479,16.328,44.137z"/>
<path fill="#7D5037" d="M16.584,44.707c0,1.023,2.072,1.023,2.072,0C18.656,43.758,16.584,43.758,16.584,44.707z"/>
<path fill="#1A1626" d="M17.082,44.164c0,0.74,1.074,0.74,1.074,0C18.156,43.477,17.082,43.477,17.082,44.164z"/>
<path fill="#AB968C" d="M16.717,43.947c0,0.375,0.543,0.375,0.543,0C17.26,43.6,16.717,43.6,16.717,43.947z"/>
<path fill="#E6B045" d="M15.195,44.338c0-2.186,4.525-2.186,4.525,0.346C19.076,42.605,15.84,42.605,15.195,44.338z"/>
<path fill="#C1873C" d="M28.086,42.123c-1.35-0.672-3.938-0.703-4.9-0.236c-0.207,0.09-0.07,0.725,0.105,0.666
	c1.34-0.498,3.504-0.51,4.764,0.043C28.221,42.666,28.291,42.215,28.086,42.123z"/>
<path fill="#C1873C" d="M14.775,42.123c1.354-0.672,3.939-0.703,4.904-0.236c0.207,0.09,0.068,0.725-0.104,0.666
	c-1.344-0.498-3.51-0.51-4.768,0.043C14.641,42.666,14.572,42.215,14.775,42.123z"/>
<path fill="#E6A400" d="M21.432,49.789c-1.328-0.391-3.299,0.184-3.299,0.184c0.75,0.814,1.303,1.875,3.299,1.875
	c2.289,0,2.682-1.201,3.299-1.875C24.73,49.973,22.758,49.396,21.432,49.789z"/>
<path fill="#FFFFFF" d="M18.635,50.111c1.395,1.168,4.211,1.174,5.611,0C22.758,50.174,20.133,50.174,18.635,50.111z"/>
<path fill="#E6B045" d="M23.266,48.039c0,1.189-3.666,1.189-3.666,0C19.6,47.766,23.266,47.766,23.266,48.039z"/>
<path fill="#E32B56" d="M50.289,54.729c-0.982-0.688-5.299-2.494-5.299-2.494h-4.797c0,0-4.318,1.811-5.307,2.494
	c-1.656,1.145-2.207,7.33-2.207,7.33h19.793C52.473,62.059,51.926,55.869,50.289,54.729z"/>
<path fill="#E6B045" d="M45.5,52.898c0-0.539,0-2.926,0-2.926h-5.85c0,0,0,2.352,0,2.926C39.65,55.264,45.5,55.264,45.5,52.898z"/>
<path fill="#594640" d="M35.07,43.996c-7.076,4.172-0.855,7.969-2.869,9.768C36.115,56.189,45.695,52.01,35.07,43.996z"/>
<path fill="#453631" d="M32.957,45.58c1.736,6.66,5.311,6.891,5.012,8.096C41.291,51.936,41.322,46.322,32.957,45.58z"/>
<path fill="#594640" d="M50.082,43.996c7.076,4.172,0.855,7.969,2.871,9.768C49.041,56.189,39.459,52.01,50.082,43.996z"/>
<path fill="#453631" d="M52.195,45.58c-1.734,6.66-5.311,6.891-5.01,8.096C43.863,51.936,43.83,46.322,52.195,45.58z"/>
<path fill="#594640" d="M32.898,43.828h19.348C55.063,28.705,30.082,28.705,32.898,43.828z"/>
<path fill="#453631" d="M32.873,43.641c0,0,11.016,4.105,18.652-0.65c-1.543,0.291-4.051-5.605-15.775-6.047
	C35.32,43.641,33.26,41.822,32.873,43.641z"/>
<path fill="#CFD8DD" d="M51.338,42.748c0.822-11.314-18.359-11.314-17.535,0C34.518,33.246,50.621,33.246,51.338,42.748z"/>
<path fill="#FFFFFF" d="M51.338,42.383c0.822-11.314-18.359-11.314-17.535,0C34.518,32.881,50.621,32.881,51.338,42.383z"/>
<path fill="#E6B045" d="M34.006,42.826c-3.336-0.506-1.162,7.363,1.451,5.193C36.67,47.012,35.57,43.064,34.006,42.826z"/>
<path fill="#E6B045" d="M51.135,42.826c-1.561,0.238-2.66,4.186-1.451,5.193C52.299,50.188,54.471,42.32,51.135,42.826z"/>
<path fill="#FFCC66" d="M51.025,42.844c-3.195-0.91-7.289-5.256-15.07-4.729c0.137,1.707-0.313,3.645-1.814,4.734
	c0,0-0.006,1.535,0.543,4.346c0.895,4.602,4.617,6.406,7.887,6.406c3.273,0,6.994-1.805,7.891-6.406
	C51.008,44.383,51.025,42.844,51.025,42.844z"/>
<path fill="#FFFFFF" d="M48.82,44.354c-0.777,2.035-3.943,1.738-4.525,0.313C44.736,42.377,48.393,42.182,48.82,44.354z"/>
<path fill="#613F34" d="M45.104,44.137c0,1.787,2.586,1.787,2.586,0C47.689,42.479,45.104,42.479,45.104,44.137z"/>
<path fill="#7D5037" d="M45.359,44.707c0,1.025,2.074,1.025,2.074,0C47.434,43.758,45.359,43.758,45.359,44.707z"/>
<path fill="#1A1626" d="M45.857,44.164c0,0.742,1.076,0.742,1.076,0C46.934,43.477,45.857,43.477,45.857,44.164z"/>
<path fill="#AB968C" d="M45.494,43.947c0,0.377,0.541,0.377,0.541,0C46.035,43.6,45.494,43.6,45.494,43.947z"/>
<path fill="#E6B045" d="M48.82,44.338c0-2.186-4.525-2.186-4.525,0.346C44.941,42.607,48.174,42.607,48.82,44.338z"/>
<path fill="#FFFFFF" d="M36.348,44.354c0.775,2.035,3.943,1.738,4.525,0.313C40.434,42.375,36.777,42.18,36.348,44.354z"/>
<path fill="#613F34" d="M37.48,44.137c0,1.785,2.586,1.785,2.586,0C40.066,42.479,37.48,42.479,37.48,44.137z"/>
<path fill="#7D5037" d="M37.736,44.707c0,1.023,2.072,1.023,2.072,0C39.809,43.758,37.736,43.758,37.736,44.707z"/>
<path fill="#1A1626" d="M38.234,44.164c0,0.74,1.074,0.74,1.074,0C39.309,43.477,38.234,43.477,38.234,44.164z"/>
<path fill="#AB968C" d="M37.869,43.947c0,0.375,0.543,0.375,0.543,0C38.412,43.6,37.869,43.6,37.869,43.947z"/>
<path fill="#E6B045" d="M36.348,44.338c0-2.186,4.525-2.186,4.525,0.346C40.229,42.605,36.992,42.605,36.348,44.338z"/>
<path fill="#C1873C" d="M49.238,42.123c-1.35-0.672-3.938-0.703-4.9-0.236c-0.207,0.09-0.07,0.725,0.105,0.666
	c1.34-0.498,3.504-0.51,4.764,0.043C49.373,42.666,49.443,42.215,49.238,42.123z"/>
<path fill="#C1873C" d="M35.928,42.123c1.354-0.672,3.939-0.703,4.904-0.236c0.207,0.09,0.068,0.725-0.104,0.666
	c-1.344-0.498-3.51-0.51-4.768,0.043C35.793,42.666,35.725,42.215,35.928,42.123z"/>
<path fill="#E6A400" d="M42.584,49.789c-1.328-0.391-3.299,0.184-3.299,0.184c0.75,0.814,1.303,1.875,3.299,1.875
	c2.289,0,2.682-1.201,3.299-1.875C45.883,49.973,43.91,49.396,42.584,49.789z"/>
<path fill="#FFFFFF" d="M39.787,50.111c1.395,1.168,4.211,1.174,5.611,0C43.91,50.174,41.285,50.174,39.787,50.111z"/>
<path fill="#E6B045" d="M44.418,48.039c0,1.189-3.666,1.189-3.666,0C40.752,47.766,44.418,47.766,44.418,48.039z"/>
<path fill="#FFCC66" d="M47.083,52.563c-1.615,0.012-4.027,2.17-2.334,2.126c-0.234,0.538-0.047,1.048,1.061,0.382
	c-0.342,0.563,0.521,0.71,1.092,0.394c0.127,1.163,2.137-0.062,2.889,0.119c1.076,0.258,1.361,0.505,1.561,0.296
	C52.802,54.359,49.759,52.536,47.083,52.563z"/>
<path fill="#FFCC66" d="M16.917,52.563c-2.676-0.026-5.719,1.797-4.268,3.316c0.199,0.209,0.484-0.038,1.561-0.296
	c0.752-0.181,2.762,1.044,2.889-0.119c0.57,0.316,1.434,0.169,1.092-0.394c1.107,0.666,1.295,0.156,1.061-0.382
	C20.944,54.732,18.532,52.574,16.917,52.563z"/>
</svg>
