<?xml version="1.0" encoding="utf-8"?>
<!-- Generator: Adobe Illustrator 15.0.0, SVG Export Plug-In . SVG Version: 6.00 Build 0)  -->
<!DOCTYPE svg PUBLIC "-//W3C//DTD SVG 1.1//EN" "http://www.w3.org/Graphics/SVG/1.1/DTD/svg11.dtd" [
	<!ENTITY ns_flows "http://ns.adobe.com/Flows/1.0/">
	<!ENTITY ns_extend "http://ns.adobe.com/Extensibility/1.0/">
	<!ENTITY ns_ai "http://ns.adobe.com/AdobeIllustrator/10.0/">
	<!ENTITY ns_graphs "http://ns.adobe.com/Graphs/1.0/">
]>
<svg version="1.1" id="Layer_1" xmlns:x="&ns_extend;" xmlns:i="&ns_ai;" xmlns:graph="&ns_graphs;"
	 xmlns="http://www.w3.org/2000/svg" xmlns:xlink="http://www.w3.org/1999/xlink" xmlns:a="http://ns.adobe.com/AdobeSVGViewerExtensions/3.0/"
	 x="0px" y="0px" width="64px" height="64px" viewBox="0 0 64 64" enable-background="new 0 0 64 64" xml:space="preserve">
<path fill="#E6EBEF" d="M6.789,51.266c2.699-1.586,13.908-5.768,13.908-5.768h16.693c0,0,11.199,4.174,13.885,5.764
	C55.18,53.564,56,62,56,62H2C2,62,2.871,53.557,6.789,51.266"/>
<rect x="21.463" y="41.6" fill="#DBA97F" width="15.072" height="10.234"/>
<path fill="#018BC9" d="M35.75,47.441c-2.07,1.109-4.361,1.746-6.75,1.746c-2.385,0-4.678-0.637-6.75-1.748L29,62L35.75,47.441z"/>
<path fill="#BEC3CF" d="M19.408,45.984c-2.043,5.93-1.09,9.713-1.09,9.713c1.721-1.486,5.104-3.129,5.104-3.131
	c-1.225,1.66-2.195,4.385-2.195,4.385C24.898,57.514,29,62,29,62S23.293,46.227,19.408,45.984z"/>
<path fill="#E6EBEF" d="M21.963,42.924c0,0-1.008-0.4-1.438,0.35c-2.529,4.451-1.688,10.744-1.688,10.744
	c1.721-1.486,5.16-1.928,5.162-1.93c-1.227,1.66-1.75,3.529-1.75,3.529C24.844,56.791,29,62,29,62S25.531,52.369,21.963,42.924z"/>
<path fill="#BEC3CF" d="M38.59,45.984c2.045,5.93,1.094,9.713,1.094,9.713c-1.723-1.486-5.105-3.129-5.107-3.131
	c1.227,1.66,2.199,4.385,2.199,4.385C33.102,57.514,29,62,29,62S34.705,46.227,38.59,45.984z"/>
<path fill="#E6EBEF" d="M36.039,42.924c0,0,1.008-0.4,1.438,0.35c2.529,4.451,1.688,10.744,1.688,10.744
	C37.441,52.531,34,52.09,34,52.088c1.225,1.66,1.75,3.529,1.75,3.529C33.154,56.791,29,62,29,62S32.469,52.369,36.039,42.924z"/>
<path fill="#CFD7DC" d="M8.619,62c0.576-2.127-0.102-5.359-0.82-7.141C7.133,53.201,7.383,60.83,8.619,62"/>
<path fill="#DBA97F" d="M11.902,20.75c-5.719-1.031-1.252,14.957,3.225,10.547C17.199,29.252,14.576,21.232,11.902,20.75z"/>
<path fill="#DBA97F" d="M46.102,20.75c-2.674,0.482-5.299,8.502-3.223,10.547C47.355,35.707,51.816,19.719,46.102,20.75z"/>
<path fill="#FCD5B2" d="M29.002,2.002c-11.824,0-17.521,8.945-16.807,21.383c0.143,2.504,1.693,10.666,3.158,13.594
	c1.498,2.994,6.512,7.613,9.584,8.57c1.939,0.604,6.188,0.604,8.127,0c3.072-0.957,8.086-5.576,9.586-8.57
	c1.465-2.928,3.016-11.09,3.158-13.594C46.523,10.947,40.826,2.002,29.002,2.002z"/>
<path fill="#CC9D76" d="M29.002,35.863c-2.66-0.783-6.6,0.369-6.6,0.369c1.5,1.635,2.6,3.756,6.6,3.756
	c4.582,0,5.359-2.406,6.6-3.756C35.602,36.232,31.658,35.076,29.002,35.863z"/>
<path fill="#FFFFFF" d="M23.408,36.51c2.787,2.34,8.418,2.354,11.221,0C31.658,36.637,26.4,36.639,23.408,36.51z"/>
<path fill="#DBA97F" d="M32.668,31.465c0,2.387-7.332,2.387-7.332,0C25.336,30.918,32.668,30.918,32.668,31.465z"/>
<path fill="#3A2C29" d="M29.002,2c-8.135,0-13.049,2.688-15.168,1.656c0,0-0.23,1.387,0.6,2.291c0,0-0.877,0.758-2.291-0.521
	c-1.348,4.377,2.652,6.912,16.859,6.912s10.813-3.459,17.797,2.617C46.113,7.465,41.355,2,29.002,2z"/>
<path fill="#1E1513" d="M35.018,8.529c-7.822,2.889-10.682-2.32-18.061-2.824c3.51,1.658,5.223,4.209,8.105,6.049
	c-6.273-2.1-10.877-5.711-11.227-8.084c0,0-1.047,3.463,3.094,6.053c-3.959,0.367-4.785-4.283-4.785-4.283
	c-2.004,3.221-1.727,13.605,0.5,21.313c0.371-2.75-0.475-3.887,0.797-7.201c3.805-9.904,1.355-5.746,15.563-5.746
	c14.205,0,11.641-3.793,15.561,5.746c1.17,2.844,0.426,4.451,0.799,7.201C50.033,9.375,43.316,5.467,35.018,8.529z"/>
<path fill="#FFFFFF" d="M41.66,24.348c-1.58,4.135-8.008,3.529-9.186,0.635C33.369,20.332,40.793,19.936,41.66,24.348z"/>
<path fill="#FFFFFF" d="M16.342,24.348c1.58,4.135,8.01,3.529,9.186,0.635C24.633,20.33,17.211,19.934,16.342,24.348z"/>
<path fill="#CC9D76" d="M42.316,19.369c-2.705-1.342-7.879-1.408-9.807-0.473c-0.412,0.182-0.141,1.455,0.207,1.332
	c2.688-0.994,7.02-1.018,9.535,0.086C42.586,20.457,42.727,19.557,42.316,19.369z"/>
<path fill="#CC9D76" d="M15.688,19.369c2.703-1.342,7.877-1.408,9.807-0.473c0.412,0.182,0.141,1.455-0.207,1.332
	c-2.691-0.994-7.02-1.018-9.537,0.086C15.416,20.457,15.277,19.557,15.688,19.369z"/>
<path fill="#613F34" d="M34.115,23.906c0,3.629,5.25,3.629,5.25,0C39.365,20.537,34.115,20.537,34.115,23.906z"/>
<path fill="#7D5037" d="M34.635,25.068c0,2.08,4.211,2.08,4.211,0C38.846,23.137,34.635,23.137,34.635,25.068z"/>
<path fill="#1A1626" d="M35.65,23.963c0,1.508,2.18,1.508,2.18,0C37.83,22.566,35.65,22.566,35.65,23.963z"/>
<path fill="#AB968C" d="M34.906,23.523c0,0.762,1.102,0.762,1.102,0C36.008,22.818,34.906,22.818,34.906,23.523z"/>
<path fill="#613F34" d="M18.639,23.906c0,3.629,5.25,3.629,5.25,0C23.889,20.537,18.639,20.537,18.639,23.906z"/>
<path fill="#7D5037" d="M19.158,25.066c0,2.082,4.211,2.082,4.211,0C23.369,23.135,19.158,23.135,19.158,25.066z"/>
<path fill="#1A1626" d="M20.174,23.963c0,1.506,2.18,1.506,2.18,0C22.354,22.564,20.174,22.564,20.174,23.963z"/>
<path fill="#AB968C" d="M19.43,23.523c0,0.76,1.1,0.76,1.1,0C20.529,22.816,19.43,22.816,19.43,23.523z"/>
<path fill="#DBA97F" d="M41.66,24.316c0-4.441-9.186-4.441-9.186,0.703C33.787,20.799,40.348,20.799,41.66,24.316z"/>
<path fill="#DBA97F" d="M16.342,24.316c0-4.441,9.186-4.441,9.186,0.701C24.217,20.797,17.654,20.797,16.342,24.316z"/>
<linearGradient id="SVGID_1_" gradientUnits="userSpaceOnUse" x1="29.0005" y1="31.2905" x2="29.0005" y2="18.9316">
	<stop  offset="0" style="stop-color:#FFFFFF;stop-opacity:0.2"/>
	<stop  offset="1" style="stop-color:#FFFFFF"/>
	<a:midPointStop  offset="0" style="stop-color:#FFFFFF;stop-opacity:0.2"/>
	<a:midPointStop  offset="0.5" style="stop-color:#FFFFFF;stop-opacity:0.2"/>
	<a:midPointStop  offset="1" style="stop-color:#FFFFFF"/>
</linearGradient>
<path opacity="0.8" fill="url(#SVGID_1_)" d="M11.834,18.932c0,0,0,6.256,0,8.428c0,1.525,7.191,2.891,10.531,3.779
	c0.848,0.227,2.02,0.357,2.506-0.801c0.826-1.971,1.406-3.404,2.4-5.746c0.432-1.029,3.023-1.031,3.459,0
	c0.99,2.342,1.572,3.775,2.4,5.746c0.486,1.158,1.656,1.027,2.504,0.801c3.338-0.889,10.531-2.254,10.531-3.779
	c0-2.172,0-8.428,0-8.428H11.834z"/>
<path fill="#F5F5F5" d="M32.246,29.57c0,0-2.139-4.293-2.539-5.086c-0.133-0.262-0.383-0.412-0.689-0.414
	c-0.258,0.016-0.564,0.107-0.723,0.414c-0.402,0.793-2.539,5.086-2.539,5.086c-0.109,0.213-1.027-0.111-0.92-0.322
	c0,0,2.139-4.295,2.543-5.088c0.287-0.561,0.928-0.922,1.637-0.922c0.002,0,0.004,0,0.004,0c0.705,0.002,1.318,0.354,1.604,0.922
	c0.402,0.793,2.543,5.088,2.543,5.088C33.271,29.459,32.326,29.73,32.246,29.57z"/>
<path fill="#302C3B" d="M46.852,20.004c-11.883-0.934-23.822-0.934-35.705,0C11.1,19.381,11.051,18.756,11,18.131
	c11.98-0.943,24.018-0.943,36,0C46.949,18.756,46.902,19.381,46.852,20.004z"/>
<path fill="#DBA97F" d="M50.063,42.439c0.896-2.025-2.037-3.449-2.166-1.957c-0.174,1.998,0.305,4.059-0.709,6.363
	c-1.35,3.064,3.098,9.789,3.346,8.779s5.137-2.643,5.582-5.275C56.365,48.887,49.699,43.258,50.063,42.439z"/>
<path fill="#CAE8F0" d="M54.5,47v-7.5c0.686,0,1.25-0.564,1.25-1.252c0-0.686-0.564-1.248-1.25-1.248h-5
	c-0.689,0-1.25,0.563-1.25,1.248c0,0.688,0.561,1.252,1.25,1.252V47c0,3.125-7.5,10.652-7.5,12.5C42,62,49.422,62,52,62s10,0,10-2.5
	C62,57.652,54.5,50.125,54.5,47z"/>
<linearGradient id="SVGID_2_" gradientUnits="userSpaceOnUse" x1="43.25" y1="55.75" x2="60.75" y2="55.75">
	<stop  offset="0" style="stop-color:#A3F01F"/>
	<stop  offset="1" style="stop-color:#62AD00"/>
	<a:midPointStop  offset="0" style="stop-color:#A3F01F"/>
	<a:midPointStop  offset="0.5" style="stop-color:#A3F01F"/>
	<a:midPointStop  offset="1" style="stop-color:#62AD00"/>
</linearGradient>
<path fill="url(#SVGID_2_)" d="M48.875,50.75c-2.178,3.783-5.625,7.42-5.625,8.459c0,1.049,5.385,1.541,8.75,1.541
	c3.363,0,8.75-0.492,8.75-1.541c0-1.039-3.449-4.676-5.625-8.459H48.875z"/>
<path fill="#FCD5B2" d="M55.895,43.955c1.691,0.852,0.926,2.311,0.49,2.705c1.121,1.143,0.629,2.568,0.252,2.889
	c1.404,2.492-5.752,2.523-4.314,0.461c-1.719,0.232-2.184-1.678-0.432-2.186c-1.975,0.357-1.725-1.877-0.551-2.139
	c0.441-0.098,0.891-0.309,1.398-0.416c-2.01,0.334-1.697-2.01-0.697-2.467C53.834,41.984,56.176,40.943,55.895,43.955z"/>
</svg>
