<?xml version="1.0" encoding="utf-8"?>
<!-- Generator: Adobe Illustrator 15.0.0, SVG Export Plug-In . SVG Version: 6.00 Build 0)  -->
<!DOCTYPE svg PUBLIC "-//W3C//DTD SVG 1.1//EN" "http://www.w3.org/Graphics/SVG/1.1/DTD/svg11.dtd" [
	<!ENTITY ns_flows "http://ns.adobe.com/Flows/1.0/">
	<!ENTITY ns_extend "http://ns.adobe.com/Extensibility/1.0/">
	<!ENTITY ns_ai "http://ns.adobe.com/AdobeIllustrator/10.0/">
	<!ENTITY ns_graphs "http://ns.adobe.com/Graphs/1.0/">
]>
<svg version="1.1" id="Layer_1" xmlns:x="&ns_extend;" xmlns:i="&ns_ai;" xmlns:graph="&ns_graphs;"
	 xmlns="http://www.w3.org/2000/svg" xmlns:xlink="http://www.w3.org/1999/xlink" xmlns:a="http://ns.adobe.com/AdobeSVGViewerExtensions/3.0/"
	 x="0px" y="0px" width="64px" height="64px" viewBox="0 0 64 64" enable-background="new 0 0 64 64" xml:space="preserve">
<path fill="#018BC9" d="M6.788,51.719c2.7-1.514,13.907-5.52,13.907-5.52h16.695c0,0,11.197,3.996,13.882,5.518
	C55.178,53.922,56,62,56,62H2C2,62,2.869,53.916,6.788,51.719"/>
<rect x="21.463" y="42.465" fill="#E6B045" width="15.072" height="7.705"/>
<path fill="#006DAE" d="M8.912,62c0.576-2.037-0.099-5.133-0.818-6.836C7.428,53.576,7.679,60.879,8.912,62"/>
<rect x="29" y="54.484" fill="#006DAE" width="3.375" height="7.516"/>
<path fill="#018BC9" d="M31.86,59.209c0,1.24-2.348,1.24-2.348,0S31.86,57.969,31.86,59.209z"/>
<path fill="#FFFFFF" d="M35.75,46.863c-2.071,0.836-4.364,1.314-6.75,1.314s-4.681-0.479-6.75-1.314L29,57.824L35.75,46.863z"/>
<path fill="#006DAE" d="M19.408,45.766c-2.044,4.465-1.092,7.313-1.092,7.313c1.723-1.117,5.104-2.354,5.106-2.355
	c-1.226,1.248-2.198,3.301-2.198,3.301C24.897,54.447,29,57.824,29,57.824S23.292,45.949,19.408,45.766z"/>
<path fill="#018BC9" d="M21.961,43.461c0,0-1.008-0.301-1.438,0.264c-2.529,3.35-1.688,8.09-1.688,8.09
	c1.724-1.121,5.164-1.451,5.166-1.451c-1.228,1.25-1.751,2.656-1.751,2.656c2.595,0.885,6.75,4.805,6.75,4.805
	S25.53,50.574,21.961,43.461z"/>
<path fill="#006DAE" d="M38.589,45.766c2.044,4.465,1.093,7.313,1.093,7.313c-1.721-1.117-5.104-2.354-5.106-2.355
	c1.228,1.248,2.198,3.301,2.198,3.301C33.101,54.447,29,57.824,29,57.824S34.706,45.949,38.589,45.766z"/>
<path fill="#018BC9" d="M36.037,43.461c0,0,1.008-0.301,1.438,0.264c2.529,3.35,1.688,8.09,1.688,8.09
	c-1.722-1.121-5.164-1.451-5.164-1.451c1.226,1.25,1.751,2.656,1.751,2.656C33.153,53.904,29,57.824,29,57.824
	S32.468,50.574,36.037,43.461z"/>
<path fill="#E6B045" d="M11.901,20.749c-5.719-1.031-1.252,14.957,3.225,10.547C17.198,29.252,14.575,21.232,11.901,20.749z"/>
<path fill="#E6B045" d="M46.101,20.749c-2.674,0.483-5.299,8.503-3.223,10.547C47.354,35.706,51.815,19.718,46.101,20.749z"/>
<path fill="#FFCC66" d="M29.001,2.001c-11.824,0-17.521,8.945-16.807,21.384c0.143,2.503,1.693,10.665,3.158,13.594
	c1.498,2.994,6.512,7.613,9.584,8.57c1.939,0.604,6.188,0.604,8.127,0c3.072-0.957,8.086-5.576,9.586-8.57
	c1.465-2.929,3.016-11.091,3.158-13.594C46.522,10.946,40.825,2.001,29.001,2.001z"/>
<path fill="#E6A400" d="M29.001,35.862c-2.66-0.782-6.6,0.37-6.6,0.37c1.5,1.635,2.6,3.756,6.6,3.756c4.582,0,5.359-2.406,6.6-3.756
	C35.601,36.232,31.657,35.076,29.001,35.862z"/>
<path fill="#FFFFFF" d="M23.407,36.509c2.787,2.341,8.418,2.354,11.221,0C31.657,36.637,26.399,36.638,23.407,36.509z"/>
<path fill="#E6B045" d="M32.667,31.465c0,2.386-7.332,2.386-7.332,0C25.335,30.917,32.667,30.917,32.667,31.465z"/>
<path fill="#594640" d="M29.001,2c-8.135,0-13.049,2.688-15.168,1.655c0,0-0.23,1.388,0.6,2.291c0,0-0.877,0.758-2.291-0.521
	c-1.348,4.377,2.652,6.913,16.859,6.913s10.813-3.46,17.797,2.616C46.112,7.465,41.354,2,29.001,2z"/>
<path fill="#453631" d="M35.017,8.529c-7.822,2.888-10.682-2.321-18.061-2.824c3.51,1.657,5.223,4.208,8.105,6.049
	c-6.273-2.101-10.877-5.712-11.227-8.085c0,0-1.047,3.464,3.094,6.053c-3.959,0.367-4.785-4.283-4.785-4.283
	c-2.004,3.221-1.727,13.606,0.5,21.313c0.371-2.75-0.475-3.887,0.797-7.201c3.805-9.904,1.355-5.745,15.563-5.745
	c14.205,0,11.641-3.793,15.561,5.745c1.17,2.844,0.426,4.451,0.799,7.201C50.032,9.374,43.315,5.467,35.017,8.529z"/>
<path fill="#FFFFFF" d="M41.659,24.347c-1.58,4.136-8.008,3.529-9.186,0.635C33.368,20.332,40.792,19.935,41.659,24.347z"/>
<path fill="#FFFFFF" d="M16.341,24.347c1.58,4.136,8.01,3.529,9.186,0.635C24.632,20.33,17.21,19.933,16.341,24.347z"/>
<path fill="#C1873C" d="M42.315,19.368c-2.705-1.342-7.879-1.407-9.807-0.472c-0.412,0.182-0.141,1.454,0.207,1.332
	c2.688-0.995,7.02-1.019,9.535,0.086C42.585,20.456,42.726,19.557,42.315,19.368z"/>
<path fill="#C1873C" d="M15.687,19.368c2.703-1.342,7.877-1.407,9.807-0.472c0.412,0.182,0.141,1.454-0.207,1.332
	c-2.691-0.995-7.02-1.019-9.537,0.086C15.415,20.456,15.276,19.557,15.687,19.368z"/>
<path fill="#613F34" d="M34.114,23.906c0,3.629,5.25,3.629,5.25,0C39.364,20.537,34.114,20.537,34.114,23.906z"/>
<path fill="#7D5037" d="M34.634,25.067c0,2.081,4.211,2.081,4.211,0C38.845,23.136,34.634,23.136,34.634,25.067z"/>
<path fill="#1A1626" d="M35.649,23.963c0,1.507,2.18,1.507,2.18,0C37.829,22.565,35.649,22.565,35.649,23.963z"/>
<path fill="#AB968C" d="M34.905,23.523c0,0.761,1.102,0.761,1.102,0C36.007,22.817,34.905,22.817,34.905,23.523z"/>
<path fill="#613F34" d="M18.638,23.905c0,3.63,5.25,3.63,5.25,0C23.888,20.536,18.638,20.536,18.638,23.905z"/>
<path fill="#7D5037" d="M19.157,25.066c0,2.081,4.211,2.081,4.211,0C23.368,23.135,19.157,23.135,19.157,25.066z"/>
<path fill="#1A1626" d="M20.173,23.963c0,1.506,2.18,1.506,2.18,0C22.353,22.564,20.173,22.564,20.173,23.963z"/>
<path fill="#AB968C" d="M19.429,23.522c0,0.761,1.1,0.761,1.1,0C20.528,22.816,19.429,22.816,19.429,23.522z"/>
<path fill="#E6B045" d="M41.659,24.315c0-4.44-9.186-4.44-9.186,0.703C33.786,20.799,40.347,20.799,41.659,24.315z"/>
<path fill="#E6B045" d="M16.341,24.315c0-4.44,9.186-4.44,9.186,0.702C24.216,20.796,17.653,20.796,16.341,24.315z"/>
<path fill="#018BC9" d="M54.177,62H43.489c0,0,2.777-4.176,4.503-4.109C56.888,58.227,54.177,62,54.177,62z"/>
<path fill="#E6B045" d="M51.879,46.344c0.277-1.473,3.28,0.238,2.132,2.164c-0.465,0.779,6.137,7.055,5.732,8.486
	c-0.725,2.576-6.104,3.709-6.463,4.691c-0.36,0.979-6.051-2.609-5.118-3.359c3.059-2.465,0.633-2.803,2.362-5.719
	C51.823,50.416,51.505,48.316,51.879,46.344z"/>
<rect x="52.643" y="35.581" fill="#99A8AE" width="5.503" height="26.419"/>
<path fill="#6E8189" d="M52.643,39.064c0.838,0.391,1.768,0.617,2.753,0.617c0.984,0,1.915-0.227,2.75-0.617v-2.782h-5.503V39.064z"
	/>
<path fill="#99A8AE" d="M58.146,25.977v6.55l-2.75,2.146l-2.753-2.146v-6.55c-2.271,1.045-3.853,3.334-3.853,5.998
	c0,3.647,2.958,6.605,6.605,6.605S62,35.622,62,31.975C62,29.311,60.419,27.021,58.146,25.977z"/>
<path fill="#6E8189" d="M61.448,31.718c0-0.478-0.051-0.945-0.147-1.395c0.237,0.634,0.367,1.317,0.367,2.032
	c0,3.001-2.295,5.484-5.281,5.893C59.309,37.424,61.448,34.813,61.448,31.718z"/>
<path fill="#CFD8DD" d="M52.643,26.208c-1.86,0.838-3.226,2.627-3.522,4.775c0.539-1.904,1.831-3.477,3.522-4.34V26.208z"/>
<path fill="#FFCC66" d="M59.192,49.799c1.763,0.693,1.134,2.217,0.735,2.648c1.221,1.035,0.861,2.5,0.515,2.855
	c1.242,3.504-9.172,3.957-5.264,1.389c-3.161-0.186-1.318-2.008,0.379-2.674c-4.306,1.066-2.845-1.545,0.612-2.621
	C50.256,52.789,59.202,43.605,59.192,49.799z"/>
</svg>
