<?xml version="1.0" encoding="utf-8"?>
<!-- Generator: Adobe Illustrator 19.0.0, SVG Export Plug-In . SVG Version: 6.00 Build 0)  -->
<svg version="1.1" id="Layer_1" xmlns="http://www.w3.org/2000/svg" xmlns:xlink="http://www.w3.org/1999/xlink" x="0px" y="0px"
	 width="64px" height="64px" viewBox="0 0 64 64" enable-background="new 0 0 64 64" xml:space="preserve">
<path fill="#7AB51D" d="M43.479,32.738c-7.696-5.117-15.261-5.117-22.957,0c-2.442,1.623-4.947,6.74-5.255,12.037l6.339,1V62h20.789
	V45.775l6.339-1C48.426,39.479,45.921,34.361,43.479,32.738z"/>
<path fill="#E6B045" d="M36.209,29.674c0-0.723,0-3.932,0-3.932h-8.418c0,0,0,3.16,0,3.932
	C27.791,33.904,36.209,33.904,36.209,29.674z"/>
<path fill="#E6B045" d="M21.29,14.672c-3.585-0.645-0.785,9.361,2.018,6.601C24.608,19.992,22.964,14.975,21.29,14.672z"/>
<path fill="#E6B045" d="M42.716,14.672c-1.676,0.303-3.32,5.32-2.019,6.601C43.502,24.033,46.296,14.027,42.716,14.672z"/>
<path fill="#FFCC66" d="M32.002,2.941c-7.408,0-10.977,5.598-10.53,13.381c0.09,1.566,1.061,6.674,1.978,8.506
	c0.939,1.873,4.08,4.764,6.005,5.361c1.215,0.379,3.877,0.379,5.094,0c1.923-0.598,5.066-3.488,6.003-5.361
	c0.92-1.832,1.89-6.939,1.979-8.506C42.979,8.539,39.409,2.941,32.002,2.941z"/>
<path fill="#E6A400" d="M32.002,24.131c-1.667-0.49-4.135,0.232-4.135,0.232c0.939,1.023,1.629,2.348,4.135,2.348
	c2.87,0,3.359-1.504,4.136-2.348C36.138,24.363,33.667,23.639,32.002,24.131z"/>
<g>
	<path fill="#FFFFFF" d="M28.497,24.535c1.747,1.463,5.275,1.473,7.031,0C33.667,24.615,30.372,24.615,28.497,24.535z"/>
</g>
<path fill="#E6B045" d="M34.301,21.379c0,1.492-4.596,1.492-4.596,0C29.705,21.037,34.301,21.037,34.301,21.379z"/>
<path fill="#594640" d="M32.002,2.941c-5.096,0-8.176,1.68-9.504,1.035c0,0-0.143,0.867,0.376,1.434c0,0-0.548,0.475-1.435-0.326
	C20.595,7.822,23.101,9.41,32.002,9.41c8.901,0,6.773-2.166,11.151,1.637C42.725,6.359,39.742,2.941,32.002,2.941z"/>
<path fill="#453631" d="M35.771,7.025c-4.9,1.809-6.691-1.453-11.315-1.768c2.2,1.037,3.273,2.635,5.078,3.785
	C25.603,7.731,22.72,5.469,22.5,3.984c0,0-0.655,2.168,1.938,3.789c-2.479,0.228-2.996-2.682-2.996-2.682
	c-1.257,2.016-1.084,8.514,0.311,13.338c0.232-1.723-0.297-2.434,0.5-4.506c2.383-6.199,0.85-3.598,9.749-3.598
	c8.901,0,7.295-2.371,9.751,3.598c0.732,1.777,0.266,2.783,0.499,4.506C45.18,7.553,40.97,5.109,35.771,7.025z"/>
<path fill="#FFFFFF" d="M39.933,16.926c-0.99,2.588-5.018,2.207-5.754,0.394C34.738,14.412,39.389,14.164,39.933,16.926z"/>
<path fill="#FFFFFF" d="M24.07,16.926c0.99,2.588,5.017,2.207,5.754,0.394C29.266,14.41,24.614,14.162,24.07,16.926z"/>
<g>
	<path fill="#C1873C" d="M40.344,13.809c-1.694-0.84-4.936-0.881-6.146-0.295c-0.258,0.113-0.087,0.908,0.132,0.834
		c1.684-0.625,4.398-0.639,5.974,0.053C40.515,14.488,40.601,13.926,40.344,13.809z"/>
	<path fill="#C1873C" d="M23.66,13.809c1.692-0.84,4.936-0.881,6.144-0.295c0.26,0.113,0.088,0.908-0.129,0.834
		c-1.687-0.625-4.399-0.639-5.976,0.053C23.489,14.488,23.404,13.926,23.66,13.809z"/>
</g>
<g>
	<path fill="#613F34" d="M35.206,16.648c0,2.272,3.289,2.272,3.289,0C38.495,14.541,35.206,14.541,35.206,16.648z"/>
	<path fill="#7D5037" d="M35.53,17.375c0,1.305,2.64,1.305,2.64,0C38.17,16.166,35.53,16.166,35.53,17.375z"/>
	<path fill="#1A1626" d="M36.167,16.685c0,0.941,1.366,0.941,1.366,0C37.533,15.809,36.167,15.809,36.167,16.685z"/>
	<path fill="#AB968C" d="M35.701,16.41c0,0.475,0.689,0.475,0.689,0C36.391,15.967,35.701,15.967,35.701,16.41z"/>
</g>
<g>
	<path fill="#613F34" d="M25.509,16.648c0,2.272,3.289,2.272,3.289,0C28.798,14.541,25.509,14.541,25.509,16.648z"/>
	<path fill="#7D5037" d="M25.834,17.375c0,1.301,2.64,1.301,2.64,0C28.474,16.166,25.834,16.166,25.834,17.375z"/>
	<path fill="#1A1626" d="M26.472,16.685c0,0.941,1.364,0.941,1.364,0C27.836,15.809,26.472,15.809,26.472,16.685z"/>
	<path fill="#AB968C" d="M26.005,16.408c0,0.477,0.688,0.477,0.688,0C26.693,15.967,26.005,15.967,26.005,16.408z"/>
</g>
<path fill="#E6B045" d="M39.933,16.904c0-2.779-5.754-2.779-5.754,0.441C35,14.705,39.11,14.705,39.933,16.904z"/>
<path fill="#E6B045" d="M24.07,16.904c0-2.779,5.754-2.779,5.754,0.439C29.003,14.703,24.892,14.703,24.07,16.904z"/>
<path fill="#4ABDFF" d="M39.712,55.188c-4.816-3.131-10.578-3.101-15.402,0.001C22.653,56.251,22.104,62,22.104,62h19.793
	C41.897,62,41.351,56.248,39.712,55.188z"/>
<path fill="#E6B045" d="M34.925,53.426c0-0.538,0-2.925,0-2.925h-5.85c0,0,0,2.351,0,2.925
	C29.075,55.792,34.925,55.792,34.925,53.426z"/>
<g>
	<path fill="#594640" d="M31.999,31.984c-10.516,0-9.502,8.421-9.502,12.356h19.006C41.503,40.405,42.517,31.984,31.999,31.984z"/>
	<g>
		<path fill="#E6B045" d="M23.437,42.76c-3.34-0.511-1.162,7.4,1.451,5.218C26.095,46.968,24.997,42.998,23.437,42.76z"/>
		<path fill="#E6B045" d="M40.563,42.76c-1.563,0.238-2.662,4.208-1.451,5.218C41.726,50.16,43.901,42.249,40.563,42.76z"/>
	</g>
	<path fill="#FFCC66" d="M40.454,42.592c0-5.614-3.32-4.364-8.455-4.364c-5.133,0-8.453-1.25-8.453,4.364
		c0,0,0.016,2.141,0.564,4.95c0.896,4.602,4.617,6.407,7.889,6.407s6.996-1.806,7.889-6.407
		C40.435,44.73,40.454,42.592,40.454,42.592z"/>
	<g>
		<path fill="#594640" d="M31.825,36.119c-1.535,2.734-7.289,4.446-9.268,4.268C24.351,38.58,25.143,33.922,31.825,36.119z"/>
		<path fill="#453631" d="M22.558,40.387c2.52-0.656,5.791-1.996,9.268-4.268C30.29,38.854,25.237,41.013,22.558,40.387z"/>
	</g>
	<g>
		<path fill="#594640" d="M39.587,35.973c-2.174,3.257-10.312,5.294-13.107,5.082C29.011,38.9,30.136,33.355,39.587,35.973z"/>
		<path fill="#453631" d="M26.479,41.055c6.686-1.857,13.107-5.082,13.107-5.082C37.413,39.229,31.356,41.526,26.479,41.055z"/>
	</g>
	<g>
		<path fill="#594640" d="M39.901,35.224c2.606,4.239-4.176,5.977-6.979,5.806C35.437,39.375,37.122,35.091,39.901,35.224z"/>
		<path fill="#453631" d="M32.923,41.029c3.369-1.544,8.506-1.859,6.979-5.806C42.507,39.463,35.896,41.412,32.923,41.029z"/>
	</g>
	<g>
		<g>
			<g>
				<path fill="#FFFFFF" d="M38.235,44.334c-0.777,2.035-3.943,1.737-4.523,0.313C34.151,42.359,37.81,42.163,38.235,44.334z"/>
				<g>
					<path fill="#613F34" d="M34.519,44.117c0,1.786,2.588,1.786,2.588,0C37.106,42.459,34.519,42.459,34.519,44.117z"/>
					<path fill="#7D5037" d="M34.774,44.689c0,1.025,2.076,1.025,2.076,0C36.851,43.739,34.774,43.739,34.774,44.689z"/>
					<path fill="#1A1626" d="M35.274,44.147c0,0.739,1.074,0.739,1.074,0C36.349,43.459,35.274,43.459,35.274,44.147z"/>
					<path fill="#AB968C" d="M34.909,43.931c0,0.373,0.543,0.373,0.543,0C35.452,43.584,34.909,43.584,34.909,43.931z"/>
				</g>
				<path fill="#E6B045" d="M38.235,44.318c0-2.184-4.523-2.184-4.523,0.348C34.358,42.588,37.591,42.588,38.235,44.318z"/>
			</g>
			<g>
				<path fill="#FFFFFF" d="M25.765,44.334c0.775,2.035,3.943,1.737,4.523,0.313C29.847,42.358,26.194,42.163,25.765,44.334z"/>
				<g>
					<path fill="#613F34" d="M26.896,44.117c0,1.786,2.586,1.786,2.586,0C29.481,42.459,26.896,42.459,26.896,44.117z"/>
					<path fill="#7D5037" d="M27.151,44.688c0,1.026,2.074,1.026,2.074,0C29.226,43.739,27.151,43.739,27.151,44.688z"/>
					<path fill="#1A1626" d="M27.651,44.146c0,0.741,1.074,0.741,1.074,0C28.726,43.457,27.651,43.457,27.651,44.146z"/>
					<path fill="#AB968C" d="M27.284,43.929c0,0.375,0.541,0.375,0.541,0C27.825,43.581,27.284,43.581,27.284,43.929z"/>
				</g>
				<path fill="#E6B045" d="M25.765,44.318c0-2.184,4.523-2.184,4.523,0.346C29.642,42.588,26.409,42.588,25.765,44.318z"/>
			</g>
		</g>
		<g>
			<path fill="#C1873C" d="M38.653,42.103c-1.352-0.668-3.938-0.701-4.902-0.234c-0.203,0.091-0.068,0.727,0.105,0.664
				c1.344-0.496,3.508-0.509,4.766,0.043C38.788,42.647,38.86,42.198,38.653,42.103z"/>
			<path fill="#C1873C" d="M25.345,42.103c1.354-0.668,3.94-0.701,4.904-0.234c0.203,0.091,0.066,0.727-0.104,0.664
				c-1.346-0.496-3.51-0.509-4.768,0.043C25.212,42.647,25.14,42.198,25.345,42.103z"/>
		</g>
		<g>
			<path fill="#E6A400" d="M31.999,49.77c-1.328-0.391-3.299,0.185-3.299,0.185c0.754,0.817,1.301,1.874,3.299,1.874
				c2.291,0,2.68-1.201,3.299-1.874C35.298,49.954,33.327,49.376,31.999,49.77z"/>
			<g>
				<path fill="#FFFFFF" d="M29.206,50.093c1.393,1.167,4.207,1.175,5.606,0C33.327,50.155,30.702,50.157,29.206,50.093z"/>
			</g>
		</g>
		<path fill="#E6B045" d="M33.831,48.021c0,1.19-3.662,1.19-3.662,0C30.169,47.747,33.831,47.747,33.831,48.021z"/>
	</g>
</g>
<path fill="#FFCC66" d="M41.566,58.081c-0.594,0.731-1.939-2.198-1.522-3.047c4.083-8.303,3.291-5.617,2.979-9.357
	c2.57-0.556,5.711-0.901,5.711-0.901C48.733,50.744,48.733,49.26,41.566,58.081z"/>
<path fill="#FFCC66" d="M38.281,54.203c-1.562-0.406-4.45,1.055-2.804,1.45c-0.365,0.459-0.316,1,0.925,0.644
	c-0.475,0.455,0.321,0.82,0.954,0.662c-0.179,1.157,2.078,0.494,2.758,0.863c0.974,0.527,1.185,0.84,1.431,0.689
	C43.341,57.42,40.873,54.871,38.281,54.203z"/>
<path fill="#FFCC66" d="M22.434,58.081c0.594,0.731,1.939-2.198,1.522-3.047c-4.083-8.303-3.291-5.617-2.978-9.357
	c-2.57-0.556-5.711-0.901-5.711-0.901C15.267,50.744,15.267,49.26,22.434,58.081z"/>
<path fill="#FFCC66" d="M25.719,54.203c1.562-0.406,4.45,1.055,2.804,1.45c0.365,0.459,0.316,1-0.925,0.644
	c0.475,0.455-0.321,0.82-0.954,0.662c0.179,1.157-2.078,0.494-2.758,0.863c-0.974,0.527-1.184,0.84-1.431,0.689
	C20.659,57.42,23.127,54.871,25.719,54.203z"/>
</svg>
