<?xml version="1.0" encoding="utf-8"?>
<!-- Generator: Adobe Illustrator 19.0.0, SVG Export Plug-In . SVG Version: 6.00 Build 0)  -->
<svg version="1.1" id="Layer_1" xmlns="http://www.w3.org/2000/svg" xmlns:xlink="http://www.w3.org/1999/xlink" x="0px" y="0px"
	 width="64px" height="64px" viewBox="0 0 64 64" enable-background="new 0 0 64 64" xml:space="preserve">
<path fill="#C49A45" d="M61.2,25.101c-1.08,2.176-2.23,4.033-3.648,5.6l-1.756-0.387l0.531,1.602
	c-4.338,3.863-11.109,5.557-24.416,5.557c-20.322,0-26.559-5.812-29.291-12.371C0.148,19.174,63.392,20.689,61.2,25.101z"/>
<path fill="#5C3A2E" d="M19.973,15.476c-8.107,37.397-7.365,36.597,9.702,36.597C20.231,44.972,38.322,14.967,19.973,15.476z"/>
<path fill="#6B4435" d="M17.049,14.896c-5.917,28.413-0.813,35.709,3.721,37.176h5.193C13.811,42.87,32.808,14.338,17.049,14.896z"
	/>
<path fill="#5C3A2E" d="M43.826,15.475c8.106,37.396,7.364,36.596-9.701,36.596C42.81,46.372,25.477,14.966,43.826,15.475z"/>
<path fill="#6B4435" d="M46.748,14.896c8.649,25.85-0.019,35.979-3.72,37.175h-5.192C49.99,43.62,30.992,14.336,46.748,14.896z"/>
<path fill="#875B49" d="M47.946,28.786c2.468,6.571,0.026,20.058-5.082,23.286c5.661,0,9.111-8.55,10.792-20.311
	C55.757,17.067,43.551,17.059,47.946,28.786z"/>
<path fill="#875B49" d="M10.778,34.488c2.063,10.614,4.601,17.584,10.159,17.584c-6.196-6.999-5.467-21.761-3.706-25.434
	C26.207,20.812,7.289,16.536,10.778,34.488z"/>
<path fill="#E6EBEF" d="M12.257,52.204c2.399-1.443,13.233-5.257,13.233-5.257h13.099c0,0,10.823,3.807,13.209,5.253
	C55.27,54.305,56,62,56,62H8C8,62,8.776,54.297,12.257,52.204z"/>
<path fill="#946346" d="M39.091,48.345c0-1.135,0-6.165,0-6.165H24.909c0,0,0,4.955,0,6.165
	C24.909,53.334,39.091,53.334,39.091,48.345z"/>
<path fill="#006DAE" d="M47.514,57.447c0.089-2.159,0.112-3.184-0.656-7.432c-0.186-0.346-4.317-1.979-4.851-1.837
	c0.694,4.64,0.704,6.214,0.655,8.827c-5.766-0.155-15.558-0.155-21.324,0c-0.049-2.613-0.044-4.156,0.65-8.796
	c-0.533-0.143-4.668,1.493-4.854,1.839c-0.767,4.25-0.737,5.241-0.646,7.398C15.707,57.951,15.199,62,15.199,62h33.602
	C48.801,62,48.293,57.951,47.514,57.447z"/>
<path fill="#BEC3CF" d="M13.742,62c0.505-1.788-0.094-4.509-0.727-6.005C12.419,54.6,12.641,61.017,13.742,62z"/>
<path fill="#BEC3CF" d="M50.985,55.995c-0.633,1.496-1.229,4.217-0.727,6.005C51.36,61.017,51.583,54.6,50.985,55.995z"/>
<path fill="#B88A6F" d="M31.999,6.488c-11.609,0-17.201,9.455-16.502,21.611c0.143,2.443,0.822,5.969,1.661,8.988
	c1.741,6.278,10.929,12.601,14.841,12.601c3.911,0,13.1-6.322,14.841-12.601c0.839-3.02,1.519-6.545,1.663-8.988
	C49.2,15.943,43.611,6.488,31.999,6.488z"/>
<path fill="#84401E" d="M32,39.66c-2.822-1.24-2.844-0.05-7.2,0.242c1.636,1.856,2.839,4.244,7.198,4.244
	c5.003,0,5.849-2.711,7.203-4.244C34.842,39.61,34.822,38.42,32,39.66z"/>
<path fill="#FFFFFF" d="M26.108,40.365c2.844,2.959,8.977,2.92,11.784,0.001C33.514,40.837,30.487,40.837,26.108,40.365z"/>
<path fill="#423225" d="M44.794,23.684c-2.616-1.56-7.308-1.75-9.165-0.688c-0.394,0.214-0.287,1.341,0.053,1.2
	c2.648-1.104,6.682-1.158,9.168,0.117C45.183,24.482,45.19,23.91,44.794,23.684z"/>
<path fill="#423225" d="M19.206,23.684c2.615-1.56,7.307-1.75,9.166-0.688c0.394,0.214,0.289,1.341-0.054,1.2
	c-2.648-1.104-6.68-1.159-9.167,0.117C18.818,24.482,18.811,23.91,19.206,23.684z"/>
<path fill="#946346" d="M35.6,35.418c0,2.342-7.2,2.342-7.2,0C28.4,34.881,35.6,34.881,35.6,35.418z"/>
<g>
	<path fill="#FFFFFF" d="M44.541,28.431c-1.552,4.06-7.861,3.464-9.017,0.623C36.401,24.488,43.688,24.098,44.541,28.431z"/>
	<g>
		<path fill="#613F34" d="M37.106,27.989c0,3.596,5.2,3.596,5.2,0C42.306,24.651,37.106,24.651,37.106,27.989z"/>
		<path fill="#7D5037" d="M37.619,29.139c0,2.063,4.172,2.063,4.172,0C41.791,27.226,37.619,27.226,37.619,29.139z"/>
		<path fill="#1A1626" d="M38.626,28.046c0,1.492,2.159,1.492,2.159,0C40.785,26.66,38.626,26.66,38.626,28.046z"/>
		<path fill="#AB968C" d="M37.889,27.609c0,0.754,1.09,0.754,1.09,0C38.979,26.91,37.889,26.91,37.889,27.609z"/>
	</g>
	<path fill="#45332C" d="M44.541,28.399c0-4.361-9.017-4.361-9.017,0.69C36.811,24.944,43.254,24.944,44.541,28.399z"/>
</g>
<g>
	<path fill="#FFFFFF" d="M19.459,28.431c1.552,4.06,7.862,3.466,9.019,0.623C27.602,24.488,20.314,24.098,19.459,28.431z"/>
	<g>
		<path fill="#613F34" d="M21.695,27.994c0,3.596,5.2,3.596,5.2,0C26.895,24.657,21.695,24.657,21.695,27.994z"/>
		<path fill="#7D5037" d="M22.208,29.145c0,2.063,4.172,2.063,4.172,0C26.38,27.231,22.208,27.231,22.208,29.145z"/>
		<path fill="#1A1626" d="M23.215,28.051c0,1.492,2.159,1.492,2.159,0C25.374,26.666,23.215,26.666,23.215,28.051z"/>
		<path fill="#AB968C" d="M22.478,27.615c0,0.754,1.09,0.754,1.09,0C23.568,26.915,22.478,26.915,22.478,27.615z"/>
	</g>
	<path fill="#45332C" d="M19.459,28.399c0-4.361,9.019-4.361,9.019,0.688C27.191,24.943,20.747,24.943,19.459,28.399z"/>
</g>
<path fill="#875B49" d="M43.891,8.179c-7.462,8.342-0.34,8.881,4.056,20.607c2.468,6.571,4.029,14.736,5.71,2.976
	C55.757,17.067,47.683,6.951,43.891,8.179z"/>
<path fill="#875B49" d="M25.573,4.984c-9.463,2.43-18.284,11.552-14.796,29.504c2.063,10.614,2.9-3.665,4.661-7.338
	c8.977-5.827,26.119-10.752,28.452-18.972C45.075,6.282,35.043,2.278,25.573,4.984z"/>
<path fill="#6B4435" d="M18.116,18.062c4.063-0.885,23.496-1.302,25.954-9.883C39.478,12.112,34.721,13.184,18.116,18.062z"/>
<path fill="#6B4435" d="M11.112,31.71c6.816-9.774,29.14-8.695,32.958-23.531C36.658,20.631,12.975,22.314,11.112,31.71z"/>
<path fill="#6B4435" d="M41.824,10.213c-1.759,2.976,4.353-1.399,10.94,17.785C51.141,16.783,45.574,9.061,41.824,10.213z"/>
<path fill="#E5BC5E" d="M32.175,2c-5.841,0-9.957,1.77-11.927,2.291c-7.454,1.973-8.622,7.658-8.622,14.225H52.72
	C52.72,12.221,42.775,2,32.175,2z"/>
<path fill="#D4AE57" d="M43.911,4.639C41.509,4.076,41.104,2,32.175,2c12.362,1.65,17.756,9.311,13.208,16.516h7.337
	C52.72,12.221,51.043,6.307,43.911,4.639z"/>
<path fill="#C49A45" d="M61.2,25.101c-4.34,8.742-9.814-4.771-29.289-4.771c-16.606,0-26.559,11.33-29.291,4.771
	c-1.826-4.379,0.594-6.254,4.455-7.289l2.066,1.422l0.268-1.932c0.246-0.043,0.494-0.086,0.744-0.127l1.029,1.02l0.406-1.238
	c11.639-1.662,12.424-4.225,20.322-4.225c8.34,0,10.371,3.223,21.201,3.836l0.715,1.83l2.338-1.457
	C61.728,18.066,63.085,21.307,61.2,25.101z"/>
<path fill="#6E8189" d="M53.031,54.813c-4.455,0-8.967-3.027-8.967-8.816v-8.631c0-0.902,1.635-3.635,1.635-3.635
	s1.635,2.732,1.635,3.635v8.631c0,3.832,2.863,5.547,5.697,5.547c2.836,0,5.697-1.715,5.697-5.547v-8.631
	c0-0.902,1.635-3.635,1.635-3.635S62,36.463,62,37.365v8.631C62,51.785,57.488,54.813,53.031,54.813z"/>
<rect x="51.475" y="55.754" fill="#8A6859" width="3.113" height="6.246"/>
<path fill="#6E8189" d="M54.668,37.365c0-0.902-1.637-3.635-1.637-3.635s-1.635,2.732-1.635,3.635v19.213h3.27L54.668,37.365z"/>
</svg>
