<?xml version="1.0" encoding="utf-8"?>
<!-- Generator: Adobe Illustrator 15.0.0, SVG Export Plug-In . SVG Version: 6.00 Build 0)  -->
<!DOCTYPE svg PUBLIC "-//W3C//DTD SVG 1.1//EN" "http://www.w3.org/Graphics/SVG/1.1/DTD/svg11.dtd" [
	<!ENTITY ns_flows "http://ns.adobe.com/Flows/1.0/">
	<!ENTITY ns_extend "http://ns.adobe.com/Extensibility/1.0/">
	<!ENTITY ns_ai "http://ns.adobe.com/AdobeIllustrator/10.0/">
	<!ENTITY ns_graphs "http://ns.adobe.com/Graphs/1.0/">
]>
<svg version="1.1" id="Layer_1" xmlns:x="&ns_extend;" xmlns:i="&ns_ai;" xmlns:graph="&ns_graphs;"
	 xmlns="http://www.w3.org/2000/svg" xmlns:xlink="http://www.w3.org/1999/xlink" xmlns:a="http://ns.adobe.com/AdobeSVGViewerExtensions/3.0/"
	 x="0px" y="0px" width="64px" height="64px" viewBox="0 0 64 64" enable-background="new 0 0 64 64" xml:space="preserve">
<path fill="#E6B045" d="M51.671,55.48c-0.563-3.246-4.917-6.438-6.237-4.146C43.082,55.414,51.994,57.345,51.671,55.48z"/>
<path fill="#E6B045" d="M12.329,55.48c0.563-3.246,4.917-6.438,6.237-4.146C20.917,55.414,12.005,57.345,12.329,55.48z"/>
<path fill="#7AB51D" d="M43.478,32.797c-7.695-5.117-15.259-5.117-22.957,0c-2.441,1.623-2.947,7.74-3.254,13.037l4.338,16.225
	h20.789l4.34-16.225C46.425,40.537,45.921,34.42,43.478,32.797z"/>
<path fill="#E6B045" d="M36.208,29.732c0-0.723,0-3.932,0-3.932h-8.417c0,0,0,3.16,0,3.932
	C27.791,33.963,36.208,33.963,36.208,29.732z"/>
<path fill="#E6B045" d="M21.291,14.73c-3.586-0.645-0.785,9.361,2.018,6.602C24.609,20.051,22.964,15.033,21.291,14.73z"/>
<path fill="#E6B045" d="M42.716,14.73c-1.676,0.303-3.32,5.32-2.02,6.602C43.501,24.092,46.296,14.086,42.716,14.73z"/>
<path fill="#FFCC66" d="M32.001,3c-7.408,0-10.977,5.598-10.529,13.381c0.09,1.566,1.061,6.674,1.979,8.506
	c0.939,1.873,4.08,4.764,6.004,5.361c1.215,0.379,3.876,0.379,5.093,0c1.924-0.598,5.066-3.488,6.004-5.361
	c0.92-1.832,1.889-6.939,1.979-8.506C42.979,8.598,39.409,3,32.001,3z"/>
<path fill="#E6A400" d="M32.001,24.189c-1.666-0.49-4.135,0.232-4.135,0.232c0.939,1.023,1.629,2.348,4.135,2.348
	c2.871,0,3.359-1.504,4.136-2.348C36.138,24.422,33.667,23.697,32.001,24.189z"/>
<path fill="#FFFFFF" d="M28.498,24.594c1.746,1.463,5.275,1.473,7.031,0C33.667,24.674,30.373,24.674,28.498,24.594z"/>
<path fill="#E6B045" d="M34.3,21.438c0,1.492-4.595,1.492-4.595,0C29.705,21.096,34.3,21.096,34.3,21.438z"/>
<path fill="#594640" d="M32.001,3c-5.096,0-8.176,1.68-9.504,1.035c0,0-0.143,0.867,0.377,1.434c0,0-0.549,0.475-1.436-0.326
	c-0.844,2.738,1.662,4.326,10.563,4.326c8.902,0,6.773-2.166,11.152,1.637C42.724,6.418,39.741,3,32.001,3z"/>
<path fill="#453631" d="M35.771,7.084c-4.9,1.809-6.691-1.453-11.316-1.768c2.201,1.037,3.273,2.635,5.078,3.785
	c-3.93-1.313-6.813-3.574-7.033-5.059c0,0-0.654,2.168,1.938,3.789c-2.479,0.229-2.996-2.682-2.996-2.682
	c-1.256,2.016-1.084,8.514,0.313,13.338c0.23-1.723-0.297-2.434,0.5-4.506c2.383-6.199,0.85-3.598,9.748-3.598
	c8.902,0,7.294-2.371,9.751,3.598c0.73,1.777,0.266,2.783,0.498,4.506C45.179,7.611,40.97,5.168,35.771,7.084z"/>
<path fill="#FFFFFF" d="M39.933,16.984c-0.99,2.588-5.018,2.207-5.754,0.395C34.737,14.471,39.388,14.223,39.933,16.984z"/>
<path fill="#FFFFFF" d="M24.07,16.984c0.99,2.588,5.018,2.207,5.754,0.395C29.265,14.469,24.615,14.221,24.07,16.984z"/>
<path fill="#C1873C" d="M40.343,13.867c-1.693-0.84-4.936-0.881-6.145-0.295c-0.258,0.113-0.088,0.908,0.131,0.834
	c1.684-0.625,4.398-0.639,5.975,0.053C40.515,14.547,40.601,13.984,40.343,13.867z"/>
<path fill="#C1873C" d="M23.66,13.867c1.693-0.84,4.936-0.881,6.145-0.295c0.26,0.113,0.088,0.908-0.129,0.834
	c-1.688-0.625-4.398-0.639-5.977,0.053C23.49,14.547,23.404,13.984,23.66,13.867z"/>
<path fill="#613F34" d="M35.206,16.707c0,2.271,3.289,2.271,3.289,0C38.495,14.6,35.206,14.6,35.206,16.707z"/>
<path fill="#7D5037" d="M35.53,17.434c0,1.305,2.639,1.305,2.639,0C38.169,16.225,35.53,16.225,35.53,17.434z"/>
<path fill="#1A1626" d="M36.167,16.744c0,0.941,1.365,0.941,1.365,0C37.532,15.867,36.167,15.867,36.167,16.744z"/>
<path fill="#AB968C" d="M35.7,16.469c0,0.475,0.689,0.475,0.689,0C36.39,16.025,35.7,16.025,35.7,16.469z"/>
<path fill="#613F34" d="M25.509,16.707c0,2.271,3.289,2.271,3.289,0C28.798,14.6,25.509,14.6,25.509,16.707z"/>
<path fill="#7D5037" d="M25.833,17.434c0,1.301,2.641,1.301,2.641,0C28.474,16.225,25.833,16.225,25.833,17.434z"/>
<path fill="#1A1626" d="M26.472,16.744c0,0.941,1.363,0.941,1.363,0C27.835,15.867,26.472,15.867,26.472,16.744z"/>
<path fill="#AB968C" d="M26.005,16.467c0,0.477,0.688,0.477,0.688,0C26.693,16.025,26.005,16.025,26.005,16.467z"/>
<path fill="#E6B045" d="M39.933,16.963c0-2.779-5.754-2.779-5.754,0.441C34.999,14.764,39.11,14.764,39.933,16.963z"/>
<path fill="#E6B045" d="M24.07,16.963c0-2.779,5.754-2.779,5.754,0.439C29.003,14.762,24.892,14.762,24.07,16.963z"/>
<path fill="#4ABDFF" d="M50.288,55.246c-4.816-3.131-10.578-3.1-15.402,0.002c-1.656,1.063-2.205,6.811-2.205,6.811h19.792
	C52.474,62.059,51.927,56.307,50.288,55.246z"/>
<path fill="#E6B045" d="M45.501,53.484c0-0.537,0-2.924,0-2.924h-5.85c0,0,0,2.35,0,2.924
	C39.651,55.852,45.501,55.852,45.501,53.484z"/>
<path fill="#594640" d="M42.575,32.043c-10.515,0-9.502,8.422-9.502,12.357h19.006C52.079,40.465,53.093,32.043,42.575,32.043z"/>
<path fill="#E6B045" d="M34.013,42.818c-3.339-0.51-1.162,7.4,1.451,5.219C36.671,47.027,35.573,43.057,34.013,42.818z"/>
<path fill="#E6B045" d="M51.14,42.818c-1.563,0.238-2.662,4.209-1.451,5.219C52.302,50.219,54.478,42.309,51.14,42.818z"/>
<path fill="#FFCC66" d="M51.03,42.65c0-5.613-3.32-4.363-8.455-4.363c-5.133,0-8.453-1.25-8.453,4.363c0,0,0.016,2.141,0.564,4.951
	c0.896,4.602,4.617,6.406,7.889,6.406s6.996-1.805,7.889-6.406C51.011,44.789,51.03,42.65,51.03,42.65z"/>
<path fill="#594640" d="M42.401,36.178c-1.535,2.734-7.289,4.447-9.268,4.268C34.927,38.639,35.72,33.98,42.401,36.178z"/>
<path fill="#453631" d="M33.134,40.445c2.52-0.656,5.791-1.996,9.268-4.268C40.866,38.912,35.813,41.072,33.134,40.445z"/>
<path fill="#594640" d="M50.163,36.031c-2.174,3.258-10.313,5.295-13.107,5.082C39.587,38.959,40.712,33.414,50.163,36.031z"/>
<path fill="#453631" d="M37.056,41.113c6.686-1.857,13.107-5.082,13.107-5.082C47.989,39.289,41.933,41.586,37.056,41.113z"/>
<path fill="#594640" d="M50.478,35.283c2.605,4.238-4.176,5.977-6.979,5.805C46.013,39.434,47.698,35.15,50.478,35.283z"/>
<path fill="#453631" d="M43.499,41.088c3.369-1.543,8.506-1.859,6.979-5.805C53.083,39.521,46.472,41.471,43.499,41.088z"/>
<path fill="#FFFFFF" d="M48.812,44.393c-0.777,2.035-3.943,1.738-4.523,0.314C44.728,42.418,48.386,42.223,48.812,44.393z"/>
<path fill="#613F34" d="M45.095,44.176c0,1.787,2.588,1.787,2.588,0C47.683,42.518,45.095,42.518,45.095,44.176z"/>
<path fill="#7D5037" d="M45.351,44.748c0,1.025,2.076,1.025,2.076,0C47.427,43.799,45.351,43.799,45.351,44.748z"/>
<path fill="#1A1626" d="M45.851,44.207c0,0.738,1.074,0.738,1.074,0C46.925,43.518,45.851,43.518,45.851,44.207z"/>
<path fill="#AB968C" d="M45.485,43.99c0,0.373,0.543,0.373,0.543,0C46.028,43.643,45.485,43.643,45.485,43.99z"/>
<path fill="#E6B045" d="M48.812,44.377c0-2.184-4.523-2.184-4.523,0.348C44.935,42.646,48.167,42.646,48.812,44.377z"/>
<path fill="#FFFFFF" d="M36.341,44.393c0.775,2.035,3.943,1.738,4.523,0.314C40.423,42.418,36.771,42.223,36.341,44.393z"/>
<path fill="#613F34" d="M37.472,44.176c0,1.787,2.586,1.787,2.586,0C40.058,42.518,37.472,42.518,37.472,44.176z"/>
<path fill="#7D5037" d="M37.728,44.746c0,1.027,2.074,1.027,2.074,0C39.802,43.799,37.728,43.799,37.728,44.746z"/>
<path fill="#1A1626" d="M38.228,44.205c0,0.74,1.074,0.74,1.074,0C39.302,43.516,38.228,43.516,38.228,44.205z"/>
<path fill="#AB968C" d="M37.86,43.988c0,0.375,0.541,0.375,0.541,0C38.401,43.641,37.86,43.641,37.86,43.988z"/>
<path fill="#E6B045" d="M36.341,44.377c0-2.184,4.523-2.184,4.523,0.346C40.218,42.646,36.985,42.646,36.341,44.377z"/>
<path fill="#C1873C" d="M49.229,42.162c-1.352-0.668-3.938-0.701-4.902-0.234c-0.203,0.09-0.068,0.727,0.105,0.664
	c1.344-0.496,3.508-0.51,4.766,0.043C49.364,42.707,49.437,42.258,49.229,42.162z"/>
<path fill="#C1873C" d="M35.921,42.162c1.354-0.668,3.939-0.701,4.904-0.234c0.203,0.09,0.066,0.727-0.104,0.664
	c-1.346-0.496-3.51-0.51-4.768,0.043C35.788,42.707,35.716,42.258,35.921,42.162z"/>
<path fill="#E6A400" d="M42.575,49.828c-1.328-0.391-3.299,0.186-3.299,0.186c0.754,0.816,1.301,1.873,3.299,1.873
	c2.291,0,2.68-1.201,3.299-1.873C45.874,50.014,43.903,49.436,42.575,49.828z"/>
<path fill="#FFFFFF" d="M39.782,50.152c1.393,1.166,4.207,1.174,5.605,0C43.903,50.215,41.278,50.217,39.782,50.152z"/>
<path fill="#E6B045" d="M44.407,48.08c0,1.191-3.662,1.191-3.662,0C40.745,47.807,44.407,47.807,44.407,48.08z"/>
<path fill="#4ABDFF" d="M29.136,55.246c-4.816-3.131-10.578-3.1-15.402,0.002c-1.656,1.063-2.205,6.811-2.205,6.811h19.793
	C31.322,62.059,30.775,56.307,29.136,55.246z"/>
<path fill="#E6B045" d="M24.349,53.484c0-0.537,0-2.924,0-2.924H18.5c0,0,0,2.35,0,2.924C18.5,55.852,24.349,55.852,24.349,53.484z"
	/>
<path fill="#594640" d="M21.423,32.043c-10.516,0-9.502,8.422-9.502,12.357h19.006C30.927,40.465,31.941,32.043,21.423,32.043z"/>
<path fill="#E6B045" d="M12.861,42.818c-3.34-0.51-1.162,7.4,1.451,5.219C15.519,47.027,14.421,43.057,12.861,42.818z"/>
<path fill="#E6B045" d="M29.988,42.818c-1.563,0.238-2.662,4.209-1.451,5.219C31.15,50.219,33.325,42.309,29.988,42.818z"/>
<path fill="#FFCC66" d="M29.878,42.65c0-5.613-3.32-4.363-8.455-4.363c-5.133,0-8.453-1.25-8.453,4.363c0,0,0.016,2.141,0.564,4.951
	c0.896,4.602,4.617,6.406,7.889,6.406s6.996-1.805,7.889-6.406C29.859,44.789,29.878,42.65,29.878,42.65z"/>
<path fill="#594640" d="M21.25,36.178c-1.535,2.734-7.289,4.447-9.268,4.268C13.775,38.639,14.568,33.98,21.25,36.178z"/>
<path fill="#453631" d="M11.982,40.445c2.52-0.656,5.791-1.996,9.268-4.268C19.714,38.912,14.662,41.072,11.982,40.445z"/>
<path fill="#594640" d="M29.011,36.031c-2.174,3.258-10.313,5.295-13.107,5.082C18.435,38.959,19.56,33.414,29.011,36.031z"/>
<path fill="#453631" d="M15.904,41.113c6.686-1.857,13.107-5.082,13.107-5.082C26.837,39.289,20.781,41.586,15.904,41.113z"/>
<path fill="#594640" d="M29.326,35.283c2.605,4.238-4.176,5.977-6.979,5.805C24.861,39.434,26.546,35.15,29.326,35.283z"/>
<path fill="#453631" d="M22.347,41.088c3.369-1.543,8.506-1.859,6.979-5.805C31.931,39.521,25.32,41.471,22.347,41.088z"/>
<path fill="#FFFFFF" d="M27.66,44.393c-0.777,2.035-3.943,1.738-4.523,0.314C23.576,42.418,27.234,42.223,27.66,44.393z"/>
<path fill="#613F34" d="M23.943,44.176c0,1.787,2.588,1.787,2.588,0C26.531,42.518,23.943,42.518,23.943,44.176z"/>
<path fill="#7D5037" d="M24.199,44.748c0,1.025,2.076,1.025,2.076,0C26.275,43.799,24.199,43.799,24.199,44.748z"/>
<path fill="#1A1626" d="M24.699,44.207c0,0.738,1.074,0.738,1.074,0C25.773,43.518,24.699,43.518,24.699,44.207z"/>
<path fill="#AB968C" d="M24.333,43.99c0,0.373,0.543,0.373,0.543,0C24.876,43.643,24.333,43.643,24.333,43.99z"/>
<path fill="#E6B045" d="M27.66,44.377c0-2.184-4.523-2.184-4.523,0.348C23.783,42.646,27.015,42.646,27.66,44.377z"/>
<path fill="#FFFFFF" d="M15.189,44.393c0.775,2.035,3.943,1.738,4.523,0.314C19.271,42.418,15.619,42.223,15.189,44.393z"/>
<path fill="#613F34" d="M16.32,44.176c0,1.787,2.586,1.787,2.586,0C18.906,42.518,16.32,42.518,16.32,44.176z"/>
<path fill="#7D5037" d="M16.576,44.746c0,1.027,2.074,1.027,2.074,0C18.65,43.799,16.576,43.799,16.576,44.746z"/>
<path fill="#1A1626" d="M17.076,44.205c0,0.74,1.074,0.74,1.074,0C18.15,43.516,17.076,43.516,17.076,44.205z"/>
<path fill="#AB968C" d="M16.708,43.988c0,0.375,0.541,0.375,0.541,0C17.25,43.641,16.708,43.641,16.708,43.988z"/>
<path fill="#E6B045" d="M15.189,44.377c0-2.184,4.523-2.184,4.523,0.346C19.066,42.646,15.833,42.646,15.189,44.377z"/>
<path fill="#C1873C" d="M28.078,42.162c-1.352-0.668-3.938-0.701-4.902-0.234c-0.203,0.09-0.068,0.727,0.105,0.664
	c1.344-0.496,3.508-0.51,4.766,0.043C28.212,42.707,28.285,42.258,28.078,42.162z"/>
<path fill="#C1873C" d="M14.769,42.162c1.354-0.668,3.939-0.701,4.904-0.234c0.203,0.09,0.066,0.727-0.104,0.664
	c-1.346-0.496-3.51-0.51-4.768,0.043C14.636,42.707,14.564,42.258,14.769,42.162z"/>
<path fill="#E6A400" d="M21.423,49.828c-1.328-0.391-3.299,0.186-3.299,0.186c0.754,0.816,1.301,1.873,3.299,1.873
	c2.291,0,2.68-1.201,3.299-1.873C24.722,50.014,22.751,49.436,21.423,49.828z"/>
<path fill="#FFFFFF" d="M18.63,50.152c1.393,1.166,4.207,1.174,5.605,0C22.751,50.215,20.126,50.217,18.63,50.152z"/>
<path fill="#E6B045" d="M23.255,48.08c0,1.191-3.662,1.191-3.662,0C19.593,47.807,23.255,47.807,23.255,48.08z"/>
<path fill="#FFCC66" d="M47.036,53.036c-1.614,0.012-4.026,2.17-2.333,2.126c-0.234,0.538-0.047,1.048,1.06,0.382
	c-0.341,0.563,0.522,0.71,1.093,0.394c0.127,1.163,2.136-0.062,2.888,0.119c1.077,0.258,1.361,0.505,1.561,0.296
	C52.756,54.833,49.712,53.01,47.036,53.036z"/>
<path fill="#FFCC66" d="M16.963,53.036c-2.676-0.026-5.72,1.797-4.268,3.316c0.199,0.209,0.483-0.038,1.561-0.296
	c0.752-0.181,2.761,1.044,2.888-0.119c0.57,0.316,1.434,0.169,1.093-0.394c1.106,0.666,1.294,0.156,1.06-0.382
	C20.99,55.206,18.578,53.048,16.963,53.036z"/>
</svg>
