<?xml version="1.0" encoding="utf-8"?>
<!-- Generator: Adobe Illustrator 19.0.0, SVG Export Plug-In . SVG Version: 6.00 Build 0)  -->
<svg version="1.1" id="Layer_1" xmlns="http://www.w3.org/2000/svg" xmlns:xlink="http://www.w3.org/1999/xlink" x="0px" y="0px"
	 width="64px" height="64px" viewBox="0 0 64 64" enable-background="new 0 0 64 64" xml:space="preserve">
<path fill="#D6A67A" d="M14.9,20.749c-5.719-1.031-1.252,14.957,3.225,10.547C20.197,29.252,17.574,21.232,14.9,20.749z"/>
<path fill="#D6A67A" d="M49.1,20.749c-2.674,0.483-5.299,8.503-3.223,10.547C50.354,35.706,54.814,19.718,49.1,20.749z"/>
<path fill="#E3C19B" d="M32,2.001c-11.824,0-17.521,8.945-16.807,21.384c0.143,2.503,1.693,10.665,3.158,13.593
	c1.498,2.995,6.512,7.614,9.584,8.57c1.94,0.604,6.188,0.604,8.127,0c3.072-0.956,8.086-5.575,9.586-8.57
	c1.465-2.928,3.016-11.09,3.158-13.593C49.522,10.946,43.824,2.001,32,2.001z"/>
<path fill="#D6A67A" d="M35.666,31.465c0,2.386-7.332,2.386-7.332,0C28.334,30.917,35.666,30.917,35.666,31.465z"/>
<path fill="#EFDE8B" d="M32,2c-8.135,0-13.049,2.688-15.168,1.655c0,0-0.23,1.388,0.6,2.291c0,0-0.877,0.758-2.291-0.522
	C13.793,9.802,17.793,12.338,32,12.338s10.813-3.46,17.797,2.616C49.111,7.465,44.354,2,32,2z"/>
<path fill="#BA9D52" d="M38.016,8.529c-7.822,2.888-10.682-2.321-18.06-2.824c3.51,1.657,5.223,4.208,8.105,6.049
	c-6.273-2.101-10.877-5.712-11.226-8.085c0,0-1.047,3.464,3.094,6.053c-3.959,0.367-4.785-4.283-4.785-4.283
	c-2.004,3.221-1.727,13.607,0.5,21.313c0.371-2.75-0.475-3.887,0.797-7.201c3.805-9.904,1.355-5.745,15.563-5.745
	c14.205,0,11.641-3.793,15.561,5.745c1.17,2.844,0.426,4.451,0.799,7.201C53.031,9.374,46.314,5.467,38.016,8.529z"/>
<path fill="#FFFFFF" d="M44.658,24.347c-1.58,4.136-8.008,3.529-9.186,0.635C36.367,20.332,43.791,19.934,44.658,24.347z"/>
<path fill="#FFFFFF" d="M19.34,24.347c1.58,4.136,8.01,3.529,9.186,0.635C27.631,20.33,20.209,19.933,19.34,24.347z"/>
<path fill="#BF8C6B" d="M45.314,19.368c-2.705-1.342-7.879-1.407-9.807-0.472c-0.412,0.182-0.141,1.454,0.207,1.332
	c2.688-0.995,7.02-1.019,9.535,0.086C45.584,20.456,45.725,19.557,45.314,19.368z"/>
<path fill="#BF8C6B" d="M18.686,19.368c2.703-1.342,7.877-1.407,9.807-0.472c0.412,0.182,0.141,1.454-0.207,1.332
	c-2.691-0.995-7.019-1.019-9.537,0.086C18.414,20.456,18.275,19.557,18.686,19.368z"/>
<path fill="#613F34" d="M37.113,23.906c0,3.629,5.25,3.629,5.25,0C42.363,20.537,37.113,20.537,37.113,23.906z"/>
<path fill="#7D5037" d="M37.633,25.067c0,2.081,4.211,2.081,4.211,0C41.844,23.136,37.633,23.136,37.633,25.067z"/>
<path fill="#1A1626" d="M38.648,23.963c0,1.507,2.18,1.507,2.18,0C40.828,22.565,38.648,22.565,38.648,23.963z"/>
<path fill="#AB968C" d="M37.904,23.523c0,0.761,1.101,0.761,1.101,0C39.006,22.817,37.904,22.817,37.904,23.523z"/>
<path fill="#613F34" d="M21.637,23.905c0,3.63,5.25,3.63,5.25,0C26.887,20.536,21.637,20.536,21.637,23.905z"/>
<path fill="#7D5037" d="M22.156,25.066c0,2.081,4.211,2.081,4.211,0C26.367,23.135,22.156,23.135,22.156,25.066z"/>
<path fill="#1A1626" d="M23.172,23.963c0,1.506,2.18,1.506,2.18,0C25.352,22.564,23.172,22.564,23.172,23.963z"/>
<path fill="#AB968C" d="M22.428,23.522c0,0.761,1.1,0.761,1.1,0C23.527,22.816,22.428,22.816,22.428,23.522z"/>
<path fill="#D6A67A" d="M44.658,24.315c0-4.44-9.186-4.44-9.186,0.703C36.785,20.799,43.346,20.799,44.658,24.315z"/>
<path fill="#D6A67A" d="M19.34,24.315c0-4.44,9.186-4.44,9.186,0.702C27.215,20.796,20.652,20.796,19.34,24.315z"/>
<path fill="#BEC3CF" d="M53.832,59.5H10.168c-1.279,0-1.209,1.125-1.279,2.5h46.223C55.041,60.625,55.111,59.5,53.832,59.5z"/>
<path fill="#99A8AE" d="M10.332,60c0-0.174,3.719-0.313,21.668-0.313S53.666,59.826,53.666,60c0,0.17-3.717,0.313-21.666,0.313
	S10.332,60.17,10.332,60"/>
<path fill="#CFD8DD" d="M56.986,36H7.014c-0.625,0-1.078,0.412-1.006,0.916l3.148,22.166C9.227,59.586,9.797,60,10.42,60h43.158
	c0.625,0,1.195-0.414,1.266-0.918l3.148-22.166C58.064,36.412,57.609,36,56.986,36"/>
<path fill="#FFFFFF" d="M55.738,36.922c0,0.256-4.074,0.463-23.738,0.463c-19.666,0-23.738-0.207-23.738-0.463
	c0-0.254,4.072-0.461,23.738-0.461C51.664,36.461,55.738,36.668,55.738,36.922"/>
<path fill="#99A8AE" d="M16.758,61h-3.934c-1.377,0-1.377-2,0-2h3.934C18.137,59,18.137,61,16.758,61z"/>
<path fill="#99A8AE" d="M51.174,61H47.24c-1.377,0-1.377-2,0-2h3.934C52.553,59,52.553,61,51.174,61z"/>
<path fill="#99A8AE" d="M44.406,61.137c0,0.691-1,0.691-1,0C43.406,60.494,44.406,60.494,44.406,61.137z"/>
<path fill="#99A8AE" d="M42.375,61.137c0,0.691-1,0.691-1,0C41.375,60.494,42.375,60.494,42.375,61.137z"/>
<path id="Shape_4_" fill="#FFFFFF" d="M32,45.999c2.068,0,3.75,1.346,3.75,3s-1.682,3-3.75,3c-2.066,0-3.75-1.346-3.75-3
	S29.934,45.999,32,45.999z M32,44.999c-2.76,0-5,1.791-5,4s2.24,4,5,4c2.762,0,5-1.791,5-4S34.762,44.999,32,44.999z"/>
<path id="Combined-Shape_4_" fill="#FFFFFF" d="M33.002,49.399c-0.168,0-0.252-0.066-0.252-0.199v-0.4
	c0-0.135,0.084-0.201,0.252-0.201h1.623c0.168,0,0.252,0.066,0.252,0.201v0.199c0,1.271-1.287,2.301-2.877,2.301
	c-0.772,0-1.496-0.246-2.031-0.674c-0.119-0.096-0.119-0.188-0.002-0.283l0.533-0.424c0.117-0.094,0.234-0.094,0.352,0
	C31.156,50.161,31.564,50.3,32,50.3c0.723,0,1.336-0.377,1.549-0.9H33.002z"/>
</svg>
