<?xml version="1.0" encoding="utf-8"?>
<!-- Generator: Adobe Illustrator 15.0.0, SVG Export Plug-In . SVG Version: 6.00 Build 0)  -->
<!DOCTYPE svg PUBLIC "-//W3C//DTD SVG 1.1//EN" "http://www.w3.org/Graphics/SVG/1.1/DTD/svg11.dtd" [
	<!ENTITY ns_flows "http://ns.adobe.com/Flows/1.0/">
	<!ENTITY ns_extend "http://ns.adobe.com/Extensibility/1.0/">
	<!ENTITY ns_ai "http://ns.adobe.com/AdobeIllustrator/10.0/">
	<!ENTITY ns_graphs "http://ns.adobe.com/Graphs/1.0/">
]>
<svg version="1.1" id="Layer_1" xmlns:x="&ns_extend;" xmlns:i="&ns_ai;" xmlns:graph="&ns_graphs;"
	 xmlns="http://www.w3.org/2000/svg" xmlns:xlink="http://www.w3.org/1999/xlink" xmlns:a="http://ns.adobe.com/AdobeSVGViewerExtensions/3.0/"
	 x="0px" y="0px" width="64px" height="64px" viewBox="0 0 64 64" enable-background="new 0 0 64 64" xml:space="preserve">
<path fill="#3B2C29" d="M20.146,15.477c-7.992,37.396-7.262,36.596,9.564,36.596C20.399,44.973,38.233,14.968,20.146,15.477z"/>
<path fill="#453631" d="M17.263,14.897c-5.832,28.413-0.801,35.709,3.668,37.175h5.119C14.069,42.871,32.798,14.338,17.263,14.897z"
	/>
<path fill="#3B2C29" d="M43.659,15.475c7.992,37.397,7.26,36.596-9.563,36.596C42.657,46.373,25.571,14.966,43.659,15.475z"/>
<path fill="#453631" d="M46.54,14.896c8.527,25.85-0.018,35.979-3.666,37.175h-5.119C49.735,43.621,31.009,14.336,46.54,14.896z"/>
<path fill="#594640" d="M47.96,28.787c2.469,6.571,0.025,20.058-5.086,23.286c5.666,0,9.117-8.549,10.799-20.31
	C55.776,17.068,43.56,17.06,47.96,28.787z"/>
<path fill="#594640" d="M10.765,34.489c2.064,10.614,4.604,17.583,10.166,17.583c-6.201-6.998-5.471-21.76-3.709-25.433
	C26.204,20.813,7.272,16.537,10.765,34.489z"/>
<path fill="#006DAE" d="M12.257,53.047c2.4-1.32,12.363-4.807,12.363-4.807h14.84c0,0,9.953,3.478,12.342,4.803
	C55.271,54.967,56.001,62,56.001,62h-48C8.001,62,8.774,54.959,12.257,53.047z"/>
<polygon fill="#E6A400" points="25.302,51.092 32.001,55.51 38.698,51.092 38.698,42.558 25.302,42.558 "/>
<rect x="17.628" y="57.43" fill="#FFE12C" width="8.727" height="0.883"/>
<rect x="17.628" y="60.232" fill="#014D87" width="8.727" height="1.768"/>
<rect x="32.001" y="54.861" fill="#014D87" width="3.137" height="7.139"/>
<polygon fill="#018BC9" points="26.354,59.164 17.628,59.164 17.628,60.329 18.603,60.329 21.991,61.564 25.378,60.329 
	26.354,60.329 "/>
<path fill="#FFE12C" d="M41.591,54.818l0.854-1.028c1.113,0.776,2.035-0.175,2.035-0.175s0.924,0.951,2.035,0.175l0.852,1.028
	c-1.428,0.906,0.498,2.371,0.043,3.957c-0.635,2.204-2.156,1.964-2.93,2.84c-0.775-0.876-2.293-0.636-2.928-2.84
	C41.097,57.189,43.024,55.725,41.591,54.818z"/>
<path fill="#018BC9" d="M24.354,55.341c0,0-3.227-3.596-0.814-7.212c0.41-0.612,1.754-1.631,1.754-1.631
	c0,2.444,6.707,8.128,6.707,8.128v1.036c0,0-0.932-1.065-3.771-0.543c0,0-0.297-1.074,0.1-2.034
	C28.329,53.085,26.229,53.473,24.354,55.341z"/>
<path fill="#018BC9" d="M39.647,55.341c0,0,3.225-3.596,0.813-7.212c-0.41-0.612-1.754-1.631-1.754-1.631
	c0,2.444-6.705,8.128-6.705,8.128v1.919c0,0,0.932-1.948,3.771-1.426c0,0,0.295-1.074-0.102-2.034
	C35.671,53.085,37.772,53.473,39.647,55.341z"/>
<path fill="#006DAE" d="M34.659,59.349c0,1.177-2.182,1.177-2.182,0C32.478,58.17,34.659,58.17,34.659,59.349z"/>
<path fill="#014D87" d="M42.274,49.033l0.895,2.7c0,0,7.615,2.991,9.41,3.776c1.781,0.78,1.059-1.734-0.342-2.645
	C51.716,52.525,45.374,49.876,42.274,49.033z"/>
<path fill="#006DAE" d="M45.511,50.987c0.588,1.079-1.09,1.024-1.725-0.036C43.081,49.772,44.897,49.863,45.511,50.987z"/>
<path fill="#014D87" d="M21.724,49.033l-0.895,2.7c0,0-7.613,2.991-9.408,3.776c-1.779,0.78-1.059-1.734,0.34-2.645
	C12.286,52.525,18.624,49.876,21.724,49.033z"/>
<path fill="#006DAE" d="M18.487,50.987c-0.588,1.079,1.094,1.024,1.729-0.036C20.921,49.772,19.101,49.863,18.487,50.987z"/>
<path fill="#E6A400" d="M46.661,57.973c0,2.461-4.363,2.461-4.363,0S46.661,55.512,46.661,57.973z"/>
<rect x="42.843" y="54.941" fill="#E6A400" width="3.273" height="0.615"/>
<path fill="#014D87" d="M13.739,62c0.51-1.772-0.088-4.469-0.727-5.953C12.417,54.664,12.644,61.025,13.739,62z"/>
<path fill="#014D87" d="M50.989,56.047c-0.639,1.484-1.24,4.181-0.729,5.953C51.358,61.025,51.581,54.664,50.989,56.047z"/>
<path opacity="0.2" d="M13.575,19.285c0,0-0.104,0.342-0.264,0.92C16.173,22.688,25.362,24,32.003,24
	c6.645,0,15.762-1.313,18.619-3.795c-0.139-0.576-0.256-0.871-0.256-0.871L13.575,19.285z"/>
<path fill="#FFCC66" d="M32.001,6.489c-11.609,0-17.201,9.455-16.502,21.611c0.143,2.444,0.822,5.968,1.66,8.989
	c1.742,6.278,10.93,12.601,14.842,12.601c3.91,0,13.1-6.322,14.84-12.601c0.84-3.021,1.52-6.545,1.664-8.989
	C49.202,15.944,43.612,6.489,32.001,6.489z"/>
<path fill="#D47706" d="M32.001,39.661c-2.822-1.241-2.844-0.05-7.199,0.242c1.635,1.856,2.838,4.243,7.197,4.243
	c5.004,0,5.85-2.711,7.203-4.243C34.843,39.611,34.823,38.42,32.001,39.661z"/>
<path fill="#FFFFFF" d="M26.108,40.365c2.844,2.96,8.977,2.921,11.785,0.002C33.515,40.838,30.489,40.838,26.108,40.365z"/>
<path fill="#594640" d="M44.796,23.684c-2.617-1.559-7.309-1.75-9.166-0.688c-0.393,0.214-0.287,1.341,0.053,1.2
	c2.648-1.103,6.682-1.158,9.168,0.117C45.185,24.483,45.19,23.911,44.796,23.684z"/>
<path fill="#594640" d="M19.208,23.684c2.615-1.559,7.307-1.75,9.166-0.688c0.393,0.214,0.289,1.341-0.055,1.2
	c-2.648-1.103-6.68-1.159-9.166,0.117C18.819,24.483,18.812,23.911,19.208,23.684z"/>
<path fill="#E6B045" d="M35.601,35.419c0,2.342-7.199,2.342-7.199,0C28.401,34.881,35.601,34.881,35.601,35.419z"/>
<path fill="#FFFFFF" d="M44.542,28.431c-1.551,4.06-7.861,3.464-9.016,0.624C36.401,24.489,43.688,24.098,44.542,28.431z"/>
<path fill="#613F34" d="M37.106,27.99c0,3.596,5.201,3.596,5.201,0C42.308,24.652,37.106,24.652,37.106,27.99z"/>
<path fill="#7D5037" d="M37.62,29.14c0,2.063,4.172,2.063,4.172,0C41.792,27.227,37.62,27.227,37.62,29.14z"/>
<path fill="#1A1626" d="M38.628,28.046c0,1.492,2.158,1.492,2.158,0C40.786,26.661,38.628,26.661,38.628,28.046z"/>
<path fill="#AB968C" d="M37.89,27.61c0,0.754,1.09,0.754,1.09,0C38.979,26.911,37.89,26.911,37.89,27.61z"/>
<path fill="#45332C" d="M44.542,28.4c0-4.361-9.016-4.361-9.016,0.691C36.812,24.945,43.255,24.945,44.542,28.4z"/>
<path fill="#FFFFFF" d="M19.46,28.431c1.553,4.06,7.863,3.466,9.02,0.624C27.603,24.489,20.315,24.098,19.46,28.431z"/>
<path fill="#613F34" d="M21.696,27.995c0,3.596,5.199,3.596,5.199,0C26.896,24.658,21.696,24.658,21.696,27.995z"/>
<path fill="#7D5037" d="M22.21,29.146c0,2.062,4.172,2.062,4.172,0C26.382,27.232,22.21,27.232,22.21,29.146z"/>
<path fill="#1A1626" d="M23.216,28.052c0,1.492,2.16,1.492,2.16,0C25.376,26.667,23.216,26.667,23.216,28.052z"/>
<path fill="#AB968C" d="M22.479,27.616c0,0.754,1.09,0.754,1.09,0C23.569,26.916,22.479,26.916,22.479,27.616z"/>
<path fill="#45332C" d="M19.46,28.4c0-4.361,9.02-4.361,9.02,0.689C27.192,24.944,20.749,24.944,19.46,28.4z"/>
<path fill="#594640" d="M43.901,8.18c-7.467,8.341-0.342,8.88,4.059,20.607c2.469,6.571,4.031,14.737,5.713,2.976
	C55.776,17.068,47.696,6.952,43.901,8.18z"/>
<path fill="#594640" d="M25.571,4.985c-9.471,2.43-18.299,11.552-14.807,29.504c2.064,10.614,2.926-3.804,4.688-7.477
	c8.984-5.827,26.113-10.614,28.449-18.833C45.085,6.283,35.046,2.279,25.571,4.985z"/>
<path fill="#453631" d="M18.315,18.063c4.004-0.885,23.162-1.302,25.586-9.883C39.374,12.113,34.683,13.184,18.315,18.063z"/>
<path fill="#453631" d="M11.411,31.711c6.717-9.774,28.725-8.695,32.49-23.531C36.593,20.631,13.247,22.315,11.411,31.711z"/>
<path fill="#453631" d="M41.687,10.213c-1.734,2.977,4.291-1.398,10.785,17.785C50.87,16.784,45.384,9.062,41.687,10.213z"/>
<path opacity="0.2" d="M10.399,21.141c0,0-0.055,4.676,21.602,4.676s21.594-4.676,21.594-4.676H10.399z"/>
<path fill="#014D87" d="M56.165,15.123c-5.086-3.639-5.664-8.916-7.723-9.201C35.63,4.137,35.194,2,32.001,2
	c-3.197,0-3.631,2.137-16.443,3.922c-2.055,0.285-2.635,5.563-7.725,9.201c-2.451,1.756,3.49,3.307,5.617,6.443
	c1.148,1.691,35.955,1.691,37.1,0C52.679,18.43,58.622,16.879,56.165,15.123z"/>
<path fill="#006DAE" d="M32.001,12.949c0,0-16.773,0-21.656,3.74v3.508h21.656h21.656v-3.508
	C48.774,12.949,32.001,12.949,32.001,12.949z"/>
<path fill="#302C3B" d="M32.001,18.525c-20.01,0-21.656,2.615-21.656,2.615s0,3.676,21.656,3.676s21.656-3.676,21.656-3.676
	S52.009,18.525,32.001,18.525z"/>
<path fill="#FFE12C" d="M32.001,17.523c0,0-13.215-0.205-21.656,2.023v1.594c0,0,3.5-1.928,21.656-1.928
	c18.16,0,21.656,1.928,21.656,1.928v-1.594C45.216,17.318,32.001,17.523,32.001,17.523z"/>
<path fill="#FFE12C" d="M36.769,7.031L35.358,5.6c-1.836,1.076-3.357-0.246-3.357-0.246S30.478,6.676,28.644,5.6l-1.408,1.432
	c2.359,1.258-0.818,3.295-0.068,5.502c1.047,3.063,3.557,2.729,4.834,3.945c1.277-1.217,3.787-0.883,4.832-3.945
	C37.587,10.326,34.405,8.289,36.769,7.031z"/>
</svg>
