<?xml version="1.0" encoding="utf-8"?>
<!-- Generator: Adobe Illustrator 15.0.0, SVG Export Plug-In . SVG Version: 6.00 Build 0)  -->
<!DOCTYPE svg PUBLIC "-//W3C//DTD SVG 1.1//EN" "http://www.w3.org/Graphics/SVG/1.1/DTD/svg11.dtd" [
	<!ENTITY ns_flows "http://ns.adobe.com/Flows/1.0/">
	<!ENTITY ns_extend "http://ns.adobe.com/Extensibility/1.0/">
	<!ENTITY ns_ai "http://ns.adobe.com/AdobeIllustrator/10.0/">
	<!ENTITY ns_graphs "http://ns.adobe.com/Graphs/1.0/">
]>
<svg version="1.1" id="Layer_1" xmlns:x="&ns_extend;" xmlns:i="&ns_ai;" xmlns:graph="&ns_graphs;"
	 xmlns="http://www.w3.org/2000/svg" xmlns:xlink="http://www.w3.org/1999/xlink" xmlns:a="http://ns.adobe.com/AdobeSVGViewerExtensions/3.0/"
	 x="0px" y="0px" width="64px" height="64px" viewBox="0 0 64 64" enable-background="new 0 0 64 64" xml:space="preserve">
<path fill="#854AB8" d="M8.105,27.32c-0.572,7.352,0.697,12.645,5.262,17.021c5.375,5.16,20.928,5.16,26.303,0
	c4.564-4.377,5.834-9.67,5.262-17.021C43.281,6.14,9.188,13.45,8.105,27.32z"/>
<path fill="#302C3B" d="M8.137,53.711c2.234-1.221,11.51-4.451,11.51-4.451h13.818c0,0,9.266,3.223,11.488,4.447
	C48.184,55.488,48.865,62,48.865,62H4.174C4.174,62,4.895,55.48,8.137,53.711z"/>
<polygon fill="#E3C19B" points="20.283,51.9 26.518,61.186 32.756,51.9 32.756,44 20.283,44 "/>
<path fill="#1A1626" d="M8.137,53.711c7.889-4.287,12.916-0.486,12.916-0.486L26.518,62C26.518,62,18.148,52.854,8.137,53.711z"/>
<path fill="#4E5E67" d="M6.742,53.094c7.523-8.037,13.531-6.93,13.531-6.93c-2.334,5.045,0.176,7.506,6.244,14.828V62
	C26.518,62,18.076,51.385,6.742,53.094z"/>
<path fill="#AA5BEF" d="M8.367,52.367c5.713-5.826,11.906-6.02,11.906-6.02c0,5.832,0.809,5.787,6.244,14.645
	C26.518,60.992,18.791,51.209,8.367,52.367z"/>
<path fill="#1A1626" d="M9.518,62c0.475-1.641-0.084-4.137-0.678-5.51C8.287,55.209,8.496,61.098,9.518,62z"/>
<path fill="#1A1626" d="M44.199,56.49c-0.596,1.373-1.154,3.869-0.678,5.51C44.541,61.098,44.752,55.209,44.199,56.49z"/>
<path fill="#1A1626" d="M44.902,53.711c-7.891-4.287-12.918-0.486-12.918-0.486L26.52,62C26.52,62,34.889,52.854,44.902,53.711z"/>
<path fill="#4E5E67" d="M46.295,53.094c-7.523-8.037-13.531-6.93-13.531-6.93c2.336,5.045-0.176,7.506-6.244,14.828V62
	C26.52,62,34.963,51.385,46.295,53.094z"/>
<path fill="#AA5BEF" d="M44.67,52.367c-5.713-5.826-11.906-6.02-11.906-6.02c0,5.832-0.807,5.787-6.244,14.645
	C26.52,60.992,34.246,51.209,44.67,52.367z"/>
<path fill="#D6A67A" d="M19.697,45.689c6.203,7.16,7.449,7.154,13.648-0.004L19.697,45.689z"/>
<path fill="#E3C19B" d="M26.52,5.748c-11.609,0-17.201,9.455-16.502,21.611c0.143,2.443,0.822,5.969,1.662,8.988
	c1.74,6.279,10.928,12.6,14.84,12.6s13.1-6.32,14.842-12.6c0.838-3.02,1.518-6.545,1.662-8.988
	C43.721,15.203,38.131,5.748,26.52,5.748z"/>
<path fill="#FFFFFF" d="M39.063,27.69c-1.553,4.06-7.861,3.464-9.018,0.624C30.922,23.748,38.209,23.357,39.063,27.69z"/>
<path fill="#FFFFFF" d="M13.98,27.69c1.551,4.06,7.861,3.466,9.018,0.624C22.123,23.748,14.834,23.357,13.98,27.69z"/>
<path fill="#854AB8" d="M26.521,38.92c-2.822-1.24-2.844-0.05-7.201,0.242c1.637,1.856,2.84,4.244,7.199,4.244
	c5.002,0,5.848-2.711,7.203-4.244C29.363,38.87,29.344,37.68,26.521,38.92z"/>
<path fill="#FFFFFF" d="M20.629,39.625c2.844,2.959,8.977,2.92,11.783,0.002C28.035,40.097,25.008,40.097,20.629,39.625z"/>
<path fill="#594640" d="M39.314,22.943c-2.615-1.56-7.307-1.75-9.164-0.688c-0.395,0.215-0.287,1.341,0.053,1.2
	c2.648-1.103,6.682-1.157,9.168,0.117C39.703,23.742,39.711,23.17,39.314,22.943z"/>
<path fill="#594640" d="M13.727,22.943c2.615-1.56,7.307-1.75,9.166-0.688c0.395,0.215,0.289,1.341-0.053,1.2
	c-2.648-1.103-6.68-1.159-9.168,0.117C13.338,23.742,13.332,23.17,13.727,22.943z"/>
<path fill="#D6A67A" d="M30.121,34.678c0,2.342-7.201,2.342-7.201,0C22.92,34.141,30.121,34.141,30.121,34.678z"/>
<path fill="#613F34" d="M31.627,27.249c0,3.596,5.199,3.596,5.199,0C36.826,23.912,31.627,23.912,31.627,27.249z"/>
<path fill="#7D5037" d="M32.141,28.398c0,2.063,4.172,2.063,4.172,0C36.313,26.486,32.141,26.486,32.141,28.398z"/>
<path fill="#1A1626" d="M33.146,27.306c0,1.492,2.16,1.492,2.16,0C35.307,25.92,33.146,25.92,33.146,27.306z"/>
<path fill="#AB968C" d="M32.41,26.869c0,0.754,1.09,0.754,1.09,0C33.5,26.17,32.41,26.17,32.41,26.869z"/>
<path fill="#613F34" d="M16.215,27.254c0,3.596,5.201,3.596,5.201,0C21.416,23.917,16.215,23.917,16.215,27.254z"/>
<path fill="#7D5037" d="M16.729,28.404c0,2.063,4.172,2.063,4.172,0C20.9,26.491,16.729,26.491,16.729,28.404z"/>
<path fill="#1A1626" d="M17.736,27.311c0,1.492,2.158,1.492,2.158,0C19.895,25.926,17.736,25.926,17.736,27.311z"/>
<path fill="#AB968C" d="M16.998,26.875c0,0.754,1.09,0.754,1.09,0C18.088,26.176,16.998,26.176,16.998,26.875z"/>
<path fill="#45332C" d="M39.063,27.659c0-4.36-9.018-4.36-9.018,0.69C31.332,24.205,37.775,24.205,39.063,27.659z"/>
<path fill="#45332C" d="M13.98,27.659c0-4.36,9.018-4.36,9.018,0.688C21.711,24.203,15.268,24.203,13.98,27.659z"/>
<path fill="#AA5BEF" d="M39.883,43.633c6.674-13.854,0.174-29.597-5.576-31.7C37.744-1.663,58.557,25.57,39.883,43.633z"/>
<path fill="#C28FEF" d="M44.537,40.553c7.082-24.653-11.252-31.028-8.014-35.251C38.525-0.882,57.795,20.202,44.537,40.553z"/>
<path fill="#854AB8" d="M36.859,8.717c-2.559,2.466,6.01,1.516,9.313,20.477C45.994,12.982,38.158,7.481,36.859,8.717z"/>
<path fill="#C28FEF" d="M26.711,4.734C8.727,4.908-1.184,27.082,7.137,46.627c-0.094-2.93-1.965-21.049,19.953-28.813
	C38.541,13.758,39.398,4.609,26.711,4.734z"/>
<path fill="#AA5BEF" d="M3.578,41.395c0.201-22.912,26.629-17.746,36.02-34.278C41.465-4.573-1.77,4.314,3.578,41.395z"/>
<path fill="#C28FEF" d="M2,28.188C8.9,7.875,35.723,8.67,36.789,6.133C39.605-0.578,5.5-2.664,2,28.188z"/>
<path fill="#854AB8" d="M13.457,17.075c4.092-0.893,23.666-1.313,26.141-9.959C34.973,11.08,30.182,12.159,13.457,17.075z"/>
<path fill="#854AB8" d="M6.402,30.83c6.865-9.851,29.35-8.763,33.195-23.714C32.131,19.664,8.279,21.361,6.402,30.83z"/>
<rect x="56" y="54" fill-rule="evenodd" clip-rule="evenodd" fill="#4E5E67" width="1.332" height="8"/>
<rect x="56.666" y="54" fill-rule="evenodd" clip-rule="evenodd" fill="#302C3B" width="1.334" height="8"/>
<path fill="#302C3B" d="M39.83,45.08c2.021,1.711,5.051,1.615,6.957-0.293c1.906-1.906,2.004-4.934,0.295-6.957L39.83,45.08z"/>
<path fill="#302C3B" d="M39.506,37.506c-1.904,1.908-2.002,4.938-0.295,6.957l7.254-7.25C44.441,35.502,41.414,35.602,39.506,37.506
	z"/>
<path fill="#4E5E67" d="M46.582,37.094l-7.488,7.492c0.094,0.107,0.506,0.521,0.617,0.615l7.49-7.488
	C47.107,37.6,46.693,37.188,46.582,37.094z"/>
<path fill="#6E8189" d="M40.428,43.25l-1.002,1.002c0.1,0.102,0.516,0.516,0.615,0.617l1.006-1.004
	C40.945,43.764,40.533,43.348,40.428,43.25z"/>
<path fill-rule="evenodd" clip-rule="evenodd" fill="#4E5E67" d="M38.98,43.361c0.422,0.555,0.307-3.094,0.408-4.842
	C39.455,37.396,37.271,41.109,38.98,43.361z"/>
<polygon fill="#302C3B" points="42.881,46.287 44.268,46.947 58.309,58.305 58.795,57.816 61.576,60 62,59.576 59.816,56.797 
	60.303,56.311 48.947,42.268 48.287,40.881 "/>
<polygon fill="#4E5E67" points="45.551,45.666 44.361,44.807 43.176,45.992 44.564,46.652 58.564,58.047 59.053,57.557 "/>
<polygon fill="#4E5E67" points="48.965,51.033 51.057,52.908 54.906,49.057 53.033,46.967 "/>
<polygon fill="#6E8189" points="49.223,50.777 51.32,52.643 52.182,51.783 50.082,49.92 "/>
<rect x="58.061" y="57.23" transform="matrix(0.7068 -0.7075 0.7075 0.7068 -23.2197 58.9267)" fill="#4E5E67" width="2.822" height="0.486"/>
<polygon fill="#6E8189" points="59.053,57.557 58.564,58.047 58.895,58.396 59.393,57.896 "/>
</svg>
