<?xml version="1.0" encoding="utf-8"?>
<!-- Generator: Adobe Illustrator 19.0.0, SVG Export Plug-In . SVG Version: 6.00 Build 0)  -->
<svg version="1.1" id="Layer_1" xmlns="http://www.w3.org/2000/svg" xmlns:xlink="http://www.w3.org/1999/xlink" x="0px" y="0px"
	 width="64px" height="64px" viewBox="0 0 64 64" enable-background="new 0 0 64 64" xml:space="preserve">
<path fill="#018BC9" d="M9.788,50.611c2.7-1.68,13.909-6.116,13.909-6.116h16.693c0,0,11.199,4.426,13.882,6.112
	C58.18,53.052,59,62,59,62H5C5,62,5.871,53.045,9.788,50.611"/>
<rect x="23.482" y="38.366" fill="#755035" width="17.037" height="10.858"/>
<path fill="#006DAE" d="M53.361,54.426c-0.717,1.891-1.394,5.317-0.818,7.574C53.777,60.759,54.028,52.668,53.361,54.426"/>
<path fill="#006DAE" d="M11.779,62c0.576-2.255-0.101-5.686-0.82-7.572C10.29,52.666,10.543,60.759,11.779,62"/>
<polygon fill="#FEEC9A" points="36.095,62 33.92,53.234 34.937,50.517 32,48.923 29.063,50.517 30.078,53.234 27.905,62 "/>
<path fill="#006DAE" d="M32,48.923c-3.242,0-7.326-0.82-8.676-5.128c-2.126,1.482-1.272,5.128-0.766,11.764
	C25.214,55.27,27.096,51.4,32,48.923z"/>
<path fill="#018BC9" d="M32,48.923c-3.242,0-7.123-1.624-8.474-5.931c-2.126,1.482-0.944,4.548-0.438,11.186
	C25.743,53.887,27.096,51.4,32,48.923z"/>
<path fill="#006DAE" d="M32,48.923c3.242,0,7.326-0.82,8.676-5.128c2.126,1.482,1.272,5.128,0.766,11.764
	C38.786,55.27,36.904,51.4,32,48.923z"/>
<path fill="#018BC9" d="M32,48.923c3.242,0,7.123-1.624,8.474-5.931c2.126,1.482,0.944,4.548,0.439,11.186
	C38.257,53.887,36.904,51.4,32,48.923z"/>
<polygon fill="#BDC70E" points="35.257,58.627 27.905,62 28.823,58.3 34.522,55.664 "/>
<polygon fill="#BDC70E" points="34.006,53.577 29.478,55.664 30.078,53.234 29.714,52.259 34.151,50.207 34.858,50.722 
	33.92,53.234 "/>
<path fill="#9DA60C" d="M33.42,52.933c-0.562-0.224-2.278-0.224-2.84,0C29.289,53.443,34.711,53.443,33.42,52.933z"/>
<path fill="#755035" d="M14.901,20.749c-5.719-1.031-1.252,14.957,3.225,10.547C20.198,29.252,17.575,21.233,14.901,20.749z"/>
<path fill="#755035" d="M49.101,20.749c-2.674,0.483-5.299,8.503-3.223,10.547C50.354,35.706,54.815,19.718,49.101,20.749z"/>
<path fill="#916B50" d="M32.001,2.001c-11.824,0-17.521,8.945-16.807,21.384c0.143,2.503,1.693,10.665,3.158,13.593
	c1.498,2.995,6.512,7.614,9.584,8.57c1.939,0.604,6.188,0.604,8.127,0c3.072-0.956,8.086-5.575,9.586-8.57
	c1.465-2.928,3.016-11.09,3.158-13.593C49.522,10.946,43.825,2.001,32.001,2.001z"/>
<path fill="#664129" d="M32.001,35.862c-2.66-0.782-6.6,0.37-6.6,0.37c1.5,1.635,2.6,3.756,6.6,3.756c4.582,0,5.359-2.407,6.6-3.756
	C38.601,36.232,34.657,35.076,32.001,35.862z"/>
<path fill="#FFFFFF" d="M26.407,36.509c2.787,2.34,8.418,2.354,11.221,0C34.657,36.637,29.399,36.638,26.407,36.509z"/>
<path fill="#755035" d="M35.667,31.465c0,2.386-7.332,2.386-7.332,0C28.335,30.917,35.667,30.917,35.667,31.465z"/>
<path fill="#614036" d="M32.001,2c-8.135,0-13.049,2.688-15.168,1.655c0,0-0.23,1.388,0.6,2.291c0,0-0.877,0.758-2.291-0.522
	c-1.348,4.377,2.652,6.913,16.859,6.913c14.207,0,10.813-3.46,17.797,2.616C49.112,7.465,44.354,2,32.001,2z"/>
<path fill="#4A2E24" d="M38.017,8.529c-7.822,2.888-10.682-2.321-18.061-2.824c3.51,1.657,5.223,4.208,8.106,6.049
	c-6.273-2.1-10.877-5.712-11.227-8.085c0,0-1.047,3.464,3.094,6.053c-3.959,0.367-4.785-4.283-4.785-4.283
	c-2.004,3.221-1.727,13.607,0.5,21.313c0.371-2.75-0.475-3.887,0.797-7.201c3.805-9.904,1.356-5.745,15.563-5.745
	c14.205,0,11.641-3.793,15.561,5.745c1.17,2.844,0.426,4.451,0.799,7.201C53.032,9.374,46.315,5.467,38.017,8.529z"/>
<path fill="#FFFFFF" d="M44.659,24.347c-1.58,4.136-8.008,3.529-9.186,0.635C36.368,20.332,43.792,19.935,44.659,24.347z"/>
<path fill="#FFFFFF" d="M19.341,24.347c1.58,4.136,8.01,3.529,9.186,0.635C27.632,20.33,20.21,19.933,19.341,24.347z"/>
<path fill="#664129" d="M45.315,19.368c-2.705-1.342-7.879-1.407-9.807-0.472c-0.412,0.182-0.141,1.454,0.207,1.332
	c2.688-0.995,7.019-1.019,9.535,0.086C45.585,20.456,45.726,19.557,45.315,19.368z"/>
<path fill="#664129" d="M18.687,19.368c2.703-1.342,7.877-1.407,9.807-0.472c0.412,0.182,0.141,1.454-0.207,1.332
	c-2.691-0.995-7.02-1.019-9.537,0.086C18.415,20.456,18.276,19.557,18.687,19.368z"/>
<path fill="#613F34" d="M37.114,23.906c0,3.629,5.25,3.629,5.25,0C42.364,20.537,37.114,20.537,37.114,23.906z"/>
<path fill="#7D5037" d="M37.634,25.067c0,2.081,4.211,2.081,4.211,0C41.845,23.136,37.634,23.136,37.634,25.067z"/>
<path fill="#1A1626" d="M38.649,23.963c0,1.507,2.18,1.507,2.18,0C40.829,22.566,38.649,22.566,38.649,23.963z"/>
<path fill="#AB968C" d="M37.905,23.524c0,0.761,1.102,0.761,1.102,0C39.007,22.817,37.905,22.817,37.905,23.524z"/>
<path fill="#613F34" d="M21.638,23.905c0,3.63,5.25,3.63,5.25,0C26.888,20.536,21.638,20.536,21.638,23.905z"/>
<path fill="#7D5037" d="M22.157,25.066c0,2.081,4.211,2.081,4.211,0C26.368,23.135,22.157,23.135,22.157,25.066z"/>
<path fill="#1A1626" d="M23.173,23.963c0,1.506,2.18,1.506,2.18,0C25.353,22.565,23.173,22.565,23.173,23.963z"/>
<path fill="#AB968C" d="M22.429,23.522c0,0.761,1.1,0.761,1.1,0C23.528,22.816,22.429,22.816,22.429,23.522z"/>
<path fill="#755035" d="M44.659,24.316c0-4.441-9.186-4.441-9.186,0.703C36.786,20.799,43.347,20.799,44.659,24.316z"/>
<path fill="#755035" d="M19.341,24.316c0-4.441,9.186-4.441,9.186,0.702C27.216,20.796,20.653,20.796,19.341,24.316z"/>
</svg>
