<?xml version="1.0" encoding="utf-8"?>
<!-- Generator: Adobe Illustrator 15.0.0, SVG Export Plug-In . SVG Version: 6.00 Build 0)  -->
<!DOCTYPE svg PUBLIC "-//W3C//DTD SVG 1.1//EN" "http://www.w3.org/Graphics/SVG/1.1/DTD/svg11.dtd" [
	<!ENTITY ns_flows "http://ns.adobe.com/Flows/1.0/">
	<!ENTITY ns_extend "http://ns.adobe.com/Extensibility/1.0/">
	<!ENTITY ns_ai "http://ns.adobe.com/AdobeIllustrator/10.0/">
	<!ENTITY ns_graphs "http://ns.adobe.com/Graphs/1.0/">
]>
<svg version="1.1" id="Layer_1" xmlns:x="&ns_extend;" xmlns:i="&ns_ai;" xmlns:graph="&ns_graphs;"
	 xmlns="http://www.w3.org/2000/svg" xmlns:xlink="http://www.w3.org/1999/xlink" xmlns:a="http://ns.adobe.com/AdobeSVGViewerExtensions/3.0/"
	 x="0px" y="0px" width="64px" height="64px" viewBox="0 0 64 64" enable-background="new 0 0 64 64" xml:space="preserve">
<path fill="#3B2C29" d="M8.921,9.117c-5.443,23.344-4.943,22.848,6.52,22.848C9.099,27.529,21.247,8.801,8.921,9.117z"/>
<path fill="#453631" d="M6.96,8.756C2.985,26.492,6.413,31.047,9.458,31.965h3.49C4.782,26.217,17.544,8.408,6.96,8.756z"/>
<path fill="#3B2C29" d="M24.942,9.115c5.447,23.346,4.947,22.846-6.514,22.846C24.261,28.404,12.618,8.799,24.942,9.115z"/>
<path fill="#453631" d="M26.909,8.756c5.807,16.135-0.014,22.457-2.5,23.205h-3.49C29.083,26.686,16.323,8.406,26.909,8.756z"/>
<path fill="#594640" d="M27.874,17.428c1.684,4.102,0.018,12.52-3.465,14.537c3.859,0,6.211-5.34,7.357-12.682
	C33.198,10.109,24.876,10.105,27.874,17.428z"/>
<path fill="#594640" d="M2.53,20.986c1.406,6.623,3.137,10.979,6.928,10.979c-4.223-4.371-3.727-13.586-2.527-15.879
	C13.052,12.447,0.153,9.779,2.53,20.986z"/>
<path fill="#8E3ED6" d="M5.522,32.738c7.697-5.117,15.262-5.117,22.957,0c2.443,1.623,2.947,7.74,3.256,13.037h-4.34V62H6.606
	V45.775H2.269C2.575,40.479,3.081,34.361,5.522,32.738z"/>
<polygon fill="#732EB0" points="26.612,46.074 28.019,46.074 26.612,38.477 "/>
<path fill="#FFCC66" d="M26.612,62h4.023l1.1-16.225c0,0-2.563-0.658-5.123,0V62z"/>
<path fill="#E6B045" d="M12.792,29.674c0-0.723,0-3.932,0-3.932h8.418c0,0,0,3.16,0,3.932C21.21,33.904,12.792,33.904,12.792,29.674
	z"/>
<path fill="#FFCC66" d="M16.999,3.506c-7.256,0-10.75,5.902-10.313,13.492c0.09,1.525,0.516,3.725,1.037,5.611
	c1.09,3.918,6.832,7.865,9.275,7.865c2.447,0,8.188-3.947,9.279-7.865c0.523-1.887,0.945-4.086,1.039-5.611
	C27.751,9.408,24.257,3.506,16.999,3.506z"/>
<path fill="#D47706" d="M17.001,24.213c-1.764-0.773-1.775-0.029-4.5,0.154c1.023,1.158,1.775,2.648,4.498,2.648
	c3.129,0,3.656-1.693,4.502-2.648C18.778,24.184,18.767,23.439,17.001,24.213z"/>
<path fill="#FFFFFF" d="M13.321,24.654c1.775,1.848,5.607,1.824,7.361,0C17.948,24.949,16.054,24.949,13.321,24.654z"/>
<path fill="#594640" d="M24.995,14.24c-1.635-0.973-4.566-1.092-5.725-0.428c-0.248,0.133-0.182,0.838,0.033,0.748
	c1.652-0.688,4.174-0.723,5.729,0.074C25.241,14.74,25.245,14.383,24.995,14.24z"/>
<path fill="#594640" d="M9.005,14.24c1.633-0.973,4.568-1.092,5.729-0.428c0.248,0.133,0.182,0.838-0.033,0.748
	c-1.654-0.688-4.176-0.723-5.73,0.074C8.763,14.74,8.759,14.383,9.005,14.24z"/>
<path fill="#E6B045" d="M19.251,21.566c0,1.461-4.502,1.461-4.502,0C14.749,21.23,19.251,21.23,19.251,21.566z"/>
<path fill="#FFFFFF" d="M24.839,17.205c-0.971,2.533-4.912,2.162-5.635,0.389C19.751,14.742,24.308,14.498,24.839,17.205z"/>
<path fill="#613F34" d="M20.194,16.93c0,2.244,3.248,2.244,3.248,0C23.442,14.844,20.194,14.844,20.194,16.93z"/>
<path fill="#7D5037" d="M20.513,17.648c0,1.283,2.609,1.283,2.609,0C23.122,16.451,20.513,16.451,20.513,17.648z"/>
<path fill="#1A1626" d="M21.142,16.963c0,0.934,1.35,0.934,1.35,0C22.491,16.098,21.142,16.098,21.142,16.963z"/>
<path fill="#AB968C" d="M20.681,16.691c0,0.471,0.684,0.471,0.684,0C21.364,16.256,20.681,16.256,20.681,16.691z"/>
<path fill="#45332C" d="M24.839,17.186c0-2.723-5.635-2.723-5.635,0.432C20.009,15.029,24.036,15.029,24.839,17.186z"/>
<path fill="#FFFFFF" d="M9.163,17.205c0.969,2.533,4.912,2.164,5.637,0.389C14.255,14.742,9.696,14.498,9.163,17.205z"/>
<path fill="#613F34" d="M10.562,16.932c0,2.246,3.248,2.246,3.248,0C13.81,14.85,10.562,14.85,10.562,16.932z"/>
<path fill="#7D5037" d="M10.882,17.65c0,1.285,2.607,1.285,2.607,0C13.489,16.457,10.882,16.457,10.882,17.65z"/>
<path fill="#1A1626" d="M11.511,16.967c0,0.932,1.35,0.932,1.35,0C12.86,16.102,11.511,16.102,11.511,16.967z"/>
<path fill="#AB968C" d="M11.048,16.695c0,0.471,0.682,0.471,0.682,0C11.729,16.26,11.048,16.26,11.048,16.695z"/>
<path fill="#45332C" d="M9.163,17.186c0-2.723,5.637-2.723,5.637,0.43C13.995,15.027,9.968,15.027,9.163,17.186z"/>
<path fill="#594640" d="M25.108,4.563c-5.088,5.207-0.232,5.543,2.766,12.865c1.684,4.102,2.746,9.197,3.893,1.855
	C33.198,10.109,27.692,3.795,25.108,4.563z"/>
<path fill="#594640" d="M12.618,2.568C6.167,4.084,0.153,9.779,2.53,20.986c1.406,6.623,3.201-2.607,4.4-4.9
	c6.121-3.639,16.586-6.393,18.178-11.523C25.915,3.379,19.075,0.879,12.618,2.568z"/>
<path fill="#453631" d="M7.679,10.732c2.727-0.553,15.779-0.814,17.43-6.17C22.024,7.018,18.829,7.688,7.679,10.732z"/>
<path fill="#453631" d="M2.972,19.252c4.576-6.104,19.572-5.43,22.137-14.689C20.13,12.334,4.222,13.387,2.972,19.252z"/>
<path fill="#453631" d="M23.599,5.832c-1.182,1.859,2.924-0.873,7.35,11.104C29.856,9.934,26.12,5.113,23.599,5.832z"/>
<path fill="#3B2C29" d="M38.921,9.117c-5.443,23.344-4.943,22.848,6.52,22.848C39.099,27.529,51.247,8.801,38.921,9.117z"/>
<path fill="#453631" d="M36.96,8.756c-3.975,17.736-0.547,22.291,2.498,23.209h3.49C34.782,26.217,47.544,8.408,36.96,8.756z"/>
<path fill="#3B2C29" d="M54.942,9.115c5.447,23.346,4.947,22.846-6.514,22.846C54.261,28.404,42.618,8.799,54.942,9.115z"/>
<path fill="#453631" d="M56.909,8.756c5.807,16.135-0.014,22.457-2.5,23.205h-3.49C59.083,26.686,46.323,8.406,56.909,8.756z"/>
<path fill="#594640" d="M57.874,17.428c1.684,4.102,0.018,12.52-3.465,14.537c3.859,0,6.211-5.34,7.357-12.682
	C63.198,10.109,54.876,10.105,57.874,17.428z"/>
<path fill="#594640" d="M32.53,20.986c1.406,6.623,3.137,10.979,6.928,10.979c-4.223-4.371-3.727-13.586-2.527-15.879
	C43.052,12.447,30.153,9.779,32.53,20.986z"/>
<path fill="#8E3ED6" d="M58.478,32.738c-7.695-5.117-15.26-5.117-22.957,0c-2.441,1.623-2.947,7.74-3.254,13.037h4.338V62h20.789
	V45.775h4.34C61.425,40.479,60.921,34.361,58.478,32.738z"/>
<polygon fill="#732EB0" points="54.61,50.074 56.61,45.775 56.61,38.477 "/>
<polygon fill="#732EB0" points="37.39,46.074 35.981,46.074 37.39,38.477 "/>
<path fill="#FFCC66" d="M37.39,62h-4.025l-1.098-16.225c0,0,2.561-0.658,5.123,0V62z"/>
<path fill="#E6B045" d="M51.208,29.674c0-0.723,0-3.932,0-3.932H42.79c0,0,0,3.16,0,3.932C42.79,33.904,51.208,33.904,51.208,29.674
	z"/>
<path fill="#FFCC66" d="M46.999,3.506c-7.256,0-10.75,5.902-10.313,13.492c0.09,1.525,0.516,3.725,1.037,5.611
	c1.09,3.918,6.832,7.865,9.275,7.865c2.447,0,8.188-3.947,9.279-7.865c0.523-1.887,0.945-4.086,1.039-5.611
	C57.751,9.408,54.257,3.506,46.999,3.506z"/>
<path fill="#D47706" d="M47.001,24.213c-1.764-0.773-1.775-0.029-4.5,0.154c1.023,1.158,1.775,2.648,4.498,2.648
	c3.129,0,3.656-1.693,4.502-2.648C48.778,24.184,48.767,23.439,47.001,24.213z"/>
<path fill="#FFFFFF" d="M43.321,24.654c1.775,1.848,5.607,1.824,7.361,0C47.948,24.949,46.054,24.949,43.321,24.654z"/>
<path fill="#594640" d="M54.995,14.24c-1.635-0.973-4.566-1.092-5.725-0.428c-0.248,0.133-0.182,0.838,0.033,0.748
	c1.652-0.688,4.174-0.723,5.729,0.074C55.241,14.74,55.245,14.383,54.995,14.24z"/>
<path fill="#594640" d="M39.005,14.24c1.633-0.973,4.568-1.092,5.729-0.428c0.248,0.133,0.182,0.838-0.033,0.748
	c-1.654-0.688-4.176-0.723-5.73,0.074C38.763,14.74,38.759,14.383,39.005,14.24z"/>
<path fill="#E6B045" d="M49.251,21.566c0,1.461-4.502,1.461-4.502,0C44.749,21.23,49.251,21.23,49.251,21.566z"/>
<path fill="#FFFFFF" d="M54.839,17.205c-0.971,2.533-4.912,2.162-5.635,0.389C49.751,14.742,54.308,14.498,54.839,17.205z"/>
<path fill="#613F34" d="M50.194,16.93c0,2.244,3.248,2.244,3.248,0C53.442,14.844,50.194,14.844,50.194,16.93z"/>
<path fill="#7D5037" d="M50.513,17.648c0,1.283,2.609,1.283,2.609,0C53.122,16.451,50.513,16.451,50.513,17.648z"/>
<path fill="#1A1626" d="M51.142,16.963c0,0.934,1.35,0.934,1.35,0C52.491,16.098,51.142,16.098,51.142,16.963z"/>
<path fill="#AB968C" d="M50.681,16.691c0,0.471,0.684,0.471,0.684,0C51.364,16.256,50.681,16.256,50.681,16.691z"/>
<path fill="#45332C" d="M54.839,17.186c0-2.723-5.635-2.723-5.635,0.432C50.009,15.029,54.036,15.029,54.839,17.186z"/>
<path fill="#FFFFFF" d="M39.163,17.205c0.969,2.533,4.912,2.164,5.637,0.389C44.255,14.742,39.696,14.498,39.163,17.205z"/>
<path fill="#613F34" d="M40.562,16.932c0,2.246,3.248,2.246,3.248,0C43.81,14.85,40.562,14.85,40.562,16.932z"/>
<path fill="#7D5037" d="M40.882,17.65c0,1.285,2.607,1.285,2.607,0C43.489,16.457,40.882,16.457,40.882,17.65z"/>
<path fill="#1A1626" d="M41.511,16.967c0,0.932,1.35,0.932,1.35,0C42.86,16.102,41.511,16.102,41.511,16.967z"/>
<path fill="#AB968C" d="M41.048,16.695c0,0.471,0.682,0.471,0.682,0C41.729,16.26,41.048,16.26,41.048,16.695z"/>
<path fill="#45332C" d="M39.163,17.186c0-2.723,5.637-2.723,5.637,0.43C43.995,15.027,39.968,15.027,39.163,17.186z"/>
<path fill="#594640" d="M55.108,4.563c-5.088,5.207-0.232,5.543,2.766,12.865c1.684,4.102,2.746,9.197,3.893,1.855
	C63.198,10.109,57.692,3.795,55.108,4.563z"/>
<path fill="#594640" d="M42.618,2.568C36.167,4.084,30.153,9.779,32.53,20.986c1.406,6.623,3.201-2.607,4.4-4.9
	c6.121-3.639,16.586-6.393,18.178-11.523C55.915,3.379,49.075,0.879,42.618,2.568z"/>
<path fill="#453631" d="M37.679,10.732c2.727-0.553,15.779-0.814,17.43-6.17C52.024,7.018,48.829,7.688,37.679,10.732z"/>
<path fill="#453631" d="M32.972,19.252c4.576-6.104,19.572-5.43,22.137-14.689C50.13,12.334,34.222,13.387,32.972,19.252z"/>
<path fill="#453631" d="M53.599,5.832c-1.182,1.859,2.924-0.873,7.35,11.104C59.856,9.934,56.12,5.113,53.599,5.832z"/>
<path fill="#4ABDFF" d="M50.288,55.188c-4.816-3.131-10.578-3.1-15.402,0.002C33.229,56.252,32.681,62,32.681,62h19.793
	C52.474,62,51.927,56.248,50.288,55.188z"/>
<path fill="#E6B045" d="M45.501,53.426c0-0.537,0-2.924,0-2.924h-5.85c0,0,0,2.35,0,2.924
	C39.651,55.793,45.501,55.793,45.501,53.426z"/>
<path fill="#594640" d="M42.575,31.984c-10.516,0-9.502,8.422-9.502,12.357h19.006C52.079,40.406,53.093,31.984,42.575,31.984z"/>
<path fill="#E6B045" d="M34.013,42.76c-3.34-0.51-1.162,7.4,1.451,5.219C36.671,46.969,35.573,42.998,34.013,42.76z"/>
<path fill="#E6B045" d="M51.14,42.76c-1.563,0.238-2.662,4.209-1.451,5.219C52.302,50.16,54.478,42.25,51.14,42.76z"/>
<path fill="#FFCC66" d="M51.03,42.592c0-5.613-3.32-4.363-8.455-4.363c-5.133,0-8.453-1.25-8.453,4.363c0,0,0.016,2.141,0.564,4.951
	c0.896,4.602,4.617,6.406,7.889,6.406s6.996-1.805,7.889-6.406C51.011,44.73,51.03,42.592,51.03,42.592z"/>
<path fill="#594640" d="M42.401,36.119c-1.535,2.734-7.289,4.447-9.268,4.268C34.927,38.58,35.72,33.922,42.401,36.119z"/>
<path fill="#453631" d="M33.134,40.387c2.52-0.656,5.791-1.996,9.268-4.268C40.866,38.854,35.813,41.014,33.134,40.387z"/>
<path fill="#594640" d="M50.163,35.973c-2.174,3.258-10.313,5.295-13.107,5.082C39.587,38.9,40.712,33.355,50.163,35.973z"/>
<path fill="#453631" d="M37.056,41.055c6.686-1.857,13.107-5.082,13.107-5.082C47.989,39.23,41.933,41.527,37.056,41.055z"/>
<path fill="#594640" d="M50.478,35.225c2.605,4.238-4.176,5.977-6.979,5.805C46.013,39.375,47.698,35.092,50.478,35.225z"/>
<path fill="#453631" d="M43.499,41.029c3.369-1.543,8.506-1.859,6.979-5.805C53.083,39.463,46.472,41.412,43.499,41.029z"/>
<path fill="#FFFFFF" d="M48.812,44.334c-0.777,2.035-3.943,1.738-4.523,0.314C44.728,42.359,48.386,42.164,48.812,44.334z"/>
<path fill="#613F34" d="M45.095,44.117c0,1.787,2.588,1.787,2.588,0C47.683,42.459,45.095,42.459,45.095,44.117z"/>
<path fill="#7D5037" d="M45.351,44.689c0,1.025,2.076,1.025,2.076,0C47.427,43.74,45.351,43.74,45.351,44.689z"/>
<path fill="#1A1626" d="M45.851,44.148c0,0.738,1.074,0.738,1.074,0C46.925,43.459,45.851,43.459,45.851,44.148z"/>
<path fill="#AB968C" d="M45.485,43.932c0,0.373,0.543,0.373,0.543,0C46.028,43.584,45.485,43.584,45.485,43.932z"/>
<path fill="#E6B045" d="M48.812,44.318c0-2.184-4.523-2.184-4.523,0.348C44.935,42.588,48.167,42.588,48.812,44.318z"/>
<path fill="#FFFFFF" d="M36.341,44.334c0.775,2.035,3.943,1.738,4.523,0.314C40.423,42.359,36.771,42.164,36.341,44.334z"/>
<path fill="#613F34" d="M37.472,44.117c0,1.787,2.586,1.787,2.586,0C40.058,42.459,37.472,42.459,37.472,44.117z"/>
<path fill="#7D5037" d="M37.728,44.688c0,1.027,2.074,1.027,2.074,0C39.802,43.74,37.728,43.74,37.728,44.688z"/>
<path fill="#1A1626" d="M38.228,44.146c0,0.74,1.074,0.74,1.074,0C39.302,43.457,38.228,43.457,38.228,44.146z"/>
<path fill="#AB968C" d="M37.86,43.93c0,0.375,0.541,0.375,0.541,0C38.401,43.582,37.86,43.582,37.86,43.93z"/>
<path fill="#E6B045" d="M36.341,44.318c0-2.184,4.523-2.184,4.523,0.346C40.218,42.588,36.985,42.588,36.341,44.318z"/>
<path fill="#C1873C" d="M49.229,42.104c-1.352-0.668-3.938-0.701-4.902-0.234c-0.203,0.09-0.068,0.727,0.105,0.664
	c1.344-0.496,3.508-0.51,4.766,0.043C49.364,42.648,49.437,42.199,49.229,42.104z"/>
<path fill="#C1873C" d="M35.921,42.104c1.354-0.668,3.939-0.701,4.904-0.234c0.203,0.09,0.066,0.727-0.104,0.664
	c-1.346-0.496-3.51-0.51-4.768,0.043C35.788,42.648,35.716,42.199,35.921,42.104z"/>
<path fill="#E6A400" d="M42.575,49.77c-1.328-0.391-3.299,0.186-3.299,0.186c0.754,0.816,1.301,1.873,3.299,1.873
	c2.291,0,2.68-1.201,3.299-1.873C45.874,49.955,43.903,49.377,42.575,49.77z"/>
<path fill="#FFFFFF" d="M39.782,50.094c1.393,1.166,4.207,1.174,5.605,0C43.903,50.156,41.278,50.158,39.782,50.094z"/>
<path fill="#E6B045" d="M44.407,48.021c0,1.191-3.662,1.191-3.662,0C40.745,47.748,44.407,47.748,44.407,48.021z"/>
<path fill="#4ABDFF" d="M29.136,55.188c-4.816-3.131-10.578-3.1-15.402,0.002C12.077,56.252,11.528,62,11.528,62h19.793
	C31.321,62,30.774,56.248,29.136,55.188z"/>
<path fill="#E6B045" d="M24.349,53.426c0-0.537,0-2.924,0-2.924h-5.85c0,0,0,2.35,0,2.924
	C18.499,55.793,24.349,55.793,24.349,53.426z"/>
<path fill="#594640" d="M21.423,31.984c-10.516,0-9.502,8.422-9.502,12.357h19.006C30.927,40.406,31.94,31.984,21.423,31.984z"/>
<path fill="#E6B045" d="M12.86,42.76c-3.34-0.51-1.162,7.4,1.451,5.219C15.519,46.969,14.421,42.998,12.86,42.76z"/>
<path fill="#E6B045" d="M29.987,42.76c-1.563,0.238-2.662,4.209-1.451,5.219C31.149,50.16,33.325,42.25,29.987,42.76z"/>
<path fill="#FFCC66" d="M29.878,42.592c0-5.613-3.32-4.363-8.455-4.363c-5.133,0-8.453-1.25-8.453,4.363
	c0,0,0.016,2.141,0.564,4.951c0.896,4.602,4.617,6.406,7.889,6.406s6.996-1.805,7.889-6.406
	C29.858,44.73,29.878,42.592,29.878,42.592z"/>
<path fill="#594640" d="M21.249,36.119c-1.535,2.734-7.289,4.447-9.268,4.268C13.774,38.58,14.567,33.922,21.249,36.119z"/>
<path fill="#453631" d="M11.981,40.387c2.52-0.656,5.791-1.996,9.268-4.268C19.714,38.854,14.661,41.014,11.981,40.387z"/>
<path fill="#594640" d="M29.011,35.973c-2.174,3.258-10.313,5.295-13.107,5.082C18.435,38.9,19.56,33.355,29.011,35.973z"/>
<path fill="#453631" d="M15.903,41.055c6.686-1.857,13.107-5.082,13.107-5.082C26.837,39.23,20.78,41.527,15.903,41.055z"/>
<path fill="#594640" d="M29.325,35.225c2.605,4.238-4.176,5.977-6.979,5.805C24.86,39.375,26.546,35.092,29.325,35.225z"/>
<path fill="#453631" d="M22.347,41.029c3.369-1.543,8.506-1.859,6.979-5.805C31.931,39.463,25.319,41.412,22.347,41.029z"/>
<path fill="#FFFFFF" d="M27.659,44.334c-0.777,2.035-3.943,1.738-4.523,0.314C23.575,42.359,27.233,42.164,27.659,44.334z"/>
<path fill="#613F34" d="M23.942,44.117c0,1.787,2.588,1.787,2.588,0C26.53,42.459,23.942,42.459,23.942,44.117z"/>
<path fill="#7D5037" d="M24.198,44.689c0,1.025,2.076,1.025,2.076,0C26.274,43.74,24.198,43.74,24.198,44.689z"/>
<path fill="#1A1626" d="M24.698,44.148c0,0.738,1.074,0.738,1.074,0C25.772,43.459,24.698,43.459,24.698,44.148z"/>
<path fill="#AB968C" d="M24.333,43.932c0,0.373,0.543,0.373,0.543,0C24.876,43.584,24.333,43.584,24.333,43.932z"/>
<path fill="#E6B045" d="M27.659,44.318c0-2.184-4.523-2.184-4.523,0.348C23.782,42.588,27.015,42.588,27.659,44.318z"/>
<path fill="#FFFFFF" d="M15.188,44.334c0.775,2.035,3.943,1.738,4.523,0.314C19.271,42.359,15.618,42.164,15.188,44.334z"/>
<path fill="#613F34" d="M16.319,44.117c0,1.787,2.586,1.787,2.586,0C18.905,42.459,16.319,42.459,16.319,44.117z"/>
<path fill="#7D5037" d="M16.575,44.688c0,1.027,2.074,1.027,2.074,0C18.649,43.74,16.575,43.74,16.575,44.688z"/>
<path fill="#1A1626" d="M17.075,44.146c0,0.74,1.074,0.74,1.074,0C18.149,43.457,17.075,43.457,17.075,44.146z"/>
<path fill="#AB968C" d="M16.708,43.93c0,0.375,0.541,0.375,0.541,0C17.249,43.582,16.708,43.582,16.708,43.93z"/>
<path fill="#E6B045" d="M15.188,44.318c0-2.184,4.523-2.184,4.523,0.346C19.065,42.588,15.833,42.588,15.188,44.318z"/>
<path fill="#C1873C" d="M28.077,42.104c-1.352-0.668-3.938-0.701-4.902-0.234c-0.203,0.09-0.068,0.727,0.105,0.664
	c1.344-0.496,3.508-0.51,4.766,0.043C28.212,42.648,28.284,42.199,28.077,42.104z"/>
<path fill="#C1873C" d="M14.769,42.104c1.354-0.668,3.939-0.701,4.904-0.234c0.203,0.09,0.066,0.727-0.104,0.664
	c-1.346-0.496-3.51-0.51-4.768,0.043C14.636,42.648,14.563,42.199,14.769,42.104z"/>
<path fill="#E6A400" d="M21.423,49.77c-1.328-0.391-3.299,0.186-3.299,0.186c0.754,0.816,1.301,1.873,3.299,1.873
	c2.291,0,2.68-1.201,3.299-1.873C24.722,49.955,22.751,49.377,21.423,49.77z"/>
<path fill="#FFFFFF" d="M18.63,50.094c1.393,1.166,4.207,1.174,5.605,0C22.751,50.156,20.126,50.158,18.63,50.094z"/>
<path fill="#E6B045" d="M23.255,48.021c0,1.191-3.662,1.191-3.662,0C19.593,47.748,23.255,47.748,23.255,48.021z"/>
<path fill="#FFCC66" d="M12.103,57.492c0.805,0.49,2.559-2.121,1.822-2.713c-4.498-3.604-6.533-9.004-6.533-9.004
	c-2.283-0.691-5.123,0-5.123,0C2.56,51.141,8.183,55.1,12.103,57.492z"/>
<path fill="#FFCC66" d="M15.628,53.645c1.666-0.393,4.768,1.096,3.01,1.477c0.395,0.463,0.348,1.004-0.982,0.637
	c0.51,0.459-0.338,0.818-1.016,0.654c0.201,1.16-2.217,0.477-2.941,0.84c-1.035,0.52-1.258,0.83-1.523,0.678
	C10.245,56.82,12.862,54.291,15.628,53.645z"/>
<path fill="#FFCC66" d="M51.899,57.492c-0.807,0.49-2.559-2.121-1.822-2.713c4.496-3.604,6.533-9.004,6.533-9.004
	c2.283-0.691,5.123,0,5.123,0C61.442,51.141,55.819,55.1,51.899,57.492z"/>
<path fill="#FFCC66" d="M48.374,53.645c-1.666-0.393-4.768,1.096-3.01,1.477c-0.396,0.463-0.348,1.004,0.982,0.637
	c-0.512,0.459,0.336,0.818,1.014,0.654c-0.201,1.16,2.219,0.477,2.941,0.84c1.037,0.52,1.26,0.83,1.523,0.678
	C53.755,56.82,51.14,54.291,48.374,53.645z"/>
</svg>
