<?xml version="1.0" encoding="utf-8"?>
<!-- Generator: Adobe Illustrator 15.0.0, SVG Export Plug-In . SVG Version: 6.00 Build 0)  -->
<!DOCTYPE svg PUBLIC "-//W3C//DTD SVG 1.1//EN" "http://www.w3.org/Graphics/SVG/1.1/DTD/svg11.dtd" [
	<!ENTITY ns_flows "http://ns.adobe.com/Flows/1.0/">
	<!ENTITY ns_extend "http://ns.adobe.com/Extensibility/1.0/">
	<!ENTITY ns_ai "http://ns.adobe.com/AdobeIllustrator/10.0/">
	<!ENTITY ns_graphs "http://ns.adobe.com/Graphs/1.0/">
]>
<svg version="1.1" id="Layer_1" xmlns:x="&ns_extend;" xmlns:i="&ns_ai;" xmlns:graph="&ns_graphs;"
	 xmlns="http://www.w3.org/2000/svg" xmlns:xlink="http://www.w3.org/1999/xlink" xmlns:a="http://ns.adobe.com/AdobeSVGViewerExtensions/3.0/"
	 x="0px" y="0px" width="64px" height="64px" viewBox="0 0 64 64" enable-background="new 0 0 64 64" xml:space="preserve">
<radialGradient id="SVGID_1_" cx="32.0796" cy="4.8721" r="15.0194" gradientTransform="matrix(1 0 0 1.1161 0 -0.5655)" gradientUnits="userSpaceOnUse">
	<stop  offset="0.4182" style="stop-color:#FF0071"/>
	<stop  offset="0.6534" style="stop-color:#F6006B"/>
	<stop  offset="1" style="stop-color:#E0005D"/>
	<a:midPointStop  offset="0.4182" style="stop-color:#FF0071"/>
	<a:midPointStop  offset="0.5979" style="stop-color:#FF0071"/>
	<a:midPointStop  offset="1" style="stop-color:#E0005D"/>
</radialGradient>
<path fill="url(#SVGID_1_)" d="M32.001,6.52C28.178,0.31,17.6,2.734,17.6,10.536c0,5.233,4.88,8.735,14.401,16.464
	C41.521,19.271,46.4,15.77,46.4,10.535C46.399,2.734,35.823,0.309,32.001,6.52z"/>
<path fill="#E6B045" d="M34.953,42.489c-4.189-0.754-0.917,10.965,2.362,7.732C38.836,48.725,36.912,42.845,34.953,42.489z"/>
<path fill="#E6B045" d="M60.021,42.489c-1.962,0.355-3.885,6.235-2.363,7.732C60.939,53.454,64.211,41.735,60.021,42.489z"/>
<path fill="#FFCC66" d="M47.485,28.75c-8.664,0-12.841,6.558-12.317,15.673c0.104,1.833,1.241,7.818,2.314,9.963
	c1.099,2.195,4.773,5.582,7.025,6.282c1.422,0.441,4.537,0.441,5.958,0c2.251-0.7,5.925-4.087,7.025-6.282
	c1.073-2.145,2.209-8.13,2.314-9.963C60.33,35.308,56.154,28.75,47.485,28.75z"/>
<path fill="#E6A400" d="M47.485,53.569c-1.949-0.575-4.836,0.271-4.836,0.271c1.1,1.197,1.905,2.753,4.836,2.753
	c3.36,0,3.93-1.767,4.838-2.753C52.323,53.841,49.432,52.992,47.485,53.569z"/>
<path fill="#FFFFFF" d="M43.387,54.042c2.043,1.715,6.17,1.727,8.227,0C49.432,54.137,45.581,54.137,43.387,54.042z"/>
<path fill="#E6B045" d="M50.175,50.344c0,1.75-5.376,1.75-5.376,0C44.799,49.944,50.175,49.944,50.175,50.344z"/>
<path fill="#594640" d="M47.485,28.749c-5.961,0-9.563,1.969-11.117,1.212c0,0-0.166,1.019,0.441,1.679c0,0-0.644,0.557-1.68-0.381
	c-0.989,3.207,1.943,5.066,12.355,5.066c10.415,0,7.927-2.537,13.047,1.918C60.029,32.753,56.543,28.749,47.485,28.749z"/>
<path fill="#453631" d="M51.896,33.534c-5.731,2.117-7.83-1.701-13.234-2.07c2.57,1.214,3.826,3.085,5.938,4.435
	c-4.599-1.541-7.973-4.188-8.229-5.926c0,0-0.767,2.538,2.268,4.437c-2.901,0.269-3.507-3.14-3.507-3.14
	c-1.47,2.359-1.267,9.973,0.366,15.622c0.271-2.017-0.35-2.851,0.582-5.28c2.789-7.259,0.996-4.21,11.408-4.21
	s8.534-2.781,11.406,4.21c0.857,2.086,0.311,3.264,0.585,5.28C62.902,34.153,57.979,31.291,51.896,33.534z"/>
<path fill="#FFFFFF" d="M56.765,45.127c-1.155,3.032-5.868,2.589-6.731,0.467C50.688,42.187,56.128,41.894,56.765,45.127z"/>
<path fill="#FFFFFF" d="M38.209,45.127c1.157,3.032,5.869,2.589,6.73,0.467C44.285,42.184,38.845,41.894,38.209,45.127z"/>
<path fill="#C1873C" d="M57.246,41.479c-1.983-0.984-5.774-1.032-7.187-0.346c-0.304,0.133-0.104,1.064,0.149,0.976
	c1.971-0.73,5.146-0.747,6.99,0.064C57.443,42.276,57.546,41.616,57.246,41.479z"/>
<path fill="#C1873C" d="M37.728,41.479c1.981-0.984,5.772-1.032,7.189-0.346c0.302,0.133,0.103,1.064-0.152,0.976
	c-1.973-0.73-5.146-0.747-6.991,0.064C37.531,42.276,37.426,41.616,37.728,41.479z"/>
<path fill="#613F34" d="M51.234,44.805c0,2.662,3.849,2.662,3.849,0C55.083,42.337,51.234,42.337,51.234,44.805z"/>
<path fill="#7D5037" d="M51.615,45.655c0,1.527,3.088,1.527,3.088,0C54.703,44.241,51.615,44.241,51.615,45.655z"/>
<path fill="#1A1626" d="M52.359,44.848c0,1.104,1.599,1.104,1.599,0C53.958,43.822,52.359,43.822,52.359,44.848z"/>
<path fill="#AB968C" d="M51.815,44.524c0,0.559,0.807,0.559,0.807,0C52.622,44.009,51.815,44.009,51.815,44.524z"/>
<path fill="#613F34" d="M39.891,44.803c0,2.661,3.848,2.661,3.848,0C43.738,42.335,39.891,42.335,39.891,44.803z"/>
<path fill="#7D5037" d="M40.272,45.655c0,1.524,3.086,1.524,3.086,0C43.358,44.237,40.272,44.237,40.272,45.655z"/>
<path fill="#1A1626" d="M41.015,44.846c0,1.104,1.599,1.104,1.599,0C42.613,43.82,41.015,43.82,41.015,44.846z"/>
<path fill="#AB968C" d="M40.472,44.524c0,0.557,0.807,0.557,0.807,0C41.278,44.007,40.472,44.007,40.472,44.524z"/>
<path fill="#E6B045" d="M56.765,45.106c0-3.258-6.731-3.258-6.731,0.515C50.995,42.527,55.803,42.527,56.765,45.106z"/>
<path fill="#E6B045" d="M38.209,45.106c0-3.258,6.73-3.258,6.73,0.515C43.98,42.526,39.169,42.526,38.209,45.106z"/>
<path fill="#30231E" d="M25.553,60.999c0-8.5-15.001-8.699-15.001,0H25.553z"/>
<path fill="#3B2C29" d="M9.442,36.409c-5.855,25.126-5.318,24.59,7.004,24.59C9.627,56.228,22.689,36.068,9.442,36.409z"/>
<path fill="#453631" d="M7.329,36.021c-4.271,19.091-0.585,23.994,2.688,24.979h3.751C4.992,54.815,18.71,35.646,7.329,36.021z"/>
<path fill="#3B2C29" d="M26.665,36.409c5.854,25.126,5.317,24.588-7.005,24.588C25.931,57.168,13.414,36.066,26.665,36.409z"/>
<path fill="#453631" d="M28.775,36.019c6.244,17.369-0.014,24.174-2.688,24.979H22.34C31.115,55.32,17.397,35.645,28.775,36.019z"/>
<path fill="#FFCC66" d="M18.126,30.37c-7.802,0-11.559,6.354-11.089,14.521c0.096,1.643,0.553,4.01,1.117,6.039
	c1.17,4.218,7.343,8.466,9.972,8.466c2.628,0,8.801-4.248,9.972-8.466c0.563-2.029,1.019-4.396,1.116-6.039
	C29.682,36.725,25.926,30.37,18.126,30.37z"/>
<path fill="#FFFFFF" d="M26.551,45.114c-1.042,2.729-5.282,2.326-6.059,0.418C21.083,42.464,25.979,42.203,26.551,45.114z"/>
<path fill="#FFFFFF" d="M9.699,45.114c1.043,2.729,5.283,2.328,6.06,0.418C15.17,42.464,10.274,42.203,9.699,45.114z"/>
<path fill="#D47706" d="M18.126,52.658c-1.897-0.833-1.912-0.033-4.839,0.165c1.101,1.246,1.908,2.851,4.838,2.851
	c3.361,0,3.929-1.822,4.839-2.851C20.035,52.625,20.021,51.825,18.126,52.658z"/>
<path fill="#FFFFFF" d="M14.165,53.134c1.912,1.989,6.032,1.961,7.919,0C19.143,53.449,17.109,53.449,14.165,53.134z"/>
<path fill="#594640" d="M26.722,41.925c-1.757-1.048-4.912-1.176-6.158-0.463c-0.264,0.145-0.192,0.902,0.035,0.807
	c1.779-0.74,4.49-0.778,6.16,0.078C26.982,42.46,26.988,42.076,26.722,41.925z"/>
<path fill="#594640" d="M9.529,41.925c1.757-1.048,4.909-1.176,6.158-0.463c0.264,0.145,0.194,0.902-0.035,0.807
	c-1.781-0.74-4.488-0.778-6.158,0.078C9.268,42.46,9.264,42.076,9.529,41.925z"/>
<path fill="#E6B045" d="M20.544,49.81c0,1.572-4.837,1.572-4.837,0C15.707,49.448,20.544,49.448,20.544,49.81z"/>
<path fill="#594640" d="M26.842,31.507c-5.471,5.604-0.249,5.967,2.972,13.846c1.808,4.414,0.02,13.478-3.727,15.646
	c4.151,0,6.679-5.744,7.911-13.646C35.539,37.479,29.621,30.682,26.842,31.507z"/>
<path fill="#594640" d="M13.414,29.361C6.479,30.992,0.013,37.122,2.571,49.183c1.511,7.134,3.371,11.816,7.445,11.816
	C5.475,56.296,6.01,46.378,7.301,43.91c6.579-3.914,17.83-6.881,19.541-12.403C27.709,30.231,20.356,27.543,13.414,29.361z"/>
<path fill="#453631" d="M8.101,38.147c2.934-0.594,16.967-0.875,18.741-6.641C23.523,34.15,20.091,34.871,8.101,38.147z"/>
<path fill="#453631" d="M3.044,47.317c4.921-6.567,21.04-5.842,23.798-15.811C21.488,39.874,4.389,41.005,3.044,47.317z"/>
<path fill="#453631" d="M25.219,32.873c-1.27,2.001,3.144-0.938,7.898,11.948C31.946,37.288,27.928,32.101,25.219,32.873z"/>
<path fill="#613F34" d="M21.556,44.817c0,2.415,3.493,2.415,3.493,0C25.049,42.574,21.556,42.574,21.556,44.817z"/>
<path fill="#7D5037" d="M21.902,45.591c0,1.384,2.802,1.384,2.802,0C24.704,44.305,21.902,44.305,21.902,45.591z"/>
<path fill="#1A1626" d="M22.578,44.856c0,1.001,1.451,1.001,1.451,0C24.029,43.924,22.578,43.924,22.578,44.856z"/>
<path fill="#AB968C" d="M22.083,44.563c0,0.506,0.732,0.506,0.732,0C22.815,44.093,22.083,44.093,22.083,44.563z"/>
<path fill="#613F34" d="M11.201,44.82c0,2.416,3.495,2.416,3.495,0C14.696,42.577,11.201,42.577,11.201,44.82z"/>
<path fill="#7D5037" d="M11.547,45.594c0,1.386,2.803,1.386,2.803,0C14.35,44.308,11.547,44.308,11.547,45.594z"/>
<path fill="#1A1626" d="M12.224,44.858c0,1.003,1.451,1.003,1.451,0C13.675,43.928,12.224,43.928,12.224,44.858z"/>
<path fill="#AB968C" d="M11.728,44.566c0,0.507,0.731,0.507,0.731,0C12.459,44.097,11.728,44.097,11.728,44.566z"/>
<path fill="#45332C" d="M26.551,45.094c0-2.932-6.059-2.932-6.059,0.465C21.357,42.771,25.688,42.771,26.551,45.094z"/>
<path fill="#45332C" d="M9.699,45.094c0-2.932,6.06-2.932,6.06,0.462C14.894,42.771,10.564,42.771,9.699,45.094z"/>
</svg>
