<?xml version="1.0" encoding="utf-8"?>
<!-- Generator: Adobe Illustrator 15.0.0, SVG Export Plug-In . SVG Version: 6.00 Build 0)  -->
<!DOCTYPE svg PUBLIC "-//W3C//DTD SVG 1.1//EN" "http://www.w3.org/Graphics/SVG/1.1/DTD/svg11.dtd" [
	<!ENTITY ns_flows "http://ns.adobe.com/Flows/1.0/">
	<!ENTITY ns_extend "http://ns.adobe.com/Extensibility/1.0/">
	<!ENTITY ns_ai "http://ns.adobe.com/AdobeIllustrator/10.0/">
	<!ENTITY ns_graphs "http://ns.adobe.com/Graphs/1.0/">
]>
<svg version="1.1" id="Layer_1" xmlns:x="&ns_extend;" xmlns:i="&ns_ai;" xmlns:graph="&ns_graphs;"
	 xmlns="http://www.w3.org/2000/svg" xmlns:xlink="http://www.w3.org/1999/xlink" xmlns:a="http://ns.adobe.com/AdobeSVGViewerExtensions/3.0/"
	 x="0px" y="0px" width="64px" height="64px" viewBox="0 0 64 64" enable-background="new 0 0 64 64" xml:space="preserve">
<path fill="#3B2C29" d="M38.921,9.117c-5.445,23.344-4.943,22.848,6.518,22.848C39.097,27.529,51.245,8.801,38.921,9.117z"/>
<path fill="#453631" d="M36.958,8.756c-3.975,17.736-0.545,22.291,2.498,23.209h3.49C34.782,26.217,47.542,8.408,36.958,8.756z"/>
<path fill="#3B2C29" d="M54.942,9.115c5.447,23.346,4.947,22.846-6.514,22.846C54.259,28.404,42.618,8.799,54.942,9.115z"/>
<path fill="#453631" d="M56.909,8.756c5.805,16.135-0.016,22.457-2.5,23.205h-3.49C59.081,26.686,46.323,8.406,56.909,8.756z"/>
<path fill="#594640" d="M57.874,17.428c1.682,4.102,0.018,12.52-3.465,14.537c3.859,0,6.209-5.34,7.357-12.682
	C63.196,10.109,54.874,10.105,57.874,17.428z"/>
<path fill="#594640" d="M32.53,20.986c1.406,6.623,3.135,10.979,6.926,10.979c-4.223-4.371-3.727-13.586-2.527-15.879
	C43.05,12.447,30.153,9.779,32.53,20.986z"/>
<path fill="#8E3ED6" d="M37.553,32.738c7.695-5.117,13.979-4.509,19.829,0.491c2.411,2.061,1.686,10.314,0.382,16.546h-2.338V62
	H34.637l-0.34-16.225C34.605,40.479,35.109,34.361,37.553,32.738z"/>
<polygon fill="#732EB0" points="50.977,51.074 52.641,51.074 53.17,39.477 "/>
<path fill="#E6B045" d="M50.999,29.674c0-0.723,0-3.932,0-3.932h-8c0,0,0,3.16,0,3.932C42.999,33.904,50.999,33.904,50.999,29.674z"
	/>
<path fill="#FFCC66" d="M46.999,3.506c-7.256,0-10.752,5.902-10.314,13.492c0.09,1.525,0.516,3.725,1.037,5.611
	c1.092,3.918,6.834,7.865,9.277,7.865c2.445,0,8.188-3.947,9.277-7.865c0.523-1.887,0.947-4.086,1.039-5.611
	C57.751,9.408,54.255,3.506,46.999,3.506z"/>
<path fill="#D47706" d="M47.001,24.213c-1.766-0.773-1.777-0.029-4.502,0.154c1.023,1.158,1.775,2.648,4.5,2.648
	c3.127,0,3.654-1.693,4.502-2.648C48.776,24.184,48.765,23.439,47.001,24.213z"/>
<path fill="#FFFFFF" d="M43.319,24.654c1.777,1.848,5.609,1.824,7.361,0C47.948,24.949,46.054,24.949,43.319,24.654z"/>
<path fill="#594640" d="M54.995,14.24c-1.635-0.973-4.568-1.092-5.727-0.428c-0.248,0.133-0.18,0.838,0.033,0.748
	c1.654-0.688,4.176-0.723,5.729,0.074C55.239,14.74,55.243,14.383,54.995,14.24z"/>
<path fill="#594640" d="M39.003,14.24c1.633-0.973,4.568-1.092,5.73-0.428c0.248,0.133,0.18,0.838-0.035,0.748
	c-1.654-0.688-4.174-0.723-5.729,0.074C38.761,14.74,38.759,14.383,39.003,14.24z"/>
<path fill="#E6B045" d="M49.251,21.566c0,1.461-4.502,1.461-4.502,0C44.749,21.23,49.251,21.23,49.251,21.566z"/>
<path fill="#FFFFFF" d="M54.839,17.205c-0.971,2.533-4.914,2.162-5.637,0.389C49.749,14.742,54.306,14.498,54.839,17.205z"/>
<path fill="#613F34" d="M50.192,16.93c0,2.244,3.248,2.244,3.248,0C53.44,14.844,50.192,14.844,50.192,16.93z"/>
<path fill="#7D5037" d="M50.513,17.648c0,1.283,2.607,1.283,2.607,0C53.12,16.451,50.513,16.451,50.513,17.648z"/>
<path fill="#1A1626" d="M51.142,16.963c0,0.934,1.35,0.934,1.35,0C52.491,16.098,51.142,16.098,51.142,16.963z"/>
<path fill="#AB968C" d="M50.679,16.691c0,0.471,0.684,0.471,0.684,0C51.362,16.256,50.679,16.256,50.679,16.691z"/>
<path fill="#45332C" d="M54.839,17.186c0-2.723-5.637-2.723-5.637,0.432C50.007,15.029,54.034,15.029,54.839,17.186z"/>
<path fill="#FFFFFF" d="M39.163,17.205c0.969,2.533,4.912,2.164,5.635,0.389C44.253,14.742,39.694,14.498,39.163,17.205z"/>
<path fill="#613F34" d="M40.56,16.932c0,2.246,3.248,2.246,3.248,0C43.808,14.85,40.56,14.85,40.56,16.932z"/>
<path fill="#7D5037" d="M40.88,17.65c0,1.285,2.607,1.285,2.607,0C43.487,16.457,40.88,16.457,40.88,17.65z"/>
<path fill="#1A1626" d="M41.509,16.967c0,0.932,1.35,0.932,1.35,0C42.858,16.102,41.509,16.102,41.509,16.967z"/>
<path fill="#AB968C" d="M41.048,16.695c0,0.471,0.682,0.471,0.682,0C41.729,16.26,41.048,16.26,41.048,16.695z"/>
<path fill="#45332C" d="M39.163,17.186c0-2.723,5.635-2.723,5.635,0.43C43.993,15.027,39.966,15.027,39.163,17.186z"/>
<path fill="#594640" d="M55.108,4.563c-5.09,5.207-0.234,5.543,2.766,12.865c1.682,4.102,2.744,9.197,3.893,1.855
	C63.196,10.109,57.692,3.795,55.108,4.563z"/>
<path fill="#594640" d="M42.618,2.568C36.167,4.084,30.153,9.779,32.53,20.986c1.406,6.623,3.199-2.607,4.398-4.9
	c6.121-3.639,16.588-6.393,18.18-11.523C55.915,3.379,49.073,0.879,42.618,2.568z"/>
<path fill="#453631" d="M37.677,10.732c2.729-0.553,15.779-0.814,17.432-6.17C52.022,7.018,48.829,7.688,37.677,10.732z"/>
<path fill="#453631" d="M32.97,19.252c4.578-6.104,19.574-5.43,22.139-14.689C50.13,12.334,34.222,13.387,32.97,19.252z"/>
<path fill="#453631" d="M53.599,5.832c-1.182,1.859,2.922-0.873,7.348,11.104C59.856,9.934,56.12,5.113,53.599,5.832z"/>
<path fill="#3B2C29" d="M8.921,9.117c-5.445,23.344-4.943,22.848,6.518,22.848C9.097,27.529,21.245,8.801,8.921,9.117z"/>
<path fill="#453631" d="M6.958,8.756C2.983,26.492,6.413,31.047,9.456,31.965h3.49C4.782,26.217,17.542,8.408,6.958,8.756z"/>
<path fill="#3B2C29" d="M24.942,9.115c5.447,23.346,4.947,22.846-6.514,22.846C24.259,28.404,12.618,8.799,24.942,9.115z"/>
<path fill="#453631" d="M26.909,8.756c5.805,16.135-0.016,22.457-2.5,23.205h-3.49C29.081,26.686,16.323,8.406,26.909,8.756z"/>
<path fill="#594640" d="M27.874,17.428c1.682,4.102,0.018,12.52-3.465,14.537c3.859,0,6.209-5.34,7.357-12.682
	C33.196,10.109,24.874,10.105,27.874,17.428z"/>
<path fill="#594640" d="M2.53,20.986c1.406,6.623,3.135,10.979,6.926,10.979c-4.223-4.371-3.727-13.586-2.527-15.879
	C13.05,12.447,0.153,9.779,2.53,20.986z"/>
<path fill="#8E3ED6" d="M26.447,32.738c-7.695-5.117-13.979-4.509-19.829,0.491C4.207,35.29,4.933,43.544,6.236,49.775h2.338V62
	h20.789l0.34-16.225C29.395,40.479,28.891,34.361,26.447,32.738z"/>
<polygon fill="#732EB0" points="13.023,51.074 11.359,51.074 10.83,39.477 "/>
<path fill="#4ABDFF" d="M39.713,55.188c-4.816-3.131-10.578-3.101-15.402,0.001C22.654,56.251,22.105,62,22.105,62h19.793
	C41.898,62,41.352,56.248,39.713,55.188z"/>
<path fill="#E6B045" d="M34.926,53.426c0-0.538,0-2.925,0-2.925h-5.85c0,0,0,2.351,0,2.925
	C29.076,55.792,34.926,55.792,34.926,53.426z"/>
<path fill="#594640" d="M32,31.984c-10.516,0-9.502,8.421-9.502,12.356h19.006C41.504,40.405,42.518,31.984,32,31.984z"/>
<path fill="#E6B045" d="M23.438,42.76c-3.34-0.511-1.162,7.4,1.451,5.218C26.096,46.968,24.998,42.998,23.438,42.76z"/>
<path fill="#E6B045" d="M40.564,42.76c-1.563,0.238-2.662,4.208-1.451,5.218C41.727,50.16,43.902,42.249,40.564,42.76z"/>
<path fill="#FFCC66" d="M40.455,42.592c0-5.614-3.32-4.364-8.455-4.364c-5.133,0-8.453-1.25-8.453,4.364c0,0,0.016,2.141,0.564,4.95
	c0.896,4.602,4.617,6.407,7.889,6.407s6.996-1.806,7.889-6.407C40.436,44.73,40.455,42.592,40.455,42.592z"/>
<path fill="#594640" d="M31.826,36.119c-1.535,2.734-7.289,4.446-9.268,4.268C24.352,38.58,25.145,33.922,31.826,36.119z"/>
<path fill="#453631" d="M22.559,40.387c2.52-0.656,5.791-1.996,9.268-4.268C30.291,38.854,25.238,41.013,22.559,40.387z"/>
<path fill="#594640" d="M39.588,35.973c-2.174,3.257-10.313,5.294-13.107,5.082C29.012,38.9,30.137,33.355,39.588,35.973z"/>
<path fill="#453631" d="M26.48,41.055c6.686-1.857,13.107-5.082,13.107-5.082C37.414,39.229,31.357,41.526,26.48,41.055z"/>
<path fill="#594640" d="M39.902,35.224c2.605,4.239-4.176,5.977-6.979,5.806C35.438,39.375,37.123,35.091,39.902,35.224z"/>
<path fill="#453631" d="M32.924,41.029c3.369-1.544,8.506-1.859,6.979-5.806C42.508,39.463,35.896,41.412,32.924,41.029z"/>
<path fill="#FFFFFF" d="M38.236,44.334c-0.777,2.035-3.943,1.737-4.523,0.313C34.152,42.359,37.811,42.163,38.236,44.334z"/>
<path fill="#613F34" d="M34.52,44.117c0,1.786,2.588,1.786,2.588,0C37.107,42.459,34.52,42.459,34.52,44.117z"/>
<path fill="#7D5037" d="M34.775,44.689c0,1.024,2.076,1.024,2.076,0C36.852,43.739,34.775,43.739,34.775,44.689z"/>
<path fill="#1A1626" d="M35.275,44.147c0,0.739,1.074,0.739,1.074,0C36.35,43.459,35.275,43.459,35.275,44.147z"/>
<path fill="#AB968C" d="M34.91,43.931c0,0.373,0.543,0.373,0.543,0C35.453,43.584,34.91,43.584,34.91,43.931z"/>
<path fill="#E6B045" d="M38.236,44.318c0-2.184-4.523-2.184-4.523,0.348C34.359,42.588,37.592,42.588,38.236,44.318z"/>
<path fill="#FFFFFF" d="M25.766,44.334c0.775,2.035,3.943,1.737,4.523,0.313C29.848,42.358,26.195,42.163,25.766,44.334z"/>
<path fill="#613F34" d="M26.896,44.117c0,1.786,2.586,1.786,2.586,0C29.482,42.459,26.896,42.459,26.896,44.117z"/>
<path fill="#7D5037" d="M27.152,44.688c0,1.026,2.074,1.026,2.074,0C29.227,43.739,27.152,43.739,27.152,44.688z"/>
<path fill="#1A1626" d="M27.652,44.146c0,0.741,1.074,0.741,1.074,0C28.727,43.457,27.652,43.457,27.652,44.146z"/>
<path fill="#AB968C" d="M27.285,43.929c0,0.375,0.541,0.375,0.541,0C27.826,43.581,27.285,43.581,27.285,43.929z"/>
<path fill="#E6B045" d="M25.766,44.318c0-2.184,4.523-2.184,4.523,0.346C29.643,42.588,26.41,42.588,25.766,44.318z"/>
<path fill="#C1873C" d="M38.654,42.103c-1.352-0.668-3.938-0.701-4.902-0.234c-0.203,0.091-0.068,0.727,0.105,0.664
	c1.344-0.496,3.508-0.509,4.766,0.043C38.789,42.647,38.861,42.198,38.654,42.103z"/>
<path fill="#C1873C" d="M25.346,42.103c1.354-0.668,3.939-0.701,4.904-0.234c0.203,0.091,0.066,0.727-0.104,0.664
	c-1.346-0.496-3.51-0.509-4.768,0.043C25.213,42.647,25.141,42.198,25.346,42.103z"/>
<path fill="#E6A400" d="M32,49.77c-1.328-0.391-3.299,0.185-3.299,0.185c0.754,0.817,1.301,1.874,3.299,1.874
	c2.291,0,2.68-1.201,3.299-1.874C35.299,49.954,33.328,49.376,32,49.77z"/>
<path fill="#FFFFFF" d="M29.207,50.093c1.393,1.167,4.207,1.175,5.605,0C33.328,50.155,30.703,50.157,29.207,50.093z"/>
<path fill="#E6B045" d="M33.832,48.021c0,1.19-3.662,1.19-3.662,0C30.17,47.747,33.832,47.747,33.832,48.021z"/>
<path fill="#E6B045" d="M13.001,29.674c0-0.723,0-3.932,0-3.932h8c0,0,0,3.16,0,3.932C21.001,33.904,13.001,33.904,13.001,29.674z"
	/>
<path fill="#FFCC66" d="M16.999,3.506c-7.256,0-10.752,5.902-10.314,13.492c0.09,1.525,0.516,3.725,1.037,5.611
	c1.092,3.918,6.834,7.865,9.277,7.865c2.445,0,8.188-3.947,9.277-7.865c0.523-1.887,0.947-4.086,1.039-5.611
	C27.751,9.408,24.255,3.506,16.999,3.506z"/>
<path fill="#D47706" d="M17.001,24.213c-1.766-0.773-1.777-0.029-4.502,0.154c1.023,1.158,1.775,2.648,4.5,2.648
	c3.127,0,3.654-1.693,4.502-2.648C18.776,24.184,18.765,23.439,17.001,24.213z"/>
<path fill="#FFFFFF" d="M13.319,24.654c1.777,1.848,5.609,1.824,7.361,0C17.948,24.949,16.054,24.949,13.319,24.654z"/>
<path fill="#594640" d="M24.995,14.24c-1.635-0.973-4.568-1.092-5.727-0.428c-0.248,0.133-0.18,0.838,0.033,0.748
	c1.654-0.688,4.176-0.723,5.729,0.074C25.239,14.74,25.243,14.383,24.995,14.24z"/>
<path fill="#594640" d="M9.003,14.24c1.633-0.973,4.568-1.092,5.73-0.428c0.248,0.133,0.18,0.838-0.035,0.748
	c-1.654-0.688-4.174-0.723-5.729,0.074C8.761,14.74,8.759,14.383,9.003,14.24z"/>
<path fill="#E6B045" d="M19.251,21.566c0,1.461-4.502,1.461-4.502,0C14.749,21.23,19.251,21.23,19.251,21.566z"/>
<path fill="#FFFFFF" d="M24.839,17.205c-0.971,2.533-4.914,2.162-5.637,0.389C19.749,14.742,24.306,14.498,24.839,17.205z"/>
<path fill="#613F34" d="M20.192,16.93c0,2.244,3.248,2.244,3.248,0C23.44,14.844,20.192,14.844,20.192,16.93z"/>
<path fill="#7D5037" d="M20.513,17.648c0,1.283,2.607,1.283,2.607,0C23.12,16.451,20.513,16.451,20.513,17.648z"/>
<path fill="#1A1626" d="M21.142,16.963c0,0.934,1.35,0.934,1.35,0C22.491,16.098,21.142,16.098,21.142,16.963z"/>
<path fill="#AB968C" d="M20.679,16.691c0,0.471,0.684,0.471,0.684,0C21.362,16.256,20.679,16.256,20.679,16.691z"/>
<path fill="#45332C" d="M24.839,17.186c0-2.723-5.637-2.723-5.637,0.432C20.007,15.029,24.034,15.029,24.839,17.186z"/>
<path fill="#FFFFFF" d="M9.163,17.205c0.969,2.533,4.912,2.164,5.635,0.389C14.253,14.742,9.694,14.498,9.163,17.205z"/>
<path fill="#613F34" d="M10.56,16.932c0,2.246,3.248,2.246,3.248,0C13.808,14.85,10.56,14.85,10.56,16.932z"/>
<path fill="#7D5037" d="M10.88,17.65c0,1.285,2.607,1.285,2.607,0C13.487,16.457,10.88,16.457,10.88,17.65z"/>
<path fill="#1A1626" d="M11.509,16.967c0,0.932,1.35,0.932,1.35,0C12.858,16.102,11.509,16.102,11.509,16.967z"/>
<path fill="#AB968C" d="M11.048,16.695c0,0.471,0.682,0.471,0.682,0C11.729,16.26,11.048,16.26,11.048,16.695z"/>
<path fill="#45332C" d="M9.163,17.186c0-2.723,5.635-2.723,5.635,0.43C13.993,15.027,9.966,15.027,9.163,17.186z"/>
<path fill="#594640" d="M25.108,4.563c-5.09,5.207-0.234,5.543,2.766,12.865c1.682,4.102,2.744,9.197,3.893,1.855
	C33.196,10.109,27.692,3.795,25.108,4.563z"/>
<path fill="#594640" d="M12.618,2.568C6.167,4.084,0.153,9.779,2.53,20.986c1.406,6.623,3.199-2.607,4.398-4.9
	c6.121-3.639,16.588-6.393,18.18-11.523C25.915,3.379,19.073,0.879,12.618,2.568z"/>
<path fill="#453631" d="M7.677,10.732c2.729-0.553,15.779-0.814,17.432-6.17C22.022,7.018,18.829,7.688,7.677,10.732z"/>
<path fill="#453631" d="M2.97,19.252c4.578-6.104,19.574-5.43,22.139-14.689C20.13,12.334,4.222,13.387,2.97,19.252z"/>
<path fill="#453631" d="M23.599,5.832c-1.182,1.859,2.922-0.873,7.348,11.104C29.856,9.934,26.12,5.113,23.599,5.832z"/>
<path fill="#FFCC66" d="M22.144,57.252c0.834,0.419,2.585-2.339,1.718-2.713c-7.489-3.228-8.343-4.729-12.667-6.762
	c-1.697-0.798-4.958,1.998-4.958,1.998C7.33,53.75,12.331,52.325,22.144,57.252z"/>
<path fill="#FFCC66" d="M26.065,53.404c1.666-0.393,4.768,1.096,3.01,1.477c0.396,0.463,0.348,1.004-0.982,0.637
	c0.512,0.459-0.336,0.818-1.014,0.654c0.201,1.16-2.219,0.477-2.941,0.84c-1.037,0.52-1.26,0.83-1.523,0.678
	C20.685,56.58,23.3,54.051,26.065,53.404z"/>
<path fill="#FFCC66" d="M41.856,57.252c-0.834,0.419-2.585-2.339-1.718-2.713c7.489-3.228,8.343-4.729,12.667-6.762
	c1.697-0.798,4.958,1.998,4.958,1.998C56.67,53.75,51.669,52.325,41.856,57.252z"/>
<path fill="#FFCC66" d="M37.935,53.404c-1.666-0.393-4.768,1.096-3.01,1.477c-0.396,0.463-0.348,1.004,0.982,0.637
	c-0.512,0.459,0.336,0.818,1.014,0.654c-0.201,1.16,2.219,0.477,2.941,0.84c1.037,0.52,1.26,0.83,1.523,0.678
	C43.315,56.58,40.7,54.051,37.935,53.404z"/>
</svg>
