<?xml version="1.0" encoding="utf-8"?>
<!-- Generator: Adobe Illustrator 19.0.0, SVG Export Plug-In . SVG Version: 6.00 Build 0)  -->
<svg version="1.1" id="Layer_1" xmlns="http://www.w3.org/2000/svg" xmlns:xlink="http://www.w3.org/1999/xlink" x="0px" y="0px"
	 width="64px" height="64px" viewBox="0 0 64 64" enable-background="new 0 0 64 64" xml:space="preserve">
<path fill="#7AB51D" d="M5.524,32.269c7.695-5.117,15.26-5.117,22.957,0c2.441,1.622,2.947,7.739,3.254,13.036h-4.338v16.225H6.608
	V45.305h-4.34C2.577,40.008,3.081,33.891,5.524,32.269z"/>
<polygon fill="#7AB51D" points="26.612,45.604 28.02,45.604 26.612,38.006 "/>
<path fill="#FFCC66" d="M26.612,61.529h4.025l1.098-16.225c0,0-2.56-0.658-5.123,0V61.529z"/>
<path fill="#E6B045" d="M12.793,29.203c0-0.722,0-3.931,0-3.931h8.418c0,0,0,3.159,0,3.931
	C21.211,33.435,12.793,33.435,12.793,29.203z"/>
<path fill="#7AB51D" d="M58.478,32.269c-7.697-5.117-15.261-5.117-22.956,0c-2.443,1.622-2.947,7.739-3.256,13.036h4.34v16.225
	h20.788V45.305h4.338C61.425,40.008,60.919,33.891,58.478,32.269z"/>
<polygon fill="#529320" points="54.609,49.604 56.609,45.305 56.609,38.006 "/>
<polygon fill="#529320" points="9.391,49.589 7.391,45.305 7.391,37.99 "/>
<polygon fill="#7AB51D" points="37.389,45.604 35.983,45.604 37.389,38.006 "/>
<path fill="#FFCC66" d="M37.389,61.529h-4.023l-1.1-16.225c0,0,2.563-0.658,5.123,0V61.529z"/>
<path fill="#E6B045" d="M51.209,29.203c0-0.722,0-3.931,0-3.931h-8.417c0,0,0,3.159,0,3.931
	C42.792,33.435,51.209,33.435,51.209,29.203z"/>
<path fill="#E6B045" d="M36.29,14.202c-3.584-0.646-0.785,9.36,2.018,6.601C39.608,19.522,37.963,14.505,36.29,14.202z"/>
<path fill="#E6B045" d="M57.714,14.202c-1.676,0.303-3.32,5.32-2.018,6.601C58.501,23.563,61.294,13.557,57.714,14.202z"/>
<path fill="#FFCC66" d="M47.001,2.471c-7.407,0-10.978,5.599-10.53,13.381c0.09,1.567,1.063,6.675,1.979,8.506
	c0.939,1.873,4.08,4.764,6.005,5.362c1.215,0.379,3.877,0.379,5.094,0c1.922-0.599,5.066-3.489,6.002-5.362
	c0.92-1.831,1.891-6.938,1.98-8.506C57.978,8.069,54.408,2.471,47.001,2.471z"/>
<path fill="#E6A400" d="M47.001,23.661c-1.668-0.491-4.134,0.231-4.134,0.231c0.94,1.024,1.628,2.349,4.134,2.349
	c2.869,0,3.359-1.505,4.135-2.349C51.136,23.893,48.666,23.168,47.001,23.661z"/>
<path fill="#FFFFFF" d="M43.497,24.065c1.747,1.464,5.274,1.474,7.03,0C48.666,24.145,45.371,24.145,43.497,24.065z"/>
<path fill="#E6B045" d="M49.3,20.908c0,1.493-4.596,1.493-4.596,0C44.705,20.566,49.3,20.566,49.3,20.908z"/>
<path fill="#594640" d="M47.001,2.471c-5.095,0-8.175,1.681-9.503,1.035c0,0-0.145,0.868,0.375,1.435c0,0-0.547,0.474-1.434-0.327
	C35.594,7.353,38.102,8.94,47.001,8.94c8.9,0,6.773-2.166,11.15,1.636C57.724,5.89,54.742,2.471,47.001,2.471z"/>
<path fill="#453631" d="M50.769,6.556c-4.9,1.808-6.69-1.453-11.313-1.769c2.199,1.038,3.273,2.636,5.077,3.786
	C40.602,7.26,37.719,4.999,37.5,3.515c0,0-0.656,2.167,1.938,3.788c-2.48,0.229-2.996-2.681-2.996-2.681
	c-1.258,2.015-1.084,8.514,0.31,13.338c0.232-1.723-0.297-2.434,0.5-4.507c2.383-6.199,0.85-3.597,9.749-3.597
	c8.9,0,7.295-2.372,9.75,3.597c0.732,1.777,0.266,2.784,0.5,4.507C60.179,7.083,55.968,4.64,50.769,6.556z"/>
<path fill="#FFFFFF" d="M54.931,16.455c-0.99,2.588-5.018,2.207-5.754,0.396C49.738,13.942,54.388,13.693,54.931,16.455z"/>
<path fill="#FFFFFF" d="M39.071,16.455c0.99,2.588,5.016,2.207,5.753,0.396C44.265,13.939,39.614,13.692,39.071,16.455z"/>
<path fill="#C1873C" d="M55.343,13.338c-1.695-0.84-4.936-0.881-6.146-0.294c-0.258,0.112-0.086,0.908,0.133,0.833
	c1.683-0.624,4.398-0.638,5.973,0.054C55.513,14.019,55.599,13.456,55.343,13.338z"/>
<path fill="#C1873C" d="M38.661,13.338c1.691-0.84,4.936-0.881,6.142-0.294c0.26,0.112,0.088,0.908-0.129,0.833
	c-1.685-0.624-4.398-0.638-5.974,0.054C38.489,14.019,38.405,13.456,38.661,13.338z"/>
<path fill="#613F34" d="M50.205,16.178c0,2.272,3.289,2.272,3.289,0C53.494,14.07,50.205,14.07,50.205,16.178z"/>
<path fill="#7D5037" d="M50.529,16.905c0,1.304,2.641,1.304,2.641,0C53.169,15.695,50.529,15.695,50.529,16.905z"/>
<path fill="#1A1626" d="M51.166,16.215c0,0.942,1.367,0.942,1.367,0C52.533,15.339,51.166,15.339,51.166,16.215z"/>
<path fill="#AB968C" d="M50.701,15.939c0,0.475,0.689,0.475,0.689,0C51.39,15.497,50.701,15.497,50.701,15.939z"/>
<path fill="#613F34" d="M40.508,16.178c0,2.272,3.289,2.272,3.289,0C43.797,14.07,40.508,14.07,40.508,16.178z"/>
<path fill="#7D5037" d="M40.834,16.905c0,1.3,2.639,1.3,2.639,0C43.473,15.695,40.834,15.695,40.834,16.905z"/>
<path fill="#1A1626" d="M41.471,16.215c0,0.942,1.365,0.942,1.365,0C42.836,15.338,41.471,15.338,41.471,16.215z"/>
<path fill="#AB968C" d="M41.004,15.939c0,0.476,0.689,0.476,0.689,0C41.694,15.496,41.004,15.496,41.004,15.939z"/>
<path fill="#E6B045" d="M54.931,16.434c0-2.778-5.754-2.778-5.754,0.441C50,14.234,54.109,14.234,54.931,16.434z"/>
<path fill="#E6B045" d="M39.071,16.434c0-2.778,5.753-2.778,5.753,0.44C44.002,14.233,39.891,14.233,39.071,16.434z"/>
<path fill="#E6B045" d="M6.29,14.202c-3.584-0.646-0.785,9.36,2.018,6.601C9.608,19.522,7.963,14.505,6.29,14.202z"/>
<path fill="#E6B045" d="M27.715,14.202c-1.676,0.303-3.32,5.32-2.018,6.601C28.502,23.563,31.295,13.557,27.715,14.202z"/>
<path fill="#FFCC66" d="M17.002,2.471c-7.408,0-10.979,5.599-10.531,13.381c0.09,1.567,1.063,6.675,1.978,8.506
	c0.939,1.873,4.08,4.764,6.006,5.362c1.215,0.379,3.877,0.379,5.094,0c1.922-0.599,5.066-3.489,6.002-5.362
	c0.92-1.831,1.891-6.938,1.98-8.506C27.979,8.069,24.409,2.471,17.002,2.471z"/>
<path fill="#E6A400" d="M17.002,23.661c-1.668-0.491-4.135,0.231-4.135,0.231c0.939,1.024,1.629,2.349,4.135,2.349
	c2.869,0,3.359-1.505,4.135-2.349C21.137,23.893,18.667,23.168,17.002,23.661z"/>
<path fill="#FFFFFF" d="M13.497,24.065c1.748,1.464,5.275,1.474,7.031,0C18.667,24.145,15.372,24.145,13.497,24.065z"/>
<path fill="#E6B045" d="M19.301,20.908c0,1.493-4.596,1.493-4.596,0C14.706,20.566,19.301,20.566,19.301,20.908z"/>
<path fill="#594640" d="M17.002,2.471c-5.096,0-8.176,1.681-9.504,1.035c0,0-0.144,0.868,0.375,1.435c0,0-0.547,0.474-1.434-0.327
	C5.594,7.353,8.102,8.94,17.002,8.94s6.773-2.166,11.15,1.636C27.725,5.89,24.743,2.471,17.002,2.471z"/>
<path fill="#453631" d="M20.77,6.556c-4.9,1.808-6.691-1.453-11.314-1.769c2.199,1.038,3.273,2.636,5.078,3.786
	C10.602,7.26,7.719,4.999,7.5,3.515c0,0-0.656,2.167,1.938,3.788c-2.48,0.229-2.996-2.681-2.996-2.681
	C5.184,6.637,5.358,13.136,6.752,17.96c0.232-1.723-0.297-2.434,0.5-4.507c2.383-6.199,0.85-3.597,9.75-3.597
	s7.295-2.372,9.75,3.597c0.732,1.777,0.266,2.784,0.5,4.507C30.18,7.083,25.969,4.64,20.77,6.556z"/>
<path fill="#FFFFFF" d="M24.932,16.455c-0.99,2.588-5.018,2.207-5.754,0.396C19.739,13.942,24.389,13.693,24.932,16.455z"/>
<path fill="#FFFFFF" d="M9.071,16.455c0.99,2.588,5.016,2.207,5.754,0.396C14.266,13.939,9.614,13.692,9.071,16.455z"/>
<path fill="#C1873C" d="M25.344,13.338c-1.695-0.84-4.935-0.881-6.146-0.294c-0.258,0.112-0.086,0.908,0.133,0.833
	c1.684-0.624,4.399-0.638,5.973,0.054C25.514,14.019,25.6,13.456,25.344,13.338z"/>
<path fill="#C1873C" d="M8.661,13.338c1.691-0.84,4.936-0.881,6.143-0.294c0.26,0.112,0.088,0.908-0.129,0.833
	c-1.686-0.624-4.398-0.638-5.975,0.054C8.489,14.019,8.405,13.456,8.661,13.338z"/>
<path fill="#613F34" d="M20.206,16.178c0,2.272,3.289,2.272,3.289,0C23.495,14.07,20.206,14.07,20.206,16.178z"/>
<path fill="#7D5037" d="M20.53,16.905c0,1.304,2.641,1.304,2.641,0C23.17,15.695,20.53,15.695,20.53,16.905z"/>
<path fill="#1A1626" d="M21.167,16.215c0,0.942,1.367,0.942,1.367,0C22.534,15.339,21.167,15.339,21.167,16.215z"/>
<path fill="#AB968C" d="M20.702,15.939c0,0.475,0.689,0.475,0.689,0C21.391,15.497,20.702,15.497,20.702,15.939z"/>
<path fill="#613F34" d="M10.508,16.178c0,2.272,3.289,2.272,3.289,0C13.797,14.07,10.508,14.07,10.508,16.178z"/>
<path fill="#7D5037" d="M10.834,16.905c0,1.3,2.639,1.3,2.639,0C13.473,15.695,10.834,15.695,10.834,16.905z"/>
<path fill="#1A1626" d="M11.471,16.215c0,0.942,1.365,0.942,1.365,0C12.836,15.338,11.471,15.338,11.471,16.215z"/>
<path fill="#AB968C" d="M11.004,15.939c0,0.476,0.689,0.476,0.689,0C11.694,15.496,11.004,15.496,11.004,15.939z"/>
<path fill="#E6B045" d="M24.932,16.434c0-2.778-5.754-2.778-5.754,0.441C20,14.234,24.11,14.234,24.932,16.434z"/>
<path fill="#E6B045" d="M9.071,16.434c0-2.778,5.754-2.778,5.754,0.44C14.002,14.233,9.891,14.233,9.071,16.434z"/>
<path fill="#4ABDFF" d="M50.289,54.717c-4.816-3.131-10.577-3.1-15.401,0.002c-1.656,1.063-2.205,6.811-2.205,6.811h19.792
	C52.474,61.529,51.927,55.777,50.289,54.717z"/>
<path fill="#E6B045" d="M45.501,52.955c0-0.537,0-2.924,0-2.924h-5.849c0,0,0,2.35,0,2.924
	C39.653,55.322,45.501,55.322,45.501,52.955z"/>
<path fill="#594640" d="M42.577,31.514c-10.516,0-9.502,8.422-9.502,12.357H52.08C52.08,39.936,53.093,31.514,42.577,31.514z"/>
<path fill="#E6B045" d="M34.014,42.289c-3.34-0.51-1.162,7.4,1.451,5.219C36.672,46.498,35.575,42.527,34.014,42.289z"/>
<path fill="#E6B045" d="M51.14,42.289c-1.563,0.238-2.662,4.209-1.451,5.219C52.302,49.689,54.478,41.779,51.14,42.289z"/>
<path fill="#FFCC66" d="M51.031,42.121c0-5.613-3.32-4.363-8.454-4.363c-5.133,0-8.453-1.25-8.453,4.363
	c0,0,0.016,2.141,0.564,4.951c0.896,4.602,4.617,6.406,7.889,6.406c3.271,0,6.995-1.805,7.888-6.406
	C51.011,44.26,51.031,42.121,51.031,42.121z"/>
<path fill="#594640" d="M42.403,35.648c-1.535,2.734-7.289,4.447-9.268,4.268C34.928,38.109,35.721,33.451,42.403,35.648z"/>
<path fill="#453631" d="M33.135,39.916c2.52-0.656,5.791-1.996,9.268-4.268C40.868,38.383,35.815,40.543,33.135,39.916z"/>
<path fill="#594640" d="M50.164,35.502c-2.174,3.258-10.312,5.295-13.106,5.082C39.588,38.43,40.713,32.885,50.164,35.502z"/>
<path fill="#453631" d="M37.057,40.584c6.685-1.857,13.106-5.082,13.106-5.082C47.99,38.76,41.934,41.057,37.057,40.584z"/>
<path fill="#594640" d="M50.478,34.754c2.605,4.238-4.176,5.977-6.978,5.805C46.013,38.904,47.699,34.621,50.478,34.754z"/>
<path fill="#453631" d="M43.5,40.559c3.368-1.543,8.505-1.859,6.978-5.805C53.084,38.992,46.472,40.941,43.5,40.559z"/>
<path fill="#FFFFFF" d="M48.812,43.863c-0.777,2.035-3.943,1.738-4.523,0.314C44.728,41.889,48.386,41.693,48.812,43.863z"/>
<path fill="#613F34" d="M45.095,43.646c0,1.787,2.588,1.787,2.588,0C47.683,41.988,45.095,41.988,45.095,43.646z"/>
<path fill="#7D5037" d="M45.351,44.219c0,1.025,2.076,1.025,2.076,0C47.427,43.27,45.351,43.27,45.351,44.219z"/>
<path fill="#1A1626" d="M45.851,43.678c0,0.738,1.074,0.738,1.074,0C46.925,42.988,45.851,42.988,45.851,43.678z"/>
<path fill="#AB968C" d="M45.486,43.461c0,0.373,0.543,0.373,0.543,0C46.029,43.113,45.486,43.113,45.486,43.461z"/>
<path fill="#E6B045" d="M48.812,43.848c0-2.184-4.523-2.184-4.523,0.348C44.935,42.117,48.167,42.117,48.812,43.848z"/>
<path fill="#FFFFFF" d="M36.342,43.863c0.775,2.035,3.943,1.738,4.523,0.314C40.424,41.889,36.772,41.693,36.342,43.863z"/>
<path fill="#613F34" d="M37.473,43.646c0,1.787,2.586,1.787,2.586,0C40.059,41.988,37.473,41.988,37.473,43.646z"/>
<path fill="#7D5037" d="M37.729,44.217c0,1.027,2.074,1.027,2.074,0C39.803,43.27,37.729,43.27,37.729,44.217z"/>
<path fill="#1A1626" d="M38.229,43.676c0,0.74,1.074,0.74,1.074,0C39.303,42.986,38.229,42.986,38.229,43.676z"/>
<path fill="#AB968C" d="M37.862,43.459c0,0.375,0.541,0.375,0.541,0C38.403,43.111,37.862,43.111,37.862,43.459z"/>
<path fill="#E6B045" d="M36.342,43.848c0-2.184,4.523-2.184,4.523,0.346C40.219,42.117,36.987,42.117,36.342,43.848z"/>
<path fill="#C1873C" d="M49.23,41.633c-1.352-0.668-3.938-0.701-4.902-0.234c-0.202,0.09-0.068,0.727,0.106,0.664
	c1.344-0.496,3.508-0.51,4.766,0.043C49.365,42.178,49.437,41.729,49.23,41.633z"/>
<path fill="#C1873C" d="M35.922,41.633c1.353-0.668,3.939-0.701,4.904-0.234c0.203,0.09,0.066,0.727-0.104,0.664
	c-1.346-0.496-3.51-0.51-4.768,0.043C35.79,42.178,35.717,41.729,35.922,41.633z"/>
<path fill="#E6A400" d="M42.577,49.299c-1.328-0.391-3.299,0.186-3.299,0.186c0.754,0.816,1.301,1.873,3.299,1.873
	c2.29,0,2.679-1.201,3.298-1.873C45.875,49.484,43.905,48.906,42.577,49.299z"/>
<path fill="#FFFFFF" d="M39.784,49.623c1.393,1.166,4.207,1.174,5.604,0C43.905,49.686,41.28,49.688,39.784,49.623z"/>
<path fill="#E6B045" d="M44.408,47.551c0,1.191-3.661,1.191-3.661,0C40.747,47.277,44.408,47.277,44.408,47.551z"/>
<path fill="#4ABDFF" d="M29.137,54.717c-4.816-3.131-10.578-3.1-15.402,0.002c-1.656,1.063-2.205,6.811-2.205,6.811h19.793
	C31.323,61.529,30.776,55.777,29.137,54.717z"/>
<path fill="#E6B045" d="M24.35,52.955c0-0.537,0-2.924,0-2.924H18.5c0,0,0,2.35,0,2.924C18.5,55.322,24.35,55.322,24.35,52.955z"/>
<path fill="#594640" d="M21.424,31.514c-10.516,0-9.502,8.422-9.502,12.357h19.006C30.928,39.936,31.942,31.514,21.424,31.514z"/>
<path fill="#E6B045" d="M12.862,42.289c-3.34-0.51-1.162,7.4,1.451,5.219C15.52,46.498,14.422,42.527,12.862,42.289z"/>
<path fill="#E6B045" d="M29.989,42.289c-1.563,0.238-2.662,4.209-1.451,5.219C31.151,49.689,33.327,41.779,29.989,42.289z"/>
<path fill="#FFCC66" d="M29.879,42.121c0-5.613-3.32-4.363-8.455-4.363c-5.133,0-8.453-1.25-8.453,4.363
	c0,0,0.016,2.141,0.564,4.951c0.896,4.602,4.617,6.406,7.889,6.406s6.996-1.805,7.889-6.406
	C29.86,44.26,29.879,42.121,29.879,42.121z"/>
<path fill="#594640" d="M21.25,35.648c-1.535,2.734-7.289,4.447-9.267,4.268C13.776,38.109,14.569,33.451,21.25,35.648z"/>
<path fill="#453631" d="M11.983,39.916c2.519-0.656,5.791-1.996,9.267-4.268C19.715,38.383,14.663,40.543,11.983,39.916z"/>
<path fill="#594640" d="M29.012,35.502c-2.174,3.258-10.313,5.295-13.108,5.082C18.436,38.43,19.561,32.885,29.012,35.502z"/>
<path fill="#453631" d="M15.905,40.584c6.686-1.857,13.108-5.082,13.108-5.082C26.838,38.76,20.782,41.057,15.905,40.584z"/>
<path fill="#594640" d="M29.327,34.754c2.605,4.238-4.176,5.977-6.979,5.805C24.862,38.904,26.547,34.621,29.327,34.754z"/>
<path fill="#453631" d="M22.348,40.559c3.369-1.543,8.506-1.859,6.979-5.805C31.932,38.992,25.321,40.941,22.348,40.559z"/>
<path fill="#FFFFFF" d="M27.661,43.863c-0.777,2.035-3.943,1.738-4.523,0.314C23.577,41.889,27.235,41.693,27.661,43.863z"/>
<path fill="#613F34" d="M23.944,43.646c0,1.787,2.588,1.787,2.588,0C26.532,41.988,23.944,41.988,23.944,43.646z"/>
<path fill="#7D5037" d="M24.2,44.219c0,1.025,2.076,1.025,2.076,0C26.276,43.27,24.2,43.27,24.2,44.219z"/>
<path fill="#1A1626" d="M24.7,43.678c0,0.738,1.074,0.738,1.074,0C25.774,42.988,24.7,42.988,24.7,43.678z"/>
<path fill="#AB968C" d="M24.334,43.461c0,0.373,0.543,0.373,0.543,0C24.877,43.113,24.334,43.113,24.334,43.461z"/>
<path fill="#E6B045" d="M27.661,43.848c0-2.184-4.523-2.184-4.523,0.348C23.784,42.117,27.016,42.117,27.661,43.848z"/>
<path fill="#FFFFFF" d="M15.19,43.863c0.775,2.035,3.943,1.738,4.523,0.314C19.272,41.889,15.62,41.693,15.19,43.863z"/>
<path fill="#613F34" d="M16.321,43.646c0,1.787,2.586,1.787,2.586,0C18.907,41.988,16.321,41.988,16.321,43.646z"/>
<path fill="#7D5037" d="M16.577,44.217c0,1.027,2.074,1.027,2.074,0C18.651,43.27,16.577,43.27,16.577,44.217z"/>
<path fill="#1A1626" d="M17.077,43.676c0,0.74,1.074,0.74,1.074,0C18.151,42.986,17.077,42.986,17.077,43.676z"/>
<path fill="#AB968C" d="M16.709,43.459c0,0.375,0.541,0.375,0.541,0C17.25,43.111,16.709,43.111,16.709,43.459z"/>
<path fill="#E6B045" d="M15.19,43.848c0-2.184,4.523-2.184,4.523,0.346C19.067,42.117,15.834,42.117,15.19,43.848z"/>
<path fill="#C1873C" d="M28.079,41.633c-1.352-0.668-3.938-0.701-4.902-0.234c-0.203,0.09-0.068,0.727,0.105,0.664
	c1.344-0.496,3.508-0.51,4.766,0.043C28.213,42.178,28.286,41.729,28.079,41.633z"/>
<path fill="#C1873C" d="M14.77,41.633c1.354-0.668,3.939-0.701,4.904-0.234c0.203,0.09,0.066,0.727-0.104,0.664
	c-1.346-0.496-3.51-0.51-4.768,0.043C14.637,42.178,14.565,41.729,14.77,41.633z"/>
<path fill="#E6A400" d="M21.424,49.299c-1.328-0.391-3.299,0.186-3.299,0.186c0.754,0.816,1.301,1.873,3.299,1.873
	c2.291,0,2.68-1.201,3.299-1.873C24.723,49.484,22.752,48.906,21.424,49.299z"/>
<path fill="#FFFFFF" d="M18.631,49.623c1.393,1.166,4.207,1.174,5.606,0C22.752,49.686,20.127,49.688,18.631,49.623z"/>
<path fill="#E6B045" d="M23.256,47.551c0,1.191-3.662,1.191-3.662,0C19.594,47.277,23.256,47.277,23.256,47.551z"/>
<path fill="#FFCC66" d="M12.102,57.021c0.807,0.491,2.559-2.121,1.822-2.712c-4.496-3.604-6.533-9.005-6.533-9.005
	c-2.283-0.691-5.123,0-5.123,0C2.559,50.671,8.182,54.63,12.102,57.021z"/>
<path fill="#FFCC66" d="M15.627,53.174c1.666-0.392,4.768,1.096,3.01,1.478c0.396,0.462,0.348,1.003-0.983,0.637
	c0.512,0.458-0.336,0.817-1.014,0.654c0.201,1.159-2.219,0.477-2.941,0.84c-1.037,0.52-1.26,0.829-1.523,0.677
	C10.247,56.351,12.862,53.82,15.627,53.174z"/>
<path fill="#FFCC66" d="M51.898,57.021c-0.805,0.491-2.559-2.121-1.822-2.712c4.498-3.604,6.533-9.005,6.533-9.005
	c2.283-0.691,5.123,0,5.123,0C61.441,50.671,55.818,54.63,51.898,57.021z"/>
<path fill="#FFCC66" d="M48.373,53.174c-1.666-0.392-4.767,1.096-3.01,1.478c-0.395,0.462-0.348,1.003,0.982,0.637
	c-0.51,0.458,0.338,0.817,1.016,0.654c-0.201,1.159,2.217,0.477,2.941,0.84c1.035,0.52,1.258,0.829,1.523,0.677
	C53.755,56.351,51.138,53.82,48.373,53.174z"/>
</svg>
