<?xml version="1.0" encoding="utf-8"?>
<!-- Generator: Adobe Illustrator 19.0.0, SVG Export Plug-In . SVG Version: 6.00 Build 0)  -->
<svg version="1.1" id="Layer_1" xmlns="http://www.w3.org/2000/svg" xmlns:xlink="http://www.w3.org/1999/xlink" x="0px" y="0px"
	 width="64px" height="64px" viewBox="0 0 64 64" enable-background="new 0 0 64 64" xml:space="preserve">
<path fill="#211E1A" d="M15.473,15.477c-8.107,37.396-7.365,36.596,9.703,36.596C15.731,44.972,33.822,14.968,15.473,15.477z"/>
<path fill="#26221E" d="M12.549,14.898C6.633,43.31,11.736,50.606,16.27,52.072h5.193C9.311,42.87,28.309,14.338,12.549,14.898z"/>
<path fill="#211E1A" d="M39.326,15.475c8.107,37.397,7.365,36.597-9.701,36.597C38.311,46.372,20.977,14.966,39.326,15.475z"/>
<path fill="#26221E" d="M42.248,14.896c8.65,25.85-0.018,35.979-3.719,37.176h-5.193C45.49,43.621,26.492,14.336,42.248,14.896z"/>
<path fill="#38332D" d="M43.447,28.786c2.467,6.571,0.025,20.059-5.082,23.286c5.66,0,9.111-8.55,10.791-20.31
	C51.258,17.067,39.051,17.06,43.447,28.786z"/>
<path fill="#38332D" d="M6.277,34.489c2.064,10.613,4.601,17.583,10.16,17.583c-6.197-6.999-5.467-21.76-3.707-25.433
	C21.707,20.813,2.789,16.536,6.277,34.489z"/>
<path fill="#E6EBEF" d="M7.758,52.204c2.398-1.443,13.232-5.257,13.232-5.257h13.1c0,0,10.822,3.808,13.209,5.254
	C50.77,54.305,51.5,62,51.5,62h-48C3.5,62,4.275,54.297,7.758,52.204z"/>
<path fill="#423225" d="M34.592,48.346c0-1.135,0-6.166,0-6.166H20.41c0,0,0,4.955,0,6.166
	C20.41,53.334,34.592,53.334,34.592,48.346z"/>
<path fill="#006DAE" d="M43.014,57.448c0.09-2.16,0.113-3.185-0.656-7.433c-0.185-0.346-4.316-1.979-4.85-1.836
	c0.693,4.64,0.703,6.213,0.654,8.827c-5.766-0.155-15.559-0.155-21.324,0c-0.049-2.614-0.043-4.156,0.65-8.796
	c-0.533-0.143-4.668,1.493-4.854,1.838c-0.766,4.251-0.736,5.242-0.646,7.399C11.207,57.951,10.699,62,10.699,62h33.602
	C44.301,62,43.793,57.951,43.014,57.448z"/>
<path fill="#BEC3CF" d="M9.242,62c0.506-1.788-0.094-4.509-0.726-6.005C7.92,54.6,8.141,61.017,9.242,62z"/>
<path fill="#BEC3CF" d="M46.484,55.995c-0.633,1.496-1.229,4.217-0.727,6.005C46.859,61.017,47.084,54.6,46.484,55.995z"/>
<path fill="#614A36" d="M27.5,6.488c-11.609,0-17.201,9.455-16.502,21.611c0.143,2.444,0.822,5.969,1.66,8.989
	c1.742,6.278,10.93,12.6,14.842,12.6c3.91,0,13.1-6.321,14.84-12.6c0.84-3.021,1.52-6.545,1.664-8.989
	C44.701,15.943,39.111,6.488,27.5,6.488z"/>
<path fill="#36281D" d="M27.5,39.661c-2.822-1.241-2.844-0.051-7.199,0.242c1.635,1.855,2.838,4.243,7.197,4.243
	c5.004,0,5.85-2.711,7.203-4.243C30.342,39.61,30.322,38.42,27.5,39.661z"/>
<path fill="#FFFFFF" d="M21.607,40.365c2.844,2.96,8.977,2.921,11.785,0.002C29.014,40.837,25.988,40.837,21.607,40.365z"/>
<path fill="#423225" d="M40.295,23.684c-2.617-1.559-7.308-1.75-9.166-0.688c-0.392,0.215-0.287,1.341,0.053,1.2
	c2.648-1.103,6.682-1.157,9.168,0.117C40.684,24.483,40.689,23.91,40.295,23.684z"/>
<path fill="#423225" d="M14.707,23.684c2.615-1.559,7.307-1.75,9.166-0.688c0.393,0.215,0.289,1.341-0.055,1.2
	c-2.648-1.103-6.68-1.159-9.166,0.117C14.318,24.483,14.311,23.91,14.707,23.684z"/>
<path fill="#423225" d="M31.1,35.419c0,2.342-7.199,2.342-7.199,0C23.9,34.881,31.1,34.881,31.1,35.419z"/>
<path fill="#FFFFFF" d="M40.041,28.431c-1.551,4.06-7.861,3.465-9.016,0.624C31.9,24.488,39.188,24.098,40.041,28.431z"/>
<path fill="#613F34" d="M32.605,27.989c0,3.596,5.201,3.596,5.201,0C37.807,24.652,32.605,24.652,32.605,27.989z"/>
<path fill="#7D5037" d="M33.119,29.14c0,2.063,4.172,2.063,4.172,0C37.291,27.227,33.119,27.227,33.119,29.14z"/>
<path fill="#1A1626" d="M34.127,28.046c0,1.492,2.158,1.492,2.158,0C36.285,26.661,34.127,26.661,34.127,28.046z"/>
<path fill="#AB968C" d="M33.389,27.61c0,0.754,1.09,0.754,1.09,0C34.479,26.91,33.389,26.91,33.389,27.61z"/>
<path fill="#45332C" d="M40.041,28.399c0-4.36-9.016-4.36-9.016,0.691C32.311,24.945,38.754,24.945,40.041,28.399z"/>
<path fill="#FFFFFF" d="M14.959,28.431c1.553,4.06,7.863,3.466,9.02,0.624C23.102,24.488,15.814,24.098,14.959,28.431z"/>
<path fill="#613F34" d="M17.195,27.995c0,3.596,5.199,3.596,5.199,0C22.395,24.657,17.195,24.657,17.195,27.995z"/>
<path fill="#7D5037" d="M17.709,29.146c0,2.062,4.172,2.062,4.172,0C21.881,27.232,17.709,27.232,17.709,29.146z"/>
<path fill="#1A1626" d="M18.715,28.052c0,1.492,2.16,1.492,2.16,0C20.875,26.666,18.715,26.666,18.715,28.052z"/>
<path fill="#AB968C" d="M17.979,27.615c0,0.755,1.09,0.755,1.09,0C19.068,26.916,17.979,26.916,17.979,27.615z"/>
<path fill="#45332C" d="M14.959,28.399c0-4.36,9.02-4.36,9.02,0.689C22.691,24.943,16.248,24.943,14.959,28.399z"/>
<path fill="#38332D" d="M39.391,8.18c-7.461,8.341-0.34,8.88,4.057,20.606c2.467,6.571,4.029,14.736,5.709,2.976
	C51.258,17.067,43.184,6.952,39.391,8.18z"/>
<path fill="#38332D" d="M21.074,4.984C11.611,7.414,2.789,16.536,6.277,34.489c2.064,10.613,2.9-3.666,4.662-7.339
	c8.977-5.827,26.119-10.752,28.451-18.971C40.576,6.282,30.543,2.278,21.074,4.984z"/>
<path fill="#26221E" d="M13.617,18.063C17.68,17.177,37.113,16.76,39.57,8.18C34.979,12.113,30.221,13.184,13.617,18.063z"/>
<path fill="#26221E" d="M6.613,31.711c6.815-9.774,29.139-8.695,32.957-23.531C32.158,20.631,8.475,22.315,6.613,31.711z"/>
<path fill="#26221E" d="M37.324,10.213c-1.758,2.978,4.354-1.397,10.942,17.785C46.641,16.783,41.074,9.062,37.324,10.213z"/>
<path opacity="0.2" d="M46.291,24.882c-12.207-3.785-25.355-3.785-37.564,0c-0.51-1.5-1.019-2.999-1.529-4.498
	c13.201-4.094,27.42-4.094,40.623,0C47.309,21.883,46.799,23.382,46.291,24.882z"/>
<path fill="#99A8AE" d="M46.084,23.936c-12.207-3.785-25.357-3.785-37.563,0c-0.51-1.499-1.021-2.998-1.529-4.497
	c13.199-4.094,27.42-4.094,40.621,0C47.104,20.938,46.594,22.437,46.084,23.936z"/>
<polygon fill="#6E8189" points="2,21.188 2,27.235 6.275,28.419 6.275,20.007 "/>
<polygon fill="#6E8189" points="53,21.188 53,27.235 48.725,28.419 48.725,20.007 "/>
<path fill="#302C3B" d="M49.703,32c0-19.37-3.184-29.361-22.201-29.361S5.301,12.63,5.301,32c0,0,3.184-17.497,22.201-17.497
	S49.703,32,49.703,32z"/>
<path fill="#6E8189" d="M27.5,7.735c6.922,0,11.908,1.195,15.49,3.549l-2.199-6.638c-13.289-2.647-26.578,0-26.578,0l-2.201,6.638
	C15.592,8.931,20.578,7.735,27.5,7.735z"/>
<polygon fill="#4E5E67" points="40.791,4.647 38.902,2 16.115,2 14.229,4.646 "/>
<polygon fill="#302C3B" points="39.367,4.647 38.424,3.323 16.592,3.323 15.652,4.647 "/>
<path fill="#4E5E67" d="M49.703,32c0-12.831-11.734-17.559-22.201-17.559C17.039,14.441,5.301,19.169,5.301,32
	c0,0,3.184-15.375,22.201-15.375S49.703,32,49.703,32z"/>
<path fill="#99A8AE" d="M42.307,57.352l-1.875-0.489l2.535-9.093c0.418-1.517,1.299-4.671,5.639-5.868l0.533,1.814
	c-3.287,0.902-3.894,3.094-4.301,4.543L42.307,57.352z"/>
<path fill="#F9B700" d="M62,38.332c0,0-3.223-1.223-9.705,1.024c-3.141,1.095-1.564,5.348,1.578,4.258
	C60.104,41.45,62,38.332,62,38.332z"/>
<path fill="#FFE12C" d="M52.939,42.735c-2.381,0.836-3.172-1.303-0.787-2.125c2.783-0.971,7.879-1.596,7.879-1.596
	S55.725,41.769,52.939,42.735"/>
<polygon fill="#6E8189" points="49.033,44.642 47.951,41.024 50.084,41.405 50.629,43.21 "/>
<polygon fill="#302C3B" points="42.021,62 43.537,56.545 39.787,55.563 38,62 "/>
</svg>
