<?xml version="1.0" encoding="utf-8"?>
<!-- Generator: Adobe Illustrator 19.0.0, SVG Export Plug-In . SVG Version: 6.00 Build 0)  -->
<svg version="1.1" id="Layer_1" xmlns="http://www.w3.org/2000/svg" xmlns:xlink="http://www.w3.org/1999/xlink" x="0px" y="0px"
	 width="64px" height="64px" viewBox="0 0 64 64" enable-background="new 0 0 64 64" xml:space="preserve">
<path fill="#4F3228" d="M45.819,61.998c0-15.812-27.909-16.185-27.909,0H45.819z"/>
<path fill="#5C3A2E" d="M15.845,16.253C4.953,62.999,5.951,61.998,28.877,61.998C16.189,53.122,40.493,15.617,15.845,16.253z"/>
<path fill="#6B4435" d="M11.915,15.529c-7.947,35.516-1.09,44.636,4.998,46.469h6.979C7.566,50.495,33.086,14.83,11.915,15.529z"/>
<path fill="#5C3A2E" d="M47.887,16.251c10.891,46.746,9.893,45.745-13.031,45.745C46.522,54.873,23.236,15.615,47.887,16.251z"/>
<path fill="#6B4435" d="M51.813,15.527c11.619,32.312-0.025,44.973-4.998,46.469H39.84C56.166,51.434,30.647,14.828,51.813,15.527z"
	/>
<path fill="#B88A6F" d="M32,5.019c-14.513,0-21.503,11.818-20.63,27.014c0.18,3.055,1.029,7.461,2.078,11.236
	C15.624,51.116,27.11,59.019,32,59.019c4.889,0,16.373-7.902,18.551-15.75c1.049-3.775,1.898-8.182,2.078-11.236
	C53.5,16.837,46.514,5.019,32,5.019z"/>
<path fill="#FFFFFF" d="M47.676,32.446c-1.939,5.074-9.826,4.33-11.27,0.779C37.502,27.519,46.61,27.03,47.676,32.446z"/>
<path fill="#FFFFFF" d="M16.324,32.446c1.939,5.074,9.829,4.332,11.274,0.779C26.502,27.519,17.392,27.03,16.324,32.446z"/>
<path fill="#84401E" d="M32,46.483c-3.527-1.551-3.555-0.063-9.001,0.303c2.045,2.32,3.55,5.305,8.999,5.305
	c6.254,0,7.311-3.389,9.004-5.305C35.553,46.421,35.53,44.933,32,46.483z"/>
<path fill="#FFFFFF" d="M24.634,47.364c3.556,3.699,11.222,3.65,14.731,0.002C33.893,47.954,30.11,47.954,24.634,47.364z"/>
<path fill="#423225" d="M47.993,26.513c-3.27-1.949-9.135-2.188-11.455-0.859c-0.492,0.268-0.359,1.676,0.064,1.5
	c3.311-1.379,8.354-1.447,11.461,0.146C48.479,27.511,48.489,26.796,47.993,26.513z"/>
<path fill="#423225" d="M16.007,26.513c3.27-1.949,9.133-2.188,11.458-0.859c0.492,0.268,0.361,1.676-0.066,1.5
	c-3.311-1.379-8.351-1.449-11.46,0.146C15.521,27.511,15.513,26.796,16.007,26.513z"/>
<path fill="#946346" d="M36.5,41.181c0,2.928-9,2.928-9,0C27.5,40.509,36.5,40.509,36.5,41.181z"/>
<path fill="#875B49" d="M48.215,7.132c-10.174,10.427-0.463,11.101,5.531,25.759c3.363,8.214,0.035,25.072-6.932,29.108
	c7.721,0,12.424-10.688,14.717-25.388C64.397,18.242,53.387,5.598,48.215,7.132z"/>
<path fill="#875B49" d="M23.236,3.139C10.333,6.176-1.696,17.578,3.062,40.019c2.813,13.267,6.273,21.979,13.852,21.979
	c-8.449-8.749-7.455-27.2-5.053-31.791c12.24-7.284,33.173-12.801,36.354-23.075C49.831,4.761,36.151-0.244,23.236,3.139z"/>
<path fill="#6B4435" d="M13.351,19.485c5.455-1.107,31.563-1.628,34.864-12.354C42.045,12.049,35.657,13.388,13.351,19.485z"/>
<path fill="#6B4435" d="M3.941,36.546c9.156-12.218,39.146-10.869,44.274-29.414C38.258,22.696,6.443,24.801,3.941,36.546z"/>
<path fill="#6B4435" d="M45.198,9.674c-2.361,3.722,5.848-1.747,14.695,22.231C57.713,17.887,50.237,8.234,45.198,9.674z"/>
<path fill="#613F34" d="M38.383,31.895c0,4.495,6.5,4.495,6.5,0C44.883,27.723,38.383,27.723,38.383,31.895z"/>
<path fill="#7D5037" d="M39.026,33.332c0,2.578,5.215,2.578,5.215,0C44.241,30.94,39.026,30.94,39.026,33.332z"/>
<path fill="#1A1626" d="M40.284,31.965c0,1.865,2.699,1.865,2.699,0C42.983,30.233,40.284,30.233,40.284,31.965z"/>
<path fill="#AB968C" d="M39.362,31.42c0,0.943,1.363,0.943,1.363,0C40.725,30.545,39.362,30.545,39.362,31.42z"/>
<path fill="#613F34" d="M19.119,31.901c0,4.495,6.5,4.495,6.5,0C25.619,27.73,19.119,27.73,19.119,31.901z"/>
<path fill="#7D5037" d="M19.761,33.339c0,2.578,5.215,2.578,5.215,0C24.976,30.947,19.761,30.947,19.761,33.339z"/>
<path fill="#1A1626" d="M21.019,31.972c0,1.865,2.699,1.865,2.699,0C23.718,30.24,21.019,30.24,21.019,31.972z"/>
<path fill="#AB968C" d="M20.097,31.427c0,0.943,1.363,0.943,1.363,0C21.46,30.552,20.097,30.552,20.097,31.427z"/>
<path fill="#45332C" d="M47.676,32.407c0-5.451-11.27-5.451-11.27,0.863C38.014,28.089,46.069,28.089,47.676,32.407z"/>
<path fill="#45332C" d="M16.324,32.407c0-5.451,11.274-5.451,11.274,0.861C25.988,28.087,17.933,28.087,16.324,32.407z"/>
</svg>
