<?xml version="1.0" encoding="utf-8"?>
<!-- Generator: Adobe Illustrator 19.0.0, SVG Export Plug-In . SVG Version: 6.00 Build 0)  -->
<svg version="1.1" id="Layer_1" xmlns="http://www.w3.org/2000/svg" xmlns:xlink="http://www.w3.org/1999/xlink" x="0px" y="0px"
	 width="64px" height="64px" viewBox="0 0 64 64" enable-background="new 0 0 64 64" xml:space="preserve">
<path fill="#99A8AE" d="M45.818,61.998c0-15.813-27.908-16.186-27.908,0H45.818z"/>
<path fill="#B3C2C6" d="M15.846,16.252C4.953,62.998,5.951,61.998,28.877,61.998C16.189,53.121,40.492,15.617,15.846,16.252z"/>
<path fill="#CFD8DD" d="M11.916,15.529c-7.947,35.516-1.09,44.635,4.998,46.469h6.978C7.566,50.494,33.086,14.83,11.916,15.529z"/>
<path fill="#B3C2C6" d="M47.887,16.25c10.891,46.746,9.893,45.746-13.031,45.746C46.521,54.873,23.236,15.615,47.887,16.25z"/>
<path fill="#CFD8DD" d="M51.812,15.527c11.619,32.311-0.025,44.973-4.998,46.469H39.84C56.166,51.434,30.646,14.828,51.812,15.527z"
	/>
<path fill="#FCD5B2" d="M32,5.018c-14.512,0-21.502,11.818-20.629,27.014c0.18,3.055,1.029,7.461,2.078,11.236
	c2.176,7.848,13.66,15.75,18.551,15.75c4.889,0,16.373-7.902,18.551-15.75c1.049-3.775,1.898-8.182,2.078-11.236
	C53.5,16.836,46.514,5.018,32,5.018z"/>
<path fill="#FFFFFF" d="M47.676,32.445c-1.939,5.074-9.826,4.33-11.27,0.779C37.502,27.518,46.609,27.029,47.676,32.445z"/>
<path fill="#FFFFFF" d="M16.324,32.445c1.94,5.074,9.828,4.332,11.274,0.779C26.502,27.518,17.393,27.029,16.324,32.445z"/>
<path fill="#D88D56" d="M32,46.483c-3.527-1.551-3.555-0.063-9,0.303c2.045,2.32,3.549,5.305,8.998,5.305
	c6.254,0,7.311-3.389,9.004-5.305C35.553,46.42,35.529,44.932,32,46.483z"/>
<path fill="#FFFFFF" d="M24.635,47.363c3.555,3.699,11.221,3.65,14.73,0.002C33.893,47.953,30.109,47.953,24.635,47.363z"/>
<path fill="#99A8AE" d="M47.992,26.512c-3.27-1.949-9.135-2.188-11.455-0.859c-0.492,0.268-0.359,1.676,0.064,1.5
	c3.311-1.379,8.354-1.447,11.461,0.146C48.478,27.51,48.488,26.795,47.992,26.512z"/>
<path fill="#99A8AE" d="M16.008,26.512c3.27-1.949,9.133-2.188,11.457-0.859c0.492,0.268,0.361,1.676-0.066,1.5
	c-3.31-1.379-8.35-1.449-11.459,0.146C15.521,27.51,15.514,26.795,16.008,26.512z"/>
<path fill="#DBA97F" d="M36.5,41.18c0,2.928-9,2.928-9,0C27.5,40.508,36.5,40.508,36.5,41.18z"/>
<path fill="#E6EBEF" d="M48.215,7.131c-10.174,10.428-0.463,11.102,5.531,25.76c3.363,8.213,0.035,25.072-6.932,29.107
	c7.721,0,12.424-10.688,14.717-25.389C64.396,18.242,53.387,5.598,48.215,7.131z"/>
<path fill="#E6EBEF" d="M23.236,3.139C10.334,6.176-1.695,17.578,3.062,40.018c2.813,13.267,6.273,21.98,13.852,21.98
	c-8.449-8.75-7.455-27.201-5.053-31.791c12.24-7.285,33.172-12.801,36.354-23.076C49.83,4.76,36.15-0.244,23.236,3.139z"/>
<path fill="#B3C2C6" d="M13.352,19.485c5.455-1.105,31.563-1.627,34.863-12.354C42.045,12.049,35.656,13.387,13.352,19.485z"/>
<path fill="#B3C2C6" d="M3.941,36.545c9.156-12.217,39.145-10.869,44.273-29.414C38.258,22.695,6.443,24.801,3.941,36.545z"/>
<path fill="#B3C2C6" d="M45.197,9.674c-2.361,3.721,5.848-1.748,14.695,22.23C57.713,17.887,50.236,8.235,45.197,9.674z"/>
<path fill="#613F34" d="M38.383,31.895c0,4.494,6.5,4.494,6.5,0C44.883,27.723,38.383,27.723,38.383,31.895z"/>
<path fill="#7D5037" d="M39.025,33.332c0,2.577,5.215,2.577,5.215,0C44.24,30.94,39.025,30.94,39.025,33.332z"/>
<path fill="#1A1626" d="M40.283,31.965c0,1.865,2.699,1.865,2.699,0C42.982,30.233,40.283,30.233,40.283,31.965z"/>
<path fill="#AB968C" d="M39.361,31.42c0,0.942,1.363,0.942,1.363,0C40.725,30.545,39.361,30.545,39.361,31.42z"/>
<path fill="#613F34" d="M19.119,31.901c0,4.495,6.5,4.495,6.5,0C25.619,27.729,19.119,27.729,19.119,31.901z"/>
<path fill="#7D5037" d="M19.762,33.338c0,2.578,5.215,2.578,5.215,0C24.977,30.947,19.762,30.947,19.762,33.338z"/>
<path fill="#1A1626" d="M21.019,31.972c0,1.865,2.699,1.865,2.699,0C23.719,30.24,21.019,30.24,21.019,31.972z"/>
<path fill="#AB968C" d="M20.098,31.426c0,0.943,1.363,0.943,1.363,0C21.461,30.552,20.098,30.552,20.098,31.426z"/>
<path fill="#45332C" d="M47.676,32.406c0-5.451-11.27-5.451-11.27,0.863C38.014,28.088,46.068,28.088,47.676,32.406z"/>
<path fill="#45332C" d="M16.324,32.406c0-5.451,11.274-5.451,11.274,0.861C25.988,28.086,17.934,28.086,16.324,32.406z"/>
</svg>
