<?xml version="1.0" encoding="utf-8"?>
<!-- Generator: Adobe Illustrator 15.0.0, SVG Export Plug-In . SVG Version: 6.00 Build 0)  -->
<!DOCTYPE svg PUBLIC "-//W3C//DTD SVG 1.1//EN" "http://www.w3.org/Graphics/SVG/1.1/DTD/svg11.dtd" [
	<!ENTITY ns_flows "http://ns.adobe.com/Flows/1.0/">
	<!ENTITY ns_extend "http://ns.adobe.com/Extensibility/1.0/">
	<!ENTITY ns_ai "http://ns.adobe.com/AdobeIllustrator/10.0/">
	<!ENTITY ns_graphs "http://ns.adobe.com/Graphs/1.0/">
]>
<svg version="1.1" id="Layer_1" xmlns:x="&ns_extend;" xmlns:i="&ns_ai;" xmlns:graph="&ns_graphs;"
	 xmlns="http://www.w3.org/2000/svg" xmlns:xlink="http://www.w3.org/1999/xlink" xmlns:a="http://ns.adobe.com/AdobeSVGViewerExtensions/3.0/"
	 x="0px" y="0px" width="64px" height="64px" viewBox="0 0 64 64" enable-background="new 0 0 64 64" xml:space="preserve">
<path fill="#3B2C29" d="M23.921,9.213c-5.444,23.344-4.943,22.848,6.519,22.848C24.098,27.625,36.246,8.896,23.921,9.213z"/>
<path fill="#453631" d="M21.959,8.852c-3.975,17.736-0.546,22.291,2.498,23.209h3.49C19.782,26.313,32.543,8.504,21.959,8.852z"/>
<path fill="#3B2C29" d="M39.942,9.211c5.447,23.346,4.947,22.846-6.514,22.846C39.26,28.5,27.618,8.895,39.942,9.211z"/>
<path fill="#453631" d="M41.909,8.852c5.806,16.135-0.015,22.457-2.5,23.205h-3.49C44.082,26.781,31.323,8.502,41.909,8.852z"/>
<path fill="#594640" d="M42.874,17.523c1.683,4.102,0.018,12.52-3.465,14.537c3.859,0,6.21-5.34,7.357-12.682
	C48.197,10.205,39.875,10.201,42.874,17.523z"/>
<path fill="#594640" d="M17.53,21.082c1.406,6.623,3.136,10.979,6.927,10.979c-4.223-4.371-3.727-13.586-2.527-15.879
	C28.051,12.543,15.153,9.875,17.53,21.082z"/>
<path fill="#8E3ED6" d="M43.479,32.738c-7.696-5.117-15.261-5.117-22.957,0c-2.442,1.623-3.947,6.74-4.255,12.037l5.339,1V62h20.789
	V45.775l5.339-1C47.427,39.479,45.92,34.361,43.479,32.738z"/>
<path fill="#E6B045" d="M27.792,29.77c0-0.723,0-3.932,0-3.932h8.418c0,0,0,3.16,0,3.932C36.21,34,27.792,34,27.792,29.77z"/>
<path fill="#FFCC66" d="M31.999,3.602c-7.256,0-10.751,5.902-10.313,13.492c0.09,1.525,0.516,3.725,1.037,5.611
	c1.091,3.918,6.833,7.865,9.276,7.865c2.446,0,8.188-3.947,9.278-7.865c0.523-1.887,0.946-4.086,1.039-5.611
	C42.751,9.504,39.256,3.602,31.999,3.602z"/>
<path fill="#D47706" d="M32.001,24.309c-1.765-0.773-1.776-0.029-4.501,0.154c1.023,1.158,1.775,2.648,4.499,2.648
	c3.128,0,3.655-1.693,4.502-2.648C33.777,24.279,33.766,23.535,32.001,24.309z"/>
<path fill="#FFFFFF" d="M28.32,24.75c1.776,1.848,5.608,1.824,7.361,0C32.948,25.045,31.054,25.045,28.32,24.75z"/>
<path fill="#594640" d="M39.995,14.336c-1.635-0.973-4.567-1.092-5.726-0.428c-0.248,0.133-0.181,0.838,0.033,0.748
	c1.653-0.688,4.175-0.723,5.729,0.074C40.24,14.836,40.244,14.479,39.995,14.336z"/>
<path fill="#594640" d="M24.004,14.336c1.633-0.973,4.568-1.092,5.729-0.428c0.248,0.133,0.181,0.838-0.034,0.748
	c-1.654-0.688-4.175-0.723-5.729,0.074C23.762,14.836,23.759,14.479,24.004,14.336z"/>
<path fill="#E6B045" d="M34.251,21.662c0,1.461-4.502,1.461-4.502,0C29.749,21.326,34.251,21.326,34.251,21.662z"/>
<path fill="#FFFFFF" d="M39.839,17.301c-0.971,2.533-4.913,2.162-5.636,0.389C34.75,14.838,39.307,14.594,39.839,17.301z"/>
<path fill="#613F34" d="M35.193,17.025c0,2.244,3.248,2.244,3.248,0C38.441,14.939,35.193,14.939,35.193,17.025z"/>
<path fill="#7D5037" d="M35.513,17.744c0,1.283,2.608,1.283,2.608,0C38.121,16.547,35.513,16.547,35.513,17.744z"/>
<path fill="#1A1626" d="M36.142,17.059c0,0.934,1.35,0.934,1.35,0C37.491,16.193,36.142,16.193,36.142,17.059z"/>
<path fill="#AB968C" d="M35.68,16.787c0,0.471,0.684,0.471,0.684,0C36.363,16.352,35.68,16.352,35.68,16.787z"/>
<path fill="#45332C" d="M39.839,17.281c0-2.723-5.636-2.723-5.636,0.432C35.008,15.125,39.035,15.125,39.839,17.281z"/>
<path fill="#FFFFFF" d="M24.163,17.301c0.969,2.533,4.912,2.164,5.636,0.389C29.254,14.838,24.695,14.594,24.163,17.301z"/>
<path fill="#613F34" d="M25.561,17.027c0,2.246,3.248,2.246,3.248,0C28.809,14.945,25.561,14.945,25.561,17.027z"/>
<path fill="#7D5037" d="M25.881,17.746c0,1.285,2.607,1.285,2.607,0C28.488,16.553,25.881,16.553,25.881,17.746z"/>
<path fill="#1A1626" d="M26.51,17.063c0,0.932,1.35,0.932,1.35,0C27.859,16.197,26.51,16.197,26.51,17.063z"/>
<path fill="#AB968C" d="M26.048,16.791c0,0.471,0.682,0.471,0.682,0C26.729,16.355,26.048,16.355,26.048,16.791z"/>
<path fill="#45332C" d="M24.163,17.281c0-2.723,5.636-2.723,5.636,0.43C28.994,15.123,24.967,15.123,24.163,17.281z"/>
<path fill="#594640" d="M40.108,4.658c-5.089,5.207-0.233,5.543,2.766,12.865c1.683,4.102,2.745,9.197,3.893,1.855
	C48.197,10.205,42.692,3.891,40.108,4.658z"/>
<path fill="#594640" d="M27.618,2.664C21.167,4.18,15.153,9.875,17.53,21.082c1.406,6.623,3.2-2.607,4.399-4.9
	c6.121-3.639,16.587-6.393,18.179-11.523C40.915,3.475,34.074,0.975,27.618,2.664z"/>
<path fill="#453631" d="M22.678,10.828c2.728-0.553,15.779-0.814,17.431-6.17C37.023,7.113,33.829,7.783,22.678,10.828z"/>
<path fill="#453631" d="M17.971,19.348c4.577-6.104,19.573-5.43,22.138-14.689C35.13,12.43,19.222,13.482,17.971,19.348z"/>
<path fill="#453631" d="M38.599,5.928c-1.182,1.859,2.923-0.873,7.349,11.104C44.856,10.029,41.12,5.209,38.599,5.928z"/>
<path fill="#E32B56" d="M39.713,54.669c-0.982-0.688-5.299-2.493-5.299-2.493h-4.797c0,0-4.318,1.81-5.307,2.494
	C22.654,55.813,22.104,62,22.104,62h19.793C41.896,62,41.35,55.811,39.713,54.669z"/>
<path fill="#E6B045" d="M34.924,52.839c0-0.538,0-2.925,0-2.925h-5.85c0,0,0,2.351,0,2.925
	C29.074,55.205,34.924,55.205,34.924,52.839z"/>
<path fill="#594640" d="M24.494,43.937c-7.076,4.172-0.855,7.97-2.869,9.768C25.539,56.13,35.119,51.95,24.494,43.937z"/>
<path fill="#453631" d="M22.381,45.521c1.736,6.659,5.311,6.89,5.012,8.095C30.715,51.876,30.746,46.264,22.381,45.521z"/>
<path fill="#594640" d="M39.506,43.937c7.076,4.172,0.855,7.97,2.871,9.768C38.465,56.13,28.883,51.95,39.506,43.937z"/>
<path fill="#453631" d="M41.619,45.521c-1.734,6.659-5.311,6.89-5.01,8.095C33.287,51.876,33.254,46.264,41.619,45.521z"/>
<path fill="#594640" d="M22.322,43.769H41.67C44.486,28.646,19.506,28.646,22.322,43.769z"/>
<path fill="#453631" d="M22.297,43.582c0,0,11.016,4.105,18.652-0.651c-1.543,0.291-4.051-5.605-15.775-6.047
	C24.744,43.582,22.684,41.764,22.297,43.582z"/>
<path fill="#CFD8DD" d="M40.762,42.689c0.822-11.314-18.359-11.314-17.535,0C23.941,33.188,40.045,33.188,40.762,42.689z"/>
<path fill="#FFFFFF" d="M40.762,42.323c0.822-11.313-18.359-11.313-17.535,0C23.941,32.821,40.045,32.821,40.762,42.323z"/>
<path fill="#E6B045" d="M23.43,42.767c-3.336-0.506-1.162,7.364,1.451,5.193C26.094,46.953,24.994,43.005,23.43,42.767z"/>
<path fill="#E6B045" d="M40.559,42.767c-1.561,0.238-2.66,4.187-1.451,5.193C41.723,50.129,43.895,42.261,40.559,42.767z"/>
<path fill="#FFCC66" d="M40.449,42.785c-3.195-0.91-7.289-5.256-15.07-4.729c0.137,1.708-0.313,3.646-1.814,4.735
	c0,0-0.006,1.535,0.543,4.345c0.895,4.602,4.617,6.407,7.887,6.407c3.273,0,6.994-1.806,7.891-6.407
	C40.432,44.324,40.449,42.785,40.449,42.785z"/>
<path fill="#FFFFFF" d="M38.244,44.294c-0.777,2.036-3.943,1.738-4.525,0.313C34.16,42.318,37.816,42.123,38.244,44.294z"/>
<path fill="#613F34" d="M34.527,44.078c0,1.786,2.586,1.786,2.586,0C37.113,42.42,34.527,42.42,34.527,44.078z"/>
<path fill="#7D5037" d="M34.783,44.648c0,1.024,2.074,1.024,2.074,0C36.857,43.698,34.783,43.698,34.783,44.648z"/>
<path fill="#1A1626" d="M35.281,44.105c0,0.742,1.076,0.742,1.076,0C36.357,43.418,35.281,43.418,35.281,44.105z"/>
<path fill="#AB968C" d="M34.918,43.889c0,0.376,0.541,0.376,0.541,0C35.459,43.541,34.918,43.541,34.918,43.889z"/>
<path fill="#E6B045" d="M38.244,44.279c0-2.186-4.525-2.186-4.525,0.346C34.365,42.549,37.598,42.549,38.244,44.279z"/>
<path fill="#FFFFFF" d="M25.771,44.294c0.775,2.036,3.943,1.738,4.525,0.313C29.857,42.316,26.201,42.121,25.771,44.294z"/>
<path fill="#613F34" d="M26.904,44.078c0,1.784,2.586,1.784,2.586,0C29.49,42.42,26.904,42.42,26.904,44.078z"/>
<path fill="#7D5037" d="M27.16,44.648c0,1.022,2.072,1.022,2.072,0C29.232,43.698,27.16,43.698,27.16,44.648z"/>
<path fill="#1A1626" d="M27.658,44.105c0,0.74,1.074,0.74,1.074,0C28.732,43.418,27.658,43.418,27.658,44.105z"/>
<path fill="#AB968C" d="M27.293,43.889c0,0.374,0.543,0.374,0.543,0C27.836,43.541,27.293,43.541,27.293,43.889z"/>
<path fill="#E6B045" d="M25.771,44.279c0-2.186,4.525-2.186,4.525,0.346C29.652,42.547,26.416,42.547,25.771,44.279z"/>
<path fill="#C1873C" d="M38.662,42.063c-1.35-0.672-3.938-0.703-4.9-0.236c-0.207,0.091-0.07,0.726,0.105,0.666
	c1.34-0.498,3.504-0.509,4.764,0.043C38.797,42.606,38.867,42.156,38.662,42.063z"/>
<path fill="#C1873C" d="M25.352,42.063c1.354-0.672,3.939-0.703,4.904-0.236c0.207,0.091,0.068,0.726-0.104,0.666
	c-1.344-0.498-3.51-0.509-4.768,0.043C25.217,42.606,25.148,42.156,25.352,42.063z"/>
<path fill="#E6A400" d="M32.008,49.729c-1.328-0.391-3.299,0.185-3.299,0.185c0.75,0.814,1.303,1.875,3.299,1.875
	c2.289,0,2.682-1.201,3.299-1.875C35.307,49.914,33.334,49.337,32.008,49.729z"/>
<path fill="#FFFFFF" d="M29.211,50.052c1.395,1.169,4.211,1.175,5.611,0C33.334,50.115,30.709,50.115,29.211,50.052z"/>
<path fill="#E6B045" d="M33.842,47.979c0,1.19-3.666,1.19-3.666,0C30.176,47.706,33.842,47.706,33.842,47.979z"/>
<path fill="#FFCC66" d="M41.566,58.081c-0.594,0.731-1.939-2.198-1.522-3.047c4.083-8.303,3.291-5.617,2.979-9.357
	c2.57-0.556,4.711-0.901,4.711-0.901C47.733,50.744,48.733,49.26,41.566,58.081z"/>
<path fill="#FFCC66" d="M38.281,54.203c-1.562-0.406-4.45,1.055-2.804,1.45c-0.365,0.459-0.316,1,0.925,0.644
	c-0.475,0.455,0.321,0.82,0.954,0.662c-0.179,1.157,2.078,0.494,2.758,0.863c0.974,0.527,1.185,0.84,1.431,0.689
	C43.341,57.42,40.873,54.871,38.281,54.203z"/>
<path fill="#FFCC66" d="M22.434,58.081c0.594,0.731,1.939-2.198,1.522-3.047c-4.083-8.303-3.291-5.617-2.979-9.357
	c-2.57-0.556-4.711-0.901-4.711-0.901C16.267,50.744,15.267,49.26,22.434,58.081z"/>
<path fill="#FFCC66" d="M25.719,54.203c1.562-0.406,4.45,1.055,2.804,1.45c0.365,0.459,0.316,1-0.925,0.644
	c0.475,0.455-0.321,0.82-0.954,0.662c0.179,1.157-2.078,0.494-2.758,0.863c-0.974,0.527-1.185,0.84-1.431,0.689
	C20.659,57.42,23.127,54.871,25.719,54.203z"/>
</svg>
