<?xml version="1.0" encoding="utf-8"?>
<!-- Generator: Adobe Illustrator 19.0.0, SVG Export Plug-In . SVG Version: 6.00 Build 0)  -->
<svg version="1.1" id="Layer_1" xmlns="http://www.w3.org/2000/svg" xmlns:xlink="http://www.w3.org/1999/xlink" x="0px" y="0px"
	 width="64px" height="64px" viewBox="0 0 64 64" enable-background="new 0 0 64 64" xml:space="preserve">
<path fill="#947D41" d="M20.145,15.477c-7.992,37.397-7.262,36.597,9.564,36.597C20.399,44.973,38.233,14.968,20.145,15.477z"/>
<path fill="#BA9D52" d="M17.262,14.898c-5.832,28.413-0.801,35.71,3.668,37.176h5.119C14.069,42.871,32.798,14.339,17.262,14.898z"
	/>
<path fill="#947D41" d="M43.659,15.476c7.992,37.397,7.26,36.597-9.563,36.597C42.657,46.373,25.571,14.967,43.659,15.476z"/>
<path fill="#BA9D52" d="M46.54,14.896c8.527,25.85-0.018,35.979-3.666,37.176h-5.119C49.735,43.621,31.009,14.337,46.54,14.896z"/>
<path fill="#EFDE8B" d="M47.96,28.787c2.469,6.571,0.025,20.059-5.086,23.286c5.666,0,9.117-8.55,10.799-20.311
	C55.776,17.068,43.559,17.061,47.96,28.787z"/>
<path fill="#EFDE8B" d="M10.764,34.49c2.064,10.613,4.603,17.583,10.166,17.583c-6.201-6.999-5.471-21.761-3.709-25.434
	C26.204,20.813,7.272,16.537,10.764,34.49z"/>
<path fill="#006DAE" d="M12.257,53.047c2.4-1.32,12.363-4.807,12.363-4.807h14.84c0,0,9.953,3.479,12.342,4.804
	C55.27,54.967,56.001,62,56.001,62h-48C8.001,62,8.774,54.96,12.257,53.047z"/>
<polygon fill="#BF8C6B" points="25.302,51.092 32.001,55.51 38.698,51.092 38.698,42.559 25.302,42.559 "/>
<rect x="17.628" y="57.43" fill="#FFE12C" width="8.726" height="0.884"/>
<rect x="17.628" y="60.232" fill="#014D87" width="8.726" height="1.768"/>
<rect x="32.001" y="54.861" fill="#014D87" width="3.137" height="7.139"/>
<polygon fill="#018BC9" points="26.354,59.164 17.628,59.164 17.628,60.33 18.602,60.33 21.991,61.565 25.378,60.33 26.354,60.33 
	"/>
<path fill="#FFE12C" d="M41.591,54.819l0.854-1.028c1.113,0.775,2.035-0.176,2.035-0.176s0.924,0.951,2.035,0.176l0.852,1.028
	c-1.428,0.906,0.498,2.37,0.043,3.956c-0.635,2.205-2.156,1.965-2.93,2.84c-0.775-0.875-2.293-0.635-2.928-2.84
	C41.096,57.189,43.024,55.726,41.591,54.819z"/>
<path fill="#018BC9" d="M24.354,55.342c0,0-3.226-3.596-0.814-7.213c0.41-0.611,1.754-1.631,1.754-1.631
	c0,2.445,6.707,8.129,6.707,8.129v1.035c0,0-0.932-1.064-3.771-0.542c0,0-0.297-1.075,0.1-2.034
	C28.329,53.086,26.229,53.474,24.354,55.342z"/>
<path fill="#018BC9" d="M39.647,55.342c0,0,3.225-3.596,0.813-7.213c-0.41-0.611-1.754-1.631-1.754-1.631
	c0,2.445-6.705,8.129-6.705,8.129v1.919c0,0,0.932-1.948,3.771-1.426c0,0,0.295-1.075-0.102-2.034
	C35.671,53.086,37.772,53.474,39.647,55.342z"/>
<path fill="#006DAE" d="M34.659,59.35c0,1.177-2.182,1.177-2.182,0C32.477,58.17,34.659,58.17,34.659,59.35z"/>
<path fill="#014D87" d="M42.274,49.034l0.895,2.7c0,0,7.615,2.99,9.41,3.775c1.781,0.781,1.059-1.734-0.342-2.644
	C51.716,52.525,45.374,49.877,42.274,49.034z"/>
<path fill="#006DAE" d="M45.511,50.988c0.588,1.078-1.09,1.023-1.725-0.037C43.081,49.773,44.897,49.864,45.511,50.988z"/>
<path fill="#014D87" d="M21.723,49.034l-0.895,2.7c0,0-7.613,2.99-9.408,3.775c-1.779,0.781-1.058-1.734,0.34-2.644
	C12.286,52.525,18.624,49.877,21.723,49.034z"/>
<path fill="#006DAE" d="M18.487,50.988c-0.588,1.078,1.094,1.023,1.729-0.037C20.921,49.773,19.1,49.864,18.487,50.988z"/>
<path fill="#E6A400" d="M46.661,57.973c0,2.462-4.363,2.462-4.363,0C42.298,55.512,46.661,55.512,46.661,57.973z"/>
<rect x="42.843" y="54.941" fill="#E6A400" width="3.273" height="0.615"/>
<path fill="#014D87" d="M13.739,62c0.51-1.771-0.088-4.469-0.727-5.953C12.417,54.664,12.643,61.025,13.739,62z"/>
<path fill="#014D87" d="M50.989,56.047c-0.639,1.484-1.24,4.182-0.729,5.953C51.358,61.025,51.581,54.664,50.989,56.047z"/>
<path opacity="0.2" d="M13.575,19.285c0,0-0.104,0.342-0.264,0.92C16.173,22.688,25.362,24,32.003,24
	c6.645,0,15.762-1.313,18.619-3.795c-0.139-0.576-0.256-0.871-0.256-0.871L13.575,19.285z"/>
<path fill="#E3C19B" d="M32.001,6.489c-11.609,0-17.201,9.455-16.502,21.611c0.142,2.443,0.822,5.969,1.66,8.989
	c1.742,6.277,10.93,12.6,14.842,12.6c3.91,0,13.1-6.322,14.84-12.6c0.84-3.021,1.52-6.546,1.664-8.989
	C49.202,15.944,43.612,6.489,32.001,6.489z"/>
<path fill="#C97E55" d="M32.001,39.662c-2.822-1.241-2.844-0.051-7.199,0.242c1.635,1.855,2.838,4.243,7.197,4.243
	c5.004,0,5.85-2.711,7.203-4.243C34.843,39.611,34.823,38.421,32.001,39.662z"/>
<path fill="#FFFFFF" d="M26.108,40.366c2.844,2.96,8.977,2.921,11.785,0.001C33.514,40.838,30.489,40.838,26.108,40.366z"/>
<path fill="#594640" d="M44.796,23.685c-2.617-1.56-7.308-1.75-9.166-0.688c-0.392,0.214-0.287,1.341,0.053,1.2
	c2.648-1.104,6.682-1.158,9.168,0.117C45.184,24.483,45.19,23.911,44.796,23.685z"/>
<path fill="#594640" d="M19.208,23.685c2.615-1.56,7.307-1.75,9.166-0.688c0.392,0.214,0.289,1.341-0.055,1.2
	c-2.648-1.104-6.68-1.159-9.166,0.117C18.819,24.483,18.811,23.911,19.208,23.685z"/>
<path fill="#D6A67A" d="M35.6,35.42c0,2.342-7.199,2.342-7.199,0C28.401,34.882,35.6,34.882,35.6,35.42z"/>
<path fill="#FFFFFF" d="M44.542,28.432c-1.551,4.059-7.861,3.464-9.016,0.623C36.401,24.489,43.688,24.099,44.542,28.432z"/>
<g>
	<path fill="#613F34" d="M37.106,27.99c0,3.596,5.201,3.596,5.201,0C42.307,24.652,37.106,24.652,37.106,27.99z"/>
	<path fill="#7D5037" d="M37.62,29.14c0,2.063,4.172,2.063,4.172,0C41.792,27.227,37.62,27.227,37.62,29.14z"/>
	<path fill="#1A1626" d="M38.628,28.047c0,1.492,2.158,1.492,2.158,0C40.786,26.661,38.628,26.661,38.628,28.047z"/>
	<path fill="#AB968C" d="M37.889,27.61c0,0.754,1.09,0.754,1.09,0C38.979,26.911,37.889,26.911,37.889,27.61z"/>
</g>
<path fill="#45332C" d="M44.542,28.4c0-4.361-9.016-4.361-9.016,0.69C36.811,24.945,43.255,24.945,44.542,28.4z"/>
<path fill="#FFFFFF" d="M19.46,28.432c1.553,4.059,7.863,3.466,9.02,0.623C27.602,24.489,20.315,24.099,19.46,28.432z"/>
<g>
	<path fill="#613F34" d="M21.696,27.995c0,3.596,5.199,3.596,5.199,0C26.895,24.658,21.696,24.658,21.696,27.995z"/>
	<path fill="#7D5037" d="M22.21,29.146c0,2.063,4.172,2.063,4.172,0C26.382,27.232,22.21,27.232,22.21,29.146z"/>
	<path fill="#1A1626" d="M23.216,28.052c0,1.492,2.16,1.492,2.16,0C25.376,26.667,23.216,26.667,23.216,28.052z"/>
	<path fill="#AB968C" d="M22.479,27.616c0,0.754,1.09,0.754,1.09,0C23.569,26.916,22.479,26.916,22.479,27.616z"/>
</g>
<path fill="#45332C" d="M19.46,28.4c0-4.361,9.02-4.361,9.02,0.688C27.192,24.944,20.749,24.944,19.46,28.4z"/>
<path fill="#EFDE8B" d="M43.901,8.18c-7.467,8.342-0.342,8.881,4.059,20.607c2.469,6.571,4.031,14.736,5.713,2.976
	C55.776,17.068,47.696,6.952,43.901,8.18z"/>
<path fill="#EFDE8B" d="M25.571,4.985C16.1,7.415,7.272,16.537,10.764,34.49c2.064,10.613,2.926-3.805,4.688-7.478
	c8.984-5.827,26.113-10.613,28.449-18.833C45.085,6.283,35.046,2.279,25.571,4.985z"/>
<path fill="#BA9D52" d="M18.315,18.063c4.004-0.885,23.162-1.302,25.586-9.883C39.374,12.113,34.682,13.185,18.315,18.063z"/>
<path fill="#BA9D52" d="M11.411,31.711c6.717-9.774,28.725-8.695,32.49-23.531C36.593,20.632,13.247,22.315,11.411,31.711z"/>
<path fill="#BA9D52" d="M41.686,10.214c-1.734,2.977,4.291-1.398,10.785,17.785C50.87,16.784,45.384,9.061,41.686,10.214z"/>
<path opacity="0.2" d="M10.399,21.141c0,0-0.055,4.676,21.601,4.676c21.656,0,21.594-4.676,21.594-4.676H10.399z"/>
<path fill="#014D87" d="M56.165,15.123c-5.086-3.639-5.664-8.916-7.723-9.201C35.63,4.137,35.194,2,32.001,2
	c-3.197,0-3.631,2.137-16.443,3.922c-2.055,0.285-2.635,5.563-7.725,9.201c-2.451,1.756,3.49,3.307,5.617,6.443
	c1.148,1.691,35.955,1.691,37.1,0C52.679,18.43,58.622,16.879,56.165,15.123z"/>
<path fill="#006DAE" d="M32.001,12.949c0,0-16.773,0-21.656,3.74v3.508h21.656h21.656V16.69
	C48.774,12.949,32.001,12.949,32.001,12.949z"/>
<path fill="#302C3B" d="M32.001,18.525c-20.01,0-21.656,2.615-21.656,2.615s0,3.676,21.656,3.676
	c21.656,0,21.656-3.676,21.656-3.676S52.009,18.525,32.001,18.525z"/>
<path fill="#FFE12C" d="M32.001,17.524c0,0-13.215-0.205-21.656,2.023v1.594c0,0,3.5-1.928,21.656-1.928
	c18.16,0,21.656,1.928,21.656,1.928v-1.594C45.216,17.318,32.001,17.524,32.001,17.524z"/>
<path fill="#FFE12C" d="M36.768,7.031L35.358,5.6c-1.836,1.076-3.357-0.246-3.357-0.246S30.477,6.676,28.643,5.6l-1.408,1.432
	c2.359,1.258-0.818,3.295-0.068,5.502c1.047,3.063,3.557,2.728,4.834,3.945c1.277-1.217,3.787-0.883,4.832-3.945
	C37.587,10.326,34.405,8.289,36.768,7.031z"/>
</svg>
