<?xml version="1.0" encoding="utf-8"?>
<!-- Generator: Adobe Illustrator 15.0.0, SVG Export Plug-In . SVG Version: 6.00 Build 0)  -->
<!DOCTYPE svg PUBLIC "-//W3C//DTD SVG 1.1//EN" "http://www.w3.org/Graphics/SVG/1.1/DTD/svg11.dtd" [
	<!ENTITY ns_flows "http://ns.adobe.com/Flows/1.0/">
	<!ENTITY ns_extend "http://ns.adobe.com/Extensibility/1.0/">
	<!ENTITY ns_ai "http://ns.adobe.com/AdobeIllustrator/10.0/">
	<!ENTITY ns_graphs "http://ns.adobe.com/Graphs/1.0/">
]>
<svg version="1.1" id="Layer_1" xmlns:x="&ns_extend;" xmlns:i="&ns_ai;" xmlns:graph="&ns_graphs;"
	 xmlns="http://www.w3.org/2000/svg" xmlns:xlink="http://www.w3.org/1999/xlink" xmlns:a="http://ns.adobe.com/AdobeSVGViewerExtensions/3.0/"
	 x="0px" y="0px" width="64px" height="64px" viewBox="0 0 64 64" enable-background="new 0 0 64 64" xml:space="preserve">
<path fill="#3B2C29" d="M11.225,10.678C8.432,22.67,8.688,22.414,14.569,22.414C11.314,20.136,17.549,10.515,11.225,10.678z"/>
<path fill="#453631" d="M10.217,10.493c-2.036,9.111-0.277,11.451,1.284,11.921h1.788C9.104,19.463,15.646,10.313,10.217,10.493z"/>
<path fill="#3B2C29" d="M19.445,10.677c2.794,11.993,2.537,11.736-3.343,11.736C19.096,20.586,13.123,10.515,19.445,10.677z"/>
<path fill="#453631" d="M20.453,10.493c2.98,8.288-0.006,11.536-1.283,11.921h-1.789C21.571,19.704,15.024,10.313,20.453,10.493z"/>
<path fill="#594640" d="M20.949,14.945c0.863,2.108,0.009,6.433-1.779,7.468c1.981,0,3.189-2.741,3.776-6.513
	C23.682,11.188,19.412,11.185,20.949,14.945z"/>
<path fill="#594640" d="M7.947,16.776c0.721,3.403,1.608,5.638,3.554,5.638c-2.167-2.245-1.914-6.978-1.296-8.155
	C13.343,12.389,6.727,11.018,7.947,16.776z"/>
<path fill="#302C3B" d="M31.607,52.668c-3.776-2.395-1.157-5.275,0.465-4.266C39.324,52.904,35.434,55.098,31.607,52.668z"/>
<path fill="#302C3B" d="M15.98,61.898c-1.517-0.572,0.242-2.225-0.318-4.396c-1.097-4.244,2.68-3.984,3.13-1.969
	C19.761,59.854,17.749,62.568,15.98,61.898z"/>
<path fill="#FDCA47" d="M18.003,55.764c-0.276-5.256,1.092-6.002-0.882-9.502c1.031-3.094,0.508-4.852,0.508-4.852l-4.913-4.408
	c0,0,0.303,8.127,1.249,11.135c1.159,3.705,1.876,8.033,1.876,8.033C15.939,58.346,18.129,58.129,18.003,55.764z"/>
<path fill="#FDCA47" d="M9.212,29.539l1.227-2.267l-2.183-2.011c-2.604,4.347-2.548,4.598-1.834,5.469l5.978,3.959l-0.017-2.57
	L9.212,29.539z"/>
<path fill="#FDCA47" d="M22.646,28.363l-1.067-1.185l2.134-2.4c2.678,3.238,3.229,3.819,1.991,5.185l-5.455,3.84l-1.368-1.912
	L22.646,28.363z"/>
<path fill="#302C3B" d="M19.712,32.5c-1.021-0.75-1.11-4.6,0.185-6.167l1.772,1.181l2.42-2.658c0,0-1.628-1.807-2.815-2.821
	c-2.109-1.8-8.724-1.444-10.684,0.196c-1.195,1.001-2.915,3.603-2.915,3.603L10.39,27.6l0.39-0.51
	c1.937,5.484,0.536,7.619,1.957,10.398c0.021-1.074,1.742,4.383,5.547,4.383C20.402,41.871,25.646,36.848,19.712,32.5z"/>
<path fill="#FDCA47" d="M32.204,49.643c-3.588-3.477-3.082-5.236-6.856-6.021c-1.12-6.053-4.996-9.236-4.996-9.236
	c-2.704,3.559-1.803,6.66-1.803,6.66s3.063,5.135,5.728,6.461c3.28,1.623,6.614,4.072,6.614,4.072
	C32.364,53.031,33.82,51.211,32.204,49.643z"/>
<path fill="#E6B045" d="M13.319,21.107c0,2.32,4.101,2.32,4.101,0v-2.405h-4.101V21.107z"/>
<path fill="#FFCC66" d="M15.37,7.797c-3.724,0-5.517,3.03-5.291,6.93c0.045,0.784,0.263,1.914,0.532,2.882
	c0.558,2.013,3.504,4.04,4.759,4.04c1.256,0,4.199-2.027,4.759-4.04c0.269-0.968,0.487-2.099,0.533-2.882
	C20.886,10.827,19.094,7.797,15.37,7.797z"/>
<path fill="#D47706" d="M15.37,18.434c-0.904-0.398-0.913-0.016-2.311,0.077c0.526,0.595,0.913,1.36,2.31,1.36
	c1.605,0,1.876-0.869,2.311-1.36C16.282,18.418,16.274,18.036,15.37,18.434z"/>
<path fill="#FFFFFF" d="M13.479,18.659c0.912,0.949,2.88,0.938,3.781,0C15.855,18.811,14.887,18.811,13.479,18.659z"/>
<path fill="#594640" d="M19.473,13.309c-0.84-0.499-2.343-0.561-2.939-0.219c-0.125,0.068-0.09,0.43,0.019,0.385
	c0.849-0.354,2.142-0.372,2.939,0.038C19.599,13.566,19.6,13.382,19.473,13.309z"/>
<path fill="#594640" d="M11.269,13.309c0.838-0.499,2.342-0.561,2.938-0.219c0.125,0.068,0.093,0.43-0.018,0.385
	c-0.85-0.354-2.142-0.372-2.938,0.038C11.143,13.566,11.14,13.382,11.269,13.309z"/>
<path fill="#E6B045" d="M16.524,17.073c0,0.751-2.308,0.751-2.308,0C14.217,16.9,16.524,16.9,16.524,17.073z"/>
<path fill="#FFFFFF" d="M19.392,14.833c-0.497,1.3-2.521,1.11-2.89,0.2C16.781,13.568,19.117,13.442,19.392,14.833z"/>
<path fill="#613F34" d="M17.007,14.691c0,1.152,1.669,1.152,1.669,0C18.676,13.62,17.007,13.62,17.007,14.691z"/>
<path fill="#7D5037" d="M17.172,15.06c0,0.662,1.338,0.662,1.338,0C18.51,14.446,17.172,14.446,17.172,15.06z"/>
<path fill="#1A1626" d="M17.494,14.709c0,0.479,0.693,0.479,0.693,0C18.188,14.265,17.494,14.265,17.494,14.709z"/>
<path fill="#AB968C" d="M17.26,14.569c0,0.242,0.349,0.242,0.349,0C17.608,14.345,17.26,14.345,17.26,14.569z"/>
<path fill="#45332C" d="M19.392,14.823c0-1.4-2.89-1.4-2.89,0.221C16.913,13.714,18.979,13.714,19.392,14.823z"/>
<path fill="#FFFFFF" d="M11.348,14.833c0.499,1.3,2.523,1.11,2.894,0.2C13.959,13.568,11.624,13.442,11.348,14.833z"/>
<path fill="#613F34" d="M12.066,14.693c0,1.152,1.666,1.152,1.666,0C13.732,13.622,12.066,13.622,12.066,14.693z"/>
<path fill="#7D5037" d="M12.23,15.061c0,0.662,1.339,0.662,1.339,0C13.569,14.448,12.23,14.448,12.23,15.061z"/>
<path fill="#1A1626" d="M12.552,14.711c0,0.479,0.694,0.479,0.694,0C13.246,14.266,12.552,14.266,12.552,14.711z"/>
<path fill="#AB968C" d="M12.317,14.572c0,0.241,0.35,0.241,0.35,0C12.667,14.347,12.317,14.347,12.317,14.572z"/>
<path fill="#45332C" d="M11.348,14.823c0-1.4,2.894-1.4,2.894,0.219C13.828,13.713,11.762,13.713,11.348,14.823z"/>
<path fill="#594640" d="M19.529,8.337c-2.61,2.676-0.117,2.848,1.42,6.608c0.863,2.108,1.41,4.727,1.997,0.956
	C23.682,11.188,20.855,7.945,19.529,8.337z"/>
<path fill="#594640" d="M13.123,7.313c-3.312,0.779-6.396,3.705-5.176,9.462c0.721,3.403,1.64-1.34,2.258-2.518
	c3.138-1.869,8.508-3.285,9.324-5.921C19.944,7.73,16.434,6.445,13.123,7.313z"/>
<path fill="#453631" d="M10.586,11.506c1.4-0.284,8.097-0.417,8.943-3.169C17.947,9.599,16.31,9.943,10.586,11.506z"/>
<path fill="#453631" d="M8.172,15.884c2.349-3.135,10.042-2.79,11.357-7.547C16.975,12.331,8.813,12.87,8.172,15.884z"/>
<path fill="#453631" d="M18.756,8.99c-0.605,0.956,1.501-0.447,3.77,5.704C21.967,11.097,20.048,8.622,18.756,8.99z"/>
<path fill="#302C3B" d="M20.111,2.004c-0.292-0.103-2.761,1.792-2.836,3.368c-0.085,1.787-0.191,3.074-0.267,3.85
	c-0.751-0.104-2.529-0.1-3.276,0.015c-0.075-0.774-0.181-2.066-0.266-3.864c-0.077-1.576-2.545-3.471-2.839-3.368
	C10.153,2.167,9.297,5,10.104,6.232c1.164,1.771,1.662,2.875,1.877,3.519c-0.666,0.311-1.229,0.733-1.597,1.283
	c3.411-1.213,6.674-1.213,10.085,0c-0.384-0.577-0.983-1.016-1.694-1.329c0.224-0.649,0.722-1.742,1.859-3.473
	C21.443,5,20.588,2.167,20.111,2.004z"/>
<path fill="#3B2C29" d="M33.079,10.678c-2.793,11.992-2.537,11.735,3.345,11.735C33.169,20.136,39.403,10.515,33.079,10.678z"/>
<path fill="#453631" d="M32.071,10.493c-2.036,9.111-0.277,11.451,1.284,11.921h1.788C30.958,19.463,37.501,10.313,32.071,10.493z"
	/>
<path fill="#3B2C29" d="M41.3,10.677c2.794,11.993,2.537,11.736-3.343,11.736C40.95,20.586,34.978,10.515,41.3,10.677z"/>
<path fill="#453631" d="M42.308,10.493c2.98,8.288-0.006,11.536-1.283,11.921h-1.789C43.426,19.704,36.879,10.313,42.308,10.493z"/>
<path fill="#594640" d="M42.804,14.945c0.863,2.108,0.009,6.433-1.779,7.468c1.981,0,3.189-2.741,3.776-6.513
	C45.536,11.188,41.267,11.185,42.804,14.945z"/>
<path fill="#594640" d="M29.802,16.776c0.721,3.403,1.608,5.638,3.554,5.638c-2.167-2.245-1.914-6.978-1.296-8.155
	C35.197,12.389,28.581,11.018,29.802,16.776z"/>
<path fill="#302C3B" d="M53.462,52.668c-3.776-2.395-1.157-5.275,0.465-4.266C61.179,52.904,57.288,55.098,53.462,52.668z"/>
<path fill="#302C3B" d="M37.835,61.898c-1.517-0.572,0.242-2.225-0.318-4.396c-1.097-4.244,2.68-3.984,3.13-1.969
	C41.615,59.854,39.604,62.568,37.835,61.898z"/>
<path fill="#FDCA47" d="M39.857,55.764c-0.276-5.256,1.092-6.002-0.882-9.502c1.031-3.094,0.508-4.852,0.508-4.852l-4.913-4.408
	c0,0,0.303,8.127,1.249,11.135c1.159,3.705,1.876,8.033,1.876,8.033C37.794,58.346,39.983,58.129,39.857,55.764z"/>
<path fill="#FDCA47" d="M31.066,29.539l1.227-2.267l-2.183-2.011c-2.604,4.346-2.548,4.598-1.834,5.469l5.978,3.959l-0.017-2.57
	L31.066,29.539z"/>
<path fill="#FDCA47" d="M44.5,28.363l-1.067-1.185l2.134-2.4c2.678,3.238,3.229,3.819,1.991,5.185l-5.455,3.84l-1.368-1.912
	L44.5,28.363z"/>
<path fill="#302C3B" d="M41.566,32.5c-1.021-0.75-1.11-4.599,0.185-6.167l1.772,1.181l2.42-2.658c0,0-1.628-1.807-2.815-2.821
	c-2.109-1.8-8.724-1.444-10.684,0.196c-1.195,1.001-2.915,3.603-2.915,3.603l2.715,1.766l0.39-0.51
	c1.937,5.484,0.536,7.619,1.957,10.398c0.021-1.074,1.742,4.383,5.547,4.383C42.257,41.871,47.501,36.848,41.566,32.5z"/>
<path fill="#FDCA47" d="M54.059,49.643c-3.588-3.477-3.082-5.236-6.856-6.021c-1.12-6.053-4.996-9.236-4.996-9.236
	c-2.704,3.559-1.803,6.66-1.803,6.66s3.063,5.135,5.728,6.461c3.28,1.623,6.614,4.072,6.614,4.072
	C54.219,53.031,55.675,51.211,54.059,49.643z"/>
<path fill="#E6B045" d="M35.174,21.107c0,2.32,4.101,2.32,4.101,0v-2.405h-4.101V21.107z"/>
<path fill="#FFCC66" d="M37.225,7.797c-3.724,0-5.517,3.03-5.291,6.93c0.045,0.784,0.263,1.914,0.532,2.882
	c0.558,2.013,3.504,4.04,4.759,4.04c1.256,0,4.199-2.027,4.759-4.04c0.269-0.968,0.487-2.099,0.533-2.882
	C42.74,10.827,40.948,7.797,37.225,7.797z"/>
<path fill="#D47706" d="M37.225,18.434c-0.904-0.398-0.913-0.016-2.311,0.077c0.526,0.595,0.913,1.36,2.31,1.36
	c1.605,0,1.876-0.869,2.311-1.36C38.137,18.418,38.129,18.036,37.225,18.434z"/>
<path fill="#FFFFFF" d="M35.334,18.659c0.912,0.949,2.88,0.938,3.781,0C37.71,18.811,36.741,18.811,35.334,18.659z"/>
<path fill="#594640" d="M41.327,13.309c-0.84-0.499-2.343-0.561-2.939-0.219c-0.125,0.068-0.09,0.43,0.019,0.385
	c0.849-0.354,2.142-0.372,2.939,0.038C41.453,13.566,41.454,13.382,41.327,13.309z"/>
<path fill="#594640" d="M33.123,13.309c0.838-0.499,2.342-0.561,2.938-0.219c0.125,0.068,0.093,0.43-0.018,0.385
	c-0.85-0.354-2.142-0.372-2.938,0.038C32.997,13.566,32.994,13.382,33.123,13.309z"/>
<path fill="#E6B045" d="M38.379,17.073c0,0.751-2.308,0.751-2.308,0C36.071,16.9,38.379,16.9,38.379,17.073z"/>
<path fill="#FFFFFF" d="M41.246,14.833c-0.497,1.3-2.521,1.11-2.89,0.2C38.636,13.568,40.972,13.442,41.246,14.833z"/>
<path fill="#613F34" d="M38.861,14.691c0,1.152,1.669,1.152,1.669,0C40.53,13.62,38.861,13.62,38.861,14.691z"/>
<path fill="#7D5037" d="M39.026,15.06c0,0.662,1.338,0.662,1.338,0C40.364,14.446,39.026,14.446,39.026,15.06z"/>
<path fill="#1A1626" d="M39.349,14.709c0,0.479,0.693,0.479,0.693,0C40.042,14.265,39.349,14.265,39.349,14.709z"/>
<path fill="#AB968C" d="M39.114,14.569c0,0.242,0.349,0.242,0.349,0C39.463,14.345,39.114,14.345,39.114,14.569z"/>
<path fill="#45332C" d="M41.246,14.823c0-1.4-2.89-1.4-2.89,0.221C38.768,13.714,40.834,13.714,41.246,14.823z"/>
<path fill="#FFFFFF" d="M33.202,14.833c0.499,1.3,2.523,1.11,2.894,0.2C35.813,13.568,33.479,13.442,33.202,14.833z"/>
<path fill="#613F34" d="M33.921,14.693c0,1.152,1.666,1.152,1.666,0C35.587,13.622,33.921,13.622,33.921,14.693z"/>
<path fill="#7D5037" d="M34.085,15.061c0,0.662,1.339,0.662,1.339,0C35.424,14.448,34.085,14.448,34.085,15.061z"/>
<path fill="#1A1626" d="M34.406,14.711c0,0.479,0.694,0.479,0.694,0C35.101,14.266,34.406,14.266,34.406,14.711z"/>
<path fill="#AB968C" d="M34.172,14.572c0,0.241,0.35,0.241,0.35,0C34.521,14.347,34.172,14.347,34.172,14.572z"/>
<path fill="#45332C" d="M33.202,14.823c0-1.4,2.894-1.4,2.894,0.219C35.683,13.713,33.616,13.713,33.202,14.823z"/>
<path fill="#594640" d="M41.384,8.337c-2.61,2.676-0.117,2.848,1.42,6.608c0.863,2.108,1.41,4.727,1.997,0.956
	C45.536,11.188,42.71,7.945,41.384,8.337z"/>
<path fill="#594640" d="M34.978,7.313c-3.312,0.779-6.396,3.705-5.176,9.462c0.721,3.403,1.64-1.34,2.258-2.518
	c3.138-1.869,8.508-3.285,9.324-5.921C41.799,7.73,38.288,6.445,34.978,7.313z"/>
<path fill="#453631" d="M32.44,11.506c1.4-0.284,8.097-0.417,8.943-3.169C39.802,9.599,38.164,9.943,32.44,11.506z"/>
<path fill="#453631" d="M30.026,15.884c2.349-3.135,10.042-2.79,11.357-7.547C38.829,12.331,30.668,12.87,30.026,15.884z"/>
<path fill="#453631" d="M40.61,8.99c-0.605,0.956,1.501-0.447,3.77,5.704C43.821,11.097,41.902,8.622,40.61,8.99z"/>
<path fill="#302C3B" d="M41.966,2.004c-0.292-0.103-2.761,1.792-2.836,3.368c-0.085,1.787-0.191,3.074-0.267,3.85
	c-0.751-0.104-2.529-0.1-3.276,0.015c-0.075-0.774-0.181-2.066-0.266-3.864c-0.077-1.576-2.545-3.471-2.839-3.368
	C32.008,2.167,31.151,5,31.959,6.232c1.164,1.771,1.662,2.875,1.877,3.519c-0.666,0.311-1.229,0.733-1.597,1.283
	c3.411-1.213,6.674-1.213,10.085,0c-0.384-0.577-0.983-1.016-1.694-1.329c0.224-0.649,0.722-1.742,1.859-3.473
	C43.298,5,42.442,2.167,41.966,2.004z"/>
</svg>
