<?xml version="1.0" encoding="utf-8"?>
<!-- Generator: Adobe Illustrator 19.0.0, SVG Export Plug-In . SVG Version: 6.00 Build 0)  -->
<svg version="1.1" id="Layer_1" xmlns="http://www.w3.org/2000/svg" xmlns:xlink="http://www.w3.org/1999/xlink" x="0px" y="0px"
	 width="64px" height="64px" viewBox="0 0 64 64" enable-background="new 0 0 64 64" xml:space="preserve">
<path fill="#38332D" d="M32,2C3.305,2,6.072,25,6.072,35.75h51.855C57.927,25,60.693,2,32,2z"/>
<path fill="#423225" d="M8.634,31.432c-9.108-1.393-3.174,20.217,3.957,14.258C15.896,42.925,12.896,32.084,8.634,31.432z"/>
<path fill="#423225" d="M55.367,31.432c-4.264,0.652-7.264,11.493-3.959,14.258C58.541,51.647,64.472,30.039,55.367,31.432z"/>
<path fill="#614A36" d="M55.07,30.978c0-15.339-9.059-11.925-23.07-11.925c-14.008,0-23.068-3.414-23.068,11.925
	c0,0,0.051,5.844,1.543,13.521C12.92,57.067,23.072,62,32,62c8.928,0,19.084-4.933,21.525-17.501
	C55.019,36.818,55.07,30.978,55.07,30.978z"/>
<path fill="#38332D" d="M31.525,13.294C27.334,20.765,11.638,25.437,6.244,24.95C11.129,20.01,13.299,7.291,31.525,13.294z"/>
<path fill="#26221E" d="M6.244,24.95c6.869-1.794,15.791-5.453,25.281-11.656C27.334,20.765,13.55,26.661,6.244,24.95z"/>
<path fill="#38332D" d="M52.701,12.891c-5.93,8.899-28.135,14.463-35.768,13.884C23.843,20.89,26.914,5.741,52.701,12.891z"/>
<path fill="#26221E" d="M16.933,26.774c18.244-5.071,35.768-13.884,35.768-13.884C46.771,21.789,30.242,28.063,16.933,26.774z"/>
<path fill="#38332D" d="M53.564,10.848c7.109,11.578-11.396,16.326-19.043,15.859C41.377,22.188,45.976,10.485,53.564,10.848z"/>
<path fill="#26221E" d="M34.521,26.707c9.195-4.219,23.209-5.081,19.043-15.859C60.674,22.426,42.629,27.752,34.521,26.707z"/>
<path fill="#FFFFFF" d="M49.017,35.735c-2.125,5.559-10.764,4.744-12.348,0.854C37.871,30.339,47.849,29.804,49.017,35.735z"/>
<path fill="#613F34" d="M38.875,35.143c0,4.879,7.058,4.879,7.058,0C45.933,30.614,38.875,30.614,38.875,35.143z"/>
<path fill="#7D5037" d="M39.574,36.704c0,2.798,5.66,2.798,5.66,0C45.234,34.107,39.574,34.107,39.574,36.704z"/>
<path fill="#1A1626" d="M40.939,35.22c0,2.025,2.93,2.025,2.93,0C43.869,33.341,40.939,33.341,40.939,35.22z"/>
<path fill="#AB968C" d="M39.939,34.629c0,1.023,1.479,1.023,1.479,0C41.418,33.68,39.939,33.68,39.939,34.629z"/>
<path fill="#423225" d="M49.017,35.693c0-5.969-12.348-5.969-12.348,0.945C38.433,30.966,47.254,30.966,49.017,35.693z"/>
<path fill="#FFFFFF" d="M14.984,35.735c2.123,5.559,10.766,4.744,12.346,0.854C26.129,30.336,16.154,29.802,14.984,35.735z"/>
<path fill="#613F34" d="M18.072,35.142c0,4.879,7.057,4.879,7.057,0C25.129,30.613,18.072,30.613,18.072,35.142z"/>
<path fill="#7D5037" d="M18.769,36.702c0,2.798,5.662,2.798,5.662,0C24.431,34.106,18.769,34.106,18.769,36.702z"/>
<path fill="#1A1626" d="M20.136,35.219c0,2.024,2.928,2.024,2.928,0C23.064,33.339,20.136,33.339,20.136,35.219z"/>
<path fill="#AB968C" d="M19.134,34.627c0,1.023,1.478,1.023,1.478,0C20.613,33.678,19.134,33.678,19.134,34.627z"/>
<path fill="#423225" d="M14.984,35.693c0-5.969,12.346-5.969,12.346,0.943C25.568,30.962,16.748,30.962,14.984,35.693z"/>
<path fill="#36281D" d="M50.158,29.641c-3.688-1.83-10.744-1.919-13.373-0.643c-0.563,0.247-0.191,1.982,0.283,1.816
	c3.664-1.357,9.572-1.39,13.002,0.117C50.525,31.124,50.717,29.896,50.158,29.641z"/>
<path fill="#36281D" d="M13.845,29.641c3.687-1.83,10.742-1.919,13.373-0.643c0.563,0.247,0.191,1.982-0.281,1.816
	c-3.67-1.357-9.574-1.39-13.006,0.117C13.476,31.124,13.287,29.896,13.845,29.641z"/>
<path fill="#36281D" d="M32.002,50.581c-3.627-1.066-9,0.506-9,0.506c2.047,2.229,3.547,5.121,9,5.121c6.248,0,7.311-3.283,9-5.121
	C41.002,51.087,35.625,49.509,32.002,50.581z"/>
<path fill="#FFFFFF" d="M24.375,51.464c3.801,3.19,11.48,3.21,15.301,0C35.625,51.638,28.455,51.64,24.375,51.464z"/>
<path fill="#423225" d="M37.002,45.803c0,3.254-10,3.254-10,0C27.002,45.056,37.002,45.056,37.002,45.803z"/>
</svg>
