<?xml version="1.0" encoding="utf-8"?>
<!-- Generator: Adobe Illustrator 15.0.0, SVG Export Plug-In . SVG Version: 6.00 Build 0)  -->
<!DOCTYPE svg PUBLIC "-//W3C//DTD SVG 1.1//EN" "http://www.w3.org/Graphics/SVG/1.1/DTD/svg11.dtd" [
	<!ENTITY ns_flows "http://ns.adobe.com/Flows/1.0/">
	<!ENTITY ns_extend "http://ns.adobe.com/Extensibility/1.0/">
	<!ENTITY ns_ai "http://ns.adobe.com/AdobeIllustrator/10.0/">
	<!ENTITY ns_graphs "http://ns.adobe.com/Graphs/1.0/">
]>
<svg version="1.1" id="Layer_1" xmlns:x="&ns_extend;" xmlns:i="&ns_ai;" xmlns:graph="&ns_graphs;"
	 xmlns="http://www.w3.org/2000/svg" xmlns:xlink="http://www.w3.org/1999/xlink" xmlns:a="http://ns.adobe.com/AdobeSVGViewerExtensions/3.0/"
	 x="0px" y="0px" width="64px" height="64px" viewBox="0 0 64 64" enable-background="new 0 0 64 64" xml:space="preserve">
<path fill="#7AB51D" d="M37.376,32.797c7.695-5.117,13.979-4.509,19.83,0.491c2.41,2.061,1.686,10.314,0.381,16.546h-2.338v12.225
	H34.46l-0.34-16.225C34.429,40.537,34.933,34.42,37.376,32.797z"/>
<polygon fill="#529320" points="50.8,51.133 52.464,51.133 52.993,39.535 "/>
<path fill="#E6B045" d="M51.3,29.732c0-0.723,0-3.932,0-3.932h-8.418c0,0,0,3.16,0,3.932C42.882,33.963,51.3,33.963,51.3,29.732z"/>
<path fill="#E6B045" d="M36.38,14.73c-3.584-0.645-0.785,9.361,2.018,6.602C39.698,20.051,38.054,15.033,36.38,14.73z"/>
<path fill="#E6B045" d="M57.806,14.73c-1.676,0.303-3.32,5.32-2.018,6.602C58.593,24.092,61.386,14.086,57.806,14.73z"/>
<path fill="#FFCC66" d="M47.093,3c-7.408,0-10.979,5.598-10.531,13.381c0.09,1.566,1.063,6.674,1.979,8.506
	c0.939,1.873,4.08,4.764,6.006,5.361c1.215,0.379,3.877,0.379,5.094,0c1.922-0.598,5.066-3.488,6.002-5.361
	c0.92-1.832,1.891-6.939,1.98-8.506C58.069,8.598,54.499,3,47.093,3z"/>
<path fill="#E6A400" d="M47.093,24.189c-1.668-0.49-4.135,0.232-4.135,0.232c0.939,1.023,1.629,2.348,4.135,2.348
	c2.869,0,3.359-1.504,4.135-2.348C51.228,24.422,48.757,23.697,47.093,24.189z"/>
<path fill="#FFFFFF" d="M43.587,24.594c1.748,1.463,5.275,1.473,7.031,0C48.757,24.674,45.462,24.674,43.587,24.594z"/>
<path fill="#E6B045" d="M49.392,21.438c0,1.492-4.596,1.492-4.596,0C44.796,21.096,49.392,21.096,49.392,21.438z"/>
<path fill="#594640" d="M47.093,3c-5.096,0-8.176,1.68-9.504,1.035c0,0-0.145,0.867,0.375,1.434c0,0-0.547,0.475-1.434-0.326
	c-0.846,2.738,1.662,4.326,10.563,4.326s6.773-2.166,11.15,1.637C57.815,6.418,54.833,3,47.093,3z"/>
<path fill="#453631" d="M50.86,7.084c-4.9,1.809-6.691-1.453-11.314-1.768c2.199,1.037,3.273,2.635,5.078,3.785
	c-3.932-1.313-6.814-3.574-7.033-5.059c0,0-0.656,2.168,1.938,3.789c-2.48,0.229-2.996-2.682-2.996-2.682
	c-1.258,2.016-1.084,8.514,0.311,13.338c0.232-1.723-0.297-2.434,0.5-4.506c2.383-6.199,0.85-3.598,9.75-3.598
	s7.295-2.371,9.75,3.598c0.732,1.777,0.266,2.783,0.5,4.506C60.271,7.611,56.06,5.168,50.86,7.084z"/>
<path fill="#FFFFFF" d="M55.022,16.984c-0.99,2.588-5.018,2.207-5.754,0.395C49.829,14.471,54.479,14.223,55.022,16.984z"/>
<path fill="#FFFFFF" d="M39.161,16.984c0.99,2.588,5.016,2.207,5.754,0.395C44.356,14.469,39.704,14.221,39.161,16.984z"/>
<path fill="#C1873C" d="M55.435,13.867c-1.695-0.84-4.936-0.881-6.146-0.295c-0.258,0.113-0.086,0.908,0.133,0.834
	c1.684-0.625,4.398-0.639,5.973,0.053C55.604,14.547,55.69,13.984,55.435,13.867z"/>
<path fill="#C1873C" d="M38.751,13.867c1.691-0.84,4.936-0.881,6.143-0.295c0.26,0.113,0.088,0.908-0.129,0.834
	c-1.686-0.625-4.398-0.639-5.975,0.053C38.579,14.547,38.495,13.984,38.751,13.867z"/>
<path fill="#613F34" d="M50.296,16.707c0,2.271,3.289,2.271,3.289,0C53.585,14.6,50.296,14.6,50.296,16.707z"/>
<path fill="#7D5037" d="M50.62,17.434c0,1.305,2.641,1.305,2.641,0C53.261,16.225,50.62,16.225,50.62,17.434z"/>
<path fill="#1A1626" d="M51.257,16.744c0,0.941,1.367,0.941,1.367,0C52.624,15.867,51.257,15.867,51.257,16.744z"/>
<path fill="#AB968C" d="M50.792,16.469c0,0.475,0.689,0.475,0.689,0C51.481,16.025,50.792,16.025,50.792,16.469z"/>
<path fill="#613F34" d="M40.599,16.707c0,2.271,3.289,2.271,3.289,0C43.888,14.6,40.599,14.6,40.599,16.707z"/>
<path fill="#7D5037" d="M40.925,17.434c0,1.301,2.639,1.301,2.639,0C43.563,16.225,40.925,16.225,40.925,17.434z"/>
<path fill="#1A1626" d="M41.562,16.744c0,0.941,1.365,0.941,1.365,0C42.927,15.867,41.562,15.867,41.562,16.744z"/>
<path fill="#AB968C" d="M41.095,16.467c0,0.477,0.689,0.477,0.689,0C41.784,16.025,41.095,16.025,41.095,16.467z"/>
<path fill="#E6B045" d="M55.022,16.963c0-2.779-5.754-2.779-5.754,0.441C50.091,14.764,54.2,14.764,55.022,16.963z"/>
<path fill="#E6B045" d="M39.161,16.963c0-2.779,5.754-2.779,5.754,0.439C44.093,14.762,39.981,14.762,39.161,16.963z"/>
<path fill="#7AB51D" d="M26.622,32.797c-7.695-5.117-13.979-4.509-19.828,0.491c-2.412,2.061-1.686,10.314-0.383,16.546h2.338
	v12.225h20.789l0.34-16.225C29.569,40.537,29.065,34.42,26.622,32.797z"/>
<polygon fill="#529320" points="13.198,51.133 11.534,51.133 11.004,39.535 "/>
<path fill="#E6B045" d="M12.7,29.732c0-0.723,0-3.932,0-3.932h8.418c0,0,0,3.16,0,3.932C21.118,33.963,12.7,33.963,12.7,29.732z"/>
<path fill="#E6B045" d="M6.196,14.73c-3.584-0.645-0.785,9.361,2.018,6.602C9.514,20.051,7.87,15.033,6.196,14.73z"/>
<path fill="#E6B045" d="M27.622,14.73c-1.676,0.303-3.32,5.32-2.018,6.602C28.409,24.092,31.202,14.086,27.622,14.73z"/>
<path fill="#FFCC66" d="M16.909,3C9.5,3,5.93,8.598,6.377,16.381c0.09,1.566,1.063,6.674,1.979,8.506
	c0.939,1.873,4.08,4.764,6.006,5.361c1.215,0.379,3.877,0.379,5.094,0c1.922-0.598,5.066-3.488,6.002-5.361
	c0.92-1.832,1.891-6.939,1.98-8.506C27.885,8.598,24.315,3,16.909,3z"/>
<path fill="#E6A400" d="M16.909,24.189c-1.668-0.49-4.135,0.232-4.135,0.232c0.939,1.023,1.629,2.348,4.135,2.348
	c2.869,0,3.359-1.504,4.135-2.348C21.043,24.422,18.573,23.697,16.909,24.189z"/>
<path fill="#FFFFFF" d="M13.403,24.594c1.748,1.463,5.275,1.473,7.031,0C18.573,24.674,15.278,24.674,13.403,24.594z"/>
<path fill="#E6B045" d="M19.208,21.438c0,1.492-4.596,1.492-4.596,0C14.612,21.096,19.208,21.096,19.208,21.438z"/>
<path fill="#594640" d="M16.909,3c-5.096,0-8.176,1.68-9.504,1.035c0,0-0.145,0.867,0.375,1.434c0,0-0.547,0.475-1.434-0.326
	C5.5,7.881,8.008,9.469,16.909,9.469s6.773-2.166,11.15,1.637C27.631,6.418,24.649,3,16.909,3z"/>
<path fill="#453631" d="M20.676,7.084c-4.9,1.809-6.691-1.453-11.314-1.768c2.199,1.037,3.273,2.635,5.078,3.785
	c-3.932-1.313-6.814-3.574-7.033-5.059c0,0-0.656,2.168,1.938,3.789C6.864,8.061,6.348,5.15,6.348,5.15
	C5.09,7.166,5.264,13.664,6.659,18.488c0.232-1.723-0.297-2.434,0.5-4.506c2.383-6.199,0.85-3.598,9.75-3.598
	s7.295-2.371,9.75,3.598c0.732,1.777,0.266,2.783,0.5,4.506C30.086,7.611,25.875,5.168,20.676,7.084z"/>
<path fill="#FFFFFF" d="M24.838,16.984c-0.99,2.588-5.018,2.207-5.754,0.395C19.645,14.471,24.295,14.223,24.838,16.984z"/>
<path fill="#FFFFFF" d="M8.977,16.984c0.99,2.588,5.016,2.207,5.754,0.395C14.172,14.469,9.52,14.221,8.977,16.984z"/>
<path fill="#C1873C" d="M25.25,13.867c-1.695-0.84-4.936-0.881-6.146-0.295c-0.258,0.113-0.086,0.908,0.133,0.834
	c1.684-0.625,4.398-0.639,5.973,0.053C25.42,14.547,25.506,13.984,25.25,13.867z"/>
<path fill="#C1873C" d="M8.567,13.867c1.691-0.84,4.936-0.881,6.143-0.295c0.26,0.113,0.088,0.908-0.129,0.834
	c-1.686-0.625-4.398-0.639-5.975,0.053C8.395,14.547,8.311,13.984,8.567,13.867z"/>
<path fill="#613F34" d="M20.112,16.707c0,2.271,3.289,2.271,3.289,0C23.401,14.6,20.112,14.6,20.112,16.707z"/>
<path fill="#7D5037" d="M20.436,17.434c0,1.305,2.641,1.305,2.641,0C23.077,16.225,20.436,16.225,20.436,17.434z"/>
<path fill="#1A1626" d="M21.073,16.744c0,0.941,1.367,0.941,1.367,0C22.44,15.867,21.073,15.867,21.073,16.744z"/>
<path fill="#AB968C" d="M20.608,16.469c0,0.475,0.689,0.475,0.689,0C21.297,16.025,20.608,16.025,20.608,16.469z"/>
<path fill="#613F34" d="M10.415,16.707c0,2.271,3.289,2.271,3.289,0C13.704,14.6,10.415,14.6,10.415,16.707z"/>
<path fill="#7D5037" d="M10.741,17.434c0,1.301,2.639,1.301,2.639,0C13.379,16.225,10.741,16.225,10.741,17.434z"/>
<path fill="#1A1626" d="M11.377,16.744c0,0.941,1.365,0.941,1.365,0C12.743,15.867,11.377,15.867,11.377,16.744z"/>
<path fill="#AB968C" d="M10.911,16.467c0,0.477,0.689,0.477,0.689,0C11.6,16.025,10.911,16.025,10.911,16.467z"/>
<path fill="#E6B045" d="M24.838,16.963c0-2.779-5.754-2.779-5.754,0.441C19.907,14.764,24.016,14.764,24.838,16.963z"/>
<path fill="#E6B045" d="M8.977,16.963c0-2.779,5.754-2.779,5.754,0.439C13.909,14.762,9.797,14.762,8.977,16.963z"/>
<path fill="#4ABDFF" d="M39.712,55.246c-4.816-3.131-10.579-3.101-15.403,0.001c-1.656,1.063-2.205,6.812-2.205,6.812h19.793
	C41.897,62.059,41.351,56.307,39.712,55.246z"/>
<path fill="#E6B045" d="M34.925,53.484c0-0.538,0-2.925,0-2.925h-5.85c0,0,0,2.351,0,2.925
	C29.075,55.851,34.925,55.851,34.925,53.484z"/>
<path fill="#594640" d="M31.999,32.043c-10.516,0-9.502,8.421-9.502,12.356h19.006C41.503,40.464,42.517,32.043,31.999,32.043z"/>
<path fill="#E6B045" d="M23.436,42.818c-3.34-0.511-1.162,7.4,1.451,5.218C26.094,47.026,24.997,43.057,23.436,42.818z"/>
<path fill="#E6B045" d="M40.563,42.818c-1.563,0.238-2.662,4.208-1.451,5.218C41.726,50.219,43.901,42.308,40.563,42.818z"/>
<path fill="#FFCC66" d="M40.454,42.65c0-5.614-3.32-4.364-8.456-4.364c-5.133,0-8.453-1.25-8.453,4.364c0,0,0.016,2.141,0.564,4.95
	c0.896,4.602,4.617,6.407,7.889,6.407c3.272,0,6.997-1.806,7.889-6.407C40.435,44.789,40.454,42.65,40.454,42.65z"/>
<path fill="#594640" d="M31.825,36.178c-1.535,2.734-7.289,4.446-9.268,4.268C24.35,38.639,25.143,33.98,31.825,36.178z"/>
<path fill="#453631" d="M22.557,40.445c2.52-0.656,5.791-1.996,9.268-4.268C30.29,38.912,25.237,41.071,22.557,40.445z"/>
<path fill="#594640" d="M39.587,36.031c-2.174,3.257-10.313,5.294-13.108,5.082C29.01,38.959,30.135,33.414,39.587,36.031z"/>
<path fill="#453631" d="M26.479,41.113c6.686-1.857,13.108-5.082,13.108-5.082C37.413,39.288,31.356,41.585,26.479,41.113z"/>
<path fill="#594640" d="M39.901,35.282c2.605,4.239-4.176,5.977-6.979,5.806C35.437,39.434,37.122,35.149,39.901,35.282z"/>
<path fill="#453631" d="M32.922,41.088c3.37-1.544,8.506-1.859,6.979-5.806C42.507,39.521,35.896,41.471,32.922,41.088z"/>
<path fill="#FFFFFF" d="M38.235,44.393c-0.777,2.035-3.943,1.737-4.523,0.313C34.151,42.418,37.81,42.222,38.235,44.393z"/>
<path fill="#613F34" d="M34.519,44.176c0,1.786,2.588,1.786,2.588,0C37.106,42.518,34.519,42.518,34.519,44.176z"/>
<path fill="#7D5037" d="M34.774,44.748c0,1.024,2.076,1.024,2.076,0C36.851,43.798,34.774,43.798,34.774,44.748z"/>
<path fill="#1A1626" d="M35.274,44.206c0,0.739,1.074,0.739,1.074,0C36.349,43.518,35.274,43.518,35.274,44.206z"/>
<path fill="#AB968C" d="M34.909,43.989c0,0.373,0.543,0.373,0.543,0C35.452,43.643,34.909,43.643,34.909,43.989z"/>
<path fill="#E6B045" d="M38.235,44.377c0-2.184-4.523-2.184-4.523,0.348C34.358,42.646,37.591,42.646,38.235,44.377z"/>
<path fill="#FFFFFF" d="M25.764,44.393c0.775,2.035,3.943,1.737,4.523,0.313C29.846,42.417,26.194,42.222,25.764,44.393z"/>
<path fill="#613F34" d="M26.895,44.176c0,1.786,2.586,1.786,2.586,0C29.481,42.518,26.895,42.518,26.895,44.176z"/>
<path fill="#7D5037" d="M27.151,44.746c0,1.026,2.074,1.026,2.074,0C29.225,43.798,27.151,43.798,27.151,44.746z"/>
<path fill="#1A1626" d="M27.651,44.204c0,0.741,1.074,0.741,1.074,0C28.725,43.516,27.651,43.516,27.651,44.204z"/>
<path fill="#AB968C" d="M27.284,43.987c0,0.375,0.541,0.375,0.541,0C27.825,43.64,27.284,43.64,27.284,43.987z"/>
<path fill="#E6B045" d="M25.764,44.377c0-2.184,4.523-2.184,4.523,0.346C29.641,42.646,26.409,42.646,25.764,44.377z"/>
<path fill="#C1873C" d="M38.653,42.161c-1.352-0.668-3.938-0.701-4.902-0.234c-0.203,0.091-0.068,0.727,0.105,0.664
	c1.344-0.496,3.508-0.509,4.766,0.043C38.788,42.706,38.86,42.257,38.653,42.161z"/>
<path fill="#C1873C" d="M25.344,42.161c1.354-0.668,3.939-0.701,4.904-0.234c0.203,0.091,0.066,0.727-0.104,0.664
	c-1.346-0.496-3.51-0.509-4.768,0.043C25.211,42.706,25.139,42.257,25.344,42.161z"/>
<path fill="#E6A400" d="M31.999,49.828c-1.328-0.391-3.299,0.185-3.299,0.185c0.754,0.817,1.301,1.874,3.299,1.874
	c2.292,0,2.68-1.201,3.299-1.874C35.298,50.013,33.327,49.435,31.999,49.828z"/>
<path fill="#FFFFFF" d="M29.206,50.151c1.393,1.167,4.208,1.175,5.606,0C33.327,50.214,30.702,50.216,29.206,50.151z"/>
<path fill="#E6B045" d="M33.831,48.08c0,1.19-3.663,1.19-3.663,0C30.168,47.806,33.831,47.806,33.831,48.08z"/>
<path fill="#FFCC66" d="M41.784,57.311c-0.842,0.424-2.689-2.339-1.822-2.713c7.49-3.228,8.344-4.729,12.668-6.762
	c1.697-0.798,4.957,1.998,4.957,1.998C56.493,53.809,51.702,52.322,41.784,57.311z"/>
<path fill="#FFCC66" d="M37.761,53.463c-1.666-0.393-4.768,1.096-3.01,1.477c-0.396,0.463-0.348,1.004,0.982,0.637
	c-0.512,0.459,0.336,0.818,1.014,0.654c-0.201,1.16,2.219,0.477,2.941,0.84c1.037,0.52,1.26,0.83,1.523,0.678
	C43.142,56.639,40.526,54.109,37.761,53.463z"/>
<path fill="#FFCC66" d="M22.213,57.311c0.844,0.424,2.689-2.339,1.822-2.713c-7.488-3.228-8.342-4.729-12.666-6.762
	c-1.697-0.798-4.959,1.998-4.959,1.998C7.504,53.809,12.297,52.322,22.213,57.311z"/>
<path fill="#FFCC66" d="M26.239,53.463c1.666-0.393,4.768,1.096,3.01,1.477c0.396,0.463,0.348,1.004-0.982,0.637
	c0.512,0.459-0.336,0.818-1.014,0.654c0.201,1.16-2.219,0.477-2.941,0.84c-1.037,0.52-1.26,0.83-1.523,0.678
	C20.858,56.639,23.473,54.109,26.239,53.463z"/>
</svg>
