<?xml version="1.0" encoding="utf-8"?>
<!-- Generator: Adobe Illustrator 19.0.0, SVG Export Plug-In . SVG Version: 6.00 Build 0)  -->
<svg version="1.1" id="Layer_1" xmlns="http://www.w3.org/2000/svg" xmlns:xlink="http://www.w3.org/1999/xlink" x="0px" y="0px"
	 width="64px" height="64px" viewBox="0 0 64 64" enable-background="new 0 0 64 64" xml:space="preserve">
<path fill="#3B2C29" d="M9.055,9.117C3.61,32.461,4.112,31.965,15.573,31.965C9.231,27.529,21.379,8.801,9.055,9.117z"/>
<path fill="#453631" d="M7.092,8.756C3.118,26.492,6.547,31.047,9.59,31.965h3.49C4.917,26.217,17.676,8.408,7.092,8.756z"/>
<path fill="#3B2C29" d="M25.077,9.115c5.447,23.346,4.947,22.846-6.514,22.846C24.393,28.404,12.752,8.799,25.077,9.115z"/>
<path fill="#453631" d="M27.044,8.756c5.805,16.135-0.016,22.457-2.5,23.205h-3.49C29.215,26.686,16.458,8.406,27.044,8.756z"/>
<path fill="#594640" d="M28.008,17.428c1.682,4.102,0.018,12.52-3.465,14.537c3.859,0,6.209-5.34,7.357-12.682
	C33.331,10.11,25.008,10.106,28.008,17.428z"/>
<path fill="#594640" d="M2.665,20.986C4.071,27.61,5.799,31.965,9.59,31.965c-4.223-4.371-3.727-13.586-2.527-15.879
	C13.184,12.447,0.288,9.779,2.665,20.986z"/>
<path fill="#8E3ED6" d="M5.657,32.738c7.695-5.117,15.26-5.117,22.957,0c2.441,1.623,2.947,7.74,3.254,13.037H27.53V62H6.741V45.776
	h-4.34C2.71,40.479,3.213,34.361,5.657,32.738z"/>
<polygon fill="#732EB0" points="26.745,46.074 28.153,46.074 26.745,38.477 "/>
<path fill="#FFCC66" d="M26.745,62h4.025l1.098-16.225c0,0-2.561-0.658-5.123,0V62z"/>
<path fill="#E6B045" d="M12.926,29.674c0-0.723,0-3.932,0-3.932h8.418c0,0,0,3.16,0,3.932
	C21.344,33.904,12.926,33.904,12.926,29.674z"/>
<path fill="#FFCC66" d="M17.133,3.506c-7.256,0-10.752,5.902-10.314,13.492c0.09,1.525,0.516,3.725,1.037,5.611
	c1.092,3.918,6.834,7.865,9.277,7.865c2.445,0,8.188-3.947,9.277-7.865c0.524-1.887,0.947-4.086,1.039-5.611
	C27.885,9.408,24.389,3.506,17.133,3.506z"/>
<path fill="#D47706" d="M17.135,24.213c-1.766-0.774-1.777-0.029-4.502,0.154c1.023,1.158,1.775,2.648,4.5,2.648
	c3.127,0,3.654-1.693,4.502-2.648C18.911,24.184,18.899,23.44,17.135,24.213z"/>
<path fill="#FFFFFF" d="M13.454,24.654c1.777,1.848,5.609,1.824,7.361,0C18.083,24.949,16.188,24.949,13.454,24.654z"/>
<path fill="#594640" d="M25.129,14.24c-1.635-0.973-4.568-1.092-5.727-0.428c-0.248,0.133-0.18,0.838,0.033,0.748
	c1.654-0.688,4.176-0.723,5.729,0.074C25.374,14.74,25.377,14.383,25.129,14.24z"/>
<path fill="#594640" d="M9.137,14.24c1.633-0.973,4.568-1.092,5.731-0.428c0.248,0.133,0.18,0.838-0.035,0.748
	c-1.654-0.688-4.174-0.723-5.728,0.074C8.895,14.74,8.893,14.383,9.137,14.24z"/>
<path fill="#E6B045" d="M19.385,21.567c0,1.461-4.502,1.461-4.502,0C14.883,21.231,19.385,21.231,19.385,21.567z"/>
<path fill="#FFFFFF" d="M24.973,17.205c-0.971,2.533-4.914,2.162-5.637,0.389C19.883,14.742,24.44,14.498,24.973,17.205z"/>
<path fill="#613F34" d="M20.327,16.93c0,2.244,3.248,2.244,3.248,0C23.575,14.844,20.327,14.844,20.327,16.93z"/>
<path fill="#7D5037" d="M20.647,17.649c0,1.283,2.607,1.283,2.607,0C23.254,16.451,20.647,16.451,20.647,17.649z"/>
<path fill="#1A1626" d="M21.276,16.963c0,0.934,1.35,0.934,1.35,0C22.626,16.098,21.276,16.098,21.276,16.963z"/>
<path fill="#AB968C" d="M20.813,16.692c0,0.471,0.684,0.471,0.684,0C21.497,16.256,20.813,16.256,20.813,16.692z"/>
<path fill="#45332C" d="M24.973,17.186c0-2.723-5.637-2.723-5.637,0.432C20.141,15.029,24.169,15.029,24.973,17.186z"/>
<path fill="#FFFFFF" d="M9.297,17.205c0.969,2.533,4.912,2.164,5.635,0.389C14.387,14.742,9.829,14.498,9.297,17.205z"/>
<path fill="#613F34" d="M10.694,16.932c0,2.246,3.248,2.246,3.248,0C13.942,14.85,10.694,14.85,10.694,16.932z"/>
<path fill="#7D5037" d="M11.014,17.651c0,1.285,2.607,1.285,2.607,0C13.622,16.457,11.014,16.457,11.014,17.651z"/>
<path fill="#1A1626" d="M11.643,16.967c0,0.932,1.35,0.932,1.35,0C12.993,16.102,11.643,16.102,11.643,16.967z"/>
<path fill="#AB968C" d="M11.182,16.695c0,0.471,0.682,0.471,0.682,0C11.864,16.26,11.182,16.26,11.182,16.695z"/>
<path fill="#45332C" d="M9.297,17.186c0-2.723,5.635-2.723,5.635,0.43C14.127,15.027,10.1,15.027,9.297,17.186z"/>
<path fill="#594640" d="M25.243,4.563c-5.09,5.207-0.234,5.543,2.766,12.865c1.682,4.102,2.744,9.197,3.893,1.855
	C33.331,10.11,27.827,3.795,25.243,4.563z"/>
<path fill="#594640" d="M12.752,2.569C6.301,4.084,0.288,9.779,2.665,20.986c1.406,6.623,3.199-2.607,4.398-4.9
	c6.121-3.639,16.588-6.392,18.18-11.523C26.049,3.379,19.208,0.879,12.752,2.569z"/>
<path fill="#453631" d="M7.811,10.733c2.728-0.553,15.779-0.814,17.432-6.17C22.157,7.018,18.963,7.688,7.811,10.733z"/>
<path fill="#453631" d="M3.104,19.252c4.578-6.104,19.574-5.43,22.139-14.689C20.264,12.334,4.356,13.387,3.104,19.252z"/>
<path fill="#453631" d="M23.733,5.832c-1.182,1.859,2.922-0.873,7.348,11.103C29.991,9.934,26.254,5.113,23.733,5.832z"/>
<path fill="#7AB51D" d="M58.612,32.738c-7.697-5.117-15.262-5.117-22.957,0c-2.443,1.623-2.947,7.74-3.256,13.037h4.34V62h20.789
	V45.776h4.338C61.559,40.479,61.053,34.361,58.612,32.738z"/>
<polygon fill="#529320" points="54.743,50.074 56.743,45.776 56.743,38.477 "/>
<polygon fill="#732EB0" points="9.524,50.059 7.524,45.776 7.524,38.461 "/>
<polygon fill="#7AB51D" points="37.522,46.074 36.116,46.074 37.522,38.477 "/>
<path fill="#FFCC66" d="M37.522,62h-4.023l-1.1-16.225c0,0,2.563-0.658,5.123,0V62z"/>
<path fill="#E6B045" d="M51.342,29.674c0-0.723,0-3.932,0-3.932h-8.418c0,0,0,3.16,0,3.932
	C42.924,33.904,51.342,33.904,51.342,29.674z"/>
<path fill="#E6B045" d="M36.422,14.672c-3.584-0.645-0.785,9.361,2.017,6.601C39.741,19.992,38.096,14.975,36.422,14.672z"/>
<path fill="#E6B045" d="M57.848,14.672c-1.676,0.303-3.32,5.32-2.017,6.601C58.635,24.033,61.428,14.027,57.848,14.672z"/>
<path fill="#FFCC66" d="M47.135,2.942c-7.408,0-10.979,5.598-10.531,13.381c0.09,1.566,1.063,6.674,1.979,8.506
	c0.939,1.873,4.08,4.764,6.006,5.361c1.215,0.379,3.877,0.379,5.094,0c1.922-0.598,5.066-3.488,6.002-5.361
	c0.92-1.832,1.891-6.939,1.98-8.506C58.112,8.539,54.542,2.942,47.135,2.942z"/>
<path fill="#E6A400" d="M47.135,24.131c-1.668-0.49-4.135,0.232-4.135,0.232c0.939,1.023,1.629,2.348,4.135,2.348
	c2.869,0,3.359-1.504,4.135-2.348C51.27,24.363,48.799,23.639,47.135,24.131z"/>
<path fill="#FFFFFF" d="M43.629,24.535c1.748,1.463,5.275,1.473,7.031,0C48.799,24.615,45.504,24.615,43.629,24.535z"/>
<path fill="#E6B045" d="M49.434,21.379c0,1.492-4.596,1.492-4.596,0C44.838,21.037,49.434,21.037,49.434,21.379z"/>
<path fill="#594640" d="M47.135,2.942c-5.096,0-8.176,1.68-9.504,1.035c0,0-0.144,0.867,0.375,1.433c0,0-0.547,0.475-1.433-0.326
	C35.727,7.822,38.235,9.41,47.135,9.41c8.9,0,6.773-2.166,11.15,1.637C57.858,6.36,54.876,2.942,47.135,2.942z"/>
<path fill="#453631" d="M50.903,7.026c-4.9,1.809-6.691-1.453-11.314-1.768c2.199,1.037,3.273,2.635,5.078,3.785
	c-3.932-1.312-6.814-3.574-7.033-5.059c0,0-0.656,2.168,1.938,3.789c-2.48,0.228-2.996-2.682-2.996-2.682
	c-1.258,2.016-1.084,8.514,0.311,13.338c0.232-1.723-0.297-2.434,0.5-4.506c2.383-6.199,0.85-3.598,9.75-3.598
	c8.9,0,7.295-2.371,9.75,3.598c0.732,1.777,0.266,2.783,0.5,4.506C60.313,7.553,56.102,5.11,50.903,7.026z"/>
<path fill="#FFFFFF" d="M55.065,16.926c-0.99,2.588-5.017,2.207-5.754,0.394C49.872,14.412,54.522,14.164,55.065,16.926z"/>
<path fill="#FFFFFF" d="M39.204,16.926c0.99,2.588,5.016,2.207,5.754,0.394C44.399,14.41,39.747,14.162,39.204,16.926z"/>
<path fill="#C1873C" d="M55.477,13.809c-1.695-0.84-4.936-0.881-6.146-0.295c-0.258,0.113-0.086,0.908,0.133,0.834
	c1.684-0.625,4.398-0.639,5.973,0.053C55.647,14.488,55.733,13.926,55.477,13.809z"/>
<path fill="#C1873C" d="M38.794,13.809c1.691-0.84,4.936-0.881,6.143-0.295c0.26,0.113,0.088,0.908-0.129,0.834
	c-1.685-0.625-4.398-0.639-5.975,0.053C38.622,14.488,38.538,13.926,38.794,13.809z"/>
<path fill="#613F34" d="M50.338,16.649c0,2.271,3.289,2.271,3.289,0C53.627,14.541,50.338,14.541,50.338,16.649z"/>
<path fill="#7D5037" d="M50.663,17.375c0,1.305,2.641,1.305,2.641,0C53.303,16.166,50.663,16.166,50.663,17.375z"/>
<path fill="#1A1626" d="M51.299,16.686c0,0.941,1.367,0.941,1.367,0C52.667,15.809,51.299,15.809,51.299,16.686z"/>
<path fill="#AB968C" d="M50.835,16.41c0,0.475,0.689,0.475,0.689,0C51.524,15.967,50.835,15.967,50.835,16.41z"/>
<path fill="#613F34" d="M40.641,16.649c0,2.271,3.289,2.271,3.289,0C43.93,14.541,40.641,14.541,40.641,16.649z"/>
<path fill="#7D5037" d="M40.967,17.375c0,1.301,2.639,1.301,2.639,0C43.606,16.166,40.967,16.166,40.967,17.375z"/>
<path fill="#1A1626" d="M41.604,16.686c0,0.941,1.365,0.941,1.365,0C42.969,15.809,41.604,15.809,41.604,16.686z"/>
<path fill="#AB968C" d="M41.137,16.408c0,0.477,0.689,0.477,0.689,0C41.827,15.967,41.137,15.967,41.137,16.408z"/>
<path fill="#E6B045" d="M55.065,16.904c0-2.779-5.754-2.779-5.754,0.441C50.133,14.705,54.243,14.705,55.065,16.904z"/>
<path fill="#E6B045" d="M39.204,16.904c0-2.779,5.754-2.779,5.754,0.439C44.135,14.703,40.024,14.703,39.204,16.904z"/>
<path fill="#4ABDFF" d="M50.493,55.188c-4.816-3.131-10.578-3.101-15.402,0.001C33.434,56.251,32.885,62,32.885,62h19.793
	C52.678,62,52.131,56.248,50.493,55.188z"/>
<path fill="#E6B045" d="M45.706,53.426c0-0.538,0-2.925,0-2.925h-5.85c0,0,0,2.351,0,2.925
	C39.856,55.792,45.706,55.792,45.706,53.426z"/>
<path fill="#594640" d="M42.78,31.985c-10.516,0-9.502,8.421-9.502,12.356h19.006C52.284,40.405,53.297,31.985,42.78,31.985z"/>
<path fill="#E6B045" d="M34.217,42.76c-3.34-0.511-1.162,7.4,1.451,5.218C36.876,46.968,35.778,42.998,34.217,42.76z"/>
<path fill="#E6B045" d="M51.344,42.76c-1.563,0.238-2.662,4.208-1.451,5.218C52.506,50.16,54.682,42.249,51.344,42.76z"/>
<path fill="#FFCC66" d="M51.235,42.592c0-5.614-3.32-4.364-8.455-4.364c-5.133,0-8.453-1.25-8.453,4.364c0,0,0.016,2.141,0.564,4.95
	c0.897,4.602,4.617,6.407,7.889,6.407s6.996-1.806,7.889-6.407C51.215,44.731,51.235,42.592,51.235,42.592z"/>
<path fill="#594640" d="M42.606,36.119c-1.535,2.734-7.289,4.446-9.268,4.268C35.131,38.58,35.924,33.922,42.606,36.119z"/>
<path fill="#453631" d="M33.338,40.387c2.52-0.656,5.791-1.996,9.268-4.268C41.071,38.854,36.018,41.013,33.338,40.387z"/>
<path fill="#594640" d="M50.368,35.973c-2.174,3.257-10.313,5.294-13.107,5.082C39.792,38.901,40.917,33.356,50.368,35.973z"/>
<path fill="#453631" d="M37.26,41.055c6.686-1.857,13.107-5.082,13.107-5.082C48.194,39.23,42.137,41.527,37.26,41.055z"/>
<path fill="#594640" d="M50.682,35.224c2.606,4.239-4.176,5.977-6.979,5.806C46.217,39.375,47.903,35.091,50.682,35.224z"/>
<path fill="#453631" d="M43.704,41.029c3.369-1.544,8.506-1.859,6.979-5.806C53.288,39.463,46.676,41.412,43.704,41.029z"/>
<path fill="#FFFFFF" d="M49.016,44.334c-0.777,2.035-3.943,1.737-4.523,0.313C44.932,42.36,48.59,42.163,49.016,44.334z"/>
<path fill="#613F34" d="M45.299,44.117c0,1.786,2.588,1.786,2.588,0C47.887,42.459,45.299,42.459,45.299,44.117z"/>
<path fill="#7D5037" d="M45.555,44.69c0,1.024,2.076,1.024,2.076,0C47.631,43.739,45.555,43.739,45.555,44.69z"/>
<path fill="#1A1626" d="M46.055,44.148c0,0.739,1.074,0.739,1.074,0C47.129,43.459,46.055,43.459,46.055,44.148z"/>
<path fill="#AB968C" d="M45.69,43.931c0,0.373,0.543,0.373,0.543,0C46.233,43.584,45.69,43.584,45.69,43.931z"/>
<path fill="#E6B045" d="M49.016,44.319c0-2.184-4.523-2.184-4.523,0.348C45.139,42.588,48.372,42.588,49.016,44.319z"/>
<path fill="#FFFFFF" d="M36.545,44.334c0.775,2.035,3.943,1.737,4.523,0.313C40.627,42.359,36.975,42.163,36.545,44.334z"/>
<path fill="#613F34" d="M37.676,44.117c0,1.786,2.586,1.786,2.586,0C40.262,42.459,37.676,42.459,37.676,44.117z"/>
<path fill="#7D5037" d="M37.932,44.688c0,1.026,2.074,1.026,2.074,0C40.006,43.739,37.932,43.739,37.932,44.688z"/>
<path fill="#1A1626" d="M38.432,44.146c0,0.741,1.074,0.741,1.074,0C39.506,43.457,38.432,43.457,38.432,44.146z"/>
<path fill="#AB968C" d="M38.065,43.929c0,0.375,0.541,0.375,0.541,0C38.606,43.581,38.065,43.581,38.065,43.929z"/>
<path fill="#E6B045" d="M36.545,44.319c0-2.184,4.523-2.184,4.523,0.346C40.422,42.588,37.19,42.588,36.545,44.319z"/>
<path fill="#C1873C" d="M49.434,42.103c-1.352-0.668-3.938-0.701-4.902-0.234c-0.203,0.091-0.068,0.727,0.105,0.664
	c1.344-0.496,3.508-0.509,4.766,0.043C49.569,42.648,49.641,42.198,49.434,42.103z"/>
<path fill="#C1873C" d="M36.126,42.103c1.354-0.668,3.939-0.701,4.904-0.234c0.203,0.091,0.066,0.727-0.104,0.664
	c-1.346-0.496-3.51-0.509-4.768,0.043C35.993,42.648,35.92,42.198,36.126,42.103z"/>
<path fill="#E6A400" d="M42.78,49.77c-1.328-0.391-3.299,0.185-3.299,0.185c0.754,0.817,1.301,1.874,3.299,1.874
	c2.291,0,2.68-1.201,3.299-1.874C46.079,49.954,44.108,49.376,42.78,49.77z"/>
<path fill="#FFFFFF" d="M39.987,50.093c1.393,1.167,4.207,1.175,5.605,0C44.108,50.155,41.483,50.157,39.987,50.093z"/>
<path fill="#E6B045" d="M44.612,48.022c0,1.19-3.662,1.19-3.662,0C40.95,47.747,44.612,47.747,44.612,48.022z"/>
<path fill="#E32B56" d="M29.342,54.669c-0.982-0.688-5.299-2.493-5.299-2.493h-4.797c0,0-4.318,1.809-5.307,2.494
	C12.284,55.814,11.733,62,11.733,62h19.793C31.526,62,30.979,55.811,29.342,54.669z"/>
<path fill="#E6B045" d="M24.553,52.839c0-0.538,0-2.925,0-2.925h-5.85c0,0,0,2.35,0,2.925
	C18.704,55.205,24.553,55.205,24.553,52.839z"/>
<path fill="#594640" d="M14.124,43.937c-7.076,4.172-0.855,7.97-2.869,9.768C15.169,56.13,24.749,51.95,14.124,43.937z"/>
<path fill="#453631" d="M12.01,45.522c1.736,6.659,5.31,6.89,5.012,8.095C20.344,51.876,20.376,46.264,12.01,45.522z"/>
<path fill="#594640" d="M29.135,43.937c7.076,4.172,0.855,7.97,2.871,9.768C28.094,56.13,18.512,51.95,29.135,43.937z"/>
<path fill="#453631" d="M31.249,45.522c-1.734,6.659-5.31,6.89-5.01,8.095C22.917,51.876,22.883,46.264,31.249,45.522z"/>
<path fill="#594640" d="M11.952,43.769h19.348C34.116,28.647,9.135,28.647,11.952,43.769z"/>
<path fill="#453631" d="M11.926,43.582c0,0,11.016,4.105,18.652-0.651c-1.543,0.291-4.051-5.605-15.775-6.047
	C14.374,43.582,12.313,41.764,11.926,43.582z"/>
<path fill="#CFD8DD" d="M30.391,42.69c0.822-11.314-18.359-11.314-17.535,0C13.571,33.188,29.674,33.188,30.391,42.69z"/>
<path fill="#FFFFFF" d="M30.391,42.323c0.822-11.313-18.359-11.313-17.535,0C13.571,32.821,29.674,32.821,30.391,42.323z"/>
<path fill="#E6B045" d="M13.059,42.767c-3.336-0.506-1.162,7.364,1.451,5.193C15.723,46.953,14.624,43.005,13.059,42.767z"/>
<path fill="#E6B045" d="M30.188,42.767c-1.561,0.238-2.66,4.187-1.451,5.193C31.352,50.129,33.524,42.261,30.188,42.767z"/>
<path fill="#FFCC66" d="M30.079,42.785c-3.195-0.91-7.289-5.256-15.07-4.729c0.137,1.708-0.313,3.646-1.814,4.735
	c0,0-0.006,1.535,0.543,4.345c0.895,4.602,4.617,6.407,7.887,6.407c3.274,0,6.994-1.806,7.891-6.407
	C30.061,44.324,30.079,42.785,30.079,42.785z"/>
<path fill="#FFFFFF" d="M27.874,44.294c-0.777,2.036-3.943,1.738-4.525,0.313C23.79,42.319,27.446,42.123,27.874,44.294z"/>
<path fill="#613F34" d="M24.157,44.078c0,1.786,2.586,1.786,2.586,0C26.743,42.42,24.157,42.42,24.157,44.078z"/>
<path fill="#7D5037" d="M24.413,44.649c0,1.024,2.074,1.024,2.074,0C26.487,43.698,24.413,43.698,24.413,44.649z"/>
<path fill="#1A1626" d="M24.911,44.106c0,0.742,1.076,0.742,1.076,0C25.987,43.418,24.911,43.418,24.911,44.106z"/>
<path fill="#AB968C" d="M24.547,43.889c0,0.376,0.541,0.376,0.541,0C25.088,43.541,24.547,43.541,24.547,43.889z"/>
<path fill="#E6B045" d="M27.874,44.279c0-2.186-4.525-2.186-4.525,0.346C23.995,42.549,27.227,42.549,27.874,44.279z"/>
<path fill="#FFFFFF" d="M15.401,44.294c0.775,2.036,3.943,1.738,4.525,0.313C19.487,42.317,15.831,42.121,15.401,44.294z"/>
<path fill="#613F34" d="M16.534,44.078c0,1.784,2.586,1.784,2.586,0C19.12,42.42,16.534,42.42,16.534,44.078z"/>
<path fill="#7D5037" d="M16.79,44.649c0,1.022,2.072,1.022,2.072,0C18.862,43.698,16.79,43.698,16.79,44.649z"/>
<path fill="#1A1626" d="M17.288,44.106c0,0.74,1.074,0.74,1.074,0C18.362,43.418,17.288,43.418,17.288,44.106z"/>
<path fill="#AB968C" d="M16.922,43.889c0,0.374,0.543,0.374,0.543,0C17.465,43.541,16.922,43.541,16.922,43.889z"/>
<path fill="#E6B045" d="M15.401,44.279c0-2.186,4.525-2.186,4.525,0.346C19.282,42.547,16.045,42.547,15.401,44.279z"/>
<path fill="#C1873C" d="M28.292,42.064c-1.35-0.672-3.938-0.703-4.9-0.236c-0.207,0.091-0.07,0.726,0.105,0.666
	c1.34-0.498,3.504-0.509,4.764,0.043C28.426,42.607,28.497,42.156,28.292,42.064z"/>
<path fill="#C1873C" d="M14.981,42.064c1.353-0.672,3.939-0.703,4.904-0.236c0.207,0.091,0.068,0.726-0.104,0.666
	c-1.344-0.498-3.51-0.509-4.768,0.043C14.846,42.607,14.778,42.156,14.981,42.064z"/>
<path fill="#E6A400" d="M21.637,49.73c-1.328-0.391-3.299,0.185-3.299,0.185c0.75,0.814,1.303,1.875,3.299,1.875
	c2.289,0,2.682-1.201,3.299-1.875C24.936,49.914,22.963,49.337,21.637,49.73z"/>
<path fill="#FFFFFF" d="M18.84,50.052c1.395,1.169,4.211,1.175,5.611,0C22.963,50.115,20.338,50.115,18.84,50.052z"/>
<path fill="#E6B045" d="M23.471,47.98c0,1.19-3.666,1.19-3.666,0C19.805,47.706,23.471,47.706,23.471,47.98z"/>
<path fill="#FFCC66" d="M12.235,57.492c0.807,0.49,2.559-2.121,1.822-2.713c-4.496-3.604-6.533-9.004-6.533-9.004
	c-2.283-0.691-5.123,0-5.123,0C2.692,51.141,8.315,55.1,12.235,57.492z"/>
<path fill="#FFCC66" d="M15.76,53.645c1.666-0.393,4.767,1.096,3.01,1.477c0.396,0.463,0.348,1.004-0.982,0.637
	c0.512,0.459-0.336,0.818-1.014,0.654c0.201,1.16-2.219,0.477-2.941,0.84c-1.037,0.52-1.26,0.83-1.523,0.678
	C10.379,56.82,12.995,54.291,15.76,53.645z"/>
<path fill="#FFCC66" d="M52.032,57.492c-0.805,0.49-2.559-2.121-1.822-2.713c4.498-3.604,6.533-9.004,6.533-9.004
	c2.283-0.691,5.123,0,5.123,0C61.575,51.141,55.952,55.1,52.032,57.492z"/>
<path fill="#FFCC66" d="M48.506,53.645c-1.666-0.393-4.767,1.096-3.01,1.477c-0.395,0.463-0.348,1.004,0.982,0.637
	c-0.51,0.459,0.338,0.818,1.016,0.654c-0.201,1.16,2.217,0.477,2.941,0.84c1.035,0.52,1.258,0.83,1.523,0.678
	C53.889,56.82,51.272,54.291,48.506,53.645z"/>
</svg>
