<?xml version="1.0" encoding="utf-8"?>
<!-- Generator: Adobe Illustrator 15.0.0, SVG Export Plug-In . SVG Version: 6.00 Build 0)  -->
<!DOCTYPE svg PUBLIC "-//W3C//DTD SVG 1.1//EN" "http://www.w3.org/Graphics/SVG/1.1/DTD/svg11.dtd" [
	<!ENTITY ns_flows "http://ns.adobe.com/Flows/1.0/">
	<!ENTITY ns_extend "http://ns.adobe.com/Extensibility/1.0/">
	<!ENTITY ns_ai "http://ns.adobe.com/AdobeIllustrator/10.0/">
	<!ENTITY ns_graphs "http://ns.adobe.com/Graphs/1.0/">
]>
<svg version="1.1" id="Layer_1" xmlns:x="&ns_extend;" xmlns:i="&ns_ai;" xmlns:graph="&ns_graphs;"
	 xmlns="http://www.w3.org/2000/svg" xmlns:xlink="http://www.w3.org/1999/xlink" xmlns:a="http://ns.adobe.com/AdobeSVGViewerExtensions/3.0/"
	 x="0px" y="0px" width="64px" height="64px" viewBox="0 0 64 64" enable-background="new 0 0 64 64" xml:space="preserve">
<path fill="#E6EBEF" d="M6.788,52.143c2.7-1.452,13.907-5.293,13.907-5.293h16.695c0,0,11.197,3.832,13.882,5.289
	C55.178,54.255,56,62,56,62H2C2,62,2.871,54.248,6.788,52.143z"/>
<path fill="#E6B045" d="M37.5,48.257c0-1.141,0-6.204,0-6.204h-17c0,0,0,4.986,0,6.204C20.5,53.277,37.5,53.277,37.5,48.257z"/>
<path fill="#BEC3CF" d="M8.457,62c0.573-1.953-0.102-4.921-0.818-6.556C6.97,53.922,7.223,60.926,8.457,62z"/>
<path fill="#006DAE" d="M46.451,57.527c0.101-2.172,0.111-3.393-0.753-7.67c-0.209-0.348-4.88-2.133-5.479-1.991
	c0.78,4.671,0.829,6.587,0.772,9.216c-6.484-0.155-17.502-0.155-23.986,0.002c-0.057-2.631-0.008-4.547,0.772-9.218
	c-0.6-0.142-5.27,1.644-5.479,1.991c-0.862,4.277-0.854,5.498-0.753,7.67C10.67,58.035,10.1,62,10.1,62H47.9
	C47.9,62,47.33,58.035,46.451,57.527z"/>
<path fill="#E6B045" d="M11.901,24.235c-5.719-1.031-1.252,14.957,3.225,10.547C17.198,32.738,14.575,24.719,11.901,24.235z"/>
<path fill="#E6B045" d="M46.101,24.235c-2.674,0.483-5.299,8.503-3.223,10.547C47.354,39.192,51.815,23.204,46.101,24.235z"/>
<path fill="#FFCC66" d="M29.001,5.487c-11.824,0-17.521,8.945-16.807,21.384c0.143,2.503,1.693,10.665,3.158,13.593
	c1.498,2.995,6.512,7.614,9.584,8.57c1.939,0.604,6.188,0.604,8.127,0c3.072-0.956,8.086-5.575,9.586-8.57
	c1.465-2.928,3.016-11.09,3.158-13.593C46.522,14.433,40.825,5.487,29.001,5.487z"/>
<path fill="#E6A400" d="M29.001,39.349c-2.66-0.782-6.6,0.37-6.6,0.37c1.5,1.635,2.6,3.756,6.6,3.756c4.582,0,5.359-2.407,6.6-3.756
	C35.601,39.719,31.657,38.563,29.001,39.349z"/>
<path fill="#FFFFFF" d="M23.407,39.995c2.787,2.34,8.418,2.354,11.221,0C31.657,40.123,26.399,40.124,23.407,39.995z"/>
<path fill="#E6B045" d="M32.667,34.951c0,2.386-7.332,2.386-7.332,0C25.335,34.403,32.667,34.403,32.667,34.951z"/>
<path fill="#453631" d="M44.577,22.074c1.146,3.819,0.414,5.426,0.785,8.163c0.728-2.706,1.178-5.085,1.39-8.163H44.577z"/>
<path fill="#453631" d="M13.428,22.074h-2.219c0.31,3.453,0.787,5.922,1.435,8.163C13.013,27.499,12.179,26.357,13.428,22.074z"/>
<path fill="#FFFFFF" d="M41.659,27.833c-1.58,4.136-8.008,3.529-9.186,0.635C33.368,23.818,40.792,23.421,41.659,27.833z"/>
<path fill="#FFFFFF" d="M16.341,27.833c1.58,4.136,8.01,3.529,9.186,0.635C24.632,23.816,17.21,23.419,16.341,27.833z"/>
<path fill="#C1873C" d="M42.315,22.854c-2.705-1.342-7.879-1.407-9.807-0.472c-0.412,0.182-0.141,1.454,0.207,1.332
	c2.688-0.995,7.02-1.019,9.535,0.086C42.585,23.942,42.726,23.043,42.315,22.854z"/>
<path fill="#C1873C" d="M15.687,22.854c2.703-1.342,7.877-1.407,9.807-0.472c0.412,0.182,0.141,1.454-0.207,1.332
	c-2.691-0.995-7.02-1.019-9.537,0.086C15.415,23.942,15.276,23.043,15.687,22.854z"/>
<path fill="#613F34" d="M34.114,27.393c0,3.629,5.25,3.629,5.25,0C39.364,24.023,34.114,24.023,34.114,27.393z"/>
<path fill="#7D5037" d="M34.634,28.554c0,2.081,4.211,2.081,4.211,0C38.845,26.622,34.634,26.622,34.634,28.554z"/>
<path fill="#1A1626" d="M35.649,27.449c0,1.507,2.18,1.507,2.18,0C37.829,26.052,35.649,26.052,35.649,27.449z"/>
<path fill="#AB968C" d="M34.905,27.01c0,0.761,1.102,0.761,1.102,0C36.007,26.304,34.905,26.304,34.905,27.01z"/>
<path fill="#613F34" d="M18.638,27.392c0,3.63,5.25,3.63,5.25,0C23.888,24.022,18.638,24.022,18.638,27.392z"/>
<path fill="#7D5037" d="M19.157,28.553c0,2.081,4.211,2.081,4.211,0C23.368,26.621,19.157,26.621,19.157,28.553z"/>
<path fill="#1A1626" d="M20.173,27.449c0,1.506,2.18,1.506,2.18,0C22.353,26.051,20.173,26.051,20.173,27.449z"/>
<path fill="#AB968C" d="M19.429,27.009c0,0.761,1.1,0.761,1.1,0C20.528,26.303,19.429,26.303,19.429,27.009z"/>
<path fill="#E6B045" d="M41.659,27.802c0-4.44-9.186-4.44-9.186,0.703C33.786,24.285,40.347,24.285,41.659,27.802z"/>
<path fill="#E6B045" d="M16.341,27.802c0-4.44,9.186-4.44,9.186,0.702C24.216,24.282,17.653,24.282,16.341,27.802z"/>
<path opacity="0.2" d="M46.225,24.881c-11.189-3.785-23.242-3.785-34.432,0c-0.47-1.499-0.937-2.998-1.403-4.497
	c12.101-4.095,25.135-4.095,37.237,0C47.16,21.883,46.691,23.382,46.225,24.881z"/>
<path fill="#99A8AE" d="M46.035,23.936c-11.189-3.785-23.244-3.785-34.432,0c-0.469-1.5-0.936-2.998-1.402-4.498
	c12.098-4.094,25.135-4.094,37.237,0C46.971,20.938,46.502,22.436,46.035,23.936z"/>
<polygon fill="#6E8189" points="5.625,21.188 5.625,27.234 9.545,28.418 9.545,20.006 "/>
<polygon fill="#6E8189" points="52.375,21.188 52.375,27.234 48.455,28.418 48.455,20.006 "/>
<path fill="#302C3B" d="M49.354,32c0-19.371-2.92-29.361-20.352-29.361C11.568,2.639,8.65,12.629,8.65,32
	c0,0,2.918-17.497,20.352-17.497C46.434,14.503,49.354,32,49.354,32z"/>
<path fill="#6E8189" d="M29,7.734c6.346,0,10.916,1.196,14.2,3.55l-2.017-6.638c-12.182-2.646-24.365,0-24.365,0l-2.015,6.637
	C18.084,8.931,22.656,7.734,29,7.734z"/>
<polygon fill="#4E5E67" points="41.184,4.646 39.453,2 18.563,2 16.835,4.646 "/>
<polygon fill="#302C3B" points="39.878,4.646 39.013,3.323 19.002,3.323 18.139,4.646 "/>
<path fill="#4E5E67" d="M49.354,32c0-12.832-10.758-17.559-20.352-17.559C19.41,14.441,8.65,19.168,8.65,32
	c0,0,2.918-15.375,20.352-15.375C46.434,16.625,49.354,32,49.354,32z"/>
<path fill="#99A8AE" d="M42.307,57.352l-1.875-0.49l2.535-9.092c0.418-1.518,1.299-4.672,5.639-5.869l0.533,1.814
	c-3.287,0.902-3.895,3.094-4.301,4.543L42.307,57.352z"/>
<path fill="#F9B700" d="M62,38.332c0,0-3.223-1.223-9.705,1.023c-3.141,1.096-1.564,5.348,1.578,4.258
	C60.104,41.449,62,38.332,62,38.332z"/>
<path fill="#FFE12C" d="M52.939,42.734c-2.381,0.836-3.172-1.303-0.787-2.125c2.783-0.971,7.879-1.596,7.879-1.596
	S55.725,41.768,52.939,42.734"/>
<polygon fill="#6E8189" points="49.033,44.641 47.951,41.023 50.084,41.404 50.629,43.209 "/>
<polygon fill="#302C3B" points="42.021,62 43.537,56.545 39.787,55.563 38,62 "/>
</svg>
