<?xml version="1.0" encoding="utf-8"?>
<!-- Generator: Adobe Illustrator 19.0.0, SVG Export Plug-In . SVG Version: 6.00 Build 0)  -->
<svg version="1.1" id="Layer_1" xmlns="http://www.w3.org/2000/svg" xmlns:xlink="http://www.w3.org/1999/xlink" x="0px" y="0px"
	 width="64px" height="64px" viewBox="0 0 64 64" enable-background="new 0 0 64 64" xml:space="preserve">
<path fill="#3B2C29" d="M9.054,9.117c-5.443,23.344-4.943,22.848,6.52,22.848C9.232,27.529,21.38,8.801,9.054,9.117z"/>
<path fill="#453631" d="M7.093,8.756C3.119,26.492,6.546,31.047,9.591,31.965h3.49C4.916,26.217,17.677,8.408,7.093,8.756z"/>
<path fill="#3B2C29" d="M25.076,9.115c5.447,23.346,4.947,22.846-6.514,22.846C24.394,28.404,12.751,8.799,25.076,9.115z"/>
<path fill="#453631" d="M27.042,8.756c5.807,16.135-0.014,22.457-2.5,23.205h-3.49C29.216,26.686,16.457,8.406,27.042,8.756z"/>
<path fill="#594640" d="M28.007,17.428c1.684,4.102,0.018,12.52-3.465,14.537c3.859,0,6.211-5.34,7.358-12.682
	C33.332,10.11,25.009,10.106,28.007,17.428z"/>
<path fill="#594640" d="M2.664,20.986C4.07,27.61,5.8,31.965,9.591,31.965c-4.223-4.371-3.727-13.586-2.527-15.879
	C13.185,12.447,0.287,9.779,2.664,20.986z"/>
<path fill="#8E3ED6" d="M5.656,32.738c7.697-5.117,15.262-5.117,22.957,0c2.443,1.623,2.947,7.74,3.256,13.037h-4.34V62H6.74V45.776
	H2.402C2.709,40.479,3.214,34.361,5.656,32.738z"/>
<polygon fill="#732EB0" points="26.746,46.074 28.152,46.074 26.746,38.477 "/>
<path fill="#FFCC66" d="M26.746,62h4.023l1.1-16.225c0,0-2.563-0.658-5.123,0V62z"/>
<path fill="#E6B045" d="M12.925,29.674c0-0.723,0-3.932,0-3.932h8.418c0,0,0,3.16,0,3.932
	C21.343,33.904,12.925,33.904,12.925,29.674z"/>
<path fill="#FFCC66" d="M17.132,3.506c-7.256,0-10.75,5.902-10.313,13.492c0.09,1.525,0.516,3.725,1.037,5.611
	c1.09,3.918,6.832,7.865,9.275,7.865c2.447,0,8.188-3.947,9.279-7.865c0.523-1.887,0.945-4.086,1.039-5.611
	C27.884,9.408,24.39,3.506,17.132,3.506z"/>
<path fill="#D47706" d="M17.134,24.213c-1.764-0.774-1.775-0.029-4.5,0.154c1.023,1.158,1.775,2.648,4.498,2.648
	c3.129,0,3.656-1.693,4.502-2.648C18.912,24.184,18.9,23.44,17.134,24.213z"/>
<path fill="#FFFFFF" d="M13.455,24.654c1.775,1.848,5.607,1.824,7.361,0C18.082,24.949,16.187,24.949,13.455,24.654z"/>
<path fill="#594640" d="M25.128,14.24c-1.635-0.973-4.566-1.092-5.725-0.428c-0.248,0.133-0.182,0.838,0.033,0.748
	c1.652-0.688,4.174-0.723,5.728,0.074C25.375,14.74,25.378,14.383,25.128,14.24z"/>
<path fill="#594640" d="M9.138,14.24c1.633-0.973,4.568-1.092,5.729-0.428c0.248,0.133,0.182,0.838-0.033,0.748
	c-1.654-0.688-4.176-0.723-5.731,0.074C8.896,14.74,8.892,14.383,9.138,14.24z"/>
<path fill="#E6B045" d="M19.384,21.567c0,1.461-4.502,1.461-4.502,0C14.882,21.231,19.384,21.231,19.384,21.567z"/>
<path fill="#FFFFFF" d="M24.972,17.205c-0.971,2.533-4.912,2.162-5.635,0.389C19.884,14.742,24.441,14.498,24.972,17.205z"/>
<path fill="#613F34" d="M20.328,16.93c0,2.244,3.248,2.244,3.248,0C23.576,14.844,20.328,14.844,20.328,16.93z"/>
<path fill="#7D5037" d="M20.646,17.649c0,1.283,2.609,1.283,2.609,0C23.255,16.451,20.646,16.451,20.646,17.649z"/>
<path fill="#1A1626" d="M21.275,16.963c0,0.934,1.35,0.934,1.35,0C22.625,16.098,21.275,16.098,21.275,16.963z"/>
<path fill="#AB968C" d="M20.814,16.692c0,0.471,0.684,0.471,0.684,0C21.498,16.256,20.814,16.256,20.814,16.692z"/>
<path fill="#45332C" d="M24.972,17.186c0-2.723-5.635-2.723-5.635,0.432C20.142,15.029,24.169,15.029,24.972,17.186z"/>
<path fill="#FFFFFF" d="M9.296,17.205c0.969,2.533,4.912,2.164,5.637,0.389C14.388,14.742,9.83,14.498,9.296,17.205z"/>
<path fill="#613F34" d="M10.695,16.932c0,2.246,3.248,2.246,3.248,0C13.943,14.85,10.695,14.85,10.695,16.932z"/>
<path fill="#7D5037" d="M11.015,17.651c0,1.285,2.607,1.285,2.607,0C13.623,16.457,11.015,16.457,11.015,17.651z"/>
<path fill="#1A1626" d="M11.644,16.967c0,0.932,1.35,0.932,1.35,0C12.994,16.102,11.644,16.102,11.644,16.967z"/>
<path fill="#AB968C" d="M11.181,16.695c0,0.471,0.682,0.471,0.682,0C11.863,16.26,11.181,16.26,11.181,16.695z"/>
<path fill="#45332C" d="M9.296,17.186c0-2.723,5.637-2.723,5.637,0.43C14.128,15.027,10.101,15.027,9.296,17.186z"/>
<path fill="#594640" d="M25.242,4.563c-5.088,5.207-0.233,5.543,2.766,12.865c1.684,4.102,2.746,9.197,3.893,1.855
	C33.332,10.11,27.826,3.795,25.242,4.563z"/>
<path fill="#594640" d="M12.751,2.569C6.3,4.084,0.287,9.779,2.664,20.986c1.406,6.623,3.201-2.607,4.4-4.9
	c6.121-3.639,16.586-6.392,18.178-11.523C26.048,3.379,19.209,0.879,12.751,2.569z"/>
<path fill="#453631" d="M7.812,10.733c2.727-0.553,15.779-0.814,17.43-6.17C22.158,7.018,18.962,7.688,7.812,10.733z"/>
<path fill="#453631" d="M3.105,19.252c4.576-6.104,19.572-5.43,22.137-14.689C20.263,12.334,4.355,13.387,3.105,19.252z"/>
<path fill="#453631" d="M23.732,5.832c-1.182,1.859,2.924-0.873,7.35,11.103C29.99,9.934,26.253,5.113,23.732,5.832z"/>
<path fill="#7AB51D" d="M58.611,32.738c-7.695-5.117-15.26-5.117-22.957,0c-2.441,1.623-2.947,7.74-3.254,13.037h4.338V62h20.789
	V45.776h4.34C61.558,40.479,61.054,34.361,58.611,32.738z"/>
<polygon fill="#529320" points="54.744,50.074 56.744,45.776 56.744,38.477 "/>
<polygon fill="#732EB0" points="9.525,50.059 7.525,45.776 7.525,38.461 "/>
<polygon fill="#7AB51D" points="37.523,46.074 36.115,46.074 37.523,38.477 "/>
<path fill="#FFCC66" d="M37.523,62h-4.025L32.4,45.776c0,0,2.561-0.658,5.123,0V62z"/>
<path fill="#E6B045" d="M51.341,29.674c0-0.723,0-3.932,0-3.932h-8.418c0,0,0,3.16,0,3.932
	C42.923,33.904,51.341,33.904,51.341,29.674z"/>
<path fill="#E6B045" d="M36.423,14.672c-3.586-0.645-0.785,9.361,2.018,6.601C39.742,19.992,38.097,14.975,36.423,14.672z"/>
<path fill="#E6B045" d="M57.849,14.672c-1.676,0.303-3.32,5.32-2.019,6.601C58.634,24.033,61.429,14.027,57.849,14.672z"/>
<path fill="#FFCC66" d="M47.134,2.942c-7.408,0-10.977,5.598-10.529,13.381c0.09,1.566,1.061,6.674,1.979,8.506
	c0.939,1.873,4.08,4.764,6.004,5.361c1.215,0.379,3.877,0.379,5.094,0c1.924-0.598,5.066-3.488,6.004-5.361
	c0.92-1.832,1.889-6.939,1.978-8.506C58.113,8.539,54.542,2.942,47.134,2.942z"/>
<path fill="#E6A400" d="M47.134,24.131C45.468,23.641,43,24.363,43,24.363c0.939,1.023,1.629,2.348,4.135,2.348
	c2.871,0,3.359-1.504,4.137-2.348C51.271,24.363,48.8,23.639,47.134,24.131z"/>
<path fill="#FFFFFF" d="M43.63,24.535c1.746,1.463,5.275,1.473,7.031,0C48.8,24.615,45.505,24.615,43.63,24.535z"/>
<path fill="#E6B045" d="M49.433,21.379c0,1.492-4.596,1.492-4.596,0C44.837,21.037,49.433,21.037,49.433,21.379z"/>
<path fill="#594640" d="M47.134,2.942c-5.096,0-8.176,1.68-9.504,1.035c0,0-0.142,0.867,0.377,1.433c0,0-0.549,0.475-1.436-0.326
	C35.728,7.822,38.234,9.41,47.134,9.41c8.902,0,6.773-2.166,11.152,1.637C57.857,6.36,54.875,2.942,47.134,2.942z"/>
<path fill="#453631" d="M50.904,7.026c-4.9,1.809-6.691-1.453-11.316-1.768c2.201,1.037,3.273,2.635,5.078,3.785
	c-3.93-1.312-6.813-3.574-7.033-5.059c0,0-0.654,2.168,1.938,3.789c-2.479,0.228-2.996-2.682-2.996-2.682
	c-1.256,2.016-1.084,8.514,0.313,13.338c0.23-1.723-0.297-2.434,0.5-4.506c2.383-6.199,0.85-3.598,9.748-3.598
	c8.902,0,7.295-2.371,9.752,3.598c0.73,1.777,0.266,2.783,0.498,4.506C60.312,7.553,56.103,5.11,50.904,7.026z"/>
<path fill="#FFFFFF" d="M55.066,16.926c-0.99,2.588-5.018,2.207-5.754,0.394C49.871,14.412,54.521,14.164,55.066,16.926z"/>
<path fill="#FFFFFF" d="M39.203,16.926c0.99,2.588,5.018,2.207,5.754,0.394C44.398,14.41,39.748,14.162,39.203,16.926z"/>
<path fill="#C1873C" d="M55.476,13.809c-1.693-0.84-4.935-0.881-6.144-0.295c-0.258,0.113-0.088,0.908,0.131,0.834
	c1.684-0.625,4.398-0.639,5.975,0.053C55.648,14.488,55.734,13.926,55.476,13.809z"/>
<path fill="#C1873C" d="M38.792,13.809c1.693-0.84,4.936-0.881,6.145-0.295c0.26,0.113,0.088,0.908-0.129,0.834
	c-1.688-0.625-4.398-0.639-5.977,0.053C38.623,14.488,38.537,13.926,38.792,13.809z"/>
<path fill="#613F34" d="M50.339,16.649c0,2.271,3.289,2.271,3.289,0C53.628,14.541,50.339,14.541,50.339,16.649z"/>
<path fill="#7D5037" d="M50.664,17.375c0,1.305,2.639,1.305,2.639,0C53.302,16.166,50.664,16.166,50.664,17.375z"/>
<path fill="#1A1626" d="M51.3,16.686c0,0.941,1.365,0.941,1.365,0C52.666,15.809,51.3,15.809,51.3,16.686z"/>
<path fill="#AB968C" d="M50.834,16.41c0,0.475,0.689,0.475,0.689,0C51.523,15.967,50.834,15.967,50.834,16.41z"/>
<path fill="#613F34" d="M40.642,16.649c0,2.271,3.289,2.271,3.289,0C43.931,14.541,40.642,14.541,40.642,16.649z"/>
<path fill="#7D5037" d="M40.966,17.375c0,1.301,2.641,1.301,2.641,0C43.607,16.166,40.966,16.166,40.966,17.375z"/>
<path fill="#1A1626" d="M41.605,16.686c0,0.941,1.363,0.941,1.363,0C42.968,15.809,41.605,15.809,41.605,16.686z"/>
<path fill="#AB968C" d="M41.138,16.408c0,0.477,0.688,0.477,0.688,0C41.826,15.967,41.138,15.967,41.138,16.408z"/>
<path fill="#E6B045" d="M55.066,16.904c0-2.779-5.754-2.779-5.754,0.441C50.132,14.705,54.244,14.705,55.066,16.904z"/>
<path fill="#E6B045" d="M39.203,16.904c0-2.779,5.754-2.779,5.754,0.439C44.136,14.703,40.025,14.703,39.203,16.904z"/>
<path fill="#4ABDFF" d="M50.289,55.188c-4.816-3.131-10.578-3.1-15.402,0.002C33.23,56.252,32.681,62,32.681,62h19.793
	C52.474,62,51.927,56.248,50.289,55.188z"/>
<path fill="#E6B045" d="M45.501,53.426c0-0.537,0-2.924,0-2.924h-5.85c0,0,0,2.35,0,2.924
	C39.652,55.793,45.501,55.793,45.501,53.426z"/>
<path fill="#594640" d="M42.576,31.985c-10.516,0-9.502,8.422-9.502,12.357H52.08C52.08,40.406,53.093,31.985,42.576,31.985z"/>
<path fill="#E6B045" d="M34.013,42.76c-3.34-0.51-1.162,7.4,1.451,5.219C36.671,46.969,35.574,42.998,34.013,42.76z"/>
<path fill="#E6B045" d="M51.14,42.76c-1.563,0.238-2.662,4.209-1.451,5.219C52.302,50.16,54.478,42.25,51.14,42.76z"/>
<path fill="#FFCC66" d="M51.031,42.592c0-5.613-3.32-4.363-8.455-4.363c-5.133,0-8.453-1.25-8.453,4.363
	c0,0,0.016,2.141,0.564,4.951c0.896,4.602,4.617,6.406,7.889,6.406c3.271,0,6.996-1.805,7.889-6.406
	C51.011,44.731,51.031,42.592,51.031,42.592z"/>
<path fill="#594640" d="M42.402,36.119c-1.535,2.734-7.289,4.447-9.268,4.268C34.927,38.58,35.72,33.922,42.402,36.119z"/>
<path fill="#453631" d="M33.134,40.387c2.52-0.656,5.791-1.996,9.268-4.268C40.867,38.854,35.814,41.014,33.134,40.387z"/>
<path fill="#594640" d="M50.164,35.973c-2.174,3.258-10.313,5.295-13.107,5.082C39.587,38.901,40.712,33.356,50.164,35.973z"/>
<path fill="#453631" d="M37.056,41.055c6.686-1.857,13.107-5.082,13.107-5.082C47.99,39.231,41.933,41.527,37.056,41.055z"/>
<path fill="#594640" d="M50.478,35.225c2.605,4.238-4.176,5.977-6.979,5.805C46.013,39.375,47.699,35.092,50.478,35.225z"/>
<path fill="#453631" d="M43.5,41.029c3.369-1.543,8.506-1.859,6.979-5.805C53.084,39.463,46.472,41.412,43.5,41.029z"/>
<path fill="#FFFFFF" d="M48.812,44.334c-0.777,2.035-3.943,1.738-4.524,0.314C44.728,42.36,48.386,42.164,48.812,44.334z"/>
<path fill="#613F34" d="M45.095,44.117c0,1.787,2.588,1.787,2.588,0C47.683,42.459,45.095,42.459,45.095,44.117z"/>
<path fill="#7D5037" d="M45.351,44.69c0,1.025,2.076,1.025,2.076,0C47.427,43.74,45.351,43.74,45.351,44.69z"/>
<path fill="#1A1626" d="M45.851,44.149c0,0.738,1.074,0.738,1.074,0C46.925,43.459,45.851,43.459,45.851,44.149z"/>
<path fill="#AB968C" d="M45.486,43.932c0,0.373,0.543,0.373,0.543,0C46.029,43.584,45.486,43.584,45.486,43.932z"/>
<path fill="#E6B045" d="M48.812,44.319c0-2.184-4.524-2.184-4.524,0.348C44.935,42.588,48.167,42.588,48.812,44.319z"/>
<path fill="#FFFFFF" d="M36.341,44.334c0.775,2.035,3.943,1.738,4.523,0.314C40.423,42.36,36.771,42.164,36.341,44.334z"/>
<path fill="#613F34" d="M37.472,44.117c0,1.787,2.586,1.787,2.586,0C40.058,42.459,37.472,42.459,37.472,44.117z"/>
<path fill="#7D5037" d="M37.728,44.688c0,1.027,2.074,1.027,2.074,0C39.802,43.74,37.728,43.74,37.728,44.688z"/>
<path fill="#1A1626" d="M38.228,44.147c0,0.74,1.074,0.74,1.074,0C39.302,43.457,38.228,43.457,38.228,44.147z"/>
<path fill="#AB968C" d="M37.861,43.93c0,0.375,0.541,0.375,0.541,0C38.402,43.582,37.861,43.582,37.861,43.93z"/>
<path fill="#E6B045" d="M36.341,44.319c0-2.184,4.523-2.184,4.523,0.346C40.218,42.588,36.986,42.588,36.341,44.319z"/>
<path fill="#C1873C" d="M49.23,42.104c-1.352-0.668-3.938-0.701-4.902-0.234c-0.203,0.09-0.068,0.727,0.105,0.664
	c1.344-0.496,3.508-0.51,4.766,0.043C49.365,42.649,49.437,42.199,49.23,42.104z"/>
<path fill="#C1873C" d="M35.921,42.104c1.354-0.668,3.939-0.701,4.904-0.234c0.203,0.09,0.067,0.727-0.104,0.664
	c-1.346-0.496-3.51-0.51-4.767,0.043C35.789,42.649,35.716,42.199,35.921,42.104z"/>
<path fill="#E6A400" d="M42.576,49.77c-1.328-0.391-3.299,0.186-3.299,0.186c0.754,0.816,1.301,1.873,3.299,1.873
	c2.291,0,2.68-1.201,3.299-1.873C45.875,49.955,43.904,49.377,42.576,49.77z"/>
<path fill="#FFFFFF" d="M39.783,50.094c1.393,1.166,4.207,1.174,5.605,0C43.904,50.156,41.279,50.158,39.783,50.094z"/>
<path fill="#E6B045" d="M44.408,48.022c0,1.191-3.662,1.191-3.662,0C40.746,47.748,44.408,47.748,44.408,48.022z"/>
<path fill="#4ABDFF" d="M29.136,55.188c-4.816-3.131-10.578-3.1-15.402,0.002C12.078,56.252,11.529,62,11.529,62h19.793
	C31.322,62,30.775,56.248,29.136,55.188z"/>
<path fill="#E6B045" d="M24.349,53.426c0-0.537,0-2.924,0-2.924H18.5c0,0,0,2.35,0,2.924C18.5,55.793,24.349,55.793,24.349,53.426z"
	/>
<path fill="#594640" d="M21.423,31.985c-10.516,0-9.502,8.422-9.502,12.357h19.006C30.927,40.406,31.941,31.985,21.423,31.985z"/>
<path fill="#E6B045" d="M12.861,42.76c-3.34-0.51-1.162,7.4,1.451,5.219C15.519,46.969,14.421,42.998,12.861,42.76z"/>
<path fill="#E6B045" d="M29.988,42.76c-1.563,0.238-2.662,4.209-1.451,5.219C31.15,50.16,33.326,42.25,29.988,42.76z"/>
<path fill="#FFCC66" d="M29.878,42.592c0-5.613-3.32-4.363-8.455-4.363c-5.133,0-8.453-1.25-8.453,4.363
	c0,0,0.016,2.141,0.564,4.951c0.897,4.602,4.617,6.406,7.889,6.406s6.996-1.805,7.889-6.406
	C29.859,44.731,29.878,42.592,29.878,42.592z"/>
<path fill="#594640" d="M21.25,36.119c-1.535,2.734-7.289,4.447-9.268,4.268C13.775,38.58,14.568,33.922,21.25,36.119z"/>
<path fill="#453631" d="M11.982,40.387c2.52-0.656,5.791-1.996,9.268-4.268C19.714,38.854,14.662,41.014,11.982,40.387z"/>
<path fill="#594640" d="M29.011,35.973c-2.174,3.258-10.313,5.295-13.107,5.082C18.435,38.901,19.56,33.356,29.011,35.973z"/>
<path fill="#453631" d="M15.904,41.055c6.686-1.857,13.107-5.082,13.107-5.082C26.837,39.231,20.781,41.527,15.904,41.055z"/>
<path fill="#594640" d="M29.326,35.225c2.605,4.238-4.176,5.977-6.979,5.805C24.861,39.375,26.546,35.092,29.326,35.225z"/>
<path fill="#453631" d="M22.347,41.029c3.369-1.543,8.506-1.859,6.979-5.805C31.931,39.463,25.32,41.412,22.347,41.029z"/>
<path fill="#FFFFFF" d="M27.66,44.334c-0.777,2.035-3.943,1.738-4.523,0.314C23.576,42.36,27.234,42.164,27.66,44.334z"/>
<path fill="#613F34" d="M23.943,44.117c0,1.787,2.588,1.787,2.588,0C26.531,42.459,23.943,42.459,23.943,44.117z"/>
<path fill="#7D5037" d="M24.199,44.69c0,1.025,2.076,1.025,2.076,0C26.275,43.74,24.199,43.74,24.199,44.69z"/>
<path fill="#1A1626" d="M24.699,44.149c0,0.738,1.074,0.738,1.074,0C25.773,43.459,24.699,43.459,24.699,44.149z"/>
<path fill="#AB968C" d="M24.334,43.932c0,0.373,0.543,0.373,0.543,0C24.876,43.584,24.334,43.584,24.334,43.932z"/>
<path fill="#E6B045" d="M27.66,44.319c0-2.184-4.523-2.184-4.523,0.348C23.783,42.588,27.015,42.588,27.66,44.319z"/>
<path fill="#FFFFFF" d="M15.189,44.334c0.775,2.035,3.943,1.738,4.524,0.314C19.271,42.36,15.619,42.164,15.189,44.334z"/>
<path fill="#613F34" d="M16.32,44.117c0,1.787,2.586,1.787,2.586,0C18.906,42.459,16.32,42.459,16.32,44.117z"/>
<path fill="#7D5037" d="M16.576,44.688c0,1.027,2.074,1.027,2.074,0C18.65,43.74,16.576,43.74,16.576,44.688z"/>
<path fill="#1A1626" d="M17.076,44.147c0,0.74,1.074,0.74,1.074,0C18.15,43.457,17.076,43.457,17.076,44.147z"/>
<path fill="#AB968C" d="M16.709,43.93c0,0.375,0.541,0.375,0.541,0C17.25,43.582,16.709,43.582,16.709,43.93z"/>
<path fill="#E6B045" d="M15.189,44.319c0-2.184,4.524-2.184,4.524,0.346C19.066,42.588,15.834,42.588,15.189,44.319z"/>
<path fill="#C1873C" d="M28.078,42.104c-1.352-0.668-3.938-0.701-4.902-0.234c-0.203,0.09-0.068,0.727,0.105,0.664
	c1.344-0.496,3.508-0.51,4.766,0.043C28.212,42.649,28.285,42.199,28.078,42.104z"/>
<path fill="#C1873C" d="M14.769,42.104c1.353-0.668,3.939-0.701,4.904-0.234c0.203,0.09,0.066,0.727-0.104,0.664
	c-1.346-0.496-3.51-0.51-4.768,0.043C14.636,42.649,14.564,42.199,14.769,42.104z"/>
<path fill="#E6A400" d="M21.423,49.77c-1.328-0.391-3.299,0.186-3.299,0.186c0.754,0.816,1.301,1.873,3.299,1.873
	c2.291,0,2.68-1.201,3.299-1.873C24.722,49.955,22.751,49.377,21.423,49.77z"/>
<path fill="#FFFFFF" d="M18.63,50.094c1.393,1.166,4.207,1.174,5.605,0C22.751,50.156,20.126,50.158,18.63,50.094z"/>
<path fill="#E6B045" d="M23.255,48.022c0,1.191-3.662,1.191-3.662,0C19.593,47.748,23.255,47.748,23.255,48.022z"/>
<path fill="#FFCC66" d="M12.236,57.492c0.805,0.49,2.559-2.121,1.822-2.713c-4.498-3.604-6.533-9.004-6.533-9.004
	c-2.283-0.691-5.123,0-5.123,0C2.693,51.141,8.316,55.1,12.236,57.492z"/>
<path fill="#FFCC66" d="M15.761,53.645c1.666-0.393,4.768,1.096,3.01,1.477c0.394,0.463,0.348,1.004-0.983,0.637
	c0.51,0.459-0.338,0.818-1.016,0.654c0.201,1.16-2.217,0.477-2.941,0.84c-1.035,0.52-1.258,0.83-1.523,0.678
	C10.378,56.82,12.996,54.291,15.761,53.645z"/>
<path fill="#FFCC66" d="M52.033,57.492c-0.807,0.49-2.559-2.121-1.822-2.713c4.496-3.604,6.533-9.004,6.533-9.004
	c2.283-0.691,5.123,0,5.123,0C61.576,51.141,55.953,55.1,52.033,57.492z"/>
<path fill="#FFCC66" d="M48.507,53.645c-1.666-0.393-4.768,1.096-3.01,1.477c-0.397,0.463-0.348,1.004,0.982,0.637
	c-0.512,0.459,0.336,0.818,1.014,0.654c-0.201,1.16,2.219,0.477,2.941,0.84c1.037,0.52,1.26,0.83,1.523,0.678
	C53.888,56.82,51.273,54.291,48.507,53.645z"/>
</svg>
