<?xml version="1.0" encoding="utf-8"?>
<!-- Generator: Adobe Illustrator 15.0.0, SVG Export Plug-In . SVG Version: 6.00 Build 0)  -->
<!DOCTYPE svg PUBLIC "-//W3C//DTD SVG 1.1//EN" "http://www.w3.org/Graphics/SVG/1.1/DTD/svg11.dtd" [
	<!ENTITY ns_flows "http://ns.adobe.com/Flows/1.0/">
	<!ENTITY ns_extend "http://ns.adobe.com/Extensibility/1.0/">
	<!ENTITY ns_ai "http://ns.adobe.com/AdobeIllustrator/10.0/">
	<!ENTITY ns_graphs "http://ns.adobe.com/Graphs/1.0/">
]>
<svg version="1.1" id="Layer_1" xmlns:x="&ns_extend;" xmlns:i="&ns_ai;" xmlns:graph="&ns_graphs;"
	 xmlns="http://www.w3.org/2000/svg" xmlns:xlink="http://www.w3.org/1999/xlink" xmlns:a="http://ns.adobe.com/AdobeSVGViewerExtensions/3.0/"
	 x="0px" y="0px" width="64px" height="64px" viewBox="0 0 64 64" enable-background="new 0 0 64 64" xml:space="preserve">
<ellipse fill="#B00505" cx="32" cy="33.546" rx="21.131" ry="10.602"/>
<path fill="#3B2C29" d="M20.926,15.476c-7.466,37.398-6.783,36.597,8.934,36.597C21.163,44.972,37.823,14.968,20.926,15.476z"/>
<path fill="#453631" d="M18.233,14.898c-5.449,28.412-0.749,35.708,3.426,37.175h4.782C15.251,42.87,32.744,14.339,18.233,14.898z"
	/>
<path fill="#3B2C29" d="M42.892,15.476c7.465,37.396,6.781,36.595-8.934,36.595C41.955,46.372,25.994,14.966,42.892,15.476z"/>
<path fill="#453631" d="M45.582,14.896c7.965,25.849-0.018,35.978-3.426,37.175h-4.781C48.567,43.62,31.073,14.337,45.582,14.896z"
	/>
<path fill="#594640" d="M46.686,28.787c2.272,6.572,0.024,20.058-4.68,23.287c5.213,0,8.39-8.551,9.938-20.31
	C53.878,17.068,42.638,17.06,46.686,28.787z"/>
<path fill="#594640" d="M12.458,34.489c1.9,10.613,4.237,17.584,9.354,17.584c-5.705-7-5.034-21.761-3.412-25.433
	C26.666,20.812,9.245,16.537,12.458,34.489z"/>
<path fill="#E81C27" d="M12.259,53.155c2.397-1.305,13.195-4.254,13.195-4.254L32,50.649l6.546-1.748c0,0,10.87,2.943,13.255,4.25
	C55.27,55.05,56,61.999,56,61.999H8C8,61.999,8.777,55.046,12.259,53.155"/>
<polygon fill="#FFE12C" points="13.742,61.999 50.262,61.999 51.091,58.507 13.093,58.507 "/>
<rect x="25.454" y="44.536" fill="#E6B045" width="13.092" height="8.434"/>
<path fill="#302C3B" d="M25.454,50.798C26.848,53.384,32,57.026,32,57.026s5.154-3.643,6.546-6.229
	C34.304,52.118,29.699,52.118,25.454,50.798z"/>
<path fill="#B00505" d="M13.742,61.999c0.509-1.75-0.09-4.414-0.729-5.881C12.419,54.751,12.643,61.036,13.742,61.999"/>
<path fill="#B00505" d="M50.988,56.118c-0.637,1.467-1.239,4.131-0.727,5.881C51.357,61.036,51.581,54.751,50.988,56.118"/>
<rect x="32.002" y="55.126" fill="#302C3B" width="0.82" height="6.873"/>
<path fill="#B00505" d="M32.002,61.999c0,0-2.868-9.906-9.959-7.889c0,0-0.281-5.068,3.294-7.744
	c1.106-0.828-1.197,4.34,6.663,8.762L32.002,61.999"/>
<path fill="#B00505" d="M32.002,58.507c0,0,2.6-4.854,9.957-4.396c0,0,0.281-5.068-3.292-7.744
	c-1.108-0.828,1.534,4.922-6.667,8.762l0.002,6.871"/>
<path fill="#FFCC66" d="M32,6.49c-11.609,0-17.201,9.455-16.502,21.611c0.143,2.443,0.822,5.968,1.661,8.988
	c1.741,6.277,10.929,12.6,14.841,12.6c3.911,0,13.1-6.322,14.841-12.6c0.839-3.02,1.519-6.544,1.663-8.988
	C49.201,15.945,43.611,6.49,32,6.49z"/>
<path fill="#D47706" d="M32.001,39.661c-2.822-1.24-2.844-0.051-7.2,0.242c1.636,1.855,2.839,4.244,7.198,4.244
	c5.003,0,5.849-2.711,7.203-4.244C34.843,39.61,34.823,38.421,32.001,39.661z"/>
<path fill="#FFFFFF" d="M26.108,40.366c2.844,2.959,8.977,2.92,11.784,0C33.515,40.837,30.488,40.837,26.108,40.366z"/>
<path fill="#594640" d="M44.795,23.685c-2.616-1.561-7.308-1.75-9.165-0.688c-0.394,0.213-0.287,1.34,0.053,1.199
	c2.648-1.104,6.682-1.158,9.168,0.117C45.184,24.484,45.19,23.912,44.795,23.685z"/>
<path fill="#594640" d="M19.207,23.685c2.615-1.561,7.307-1.75,9.166-0.688c0.394,0.213,0.289,1.34-0.054,1.199
	c-2.648-1.104-6.68-1.158-9.167,0.117C18.818,24.484,18.812,23.912,19.207,23.685z"/>
<path fill="#E6B045" d="M35.601,35.419c0,2.342-7.2,2.342-7.2,0C28.4,34.882,35.601,34.882,35.601,35.419z"/>
<path fill="#FFFFFF" d="M44.542,28.431c-1.552,4.061-7.861,3.465-9.017,0.623C36.401,24.49,43.688,24.099,44.542,28.431z"/>
<path fill="#613F34" d="M37.106,27.99c0,3.596,5.2,3.596,5.2,0C42.307,24.652,37.106,24.652,37.106,27.99z"/>
<path fill="#7D5037" d="M37.62,29.14c0,2.063,4.172,2.063,4.172,0C41.792,27.226,37.62,27.226,37.62,29.14z"/>
<path fill="#1A1626" d="M38.627,28.046c0,1.492,2.159,1.492,2.159,0C40.786,26.662,38.627,26.662,38.627,28.046z"/>
<path fill="#AB968C" d="M37.89,27.611c0,0.754,1.09,0.754,1.09,0C38.979,26.912,37.89,26.912,37.89,27.611z"/>
<path fill="#45332C" d="M44.542,28.4c0-4.361-9.017-4.361-9.017,0.691C36.812,24.945,43.255,24.945,44.542,28.4z"/>
<path fill="#FFFFFF" d="M19.46,28.431c1.552,4.061,7.862,3.467,9.019,0.623C27.603,24.49,20.314,24.099,19.46,28.431z"/>
<path fill="#613F34" d="M21.695,27.996c0,3.596,5.2,3.596,5.2,0C26.896,24.658,21.695,24.658,21.695,27.996z"/>
<path fill="#7D5037" d="M22.209,29.146c0,2.063,4.172,2.063,4.172,0C26.381,27.232,22.209,27.232,22.209,29.146z"/>
<path fill="#1A1626" d="M23.216,28.052c0,1.492,2.159,1.492,2.159,0C25.375,26.667,23.216,26.667,23.216,28.052z"/>
<path fill="#AB968C" d="M22.479,27.617c0,0.754,1.09,0.754,1.09,0C23.568,26.916,22.479,26.916,22.479,27.617z"/>
<path fill="#45332C" d="M19.46,28.4c0-4.361,9.019-4.361,9.019,0.689C27.191,24.945,20.748,24.945,19.46,28.4z"/>
<path fill="#594640" d="M42.95,8.179c-6.871,8.342-0.313,8.881,3.735,20.607c2.272,6.572,3.71,14.736,5.258,2.977
	C53.878,17.068,46.442,6.953,42.95,8.179z"/>
<path fill="#594640" d="M26.083,4.986c-8.714,2.43-16.838,11.551-13.625,29.503c1.9,10.613,2.671-3.666,4.292-7.337
	c8.267-5.828,24.052-10.752,26.2-18.973C44.041,6.283,34.803,2.279,26.083,4.986z"/>
<path fill="#453631" d="M19.216,18.062c3.741-0.885,21.637-1.301,23.9-9.883C38.887,12.113,34.506,13.185,19.216,18.062z"/>
<path fill="#453631" d="M12.767,31.71c6.275-9.773,26.833-8.695,30.35-23.531C36.29,20.632,14.481,22.316,12.767,31.71z"/>
<path fill="#453631" d="M41.048,10.214C39.428,13.191,45.056,8.816,51.122,28C49.627,16.785,44.501,9.062,41.048,10.214z"/>
<path opacity="0.2" d="M31.993,19.658c-30.711,0-20.989,17.841-20.989,16.143c0-5.931,9.4-10.736,21-10.736
	c11.598,0,21,4.805,21,10.736C53.004,37.486,62.703,19.658,31.993,19.658z"/>
<radialGradient id="SVGID_1_" cx="89.416" cy="15.6499" r="16.5133" gradientTransform="matrix(1.0909 0 0 0.9959 -65.5449 0.3537)" gradientUnits="userSpaceOnUse">
	<stop  offset="0.2606" style="stop-color:#A10505"/>
	<stop  offset="0.4829" style="stop-color:#B20B0D"/>
	<stop  offset="0.924" style="stop-color:#E01923"/>
	<stop  offset="1" style="stop-color:#E81C27"/>
	<a:midPointStop  offset="0.2606" style="stop-color:#A10505"/>
	<a:midPointStop  offset="0.5528" style="stop-color:#A10505"/>
	<a:midPointStop  offset="1" style="stop-color:#E81C27"/>
</radialGradient>
<path fill="url(#SVGID_1_)" d="M53.999,25.817c0,5.693,0.483-3.563-21.999-3.563c-22.483,0.002-21.999,9.257-21.999,3.563
	C10.001,11.776,19.85,4.212,32,4.212S53.999,11.776,53.999,25.817z"/>
<path fill="#E81C27" d="M38.057,21.339H25.943c0,0,0-13.2,0-16.133c0-4.274,12.113-4.274,12.113,0
	C38.057,8.45,38.057,21.339,38.057,21.339z"/>
<radialGradient id="SVGID_2_" cx="89.416" cy="20.9561" r="14.9761" gradientTransform="matrix(1.0909 0 0 0.9959 -65.5449 0.3537)" gradientUnits="userSpaceOnUse">
	<stop  offset="0" style="stop-color:#747080"/>
	<stop  offset="1" style="stop-color:#302C3B"/>
	<a:midPointStop  offset="0" style="stop-color:#747080"/>
	<a:midPointStop  offset="0.5" style="stop-color:#747080"/>
	<a:midPointStop  offset="1" style="stop-color:#302C3B"/>
</radialGradient>
<path fill="url(#SVGID_2_)" d="M53.999,25.817c0-1.455-0.13-2.824-0.333-4.142c-3.86-4.078-12.112-6.895-21.67-6.895
	c-9.55,0-17.796,2.811-21.66,6.882c-0.204,1.321-0.335,2.694-0.335,4.154c0,5.693-0.484-3.562,21.999-3.563
	C54.482,22.253,53.999,31.51,53.999,25.817z"/>
<path fill="#E81C27" d="M32,18.765c-13.255,0-24,5.416-24,12.102c0,2.833,1.938,5.44,5.178,7.5c-1.375-1.342-2.167-2.846-2.167-4.44
	c0-5.571,9.4-10.083,21-10.083c11.597,0,21,4.513,21,10.083c0,1.582-0.78,3.073-2.133,4.405C54.082,36.277,56,33.685,56,30.867
	C56,24.181,45.255,18.765,32,18.765z"/>
<path fill="#FFE12C" d="M37.949,10.846c-1.49-2.883-4.694-2.275-5.95-4.688c-1.255,2.412-4.461,1.805-5.949,4.688
	c-1.496,2.895,1.308,4.135-0.438,5.803c0,0,1.864,1.314,1.332,4.301c0,0,2.037-0.963,5.055,1.139
	c3.018-2.102,5.054-1.139,5.054-1.139c-0.53-2.986,1.334-4.301,1.334-4.301C36.641,14.981,39.445,13.741,37.949,10.846z"/>
<path fill="#302C3B" d="M35.3,17.987h-1.16v0.465h1.064v0.381H34.14v0.564h1.213v0.393h-1.661v-2.191H35.3V17.987z"/>
<path fill="#302C3B" d="M28.646,17.6h1.561v0.383H29.1v0.506h0.973v0.381H29.1v0.918h-0.453V17.6z"/>
<path fill="#302C3B" d="M31.119,19.79h-0.456v-2.191h0.456V19.79z"/>
<path fill="#302C3B" d="M32.969,17.653c0.08,0.033,0.149,0.086,0.205,0.154c0.046,0.055,0.084,0.115,0.11,0.184
	c0.027,0.068,0.042,0.145,0.042,0.23c0,0.105-0.027,0.209-0.08,0.309c-0.052,0.1-0.139,0.17-0.26,0.213
	c0.101,0.039,0.172,0.098,0.214,0.174c0.043,0.074,0.065,0.189,0.065,0.342v0.146c0,0.1,0.003,0.168,0.01,0.205
	c0.013,0.059,0.041,0.098,0.085,0.127v0.053h-0.506c-0.013-0.047-0.023-0.088-0.029-0.117c-0.013-0.061-0.019-0.125-0.02-0.188
	l-0.004-0.205c0-0.141-0.025-0.232-0.072-0.279c-0.045-0.047-0.134-0.07-0.261-0.07h-0.448v0.859h-0.445v-2.191h1.048
	C32.772,17.6,32.889,17.618,32.969,17.653z M32.021,17.977v0.59h0.494c0.098,0,0.172-0.014,0.22-0.037
	c0.087-0.041,0.131-0.123,0.131-0.244c0-0.133-0.042-0.223-0.127-0.268c-0.044-0.027-0.116-0.041-0.212-0.041H32.021z"/>
<path fill="#E81C27" d="M35.462,11.299c-0.838-0.84-2.037,0.387-2.386,0.463c0.075-0.35,1.301-1.549,0.463-2.389
	c-0.242-0.242-2.838-0.242-3.08,0c-0.838,0.84,0.388,2.039,0.462,2.389c-0.348-0.076-1.547-1.303-2.386-0.463
	c-0.241,0.244-0.241,2.836,0,3.08c0.839,0.836,2.038-0.387,2.386-0.463c-0.075,0.348-1.3,1.547-0.462,2.387
	c0.242,0.24,2.838,0.24,3.08,0c0.838-0.84-0.388-2.039-0.463-2.387c0.349,0.076,1.548,1.299,2.386,0.463
	C35.704,14.135,35.704,11.543,35.462,11.299z"/>
</svg>
