<?xml version="1.0" encoding="utf-8"?>
<!-- Generator: Adobe Illustrator 15.0.0, SVG Export Plug-In . SVG Version: 6.00 Build 0)  -->
<!DOCTYPE svg PUBLIC "-//W3C//DTD SVG 1.1//EN" "http://www.w3.org/Graphics/SVG/1.1/DTD/svg11.dtd" [
	<!ENTITY ns_flows "http://ns.adobe.com/Flows/1.0/">
	<!ENTITY ns_extend "http://ns.adobe.com/Extensibility/1.0/">
	<!ENTITY ns_ai "http://ns.adobe.com/AdobeIllustrator/10.0/">
	<!ENTITY ns_graphs "http://ns.adobe.com/Graphs/1.0/">
]>
<svg version="1.1" id="Layer_1" xmlns:x="&ns_extend;" xmlns:i="&ns_ai;" xmlns:graph="&ns_graphs;"
	 xmlns="http://www.w3.org/2000/svg" xmlns:xlink="http://www.w3.org/1999/xlink" xmlns:a="http://ns.adobe.com/AdobeSVGViewerExtensions/3.0/"
	 x="0px" y="0px" width="64px" height="64px" viewBox="0 0 64 64" enable-background="new 0 0 64 64" xml:space="preserve">
<path fill="#423225" d="M8.682,27.566c-7.797-1.406-1.707,20.396,4.396,14.383C15.907,39.162,12.329,28.226,8.682,27.566z"/>
<path fill="#423225" d="M55.319,27.566c-3.648,0.659-7.227,11.596-4.396,14.383C57.028,47.963,63.112,26.16,55.319,27.566z"/>
<path fill="#614A36" d="M32,3.002C15.877,3.002,8.108,14.2,9.083,31.16c0.195,3.413,2.309,14.544,4.307,18.536
	c2.043,4.084,8.879,10.383,13.068,11.687c2.646,0.823,8.44,0.823,11.084,0c4.189-1.304,11.025-7.603,13.07-11.687
	c1.998-3.992,4.111-15.123,4.307-18.536C55.894,14.2,48.126,3.002,32,3.002z"/>
<path fill="#36281D" d="M32,48.176c-3.629-1.067-9,0.505-9,0.505c2.047,2.229,3.547,5.121,9,5.121c6.249,0,7.309-3.282,8.999-5.121
	C40.999,48.681,35.622,47.104,32,48.176z"/>
<path fill="#FFFFFF" d="M24.374,49.058c3.799,3.19,11.479,3.21,15.301,0C35.622,49.231,28.454,49.233,24.374,49.058z"/>
<path fill="#423225" d="M37.001,42.179c0,3.254-10,3.254-10,0C27,41.433,37.001,41.433,37.001,42.179z"/>
<path fill="#FC902E" d="M32,2C20.909,2,14.206,5.664,11.317,4.258c0,0-0.314,1.892,0.818,3.123c0,0-1.195,1.033-3.125-0.71
	c-1.838,5.968,3.617,9.426,22.99,9.426c19.374,0,14.745-4.718,24.268,3.567C55.335,9.452,48.847,2,32,2z"/>
<path fill="#EB7700" d="M40.204,10.904c-10.667,3.937-14.567-3.166-24.627-3.853c4.785,2.26,7.121,5.738,11.051,8.249
	c-8.553-2.865-14.832-7.789-15.307-11.025c0,0-1.428,4.725,4.217,8.255c-5.396,0.5-6.523-5.841-6.523-5.841
	C6.28,11.08,6.659,25.242,9.696,35.752c0.506-3.75-0.648-5.301,1.086-9.82c5.188-13.506,1.85-7.835,21.221-7.835
	c19.372,0,15.875-5.171,21.221,7.835c1.594,3.877,0.578,6.07,1.088,9.82C60.681,12.056,51.521,6.728,40.204,10.904z"/>
<path fill="#FFFFFF" d="M49.261,32.473c-2.152,5.64-10.918,4.813-12.523,0.866C37.956,26.999,48.079,26.456,49.261,32.473z"/>
<path fill="#FFFFFF" d="M14.737,32.473c2.154,5.64,10.922,4.813,12.525,0.866C26.043,26.996,15.922,26.454,14.737,32.473z"/>
<path fill="#36281D" d="M50.157,25.685c-3.688-1.83-10.744-1.919-13.373-0.644c-0.563,0.247-0.191,1.982,0.283,1.816
	c3.664-1.357,9.572-1.39,13.002,0.117C50.524,27.168,50.716,25.94,50.157,25.685z"/>
<path fill="#36281D" d="M13.844,25.685c3.688-1.83,10.742-1.919,13.373-0.644c0.563,0.247,0.191,1.982-0.281,1.816
	c-3.67-1.357-9.574-1.39-13.006,0.117C13.475,27.168,13.286,25.94,13.844,25.685z"/>
<path fill="#613F34" d="M38.974,31.872c0,4.949,7.158,4.949,7.158,0C46.132,27.278,38.974,27.278,38.974,31.872z"/>
<path fill="#7D5037" d="M39.681,33.456c0,2.838,5.744,2.838,5.744,0C45.425,30.821,39.681,30.821,39.681,33.456z"/>
<path fill="#1A1626" d="M41.067,31.95c0,2.055,2.971,2.055,2.971,0C44.038,30.044,41.067,30.044,41.067,31.95z"/>
<path fill="#AB968C" d="M40.054,31.351c0,1.037,1.5,1.037,1.5,0C41.554,30.388,40.054,30.388,40.054,31.351z"/>
<path fill="#613F34" d="M17.868,31.871c0,4.949,7.16,4.949,7.16,0C25.028,27.277,17.868,27.277,17.868,31.871z"/>
<path fill="#7D5037" d="M18.577,33.454c0,2.838,5.742,2.838,5.742,0C24.319,30.82,18.577,30.82,18.577,33.454z"/>
<path fill="#1A1626" d="M19.961,31.949c0,2.054,2.973,2.054,2.973,0C22.934,30.042,19.961,30.042,19.961,31.949z"/>
<path fill="#AB968C" d="M18.948,31.349c0,1.038,1.5,1.038,1.5,0C20.448,30.386,18.948,30.386,18.948,31.349z"/>
<path fill="#423225" d="M49.261,32.431c0-6.056-12.523-6.056-12.523,0.959C38.526,27.635,47.474,27.635,49.261,32.431z"/>
<path fill="#423225" d="M14.737,32.431c0-6.056,12.525-6.056,12.525,0.957C25.475,27.631,16.526,27.631,14.737,32.431z"/>
</svg>
