<?xml version="1.0" encoding="utf-8"?>
<!-- Generator: Adobe Illustrator 19.0.0, SVG Export Plug-In . SVG Version: 6.00 Build 0)  -->
<svg version="1.1" id="Layer_1" xmlns="http://www.w3.org/2000/svg" xmlns:xlink="http://www.w3.org/1999/xlink" x="0px" y="0px"
	 width="64px" height="64px" viewBox="0 0 64 64" enable-background="new 0 0 64 64" xml:space="preserve">
<path fill="#E6EBEF" d="M6.787,52.143c2.701-1.451,13.908-5.292,13.908-5.292h16.695c0,0,11.197,3.831,13.881,5.289
	C55.178,54.256,56,62,56,62H2C2,62,2.871,54.249,6.787,52.143z"/>
<path fill="#755035" d="M37.5,48.258c0-1.141,0-6.204,0-6.204h-17c0,0,0,4.986,0,6.204C20.5,53.278,37.5,53.278,37.5,48.258z"/>
<path fill="#BEC3CF" d="M8.457,62c0.572-1.952-0.102-4.92-0.818-6.555C6.969,53.923,7.223,60.927,8.457,62z"/>
<path fill="#006DAE" d="M46.451,57.528c0.1-2.172,0.111-3.394-0.754-7.67c-0.209-0.348-4.879-2.133-5.479-1.991
	c0.781,4.671,0.83,6.587,0.773,9.216c-6.484-0.155-17.502-0.155-23.986,0.002c-0.057-2.631-0.008-4.547,0.771-9.218
	c-0.6-0.142-5.269,1.644-5.478,1.991c-0.861,4.276-0.854,5.498-0.752,7.67C10.67,58.035,10.1,62,10.1,62H47.9
	C47.9,62,47.33,58.035,46.451,57.528z"/>
<path fill="#755035" d="M11.9,24.236c-5.719-1.031-1.252,14.957,3.225,10.547C17.197,32.739,14.574,24.72,11.9,24.236z"/>
<path fill="#755035" d="M46.1,24.236c-2.674,0.483-5.299,8.503-3.223,10.547C47.354,39.193,51.814,23.205,46.1,24.236z"/>
<path fill="#916B50" d="M29,5.488c-11.824,0-17.521,8.945-16.807,21.384c0.143,2.503,1.693,10.665,3.158,13.593
	c1.498,2.995,6.512,7.614,9.584,8.57c1.94,0.604,6.188,0.604,8.127,0c3.072-0.956,8.086-5.575,9.586-8.57
	c1.465-2.928,3.016-11.09,3.158-13.593C46.521,14.434,40.824,5.488,29,5.488z"/>
<path fill="#664129" d="M29,39.35c-2.66-0.782-6.6,0.37-6.6,0.37c1.5,1.635,2.6,3.756,6.6,3.756c4.582,0,5.359-2.407,6.6-3.756
	C35.6,39.72,31.656,38.563,29,39.35z"/>
<path fill="#FFFFFF" d="M23.406,39.996c2.787,2.34,8.418,2.354,11.221,0C31.656,40.124,26.398,40.125,23.406,39.996z"/>
<path fill="#755035" d="M32.666,34.952c0,2.386-7.332,2.386-7.332,0C25.334,34.404,32.666,34.404,32.666,34.952z"/>
<path fill="#4A2E24" d="M44.576,22.075c1.146,3.818,0.414,5.426,0.785,8.163c0.729-2.707,1.178-5.086,1.391-8.163H44.576z"/>
<path fill="#4A2E24" d="M13.428,22.075h-2.219c0.309,3.453,0.787,5.921,1.434,8.163C13.012,27.499,12.178,26.357,13.428,22.075z"/>
<path fill="#FFFFFF" d="M41.658,27.834c-1.58,4.136-8.008,3.529-9.186,0.635C33.367,23.819,40.791,23.422,41.658,27.834z"/>
<path fill="#FFFFFF" d="M16.34,27.834c1.58,4.136,8.01,3.529,9.186,0.635C24.631,23.817,17.209,23.42,16.34,27.834z"/>
<path fill="#664129" d="M42.314,22.855c-2.705-1.342-7.879-1.407-9.807-0.472c-0.412,0.182-0.141,1.454,0.207,1.332
	c2.688-0.995,7.02-1.018,9.535,0.086C42.584,23.943,42.725,23.044,42.314,22.855z"/>
<path fill="#664129" d="M15.686,22.855c2.703-1.342,7.877-1.407,9.807-0.472c0.412,0.182,0.141,1.454-0.207,1.332
	c-2.691-0.995-7.02-1.018-9.537,0.086C15.414,23.943,15.275,23.044,15.686,22.855z"/>
<path fill="#613F34" d="M34.113,27.394c0,3.629,5.25,3.629,5.25,0C39.363,24.024,34.113,24.024,34.113,27.394z"/>
<path fill="#7D5037" d="M34.633,28.555c0,2.081,4.211,2.081,4.211,0C38.844,26.623,34.633,26.623,34.633,28.555z"/>
<path fill="#1A1626" d="M35.648,27.45c0,1.507,2.18,1.507,2.18,0C37.828,26.053,35.648,26.053,35.648,27.45z"/>
<path fill="#AB968C" d="M34.904,27.011c0,0.761,1.101,0.761,1.101,0C36.006,26.305,34.904,26.305,34.904,27.011z"/>
<path fill="#613F34" d="M18.637,27.393c0,3.63,5.25,3.63,5.25,0C23.887,24.024,18.637,24.024,18.637,27.393z"/>
<path fill="#7D5037" d="M19.156,28.554c0,2.081,4.211,2.081,4.211,0C23.367,26.622,19.156,26.622,19.156,28.554z"/>
<path fill="#1A1626" d="M20.172,27.45c0,1.506,2.18,1.506,2.18,0C22.351,26.052,20.172,26.052,20.172,27.45z"/>
<path fill="#AB968C" d="M19.428,27.01c0,0.761,1.1,0.761,1.1,0C20.527,26.304,19.428,26.304,19.428,27.01z"/>
<path fill="#755035" d="M41.658,27.803c0-4.44-9.186-4.44-9.186,0.703C33.785,24.286,40.346,24.286,41.658,27.803z"/>
<path fill="#755035" d="M16.34,27.803c0-4.44,9.186-4.44,9.186,0.702C24.215,24.283,17.652,24.283,16.34,27.803z"/>
<path opacity="0.2" d="M46.225,24.881c-11.19-3.785-23.242-3.785-34.432,0c-0.471-1.499-0.938-2.998-1.404-4.497
	c12.102-4.095,25.135-4.095,37.238,0C47.16,21.883,46.691,23.382,46.225,24.881z"/>
<path fill="#99A8AE" d="M46.035,23.936c-11.189-3.785-23.244-3.785-34.432,0c-0.469-1.5-0.936-2.998-1.402-4.498
	c12.098-4.094,25.135-4.094,37.236,0C46.971,20.938,46.502,22.436,46.035,23.936z"/>
<polygon fill="#6E8189" points="5.625,21.188 5.625,27.234 9.545,28.418 9.545,20.006 "/>
<polygon fill="#6E8189" points="52.375,21.188 52.375,27.234 48.455,28.418 48.455,20.006 "/>
<path fill="#302C3B" d="M49.354,32c0-19.371-2.92-29.361-20.352-29.361C11.568,2.639,8.65,12.629,8.65,32
	c0,0,2.918-17.497,20.351-17.497C46.434,14.503,49.354,32,49.354,32z"/>
<path fill="#6E8189" d="M29,7.734c6.346,0,10.916,1.196,14.199,3.55l-2.016-6.638c-12.182-2.647-24.365,0-24.365,0l-2.016,6.637
	C18.084,8.931,22.656,7.734,29,7.734z"/>
<polygon fill="#4E5E67" points="41.184,4.647 39.453,2 18.563,2 16.834,4.646 "/>
<polygon fill="#302C3B" points="39.877,4.647 39.012,3.323 19.002,3.323 18.139,4.647 "/>
<path fill="#4E5E67" d="M49.354,32c0-12.832-10.758-17.559-20.352-17.559C19.41,14.441,8.65,19.168,8.65,32
	c0,0,2.918-15.375,20.351-15.375C46.434,16.625,49.354,32,49.354,32z"/>
<path fill="#99A8AE" d="M42.307,57.352l-1.875-0.49l2.535-9.092c0.418-1.517,1.299-4.672,5.639-5.868l0.533,1.813
	c-3.287,0.902-3.895,3.094-4.301,4.543L42.307,57.352z"/>
<path fill="#F9B700" d="M62,38.332c0,0-3.223-1.223-9.705,1.023c-3.141,1.096-1.564,5.348,1.578,4.258
	C60.104,41.449,62,38.332,62,38.332z"/>
<path fill="#FFE12C" d="M52.939,42.735c-2.381,0.836-3.172-1.303-0.787-2.126c2.783-0.97,7.879-1.595,7.879-1.595
	S55.725,41.768,52.939,42.735"/>
<polygon fill="#6E8189" points="49.033,44.642 47.951,41.023 50.084,41.404 50.629,43.21 "/>
<polygon fill="#302C3B" points="42.021,62 43.537,56.545 39.787,55.563 38,62 "/>
</svg>
