<?xml version="1.0" encoding="utf-8"?>
<!-- Generator: Adobe Illustrator 15.0.0, SVG Export Plug-In . SVG Version: 6.00 Build 0)  -->
<!DOCTYPE svg PUBLIC "-//W3C//DTD SVG 1.1//EN" "http://www.w3.org/Graphics/SVG/1.1/DTD/svg11.dtd" [
	<!ENTITY ns_flows "http://ns.adobe.com/Flows/1.0/">
	<!ENTITY ns_extend "http://ns.adobe.com/Extensibility/1.0/">
	<!ENTITY ns_ai "http://ns.adobe.com/AdobeIllustrator/10.0/">
	<!ENTITY ns_graphs "http://ns.adobe.com/Graphs/1.0/">
]>
<svg version="1.1" id="Layer_1" xmlns:x="&ns_extend;" xmlns:i="&ns_ai;" xmlns:graph="&ns_graphs;"
	 xmlns="http://www.w3.org/2000/svg" xmlns:xlink="http://www.w3.org/1999/xlink" xmlns:a="http://ns.adobe.com/AdobeSVGViewerExtensions/3.0/"
	 x="0px" y="0px" width="64px" height="64px" viewBox="0 0 64 64" enable-background="new 0 0 64 64" xml:space="preserve">
<path fill="#3B2C29" d="M23.921,9.117c-5.443,23.344-4.943,22.848,6.52,22.848C24.099,27.529,36.247,8.801,23.921,9.117z"/>
<path fill="#453631" d="M21.96,8.756c-3.975,17.736-0.547,22.291,2.498,23.209h3.49C19.782,26.217,32.544,8.408,21.96,8.756z"/>
<path fill="#3B2C29" d="M39.942,9.115c5.447,23.346,4.947,22.846-6.514,22.846C39.261,28.404,27.618,8.799,39.942,9.115z"/>
<path fill="#453631" d="M41.909,8.756c5.807,16.135-0.014,22.457-2.5,23.205h-3.49C44.083,26.686,31.323,8.406,41.909,8.756z"/>
<path fill="#594640" d="M42.874,17.428c1.684,4.102,0.018,12.52-3.465,14.537c3.859,0,6.211-5.34,7.357-12.682
	C48.198,10.109,39.876,10.105,42.874,17.428z"/>
<path fill="#594640" d="M17.53,20.986c1.406,6.623,3.137,10.979,6.928,10.979c-4.223-4.371-3.727-13.586-2.527-15.879
	C28.052,12.447,15.153,9.779,17.53,20.986z"/>
<path fill="#8E3ED6" d="M20.522,32.738c7.697-5.117,15.262-5.117,22.957,0c2.443,1.623,2.947,7.74,3.256,13.037h-4.34V62H21.606
	V45.775h-4.338C17.575,40.479,18.081,34.361,20.522,32.738z"/>
<polygon fill="#732EB0" points="41.612,46.074 43.019,46.074 41.612,38.477 "/>
<path fill="#FFCC66" d="M41.612,62h4.023l1.1-16.225c0,0-2.563-0.658-5.123,0V62z"/>
<polygon fill="#732EB0" points="22.392,46.074 20.983,46.074 22.392,38.477 "/>
<path fill="#FFCC66" d="M22.392,62h-4.025l-1.098-16.225c0,0,2.561-0.658,5.123,0V62z"/>
<path fill="#E6B045" d="M27.792,29.674c0-0.723,0-3.932,0-3.932h8.418c0,0,0,3.16,0,3.932C36.21,33.904,27.792,33.904,27.792,29.674
	z"/>
<path fill="#FFCC66" d="M31.999,3.506c-7.256,0-10.75,5.902-10.313,13.492c0.09,1.525,0.516,3.725,1.037,5.611
	c1.09,3.918,6.832,7.865,9.275,7.865c2.447,0,8.188-3.947,9.279-7.865c0.523-1.887,0.945-4.086,1.039-5.611
	C42.751,9.408,39.257,3.506,31.999,3.506z"/>
<path fill="#D47706" d="M32.001,24.213c-1.764-0.773-1.775-0.029-4.5,0.154c1.023,1.158,1.775,2.648,4.498,2.648
	c3.129,0,3.656-1.693,4.502-2.648C33.778,24.184,33.767,23.439,32.001,24.213z"/>
<path fill="#FFFFFF" d="M28.321,24.654c1.775,1.848,5.607,1.824,7.361,0C32.948,24.949,31.054,24.949,28.321,24.654z"/>
<path fill="#594640" d="M39.995,14.24c-1.635-0.973-4.566-1.092-5.725-0.428c-0.248,0.133-0.182,0.838,0.033,0.748
	c1.652-0.688,4.174-0.723,5.729,0.074C40.241,14.74,40.245,14.383,39.995,14.24z"/>
<path fill="#594640" d="M24.005,14.24c1.633-0.973,4.568-1.092,5.729-0.428c0.248,0.133,0.182,0.838-0.033,0.748
	c-1.654-0.688-4.176-0.723-5.73,0.074C23.763,14.74,23.759,14.383,24.005,14.24z"/>
<path fill="#E6B045" d="M34.251,21.566c0,1.461-4.502,1.461-4.502,0C29.749,21.23,34.251,21.23,34.251,21.566z"/>
<path fill="#FFFFFF" d="M39.839,17.205c-0.971,2.533-4.912,2.162-5.635,0.389C34.751,14.742,39.308,14.498,39.839,17.205z"/>
<path fill="#613F34" d="M35.194,16.93c0,2.244,3.248,2.244,3.248,0C38.442,14.844,35.194,14.844,35.194,16.93z"/>
<path fill="#7D5037" d="M35.513,17.648c0,1.283,2.609,1.283,2.609,0C38.122,16.451,35.513,16.451,35.513,17.648z"/>
<path fill="#1A1626" d="M36.142,16.963c0,0.934,1.35,0.934,1.35,0C37.491,16.098,36.142,16.098,36.142,16.963z"/>
<path fill="#AB968C" d="M35.681,16.691c0,0.471,0.684,0.471,0.684,0C36.364,16.256,35.681,16.256,35.681,16.691z"/>
<path fill="#45332C" d="M39.839,17.186c0-2.723-5.635-2.723-5.635,0.432C35.009,15.029,39.036,15.029,39.839,17.186z"/>
<path fill="#FFFFFF" d="M24.163,17.205c0.969,2.533,4.912,2.164,5.637,0.389C29.255,14.742,24.696,14.498,24.163,17.205z"/>
<path fill="#613F34" d="M25.562,16.932c0,2.246,3.248,2.246,3.248,0C28.81,14.85,25.562,14.85,25.562,16.932z"/>
<path fill="#7D5037" d="M25.882,17.65c0,1.285,2.607,1.285,2.607,0C28.489,16.457,25.882,16.457,25.882,17.65z"/>
<path fill="#1A1626" d="M26.511,16.967c0,0.932,1.35,0.932,1.35,0C27.86,16.102,26.511,16.102,26.511,16.967z"/>
<path fill="#AB968C" d="M26.048,16.695c0,0.471,0.682,0.471,0.682,0C26.729,16.26,26.048,16.26,26.048,16.695z"/>
<path fill="#45332C" d="M24.163,17.186c0-2.723,5.637-2.723,5.637,0.43C28.995,15.027,24.968,15.027,24.163,17.186z"/>
<path fill="#594640" d="M40.108,4.563c-5.088,5.207-0.232,5.543,2.766,12.865c1.684,4.102,2.746,9.197,3.893,1.855
	C48.198,10.109,42.692,3.795,40.108,4.563z"/>
<path fill="#594640" d="M27.618,2.568C21.167,4.084,15.153,9.779,17.53,20.986c1.406,6.623,3.201-2.607,4.4-4.9
	c6.121-3.639,16.586-6.393,18.178-11.523C40.915,3.379,34.075,0.879,27.618,2.568z"/>
<path fill="#453631" d="M22.679,10.732c2.727-0.553,15.779-0.814,17.43-6.17C37.024,7.018,33.829,7.688,22.679,10.732z"/>
<path fill="#453631" d="M17.972,19.252c4.576-6.104,19.572-5.43,22.137-14.689C35.13,12.334,19.222,13.387,17.972,19.252z"/>
<path fill="#453631" d="M38.599,5.832c-1.182,1.859,2.924-0.873,7.35,11.104C44.856,9.934,41.12,5.113,38.599,5.832z"/>
<path fill="#E32B56" d="M29.137,54.67c-0.982-0.688-5.299-2.494-5.299-2.494h-4.797c0,0-4.318,1.811-5.307,2.494
	C12.078,55.814,11.527,62,11.527,62H31.32C31.32,62,30.773,55.811,29.137,54.67z"/>
<path fill="#E6B045" d="M24.348,52.84c0-0.539,0-2.926,0-2.926h-5.85c0,0,0,2.352,0,2.926C18.498,55.205,24.348,55.205,24.348,52.84
	z"/>
<path fill="#594640" d="M13.918,43.938c-7.076,4.172-0.855,7.969-2.869,9.768C14.963,56.131,24.543,51.951,13.918,43.938z"/>
<path fill="#453631" d="M11.805,45.521c1.736,6.66,5.311,6.891,5.012,8.096C20.139,51.877,20.17,46.264,11.805,45.521z"/>
<path fill="#594640" d="M28.93,43.938c7.076,4.172,0.855,7.969,2.871,9.768C27.889,56.131,18.307,51.951,28.93,43.938z"/>
<path fill="#453631" d="M31.043,45.521c-1.734,6.66-5.311,6.891-5.01,8.096C22.711,51.877,22.678,46.264,31.043,45.521z"/>
<path fill="#594640" d="M11.746,43.77h19.348C33.91,28.646,8.93,28.646,11.746,43.77z"/>
<path fill="#453631" d="M11.721,43.582c0,0,11.016,4.105,18.652-0.65c-1.543,0.291-4.051-5.605-15.775-6.047
	C14.168,43.582,12.107,41.764,11.721,43.582z"/>
<path fill="#CFD8DD" d="M30.186,42.689c0.822-11.314-18.359-11.314-17.535,0C13.365,33.188,29.469,33.188,30.186,42.689z"/>
<path fill="#FFFFFF" d="M30.186,42.324c0.822-11.314-18.359-11.314-17.535,0C13.365,32.822,29.469,32.822,30.186,42.324z"/>
<path fill="#E6B045" d="M12.854,42.768c-3.336-0.506-1.162,7.363,1.451,5.193C15.518,46.953,14.418,43.006,12.854,42.768z"/>
<path fill="#E6B045" d="M29.982,42.768c-1.561,0.238-2.66,4.186-1.451,5.193C31.146,50.129,33.318,42.262,29.982,42.768z"/>
<path fill="#FFCC66" d="M29.873,42.785c-3.195-0.91-7.289-5.256-15.07-4.729c0.137,1.707-0.313,3.645-1.814,4.734
	c0,0-0.006,1.535,0.543,4.346c0.895,4.602,4.617,6.406,7.887,6.406c3.273,0,6.994-1.805,7.891-6.406
	C29.855,44.324,29.873,42.785,29.873,42.785z"/>
<path fill="#FFFFFF" d="M27.668,44.295c-0.777,2.035-3.943,1.738-4.525,0.313C23.584,42.318,27.24,42.123,27.668,44.295z"/>
<path fill="#613F34" d="M23.951,44.078c0,1.787,2.586,1.787,2.586,0C26.537,42.42,23.951,42.42,23.951,44.078z"/>
<path fill="#7D5037" d="M24.207,44.648c0,1.025,2.074,1.025,2.074,0C26.281,43.699,24.207,43.699,24.207,44.648z"/>
<path fill="#1A1626" d="M24.705,44.105c0,0.742,1.076,0.742,1.076,0C25.781,43.418,24.705,43.418,24.705,44.105z"/>
<path fill="#AB968C" d="M24.342,43.889c0,0.377,0.541,0.377,0.541,0C24.883,43.541,24.342,43.541,24.342,43.889z"/>
<path fill="#E6B045" d="M27.668,44.279c0-2.186-4.525-2.186-4.525,0.346C23.789,42.549,27.021,42.549,27.668,44.279z"/>
<path fill="#FFFFFF" d="M15.195,44.295c0.775,2.035,3.943,1.738,4.525,0.313C19.281,42.316,15.625,42.121,15.195,44.295z"/>
<path fill="#613F34" d="M16.328,44.078c0,1.785,2.586,1.785,2.586,0C18.914,42.42,16.328,42.42,16.328,44.078z"/>
<path fill="#7D5037" d="M16.584,44.648c0,1.023,2.072,1.023,2.072,0C18.656,43.699,16.584,43.699,16.584,44.648z"/>
<path fill="#1A1626" d="M17.082,44.105c0,0.74,1.074,0.74,1.074,0C18.156,43.418,17.082,43.418,17.082,44.105z"/>
<path fill="#AB968C" d="M16.717,43.889c0,0.375,0.543,0.375,0.543,0C17.26,43.541,16.717,43.541,16.717,43.889z"/>
<path fill="#E6B045" d="M15.195,44.279c0-2.186,4.525-2.186,4.525,0.346C19.076,42.547,15.84,42.547,15.195,44.279z"/>
<path fill="#C1873C" d="M28.086,42.064c-1.35-0.672-3.938-0.703-4.9-0.236c-0.207,0.09-0.07,0.725,0.105,0.666
	c1.34-0.498,3.504-0.51,4.764,0.043C28.221,42.607,28.291,42.156,28.086,42.064z"/>
<path fill="#C1873C" d="M14.775,42.064c1.354-0.672,3.939-0.703,4.904-0.236c0.207,0.09,0.068,0.725-0.104,0.666
	c-1.344-0.498-3.51-0.51-4.768,0.043C14.641,42.607,14.572,42.156,14.775,42.064z"/>
<path fill="#E6A400" d="M21.432,49.73c-1.328-0.391-3.299,0.184-3.299,0.184c0.75,0.814,1.303,1.875,3.299,1.875
	c2.289,0,2.682-1.201,3.299-1.875C24.73,49.914,22.758,49.338,21.432,49.73z"/>
<path fill="#FFFFFF" d="M18.635,50.053c1.395,1.168,4.211,1.174,5.611,0C22.758,50.115,20.133,50.115,18.635,50.053z"/>
<path fill="#E6B045" d="M23.266,47.98c0,1.189-3.666,1.189-3.666,0C19.6,47.707,23.266,47.707,23.266,47.98z"/>
<path fill="#E32B56" d="M50.289,54.67c-0.982-0.688-5.299-2.494-5.299-2.494h-4.797c0,0-4.318,1.811-5.307,2.494
	C33.23,55.814,32.68,62,32.68,62h19.793C52.473,62,51.926,55.811,50.289,54.67z"/>
<path fill="#E6B045" d="M45.5,52.84c0-0.539,0-2.926,0-2.926h-5.85c0,0,0,2.352,0,2.926C39.65,55.205,45.5,55.205,45.5,52.84z"/>
<path fill="#594640" d="M35.07,43.938c-7.076,4.172-0.855,7.969-2.869,9.768C36.115,56.131,45.695,51.951,35.07,43.938z"/>
<path fill="#453631" d="M32.957,45.521c1.736,6.66,5.311,6.891,5.012,8.096C41.291,51.877,41.322,46.264,32.957,45.521z"/>
<path fill="#594640" d="M50.082,43.938c7.076,4.172,0.855,7.969,2.871,9.768C49.041,56.131,39.459,51.951,50.082,43.938z"/>
<path fill="#453631" d="M52.195,45.521c-1.734,6.66-5.311,6.891-5.01,8.096C43.863,51.877,43.83,46.264,52.195,45.521z"/>
<path fill="#594640" d="M32.898,43.77h19.348C55.063,28.646,30.082,28.646,32.898,43.77z"/>
<path fill="#453631" d="M32.873,43.582c0,0,11.016,4.105,18.652-0.65c-1.543,0.291-4.051-5.605-15.775-6.047
	C35.32,43.582,33.26,41.764,32.873,43.582z"/>
<path fill="#CFD8DD" d="M51.338,42.689c0.822-11.314-18.359-11.314-17.535,0C34.518,33.188,50.621,33.188,51.338,42.689z"/>
<path fill="#FFFFFF" d="M51.338,42.324c0.822-11.314-18.359-11.314-17.535,0C34.518,32.822,50.621,32.822,51.338,42.324z"/>
<path fill="#E6B045" d="M34.006,42.768c-3.336-0.506-1.162,7.363,1.451,5.193C36.67,46.953,35.57,43.006,34.006,42.768z"/>
<path fill="#E6B045" d="M51.135,42.768c-1.561,0.238-2.66,4.186-1.451,5.193C52.299,50.129,54.471,42.262,51.135,42.768z"/>
<path fill="#FFCC66" d="M51.025,42.785c-3.195-0.91-7.289-5.256-15.07-4.729c0.137,1.707-0.313,3.645-1.814,4.734
	c0,0-0.006,1.535,0.543,4.346c0.895,4.602,4.617,6.406,7.887,6.406c3.273,0,6.994-1.805,7.891-6.406
	C51.008,44.324,51.025,42.785,51.025,42.785z"/>
<path fill="#FFFFFF" d="M48.82,44.295c-0.777,2.035-3.943,1.738-4.525,0.313C44.736,42.318,48.393,42.123,48.82,44.295z"/>
<path fill="#613F34" d="M45.104,44.078c0,1.787,2.586,1.787,2.586,0C47.689,42.42,45.104,42.42,45.104,44.078z"/>
<path fill="#7D5037" d="M45.359,44.648c0,1.025,2.074,1.025,2.074,0C47.434,43.699,45.359,43.699,45.359,44.648z"/>
<path fill="#1A1626" d="M45.857,44.105c0,0.742,1.076,0.742,1.076,0C46.934,43.418,45.857,43.418,45.857,44.105z"/>
<path fill="#AB968C" d="M45.494,43.889c0,0.377,0.541,0.377,0.541,0C46.035,43.541,45.494,43.541,45.494,43.889z"/>
<path fill="#E6B045" d="M48.82,44.279c0-2.186-4.525-2.186-4.525,0.346C44.941,42.549,48.174,42.549,48.82,44.279z"/>
<path fill="#FFFFFF" d="M36.348,44.295c0.775,2.035,3.943,1.738,4.525,0.313C40.434,42.316,36.777,42.121,36.348,44.295z"/>
<path fill="#613F34" d="M37.48,44.078c0,1.785,2.586,1.785,2.586,0C40.066,42.42,37.48,42.42,37.48,44.078z"/>
<path fill="#7D5037" d="M37.736,44.648c0,1.023,2.072,1.023,2.072,0C39.809,43.699,37.736,43.699,37.736,44.648z"/>
<path fill="#1A1626" d="M38.234,44.105c0,0.74,1.074,0.74,1.074,0C39.309,43.418,38.234,43.418,38.234,44.105z"/>
<path fill="#AB968C" d="M37.869,43.889c0,0.375,0.543,0.375,0.543,0C38.412,43.541,37.869,43.541,37.869,43.889z"/>
<path fill="#E6B045" d="M36.348,44.279c0-2.186,4.525-2.186,4.525,0.346C40.229,42.547,36.992,42.547,36.348,44.279z"/>
<path fill="#C1873C" d="M49.238,42.064c-1.35-0.672-3.938-0.703-4.9-0.236c-0.207,0.09-0.07,0.725,0.105,0.666
	c1.34-0.498,3.504-0.51,4.764,0.043C49.373,42.607,49.443,42.156,49.238,42.064z"/>
<path fill="#C1873C" d="M35.928,42.064c1.354-0.672,3.939-0.703,4.904-0.236c0.207,0.09,0.068,0.725-0.104,0.666
	c-1.344-0.498-3.51-0.51-4.768,0.043C35.793,42.607,35.725,42.156,35.928,42.064z"/>
<path fill="#E6A400" d="M42.584,49.73c-1.328-0.391-3.299,0.184-3.299,0.184c0.75,0.814,1.303,1.875,3.299,1.875
	c2.289,0,2.682-1.201,3.299-1.875C45.883,49.914,43.91,49.338,42.584,49.73z"/>
<path fill="#FFFFFF" d="M39.787,50.053c1.395,1.168,4.211,1.174,5.611,0C43.91,50.115,41.285,50.115,39.787,50.053z"/>
<path fill="#E6B045" d="M44.418,47.98c0,1.189-3.666,1.189-3.666,0C40.752,47.707,44.418,47.707,44.418,47.98z"/>
<path fill="#FFCC66" d="M47.083,52.504c-1.615,0.012-4.027,2.17-2.334,2.125c-0.234,0.539-0.047,1.049,1.061,0.383
	c-0.342,0.563,0.521,0.709,1.092,0.393c0.127,1.164,2.137-0.061,2.889,0.119c1.076,0.258,1.361,0.506,1.561,0.297
	C52.802,54.301,49.759,52.477,47.083,52.504z"/>
<path fill="#FFCC66" d="M16.917,52.504c-2.676-0.027-5.719,1.797-4.268,3.316c0.199,0.209,0.484-0.039,1.561-0.297
	c0.752-0.18,2.762,1.045,2.889-0.119c0.57,0.316,1.434,0.17,1.092-0.393c1.107,0.666,1.295,0.156,1.061-0.383
	C20.944,54.674,18.532,52.516,16.917,52.504z"/>
</svg>
