<?xml version="1.0" encoding="utf-8"?>
<!-- Generator: Adobe Illustrator 15.0.0, SVG Export Plug-In . SVG Version: 6.00 Build 0)  -->
<!DOCTYPE svg PUBLIC "-//W3C//DTD SVG 1.1//EN" "http://www.w3.org/Graphics/SVG/1.1/DTD/svg11.dtd" [
	<!ENTITY ns_flows "http://ns.adobe.com/Flows/1.0/">
	<!ENTITY ns_extend "http://ns.adobe.com/Extensibility/1.0/">
	<!ENTITY ns_ai "http://ns.adobe.com/AdobeIllustrator/10.0/">
	<!ENTITY ns_graphs "http://ns.adobe.com/Graphs/1.0/">
]>
<svg version="1.1" id="Layer_1" xmlns:x="&ns_extend;" xmlns:i="&ns_ai;" xmlns:graph="&ns_graphs;"
	 xmlns="http://www.w3.org/2000/svg" xmlns:xlink="http://www.w3.org/1999/xlink" xmlns:a="http://ns.adobe.com/AdobeSVGViewerExtensions/3.0/"
	 x="0px" y="0px" width="64px" height="64px" viewBox="0 0 64 64" enable-background="new 0 0 64 64" xml:space="preserve">
<path fill="#3B2C29" d="M23.92,9.117c-5.444,23.344-4.943,22.848,6.519,22.848C24.097,27.529,36.245,8.801,23.92,9.117z"/>
<path fill="#453631" d="M21.958,8.756c-3.975,17.736-0.546,22.291,2.498,23.209h3.49C19.782,26.217,32.542,8.408,21.958,8.756z"/>
<path fill="#3B2C29" d="M39.941,9.115c5.447,23.346,4.947,22.846-6.514,22.846C39.259,28.404,27.618,8.799,39.941,9.115z"/>
<path fill="#453631" d="M41.908,8.756c5.806,16.135-0.015,22.457-2.5,23.205h-3.49C44.081,26.686,31.323,8.406,41.908,8.756z"/>
<path fill="#594640" d="M42.873,17.428c1.683,4.102,0.018,12.52-3.465,14.537c3.859,0,6.21-5.34,7.357-12.682
	C48.196,10.109,39.874,10.105,42.873,17.428z"/>
<path fill="#594640" d="M17.53,20.986c1.406,6.623,3.136,10.979,6.927,10.979c-4.223-4.371-3.727-13.586-2.527-15.879
	C28.05,12.447,15.153,9.779,17.53,20.986z"/>
<path fill="#8E3ED6" d="M20.522,32.738c7.696-5.117,15.26-5.117,22.957,0c2.442,1.623,2.947,7.74,3.255,13.037L42.395,62H21.606
	l-4.339-16.225C17.575,40.479,18.08,34.361,20.522,32.738z"/>
<path fill="#E6B045" d="M27.792,29.674c0-0.723,0-3.932,0-3.932h8.417c0,0,0,3.16,0,3.932
	C36.209,33.904,27.792,33.904,27.792,29.674z"/>
<path fill="#FFCC66" d="M31.999,3.506c-7.256,0-10.751,5.902-10.313,13.492c0.09,1.525,0.516,3.725,1.037,5.611
	c1.091,3.918,6.833,7.865,9.276,7.865c2.446,0,8.187-3.947,9.278-7.865c0.523-1.887,0.946-4.086,1.039-5.611
	C42.75,9.408,39.255,3.506,31.999,3.506z"/>
<path fill="#D47706" d="M32,24.213c-1.765-0.773-1.776-0.029-4.501,0.154c1.023,1.158,1.775,2.648,4.499,2.648
	c3.127,0,3.655-1.693,4.501-2.648C33.776,24.184,33.765,23.439,32,24.213z"/>
<path fill="#FFFFFF" d="M28.32,24.654c1.776,1.848,5.608,1.824,7.361,0C32.948,24.949,31.053,24.949,28.32,24.654z"/>
<path fill="#594640" d="M39.994,14.24c-1.635-0.973-4.567-1.092-5.726-0.428c-0.248,0.133-0.181,0.838,0.033,0.748
	c1.653-0.688,4.175-0.723,5.729,0.074C40.239,14.74,40.243,14.383,39.994,14.24z"/>
<path fill="#594640" d="M24.003,14.24c1.633-0.973,4.568-1.092,5.729-0.428c0.248,0.133,0.181,0.838-0.034,0.748
	c-1.654-0.688-4.175-0.723-5.729,0.074C23.761,14.74,23.758,14.383,24.003,14.24z"/>
<path fill="#E6B045" d="M34.25,21.566c0,1.461-4.501,1.461-4.501,0C29.749,21.23,34.25,21.23,34.25,21.566z"/>
<path fill="#FFFFFF" d="M39.838,17.205c-0.971,2.533-4.913,2.162-5.636,0.389C34.749,14.742,39.306,14.498,39.838,17.205z"/>
<path fill="#613F34" d="M35.192,16.93c0,2.244,3.248,2.244,3.248,0C38.44,14.844,35.192,14.844,35.192,16.93z"/>
<path fill="#7D5037" d="M35.512,17.648c0,1.283,2.608,1.283,2.608,0C38.12,16.451,35.512,16.451,35.512,17.648z"/>
<path fill="#1A1626" d="M36.141,16.963c0,0.934,1.35,0.934,1.35,0C37.49,16.098,36.141,16.098,36.141,16.963z"/>
<path fill="#AB968C" d="M35.679,16.691c0,0.471,0.684,0.471,0.684,0C36.362,16.256,35.679,16.256,35.679,16.691z"/>
<path fill="#45332C" d="M39.838,17.186c0-2.723-5.636-2.723-5.636,0.432C35.007,15.029,39.034,15.029,39.838,17.186z"/>
<path fill="#FFFFFF" d="M24.163,17.205c0.969,2.533,4.912,2.164,5.636,0.389C29.253,14.742,24.695,14.498,24.163,17.205z"/>
<path fill="#613F34" d="M25.56,16.932c0,2.246,3.248,2.246,3.248,0C28.808,14.85,25.56,14.85,25.56,16.932z"/>
<path fill="#7D5037" d="M25.88,17.65c0,1.285,2.607,1.285,2.607,0C28.488,16.457,25.88,16.457,25.88,17.65z"/>
<path fill="#1A1626" d="M26.509,16.967c0,0.932,1.35,0.932,1.35,0C27.859,16.102,26.509,16.102,26.509,16.967z"/>
<path fill="#AB968C" d="M26.047,16.695c0,0.471,0.682,0.471,0.682,0C26.729,16.26,26.047,16.26,26.047,16.695z"/>
<path fill="#45332C" d="M24.163,17.186c0-2.723,5.636-2.723,5.636,0.43C28.994,15.027,24.966,15.027,24.163,17.186z"/>
<path fill="#594640" d="M40.107,4.563c-5.089,5.207-0.233,5.543,2.766,12.865c1.683,4.102,2.745,9.197,3.893,1.855
	C48.196,10.109,42.691,3.795,40.107,4.563z"/>
<path fill="#594640" d="M27.618,2.568C21.167,4.084,15.153,9.779,17.53,20.986c1.406,6.623,3.2-2.607,4.399-4.9
	c6.121-3.639,16.586-6.393,18.178-11.523C40.914,3.379,34.073,0.879,27.618,2.568z"/>
<path fill="#453631" d="M22.677,10.732c2.728-0.553,15.779-0.814,17.43-6.17C37.022,7.018,33.828,7.688,22.677,10.732z"/>
<path fill="#453631" d="M17.97,19.252c4.577-6.104,19.573-5.43,22.137-14.689C35.129,12.334,19.221,13.387,17.97,19.252z"/>
<path fill="#453631" d="M38.598,5.832c-1.182,1.859,2.923-0.873,7.349,11.104C44.855,9.934,41.119,5.113,38.598,5.832z"/>
<path fill="#E6B045" d="M51.671,55.423c-0.563-3.247-4.918-6.438-6.238-4.148C43.081,55.356,51.993,57.286,51.671,55.423z"/>
<path fill="#E6B045" d="M12.328,55.423c0.563-3.247,4.918-6.438,6.238-4.148C20.917,55.356,12.005,57.286,12.328,55.423z"/>
<path fill="#4ABDFF" d="M50.288,55.188c-4.816-3.131-10.578-3.1-15.402,0.002C33.229,56.252,32.681,62,32.681,62h19.792
	C52.474,62,51.927,56.248,50.288,55.188z"/>
<path fill="#E6B045" d="M45.501,53.426c0-0.537,0-2.924,0-2.924h-5.85c0,0,0,2.35,0,2.924
	C39.651,55.793,45.501,55.793,45.501,53.426z"/>
<path fill="#594640" d="M42.575,31.984c-10.515,0-9.502,8.422-9.502,12.357h19.006C52.079,40.406,53.093,31.984,42.575,31.984z"/>
<path fill="#E6B045" d="M34.013,42.76c-3.339-0.51-1.162,7.4,1.451,5.219C36.671,46.969,35.573,42.998,34.013,42.76z"/>
<path fill="#E6B045" d="M51.14,42.76c-1.563,0.238-2.662,4.209-1.451,5.219C52.302,50.16,54.478,42.25,51.14,42.76z"/>
<path fill="#FFCC66" d="M51.03,42.592c0-5.613-3.32-4.363-8.455-4.363c-5.133,0-8.453-1.25-8.453,4.363c0,0,0.016,2.141,0.564,4.951
	c0.896,4.602,4.617,6.406,7.889,6.406s6.996-1.805,7.889-6.406C51.011,44.73,51.03,42.592,51.03,42.592z"/>
<path fill="#594640" d="M42.401,36.119c-1.535,2.734-7.289,4.447-9.268,4.268C34.927,38.58,35.72,33.922,42.401,36.119z"/>
<path fill="#453631" d="M33.134,40.387c2.52-0.656,5.791-1.996,9.268-4.268C40.866,38.854,35.813,41.014,33.134,40.387z"/>
<path fill="#594640" d="M50.163,35.973c-2.174,3.258-10.313,5.295-13.107,5.082C39.587,38.9,40.712,33.355,50.163,35.973z"/>
<path fill="#453631" d="M37.056,41.055c6.686-1.857,13.107-5.082,13.107-5.082C47.989,39.23,41.933,41.527,37.056,41.055z"/>
<path fill="#594640" d="M50.478,35.225c2.605,4.238-4.176,5.977-6.979,5.805C46.013,39.375,47.698,35.092,50.478,35.225z"/>
<path fill="#453631" d="M43.499,41.029c3.369-1.543,8.506-1.859,6.979-5.805C53.083,39.463,46.472,41.412,43.499,41.029z"/>
<path fill="#FFFFFF" d="M48.812,44.334c-0.777,2.035-3.943,1.738-4.523,0.314C44.728,42.359,48.386,42.164,48.812,44.334z"/>
<path fill="#613F34" d="M45.095,44.117c0,1.787,2.588,1.787,2.588,0C47.683,42.459,45.095,42.459,45.095,44.117z"/>
<path fill="#7D5037" d="M45.351,44.689c0,1.025,2.076,1.025,2.076,0C47.427,43.74,45.351,43.74,45.351,44.689z"/>
<path fill="#1A1626" d="M45.851,44.148c0,0.738,1.074,0.738,1.074,0C46.925,43.459,45.851,43.459,45.851,44.148z"/>
<path fill="#AB968C" d="M45.485,43.932c0,0.373,0.543,0.373,0.543,0C46.028,43.584,45.485,43.584,45.485,43.932z"/>
<path fill="#E6B045" d="M48.812,44.318c0-2.184-4.523-2.184-4.523,0.348C44.935,42.588,48.167,42.588,48.812,44.318z"/>
<path fill="#FFFFFF" d="M36.341,44.334c0.775,2.035,3.943,1.738,4.523,0.314C40.423,42.359,36.771,42.164,36.341,44.334z"/>
<path fill="#613F34" d="M37.472,44.117c0,1.787,2.586,1.787,2.586,0C40.058,42.459,37.472,42.459,37.472,44.117z"/>
<path fill="#7D5037" d="M37.728,44.688c0,1.027,2.074,1.027,2.074,0C39.802,43.74,37.728,43.74,37.728,44.688z"/>
<path fill="#1A1626" d="M38.228,44.146c0,0.74,1.074,0.74,1.074,0C39.302,43.457,38.228,43.457,38.228,44.146z"/>
<path fill="#AB968C" d="M37.86,43.93c0,0.375,0.541,0.375,0.541,0C38.401,43.582,37.86,43.582,37.86,43.93z"/>
<path fill="#E6B045" d="M36.341,44.318c0-2.184,4.523-2.184,4.523,0.346C40.218,42.588,36.985,42.588,36.341,44.318z"/>
<path fill="#C1873C" d="M49.229,42.104c-1.352-0.668-3.938-0.701-4.902-0.234c-0.203,0.09-0.068,0.727,0.105,0.664
	c1.344-0.496,3.508-0.51,4.766,0.043C49.364,42.648,49.437,42.199,49.229,42.104z"/>
<path fill="#C1873C" d="M35.921,42.104c1.354-0.668,3.939-0.701,4.904-0.234c0.203,0.09,0.066,0.727-0.104,0.664
	c-1.346-0.496-3.51-0.51-4.768,0.043C35.788,42.648,35.716,42.199,35.921,42.104z"/>
<path fill="#E6A400" d="M42.575,49.77c-1.328-0.391-3.299,0.186-3.299,0.186c0.754,0.816,1.301,1.873,3.299,1.873
	c2.291,0,2.68-1.201,3.299-1.873C45.874,49.955,43.903,49.377,42.575,49.77z"/>
<path fill="#FFFFFF" d="M39.782,50.094c1.393,1.166,4.207,1.174,5.605,0C43.903,50.156,41.278,50.158,39.782,50.094z"/>
<path fill="#E6B045" d="M44.407,48.021c0,1.191-3.662,1.191-3.662,0C40.745,47.748,44.407,47.748,44.407,48.021z"/>
<path fill="#4ABDFF" d="M29.136,55.188c-4.816-3.131-10.578-3.1-15.402,0.002C12.078,56.252,11.529,62,11.529,62h19.793
	C31.322,62,30.775,56.248,29.136,55.188z"/>
<path fill="#E6B045" d="M24.349,53.426c0-0.537,0-2.924,0-2.924H18.5c0,0,0,2.35,0,2.924C18.5,55.793,24.349,55.793,24.349,53.426z"
	/>
<path fill="#594640" d="M21.423,31.984c-10.516,0-9.502,8.422-9.502,12.357h19.006C30.927,40.406,31.941,31.984,21.423,31.984z"/>
<path fill="#E6B045" d="M12.861,42.76c-3.34-0.51-1.162,7.4,1.451,5.219C15.519,46.969,14.421,42.998,12.861,42.76z"/>
<path fill="#E6B045" d="M29.988,42.76c-1.563,0.238-2.662,4.209-1.451,5.219C31.15,50.16,33.325,42.25,29.988,42.76z"/>
<path fill="#FFCC66" d="M29.878,42.592c0-5.613-3.32-4.363-8.455-4.363c-5.133,0-8.453-1.25-8.453,4.363
	c0,0,0.016,2.141,0.564,4.951c0.896,4.602,4.617,6.406,7.889,6.406s6.996-1.805,7.889-6.406
	C29.859,44.73,29.878,42.592,29.878,42.592z"/>
<path fill="#594640" d="M21.25,36.119c-1.535,2.734-7.289,4.447-9.268,4.268C13.775,38.58,14.568,33.922,21.25,36.119z"/>
<path fill="#453631" d="M11.982,40.387c2.52-0.656,5.791-1.996,9.268-4.268C19.714,38.854,14.662,41.014,11.982,40.387z"/>
<path fill="#594640" d="M29.011,35.973c-2.174,3.258-10.313,5.295-13.107,5.082C18.435,38.9,19.56,33.355,29.011,35.973z"/>
<path fill="#453631" d="M15.904,41.055c6.686-1.857,13.107-5.082,13.107-5.082C26.837,39.23,20.781,41.527,15.904,41.055z"/>
<path fill="#594640" d="M29.326,35.225c2.605,4.238-4.176,5.977-6.979,5.805C24.861,39.375,26.546,35.092,29.326,35.225z"/>
<path fill="#453631" d="M22.347,41.029c3.369-1.543,8.506-1.859,6.979-5.805C31.931,39.463,25.32,41.412,22.347,41.029z"/>
<path fill="#FFFFFF" d="M27.66,44.334c-0.777,2.035-3.943,1.738-4.523,0.314C23.576,42.359,27.234,42.164,27.66,44.334z"/>
<path fill="#613F34" d="M23.943,44.117c0,1.787,2.588,1.787,2.588,0C26.531,42.459,23.943,42.459,23.943,44.117z"/>
<path fill="#7D5037" d="M24.199,44.689c0,1.025,2.076,1.025,2.076,0C26.275,43.74,24.199,43.74,24.199,44.689z"/>
<path fill="#1A1626" d="M24.699,44.148c0,0.738,1.074,0.738,1.074,0C25.773,43.459,24.699,43.459,24.699,44.148z"/>
<path fill="#AB968C" d="M24.333,43.932c0,0.373,0.543,0.373,0.543,0C24.876,43.584,24.333,43.584,24.333,43.932z"/>
<path fill="#E6B045" d="M27.66,44.318c0-2.184-4.523-2.184-4.523,0.348C23.783,42.588,27.015,42.588,27.66,44.318z"/>
<path fill="#FFFFFF" d="M15.189,44.334c0.775,2.035,3.943,1.738,4.523,0.314C19.271,42.359,15.619,42.164,15.189,44.334z"/>
<path fill="#613F34" d="M16.32,44.117c0,1.787,2.586,1.787,2.586,0C18.906,42.459,16.32,42.459,16.32,44.117z"/>
<path fill="#7D5037" d="M16.576,44.688c0,1.027,2.074,1.027,2.074,0C18.65,43.74,16.576,43.74,16.576,44.688z"/>
<path fill="#1A1626" d="M17.076,44.146c0,0.74,1.074,0.74,1.074,0C18.15,43.457,17.076,43.457,17.076,44.146z"/>
<path fill="#AB968C" d="M16.708,43.93c0,0.375,0.541,0.375,0.541,0C17.25,43.582,16.708,43.582,16.708,43.93z"/>
<path fill="#E6B045" d="M15.189,44.318c0-2.184,4.523-2.184,4.523,0.346C19.066,42.588,15.833,42.588,15.189,44.318z"/>
<path fill="#C1873C" d="M28.078,42.104c-1.352-0.668-3.938-0.701-4.902-0.234c-0.203,0.09-0.068,0.727,0.105,0.664
	c1.344-0.496,3.508-0.51,4.766,0.043C28.212,42.648,28.285,42.199,28.078,42.104z"/>
<path fill="#C1873C" d="M14.769,42.104c1.354-0.668,3.939-0.701,4.904-0.234c0.203,0.09,0.066,0.727-0.104,0.664
	c-1.346-0.496-3.51-0.51-4.768,0.043C14.636,42.648,14.564,42.199,14.769,42.104z"/>
<path fill="#E6A400" d="M21.423,49.77c-1.328-0.391-3.299,0.186-3.299,0.186c0.754,0.816,1.301,1.873,3.299,1.873
	c2.291,0,2.68-1.201,3.299-1.873C24.722,49.955,22.751,49.377,21.423,49.77z"/>
<path fill="#FFFFFF" d="M18.63,50.094c1.393,1.166,4.207,1.174,5.605,0C22.751,50.156,20.126,50.158,18.63,50.094z"/>
<path fill="#E6B045" d="M23.255,48.021c0,1.191-3.662,1.191-3.662,0C19.593,47.748,23.255,47.748,23.255,48.021z"/>
<path fill="#FFCC66" d="M47.036,52.978c-1.615,0.012-4.027,2.17-2.334,2.126c-0.234,0.538-0.047,1.048,1.061,0.382
	c-0.342,0.563,0.521,0.71,1.092,0.394c0.127,1.163,2.137-0.062,2.889,0.119c1.076,0.258,1.361,0.505,1.561,0.296
	C52.755,54.774,49.712,52.951,47.036,52.978z"/>
<path fill="#FFCC66" d="M16.962,52.978c-2.676-0.026-5.719,1.797-4.268,3.316c0.199,0.209,0.484-0.038,1.561-0.296
	c0.752-0.181,2.762,1.044,2.889-0.119c0.57,0.316,1.434,0.169,1.092-0.394c1.107,0.666,1.295,0.156,1.061-0.382
	C20.99,55.147,18.578,52.989,16.962,52.978z"/>
</svg>
