<?xml version="1.0" encoding="utf-8"?>
<!-- Generator: Adobe Illustrator 15.0.0, SVG Export Plug-In . SVG Version: 6.00 Build 0)  -->
<!DOCTYPE svg PUBLIC "-//W3C//DTD SVG 1.1//EN" "http://www.w3.org/Graphics/SVG/1.1/DTD/svg11.dtd" [
	<!ENTITY ns_flows "http://ns.adobe.com/Flows/1.0/">
	<!ENTITY ns_extend "http://ns.adobe.com/Extensibility/1.0/">
	<!ENTITY ns_ai "http://ns.adobe.com/AdobeIllustrator/10.0/">
	<!ENTITY ns_graphs "http://ns.adobe.com/Graphs/1.0/">
]>
<svg version="1.1" id="Layer_1" xmlns:x="&ns_extend;" xmlns:i="&ns_ai;" xmlns:graph="&ns_graphs;"
	 xmlns="http://www.w3.org/2000/svg" xmlns:xlink="http://www.w3.org/1999/xlink" xmlns:a="http://ns.adobe.com/AdobeSVGViewerExtensions/3.0/"
	 x="0px" y="0px" width="64px" height="64px" viewBox="0 0 64 64" enable-background="new 0 0 64 64" xml:space="preserve">
<path fill="#3B2C29" d="M10.218,9.117c-5.445,23.344-4.943,22.848,6.518,22.848C10.394,27.529,22.542,8.801,10.218,9.117z"/>
<path fill="#453631" d="M8.255,8.756C4.281,26.492,7.71,31.047,10.753,31.965h3.49C6.08,26.217,18.839,8.408,8.255,8.756z"/>
<path fill="#3B2C29" d="M26.24,9.115c5.447,23.346,4.947,22.846-6.514,22.846C25.556,28.404,13.916,8.799,26.24,9.115z"/>
<path fill="#453631" d="M28.207,8.756c5.804,16.135-0.016,22.457-2.5,23.205h-3.49C30.378,26.686,17.621,8.406,28.207,8.756z"/>
<path fill="#594640" d="M29.171,17.428c1.682,4.102,0.018,12.52-3.465,14.537c3.859,0,6.209-5.34,7.357-12.682
	C34.493,10.109,26.171,10.105,29.171,17.428z"/>
<path fill="#594640" d="M3.828,20.986c1.406,6.623,3.135,10.979,6.926,10.979c-4.223-4.371-3.727-13.586-2.527-15.879
	C14.347,12.447,1.451,9.779,3.828,20.986z"/>
<path fill="#8E3ED6" d="M27.745,32.738c-7.695-5.117-13.979-4.509-19.829,0.491C5.504,35.29,6.23,43.544,7.534,49.775h2.338V62
	h20.789L31,45.775C30.692,40.479,30.188,34.361,27.745,32.738z"/>
<polygon fill="#732EB0" points="14.321,51.074 12.657,51.074 12.127,39.477 "/>
<path fill="#7AB51D" d="M38.582,32.738c7.695-5.117,13.979-4.509,19.829,0.491c2.411,2.061,1.686,10.314,0.382,16.546h-2.338V62
	H35.666l-0.34-16.225C35.635,40.479,36.139,34.361,38.582,32.738z"/>
<polygon fill="#529320" points="52.006,51.074 53.67,51.074 54.199,39.477 "/>
<path fill="#4ABDFF" d="M40.876,55.188c-4.816-3.131-10.578-3.101-15.402,0.001C23.818,56.251,23.269,62,23.269,62h19.792
	C43.062,62,42.515,56.248,40.876,55.188z"/>
<path fill="#E6B045" d="M36.089,53.426c0-0.538,0-2.925,0-2.925H30.24c0,0,0,2.351,0,2.925
	C30.24,55.792,36.089,55.792,36.089,53.426z"/>
<path fill="#594640" d="M33.163,31.984c-10.515,0-9.501,8.421-9.501,12.356h19.005C42.667,40.405,43.681,31.984,33.163,31.984z"/>
<path fill="#E6B045" d="M24.601,42.76c-3.34-0.511-1.162,7.4,1.451,5.218C27.259,46.968,26.162,42.998,24.601,42.76z"/>
<path fill="#E6B045" d="M41.728,42.76c-1.563,0.238-2.662,4.208-1.451,5.218C42.89,50.16,45.065,42.249,41.728,42.76z"/>
<path fill="#FFCC66" d="M41.618,42.592c0-5.614-3.32-4.364-8.455-4.364c-5.132,0-8.453-1.25-8.453,4.364c0,0,0.016,2.141,0.564,4.95
	c0.896,4.602,4.617,6.407,7.888,6.407c3.271,0,6.996-1.806,7.889-6.407C41.599,44.73,41.618,42.592,41.618,42.592z"/>
<path fill="#594640" d="M32.99,36.119c-1.535,2.734-7.289,4.446-9.268,4.268C25.515,38.58,26.308,33.922,32.99,36.119z"/>
<path fill="#453631" d="M23.722,40.387c2.52-0.656,5.791-1.996,9.268-4.268C31.455,38.854,26.402,41.013,23.722,40.387z"/>
<path fill="#594640" d="M40.751,35.973c-2.174,3.257-10.312,5.294-13.107,5.082C30.175,38.9,31.3,33.355,40.751,35.973z"/>
<path fill="#453631" d="M27.644,41.055c6.685-1.857,13.107-5.082,13.107-5.082C38.577,39.229,32.521,41.526,27.644,41.055z"/>
<path fill="#594640" d="M41.065,35.224c2.605,4.239-4.176,5.977-6.979,5.806C36.601,39.375,38.286,35.091,41.065,35.224z"/>
<path fill="#453631" d="M34.087,41.029c3.369-1.544,8.506-1.859,6.979-5.806C43.671,39.463,37.06,41.412,34.087,41.029z"/>
<path fill="#FFFFFF" d="M39.399,44.334c-0.777,2.035-3.943,1.737-4.523,0.313C35.315,42.359,38.974,42.163,39.399,44.334z"/>
<path fill="#613F34" d="M35.683,44.117c0,1.786,2.588,1.786,2.588,0C38.271,42.459,35.683,42.459,35.683,44.117z"/>
<path fill="#7D5037" d="M35.938,44.689c0,1.024,2.076,1.024,2.076,0C38.015,43.739,35.938,43.739,35.938,44.689z"/>
<path fill="#1A1626" d="M36.438,44.147c0,0.739,1.074,0.739,1.074,0C37.513,43.459,36.438,43.459,36.438,44.147z"/>
<path fill="#AB968C" d="M36.073,43.931c0,0.373,0.543,0.373,0.543,0C36.616,43.584,36.073,43.584,36.073,43.931z"/>
<path fill="#E6B045" d="M39.399,44.318c0-2.184-4.523-2.184-4.523,0.348C35.522,42.588,38.755,42.588,39.399,44.318z"/>
<path fill="#FFFFFF" d="M26.929,44.334c0.775,2.035,3.943,1.737,4.523,0.313C31.011,42.358,27.359,42.163,26.929,44.334z"/>
<path fill="#613F34" d="M28.06,44.117c0,1.786,2.586,1.786,2.586,0C30.646,42.459,28.06,42.459,28.06,44.117z"/>
<path fill="#7D5037" d="M28.316,44.688c0,1.026,2.074,1.026,2.074,0C30.39,43.739,28.316,43.739,28.316,44.688z"/>
<path fill="#1A1626" d="M28.816,44.146c0,0.741,1.074,0.741,1.074,0C29.89,43.457,28.816,43.457,28.816,44.146z"/>
<path fill="#AB968C" d="M28.449,43.929c0,0.375,0.541,0.375,0.541,0C28.99,43.581,28.449,43.581,28.449,43.929z"/>
<path fill="#E6B045" d="M26.929,44.318c0-2.184,4.523-2.184,4.523,0.346C30.806,42.588,27.574,42.588,26.929,44.318z"/>
<path fill="#C1873C" d="M39.817,42.103c-1.352-0.668-3.938-0.701-4.902-0.234c-0.203,0.091-0.068,0.727,0.105,0.664
	c1.344-0.496,3.508-0.509,4.766,0.043C39.952,42.647,40.024,42.198,39.817,42.103z"/>
<path fill="#C1873C" d="M26.509,42.103c1.354-0.668,3.939-0.701,4.904-0.234c0.203,0.091,0.066,0.727-0.104,0.664
	c-1.346-0.496-3.51-0.509-4.768,0.043C26.376,42.647,26.304,42.198,26.509,42.103z"/>
<path fill="#E6A400" d="M33.163,49.77c-1.328-0.391-3.298,0.185-3.298,0.185c0.754,0.817,1.301,1.874,3.298,1.874
	c2.291,0,2.68-1.201,3.299-1.874C36.462,49.954,34.491,49.376,33.163,49.77z"/>
<path fill="#FFFFFF" d="M30.371,50.093c1.393,1.167,4.207,1.175,5.605,0C34.491,50.155,31.867,50.157,30.371,50.093z"/>
<path fill="#E6B045" d="M34.995,48.021c0,1.19-3.662,1.19-3.662,0C31.333,47.747,34.995,47.747,34.995,48.021z"/>
<path fill="#E6B045" d="M14.298,29.674c0-0.723,0-3.932,0-3.932h8c0,0,0,3.16,0,3.932C22.298,33.904,14.298,33.904,14.298,29.674z"
	/>
<path fill="#FFCC66" d="M18.296,3.506c-7.256,0-10.752,5.902-10.314,13.492c0.09,1.525,0.516,3.725,1.037,5.611
	c1.092,3.918,6.834,7.865,9.277,7.865c2.445,0,8.188-3.947,9.277-7.865c0.523-1.887,0.947-4.086,1.039-5.611
	C29.048,9.408,25.552,3.506,18.296,3.506z"/>
<path fill="#D47706" d="M18.298,24.213c-1.766-0.773-1.777-0.029-4.502,0.154c1.023,1.158,1.775,2.648,4.5,2.648
	c3.127,0,3.654-1.693,4.502-2.648C20.074,24.184,20.062,23.439,18.298,24.213z"/>
<path fill="#FFFFFF" d="M14.617,24.654c1.777,1.848,5.609,1.824,7.361,0C19.246,24.949,17.351,24.949,14.617,24.654z"/>
<path fill="#594640" d="M26.292,14.24c-1.635-0.973-4.568-1.092-5.727-0.428c-0.248,0.133-0.18,0.838,0.033,0.748
	c1.654-0.688,4.176-0.723,5.729,0.074C26.537,14.74,26.541,14.383,26.292,14.24z"/>
<path fill="#594640" d="M10.3,14.24c1.633-0.973,4.568-1.092,5.73-0.428c0.248,0.133,0.18,0.838-0.035,0.748
	c-1.654-0.688-4.174-0.723-5.729,0.074C10.058,14.74,10.056,14.383,10.3,14.24z"/>
<path fill="#E6B045" d="M20.548,21.566c0,1.461-4.502,1.461-4.502,0C16.046,21.23,20.548,21.23,20.548,21.566z"/>
<path fill="#FFFFFF" d="M26.136,17.205c-0.971,2.533-4.914,2.162-5.637,0.389C21.046,14.742,25.603,14.498,26.136,17.205z"/>
<path fill="#613F34" d="M21.49,16.93c0,2.244,3.248,2.244,3.248,0C24.738,14.844,21.49,14.844,21.49,16.93z"/>
<path fill="#7D5037" d="M21.81,17.648c0,1.283,2.607,1.283,2.607,0C24.417,16.451,21.81,16.451,21.81,17.648z"/>
<path fill="#1A1626" d="M22.439,16.963c0,0.934,1.35,0.934,1.35,0C23.789,16.098,22.439,16.098,22.439,16.963z"/>
<path fill="#AB968C" d="M21.976,16.691c0,0.471,0.684,0.471,0.684,0C22.66,16.256,21.976,16.256,21.976,16.691z"/>
<path fill="#45332C" d="M26.136,17.186c0-2.723-5.637-2.723-5.637,0.432C21.304,15.029,25.332,15.029,26.136,17.186z"/>
<path fill="#FFFFFF" d="M10.46,17.205c0.969,2.533,4.912,2.164,5.635,0.389C15.55,14.742,10.992,14.498,10.46,17.205z"/>
<path fill="#613F34" d="M11.857,16.932c0,2.246,3.248,2.246,3.248,0C15.105,14.85,11.857,14.85,11.857,16.932z"/>
<path fill="#7D5037" d="M12.177,17.65c0,1.285,2.607,1.285,2.607,0C14.785,16.457,12.177,16.457,12.177,17.65z"/>
<path fill="#1A1626" d="M12.806,16.967c0,0.932,1.35,0.932,1.35,0C14.156,16.102,12.806,16.102,12.806,16.967z"/>
<path fill="#AB968C" d="M12.345,16.695c0,0.471,0.682,0.471,0.682,0C13.027,16.26,12.345,16.26,12.345,16.695z"/>
<path fill="#45332C" d="M10.46,17.186c0-2.723,5.635-2.723,5.635,0.43C15.291,15.027,11.263,15.027,10.46,17.186z"/>
<path fill="#594640" d="M26.406,4.563c-5.09,5.207-0.234,5.543,2.766,12.865c1.682,4.102,2.744,9.197,3.892,1.855
	C34.493,10.109,28.99,3.795,26.406,4.563z"/>
<path fill="#594640" d="M13.916,2.568C7.464,4.084,1.451,9.779,3.828,20.986c1.406,6.623,3.199-2.607,4.398-4.9
	c6.121-3.639,16.588-6.393,18.18-11.523C27.212,3.379,20.371,0.879,13.916,2.568z"/>
<path fill="#453631" d="M8.974,10.732c2.729-0.553,15.779-0.814,17.432-6.17C23.32,7.018,20.126,7.688,8.974,10.732z"/>
<path fill="#453631" d="M4.267,19.252c4.578-6.104,19.574-5.43,22.139-14.689C21.427,12.334,5.519,13.387,4.267,19.252z"/>
<path fill="#453631" d="M24.896,5.832c-1.182,1.859,2.922-0.873,7.348,11.104C31.154,9.934,27.417,5.113,24.896,5.832z"/>
<path fill="#E6B045" d="M52.505,29.674c0-0.723,0-3.932,0-3.932h-8.418c0,0,0,3.16,0,3.932
	C44.087,33.904,52.505,33.904,52.505,29.674z"/>
<path fill="#E6B045" d="M37.585,14.672c-3.584-0.645-0.785,9.361,2.018,6.602C40.903,19.992,39.259,14.975,37.585,14.672z"/>
<path fill="#E6B045" d="M59.011,14.672c-1.676,0.303-3.32,5.32-2.018,6.602C59.798,24.033,62.591,14.027,59.011,14.672z"/>
<path fill="#FFCC66" d="M48.298,2.941c-7.408,0-10.979,5.598-10.531,13.381c0.09,1.566,1.063,6.674,1.979,8.506
	c0.939,1.873,4.08,4.764,6.006,5.361c1.215,0.379,3.877,0.379,5.094,0c1.922-0.598,5.066-3.488,6.002-5.361
	c0.92-1.832,1.891-6.939,1.98-8.506C59.274,8.539,55.704,2.941,48.298,2.941z"/>
<path fill="#E6A400" d="M48.298,24.131c-1.668-0.49-4.135,0.232-4.135,0.232c0.939,1.023,1.629,2.348,4.135,2.348
	c2.869,0,3.359-1.504,4.135-2.348C52.433,24.363,49.962,23.639,48.298,24.131z"/>
<path fill="#FFFFFF" d="M44.792,24.535c1.748,1.463,5.275,1.473,7.031,0C49.962,24.615,46.667,24.615,44.792,24.535z"/>
<path fill="#E6B045" d="M50.597,21.379c0,1.492-4.596,1.492-4.596,0C46.001,21.037,50.597,21.037,50.597,21.379z"/>
<path fill="#594640" d="M48.298,2.941c-5.096,0-8.176,1.68-9.504,1.035c0,0-0.145,0.867,0.375,1.434c0,0-0.547,0.475-1.434-0.326
	C36.89,7.822,39.397,9.41,48.298,9.41s6.773-2.166,11.15,1.637C59.021,6.359,56.038,2.941,48.298,2.941z"/>
<path fill="#453631" d="M52.065,7.025c-4.9,1.809-6.691-1.453-11.314-1.768c2.199,1.037,3.273,2.635,5.078,3.785
	c-3.932-1.313-6.814-3.574-7.033-5.059c0,0-0.656,2.168,1.938,3.789c-2.48,0.229-2.996-2.682-2.996-2.682
	c-1.258,2.016-1.084,8.514,0.311,13.338c0.232-1.723-0.297-2.434,0.5-4.506c2.383-6.199,0.85-3.598,9.75-3.598
	s7.295-2.371,9.75,3.598c0.732,1.777,0.266,2.783,0.5,4.506C61.476,7.553,57.265,5.109,52.065,7.025z"/>
<path fill="#FFFFFF" d="M56.228,16.926c-0.99,2.588-5.018,2.207-5.754,0.395C51.034,14.412,55.685,14.164,56.228,16.926z"/>
<path fill="#FFFFFF" d="M40.366,16.926c0.99,2.588,5.016,2.207,5.754,0.395C45.562,14.41,40.909,14.162,40.366,16.926z"/>
<path fill="#C1873C" d="M56.64,13.809c-1.695-0.84-4.936-0.881-6.146-0.295c-0.258,0.113-0.086,0.908,0.133,0.834
	c1.684-0.625,4.398-0.639,5.973,0.053C56.81,14.488,56.896,13.926,56.64,13.809z"/>
<path fill="#C1873C" d="M39.956,13.809c1.691-0.84,4.936-0.881,6.143-0.295c0.26,0.113,0.088,0.908-0.129,0.834
	c-1.686-0.625-4.398-0.639-5.975,0.053C39.784,14.488,39.7,13.926,39.956,13.809z"/>
<path fill="#613F34" d="M51.501,16.648c0,2.271,3.289,2.271,3.289,0C54.79,14.541,51.501,14.541,51.501,16.648z"/>
<path fill="#7D5037" d="M51.825,17.375c0,1.305,2.641,1.305,2.641,0C54.466,16.166,51.825,16.166,51.825,17.375z"/>
<path fill="#1A1626" d="M52.462,16.686c0,0.941,1.367,0.941,1.367,0C53.829,15.809,52.462,15.809,52.462,16.686z"/>
<path fill="#AB968C" d="M51.997,16.41c0,0.475,0.689,0.475,0.689,0C52.687,15.967,51.997,15.967,51.997,16.41z"/>
<path fill="#613F34" d="M41.804,16.648c0,2.271,3.289,2.271,3.289,0C45.093,14.541,41.804,14.541,41.804,16.648z"/>
<path fill="#7D5037" d="M42.13,17.375c0,1.301,2.639,1.301,2.639,0C44.769,16.166,42.13,16.166,42.13,17.375z"/>
<path fill="#1A1626" d="M42.767,16.686c0,0.941,1.365,0.941,1.365,0C44.132,15.809,42.767,15.809,42.767,16.686z"/>
<path fill="#AB968C" d="M42.3,16.408c0,0.477,0.689,0.477,0.689,0C42.989,15.967,42.3,15.967,42.3,16.408z"/>
<path fill="#E6B045" d="M56.228,16.904c0-2.779-5.754-2.779-5.754,0.441C51.296,14.705,55.405,14.705,56.228,16.904z"/>
<path fill="#E6B045" d="M40.366,16.904c0-2.779,5.754-2.779,5.754,0.439C45.298,14.703,41.187,14.703,40.366,16.904z"/>
<path fill="#FFCC66" d="M23.336,57.252c0.843,0.424,2.689-2.339,1.822-2.713c-7.489-3.228-8.343-4.729-12.667-6.762
	c-1.697-0.798-4.958,1.998-4.958,1.998C8.627,53.75,13.419,52.264,23.336,57.252z"/>
<path fill="#FFCC66" d="M42.99,57.252c-0.843,0.424-2.689-2.339-1.822-2.713c7.489-3.228,8.343-4.729,12.667-6.762
	c1.697-0.798,4.958,1.998,4.958,1.998C57.699,53.75,52.907,52.264,42.99,57.252z"/>
<path fill="#FFCC66" d="M27.363,53.404c1.666-0.393,4.768,1.096,3.01,1.477c0.396,0.463,0.348,1.004-0.982,0.637
	c0.512,0.459-0.336,0.818-1.014,0.654c0.201,1.16-2.219,0.477-2.941,0.84c-1.037,0.52-1.26,0.83-1.523,0.678
	C21.982,56.58,24.597,54.051,27.363,53.404z"/>
<path fill="#FFCC66" d="M38.966,53.404c-1.666-0.393-4.768,1.096-3.01,1.477c-0.396,0.463-0.348,1.004,0.982,0.637
	c-0.512,0.459,0.336,0.818,1.014,0.654c-0.201,1.16,2.219,0.477,2.941,0.84c1.037,0.52,1.26,0.83,1.523,0.678
	C44.347,56.58,41.731,54.051,38.966,53.404z"/>
</svg>
