<?xml version="1.0" encoding="utf-8"?>
<!-- Generator: Adobe Illustrator 19.0.0, SVG Export Plug-In . SVG Version: 6.00 Build 0)  -->
<svg version="1.1" id="Layer_1" xmlns="http://www.w3.org/2000/svg" xmlns:xlink="http://www.w3.org/1999/xlink" x="0px" y="0px"
	 width="64px" height="64px" viewBox="0 0 64 64" enable-background="new 0 0 64 64" xml:space="preserve">
<path fill="#3B2C29" d="M9.055,9.117C3.61,32.461,4.111,31.965,15.573,31.965C9.231,27.529,21.38,8.801,9.055,9.117z"/>
<path fill="#453631" d="M7.093,8.756C3.118,26.492,6.547,31.047,9.591,31.965h3.49C4.916,26.217,17.677,8.408,7.093,8.756z"/>
<path fill="#3B2C29" d="M25.076,9.115c5.447,23.346,4.947,22.846-6.514,22.846C24.394,28.404,12.752,8.799,25.076,9.115z"/>
<path fill="#453631" d="M27.043,8.756c5.806,16.135-0.015,22.457-2.5,23.205h-3.49C29.216,26.686,16.457,8.406,27.043,8.756z"/>
<path fill="#594640" d="M28.008,17.428c1.683,4.102,0.018,12.52-3.465,14.537c3.859,0,6.21-5.34,7.357-12.682
	C33.331,10.11,25.009,10.106,28.008,17.428z"/>
<path fill="#594640" d="M2.664,20.986C4.07,27.61,5.8,31.965,9.591,31.965c-4.223-4.371-3.726-13.586-2.527-15.879
	C13.185,12.447,0.287,9.779,2.664,20.986z"/>
<path fill="#8E3ED6" d="M5.656,32.738c7.696-5.117,15.261-5.117,22.957,0c2.442,1.623,2.947,7.74,3.255,13.037h-4.339V62H6.74
	V45.776H2.401C2.709,40.479,3.214,34.361,5.656,32.738z"/>
<polygon fill="#732EB0" points="26.745,46.074 28.152,46.074 26.745,38.477 "/>
<path fill="#FFCC66" d="M26.745,62h4.024l1.099-16.225c0,0-2.562-0.658-5.123,0V62z"/>
<path fill="#E6B045" d="M12.926,29.674c0-0.723,0-3.932,0-3.932h8.418c0,0,0,3.16,0,3.932
	C21.344,33.904,12.926,33.904,12.926,29.674z"/>
<path fill="#FFCC66" d="M17.133,3.506c-7.256,0-10.751,5.902-10.313,13.492c0.09,1.525,0.516,3.725,1.037,5.611
	c1.091,3.918,6.833,7.865,9.276,7.865c2.446,0,8.188-3.947,9.278-7.865c0.523-1.887,0.946-4.086,1.039-5.611
	C27.885,9.408,24.39,3.506,17.133,3.506z"/>
<path fill="#D47706" d="M17.135,24.213c-1.765-0.774-1.776-0.029-4.501,0.154c1.023,1.158,1.775,2.648,4.499,2.648
	c3.128,0,3.655-1.693,4.502-2.648C18.911,24.184,18.899,23.44,17.135,24.213z"/>
<path fill="#FFFFFF" d="M13.454,24.654c1.776,1.848,5.608,1.824,7.361,0C18.082,24.949,16.187,24.949,13.454,24.654z"/>
<path fill="#594640" d="M25.129,14.24c-1.635-0.973-4.567-1.092-5.726-0.428c-0.248,0.133-0.181,0.838,0.033,0.748
	c1.653-0.688,4.175-0.723,5.729,0.074C25.374,14.74,25.378,14.383,25.129,14.24z"/>
<path fill="#594640" d="M9.138,14.24c1.633-0.973,4.568-1.092,5.73-0.428c0.248,0.133,0.181,0.838-0.034,0.748
	c-1.654-0.688-4.175-0.723-5.729,0.074C8.895,14.74,8.893,14.383,9.138,14.24z"/>
<path fill="#E6B045" d="M19.385,21.567c0,1.461-4.502,1.461-4.502,0C14.883,21.231,19.385,21.231,19.385,21.567z"/>
<path fill="#FFFFFF" d="M24.973,17.205c-0.971,2.533-4.913,2.162-5.636,0.389C19.884,14.742,24.44,14.498,24.973,17.205z"/>
<path fill="#613F34" d="M20.327,16.93c0,2.244,3.248,2.244,3.248,0C23.575,14.844,20.327,14.844,20.327,16.93z"/>
<path fill="#7D5037" d="M20.646,17.649c0,1.283,2.608,1.283,2.608,0C23.255,16.451,20.646,16.451,20.646,17.649z"/>
<path fill="#1A1626" d="M21.275,16.963c0,0.934,1.35,0.934,1.35,0C22.625,16.098,21.275,16.098,21.275,16.963z"/>
<path fill="#AB968C" d="M20.813,16.692c0,0.471,0.684,0.471,0.684,0C21.497,16.256,20.813,16.256,20.813,16.692z"/>
<path fill="#45332C" d="M24.973,17.186c0-2.723-5.636-2.723-5.636,0.432C20.142,15.029,24.169,15.029,24.973,17.186z"/>
<path fill="#FFFFFF" d="M9.297,17.205c0.969,2.533,4.912,2.164,5.636,0.389C14.388,14.742,9.829,14.498,9.297,17.205z"/>
<path fill="#613F34" d="M10.694,16.932c0,2.246,3.248,2.246,3.248,0C13.942,14.85,10.694,14.85,10.694,16.932z"/>
<path fill="#7D5037" d="M11.015,17.651c0,1.285,2.607,1.285,2.607,0C13.622,16.457,11.015,16.457,11.015,17.651z"/>
<path fill="#1A1626" d="M11.644,16.967c0,0.932,1.35,0.932,1.35,0C12.993,16.102,11.644,16.102,11.644,16.967z"/>
<path fill="#AB968C" d="M11.182,16.695c0,0.471,0.682,0.471,0.682,0C11.863,16.26,11.182,16.26,11.182,16.695z"/>
<path fill="#45332C" d="M9.297,17.186c0-2.723,5.636-2.723,5.636,0.43C14.128,15.027,10.101,15.027,9.297,17.186z"/>
<path fill="#594640" d="M25.242,4.563c-5.089,5.207-0.233,5.543,2.766,12.865c1.683,4.102,2.745,9.197,3.893,1.855
	C33.331,10.11,27.826,3.795,25.242,4.563z"/>
<path fill="#594640" d="M12.752,2.569C6.301,4.084,0.287,9.779,2.664,20.986c1.406,6.623,3.2-2.607,4.399-4.9
	c6.121-3.639,16.587-6.392,18.179-11.523C26.049,3.379,19.208,0.879,12.752,2.569z"/>
<path fill="#453631" d="M7.811,10.733c2.728-0.553,15.779-0.814,17.431-6.17C22.157,7.018,18.963,7.688,7.811,10.733z"/>
<path fill="#453631" d="M3.104,19.252c4.577-6.104,19.573-5.43,22.138-14.689C20.264,12.334,4.355,13.387,3.104,19.252z"/>
<path fill="#453631" d="M23.732,5.832c-1.182,1.859,2.923-0.873,7.349,11.103C29.99,9.934,26.254,5.113,23.732,5.832z"/>
<path fill="#7AB51D" d="M58.611,32.738c-7.696-5.117-15.261-5.117-22.957,0c-2.442,1.623-2.947,7.74-3.255,13.037h4.339V62h20.789
	V45.776h4.339C61.559,40.479,61.054,34.361,58.611,32.738z"/>
<polygon fill="#529320" points="54.743,50.074 56.743,45.776 56.743,38.477 "/>
<polygon fill="#732EB0" points="9.524,50.059 7.524,45.776 7.524,38.461 "/>
<polygon fill="#7AB51D" points="37.522,46.074 36.115,46.074 37.522,38.477 "/>
<path fill="#FFCC66" d="M37.522,62h-4.024l-1.099-16.225c0,0,2.562-0.658,5.123,0V62z"/>
<path fill="#E6B045" d="M51.342,29.674c0-0.723,0-3.932,0-3.932h-8.418c0,0,0,3.16,0,3.932
	C42.924,33.904,51.342,33.904,51.342,29.674z"/>
<path fill="#E6B045" d="M36.423,14.672c-3.585-0.645-0.785,9.361,2.017,6.601C39.741,19.992,38.097,14.975,36.423,14.672z"/>
<path fill="#E6B045" d="M57.849,14.672c-1.676,0.303-3.32,5.32-2.018,6.601C58.635,24.033,61.429,14.027,57.849,14.672z"/>
<path fill="#FFCC66" d="M47.135,2.942c-7.408,0-10.978,5.598-10.53,13.381c0.09,1.566,1.062,6.674,1.979,8.506
	c0.939,1.873,4.08,4.764,6.005,5.361c1.215,0.379,3.877,0.379,5.094,0c1.923-0.598,5.066-3.488,6.003-5.361
	c0.92-1.832,1.89-6.939,1.979-8.506C58.112,8.539,54.542,2.942,47.135,2.942z"/>
<path fill="#E6A400" d="M47.135,24.131C45.468,23.641,43,24.363,43,24.363c0.939,1.023,1.629,2.348,4.135,2.348
	c2.87,0,3.359-1.504,4.136-2.348C51.27,24.363,48.8,23.639,47.135,24.131z"/>
<path fill="#FFFFFF" d="M43.63,24.535c1.747,1.463,5.275,1.473,7.031,0C48.8,24.615,45.505,24.615,43.63,24.535z"/>
<path fill="#E6B045" d="M49.434,21.379c0,1.492-4.596,1.492-4.596,0C44.838,21.037,49.434,21.037,49.434,21.379z"/>
<path fill="#594640" d="M47.135,2.942c-5.096,0-8.176,1.68-9.504,1.035c0,0-0.144,0.867,0.376,1.433c0,0-0.548,0.475-1.434-0.326
	C35.728,7.822,38.234,9.41,47.135,9.41c8.901,0,6.773-2.166,11.151,1.637C57.857,6.36,54.875,2.942,47.135,2.942z"/>
<path fill="#453631" d="M50.903,7.026c-4.9,1.809-6.691-1.453-11.315-1.768c2.2,1.037,3.273,2.635,5.078,3.785
	c-3.931-1.312-6.813-3.574-7.033-5.059c0,0-0.655,2.168,1.938,3.789c-2.479,0.228-2.996-2.682-2.996-2.682
	c-1.257,2.016-1.084,8.514,0.312,13.338c0.231-1.723-0.297-2.434,0.5-4.506c2.383-6.199,0.85-3.598,9.749-3.598
	c8.901,0,7.295-2.371,9.751,3.598c0.731,1.777,0.266,2.783,0.499,4.506C60.312,7.553,56.103,5.11,50.903,7.026z"/>
<path fill="#FFFFFF" d="M55.065,16.926c-0.99,2.588-5.017,2.207-5.754,0.394C49.871,14.412,54.521,14.164,55.065,16.926z"/>
<path fill="#FFFFFF" d="M39.203,16.926c0.99,2.588,5.017,2.207,5.754,0.394C44.398,14.41,39.747,14.162,39.203,16.926z"/>
<path fill="#C1873C" d="M55.477,13.809c-1.694-0.84-4.936-0.881-6.146-0.295c-0.258,0.113-0.087,0.908,0.132,0.834
	c1.684-0.625,4.398-0.639,5.974,0.053C55.647,14.488,55.733,13.926,55.477,13.809z"/>
<path fill="#C1873C" d="M38.793,13.809c1.692-0.84,4.936-0.881,6.144-0.295c0.26,0.113,0.088,0.908-0.129,0.834
	c-1.686-0.625-4.398-0.639-5.976,0.053C38.622,14.488,38.537,13.926,38.793,13.809z"/>
<path fill="#613F34" d="M50.339,16.649c0,2.271,3.289,2.271,3.289,0C53.628,14.541,50.339,14.541,50.339,16.649z"/>
<path fill="#7D5037" d="M50.663,17.375c0,1.305,2.64,1.305,2.64,0C53.303,16.166,50.663,16.166,50.663,17.375z"/>
<path fill="#1A1626" d="M51.3,16.686c0,0.941,1.366,0.941,1.366,0C52.666,15.809,51.3,15.809,51.3,16.686z"/>
<path fill="#AB968C" d="M50.834,16.41c0,0.475,0.689,0.475,0.689,0C51.523,15.967,50.834,15.967,50.834,16.41z"/>
<path fill="#613F34" d="M40.642,16.649c0,2.271,3.289,2.271,3.289,0C43.931,14.541,40.642,14.541,40.642,16.649z"/>
<path fill="#7D5037" d="M40.967,17.375c0,1.301,2.64,1.301,2.64,0C43.606,16.166,40.967,16.166,40.967,17.375z"/>
<path fill="#1A1626" d="M41.604,16.686c0,0.941,1.364,0.941,1.364,0C42.969,15.809,41.604,15.809,41.604,16.686z"/>
<path fill="#AB968C" d="M41.138,16.408c0,0.477,0.688,0.477,0.688,0C41.826,15.967,41.138,15.967,41.138,16.408z"/>
<path fill="#E6B045" d="M55.065,16.904c0-2.779-5.754-2.779-5.754,0.441C50.133,14.705,54.243,14.705,55.065,16.904z"/>
<path fill="#E6B045" d="M39.203,16.904c0-2.779,5.754-2.779,5.754,0.439C44.136,14.703,40.024,14.703,39.203,16.904z"/>
<path fill="#E32B56" d="M29.138,54.67c-0.982-0.688-5.299-2.494-5.299-2.494h-4.797c0,0-4.318,1.811-5.307,2.494
	C12.079,55.815,11.528,62,11.528,62h19.793C31.321,62,30.774,55.811,29.138,54.67z"/>
<path fill="#E6B045" d="M24.349,52.84c0-0.539,0-2.926,0-2.926h-5.85c0,0,0,2.351,0,2.926C18.499,55.205,24.349,55.205,24.349,52.84
	z"/>
<path fill="#594640" d="M13.919,43.938c-7.076,4.172-0.856,7.969-2.869,9.768C14.964,56.131,24.544,51.951,13.919,43.938z"/>
<path fill="#453631" d="M11.806,45.522c1.736,6.66,5.311,6.891,5.012,8.096C20.14,51.877,20.171,46.264,11.806,45.522z"/>
<path fill="#594640" d="M28.931,43.938c7.076,4.172,0.855,7.969,2.871,9.768C27.89,56.131,18.308,51.951,28.931,43.938z"/>
<path fill="#453631" d="M31.044,45.522c-1.734,6.66-5.311,6.891-5.01,8.096C22.712,51.877,22.679,46.264,31.044,45.522z"/>
<path fill="#594640" d="M11.747,43.77h19.348C33.911,28.647,8.931,28.647,11.747,43.77z"/>
<path fill="#453631" d="M11.722,43.582c0,0,11.016,4.105,18.652-0.65c-1.543,0.291-4.051-5.605-15.775-6.047
	C14.169,43.582,12.108,41.764,11.722,43.582z"/>
<path fill="#CFD8DD" d="M30.186,42.69c0.822-11.314-18.359-11.314-17.535,0C13.366,33.188,29.47,33.188,30.186,42.69z"/>
<path fill="#FFFFFF" d="M30.186,42.324c0.822-11.314-18.359-11.314-17.535,0C13.366,32.822,29.47,32.822,30.186,42.324z"/>
<path fill="#E6B045" d="M12.854,42.768c-3.336-0.506-1.162,7.363,1.451,5.193C15.519,46.953,14.419,43.006,12.854,42.768z"/>
<path fill="#E6B045" d="M29.983,42.768c-1.561,0.238-2.66,4.185-1.451,5.193C31.147,50.129,33.319,42.262,29.983,42.768z"/>
<path fill="#FFCC66" d="M29.874,42.785c-3.195-0.91-7.289-5.256-15.07-4.729c0.137,1.707-0.313,3.645-1.814,4.734
	c0,0-0.006,1.535,0.543,4.346c0.895,4.602,4.617,6.406,7.887,6.406c3.273,0,6.994-1.805,7.891-6.406
	C29.856,44.324,29.874,42.785,29.874,42.785z"/>
<path fill="#FFFFFF" d="M27.669,44.295c-0.777,2.035-3.943,1.738-4.525,0.313C23.585,42.319,27.241,42.123,27.669,44.295z"/>
<path fill="#613F34" d="M23.952,44.078c0,1.787,2.586,1.787,2.586,0C26.538,42.42,23.952,42.42,23.952,44.078z"/>
<path fill="#7D5037" d="M24.208,44.649c0,1.025,2.074,1.025,2.074,0C26.282,43.699,24.208,43.699,24.208,44.649z"/>
<path fill="#1A1626" d="M24.706,44.106c0,0.742,1.076,0.742,1.076,0C25.782,43.418,24.706,43.418,24.706,44.106z"/>
<path fill="#AB968C" d="M24.343,43.889c0,0.377,0.541,0.377,0.541,0C24.884,43.541,24.343,43.541,24.343,43.889z"/>
<path fill="#E6B045" d="M27.669,44.279c0-2.186-4.525-2.186-4.525,0.346C23.79,42.549,27.022,42.549,27.669,44.279z"/>
<path fill="#FFFFFF" d="M15.196,44.295c0.775,2.035,3.943,1.738,4.525,0.313C19.282,42.317,15.626,42.121,15.196,44.295z"/>
<path fill="#613F34" d="M16.329,44.078c0,1.785,2.586,1.785,2.586,0C18.915,42.42,16.329,42.42,16.329,44.078z"/>
<path fill="#7D5037" d="M16.585,44.649c0,1.023,2.072,1.023,2.072,0C18.657,43.699,16.585,43.699,16.585,44.649z"/>
<path fill="#1A1626" d="M17.083,44.106c0,0.74,1.074,0.74,1.074,0C18.157,43.418,17.083,43.418,17.083,44.106z"/>
<path fill="#AB968C" d="M16.718,43.889c0,0.375,0.543,0.375,0.543,0C17.261,43.541,16.718,43.541,16.718,43.889z"/>
<path fill="#E6B045" d="M15.196,44.279c0-2.186,4.525-2.186,4.525,0.346C19.077,42.547,15.841,42.547,15.196,44.279z"/>
<path fill="#C1873C" d="M28.087,42.065c-1.35-0.672-3.938-0.703-4.9-0.236c-0.207,0.09-0.07,0.725,0.105,0.666
	c1.34-0.498,3.504-0.51,4.764,0.043C28.222,42.608,28.292,42.156,28.087,42.065z"/>
<path fill="#C1873C" d="M14.776,42.065c1.354-0.672,3.939-0.703,4.904-0.236c0.207,0.09,0.068,0.725-0.104,0.666
	c-1.344-0.498-3.51-0.51-4.768,0.043C14.642,42.608,14.573,42.156,14.776,42.065z"/>
<path fill="#E6A400" d="M21.433,49.731c-1.328-0.391-3.299,0.184-3.299,0.184c0.75,0.814,1.303,1.875,3.299,1.875
	c2.289,0,2.682-1.201,3.299-1.875C24.731,49.914,22.759,49.338,21.433,49.731z"/>
<path fill="#FFFFFF" d="M18.636,50.053c1.395,1.168,4.211,1.174,5.611,0C22.759,50.115,20.134,50.115,18.636,50.053z"/>
<path fill="#E6B045" d="M23.267,47.981c0,1.189-3.666,1.189-3.666,0C19.601,47.707,23.267,47.707,23.267,47.981z"/>
<path fill="#E32B56" d="M50.289,54.67c-0.982-0.688-5.299-2.494-5.299-2.494h-4.797c0,0-4.318,1.811-5.307,2.494
	C33.23,55.815,32.68,62,32.68,62h19.793C52.473,62,51.926,55.811,50.289,54.67z"/>
<path fill="#E6B045" d="M45.5,52.84c0-0.539,0-2.926,0-2.926h-5.85c0,0,0,2.351,0,2.926C39.65,55.205,45.5,55.205,45.5,52.84z"/>
<path fill="#594640" d="M35.07,43.938c-7.076,4.172-0.855,7.969-2.869,9.768C36.115,56.131,45.695,51.951,35.07,43.938z"/>
<path fill="#453631" d="M32.957,45.522c1.736,6.66,5.311,6.891,5.012,8.096C41.291,51.877,41.322,46.264,32.957,45.522z"/>
<path fill="#594640" d="M50.082,43.938c7.076,4.172,0.855,7.969,2.871,9.768C49.041,56.131,39.459,51.951,50.082,43.938z"/>
<path fill="#453631" d="M52.195,45.522c-1.734,6.66-5.311,6.891-5.01,8.096C43.863,51.877,43.83,46.264,52.195,45.522z"/>
<path fill="#594640" d="M32.898,43.77h19.348C55.062,28.647,30.082,28.647,32.898,43.77z"/>
<path fill="#453631" d="M32.873,43.582c0,0,11.016,4.105,18.652-0.65c-1.543,0.291-4.051-5.605-15.775-6.047
	C35.32,43.582,33.26,41.764,32.873,43.582z"/>
<path fill="#CFD8DD" d="M51.338,42.69c0.822-11.314-18.359-11.314-17.535,0C34.518,33.188,50.621,33.188,51.338,42.69z"/>
<path fill="#FFFFFF" d="M51.338,42.324c0.822-11.314-18.359-11.314-17.535,0C34.518,32.822,50.621,32.822,51.338,42.324z"/>
<path fill="#E6B045" d="M34.006,42.768c-3.336-0.506-1.162,7.363,1.451,5.193C36.67,46.953,35.57,43.006,34.006,42.768z"/>
<path fill="#E6B045" d="M51.135,42.768c-1.561,0.238-2.66,4.185-1.451,5.193C52.299,50.129,54.471,42.262,51.135,42.768z"/>
<path fill="#FFCC66" d="M51.025,42.785c-3.195-0.91-7.289-5.256-15.07-4.729c0.137,1.707-0.313,3.645-1.815,4.734
	c0,0-0.006,1.535,0.543,4.346c0.894,4.602,4.617,6.406,7.887,6.406c3.273,0,6.994-1.805,7.891-6.406
	C51.008,44.324,51.025,42.785,51.025,42.785z"/>
<path fill="#FFFFFF" d="M48.82,44.295c-0.777,2.035-3.943,1.738-4.525,0.313C44.736,42.319,48.393,42.123,48.82,44.295z"/>
<path fill="#613F34" d="M45.103,44.078c0,1.787,2.586,1.787,2.586,0C47.689,42.42,45.103,42.42,45.103,44.078z"/>
<path fill="#7D5037" d="M45.359,44.649c0,1.025,2.074,1.025,2.074,0C47.434,43.699,45.359,43.699,45.359,44.649z"/>
<path fill="#1A1626" d="M45.857,44.106c0,0.742,1.076,0.742,1.076,0C46.934,43.418,45.857,43.418,45.857,44.106z"/>
<path fill="#AB968C" d="M45.494,43.889c0,0.377,0.541,0.377,0.541,0C46.035,43.541,45.494,43.541,45.494,43.889z"/>
<path fill="#E6B045" d="M48.82,44.279c0-2.186-4.525-2.186-4.525,0.346C44.941,42.549,48.174,42.549,48.82,44.279z"/>
<path fill="#FFFFFF" d="M36.348,44.295c0.775,2.035,3.943,1.738,4.525,0.313C40.434,42.317,36.777,42.121,36.348,44.295z"/>
<path fill="#613F34" d="M37.48,44.078c0,1.785,2.586,1.785,2.586,0C40.066,42.42,37.48,42.42,37.48,44.078z"/>
<path fill="#7D5037" d="M37.736,44.649c0,1.023,2.072,1.023,2.072,0C39.809,43.699,37.736,43.699,37.736,44.649z"/>
<path fill="#1A1626" d="M38.234,44.106c0,0.74,1.074,0.74,1.074,0C39.309,43.418,38.234,43.418,38.234,44.106z"/>
<path fill="#AB968C" d="M37.869,43.889c0,0.375,0.543,0.375,0.543,0C38.412,43.541,37.869,43.541,37.869,43.889z"/>
<path fill="#E6B045" d="M36.348,44.279c0-2.186,4.525-2.186,4.525,0.346C40.228,42.547,36.992,42.547,36.348,44.279z"/>
<path fill="#C1873C" d="M49.238,42.065c-1.35-0.672-3.938-0.703-4.9-0.236c-0.207,0.09-0.07,0.725,0.106,0.666
	c1.34-0.498,3.504-0.51,4.764,0.043C49.373,42.608,49.443,42.156,49.238,42.065z"/>
<path fill="#C1873C" d="M35.928,42.065c1.354-0.672,3.939-0.703,4.904-0.236c0.207,0.09,0.068,0.725-0.104,0.666
	c-1.344-0.498-3.51-0.51-4.768,0.043C35.793,42.608,35.725,42.156,35.928,42.065z"/>
<path fill="#E6A400" d="M42.584,49.731c-1.328-0.391-3.299,0.184-3.299,0.184c0.75,0.814,1.303,1.875,3.299,1.875
	c2.289,0,2.682-1.201,3.299-1.875C45.883,49.914,43.91,49.338,42.584,49.731z"/>
<path fill="#FFFFFF" d="M39.787,50.053c1.395,1.168,4.211,1.174,5.611,0C43.91,50.115,41.285,50.115,39.787,50.053z"/>
<path fill="#E6B045" d="M44.418,47.981c0,1.189-3.666,1.189-3.666,0C40.752,47.707,44.418,47.707,44.418,47.981z"/>
<path fill="#FFCC66" d="M12.235,57.492c0.806,0.49,2.559-2.121,1.822-2.713c-4.497-3.604-6.533-9.004-6.533-9.004
	c-2.283-0.691-5.123,0-5.123,0C2.692,51.141,8.315,55.1,12.235,57.492z"/>
<path fill="#FFCC66" d="M15.761,53.645c1.666-0.393,4.767,1.096,3.01,1.477c0.396,0.463,0.348,1.004-0.982,0.637
	c0.511,0.459-0.337,0.818-1.015,0.654c0.201,1.16-2.218,0.477-2.942,0.84c-1.036,0.52-1.259,0.83-1.523,0.678
	C10.379,56.82,12.995,54.291,15.761,53.645z"/>
<path fill="#FFCC66" d="M52.032,57.492c-0.806,0.49-2.559-2.121-1.822-2.713c4.497-3.604,6.533-9.004,6.533-9.004
	c2.283-0.691,5.123,0,5.123,0C61.575,51.141,55.952,55.1,52.032,57.492z"/>
<path fill="#FFCC66" d="M48.507,53.645c-1.666-0.393-4.767,1.096-3.01,1.477c-0.396,0.463-0.348,1.004,0.982,0.637
	c-0.511,0.459,0.337,0.818,1.015,0.654c-0.201,1.16,2.218,0.477,2.941,0.84c1.036,0.52,1.259,0.83,1.523,0.678
	C53.889,56.82,51.272,54.291,48.507,53.645z"/>
</svg>
