<?xml version="1.0" encoding="utf-8"?>
<!-- Generator: Adobe Illustrator 15.0.0, SVG Export Plug-In . SVG Version: 6.00 Build 0)  -->
<!DOCTYPE svg PUBLIC "-//W3C//DTD SVG 1.1//EN" "http://www.w3.org/Graphics/SVG/1.1/DTD/svg11.dtd" [
	<!ENTITY ns_flows "http://ns.adobe.com/Flows/1.0/">
	<!ENTITY ns_extend "http://ns.adobe.com/Extensibility/1.0/">
	<!ENTITY ns_ai "http://ns.adobe.com/AdobeIllustrator/10.0/">
	<!ENTITY ns_graphs "http://ns.adobe.com/Graphs/1.0/">
]>
<svg version="1.1" id="Layer_1" xmlns:x="&ns_extend;" xmlns:i="&ns_ai;" xmlns:graph="&ns_graphs;"
	 xmlns="http://www.w3.org/2000/svg" xmlns:xlink="http://www.w3.org/1999/xlink" xmlns:a="http://ns.adobe.com/AdobeSVGViewerExtensions/3.0/"
	 x="0px" y="0px" width="64px" height="64px" viewBox="0 0 64 64" enable-background="new 0 0 64 64" xml:space="preserve">
<path fill="#3B2C29" d="M20.145,15.477c-7.992,37.397-7.261,36.597,9.564,36.597C20.399,44.973,38.234,14.968,20.145,15.477z"/>
<path fill="#453631" d="M17.262,14.897c-5.832,28.413-0.801,35.71,3.668,37.176h5.12C14.07,42.871,32.797,14.339,17.262,14.897z"/>
<path fill="#3B2C29" d="M43.66,15.476c7.991,37.397,7.26,36.597-9.563,36.597C42.657,46.373,25.571,14.967,43.66,15.476z"/>
<path fill="#453631" d="M46.541,14.896c8.526,25.85-0.019,35.979-3.667,37.176h-5.119C49.736,43.621,31.008,14.337,46.541,14.896z"
	/>
<path fill="#594640" d="M47.96,28.787c2.469,6.571,0.026,20.059-5.086,23.286c5.666,0,9.117-8.55,10.8-20.311
	C55.776,17.068,43.561,17.061,47.96,28.787z"/>
<path fill="#594640" d="M10.764,34.49c2.064,10.613,4.604,17.583,10.166,17.583c-6.2-6.999-5.471-21.761-3.709-25.434
	C26.205,20.813,7.273,16.537,10.764,34.49z"/>
<path fill="#302C3B" d="M12.257,51.715c2.399-1.517,13.453-5.524,13.453-5.524h12.659c0,0,11.046,4,13.435,5.522
	C55.272,53.919,56.001,62,56.001,62H8C8,62,8.776,53.913,12.257,51.715"/>
<path fill="#E6B045" d="M25.301,49.469c0,3.393,4.518,5.087,6.676,5.076c2.161-0.01,6.723-1.746,6.723-5.076v-9.807H25.301V49.469z"
	/>
<path fill="#1A1626" d="M50.847,55.16c-0.639,1.705-1.24,4.804-0.729,6.84C51.216,60.88,51.439,53.572,50.847,55.16"/>
<path fill="#1A1626" d="M13.883,62c0.514-2.036-0.09-5.135-0.729-6.84C12.562,53.572,12.786,60.88,13.883,62"/>
<path fill="#1A1626" d="M23.536,47.693c0,0-2.114,3.011-3,5.486l3.408,1.932c0,0-2.324,2.548-2.695,3.037
	c0,0,2.354,2.836,2.695,3.852h0.977c0,0-1.217-2.373-2.391-3.852c0,0,1.491-2.377,2.391-3.212l-3.128-2.202
	C21.792,52.734,22.649,49.633,23.536,47.693"/>
<path fill="#1A1626" d="M40.466,47.693c0,0,2.114,3.011,3,5.486l-3.409,1.932c0,0,2.325,2.548,2.695,3.037
	c0,0-2.352,2.836-2.695,3.852h-0.976c0,0,1.217-2.373,2.393-3.852c0,0-1.493-2.377-2.393-3.212l3.128-2.202
	C42.209,52.734,41.353,49.633,40.466,47.693"/>
<path fill="#E6EBEF" d="M37.093,62c1.526-3.109,1.561-12.531,1.561-12.531c-2.235,3.419-6.431,4.979-6.676,5.066
	c-0.245-0.087-4.44-1.647-6.676-5.066c0,0,0.034,9.422,1.56,12.531H37.093z"/>
<path fill="#F9C802" d="M46.464,59.133c-0.267,0-0.737,0.281-0.927,0.402c-0.258-0.202-0.633-0.202-0.891,0
	c-0.188-0.121-0.658-0.402-0.927-0.402c-0.588,0-1.866,0.468-1.866,0.67c0,0.09,1.248-0.184,2.548,0.488
	c0.139,0.795,1.244,0.795,1.383,0c1.298-0.672,2.549-0.398,2.549-0.488C48.333,59.601,47.052,59.133,46.464,59.133z"/>
<polygon fill="#302C3B" points="34.641,62 33.786,58.469 34.729,56.469 31.959,54.545 29.273,56.469 30.217,58.469 29.361,62 "/>
<path fill="#FFFFFF" d="M31.977,54.535c-0.245-0.087-4.44-1.647-6.676-5.066c0,0,0.013,2.911,0.283,6.031
	c0.829,1.162,2.208,2.969,2.745,2.969c0.79,0,3.647-3.576,3.647-3.576s2.836,3.576,3.695,3.576c0.618,0,1.916-1.742,2.695-2.926
	c0.275-3.135,0.286-6.074,0.286-6.074C36.418,52.888,32.222,54.448,31.977,54.535"/>
<path fill="#FFCC66" d="M32,6.489c-11.609,0-17.201,9.455-16.502,21.611c0.143,2.443,0.822,5.969,1.661,8.989
	c1.741,6.277,10.929,12.6,14.841,12.6c3.912,0,13.1-6.322,14.841-12.6c0.839-3.021,1.519-6.546,1.663-8.989
	C49.202,15.944,43.612,6.489,32,6.489z"/>
<path fill="#D47706" d="M32.001,39.662c-2.822-1.241-2.844-0.051-7.2,0.242c1.636,1.855,2.839,4.243,7.198,4.243
	c5.003,0,5.849-2.711,7.204-4.243C34.844,39.611,34.824,38.421,32.001,39.662z"/>
<path fill="#FFFFFF" d="M26.109,40.366c2.844,2.96,8.977,2.921,11.785,0.001C33.516,40.838,30.489,40.838,26.109,40.366z"/>
<path fill="#594640" d="M44.796,23.685c-2.616-1.56-7.308-1.75-9.165-0.688c-0.394,0.214-0.287,1.341,0.053,1.2
	c2.648-1.104,6.682-1.158,9.168,0.117C45.185,24.483,45.191,23.911,44.796,23.685z"/>
<path fill="#594640" d="M19.208,23.685c2.615-1.56,7.307-1.75,9.166-0.688c0.394,0.214,0.289,1.341-0.054,1.2
	c-2.648-1.104-6.68-1.159-9.167,0.117C18.819,24.483,18.812,23.911,19.208,23.685z"/>
<path fill="#E6B045" d="M35.602,35.42c0,2.342-7.201,2.342-7.201,0C28.401,34.882,35.602,34.882,35.602,35.42z"/>
<path fill="#FFFFFF" d="M44.543,28.432c-1.552,4.06-7.861,3.464-9.017,0.623C36.402,24.489,43.689,24.099,44.543,28.432z"/>
<path fill="#613F34" d="M37.107,27.99c0,3.596,5.2,3.596,5.2,0C42.308,24.652,37.107,24.652,37.107,27.99z"/>
<path fill="#7D5037" d="M37.621,29.14c0,2.063,4.172,2.063,4.172,0C41.793,27.227,37.621,27.227,37.621,29.14z"/>
<path fill="#1A1626" d="M38.628,28.047c0,1.492,2.159,1.492,2.159,0C40.787,26.661,38.628,26.661,38.628,28.047z"/>
<path fill="#AB968C" d="M37.891,27.61c0,0.754,1.09,0.754,1.09,0C38.98,26.911,37.891,26.911,37.891,27.61z"/>
<path fill="#45332C" d="M44.543,28.4c0-4.361-9.017-4.361-9.017,0.69C36.813,24.945,43.256,24.945,44.543,28.4z"/>
<path fill="#FFFFFF" d="M19.46,28.432c1.552,4.06,7.862,3.466,9.019,0.623C27.603,24.489,20.315,24.099,19.46,28.432z"/>
<path fill="#613F34" d="M21.696,27.995c0,3.596,5.2,3.596,5.2,0C26.896,24.658,21.696,24.658,21.696,27.995z"/>
<path fill="#7D5037" d="M22.209,29.146c0,2.063,4.172,2.063,4.172,0C26.381,27.232,22.209,27.232,22.209,29.146z"/>
<path fill="#1A1626" d="M23.216,28.052c0,1.492,2.159,1.492,2.159,0C25.375,26.667,23.216,26.667,23.216,28.052z"/>
<path fill="#AB968C" d="M22.479,27.616c0,0.754,1.09,0.754,1.09,0C23.569,26.916,22.479,26.916,22.479,27.616z"/>
<path fill="#45332C" d="M19.46,28.4c0-4.361,9.019-4.361,9.019,0.688C27.192,24.944,20.749,24.944,19.46,28.4z"/>
<path fill="#594640" d="M43.901,8.18c-7.467,8.342-0.341,8.881,4.059,20.607c2.469,6.571,4.031,14.736,5.714,2.976
	C55.776,17.068,47.696,6.952,43.901,8.18z"/>
<path fill="#594640" d="M25.571,4.985c-9.47,2.43-18.298,11.552-14.807,29.505c2.064,10.613,2.927-3.805,4.688-7.478
	c8.983-5.827,26.114-10.613,28.449-18.833C45.086,6.283,35.047,2.279,25.571,4.985z"/>
<path fill="#453631" d="M18.315,18.063c4.005-0.885,23.163-1.302,25.586-9.883C39.374,12.113,34.684,13.185,18.315,18.063z"/>
<path fill="#453631" d="M11.411,31.711c6.718-9.774,28.726-8.695,32.491-23.531C36.594,20.632,13.247,22.315,11.411,31.711z"/>
<path fill="#453631" d="M41.687,10.214c-1.733,2.977,4.291-1.398,10.785,17.785C50.87,16.784,45.384,9.062,41.687,10.214z"/>
<path opacity="0.2" d="M11.11,17.347c0,0-0.117,0.482-0.299,1.298C14.056,22.148,24.477,24,32.007,24
	c7.536,0,17.875-1.852,21.115-5.355c-0.157-0.813-0.29-1.229-0.29-1.229L11.11,17.347z"/>
<path fill="#302C3B" d="M51.721,16c0,0,20.647-14-19.72-14C-8.366,2,12.278,16,12.278,16s7.223-3.002,19.748-3
	C44.52,13.002,51.721,16,51.721,16"/>
<path fill="#302C3B" d="M32,13c-12.827,0-21.59,1.705-21.59,4.545C10.411,21.096,23.12,23,32,23c8.881,0,21.59-1.904,21.59-5.455
	C53.591,14.705,44.829,13,32,13"/>
<path fill="#F9C802" d="M12.683,15c0,0,18.854-5.143,38.636,0C51.319,15,33.438,6,12.683,15"/>
<path fill="#F9C802" d="M36.331,4.5c-0.928,0-2.637,1.025-3.08,1.301c-0.748-0.396-1.754-0.396-2.5,0
	C30.308,5.525,28.599,4.5,27.671,4.5c-1.86,0-5.897,1.4-5.897,2.004c0,0.26,3.914-0.578,7.999,1.404c0.418,2.119,4.04,2.119,4.457,0
	c4.085-1.982,7.999-1.145,7.999-1.404C42.229,5.9,38.192,4.5,36.331,4.5z"/>
<path fill="#F9C802" d="M46.479,19.088c0.031,0.01,2.22-2.123,1.264-1.875c-0.922,0.258-2.646,1.336-2.439,2.137
	c0.206,0.816,2.421,1.016,3.429,0.734C49.71,19.832,46.454,19.113,46.479,19.088"/>
<path fill="#F9C802" d="M42.984,19.588c0.03,0.012,2.32-2.027,1.353-1.82c-0.93,0.219-2.703,1.223-2.541,2.033
	c0.164,0.824,2.362,1.115,3.377,0.875C46.161,20.465,42.959,19.611,42.984,19.588"/>
<path fill="#F9C802" d="M39.469,19.988c0.03,0.014,2.418-1.928,1.443-1.762c-0.936,0.182-2.757,1.111-2.639,1.926
	c0.121,0.83,2.295,1.211,3.32,1.014C42.592,20.996,39.445,20.012,39.469,19.988"/>
<path fill="#F9C802" d="M35.938,20.291c0.032,0.016,2.514-1.826,1.533-1.699c-0.945,0.141-2.807,0.996-2.732,1.814
	c0.076,0.834,2.225,1.303,3.26,1.148C39,21.426,35.913,20.313,35.938,20.291"/>
<path fill="#F9C802" d="M18.7,19.35c0.205-0.801-1.518-1.877-2.439-2.137c-0.957-0.246,1.231,1.887,1.262,1.875
	c0.021,0.025-3.229,0.742-2.251,0.996C16.278,20.365,18.492,20.166,18.7,19.35"/>
<path fill="#F9C802" d="M22.207,19.801c0.159-0.811-1.611-1.813-2.541-2.033c-0.968-0.207,1.322,1.832,1.354,1.82
	c0.022,0.023-3.179,0.877-2.19,1.088C19.845,20.914,22.042,20.625,22.207,19.801"/>
<path fill="#F9C802" d="M25.729,20.152c0.117-0.814-1.703-1.744-2.642-1.926c-0.974-0.166,1.416,1.775,1.447,1.762
	c0.022,0.023-3.122,1.008-2.126,1.178C23.432,21.363,25.607,20.982,25.729,20.152"/>
<path fill="#F9C802" d="M29.262,20.406c0.075-0.818-1.788-1.674-2.734-1.814c-0.979-0.127,1.504,1.715,1.534,1.699
	c0.026,0.021-3.06,1.137-2.058,1.264C27.037,21.711,29.187,21.24,29.262,20.406"/>
</svg>
