<?xml version="1.0" encoding="utf-8"?>
<!-- Generator: Adobe Illustrator 15.0.0, SVG Export Plug-In . SVG Version: 6.00 Build 0)  -->
<!DOCTYPE svg PUBLIC "-//W3C//DTD SVG 1.1//EN" "http://www.w3.org/Graphics/SVG/1.1/DTD/svg11.dtd" [
	<!ENTITY ns_flows "http://ns.adobe.com/Flows/1.0/">
	<!ENTITY ns_extend "http://ns.adobe.com/Extensibility/1.0/">
	<!ENTITY ns_ai "http://ns.adobe.com/AdobeIllustrator/10.0/">
	<!ENTITY ns_graphs "http://ns.adobe.com/Graphs/1.0/">
]>
<svg version="1.1" id="Layer_1" xmlns:x="&ns_extend;" xmlns:i="&ns_ai;" xmlns:graph="&ns_graphs;"
	 xmlns="http://www.w3.org/2000/svg" xmlns:xlink="http://www.w3.org/1999/xlink" xmlns:a="http://ns.adobe.com/AdobeSVGViewerExtensions/3.0/"
	 x="0px" y="0px" width="64px" height="64px" viewBox="0 0 64 64" enable-background="new 0 0 64 64" xml:space="preserve">
<path fill="#854AB8" d="M8.106,27.321c-0.572,7.351,0.697,12.644,5.262,17.022c5.375,5.159,20.928,5.159,26.303,0
	c4.564-4.378,5.834-9.671,5.262-17.022C43.282,6.139,9.188,13.451,8.106,27.321z"/>
<path fill="#302C3B" d="M8.138,53.711c2.234-1.221,11.51-4.451,11.51-4.451h13.818c0,0,9.266,3.223,11.488,4.448
	c3.23,1.78,3.912,8.292,3.912,8.292H4.175C4.175,62,4.896,55.481,8.138,53.711z"/>
<polygon fill="#FFCC66" points="20.284,51.9 26.519,61.187 32.757,51.9 32.757,44 20.284,44 "/>
<path fill="#1A1626" d="M8.138,53.711c7.889-4.287,12.916-0.486,12.916-0.486L26.519,62C26.519,62,18.149,52.854,8.138,53.711z"/>
<path fill="#4E5E67" d="M6.743,53.094c7.523-8.037,13.531-6.93,13.531-6.93c-2.334,5.045,0.176,7.507,6.244,14.829V62
	C26.519,62,18.077,51.385,6.743,53.094z"/>
<path fill="#AA5BEF" d="M8.368,52.367c5.713-5.826,11.906-6.02,11.906-6.02c0,5.832,0.809,5.788,6.244,14.646
	C26.519,60.993,18.792,51.209,8.368,52.367z"/>
<path fill="#1A1626" d="M9.519,62c0.475-1.641-0.084-4.137-0.678-5.51C8.288,55.209,8.497,61.098,9.519,62z"/>
<path fill="#1A1626" d="M44.2,56.49c-0.596,1.373-1.154,3.869-0.678,5.51C44.542,61.098,44.753,55.209,44.2,56.49z"/>
<path fill="#1A1626" d="M44.903,53.711c-7.891-4.287-12.918-0.486-12.918-0.486L26.521,62C26.521,62,34.89,52.854,44.903,53.711z"/>
<path fill="#4E5E67" d="M46.296,53.094c-7.523-8.037-13.531-6.93-13.531-6.93c2.336,5.045-0.176,7.507-6.244,14.829V62
	C26.521,62,34.964,51.385,46.296,53.094z"/>
<path fill="#AA5BEF" d="M44.671,52.367c-5.713-5.826-11.906-6.02-11.906-6.02c0,5.832-0.807,5.788-6.244,14.646
	C26.521,60.993,34.247,51.209,44.671,52.367z"/>
<path fill="#E6B045" d="M19.698,45.689c6.203,7.16,7.449,7.155,13.648-0.004L19.698,45.689z"/>
<path fill="#FFCC66" d="M26.521,5.748c-11.609,0-17.201,9.455-16.502,21.611c0.143,2.443,0.822,5.969,1.661,8.988
	c1.741,6.279,10.929,12.601,14.841,12.601c3.911,0,13.1-6.321,14.841-12.601c0.839-3.02,1.519-6.545,1.663-8.988
	C43.722,15.203,38.132,5.748,26.521,5.748z"/>
<path fill="#FFFFFF" d="M39.063,27.69c-1.552,4.06-7.861,3.464-9.017,0.624C30.922,23.748,38.209,23.357,39.063,27.69z"/>
<path fill="#FFFFFF" d="M13.98,27.69c1.552,4.06,7.862,3.466,9.019,0.624C22.123,23.748,14.835,23.357,13.98,27.69z"/>
<path fill="#854AB8" d="M26.521,38.92c-2.822-1.24-2.844-0.05-7.2,0.242c1.636,1.856,2.839,4.244,7.198,4.244
	c5.003,0,5.849-2.711,7.203-4.244C29.363,38.87,29.344,37.68,26.521,38.92z"/>
<path fill="#FFFFFF" d="M20.629,39.625c2.844,2.959,8.977,2.92,11.784,0.002C28.035,40.097,25.009,40.097,20.629,39.625z"/>
<path fill="#594640" d="M39.315,22.943c-2.616-1.559-7.308-1.75-9.165-0.688c-0.394,0.214-0.287,1.341,0.053,1.2
	c2.648-1.103,6.682-1.158,9.168,0.117C39.704,23.742,39.711,23.17,39.315,22.943z"/>
<path fill="#594640" d="M13.728,22.943c2.615-1.559,7.307-1.75,9.166-0.688c0.394,0.214,0.289,1.341-0.054,1.2
	c-2.648-1.103-6.68-1.159-9.167,0.117C13.339,23.742,13.332,23.17,13.728,22.943z"/>
<path fill="#E6B045" d="M30.121,34.678c0,2.342-7.2,2.342-7.2,0C22.921,34.141,30.121,34.141,30.121,34.678z"/>
<path fill="#613F34" d="M31.627,27.249c0,3.596,5.2,3.596,5.2,0C36.827,23.912,31.627,23.912,31.627,27.249z"/>
<path fill="#7D5037" d="M32.141,28.399c0,2.062,4.172,2.062,4.172,0C36.313,26.486,32.141,26.486,32.141,28.399z"/>
<path fill="#1A1626" d="M33.147,27.306c0,1.492,2.159,1.492,2.159,0C35.307,25.92,33.147,25.92,33.147,27.306z"/>
<path fill="#AB968C" d="M32.41,26.87c0,0.754,1.09,0.754,1.09,0C33.5,26.17,32.41,26.17,32.41,26.87z"/>
<path fill="#613F34" d="M16.216,27.254c0,3.595,5.2,3.595,5.2,0C21.416,23.917,16.216,23.917,16.216,27.254z"/>
<path fill="#7D5037" d="M16.729,28.405c0,2.062,4.172,2.062,4.172,0C20.901,26.491,16.729,26.491,16.729,28.405z"/>
<path fill="#1A1626" d="M17.736,27.311c0,1.492,2.159,1.492,2.159,0C19.896,25.926,17.736,25.926,17.736,27.311z"/>
<path fill="#AB968C" d="M16.999,26.875c0,0.754,1.09,0.754,1.09,0C18.089,26.175,16.999,26.175,16.999,26.875z"/>
<path fill="#45332C" d="M39.063,27.659c0-4.361-9.017-4.361-9.017,0.691C31.332,24.205,37.775,24.205,39.063,27.659z"/>
<path fill="#45332C" d="M13.98,27.659c0-4.361,9.019-4.361,9.019,0.689C21.712,24.203,15.269,24.203,13.98,27.659z"/>
<path fill="#AA5BEF" d="M39.884,43.633c6.673-13.854,0.174-29.597-5.576-31.7C37.745-1.664,58.558,25.571,39.884,43.633z"/>
<path fill="#C28FEF" d="M44.537,40.553C51.62,15.899,33.286,9.524,36.523,5.302C38.525-0.881,57.795,20.202,44.537,40.553z"/>
<path fill="#854AB8" d="M36.859,8.717c-2.559,2.466,6.011,1.516,9.313,20.477C45.995,12.982,38.159,7.481,36.859,8.717z"/>
<path fill="#C28FEF" d="M26.712,4.734C8.728,4.908-1.183,27.082,7.138,46.627c-0.094-2.93-1.965-21.049,19.953-28.813
	C38.542,13.758,39.399,4.609,26.712,4.734z"/>
<path fill="#AA5BEF" d="M3.578,41.395C3.78,18.482,30.207,23.649,39.598,7.116C41.466-4.574-1.77,4.314,3.578,41.395z"/>
<path fill="#C28FEF" d="M2,28.188C8.9,7.875,35.723,8.67,36.789,6.133C39.605-0.578,5.5-2.664,2,28.188z"/>
<path fill="#854AB8" d="M13.457,17.075c4.093-0.892,23.666-1.313,26.141-9.959C34.973,11.08,30.182,12.159,13.457,17.075z"/>
<path fill="#854AB8" d="M6.402,30.83c6.865-9.85,29.351-8.763,33.195-23.714C32.132,19.664,8.279,21.361,6.402,30.83z"/>
<rect x="56" y="54" fill-rule="evenodd" clip-rule="evenodd" fill="#4E5E67" width="1.332" height="8"/>
<rect x="56.666" y="54" fill-rule="evenodd" clip-rule="evenodd" fill="#302C3B" width="1.334" height="8"/>
<path fill="#302C3B" d="M39.83,45.08c2.021,1.711,5.051,1.615,6.957-0.293c1.906-1.906,2.004-4.934,0.295-6.957L39.83,45.08z"/>
<path fill="#302C3B" d="M39.506,37.506c-1.904,1.908-2.002,4.938-0.295,6.957l7.254-7.25C44.441,35.502,41.414,35.602,39.506,37.506
	z"/>
<path fill="#4E5E67" d="M46.582,37.094l-7.488,7.492c0.094,0.107,0.506,0.521,0.617,0.615l7.49-7.488
	C47.107,37.6,46.693,37.188,46.582,37.094z"/>
<path fill="#6E8189" d="M40.428,43.25l-1.002,1.002c0.1,0.102,0.516,0.516,0.615,0.617l1.006-1.004
	C40.945,43.764,40.533,43.348,40.428,43.25z"/>
<path fill-rule="evenodd" clip-rule="evenodd" fill="#4E5E67" d="M38.98,43.361c0.422,0.555,0.307-3.094,0.408-4.842
	C39.455,37.396,37.271,41.109,38.98,43.361z"/>
<polygon fill="#302C3B" points="42.881,46.287 44.268,46.947 58.309,58.305 58.795,57.816 61.576,60 62,59.576 59.816,56.797 
	60.303,56.311 48.947,42.268 48.287,40.881 "/>
<polygon fill="#4E5E67" points="45.551,45.666 44.361,44.807 43.176,45.992 44.564,46.652 58.564,58.047 59.053,57.557 "/>
<polygon fill="#4E5E67" points="48.965,51.033 51.057,52.908 54.906,49.057 53.033,46.967 "/>
<polygon fill="#6E8189" points="49.223,50.777 51.32,52.643 52.182,51.783 50.082,49.92 "/>
<rect x="58.061" y="57.23" transform="matrix(0.7068 -0.7075 0.7075 0.7068 -23.2197 58.9267)" fill="#4E5E67" width="2.822" height="0.486"/>
<polygon fill="#6E8189" points="59.053,57.557 58.564,58.047 58.895,58.396 59.393,57.896 "/>
</svg>
