<?xml version="1.0" encoding="utf-8"?>
<!-- Generator: Adobe Illustrator 19.0.0, SVG Export Plug-In . SVG Version: 6.00 Build 0)  -->
<svg version="1.1" id="Layer_1" xmlns="http://www.w3.org/2000/svg" xmlns:xlink="http://www.w3.org/1999/xlink" x="0px" y="0px"
	 width="64px" height="64px" viewBox="0 0 64 64" enable-background="new 0 0 64 64" xml:space="preserve">
<path fill="#947D41" d="M13.076,13.402C4.363,50.8,5.16,49.999,23.502,49.999C13.352,42.898,32.795,12.893,13.076,13.402z"/>
<path fill="#BA9D52" d="M9.934,12.823c-6.359,28.413-0.873,35.709,3.998,37.176h5.582C6.453,40.797,26.869,12.265,9.934,12.823z"/>
<path fill="#947D41" d="M38.709,13.401c8.713,37.396,7.914,36.596-10.426,36.596C37.617,44.299,18.99,12.892,38.709,13.401z"/>
<path fill="#BA9D52" d="M41.85,12.822c9.295,25.85-0.019,35.979-3.998,37.175h-5.58C45.334,41.547,24.918,12.263,41.85,12.822z"/>
<path fill="#EFDE8B" d="M43.397,26.713c2.691,6.571,0.029,20.058-5.545,23.286c6.178,0,9.939-8.55,11.773-20.311
	C51.918,14.994,38.602,14.986,43.397,26.713z"/>
<path fill="#EFDE8B" d="M2.85,32.415C5.1,43.029,7.869,49.999,13.932,49.999C7.172,43,7.967,28.238,9.889,24.565
	C19.682,18.738-0.957,14.463,2.85,32.415z"/>
<path fill="#018BC9" d="M6.254,52.412c2.402-1.413,12.365-5.147,12.365-5.147h14.84c0,0,9.953,3.727,12.338,5.146
	C49.27,54.467,50,62,50,62H2C2,62,2.773,54.46,6.254,52.412"/>
<rect x="19.301" y="43.781" fill="#D6A67A" width="13.398" height="7.186"/>
<path fill="#006DAE" d="M8.145,62c0.512-1.899-0.09-4.786-0.729-6.375C6.824,54.144,7.047,60.954,8.145,62"/>
<rect x="26" y="54.992" fill="#006DAE" width="3" height="7.008"/>
<path fill="#018BC9" d="M28.541,59.396c0,1.156-2.086,1.156-2.086,0C26.455,58.24,28.541,58.24,28.541,59.396z"/>
<path fill="#FFFFFF" d="M32,47.884c-1.842,0.778-3.881,1.226-6,1.226c-2.123,0-4.162-0.447-6-1.227l6,10.224L32,47.884z"/>
<g>
	<g>
		<path fill="#006DAE" d="M17.475,46.861c-1.818,4.161-0.971,6.818-0.971,6.818c1.529-1.044,4.537-2.196,4.537-2.198
			c-1.088,1.166-1.953,3.078-1.953,3.078C22.354,54.955,26,58.105,26,58.105S20.926,47.029,17.475,46.861z"/>
		<path fill="#018BC9" d="M19.744,44.711c0,0-0.896-0.281-1.281,0.245c-2.248,3.125-1.5,7.545-1.5,7.545
			c1.533-1.044,4.592-1.354,4.592-1.355C20.465,52.311,20,53.624,20,53.624c2.307,0.825,6,4.481,6,4.481
			S22.916,51.343,19.744,44.711z"/>
	</g>
	<g>
		<path fill="#006DAE" d="M34.523,46.861c1.816,4.161,0.971,6.818,0.971,6.818c-1.529-1.044-4.539-2.196-4.539-2.198
			c1.092,1.166,1.955,3.078,1.955,3.078C29.643,54.955,26,58.105,26,58.105S31.072,47.029,34.523,46.861z"/>
		<path fill="#018BC9" d="M32.256,44.711c0,0,0.895-0.281,1.277,0.245c2.248,3.125,1.5,7.545,1.5,7.545
			c-1.531-1.044-4.59-1.354-4.592-1.355C31.533,52.311,32,53.624,32,53.624c-2.309,0.825-6,4.481-6,4.481
			S29.08,51.343,32.256,44.711z"/>
	</g>
</g>
<path fill="#E3C19B" d="M26,4.415c-11.609,0-17.201,9.455-16.502,21.611c0.143,2.443,0.822,5.969,1.66,8.988
	C12.9,41.293,22.088,47.615,26,47.615c3.91,0,13.1-6.322,14.84-12.601c0.84-3.02,1.52-6.545,1.664-8.988
	C43.201,13.87,37.611,4.415,26,4.415z"/>
<g>
	<path fill="#C97E55" d="M26,37.587c-2.822-1.24-2.844-0.05-7.199,0.242c1.635,1.857,2.838,4.244,7.197,4.244
		c5.004,0,5.85-2.711,7.203-4.244C28.842,37.537,28.822,36.347,26,37.587z"/>
	<path fill="#FFFFFF" d="M20.107,38.292c2.844,2.959,8.977,2.92,11.785,0.001C27.514,38.764,24.488,38.764,20.107,38.292z"/>
</g>
<g>
	<g>
		<g>
			<path fill="#594640" d="M38.795,21.61c-2.617-1.56-7.309-1.75-9.166-0.688c-0.393,0.214-0.287,1.341,0.053,1.2
				c2.649-1.104,6.682-1.158,9.168,0.117C39.184,22.409,39.189,21.837,38.795,21.61z"/>
		</g>
		<g>
			<path fill="#594640" d="M13.207,21.61c2.615-1.56,7.307-1.75,9.166-0.688c0.393,0.214,0.289,1.341-0.055,1.2
				c-2.648-1.104-6.68-1.159-9.166,0.117C12.818,22.409,12.811,21.837,13.207,21.61z"/>
		</g>
	</g>
</g>
<path fill="#D6A67A" d="M29.6,33.345c0,2.342-7.199,2.342-7.199,0C22.4,32.807,29.6,32.807,29.6,33.345z"/>
<g>
	<g>
		<path fill="#FFFFFF" d="M38.541,26.357c-1.551,4.06-7.861,3.464-9.016,0.623C30.4,22.415,37.688,22.024,38.541,26.357z"/>
		<g>
			<path fill="#613F34" d="M31.106,25.916c0,3.596,5.201,3.596,5.201,0C36.307,22.578,31.106,22.578,31.106,25.916z"/>
			<path fill="#7D5037" d="M31.619,27.065c0,2.063,4.172,2.063,4.172,0C35.791,25.152,31.619,25.152,31.619,27.065z"/>
			<path fill="#1A1626" d="M32.627,25.973c0,1.492,2.158,1.492,2.158,0C34.785,24.587,32.627,24.587,32.627,25.973z"/>
			<path fill="#AB968C" d="M31.889,25.536c0,0.754,1.09,0.754,1.09,0C32.979,24.837,31.889,24.837,31.889,25.536z"/>
		</g>
		<path fill="#45332C" d="M38.541,26.326c0-4.361-9.016-4.361-9.016,0.69C30.811,22.871,37.254,22.871,38.541,26.326z"/>
	</g>
	<g>
		<path fill="#FFFFFF" d="M13.459,26.357c1.553,4.06,7.863,3.466,9.02,0.623C21.602,22.415,14.314,22.024,13.459,26.357z"/>
		<g>
			<path fill="#613F34" d="M15.695,25.921c0,3.596,5.199,3.596,5.199,0C20.895,22.584,15.695,22.584,15.695,25.921z"/>
			<path fill="#7D5037" d="M16.209,27.071c0,2.063,4.172,2.063,4.172,0C20.381,25.158,16.209,25.158,16.209,27.071z"/>
			<path fill="#1A1626" d="M17.215,25.977c0,1.492,2.16,1.492,2.16,0C19.375,24.593,17.215,24.593,17.215,25.977z"/>
			<path fill="#AB968C" d="M16.479,25.542c0,0.754,1.09,0.754,1.09,0C17.568,24.842,16.479,24.842,16.479,25.542z"/>
		</g>
		<path fill="#45332C" d="M13.459,26.326c0-4.361,9.02-4.361,9.02,0.689C21.191,22.87,14.748,22.87,13.459,26.326z"/>
	</g>
</g>
<path fill="#EFDE8B" d="M38.973,6.105c-8.141,8.342-0.371,8.881,4.424,20.607c2.691,6.571,4.395,14.736,6.229,2.976
	C51.918,14.994,43.109,4.878,38.973,6.105z"/>
<path fill="#EFDE8B" d="M18.99,2.911C8.666,5.341-0.957,14.463,2.85,32.415c2.25,10.614,5.117-4.177,7.039-7.85
	c9.793-5.827,26.539-10.24,29.084-18.46C40.264,4.209,29.32,0.205,18.99,2.911z"/>
<path fill="#BA9D52" d="M11.08,15.988c4.365-0.885,25.25-1.302,27.892-9.883C34.037,10.039,28.924,11.11,11.08,15.988z"/>
<path fill="#BA9D52" d="M3.553,29.637c7.324-9.774,31.316-8.695,35.42-23.531C31.006,18.557,5.555,20.241,3.553,29.637z"/>
<path fill="#BA9D52" d="M36.559,8.14c-1.891,2.977,4.678-1.398,11.756,17.785C46.57,14.71,40.588,6.987,36.559,8.14z"/>
<path fill="#018BC9" d="M54.178,62H43.49c0,0,2.777-4.175,4.502-4.109C56.889,58.226,54.178,62,54.178,62z"/>
<path fill="#D6A67A" d="M51.879,46.344c0.277-1.473,3.281,0.239,2.133,2.165c-0.465,0.778,6.137,7.053,5.732,8.484
	c-0.725,2.576-6.104,3.71-6.463,4.691c-0.361,0.98-6.051-2.607-5.119-3.358c3.059-2.464,0.633-2.803,2.363-5.719
	C51.824,50.415,51.506,48.315,51.879,46.344z"/>
<rect x="52.643" y="35.581" fill="#99A8AE" width="5.504" height="26.419"/>
<path fill="#6E8189" d="M52.643,39.063c0.838,0.392,1.767,0.618,2.754,0.618c0.984,0,1.914-0.227,2.75-0.618v-2.781h-5.504V39.063z"
	/>
<path fill="#99A8AE" d="M58.147,25.977v6.55l-2.75,2.145l-2.754-2.145v-6.55c-2.271,1.044-3.852,3.333-3.852,5.998
	c0,3.648,2.957,6.605,6.605,6.605c3.646,0,6.604-2.957,6.604-6.605C62,29.31,60.42,27.021,58.147,25.977z"/>
<path fill="#6E8189" d="M61.449,31.718c0-0.477-0.051-0.945-0.148-1.394c0.238,0.633,0.367,1.317,0.367,2.031
	c0,3.001-2.295,5.483-5.281,5.893C59.309,37.424,61.449,34.813,61.449,31.718z"/>
<path fill="#CFD8DD" d="M52.643,26.208c-1.859,0.838-3.225,2.628-3.521,4.775c0.539-1.903,1.83-3.476,3.521-4.34V26.208z"/>
<path fill="#E3C19B" d="M59.193,49.799c1.762,0.693,1.133,2.217,0.734,2.649c1.221,1.035,0.861,2.5,0.516,2.854
	c1.242,3.505-9.172,3.958-5.264,1.389c-3.162-0.185-1.318-2.007,0.379-2.673c-4.307,1.066-2.846-1.545,0.611-2.621
	C50.256,52.788,59.203,43.605,59.193,49.799z"/>
</svg>
