<?xml version="1.0" encoding="utf-8"?>
<!-- Generator: Adobe Illustrator 15.0.0, SVG Export Plug-In . SVG Version: 6.00 Build 0)  -->
<!DOCTYPE svg PUBLIC "-//W3C//DTD SVG 1.1//EN" "http://www.w3.org/Graphics/SVG/1.1/DTD/svg11.dtd" [
	<!ENTITY ns_flows "http://ns.adobe.com/Flows/1.0/">
	<!ENTITY ns_extend "http://ns.adobe.com/Extensibility/1.0/">
	<!ENTITY ns_ai "http://ns.adobe.com/AdobeIllustrator/10.0/">
	<!ENTITY ns_graphs "http://ns.adobe.com/Graphs/1.0/">
]>
<svg version="1.1" id="Layer_1" xmlns:x="&ns_extend;" xmlns:i="&ns_ai;" xmlns:graph="&ns_graphs;"
	 xmlns="http://www.w3.org/2000/svg" xmlns:xlink="http://www.w3.org/1999/xlink" xmlns:a="http://ns.adobe.com/AdobeSVGViewerExtensions/3.0/"
	 x="0px" y="0px" width="64px" height="64px" viewBox="0 0 64 64" enable-background="new 0 0 64 64" xml:space="preserve">
<path fill="#302C3B" d="M9.79,51.273c2.698-1.582,15.135-5.76,15.135-5.76h14.24c0,0,12.425,4.168,15.112,5.758
	C58.18,53.572,59,62,59,62H5C5,62,5.871,53.564,9.79,51.273"/>
<path fill="#D6A67A" d="M23.36,48.93c0,3.541,5.826,5.305,8.61,5.295c2.784-0.012,8.669-1.82,8.669-5.295V38.705H23.36V48.93z"/>
<path fill="#1A1626" d="M53.665,54.867c-0.733,1.779-1.424,5.01-0.837,7.133C54.092,60.832,54.347,53.211,53.665,54.867"/>
<path fill="#1A1626" d="M11.172,62c0.589-2.123-0.104-5.354-0.837-7.133C9.653,53.211,9.911,60.832,11.172,62"/>
<path fill="#1A1626" d="M21.396,47.08c0,0-2.378,3.141-3.375,5.721l3.837,2.014c0,0-2.616,2.658-3.033,3.168
	c0,0,2.649,2.959,3.033,4.018h1.097c0,0-1.369-2.475-2.689-4.018c0,0,1.679-2.479,2.689-3.352l-3.519-2.293
	C19.437,52.338,20.4,49.104,21.396,47.08"/>
<path fill="#1A1626" d="M42.604,47.08c0,0,2.378,3.141,3.375,5.721l-3.835,2.014c0,0,2.614,2.658,3.031,3.168
	c0,0-2.646,2.959-3.031,4.018h-1.099c0,0,1.369-2.475,2.691-4.018c0,0-1.681-2.479-2.691-3.352l3.521-2.293
	C44.565,52.338,43.602,49.104,42.604,47.08"/>
<path fill="#E6EBEF" d="M38.568,62c1.966-3.244,2.013-13.07,2.013-13.07c-2.884,3.566-8.296,5.193-8.61,5.285
	c-0.316-0.092-5.728-1.719-8.61-5.285c0,0,0.044,9.826,2.012,13.07H38.568z"/>
<path fill="#F9C802" d="M49.352,59.008c-0.302,0-0.831,0.295-1.042,0.422c-0.291-0.211-0.713-0.211-1.002,0
	c-0.213-0.127-0.74-0.422-1.044-0.422c-0.66,0-2.101,0.49-2.101,0.701c0,0.09,1.406-0.195,2.866,0.508c0.156,0.83,1.4,0.83,1.557,0
	c1.46-0.703,2.866-0.418,2.866-0.508C51.452,59.498,50.012,59.008,49.352,59.008z"/>
<polygon fill="#302C3B" points="34.816,62 33.902,58.316 34.907,56.232 31.958,54.225 29.093,56.232 30.1,58.316 29.187,62 "/>
<path fill="#FFFFFF" d="M31.971,54.215c-0.316-0.092-5.728-1.719-8.61-5.285c0,0,0.017,3.037,0.367,6.291
	c1.069,1.209,2.848,3.096,3.539,3.096c1.017,0,4.704-3.729,4.704-3.729s3.657,3.729,4.765,3.729c0.795,0,2.471-1.818,3.475-3.051
	c0.354-3.271,0.371-6.336,0.371-6.336C37.697,52.496,32.285,54.123,31.971,54.215"/>
<path fill="#D6A67A" d="M14.901,24.237c-5.719-1.031-1.252,14.957,3.225,10.546C20.198,32.74,17.575,24.72,14.901,24.237z"/>
<path fill="#D6A67A" d="M49.101,24.237c-2.674,0.483-5.299,8.503-3.223,10.546C50.354,39.193,54.815,23.206,49.101,24.237z"/>
<path fill="#E3C19B" d="M32.001,5.489c-11.824,0-17.521,8.945-16.807,21.384c0.143,2.503,1.693,10.665,3.158,13.592
	c1.498,2.996,6.512,7.615,9.584,8.57c1.939,0.604,6.188,0.604,8.127,0c3.072-0.955,8.086-5.574,9.586-8.57
	c1.465-2.928,3.016-11.089,3.158-13.592C49.522,14.434,43.825,5.489,32.001,5.489z"/>
<path fill="#BF8C6B" d="M32.001,39.35c-2.66-0.781-6.6,0.371-6.6,0.371c1.5,1.635,2.6,3.756,6.6,3.756
	c4.582,0,5.359-2.408,6.6-3.756C38.601,39.721,34.657,38.564,32.001,39.35z"/>
<path fill="#FFFFFF" d="M26.407,39.996c2.787,2.34,8.418,2.355,11.221,0C34.657,40.125,29.399,40.125,26.407,39.996z"/>
<path fill="#D6A67A" d="M35.667,34.953c0,2.385-7.332,2.385-7.332,0C28.335,34.404,35.667,34.404,35.667,34.953z"/>
<path fill="#BA9D52" d="M47.577,20.076c1.146,5.818,0.414,7.426,0.785,10.163c0.728-2.707,1.178-5.086,1.39-10.163H47.577z"/>
<path fill="#BA9D52" d="M16.428,20.076h-2.219c0.31,5.453,0.787,7.921,1.435,10.163C16.013,27.5,15.179,26.358,16.428,20.076z"/>
<path fill="#FFFFFF" d="M44.659,27.834c-1.58,4.136-8.008,3.529-9.186,0.635C36.368,23.82,43.792,23.422,44.659,27.834z"/>
<path fill="#FFFFFF" d="M19.341,27.834c1.58,4.136,8.01,3.529,9.186,0.635C27.632,23.818,20.21,23.42,19.341,27.834z"/>
<path fill="#BF8C6B" d="M45.315,22.856c-2.705-1.342-7.879-1.407-9.807-0.472c-0.412,0.182-0.141,1.454,0.207,1.332
	c2.688-0.995,7.02-1.019,9.535,0.086C45.585,23.944,45.726,23.044,45.315,22.856z"/>
<path fill="#BF8C6B" d="M18.687,22.856c2.703-1.342,7.877-1.407,9.807-0.472c0.412,0.182,0.141,1.454-0.207,1.332
	c-2.691-0.995-7.02-1.019-9.537,0.086C18.415,23.944,18.276,23.044,18.687,22.856z"/>
<path fill="#613F34" d="M37.114,27.394c0,3.629,5.25,3.629,5.25,0C42.364,24.025,37.114,24.025,37.114,27.394z"/>
<path fill="#7D5037" d="M37.634,28.555c0,2.081,4.211,2.081,4.211,0C41.845,26.624,37.634,26.624,37.634,28.555z"/>
<path fill="#1A1626" d="M38.649,27.451c0,1.507,2.18,1.507,2.18,0C40.829,26.053,38.649,26.053,38.649,27.451z"/>
<path fill="#AB968C" d="M37.905,27.011c0,0.761,1.102,0.761,1.102,0C39.007,26.305,37.905,26.305,37.905,27.011z"/>
<path fill="#613F34" d="M21.638,27.393c0,3.63,5.25,3.63,5.25,0C26.888,24.024,21.638,24.024,21.638,27.393z"/>
<path fill="#7D5037" d="M22.157,28.554c0,2.081,4.211,2.081,4.211,0C26.368,26.623,22.157,26.623,22.157,28.554z"/>
<path fill="#1A1626" d="M23.173,27.451c0,1.506,2.18,1.506,2.18,0C25.353,26.052,23.173,26.052,23.173,27.451z"/>
<path fill="#AB968C" d="M22.429,27.01c0,0.761,1.1,0.761,1.1,0C23.528,26.304,22.429,26.304,22.429,27.01z"/>
<path fill="#D6A67A" d="M44.659,27.803c0-4.44-9.186-4.44-9.186,0.703C36.786,24.287,43.347,24.287,44.659,27.803z"/>
<path fill="#D6A67A" d="M19.341,27.803c0-4.44,9.186-4.44,9.186,0.702C27.216,24.284,20.653,24.284,19.341,27.803z"/>
<path opacity="0.2" d="M14.309,20.071c3.964,3.015,11.62,4.373,17.693,4.373c6.071,0,13.705-1.347,17.671-4.358L14.309,20.071z"/>
<path fill="#302C3B" d="M50.145,16.284c0,0,18.993-14.283-18.143-14.283C-5.136,2,13.857,16.284,13.857,16.284
	s6.644-3.063,18.165-3.061C43.517,13.225,50.145,16.284,50.145,16.284"/>
<path fill="#302C3B" d="M32,13.223c-11.802,0-19.864,1.736-19.864,4.637c0,3.621,11.694,5.564,19.864,5.564
	s19.864-1.943,19.864-5.564C51.864,14.959,43.802,13.223,32,13.223"/>
<path fill="#F9C802" d="M14.228,15.262c0,0,17.346-5.246,35.545,0C49.772,15.262,33.323,6.083,14.228,15.262"/>
<path fill="#F9C802" d="M35.983,4.551c-0.853,0-2.426,1.045-2.837,1.328c-0.686-0.408-1.61-0.408-2.296,0
	c-0.408-0.283-1.981-1.328-2.834-1.328c-1.711,0-5.426,1.428-5.426,2.043c0,0.264,3.603-0.59,7.359,1.434
	c0.382,2.16,3.716,2.16,4.1,0c3.757-2.023,7.359-1.17,7.359-1.434C41.409,5.979,37.694,4.551,35.983,4.551z"/>
<path fill="#F9C802" d="M45.32,19.43c0.029,0.014,2.04-2.162,1.161-1.912c-0.849,0.266-2.432,1.363-2.244,2.182
	c0.189,0.834,2.228,1.035,3.155,0.748C48.292,20.19,45.299,19.458,45.32,19.43"/>
<path fill="#F9C802" d="M42.104,19.942c0.028,0.012,2.136-2.066,1.245-1.857c-0.855,0.225-2.485,1.248-2.338,2.074
	c0.15,0.84,2.172,1.137,3.108,0.893C45.026,20.836,42.082,19.965,42.104,19.942"/>
<path fill="#F9C802" d="M38.871,20.35c0.026,0.014,2.224-1.967,1.329-1.797c-0.864,0.184-2.538,1.133-2.43,1.965
	c0.112,0.846,2.114,1.234,3.055,1.035C41.742,21.379,38.849,20.374,38.871,20.35"/>
<path fill="#F9C802" d="M35.625,20.659c0.026,0.016,2.311-1.861,1.41-1.734c-0.87,0.146-2.585,1.018-2.515,1.852
	c0.068,0.852,2.047,1.33,2.996,1.174C38.438,21.817,35.6,20.682,35.625,20.659"/>
<path fill="#F9C802" d="M19.763,19.7c0.188-0.818-1.396-1.916-2.244-2.182c-0.88-0.25,1.134,1.926,1.16,1.912
	c0.022,0.027-2.971,0.76-2.071,1.018C17.535,20.737,19.573,20.532,19.763,19.7"/>
<path fill="#F9C802" d="M22.988,20.159c0.15-0.826-1.481-1.85-2.338-2.074c-0.891-0.209,1.22,1.869,1.246,1.857
	c0.023,0.023-2.924,0.895-2.016,1.109C20.817,21.295,22.839,20.999,22.988,20.159"/>
<path fill="#F9C802" d="M26.229,20.516c0.107-0.83-1.565-1.779-2.428-1.961c-0.897-0.172,1.301,1.809,1.329,1.795
	c0.022,0.023-2.873,1.029-1.956,1.201C24.117,21.752,26.119,21.364,26.229,20.516"/>
<path fill="#F9C802" d="M29.479,20.776c0.07-0.834-1.645-1.705-2.516-1.852c-0.899-0.127,1.385,1.75,1.413,1.734
	c0.023,0.023-2.815,1.16-1.895,1.289C27.433,22.106,29.411,21.627,29.479,20.776"/>
</svg>
