<?xml version="1.0" encoding="utf-8"?>
<!-- Generator: Adobe Illustrator 15.0.0, SVG Export Plug-In . SVG Version: 6.00 Build 0)  -->
<!DOCTYPE svg PUBLIC "-//W3C//DTD SVG 1.1//EN" "http://www.w3.org/Graphics/SVG/1.1/DTD/svg11.dtd" [
	<!ENTITY ns_flows "http://ns.adobe.com/Flows/1.0/">
	<!ENTITY ns_extend "http://ns.adobe.com/Extensibility/1.0/">
	<!ENTITY ns_ai "http://ns.adobe.com/AdobeIllustrator/10.0/">
	<!ENTITY ns_graphs "http://ns.adobe.com/Graphs/1.0/">
]>
<svg version="1.1" id="Layer_1" xmlns:x="&ns_extend;" xmlns:i="&ns_ai;" xmlns:graph="&ns_graphs;"
	 xmlns="http://www.w3.org/2000/svg" xmlns:xlink="http://www.w3.org/1999/xlink" xmlns:a="http://ns.adobe.com/AdobeSVGViewerExtensions/3.0/"
	 x="0px" y="0px" width="64px" height="64px" viewBox="0 0 64 64" enable-background="new 0 0 64 64" xml:space="preserve">
<path fill="#211E1A" d="M19.076,13.402c-8.713,37.396-7.916,36.596,10.426,36.596C19.352,42.898,38.795,12.895,19.076,13.402z"/>
<path fill="#26221E" d="M15.934,12.824c-6.359,28.412-0.873,35.709,3.998,37.174h5.582C12.453,40.797,32.869,12.264,15.934,12.824z"
	/>
<path fill="#211E1A" d="M44.709,13.4c8.713,37.398,7.914,36.598-10.426,36.598C43.617,44.299,24.99,12.893,44.709,13.4z"/>
<path fill="#26221E" d="M47.85,12.822c9.295,25.85-0.02,35.979-3.998,37.176h-5.58C51.334,41.547,30.918,12.262,47.85,12.822z"/>
<path fill="#38332D" d="M49.396,26.713c2.691,6.57,0.029,20.059-5.545,23.285c6.178,0,9.939-8.549,11.773-20.309
	C57.918,14.994,44.602,14.986,49.396,26.713z"/>
<path fill="#38332D" d="M8.85,32.416c2.25,10.613,5.02,17.582,11.082,17.582c-6.76-6.998-5.965-21.76-4.043-25.432
	C25.682,18.738,5.043,14.463,8.85,32.416z"/>
<path fill="#018BC9" d="M12.254,51.746c2.402-1.514,12.363-5.506,12.363-5.506h14.84c0,0,9.951,3.986,12.342,5.502
	C55.268,53.943,56,62,56,62H8C8,62,8.773,53.936,12.254,51.746z"/>
<path fill="#BEC3CF" d="M14.914,50.32c2.16-1.17,4.119-1.9,4.119-1.9L20.393,62h-5.121L14.914,50.32z"/>
<path fill="#BEC3CF" d="M49.084,50.32c-2.158-1.17-4.117-1.9-4.117-1.9L43.607,62h5.117L49.084,50.32z"/>
<path fill="#423225" d="M24.32,48.006c0,6.133,15.359,6.133,15.359,0c0-3.742,0-9.926,0-9.926H24.32
	C24.32,38.08,24.32,43.176,24.32,48.006z"/>
<path fill="#BEC3CF" d="M15.225,58.857c1.703-0.898,31.873-0.9,33.572-0.002C49.85,59.412,50.555,62,50.555,62h-37.09
	C13.465,62,14.174,59.412,15.225,58.857z"/>
<path fill="#614A36" d="M32,4.415c-11.609,0-17.201,9.455-16.502,21.611c0.143,2.445,0.822,5.969,1.66,8.99
	c1.742,6.277,10.93,12.6,14.842,12.6c3.91,0,13.1-6.322,14.84-12.6c0.84-3.021,1.52-6.545,1.664-8.99
	C49.201,13.869,43.611,4.415,32,4.415z"/>
<path fill="#36281D" d="M32,37.588c-2.822-1.242-2.844-0.051-7.199,0.242c1.635,1.855,2.838,4.242,7.197,4.242
	c5.004,0,5.85-2.711,7.203-4.242C34.842,37.537,34.822,36.346,32,37.588z"/>
<path fill="#FFFFFF" d="M26.107,38.291c2.844,2.961,8.977,2.922,11.785,0.002C33.514,38.764,30.488,38.764,26.107,38.291z"/>
<path fill="#36281D" d="M44.795,21.609c-2.617-1.559-7.309-1.75-9.166-0.688c-0.393,0.215-0.287,1.342,0.053,1.201
	c2.648-1.104,6.682-1.158,9.168,0.117C45.184,22.408,45.189,21.836,44.795,21.609z"/>
<path fill="#36281D" d="M19.207,21.609c2.615-1.559,7.307-1.75,9.166-0.688c0.393,0.215,0.289,1.342-0.055,1.201
	c-2.648-1.104-6.68-1.16-9.166,0.117C18.818,22.408,18.811,21.836,19.207,21.609z"/>
<path fill="#423225" d="M35.6,33.346c0,2.342-7.199,2.342-7.199,0C28.4,32.807,35.6,32.807,35.6,33.346z"/>
<path fill="#FFFFFF" d="M44.541,26.357c-1.551,4.059-7.861,3.465-9.016,0.623C36.4,22.414,43.688,22.023,44.541,26.357z"/>
<path fill="#613F34" d="M37.105,25.916c0,3.596,5.201,3.596,5.201,0C42.307,22.578,37.105,22.578,37.105,25.916z"/>
<path fill="#7D5037" d="M37.619,27.066c0,2.063,4.172,2.063,4.172,0C41.791,25.152,37.619,25.152,37.619,27.066z"/>
<path fill="#1A1626" d="M38.627,25.973c0,1.492,2.158,1.492,2.158,0C40.785,24.588,38.627,24.588,38.627,25.973z"/>
<path fill="#AB968C" d="M37.889,25.537c0,0.754,1.09,0.754,1.09,0C38.979,24.836,37.889,24.836,37.889,25.537z"/>
<path fill="#45332C" d="M44.541,26.326c0-4.361-9.016-4.361-9.016,0.691C36.811,22.871,43.254,22.871,44.541,26.326z"/>
<path fill="#FFFFFF" d="M19.459,26.357c1.553,4.059,7.863,3.465,9.02,0.623C27.602,22.414,20.314,22.023,19.459,26.357z"/>
<path fill="#613F34" d="M21.695,25.922c0,3.596,5.199,3.596,5.199,0C26.895,22.584,21.695,22.584,21.695,25.922z"/>
<path fill="#7D5037" d="M22.209,27.072c0,2.061,4.172,2.061,4.172,0C26.381,25.158,22.209,25.158,22.209,27.072z"/>
<path fill="#1A1626" d="M23.215,25.979c0,1.492,2.16,1.492,2.16,0C25.375,24.592,23.215,24.592,23.215,25.979z"/>
<path fill="#AB968C" d="M22.479,25.541c0,0.756,1.09,0.756,1.09,0C23.568,24.842,22.479,24.842,22.479,25.541z"/>
<path fill="#45332C" d="M19.459,26.326c0-4.361,9.02-4.361,9.02,0.689C27.191,22.869,20.748,22.869,19.459,26.326z"/>
<path fill="#38332D" d="M44.973,6.105c-8.141,8.342-0.371,8.881,4.424,20.607c2.691,6.57,4.395,14.736,6.229,2.977
	C57.918,14.994,49.109,4.879,44.973,6.105z"/>
<path fill="#38332D" d="M24.99,2.911C14.666,5.34,5.043,14.463,8.85,32.416c2.25,10.613,5.117-4.178,7.039-7.85
	c9.793-5.828,26.539-10.242,29.084-18.461C46.264,4.209,35.32,0.206,24.99,2.911z"/>
<path fill="#26221E" d="M17.08,15.988c4.365-0.885,25.25-1.303,27.893-9.883C40.037,10.039,34.924,11.109,17.08,15.988z"/>
<path fill="#26221E" d="M9.553,29.637c7.324-9.773,31.316-8.695,35.42-23.531C37.006,18.557,11.555,20.24,9.553,29.637z"/>
<path fill="#26221E" d="M42.559,8.139c-1.891,2.979,4.678-1.396,11.756,17.785C52.57,14.709,46.588,6.988,42.559,8.139z"/>
<path fill="#E5BC5E" d="M7.459,62C7.459,62,2,55.031,2,48.258C2,39.084,17.461,46.963,26.436,62H7.459z"/>
<path fill="#018BC9" d="M10.211,50.088c-0.406-1.6-1.758-3.088-3.014-3.324c-1.254-0.234-1.939,0.875-1.531,2.475
	s1.762,3.086,3.016,3.322C9.936,52.795,10.619,51.688,10.211,50.088"/>
<path fill="#E81C27" d="M16.035,52.775c-0.352-1.508-1.592-2.928-2.764-3.174s-1.834,0.779-1.48,2.287
	c0.352,1.506,1.592,2.928,2.762,3.174C15.725,55.309,16.387,54.283,16.035,52.775"/>
<path fill="#FFE12C" d="M21.475,57.438c-0.443-1.449-1.748-2.752-2.91-2.912c-1.16-0.158-1.742,0.887-1.299,2.34
	c0.441,1.447,1.744,2.752,2.906,2.914C21.334,59.938,21.914,58.889,21.475,57.438"/>
<path fill="#7AB51D" d="M11.35,57.852c-0.541-1.668-2.031-3.129-3.318-3.264c-1.285-0.133-1.883,1.113-1.34,2.783
	c0.545,1.67,2.033,3.129,3.318,3.266C11.297,60.77,11.895,59.521,11.35,57.852"/>
<path fill="#594640" d="M54.104,62c3.652-13.504,4.789-20.883,3.779-21.146C56.85,40.582,53.959,47.861,50.082,62H54.104z"/>
<path fill="#302C3B" d="M57.172,42.143c0,0-2.66-3.377,0.203-7.498c1.496-2.152,2.631-1.74,3.354-4.379
	c0.539-1.977,3.826,7.635-2.938,12.041L57.172,42.143z"/>
<path fill="#1A1626" d="M60.594,35.613c-0.518,1.891-1.455,3.141-2.072,3.807c0.029-1.662,0.424-3.666,0.424-3.666
	c-0.719,1.391-1.059,2.82-1.223,3.803c-0.449-1.277-0.24-2.953-0.24-2.953c-1.705,3.123-0.045,5.117-0.045,5.117
	C60.986,39.328,60.594,35.613,60.594,35.613"/>
<path fill="#99A8AE" d="M54.391,47.898c0.457,0.189,0.932,0.359,1.428,0.49c0.498,0.131,0.994,0.215,1.49,0.275
	c0,0,2.047-7.426,0.574-7.811C56.414,40.467,54.391,47.898,54.391,47.898"/>
</svg>
