<?xml version="1.0" encoding="utf-8"?>
<!-- Generator: Adobe Illustrator 15.0.0, SVG Export Plug-In . SVG Version: 6.00 Build 0)  -->
<!DOCTYPE svg PUBLIC "-//W3C//DTD SVG 1.1//EN" "http://www.w3.org/Graphics/SVG/1.1/DTD/svg11.dtd" [
	<!ENTITY ns_flows "http://ns.adobe.com/Flows/1.0/">
	<!ENTITY ns_extend "http://ns.adobe.com/Extensibility/1.0/">
	<!ENTITY ns_ai "http://ns.adobe.com/AdobeIllustrator/10.0/">
	<!ENTITY ns_graphs "http://ns.adobe.com/Graphs/1.0/">
]>
<svg version="1.1" id="Layer_1" xmlns:x="&ns_extend;" xmlns:i="&ns_ai;" xmlns:graph="&ns_graphs;"
	 xmlns="http://www.w3.org/2000/svg" xmlns:xlink="http://www.w3.org/1999/xlink" xmlns:a="http://ns.adobe.com/AdobeSVGViewerExtensions/3.0/"
	 x="0px" y="0px" width="64px" height="64px" viewBox="0 0 64 64" enable-background="new 0 0 64 64" xml:space="preserve">
<path fill="#E6EBEF" d="M6.789,53.711c2.699-1.223,15.135-4.451,15.135-4.451h14.24c0,0,12.426,3.223,15.111,4.449
	C55.18,55.488,56,62,56,62H2C2,62,2.871,55.482,6.789,53.711"/>
<polygon fill="#E6B045" points="19.971,51.082 29,54.355 38.027,51.082 38.027,44 19.971,44 "/>
<path fill="#CFD8DD" d="M8.457,62c0.576-1.643-0.102-4.139-0.818-5.512C6.973,55.207,7.223,61.096,8.457,62"/>
<path fill="#CFD8DD" d="M39.457,55.453C38.248,55.016,29,54.355,29,54.355s8.156,1.021,9.229,1.508
	C39.303,56.35,39.457,62,39.457,62h1.227C40.684,62,40.666,55.893,39.457,55.453z"/>
<path fill="#068AC7" d="M27.535,51.094c-8.582-1.576-7.328-4.508-7.328-4.508s-1.467,0.125-1.467,2.512
	c0,5.258,10.26,5.258,10.26,5.258S27.809,51.143,27.535,51.094"/>
<path fill="#068AC7" d="M37.795,46.586c0,0,1.248,2.932-7.328,4.508C30.189,51.143,29,54.355,29,54.355s10.26,0,10.26-5.258
	C39.26,46.711,37.795,46.586,37.795,46.586"/>
<path fill="#068AC7" d="M22.52,57.844c0.893,0,1.621,0.67,1.621,1.5c0,0.828-0.729,1.5-1.621,1.5c-0.896,0-1.619-0.672-1.619-1.5
	C20.9,58.514,21.623,57.844,22.52,57.844"/>
<path fill="#068AC7" d="M35.48,57.844c0.895,0,1.619,0.67,1.619,1.5c0,0.828-0.725,1.5-1.619,1.5c-0.896,0-1.619-0.672-1.619-1.5
	C33.861,58.514,34.584,57.844,35.48,57.844"/>
<path fill="#E6B045" d="M11.902,24.237c-5.719-1.031-1.252,14.958,3.225,10.547C17.199,32.739,14.576,24.72,11.902,24.237z"/>
<path fill="#E6B045" d="M46.102,24.237c-2.674,0.483-5.299,8.502-3.223,10.547C47.355,39.194,51.816,23.206,46.102,24.237z"/>
<path fill="#FFCC66" d="M29.002,5.489c-11.824,0-17.521,8.945-16.807,21.384c0.143,2.503,1.693,10.666,3.158,13.593
	c1.498,2.994,6.512,7.613,9.584,8.57c1.939,0.604,6.188,0.604,8.127,0c3.072-0.957,8.086-5.576,9.586-8.57
	c1.465-2.928,3.016-11.09,3.158-13.593C46.523,14.434,40.826,5.489,29.002,5.489z"/>
<path fill="#E6A400" d="M29.002,39.351c-2.66-0.783-6.6,0.369-6.6,0.369c1.5,1.635,2.6,3.756,6.6,3.756
	c4.582,0,5.359-2.406,6.6-3.756C35.602,39.72,31.658,38.563,29.002,39.351z"/>
<path fill="#FFFFFF" d="M23.408,39.997c2.787,2.34,8.418,2.354,11.221,0C31.658,40.124,26.4,40.126,23.408,39.997z"/>
<path fill="#E6B045" d="M32.668,34.952c0,2.387-7.332,2.387-7.332,0C25.336,34.405,32.668,34.405,32.668,34.952z"/>
<path fill="#453631" d="M44.578,20.076c1.146,5.819,0.414,7.426,0.785,10.163c0.727-2.707,1.262-6.401,1.262-6.401L44.578,20.076z"
	/>
<path fill="#453631" d="M13.428,20.076l-2.053,3.762c0,0,0.621,4.159,1.27,6.401C13.014,27.5,12.18,26.358,13.428,20.076z"/>
<path fill="#FFFFFF" d="M41.66,27.834c-1.58,4.135-8.008,3.53-9.186,0.635C33.369,23.82,40.793,23.422,41.66,27.834z"/>
<path fill="#FFFFFF" d="M16.342,27.834c1.58,4.135,8.01,3.53,9.186,0.635C24.633,23.818,17.211,23.42,16.342,27.834z"/>
<path fill="#C1873C" d="M42.316,22.856c-2.705-1.342-7.879-1.407-9.807-0.472c-0.412,0.182-0.141,1.454,0.207,1.332
	c2.688-0.995,7.02-1.019,9.535,0.086C42.586,23.944,42.727,23.044,42.316,22.856z"/>
<path fill="#C1873C" d="M15.688,22.856c2.703-1.342,7.877-1.407,9.807-0.472c0.412,0.182,0.141,1.454-0.207,1.332
	c-2.691-0.995-7.02-1.019-9.537,0.086C15.416,23.944,15.277,23.044,15.688,22.856z"/>
<path fill="#613F34" d="M34.115,27.394c0,3.628,5.25,3.628,5.25,0C39.365,24.025,34.115,24.025,34.115,27.394z"/>
<path fill="#7D5037" d="M34.635,28.555c0,2.081,4.211,2.081,4.211,0C38.846,26.624,34.635,26.624,34.635,28.555z"/>
<path fill="#1A1626" d="M35.65,27.451c0,1.507,2.18,1.507,2.18,0C37.83,26.053,35.65,26.053,35.65,27.451z"/>
<path fill="#AB968C" d="M34.906,27.011c0,0.761,1.102,0.761,1.102,0C36.008,26.305,34.906,26.305,34.906,27.011z"/>
<path fill="#613F34" d="M18.639,27.393c0,3.629,5.25,3.629,5.25,0C23.889,24.024,18.639,24.024,18.639,27.393z"/>
<path fill="#7D5037" d="M19.158,28.554c0,2.081,4.211,2.081,4.211,0C23.369,26.623,19.158,26.623,19.158,28.554z"/>
<path fill="#1A1626" d="M20.174,27.451c0,1.506,2.18,1.506,2.18,0C22.354,26.052,20.174,26.052,20.174,27.451z"/>
<path fill="#AB968C" d="M19.43,27.01c0,0.761,1.1,0.761,1.1,0C20.529,26.304,19.43,26.304,19.43,27.01z"/>
<path fill="#E6B045" d="M41.66,27.803c0-4.44-9.186-4.44-9.186,0.703C33.787,24.287,40.348,24.287,41.66,27.803z"/>
<path fill="#E6B045" d="M16.342,27.803c0-4.44,9.186-4.44,9.186,0.702C24.217,24.284,17.654,24.284,16.342,27.803z"/>
<path fill="#E6EBEF" d="M29,10.545c-11.863,0-17.625,6.646-17.625,6.646v6.646c0,0,5.432-2.849,17.625-2.849
	c12.191,0,17.625,2.849,17.625,2.849v-6.646C46.625,17.191,40.863,10.545,29,10.545"/>
<path fill="#E6EBEF" d="M45.533,4.661C41.803,2.886,39.578,2,36.779,2c-1.287,0-4.561,1.38-7.781,1.33
	C25.779,3.38,22.508,2,21.221,2c-2.799,0-5.027,0.886-8.756,2.661c-3.727,1.775-6.328,3.23-6.328,6.656
	c0,4.854,5.238,6.653,5.238,6.653s17.744-7.985,35.248,0c0,0,5.242-1.799,5.242-6.653C51.865,7.892,49.262,6.436,45.533,4.661"/>
<path fill="#CFD8DD" d="M41.918,13.232c-3.518,3.881-2.443-7.397-4.891-7.358c-2.516,0.041-3.486,7.279-8.078,7.175
	c-4.764-0.109-4.322-8.143-7.564-7.733c-3.143,0.396-2.848,12.805-7.502,6.018C6.695,0.85,13.275,23.838,6.158,11.862
	c0.318,5.33,5.217,6.108,5.217,6.108c3.482-1.78,20.24-7.062,35.248,0c0,0,4.459-0.612,5.152-5.597
	C43.502,21.739,53.895,0.02,41.918,13.232z"/>
<path fill="#99A8AE" d="M21.379,7.322c0,0,1.119,7.03-3.096,7.868c-4.215,0.838-6.789-4.623-6.789-4.623
	c1.846,6.572-0.119,7.403-0.119,7.403C19.381,14.31,29,14.427,29,14.427C22.867,14.427,21.379,7.322,21.379,7.322"/>
<path fill="#99A8AE" d="M46.506,10.567c0,0-2.574,5.463-6.787,4.625c-4.217-0.838-3.096-7.87-3.096-7.87s-1.49,7.104-7.623,7.104
	c0,0,9.619-0.117,17.625,3.543C46.625,17.97,44.658,17.14,46.506,10.567"/>
<path fill="#E6B045" d="M47.787,55.263c1.485-1.432-0.711-3.528-1.322-2.313c-0.818,1.629-1.066,3.512-2.75,5.141
	c-0.857,0.828-1.121,2.367-1.088,3.908L44.494,62C44.494,62,47.186,55.839,47.787,55.263z"/>
<polygon fill="#1A1626" points="53.365,55.573 47.598,53.476 44.494,62 47.345,62 "/>
<path fill="#CFD8DD" d="M47.732,53.524l8.938,3.252c3.441-9.405,7.727-22.303,3.703-30.021
	C56.295,29.378,52.916,39.356,47.732,53.524z"/>
<path fill="#BEC3CF" d="M54.822,56.104l1.848,0.672c3.441-9.405,7.727-22.303,3.703-30.021c-0.432,0.277-0.855,0.638-1.275,1.077
	C61.902,35.573,58.031,47.313,54.822,56.104z"/>
<path opacity="0.1" fill="#FFFFFF" d="M49.441,48.837l11.375-5.303c0.52-2.241,0.904-4.472,1.08-6.618l-9.711,4.527
	C51.32,43.704,50.412,46.179,49.441,48.837z"/>
<path opacity="0.2" fill="#FFFFFF" d="M52.186,41.443l9.711-4.527c0.08-0.983,0.113-1.946,0.096-2.886l-8.432,3.932
	C53.111,39.06,52.656,40.22,52.186,41.443z"/>
<path fill="#E6EBEF" d="M58.375,29.926c-2.471,2.696-4.57,8.12-10.281,23.729l0.439,0.159
	C52.965,41.704,55.908,33.229,58.375,29.926z"/>
<path fill="#FFCC66" d="M53.005,57.758c1.256,1.235,0.076,2.229-0.45,2.427c0.643,1.306-0.277,1.66-0.726,1.815h-4.484
	c-2.691-1.357-1.023-2.321,0.738-2.212c-4.21-0.781-1.854-2.34,1.616-1.891C43.95,56.767,55.57,52.743,53.005,57.758z"/>
</svg>
