<?xml version="1.0" encoding="utf-8"?>
<!-- Generator: Adobe Illustrator 19.0.0, SVG Export Plug-In . SVG Version: 6.00 Build 0)  -->
<svg version="1.1" id="Layer_1" xmlns="http://www.w3.org/2000/svg" xmlns:xlink="http://www.w3.org/1999/xlink" x="0px" y="0px"
	 width="64px" height="64px" viewBox="0 0 64 64" enable-background="new 0 0 64 64" xml:space="preserve">
<path fill="#302C3B" d="M6.79,49.243c2.698-1.882,15.135-6.852,15.135-6.852h14.241c0,0,12.424,4.959,15.111,6.85
	C55.18,51.976,56,62,56,62H2C2,62,2.871,51.967,6.79,49.243"/>
<rect x="20.337" y="36.509" fill="#755035" width="17.326" height="15.482"/>
<path fill="#1A1626" d="M29,61.371c-7.689,0-9.142-11.401-9.199-11.888l1.218-0.153c0.013,0.107,1.379,10.782,7.981,10.782
	c6.606,0,7.969-10.675,7.981-10.782l1.218,0.153C38.142,49.969,36.688,61.371,29,61.371"/>
<path fill="#E6EBEF" d="M29,50.666h-6.136c0,0,1.113,7.556,6.136,7.556c5.024,0,6.136-7.556,6.136-7.556H29z"/>
<path fill="#BEC3CF" d="M24.539,55.35c0,0,1.755-4.685,4.488-4.685s4.434,4.685,4.434,4.685s1.675-2.796,1.675-4.685H22.864
	C22.864,50.666,23.03,52.766,24.539,55.35"/>
<path fill="#1A1626" d="M50.201,53.516c-0.719,2.115-1.395,5.958-0.818,8.483C50.617,60.609,50.868,51.546,50.201,53.516"/>
<path fill="#1A1626" d="M8.619,62c0.576-2.525-0.102-6.368-0.82-8.483C7.132,51.546,7.385,60.609,8.619,62"/>
<path fill="#1A1626" d="M42.12,57.37c-0.219-0.011-0.517,1.829-0.786,4.63h1.059C42.433,59.218,42.34,57.38,42.12,57.37"/>
<path fill="#1A1626" d="M12.214,55.703c-0.313,0.018-0.445,2.582-0.376,6.297h1.449C12.95,58.256,12.534,55.687,12.214,55.703"/>
<path fill="#1A1626" d="M38.543,62c-0.04-1.81-0.186-2.967-0.418-2.979c-0.234-0.014-0.511,1.148-0.753,2.979H38.543z"/>
<path fill="#1A1626" d="M45.786,55.703c-0.318-0.016-0.736,2.554-1.075,6.297h1.451C46.233,58.285,46.101,55.72,45.786,55.703"/>
<path fill="#1A1626" d="M15.88,57.37c-0.22,0.011-0.313,1.849-0.272,4.63h1.059C16.396,59.199,16.102,57.359,15.88,57.37"/>
<path fill="#1A1626" d="M19.875,59.02c-0.232,0.013-0.376,1.17-0.418,2.979h1.173C20.386,60.168,20.109,59.006,19.875,59.02"/>
<path fill="#E81C27" d="M31.548,57.51l-0.702-3.78l0.979-2.593L29,50.666l-2.822,0.472l0.975,2.593l-0.7,3.778
	c0.711,0.484,1.55,0.793,2.548,0.793C30,58.301,30.837,57.993,31.548,57.51z"/>
<path fill="#FFFFFF" d="M20.386,42.391c0,0-8.335,5.913,0.354,14.832c0,0,4.118-6.558,8.261-6.558
	C29,50.666,20.386,48.443,20.386,42.391z"/>
<path fill="#FFFFFF" d="M37.617,42.391c0,6.052-8.59,8.274-8.59,8.274c4.143,0,8.261,6.558,8.261,6.558
	C45.978,48.304,37.617,42.391,37.617,42.391z"/>
<polygon fill="#9E6C49" points="49.507,62 52.134,50.686 50.663,50.303 46.944,62 "/>
<path fill="#9E6C49" d="M60.237,41.315l-1.473-0.381l-0.215,0.773c-1.152,0.764-2.254,2.457-2.836,4.576
	c-0.586,2.127-0.5,4.131,0.105,5.352l-0.213,0.773l1.473,0.385c1.627,0.424,3.65-1.799,4.523-4.969
	C62.476,44.657,61.862,41.741,60.237,41.315"/>
<path fill="#B47D56" d="M60.13,47.44c-0.871,3.17-2.896,5.395-4.523,4.969c-1.625-0.424-2.238-3.336-1.365-6.506
	c0.871-3.168,2.896-5.393,4.523-4.969C60.39,41.358,61.003,44.268,60.13,47.44"/>
<polygon fill="#9E6C49" points="55.804,51.692 45.497,49.002 48.259,38.961 58.567,41.653 "/>
<path fill="#785647" d="M48.243,39.016l-2.732,9.93c0.014,0.021,0.023,0.047,0.033,0.068l2.85,0.744
	c1.176-0.742,2.307-2.463,2.902-4.623c0.594-2.162,0.498-4.203-0.141-5.418l-2.85-0.748C48.284,38.987,48.265,39.004,48.243,39.016"
	/>
<path fill="#9E6C49" d="M49.192,38.432l-1.475-0.379l-0.211,0.773c-1.152,0.762-2.254,2.457-2.84,4.576
	c-0.582,2.125-0.498,4.129,0.109,5.35l-0.213,0.774l1.473,0.385c1.627,0.424,3.65-1.799,4.524-4.969
	C51.431,41.774,50.819,38.858,49.192,38.432"/>
<path fill="#B47D56" d="M49.087,44.557c-0.873,3.17-2.896,5.395-4.523,4.969c-1.627-0.424-2.24-3.336-1.367-6.504
	c0.871-3.17,2.896-5.396,4.523-4.969C49.347,38.477,49.956,41.387,49.087,44.557"/>
<path fill="#9E6C49" d="M59.394,47.249c-0.762,2.773-2.369,4.762-3.59,4.443c-1.219-0.318-1.59-2.824-0.828-5.596
	c0.764-2.773,2.371-4.764,3.592-4.443C59.786,41.969,60.157,44.475,59.394,47.249"/>
<path fill="#785647" d="M52.86,50.924L52.86,50.924c-0.109,0.393-0.529,0.629-0.936,0.523l-1.471-0.383
	c-0.406-0.105-0.648-0.516-0.539-0.91L52.86,50.924z"/>
<path fill="#755035" d="M11.901,20.75c-5.719-1.031-1.252,14.957,3.225,10.547C17.198,29.252,14.575,21.233,11.901,20.75z"/>
<path fill="#755035" d="M46.101,20.75c-2.674,0.483-5.299,8.503-3.223,10.547C47.354,35.707,51.815,19.718,46.101,20.75z"/>
<path fill="#916B50" d="M29.001,2.001c-11.824,0-17.521,8.945-16.807,21.384c0.143,2.503,1.693,10.665,3.158,13.593
	c1.498,2.995,6.512,7.614,9.584,8.57c1.94,0.604,6.188,0.604,8.127,0c3.072-0.956,8.086-5.575,9.586-8.57
	c1.465-2.928,3.016-11.09,3.158-13.593C46.522,10.947,40.825,2.001,29.001,2.001z"/>
<path fill="#664129" d="M29.001,35.863c-2.66-0.782-6.6,0.37-6.6,0.37c1.5,1.635,2.6,3.756,6.6,3.756c4.582,0,5.359-2.407,6.6-3.756
	C35.601,36.233,31.657,35.077,29.001,35.863z"/>
<path fill="#FFFFFF" d="M23.407,36.509c2.787,2.34,8.418,2.354,11.221,0C31.657,36.637,26.399,36.638,23.407,36.509z"/>
<path fill="#755035" d="M32.667,31.465c0,2.386-7.332,2.386-7.332,0C25.335,30.917,32.667,30.917,32.667,31.465z"/>
<path fill="#614036" d="M29.001,2c-8.135,0-13.049,2.688-15.168,1.655c0,0-0.231,1.388,0.6,2.291c0,0-0.877,0.758-2.291-0.522
	c-1.348,4.377,2.652,6.913,16.859,6.913c14.207,0,10.813-3.46,17.797,2.616C46.112,7.465,41.354,2,29.001,2z"/>
<path fill="#4A2E24" d="M35.017,8.53c-7.822,2.888-10.682-2.321-18.06-2.824c3.51,1.657,5.223,4.208,8.105,6.049
	c-6.273-2.101-10.877-5.712-11.226-8.085c0,0-1.047,3.464,3.094,6.053c-3.959,0.367-4.785-4.283-4.785-4.283
	c-2.004,3.221-1.727,13.606,0.5,21.313c0.371-2.75-0.475-3.887,0.797-7.201c3.805-9.904,1.356-5.745,15.563-5.745
	c14.205,0,11.641-3.793,15.561,5.745c1.17,2.844,0.426,4.451,0.799,7.201C50.032,9.375,43.315,5.467,35.017,8.53z"/>
<path fill="#FFFFFF" d="M41.659,24.347c-1.58,4.136-8.008,3.529-9.186,0.635C33.368,20.333,40.792,19.935,41.659,24.347z"/>
<path fill="#FFFFFF" d="M16.341,24.347c1.58,4.136,8.01,3.529,9.186,0.635C24.632,20.331,17.21,19.933,16.341,24.347z"/>
<path fill="#664129" d="M42.315,19.369c-2.705-1.342-7.879-1.407-9.807-0.472c-0.412,0.182-0.141,1.454,0.207,1.332
	c2.688-0.995,7.02-1.019,9.535,0.086C42.585,20.456,42.726,19.557,42.315,19.369z"/>
<path fill="#664129" d="M15.686,19.369c2.703-1.342,7.877-1.407,9.807-0.472c0.412,0.182,0.141,1.454-0.207,1.332
	c-2.691-0.995-7.02-1.019-9.537,0.086C15.415,20.456,15.276,19.557,15.686,19.369z"/>
<path fill="#613F34" d="M34.114,23.907c0,3.629,5.25,3.629,5.25,0C39.364,20.538,34.114,20.538,34.114,23.907z"/>
<path fill="#7D5037" d="M34.634,25.068c0,2.081,4.211,2.081,4.211,0C38.845,23.136,34.634,23.136,34.634,25.068z"/>
<path fill="#1A1626" d="M35.649,23.963c0,1.507,2.18,1.507,2.18,0C37.829,22.566,35.649,22.566,35.649,23.963z"/>
<path fill="#AB968C" d="M34.905,23.524c0,0.761,1.101,0.761,1.101,0C36.007,22.818,34.905,22.818,34.905,23.524z"/>
<path fill="#613F34" d="M18.638,23.906c0,3.63,5.25,3.63,5.25,0C23.888,20.537,18.638,20.537,18.638,23.906z"/>
<path fill="#7D5037" d="M19.157,25.067c0,2.081,4.211,2.081,4.211,0C23.368,23.135,19.157,23.135,19.157,25.067z"/>
<path fill="#1A1626" d="M20.173,23.963c0,1.506,2.18,1.506,2.18,0C22.352,22.565,20.173,22.565,20.173,23.963z"/>
<path fill="#AB968C" d="M19.429,23.523c0,0.761,1.1,0.761,1.1,0C20.528,22.817,19.429,22.817,19.429,23.523z"/>
<path fill="#755035" d="M41.659,24.316c0-4.44-9.186-4.44-9.186,0.703C33.786,20.799,40.347,20.799,41.659,24.316z"/>
<path fill="#755035" d="M16.341,24.316c0-4.44,9.186-4.44,9.186,0.702C24.216,20.796,17.653,20.796,16.341,24.316z"/>
</svg>
