<?xml version="1.0" encoding="utf-8"?>
<!-- Generator: Adobe Illustrator 15.0.0, SVG Export Plug-In . SVG Version: 6.00 Build 0)  -->
<!DOCTYPE svg PUBLIC "-//W3C//DTD SVG 1.1//EN" "http://www.w3.org/Graphics/SVG/1.1/DTD/svg11.dtd" [
	<!ENTITY ns_flows "http://ns.adobe.com/Flows/1.0/">
	<!ENTITY ns_extend "http://ns.adobe.com/Extensibility/1.0/">
	<!ENTITY ns_ai "http://ns.adobe.com/AdobeIllustrator/10.0/">
	<!ENTITY ns_graphs "http://ns.adobe.com/Graphs/1.0/">
]>
<svg version="1.1" id="Layer_1" xmlns:x="&ns_extend;" xmlns:i="&ns_ai;" xmlns:graph="&ns_graphs;"
	 xmlns="http://www.w3.org/2000/svg" xmlns:xlink="http://www.w3.org/1999/xlink" xmlns:a="http://ns.adobe.com/AdobeSVGViewerExtensions/3.0/"
	 x="0px" y="0px" width="64px" height="64px" viewBox="0 0 64 64" enable-background="new 0 0 64 64" xml:space="preserve">
<path fill="#E6EBEF" d="M6.789,53.711c2.699-1.223,15.135-4.451,15.135-4.451h14.24c0,0,12.426,3.223,15.111,4.449
	C55.18,55.488,56,62,56,62H2C2,62,2.871,55.482,6.789,53.711"/>
<polygon fill="#755035" points="19.971,51.082 29,54.355 38.027,51.082 38.027,44 19.971,44 "/>
<path fill="#CFD8DD" d="M8.457,62c0.576-1.643-0.102-4.139-0.818-5.512C6.973,55.207,7.223,61.096,8.457,62"/>
<path fill="#CFD8DD" d="M39.457,55.453C38.248,55.016,29,54.355,29,54.355s8.156,1.021,9.229,1.508
	C39.303,56.35,39.457,62,39.457,62h1.227C40.684,62,40.666,55.893,39.457,55.453z"/>
<path fill="#068AC7" d="M27.535,51.094c-8.582-1.576-7.328-4.508-7.328-4.508s-1.467,0.125-1.467,2.512
	c0,5.258,10.26,5.258,10.26,5.258S27.809,51.143,27.535,51.094"/>
<path fill="#068AC7" d="M37.795,46.586c0,0,1.248,2.932-7.328,4.508C30.189,51.143,29,54.355,29,54.355s10.26,0,10.26-5.258
	C39.26,46.711,37.795,46.586,37.795,46.586"/>
<path fill="#068AC7" d="M22.52,57.844c0.893,0,1.621,0.67,1.621,1.5c0,0.828-0.729,1.5-1.621,1.5c-0.896,0-1.619-0.672-1.619-1.5
	C20.9,58.514,21.623,57.844,22.52,57.844"/>
<path fill="#068AC7" d="M35.48,57.844c0.895,0,1.619,0.67,1.619,1.5c0,0.828-0.725,1.5-1.619,1.5c-0.896,0-1.619-0.672-1.619-1.5
	C33.861,58.514,34.584,57.844,35.48,57.844"/>
<path fill="#755035" d="M11.902,24.236c-5.719-1.031-1.252,14.957,3.225,10.547C17.199,32.74,14.576,24.721,11.902,24.236z"/>
<path fill="#755035" d="M46.102,24.236c-2.674,0.484-5.299,8.504-3.223,10.547C47.355,39.193,51.816,23.205,46.102,24.236z"/>
<path fill="#916B50" d="M29.002,5.489c-11.824,0-17.521,8.945-16.807,21.384c0.143,2.502,1.693,10.664,3.158,13.592
	c1.498,2.996,6.512,7.615,9.584,8.57c1.939,0.604,6.188,0.604,8.127,0c3.072-0.955,8.086-5.574,9.586-8.57
	c1.465-2.928,3.016-11.09,3.158-13.592C46.523,14.435,40.826,5.489,29.002,5.489z"/>
<path fill="#664129" d="M29.002,39.35c-2.66-0.781-6.6,0.371-6.6,0.371c1.5,1.635,2.6,3.756,6.6,3.756
	c4.582,0,5.359-2.408,6.6-3.756C35.602,39.721,31.658,38.564,29.002,39.35z"/>
<path fill="#FFFFFF" d="M23.408,39.996c2.787,2.34,8.418,2.355,11.221,0C31.658,40.125,26.4,40.125,23.408,39.996z"/>
<path fill="#755035" d="M32.668,34.953c0,2.385-7.332,2.385-7.332,0C25.336,34.404,32.668,34.404,32.668,34.953z"/>
<path fill="#4A2E24" d="M44.578,20.075c1.146,5.819,0.414,7.427,0.785,10.163c0.727-2.706,1.262-6.4,1.262-6.4L44.578,20.075z"/>
<path fill="#4A2E24" d="M13.428,20.075l-2.053,3.763c0,0,0.621,4.159,1.27,6.4C13.014,27.5,12.18,26.358,13.428,20.075z"/>
<path fill="#FFFFFF" d="M41.66,27.834c-1.58,4.137-8.008,3.529-9.186,0.635C33.369,23.82,40.793,23.422,41.66,27.834z"/>
<path fill="#FFFFFF" d="M16.342,27.834c1.58,4.137,8.01,3.529,9.186,0.635C24.633,23.818,17.211,23.42,16.342,27.834z"/>
<path fill="#664129" d="M42.316,22.855c-2.705-1.341-7.879-1.407-9.807-0.471c-0.412,0.182-0.141,1.453,0.207,1.332
	c2.688-0.996,7.02-1.02,9.535,0.086C42.586,23.943,42.727,23.045,42.316,22.855z"/>
<path fill="#664129" d="M15.688,22.855c2.703-1.341,7.877-1.407,9.807-0.471c0.412,0.182,0.141,1.453-0.207,1.332
	c-2.691-0.996-7.02-1.02-9.537,0.086C15.416,23.943,15.277,23.045,15.688,22.855z"/>
<path fill="#613F34" d="M34.115,27.395c0,3.629,5.25,3.629,5.25,0C39.365,24.025,34.115,24.025,34.115,27.395z"/>
<path fill="#7D5037" d="M34.635,28.555c0,2.082,4.211,2.082,4.211,0C38.846,26.623,34.635,26.623,34.635,28.555z"/>
<path fill="#1A1626" d="M35.65,27.451c0,1.506,2.18,1.506,2.18,0C37.83,26.053,35.65,26.053,35.65,27.451z"/>
<path fill="#AB968C" d="M34.906,27.012c0,0.76,1.102,0.76,1.102,0C36.008,26.305,34.906,26.305,34.906,27.012z"/>
<path fill="#613F34" d="M18.639,27.393c0,3.631,5.25,3.631,5.25,0C23.889,24.023,18.639,24.023,18.639,27.393z"/>
<path fill="#7D5037" d="M19.158,28.555c0,2.08,4.211,2.08,4.211,0C23.369,26.623,19.158,26.623,19.158,28.555z"/>
<path fill="#1A1626" d="M20.174,27.451c0,1.506,2.18,1.506,2.18,0C22.354,26.053,20.174,26.053,20.174,27.451z"/>
<path fill="#AB968C" d="M19.43,27.01c0,0.762,1.1,0.762,1.1,0C20.529,26.305,19.43,26.305,19.43,27.01z"/>
<path fill="#755035" d="M41.66,27.803c0-4.439-9.186-4.439-9.186,0.703C33.787,24.287,40.348,24.287,41.66,27.803z"/>
<path fill="#755035" d="M16.342,27.803c0-4.439,9.186-4.439,9.186,0.703C24.217,24.283,17.654,24.283,16.342,27.803z"/>
<path fill="#E6EBEF" d="M29,10.546c-11.863,0-17.625,6.646-17.625,6.646v6.646c0,0,5.432-2.849,17.625-2.849
	c12.191,0,17.625,2.849,17.625,2.849v-6.646C46.625,17.191,40.863,10.546,29,10.546"/>
<path fill="#E6EBEF" d="M45.533,4.661C41.803,2.886,39.578,2,36.779,2c-1.287,0-4.561,1.38-7.781,1.329
	C25.779,3.38,22.508,2,21.221,2c-2.799,0-5.027,0.886-8.756,2.661c-3.727,1.775-6.328,3.23-6.328,6.656
	c0,4.854,5.238,6.652,5.238,6.652s17.744-7.984,35.248,0c0,0,5.242-1.799,5.242-6.652C51.865,7.892,49.262,6.437,45.533,4.661"/>
<path fill="#CFD8DD" d="M41.918,13.232c-3.518,3.882-2.443-7.397-4.891-7.358c-2.516,0.041-3.486,7.279-8.078,7.175
	c-4.764-0.109-4.322-8.144-7.564-7.733c-3.143,0.396-2.848,12.805-7.502,6.018c-7.188-10.482-0.607,12.505-7.725,0.529
	c0.318,5.329,5.217,6.107,5.217,6.107c3.482-1.779,20.24-7.061,35.248,0c0,0,4.459-0.611,5.152-5.596
	C43.502,21.739,53.895,0.02,41.918,13.232z"/>
<path fill="#99A8AE" d="M21.379,7.322c0,0,1.119,7.03-3.096,7.868s-6.789-4.623-6.789-4.623c1.846,6.572-0.119,7.402-0.119,7.402
	C19.381,14.31,29,14.427,29,14.427C22.867,14.427,21.379,7.322,21.379,7.322"/>
<path fill="#99A8AE" d="M46.506,10.567c0,0-2.574,5.463-6.787,4.625c-4.217-0.838-3.096-7.87-3.096-7.87s-1.49,7.104-7.623,7.104
	c0,0,9.619-0.117,17.625,3.543C46.625,17.97,44.658,17.14,46.506,10.567"/>
<path fill="#755035" d="M47.787,55.262c1.484-1.43-0.711-3.527-1.322-2.311c-0.818,1.629-1.066,3.51-2.75,5.139
	c-0.857,0.83-1.121,2.367-1.088,3.91h1.867C44.494,62,47.186,55.84,47.787,55.262z"/>
<polygon fill="#1A1626" points="53.365,55.574 47.598,53.475 44.494,62 47.344,62 "/>
<path fill="#CFD8DD" d="M47.732,53.523l8.938,3.252c3.441-9.404,7.727-22.303,3.703-30.021
	C56.295,29.379,52.916,39.356,47.732,53.523z"/>
<path fill="#BEC3CF" d="M54.822,56.104l1.848,0.672c3.441-9.404,7.727-22.303,3.703-30.021c-0.432,0.277-0.855,0.638-1.275,1.077
	C61.902,35.572,58.031,47.313,54.822,56.104z"/>
<path opacity="0.1" fill="#FFFFFF" d="M49.441,48.836l11.375-5.303c0.52-2.24,0.904-4.471,1.08-6.617l-9.711,4.527
	C51.32,43.705,50.412,46.178,49.441,48.836z"/>
<path opacity="0.2" fill="#FFFFFF" d="M52.186,41.443l9.711-4.527c0.08-0.982,0.113-1.946,0.096-2.886l-8.432,3.933
	C53.111,39.061,52.656,40.22,52.186,41.443z"/>
<path fill="#E6EBEF" d="M58.375,29.926c-2.471,2.697-4.57,8.121-10.281,23.729l0.439,0.16C52.965,41.703,55.908,33.23,58.375,29.926
	z"/>
<path fill="#916B50" d="M53.004,57.758c1.256,1.234,0.076,2.229-0.449,2.428c0.643,1.305-0.277,1.66-0.727,1.814h-4.484
	c-2.691-1.357-1.023-2.32,0.738-2.213c-4.209-0.781-1.854-2.338,1.617-1.891C43.949,56.766,55.57,52.744,53.004,57.758z"/>
</svg>
