<?xml version="1.0" encoding="utf-8"?>
<!-- Generator: Adobe Illustrator 19.0.0, SVG Export Plug-In . SVG Version: 6.00 Build 0)  -->
<svg version="1.1" id="Layer_1" xmlns="http://www.w3.org/2000/svg" xmlns:xlink="http://www.w3.org/1999/xlink" x="0px" y="0px"
	 width="64px" height="64px" viewBox="0 0 64 64" enable-background="new 0 0 64 64" xml:space="preserve">
<rect x="2" y="15.999" fill="#967668" width="60" height="40"/>
<rect x="4" y="17.999" fill="#008C76" width="56" height="36"/>
<path fill="#211E1A" d="M12.385,20.247c-7.83,33.609-7.113,32.89,9.369,32.89C12.633,46.755,30.105,19.79,12.385,20.247z"/>
<path fill="#26221E" d="M9.561,19.727c-5.715,25.534-0.785,32.093,3.592,33.41h5.018C6.434,44.867,24.781,19.225,9.561,19.727z"/>
<path fill="#211E1A" d="M35.422,20.246c7.83,33.609,7.113,32.89-9.369,32.89C34.439,48.015,17.699,19.788,35.422,20.246z"/>
<path fill="#26221E" d="M38.244,19.726c8.354,23.231-0.018,32.334-3.592,33.41h-5.016C41.375,45.542,23.027,19.223,38.244,19.726z"
	/>
<path fill="#423225" d="M17.139,52.122c0,5.17,13.721,5.17,13.721,0c0-3.156,0-4.777,0-4.777H17.139
	C17.139,47.345,17.139,48.048,17.139,52.122z"/>
<path fill="#614A36" d="M24,12.17c-10.434,0-15.459,8.497-14.83,19.422c0.127,2.196,0.738,5.364,1.492,8.079
	C12.226,45.314,20.484,50.995,24,50.995c3.514,0,11.773-5.682,13.338-11.324c0.752-2.715,1.363-5.883,1.494-8.079
	C39.459,20.667,34.436,12.17,24,12.17z"/>
<path fill="#FFFFFF" d="M35.271,31.89c-1.395,3.648-7.066,3.114-8.104,0.56C27.955,28.347,34.506,27.995,35.271,31.89z"/>
<path fill="#FFFFFF" d="M12.731,31.89c1.392,3.648,7.066,3.115,8.105,0.56C20.047,28.347,13.498,27.995,12.731,31.89z"/>
<path fill="#36281D" d="M24,41.983c-2.535-1.114-2.557-0.046-6.471,0.218c1.471,1.668,2.551,3.814,6.469,3.814
	c4.496,0,5.256-2.438,6.473-3.814C26.555,41.937,26.537,40.869,24,41.983z"/>
<path fill="#FFFFFF" d="M18.705,42.616c2.557,2.66,8.066,2.625,10.59,0.002C25.361,43.04,22.641,43.04,18.705,42.616z"/>
<path fill="#423225" d="M35.498,27.623c-2.35-1.4-6.566-1.572-8.236-0.617c-0.354,0.192-0.258,1.205,0.047,1.079
	c2.381-0.992,6.006-1.041,8.24,0.105C35.848,28.341,35.854,27.828,35.498,27.623z"/>
<path fill="#423225" d="M12.502,27.623c2.35-1.4,6.566-1.572,8.238-0.617c0.354,0.192,0.26,1.205-0.049,1.079
	c-2.381-0.992-6.004-1.043-8.238,0.105C12.152,28.341,12.148,27.828,12.502,27.623z"/>
<path fill="#423225" d="M27.236,38.17c0,2.104-6.473,2.104-6.473,0C20.764,37.687,27.236,37.687,27.236,38.17z"/>
<path fill="#38332D" d="M35.658,13.69c-7.314,7.497-0.332,7.981,3.979,18.521c2.416,5.905,0.023,18.025-4.984,20.927
	c5.551,0,8.932-7.685,10.58-18.253C47.291,21.677,39.375,12.586,35.658,13.69z"/>
<path fill="#38332D" d="M17.699,10.819C8.422,13.001-0.227,21.201,3.195,37.334c2.019,9.538,4.51,15.803,9.957,15.803
	C7.08,46.847,7.793,33.581,9.519,30.28c8.801-5.236,23.852-9.203,26.139-16.59C36.82,11.985,26.982,8.386,17.699,10.819z"/>
<path fill="#26221E" d="M10.592,22.572c3.924-0.796,22.691-1.171,25.066-8.882C31.223,17.225,26.627,18.188,10.592,22.572z"/>
<path fill="#26221E" d="M3.826,34.837c6.584-8.784,28.144-7.814,31.832-21.147C28.498,24.88,5.627,26.394,3.826,34.837z"/>
<path fill="#26221E" d="M33.488,15.518c-1.697,2.676,4.205-1.257,10.566,15.983C42.486,21.422,37.109,14.483,33.488,15.518z"/>
<path fill="#613F34" d="M28.59,31.494c0,3.231,4.672,3.231,4.672,0C33.262,28.495,28.59,28.495,28.59,31.494z"/>
<path fill="#7D5037" d="M29.051,32.527c0,1.854,3.748,1.854,3.748,0C32.799,30.808,29.051,30.808,29.051,32.527z"/>
<path fill="#1A1626" d="M29.955,31.544c0,1.342,1.939,1.342,1.939,0C31.895,30.299,29.955,30.299,29.955,31.544z"/>
<path fill="#AB968C" d="M29.293,31.153c0,0.678,0.979,0.678,0.979,0C30.271,30.524,29.293,30.524,29.293,31.153z"/>
<path fill="#613F34" d="M14.738,31.498c0,3.23,4.674,3.23,4.674,0C19.412,28.498,14.738,28.498,14.738,31.498z"/>
<path fill="#7D5037" d="M15.201,32.532c0,1.853,3.748,1.853,3.748,0C18.949,30.812,15.201,30.812,15.201,32.532z"/>
<path fill="#1A1626" d="M16.105,31.549c0,1.341,1.939,1.341,1.939,0C18.045,30.304,16.105,30.304,16.105,31.549z"/>
<path fill="#AB968C" d="M15.441,31.158c0,0.678,0.981,0.678,0.981,0C16.422,30.529,15.441,30.529,15.441,31.158z"/>
<path fill="#45332C" d="M35.271,31.862c0-3.919-8.104-3.919-8.104,0.621C28.324,28.757,34.113,28.757,35.271,31.862z"/>
<path fill="#45332C" d="M12.731,31.862c0-3.919,8.105-3.919,8.105,0.62C19.678,28.756,13.887,28.756,12.731,31.862z"/>
<path fill="#302C3B" d="M37.914,27.542c-0.514-0.069-2.125-0.153-4.078-0.153c-2.24,0-4.027,0.351-5.787,0.688
	C26.301,28.412,25.137,28.65,24,28.65c-1.139,0-2.301-0.237-4.049-0.573c-1.762-0.337-3.549-0.688-5.789-0.688
	c-1.953,0-3.564,0.084-4.078,0.153c-1.031,0.14-1.031,0.14-1.031,1.384c0,1.82,0.191,2.136,0.271,2.245
	c0.109,0.147,0.416,0.351,0.516,0.507c0.147,0.228,0.199,0.931,0.27,1.338c0.557,3.22,1.324,4.336,5.703,4.336
	c4.078,0,6.086-1.325,6.851-4.6c0.059-0.245,0.16-1.29,0.223-1.533c0.025-0.096,0.106-0.241,0.318-0.274
	c0.281-0.03,0.539-0.044,0.795-0.044c0.256,0,0.512,0.014,0.795,0.044c0.211,0.033,0.293,0.179,0.318,0.274
	c0.06,0.243,0.164,1.288,0.221,1.533c0.766,3.274,2.773,4.6,6.854,4.6c4.379,0,5.146-1.116,5.701-4.336
	c0.07-0.407,0.123-1.11,0.27-1.338c0.1-0.156,0.406-0.359,0.516-0.507c0.08-0.109,0.271-0.425,0.271-2.245
	C38.945,27.682,38.945,27.682,37.914,27.542z M21.92,31.505c-0.055,0.264-0.123,0.57-0.217,0.96
	c-0.549,2.27-1.762,3.779-5.891,3.779c-4.002,0-4.357-0.914-4.734-3.481c-0.139-0.957-0.441-2.017-0.096-2.908
	c0.191-0.495,0.519-1.19,1.678-1.19c0.846,0,5.027,0.06,7.602,0.667C21.012,29.508,22.232,29.817,21.92,31.505z M36.92,32.763
	c-0.377,2.567-0.732,3.481-4.732,3.481c-4.131,0-5.344-1.51-5.891-3.779c-0.096-0.39-0.164-0.696-0.219-0.96
	c-0.313-1.688,0.908-1.997,1.66-2.174c2.572-0.607,6.754-0.667,7.6-0.667c1.158,0,1.488,0.695,1.678,1.19
	C37.361,30.746,37.061,31.806,36.92,32.763z"/>
<path fill="#018BC9" d="M5.904,53.777c2.197-1.214,11.33-4.418,11.33-4.418c0,4.217,13.604,4.217,13.604,0
	c0,0,9.123,3.196,11.31,4.414C45.328,55.538,46,61.999,46,61.999H2C2,61.999,2.709,55.533,5.904,53.777"/>
<path fill="#006DAE" d="M7.523,61.999c0.469-1.629-0.082-4.106-0.668-5.469C6.313,55.259,6.518,61.105,7.523,61.999"/>
<path fill="#006DAE" d="M24,52.556c-2.643,0-5.969-0.592-7.07-3.701c-1.733,1.07-1.035,3.701-0.621,8.494
	C18.473,57.138,20.004,54.345,24,52.556z"/>
<path fill="#018BC9" d="M24,52.556c-2.643,0-5.807-1.172-6.906-4.282c-1.73,1.07-0.77,3.285-0.355,8.077
	C18.902,56.142,20.004,54.345,24,52.556z"/>
<path fill="#006DAE" d="M24.002,52.556c2.641,0,5.969-0.592,7.068-3.701c1.732,1.07,1.033,3.701,0.623,8.494
	C29.527,57.138,27.998,54.345,24.002,52.556z"/>
<path fill="#018BC9" d="M24.002,52.556c2.641,0,5.803-1.172,6.902-4.282c1.734,1.07,0.769,3.285,0.359,8.077
	C29.098,56.142,27.998,54.345,24.002,52.556z"/>
<path fill="#54BFED" d="M22.791,55.56c0,1.525,2.418,1.525,2.418,0C25.209,54.035,22.791,54.035,22.791,55.56z"/>
<path fill="#54BFED" d="M22.791,59.613c0,1.524,2.418,1.524,2.418,0C25.209,58.085,22.791,58.085,22.791,59.613z"/>
<path fill="#018BC9" d="M50.943,61.999h-9.494c0,0,2.467-3.709,4-3.65C53.352,58.648,50.943,61.999,50.943,61.999z"/>
<path fill="#423225" d="M49.131,46.943c0.275-1.021,2.531,0.359,1.584,2.049c-0.383,0.682,4.74,6.136,4.424,7.381
	c-0.566,2.24-4.002,3.311-4.289,4.165c-0.287,0.854-6.27-0.745-5.647-1.569c1.611-2.136,0.281-4.418,1.75-6.447
	C49.408,49.132,48.678,48.615,49.131,46.943z"/>
<path fill="#1A1626" d="M57.986,24.641c0.102-0.425-0.449-0.601-0.564-0.177c-3.199,11.794-8.326,30.554-9.988,36.186
	c-0.359,1.221,1.644,1.945,1.943,0.709C51.525,52.453,54.242,40.247,57.986,24.641z"/>
<path fill="#614A36" d="M54.115,49.947c1.67,0.607,1.117,2.049,0.754,2.463c1.168,0.939,0.869,2.323,0.555,2.663
	c1.248,3.254-8.498,3.936-4.9,1.432c-2.969-0.096-1.285-1.849,0.289-2.515c-4.01,1.105-2.705-1.377,0.508-2.473
	C45.813,52.966,53.971,44.142,54.115,49.947z"/>
</svg>
