<?xml version="1.0" encoding="utf-8"?>
<!-- Generator: Adobe Illustrator 19.0.0, SVG Export Plug-In . SVG Version: 6.00 Build 0)  -->
<svg version="1.1" id="Layer_1" xmlns="http://www.w3.org/2000/svg" xmlns:xlink="http://www.w3.org/1999/xlink" x="0px" y="0px"
	 width="64px" height="64px" viewBox="0 0 64 64" enable-background="new 0 0 64 64" xml:space="preserve">
<path fill="#5C3A2E" d="M19.076,13.403c-8.712,37.396-7.915,36.596,10.426,36.596C19.353,42.898,38.795,12.894,19.076,13.403z"/>
<path fill="#6B4435" d="M15.934,12.824c-6.357,28.412-0.872,35.709,3.998,37.175h5.583C12.453,40.796,32.869,12.264,15.934,12.824z"
	/>
<path fill="#5C3A2E" d="M44.709,13.401c8.713,37.397,7.915,36.597-10.425,36.597C43.617,44.298,24.99,12.892,44.709,13.401z"/>
<path fill="#6B4435" d="M47.85,12.822c9.295,25.85-0.02,35.979-3.998,37.176h-5.579C51.334,41.547,30.918,12.262,47.85,12.822z"/>
<path fill="#B88A6F" d="M32,4.414c-11.609,0-17.201,9.455-16.502,21.611c0.143,2.444,0.822,5.969,1.662,8.989
	c1.74,6.278,10.928,12.6,14.84,12.6c3.911,0,13.1-6.321,14.84-12.6c0.84-3.021,1.52-6.545,1.664-8.989
	C49.201,13.869,43.611,4.414,32,4.414z"/>
<path fill="#FFFFFF" d="M44.542,26.357c-1.552,4.06-7.861,3.465-9.017,0.624C36.4,22.414,43.689,22.024,44.542,26.357z"/>
<path fill="#FFFFFF" d="M19.46,26.357c1.552,4.06,7.862,3.466,9.019,0.624C27.603,22.414,20.315,22.024,19.46,26.357z"/>
<path fill="#423225" d="M44.795,21.61c-2.617-1.559-7.308-1.75-9.165-0.688c-0.394,0.215-0.287,1.341,0.053,1.2
	c2.648-1.103,6.681-1.157,9.167,0.117C45.184,22.409,45.19,21.836,44.795,21.61z"/>
<path fill="#423225" d="M19.207,21.61c2.616-1.559,7.307-1.75,9.167-0.688c0.392,0.215,0.288,1.341-0.055,1.2
	c-2.649-1.103-6.68-1.159-9.167,0.117C18.818,22.409,18.813,21.836,19.207,21.61z"/>
<path fill="#946346" d="M35.601,33.345c0,2.342-7.2,2.342-7.2,0C28.4,32.807,35.601,32.807,35.601,33.345z"/>
<path fill="#875B49" d="M44.973,6.106c-8.14,8.341-0.371,8.88,4.424,20.606c2.692,6.571,0.029,20.059-5.545,23.286
	c6.177,0,9.939-8.55,11.774-20.309C57.917,14.993,49.109,4.878,44.973,6.106z"/>
<path fill="#875B49" d="M24.99,2.91C14.667,5.34,5.045,14.462,8.851,32.415c2.25,10.613,5.019,17.583,11.081,17.583
	c-6.758-6.999-5.964-21.76-4.043-25.433c9.793-5.827,26.539-10.241,29.084-18.46C46.265,4.208,35.32,0.204,24.99,2.91z"/>
<path fill="#6B4435" d="M17.081,15.989c4.366-0.886,25.249-1.303,27.892-9.883C40.037,10.039,34.924,11.11,17.081,15.989z"/>
<path fill="#6B4435" d="M9.555,29.637c7.324-9.774,31.315-8.695,35.418-23.531C37.007,18.557,11.557,20.241,9.555,29.637z"/>
<path fill="#6B4435" d="M42.559,8.139c-1.89,2.978,4.678-1.397,11.757,17.785C52.569,14.709,46.589,6.988,42.559,8.139z"/>
<path fill="#613F34" d="M37.107,25.915c0,3.596,5.199,3.596,5.199,0C42.306,22.578,37.107,22.578,37.107,25.915z"/>
<path fill="#7D5037" d="M37.619,27.066c0,2.063,4.172,2.063,4.172,0C41.791,25.153,37.619,25.153,37.619,27.066z"/>
<path fill="#1A1626" d="M38.626,25.972c0,1.492,2.16,1.492,2.16,0C40.786,24.587,38.626,24.587,38.626,25.972z"/>
<path fill="#AB968C" d="M37.889,25.536c0,0.754,1.09,0.754,1.09,0C38.979,24.836,37.889,24.836,37.889,25.536z"/>
<path fill="#613F34" d="M21.695,25.921c0,3.596,5.2,3.596,5.2,0C26.896,22.583,21.695,22.583,21.695,25.921z"/>
<path fill="#7D5037" d="M22.21,27.072c0,2.062,4.172,2.062,4.172,0C26.382,25.158,22.21,25.158,22.21,27.072z"/>
<path fill="#1A1626" d="M23.217,25.978c0,1.492,2.158,1.492,2.158,0C25.375,24.592,23.217,24.592,23.217,25.978z"/>
<path fill="#AB968C" d="M22.48,25.541c0,0.755,1.09,0.755,1.09,0C23.569,24.842,22.48,24.842,22.48,25.541z"/>
<path fill="#45332C" d="M44.542,26.326c0-4.36-9.017-4.36-9.017,0.691C36.811,22.871,43.254,22.871,44.542,26.326z"/>
<path fill="#45332C" d="M19.46,26.326c0-4.36,9.019-4.36,9.019,0.689C27.191,22.869,20.748,22.869,19.46,26.326z"/>
<path fill="#BEC3CF" d="M53.832,59.5H10.168c-1.279,0-1.209,1.125-1.279,2.5h46.223C55.041,60.625,55.111,59.5,53.832,59.5z"/>
<path fill="#99A8AE" d="M10.332,60c0-0.174,3.719-0.313,21.668-0.313c17.949,0,21.666,0.139,21.666,0.313
	c0,0.17-3.717,0.313-21.666,0.313C14.051,60.313,10.332,60.17,10.332,60"/>
<path fill="#CFD8DD" d="M56.986,36H7.014c-0.625,0-1.078,0.412-1.006,0.916l3.149,22.166C9.227,59.586,9.797,60,10.42,60h43.158
	c0.625,0,1.195-0.414,1.266-0.918l3.148-22.166C58.065,36.412,57.609,36,56.986,36"/>
<path fill="#FFFFFF" d="M55.738,36.922c0,0.256-4.074,0.463-23.738,0.463c-19.666,0-23.738-0.207-23.738-0.463
	c0-0.254,4.072-0.461,23.738-0.461C51.664,36.461,55.738,36.668,55.738,36.922"/>
<path fill="#99A8AE" d="M16.758,61h-3.934c-1.377,0-1.377-2,0-2h3.934C18.137,59,18.137,61,16.758,61z"/>
<path fill="#99A8AE" d="M51.174,61H47.24c-1.377,0-1.377-2,0-2h3.934C52.553,59,52.553,61,51.174,61z"/>
<path fill="#99A8AE" d="M44.406,61.137c0,0.691-1,0.691-1,0C43.406,60.494,44.406,60.494,44.406,61.137z"/>
<path fill="#99A8AE" d="M42.375,61.137c0,0.691-1,0.691-1,0C41.375,60.494,42.375,60.494,42.375,61.137z"/>
<path id="Shape_8_" fill="#FFFFFF" d="M32,45.999c2.068,0,3.75,1.346,3.75,3s-1.682,3-3.75,3c-2.066,0-3.75-1.346-3.75-3
	S29.934,45.999,32,45.999z M32,44.999c-2.76,0-5,1.791-5,4s2.24,4,5,4c2.762,0,5-1.791,5-4S34.762,44.999,32,44.999z"/>
<path id="Combined-Shape_8_" fill="#FFFFFF" d="M33.002,49.4c-0.168,0-0.252-0.066-0.252-0.199v-0.4
	c0-0.135,0.084-0.201,0.252-0.201h1.623c0.168,0,0.252,0.066,0.252,0.201v0.199c0,1.271-1.287,2.301-2.877,2.301
	c-0.771,0-1.496-0.246-2.031-0.674c-0.119-0.096-0.119-0.188-0.002-0.283l0.533-0.424c0.117-0.094,0.234-0.094,0.352,0
	C31.156,50.161,31.565,50.3,32,50.3c0.723,0,1.336-0.377,1.549-0.9H33.002z"/>
</svg>
