<?xml version="1.0" encoding="utf-8"?>
<!-- Generator: Adobe Illustrator 19.0.0, SVG Export Plug-In . SVG Version: 6.00 Build 0)  -->
<svg version="1.1" id="Layer_1" xmlns="http://www.w3.org/2000/svg" xmlns:xlink="http://www.w3.org/1999/xlink" x="0px" y="0px"
	 width="64px" height="64px" viewBox="0 0 64 64" enable-background="new 0 0 64 64" xml:space="preserve">
<path fill="#3B2C29" d="M40.465,6.615c-3.536,15.134-3.204,14.812,4.226,14.812C40.582,18.546,48.451,6.409,40.465,6.615z"/>
<path fill="#453631" d="M39.195,6.38c-2.579,11.492-0.36,14.45,1.609,15.046h2.266C37.779,17.697,46.048,6.156,39.195,6.38z"/>
<path fill="#3B2C29" d="M50.853,6.615c3.525,15.134,3.201,14.812-4.229,14.812C50.404,19.113,42.855,6.409,50.853,6.615z"/>
<path fill="#453631" d="M52.123,6.38c3.768,10.457-0.01,14.558-1.621,15.046h-2.255C53.527,17.999,45.258,6.156,52.123,6.38z"/>
<path fill="#594640" d="M52.748,12.004c1.092,2.656,0.01,8.113-2.246,9.422c2.5,0,4.033-3.466,4.775-8.221
	C56.203,7.259,50.805,7.259,52.748,12.004z"/>
<path fill="#594640" d="M36.323,14.309c0.909,4.296,2.032,7.117,4.481,7.117c-2.732-2.831-2.41-8.807-1.629-10.291
	C43.141,8.773,34.78,7.044,36.323,14.309z"/>
<path fill="#FFCC66" d="M47.807,20.651v-2.257h-4.211c0,0,0,2.257,0,2.258c-0.601,0.164-2.552,0.487-2.552,0.487
	s2.419,6.98,4.658,6.98c2.241,0,4.66-6.98,4.66-6.98S48.409,20.816,47.807,20.651z"/>
<path fill="#E6B045" d="M43.297,19.371c2.184,2.249,2.621,2.247,4.805-0.001L43.297,19.371z"/>
<path fill="#FFCC66" d="M41.437,59.513c0-5.148-0.98-8.529-0.98-15.293h4.157c0,6.957-0.609,9.539-0.214,15.186L41.437,59.513z"/>
<path fill="#302C3B" d="M44.31,57.76c0,1.446-2.912,1.591-2.912,0c0,0-1.704,3.075-0.866,4.24h4.715
	C46.084,60.841,44.31,57.76,44.31,57.76z"/>
<path fill="#FFCC66" d="M50.037,59.513c0-5.148,0.922-8.529,0.922-15.293h-3.924c0,6.957,0.575,9.539,0.202,15.186L50.037,59.513z"
	/>
<path fill="#302C3B" d="M47.321,57.76c0,1.446,2.752,1.591,2.752,0c0,0,1.605,3.075,0.815,4.24h-4.452
	C45.65,60.841,47.321,57.76,47.321,57.76z"/>
<path fill="#FFCC66" d="M51.505,37.063c2.947-1.988,4.765-4.828,4.463-5.614c-1.5-3.905-2.73-9.224-4.717-10.027l-1.405,4.304
	c0.916-0.354,2.466,4.054,3.496,5.481c0.151,0.21-0.468,2.097-2.877,4.306L51.505,37.063z"/>
<path fill="#FFCC66" d="M30.181,41.701c2.739-4.233,3.682-6.941,5.653-11.274c1.727-3.795,2.306-8.203,4.292-9.007l1.405,4.304
	c-0.916-0.354-3.563,5.018-4.071,6.881c-1.014,3.715-2.93,4.067-3.541,7.792c-0.593,3.613-1.561,1.422-1.577,0.14
	C30.691,43.699,30.06,44.22,30.181,41.701z"/>
<path fill="#FFCC66" d="M10.553,42.8c-1.831-1.927,0.134,3.637-1.566,1.847c-1.581-1.666-0.778-4.456-0.778-4.456l2.695-0.509
	C10.904,39.682,12.066,44.394,10.553,42.8z"/>
<path fill="#FFCC66" d="M31.889,43.455c2.797-2.419-0.471-4.955-0.471-4.955l-2.327,1.553
	C29.004,39.859,30.886,44.323,31.889,43.455z"/>
<path fill="#302C3B" d="M24.673,36.853H12.262c-1.082,5.025,0.187,10.995-1.079,23.245c-0.16,1.543,5.806,1.552,5.752,0
	c-0.249-7.146,0.458-11.612,0.964-15.968c0.037-0.325,1.101-0.325,1.138,0c0.507,4.355,1.213,8.821,0.964,15.968
	c-0.054,1.552,5.912,1.543,5.752,0C24.486,47.848,25.755,41.878,24.673,36.853z"/>
<path fill="#CFD8DD" d="M26.822,62h-6.837C18.777,56.906,26.822,57.901,26.822,62z"/>
<path fill="#7AB51D" d="M26.382,23.274c-0.644-1.523-5.449-3.329-5.449-3.329h-4.931c0,0-4.959,1.74-5.449,3.329
	c-2.479,8.033-2.743,9.242-2.464,17.219c0.028,0.813,2.944-0.259,2.954-0.659c0.188-7.177,0.137-5.512,1.219-11.098
	c0.649,3.709-0.227,7.704,0,8.117c0.802,1.462,11.609,1.462,12.411,0c0.228-0.413-0.648-4.408,0-8.117
	c2.044,4.753,2.278,5.613,4.497,11.769c0.135,0.373,2.659-1.032,2.463-1.817C30.166,32.823,28.737,28.849,26.382,23.274z"/>
<path fill="#CFD8DD" d="M10.112,62h6.837C18.157,56.906,10.112,57.901,10.112,62z"/>
<path fill="#FFCC66" d="M45.696,2.973c-4.696,0-6.97,3.827-6.686,8.748c0.059,0.986,0.341,2.412,0.673,3.642
	c0.711,2.539,4.432,5.097,6.013,5.097c1.593,0,5.313-2.558,6.017-5.097c0.342-1.23,0.615-2.655,0.674-3.642
	C52.67,6.8,50.404,2.973,45.696,2.973z"/>
<path fill="#D47706" d="M45.696,16.398c-1.142-0.498-1.151-0.02-2.919,0.098c0.664,0.752,1.152,1.719,2.919,1.719
	c2.032,0,2.375-1.094,2.921-1.719C46.849,16.378,46.84,15.9,45.696,16.398z"/>
<path fill="#FFFFFF" d="M43.316,16.681c1.15,1.201,3.63,1.191,4.775,0C46.312,16.876,45.082,16.876,43.316,16.681z"/>
<path fill="#594640" d="M50.883,9.935c-1.055-0.635-2.959-0.703-3.711-0.274c-0.156,0.078-0.117,0.537,0.019,0.479
	c1.075-0.439,2.705-0.469,3.711,0.049C51.039,10.257,51.049,10.032,50.883,9.935z"/>
<path fill="#594640" d="M40.512,9.935c1.067-0.635,2.969-0.703,3.721-0.274c0.156,0.078,0.117,0.537-0.029,0.479
	C43.141,9.7,41.5,9.671,40.492,10.189C40.355,10.257,40.355,10.032,40.512,9.935z"/>
<path fill="#E6B045" d="M47.162,14.68c0,0.946-2.92,0.946-2.92,0C44.242,14.465,47.162,14.465,47.162,14.68z"/>
<path fill="#FFFFFF" d="M50.785,11.858c-0.635,1.641-3.184,1.396-3.652,0.254C47.484,10.257,50.433,10.101,50.785,11.858z"/>
<path fill="#613F34" d="M47.767,11.682c0,1.455,2.109,1.455,2.109,0C49.877,10.326,47.767,10.326,47.767,11.682z"/>
<path fill="#7D5037" d="M47.974,12.141c0,0.84,1.698,0.84,1.698,0C49.672,11.369,47.974,11.369,47.974,12.141z"/>
<path fill="#1A1626" d="M48.384,11.701c0,0.605,0.878,0.605,0.878,0C49.262,11.135,48.384,11.135,48.384,11.701z"/>
<path fill="#AB968C" d="M48.091,11.526c0,0.303,0.438,0.303,0.438,0C48.529,11.242,48.091,11.242,48.091,11.526z"/>
<path fill="#45332C" d="M50.785,11.848c0-1.767-3.652-1.767-3.652,0.273C47.65,10.444,50.258,10.444,50.785,11.848z"/>
<path fill="#FFFFFF" d="M40.621,11.858c0.625,1.641,3.184,1.406,3.65,0.254C43.92,10.257,40.961,10.101,40.621,11.858z"/>
<path fill="#613F34" d="M41.527,11.682c0,1.455,2.101,1.455,2.101,0C43.629,10.326,41.527,10.326,41.527,11.682z"/>
<path fill="#7D5037" d="M41.734,12.141c0,0.84,1.688,0.84,1.688,0C43.422,11.369,41.734,11.369,41.734,12.141z"/>
<path fill="#1A1626" d="M42.144,11.701c0,0.605,0.867,0.605,0.867,0C43.012,11.145,42.144,11.145,42.144,11.701z"/>
<path fill="#AB968C" d="M41.84,11.526c0,0.303,0.441,0.303,0.441,0C42.281,11.242,41.84,11.242,41.84,11.526z"/>
<path fill="#45332C" d="M40.621,11.848c0-1.767,3.65-1.767,3.65,0.273C43.754,10.444,41.137,10.444,40.621,11.848z"/>
<path fill="#594640" d="M50.961,3.666c-3.301,3.368-0.156,3.593,1.787,8.338c1.092,2.656,1.787,5.956,2.529,1.201
	C56.203,7.259,52.631,3.168,50.961,3.666z"/>
<path fill="#594640" d="M42.855,2.367c-4.177,0.986-8.075,4.677-6.532,11.941c0.909,4.296,2.071-1.689,2.853-3.174
	c3.965-2.362,10.75-4.15,11.785-7.469C51.478,2.895,47.044,1.274,42.855,2.367z"/>
<path fill="#453631" d="M39.652,7.659c1.77-0.361,10.234-0.527,11.309-3.993C48.959,5.248,46.888,5.688,39.652,7.659z"/>
<path fill="#453631" d="M36.607,13.186c2.967-3.954,12.683-3.524,14.353-9.519C47.728,8.695,37.417,9.378,36.607,13.186z"/>
<path fill="#453631" d="M49.974,4.487c-0.762,1.201,1.895-0.566,4.764,7.195C54.035,7.142,51.615,4.018,49.974,4.487z"/>
<path fill="#E6B045" d="M21.189,19.942c0-0.468,0-2.548,0-2.548h-5.447c0,0,0,2.051,0,2.548
	C15.742,22.686,21.189,22.686,21.189,19.942z"/>
<path fill="#E6B045" d="M11.523,10.218c-2.322-0.42-0.508,6.063,1.309,4.276C13.672,13.664,12.607,10.412,11.523,10.218z"/>
<path fill="#E6B045" d="M25.408,10.218c-1.084,0.194-2.148,3.446-1.309,4.276C25.926,16.281,27.732,9.798,25.408,10.218z"/>
<path fill="#FFCC66" d="M18.467,2.612c-4.805,0-7.119,3.632-6.826,8.67c0.058,1.016,0.683,4.325,1.279,5.517
	c0.615,1.211,2.646,3.085,3.896,3.476c0.791,0.244,2.51,0.244,3.299,0c1.25-0.391,3.291-2.265,3.896-3.476
	c0.596-1.191,1.221-4.501,1.279-5.517C25.584,6.243,23.269,2.612,18.467,2.612z"/>
<path fill="#E6A400" d="M18.467,16.349c-1.084-0.322-2.676,0.146-2.676,0.146c0.605,0.664,1.055,1.523,2.676,1.523
	c1.863,0,2.176-0.976,2.684-1.523C21.15,16.495,19.551,16.027,18.467,16.349z"/>
<path fill="#FFFFFF" d="M16.191,16.613c1.133,0.947,3.428,0.947,4.559,0C19.551,16.661,17.412,16.661,16.191,16.613z"/>
<path fill="#E6B045" d="M19.961,14.563c0,0.966-2.979,0.966-2.979,0C16.982,14.338,19.961,14.338,19.961,14.563z"/>
<path fill="#594640" d="M18.467,2.612c-3.301,0-5.303,1.084-6.162,0.674c0,0-0.088,0.557,0.244,0.928c0,0-0.352,0.303-0.928-0.215
	C11.074,5.776,12.695,6.8,18.467,6.8c5.77,0,4.393-1.395,7.234,1.064C25.418,4.828,23.484,2.612,18.467,2.612z"/>
<path fill="#453631" d="M20.906,5.258c-3.172,1.171-4.334-0.938-7.332-1.143C15,4.78,15.693,5.824,16.865,6.566
	c-2.549-0.849-4.414-2.313-4.561-3.28c0,0-0.42,1.406,1.26,2.461c-1.611,0.146-1.943-1.738-1.943-1.738
	c-0.818,1.299-0.703,5.517,0.205,8.641c0.146-1.113-0.195-1.572,0.322-2.919c1.543-4.023,0.547-2.334,6.318-2.334
	c5.77,0,4.725-1.532,6.316,2.334c0.479,1.151,0.176,1.806,0.332,2.919C27.01,5.6,24.275,4.018,20.906,5.258z"/>
<path fill="#FFFFFF" d="M23.611,11.672c-0.645,1.68-3.262,1.436-3.729,0.254C20.244,10.042,23.26,9.886,23.611,11.672z"/>
<path fill="#FFFFFF" d="M13.32,11.672c0.645,1.68,3.262,1.436,3.731,0.254C16.689,10.042,13.682,9.886,13.32,11.672z"/>
<path fill="#C1873C" d="M23.875,9.652c-1.104-0.537-3.203-0.566-3.982-0.186c-0.166,0.068-0.059,0.586,0.088,0.537
	c1.092-0.4,2.85-0.41,3.865,0.039C23.982,10.091,24.041,9.73,23.875,9.652z"/>
<path fill="#C1873C" d="M13.057,9.652c1.104-0.537,3.203-0.566,3.984-0.186c0.166,0.068,0.059,0.586-0.078,0.537
	c-1.094-0.4-2.852-0.41-3.877,0.039C12.949,10.091,12.891,9.73,13.057,9.652z"/>
<path fill="#613F34" d="M20.545,11.496c0,1.475,2.129,1.475,2.129,0C22.674,10.13,20.545,10.13,20.545,11.496z"/>
<path fill="#7D5037" d="M20.75,11.965c0,0.85,1.719,0.85,1.719,0C22.469,11.184,20.75,11.184,20.75,11.965z"/>
<path fill="#1A1626" d="M21.17,11.516c0,0.615,0.879,0.615,0.879,0C22.049,10.949,21.17,10.949,21.17,11.516z"/>
<path fill="#AB968C" d="M20.867,11.34c0,0.313,0.439,0.313,0.439,0C21.307,11.057,20.867,11.057,20.867,11.34z"/>
<path fill="#613F34" d="M14.258,11.496c0,1.475,2.129,1.475,2.129,0C16.387,10.13,14.258,10.13,14.258,11.496z"/>
<path fill="#7D5037" d="M14.473,11.965c0,0.84,1.709,0.84,1.709,0C16.182,11.184,14.473,11.184,14.473,11.965z"/>
<path fill="#1A1626" d="M14.883,11.516c0,0.615,0.879,0.615,0.879,0C15.762,10.949,14.883,10.949,14.883,11.516z"/>
<path fill="#AB968C" d="M14.58,11.34c0,0.313,0.449,0.313,0.449,0C15.029,11.057,14.58,11.057,14.58,11.34z"/>
<path fill="#E6B045" d="M23.611,11.662c0-1.806-3.729-1.806-3.729,0.283C20.408,10.238,23.074,10.238,23.611,11.662z"/>
<path fill="#E6B045" d="M13.32,11.662c0-1.806,3.731-1.806,3.731,0.283C16.523,10.238,13.857,10.238,13.32,11.662z"/>
<path fill="#8E3ED6" d="M37.14,46.999c0-8.791,4.389-13.632,4.389-18.382c-1.905-1.541,0-3.315-1.588-7.327l1.192-0.358
	c1.551,3.554,7.558,3.557,9.109,0l1.194,0.358c-1.588,4.012,0.317,5.786-1.588,7.327c0,4.75,4.389,9.591,4.389,18.382H37.14z"/>
<path fill="#5D1E96" d="M45.672,44.836c4.436,0,7.564-0.832,8.361-1.068c0.127,1.018,0.204,2.09,0.204,3.231
	c0,0-3.399,1.131-8.565,1.131c-5.087,0-8.532-1.131-8.532-1.131c0-1.142,0.075-2.214,0.204-3.231
	C38.144,44.003,41.298,44.836,45.672,44.836z"/>
</svg>
