<?xml version="1.0" encoding="utf-8"?>
<!-- Generator: Adobe Illustrator 15.0.0, SVG Export Plug-In . SVG Version: 6.00 Build 0)  -->
<!DOCTYPE svg PUBLIC "-//W3C//DTD SVG 1.1//EN" "http://www.w3.org/Graphics/SVG/1.1/DTD/svg11.dtd" [
	<!ENTITY ns_flows "http://ns.adobe.com/Flows/1.0/">
	<!ENTITY ns_extend "http://ns.adobe.com/Extensibility/1.0/">
	<!ENTITY ns_ai "http://ns.adobe.com/AdobeIllustrator/10.0/">
	<!ENTITY ns_graphs "http://ns.adobe.com/Graphs/1.0/">
]>
<svg version="1.1" id="Layer_1" xmlns:x="&ns_extend;" xmlns:i="&ns_ai;" xmlns:graph="&ns_graphs;"
	 xmlns="http://www.w3.org/2000/svg" xmlns:xlink="http://www.w3.org/1999/xlink" xmlns:a="http://ns.adobe.com/AdobeSVGViewerExtensions/3.0/"
	 x="0px" y="0px" width="64px" height="64px" viewBox="0 0 64 64" enable-background="new 0 0 64 64" xml:space="preserve">
<path fill="#38332D" d="M61.349,34.645c0.922-1.131,0.848-2.914-0.123-3.994c1.021-1.463,0.525-3.803-1.244-4.525
	c0.594-1.484-0.006-3.441-1.674-4.018c0.459-1.479-0.363-3.244-1.844-3.787c0.438-1.609-0.621-3.512-2.34-3.816
	c0.338-1.766-1.182-3.557-2.977-3.57c-0.217-1.615-1.881-2.865-3.506-2.613c-0.299-1.873-2.529-3.289-4.395-2.25
	c-0.504-1.666-2.563-2.557-4.145-1.879c-0.912-1.477-3.145-1.895-4.512-0.789c-1.092-1.869-4.089-1.869-5.181,0
	c-1.369-1.105-3.602-0.688-4.512,0.789c-1.582-0.678-3.643,0.213-4.146,1.879c-1.865-1.039-4.094,0.377-4.393,2.25
	c-1.627-0.252-3.291,0.998-3.508,2.613c-1.793,0.014-3.314,1.805-2.975,3.57c-1.719,0.305-2.779,2.207-2.34,3.816
	c-1.482,0.543-2.305,2.309-1.844,3.787c-1.668,0.576-2.27,2.533-1.676,4.018c-1.77,0.723-2.264,3.063-1.242,4.525
	c-0.971,1.08-1.045,2.863-0.123,3.994c-1.088,1.404-0.857,3.768,1.02,4.6c-0.939,1.371-0.553,3.496,0.93,4.354
	c-0.961,1.693,0.08,4.17,2.129,4.463c-0.377,1.783,1.131,3.705,3.012,3.656c0.744,1.297,3.51,1.906,4.898,1.32
	c0.611,1.773,3.701,2.303,5.207,1.588c2.707,3.166,21.597,3.166,24.306,0c1.504,0.715,4.596,0.186,5.205-1.588
	c1.391,0.586,4.156-0.023,4.9-1.32c1.881,0.049,3.387-1.873,3.01-3.656c2.049-0.293,3.092-2.77,2.129-4.463
	c1.484-0.857,1.871-2.982,0.932-4.354C62.206,38.412,62.435,36.049,61.349,34.645z"/>
<path fill="#26221E" d="M28.5,10.546c0,4.667,7,4.667,7,0S28.5,5.879,28.5,10.546z"/>
<path fill="#26221E" d="M49.927,51.992c0,4.666-7,4.666-7,0S49.927,47.326,49.927,51.992z"/>
<path fill="#26221E" d="M53.595,49.834c0,4.666-7,4.666-7,0S53.595,45.168,53.595,49.834z"/>
<path fill="#26221E" d="M56.003,44.617c0,4.666-7,4.666-7,0S56.003,39.951,56.003,44.617z"/>
<path fill="#26221E" d="M57.378,39.422c0,4.666-7,4.666-7,0S57.378,34.756,57.378,39.422z"/>
<path fill="#26221E" d="M58.024,33.561c0,4.666-7,4.666-7,0C51.024,28.894,58.024,28.894,58.024,33.561z"/>
<path fill="#26221E" d="M56.69,27.87c0,4.667-7,4.667-7,0S56.69,23.204,56.69,27.87z"/>
<path fill="#26221E" d="M54.94,22.046c0,4.667-7,4.667-7,0S54.94,17.38,54.94,22.046z"/>
<path fill="#26221E" d="M51.19,17.381c0,4.667-7,4.667-7,0S51.19,12.714,51.19,17.381z"/>
<path fill="#26221E" d="M46.593,13.631c0,4.667-7,4.667-7,0S46.593,8.964,46.593,13.631z"/>
<path fill="#26221E" d="M41.378,11.698c0,4.667-7,4.667-7,0S41.378,7.032,41.378,11.698z"/>
<path fill="#26221E" d="M14.072,51.992c0,4.666,7,4.666,7,0S14.072,47.326,14.072,51.992z"/>
<path fill="#26221E" d="M10.404,49.834c0,4.666,7,4.666,7,0S10.404,45.168,10.404,49.834z"/>
<path fill="#26221E" d="M7.996,44.617c0,4.666,7,4.666,7,0S7.996,39.951,7.996,44.617z"/>
<path fill="#26221E" d="M6.621,39.422c0,4.666,7,4.666,7,0S6.621,34.756,6.621,39.422z"/>
<path fill="#26221E" d="M5.974,33.561c0,4.666,7,4.666,7,0C12.974,28.894,5.974,28.894,5.974,33.561z"/>
<path fill="#26221E" d="M7.308,27.87c0,4.667,7,4.667,7,0S7.308,23.204,7.308,27.87z"/>
<path fill="#26221E" d="M9.058,22.046c0,4.667,7,4.667,7,0S9.058,17.38,9.058,22.046z"/>
<path fill="#26221E" d="M12.808,17.381c0,4.667,7,4.667,7,0S12.808,12.714,12.808,17.381z"/>
<path fill="#26221E" d="M17.406,13.631c0,4.667,7,4.667,7,0S17.406,8.964,17.406,13.631z"/>
<path fill="#26221E" d="M22.621,11.698c0,4.667,7,4.667,7,0S22.621,7.032,22.621,11.698z"/>
<path fill="#614A36" d="M32.001,9.406c-14.135,0-20.943,11.511-20.092,26.311c0.174,2.975,1.002,7.266,2.023,10.943
	C16.052,54.305,27.238,62,32.001,62c4.761,0,15.945-7.695,18.066-15.34c1.021-3.678,1.85-7.969,2.025-10.943
	C52.94,20.917,46.136,9.406,32.001,9.406z"/>
<path fill="#FFFFFF" d="M47.269,36.119c-1.889,4.943-9.57,4.219-10.977,0.76C37.358,31.32,46.229,30.845,47.269,36.119z"/>
<path fill="#FFFFFF" d="M16.734,36.119c1.889,4.943,9.572,4.221,10.979,0.76C26.646,31.32,17.773,30.845,16.734,36.119z"/>
<path fill="#36281D" d="M32.001,49.791c-3.436-1.51-3.463-0.061-8.766,0.295c1.99,2.26,3.455,5.168,8.764,5.168
	c6.089,0,7.119-3.301,8.769-5.168C35.46,49.73,35.438,48.281,32.001,49.791z"/>
<path fill="#FFFFFF" d="M24.828,50.65c3.461,3.602,10.927,3.555,14.347,0.002C33.843,51.225,30.16,51.225,24.828,50.65z"/>
<path fill="#423225" d="M47.577,30.341c-3.186-1.898-8.898-2.131-11.158-0.838c-0.479,0.261-0.35,1.633,0.063,1.461
	c3.225-1.343,8.137-1.409,11.164,0.144C48.05,31.313,48.06,30.616,47.577,30.341z"/>
<path fill="#423225" d="M16.425,30.341c3.184-1.898,8.895-2.131,11.158-0.838c0.48,0.261,0.352,1.633-0.064,1.461
	c-3.225-1.343-8.133-1.411-11.16,0.144C15.951,31.313,15.943,30.616,16.425,30.341z"/>
<path fill="#423225" d="M36.384,44.627c0,2.852-8.765,2.852-8.765,0C27.619,43.973,36.384,43.973,36.384,44.627z"/>
<path fill="#613F34" d="M38.218,35.582c0,4.379,6.33,4.379,6.33,0C44.548,31.519,38.218,31.519,38.218,35.582z"/>
<path fill="#7D5037" d="M38.843,36.982c0,2.51,5.08,2.51,5.08,0C43.923,34.652,38.843,34.652,38.843,36.982z"/>
<path fill="#1A1626" d="M40.067,35.652c0,1.816,2.629,1.816,2.629,0C42.696,33.965,40.067,33.965,40.067,35.652z"/>
<path fill="#AB968C" d="M39.171,35.121c0,0.918,1.326,0.918,1.326,0C40.497,34.27,39.171,34.27,39.171,35.121z"/>
<path fill="#613F34" d="M19.455,35.59c0,4.377,6.332,4.377,6.332,0C25.787,31.525,19.455,31.525,19.455,35.59z"/>
<path fill="#7D5037" d="M20.082,36.99c0,2.51,5.078,2.51,5.078,0C25.16,34.66,20.082,34.66,20.082,36.99z"/>
<path fill="#1A1626" d="M21.306,35.658c0,1.816,2.629,1.816,2.629,0C23.935,33.971,21.306,33.971,21.306,35.658z"/>
<path fill="#AB968C" d="M20.408,35.127c0,0.918,1.328,0.918,1.328,0C21.736,34.275,20.408,34.275,20.408,35.127z"/>
<path fill="#45332C" d="M47.269,36.082c0-5.31-10.977-5.31-10.977,0.84C37.858,31.876,45.702,31.876,47.269,36.082z"/>
<path fill="#45332C" d="M16.734,36.082c0-5.31,10.979-5.31,10.979,0.838C26.146,31.874,18.3,31.874,16.734,36.082z"/>
<path fill="#26221E" d="M12.351,29.158c1.514,0.023,3.586-1.877,3.232-3.349c0.742,1.287,4.473,0.22,4.354-1.744
	c2.311,1.113,4.783-0.553,4.504-1.979c0.904,1.04,4.211,1.08,4.766-1.087c0.826,1.658,4.701,1.627,5.585,0
	c0.561,2.163,3.771,2.412,4.766,1.079c-0.279,1.429,2.193,3.093,4.504,1.981c-0.119,1.962,3.104,2.826,4.354,1.742
	c-0.352,1.479,1.719,3.372,3.23,3.35c-0.238,0.813,1.369,3.684,1.369,3.684S53.306,8.927,32,8.927
	c-21.303,0-21.014,23.909-21.014,23.909S12.593,29.972,12.351,29.158z"/>
<path fill="#38332D" d="M34.804,14.557c-0.137-3.706-5.496-4.67-6.886-1.236C29.957,12.222,33.263,12.816,34.804,14.557z"/>
<path fill="#38332D" d="M43.624,12.88c-0.137-3.706-5.494-4.669-6.887-1.236C38.776,10.545,42.083,11.139,43.624,12.88z"/>
<path fill="#38332D" d="M27.064,10.837c-2.283-2.922-7.189-0.56-6.303,3.038C21.769,11.789,24.796,10.33,27.064,10.837z"/>
<path fill="#38332D" d="M16.878,17.744c-3.326-1.637-6.717,2.624-4.352,5.478C12.527,20.905,14.617,18.275,16.878,17.744z"/>
<path fill="#38332D" d="M10.951,27.265c-3.707-0.092-4.998,5.198-1.656,6.798C8.324,31.959,9.119,28.695,10.951,27.265z"/>
<path fill="#38332D" d="M26.597,17.392c-1.947-3.157-7.082-1.353-6.6,2.321C21.23,17.75,24.398,16.637,26.597,17.392z"/>
<path fill="#38332D" d="M39.362,16.611c-0.289-3.697-5.684-4.437-6.933-0.948C34.421,14.48,37.751,14.937,39.362,16.611z"/>
<path fill="#38332D" d="M50.731,23.183c2.826-2.4,0.268-7.206-3.291-6.176C49.567,17.93,51.146,20.896,50.731,23.183z"/>
<path fill="#38332D" d="M46.729,20.931c1.656-3.316-2.58-6.733-5.451-4.39C43.597,16.556,46.212,18.664,46.729,20.931z"/>
<path fill="#38332D" d="M54.433,34.494c3.414-1.447,2.406-6.798-1.299-6.876C54.888,29.133,55.511,32.434,54.433,34.494z"/>
</svg>
