<?xml version="1.0" encoding="utf-8"?>
<!-- Generator: Adobe Illustrator 19.0.0, SVG Export Plug-In . SVG Version: 6.00 Build 0)  -->
<svg version="1.1" id="Layer_1" xmlns="http://www.w3.org/2000/svg" xmlns:xlink="http://www.w3.org/1999/xlink" x="0px" y="0px"
	 width="64px" height="64px" viewBox="0 0 64 64" enable-background="new 0 0 64 64" xml:space="preserve">
<rect x="2" y="16" fill="#967668" width="60" height="40"/>
<rect x="4" y="18" fill="#008C76" width="56" height="36"/>
<path fill="#E6EBEF" d="M6.15,51.721c2.34-1.516,12.055-5.52,12.055-5.52h14.467c0,0,9.706,3.995,12.032,5.516
	C48.089,53.925,48.801,62,48.801,62H2C2,62,2.755,53.918,6.15,51.721"/>
<rect x="18.018" y="40.671" fill="#946346" width="14.766" height="9.8"/>
<path fill="#BEC3CF" d="M7.876,62c0.499-2.037-0.087-5.133-0.712-6.834C6.586,53.576,6.805,60.88,7.876,62"/>
<polygon fill="#018BC9" points="28.948,62 27.065,54.09 27.944,51.637 25.4,50.197 22.856,51.637 23.735,54.09 21.853,62 "/>
<path fill="#006DAE" d="M26.631,54.004c-0.486-0.201-1.975-0.201-2.461,0C23.052,54.465,27.749,54.465,26.631,54.004z"/>
<path fill="#BEC3CF" d="M25.4,50.197c-2.81,0-6.35-0.739-7.519-4.627c-1.843,1.337-1.104,4.627-0.663,10.617
	C19.521,55.926,21.149,52.434,25.4,50.197z"/>
<path fill="#E6EBEF" d="M25.4,50.197c-2.81,0-6.173-1.464-7.345-5.352c-1.843,1.336-0.818,4.104-0.38,10.095
	C19.978,54.678,21.149,52.434,25.4,50.197z"/>
<path fill="#BEC3CF" d="M25.4,50.197c2.81,0,6.35-0.739,7.518-4.627c1.843,1.337,1.104,4.627,0.663,10.617
	C31.28,55.926,29.651,52.434,25.4,50.197z"/>
<path fill="#E6EBEF" d="M25.4,50.197c2.81,0,6.173-1.464,7.345-5.352c1.843,1.336,0.818,4.104,0.38,10.095
	C30.823,54.678,29.651,52.434,25.4,50.197z"/>
<path fill="#946346" d="M10.582,26.249c-4.956-0.894-1.085,12.963,2.795,9.141C15.173,33.618,12.899,26.668,10.582,26.249z"/>
<path fill="#946346" d="M40.222,26.249c-2.317,0.419-4.592,7.369-2.793,9.141C41.309,39.212,45.175,25.355,40.222,26.249z"/>
<path fill="#B88A6F" d="M25.402,10.001c-10.248,0-15.186,7.753-14.566,18.532c0.124,2.169,1.468,9.243,2.737,11.781
	c1.299,2.596,5.644,6.599,8.307,7.428c1.681,0.523,5.362,0.523,7.043,0c2.663-0.829,7.008-4.832,8.308-7.428
	c1.27-2.538,2.614-9.612,2.737-11.781C40.587,17.754,35.649,10.001,25.402,10.001z"/>
<path fill="#80553C" d="M25.402,39.348c-2.306-0.678-5.72,0.32-5.72,0.32c1.3,1.417,2.253,3.256,5.72,3.256
	c3.971,0,4.645-2.087,5.72-3.256C31.122,39.668,27.704,38.666,25.402,39.348z"/>
<path fill="#FFFFFF" d="M20.554,39.908c2.416,2.027,7.296,2.04,9.725,0C27.704,40.019,23.147,40.02,20.554,39.908z"/>
<path fill="#946346" d="M28.579,35.536c0,2.068-6.354,2.068-6.354,0C22.225,35.062,28.579,35.062,28.579,35.536z"/>
<path fill="#875B49" d="M25.402,10c-7.051,0-11.309,2.329-13.146,1.435c0,0-0.2,1.202,0.52,1.985c0,0-0.76,0.657-1.985-0.451
	c-1.168,3.793,2.298,5.99,14.611,5.99c12.313,0,9.37-2.998,15.424,2.268C40.231,14.736,36.108,10,25.402,10z"/>
<path fill="#6B4435" d="M30.615,15.659c-6.779,2.502-9.257-2.013-15.652-2.448c3.042,1.436,4.526,3.646,7.025,5.243
	c-5.438-1.821-9.427-4.951-9.731-7.008c0,0-0.907,3.002,2.682,5.246c-3.431,0.317-4.147-3.712-4.147-3.712
	c-1.736,2.791-1.496,11.792,0.434,18.471c0.321-2.384-0.411-3.369,0.69-6.241c3.298-8.584,1.175-4.98,13.487-4.98
	c12.312,0,10.089-3.287,13.486,4.98c1.014,2.464,0.369,3.857,0.692,6.241C43.629,16.391,37.808,13.004,30.615,15.659z"/>
<path fill="#FFFFFF" d="M36.372,29.367c-1.369,3.584-6.94,3.059-7.96,0.551C29.187,25.888,35.621,25.543,36.372,29.367z"/>
<path fill="#FFFFFF" d="M14.43,29.367c1.37,3.584,6.942,3.059,7.961,0.551C21.615,25.887,15.184,25.542,14.43,29.367z"/>
<path fill="#80553C" d="M36.941,25.053c-2.345-1.163-6.828-1.22-8.499-0.409c-0.357,0.157-0.122,1.26,0.18,1.154
	c2.329-0.862,6.083-0.883,8.264,0.075C37.175,25.995,37.297,25.216,36.941,25.053z"/>
<path fill="#80553C" d="M13.863,25.053c2.343-1.163,6.826-1.22,8.499-0.409c0.356,0.157,0.121,1.26-0.18,1.154
	c-2.333-0.862-6.084-0.883-8.266,0.075C13.628,25.995,13.508,25.216,13.863,25.053z"/>
<path fill="#613F34" d="M29.834,28.985c0,3.146,4.55,3.146,4.55,0C34.384,26.066,29.834,26.066,29.834,28.985z"/>
<path fill="#7D5037" d="M30.284,29.992c0,1.804,3.649,1.804,3.649,0C33.934,28.317,30.284,28.317,30.284,29.992z"/>
<path fill="#1A1626" d="M31.164,29.035c0,1.306,1.889,1.306,1.889,0C33.053,27.823,31.164,27.823,31.164,29.035z"/>
<path fill="#AB968C" d="M30.52,28.654c0,0.658,0.954,0.658,0.954,0C31.474,28.042,30.52,28.042,30.52,28.654z"/>
<path fill="#613F34" d="M16.421,28.984c0,3.146,4.55,3.146,4.55,0C20.971,26.065,16.421,26.065,16.421,28.984z"/>
<path fill="#7D5037" d="M16.871,29.99c0,1.804,3.649,1.804,3.649,0C20.521,28.316,16.871,28.316,16.871,29.99z"/>
<path fill="#1A1626" d="M17.751,29.034c0,1.306,1.889,1.306,1.889,0C19.64,27.822,17.751,27.822,17.751,29.034z"/>
<path fill="#AB968C" d="M17.106,28.652c0,0.66,0.953,0.66,0.953,0C18.06,28.041,17.106,28.041,17.106,28.652z"/>
<path fill="#946346" d="M36.372,29.34c0-3.849-7.96-3.849-7.96,0.609C29.549,26.292,35.235,26.292,36.372,29.34z"/>
<path fill="#946346" d="M14.43,29.34c0-3.849,7.961-3.849,7.961,0.608C21.255,26.29,15.567,26.29,14.43,29.34z"/>
<path fill="#302C3B" d="M39.314,25.212c-0.513-0.069-2.124-0.153-4.077-0.153c-2.24,0-4.028,0.351-5.788,0.688
	c-1.748,0.336-2.911,0.573-4.049,0.573c-1.139,0-2.301-0.237-4.049-0.573c-1.761-0.337-3.548-0.688-5.788-0.688
	c-1.953,0-3.565,0.084-4.079,0.153c-1.03,0.14-1.03,0.14-1.03,1.384c0,1.82,0.191,2.136,0.272,2.245
	c0.109,0.147,0.416,0.351,0.516,0.507c0.146,0.227,0.199,0.931,0.269,1.338c0.556,3.22,1.323,4.336,5.702,4.336
	c4.079,0,6.087-1.325,6.852-4.6c0.058-0.245,0.16-1.29,0.223-1.533c0.024-0.096,0.104-0.241,0.317-0.274
	c0.282-0.03,0.539-0.044,0.795-0.044c0.256,0,0.512,0.014,0.795,0.044c0.212,0.033,0.293,0.179,0.319,0.274
	c0.061,0.243,0.163,1.288,0.221,1.533c0.766,3.274,2.774,4.6,6.853,4.6c4.379,0,5.147-1.116,5.701-4.336
	c0.071-0.407,0.124-1.11,0.271-1.338c0.1-0.156,0.405-0.359,0.516-0.507c0.08-0.109,0.271-0.425,0.271-2.245
	C40.347,25.352,40.347,25.352,39.314,25.212z M23.32,29.175c-0.054,0.264-0.122,0.57-0.217,0.96
	c-0.548,2.27-1.761,3.779-5.891,3.779c-4.001,0-4.357-0.914-4.734-3.481c-0.139-0.957-0.44-2.017-0.096-2.908
	c0.191-0.495,0.521-1.191,1.679-1.191c0.846,0,5.027,0.061,7.601,0.667C22.413,27.178,23.634,27.486,23.32,29.175z M38.32,30.433
	c-0.376,2.567-0.731,3.481-4.732,3.481c-4.131,0-5.343-1.51-5.891-3.779c-0.095-0.39-0.163-0.696-0.218-0.96
	c-0.313-1.688,0.908-1.997,1.659-2.174c2.573-0.606,6.755-0.667,7.601-0.667c1.157,0,1.487,0.695,1.678,1.191
	C38.763,28.416,38.461,29.476,38.32,30.433z"/>
<path fill="#E6EBEF" d="M50.943,62h-9.494c0,0,2.467-3.709,4-3.65C53.352,58.648,50.943,62,50.943,62z"/>
<path fill="#946346" d="M49.131,46.943c0.276-1.021,2.531,0.359,1.584,2.049c-0.383,0.682,4.741,6.136,4.425,7.381
	c-0.567,2.24-4.003,3.311-4.29,4.165c-0.287,0.854-6.269-0.745-5.647-1.569c1.612-2.136,0.281-4.418,1.751-6.447
	C49.408,49.133,48.678,48.615,49.131,46.943z"/>
<path fill="#1A1626" d="M57.987,24.642c0.102-0.425-0.45-0.601-0.565-0.177c-3.199,11.794-8.326,30.554-9.987,36.185
	c-0.36,1.221,1.643,1.945,1.943,0.709C51.526,52.453,54.242,40.248,57.987,24.642z"/>
<path fill="#B88A6F" d="M54.115,49.947c1.67,0.606,1.117,2.049,0.755,2.463c1.168,0.94,0.869,2.323,0.554,2.663
	c1.249,3.254-8.498,3.936-4.899,1.432c-2.969-0.096-1.285-1.849,0.288-2.515c-4.009,1.105-2.704-1.377,0.509-2.473
	C45.813,52.967,53.971,44.143,54.115,49.947z"/>
</svg>
