<?xml version="1.0" encoding="utf-8"?>
<!-- Generator: Adobe Illustrator 15.0.0, SVG Export Plug-In . SVG Version: 6.00 Build 0)  -->
<!DOCTYPE svg PUBLIC "-//W3C//DTD SVG 1.1//EN" "http://www.w3.org/Graphics/SVG/1.1/DTD/svg11.dtd" [
	<!ENTITY ns_flows "http://ns.adobe.com/Flows/1.0/">
	<!ENTITY ns_extend "http://ns.adobe.com/Extensibility/1.0/">
	<!ENTITY ns_ai "http://ns.adobe.com/AdobeIllustrator/10.0/">
	<!ENTITY ns_graphs "http://ns.adobe.com/Graphs/1.0/">
]>
<svg version="1.1" id="Layer_1" xmlns:x="&ns_extend;" xmlns:i="&ns_ai;" xmlns:graph="&ns_graphs;"
	 xmlns="http://www.w3.org/2000/svg" xmlns:xlink="http://www.w3.org/1999/xlink" xmlns:a="http://ns.adobe.com/AdobeSVGViewerExtensions/3.0/"
	 x="0px" y="0px" width="64px" height="64px" viewBox="0 0 64 64" enable-background="new 0 0 64 64" xml:space="preserve">
<radialGradient id="SVGID_1_" cx="32.0796" cy="4.8726" r="15.0194" gradientTransform="matrix(1 0 0 1.1161 0 -0.5656)" gradientUnits="userSpaceOnUse">
	<stop  offset="0.4182" style="stop-color:#FF0071"/>
	<stop  offset="0.6534" style="stop-color:#F6006B"/>
	<stop  offset="1" style="stop-color:#E0005D"/>
	<a:midPointStop  offset="0.4182" style="stop-color:#FF0071"/>
	<a:midPointStop  offset="0.5979" style="stop-color:#FF0071"/>
	<a:midPointStop  offset="1" style="stop-color:#E0005D"/>
</radialGradient>
<path fill="url(#SVGID_1_)" d="M32.001,6.52C28.178,0.31,17.6,2.735,17.6,10.537c0,5.233,4.88,8.735,14.401,16.464
	C41.521,19.272,46.4,15.77,46.4,10.536C46.399,2.735,35.823,0.309,32.001,6.52z"/>
<path fill="#E6B045" d="M33.953,42.489c-4.189-0.754-0.917,10.965,2.362,7.732C37.836,48.725,35.912,42.845,33.953,42.489z"/>
<path fill="#E6B045" d="M59.021,42.489c-1.962,0.355-3.885,6.235-2.363,7.732C59.939,53.454,63.211,41.735,59.021,42.489z"/>
<path fill="#FFCC66" d="M46.485,28.75c-8.664,0-12.841,6.557-12.317,15.672c0.104,1.833,1.241,7.818,2.314,9.963
	c1.099,2.195,4.773,5.582,7.025,6.282c1.422,0.441,4.537,0.441,5.958,0c2.251-0.7,5.925-4.087,7.025-6.282
	c1.073-2.145,2.209-8.13,2.314-9.963C59.33,35.308,55.154,28.75,46.485,28.75z"/>
<path fill="#E6A400" d="M46.485,53.569c-1.949-0.575-4.836,0.271-4.836,0.271c1.1,1.197,1.905,2.753,4.836,2.753
	c3.36,0,3.93-1.767,4.838-2.753C51.323,53.841,48.432,52.992,46.485,53.569z"/>
<path fill="#FFFFFF" d="M42.387,54.042c2.043,1.715,6.17,1.727,8.227,0C48.432,54.137,44.581,54.137,42.387,54.042z"/>
<path fill="#E6B045" d="M49.175,50.344c0,1.75-5.376,1.75-5.376,0C43.799,49.944,49.175,49.944,49.175,50.344z"/>
<path fill="#594640" d="M46.485,28.75c-5.961,0-9.563,1.969-11.117,1.212c0,0-0.166,1.019,0.441,1.679c0,0-0.644,0.557-1.68-0.381
	c-0.989,3.207,1.943,5.066,12.355,5.066c10.415,0,7.927-2.537,13.047,1.918C59.029,32.753,55.543,28.75,46.485,28.75z"/>
<path fill="#453631" d="M50.896,33.534c-5.731,2.117-7.83-1.701-13.234-2.07c2.57,1.214,3.826,3.084,5.938,4.434
	c-4.599-1.541-7.973-4.188-8.229-5.925c0,0-0.767,2.538,2.268,4.436c-2.901,0.269-3.507-3.139-3.507-3.139
	c-1.47,2.359-1.267,9.972,0.366,15.622c0.271-2.017-0.35-2.851,0.582-5.28c2.789-7.259,0.996-4.21,11.408-4.21
	s8.534-2.781,11.406,4.21c0.857,2.086,0.311,3.264,0.585,5.28C61.902,34.153,56.979,31.292,50.896,33.534z"/>
<path fill="#FFFFFF" d="M55.765,45.127c-1.155,3.032-5.868,2.589-6.731,0.467C49.688,42.187,55.128,41.894,55.765,45.127z"/>
<path fill="#FFFFFF" d="M37.209,45.127c1.157,3.032,5.869,2.589,6.73,0.467C43.285,42.184,37.845,41.894,37.209,45.127z"/>
<path fill="#C1873C" d="M56.246,41.479c-1.983-0.984-5.774-1.032-7.187-0.346c-0.304,0.133-0.104,1.064,0.149,0.976
	c1.971-0.73,5.146-0.747,6.99,0.064C56.443,42.276,56.546,41.616,56.246,41.479z"/>
<path fill="#C1873C" d="M36.728,41.479c1.981-0.984,5.772-1.032,7.189-0.346c0.302,0.133,0.103,1.064-0.152,0.976
	c-1.973-0.73-5.146-0.747-6.991,0.064C36.531,42.276,36.426,41.616,36.728,41.479z"/>
<path fill="#613F34" d="M50.234,44.805c0,2.662,3.849,2.662,3.849,0C54.083,42.337,50.234,42.337,50.234,44.805z"/>
<path fill="#7D5037" d="M50.615,45.655c0,1.527,3.088,1.527,3.088,0C53.703,44.241,50.615,44.241,50.615,45.655z"/>
<path fill="#1A1626" d="M51.359,44.848c0,1.104,1.599,1.104,1.599,0C52.958,43.822,51.359,43.822,51.359,44.848z"/>
<path fill="#AB968C" d="M50.815,44.524c0,0.559,0.807,0.559,0.807,0C51.622,44.009,50.815,44.009,50.815,44.524z"/>
<path fill="#613F34" d="M38.891,44.803c0,2.661,3.848,2.661,3.848,0C42.738,42.335,38.891,42.335,38.891,44.803z"/>
<path fill="#7D5037" d="M39.272,45.655c0,1.524,3.086,1.524,3.086,0C42.358,44.237,39.272,44.237,39.272,45.655z"/>
<path fill="#1A1626" d="M40.015,44.846c0,1.104,1.599,1.104,1.599,0C41.613,43.82,40.015,43.82,40.015,44.846z"/>
<path fill="#AB968C" d="M39.472,44.524c0,0.557,0.807,0.557,0.807,0C40.278,44.007,39.472,44.007,39.472,44.524z"/>
<path fill="#E6B045" d="M55.765,45.106c0-3.258-6.731-3.258-6.731,0.515C49.995,42.527,54.803,42.527,55.765,45.106z"/>
<path fill="#E6B045" d="M37.209,45.106c0-3.258,6.73-3.258,6.73,0.515C42.98,42.526,38.169,42.526,37.209,45.106z"/>
<path fill="#E6B045" d="M4.979,42.489c-4.189-0.754-0.917,10.965,2.362,7.732C8.861,48.725,6.938,42.845,4.979,42.489z"/>
<path fill="#E6B045" d="M30.047,42.489c-1.962,0.355-3.885,6.235-2.363,7.732C30.965,53.454,34.236,41.735,30.047,42.489z"/>
<path fill="#FFCC66" d="M17.511,28.75c-8.664,0-12.841,6.557-12.317,15.672c0.104,1.833,1.241,7.818,2.314,9.963
	c1.099,2.195,4.773,5.582,7.025,6.282c1.422,0.441,4.537,0.441,5.958,0c2.251-0.7,5.925-4.087,7.025-6.282
	c1.073-2.145,2.209-8.13,2.314-9.963C30.355,35.308,26.18,28.75,17.511,28.75z"/>
<path fill="#E6A400" d="M17.511,53.569c-1.949-0.575-4.836,0.271-4.836,0.271c1.1,1.197,1.905,2.753,4.836,2.753
	c3.36,0,3.93-1.767,4.838-2.753C22.349,53.841,19.457,52.992,17.511,53.569z"/>
<path fill="#FFFFFF" d="M13.412,54.042c2.043,1.715,6.17,1.727,8.227,0C19.457,54.137,15.606,54.137,13.412,54.042z"/>
<path fill="#E6B045" d="M20.2,50.344c0,1.75-5.376,1.75-5.376,0C14.824,49.944,20.2,49.944,20.2,50.344z"/>
<path fill="#594640" d="M17.511,28.75c-5.961,0-9.563,1.969-11.117,1.212c0,0-0.166,1.019,0.441,1.679c0,0-0.644,0.557-1.68-0.381
	c-0.989,3.207,1.943,5.066,12.355,5.066c10.415,0,7.927-2.537,13.047,1.918C30.055,32.753,26.568,28.75,17.511,28.75z"/>
<path fill="#453631" d="M21.921,33.534c-5.731,2.117-7.83-1.701-13.234-2.07c2.57,1.214,3.826,3.084,5.938,4.434
	c-4.599-1.541-7.973-4.188-8.229-5.925c0,0-0.767,2.538,2.268,4.436c-2.901,0.269-3.507-3.139-3.507-3.139
	c-1.47,2.359-1.267,9.972,0.366,15.622c0.271-2.017-0.35-2.851,0.582-5.28c2.789-7.259,0.996-4.21,11.408-4.21
	s8.534-2.781,11.406,4.21c0.857,2.086,0.311,3.264,0.585,5.28C32.928,34.153,28.004,31.292,21.921,33.534z"/>
<path fill="#FFFFFF" d="M26.79,45.127c-1.155,3.032-5.868,2.589-6.731,0.467C20.714,42.187,26.153,41.894,26.79,45.127z"/>
<path fill="#FFFFFF" d="M8.234,45.127c1.157,3.032,5.869,2.589,6.73,0.467C14.311,42.184,8.87,41.894,8.234,45.127z"/>
<path fill="#C1873C" d="M27.271,41.479c-1.983-0.984-5.774-1.032-7.187-0.346c-0.304,0.133-0.104,1.064,0.149,0.976
	c1.971-0.73,5.146-0.747,6.99,0.064C27.469,42.276,27.571,41.616,27.271,41.479z"/>
<path fill="#C1873C" d="M7.753,41.479c1.981-0.984,5.772-1.032,7.189-0.346c0.302,0.133,0.103,1.064-0.152,0.976
	c-1.973-0.73-5.146-0.747-6.991,0.064C7.557,42.276,7.451,41.616,7.753,41.479z"/>
<path fill="#613F34" d="M21.26,44.805c0,2.662,3.849,2.662,3.849,0C25.108,42.337,21.26,42.337,21.26,44.805z"/>
<path fill="#7D5037" d="M21.641,45.655c0,1.527,3.088,1.527,3.088,0C24.729,44.241,21.641,44.241,21.641,45.655z"/>
<path fill="#1A1626" d="M22.385,44.848c0,1.104,1.599,1.104,1.599,0C23.983,43.822,22.385,43.822,22.385,44.848z"/>
<path fill="#AB968C" d="M21.841,44.524c0,0.559,0.807,0.559,0.807,0C22.647,44.009,21.841,44.009,21.841,44.524z"/>
<path fill="#613F34" d="M9.916,44.803c0,2.661,3.848,2.661,3.848,0C13.764,42.335,9.916,42.335,9.916,44.803z"/>
<path fill="#7D5037" d="M10.298,45.655c0,1.524,3.086,1.524,3.086,0C13.384,44.237,10.298,44.237,10.298,45.655z"/>
<path fill="#1A1626" d="M11.04,44.846c0,1.104,1.599,1.104,1.599,0C12.639,43.82,11.04,43.82,11.04,44.846z"/>
<path fill="#AB968C" d="M10.497,44.524c0,0.557,0.807,0.557,0.807,0C11.304,44.007,10.497,44.007,10.497,44.524z"/>
<path fill="#E6B045" d="M26.79,45.106c0-3.258-6.731-3.258-6.731,0.515C21.021,42.527,25.828,42.527,26.79,45.106z"/>
<path fill="#E6B045" d="M8.234,45.106c0-3.258,6.73-3.258,6.73,0.515C14.006,42.526,9.194,42.526,8.234,45.106z"/>
</svg>
