<?xml version="1.0" encoding="utf-8"?>
<!-- Generator: Adobe Illustrator 15.0.0, SVG Export Plug-In . SVG Version: 6.00 Build 0)  -->
<!DOCTYPE svg PUBLIC "-//W3C//DTD SVG 1.1//EN" "http://www.w3.org/Graphics/SVG/1.1/DTD/svg11.dtd" [
	<!ENTITY ns_flows "http://ns.adobe.com/Flows/1.0/">
	<!ENTITY ns_extend "http://ns.adobe.com/Extensibility/1.0/">
	<!ENTITY ns_ai "http://ns.adobe.com/AdobeIllustrator/10.0/">
	<!ENTITY ns_graphs "http://ns.adobe.com/Graphs/1.0/">
]>
<svg version="1.1" id="Layer_1" xmlns:x="&ns_extend;" xmlns:i="&ns_ai;" xmlns:graph="&ns_graphs;"
	 xmlns="http://www.w3.org/2000/svg" xmlns:xlink="http://www.w3.org/1999/xlink" xmlns:a="http://ns.adobe.com/AdobeSVGViewerExtensions/3.0/"
	 x="0px" y="0px" width="64px" height="64px" viewBox="0 0 64 64" enable-background="new 0 0 64 64" xml:space="preserve">
<path fill="#3B2C29" d="M19.076,13.402C10.363,50.8,11.161,49.999,29.501,49.999C19.352,42.897,38.795,12.894,19.076,13.402z"/>
<path fill="#453631" d="M15.933,12.823c-6.358,28.412-0.873,35.709,3.998,37.176h5.582C12.453,40.796,32.869,12.264,15.933,12.823z"
	/>
<path fill="#3B2C29" d="M44.71,13.401c8.712,37.397,7.914,36.596-10.426,36.596C43.617,44.298,24.99,12.892,44.71,13.401z"/>
<path fill="#453631" d="M47.851,12.822c9.295,25.849-0.021,35.978-3.998,37.175h-5.58C51.334,41.547,30.917,12.262,47.851,12.822z"
	/>
<path fill="#594640" d="M49.397,26.712c2.691,6.572,0.028,20.058-5.545,23.287c6.177,0,9.939-8.551,11.773-20.311
	C57.918,14.994,44.602,14.986,49.397,26.712z"/>
<path fill="#594640" d="M8.849,32.415c2.25,10.613,5.02,17.584,11.082,17.584c-6.759-7-5.964-21.761-4.043-25.434
	C25.681,18.738,5.043,14.462,8.849,32.415z"/>
<path fill="#E6EBEF" d="M12.256,51.71c2.399-1.518,12.361-5.525,12.361-5.525h14.84c0,0,9.953,3.998,12.34,5.523
	C55.269,53.915,56,62,56,62H8C8,62,8.773,53.907,12.256,51.71"/>
<path fill="#CFD7DC" d="M12.845,62c0.558-2.036-0.1-5.136-0.795-6.843C11.403,53.568,11.646,60.88,12.845,62"/>
<path fill="#CFD7DC" d="M51.154,62c-0.558-2.036,0.098-5.136,0.794-6.843C52.595,53.568,52.351,60.88,51.154,62"/>
<path fill="#302C3B" d="M45.67,55.553c-0.846-5.353-3.423-8.813-7.662-10.287c-6.873-2.386-18.57,1.11-18.817,4.431l-1.133-0.165
	c0-4.151,13.053-7.649,20.274-5.143c4.598,1.597,7.386,5.306,8.288,11.022L45.67,55.553z"/>
<path fill="#CFD8DD" d="M46.145,54.55c2.118,0,3.84,1.67,3.84,3.727S48.263,62,46.145,62c-2.12,0-3.84-1.667-3.84-3.724
	S44.024,54.55,46.145,54.55"/>
<path fill="#4E5E67" d="M46.145,55.481c1.592,0,2.878,1.25,2.878,2.795c0,1.543-1.286,2.792-2.878,2.792s-2.882-1.249-2.882-2.792
	C43.263,56.731,44.553,55.481,46.145,55.481"/>
<path fill="#BEC3CF" d="M46.145,55.946c1.326,0,2.398,1.043,2.398,2.33s-1.072,2.326-2.398,2.326c-1.327,0-2.401-1.039-2.401-2.326
	S44.817,55.946,46.145,55.946"/>
<rect x="25.033" y="42.444" fill="#E6B045" width="13.932" height="9.811"/>
<path fill="#018BC9" d="M38.239,49.12c-1.914,0.981-4.032,1.544-6.24,1.544c-2.205,0-4.325-0.563-6.239-1.547L32,62L38.239,49.12z"
	/>
<path fill="#BEC3CF" d="M23.133,46.649c-1.891,5.682-1.01,9.311-1.01,9.311c1.592-1.426,4.72-3.001,4.72-3.002
	c-1.133,1.59-2.03,4.204-2.03,4.204C28.208,57.7,32,62,32,62S26.723,46.881,23.133,46.649z"/>
<path fill="#E6EBEF" d="M25.494,43.714c0,0-0.933-0.383-1.329,0.334c-2.339,4.268-1.56,10.302-1.56,10.302
	c1.592-1.425,4.771-1.847,4.772-1.849c-1.134,1.591-1.617,3.383-1.617,3.383C28.158,57.008,32,62,32,62S28.792,52.769,25.494,43.714
	z"/>
<path fill="#BEC3CF" d="M40.864,46.649c1.891,5.682,1.012,9.311,1.012,9.311c-1.592-1.426-4.72-3.001-4.722-3.002
	c1.134,1.59,2.032,4.204,2.032,4.204C35.791,57.7,32,62,32,62S37.274,46.881,40.864,46.649z"/>
<path fill="#E6EBEF" d="M38.506,43.714c0,0,0.933-0.383,1.329,0.334c2.339,4.268,1.56,10.302,1.56,10.302
	c-1.592-1.425-4.772-1.847-4.772-1.849c1.132,1.591,1.617,3.383,1.617,3.383C35.84,57.008,32,62,32,62S35.207,52.769,38.506,43.714z
	"/>
<path fill="#302C3B" d="M23.683,54.228H22.55c-0.002-2.123-1.781-3.85-3.972-3.85c-2.188-0.002-3.97,1.727-3.972,3.85h-1.132
	c0-2.728,2.289-4.949,5.104-4.951C21.394,49.276,23.683,51.5,23.683,54.228"/>
<path fill="#99A8AE" d="M13.475,54.228l-0.002,5.838c0.002,1.057,0.55,1.828,1.702,1.909c0.731,0.052,0.725-1.05-0.002-1.101
	c-0.758-0.053-0.564-0.939-0.564-1.457l-0.002-5.189C14.609,53.519,13.473,53.519,13.475,54.228"/>
<path fill="#99A8AE" d="M22.55,54.228v5.031c-0.002,0.528,0.227,1.559-0.567,1.615c-0.726,0.051-0.73,1.152,0,1.101
	c1.084-0.076,1.7-0.794,1.7-1.821v-5.926C23.683,53.519,22.55,53.519,22.55,54.228"/>
<path fill="#302C3B" d="M15.941,61.978l-0.829-0.001c-0.727,0-0.726-1.212,0-1.211l0.829,0.001
	C16.668,60.765,16.668,61.977,15.941,61.978z"/>
<path fill="#302C3B" d="M22.045,61.977h-0.826c-0.73,0-0.73-1.211-0.002-1.211l0.828,0.001
	C22.773,60.766,22.773,61.977,22.045,61.977z"/>
<path fill="#FFCC66" d="M32,4.415c-11.609,0-17.201,9.455-16.502,21.611c0.143,2.444,0.822,5.969,1.661,8.989
	c1.741,6.278,10.929,12.6,14.841,12.6c3.912,0,13.1-6.321,14.841-12.6c0.839-3.02,1.519-6.545,1.663-8.989
	C49.201,13.87,43.611,4.415,32,4.415z"/>
<path fill="#D47706" d="M32,37.587c-2.822-1.24-2.844-0.051-7.2,0.242c1.636,1.855,2.839,4.244,7.198,4.244
	c5.003,0,5.849-2.711,7.204-4.244C34.843,37.536,34.823,36.347,32,37.587z"/>
<path fill="#FFFFFF" d="M26.108,38.292c2.844,2.959,8.977,2.92,11.785,0.001C33.515,38.763,30.488,38.763,26.108,38.292z"/>
<path fill="#594640" d="M44.795,21.61c-2.616-1.559-7.308-1.75-9.165-0.688c-0.394,0.214-0.287,1.341,0.053,1.2
	c2.648-1.103,6.682-1.158,9.168,0.117C45.184,22.409,45.19,21.836,44.795,21.61z"/>
<path fill="#594640" d="M19.207,21.61c2.615-1.559,7.307-1.75,9.166-0.688c0.394,0.214,0.289,1.341-0.054,1.2
	c-2.648-1.103-6.68-1.159-9.167,0.117C18.818,22.409,18.811,21.836,19.207,21.61z"/>
<path fill="#E6B045" d="M35.601,33.345c0,2.342-7.201,2.342-7.201,0C28.4,32.808,35.601,32.808,35.601,33.345z"/>
<path fill="#FFFFFF" d="M44.542,26.357c-1.552,4.06-7.861,3.464-9.017,0.624C36.401,22.415,43.688,22.024,44.542,26.357z"/>
<path fill="#613F34" d="M37.106,25.916c0,3.596,5.2,3.596,5.2,0C42.307,22.578,37.106,22.578,37.106,25.916z"/>
<path fill="#7D5037" d="M37.62,27.065c0,2.063,4.172,2.063,4.172,0C41.792,25.152,37.62,25.152,37.62,27.065z"/>
<path fill="#1A1626" d="M38.627,25.972c0,1.492,2.159,1.492,2.159,0C40.786,24.587,38.627,24.587,38.627,25.972z"/>
<path fill="#AB968C" d="M37.89,25.536c0,0.754,1.09,0.754,1.09,0C38.979,24.836,37.89,24.836,37.89,25.536z"/>
<path fill="#45332C" d="M44.542,26.326c0-4.361-9.017-4.361-9.017,0.691C36.812,22.871,43.255,22.871,44.542,26.326z"/>
<path fill="#FFFFFF" d="M19.459,26.357c1.552,4.06,7.862,3.466,9.019,0.624C27.602,22.415,20.314,22.024,19.459,26.357z"/>
<path fill="#613F34" d="M21.695,25.921c0,3.596,5.2,3.596,5.2,0C26.895,22.583,21.695,22.583,21.695,25.921z"/>
<path fill="#7D5037" d="M22.208,27.071c0,2.062,4.172,2.062,4.172,0C26.38,25.158,22.208,25.158,22.208,27.071z"/>
<path fill="#1A1626" d="M23.215,25.978c0,1.492,2.159,1.492,2.159,0C25.375,24.592,23.215,24.592,23.215,25.978z"/>
<path fill="#AB968C" d="M22.478,25.542c0,0.754,1.09,0.754,1.09,0C23.568,24.842,22.478,24.842,22.478,25.542z"/>
<path fill="#45332C" d="M19.459,26.326c0-4.361,9.019-4.361,9.019,0.689C27.191,22.87,20.748,22.87,19.459,26.326z"/>
<path fill="#594640" d="M44.973,6.105c-8.14,8.341-0.371,8.88,4.425,20.607c2.691,6.572,4.395,14.736,6.229,2.976
	C57.918,14.994,49.109,4.878,44.973,6.105z"/>
<path fill="#594640" d="M24.99,2.911C14.667,5.34,5.043,14.462,8.849,32.415c2.25,10.613,5.118-4.177,7.039-7.85
	c9.793-5.827,26.54-10.241,29.084-18.46C46.265,4.208,35.32,0.205,24.99,2.911z"/>
<path fill="#453631" d="M17.081,15.988c4.365-0.885,25.25-1.302,27.892-9.883C40.037,10.039,34.925,11.11,17.081,15.988z"/>
<path fill="#453631" d="M9.553,29.637c7.324-9.774,31.316-8.695,35.419-23.531C37.007,18.557,11.555,20.241,9.553,29.637z"/>
<path fill="#453631" d="M42.559,8.139c-1.89,2.977,4.678-1.398,11.757,17.785C52.57,14.709,46.589,6.987,42.559,8.139z"/>
</svg>
