<?xml version="1.0" encoding="utf-8"?>
<!-- Generator: Adobe Illustrator 19.0.0, SVG Export Plug-In . SVG Version: 6.00 Build 0)  -->
<svg version="1.1" id="Layer_1" xmlns="http://www.w3.org/2000/svg" xmlns:xlink="http://www.w3.org/1999/xlink" x="0px" y="0px"
	 width="64px" height="64px" viewBox="0 0 64 64" enable-background="new 0 0 64 64" xml:space="preserve">
<path fill="#7AB51D" d="M5.523,32.269c7.696-5.117,15.261-5.117,22.957,0c2.442,1.622,2.947,7.739,3.255,13.036h-4.339v16.225H6.607
	V45.305H2.268C2.575,40.008,3.08,33.891,5.523,32.269z"/>
<polygon fill="#7AB51D" points="26.611,45.604 28.019,45.604 26.611,38.006 "/>
<path fill="#FFCC66" d="M26.611,61.529h4.024l1.099-16.225c0,0-2.562-0.658-5.123,0V61.529z"/>
<path fill="#E6B045" d="M12.792,29.203c0-0.722,0-3.931,0-3.931h8.418c0,0,0,3.159,0,3.931
	C21.21,33.435,12.792,33.435,12.792,29.203z"/>
<path fill="#7AB51D" d="M58.478,32.269c-7.696-5.117-15.261-5.117-22.957,0c-2.442,1.622-2.947,7.739-3.255,13.036h4.339v16.225
	h20.789V45.305h4.339C61.425,40.008,60.92,33.891,58.478,32.269z"/>
<polygon fill="#529320" points="54.609,49.604 56.609,45.305 56.609,38.006 "/>
<polygon fill="#529320" points="9.391,49.589 7.391,45.305 7.391,37.99 "/>
<polygon fill="#7AB51D" points="37.389,45.604 35.981,45.604 37.389,38.006 "/>
<path fill="#FFCC66" d="M37.389,61.529h-4.024l-1.099-16.225c0,0,2.562-0.658,5.123,0V61.529z"/>
<path fill="#E6B045" d="M51.208,29.203c0-0.722,0-3.931,0-3.931H42.79c0,0,0,3.159,0,3.931
	C42.79,33.435,51.208,33.435,51.208,29.203z"/>
<path fill="#E6B045" d="M36.289,14.202c-3.585-0.646-0.785,9.36,2.018,6.601C39.607,19.522,37.963,14.505,36.289,14.202z"/>
<path fill="#E6B045" d="M57.715,14.202c-1.676,0.303-3.32,5.32-2.019,6.601C58.501,23.563,61.295,13.557,57.715,14.202z"/>
<path fill="#FFCC66" d="M47.001,2.471c-7.408,0-10.978,5.599-10.53,13.381c0.09,1.567,1.062,6.675,1.979,8.506
	c0.939,1.873,4.08,4.764,6.005,5.362c1.215,0.379,3.877,0.379,5.094,0c1.923-0.599,5.066-3.489,6.003-5.362
	c0.92-1.831,1.89-6.938,1.979-8.506C57.979,8.069,54.408,2.471,47.001,2.471z"/>
<path fill="#E6A400" d="M47.001,23.661c-1.667-0.491-4.135,0.231-4.135,0.231c0.939,1.024,1.629,2.349,4.135,2.349
	c2.87,0,3.359-1.505,4.136-2.349C51.137,23.893,48.666,23.168,47.001,23.661z"/>
<path fill="#FFFFFF" d="M43.496,24.065c1.747,1.464,5.275,1.474,7.031,0C48.666,24.145,45.371,24.145,43.496,24.065z"/>
<path fill="#E6B045" d="M49.3,20.908c0,1.493-4.596,1.493-4.596,0C44.704,20.566,49.3,20.566,49.3,20.908z"/>
<path fill="#594640" d="M47.001,2.471c-5.096,0-8.176,1.681-9.504,1.035c0,0-0.144,0.868,0.376,1.435c0,0-0.548,0.474-1.435-0.327
	C35.594,7.353,38.101,8.94,47.001,8.94c8.901,0,6.773-2.166,11.151,1.636C57.724,5.89,54.741,2.471,47.001,2.471z"/>
<path fill="#453631" d="M50.77,6.556c-4.9,1.808-6.691-1.453-11.315-1.769c2.2,1.038,3.273,2.636,5.078,3.786
	c-3.931-1.314-6.813-3.574-7.033-5.059c0,0-0.655,2.167,1.938,3.788c-2.479,0.229-2.996-2.681-2.996-2.681
	c-1.257,2.015-1.084,8.514,0.312,13.338c0.231-1.723-0.297-2.434,0.5-4.507c2.383-6.199,0.85-3.597,9.749-3.597
	c8.901,0,7.295-2.372,9.751,3.597c0.731,1.777,0.266,2.784,0.499,4.507C60.179,7.083,55.969,4.64,50.77,6.556z"/>
<path fill="#FFFFFF" d="M54.932,16.455c-0.99,2.588-5.018,2.207-5.754,0.396C49.737,13.942,54.388,13.693,54.932,16.455z"/>
<path fill="#FFFFFF" d="M39.069,16.455c0.99,2.588,5.017,2.207,5.754,0.396C44.265,13.939,39.613,13.692,39.069,16.455z"/>
<path fill="#C1873C" d="M55.343,13.338c-1.694-0.84-4.936-0.881-6.146-0.294c-0.258,0.112-0.087,0.908,0.132,0.833
	c1.684-0.624,4.398-0.638,5.974,0.054C55.514,14.019,55.6,13.456,55.343,13.338z"/>
<path fill="#C1873C" d="M38.659,13.338c1.692-0.84,4.936-0.881,6.144-0.294c0.26,0.112,0.088,0.908-0.129,0.833
	c-1.687-0.624-4.398-0.638-5.976,0.054C38.488,14.019,38.403,13.456,38.659,13.338z"/>
<path fill="#613F34" d="M50.205,16.178c0,2.272,3.289,2.272,3.289,0C53.494,14.07,50.205,14.07,50.205,16.178z"/>
<path fill="#7D5037" d="M50.529,16.905c0,1.304,2.64,1.304,2.64,0C53.169,15.695,50.529,15.695,50.529,16.905z"/>
<path fill="#1A1626" d="M51.166,16.215c0,0.942,1.366,0.942,1.366,0C52.532,15.339,51.166,15.339,51.166,16.215z"/>
<path fill="#AB968C" d="M50.7,15.939c0,0.475,0.69,0.475,0.69,0C51.39,15.497,50.7,15.497,50.7,15.939z"/>
<path fill="#613F34" d="M40.508,16.178c0,2.272,3.289,2.272,3.289,0C43.797,14.07,40.508,14.07,40.508,16.178z"/>
<path fill="#7D5037" d="M40.833,16.905c0,1.3,2.64,1.3,2.64,0C43.473,15.695,40.833,15.695,40.833,16.905z"/>
<path fill="#1A1626" d="M41.471,16.215c0,0.942,1.364,0.942,1.364,0C42.835,15.338,41.471,15.338,41.471,16.215z"/>
<path fill="#AB968C" d="M41.004,15.939c0,0.476,0.689,0.476,0.689,0C41.692,15.496,41.004,15.496,41.004,15.939z"/>
<path fill="#E6B045" d="M54.932,16.434c0-2.778-5.754-2.778-5.754,0.441C49.999,14.234,54.109,14.234,54.932,16.434z"/>
<path fill="#E6B045" d="M39.069,16.434c0-2.778,5.754-2.778,5.754,0.44C44.002,14.233,39.891,14.233,39.069,16.434z"/>
<path fill="#E6B045" d="M6.289,14.202c-3.585-0.646-0.785,9.36,2.018,6.601C9.607,19.522,7.963,14.505,6.289,14.202z"/>
<path fill="#E6B045" d="M27.715,14.202c-1.676,0.303-3.32,5.32-2.019,6.601C28.501,23.563,31.295,13.557,27.715,14.202z"/>
<path fill="#FFCC66" d="M17.001,2.471c-7.408,0-10.977,5.599-10.53,13.381c0.09,1.567,1.062,6.675,1.978,8.506
	c0.939,1.873,4.08,4.764,6.005,5.362c1.215,0.379,3.877,0.379,5.094,0c1.923-0.599,5.066-3.489,6.003-5.362
	c0.92-1.831,1.89-6.938,1.979-8.506C27.979,8.069,24.408,2.471,17.001,2.471z"/>
<path fill="#E6A400" d="M17.001,23.661c-1.667-0.491-4.135,0.231-4.135,0.231c0.939,1.024,1.629,2.349,4.135,2.349
	c2.87,0,3.359-1.505,4.136-2.349C21.137,23.893,18.666,23.168,17.001,23.661z"/>
<path fill="#FFFFFF" d="M13.496,24.065c1.747,1.464,5.275,1.474,7.031,0C18.666,24.145,15.371,24.145,13.496,24.065z"/>
<path fill="#E6B045" d="M19.3,20.908c0,1.493-4.596,1.493-4.596,0C14.704,20.566,19.3,20.566,19.3,20.908z"/>
<path fill="#594640" d="M17.001,2.471c-5.096,0-8.176,1.681-9.504,1.035c0,0-0.144,0.868,0.376,1.435c0,0-0.548,0.474-1.435-0.327
	C5.594,7.353,8.101,8.94,17.001,8.94c8.901,0,6.773-2.166,11.151,1.636C27.724,5.89,24.741,2.471,17.001,2.471z"/>
<path fill="#453631" d="M20.77,6.556c-4.9,1.808-6.691-1.453-11.315-1.769c2.2,1.038,3.274,2.636,5.078,3.786
	C10.602,7.26,7.719,4.999,7.499,3.515c0,0-0.655,2.167,1.937,3.788C6.957,7.532,6.44,4.622,6.44,4.622
	C5.184,6.637,5.357,13.136,6.752,17.96c0.231-1.723-0.297-2.434,0.5-4.507c2.383-6.199,0.85-3.597,9.749-3.597
	c8.901,0,7.295-2.372,9.751,3.597c0.731,1.777,0.266,2.784,0.499,4.507C30.179,7.083,25.969,4.64,20.77,6.556z"/>
<path fill="#FFFFFF" d="M24.932,16.455c-0.99,2.588-5.018,2.207-5.754,0.396C19.737,13.942,24.388,13.693,24.932,16.455z"/>
<path fill="#FFFFFF" d="M9.069,16.455c0.99,2.588,5.017,2.207,5.754,0.396C14.265,13.939,9.613,13.692,9.069,16.455z"/>
<path fill="#C1873C" d="M25.343,13.338c-1.694-0.84-4.936-0.881-6.146-0.294c-0.258,0.112-0.087,0.908,0.132,0.833
	c1.684-0.624,4.399-0.638,5.974,0.054C25.514,14.019,25.6,13.456,25.343,13.338z"/>
<path fill="#C1873C" d="M8.659,13.338c1.692-0.84,4.936-0.881,6.144-0.294c0.26,0.112,0.088,0.908-0.129,0.833
	c-1.687-0.624-4.398-0.638-5.976,0.054C8.488,14.019,8.403,13.456,8.659,13.338z"/>
<path fill="#613F34" d="M20.205,16.178c0,2.272,3.289,2.272,3.289,0C23.494,14.07,20.205,14.07,20.205,16.178z"/>
<path fill="#7D5037" d="M20.529,16.905c0,1.304,2.64,1.304,2.64,0C23.169,15.695,20.529,15.695,20.529,16.905z"/>
<path fill="#1A1626" d="M21.166,16.215c0,0.942,1.366,0.942,1.366,0C22.532,15.339,21.166,15.339,21.166,16.215z"/>
<path fill="#AB968C" d="M20.7,15.939c0,0.475,0.69,0.475,0.69,0C21.39,15.497,20.7,15.497,20.7,15.939z"/>
<path fill="#613F34" d="M10.508,16.178c0,2.272,3.289,2.272,3.289,0C13.797,14.07,10.508,14.07,10.508,16.178z"/>
<path fill="#7D5037" d="M10.833,16.905c0,1.3,2.64,1.3,2.64,0C13.473,15.695,10.833,15.695,10.833,16.905z"/>
<path fill="#1A1626" d="M11.471,16.215c0,0.942,1.364,0.942,1.364,0C12.835,15.338,11.471,15.338,11.471,16.215z"/>
<path fill="#AB968C" d="M11.004,15.939c0,0.476,0.689,0.476,0.689,0C11.692,15.496,11.004,15.496,11.004,15.939z"/>
<path fill="#E6B045" d="M24.932,16.434c0-2.778-5.754-2.778-5.754,0.441C19.999,14.234,24.109,14.234,24.932,16.434z"/>
<path fill="#E6B045" d="M9.069,16.434c0-2.778,5.754-2.778,5.754,0.44C14.002,14.233,9.891,14.233,9.069,16.434z"/>
<path fill="#E32B56" d="M29.138,54.199c-0.982-0.688-5.299-2.494-5.299-2.494h-4.797c0,0-4.318,1.81-5.307,2.494
	c-1.656,1.145-2.207,7.33-2.207,7.33h19.793C31.321,61.529,30.774,55.34,29.138,54.199z"/>
<path fill="#E6B045" d="M24.349,52.369c0-0.539,0-2.926,0-2.926h-5.85c0,0,0,2.351,0,2.926
	C18.499,54.734,24.349,54.734,24.349,52.369z"/>
<path fill="#594640" d="M13.919,43.467c-7.076,4.172-0.855,7.969-2.869,9.768C14.964,55.66,24.544,51.48,13.919,43.467z"/>
<path fill="#453631" d="M11.806,45.051c1.736,6.66,5.31,6.891,5.012,8.096C20.14,51.406,20.171,45.793,11.806,45.051z"/>
<path fill="#594640" d="M28.931,43.467c7.076,4.172,0.855,7.969,2.871,9.768C27.89,55.66,18.308,51.48,28.931,43.467z"/>
<path fill="#453631" d="M31.044,45.051c-1.734,6.66-5.311,6.891-5.01,8.096C22.712,51.406,22.679,45.793,31.044,45.051z"/>
<path fill="#594640" d="M11.747,43.299h19.348C33.911,28.176,8.931,28.176,11.747,43.299z"/>
<path fill="#453631" d="M11.722,43.111c0,0,11.016,4.105,18.652-0.65c-1.543,0.291-4.051-5.605-15.775-6.047
	C14.169,43.111,12.108,41.293,11.722,43.111z"/>
<path fill="#CFD8DD" d="M30.187,42.219c0.822-11.314-18.359-11.314-17.535,0C13.366,32.717,29.47,32.717,30.187,42.219z"/>
<path fill="#FFFFFF" d="M30.187,41.854c0.822-11.314-18.359-11.314-17.535,0C13.366,32.352,29.47,32.352,30.187,41.854z"/>
<path fill="#E6B045" d="M12.854,42.297c-3.336-0.506-1.162,7.363,1.451,5.193C15.519,46.482,14.419,42.535,12.854,42.297z"/>
<path fill="#E6B045" d="M29.983,42.297c-1.561,0.238-2.66,4.185-1.451,5.193C31.147,49.658,33.319,41.791,29.983,42.297z"/>
<path fill="#FFCC66" d="M29.874,42.314c-3.195-0.91-7.289-5.256-15.07-4.729c0.137,1.707-0.313,3.645-1.814,4.734
	c0,0-0.006,1.535,0.543,4.346c0.895,4.602,4.617,6.406,7.887,6.406c3.273,0,6.994-1.805,7.891-6.406
	C29.857,43.854,29.874,42.314,29.874,42.314z"/>
<path fill="#FFFFFF" d="M27.669,43.824c-0.777,2.035-3.943,1.738-4.525,0.313C23.585,41.848,27.241,41.652,27.669,43.824z"/>
<path fill="#613F34" d="M23.952,43.607c0,1.787,2.586,1.787,2.586,0C26.538,41.949,23.952,41.949,23.952,43.607z"/>
<path fill="#7D5037" d="M24.208,44.178c0,1.025,2.074,1.025,2.074,0C26.282,43.229,24.208,43.229,24.208,44.178z"/>
<path fill="#1A1626" d="M24.706,43.635c0,0.742,1.076,0.742,1.076,0C25.782,42.947,24.706,42.947,24.706,43.635z"/>
<path fill="#AB968C" d="M24.343,43.418c0,0.377,0.541,0.377,0.541,0C24.884,43.07,24.343,43.07,24.343,43.418z"/>
<path fill="#E6B045" d="M27.669,43.809c0-2.186-4.525-2.186-4.525,0.346C23.79,42.078,27.022,42.078,27.669,43.809z"/>
<path fill="#FFFFFF" d="M15.196,43.824c0.775,2.035,3.943,1.738,4.525,0.313C19.282,41.846,15.626,41.65,15.196,43.824z"/>
<path fill="#613F34" d="M16.329,43.607c0,1.785,2.586,1.785,2.586,0C18.915,41.949,16.329,41.949,16.329,43.607z"/>
<path fill="#7D5037" d="M16.585,44.178c0,1.023,2.072,1.023,2.072,0C18.657,43.229,16.585,43.229,16.585,44.178z"/>
<path fill="#1A1626" d="M17.083,43.635c0,0.74,1.074,0.74,1.074,0C18.157,42.947,17.083,42.947,17.083,43.635z"/>
<path fill="#AB968C" d="M16.718,43.418c0,0.375,0.543,0.375,0.543,0C17.261,43.07,16.718,43.07,16.718,43.418z"/>
<path fill="#E6B045" d="M15.196,43.809c0-2.186,4.525-2.186,4.525,0.346C19.077,42.076,15.841,42.076,15.196,43.809z"/>
<path fill="#C1873C" d="M28.087,41.594c-1.35-0.672-3.938-0.703-4.9-0.236c-0.207,0.09-0.07,0.725,0.105,0.666
	c1.34-0.498,3.504-0.51,4.764,0.043C28.222,42.137,28.292,41.686,28.087,41.594z"/>
<path fill="#C1873C" d="M14.776,41.594c1.354-0.672,3.939-0.703,4.904-0.236c0.207,0.09,0.068,0.725-0.104,0.666
	c-1.344-0.498-3.51-0.51-4.768,0.043C14.642,42.137,14.573,41.686,14.776,41.594z"/>
<path fill="#E6A400" d="M21.433,49.26c-1.328-0.391-3.299,0.184-3.299,0.184c0.75,0.814,1.303,1.875,3.299,1.875
	c2.289,0,2.682-1.201,3.299-1.875C24.732,49.443,22.759,48.867,21.433,49.26z"/>
<path fill="#FFFFFF" d="M18.636,49.582c1.395,1.168,4.211,1.174,5.611,0C22.759,49.645,20.134,49.645,18.636,49.582z"/>
<path fill="#E6B045" d="M23.267,47.51c0,1.189-3.666,1.189-3.666,0C19.601,47.236,23.267,47.236,23.267,47.51z"/>
<path fill="#E32B56" d="M50.289,54.199c-0.982-0.688-5.299-2.494-5.299-2.494h-4.797c0,0-4.318,1.81-5.307,2.494
	c-1.656,1.145-2.207,7.33-2.207,7.33h19.793C52.473,61.529,51.926,55.34,50.289,54.199z"/>
<path fill="#E6B045" d="M45.5,52.369c0-0.539,0-2.926,0-2.926h-5.85c0,0,0,2.351,0,2.926C39.65,54.734,45.5,54.734,45.5,52.369z"/>
<path fill="#594640" d="M35.07,43.467c-7.076,4.172-0.855,7.969-2.869,9.768C36.115,55.66,45.695,51.48,35.07,43.467z"/>
<path fill="#453631" d="M32.957,45.051c1.736,6.66,5.311,6.891,5.012,8.096C41.291,51.406,41.322,45.793,32.957,45.051z"/>
<path fill="#594640" d="M50.082,43.467c7.076,4.172,0.855,7.969,2.871,9.768C49.041,55.66,39.459,51.48,50.082,43.467z"/>
<path fill="#453631" d="M52.195,45.051c-1.734,6.66-5.311,6.891-5.01,8.096C43.863,51.406,43.83,45.793,52.195,45.051z"/>
<path fill="#594640" d="M32.898,43.299h19.348C55.063,28.176,30.082,28.176,32.898,43.299z"/>
<path fill="#453631" d="M32.873,43.111c0,0,11.016,4.105,18.652-0.65c-1.543,0.291-4.051-5.605-15.775-6.047
	C35.32,43.111,33.26,41.293,32.873,43.111z"/>
<path fill="#CFD8DD" d="M51.338,42.219c0.822-11.314-18.359-11.314-17.535,0C34.518,32.717,50.621,32.717,51.338,42.219z"/>
<path fill="#FFFFFF" d="M51.338,41.854c0.822-11.314-18.359-11.314-17.535,0C34.518,32.352,50.621,32.352,51.338,41.854z"/>
<path fill="#E6B045" d="M34.006,42.297c-3.336-0.506-1.162,7.363,1.451,5.193C36.67,46.482,35.57,42.535,34.006,42.297z"/>
<path fill="#E6B045" d="M51.135,42.297c-1.561,0.238-2.66,4.185-1.451,5.193C52.299,49.658,54.471,41.791,51.135,42.297z"/>
<path fill="#FFCC66" d="M51.025,42.314c-3.195-0.91-7.289-5.256-15.07-4.729c0.137,1.707-0.313,3.645-1.815,4.734
	c0,0-0.006,1.535,0.543,4.346c0.894,4.602,4.617,6.406,7.887,6.406c3.273,0,6.994-1.805,7.891-6.406
	C51.008,43.854,51.025,42.314,51.025,42.314z"/>
<path fill="#FFFFFF" d="M48.82,43.824c-0.777,2.035-3.943,1.738-4.525,0.313C44.736,41.848,48.393,41.652,48.82,43.824z"/>
<path fill="#613F34" d="M45.104,43.607c0,1.787,2.586,1.787,2.586,0C47.689,41.949,45.104,41.949,45.104,43.607z"/>
<path fill="#7D5037" d="M45.359,44.178c0,1.025,2.074,1.025,2.074,0C47.434,43.229,45.359,43.229,45.359,44.178z"/>
<path fill="#1A1626" d="M45.857,43.635c0,0.742,1.076,0.742,1.076,0C46.934,42.947,45.857,42.947,45.857,43.635z"/>
<path fill="#AB968C" d="M45.494,43.418c0,0.377,0.541,0.377,0.541,0C46.035,43.07,45.494,43.07,45.494,43.418z"/>
<path fill="#E6B045" d="M48.82,43.809c0-2.186-4.525-2.186-4.525,0.346C44.941,42.078,48.174,42.078,48.82,43.809z"/>
<path fill="#FFFFFF" d="M36.348,43.824c0.775,2.035,3.943,1.738,4.525,0.313C40.434,41.846,36.777,41.65,36.348,43.824z"/>
<path fill="#613F34" d="M37.48,43.607c0,1.785,2.586,1.785,2.586,0C40.066,41.949,37.48,41.949,37.48,43.607z"/>
<path fill="#7D5037" d="M37.736,44.178c0,1.023,2.072,1.023,2.072,0C39.809,43.229,37.736,43.229,37.736,44.178z"/>
<path fill="#1A1626" d="M38.234,43.635c0,0.74,1.074,0.74,1.074,0C39.309,42.947,38.234,42.947,38.234,43.635z"/>
<path fill="#AB968C" d="M37.869,43.418c0,0.375,0.543,0.375,0.543,0C38.412,43.07,37.869,43.07,37.869,43.418z"/>
<path fill="#E6B045" d="M36.348,43.809c0-2.186,4.525-2.186,4.525,0.346C40.229,42.076,36.992,42.076,36.348,43.809z"/>
<path fill="#C1873C" d="M49.238,41.594c-1.35-0.672-3.938-0.703-4.9-0.236c-0.207,0.09-0.07,0.725,0.106,0.666
	c1.34-0.498,3.504-0.51,4.764,0.043C49.373,42.137,49.443,41.686,49.238,41.594z"/>
<path fill="#C1873C" d="M35.928,41.594c1.354-0.672,3.939-0.703,4.904-0.236c0.207,0.09,0.068,0.725-0.104,0.666
	c-1.344-0.498-3.51-0.51-4.768,0.043C35.793,42.137,35.725,41.686,35.928,41.594z"/>
<path fill="#E6A400" d="M42.584,49.26c-1.328-0.391-3.299,0.184-3.299,0.184c0.75,0.814,1.303,1.875,3.299,1.875
	c2.289,0,2.682-1.201,3.299-1.875C45.883,49.443,43.91,48.867,42.584,49.26z"/>
<path fill="#FFFFFF" d="M39.787,49.582c1.395,1.168,4.211,1.174,5.611,0C43.91,49.645,41.285,49.645,39.787,49.582z"/>
<path fill="#E6B045" d="M44.418,47.51c0,1.189-3.666,1.189-3.666,0C40.752,47.236,44.418,47.236,44.418,47.51z"/>
<path fill="#FFCC66" d="M12.102,57.021c0.806,0.491,2.559-2.121,1.822-2.712c-4.497-3.604-6.533-9.005-6.533-9.005
	c-2.283-0.691-5.123,0-5.123,0C2.559,50.671,8.182,54.63,12.102,57.021z"/>
<path fill="#FFCC66" d="M15.627,53.174c1.666-0.392,4.768,1.096,3.01,1.478c0.396,0.462,0.348,1.003-0.982,0.637
	c0.511,0.458-0.337,0.817-1.015,0.654c0.201,1.159-2.218,0.477-2.941,0.84c-1.036,0.52-1.259,0.829-1.524,0.677
	C10.245,56.351,12.861,53.82,15.627,53.174z"/>
<path fill="#FFCC66" d="M51.898,57.021c-0.806,0.491-2.559-2.121-1.822-2.712c4.497-3.604,6.533-9.005,6.533-9.005
	c2.283-0.691,5.123,0,5.123,0C61.441,50.671,55.818,54.63,51.898,57.021z"/>
<path fill="#FFCC66" d="M48.373,53.174c-1.666-0.392-4.768,1.096-3.01,1.478c-0.396,0.462-0.348,1.003,0.982,0.637
	c-0.511,0.458,0.337,0.817,1.015,0.654c-0.201,1.159,2.218,0.477,2.941,0.84c1.036,0.52,1.259,0.829,1.523,0.677
	C53.755,56.351,51.139,53.82,48.373,53.174z"/>
</svg>
