<?xml version="1.0" encoding="utf-8"?>
<!-- Generator: Adobe Illustrator 19.0.0, SVG Export Plug-In . SVG Version: 6.00 Build 0)  -->
<svg version="1.1" id="Layer_1" xmlns="http://www.w3.org/2000/svg" xmlns:xlink="http://www.w3.org/1999/xlink" x="0px" y="0px"
	 width="64px" height="64px" viewBox="0 0 64 64" enable-background="new 0 0 64 64" xml:space="preserve">
<path fill="#DBA97F" d="M8.682,27.565c-7.797-1.406-1.707,20.396,4.396,14.383C15.907,39.161,12.329,28.225,8.682,27.565z"/>
<path fill="#DBA97F" d="M55.319,27.565c-3.648,0.66-7.227,11.596-4.396,14.383C57.028,47.962,63.112,26.159,55.319,27.565z"/>
<path fill="#FCD5B2" d="M32,2.001C15.877,2.001,8.108,14.2,9.082,31.16c0.195,3.413,2.309,14.544,4.307,18.536
	c2.044,4.084,8.879,10.383,13.068,11.687c2.646,0.823,8.439,0.823,11.084,0c4.189-1.304,11.026-7.603,13.07-11.687
	c1.999-3.992,4.112-15.123,4.307-18.536C55.892,14.2,48.125,2.001,32,2.001z"/>
<path fill="#CC9D76" d="M32,48.175c-3.628-1.066-9,0.506-9,0.506c2.047,2.229,3.547,5.121,9,5.121c6.248,0,7.31-3.283,8.999-5.121
	C40.999,48.681,35.622,47.102,32,48.175z"/>
<path fill="#FFFFFF" d="M24.373,49.057c3.8,3.19,11.479,3.21,15.301,0C35.622,49.231,28.453,49.233,24.373,49.057z"/>
<path fill="#DBA97F" d="M37,42.179c0,3.254-9.999,3.254-9.999,0C27.001,41.432,37,41.432,37,42.179z"/>
<path fill="#E6EBEF" d="M32,2C20.908,2,14.206,5.664,11.316,4.257c0,0-0.314,1.893,0.818,3.124c0,0-1.195,1.033-3.125-0.71
	c-1.838,5.967,3.617,9.426,22.99,9.426c19.373,0,14.744-4.719,24.269,3.567C55.335,9.452,48.845,2,32,2z"/>
<path fill="#B3C2C6" d="M40.203,10.903c-10.666,3.938-14.566-3.166-24.627-3.852c4.785,2.26,7.122,5.738,11.052,8.249
	c-8.554-2.865-14.832-7.79-15.308-11.025c0,0-1.428,4.724,4.217,8.255c-5.396,0.5-6.523-5.842-6.523-5.842
	C6.28,11.08,6.658,25.242,9.695,35.751c0.506-3.75-0.648-5.301,1.086-9.819c5.188-13.507,1.85-7.835,21.221-7.835
	c19.372,0,15.875-5.172,21.221,7.835c1.594,3.877,0.579,6.069,1.088,9.819C60.679,12.056,51.519,6.727,40.203,10.903z"/>
<path fill="#FFFFFF" d="M49.26,32.472c-2.153,5.641-10.918,4.814-12.524,0.867C37.955,26.999,48.078,26.456,49.26,32.472z"/>
<path fill="#FFFFFF" d="M14.736,32.472c2.154,5.641,10.922,4.814,12.525,0.867C26.043,26.995,15.923,26.454,14.736,32.472z"/>
<path fill="#99A8AE" d="M50.156,25.684c-3.688-1.83-10.744-1.92-13.373-0.645c-0.563,0.248-0.191,1.982,0.283,1.816
	c3.664-1.357,9.572-1.389,13.002,0.117C50.524,27.167,50.714,25.94,50.156,25.684z"/>
<path fill="#99A8AE" d="M13.843,25.684c3.688-1.83,10.742-1.92,13.373-0.645c0.563,0.248,0.191,1.982-0.281,1.816
	c-3.67-1.357-9.573-1.389-13.005,0.117C13.474,27.167,13.286,25.94,13.843,25.684z"/>
<path fill="#613F34" d="M38.972,31.872c0,4.949,7.159,4.949,7.159,0C46.131,27.278,38.972,27.278,38.972,31.872z"/>
<path fill="#7D5037" d="M39.68,33.456c0,2.838,5.743,2.838,5.743,0C45.423,30.821,39.68,30.821,39.68,33.456z"/>
<path fill="#1A1626" d="M41.066,31.95c0,2.055,2.972,2.055,2.972,0C44.038,30.044,41.066,30.044,41.066,31.95z"/>
<path fill="#AB968C" d="M40.052,31.35c0,1.037,1.5,1.037,1.5,0C41.552,30.388,40.052,30.388,40.052,31.35z"/>
<path fill="#613F34" d="M17.868,31.87c0,4.949,7.159,4.949,7.159,0C25.027,27.276,17.868,27.276,17.868,31.87z"/>
<path fill="#7D5037" d="M18.576,33.454c0,2.838,5.743,2.838,5.743,0C24.319,30.819,18.576,30.819,18.576,33.454z"/>
<path fill="#1A1626" d="M19.962,31.948c0,2.055,2.972,2.055,2.972,0C22.933,30.042,19.962,30.042,19.962,31.948z"/>
<path fill="#AB968C" d="M18.947,31.348c0,1.037,1.5,1.037,1.5,0C20.447,30.386,18.947,30.386,18.947,31.348z"/>
<path fill="#DBA97F" d="M49.26,32.431c0-6.057-12.524-6.057-12.524,0.959C38.525,27.634,47.472,27.634,49.26,32.431z"/>
<path fill="#DBA97F" d="M14.736,32.431c0-6.057,12.525-6.057,12.525,0.957C25.474,27.63,16.525,27.63,14.736,32.431z"/>
</svg>
