<?xml version="1.0" encoding="utf-8"?>
<!-- Generator: Adobe Illustrator 15.0.0, SVG Export Plug-In . SVG Version: 6.00 Build 0)  -->
<!DOCTYPE svg PUBLIC "-//W3C//DTD SVG 1.1//EN" "http://www.w3.org/Graphics/SVG/1.1/DTD/svg11.dtd" [
	<!ENTITY ns_flows "http://ns.adobe.com/Flows/1.0/">
	<!ENTITY ns_extend "http://ns.adobe.com/Extensibility/1.0/">
	<!ENTITY ns_ai "http://ns.adobe.com/AdobeIllustrator/10.0/">
	<!ENTITY ns_graphs "http://ns.adobe.com/Graphs/1.0/">
]>
<svg version="1.1" id="Layer_1" xmlns:x="&ns_extend;" xmlns:i="&ns_ai;" xmlns:graph="&ns_graphs;"
	 xmlns="http://www.w3.org/2000/svg" xmlns:xlink="http://www.w3.org/1999/xlink" xmlns:a="http://ns.adobe.com/AdobeSVGViewerExtensions/3.0/"
	 x="0px" y="0px" width="64px" height="64px" viewBox="0 0 64 64" enable-background="new 0 0 64 64" xml:space="preserve">
<path fill="#E6B045" d="M8.682,29.565c-7.797-1.406-1.707,20.396,4.396,14.382C15.907,41.16,12.329,30.224,8.682,29.565z"/>
<path fill="#E6B045" d="M55.318,29.565c-3.646,0.659-7.225,11.595-4.396,14.382C57.029,49.961,63.111,28.159,55.318,29.565z"/>
<path fill="#FFCC66" d="M9.079,34.015c0.199,3.394,1.143,8.29,2.309,12.484C14.545,57.885,25.829,62,31.999,62
	c6.169,0,17.455-4.115,20.613-15.501c1.164-4.194,2.109-9.091,2.309-12.484C56.291,10.155,7.704,10.155,9.079,34.015z"/>
<path fill="#99A8AE" d="M49.77,28.882c-3.633-2.166-10.15-2.431-12.73-0.955c-0.547,0.297-0.398,1.862,0.074,1.667
	c3.678-1.532,9.279-1.608,12.734,0.162C50.309,29.991,50.318,29.197,49.77,28.882z"/>
<path fill="#99A8AE" d="M14.231,28.882c3.633-2.166,10.148-2.431,12.73-0.955c0.547,0.297,0.4,1.862-0.074,1.667
	c-3.678-1.532-9.277-1.61-12.732,0.162C13.69,29.991,13.682,29.197,14.231,28.882z"/>
<path fill="#6E8189" d="M47,11.537c0,5.951-30,5.951-30,0C17-1.179,47-1.179,47,11.537z"/>
<path fill="#FF8FA8" d="M45,10.475c0,3.022-26,3.022-26,0C19,4.019,45,4.019,45,10.475z"/>
<path fill="#A17B31" d="M22.252,49.139c4.275,3.988,15.238,4.012,19.546,0C36.691,50.275,27.395,50.283,22.252,49.139z"/>
<path fill="#E6B045" d="M37,43.178c0,3.254-9.998,3.254-9.998,0C27.002,42.431,37,42.431,37,43.178z"/>
<path fill="#E6B045" d="M26.502,43.52c-2.992,3.21-6.209,5.218-4.975,9.768C21.661,48.969,24.399,48.155,26.502,43.52z"/>
<path fill="#E6B045" d="M42.473,53.287c1.223-4.503-1.953-6.524-4.975-9.767C39.604,48.159,42.338,48.968,42.473,53.287z"/>
<path fill="#E6B045" d="M37.055,36.338C39.051,40.111,47,41.422,47,41.422S38.504,38.348,37.055,36.338z"/>
<path fill="#E6B045" d="M17,41.422c0,0,7.92-1.273,9.945-5.084C25.495,38.348,17,41.422,17,41.422z"/>
<path fill="#FFFFFF" d="M49,35.648c-1.281,3.893-11.244,2.348-12,0.193C38.168,28.795,47.865,28.961,49,35.648z"/>
<path fill="#613F34" d="M38.92,34.063c0,4.949,7.158,4.949,7.158,0C46.078,29.469,38.92,29.469,38.92,34.063z"/>
<path fill="#7D5037" d="M39.627,35.646c0,2.838,5.744,2.838,5.744,0C45.371,33.012,39.627,33.012,39.627,35.646z"/>
<path fill="#1A1626" d="M41.014,34.141c0,2.055,2.971,2.055,2.971,0C43.984,32.235,41.014,32.235,41.014,34.141z"/>
<path fill="#AB968C" d="M40,33.541c0,1.037,1.5,1.037,1.5,0C41.5,32.579,40,32.579,40,33.541z"/>
<path fill="#E6B045" d="M49,35.602c0-6.732-12-7.502-12,0.295C38.713,29.5,47.285,30.27,49,35.602z"/>
<path fill="#FFFFFF" d="M14.999,35.648c1.283,3.893,11.246,2.348,12,0.193C25.833,28.795,16.135,28.961,14.999,35.648z"/>
<path fill="#613F34" d="M17.918,34.063c0,4.949,7.158,4.949,7.158,0C25.077,29.469,17.918,29.469,17.918,34.063z"/>
<path fill="#7D5037" d="M18.625,35.646c0,2.838,5.744,2.838,5.744,0C24.37,33.012,18.625,33.012,18.625,35.646z"/>
<path fill="#1A1626" d="M20.012,34.141c0,2.055,2.971,2.055,2.971,0C22.983,32.235,20.012,32.235,20.012,34.141z"/>
<path fill="#AB968C" d="M18.999,33.541c0,1.037,1.5,1.037,1.5,0C20.499,32.579,18.999,32.579,18.999,33.541z"/>
<path fill="#E6B045" d="M14.999,35.602c0-6.73,12-7.502,12,0.293C25.286,29.5,16.713,30.27,14.999,35.602z"/>
<path fill="#99A8AE" d="M32,10.031C14.999,1.697,1.334,21.055,9.079,34.015C11.167,22.452,30.667,21.78,32,16.862
	c1.332,4.918,20.832,5.59,22.919,17.153C62.666,21.055,49,1.697,32,10.031z"/>
<path fill="#6E8189" d="M32,13.031c-2.875,9.916-25.145,7.416-22.922,20.984C11.167,22.452,30.667,23.78,32,18.862
	c1.332,4.918,20.832,3.59,22.919,15.153C57.143,20.447,34.875,22.947,32,13.031z"/>
</svg>
