<?xml version="1.0" encoding="utf-8"?>
<!-- Generator: Adobe Illustrator 15.0.0, SVG Export Plug-In . SVG Version: 6.00 Build 0)  -->
<!DOCTYPE svg PUBLIC "-//W3C//DTD SVG 1.1//EN" "http://www.w3.org/Graphics/SVG/1.1/DTD/svg11.dtd" [
	<!ENTITY ns_flows "http://ns.adobe.com/Flows/1.0/">
	<!ENTITY ns_extend "http://ns.adobe.com/Extensibility/1.0/">
	<!ENTITY ns_ai "http://ns.adobe.com/AdobeIllustrator/10.0/">
	<!ENTITY ns_graphs "http://ns.adobe.com/Graphs/1.0/">
]>
<svg version="1.1" id="Layer_1" xmlns:x="&ns_extend;" xmlns:i="&ns_ai;" xmlns:graph="&ns_graphs;"
	 xmlns="http://www.w3.org/2000/svg" xmlns:xlink="http://www.w3.org/1999/xlink" xmlns:a="http://ns.adobe.com/AdobeSVGViewerExtensions/3.0/"
	 x="0px" y="0px" width="64px" height="64px" viewBox="0 0 64 64" enable-background="new 0 0 64 64" xml:space="preserve">
<path fill="#D6A67A" d="M5.945,28.929c-8.354-1.271-1.828,18.422,4.711,12.991C13.687,39.402,9.853,29.525,5.945,28.929z"/>
<path fill="#D6A67A" d="M58.057,28.929c-3.908,0.596-7.742,10.473-4.711,12.991C59.889,47.352,66.406,27.659,58.057,28.929z"/>
<path fill="#E3C19B" d="M32,2C13.976,2,4.835,12.573,6.119,30.805c0.221,3.14,2.607,12.404,4.863,16.078
	c9.1,14.822,32.938,14.822,42.036,0c2.258-3.674,4.645-12.938,4.863-16.078C59.166,12.573,50.023,2,32,2z"/>
<path fill="#D6A67A" d="M37,39.799c0,3.254-9.999,3.254-9.999,0C27.001,39.051,37,39.051,37,39.799z"/>
<path fill="#FFFFFF" d="M50.996,33.334c-2.371,6.207-12.016,5.297-13.783,0.953C38.553,27.311,49.693,26.713,50.996,33.334z"/>
<path fill="#FFFFFF" d="M13.001,33.334c2.371,6.207,12.02,5.297,13.783,0.953C25.445,27.308,14.308,26.711,13.001,33.334z"/>
<path fill="#D6A67A" d="M50.689,24.807c-3.344-2.015-9.738-2.111-12.123-0.708c-0.51,0.271-0.174,2.181,0.256,1.999
	c3.322-1.494,8.68-1.53,11.787,0.128C51.023,26.439,51.195,25.088,50.689,24.807z"/>
<path fill="#D6A67A" d="M13.312,24.807c3.342-2.015,9.736-2.111,12.121-0.708c0.512,0.271,0.174,2.181-0.254,1.999
	c-3.326-1.494-8.68-1.53-11.789,0.128C12.978,26.439,12.806,25.088,13.312,24.807z"/>
<path fill="#613F34" d="M39.674,32.673c0,5.446,7.879,5.446,7.879,0C47.553,27.619,39.674,27.619,39.674,32.673z"/>
<path fill="#7D5037" d="M40.453,34.416c0,3.123,6.318,3.123,6.318,0C46.771,31.517,40.453,31.517,40.453,34.416z"/>
<path fill="#1A1626" d="M41.977,32.759c0,2.26,3.271,2.26,3.271,0C45.248,30.662,41.977,30.662,41.977,32.759z"/>
<path fill="#AB968C" d="M40.861,32.1c0,1.14,1.652,1.14,1.652,0C42.514,31.041,40.861,31.041,40.861,32.1z"/>
<path fill="#613F34" d="M16.449,32.672c0,5.447,7.879,5.447,7.879,0C24.328,27.618,16.449,27.618,16.449,32.672z"/>
<path fill="#7D5037" d="M17.228,34.414c0,3.123,6.32,3.123,6.32,0C23.548,31.516,17.228,31.516,17.228,34.414z"/>
<path fill="#1A1626" d="M18.753,32.758c0,2.259,3.27,2.259,3.27,0C22.023,30.66,18.753,30.66,18.753,32.758z"/>
<path fill="#AB968C" d="M17.636,32.098c0,1.142,1.65,1.142,1.65,0C19.287,31.038,17.636,31.038,17.636,32.098z"/>
<path fill="#D6A67A" d="M50.996,33.287c0-6.663-13.783-6.663-13.783,1.057C39.182,28.01,49.027,28.01,50.996,33.287z"/>
<path fill="#D6A67A" d="M13.001,33.287c0-6.663,13.783-6.663,13.783,1.055C24.82,28.006,14.972,28.006,13.001,33.287z"/>
<path fill="#EFDE8B" d="M33.918,9.804C49.902,8.041,43.137,2,31.203,2c-3.926,0-8.473,0.871-10.521,1.901
	C21.521,7.705,44.48,2.963,33.918,9.804z"/>
<path fill="#BA9D52" d="M33.918,9.804c14.031-8.459-11.909-3.556-13.237-5.903C21.521,7.705,43.813,3.247,33.918,9.804z"/>
<path fill="#42ADE2" d="M43.779,47.908c0,12.85-23.559,12.85-23.559,0c0-6.564,5.305-3.742,11.811-3.742
	C38.537,44.166,43.779,41.344,43.779,47.908z"/>
<path fill="#61C2FF" d="M43.779,48.693c0,12.064-23.559,12.064-23.559,0c0-6.564,5.305-3.742,11.811-3.742
	C38.537,44.951,43.779,42.129,43.779,48.693z"/>
<path fill="#006DAE" d="M31.998,53.695c-6.279,0-6.279-6.283,0-6.283C38.283,47.412,38.283,53.695,31.998,53.695z"/>
<path fill="#AFECFF" d="M32,49.682c-4.771,0-8.637-0.543-8.637,4.113c0,10.939,17.276,10.939,17.276,0
	C40.639,49.139,36.77,49.682,32,49.682z M25.474,53.795c0-3.313,3.133-2.25,6.525-2.25c3.393,0,6.526-1.063,6.526,2.25
	C38.525,60.248,25.474,60.248,25.474,53.795z"/>
<path fill="#81ADBA" d="M25.755,52.432c0.836-1.596,3.451-0.881,6.244-0.881c2.795,0,5.411-0.715,6.247,0.881
	C37.895,49.834,26.107,49.834,25.755,52.432z"/>
<path fill="#81ADBA" d="M23.525,55.521c1.615,8.639,15.336,8.639,16.952,0C38.223,63.111,25.777,63.111,23.525,55.521z"/>
<path fill="#42ADE2" d="M33.689,52.518c-0.662,0-2.645,0-3.375,0c-0.893,0-0.893-3.928,0-3.928c0.803,0,2.749,0,3.375,0
	C34.58,48.59,34.58,52.518,33.689,52.518z"/>
<path fill="#75D6FF" d="M30.255,49.104c0.078-0.328,3.405-0.334,3.489,0C34.117,50.615,29.884,50.672,30.255,49.104z"/>
</svg>
