<?xml version="1.0" encoding="utf-8"?>
<!-- Generator: Adobe Illustrator 15.0.0, SVG Export Plug-In . SVG Version: 6.00 Build 0)  -->
<!DOCTYPE svg PUBLIC "-//W3C//DTD SVG 1.1//EN" "http://www.w3.org/Graphics/SVG/1.1/DTD/svg11.dtd" [
	<!ENTITY ns_flows "http://ns.adobe.com/Flows/1.0/">
	<!ENTITY ns_extend "http://ns.adobe.com/Extensibility/1.0/">
	<!ENTITY ns_ai "http://ns.adobe.com/AdobeIllustrator/10.0/">
	<!ENTITY ns_graphs "http://ns.adobe.com/Graphs/1.0/">
]>
<svg version="1.1" id="Layer_1" xmlns:x="&ns_extend;" xmlns:i="&ns_ai;" xmlns:graph="&ns_graphs;"
	 xmlns="http://www.w3.org/2000/svg" xmlns:xlink="http://www.w3.org/1999/xlink" xmlns:a="http://ns.adobe.com/AdobeSVGViewerExtensions/3.0/"
	 x="0px" y="0px" width="64px" height="64px" viewBox="0 0 64 64" enable-background="new 0 0 64 64" xml:space="preserve">
<linearGradient id="SVGID_1_" gradientUnits="userSpaceOnUse" x1="32.0005" y1="62" x2="32.0005" y2="2.0005">
	<stop  offset="0.5" style="stop-color:#B12FED"/>
	<stop  offset="1" style="stop-color:#C685FF"/>
	<a:midPointStop  offset="0.5" style="stop-color:#B12FED"/>
	<a:midPointStop  offset="0.5" style="stop-color:#B12FED"/>
	<a:midPointStop  offset="1" style="stop-color:#C685FF"/>
</linearGradient>
<circle fill="url(#SVGID_1_)" cx="32" cy="32" r="30"/>
<path fill="#302C3B" d="M44.053,10.252C45.223,8.267,50.766,9.688,58.391,2c2.313,12.75-2.59,19.338-4.324,19.901
	C46.078,24.5,40.766,15.823,44.053,10.252z"/>
<path fill="#1A1626" d="M58.391,2c0.244,9.622-3.381,14.764-6.506,17.456c-1.482,1.278-4.563,1.349,0-3.609
	c-6.229,5.688-8.541-0.208-7.871-5.52c-3.197,5.573,2.1,14.161,10.053,11.574C55.801,21.338,60.703,14.75,58.391,2z"/>
<path fill="#302C3B" d="M19.945,10.252C18.775,8.267,13.232,9.688,5.607,2c-2.313,12.75,2.59,19.338,4.324,19.901
	C17.919,24.5,23.232,15.823,19.945,10.252z"/>
<path fill="#1A1626" d="M5.607,2c-0.244,9.622,3.381,14.764,6.505,17.456c1.484,1.278,4.563,1.349,0-3.609
	c6.229,5.688,8.541-0.208,7.873-5.52c3.197,5.573-2.102,14.161-10.054,11.574C8.197,21.338,3.295,14.75,5.607,2z"/>
<path fill="#1A1626" d="M22.769,51.528c5.623-4.659,12.844-4.657,18.463,0c0.797,0.658,0.895-0.053,0.648-0.611
	c-4.16-9.5-15.602-9.498-19.762,0C21.873,51.476,21.97,52.187,22.769,51.528z"/>
<path fill="#FFFFFF" d="M53.365,26.882c1.451,4.437-0.607,9.36-4.945,11.381c-4.33,2.021-9.42,0.438-11.887-3.516l6.469-7.244
	L53.365,26.882z"/>
<path fill="#1A1626" d="M50.027,27.182c1.428,3.06,0.104,6.696-2.953,8.124c-3.063,1.427-6.697,0.103-8.127-2.956
	C38.043,30.406,49.121,25.238,50.027,27.182z"/>
<path fill="#1A1626" d="M53.365,26.883c-1.488-0.971-3.26-1.372-5.055-1.365c-1.801,0.017-3.604,0.439-5.246,1.201
	c-1.637,0.751-3.139,1.858-4.313,3.229c-1.164,1.371-2.029,3.032-2.219,4.8c1.248-1.248,2.445-2.28,3.727-3.178
	c1.275-0.899,2.594-1.649,3.988-2.298c1.385-0.642,2.826-1.168,4.336-1.563C50.1,27.303,51.609,27.054,53.365,26.883z"/>
<path fill="#FFFFFF" d="M10.635,26.882c-1.451,4.437,0.606,9.36,4.944,11.381c4.331,2.021,9.42,0.438,11.888-3.516l-6.47-7.244
	L10.635,26.882z"/>
<path fill="#1A1626" d="M13.973,27.182c-1.429,3.06-0.104,6.696,2.953,8.124c3.062,1.427,6.697,0.103,8.126-2.956
	C25.957,30.406,14.878,25.238,13.973,27.182z"/>
<path fill="#1A1626" d="M10.635,26.883c1.488-0.971,3.259-1.372,5.055-1.365c1.801,0.017,3.603,0.439,5.245,1.201
	c1.637,0.751,3.14,1.858,4.313,3.229c1.164,1.371,2.029,3.032,2.22,4.8c-1.249-1.248-2.445-2.28-3.727-3.178
	c-1.275-0.899-2.595-1.649-3.988-2.298c-1.385-0.642-2.826-1.168-4.336-1.563C13.901,27.303,12.391,27.054,10.635,26.883z"/>
</svg>
