<?xml version="1.0" encoding="utf-8"?>
<!-- Generator: Adobe Illustrator 19.0.0, SVG Export Plug-In . SVG Version: 6.00 Build 0)  -->
<svg version="1.1" id="Layer_1" xmlns="http://www.w3.org/2000/svg" xmlns:xlink="http://www.w3.org/1999/xlink" x="0px" y="0px"
	 width="64px" height="64px" viewBox="0 0 64 64" enable-background="new 0 0 64 64" xml:space="preserve">
<path fill="#DBA97F" d="M8.682,27.565c-7.797-1.406-1.707,20.397,4.397,14.383C15.907,39.161,12.329,28.225,8.682,27.565z"/>
<path fill="#DBA97F" d="M55.319,27.565c-3.646,0.66-7.225,11.596-4.396,14.383C57.03,47.961,63.112,26.159,55.319,27.565z"/>
<path fill="#FCD5B2" d="M32,2.001c-16.123,0-23.893,12.197-22.918,29.158c0.195,3.414,2.309,14.545,4.307,18.537
	c2.043,4.084,8.879,10.383,13.068,11.686c2.646,0.824,8.439,0.824,11.084,0c4.189-1.303,11.025-7.602,13.07-11.686
	c1.998-3.992,4.111-15.123,4.307-18.537C55.893,14.198,48.125,2.001,32,2.001z"/>
<path fill="#99A8AE" d="M49.594,9.854c4.168,5.277,1.746,10.611,3.795,15.813c1.547,3.928,0.586,6.115,1.094,9.893
	c0.951-7.578,4.592-8.029,3.092-15.48C56.397,14.229,49.594,9.854,49.594,9.854z"/>
<path fill="#99A8AE" d="M14.407,9.854c-4.17,5.277-1.748,10.611-3.797,15.813c-1.547,3.928-0.584,6.115-1.092,9.893
	c-0.953-7.578-4.593-8.029-3.092-15.48C7.604,14.229,14.407,9.854,14.407,9.854z"/>
<path fill="#DBA97F" d="M37.055,34.797C39.051,38.571,47,39.881,47,39.881S38.504,36.807,37.055,34.797z"/>
<path fill="#DBA97F" d="M17,39.881c0,0,7.92-1.273,9.945-5.084C25.495,36.807,17,39.881,17,39.881z"/>
<path fill="#DBA97F" d="M45,17.409c-6.016-3.981-19.904-4.018-26,0C25.784,14.042,38.221,14.042,45,17.409z"/>
<path fill="#DBA97F" d="M49,22.993c-7.867-4.645-26.029-4.688-34,0C23.368,19.286,40.637,19.288,49,22.993z"/>
<path fill="#B08766" d="M22.25,49.139c4.277,3.988,15.238,4.012,19.547,0C36.69,50.276,27.395,50.284,22.25,49.139z"/>
<path fill="#99A8AE" d="M50.157,26.684c-3.688-1.83-10.744-1.92-13.373-0.645c-0.563,0.248-0.191,1.982,0.283,1.816
	c3.664-1.357,9.572-1.389,13.002,0.117C50.524,28.167,50.715,26.94,50.157,26.684z"/>
<path fill="#99A8AE" d="M13.844,26.684c3.688-1.83,10.742-1.92,13.373-0.645c0.563,0.248,0.191,1.982-0.281,1.816
	c-3.67-1.357-9.574-1.389-13.006,0.117C13.475,28.167,13.286,26.94,13.844,26.684z"/>
<path fill="#FFFFFF" d="M49,34.108c-1.281,3.893-11.244,2.348-12,0.193C38.168,27.252,47.866,27.418,49,34.108z"/>
<path fill="#613F34" d="M38.92,32.52c0,4.949,7.158,4.949,7.158,0C46.079,27.926,38.92,27.926,38.92,32.52z"/>
<path fill="#7D5037" d="M39.627,34.104c0,2.838,5.744,2.838,5.744,0C45.372,31.469,39.627,31.469,39.627,34.104z"/>
<path fill="#1A1626" d="M41.014,32.598c0,2.055,2.971,2.055,2.971,0C43.985,30.692,41.014,30.692,41.014,32.598z"/>
<path fill="#AB968C" d="M40,31.999c0,1.037,1.5,1.037,1.5,0C41.5,31.036,40,31.036,40,31.999z"/>
<path fill="#DBA97F" d="M49,34.061c0-6.734-12-7.504-12,0.295C38.713,27.958,47.286,28.727,49,34.061z"/>
<path fill="#FFFFFF" d="M14.998,34.108c1.283,3.893,11.246,2.348,12,0.193C25.832,27.252,16.135,27.418,14.998,34.108z"/>
<path fill="#613F34" d="M17.918,32.52c0,4.949,7.158,4.949,7.158,0C25.077,27.926,17.918,27.926,17.918,32.52z"/>
<path fill="#7D5037" d="M18.625,34.104c0,2.838,5.744,2.838,5.744,0C24.37,31.469,18.625,31.469,18.625,34.104z"/>
<path fill="#1A1626" d="M20.012,32.598c0,2.055,2.971,2.055,2.971,0C22.983,30.692,20.012,30.692,20.012,32.598z"/>
<path fill="#AB968C" d="M18.998,31.999c0,1.037,1.5,1.037,1.5,0C20.498,31.036,18.998,31.036,18.998,31.999z"/>
<path fill="#DBA97F" d="M14.998,34.061c0-6.732,12-7.504,12,0.293C25.286,27.958,16.713,28.727,14.998,34.061z"/>
<path fill="#DBA97F" d="M36.998,43.178c0,3.254-9.998,3.254-9.998,0C27,42.432,36.998,42.432,36.998,43.178z"/>
<path fill="#DBA97F" d="M26.502,43.52c-2.994,3.211-6.209,5.219-4.975,9.768C21.659,48.969,24.397,48.155,26.502,43.52z"/>
<path fill="#DBA97F" d="M42.473,53.286c1.223-4.5-1.953-6.523-4.976-9.764C39.602,48.161,42.336,48.969,42.473,53.286z"/>
</svg>
