<?xml version="1.0" encoding="utf-8"?>
<!-- Generator: Adobe Illustrator 15.0.0, SVG Export Plug-In . SVG Version: 6.00 Build 0)  -->
<!DOCTYPE svg PUBLIC "-//W3C//DTD SVG 1.1//EN" "http://www.w3.org/Graphics/SVG/1.1/DTD/svg11.dtd" [
	<!ENTITY ns_flows "http://ns.adobe.com/Flows/1.0/">
	<!ENTITY ns_extend "http://ns.adobe.com/Extensibility/1.0/">
	<!ENTITY ns_ai "http://ns.adobe.com/AdobeIllustrator/10.0/">
	<!ENTITY ns_graphs "http://ns.adobe.com/Graphs/1.0/">
]>
<svg version="1.1" id="Layer_1" xmlns:x="&ns_extend;" xmlns:i="&ns_ai;" xmlns:graph="&ns_graphs;"
	 xmlns="http://www.w3.org/2000/svg" xmlns:xlink="http://www.w3.org/1999/xlink" xmlns:a="http://ns.adobe.com/AdobeSVGViewerExtensions/3.0/"
	 x="0px" y="0px" width="64px" height="64px" viewBox="0 0 64 64" enable-background="new 0 0 64 64" xml:space="preserve">
<path fill="#302C3B" d="M9.788,51.758c2.7-1.512,13.907-5.5,13.907-5.5h16.695c0,0,11.197,3.982,13.882,5.496
	C58.178,53.953,59,62,59,62H5C5,62,5.871,53.945,9.788,51.758z"/>
<path fill="#E6A400" d="M23.36,48.021c0,6.126,17.279,6.126,17.279,0c0-3.738,0-9.915,0-9.915H23.36
	C23.36,38.106,23.36,43.196,23.36,48.021z"/>
<path fill="#1A1626" d="M10.451,62c0.628-2.027-0.112-5.113-0.895-6.811C8.829,53.605,9.103,60.885,10.451,62"/>
<path fill="#1A1626" d="M53.549,62c-0.628-2.027,0.109-5.113,0.893-6.811C55.169,53.605,54.895,60.885,53.549,62"/>
<path fill="#1A1626" d="M31.998,52.615c2.472,0.908,3.939,2.023,2.958,9.385h1.137C37.094,55.17,35.095,52.961,31.998,52.615z"/>
<path fill="#1A1626" d="M32.488,54.527c0.552,0,1,0.447,1,1s-0.448,1-1,1c-0.554,0-1-0.447-1-1S31.935,54.527,32.488,54.527"/>
<path fill="#E6B045" d="M14.9,24.236c-5.718-1.031-1.252,14.957,3.225,10.547C20.198,32.739,17.575,24.72,14.9,24.236z"/>
<path fill="#E6B045" d="M49.101,24.236c-2.675,0.483-5.299,8.503-3.224,10.547C50.354,39.193,54.815,23.205,49.101,24.236z"/>
<path fill="#FFCC66" d="M32,5.488c-11.823,0-17.521,8.945-16.807,21.384c0.144,2.503,1.693,10.665,3.158,13.593
	c1.499,2.996,6.512,7.615,9.584,8.57c1.94,0.604,6.188,0.604,8.128,0c3.072-0.955,8.086-5.574,9.585-8.57
	c1.466-2.928,3.016-11.09,3.158-13.593C49.521,14.434,43.825,5.488,32,5.488z"/>
<path fill="#E6A400" d="M32,39.35c-2.66-0.782-6.6,0.37-6.6,0.37c1.501,1.635,2.601,3.757,6.6,3.757c4.582,0,5.36-2.408,6.6-3.757
	C38.6,39.72,34.656,38.563,32,39.35z"/>
<path fill="#FFFFFF" d="M26.407,39.996c2.786,2.34,8.418,2.354,11.221,0C34.656,40.124,29.399,40.125,26.407,39.996z"/>
<path fill="#E6B045" d="M35.667,34.952c0,2.386-7.333,2.386-7.333,0C28.334,34.404,35.667,34.404,35.667,34.952z"/>
<path fill="#FFFFFF" d="M44.658,27.834c-1.579,4.136-8.007,3.529-9.185,0.635C36.367,23.819,43.791,23.422,44.658,27.834z"/>
<path fill="#FFFFFF" d="M19.34,27.834c1.58,4.136,8.01,3.529,9.186,0.635C27.632,23.817,20.21,23.42,19.34,27.834z"/>
<path fill="#C1873C" d="M45.314,22.855c-2.704-1.342-7.879-1.407-9.807-0.472c-0.412,0.182-0.141,1.454,0.208,1.332
	c2.687-0.995,7.02-1.019,9.534,0.086C45.585,23.943,45.725,23.044,45.314,22.855z"/>
<path fill="#C1873C" d="M18.686,22.855c2.704-1.342,7.878-1.407,9.807-0.472c0.413,0.182,0.141,1.454-0.206,1.332
	c-2.691-0.995-7.021-1.019-9.537,0.086C18.415,23.943,18.276,23.044,18.686,22.855z"/>
<path fill="#613F34" d="M37.113,27.394c0,3.629,5.25,3.629,5.25,0C42.363,24.024,37.113,24.024,37.113,27.394z"/>
<path fill="#7D5037" d="M37.633,28.555c0,2.081,4.212,2.081,4.212,0C41.845,26.623,37.633,26.623,37.633,28.555z"/>
<path fill="#1A1626" d="M38.648,27.45c0,1.507,2.18,1.507,2.18,0C40.828,26.053,38.648,26.053,38.648,27.45z"/>
<path fill="#AB968C" d="M37.905,27.011c0,0.761,1.101,0.761,1.101,0C39.006,26.305,37.905,26.305,37.905,27.011z"/>
<path fill="#613F34" d="M21.637,27.393c0,3.63,5.25,3.63,5.25,0C26.887,24.023,21.637,24.023,21.637,27.393z"/>
<path fill="#7D5037" d="M22.156,28.554c0,2.081,4.211,2.081,4.211,0C26.367,26.622,22.156,26.622,22.156,28.554z"/>
<path fill="#1A1626" d="M23.172,27.45c0,1.506,2.18,1.506,2.18,0C25.352,26.052,23.172,26.052,23.172,27.45z"/>
<path fill="#AB968C" d="M22.428,27.01c0,0.761,1.101,0.761,1.101,0C23.528,26.304,22.428,26.304,22.428,27.01z"/>
<path fill="#E6B045" d="M44.658,27.803c0-4.44-9.185-4.44-9.185,0.703C36.785,24.286,43.347,24.286,44.658,27.803z"/>
<path fill="#E6B045" d="M19.34,27.803c0-4.44,9.186-4.44,9.186,0.702C27.215,24.283,20.652,24.283,19.34,27.803z"/>
<path fill="#453631" d="M45.895,18.503c0.458,0.989,0.988,2.383,1.791,4.342c1.174,2.863,0.429,4.483,0.802,7.254
	c1.306-4.869,1.723-8.685,1.47-11.596H45.895z"/>
<path fill="#453631" d="M18.104,18.503c-0.459,0.989-0.989,2.383-1.792,4.342c-1.174,2.863-0.428,4.483-0.802,7.254
	c-1.306-4.869-1.723-8.685-1.47-11.596H18.104z"/>
<path fill="#006DAE" d="M31.999,3.428c7.827,4.639,9.337,12.436,9.337,12.436c5.714,1.741,9.065-0.947,9.065-0.947
	C50.401,13.08,43.746,3.428,31.999,3.428z"/>
<path fill="#E03636" d="M31.999,3.428c-8.605,3.608-9.337,12.436-9.337,12.436c6.232,1.606,12.441,1.606,18.674,0
	C41.336,15.863,40.604,7.036,31.999,3.428z"/>
<path fill="#006DAE" d="M31.999,3.428c-7.827,4.639-9.337,12.436-9.337,12.436c-5.714,1.741-9.065-0.947-9.065-0.947
	C13.597,13.08,20.252,3.428,31.999,3.428z"/>
<path fill="#302C3B" d="M50.401,14.916c0,0-6.398,1.133-18.402,1.133s-18.402-1.133-18.402-1.133
	c-0.792,3.308,0.379,5.244,0.379,5.244s6.018,1.827,18.023,1.827s18.024-1.827,18.024-1.827S51.194,18.224,50.401,14.916z"/>
<ellipse fill="#FFE12C" cx="31.999" cy="19.132" rx="2.287" ry="2.142"/>
<path fill="#302C3B" d="M29.712,3.514c0,0.837,4.573,0.837,4.573,0C34.285,2.678,33.264,2,32,2S29.712,2.678,29.712,3.514z"/>
</svg>
