<?xml version="1.0" encoding="utf-8"?>
<!-- Generator: Adobe Illustrator 15.0.0, SVG Export Plug-In . SVG Version: 6.00 Build 0)  -->
<!DOCTYPE svg PUBLIC "-//W3C//DTD SVG 1.1//EN" "http://www.w3.org/Graphics/SVG/1.1/DTD/svg11.dtd" [
	<!ENTITY ns_flows "http://ns.adobe.com/Flows/1.0/">
	<!ENTITY ns_extend "http://ns.adobe.com/Extensibility/1.0/">
	<!ENTITY ns_ai "http://ns.adobe.com/AdobeIllustrator/10.0/">
	<!ENTITY ns_graphs "http://ns.adobe.com/Graphs/1.0/">
]>
<svg version="1.1" id="Layer_1" xmlns:x="&ns_extend;" xmlns:i="&ns_ai;" xmlns:graph="&ns_graphs;"
	 xmlns="http://www.w3.org/2000/svg" xmlns:xlink="http://www.w3.org/1999/xlink" xmlns:a="http://ns.adobe.com/AdobeSVGViewerExtensions/3.0/"
	 x="0px" y="0px" width="64px" height="64px" viewBox="0 0 64 64" enable-background="new 0 0 64 64" xml:space="preserve">
<path fill="#302C3B" d="M9.787,51.758c2.701-1.512,13.908-5.5,13.908-5.5h16.695c0,0,11.197,3.98,13.881,5.496
	C58.178,53.953,59,62,59,62H5C5,62,5.871,53.945,9.787,51.758z"/>
<path fill="#D6A67A" d="M23.359,48.02c0,6.127,17.279,6.127,17.279,0c0-3.736,0-9.914,0-9.914H23.359
	C23.359,38.105,23.359,43.195,23.359,48.02z"/>
<path fill="#1A1626" d="M10.451,62c0.627-2.027-0.113-5.113-0.895-6.813C8.828,53.605,9.102,60.885,10.451,62"/>
<path fill="#1A1626" d="M53.549,62c-0.629-2.027,0.109-5.113,0.893-6.813C55.168,53.605,54.895,60.885,53.549,62"/>
<path fill="#1A1626" d="M31.998,52.615c2.471,0.908,3.939,2.021,2.957,9.385h1.137C37.094,55.168,35.094,52.961,31.998,52.615z"/>
<path fill="#1A1626" d="M32.488,54.525c0.551,0,1,0.447,1,1s-0.449,1-1,1c-0.555,0-1-0.447-1-1S31.934,54.525,32.488,54.525"/>
<path fill="#D6A67A" d="M14.9,24.236c-5.719-1.031-1.252,14.957,3.225,10.547C20.197,32.738,17.574,24.719,14.9,24.236z"/>
<path fill="#D6A67A" d="M49.1,24.236c-2.674,0.482-5.299,8.502-3.223,10.547C50.354,39.193,54.814,23.205,49.1,24.236z"/>
<path fill="#E3C19B" d="M32,5.488c-11.824,0-17.521,8.945-16.807,21.383c0.143,2.504,1.693,10.666,3.158,13.594
	c1.498,2.994,6.512,7.613,9.584,8.57c1.939,0.604,6.188,0.604,8.127,0c3.072-0.957,8.086-5.576,9.586-8.57
	c1.465-2.928,3.016-11.09,3.158-13.594C49.521,14.434,43.824,5.488,32,5.488z"/>
<path fill="#BF8C6B" d="M32,39.35c-2.66-0.783-6.6,0.369-6.6,0.369c1.5,1.635,2.6,3.756,6.6,3.756c4.582,0,5.359-2.406,6.6-3.756
	C38.6,39.719,34.656,38.563,32,39.35z"/>
<path fill="#FFFFFF" d="M26.406,39.996c2.787,2.34,8.418,2.354,11.221,0C34.656,40.123,29.398,40.125,26.406,39.996z"/>
<path fill="#D6A67A" d="M35.666,34.951c0,2.387-7.332,2.387-7.332,0C28.334,34.404,35.666,34.404,35.666,34.951z"/>
<path fill="#FFFFFF" d="M44.658,27.834c-1.58,4.135-8.008,3.529-9.186,0.635C36.367,23.818,43.791,23.422,44.658,27.834z"/>
<path fill="#FFFFFF" d="M19.34,27.834c1.58,4.135,8.01,3.529,9.186,0.635C27.631,23.816,20.209,23.42,19.34,27.834z"/>
<path fill="#BF8C6B" d="M45.314,22.855c-2.705-1.342-7.879-1.408-9.807-0.473c-0.412,0.182-0.141,1.455,0.207,1.332
	c2.688-0.994,7.02-1.018,9.535,0.086C45.584,23.943,45.725,23.043,45.314,22.855z"/>
<path fill="#BF8C6B" d="M18.686,22.855c2.703-1.342,7.877-1.408,9.807-0.473c0.412,0.182,0.141,1.455-0.207,1.332
	c-2.691-0.994-7.02-1.018-9.537,0.086C18.414,23.943,18.275,23.043,18.686,22.855z"/>
<path fill="#613F34" d="M37.113,27.393c0,3.629,5.25,3.629,5.25,0C42.363,24.023,37.113,24.023,37.113,27.393z"/>
<path fill="#7D5037" d="M37.633,28.555c0,2.08,4.211,2.08,4.211,0C41.844,26.623,37.633,26.623,37.633,28.555z"/>
<path fill="#1A1626" d="M38.648,27.449c0,1.508,2.18,1.508,2.18,0C40.828,26.053,38.648,26.053,38.648,27.449z"/>
<path fill="#AB968C" d="M37.904,27.01c0,0.762,1.102,0.762,1.102,0C39.006,26.305,37.904,26.305,37.904,27.01z"/>
<path fill="#613F34" d="M21.637,27.393c0,3.629,5.25,3.629,5.25,0C26.887,24.023,21.637,24.023,21.637,27.393z"/>
<path fill="#7D5037" d="M22.156,28.553c0,2.082,4.211,2.082,4.211,0C26.367,26.621,22.156,26.621,22.156,28.553z"/>
<path fill="#1A1626" d="M23.172,27.449c0,1.506,2.18,1.506,2.18,0C25.352,26.051,23.172,26.051,23.172,27.449z"/>
<path fill="#AB968C" d="M22.428,27.01c0,0.76,1.1,0.76,1.1,0C23.527,26.303,22.428,26.303,22.428,27.01z"/>
<path fill="#D6A67A" d="M44.658,27.803c0-4.441-9.186-4.441-9.186,0.703C36.785,24.285,43.346,24.285,44.658,27.803z"/>
<path fill="#D6A67A" d="M19.34,27.803c0-4.441,9.186-4.441,9.186,0.701C27.215,24.283,20.652,24.283,19.34,27.803z"/>
<path fill="#BA9D52" d="M45.895,18.502c0.457,0.99,0.988,2.383,1.791,4.342c1.174,2.863,0.428,4.484,0.801,7.254
	c1.307-4.869,1.723-8.684,1.471-11.596H45.895z"/>
<path fill="#BA9D52" d="M18.104,18.502c-0.459,0.99-0.988,2.383-1.791,4.342c-1.174,2.863-0.428,4.484-0.803,7.254
	c-1.305-4.869-1.723-8.684-1.469-11.596H18.104z"/>
<path fill="#006DAE" d="M31.998,3.428c7.828,4.639,9.338,12.436,9.338,12.436c5.713,1.74,9.064-0.947,9.064-0.947
	C50.4,13.08,43.746,3.428,31.998,3.428z"/>
<path fill="#E03636" d="M31.998,3.428c-8.605,3.607-9.336,12.436-9.336,12.436c6.232,1.605,12.441,1.605,18.674,0
	C41.336,15.863,40.604,7.035,31.998,3.428z"/>
<path fill="#006DAE" d="M31.998,3.428c-7.826,4.639-9.336,12.436-9.336,12.436c-5.715,1.74-9.066-0.947-9.066-0.947
	C13.596,13.08,20.252,3.428,31.998,3.428z"/>
<path fill="#302C3B" d="M50.4,14.916c0,0-6.398,1.133-18.402,1.133s-18.402-1.133-18.402-1.133
	c-0.791,3.307,0.379,5.244,0.379,5.244s6.018,1.826,18.023,1.826s18.025-1.826,18.025-1.826S51.193,18.223,50.4,14.916z"/>
<ellipse fill="#FFE12C" cx="31.998" cy="19.131" rx="2.287" ry="2.143"/>
<path fill="#302C3B" d="M29.711,3.514c0,0.836,4.574,0.836,4.574,0S33.264,2,32,2S29.711,2.678,29.711,3.514z"/>
</svg>
