<?xml version="1.0" encoding="utf-8"?>
<!-- Generator: Adobe Illustrator 19.0.0, SVG Export Plug-In . SVG Version: 6.00 Build 0)  -->
<svg version="1.1" id="Layer_1" xmlns="http://www.w3.org/2000/svg" xmlns:xlink="http://www.w3.org/1999/xlink" x="0px" y="0px"
	 width="64px" height="64px" viewBox="0 0 64 64" enable-background="new 0 0 64 64" xml:space="preserve">
<path fill="#946346" d="M14.896,24.239c-5.717-1.132-1.25,16.405,3.225,11.568C20.197,33.566,17.572,24.769,14.896,24.239z"/>
<path fill="#946346" d="M49.1,24.239c-2.676,0.529-5.299,9.326-3.225,11.568C50.354,40.645,54.814,23.108,49.1,24.239z"/>
<path fill="#E6EBEF" d="M9.787,51.757c2.701-1.511,13.908-5.499,13.908-5.499h16.695c0,0,11.197,3.981,13.881,5.496
	C58.178,53.952,59,62,59,62H5C5,62,5.871,53.946,9.787,51.757z"/>
<path fill="#946346" d="M23.359,48.021c0,6.126,17.279,6.126,17.279,0c0-3.737,0-9.914,0-9.914H23.359
	C23.359,38.107,23.359,43.196,23.359,48.021z"/>
<path fill="#CFD8DD" d="M10.451,62c0.627-2.028-0.113-5.113-0.895-6.811C8.828,53.606,9.101,60.885,10.451,62"/>
<path fill="#CFD8DD" d="M53.549,62c-0.629-2.028,0.109-5.113,0.893-6.811C55.168,53.606,54.895,60.885,53.549,62"/>
<path fill="#CFD8DD" d="M31.998,52.615c2.471,0.908,3.94,2.022,2.957,9.385h1.137C37.094,55.169,35.094,52.961,31.998,52.615z"/>
<path fill="#CFD8DD" d="M32.488,54.527c0.551,0,1,0.447,1,1s-0.449,1-1,1c-0.555,0-1-0.447-1-1S31.934,54.527,32.488,54.527"/>
<path fill="#B88A6F" d="M32,5.486c-11.826,0-17.524,8.945-16.809,21.385c0.143,2.503,1.693,10.666,3.158,13.594
	c1.502,2.996,6.512,7.615,9.582,8.571c1.943,0.603,6.191,0.603,8.131,0c3.074-0.956,8.088-5.575,9.586-8.571
	c1.467-2.928,3.016-11.091,3.16-13.594C49.521,14.431,43.824,5.486,32,5.486z"/>
<path fill="#80553C" d="M32,39.349c-2.66-0.782-6.602,0.37-6.602,0.37c1.5,1.634,2.602,3.756,6.602,3.756
	c4.58,0,5.359-2.407,6.598-3.756C38.598,39.719,34.654,38.563,32,39.349z"/>
<path fill="#FFFFFF" d="M26.404,39.996c2.787,2.34,8.42,2.354,11.225,0C34.654,40.123,29.396,40.124,26.404,39.996z"/>
<path fill="#946346" d="M35.666,34.95c0,2.387-7.334,2.387-7.334,0C28.332,34.403,35.666,34.403,35.666,34.95z"/>
<path fill="#6B4435" d="M42.029,40.218c0,0-0.605-1.499-2.211-2.292c-2.016-0.997-3.83-0.754-7.82-0.747
	c-3.99-0.007-5.805-0.25-7.822,0.747c-1.603,0.793-2.209,2.292-2.209,2.292c-7.619-5.047-5.111-12.731-7.572-16.031
	c0.512,6.344,0,8.59,0.984,11.887c3.164,10.595,9.75,13.409,16.619,13.414c6.869-0.005,13.453-2.819,16.617-13.414
	c0.986-3.297,0.473-5.543,0.986-11.887C47.143,27.487,49.65,35.171,42.029,40.218z M34.18,45.137
	c-0.955-0.394-1.264-1.179-1.264-1.179h-1.834c0,0-0.311,0.785-1.266,1.179c-2.19,0.889-6.41-5.348-5.219-5.74
	c1.521-0.5,4.17-0.674,7.4-0.675c3.231,0.001,5.879,0.175,7.4,0.675C40.59,39.789,36.371,46.026,34.18,45.137z"/>
<path fill="#FFFFFF" d="M44.656,27.832c-1.578,4.136-8.006,3.53-9.184,0.636C36.365,23.819,43.789,23.42,44.656,27.832z"/>
<path fill="#FFFFFF" d="M19.338,27.832c1.58,4.136,8.01,3.53,9.186,0.636C27.631,23.817,20.209,23.419,19.338,27.832z"/>
<path fill="#80553C" d="M45.313,22.855c-2.703-1.342-7.879-1.407-9.807-0.472c-0.412,0.181-0.141,1.453,0.207,1.332
	c2.688-0.996,7.021-1.019,9.535,0.086C45.582,23.943,45.723,23.042,45.313,22.855z"/>
<path fill="#80553C" d="M18.684,22.855c2.705-1.342,7.877-1.407,9.807-0.472c0.412,0.181,0.141,1.453-0.205,1.332
	c-2.691-0.996-7.022-1.019-9.537,0.086C18.414,23.943,18.275,23.042,18.684,22.855z"/>
<path fill="#613F34" d="M37.111,27.392c0,3.63,5.25,3.63,5.25,0C42.361,24.024,37.111,24.024,37.111,27.392z"/>
<path fill="#7D5037" d="M37.631,28.554c0,2.081,4.211,2.081,4.211,0C41.842,26.621,37.631,26.621,37.631,28.554z"/>
<path fill="#1A1626" d="M38.646,27.449c0,1.507,2.18,1.507,2.18,0C40.826,26.051,38.646,26.051,38.646,27.449z"/>
<path fill="#AB968C" d="M37.904,27.01c0,0.76,1.1,0.76,1.1,0C39.004,26.304,37.904,26.304,37.904,27.01z"/>
<path fill="#613F34" d="M21.635,27.391c0,3.63,5.25,3.63,5.25,0C26.885,24.023,21.635,24.023,21.635,27.391z"/>
<path fill="#7D5037" d="M22.154,28.552c0,2.081,4.211,2.081,4.211,0C26.365,26.62,22.154,26.62,22.154,28.552z"/>
<path fill="#1A1626" d="M23.17,27.448c0,1.506,2.18,1.506,2.18,0C25.35,26.05,23.17,26.05,23.17,27.448z"/>
<path fill="#AB968C" d="M22.426,27.008c0,0.762,1.102,0.762,1.102,0C23.527,26.302,22.426,26.302,22.426,27.008z"/>
<path fill="#946346" d="M44.656,27.802c0-4.441-9.184-4.441-9.184,0.703C36.783,24.284,43.346,24.284,44.656,27.802z"/>
<path fill="#946346" d="M19.338,27.802c0-4.441,9.186-4.441,9.186,0.701C27.213,24.281,20.65,24.281,19.338,27.802z"/>
<path fill="#E6EBEF" d="M51.313,11.691c0.66-0.793,0.221-1.797-1.723-3.229c0.002,0,0.002,0.001,0.008,0.001
	C46.289-2.293,4.016-1.169,10.887,23.724c-0.547,4.396,1.406,7.732,1.814,7.887c4.471-8.783,13.797-12.822,22.16-15.179
	c12.914,3.317,16.396,15.351,16.396,15.351c2.922-3.6,2.287-7.627,2.287-7.62C55.193,19.618,54.688,15.037,51.313,11.691z"/>
<path opacity="0.3" fill="#BEC3CF" d="M15.66,7.367c-4.445,3.51-6.846,8.851-4.773,16.357c-0.547,4.396,1.406,7.732,1.814,7.887
	c1.111-2.183,5.703-7.813,7.324-9.457C14.156,23.724,8.615,14.441,15.66,7.367z"/>
<path opacity="0.3" fill="#BEC3CF" d="M51.313,11.691c0.66-0.793,0.221-1.797-1.723-3.229c0.002,0,0.002,0.001,0.008,0.001
	c-0.408-1.321-1.404-2.464-2.822-3.404c3.258,2.187,5.996,14.502-1.162,17.574c3.729,3.598,5.645,9.15,5.645,9.15
	c2.922-3.6,2.287-7.627,2.287-7.62C55.193,19.618,54.688,15.037,51.313,11.691z"/>
<path fill="#BEC3CF" d="M12.701,31.611c5.537-18.828,29.455-13.9,38.611-19.92C44.197,19.571,24.566,13.017,12.701,31.611z"/>
<path fill="#BEC3CF" d="M53.545,24.162c-1.68-7.61-8.139-9.722-8.139-9.722l-2.074,0.597C43.332,15.037,49.203,16.154,53.545,24.162
	z"/>
<path fill="#BEC3CF" d="M51.258,31.782C47.988,19.589,36.34,16.321,36.34,16.321l-2.072,0.597
	C34.268,16.917,46.795,20.658,51.258,31.782z"/>
<path fill="#BEC3CF" d="M10.887,23.724C15.32,1.359,43.061,4.823,49.59,8.461C41.908,6.631,18.639,3.669,10.887,23.724z"/>
</svg>
