<?xml version="1.0" encoding="utf-8"?>
<!-- Generator: Adobe Illustrator 15.0.0, SVG Export Plug-In . SVG Version: 6.00 Build 0)  -->
<!DOCTYPE svg PUBLIC "-//W3C//DTD SVG 1.1//EN" "http://www.w3.org/Graphics/SVG/1.1/DTD/svg11.dtd" [
	<!ENTITY ns_flows "http://ns.adobe.com/Flows/1.0/">
	<!ENTITY ns_extend "http://ns.adobe.com/Extensibility/1.0/">
	<!ENTITY ns_ai "http://ns.adobe.com/AdobeIllustrator/10.0/">
	<!ENTITY ns_graphs "http://ns.adobe.com/Graphs/1.0/">
]>
<svg version="1.1" id="Layer_1" xmlns:x="&ns_extend;" xmlns:i="&ns_ai;" xmlns:graph="&ns_graphs;"
	 xmlns="http://www.w3.org/2000/svg" xmlns:xlink="http://www.w3.org/1999/xlink" xmlns:a="http://ns.adobe.com/AdobeSVGViewerExtensions/3.0/"
	 x="0px" y="0px" width="64px" height="64px" viewBox="0 0 64 64" enable-background="new 0 0 64 64" xml:space="preserve">
<path fill="#211E1A" d="M20.977,15.726c-7.432,36.657-6.752,35.872,8.893,35.872C21.213,44.639,37.797,15.228,20.977,15.726z"/>
<path fill="#26221E" d="M18.297,15.157c-5.424,27.853-0.746,35.003,3.41,36.44h4.76C15.328,42.578,32.742,14.608,18.297,15.157z"/>
<path fill="#211E1A" d="M42.842,15.724c7.432,36.657,6.75,35.872-8.893,35.872C41.91,46.012,26.021,15.226,42.842,15.724z"/>
<path fill="#26221E" d="M45.521,15.157c7.928,25.339-0.018,35.267-3.41,36.438h-4.76C48.492,43.314,31.078,14.606,45.521,15.157z"/>
<path fill="#38332D" d="M46.619,28.773c2.262,6.439,0.023,19.66-4.658,22.824c5.189,0,8.352-8.379,9.893-19.908
	C53.779,17.286,42.59,17.278,46.619,28.773z"/>
<path fill="#38332D" d="M12.547,34.361c1.893,10.406,4.219,17.236,9.313,17.236c-5.68-6.859-5.01-21.33-3.396-24.93
	C26.691,20.956,9.35,16.765,12.547,34.361z"/>
<path fill="#006DAE" d="M12.256,51.533c2.4-0.992,12.363-3.604,12.363-3.604h14.838c0,0,9.953,2.609,12.34,3.602
	C55.268,52.973,56,62,56,62H8C8,62,8.775,52.967,12.256,51.533z"/>
<path fill="#302C3B" d="M11.816,51.744c0.512-0.41,8.148-2.65,10.533-3.211C25.035,54.617,29.613,62,29.613,62H11.234L11.816,51.744
	z"/>
<path fill="#F59E01" d="M12.256,51.533c0.186-0.238,9.236-3.01,9.77-2.912C24.373,54.578,28.814,62,28.814,62h-16.82L12.256,51.533z
	"/>
<path fill="#FFE12C" d="M14.916,50.6c2.158-0.768,4.117-1.246,4.117-1.246L20.395,62h-5.121L14.916,50.6z"/>
<path fill="#302C3B" d="M52.184,51.744c-0.512-0.41-8.148-2.65-10.533-3.211C38.965,54.617,34.387,62,34.387,62h18.379
	L52.184,51.744z"/>
<path fill="#F59E01" d="M51.744,51.533c-0.186-0.238-9.236-3.01-9.77-2.912C39.627,54.578,35.186,62,35.186,62h16.822L51.744,51.533
	z"/>
<path fill="#FFE12C" d="M49.084,50.6c-2.16-0.768-4.115-1.246-4.115-1.246L43.605,62h5.121L49.084,50.6z"/>
<path fill="#423225" d="M24.383,48.662c0,6.43,15.236,6.43,15.236,0c0-3.922,0-10.404,0-10.404H24.383
	C24.383,38.258,24.383,43.6,24.383,48.662z"/>
<path fill="#614A36" d="M32,6.487c-11.609,0-17.201,9.455-16.502,21.612c0.143,2.443,0.822,5.969,1.662,8.988
	C18.9,43.367,28.088,49.689,32,49.689s13.1-6.322,14.842-12.602c0.838-3.02,1.518-6.545,1.662-8.988
	C49.201,15.942,43.611,6.487,32,6.487z"/>
<path fill="#36281D" d="M32.002,39.66c-2.822-1.24-2.844-0.049-7.201,0.242c1.637,1.857,2.84,4.244,7.199,4.244
	c5.002,0,5.848-2.711,7.203-4.244C34.844,39.611,34.824,38.42,32.002,39.66z"/>
<path fill="#FFFFFF" d="M26.109,40.365c2.844,2.959,8.977,2.92,11.783,0.002C33.516,40.838,30.488,40.838,26.109,40.365z"/>
<path fill="#36281D" d="M44.795,23.684c-2.615-1.559-7.307-1.751-9.164-0.688c-0.395,0.215-0.287,1.342,0.053,1.201
	c2.648-1.104,6.682-1.158,9.168,0.117C45.184,24.482,45.191,23.91,44.795,23.684z"/>
<path fill="#36281D" d="M19.207,23.684c2.615-1.559,7.307-1.751,9.166-0.688c0.395,0.215,0.289,1.342-0.053,1.201
	c-2.648-1.104-6.68-1.16-9.168,0.117C18.818,24.482,18.813,23.91,19.207,23.684z"/>
<path fill="#423225" d="M35.602,35.418c0,2.342-7.201,2.342-7.201,0C28.4,34.881,35.602,34.881,35.602,35.418z"/>
<path fill="#FFFFFF" d="M44.543,28.432c-1.553,4.059-7.861,3.463-9.018,0.623C36.402,24.488,43.689,24.098,44.543,28.432z"/>
<path fill="#613F34" d="M37.107,27.99c0,3.596,5.199,3.596,5.199,0C42.307,24.652,37.107,24.652,37.107,27.99z"/>
<path fill="#7D5037" d="M37.621,29.139c0,2.063,4.172,2.063,4.172,0C41.793,27.227,37.621,27.227,37.621,29.139z"/>
<path fill="#1A1626" d="M38.627,28.047c0,1.492,2.16,1.492,2.16,0C40.787,26.66,38.627,26.66,38.627,28.047z"/>
<path fill="#AB968C" d="M37.891,27.609c0,0.754,1.09,0.754,1.09,0C38.98,26.91,37.891,26.91,37.891,27.609z"/>
<path fill="#45332C" d="M44.543,28.4c0-4.361-9.018-4.361-9.018,0.689C36.813,24.945,43.256,24.945,44.543,28.4z"/>
<path fill="#FFFFFF" d="M19.461,28.432c1.551,4.059,7.861,3.465,9.018,0.623C27.604,24.488,20.314,24.098,19.461,28.432z"/>
<path fill="#613F34" d="M21.695,27.994c0,3.596,5.201,3.596,5.201,0C26.896,24.658,21.695,24.658,21.695,27.994z"/>
<path fill="#7D5037" d="M22.209,29.145c0,2.063,4.172,2.063,4.172,0C26.381,27.232,22.209,27.232,22.209,29.145z"/>
<path fill="#1A1626" d="M23.217,28.051c0,1.492,2.158,1.492,2.158,0C25.375,26.666,23.217,26.666,23.217,28.051z"/>
<path fill="#AB968C" d="M22.479,27.615c0,0.754,1.09,0.754,1.09,0C23.568,26.916,22.479,26.916,22.479,27.615z"/>
<path fill="#45332C" d="M19.461,28.4c0-4.361,9.018-4.361,9.018,0.688C27.191,24.943,20.748,24.943,19.461,28.4z"/>
<path fill="#38332D" d="M42.902,8.573c-6.842,8.176-0.313,8.705,3.717,20.2c2.262,6.439,3.693,14.445,5.234,2.916
	C53.779,17.286,46.377,7.37,42.902,8.573z"/>
<path fill="#38332D" d="M26.111,5.44C17.436,7.821,9.35,16.765,12.547,34.361c1.893,10.406,1.346-2.76,2.959-6.361
	c8.229-5.711,25.256-11.37,27.396-19.427C43.988,6.714,34.791,2.788,26.111,5.44z"/>
<path fill="#26221E" d="M19.273,18.261c3.725-0.867,21.539-1.277,23.793-9.688C38.855,12.429,34.496,13.478,19.273,18.261z"/>
<path fill="#26221E" d="M12.854,31.639c6.248-9.581,26.713-8.523,30.213-23.065C36.271,20.778,14.563,22.428,12.854,31.639z"/>
<path fill="#26221E" d="M41.008,10.565C39.395,13.483,44.996,9.196,51.035,28C49.547,17.007,44.445,9.437,41.008,10.565z"/>
<path fill="#FFE12C" d="M51.801,23.09h-39.6c0-10.431,4.955-18.54,19.801-18.54S51.801,12.659,51.801,23.09z"/>
<path fill="#F9B700" d="M40.467,18.47V5.679L32.004,3.21l-8.467,2.469V18.47c-7.949,1.016-13.535,3.418-13.535,6.224h44
	C54.002,21.888,48.414,19.485,40.467,18.47z"/>
<path fill="#FFE12C" d="M38.998,20.677H25.006V5.312c0-4.416,13.992-4.416,13.992,0V20.677z"/>
<polygon opacity="0.2" points="52.133,25.5 11.863,25.492 11.906,24.693 52.078,24.693 "/>
</svg>
