<?xml version="1.0" encoding="utf-8"?>
<!-- Generator: Adobe Illustrator 15.0.0, SVG Export Plug-In . SVG Version: 6.00 Build 0)  -->
<!DOCTYPE svg PUBLIC "-//W3C//DTD SVG 1.1//EN" "http://www.w3.org/Graphics/SVG/1.1/DTD/svg11.dtd" [
	<!ENTITY ns_flows "http://ns.adobe.com/Flows/1.0/">
	<!ENTITY ns_extend "http://ns.adobe.com/Extensibility/1.0/">
	<!ENTITY ns_ai "http://ns.adobe.com/AdobeIllustrator/10.0/">
	<!ENTITY ns_graphs "http://ns.adobe.com/Graphs/1.0/">
]>
<svg version="1.1" id="Layer_1" xmlns:x="&ns_extend;" xmlns:i="&ns_ai;" xmlns:graph="&ns_graphs;"
	 xmlns="http://www.w3.org/2000/svg" xmlns:xlink="http://www.w3.org/1999/xlink" xmlns:a="http://ns.adobe.com/AdobeSVGViewerExtensions/3.0/"
	 x="0px" y="0px" width="64px" height="64px" viewBox="0 0 64 64" enable-background="new 0 0 64 64" xml:space="preserve">
<path fill="#302C3B" d="M56,22.346c0,0,2.441,0,4.732,1.477c0,0,0.301-8.72-9.494-12.88c0,0,2.396-0.998,5.249-0.69
	c0,0-5.444-6.151-14.946-4.604c0,0,1.201-1.582,3.867-2.392C35.831-0.223,32,4.628,32,4.628s-3.832-4.851-13.408-1.371
	c2.666,0.81,3.867,2.392,3.867,2.392c-9.502-1.548-14.946,4.604-14.946,4.604c2.853-0.308,5.249,0.69,5.249,0.69
	c-9.795,4.16-9.494,12.88-9.494,12.88C5.559,22.346,8,22.346,8,22.346c-9.878,10.723-4.582,19.615-4.582,19.615
	c1.727-3.41,3.906-4.219,3.906-4.219c-1.502,14.099,7.322,18.164,7.322,18.164C15.398,53.528,17,51.91,17,51.91
	c1.967,5.344,6.736,7.384,6.736,7.384c-0.148-2.849,1.504-4.289,1.504-4.289C27.143,61.263,36.508,62,36.508,62
	s-2.941-4.148,2.252-6.995c0,0,1.652,0.598,1.504,3.445c0,0,4.77-1.196,6.736-6.54c0,0,2.502,0.773,3.254,3.153
	c0,0,7.924-3.223,6.423-17.321c0,0,2.179,0.809,3.905,4.219C60.582,41.961,65.878,33.068,56,22.346z"/>
<radialGradient id="SVGID_1_" cx="32" cy="34.3594" r="20.9796" gradientUnits="userSpaceOnUse">
	<stop  offset="0.4848" style="stop-color:#FF3030"/>
	<stop  offset="1" style="stop-color:#D40000"/>
	<a:midPointStop  offset="0.4848" style="stop-color:#FF3030"/>
	<a:midPointStop  offset="0.4925" style="stop-color:#FF3030"/>
	<a:midPointStop  offset="1" style="stop-color:#D40000"/>
</radialGradient>
<path fill="url(#SVGID_1_)" d="M51.919,27.486c0-20.668-7.91-10.335-19.919-10.335S12.081,6.818,12.081,27.486
	c-6.019,10.052,2.307,9.16,2.307,13.22c0,12.208,10.559,13.445,17.612,13.445s17.612-1.237,17.612-13.445
	C49.612,36.646,57.938,37.538,51.919,27.486z"/>
<path fill="#FFFFFF" d="M36.188,27.443c0,8.001,12,8.001,12,0C48.188,19.439,36.188,19.448,36.188,27.443z"/>
<circle fill="#1A1626" cx="41.188" cy="28.443" r="3.5"/>
<path fill="#FFFFFF" d="M15.813,27.443c0,8.001,12,8.001,12,0C27.813,19.439,15.813,19.448,15.813,27.443z"/>
<circle fill="#1A1626" cx="22.813" cy="28.443" r="3.5"/>
<path fill="#1A1626" d="M16.999,39.642c0,15.377,30.002,15.377,30.002,0c0-3.746-4.528,2.907-15.003,2.907
	C21.533,42.549,16.999,35.897,16.999,39.642z"/>
<path fill="#FFFFFF" d="M43.818,40.851c0.805,5.472,3.283,7.909,1.871,7.907c-1.327-0.001-3.697-1.098-5.529-6.226
	C39.704,41.257,43.651,39.72,43.818,40.851z"/>
<path fill="#FFFFFF" d="M32.291,43.923c0,3.821,3.637,3.094,3.637-0.728C35.928,42.376,32.291,42.537,32.291,43.923z"/>
<path fill="#FFFFFF" d="M36.345,43.557c0,3.821,3.322,2.79,3.322-1.031C39.667,41.38,36.345,42.171,36.345,43.557z"/>
<path fill="#FFFFFF" d="M39.793,48.52c0-2.561-3.234-1.839-3.234,0.859C36.559,50.476,39.793,49.616,39.793,48.52z"/>
<path fill="#FFFFFF" d="M36.058,49.571c0-3.021-3.767-3.225-3.767,0.202C32.291,51.159,36.058,50.383,36.058,49.571z"/>
<path fill="#FFFFFF" d="M20.182,40.851c-0.806,5.472-3.283,7.909-1.871,7.907c1.326-0.001,3.697-1.098,5.529-6.226
	C24.296,41.257,20.349,39.72,20.182,40.851z"/>
<path fill="#FFFFFF" d="M31.709,43.923c0,3.821-3.637,3.094-3.637-0.728C28.072,42.376,31.709,42.537,31.709,43.923z"/>
<path fill="#FFFFFF" d="M27.655,43.557c0,3.821-3.322,2.79-3.322-1.031C24.333,41.38,27.655,42.171,27.655,43.557z"/>
<path fill="#FFFFFF" d="M24.207,48.52c0-2.561,3.234-1.839,3.234,0.859C27.441,50.476,24.207,49.616,24.207,48.52z"/>
<path fill="#FFFFFF" d="M27.942,49.571c0-3.021,3.767-3.225,3.767,0.202C31.709,51.159,27.942,50.383,27.942,49.571z"/>
<path fill="#E81C27" d="M22.076,11.34c-5.521-5.85-5.474-10.43-7.143-9.112c-1.567,1.237-3.075,4.469,0.823,10.954
	C16.727,14.796,23.217,12.55,22.076,11.34z"/>
<path fill="#E81C27" d="M41.86,11.34c5.521-5.85,5.474-10.43,7.143-9.112c1.567,1.237,3.075,4.469-0.823,10.954
	C47.21,14.796,40.72,12.55,41.86,11.34z"/>
<path fill="#FFFFFF" d="M38.625,26.944c0,1.334,2,1.334,2,0S38.625,25.612,38.625,26.944z"/>
<path fill="#FFFFFF" d="M20.25,26.944c0,1.334,2,1.334,2,0S20.25,25.612,20.25,26.944z"/>
<path fill="#910404" d="M40.832,35.949c-0.135,2.572-2.31,3.742-4.308,3.521c0.016-0.149-0.111-1.645-0.348-2.122
	c-0.166,4.869-8.186,4.869-8.352,0c-0.236,0.478-0.363,1.973-0.348,2.122c-1.998,0.222-4.173-0.948-4.308-3.521
	c-0.083,0.333-0.134,0.691-0.134,1.083c0,2.988,2.641,4.245,4.873,3.785c1.551,2.757,6.63,2.758,8.183,0.001
	c2.233,0.461,4.874-0.798,4.874-3.786C40.966,36.641,40.915,36.282,40.832,35.949z"/>
</svg>
