<?xml version="1.0" encoding="utf-8"?>
<!-- Generator: Adobe Illustrator 15.0.0, SVG Export Plug-In . SVG Version: 6.00 Build 0)  -->
<!DOCTYPE svg PUBLIC "-//W3C//DTD SVG 1.1//EN" "http://www.w3.org/Graphics/SVG/1.1/DTD/svg11.dtd" [
	<!ENTITY ns_flows "http://ns.adobe.com/Flows/1.0/">
	<!ENTITY ns_extend "http://ns.adobe.com/Extensibility/1.0/">
	<!ENTITY ns_ai "http://ns.adobe.com/AdobeIllustrator/10.0/">
	<!ENTITY ns_graphs "http://ns.adobe.com/Graphs/1.0/">
]>
<svg version="1.1" id="Layer_1" xmlns:x="&ns_extend;" xmlns:i="&ns_ai;" xmlns:graph="&ns_graphs;"
	 xmlns="http://www.w3.org/2000/svg" xmlns:xlink="http://www.w3.org/1999/xlink" xmlns:a="http://ns.adobe.com/AdobeSVGViewerExtensions/3.0/"
	 x="0px" y="0px" width="64px" height="64px" viewBox="0 0 64 64" enable-background="new 0 0 64 64" xml:space="preserve">
<path fill="#CFD8DD" d="M51.002,19.898c-7.045-4.267-30.957-4.267-38.002,0C2.588,26.205,2,62,2,62h60
	C62,62,61.41,26.205,51.002,19.898z"/>
<path fill="#30231E" d="M43.053,50c0-12.65-22.326-12.949-22.326,0H43.053z"/>
<path fill="#947D41" d="M19.074,13.402C10.361,50.801,11.158,50,29.5,50C19.35,42.898,38.791,12.895,19.074,13.402z"/>
<path fill="#BA9D52" d="M15.932,12.823C9.572,41.236,15.057,48.531,19.93,50h5.582C12.449,40.797,32.865,12.265,15.932,12.823z"/>
<path fill="#947D41" d="M44.707,13.4c8.713,37.398,7.916,36.598-10.426,36.598C43.615,44.299,24.988,12.893,44.707,13.4z"/>
<path fill="#BA9D52" d="M47.848,12.821c9.295,25.851-0.02,35.979-3.998,37.177h-5.58C51.33,41.549,30.916,12.263,47.848,12.821z"/>
<path fill="#E3C19B" d="M24.982,48.869c0,5.754,14.035,5.754,14.035,0c0-3.512,0-9.316,0-9.316H24.982
	C24.982,39.553,24.982,44.336,24.982,48.869z"/>
<path fill="#D6A67A" d="M24.801,44.295c6.544,6.736,7.858,6.732,14.398-0.004L24.801,44.295z"/>
<path fill="#E3C19B" d="M31.998,4.416c-11.609,0-17.203,9.454-16.502,21.61c0.143,2.442,0.822,5.968,1.66,8.989
	c1.742,6.277,10.93,12.602,14.842,12.602c3.91,0,13.1-6.324,14.842-12.602c0.836-3.021,1.518-6.547,1.664-8.989
	C49.199,13.87,43.609,4.416,31.998,4.416z"/>
<path fill="#D46C8F" d="M31.998,37.588c-2.822-1.24-2.842-0.051-7.199,0.242c1.637,1.855,2.84,4.242,7.197,4.242
	c5.004,0,5.85-2.711,7.203-4.242C34.84,37.537,34.822,36.348,31.998,37.588z"/>
<path fill="#FFFFFF" d="M26.107,38.293c2.842,2.959,8.975,2.92,11.781,0.002C33.514,38.764,30.484,38.764,26.107,38.293z"/>
<path fill="#594640" d="M44.791,21.61c-2.615-1.56-7.309-1.75-9.164-0.687c-0.393,0.213-0.287,1.34,0.051,1.198
	c2.65-1.102,6.684-1.157,9.17,0.118C45.182,22.408,45.189,21.837,44.791,21.61z"/>
<path fill="#594640" d="M19.205,21.61c2.617-1.56,7.307-1.75,9.166-0.687c0.393,0.213,0.287,1.34-0.053,1.198
	c-2.65-1.102-6.682-1.158-9.168,0.118C18.816,22.408,18.809,21.837,19.205,21.61z"/>
<path fill="#D6A67A" d="M35.598,33.345c0,2.345-7.199,2.345-7.199,0C28.398,32.808,35.598,32.808,35.598,33.345z"/>
<path fill="#EFDE8B" d="M44.973,6.106c-8.141,8.34-0.373,8.88,4.424,20.606C52.086,33.284,49.424,46.771,43.85,50
	c6.178,0,9.941-8.551,11.775-20.312C57.916,14.994,49.107,4.878,44.973,6.106z"/>
<path fill="#EFDE8B" d="M24.306,3.025C13.952,5.316,5.043,14.464,8.848,32.415C11.098,43.029,13.865,50,19.93,50
	c-6.758-7-5.965-21.761-4.043-25.435c9.793-5.827,26.537-10.24,29.086-18.459C46.26,4.208,34.756,0.713,24.306,3.025z"/>
<path fill="#BA9D52" d="M9.553,29.638c7.322-9.775,31.314-8.696,35.42-23.531C37.006,18.558,11.553,20.24,9.553,29.638z"/>
<path fill="#E3C19B" d="M11.162,52.379c2.533-1.42,14.105-5.166,14.105-5.166c3.728,3.729,9.817,3.729,13.545,0
	c0,0,11.561,3.74,14.082,5.162C56.559,54.441,57.332,62,57.332,62H6.67C6.67,62,7.486,54.434,11.162,52.379z"/>
<path fill="#D6A67A" d="M34.402,54.867c-1.352,0.887-2.402,2.9-2.402,2.9s-1.051-2.014-2.402-2.9c2.4,4.529,1.82,6.564,1.82,6.564
	h1.162C32.58,61.432,31.998,59.113,34.402,54.867z"/>
<path fill="#FFFFFF" d="M10.537,52.574c-0.083-0.834,1.417-1.875,2.104-1.271c0.54-1.125,2.354-1.18,2.4-0.559
	c0.516,6.852,3.12,9.893,0.435,11.256C10.079,60.949,6.85,52.74,10.537,52.574z"/>
<path fill="#E6EBEF" d="M12.814,51.887c-0.134,2.061,1.618,5.771,3.473,9.471C10.433,52.137,12.903,50.525,12.814,51.887z"/>
<path fill="#E6EBEF" d="M10.495,52.865c-0.271,0.605,0.354,4.543,4.833,8.566C10.953,56.615,10.812,52.16,10.495,52.865z"/>
<path fill="#FFFFFF" d="M53.463,52.574c0.083-0.834-1.417-1.875-2.104-1.271c-0.54-1.125-2.354-1.18-2.4-0.559
	c-0.516,6.852-3.12,9.893-0.435,11.256C53.921,60.949,57.15,52.74,53.463,52.574z"/>
<path fill="#E6EBEF" d="M51.186,51.887c0.134,2.061-1.618,5.771-3.473,9.471C53.567,52.137,51.097,50.525,51.186,51.887z"/>
<path fill="#E6EBEF" d="M53.505,52.865c0.271,0.605-0.354,4.543-4.833,8.566C53.047,56.615,53.188,52.16,53.505,52.865z"/>
<path fill="#F2F5F7" d="M32,60.771C24.457,53.188,14.188,57.439,14.188,62h35.625C49.813,57.439,39.543,53.188,32,60.771z"/>
<path opacity="0.8" fill="#CFD8DD" d="M32.002,2C4.438,2,7.926,26.623,7.925,26.624c6.21-6.228,14.433-10.114,24.077-10.114
	c9.643,0,17.863,3.887,24.071,10.114C56.073,26.624,59.564,2,32.002,2z"/>
<path fill="#CFD8DD" d="M55.33,31.381c2.185-30.909-48.847-30.909-46.662,0C10.571,5.421,53.427,5.421,55.33,31.381z"/>
<path fill="#FFFFFF" d="M55.33,30.381c2.185-30.909-48.847-30.909-46.662,0C10.571,4.421,53.427,4.421,55.33,30.381z"/>
<path fill="#FFFFFF" d="M19.496,26.378c1.543,4.024,7.83,3.443,8.98,0.627C27.602,22.483,20.344,22.085,19.496,26.378z"/>
<path fill="#FFFFFF" d="M44.504,26.377c-1.545,4.025-7.83,3.444-8.98,0.628C36.396,22.482,43.656,22.085,44.504,26.377z"/>
<path fill="#613F34" d="M37.127,25.957c0,3.549,5.133,3.549,5.133,0C42.26,22.664,37.127,22.664,37.127,25.957z"/>
<path fill="#7D5037" d="M37.635,27.093c0,2.035,4.117,2.035,4.117,0C41.752,25.204,37.635,25.204,37.635,27.093z"/>
<path fill="#1A1626" d="M38.629,26.014c0,1.473,2.129,1.473,2.129,0C40.758,24.646,38.629,24.646,38.629,26.014z"/>
<path fill="#AB968C" d="M37.9,25.583c0,0.744,1.076,0.744,1.076,0C38.977,24.893,37.9,24.893,37.9,25.583z"/>
<path fill="#613F34" d="M21.739,25.957c0,3.549,5.133,3.549,5.133,0C26.872,22.664,21.739,22.664,21.739,25.957z"/>
<path fill="#7D5037" d="M22.247,27.093c0,2.035,4.117,2.035,4.117,0C26.364,25.204,22.247,25.204,22.247,27.093z"/>
<path fill="#1A1626" d="M23.241,26.014c0,1.473,2.129,1.473,2.129,0C25.37,24.646,23.241,24.646,23.241,26.014z"/>
<path fill="#AB968C" d="M22.513,25.583c0,0.744,1.076,0.744,1.076,0C23.589,24.893,22.513,24.893,22.513,25.583z"/>
<path fill="#45332C" d="M20.656,23.878c-0.203-0.02-0.77-0.089-1.248-0.339c0.133,0.424,0.328,0.727,0.553,0.949
	c-0.354,0.091-0.807,0.064-1.516-0.308c0.162,0.523,0.414,0.874,0.711,1.098c-0.328,0.188-0.781,0.278-1.598,0.063
	c0.527,0.907,1.283,1.141,1.938,1.037c1.645-3.113,6.537-3.49,8.98,0.661C28.477,23.579,23.088,21.856,20.656,23.878z"/>
<path fill="#45332C" d="M44.844,25.278c0.295-0.224,0.547-0.574,0.709-1.098c-0.709,0.372-1.16,0.398-1.516,0.308
	c0.225-0.224,0.422-0.525,0.553-0.949c-0.479,0.25-1.043,0.319-1.248,0.337c-2.428-2.019-7.818-0.299-7.818,3.163
	c2.441-4.151,7.336-3.776,8.98-0.662c0.652,0.104,1.406-0.13,1.934-1.036C45.623,25.557,45.174,25.466,44.844,25.278z"/>
</svg>
