<?xml version="1.0" encoding="utf-8"?>
<!-- Generator: Adobe Illustrator 15.0.0, SVG Export Plug-In . SVG Version: 6.00 Build 0)  -->
<!DOCTYPE svg PUBLIC "-//W3C//DTD SVG 1.1//EN" "http://www.w3.org/Graphics/SVG/1.1/DTD/svg11.dtd" [
	<!ENTITY ns_flows "http://ns.adobe.com/Flows/1.0/">
	<!ENTITY ns_extend "http://ns.adobe.com/Extensibility/1.0/">
	<!ENTITY ns_ai "http://ns.adobe.com/AdobeIllustrator/10.0/">
	<!ENTITY ns_graphs "http://ns.adobe.com/Graphs/1.0/">
]>
<svg version="1.1" id="Layer_1" xmlns:x="&ns_extend;" xmlns:i="&ns_ai;" xmlns:graph="&ns_graphs;"
	 xmlns="http://www.w3.org/2000/svg" xmlns:xlink="http://www.w3.org/1999/xlink" xmlns:a="http://ns.adobe.com/AdobeSVGViewerExtensions/3.0/"
	 x="0px" y="0px" width="64px" height="64px" viewBox="0 0 64 64" enable-background="new 0 0 64 64" xml:space="preserve">
<path fill="#006DAE" d="M9.787,52.727c2.701-1.367,13.908-4.979,13.908-4.979h16.695c0,0,11.197,3.604,13.881,4.975
	C58.178,54.715,59,62,59,62H5C5,62,5.871,54.709,9.787,52.727z"/>
<path fill="#302C3B" d="M9.291,53.018c0.576-0.564,9.168-3.66,11.852-4.432C24.16,56.986,29.314,62,29.314,62H8.637L9.291,53.018z"
	/>
<path fill="#F59E01" d="M9.787,52.727c0.209-0.326,10.391-4.154,10.99-4.02C23.418,56.932,28.414,62,28.414,62H9.492L9.787,52.727z"
	/>
<path fill="#FFE12C" d="M12.779,51.438c2.43-1.059,4.631-1.719,4.631-1.719L18.941,62h-5.76L12.779,51.438z"/>
<path fill="#302C3B" d="M54.707,53.018c-0.578-0.564-9.168-3.66-11.854-4.432C39.836,56.986,34.686,62,34.686,62h20.676
	L54.707,53.018z"/>
<path fill="#F59E01" d="M54.211,52.727c-0.209-0.326-10.391-4.154-10.99-4.02C40.578,56.932,35.584,62,35.584,62h18.922
	L54.211,52.727z"/>
<path fill="#FFE12C" d="M51.221,51.438c-2.43-1.059-4.633-1.719-4.633-1.719L45.057,62h5.76L51.221,51.438z"/>
<path fill="#423225" d="M23.25,49.344c0,5.547,17.5,5.547,17.5,0c0-3.383,0-8.977,0-8.977h-17.5
	C23.25,40.367,23.25,44.975,23.25,49.344z"/>
<path fill="#423225" d="M14.9,24.236c-5.719-1.031-1.252,14.957,3.225,10.547C20.197,32.738,17.574,24.719,14.9,24.236z"/>
<path fill="#423225" d="M49.1,24.236c-2.674,0.482-5.299,8.502-3.223,10.547C50.354,39.193,54.814,23.205,49.1,24.236z"/>
<path fill="#614A36" d="M32,5.487c-11.824,0-17.521,8.945-16.807,21.384c0.143,2.504,1.693,10.666,3.158,13.594
	c1.498,2.994,6.512,7.613,9.584,8.57c1.939,0.604,6.188,0.604,8.127,0c3.072-0.957,8.086-5.576,9.586-8.57
	c1.465-2.928,3.016-11.09,3.158-13.594C49.521,14.433,43.824,5.487,32,5.487z"/>
<path fill="#36281D" d="M32,39.35c-2.66-0.783-6.6,0.369-6.6,0.369c1.5,1.635,2.6,3.756,6.6,3.756c4.582,0,5.359-2.406,6.6-3.756
	C38.6,39.719,34.656,38.563,32,39.35z"/>
<path fill="#FFFFFF" d="M26.406,39.996c2.787,2.34,8.418,2.354,11.221,0C34.656,40.123,29.398,40.125,26.406,39.996z"/>
<path fill="#423225" d="M35.666,34.951c0,2.387-7.332,2.387-7.332,0C28.334,34.404,35.666,34.404,35.666,34.951z"/>
<path fill="#26221E" d="M47.576,22.074c1.146,3.82,0.414,5.426,0.785,8.164c0.729-2.707,1.178-5.086,1.391-8.164H47.576z"/>
<path fill="#26221E" d="M16.428,22.074h-2.219c0.309,3.453,0.787,5.922,1.434,8.164C16.012,27.5,15.178,26.357,16.428,22.074z"/>
<path fill="#FFFFFF" d="M44.658,27.834c-1.58,4.135-8.008,3.529-9.186,0.635C36.367,23.818,43.791,23.422,44.658,27.834z"/>
<path fill="#FFFFFF" d="M19.34,27.834c1.58,4.135,8.01,3.529,9.186,0.635C27.631,23.816,20.209,23.42,19.34,27.834z"/>
<path fill="#36281D" d="M45.314,22.855c-2.705-1.343-7.879-1.407-9.807-0.473c-0.412,0.182-0.141,1.455,0.207,1.332
	c2.688-0.994,7.02-1.018,9.535,0.086C45.584,23.943,45.725,23.043,45.314,22.855z"/>
<path fill="#36281D" d="M18.686,22.855c2.703-1.343,7.877-1.407,9.807-0.473c0.412,0.182,0.141,1.455-0.207,1.332
	c-2.691-0.994-7.02-1.018-9.537,0.086C18.414,23.943,18.275,23.043,18.686,22.855z"/>
<path fill="#613F34" d="M37.113,27.393c0,3.629,5.25,3.629,5.25,0C42.363,24.023,37.113,24.023,37.113,27.393z"/>
<path fill="#7D5037" d="M37.633,28.555c0,2.08,4.211,2.08,4.211,0C41.844,26.623,37.633,26.623,37.633,28.555z"/>
<path fill="#1A1626" d="M38.648,27.449c0,1.508,2.18,1.508,2.18,0C40.828,26.053,38.648,26.053,38.648,27.449z"/>
<path fill="#AB968C" d="M37.904,27.01c0,0.762,1.102,0.762,1.102,0C39.006,26.305,37.904,26.305,37.904,27.01z"/>
<path fill="#613F34" d="M21.637,27.393c0,3.629,5.25,3.629,5.25,0C26.887,24.023,21.637,24.023,21.637,27.393z"/>
<path fill="#7D5037" d="M22.156,28.553c0,2.082,4.211,2.082,4.211,0C26.367,26.621,22.156,26.621,22.156,28.553z"/>
<path fill="#1A1626" d="M23.172,27.449c0,1.506,2.18,1.506,2.18,0C25.352,26.051,23.172,26.051,23.172,27.449z"/>
<path fill="#AB968C" d="M22.428,27.01c0,0.76,1.1,0.76,1.1,0C23.527,26.303,22.428,26.303,22.428,27.01z"/>
<path fill="#423225" d="M44.658,27.803c0-4.441-9.186-4.441-9.186,0.703C36.785,24.285,43.346,24.285,44.658,27.803z"/>
<path fill="#423225" d="M19.34,27.803c0-4.441,9.186-4.441,9.186,0.701C27.215,24.283,20.652,24.283,19.34,27.803z"/>
<path fill="#FFE12C" d="M51.32,23.09H12.68c0-10.431,4.834-18.54,19.32-18.54S51.32,12.659,51.32,23.09z"/>
<path fill="#F9B700" d="M40.26,18.47V5.679L32.002,3.21l-8.26,2.469V18.47c-7.758,1.016-13.209,3.418-13.209,6.224h42.934
	C53.467,21.888,48.016,19.485,40.26,18.47z"/>
<path fill="#FFE12C" d="M38.828,20.677H25.174V5.312c0-4.416,13.654-4.416,13.654,0V20.677z"/>
<path opacity="0.2" d="M51.451,25.5H12.549c0.207-0.404,0.531-0.807,0.531-0.807h37.838C50.918,24.693,51.213,25,51.451,25.5z"/>
</svg>
