<?xml version="1.0" encoding="utf-8"?>
<!-- Generator: Adobe Illustrator 19.0.0, SVG Export Plug-In . SVG Version: 6.00 Build 0)  -->
<svg version="1.1" id="Layer_1" xmlns="http://www.w3.org/2000/svg" xmlns:xlink="http://www.w3.org/1999/xlink" x="0px" y="0px"
	 width="64px" height="64px" viewBox="0 0 64 64" enable-background="new 0 0 64 64" xml:space="preserve">
<path fill="#E6EBEF" d="M51.799,51.701c-11.348-7.238-28.186-7.187-39.543,0.004C8.773,53.904,8,62,8,62h48
	C56,62,55.27,53.911,51.799,51.701z"/>
<path fill="#CFD8DD" d="M12.846,62c0.559-2.038-0.102-5.14-0.795-6.847C11.404,53.562,11.646,60.879,12.846,62"/>
<path fill="#CFD8DD" d="M51.156,62c-0.559-2.038,0.098-5.14,0.793-6.847C52.596,53.562,52.35,60.879,51.156,62"/>
<path fill="#CFD8DD" d="M31.998,53.163c2.197,0.855,3.502,1.904,2.629,8.837h1.012C36.529,55.568,34.75,53.489,31.998,53.163z"/>
<path fill="#CFD8DD" d="M32.436,54.963c0.488,0,0.887,0.421,0.887,0.941c0,0.521-0.398,0.942-0.887,0.942
	c-0.494,0-0.891-0.421-0.891-0.942C31.545,55.384,31.941,54.963,32.436,54.963"/>
<path fill="#946346" d="M25.012,48.854c0,5.745,13.977,5.745,13.977,0c0-3.506,0-9.302,0-9.302H25.012
	C25.012,39.553,25.012,44.328,25.012,48.854z"/>
<path fill="#946346" d="M15.15,26.185c-5.402-0.933-1.885,13.533,2.346,9.544C19.457,33.879,17.678,26.623,15.15,26.185z"/>
<path fill="#946346" d="M48.852,26.185c-2.527,0.438-4.307,7.693-2.346,9.544C50.736,39.718,54.252,25.253,48.852,26.185z"/>
<path fill="#B88A6F" d="M32,6.768c-11.531,0-17.086,9.392-16.391,21.464c0.141,2.43,0.816,5.93,1.65,8.93
	C18.99,43.398,28.115,49.679,32,49.679c3.885,0,13.012-6.28,14.74-12.517c0.834-3,1.51-6.5,1.652-8.93
	C49.088,16.16,43.531,6.768,32,6.768z"/>
<path fill="#84401E" d="M32,39.717c-2.803-1.231-2.824-0.049-7.152,0.241c1.625,1.843,2.82,4.216,7.152,4.216
	c4.967,0,5.807-2.693,7.152-4.216C34.824,39.668,34.805,38.485,32,39.717z"/>
<path fill="#FFFFFF" d="M26.148,40.418c2.824,2.939,8.914,2.899,11.703,0C33.504,40.886,30.498,40.886,26.148,40.418z"/>
<path fill="#946346" d="M35.576,35.503c0,2.328-7.152,2.328-7.152,0C28.424,34.97,35.576,34.97,35.576,35.503z"/>
<path fill="#423225" d="M44.793,23.823c-2.615-1.559-7.309-1.75-9.164-0.687c-0.393,0.213-0.287,1.341,0.051,1.199
	c2.65-1.103,6.684-1.158,9.17,0.117C45.183,24.622,45.191,24.051,44.793,23.823z"/>
<path fill="#423225" d="M19.207,23.823c2.617-1.559,7.307-1.75,9.166-0.687c0.393,0.213,0.287,1.341-0.053,1.199
	c-2.65-1.103-6.682-1.159-9.168,0.117C18.818,24.622,18.81,24.051,19.207,23.823z"/>
<path fill="#FFFFFF" d="M19.498,28.591c1.543,4.025,7.83,3.443,8.981,0.628C27.604,24.696,20.346,24.299,19.498,28.591z"/>
<path fill="#FFFFFF" d="M44.506,28.59c-1.545,4.025-7.83,3.444-8.98,0.629C36.398,24.696,43.658,24.298,44.506,28.59z"/>
<path fill="#613F34" d="M37.129,28.171c0,3.549,5.133,3.549,5.133,0C42.262,24.877,37.129,24.877,37.129,28.171z"/>
<path fill="#7D5037" d="M37.637,29.306c0,2.035,4.117,2.035,4.117,0C41.754,27.417,37.637,27.417,37.637,29.306z"/>
<path fill="#1A1626" d="M38.631,28.226c0,1.473,2.129,1.473,2.129,0C40.76,26.859,38.631,26.859,38.631,28.226z"/>
<path fill="#AB968C" d="M37.902,27.797c0,0.743,1.076,0.743,1.076,0C38.979,27.106,37.902,27.106,37.902,27.797z"/>
<path fill="#613F34" d="M21.741,28.171c0,3.549,5.133,3.549,5.133,0C26.874,24.877,21.741,24.877,21.741,28.171z"/>
<path fill="#7D5037" d="M22.249,29.306c0,2.035,4.117,2.035,4.117,0C26.366,27.417,22.249,27.417,22.249,29.306z"/>
<path fill="#1A1626" d="M23.243,28.226c0,1.473,2.129,1.473,2.129,0C25.372,26.859,23.243,26.859,23.243,28.226z"/>
<path fill="#AB968C" d="M22.515,27.797c0,0.743,1.076,0.743,1.076,0C23.591,27.106,22.515,27.106,22.515,27.797z"/>
<path fill="#45332C" d="M20.658,26.091c-0.203-0.019-0.77-0.088-1.248-0.339c0.133,0.424,0.328,0.727,0.553,0.95
	c-0.353,0.09-0.807,0.064-1.516-0.308c0.162,0.522,0.414,0.874,0.711,1.098c-0.328,0.187-0.781,0.278-1.598,0.063
	c0.527,0.906,1.283,1.14,1.938,1.036c1.645-3.112,6.537-3.489,8.981,0.662C28.479,25.792,23.09,24.069,20.658,26.091z"/>
<path fill="#45332C" d="M44.846,27.492c0.295-0.225,0.547-0.575,0.709-1.099c-0.709,0.372-1.16,0.398-1.516,0.308
	c0.225-0.224,0.422-0.525,0.553-0.949c-0.479,0.25-1.043,0.319-1.248,0.338c-2.428-2.02-7.818-0.3-7.818,3.163
	c2.442-4.151,7.336-3.776,8.98-0.663c0.652,0.104,1.406-0.129,1.934-1.036C45.625,27.769,45.176,27.679,44.846,27.492z"/>
<path fill="#E6EBEF" d="M51.395,11.729c0.66-0.796,0.219-1.804-1.732-3.241c0.002,0,0.004,0.001,0.008,0.001
	C46.35-2.31,3.904-1.182,10.805,23.81c-0.551,4.414,1.412,7.766,1.822,7.919c4.488-8.817,13.852-12.874,22.25-15.239
	c12.965,3.331,16.461,15.412,16.461,15.412c2.934-3.614,2.295-7.657,2.295-7.65C55.289,19.689,54.781,15.091,51.395,11.729z"/>
<path opacity="0.3" fill="#BEC3CF" d="M15.598,7.39c-4.465,3.523-6.873,8.886-4.793,16.421c-0.551,4.414,1.412,7.766,1.822,7.919
	c1.115-2.191,5.725-7.845,7.352-9.495C14.086,23.81,8.525,14.491,15.598,7.39z"/>
<path opacity="0.3" fill="#BEC3CF" d="M51.395,11.729c0.66-0.796,0.219-1.804-1.732-3.241c0.002,0,0.004,0.001,0.008,0.001
	c-0.408-1.328-1.408-2.475-2.834-3.419c3.273,2.194,6.021,14.562-1.166,17.645c3.744,3.613,5.668,9.188,5.668,9.188
	c2.934-3.614,2.295-7.657,2.295-7.65C55.289,19.689,54.781,15.091,51.395,11.729z"/>
<path fill="#BEC3CF" d="M12.627,31.729c5.561-18.902,29.572-13.957,38.768-20C44.248,19.642,24.539,13.061,12.627,31.729z"/>
<path fill="#BEC3CF" d="M53.633,24.252c-1.686-7.642-8.17-9.761-8.17-9.761l-2.082,0.6C43.381,15.091,49.273,16.211,53.633,24.252z"
	/>
<path fill="#BEC3CF" d="M51.338,31.902c-3.283-12.243-14.979-15.524-14.979-15.524l-2.08,0.6
	C34.279,16.977,46.855,20.733,51.338,31.902z"/>
<path fill="#BEC3CF" d="M10.805,23.81C15.254,1.356,43.107,4.836,49.662,8.488C41.949,6.65,18.586,3.676,10.805,23.81z"/>
</svg>
