<?xml version="1.0" encoding="utf-8"?>
<!-- Generator: Adobe Illustrator 15.0.0, SVG Export Plug-In . SVG Version: 6.00 Build 0)  -->
<!DOCTYPE svg PUBLIC "-//W3C//DTD SVG 1.1//EN" "http://www.w3.org/Graphics/SVG/1.1/DTD/svg11.dtd" [
	<!ENTITY ns_flows "http://ns.adobe.com/Flows/1.0/">
	<!ENTITY ns_extend "http://ns.adobe.com/Extensibility/1.0/">
	<!ENTITY ns_ai "http://ns.adobe.com/AdobeIllustrator/10.0/">
	<!ENTITY ns_graphs "http://ns.adobe.com/Graphs/1.0/">
]>
<svg version="1.1" id="Layer_1" xmlns:x="&ns_extend;" xmlns:i="&ns_ai;" xmlns:graph="&ns_graphs;"
	 xmlns="http://www.w3.org/2000/svg" xmlns:xlink="http://www.w3.org/1999/xlink" xmlns:a="http://ns.adobe.com/AdobeSVGViewerExtensions/3.0/"
	 x="0px" y="0px" width="64px" height="64px" viewBox="0 0 64 64" enable-background="new 0 0 64 64" xml:space="preserve">
<path fill="#30231E" d="M43.054,49.999c0-12.649-22.327-12.948-22.327,0H43.054z"/>
<path fill="#947D41" d="M19.075,13.402C10.362,50.8,11.159,49.999,29.5,49.999C19.35,42.898,38.792,12.895,19.075,13.402z"/>
<path fill="#BA9D52" d="M15.932,12.823c-6.359,28.413-0.875,35.708,3.998,37.176h5.582C12.45,40.796,32.866,12.265,15.932,12.823z"
	/>
<path fill="#947D41" d="M44.708,13.4c8.713,37.397,7.916,36.597-10.426,36.597C43.616,44.299,24.989,12.893,44.708,13.4z"/>
<path fill="#BA9D52" d="M47.849,12.821c9.295,25.851-0.02,35.979-3.998,37.176h-5.58C51.331,41.548,30.917,12.263,47.849,12.821z"/>
<path fill="#E3C19B" d="M24.983,48.868c0,5.755,14.036,5.755,14.036,0c0-3.511,0-9.315,0-9.315H24.983
	C24.983,39.553,24.983,44.336,24.983,48.868z"/>
<path fill="#D6A67A" d="M24.801,44.295c6.544,6.735,7.858,6.731,14.399-0.004L24.801,44.295z"/>
<path fill="#E3C19B" d="M31.999,4.416c-11.609,0-17.203,9.454-16.502,21.61c0.143,2.442,0.822,5.968,1.66,8.989
	c1.742,6.277,10.93,12.601,14.842,12.601c3.911,0,13.1-6.323,14.842-12.601c0.836-3.021,1.518-6.547,1.664-8.989
	C49.2,13.87,43.61,4.416,31.999,4.416z"/>
<path fill="#D46C8F" d="M31.999,37.588c-2.822-1.241-2.842-0.051-7.199,0.241c1.637,1.855,2.84,4.243,7.197,4.243
	c5.004,0,5.85-2.711,7.204-4.243C34.841,37.537,34.823,36.347,31.999,37.588z"/>
<path fill="#FFFFFF" d="M26.108,38.292c2.842,2.959,8.975,2.92,11.782,0.002C33.515,38.764,30.485,38.764,26.108,38.292z"/>
<path fill="#594640" d="M44.792,21.61c-2.615-1.56-7.309-1.75-9.164-0.687c-0.393,0.213-0.287,1.34,0.051,1.198
	c2.65-1.102,6.684-1.157,9.17,0.118C45.183,22.408,45.19,21.837,44.792,21.61z"/>
<path fill="#594640" d="M19.206,21.61c2.617-1.56,7.307-1.75,9.166-0.687c0.393,0.213,0.287,1.34-0.053,1.198
	c-2.65-1.102-6.682-1.158-9.168,0.118C18.817,22.408,18.809,21.837,19.206,21.61z"/>
<path fill="#D6A67A" d="M35.599,33.345c0,2.344-7.2,2.344-7.2,0C28.399,32.808,35.599,32.808,35.599,33.345z"/>
<path fill="#EFDE8B" d="M44.974,6.106c-8.141,8.34-0.373,8.88,4.424,20.606c2.689,6.571,0.027,20.058-5.547,23.286
	c6.178,0,9.941-8.551,11.775-20.311C57.917,14.994,49.108,4.878,44.974,6.106z"/>
<path fill="#EFDE8B" d="M24.989,2.911C14.667,5.341,5.043,14.464,8.848,32.415c2.25,10.613,5.018,17.584,11.082,17.584
	c-6.758-6.999-5.965-21.76-4.043-25.434c9.793-5.827,26.538-10.24,29.086-18.459C46.261,4.208,35.319,0.205,24.989,2.911z"/>
<path fill="#BA9D52" d="M9.553,29.638c7.322-9.775,31.315-8.696,35.42-23.531C37.007,18.558,11.553,20.24,9.553,29.638z"/>
<path fill="#FFFFFF" d="M19.497,26.378c1.543,4.024,7.83,3.443,8.98,0.627C27.602,22.483,20.344,22.085,19.497,26.378z"/>
<path fill="#FFFFFF" d="M44.505,26.377c-1.545,4.025-7.83,3.444-8.98,0.628C36.397,22.482,43.657,22.085,44.505,26.377z"/>
<path fill="#E3C19B" d="M11.163,52.379c2.533-1.42,14.105-5.167,14.105-5.167c3.728,3.729,9.818,3.729,13.545,0
	c0,0,11.561,3.74,14.082,5.163C56.56,54.44,57.333,62,57.333,62H6.67C6.67,62,7.487,54.434,11.163,52.379z"/>
<path fill="#D6A67A" d="M34.403,54.867C33.052,55.754,32,57.767,32,57.767s-1.051-2.013-2.402-2.899
	c2.4,4.529,1.82,6.564,1.82,6.564h1.162C32.581,61.432,31.999,59.112,34.403,54.867z"/>
<path fill="#018BC9" d="M48.124,59.05c-0.818-0.42-8.578-5.862-16.124,1.721c-7.543-7.583-15.305-2.141-16.121-1.721
	C14.87,59.57,14.188,62,14.188,62H32l0,0h17.813C49.813,62,49.132,59.57,48.124,59.05z"/>
<path fill="#75D6FF" d="M16.463,62H5.741c-3.309-5.232,5.291-13.854,9.531-11.342C15.37,55.682,16.463,62,16.463,62z"/>
<path fill="#54BFED" d="M16.098,56.327c0.123-6.291-8.902-2.136-4.27-1.861C16.463,54.741,15.702,57.113,16.098,56.327z"/>
<path fill="#54BFED" d="M16.709,59.548c-1.504-4.348-9.473,1.663-4.947,0.534C14.643,59.363,16.313,60.334,16.709,59.548z"/>
<path fill="#018BC9" d="M15.272,50.658c1.252-1.1,2.389-0.878,2.389-0.878L18.448,62h-2.971L15.272,50.658z"/>
<path fill="#75D6FF" d="M47.538,62h10.721c3.311-5.232-5.289-13.854-9.529-11.342C48.63,55.682,47.538,62,47.538,62z"/>
<path fill="#54BFED" d="M47.901,56.327c-0.121-6.291,8.902-2.136,4.27-1.861C47.538,54.741,48.3,57.113,47.901,56.327z"/>
<path fill="#54BFED" d="M47.29,59.548c1.504-4.348,9.475,1.663,4.949,0.534C49.358,59.363,47.687,60.334,47.29,59.548z"/>
<path fill="#018BC9" d="M48.729,50.658c-1.252-1.1-2.389-0.878-2.389-0.878L45.552,62h2.973L48.729,50.658z"/>
<path fill="#F5F5F5" d="M29.875,12.872L29.875,12.872c-1.172,0-2.432-0.855-2.432-2.731c0-2.211,1.533-3.478,2.766-4.493
	c0.695-0.578,1.354-1.121,1.354-1.583c0-0.259,0.197-0.462,0.438-0.462c0.246,0,0.441,0.203,0.441,0.462
	c0,0.462,0.659,1.005,1.356,1.583c1.23,1.016,2.764,2.282,2.764,4.493c0,1.877-1.26,2.731-2.432,2.731
	c-0.801,0-1.633-0.402-2.125-1.17c-0.121,0.188-0.252,0.34-0.375,0.459C31.162,12.612,30.525,12.872,29.875,12.872z M32.441,10.101
	c0,1.211,0.848,1.848,1.688,1.848c0.715,0,1.553-0.475,1.553-1.808c0-1.761-1.287-2.826-2.426-3.765
	C32.765,5.972,32.314,5.596,32,5.197c-0.311,0.398-0.762,0.774-1.252,1.179c-1.137,0.938-2.426,2.004-2.426,3.765
	c0,1.333,0.838,1.808,1.553,1.808l0,0c0.432,0,0.855-0.171,1.16-0.467c0.346-0.335,0.527-0.814,0.527-1.381
	c0-0.257,0.197-0.464,0.438-0.464C32.246,9.637,32.441,9.844,32.441,10.101z"/>
<path fill="#F5F5F5" d="M50.174,14.998c0.676,0.283-0.295,1.864-0.973,1.58c-7.863-3.291-26.565-3.278-34.399,0
	c-0.678,0.283-1.648-1.297-0.973-1.58C22.623,11.317,41.381,11.317,50.174,14.998z"/>
<path fill="#F5F5F5" d="M31.074,4.6c0,0.998-1.5,0.998-1.5,0C29.574,3.598,31.074,3.598,31.074,4.6z"/>
<path fill="#F5F5F5" d="M16.803,14.583c-1.838-1.757-0.322-3.869,2.136-4.085l0.122,0.904c-2.071,0.185-2.771,1.485-1.662,2.532
	L16.803,14.583z"/>
<path fill="#F5F5F5" d="M26.703,13.605c-3.717-4.136-3.559-6.745-3.137-7.932c0.42-1.167,1.43-1.936,2.703-2.058
	c1.666-0.156,3.367,0.831,4.332,2.523l-0.754,0.475c-0.791-1.387-2.164-2.202-3.502-2.074c-0.941,0.089-1.654,0.622-1.957,1.461
	c-0.6,1.675,0.475,4.214,2.951,6.967L26.703,13.605z"/>
<path fill="#F5F5F5" d="M19.638,13.813c-1.438-1.937-1.09-3.46-0.754-4.195c0.525-1.154,1.688-1.905,2.967-1.921
	c0.01,0,0.023,0,0.035,0c1.367,0,2.547,0.828,3.242,2.277l-0.781,0.418c-0.547-1.136-1.451-1.776-2.488-1.771
	c-0.947,0.013-1.801,0.56-2.184,1.396c-0.426,0.937-0.193,2.082,0.652,3.226L19.638,13.813z"/>
<path fill="#F5F5F5" d="M18.759,9.987c0,0.998-1.5,0.998-1.5,0C17.259,8.985,18.759,8.985,18.759,9.987z"/>
<path fill="#F5F5F5" d="M23.464,7.107c0,0.998-1.5,0.998-1.5,0C21.964,6.105,23.464,6.105,23.464,7.107z"/>
<path fill="#F5F5F5" d="M32.929,4.6c0,0.998,1.5,0.998,1.5,0C34.43,3.598,32.929,3.598,32.929,4.6z"/>
<path fill="#F5F5F5" d="M47.2,14.583c1.838-1.757,0.322-3.869-2.136-4.085l-0.122,0.904c2.071,0.185,2.771,1.485,1.662,2.532
	L47.2,14.583z"/>
<path fill="#F5F5F5" d="M37.301,13.605c3.717-4.136,3.559-6.745,3.137-7.932c-0.42-1.167-1.43-1.936-2.703-2.058
	c-1.666-0.156-3.367,0.831-4.332,2.523l0.754,0.475c0.791-1.387,2.164-2.202,3.502-2.074c0.941,0.089,1.654,0.622,1.957,1.461
	c0.6,1.675-0.475,4.214-2.951,6.967L37.301,13.605z"/>
<path fill="#F5F5F5" d="M44.365,13.813c1.438-1.937,1.09-3.46,0.754-4.195c-0.525-1.154-1.688-1.905-2.967-1.921
	c-0.01,0-0.023,0-0.035,0c-1.367,0-2.547,0.828-3.242,2.277l0.781,0.418c0.547-1.136,1.451-1.776,2.488-1.771
	c0.947,0.013,1.801,0.56,2.184,1.396c0.426,0.937,0.193,2.082-0.652,3.226L44.365,13.813z"/>
<path fill="#F5F5F5" d="M45.244,9.987c0,0.998,1.5,0.998,1.5,0C46.744,8.985,45.244,8.985,45.244,9.987z"/>
<path fill="#F5F5F5" d="M40.539,7.107c0,0.998,1.5,0.998,1.5,0C42.039,6.105,40.539,6.105,40.539,7.107z"/>
<path fill="#1CCAFF" d="M33.792,8.469c0,3.977-3.581,3.977-3.581,0S33.792,4.492,33.792,8.469z"/>
<path fill="#00B9F2" d="M33.197,6.196c0.169,0.444,0.277,0.992,0.277,1.664c0,2.95-1.968,3.706-2.986,2.279
	c0.836,2.189,3.303,1.642,3.303-1.665C33.792,7.449,33.55,6.693,33.197,6.196z"/>
<path fill-rule="evenodd" clip-rule="evenodd" fill="#73EFFF" d="M30.693,7.525c0.049,0.537,0.71-0.513,1.385-1.417
	C32.51,5.526,30.538,5.91,30.693,7.525z"/>
<path fill="#1CCAFF" d="M23.156,10.158c1.667,2.888-0.932,4.388-2.599,1.5C18.891,8.772,21.49,7.272,23.156,10.158z"/>
<path fill="#00B9F2" d="M21.772,8.758c0.309,0.252,0.617,0.604,0.898,1.091c1.236,2.143,0.125,3.517-1.211,2.906
	c1.524,1.24,3.084-0.192,1.699-2.592C22.728,9.418,22.237,8.971,21.772,8.758z"/>
<path fill-rule="evenodd" clip-rule="evenodd" fill="#73EFFF" d="M20.511,10.772c0.262,0.369,0.301-0.67,0.411-1.609
	C20.994,8.56,19.721,9.665,20.511,10.772z"/>
<path fill="#1CCAFF" d="M43.446,11.657c-1.668,2.889-4.267,1.388-2.599-1.5C42.514,7.271,45.112,8.772,43.446,11.657z"/>
<path fill="#00B9F2" d="M43.967,9.759c-0.063,0.394-0.215,0.837-0.496,1.324c-1.236,2.142-2.981,1.866-3.122,0.404
	c-0.312,1.939,1.709,2.575,3.095,0.176C43.873,10.918,44.015,10.269,43.967,9.759z"/>
<path fill-rule="evenodd" clip-rule="evenodd" fill="#73EFFF" d="M41.591,9.675c-0.188,0.411,0.731-0.075,1.6-0.448
	C43.749,8.986,42.156,8.437,41.591,9.675z"/>
<path fill="#613F34" d="M37.128,25.957c0,3.549,5.133,3.549,5.133,0C42.261,22.664,37.128,22.664,37.128,25.957z"/>
<path fill="#7D5037" d="M37.636,27.093c0,2.035,4.117,2.035,4.117,0C41.753,25.204,37.636,25.204,37.636,27.093z"/>
<path fill="#1A1626" d="M38.63,26.014c0,1.473,2.129,1.473,2.129,0C40.759,24.646,38.63,24.646,38.63,26.014z"/>
<path fill="#AB968C" d="M37.901,25.583c0,0.744,1.076,0.744,1.076,0C38.978,24.893,37.901,24.893,37.901,25.583z"/>
<path fill="#613F34" d="M21.74,25.957c0,3.549,5.133,3.549,5.133,0C26.873,22.664,21.74,22.664,21.74,25.957z"/>
<path fill="#7D5037" d="M22.248,27.093c0,2.035,4.117,2.035,4.117,0C26.365,25.204,22.248,25.204,22.248,27.093z"/>
<path fill="#1A1626" d="M23.242,26.014c0,1.473,2.129,1.473,2.129,0C25.371,24.646,23.242,24.646,23.242,26.014z"/>
<path fill="#AB968C" d="M22.513,25.583c0,0.744,1.076,0.744,1.076,0C23.589,24.893,22.513,24.893,22.513,25.583z"/>
<path fill="#45332C" d="M20.657,23.878c-0.203-0.02-0.77-0.089-1.248-0.339c0.133,0.424,0.328,0.727,0.553,0.949
	c-0.354,0.091-0.807,0.064-1.516-0.308c0.162,0.523,0.414,0.874,0.711,1.098c-0.328,0.188-0.781,0.278-1.598,0.063
	c0.527,0.907,1.283,1.141,1.938,1.037c1.645-3.113,6.537-3.49,8.98,0.661C28.477,23.579,23.088,21.856,20.657,23.878z"/>
<path fill="#45332C" d="M44.845,25.278c0.295-0.224,0.547-0.574,0.709-1.098c-0.709,0.372-1.16,0.398-1.516,0.308
	c0.225-0.224,0.422-0.525,0.553-0.949c-0.479,0.25-1.043,0.319-1.248,0.337c-2.428-2.019-7.818-0.299-7.818,3.163
	c2.441-4.151,7.336-3.776,8.98-0.662c0.652,0.104,1.406-0.13,1.934-1.036C45.624,25.557,45.175,25.466,44.845,25.278z"/>
</svg>
