<?xml version="1.0" encoding="utf-8"?>
<!-- Generator: Adobe Illustrator 15.0.0, SVG Export Plug-In . SVG Version: 6.00 Build 0)  -->
<!DOCTYPE svg PUBLIC "-//W3C//DTD SVG 1.1//EN" "http://www.w3.org/Graphics/SVG/1.1/DTD/svg11.dtd" [
	<!ENTITY ns_flows "http://ns.adobe.com/Flows/1.0/">
	<!ENTITY ns_extend "http://ns.adobe.com/Extensibility/1.0/">
	<!ENTITY ns_ai "http://ns.adobe.com/AdobeIllustrator/10.0/">
	<!ENTITY ns_graphs "http://ns.adobe.com/Graphs/1.0/">
]>
<svg version="1.1" id="Layer_1" xmlns:x="&ns_extend;" xmlns:i="&ns_ai;" xmlns:graph="&ns_graphs;"
	 xmlns="http://www.w3.org/2000/svg" xmlns:xlink="http://www.w3.org/1999/xlink" xmlns:a="http://ns.adobe.com/AdobeSVGViewerExtensions/3.0/"
	 x="0px" y="0px" width="64px" height="64px" viewBox="0 0 64 64" enable-background="new 0 0 64 64" xml:space="preserve">
<path fill="#E6EBEF" d="M27.562,40.43c4.162-5.434,14.952,1.21,22.614,1.534c16.566,0.701,12.989,8.646,5.771,6.733
	c4.8,9.467-5.623,4.19-5.623,4.19c5.992,9.367-3.805,4.038-3.805,4.038c4.355,8.782-4.246,1.278-4.246,1.278
	c2.323,6.619-3.815,1.378-3.815,1.378c0.736,6.024-4.378-0.728-7.246-2.478L27.562,40.43z"/>
<path fill="#B3C2C6" d="M41.587,46.425c-1.882-1.1,12.573,3.867,20.041,1.216C58.638,51.681,43.543,47.568,41.587,46.425z"/>
<path fill="#B3C2C6" d="M38.859,48.92c-1.532-1.262,11.252,4.304,16.928,5.394C53.731,55.269,40.418,50.202,38.859,48.92z"/>
<path fill="#B3C2C6" d="M36.929,51.311c-1.335-1.544,3.736,3.037,13.889,7.12C47.207,58.429,38.083,52.646,36.929,51.311z"/>
<path fill="#B3C2C6" d="M35.495,52.812c2.151,1.525,4.838,4.305,11.577,8.375C43.594,60.929,34.411,52.042,35.495,52.812z"/>
<path fill="#B3C2C6" d="M33.614,54.934c1.213,0.995,2.91,3.21,7.768,6.495C38.529,60.677,32.559,54.068,33.614,54.934z"/>
<path fill="#E6EBEF" d="M36.439,40.43c-4.162-5.434-14.953,1.21-22.615,1.534c-16.566,0.701-12.989,8.646-5.771,6.733
	c-4.799,9.467,5.624,4.19,5.624,4.19c-5.993,9.367,3.804,4.038,3.804,4.038c-4.355,8.782,4.246,1.278,4.246,1.278
	c-2.323,6.619,3.815,1.378,3.815,1.378c-0.736,6.024,4.378-0.728,7.246-2.478L36.439,40.43z"/>
<path fill="#B3C2C6" d="M22.413,46.425c1.882-1.1-12.573,3.867-20.041,1.216C5.361,51.681,20.457,47.568,22.413,46.425z"/>
<path fill="#B3C2C6" d="M25.141,48.92c1.532-1.262-11.252,4.304-16.928,5.394C10.269,55.269,23.583,50.202,25.141,48.92z"/>
<path fill="#B3C2C6" d="M27.071,51.311c1.335-1.544-3.736,3.037-13.889,7.12C16.793,58.429,25.917,52.646,27.071,51.311z"/>
<path fill="#B3C2C6" d="M28.505,52.812c-2.149,1.525-4.838,4.305-11.576,8.375C20.406,60.929,29.589,52.042,28.505,52.812z"/>
<path fill="#B3C2C6" d="M30.387,54.934c-1.214,0.995-2.911,3.21-7.769,6.495C25.471,60.677,31.441,54.068,30.387,54.934z"/>
<path fill="#E6B045" d="M9.201,30.829c-7.312-1.11-1.6,16.12,4.12,11.368C15.976,39.992,12.618,31.349,9.201,30.829z"/>
<path fill="#E6B045" d="M54.8,30.829c-3.422,0.521-6.778,9.164-4.122,11.368C56.4,46.948,62.105,29.718,54.8,30.829z"/>
<path fill="#FFCC66" d="M31.998,7.267c-15.77,0-23.767,9.25-22.647,25.204c0.192,2.749,2.285,10.853,4.256,14.069
	c7.962,12.969,28.82,12.969,36.783,0c1.975-3.216,4.063-11.32,4.254-14.069C55.767,16.518,47.767,7.267,31.998,7.267z"/>
<path fill="#E6B045" d="M36.373,40.34c0,2.847-8.751,2.847-8.751,0C27.622,39.686,36.373,39.686,36.373,40.34z"/>
<path fill="#FFFFFF" d="M48.619,34.685c-2.075,5.428-10.515,4.633-12.062,0.833C37.73,29.413,47.479,28.89,48.619,34.685z"/>
<path fill="#FFFFFF" d="M15.375,34.685c2.076,5.428,10.518,4.633,12.062,0.833C26.265,29.409,16.519,28.888,15.375,34.685z"/>
<path fill="#E6B045" d="M48.348,27.223c-2.923-1.762-8.519-1.848-10.604-0.618c-0.448,0.237-0.153,1.908,0.222,1.748
	c2.909-1.308,7.599-1.338,10.317,0.113C48.642,28.651,48.793,27.47,48.348,27.223z"/>
<path fill="#E6B045" d="M15.65,27.223c2.922-1.762,8.517-1.848,10.602-0.618c0.45,0.237,0.153,1.908-0.22,1.748
	c-2.91-1.308-7.599-1.338-10.317,0.113C15.356,28.651,15.203,27.47,15.65,27.223z"/>
<path fill="#613F34" d="M38.714,34.104c0,4.767,6.894,4.767,6.894,0C45.607,29.682,38.714,29.682,38.714,34.104z"/>
<path fill="#7D5037" d="M39.392,35.63c0,2.732,5.532,2.732,5.532,0C44.924,33.093,39.392,33.093,39.392,35.63z"/>
<path fill="#1A1626" d="M40.728,34.179c0,1.979,2.862,1.979,2.862,0C43.59,32.346,40.728,32.346,40.728,34.179z"/>
<path fill="#AB968C" d="M39.752,33.604c0,0.998,1.445,0.998,1.445,0C41.197,32.677,39.752,32.677,39.752,33.604z"/>
<path fill="#613F34" d="M18.389,34.104c0,4.766,6.896,4.766,6.896,0C25.284,29.681,18.389,29.681,18.389,34.104z"/>
<path fill="#7D5037" d="M19.071,35.63c0,2.73,5.533,2.73,5.533,0C24.604,33.093,19.071,33.093,19.071,35.63z"/>
<path fill="#1A1626" d="M20.408,34.179c0,1.979,2.858,1.979,2.858,0C23.267,32.344,20.408,32.344,20.408,34.179z"/>
<path fill="#AB968C" d="M19.43,33.602c0,1,1.444,1,1.444,0C20.874,32.675,19.43,32.675,19.43,33.602z"/>
<path fill="#E6B045" d="M48.619,34.644c0-5.831-12.062-5.831-12.062,0.922C38.282,30.027,46.896,30.027,48.619,34.644z"/>
<path fill="#E6B045" d="M15.375,34.644c0-5.831,12.062-5.831,12.062,0.92C25.713,30.023,17.099,30.023,15.375,34.644z"/>
<path fill="#A17B31" d="M24.126,45.718c3.443,5.814,12.276,5.851,15.744,0C35.755,47.376,28.268,47.386,24.126,45.718z"/>
<linearGradient id="SVGID_1_" gradientUnits="userSpaceOnUse" x1="32.0005" y1="15.9653" x2="32.0005" y2="1.9653">
	<stop  offset="0.4121" style="stop-color:#00D0FF"/>
	<stop  offset="0.9879" style="stop-color:#0174C7"/>
	<a:midPointStop  offset="0.4121" style="stop-color:#00D0FF"/>
	<a:midPointStop  offset="0.5" style="stop-color:#00D0FF"/>
	<a:midPointStop  offset="0.9879" style="stop-color:#0174C7"/>
</linearGradient>
<path fill="url(#SVGID_1_)" d="M32,1.965c-13.888,0-21,3.134-21,7s7.112,7,21,7c13.89,0,21-3.135,21-7S45.89,1.965,32,1.965z
	 M18.438,7.314c0-3.113,27.126-3.113,27.126,0C45.564,10.425,18.438,10.425,18.438,7.314z"/>
</svg>
