<?xml version="1.0" encoding="utf-8"?>
<!-- Generator: Adobe Illustrator 15.0.0, SVG Export Plug-In . SVG Version: 6.00 Build 0)  -->
<!DOCTYPE svg PUBLIC "-//W3C//DTD SVG 1.1//EN" "http://www.w3.org/Graphics/SVG/1.1/DTD/svg11.dtd" [
	<!ENTITY ns_flows "http://ns.adobe.com/Flows/1.0/">
	<!ENTITY ns_extend "http://ns.adobe.com/Extensibility/1.0/">
	<!ENTITY ns_ai "http://ns.adobe.com/AdobeIllustrator/10.0/">
	<!ENTITY ns_graphs "http://ns.adobe.com/Graphs/1.0/">
]>
<svg version="1.1" id="Layer_1" xmlns:x="&ns_extend;" xmlns:i="&ns_ai;" xmlns:graph="&ns_graphs;"
	 xmlns="http://www.w3.org/2000/svg" xmlns:xlink="http://www.w3.org/1999/xlink" xmlns:a="http://ns.adobe.com/AdobeSVGViewerExtensions/3.0/"
	 x="0px" y="0px" width="64px" height="64px" viewBox="0 0 64 64" enable-background="new 0 0 64 64" xml:space="preserve">
<path fill="#E6B045" d="M8.682,27.565c-7.797-1.406-1.707,20.396,4.397,14.383C15.906,39.161,12.329,28.225,8.682,27.565z"/>
<path fill="#E6B045" d="M55.319,27.565c-3.647,0.659-7.226,11.596-4.396,14.383C57.029,47.962,63.112,26.159,55.319,27.565z"/>
<path fill="#FFCC66" d="M32,2C15.877,2,8.108,14.198,9.082,31.16c0.195,3.414,2.309,14.543,4.307,18.537
	c2.044,4.084,8.879,10.383,13.068,11.686c2.646,0.824,8.439,0.824,11.084,0c4.189-1.303,11.026-7.602,13.07-11.686
	c1.999-3.993,4.112-15.123,4.307-18.537C55.894,14.198,48.125,2,32,2z"/>
<path fill="#99A8AE" d="M49.594,9.855c4.169,5.277,1.747,10.61,3.796,15.812c1.547,3.927,0.585,6.114,1.093,9.893
	c0.952-7.579,4.592-8.03,3.092-15.48C56.396,14.229,49.594,9.855,49.594,9.855z"/>
<path fill="#99A8AE" d="M14.406,9.855c-4.169,5.277-1.747,10.61-3.796,15.812c-1.547,3.927-0.585,6.114-1.093,9.893
	c-0.952-7.579-4.592-8.03-3.092-15.48C7.604,14.229,14.406,9.855,14.406,9.855z"/>
<path fill="#E6B045" d="M37.055,34.798C39.051,38.57,47,39.882,47,39.882S38.505,36.808,37.055,34.798z"/>
<path fill="#E6B045" d="M17,39.882c0,0,7.921-1.274,9.945-5.084C25.494,36.808,17,39.882,17,39.882z"/>
<path fill="#E6B045" d="M45,17.409c-6.016-3.981-19.904-4.019-26,0C25.784,14.042,38.221,14.042,45,17.409z"/>
<path fill="#E6B045" d="M49,22.993c-7.867-4.645-26.028-4.688-34,0C23.368,19.286,40.637,19.287,49,22.993z"/>
<path fill="#A17B31" d="M22.251,49.14c4.276,3.987,15.238,4.012,19.547,0C36.69,50.276,27.395,50.284,22.251,49.14z"/>
<path fill="#99A8AE" d="M50.156,26.684c-3.688-1.83-10.744-1.919-13.373-0.644c-0.563,0.247-0.191,1.982,0.283,1.816
	c3.664-1.357,9.572-1.39,13.002,0.117C50.524,28.167,50.715,26.939,50.156,26.684z"/>
<path fill="#99A8AE" d="M13.844,26.684c3.688-1.83,10.742-1.919,13.373-0.644c0.563,0.247,0.191,1.982-0.281,1.816
	c-3.67-1.357-9.573-1.39-13.005,0.117C13.475,28.167,13.286,26.939,13.844,26.684z"/>
<path fill="#FFFFFF" d="M49.001,34.108c-1.281,3.893-11.244,2.348-12,0.193C38.169,27.253,47.866,27.419,49.001,34.108z"/>
<path fill="#613F34" d="M38.921,32.521c0,4.949,7.158,4.949,7.158,0C46.079,27.927,38.921,27.927,38.921,32.521z"/>
<path fill="#7D5037" d="M39.628,34.104c0,2.838,5.744,2.838,5.744,0C45.372,31.47,39.628,31.47,39.628,34.104z"/>
<path fill="#1A1626" d="M41.015,32.599c0,2.055,2.971,2.055,2.971,0C43.985,30.693,41.015,30.693,41.015,32.599z"/>
<path fill="#AB968C" d="M40.001,32c0,1.037,1.5,1.037,1.5,0C41.501,31.037,40.001,31.037,40.001,32z"/>
<path fill="#E6B045" d="M49.001,34.062c0-6.734-12-7.503-12,0.295C38.714,27.958,47.286,28.728,49.001,34.062z"/>
<path fill="#FFFFFF" d="M14.999,34.108c1.283,3.893,11.246,2.348,12,0.193C25.833,27.253,16.136,27.419,14.999,34.108z"/>
<path fill="#613F34" d="M17.919,32.521c0,4.949,7.158,4.949,7.158,0C25.077,27.927,17.919,27.927,17.919,32.521z"/>
<path fill="#7D5037" d="M18.626,34.104c0,2.838,5.744,2.838,5.744,0C24.37,31.47,18.626,31.47,18.626,34.104z"/>
<path fill="#1A1626" d="M20.013,32.599c0,2.055,2.971,2.055,2.971,0C22.983,30.693,20.013,30.693,20.013,32.599z"/>
<path fill="#AB968C" d="M18.999,32c0,1.037,1.5,1.037,1.5,0C20.499,31.037,18.999,31.037,18.999,32z"/>
<path fill="#E6B045" d="M14.999,34.062c0-6.732,12-7.503,12,0.293C25.286,27.958,16.714,28.728,14.999,34.062z"/>
<path fill="#E6B045" d="M36.999,43.179c0,3.254-9.998,3.254-9.998,0C27.001,42.432,36.999,42.432,36.999,43.179z"/>
<path fill="#E6B045" d="M26.502,43.521c-2.993,3.21-6.209,5.218-4.975,9.767C21.659,48.97,24.397,48.155,26.502,43.521z"/>
<path fill="#E6B045" d="M42.473,53.286c1.223-4.501-1.953-6.523-4.976-9.765C39.603,48.16,42.337,48.969,42.473,53.286z"/>
</svg>
