<?xml version="1.0" encoding="utf-8"?>
<!-- Generator: Adobe Illustrator 15.0.0, SVG Export Plug-In . SVG Version: 6.00 Build 0)  -->
<!DOCTYPE svg PUBLIC "-//W3C//DTD SVG 1.1//EN" "http://www.w3.org/Graphics/SVG/1.1/DTD/svg11.dtd" [
	<!ENTITY ns_flows "http://ns.adobe.com/Flows/1.0/">
	<!ENTITY ns_extend "http://ns.adobe.com/Extensibility/1.0/">
	<!ENTITY ns_ai "http://ns.adobe.com/AdobeIllustrator/10.0/">
	<!ENTITY ns_graphs "http://ns.adobe.com/Graphs/1.0/">
]>
<svg version="1.1" id="Layer_1" xmlns:x="&ns_extend;" xmlns:i="&ns_ai;" xmlns:graph="&ns_graphs;"
	 xmlns="http://www.w3.org/2000/svg" xmlns:xlink="http://www.w3.org/1999/xlink" xmlns:a="http://ns.adobe.com/AdobeSVGViewerExtensions/3.0/"
	 x="0px" y="0px" width="64px" height="64px" viewBox="0 0 64 64" enable-background="new 0 0 64 64" xml:space="preserve">
<path fill="#423225" d="M8.682,27.566c-7.797-1.406-1.707,20.397,4.396,14.383C15.907,39.162,12.329,28.225,8.682,27.566z"/>
<path fill="#423225" d="M55.319,27.566c-3.648,0.659-7.227,11.596-4.396,14.383C57.028,47.963,63.112,26.16,55.319,27.566z"/>
<path fill="#614A36" d="M31.999,3.001C15.875,3.001,8.108,14.2,9.081,31.16c0.195,3.414,2.309,14.545,4.307,18.536
	c2.045,4.085,8.879,10.384,13.068,11.687c2.646,0.823,8.44,0.823,11.084,0c4.189-1.303,11.027-7.602,13.07-11.687
	c2-3.991,4.113-15.122,4.307-18.536C55.892,14.2,48.124,3.001,31.999,3.001z"/>
<path fill="#36281D" d="M31.999,48.176c-3.627-1.066-9,0.506-9,0.506c2.047,2.229,3.547,5.121,9,5.121c6.249,0,7.311-3.283,9-5.121
	C40.999,48.682,35.622,47.104,31.999,48.176z"/>
<path fill="#FFFFFF" d="M24.372,49.059c3.801,3.189,11.481,3.209,15.301,0C35.622,49.232,28.452,49.234,24.372,49.059z"/>
<path fill="#423225" d="M36.999,42.18c0,3.254-9.999,3.254-9.999,0C27,41.433,36.999,41.433,36.999,42.18z"/>
<path fill="#FFD68C" d="M31.999,2C20.907,2,14.206,5.664,11.315,4.257c0,0-0.314,1.892,0.818,3.124c0,0-1.195,1.033-3.125-0.71
	c-1.838,5.968,3.617,9.426,22.99,9.426c19.374,0,14.745-4.718,24.27,3.567C55.335,9.452,48.845,2,31.999,2z"/>
<path fill="#C49A45" d="M40.202,10.904c-10.667,3.937-14.567-3.166-24.627-3.852c4.785,2.26,7.123,5.738,11.053,8.249
	c-8.555-2.865-14.832-7.79-15.309-11.025c0,0-1.428,4.724,4.217,8.254c-5.396,0.5-6.523-5.841-6.523-5.841
	C6.28,11.08,6.657,25.242,9.694,35.752c0.506-3.75-0.648-5.301,1.086-9.82c5.188-13.506,1.85-7.835,21.221-7.835
	c19.374,0,15.875-5.171,21.221,7.835c1.594,3.877,0.58,6.07,1.088,9.82C60.679,12.056,51.519,6.727,40.202,10.904z"/>
<path fill="#FFFFFF" d="M49.261,32.472c-2.154,5.64-10.918,4.814-12.525,0.867C37.954,26.999,48.077,26.456,49.261,32.472z"/>
<path fill="#FFFFFF" d="M14.735,32.472c2.154,5.64,10.922,4.814,12.525,0.867C26.042,26.996,15.922,26.454,14.735,32.472z"/>
<path fill="#36281D" d="M50.155,25.684c-3.688-1.83-10.744-1.919-13.373-0.644c-0.563,0.247-0.191,1.982,0.283,1.816
	c3.664-1.357,9.572-1.39,13.002,0.117C50.524,27.167,50.714,25.94,50.155,25.684z"/>
<path fill="#36281D" d="M13.842,25.684c3.688-1.83,10.742-1.919,13.373-0.644c0.563,0.247,0.191,1.982-0.281,1.816
	c-3.67-1.357-9.572-1.39-13.004,0.117C13.473,27.167,13.286,25.94,13.842,25.684z"/>
<path fill="#613F34" d="M38.972,31.872c0,4.95,7.16,4.95,7.16,0C46.132,27.278,38.972,27.278,38.972,31.872z"/>
<path fill="#7D5037" d="M39.681,33.456c0,2.838,5.742,2.838,5.742,0C45.423,30.821,39.681,30.821,39.681,33.456z"/>
<path fill="#1A1626" d="M41.065,31.95c0,2.055,2.973,2.055,2.973,0C44.038,30.043,41.065,30.043,41.065,31.95z"/>
<path fill="#AB968C" d="M40.052,31.35c0,1.037,1.5,1.037,1.5,0C41.552,30.387,40.052,30.387,40.052,31.35z"/>
<path fill="#613F34" d="M17.868,31.871c0,4.95,7.158,4.95,7.158,0C25.026,27.277,17.868,27.277,17.868,31.871z"/>
<path fill="#7D5037" d="M18.575,33.454c0,2.838,5.744,2.838,5.744,0C24.319,30.82,18.575,30.82,18.575,33.454z"/>
<path fill="#1A1626" d="M19.961,31.949c0,2.054,2.971,2.054,2.971,0C22.932,30.042,19.961,30.042,19.961,31.949z"/>
<path fill="#AB968C" d="M18.946,31.348c0,1.038,1.5,1.038,1.5,0C20.446,30.385,18.946,30.385,18.946,31.348z"/>
<path fill="#423225" d="M49.261,32.43c0-6.056-12.525-6.056-12.525,0.959C38.524,27.634,47.472,27.634,49.261,32.43z"/>
<path fill="#423225" d="M14.735,32.43c0-6.056,12.525-6.056,12.525,0.958C25.473,27.63,16.524,27.63,14.735,32.43z"/>
</svg>
