<?xml version="1.0" encoding="utf-8"?>
<!-- Generator: Adobe Illustrator 15.0.0, SVG Export Plug-In . SVG Version: 6.00 Build 0)  -->
<!DOCTYPE svg PUBLIC "-//W3C//DTD SVG 1.1//EN" "http://www.w3.org/Graphics/SVG/1.1/DTD/svg11.dtd" [
	<!ENTITY ns_flows "http://ns.adobe.com/Flows/1.0/">
	<!ENTITY ns_extend "http://ns.adobe.com/Extensibility/1.0/">
	<!ENTITY ns_ai "http://ns.adobe.com/AdobeIllustrator/10.0/">
	<!ENTITY ns_graphs "http://ns.adobe.com/Graphs/1.0/">
]>
<svg version="1.1" id="Layer_1" xmlns:x="&ns_extend;" xmlns:i="&ns_ai;" xmlns:graph="&ns_graphs;"
	 xmlns="http://www.w3.org/2000/svg" xmlns:xlink="http://www.w3.org/1999/xlink" xmlns:a="http://ns.adobe.com/AdobeSVGViewerExtensions/3.0/"
	 x="0px" y="0px" width="64px" height="64px" viewBox="0 0 64 64" enable-background="new 0 0 64 64" xml:space="preserve">
<path fill="#E6B045" d="M5.945,28.929c-8.354-1.271-1.828,18.422,4.711,12.991C13.686,39.402,9.852,29.525,5.945,28.929z"/>
<path fill="#E6B045" d="M58.057,28.929c-3.909,0.596-7.743,10.473-4.711,12.991C59.888,47.352,66.406,27.659,58.057,28.929z"/>
<path fill="#FFCC66" d="M32,2C13.975,2,4.834,12.573,6.119,30.805c0.22,3.142,2.606,12.406,4.863,16.08
	c9.099,14.82,32.937,14.82,42.036,0c2.258-3.674,4.645-12.938,4.863-16.08C59.166,12.573,50.023,2,32,2z"/>
<path fill="#E6B045" d="M37,39.799c0,3.254-10,3.254-10,0C27,39.053,37,39.053,37,39.799z"/>
<path fill="#FFFFFF" d="M50.995,33.334c-2.371,6.207-12.016,5.299-13.783,0.955C38.553,27.311,49.693,26.713,50.995,33.334z"/>
<path fill="#FFFFFF" d="M13.001,33.334c2.371,6.207,12.02,5.299,13.783,0.955C25.445,27.308,14.308,26.711,13.001,33.334z"/>
<path fill="#E6B045" d="M50.688,24.807c-3.343-2.014-9.738-2.111-12.122-0.708c-0.511,0.271-0.174,2.181,0.256,1.999
	c3.321-1.494,8.679-1.53,11.787,0.128C51.022,26.439,51.195,25.089,50.688,24.807z"/>
<path fill="#E6B045" d="M13.311,24.807c3.343-2.014,9.737-2.111,12.122-0.708c0.511,0.271,0.174,2.181-0.255,1.999
	c-3.326-1.494-8.679-1.53-11.788,0.128C12.977,26.439,12.805,25.089,13.311,24.807z"/>
<path fill="#613F34" d="M39.674,32.674c0,5.447,7.878,5.447,7.878,0C47.552,27.619,39.674,27.619,39.674,32.674z"/>
<path fill="#7D5037" d="M40.452,34.418c0,3.121,6.319,3.121,6.319,0C46.771,31.518,40.452,31.518,40.452,34.418z"/>
<path fill="#1A1626" d="M41.977,32.76c0,2.262,3.271,2.262,3.271,0C45.247,30.662,41.977,30.662,41.977,32.76z"/>
<path fill="#AB968C" d="M40.861,32.1c0,1.142,1.651,1.142,1.651,0C42.513,31.041,40.861,31.041,40.861,32.1z"/>
<path fill="#613F34" d="M16.448,32.673c0,5.446,7.879,5.446,7.879,0C24.327,27.618,16.448,27.618,16.448,32.673z"/>
<path fill="#7D5037" d="M17.228,34.414c0,3.123,6.319,3.123,6.319,0C23.547,31.517,17.228,31.517,17.228,34.414z"/>
<path fill="#1A1626" d="M18.752,32.759c0,2.261,3.271,2.261,3.271,0C22.023,30.66,18.752,30.66,18.752,32.759z"/>
<path fill="#AB968C" d="M17.636,32.098c0,1.142,1.649,1.142,1.649,0C19.286,31.038,17.636,31.038,17.636,32.098z"/>
<path fill="#E6B045" d="M50.995,33.289c0-6.665-13.783-6.665-13.783,1.055C39.181,28.011,49.026,28.011,50.995,33.289z"/>
<path fill="#E6B045" d="M13.001,33.289c0-6.665,13.783-6.665,13.783,1.053C24.819,28.006,14.971,28.006,13.001,33.289z"/>
<path fill="#594640" d="M33.918,9.804C49.902,8.041,43.136,2,31.202,2C27.276,2,22.73,2.871,20.68,3.901
	C21.52,7.705,44.479,2.964,33.918,9.804z"/>
<path fill="#453631" d="M33.918,9.804C47.949,1.346,22.009,6.249,20.68,3.901C21.52,7.705,43.812,3.247,33.918,9.804z"/>
<path fill="#42ADE2" d="M43.779,47.908c0,12.85-23.559,12.85-23.559,0c0-6.564,5.305-3.742,11.81-3.742
	C38.537,44.166,43.779,41.344,43.779,47.908z"/>
<path fill="#61C2FF" d="M43.779,48.693c0,12.064-23.559,12.064-23.559,0c0-6.564,5.305-3.742,11.81-3.742
	C38.537,44.951,43.779,42.129,43.779,48.693z"/>
<path fill="#006DAE" d="M31.998,53.695c-6.279,0-6.279-6.283,0-6.283C38.283,47.412,38.283,53.695,31.998,53.695z"/>
<path fill="#AFECFF" d="M32,49.682c-4.771,0-8.638-0.543-8.638,4.113c0,10.939,17.276,10.939,17.276,0
	C40.638,49.139,36.77,49.682,32,49.682z M25.474,53.795c0-3.313,3.133-2.25,6.525-2.25c3.393,0,6.526-1.063,6.526,2.25
	C38.525,60.248,25.474,60.248,25.474,53.795z"/>
<path fill="#81ADBA" d="M25.755,52.432c0.835-1.596,3.45-0.881,6.244-0.881c2.794,0,5.411-0.715,6.247,0.881
	C37.895,49.834,26.106,49.834,25.755,52.432z"/>
<path fill="#81ADBA" d="M23.524,55.521c1.615,8.639,15.337,8.639,16.952,0C38.222,63.111,25.777,63.111,23.524,55.521z"/>
<path fill="#42ADE2" d="M33.688,52.518c-0.661,0-2.644,0-3.375,0c-0.893,0-0.893-3.928,0-3.928c0.804,0,2.75,0,3.375,0
	C34.579,48.59,34.579,52.518,33.688,52.518z"/>
<path fill="#75D6FF" d="M30.255,49.104c0.078-0.328,3.405-0.334,3.488,0C34.117,50.615,29.883,50.672,30.255,49.104z"/>
</svg>
