<?xml version="1.0" encoding="utf-8"?>
<!-- Generator: Adobe Illustrator 15.0.0, SVG Export Plug-In . SVG Version: 6.00 Build 0)  -->
<!DOCTYPE svg PUBLIC "-//W3C//DTD SVG 1.1//EN" "http://www.w3.org/Graphics/SVG/1.1/DTD/svg11.dtd" [
	<!ENTITY ns_flows "http://ns.adobe.com/Flows/1.0/">
	<!ENTITY ns_extend "http://ns.adobe.com/Extensibility/1.0/">
	<!ENTITY ns_ai "http://ns.adobe.com/AdobeIllustrator/10.0/">
	<!ENTITY ns_graphs "http://ns.adobe.com/Graphs/1.0/">
]>
<svg version="1.1" id="Layer_1" xmlns:x="&ns_extend;" xmlns:i="&ns_ai;" xmlns:graph="&ns_graphs;"
	 xmlns="http://www.w3.org/2000/svg" xmlns:xlink="http://www.w3.org/1999/xlink" xmlns:a="http://ns.adobe.com/AdobeSVGViewerExtensions/3.0/"
	 x="0px" y="0px" width="64px" height="64px" viewBox="0 0 64 64" enable-background="new 0 0 64 64" xml:space="preserve">
<radialGradient id="SVGID_1_" cx="32" cy="32" r="32.0376" gradientUnits="userSpaceOnUse">
	<stop  offset="0.3212" style="stop-color:#FFFFFF"/>
	<stop  offset="0.5669" style="stop-color:#FCFDFD"/>
	<stop  offset="0.7318" style="stop-color:#F3F6F7"/>
	<stop  offset="0.8726" style="stop-color:#E4E9EC"/>
	<stop  offset="1" style="stop-color:#CFD8DD"/>
	<a:midPointStop  offset="0.3212" style="stop-color:#FFFFFF"/>
	<a:midPointStop  offset="0.7818" style="stop-color:#FFFFFF"/>
	<a:midPointStop  offset="1" style="stop-color:#CFD8DD"/>
</radialGradient>
<path fill="url(#SVGID_1_)" d="M59.872,23.619c-3.297,5.914-8.046,8.792-7.718,2.438C52.793,13.459,43.263,3,32,3
	s-20.793,10.46-20.154,23.057c0.328,6.354-4.421,3.477-7.718-2.438c-1.073-1.92-4.231,11.891,8.675,19.602
	c0.572,7.02,1.467,14.908,2.861,16.881c2.311,3.26,5.183-3.398,8.9-3.398c3.717,0,3.721,4.191,7.436,4.191s3.719-4.191,7.436-4.191
	c3.718,0,6.59,6.658,8.9,3.398c1.395-1.973,2.289-9.861,2.861-16.881C64.104,35.51,60.945,21.699,59.872,23.619z"/>
<path fill="#CFD8DD" d="M61.662,24.164c-0.316-1.146-0.843-1.726-1.563-1.726c-0.215,0-0.749,0.067-1.099,0.693
	c-2.372,4.253-5.005,5.914-5.46,5.43c-0.115-0.12-0.479-0.652-0.388-2.454c0.331-6.526-2.003-12.925-6.404-17.556
	C42.731,4.327,37.494,2,32,2S21.27,4.327,17.252,8.551c-4.401,4.631-6.735,11.029-6.405,17.556c0.094,1.802-0.271,2.334-0.387,2.454
	c-0.453,0.476-3.088-1.176-5.46-5.43c-0.35-0.626-0.884-0.693-1.099-0.693c-0.722,0-1.248,0.58-1.563,1.727
	c-0.847,3.067-0.873,13.164,9.51,19.646c1.072,12.822,2.224,15.77,3.001,16.869C15.47,61.555,16.226,62,17.096,62
	c1.299,0,2.461-1.016,3.691-2.092c1.18-1.033,2.52-2.205,3.776-2.205c1.409,0,2.099,0.775,2.971,1.76
	c0.963,1.084,2.159,2.432,4.466,2.432s3.503-1.348,4.465-2.432c0.873-0.984,1.563-1.76,2.972-1.76c1.257,0,2.597,1.172,3.778,2.205
	C44.443,60.984,45.605,62,46.904,62c0.87,0,1.626-0.445,2.247-1.32c0.777-1.1,1.929-4.047,3.002-16.869
	C62.535,37.328,62.509,27.232,61.662,24.164z M59.651,30.379c-0.731,3.458-3.122,8.734-9.208,12.373
	C49.48,54.52,48.21,58.545,47.519,59.523C47.183,59.998,46.976,60,46.905,60h-0.001c-0.547,0-1.517-0.848-2.373-1.598
	c-1.446-1.266-3.085-2.699-5.095-2.699c-2.309,0-3.506,1.348-4.468,2.432c-0.872,0.984-1.562,1.76-2.969,1.76
	s-2.097-0.775-2.969-1.76c-0.963-1.084-2.159-2.432-4.468-2.432c-2.01,0-3.648,1.434-5.095,2.699C18.612,59.152,17.644,60,17.096,60
	c-0.069,0-0.277,0-0.614-0.477c-0.691-0.979-1.962-5.004-2.925-16.771c-6.087-3.639-8.479-8.914-9.208-12.373
	c-0.429-2.027-0.403-3.751-0.248-4.87c1.693,2.607,4.052,5.137,6.143,5.137c0.65,0,1.228-0.245,1.668-0.708
	c0.726-0.764,1.031-2.05,0.936-3.933c-0.305-5.981,1.83-11.841,5.854-16.076C22.338,6.106,27.06,4,32,4s9.663,2.106,13.299,5.93
	c4.024,4.235,6.159,10.095,5.854,16.076c-0.096,1.883,0.21,3.17,0.936,3.934c0.44,0.463,1.017,0.707,1.668,0.707c0,0,0,0,0.001,0
	c2.09,0,4.448-2.529,6.142-5.137C60.055,26.628,60.08,28.353,59.651,30.379z"/>
<path fill="#302C3B" d="M43.684,32.419c-0.236,0-4.895,1.473-11.682,1.473c-6.789,0-11.447-1.473-11.684-1.473
	c-0.539,0-0.828,0.373-0.828,0.737c0,5.352,4.385,11.037,12.512,11.037c8.123,0,12.508-5.686,12.508-11.037
	C44.51,32.792,44.225,32.419,43.684,32.419z"/>
<linearGradient id="SVGID_2_" gradientUnits="userSpaceOnUse" x1="32.0024" y1="35.7021" x2="32.0024" y2="50.8164">
	<stop  offset="0" style="stop-color:#B32E24"/>
	<stop  offset="0.0103" style="stop-color:#B63026"/>
	<stop  offset="0.1122" style="stop-color:#D14136"/>
	<stop  offset="0.2241" style="stop-color:#E54F42"/>
	<stop  offset="0.3496" style="stop-color:#F4594B"/>
	<stop  offset="0.4998" style="stop-color:#FC5E50"/>
	<stop  offset="0.7394" style="stop-color:#FF6052"/>
	<a:midPointStop  offset="0" style="stop-color:#B32E24"/>
	<a:midPointStop  offset="0.2066" style="stop-color:#B32E24"/>
	<a:midPointStop  offset="0.7394" style="stop-color:#FF6052"/>
</linearGradient>
<path fill="url(#SVGID_2_)" d="M24.645,38.195c0,0.656,0,1.758,0,2.939c0,6.445,3.293,9.678,7.357,9.682
	c4.063-0.004,7.359-3.236,7.359-9.682c0-1.182,0-2.283,0-2.939c0-3.85-7.359-2.094-7.359-2.094S24.645,34.346,24.645,38.195z"/>
<path fill="#B81B1B" d="M30.957,35.904l1.045,9.605l1.043-9.605c-0.629,0.098-1.043,0.197-1.043,0.197S31.584,36.002,30.957,35.904z
	"/>
<ellipse transform="matrix(0.342 -0.9397 0.9397 0.342 -4.3889 36.6843)" fill="#302C3B" cx="24" cy="21.476" rx="5.999" ry="3.5"/>
<ellipse transform="matrix(0.3419 -0.9397 0.9397 0.3419 -4.9025 37.9515)" fill="#4E5E67" cx="24.646" cy="22.476" rx="2.862" ry="1.669"/>
<ellipse transform="matrix(-0.342 -0.9397 0.9397 -0.342 33.0984 64.1274)" fill="#302C3B" cx="39" cy="20.476" rx="8" ry="4.5"/>
<ellipse transform="matrix(-0.342 -0.9397 0.9397 -0.342 30.6718 65.9282)" fill="#4E5E67" cx="38.417" cy="22.226" rx="3.909" ry="2.198"/>
</svg>
