<?xml version="1.0" encoding="utf-8"?>
<!-- Generator: Adobe Illustrator 15.0.0, SVG Export Plug-In . SVG Version: 6.00 Build 0)  -->
<!DOCTYPE svg PUBLIC "-//W3C//DTD SVG 1.1//EN" "http://www.w3.org/Graphics/SVG/1.1/DTD/svg11.dtd" [
	<!ENTITY ns_flows "http://ns.adobe.com/Flows/1.0/">
	<!ENTITY ns_extend "http://ns.adobe.com/Extensibility/1.0/">
	<!ENTITY ns_ai "http://ns.adobe.com/AdobeIllustrator/10.0/">
	<!ENTITY ns_graphs "http://ns.adobe.com/Graphs/1.0/">
]>
<svg version="1.1" id="Layer_1" xmlns:x="&ns_extend;" xmlns:i="&ns_ai;" xmlns:graph="&ns_graphs;"
	 xmlns="http://www.w3.org/2000/svg" xmlns:xlink="http://www.w3.org/1999/xlink" xmlns:a="http://ns.adobe.com/AdobeSVGViewerExtensions/3.0/"
	 x="0px" y="0px" width="64px" height="64px" viewBox="0 0 64 64" enable-background="new 0 0 64 64" xml:space="preserve">
<path fill="#3B2C29" d="M19.938,16.644C11.807,51.548,12.55,50.8,29.668,50.8C20.195,44.173,38.342,16.169,19.938,16.644z"/>
<path fill="#453631" d="M17.005,16.103c-5.935,26.52-0.814,33.33,3.731,34.697h5.21C13.757,42.212,32.811,15.581,17.005,16.103z"/>
<path fill="#3B2C29" d="M43.861,16.642c8.132,34.906,7.387,34.158-9.73,34.158C42.843,45.479,25.457,16.167,43.861,16.642z"/>
<path fill="#453631" d="M46.793,16.101c8.675,24.127-0.018,33.582-3.732,34.699h-5.207C50.045,42.911,30.99,15.579,46.793,16.101z"
	/>
<path fill="#594640" d="M48.236,29.065c2.512,6.133,0.027,18.723-5.176,21.734c5.767,0,9.277-7.979,10.99-18.955
	C56.189,18.128,43.762,18.12,48.236,29.065z"/>
<path fill="#594640" d="M10.394,34.39c2.1,9.906,4.685,16.41,10.343,16.41c-6.309-6.531-5.566-20.309-3.772-23.736
	C26.103,21.622,6.84,17.634,10.394,34.39z"/>
<path fill="#8E3ED6" d="M13.077,52.431c2.302-1.412,11.849-5.139,11.849-5.139h14.22c0,0,9.538,3.721,11.828,5.135
	C54.298,54.48,55,62,55,62H9C9,62,9.741,54.473,13.077,52.431z"/>
<path fill="#E6B045" d="M24.832,48.94c0,5.724,14.336,5.724,14.336,0c0-3.492,0-9.264,0-9.264H24.832
	C24.832,39.677,24.832,44.433,24.832,48.94z"/>
<path fill="#FFCC66" d="M32,8.255c-10.836,0-16.054,8.824-15.402,20.17c0.134,2.281,0.768,5.57,1.551,8.391
	C19.773,42.675,28.35,48.575,32,48.575c3.649,0,12.227-5.9,13.85-11.76c0.785-2.82,1.419-6.109,1.555-8.391
	C48.054,17.079,42.838,8.255,32,8.255z"/>
<path fill="#D47706" d="M32,39.218c-2.635-1.16-2.654-0.049-6.719,0.225c1.525,1.732,2.648,3.959,6.717,3.959
	c4.67,0,5.459-2.529,6.723-3.959C34.652,39.169,34.635,38.058,32,39.218z"/>
<path fill="#FFFFFF" d="M26.5,39.872c2.655,2.764,8.378,2.729,11,0.002C33.412,40.313,30.59,40.313,26.5,39.872z"/>
<path fill="#594640" d="M43.941,24.302c-2.442-1.453-6.82-1.633-8.555-0.641c-0.366,0.201-0.268,1.252,0.05,1.121
	c2.472-1.029,6.235-1.08,8.556,0.109C44.305,25.048,44.311,24.515,43.941,24.302z"/>
<path fill="#594640" d="M20.061,24.302c2.44-1.453,6.818-1.633,8.555-0.641c0.366,0.201,0.27,1.252-0.051,1.121
	c-2.473-1.029-6.234-1.082-8.555,0.109C19.697,25.048,19.689,24.515,20.061,24.302z"/>
<path fill="#E6B045" d="M35.359,35.257c0,2.186-6.719,2.186-6.719,0C28.641,34.753,35.359,34.753,35.359,35.257z"/>
<path fill="#594640" d="M44.107,9.833c-7.598,7.785-0.346,8.287,4.129,19.232c2.512,6.133,4.102,13.756,5.814,2.779
	C56.189,18.128,47.969,8.688,44.107,9.833z"/>
<path fill="#594640" d="M25.457,6.851C15.822,9.118,6.84,17.634,10.394,34.39c2.1,9.906,4.776-3.898,6.57-7.326
	c9.139-5.441,24.769-9.561,27.144-17.23C45.313,8.062,35.099,4.325,25.457,6.851z"/>
<path fill="#453631" d="M18.074,19.056c4.074-0.826,23.566-1.215,26.033-9.223C39.502,13.503,34.729,14.503,18.074,19.056z"/>
<path fill="#453631" d="M11.05,31.796c6.835-9.123,29.228-8.117,33.058-21.963C36.672,21.454,12.918,23.024,11.05,31.796z"/>
<path fill="#453631" d="M41.855,11.729c-1.766,2.781,4.364-1.303,10.971,16.6C51.198,17.862,45.615,10.657,41.855,11.729z"/>
<path fill="#45332C" d="M28.561,28.811c-2.016,1.285-5.146,1.285-7.16,0c-0.308-0.198-0.491,0.016-0.394,0.182
	c1.957,3.318,5.99,3.318,7.946,0C29.053,28.826,28.868,28.612,28.561,28.811z"/>
<path fill="#45332C" d="M42.6,28.811c-2.016,1.285-5.145,1.285-7.16,0c-0.308-0.198-0.49,0.016-0.395,0.182
	c1.958,3.318,5.991,3.318,7.947,0C43.092,28.826,42.907,28.612,42.6,28.811z"/>
<path opacity="0.3" d="M26.329,14.152c-2.591,0.191-13.894-5.953-13.932,2.954c-0.013,2.814,3.392,8.487,3.536,10.15
	c0.25,2.875,3.372,2.839,3.252,0.771c-0.396-6.791-1.928-9.468,0.314-11.458c0.496-0.44,4.702,0.839,6.559-0.063
	C27.344,15.882,27.148,14.093,26.329,14.152z"/>
<path fill="#FFCC66" d="M26.224,13.98c-2.591,0.19-4.167-2.274-5.183-3.9c-0.704-1.129-3.271-2.049-3.951-3.72
	C16.328,4.485,16.15,2,16.15,2h-6.1c0,0,1.635,5.68,1.597,14.586c-0.013,2.814,1.466,7.378,3.628,9.406c0,0,0.25,0.803,0.693,1.991
	c0.828,2.221,3.247,1.656,2.787-0.364c-1.224-5.383-2.242-10.284,0-12.274c0.496-0.439,5.312,1.6,7.168,0.698
	C27.209,15.419,27.043,13.921,26.224,13.98z"/>
<path opacity="0.3" d="M37.671,14.152c2.591,0.191,13.894-5.953,13.932,2.954c0.013,2.814-3.392,8.487-3.536,10.15
	c-0.25,2.875-3.372,2.839-3.252,0.771c0.396-6.791,1.928-9.468-0.314-11.458c-0.496-0.44-4.702,0.839-6.559-0.063
	C36.656,15.882,36.852,14.093,37.671,14.152z"/>
<path fill="#FFCC66" d="M37.776,13.98c2.591,0.19,4.167-2.274,5.183-3.9c0.704-1.129,3.271-2.049,3.951-3.72
	C47.672,4.485,47.85,2,47.85,2h6.1c0,0-1.635,5.68-1.597,14.586c0.013,2.814-1.466,7.378-3.628,9.406c0,0-0.25,0.803-0.693,1.991
	c-0.828,2.221-3.247,1.656-2.787-0.364c1.224-5.383,2.242-10.284,0-12.274c-0.496-0.439-5.312,1.6-7.168,0.698
	C36.791,15.419,36.957,13.921,37.776,13.98z"/>
<path fill="#732EB0" d="M16,62h1C16.5,55.333,16.5,55.333,16,62z"/>
<path fill="#732EB0" d="M47,62h1C47.5,55.333,47.5,55.333,47,62z"/>
</svg>
