<?xml version="1.0" encoding="utf-8"?>
<!-- Generator: Adobe Illustrator 15.0.0, SVG Export Plug-In . SVG Version: 6.00 Build 0)  -->
<!DOCTYPE svg PUBLIC "-//W3C//DTD SVG 1.1//EN" "http://www.w3.org/Graphics/SVG/1.1/DTD/svg11.dtd" [
	<!ENTITY ns_flows "http://ns.adobe.com/Flows/1.0/">
	<!ENTITY ns_extend "http://ns.adobe.com/Extensibility/1.0/">
	<!ENTITY ns_ai "http://ns.adobe.com/AdobeIllustrator/10.0/">
	<!ENTITY ns_graphs "http://ns.adobe.com/Graphs/1.0/">
]>
<svg version="1.1" id="Layer_1" xmlns:x="&ns_extend;" xmlns:i="&ns_ai;" xmlns:graph="&ns_graphs;"
	 xmlns="http://www.w3.org/2000/svg" xmlns:xlink="http://www.w3.org/1999/xlink" xmlns:a="http://ns.adobe.com/AdobeSVGViewerExtensions/3.0/"
	 x="0px" y="0px" width="64px" height="64px" viewBox="0 0 64 64" enable-background="new 0 0 64 64" xml:space="preserve">
<path fill="#E81C27" d="M16.369,55.209c1.9-1.004,9.787-3.648,9.787-3.648h11.752c0,0,7.877,2.641,9.766,3.645
	C50.422,56.662,51,62,51,62H13C13,62,13.613,56.66,16.369,55.209z"/>
<path fill="#302C3B" d="M40.135,52.162l0.707,2.049c0,0,6.029,2.27,7.449,2.865c1.41,0.594,0.84-1.316-0.27-2.004
	C47.607,54.811,42.588,52.803,40.135,52.162z"/>
<path fill="#FFE12C" d="M42.697,53.646c0.465,0.816-0.865,0.775-1.367-0.029C40.771,52.725,42.211,52.793,42.697,53.646z"/>
<path fill="#302C3B" d="M23.865,52.162l-0.709,2.049c0,0-6.027,2.27-7.449,2.865c-1.408,0.594-0.838-1.316,0.27-2.004
	C16.391,54.811,21.412,52.803,23.865,52.162z"/>
<path fill="#FFE12C" d="M21.303,53.646c-0.467,0.816,0.863,0.775,1.367-0.029C23.229,52.725,21.789,52.793,21.303,53.646z"/>
<path fill="#B00505" d="M17.541,62c0.406-1.344-0.068-3.391-0.574-4.516C16.496,56.436,16.674,61.26,17.541,62z"/>
<path fill="#B00505" d="M47.033,57.484c-0.508,1.125-0.98,3.172-0.578,4.516C47.324,61.26,47.502,56.436,47.033,57.484z"/>
<rect x="31.244" y="55.744" fill="#E6EBEF" width="0.756" height="6.256"/>
<path fill="#FFE12C" d="M35.18,59.883c0,1.199-1.898,1.199-1.898,0C33.281,58.682,35.18,58.682,35.18,59.883z"/>
<path fill="#E6B045" d="M25.799,54.098l5.445,2.318h1.512c0,0,5.678-0.852,5.678-6.881L25.799,46V54.098z"/>
<path fill="#302C3B" d="M25.088,51.697c0-0.652,0-1.881,0-2.697c0-0.205,0.873-0.191,0.873-0.191
	c-0.541,6.322,5.283,6.381,5.283,6.381v2.807C31.244,57.996,25.088,57.975,25.088,51.697z"/>
<path fill="#E6EBEF" d="M25.088,49c0-0.205,0.873-0.191,0.873-0.191c0,6.031,5.283,6.381,5.283,6.381v0.674
	C29.031,55.863,25.088,54.125,25.088,49z"/>
<path fill="#FFE12C" d="M29.67,56.859c-0.439,0.594-1.582-0.059-1.139-0.65C28.973,55.615,30.111,56.27,29.67,56.859z"/>
<path fill="#302C3B" d="M38.914,51.697c0-0.652,0-1.881,0-2.697c0-0.205-0.875-0.191-0.875-0.191
	c0.525,6.25-5.283,6.381-5.283,6.381v2.807C32.756,57.996,38.914,57.975,38.914,51.697z"/>
<path fill="#E6EBEF" d="M38.914,49c0-0.205-0.875-0.191-0.875-0.191c0,6.031-5.283,6.381-5.283,6.381v0.674
	C34.969,55.863,38.914,54.125,38.914,49z"/>
<path fill="#FFE12C" d="M34.33,56.859c0.441,0.594,1.584-0.059,1.141-0.65C35.029,55.615,33.889,56.27,34.33,56.859z"/>
<path fill="#E6B045" d="M19.219,35.125c-4.275-0.771-0.936,11.18,2.41,7.884C23.178,41.48,21.217,35.486,19.219,35.125z"/>
<path fill="#E6B045" d="M44.781,35.125c-1.998,0.361-3.961,6.355-2.408,7.884C45.719,46.305,49.053,34.354,44.781,35.125z"/>
<path fill="#FFCC66" d="M32,21.111c-8.838,0-13.096,6.687-12.563,15.984c0.107,1.871,1.266,7.972,2.361,10.16
	c1.119,2.238,4.867,5.691,7.164,6.406c1.449,0.451,4.625,0.451,6.074,0c2.297-0.715,6.043-4.168,7.166-6.406
	c1.094-2.188,2.254-8.289,2.359-10.16C45.098,27.798,40.838,21.111,32,21.111z"/>
<path fill="#E6B045" d="M34.74,43.135c0,1.783-5.48,1.783-5.48,0C29.26,42.726,34.74,42.726,34.74,43.135z"/>
<path fill="#FFFFFF" d="M41.463,37.814c-1.182,3.092-5.986,2.639-6.867,0.475C35.266,34.813,40.814,34.517,41.463,37.814z"/>
<path fill="#FFFFFF" d="M22.537,37.814c1.182,3.092,5.986,2.639,6.865,0.475C28.734,34.813,23.188,34.516,22.537,37.814z"/>
<path fill="#C1873C" d="M41.953,34.093c-2.023-1.003-5.891-1.052-7.33-0.353c-0.309,0.136-0.105,1.087,0.154,0.996
	c2.008-0.744,5.246-0.762,7.127,0.064C42.154,34.906,42.26,34.234,41.953,34.093z"/>
<path fill="#C1873C" d="M22.049,34.093c2.02-1.003,5.887-1.052,7.33-0.353c0.307,0.136,0.104,1.087-0.156,0.996
	c-2.012-0.744-5.246-0.762-7.129,0.064C21.846,34.906,21.742,34.234,22.049,34.093z"/>
<path fill="#613F34" d="M35.822,37.485c0,2.712,3.924,2.712,3.924,0C39.746,34.967,35.822,34.967,35.822,37.485z"/>
<path fill="#7D5037" d="M36.211,38.354c0,1.555,3.146,1.555,3.146,0C39.357,36.909,36.211,36.909,36.211,38.354z"/>
<path fill="#1A1626" d="M36.971,37.527c0,1.127,1.629,1.127,1.629,0C38.6,36.482,36.971,36.482,36.971,37.527z"/>
<path fill="#AB968C" d="M36.414,37.199c0,0.568,0.822,0.568,0.822,0C37.236,36.672,36.414,36.672,36.414,37.199z"/>
<path fill="#613F34" d="M24.254,37.484c0,2.713,3.924,2.713,3.924,0C28.178,34.966,24.254,34.966,24.254,37.484z"/>
<path fill="#7D5037" d="M24.643,38.353c0,1.556,3.146,1.556,3.146,0C27.789,36.908,24.643,36.908,24.643,38.353z"/>
<path fill="#1A1626" d="M25.402,37.527c0,1.126,1.629,1.126,1.629,0C27.031,36.482,25.402,36.482,25.402,37.527z"/>
<path fill="#AB968C" d="M24.846,37.198c0,0.569,0.822,0.569,0.822,0C25.668,36.67,24.846,36.67,24.846,37.198z"/>
<path fill="#E6B045" d="M41.463,37.791c0-3.319-6.867-3.319-6.867,0.525C35.576,35.162,40.48,35.162,41.463,37.791z"/>
<path fill="#E6B045" d="M22.537,37.791c0-3.319,6.865-3.319,6.865,0.525C28.424,35.16,23.518,35.16,22.537,37.791z"/>
<path fill="#302C3B" d="M43.143,31.715v8.119c0,5.916-4.895,10.549-11.143,10.549S20.857,45.75,20.857,39.834v-8.119H19v8.119
	c0,6.941,5.82,12.406,13,12.406c7.178,0,13-5.465,13-12.406v-8.119H43.143z"/>
<path fill="#302C3B" d="M48.713,33.898c0,5.996-5.576,2.018-7.426,1.529c-4.492-1.178-14.08-1.176-18.574,0
	c-1.848,0.488-7.428,4.467-7.428-1.529V11.369c0-12.492,33.428-12.492,33.428,0V33.898z"/>
<path fill="#E6A400" d="M36.5,47.553c-3.113,1.816-6.021,1.674-9,0C30.596,47.115,33.404,47.115,36.5,47.553z"/>
<path fill="#D99025" d="M32,46.959c-1.313-0.354-2.453,0.359-4.5,0.594c1.104,0.195,2.92,0.086,4.5,0.148
	c1.58-0.063,3.396,0.047,4.5-0.148C34.455,47.318,33.313,46.605,32,46.959z"/>
</svg>
