<?xml version="1.0" encoding="utf-8"?>
<!-- Generator: Adobe Illustrator 15.0.0, SVG Export Plug-In . SVG Version: 6.00 Build 0)  -->
<!DOCTYPE svg PUBLIC "-//W3C//DTD SVG 1.1//EN" "http://www.w3.org/Graphics/SVG/1.1/DTD/svg11.dtd" [
	<!ENTITY ns_flows "http://ns.adobe.com/Flows/1.0/">
	<!ENTITY ns_extend "http://ns.adobe.com/Extensibility/1.0/">
	<!ENTITY ns_ai "http://ns.adobe.com/AdobeIllustrator/10.0/">
	<!ENTITY ns_graphs "http://ns.adobe.com/Graphs/1.0/">
]>
<svg version="1.1" id="Layer_1" xmlns:x="&ns_extend;" xmlns:i="&ns_ai;" xmlns:graph="&ns_graphs;"
	 xmlns="http://www.w3.org/2000/svg" xmlns:xlink="http://www.w3.org/1999/xlink" xmlns:a="http://ns.adobe.com/AdobeSVGViewerExtensions/3.0/"
	 x="0px" y="0px" width="64px" height="64px" viewBox="0 0 64 64" enable-background="new 0 0 64 64" xml:space="preserve">
<radialGradient id="SVGID_1_" cx="-876.9355" cy="-339.7207" r="9.8119" gradientTransform="matrix(1.4308 0.2523 -0.2682 1.5209 1198.2924 742.7767)" gradientUnits="userSpaceOnUse">
	<stop  offset="0.4182" style="stop-color:#FF0071"/>
	<stop  offset="0.6534" style="stop-color:#F6006B"/>
	<stop  offset="1" style="stop-color:#E0005D"/>
	<a:midPointStop  offset="0.4182" style="stop-color:#FF0071"/>
	<a:midPointStop  offset="0.5979" style="stop-color:#FF0071"/>
	<a:midPointStop  offset="1" style="stop-color:#E0005D"/>
</radialGradient>
<path fill="url(#SVGID_1_)" d="M34.349,6.33c-2.462-6.216-12.396-5.71-13.638,1.333c-0.833,4.725,3.014,8.663,10.378,17.155
	c9.825-5.461,14.788-7.847,15.621-12.57C47.952,5.204,38.789,1.332,34.349,6.33z"/>
<path fill="#30231E" d="M30.775,58.978c-1.607-9.113-17.732-6.492-16.088,2.838L30.775,58.978z"/>
<path fill="#3B2C29" d="M8.854,35.659C7.32,63.706,7.798,63.032,21.026,60.7C12.806,56.872,23.014,32.784,8.854,35.659z"/>
<path fill="#453631" d="M6.516,35.642c-0.977,21.277,3.906,25.836,7.605,26.275l4.028-0.709
	C7.558,56.235,18.659,33.085,6.516,35.642z"/>
<path fill="#3B2C29" d="M27.343,32.396c11.038,25.834,10.359,25.359-2.868,27.691C30.48,54.796,13.056,34.538,27.343,32.396z"/>
<path fill="#453631" d="M29.54,31.581c9.983,17.44,4.554,25.92,1.837,27.29l-4.028,0.711C35.696,51.831,17.252,33.331,29.54,31.581z
	"/>
<path fill="#594640" d="M32.419,41.392c2.775,4.393,2.567,14.447-1.04,17.482c4.452-0.785,6.079-7.424,5.909-16.133
	C37.073,31.863,27.467,33.554,32.419,41.392z"/>
<path fill="#594640" d="M3.894,50.657c2.972,7.357,5.853,12.031,10.228,11.26c-5.762-4.186-7.064-14.92-6.146-17.813
	C14.298,38.661-1.13,38.206,3.894,50.657z"/>
<path fill="#FFCC66" d="M17.034,27.538c-8.373,1.477-11.206,9-9.157,17.67c0.414,1.744,1.354,4.193,2.339,6.266
	c2.057,4.299,10.637,7.484,13.456,6.986c2.822-0.498,7.496-6.02,7.957-10.762c0.222-2.283,0.263-4.908,0.059-6.689
	C30.645,32.163,25.409,26.061,17.034,27.538z"/>
<path fill="#594640" d="M26.608,27.108c-4.813,7.043,0.858,6.446,5.811,14.284c2.775,4.393,5.039,10.059,4.869,1.35
	C37.073,31.863,29.435,25.696,26.608,27.108z"/>
<path fill="#594640" d="M11.788,27.348C4.651,30.41-1.13,38.206,3.894,50.657c2.972,7.357,3.163-3.66,4.081-6.553
	c6.323-5.443,17.842-10.752,18.634-16.997C27.299,25.578,18.895,24.083,11.788,27.348z"/>
<path fill="#453631" d="M7.748,37.774c3.034-1.191,18.044-4.15,18.86-10.667C23.548,30.569,19.998,31.991,7.748,37.774z"/>
<path fill="#453631" d="M4.049,48.565c4.039-7.975,21.483-10.25,22.56-21.458C22.444,37.089,4.299,41.542,4.049,48.565z"/>
<path fill="#453631" d="M25.125,28.879c-0.985,2.387,3.194-1.602,10.74,11.319C33.181,32.341,27.889,27.538,25.125,28.879z"/>
<path fill="#E6A400" d="M26.851,51.448c2.272,2.41-3.214,3.398-4.985,1.045L26.851,51.448z"/>
<path fill="#CC9200" d="M25.523,51.052c-1.208-0.359-2.03,0.73-3.658,1.441c1.58,0.408,3.651,0.135,3.837-0.537
	c0,0,0.676,0.338,1.208-0.27C27.501,51.015,26.68,50.198,25.523,51.052z"/>
<path fill="#E6B045" d="M24.031,47.644c0.473,1.539-4.255,2.998-4.729,1.459C19.191,48.751,23.923,47.29,24.031,47.644z"/>
<path fill="#E6B045" d="M29.099,42.499c0.377,2.143-6.538,3.363-6.976,0.883C21.887,39.729,28.34,38.69,29.099,42.499z"/>
<path fill="#E6B045" d="M10.819,45.724c0.378,2.141,7.295,0.922,6.857-1.559C16.649,40.651,10.229,41.884,10.819,45.724z"/>
<path fill="#613F34" d="M10.82,45.724c0.379,2.141,7.295,0.922,6.857-1.559C17.324,45.407,11.544,46.577,10.82,45.724z"/>
<path fill="#613F34" d="M29.099,42.499c0.377,2.143-6.538,3.363-6.976,0.883C22.88,44.429,28.709,43.55,29.099,42.499z"/>
<path fill="#E6B045" d="M35.664,38.253c-4.006-1.473-2.811,10.645,0.986,8.029C38.412,45.069,37.535,38.942,35.664,38.253z"/>
<path fill="#E6B045" d="M60.392,42.614c-1.995,0.008-4.914,5.463-3.673,7.207C59.395,53.577,64.654,42.599,60.392,42.614z"/>
<path fill="#FFCC66" d="M50.414,26.896c-8.549-1.509-13.809,4.226-14.876,13.298c-0.214,1.826-0.132,7.92,0.553,10.219
	c0.703,2.354,2.591,6.127,4.69,7.207c1.325,0.686,4.396,1.229,5.879,1.037c2.34-0.299,7.705-2.791,9.168-4.764
	c1.435-1.926,3.593-7.623,4.016-9.414C61.944,35.591,58.963,28.403,50.414,26.896z"/>
<path fill="#594640" d="M50.414,26.896c-5.881-1.038-9.777,0.274-11.179-0.739c0,0-0.342,0.972,0.143,1.73
	c0,0-0.729,0.436-1.59-0.668c-1.532,2.987,1.038,5.331,11.31,7.141c10.272,1.813,8.259-1.121,12.537,4.158
	C62.095,33.022,59.348,28.47,50.414,26.896z"/>
<path fill="#453631" d="M53.933,32.376c-6.023,1.09-7.427-3.04-12.699-4.343c2.328,1.644,3.241,3.707,5.091,5.402
	c-4.271-2.314-7.137-5.511-7.088-7.269c0,0-1.197,2.368,1.465,4.767c-2.908-0.241-2.912-3.704-2.912-3.704
	c-1.861,2.07-2.983,9.605-2.354,15.457c0.617-1.941,0.152-2.869,1.495-5.098c4.01-6.67,1.711-3.979,11.981-2.17
	c10.273,1.813,8.901-1.252,10.522,6.137c0.481,2.199-0.26,3.268-0.342,5.303C64.685,34.897,60.322,31.221,53.933,32.376z"/>
<path fill="#C1873C" d="M57.83,41.136c-1.784-1.316-5.517-2.021-7.032-1.592c-0.321,0.078-0.286,1.031-0.018,0.988
	c2.069-0.379,5.205,0.158,6.884,1.275C57.889,41.954,58.103,41.321,57.83,41.136z"/>
<path fill="#C1873C" d="M38.575,37.739c2.125-0.625,5.876-0.012,7.15,0.91c0.276,0.184-0.083,1.066-0.317,0.936
	c-1.819-1.064-4.947-1.633-6.908-1.154C38.239,38.489,38.257,37.821,38.575,37.739z"/>
<path fill="#E6A400" d="M40.482,51.456c-2.271,2.41,3.216,3.4,4.986,1.045L40.482,51.456z"/>
<path fill="#CC9200" d="M41.811,51.06c1.207-0.357,2.031,0.732,3.658,1.441c-1.58,0.408-3.65,0.137-3.838-0.537
	c0,0-0.676,0.338-1.206-0.268C39.832,51.022,40.654,50.206,41.811,51.06z"/>
<path fill="#E6B045" d="M43.303,47.651c-0.473,1.539,4.254,2.998,4.729,1.459C48.143,48.759,43.412,47.298,43.303,47.651z"/>
<path fill="#E6B045" d="M38.236,42.509c-0.379,2.143,6.538,3.361,6.975,0.883C45.447,39.737,38.994,38.698,38.236,42.509z"/>
<path fill="#E6B045" d="M56.514,45.731c-0.377,2.141-7.295,0.922-6.857-1.557C50.685,40.659,57.104,41.894,56.514,45.731z"/>
<path fill="#613F34" d="M56.513,45.731c-0.377,2.141-7.295,0.922-6.857-1.559C50.011,45.415,55.789,46.585,56.513,45.731z"/>
<path fill="#613F34" d="M38.236,42.509c-0.379,2.143,6.538,3.361,6.975,0.883C44.454,44.437,38.625,43.558,38.236,42.509z"/>
</svg>
