<?xml version="1.0" encoding="utf-8"?>
<!-- Generator: Adobe Illustrator 19.0.0, SVG Export Plug-In . SVG Version: 6.00 Build 0)  -->
<svg version="1.1" id="Layer_1" xmlns="http://www.w3.org/2000/svg" xmlns:xlink="http://www.w3.org/1999/xlink" x="0px" y="0px"
	 width="64px" height="64px" viewBox="0 0 64 64" enable-background="new 0 0 64 64" xml:space="preserve">
<path fill="#40281F" d="M19.938,16.645C11.807,51.548,12.549,50.8,29.668,50.8C20.195,44.173,38.342,16.17,19.938,16.645z"/>
<path fill="#4A2E24" d="M17.004,16.104C11.07,42.623,16.19,49.433,20.736,50.8h5.209C13.756,42.213,32.811,15.582,17.004,16.104z"/>
<path fill="#40281F" d="M43.861,16.643c8.131,34.905,7.387,34.157-9.73,34.157C42.842,45.479,25.457,16.168,43.861,16.643z"/>
<path fill="#4A2E24" d="M46.793,16.101c8.674,24.127-0.018,33.581-3.732,34.698h-5.207C50.045,42.912,30.99,15.58,46.793,16.101z"/>
<path fill="#614036" d="M48.236,29.066c2.512,6.133,0.027,18.722-5.176,21.733c5.766,0,9.277-7.978,10.99-18.954
	C56.189,18.129,43.762,18.121,48.236,29.066z"/>
<path fill="#614036" d="M10.393,34.391c2.1,9.905,4.686,16.409,10.344,16.409c-6.309-6.531-5.566-20.308-3.773-23.735
	C26.102,21.623,6.84,17.635,10.393,34.391z"/>
<path fill="#8E3ED6" d="M13.076,52.431c2.303-1.412,11.85-5.139,11.85-5.139h14.219c0,0,9.539,3.721,11.828,5.135
	C54.297,54.479,55,61.999,55,61.999H9C9,61.999,9.74,54.472,13.076,52.431z"/>
<path fill="#755035" d="M24.832,48.94c0,5.723,14.336,5.723,14.336,0c0-3.492,0-9.263,0-9.263H24.832
	C24.832,39.678,24.832,44.433,24.832,48.94z"/>
<path fill="#916B50" d="M32,8.256c-10.836,0-16.055,8.824-15.402,20.17c0.133,2.281,0.767,5.57,1.551,8.391
	C19.774,42.676,28.35,48.575,32,48.575c3.648,0,12.227-5.899,13.85-11.759c0.785-2.82,1.418-6.109,1.555-8.391
	C48.053,17.08,42.838,8.256,32,8.256z"/>
<path fill="#7A421B" d="M32,39.219c-2.635-1.16-2.654-0.049-6.719,0.225c1.525,1.733,2.648,3.958,6.717,3.958
	c4.67,0,5.459-2.528,6.723-3.958C34.652,39.17,34.635,38.059,32,39.219z"/>
<path fill="#FFFFFF" d="M26.5,39.873c2.654,2.764,8.377,2.729,11,0.002C33.412,40.314,30.59,40.314,26.5,39.873z"/>
<path fill="#423225" d="M43.941,24.303c-2.443-1.453-6.82-1.633-8.555-0.641c-0.367,0.201-0.267,1.252,0.049,1.121
	c2.473-1.029,6.236-1.08,8.557,0.109C44.305,25.049,44.311,24.516,43.941,24.303z"/>
<path fill="#423225" d="M20.061,24.303c2.439-1.453,6.818-1.633,8.555-0.641c0.365,0.201,0.27,1.252-0.051,1.121
	c-2.473-1.029-6.234-1.082-8.555,0.109C19.697,25.049,19.69,24.516,20.061,24.303z"/>
<path fill="#755035" d="M35.359,35.258c0,2.185-6.719,2.185-6.719,0C28.641,34.754,35.359,34.754,35.359,35.258z"/>
<path fill="#614036" d="M44.107,9.834c-7.598,7.785-0.346,8.287,4.129,19.232c2.512,6.133,4.102,13.756,5.814,2.779
	C56.189,18.129,47.969,8.689,44.107,9.834z"/>
<path fill="#614036" d="M25.457,6.852C15.822,9.119,6.84,17.635,10.393,34.391c2.1,9.905,4.777-3.898,6.57-7.326
	c9.139-5.441,24.769-9.56,27.144-17.23C45.313,8.063,35.098,4.326,25.457,6.852z"/>
<path fill="#4A2E24" d="M18.074,19.057c4.074-0.826,23.566-1.215,26.033-9.223C39.502,13.504,34.729,14.504,18.074,19.057z"/>
<path fill="#4A2E24" d="M11.049,31.797c6.836-9.123,29.229-8.117,33.059-21.963C36.672,21.455,12.918,23.025,11.049,31.797z"/>
<path fill="#4A2E24" d="M41.855,11.731c-1.766,2.781,4.363-1.303,10.971,16.6C51.197,17.863,45.615,10.658,41.855,11.731z"/>
<path fill="#45332C" d="M28.561,28.812c-2.016,1.285-5.146,1.285-7.16,0c-0.309-0.198-0.492,0.016-0.395,0.182
	c1.957,3.318,5.99,3.318,7.947,0C29.053,28.827,28.867,28.613,28.561,28.812z"/>
<path fill="#45332C" d="M42.6,28.812c-2.016,1.285-5.145,1.285-7.16,0c-0.309-0.198-0.49,0.016-0.395,0.182
	c1.957,3.318,5.99,3.318,7.947,0C43.092,28.827,42.906,28.613,42.6,28.812z"/>
<path opacity="0.3" d="M26.328,14.153c-2.59,0.191-13.892-5.953-13.932,2.954c-0.012,2.814,3.393,8.487,3.537,10.15
	c0.25,2.875,3.371,2.839,3.252,0.771c-0.396-6.791-1.928-9.468,0.314-11.458c0.496-0.44,4.701,0.839,6.559-0.063
	C27.344,15.883,27.149,14.094,26.328,14.153z"/>
<path fill="#916B50" d="M26.223,13.981c-2.59,0.191-4.166-2.274-5.182-3.9c-0.705-1.129-3.271-2.049-3.951-3.72
	c-0.762-1.875-0.939-4.36-0.939-4.36h-6.1c0,0,1.635,5.68,1.596,14.586c-0.012,2.814,1.467,7.378,3.629,9.406
	c0,0,0.25,0.803,0.693,1.991c0.828,2.221,3.246,1.656,2.787-0.364c-1.225-5.383-2.242-10.284,0-12.274
	c0.496-0.439,5.311,1.6,7.168,0.698C27.209,15.42,27.043,13.922,26.223,13.981z"/>
<path opacity="0.3" d="M37.67,14.153c2.592,0.191,13.895-5.953,13.932,2.954c0.014,2.814-3.391,8.487-3.535,10.15
	c-0.25,2.875-3.373,2.839-3.252,0.771c0.395-6.791,1.928-9.468-0.314-11.458c-0.496-0.44-4.703,0.839-6.559-0.063
	C36.656,15.883,36.852,14.094,37.67,14.153z"/>
<path fill="#916B50" d="M37.775,13.981c2.592,0.191,4.168-2.274,5.184-3.9c0.703-1.129,3.271-2.049,3.951-3.72
	c0.762-1.875,0.939-4.36,0.939-4.36h6.1c0,0-1.635,5.68-1.598,14.586c0.014,2.814-1.465,7.378-3.627,9.406
	c0,0-0.25,0.803-0.693,1.991c-0.828,2.221-3.248,1.656-2.787-0.364c1.223-5.383,2.242-10.284,0-12.274
	c-0.496-0.439-5.313,1.6-7.168,0.698C36.791,15.42,36.957,13.922,37.775,13.981z"/>
<path fill="#732EB0" d="M16,61.999h1C16.5,55.333,16.5,55.333,16,61.999z"/>
<path fill="#732EB0" d="M47,61.999h1C47.5,55.333,47.5,55.333,47,61.999z"/>
</svg>
