<?xml version="1.0" encoding="utf-8"?>
<!-- Generator: Adobe Illustrator 15.0.0, SVG Export Plug-In . SVG Version: 6.00 Build 0)  -->
<!DOCTYPE svg PUBLIC "-//W3C//DTD SVG 1.1//EN" "http://www.w3.org/Graphics/SVG/1.1/DTD/svg11.dtd" [
	<!ENTITY ns_flows "http://ns.adobe.com/Flows/1.0/">
	<!ENTITY ns_extend "http://ns.adobe.com/Extensibility/1.0/">
	<!ENTITY ns_ai "http://ns.adobe.com/AdobeIllustrator/10.0/">
	<!ENTITY ns_graphs "http://ns.adobe.com/Graphs/1.0/">
]>
<svg version="1.1" id="Layer_1" xmlns:x="&ns_extend;" xmlns:i="&ns_ai;" xmlns:graph="&ns_graphs;"
	 xmlns="http://www.w3.org/2000/svg" xmlns:xlink="http://www.w3.org/1999/xlink" xmlns:a="http://ns.adobe.com/AdobeSVGViewerExtensions/3.0/"
	 x="0px" y="0px" width="64px" height="64px" viewBox="0 0 64 64" enable-background="new 0 0 64 64" xml:space="preserve">
<path fill="#BEC3CF" d="M49.295,12.776c0,0-0.965-1.629-0.445-6.484c0.004-0.037,0.027-0.629-0.002-0.863
	c-0.254-2.141-2.275-3.664-4.516-3.398c-2.238,0.268-3.848,2.219-3.594,4.363c0.252,2.141,2.273,3.662,4.514,3.396
	c0.629-0.076,1.209-0.287,1.707-0.594c0.279,0.453-0.166,2.973-0.166,2.973s1.045,8.195,4.473,21.105L49.295,12.776z M46.891,5.663
	c0.133,1.107-0.701,2.117-1.859,2.254s-2.205-0.65-2.336-1.758c-0.133-1.107,0.701-2.115,1.859-2.254S46.762,4.556,46.891,5.663z"/>
<path fill="#40281F" d="M12.937,14.644c-8.131,34.903-7.387,34.155,9.73,34.155C13.195,42.172,31.341,14.169,12.937,14.644z"/>
<path fill="#4A2E24" d="M10.005,14.103c-5.936,26.52-0.814,33.329,3.73,34.696h5.211C6.757,40.212,25.81,13.581,10.005,14.103z"/>
<path fill="#40281F" d="M36.861,14.642c-4.364,17.938,6.342,35.058,18.992,35.909C20.234,63.803,18.457,14.167,36.861,14.642z"/>
<path fill="#4A2E24" d="M39.793,14.101c8.676,24.127,11.973,32.099,21.975,29.931C51.785,68.289,14.785,22.638,39.793,14.101z"/>
<path fill="#614036" d="M3.394,32.39c2.1,9.905,4.684,16.409,10.342,16.409c-6.309-6.531-5.566-20.308-3.771-23.735
	C19.103,19.622-0.161,15.634,3.394,32.39z"/>
<path fill="#8E3ED6" d="M6.078,50.43c2.301-1.412,12.199-5.139,12.199-5.139h13.518c0,0,9.889,3.721,12.18,5.135
	C47.299,52.48,48,62,48,62H2C2,62,2.742,52.473,6.078,50.43z"/>
<path fill="#755035" d="M18,45c0,6.75,14,6.75,14,0v-6.999H18V45z"/>
<path fill="#916B50" d="M25,6.255c-10.836,0-16.053,8.824-15.402,20.17c0.135,2.281,0.768,5.57,1.551,8.391
	C12.773,40.675,21.349,46.574,25,46.574s12.227-5.899,13.85-11.759c0.785-2.82,1.42-6.109,1.555-8.391
	C41.055,15.079,35.838,6.255,25,6.255z"/>
<path fill="#7A421B" d="M25,37.218c-2.635-1.16-2.654-0.049-6.719,0.225c1.525,1.732,2.648,3.96,6.717,3.96
	c4.67,0,5.459-2.53,6.723-3.96C27.652,37.169,27.634,36.058,25,37.218z"/>
<path fill="#FFFFFF" d="M19.5,37.872c2.656,2.764,8.379,2.729,11,0.002C26.412,38.313,23.589,38.313,19.5,37.872z"/>
<path fill="#423225" d="M36.941,22.302c-2.441-1.453-6.821-1.633-8.555-0.641c-0.365,0.201-0.268,1.252,0.051,1.121
	c2.471-1.029,6.235-1.08,8.555,0.109C37.305,23.048,37.311,22.515,36.941,22.302z"/>
<path fill="#423225" d="M13.06,22.302c2.441-1.453,6.818-1.633,8.555-0.641c0.367,0.201,0.27,1.252-0.051,1.121
	c-2.473-1.029-6.234-1.082-8.555,0.109C12.697,23.048,12.689,22.515,13.06,22.302z"/>
<path fill="#755035" d="M28.359,33.257c0,2.186-6.719,2.186-6.719,0C21.64,32.753,28.359,32.753,28.359,33.257z"/>
<path fill="#FFFFFF" d="M36.705,26.735c-1.447,3.787-7.336,3.232-8.415,0.582C29.107,23.054,35.908,22.688,36.705,26.735z"/>
<path fill="#613F34" d="M29.765,26.323c0,3.355,4.854,3.355,4.854,0C34.619,23.206,29.765,23.206,29.765,26.323z"/>
<path fill="#7D5037" d="M30.246,27.396c0,1.926,3.893,1.926,3.893,0C34.139,25.61,30.246,25.61,30.246,27.396z"/>
<path fill="#1A1626" d="M31.185,26.376c0,1.393,2.014,1.393,2.014,0C33.199,25.083,31.185,25.083,31.185,26.376z"/>
<path fill="#AB968C" d="M30.496,25.97c0,0.703,1.018,0.703,1.018,0C31.513,25.315,30.496,25.315,30.496,25.97z"/>
<path fill="#45332C" d="M36.705,26.706c0-4.072-8.415-4.072-8.415,0.645C29.49,23.479,35.504,23.479,36.705,26.706z"/>
<path fill="#FFFFFF" d="M13.294,26.735c1.449,3.787,7.34,3.232,8.418,0.582C20.894,23.054,14.093,22.688,13.294,26.735z"/>
<path fill="#613F34" d="M15.382,26.329c0,3.355,4.852,3.355,4.852,0C20.234,23.212,15.382,23.212,15.382,26.329z"/>
<path fill="#7D5037" d="M15.861,27.401c0,1.924,3.895,1.924,3.895,0C19.755,25.616,15.861,25.616,15.861,27.401z"/>
<path fill="#1A1626" d="M16.8,26.382c0,1.393,2.018,1.393,2.018,0C18.818,25.087,16.8,25.087,16.8,26.382z"/>
<path fill="#AB968C" d="M16.113,25.974c0,0.705,1.018,0.705,1.018,0C17.13,25.321,16.113,25.321,16.113,25.974z"/>
<path fill="#45332C" d="M13.294,26.706c0-4.072,8.418-4.072,8.418,0.643C20.513,23.478,14.498,23.478,13.294,26.706z"/>
<path fill="#614036" d="M37.107,7.833c-7.598,7.785-0.346,8.287,4.129,19.232c2.512,6.133,6.102,13.755,7.814,2.779
	C51.189,16.128,40.969,6.688,37.107,7.833z"/>
<path fill="#614036" d="M18.457,4.851C8.822,7.118-0.161,15.634,3.394,32.39c2.1,9.905,4.775-3.898,6.57-7.326
	c9.139-5.441,24.768-9.561,27.143-17.23C38.314,6.062,28.099,2.325,18.457,4.851z"/>
<path fill="#732EB0" d="M9,62h1C9.5,55.334,9.5,55.334,9,62z"/>
<path fill="#732EB0" d="M40,62h1C40.5,55.334,40.5,55.334,40,62z"/>
<path fill="#614036" d="M40.459,25.315C44.08,54.881,62,51.512,62,42.262c-3.457,2.492-8.957-2.368-10.547-10.815
	c-1.053-5.59-3.459-16.6-7.934-20.389C37.145,5.907,38.092,18.515,40.459,25.315z"/>
<path fill="#4A2E24" d="M11.074,17.056c4.074-0.826,23.567-1.215,26.034-9.223C32.501,11.503,27.73,12.503,11.074,17.056z"/>
<path fill="#4A2E24" d="M4.05,29.796c6.834-9.123,29.227-8.117,33.057-21.963C29.671,19.454,5.917,21.024,4.05,29.796z"/>
<path fill="#4A2E24" d="M34.855,9.729c-1.766,2.781,8.307,1.783,13.379,25.168C46.518,16.179,38.615,8.657,34.855,9.729z"/>
<path fill="#CFD8DD" d="M61.109,11.823c1.406-1.703,1.117-4.162-0.648-5.486c-1.762-1.328-4.33-1.025-5.736,0.68
	c-0.15,0.186-0.461,0.701-0.479,0.736c-2.252,4.395-3.766,5.443-3.766,5.443c-0.857-1.029-3.414-0.561-3.01,1.924
	c0.227,1.377-4.145,5.955-7.494,15.148l12.766-16.496c0,0,1.018-2.365,1.502-2.617c0.26,0.512,0.635,0.973,1.129,1.346
	C57.141,13.827,59.705,13.524,61.109,11.823z M59.57,10.661c-0.725,0.881-2.055,1.037-2.967,0.352s-1.064-1.957-0.336-2.838
	c0.727-0.879,2.055-1.037,2.969-0.352C60.146,8.511,60.297,9.782,59.57,10.661z"/>
<path fill="#302C3B" d="M50.166,15.315c0.369-0.453,0.295-1.104-0.174-1.455s-1.148-0.27-1.521,0.178
	c-0.371,0.453-0.297,1.104,0.174,1.455C49.109,15.847,49.789,15.765,50.166,15.315z"/>
</svg>
