<?xml version="1.0" encoding="utf-8"?>
<!-- Generator: Adobe Illustrator 15.0.0, SVG Export Plug-In . SVG Version: 6.00 Build 0)  -->
<!DOCTYPE svg PUBLIC "-//W3C//DTD SVG 1.1//EN" "http://www.w3.org/Graphics/SVG/1.1/DTD/svg11.dtd" [
	<!ENTITY ns_flows "http://ns.adobe.com/Flows/1.0/">
	<!ENTITY ns_extend "http://ns.adobe.com/Extensibility/1.0/">
	<!ENTITY ns_ai "http://ns.adobe.com/AdobeIllustrator/10.0/">
	<!ENTITY ns_graphs "http://ns.adobe.com/Graphs/1.0/">
]>
<svg version="1.1" id="Layer_1" xmlns:x="&ns_extend;" xmlns:i="&ns_ai;" xmlns:graph="&ns_graphs;"
	 xmlns="http://www.w3.org/2000/svg" xmlns:xlink="http://www.w3.org/1999/xlink" xmlns:a="http://ns.adobe.com/AdobeSVGViewerExtensions/3.0/"
	 x="0px" y="0px" width="64px" height="64px" viewBox="0 0 64 64" enable-background="new 0 0 64 64" xml:space="preserve">
<path fill="#3B2C29" d="M22.75,28.227c-6.171,29.605-5.605,28.972,7.387,28.972C22.947,51.577,36.718,27.823,22.75,28.227z"/>
<path fill="#453631" d="M20.525,27.768c-4.504,22.493-0.618,28.27,2.832,29.431h3.954C18.06,49.913,32.521,27.325,20.525,27.768z"/>
<path fill="#3B2C29" d="M40.909,28.226c6.17,29.605,5.604,28.972-7.385,28.972C40.134,52.686,26.94,27.822,40.909,28.226z"/>
<path fill="#453631" d="M43.134,27.767c6.583,20.464-0.015,28.483-2.833,29.431h-3.953C45.6,50.508,31.139,27.324,43.134,27.767z"/>
<path fill="#594640" d="M17.021,35.684c-0.305,15.848,2.646,21.515,6.501,21.515c-4.594-10.284-2.424-21.534-2.424-21.534
	L17.021,35.684z"/>
<path fill="#594640" d="M46.978,35.684c0.305,15.848-2.646,21.515-6.501,21.515C45.07,46.914,42.9,35.664,42.9,35.664L46.978,35.684
	z"/>
<path fill="#E81C27" d="M18.015,56.61c1.701-0.796,8.757-2.895,8.757-2.895h10.515c0,0,7.049,2.095,8.739,2.893
	C48.484,57.764,49,62,49,62H15C15,62,15.549,57.762,18.015,56.61z"/>
<path fill="#302C3B" d="M39.279,54.192l0.633,1.626c0,0,5.394,1.803,6.664,2.275c1.262,0.47,0.751-1.045-0.241-1.592
	C45.964,56.296,41.475,54.702,39.279,54.192z"/>
<path fill="#FFE12C" d="M41.572,55.37c0.415,0.649-0.775,0.617-1.224-0.021C39.849,54.639,41.137,54.694,41.572,55.37z"/>
<path fill="#302C3B" d="M24.722,54.192l-0.635,1.626c0,0-5.392,1.803-6.664,2.275c-1.26,0.47-0.749-1.045,0.241-1.592
	C18.035,56.296,22.526,54.702,24.722,54.192z"/>
<path fill="#FFE12C" d="M22.429,55.37c-0.417,0.649,0.773,0.617,1.224-0.021C24.152,54.639,22.864,54.694,22.429,55.37z"/>
<path fill="#B00505" d="M19.064,62c0.363-1.065-0.063-2.689-0.515-3.584C18.129,57.584,18.288,61.414,19.064,62z"/>
<path fill="#B00505" d="M45.451,58.416c-0.453,0.895-0.878,2.519-0.517,3.584C45.711,61.414,45.87,57.584,45.451,58.416z"/>
<rect x="31.324" y="57.036" fill="#E6EBEF" width="0.677" height="4.964"/>
<path fill="#FFE12C" d="M34.846,60.319c0,0.952-1.699,0.952-1.699,0C33.146,59.366,34.846,59.366,34.846,60.319z"/>
<path fill="#E6B045" d="M26.452,55.728l4.872,1.842h1.352c0,0,5.08-0.677,5.08-5.461l-11.304-2.807V55.728z"/>
<path fill="#302C3B" d="M25.815,53.824c0-0.518,0-1.492,0-2.143c0-0.161,0.782-0.15,0.782-0.15
	c-0.485,5.019,4.727,5.064,4.727,5.064v2.228C31.324,58.823,25.815,58.805,25.815,53.824z"/>
<path fill="#E6EBEF" d="M25.815,51.682c0-0.161,0.782-0.15,0.782-0.15c0,4.786,4.727,5.064,4.727,5.064v0.534
	C29.345,57.13,25.815,55.751,25.815,51.682z"/>
<path fill="#FFE12C" d="M29.916,57.922c-0.395,0.47-1.416-0.047-1.02-0.519C29.291,56.934,30.312,57.453,29.916,57.922z"/>
<path fill="#302C3B" d="M38.187,53.824c0-0.518,0-1.492,0-2.143c0-0.161-0.782-0.15-0.782-0.15c0.47,4.961-4.729,5.064-4.729,5.064
	v2.228C32.676,58.823,38.187,58.805,38.187,53.824z"/>
<path fill="#E6EBEF" d="M38.187,51.682c0-0.161-0.782-0.15-0.782-0.15c0,4.786-4.729,5.064-4.729,5.064v0.534
	C34.657,57.13,38.187,55.751,38.187,51.682z"/>
<path fill="#FFE12C" d="M34.085,57.922c0.396,0.47,1.417-0.047,1.021-0.519C34.711,56.934,33.69,57.453,34.085,57.922z"/>
<path fill="#FFCC66" d="M31.905,21.111c-9.19,0-13.617,7.485-13.063,17.108c0.112,1.935,0.65,4.726,1.314,7.116
	c1.379,4.971,8.652,9.976,11.749,9.976s10.37-5.005,11.749-9.976c0.664-2.391,1.202-5.182,1.316-7.116
	C45.522,28.597,41.098,21.111,31.905,21.111z"/>
<path fill="#594640" d="M42.034,34.724c-2.07-1.234-5.785-1.385-7.255-0.544c-0.312,0.17-0.228,1.062,0.041,0.95
	c2.097-0.873,5.29-0.917,7.259,0.093C42.343,35.356,42.348,34.903,42.034,34.724z"/>
<path fill="#594640" d="M21.777,34.724c2.07-1.234,5.785-1.385,7.257-0.544c0.312,0.17,0.229,1.062-0.043,0.95
	c-2.097-0.873-5.288-0.918-7.257,0.093C21.47,35.356,21.465,34.903,21.777,34.724z"/>
<path fill="#E6B045" d="M34.756,44.014c0,1.854-5.7,1.854-5.7,0C29.056,43.589,34.756,43.589,34.756,44.014z"/>
<path fill="#FFFFFF" d="M41.834,38.482c-1.229,3.214-6.223,2.742-7.138,0.493C35.39,35.361,41.158,35.052,41.834,38.482z"/>
<path fill="#613F34" d="M35.948,38.133c0,2.847,4.116,2.847,4.116,0C40.064,35.49,35.948,35.49,35.948,38.133z"/>
<path fill="#7D5037" d="M36.354,39.043c0,1.633,3.303,1.633,3.303,0C39.657,37.528,36.354,37.528,36.354,39.043z"/>
<path fill="#1A1626" d="M37.151,38.178c0,1.181,1.71,1.181,1.71,0C38.861,37.081,37.151,37.081,37.151,38.178z"/>
<path fill="#AB968C" d="M36.568,37.832c0,0.597,0.862,0.597,0.862,0C37.431,37.278,36.568,37.278,36.568,37.832z"/>
<path fill="#45332C" d="M41.834,38.457c0-3.452-7.138-3.452-7.138,0.547C35.715,35.723,40.815,35.723,41.834,38.457z"/>
<path fill="#FFFFFF" d="M21.978,38.482c1.229,3.214,6.225,2.743,7.14,0.493C28.424,35.361,22.654,35.052,21.978,38.482z"/>
<path fill="#613F34" d="M23.747,38.137c0,2.847,4.117,2.847,4.117,0C27.864,35.495,23.747,35.495,23.747,38.137z"/>
<path fill="#7D5037" d="M24.154,39.048c0,1.632,3.303,1.632,3.303,0C27.457,37.532,24.154,37.532,24.154,39.048z"/>
<path fill="#1A1626" d="M24.951,38.182c0,1.182,1.709,1.182,1.709,0C26.66,37.085,24.951,37.085,24.951,38.182z"/>
<path fill="#AB968C" d="M24.367,37.837c0,0.597,0.863,0.597,0.863,0C25.23,37.282,24.367,37.282,24.367,37.837z"/>
<path fill="#45332C" d="M21.978,38.457c0-3.452,7.14-3.452,7.14,0.546C28.099,35.722,22.998,35.722,21.978,38.457z"/>
<path fill="#302C3B" d="M43.357,31.715v8.119c0,5.916-4.987,10.549-11.356,10.549c-6.368,0-11.357-4.633-11.357-10.549v-8.119
	h-1.893v8.119c0,6.941,5.932,12.406,13.25,12.406c7.315,0,13.25-5.465,13.25-12.406v-8.119H43.357z"/>
<path fill="#302C3B" d="M48.713,33.898c0,5.996-5.576,2.018-7.426,1.529c-4.491-1.178-14.079-1.176-18.573,0
	c-1.848,0.488-7.428,4.467-7.428-1.529V11.371c0-12.494,33.427-12.494,33.427,0V33.898z"/>
<path fill="#D99025" d="M32.001,47.83c-1.521-0.179-3.08-0.203-4.651-0.061c3.393,2.36,5.908,2.36,9.301,0
	C35.08,47.627,33.522,47.651,32.001,47.83z"/>
<path fill="#D47706" d="M33.854,47.242c-1.368-0.49-1.862,0.166-1.853,0.157c0.01,0.009-0.486-0.647-1.853-0.157
	c-1.051,0.367-2.799,0.513-2.799,0.527c1.909-0.025,2.19,0.479,4.651,0.412c2.461,0.066,2.741-0.438,4.649-0.412
	C36.651,47.755,34.903,47.609,33.854,47.242z"/>
</svg>
