<?xml version="1.0" encoding="utf-8"?>
<!-- Generator: Adobe Illustrator 15.0.0, SVG Export Plug-In . SVG Version: 6.00 Build 0)  -->
<!DOCTYPE svg PUBLIC "-//W3C//DTD SVG 1.1//EN" "http://www.w3.org/Graphics/SVG/1.1/DTD/svg11.dtd" [
	<!ENTITY ns_flows "http://ns.adobe.com/Flows/1.0/">
	<!ENTITY ns_extend "http://ns.adobe.com/Extensibility/1.0/">
	<!ENTITY ns_ai "http://ns.adobe.com/AdobeIllustrator/10.0/">
	<!ENTITY ns_graphs "http://ns.adobe.com/Graphs/1.0/">
]>
<svg version="1.1" id="Layer_1" xmlns:x="&ns_extend;" xmlns:i="&ns_ai;" xmlns:graph="&ns_graphs;"
	 xmlns="http://www.w3.org/2000/svg" xmlns:xlink="http://www.w3.org/1999/xlink" xmlns:a="http://ns.adobe.com/AdobeSVGViewerExtensions/3.0/"
	 x="0px" y="0px" width="64px" height="64px" viewBox="0 0 64 64" enable-background="new 0 0 64 64" xml:space="preserve">
<path fill="#BEC3CF" d="M49.294,12.775c0,0-0.965-1.628-0.445-6.483c0.004-0.038,0.027-0.629-0.002-0.863
	c-0.254-2.142-2.275-3.664-4.516-3.398c-2.238,0.268-3.848,2.219-3.594,4.363c0.252,2.14,2.273,3.662,4.514,3.396
	c0.629-0.076,1.209-0.287,1.707-0.594c0.279,0.452-0.166,2.973-0.166,2.973s1.045,8.195,4.473,21.104L49.294,12.775z M46.89,5.662
	c0.133,1.107-0.701,2.117-1.859,2.255c-1.158,0.137-2.205-0.651-2.336-1.758c-0.133-1.107,0.701-2.116,1.859-2.254
	C45.712,3.767,46.761,4.555,46.89,5.662z"/>
<path fill="#3B2C29" d="M12.938,14.644c-8.131,34.903-7.388,34.155,9.73,34.155C13.195,42.172,31.342,14.169,12.938,14.644z"/>
<path fill="#453631" d="M10.005,14.103C4.07,40.623,9.19,47.432,13.736,48.799h5.21C6.757,40.213,25.811,13.581,10.005,14.103z"/>
<path fill="#3B2C29" d="M36.861,14.642c-4.363,17.938,6.341,35.058,18.991,35.909C20.234,63.805,18.457,14.167,36.861,14.642z"/>
<path fill="#453631" d="M39.793,14.101c8.675,24.128,11.972,32.099,21.974,29.931C51.785,68.289,14.785,22.638,39.793,14.101z"/>
<path fill="#594640" d="M3.394,32.391c2.1,9.904,4.685,16.408,10.343,16.408C7.428,42.268,8.17,28.491,9.964,25.063
	C19.103,19.622-0.16,15.634,3.394,32.391z"/>
<path fill="#8E3ED6" d="M6.077,50.43c2.302-1.41,12.2-5.137,12.2-5.137h13.517c0,0,9.89,3.721,12.18,5.133C47.298,52.48,48,62,48,62
	H2C2,62,2.741,52.473,6.077,50.43z"/>
<path fill="#E6B045" d="M18,45c0,6.75,14,6.75,14,0v-7H18V45z"/>
<path fill="#FFCC66" d="M25,6.255c-10.836,0-16.054,8.824-15.402,20.17c0.134,2.281,0.768,5.571,1.551,8.392
	C12.773,40.674,21.35,46.574,25,46.574c3.649,0,12.227-5.9,13.85-11.758c0.785-2.821,1.419-6.11,1.555-8.392
	C41.054,15.079,35.838,6.255,25,6.255z"/>
<path fill="#D47706" d="M25,37.219c-2.635-1.16-2.654-0.049-6.719,0.225c1.525,1.732,2.648,3.959,6.717,3.959
	c4.67,0,5.459-2.529,6.723-3.959C27.652,37.17,27.635,36.059,25,37.219z"/>
<path fill="#FFFFFF" d="M19.5,37.873c2.655,2.764,8.378,2.729,11,0.002C26.412,38.314,23.59,38.314,19.5,37.873z"/>
<path fill="#594640" d="M36.941,22.302c-2.442-1.453-6.82-1.633-8.555-0.641c-0.366,0.201-0.268,1.252,0.05,1.121
	c2.472-1.029,6.235-1.08,8.556,0.109C37.305,23.048,37.311,22.515,36.941,22.302z"/>
<path fill="#594640" d="M13.061,22.302c2.44-1.453,6.818-1.633,8.555-0.641c0.366,0.201,0.27,1.252-0.051,1.121
	c-2.473-1.029-6.234-1.082-8.555,0.109C12.697,23.048,12.689,22.515,13.061,22.302z"/>
<path fill="#E6B045" d="M28.359,33.258c0,2.186-6.719,2.186-6.719,0C21.641,32.754,28.359,32.754,28.359,33.258z"/>
<path fill="#FFFFFF" d="M36.705,26.735c-1.447,3.787-7.337,3.232-8.414,0.582C29.107,23.054,35.908,22.688,36.705,26.735z"/>
<path fill="#613F34" d="M29.766,26.323c0,3.355,4.854,3.355,4.854,0C34.619,23.206,29.766,23.206,29.766,26.323z"/>
<path fill="#7D5037" d="M30.245,27.396c0,1.926,3.894,1.926,3.894,0C34.139,25.61,30.245,25.61,30.245,27.396z"/>
<path fill="#1A1626" d="M31.185,26.376c0,1.393,2.015,1.393,2.015,0C33.199,25.083,31.185,25.083,31.185,26.376z"/>
<path fill="#AB968C" d="M30.496,25.97c0,0.703,1.018,0.703,1.018,0C31.514,25.315,30.496,25.315,30.496,25.97z"/>
<path fill="#45332C" d="M36.705,26.706c0-4.072-8.414-4.072-8.414,0.645C29.489,23.479,35.504,23.479,36.705,26.706z"/>
<path fill="#FFFFFF" d="M13.295,26.735c1.449,3.787,7.339,3.232,8.418,0.582C20.895,23.054,14.094,22.688,13.295,26.735z"/>
<path fill="#613F34" d="M15.383,26.329c0,3.355,4.852,3.355,4.852,0C20.234,23.212,15.383,23.212,15.383,26.329z"/>
<path fill="#7D5037" d="M15.861,27.401c0,1.924,3.895,1.924,3.895,0C19.756,25.616,15.861,25.616,15.861,27.401z"/>
<path fill="#1A1626" d="M16.801,26.382c0,1.393,2.017,1.393,2.017,0C18.817,25.087,16.801,25.087,16.801,26.382z"/>
<path fill="#AB968C" d="M16.113,25.974c0,0.705,1.018,0.705,1.018,0C17.131,25.321,16.113,25.321,16.113,25.974z"/>
<path fill="#45332C" d="M13.295,26.706c0-4.072,8.418-4.072,8.418,0.643C20.513,23.478,14.498,23.478,13.295,26.706z"/>
<path fill="#594640" d="M37.107,7.833c-7.598,7.785-0.346,8.287,4.129,19.232c2.512,6.134,6.102,13.755,7.814,2.779
	C51.189,16.128,40.969,6.688,37.107,7.833z"/>
<path fill="#594640" d="M18.457,4.851C8.822,7.118-0.16,15.634,3.394,32.391c2.1,9.904,4.776-3.899,6.57-7.327
	c9.139-5.441,24.769-9.561,27.144-17.23C38.313,6.062,28.099,2.325,18.457,4.851z"/>
<path fill="#732EB0" d="M9,62h1C9.5,55.334,9.5,55.334,9,62z"/>
<path fill="#732EB0" d="M40,62h1C40.5,55.334,40.5,55.334,40,62z"/>
<path fill="#594640" d="M40.458,25.315C44.08,54.883,62,51.512,62,42.262c-3.458,2.492-8.958-2.369-10.548-10.815
	c-1.053-5.591-3.458-16.601-7.933-20.389C37.145,5.906,38.091,18.515,40.458,25.315z"/>
<path fill="#453631" d="M11.074,17.056c4.074-0.826,23.566-1.215,26.033-9.223C32.502,11.503,27.729,12.503,11.074,17.056z"/>
<path fill="#453631" d="M4.05,29.796c6.835-9.123,29.228-8.117,33.058-21.963C29.672,19.454,5.918,21.024,4.05,29.796z"/>
<path fill="#453631" d="M34.855,9.729c-1.766,2.781,8.306,1.782,13.379,25.167C46.518,16.179,38.615,8.657,34.855,9.729z"/>
<path fill="#CFD8DD" d="M61.108,11.822c1.406-1.703,1.117-4.161-0.648-5.485c-1.762-1.328-4.33-1.025-5.736,0.679
	c-0.15,0.186-0.461,0.702-0.479,0.737c-2.252,4.395-3.766,5.443-3.766,5.443c-0.857-1.03-3.414-0.561-3.01,1.923
	c0.227,1.377-4.145,5.956-7.494,15.148l12.766-16.496c0,0,1.018-2.364,1.502-2.617c0.26,0.512,0.635,0.974,1.129,1.347
	C57.14,13.826,59.704,13.524,61.108,11.822z M59.569,10.661c-0.725,0.88-2.055,1.037-2.967,0.351
	c-0.912-0.685-1.064-1.957-0.336-2.837c0.727-0.879,2.055-1.037,2.969-0.353C60.146,8.511,60.296,9.781,59.569,10.661z"/>
<path fill="#302C3B" d="M50.165,15.314c0.369-0.452,0.295-1.104-0.174-1.454c-0.469-0.352-1.148-0.271-1.521,0.178
	c-0.371,0.453-0.297,1.103,0.174,1.455C49.108,15.847,49.788,15.765,50.165,15.314z"/>
</svg>
