<?xml version="1.0" encoding="utf-8"?>
<!-- Generator: Adobe Illustrator 19.0.0, SVG Export Plug-In . SVG Version: 6.00 Build 0)  -->
<svg version="1.1" id="Layer_1" xmlns="http://www.w3.org/2000/svg" xmlns:xlink="http://www.w3.org/1999/xlink" x="0px" y="0px"
	 width="64px" height="64px" viewBox="0 0 64 64" enable-background="new 0 0 64 64" xml:space="preserve">
<path fill="#5C3A2E" d="M12.937,14.643c-8.131,34.903-7.388,34.155,9.73,34.155C13.195,42.171,31.342,14.168,12.937,14.643z"/>
<path fill="#6B4435" d="M10.005,14.102C4.07,40.621,9.19,47.431,13.736,48.798h5.21C6.757,40.211,25.81,13.58,10.005,14.102z"/>
<path fill="#5C3A2E" d="M36.861,14.641c8.132,34.905,7.387,34.157-9.73,34.157C35.843,43.48,18.457,14.166,36.861,14.641z"/>
<path fill="#6B4435" d="M39.793,14.1c8.675,24.127-0.018,33.581-3.732,34.698h-5.207C43.045,40.91,23.99,13.578,39.793,14.1z"/>
<path fill="#875B49" d="M41.236,27.065c2.512,6.133,0.027,18.722-5.176,21.733c5.767,0,9.277-7.978,10.99-18.954
	C49.189,16.127,36.761,16.119,41.236,27.065z"/>
<path fill="#875B49" d="M3.393,32.389c2.1,9.905,4.685,16.409,10.343,16.409C7.427,42.267,8.17,28.491,9.964,25.063
	C19.102,19.621-0.16,15.633,3.393,32.389z"/>
<path fill="#8E3ED6" d="M6.077,50.429c2.302-1.412,12.2-5.139,12.2-5.139h13.517c0,0,9.89,3.721,12.18,5.135
	C47.298,52.48,48,61.999,48,61.999H2C2,61.999,2.741,52.472,6.077,50.429z"/>
<path fill="#946346" d="M18,44.999c0,6.75,14,6.75,14,0v-7H18V44.999z"/>
<path fill="#B88A6F" d="M25,6.254c-10.836,0-16.054,8.824-15.402,20.17c0.134,2.281,0.768,5.57,1.551,8.391
	C12.773,40.673,21.349,46.574,25,46.574c3.649,0,12.226-5.9,13.85-11.759c0.785-2.82,1.419-6.109,1.555-8.391
	C41.053,15.078,35.838,6.254,25,6.254z"/>
<path fill="#84401E" d="M25,37.217c-2.635-1.16-2.654-0.049-6.719,0.225c1.525,1.732,2.649,3.96,6.717,3.96
	c4.67,0,5.459-2.53,6.723-3.96C27.652,37.168,27.634,36.057,25,37.217z"/>
<path fill="#FFFFFF" d="M19.5,37.871c2.655,2.764,8.378,2.728,11,0.002C26.412,38.313,23.59,38.313,19.5,37.871z"/>
<path fill="#423225" d="M36.941,22.301c-2.442-1.453-6.82-1.633-8.555-0.641c-0.366,0.201-0.268,1.252,0.05,1.121
	c2.472-1.029,6.235-1.08,8.556,0.109C37.304,23.047,37.31,22.514,36.941,22.301z"/>
<path fill="#423225" d="M13.06,22.301c2.441-1.453,6.818-1.633,8.555-0.641c0.366,0.201,0.269,1.252-0.051,1.121
	c-2.473-1.029-6.234-1.082-8.555,0.109C12.697,23.047,12.689,22.514,13.06,22.301z"/>
<path fill="#946346" d="M28.359,33.256c0,2.186-6.719,2.186-6.719,0C21.64,32.752,28.359,32.752,28.359,33.256z"/>
<path fill="#FFFFFF" d="M36.705,26.735c-1.447,3.787-7.337,3.232-8.414,0.582C29.107,23.053,35.908,22.688,36.705,26.735z"/>
<path fill="#613F34" d="M29.765,26.323c0,3.356,4.853,3.356,4.853,0C34.619,23.205,29.765,23.205,29.765,26.323z"/>
<path fill="#7D5037" d="M30.245,27.395c0,1.926,3.894,1.926,3.894,0C34.138,25.61,30.245,25.61,30.245,27.395z"/>
<path fill="#1A1626" d="M31.184,26.375c0,1.393,2.015,1.393,2.015,0C33.199,25.082,31.184,25.082,31.184,26.375z"/>
<path fill="#AB968C" d="M30.496,25.969c0,0.703,1.018,0.703,1.018,0C31.513,25.315,30.496,25.315,30.496,25.969z"/>
<path fill="#45332C" d="M36.705,26.705c0-4.072-8.414-4.072-8.414,0.645C29.489,23.479,35.504,23.479,36.705,26.705z"/>
<path fill="#FFFFFF" d="M13.295,26.735c1.449,3.787,7.339,3.232,8.418,0.582C20.894,23.053,14.093,22.688,13.295,26.735z"/>
<path fill="#613F34" d="M15.383,26.328c0,3.355,4.852,3.355,4.852,0C20.234,23.211,15.383,23.211,15.383,26.328z"/>
<path fill="#7D5037" d="M15.861,27.401c0,1.924,3.895,1.924,3.895,0C19.756,25.616,15.861,25.616,15.861,27.401z"/>
<path fill="#1A1626" d="M16.801,26.381c0,1.393,2.017,1.393,2.017,0C18.817,25.086,16.801,25.086,16.801,26.381z"/>
<path fill="#AB968C" d="M16.113,25.973c0,0.705,1.017,0.705,1.017,0C17.131,25.321,16.113,25.321,16.113,25.973z"/>
<path fill="#45332C" d="M13.295,26.705c0-4.072,8.418-4.072,8.418,0.642C20.512,23.477,14.498,23.477,13.295,26.705z"/>
<path fill="#875B49" d="M37.107,7.832c-7.598,7.785-0.346,8.287,4.129,19.232c2.512,6.133,4.102,13.755,5.815,2.779
	C49.189,16.127,40.968,6.688,37.107,7.832z"/>
<path fill="#875B49" d="M18.457,4.85C8.822,7.118-0.16,15.633,3.393,32.389c2.1,9.905,4.776-3.898,6.57-7.326
	c9.139-5.441,24.769-9.561,27.144-17.23C38.313,6.061,28.098,2.325,18.457,4.85z"/>
<path fill="#6B4435" d="M11.074,17.055c4.074-0.826,23.566-1.215,26.033-9.223C32.502,11.502,27.729,12.502,11.074,17.055z"/>
<path fill="#6B4435" d="M4.05,29.795c6.835-9.123,29.227-8.117,33.058-21.963C29.672,19.453,5.918,21.024,4.05,29.795z"/>
<path fill="#6B4435" d="M34.855,9.729c-1.766,2.781,4.364-1.303,10.971,16.6C44.198,15.862,38.615,8.657,34.855,9.729z"/>
<path fill="#946346" d="M53.093,40.837c0.611-0.342,0.564-1.785-0.917-1.404c-3.563,0.915-5.712,1.596-6.733,3.496
	C44.753,44.21,48.788,42.79,53.093,40.837z"/>
<path fill="#732EB0" d="M9,61.999h1C9.5,55.333,9.5,55.333,9,61.999z"/>
<linearGradient id="SVGID_1_" gradientUnits="userSpaceOnUse" x1="43.0077" y1="56.5005" x2="38.6658" y2="55.3965">
	<stop  offset="0" style="stop-color:#5D1E96"/>
	<stop  offset="0.093" style="stop-color:#6825A5"/>
	<stop  offset="0.2674" style="stop-color:#7930BB"/>
	<stop  offset="0.4596" style="stop-color:#8538CA"/>
	<stop  offset="0.6813" style="stop-color:#8C3DD3"/>
	<stop  offset="1" style="stop-color:#8E3ED6"/>
</linearGradient>
<path fill="url(#SVGID_1_)" d="M35.441,61.999h7.769l0.31-11.938l-4.99-2.123C38.529,47.939,35.731,57.906,35.441,61.999z"/>
<path fill="#8E3ED6" d="M51.843,61.999c0,0-0.467-15.172-1.031-15.766c-1.053-1.104-5.824-0.666-6.635,0.021
	c-0.811,0.688-2.334,15.744-2.334,15.744H51.843z"/>
<path fill="#B88A6F" d="M50.453,46.749c-0.088-0.662,0.328-1.234,0.328-1.234s12.961-2.807,11.021-5.51
	c-0.836-1.162-5.111,0.26-8.902,0.695c-2.307,0.266-8.887-0.998-8.268,6.049C44.759,48.201,50.556,47.54,50.453,46.749z"/>
</svg>
