<?xml version="1.0" encoding="utf-8"?>
<!-- Generator: Adobe Illustrator 15.0.0, SVG Export Plug-In . SVG Version: 6.00 Build 0)  -->
<!DOCTYPE svg PUBLIC "-//W3C//DTD SVG 1.1//EN" "http://www.w3.org/Graphics/SVG/1.1/DTD/svg11.dtd" [
	<!ENTITY ns_flows "http://ns.adobe.com/Flows/1.0/">
	<!ENTITY ns_extend "http://ns.adobe.com/Extensibility/1.0/">
	<!ENTITY ns_ai "http://ns.adobe.com/AdobeIllustrator/10.0/">
	<!ENTITY ns_graphs "http://ns.adobe.com/Graphs/1.0/">
]>
<svg version="1.1" id="Layer_1" xmlns:x="&ns_extend;" xmlns:i="&ns_ai;" xmlns:graph="&ns_graphs;"
	 xmlns="http://www.w3.org/2000/svg" xmlns:xlink="http://www.w3.org/1999/xlink" xmlns:a="http://ns.adobe.com/AdobeSVGViewerExtensions/3.0/"
	 x="0px" y="0px" width="64px" height="64px" viewBox="0 0 64 64" enable-background="new 0 0 64 64" xml:space="preserve">
<path fill="#211E1A" d="M22.75,28.226c-6.17,29.605-5.605,28.97,7.387,28.97C22.947,51.575,36.719,27.822,22.75,28.226z"/>
<path fill="#26221E" d="M20.525,27.767c-4.504,22.492-0.617,28.269,2.832,29.429h3.955C18.061,49.911,32.521,27.324,20.525,27.767z"
	/>
<path fill="#211E1A" d="M40.91,28.224c6.17,29.605,5.604,28.972-7.385,28.972C40.135,52.685,26.941,27.822,40.91,28.224z"/>
<path fill="#26221E" d="M43.135,27.765c6.582,20.464-0.016,28.484-2.834,29.431h-3.953C45.6,50.507,31.139,27.324,43.135,27.765z"/>
<path fill="#38332D" d="M17.021,35.683c-0.305,15.848,2.646,21.514,6.502,21.514C18.93,46.913,21.1,35.663,21.1,35.663
	L17.021,35.683z"/>
<path fill="#38332D" d="M46.979,35.683c0.305,15.848-2.646,21.514-6.502,21.514C45.07,46.913,42.9,35.663,42.9,35.663L46.979,35.683
	z"/>
<path fill="#E81C27" d="M18.016,56.608c1.701-0.795,8.756-2.895,8.756-2.895h10.516c0,0,7.049,2.096,8.738,2.893
	C48.484,57.763,49,61.999,49,61.999H15C15,61.999,15.549,57.761,18.016,56.608z"/>
<path fill="#302C3B" d="M39.279,54.19l0.633,1.627c0,0,5.395,1.803,6.664,2.275c1.262,0.469,0.752-1.045-0.24-1.592
	C45.965,56.294,41.475,54.7,39.279,54.19z"/>
<path fill="#FFE12C" d="M41.572,55.368c0.416,0.65-0.775,0.617-1.223-0.021C39.85,54.638,41.137,54.692,41.572,55.368z"/>
<path fill="#302C3B" d="M24.723,54.19l-0.635,1.627c0,0-5.393,1.803-6.664,2.275c-1.26,0.469-0.75-1.045,0.24-1.592
	C18.035,56.294,22.527,54.7,24.723,54.19z"/>
<path fill="#FFE12C" d="M22.43,55.368c-0.418,0.65,0.773,0.617,1.223-0.021C24.152,54.638,22.865,54.692,22.43,55.368z"/>
<path fill="#B00505" d="M19.064,61.999c0.363-1.066-0.063-2.689-0.514-3.584C18.129,57.583,18.289,61.413,19.064,61.999z"/>
<path fill="#B00505" d="M45.451,58.415c-0.453,0.895-0.877,2.518-0.516,3.584C45.711,61.413,45.871,57.583,45.451,58.415z"/>
<rect x="31.324" y="57.034" fill="#E6EBEF" width="0.678" height="4.965"/>
<path fill="#FFE12C" d="M34.846,60.317c0,0.953-1.699,0.953-1.699,0S34.846,59.364,34.846,60.317z"/>
<path fill="#423225" d="M26.453,55.726l4.871,1.842h1.352c0,0,5.08-0.676,5.08-5.461L26.453,49.3V55.726z"/>
<path fill="#302C3B" d="M25.816,53.823c0-0.518,0-1.492,0-2.143c0-0.162,0.781-0.15,0.781-0.15
	c-0.484,5.018,4.727,5.064,4.727,5.064v2.227C31.324,58.821,25.816,58.804,25.816,53.823z"/>
<path fill="#E6EBEF" d="M25.816,51.681c0-0.162,0.781-0.15,0.781-0.15c0,4.785,4.727,5.064,4.727,5.064v0.533
	C29.346,57.128,25.816,55.749,25.816,51.681z"/>
<path fill="#FFE12C" d="M29.916,57.921c-0.395,0.469-1.416-0.047-1.02-0.52C29.291,56.933,30.313,57.452,29.916,57.921z"/>
<path fill="#302C3B" d="M38.188,53.823c0-0.518,0-1.492,0-2.143c0-0.162-0.783-0.15-0.783-0.15c0.471,4.961-4.729,5.064-4.729,5.064
	v2.227C32.676,58.821,38.188,58.804,38.188,53.823z"/>
<path fill="#E6EBEF" d="M38.188,51.681c0-0.162-0.783-0.15-0.783-0.15c0,4.785-4.729,5.064-4.729,5.064v0.533
	C34.658,57.128,38.188,55.749,38.188,51.681z"/>
<path fill="#FFE12C" d="M34.086,57.921c0.395,0.469,1.416-0.047,1.02-0.52C34.711,56.933,33.691,57.452,34.086,57.921z"/>
<path fill="#614A36" d="M31.906,21.111c-9.191,0-13.617,7.484-13.064,17.107c0.113,1.936,0.65,4.727,1.314,7.117
	c1.379,4.971,8.652,9.975,11.75,9.975c3.096,0,10.369-5.004,11.748-9.975c0.664-2.391,1.203-5.182,1.316-7.117
	C45.523,28.595,41.098,21.111,31.906,21.111z"/>
<path fill="#423225" d="M42.035,34.722c-2.07-1.234-5.785-1.385-7.256-0.543c-0.311,0.17-0.227,1.061,0.041,0.949
	c2.098-0.873,5.291-0.916,7.26,0.094C42.344,35.354,42.348,34.901,42.035,34.722z"/>
<path fill="#423225" d="M21.777,34.722c2.07-1.234,5.785-1.385,7.258-0.543c0.311,0.17,0.229,1.061-0.043,0.949
	c-2.098-0.873-5.289-0.918-7.258,0.094C21.471,35.354,21.465,34.901,21.777,34.722z"/>
<path fill="#423225" d="M34.756,44.013c0,1.854-5.699,1.854-5.699,0C29.057,43.587,34.756,43.587,34.756,44.013z"/>
<path fill="#FFFFFF" d="M41.834,38.481c-1.229,3.213-6.223,2.742-7.137,0.492C35.391,35.36,41.158,35.05,41.834,38.481z"/>
<path fill="#613F34" d="M35.949,38.132c0,2.846,4.115,2.846,4.115,0C40.064,35.489,35.949,35.489,35.949,38.132z"/>
<path fill="#7D5037" d="M36.355,39.042c0,1.633,3.303,1.633,3.303,0C39.658,37.526,36.355,37.526,36.355,39.042z"/>
<path fill="#1A1626" d="M37.152,38.177c0,1.18,1.709,1.18,1.709,0C38.861,37.079,37.152,37.079,37.152,38.177z"/>
<path fill="#AB968C" d="M36.568,37.831c0,0.596,0.863,0.596,0.863,0C37.432,37.276,36.568,37.276,36.568,37.831z"/>
<path fill="#45332C" d="M41.834,38.456c0-3.453-7.137-3.453-7.137,0.547C35.715,35.722,40.816,35.722,41.834,38.456z"/>
<path fill="#FFFFFF" d="M21.979,38.481c1.229,3.213,6.225,2.742,7.139,0.492C28.424,35.36,22.654,35.05,21.979,38.481z"/>
<path fill="#613F34" d="M23.748,38.136c0,2.846,4.117,2.846,4.117,0C27.865,35.493,23.748,35.493,23.748,38.136z"/>
<path fill="#7D5037" d="M24.154,39.046c0,1.633,3.303,1.633,3.303,0C27.457,37.53,24.154,37.53,24.154,39.046z"/>
<path fill="#1A1626" d="M24.951,38.181c0,1.182,1.709,1.182,1.709,0C26.66,37.083,24.951,37.083,24.951,38.181z"/>
<path fill="#AB968C" d="M24.367,37.835c0,0.598,0.863,0.598,0.863,0C25.23,37.28,24.367,37.28,24.367,37.835z"/>
<path fill="#45332C" d="M21.979,38.456c0-3.453,7.139-3.453,7.139,0.545C28.1,35.72,22.998,35.72,21.979,38.456z"/>
<path fill="#302C3B" d="M48.713,33.897c0,5.996-5.576,2.018-7.426,1.529c-4.49-1.178-14.078-1.176-18.572,0
	c-1.848,0.488-7.428,4.467-7.428-1.529V11.371c0-12.493,33.426-12.493,33.426,0V33.897z"/>
<path fill="#423225" d="M32.002,48.372c-1.799-0.213-3.643-0.24-5.502-0.072c4.012,2.791,6.986,2.791,11,0
	C35.643,48.132,33.801,48.159,32.002,48.372z"/>
<path fill="#2B2119" d="M34.191,47.677c-1.617-0.58-2.201,0.195-2.189,0.184c0.012,0.012-0.576-0.764-2.191-0.184
	C28.566,48.11,26.5,48.282,26.5,48.3c2.258-0.029,2.592,0.566,5.502,0.488c2.91,0.078,3.24-0.518,5.498-0.488
	C37.502,48.282,35.434,48.11,34.191,47.677z"/>
<path fill="#302C3B" d="M43.357,31.714v8.119c0,5.916-4.986,10.549-11.355,10.549s-11.357-4.633-11.357-10.549v-8.119h-1.893v8.119
	c0,6.941,5.932,12.406,13.25,12.406c7.314,0,13.25-5.465,13.25-12.406v-8.119H43.357z"/>
</svg>
