<?xml version="1.0" encoding="utf-8"?>
<!-- Generator: Adobe Illustrator 19.0.0, SVG Export Plug-In . SVG Version: 6.00 Build 0)  -->
<svg version="1.1" id="Layer_1" xmlns="http://www.w3.org/2000/svg" xmlns:xlink="http://www.w3.org/1999/xlink" x="0px" y="0px"
	 width="64px" height="64px" viewBox="0 0 64 64" enable-background="new 0 0 64 64" xml:space="preserve">
<path fill="#7AB51D" d="M12.257,49.337c2.4-1.572,12.361-5.726,12.361-5.726H39.46c0,0,9.951,4.145,12.339,5.723
	C55.269,51.622,56,61.999,56,61.999H8C8,61.999,8.775,51.614,12.257,49.337z"/>
<path fill="#E6B045" d="M24.224,45.446c0,6.381,15.553,6.381,15.553,0c0-3.891,0-10.324,0-10.324H24.224
	C24.224,35.122,24.224,40.423,24.224,45.446z"/>
<path fill="#E6B045" d="M16.611,22.874c-5.146-0.928-1.127,13.463,2.902,9.494C21.379,30.526,19.018,23.31,16.611,22.874z"/>
<path fill="#E6B045" d="M47.391,22.874c-2.406,0.436-4.769,7.652-2.9,9.494C48.519,36.337,52.534,21.946,47.391,22.874z"/>
<path fill="#FFCC66" d="M32.001,6.001c-10.642,0-15.77,8.051-15.126,19.246c0.128,2.254,1.524,9.6,2.843,12.234
	c1.348,2.695,5.86,6.852,8.625,7.713c1.746,0.543,5.568,0.543,7.315,0c2.765-0.861,7.277-5.018,8.627-7.713
	c1.318-2.635,2.714-9.98,2.843-12.234C47.771,14.052,42.643,6.001,32.001,6.001z"/>
<path fill="#E6A400" d="M32.001,36.478c-2.395-0.705-5.939,0.332-5.939,0.332c1.35,1.471,2.34,3.381,5.939,3.381
	c4.124,0,4.823-2.166,5.939-3.381C37.94,36.81,34.392,35.769,32.001,36.478z"/>
<path fill="#FFFFFF" d="M26.967,37.06c2.508,2.105,7.576,2.117,10.099,0C34.392,37.173,29.659,37.175,26.967,37.06z"/>
<path fill="#E6B045" d="M35.3,32.519c0,2.148-6.599,2.148-6.599,0C28.701,32.026,35.3,32.026,35.3,32.519z"/>
<path fill="#594640" d="M32.001,6.001c-7.321,0-11.744,2.418-13.651,1.49c0,0-0.207,1.248,0.54,2.061c0,0-0.789,0.684-2.063-0.469
	c-1.213,3.939,2.388,6.221,15.174,6.221c12.786,0,9.731-3.113,16.017,2.356C47.401,10.919,43.119,6.001,32.001,6.001z"/>
<path fill="#453631" d="M37.415,11.876c-7.04,2.6-9.613-2.088-16.255-2.541c3.159,1.492,4.701,3.787,7.295,5.443
	c-5.646-1.889-9.789-5.141-10.104-7.275c0,0-0.942,3.117,2.784,5.447c-3.563,0.33-4.307-3.856-4.307-3.856
	c-1.804,2.899-1.554,12.246,0.45,19.182c0.334-2.475-0.427-3.498,0.717-6.48c3.425-8.914,1.221-5.172,14.007-5.172
	c12.784,0,10.477-3.414,14.004,5.172c1.053,2.559,0.384,4.006,0.719,6.48C50.929,12.638,44.884,9.12,37.415,11.876z"/>
<path fill="#C1873C" d="M43.983,21.632c-2.435-1.207-7.091-1.267-8.825-0.426c-0.371,0.164-0.127,1.31,0.186,1.199
	c2.419-0.895,6.318-0.916,8.582,0.078C44.227,22.61,44.353,21.802,43.983,21.632z"/>
<path fill="#C1873C" d="M20.018,21.632c2.434-1.207,7.09-1.267,8.826-0.426c0.371,0.164,0.127,1.31-0.187,1.199
	c-2.422-0.895-6.317-0.916-8.583,0.078C19.773,22.61,19.648,21.802,20.018,21.632z"/>
<path fill="#45332C" d="M28.56,26.142c-2.016,1.285-5.144,1.285-7.16,0c-0.308-0.198-0.491,0.016-0.394,0.182
	c1.957,3.318,5.99,3.318,7.946,0C29.053,26.157,28.868,25.943,28.56,26.142z"/>
<path fill="#45332C" d="M42.6,26.142c-2.016,1.285-5.145,1.285-7.16,0c-0.308-0.198-0.49,0.016-0.395,0.182
	c1.958,3.318,5.991,3.318,7.947,0C43.092,26.157,42.907,25.943,42.6,26.142z"/>
<path opacity="0.3" d="M26.329,14.153c-2.591,0.191-13.894-5.953-13.932,2.954c-0.013,2.814,3.392,8.486,3.536,10.149
	c0.25,2.875,3.372,2.839,3.252,0.771c-0.395-6.792-1.928-9.469,0.315-11.459c0.496-0.44,4.702,0.84,6.559-0.062
	C27.344,15.883,27.148,14.094,26.329,14.153z"/>
<path fill="#FFCC66" d="M26.224,13.981c-2.591,0.19-4.167-2.274-5.183-3.9c-0.704-1.129-3.271-2.049-3.951-3.72
	c-0.762-1.875-0.939-4.36-0.939-4.36h-6.1c0,0,1.635,5.68,1.597,14.586c-0.013,2.814,1.466,7.378,3.628,9.406
	c0,0,0.25,0.803,0.693,1.991c0.828,2.221,3.247,1.656,2.787-0.364c-1.224-5.383-2.242-10.284,0-12.274
	c0.496-0.439,5.312,1.6,7.168,0.698C27.209,15.42,27.043,13.922,26.224,13.981z"/>
<path opacity="0.3" d="M37.671,14.153c2.591,0.191,13.894-5.953,13.932,2.954c0.013,2.814-3.392,8.486-3.536,10.149
	c-0.25,2.875-3.372,2.839-3.252,0.771c0.396-6.792,1.928-9.469-0.314-11.459c-0.496-0.44-4.702,0.84-6.559-0.062
	C36.656,15.883,36.852,14.094,37.671,14.153z"/>
<path fill="#FFCC66" d="M37.776,13.981c2.591,0.19,4.167-2.274,5.183-3.9c0.704-1.129,3.271-2.049,3.951-3.72
	c0.762-1.875,0.94-4.36,0.94-4.36h6.1c0,0-1.635,5.68-1.597,14.586c0.013,2.814-1.466,7.378-3.628,9.406c0,0-0.25,0.803-0.693,1.991
	c-0.828,2.221-3.247,1.656-2.787-0.364c1.224-5.383,2.242-10.284,0-12.274c-0.496-0.439-5.312,1.6-7.168,0.698
	C36.791,15.42,36.957,13.922,37.776,13.981z"/>
<path fill="#529320" d="M15,61.999h1C15.5,55.332,15.5,55.332,15,61.999z"/>
<path fill="#529320" d="M48,61.999h1C48.5,55.332,48.5,55.332,48,61.999z"/>
</svg>
