<?xml version="1.0" encoding="utf-8"?>
<!-- Generator: Adobe Illustrator 15.0.0, SVG Export Plug-In . SVG Version: 6.00 Build 0)  -->
<!DOCTYPE svg PUBLIC "-//W3C//DTD SVG 1.1//EN" "http://www.w3.org/Graphics/SVG/1.1/DTD/svg11.dtd" [
	<!ENTITY ns_flows "http://ns.adobe.com/Flows/1.0/">
	<!ENTITY ns_extend "http://ns.adobe.com/Extensibility/1.0/">
	<!ENTITY ns_ai "http://ns.adobe.com/AdobeIllustrator/10.0/">
	<!ENTITY ns_graphs "http://ns.adobe.com/Graphs/1.0/">
]>
<svg version="1.1" id="Layer_1" xmlns:x="&ns_extend;" xmlns:i="&ns_ai;" xmlns:graph="&ns_graphs;"
	 xmlns="http://www.w3.org/2000/svg" xmlns:xlink="http://www.w3.org/1999/xlink" xmlns:a="http://ns.adobe.com/AdobeSVGViewerExtensions/3.0/"
	 x="0px" y="0px" width="64px" height="64px" viewBox="0 0 64 64" enable-background="new 0 0 64 64" xml:space="preserve">
<path fill="#3A2C29" d="M40.423,8.086c-1.014-2.888-3.527-4.777-4.215-4.421c0.449-0.708-2.211-2.193-6.062-1.475
	C17.58,4.536,21.642,18.915,11.757,20.85C24.06,39.149,46.079,24.198,40.423,8.086z"/>
<path fill="#1E1513" d="M34.94,10.996c-6.3,3.235-5.357,7.513-17.929,9.601C29.339,22.153,31.556,17.52,34.94,10.996z"/>
<path fill="#1E1513" d="M35.255,4.567c-0.422,0.789,3.199,1.581,3.033,8.733C39.741,6.986,36.249,4.204,35.255,4.567z"/>
<path fill="#B00505" d="M6.238,34.56c-3.609,7.531,1.789,7.813,2.152,12.199c0.496,6.021,8.986,0.043,10.553,4.186
	c2.279,6.027,8.586-3.553,13.896,1.902c4.005,4.111,4.242-6.25,11.681-3.848c7.852,2.537,0.973-7.924,7.938-6.088
	c4.738,1.248,9.877-6.51,3.707-12.553c-1.506,3.155-2.443,3.844-6.621,1.877C43.649,35.608,10.162,43.144,6.238,34.56z"/>
<path fill="#FCD5B2" d="M32.664,35.579c-12.189-0.322-7.748,2.641-6.416,10.973c-4.25,2.746-4.186,3.902-7.588,7.648
	c-2.195,2.418-7.625,6.992-4.039,7.1c2.885,0.086,1.82-4.451,5.447-6.307c7.262-3.713,7.164-4.889,10.346-7.258
	C31.152,47.188,34.726,40.659,32.664,35.579z"/>
<path fill="#E03636" d="M18.269,54.04c-0.348,0.383,0.697,1.883,1.316,1.609C20.017,55.46,18.982,53.253,18.269,54.04z"/>
<path fill="#E03636" d="M36.771,58.372c0.287,0.547,1.359-0.953,1.359-0.953c0.934,5.852,2.84-2.389,1.631-3.008
	C36.13,54.376,38.587,55.683,36.771,58.372z"/>
<path fill="#FCD5B2" d="M31.019,34.714c2.384,2.623,1.424,6.408,9.185,10.561c-3.381,4.221,0.52,6.391-1.137,9.82
	c-1.4,2.9-0.494,7.598,2.994,6.82c1.17-0.262-1.813,0.293-0.74-7.492c0.646-4.707,2.805-8.098,2.232-9.518
	C42.091,41.284,39.28,33.353,31.019,34.714z"/>
<path fill="#E03636" d="M38.817,54.04c0,0.736,2.906,1.307,2.867,0.5C41.663,54.091,38.817,53.651,38.817,54.04z"/>
<path fill="#E03636" d="M38.935,60.386c-0.828,0.889,1.1,1.574,1.135,1.289c0.111-0.918,0.844-1.238,1.492-1.344
	C42.003,59.407,39.206,60.095,38.935,60.386z"/>
<path fill="#E03636" d="M16.355,60.298c-0.088-0.791-1.797-1.971-2.717-0.455C14.087,56.743,18.08,58.544,16.355,60.298z"/>
<path fill="#FCD5B2" d="M40.304,6.019c-0.279-0.497,2.646-2.141,1.139-1.878c-1.635,0.283,2.965-1.937,1.746-1.95
	c-1.012-0.012-5.873,2.165-4.967,3.656c1.967,3.237,2.385,6.366,2.773,8.447c-4.463,1.804-4.008,0.939-7.703,2.371
	c0,0-4.044-3.968-3.664,1.223c0.031,0.45-1.252,1.109-1.252,1.109s-1.328,0-2.809,1.25c-1.119,0.946-4.117,1.935-5.5,2.636
	c-1.123,0.57-5.469,2.754-8.088,5.363c-0.662,0.658-4.475-1.391-2.627,0.148c1.412,1.176-3.938-1.465-2.598-0.146
	c2.102,2.074,5.297,2.678,6.098,1.74c2.297-2.689,4.84-1.99,8.158-4.412c4.627-1.541,5.5-2.66,6.963-2.668
	c1.324,2.25,9.55,1.795,8.677-3.72c0.254-0.988,4.344-1.699,6.973-3.091C44.366,15.706,43.247,11.283,40.304,6.019z"/>
<path fill="#E03636" d="M27.974,22.909c1.408,2.732,1.408,6.881-0.107,7.42c-3.656,1.299-11.689,9.834-21.629,4.231
	c-2.914,8.141,4.453,3.828,5.951,9.408c1.893,7.053,5-2.916,10.826,0.254c6.006,3.27,5.758-5.471,13.183-3.807
	c7.529,1.686,3.922-5.727,8.707-2.02c3.58,2.775,7.234-3.178,4.639-6.161c-6.711,2.325-15.088,1.403-13.393-2.07
	c1.605-3.285,0.625-5.104,1.184-5.385c1.432-0.725,3.357-2.713-0.143-5.241c-0.721-0.522-1.328-3.021-3.586-3.592
	c-1.49,0.648,2.053,0.477,2.053,3.745c-0.799,1.943-2.354,1.49-3.824,0.632c-2.857-1.668-2.9-1.903-3.5-1.527
	c-0.188,0.486,2.604,2.129,2.139,3.948C29.339,24.317,27.974,22.909,27.974,22.909z"/>
<path fill="#DBA97F" d="M29.529,17.017c1.67,2.154,2.006,2.152,3.669-0.006L29.529,17.017z"/>
<path fill="#FCD5B2" d="M34.642,5.853c-2.037,1.861-6.228,2.918-8.861,4.466c0.006,0.144,0.293,2.444,0.576,3.462
	c0.59,2.115,3.691,4.244,5.008,4.243c1.32-0.002,4.416-2.14,5-4.256c0.281-1.019,0.561-3.313,0.564-3.452
	C35.696,7.777,34.165,7.259,34.642,5.853z"/>
<path fill="#F5F5F5" d="M35.587,10.849c-0.521,1.37-2.65,1.171-3.042,0.214C32.839,9.523,35.296,9.388,35.587,10.849z"/>
<path fill="#45332C" d="M33.087,10.704c0.002,1.201,1.738,1.199,1.738-0.002C34.823,9.585,33.085,9.587,33.087,10.704z"/>
<path fill="#45332C" d="M35.587,10.838c-0.002-1.471-3.044-1.467-3.042,0.237C32.98,9.677,35.147,9.674,35.587,10.838z"/>
<path fill="#F5F5F5" d="M33.187,10.407c0,0.301,0.434,0.301,0.434,0C33.62,10.128,33.187,10.128,33.187,10.407z"/>
<path fill="#F5F5F5" d="M27.13,10.86c0.523,1.369,2.652,1.165,3.041,0.206C29.873,9.527,27.416,9.398,27.13,10.86z"/>
<path fill="#45332C" d="M29.628,10.709c0.002,1.202-1.736,1.204-1.738,0.002C27.89,9.596,29.626,9.594,29.628,10.709z"/>
<path fill="#45332C" d="M27.13,10.849c-0.002-1.471,3.039-1.475,3.041,0.229C29.736,9.679,27.564,9.682,27.13,10.849z"/>
<path fill="#F5F5F5" d="M28.48,10.353c0,0.3-0.434,0.301-0.434,0.001C28.046,10.074,28.48,10.073,28.48,10.353z"/>
<path fill="#D88D56" d="M31.363,14.641c-0.953-0.417-0.959-0.016-2.428,0.085c0.555,0.625,0.959,1.43,2.428,1.428
	c1.687-0.002,1.97-0.917,2.427-1.434C32.322,14.623,32.314,14.222,31.363,14.641z"/>
<path fill="#FFFFFF" d="M29.376,14.881c0.961,0.997,3.027,0.98,3.97-0.005C31.875,15.037,30.855,15.039,29.376,14.881z"/>
<path fill="#594640" d="M35.671,9.248c-0.885-0.524-2.467-0.586-3.093-0.228c-0.133,0.072-0.096,0.452,0.02,0.404
	c0.89-0.373,2.25-0.394,3.089,0.036C35.8,9.516,35.804,9.324,35.671,9.248z"/>
<path fill="#594640" d="M27.042,9.259c0.883-0.527,2.463-0.593,3.09-0.236c0.133,0.072,0.1,0.451-0.018,0.404
	c-0.893-0.371-2.252-0.388-3.09,0.044C26.914,9.528,26.91,9.334,27.042,9.259z"/>
<path fill="#DBA97F" d="M32.572,13.209c0.002,0.79-2.424,0.792-2.426,0.003C30.146,13.031,32.572,13.029,32.572,13.209z"/>
<path fill="#1E1513" d="M23.792,11.97c2.463-3.299,11.039-3.3,12.416-8.305C33.528,7.869,24.462,8.8,23.792,11.97z"/>
<path fill="#1E1513" d="M36.208,3.666c-4.638,2.622-9.078,0-14.097,7.739c2.227-2.043,4.133-3.175,5.783-3.863
	C31.894,5.872,34.378,6.804,36.208,3.666z"/>
<path fill="#D12828" d="M27.312,34.782c-5.785,6.525-12.744,6.182-16.162,7.244c0.445,0.471,0.813,1.09,1.041,1.941
	c1.23,4.59,2.979,1.973,5.652,0.457C18.917,41.343,23.771,41.085,27.312,34.782z"/>
<path fill="#D12828" d="M30.191,34.056c-0.898,5.51-4.119,8.439-6.41,10.525c1.752,0.717,2.932,0.313,3.986-0.49
	C27.894,41.772,30.464,39.358,30.191,34.056z"/>
<path fill="#D12828" d="M33.534,32.555c-0.113,4.766,2.713,5.571,2.32,7.795c0.115,0.021,0.227,0.037,0.346,0.064
	c2.711,0.607,3.975,0.033,4.711-0.775C39.276,38.435,34.735,37.897,33.534,32.555z"/>
<path fill="#D12828" d="M44.907,38.396c2.27,1.76,4.563,0.01,5.281-2.266c-2.463-0.281-7.457,1.686-12.559-2.424
	c1.736,2.219,3.5,3.064,4.959,3.678C43.04,37.237,43.712,37.47,44.907,38.396z"/>
<path fill="#D12828" d="M24.423,32.276L24.423,32.276c-4.268,2.688-10.682,6.512-18.184,2.284c-1.197,3.344-0.658,4.584,0.494,5.275
	C9.335,37.39,21.056,38.271,24.423,32.276z"/>
<path fill="#D12828" d="M31.376,25.35c0.777,1.65,3.714,1.463,4.152-0.178C34.591,26.032,32.435,25.844,31.376,25.35z"/>
</svg>
