<?xml version="1.0" encoding="utf-8"?>
<!-- Generator: Adobe Illustrator 15.0.0, SVG Export Plug-In . SVG Version: 6.00 Build 0)  -->
<!DOCTYPE svg PUBLIC "-//W3C//DTD SVG 1.1//EN" "http://www.w3.org/Graphics/SVG/1.1/DTD/svg11.dtd" [
	<!ENTITY ns_flows "http://ns.adobe.com/Flows/1.0/">
	<!ENTITY ns_extend "http://ns.adobe.com/Extensibility/1.0/">
	<!ENTITY ns_ai "http://ns.adobe.com/AdobeIllustrator/10.0/">
	<!ENTITY ns_graphs "http://ns.adobe.com/Graphs/1.0/">
]>
<svg version="1.1" id="Layer_1" xmlns:x="&ns_extend;" xmlns:i="&ns_ai;" xmlns:graph="&ns_graphs;"
	 xmlns="http://www.w3.org/2000/svg" xmlns:xlink="http://www.w3.org/1999/xlink" xmlns:a="http://ns.adobe.com/AdobeSVGViewerExtensions/3.0/"
	 x="0px" y="0px" width="64px" height="64px" viewBox="0 0 64 64" enable-background="new 0 0 64 64" xml:space="preserve">
<path fill="#594640" d="M40.424,8.087C39.41,5.2,36.896,3.31,36.209,3.666c0.449-0.708-2.211-2.193-6.062-1.475
	c-12.566,2.345-8.504,16.724-18.389,18.66C24.061,39.148,46.079,24.197,40.424,8.087z"/>
<path fill="#453631" d="M34.94,10.997c-6.3,3.235-5.356,7.513-17.928,9.601C29.34,22.154,31.557,17.521,34.94,10.997z"/>
<path fill="#453631" d="M35.256,4.568c-0.422,0.789,3.199,1.581,3.033,8.733C39.741,6.987,36.249,4.204,35.256,4.568z"/>
<path fill="#B00505" d="M6.238,34.559c-3.609,7.532,1.789,7.814,2.152,12.2c0.496,6.021,8.986,0.043,10.553,4.186
	c2.279,6.028,8.586-3.552,13.896,1.901c4.005,4.113,4.242-6.249,11.681-3.847c7.852,2.536,0.973-7.923,7.938-6.087
	c4.738,1.248,9.877-6.512,3.707-12.553c-1.506,3.155-2.443,3.843-6.621,1.877C43.649,35.609,10.162,43.144,6.238,34.559z"/>
<path fill="#FFCC66" d="M32.665,35.58c-12.19-0.322-7.749,2.641-6.417,10.973c-4.25,2.746-4.186,3.901-7.588,7.648
	c-2.195,2.417-7.625,6.99-4.039,7.1c2.885,0.086,1.821-4.453,5.447-6.307c7.262-3.713,7.165-4.89,10.347-7.258
	C31.153,47.189,34.727,40.66,32.665,35.58z"/>
<path fill="#E03636" d="M18.269,54.04c-0.348,0.384,0.697,1.882,1.316,1.609C20.017,55.461,18.982,53.253,18.269,54.04z"/>
<path fill="#E03636" d="M36.771,58.373c0.287,0.547,1.359-0.954,1.359-0.954c0.934,5.851,2.84-2.388,1.631-3.007
	C36.13,54.377,38.587,55.684,36.771,58.373z"/>
<path fill="#FFCC66" d="M31.019,34.715c2.384,2.623,1.424,6.406,9.185,10.561c-3.381,4.221,0.52,6.39-1.137,9.819
	c-1.4,2.901-0.494,7.599,2.994,6.819c1.17-0.262-1.813,0.293-0.74-7.492c0.646-4.706,2.805-8.096,2.232-9.518
	C42.091,41.285,39.28,33.353,31.019,34.715z"/>
<path fill="#E03636" d="M38.817,54.04c0,0.737,2.906,1.308,2.867,0.499C41.663,54.092,38.817,53.652,38.817,54.04z"/>
<path fill="#E03636" d="M38.935,60.387c-0.828,0.889,1.1,1.574,1.135,1.287c0.111-0.918,0.844-1.238,1.492-1.343
	C42.003,59.407,39.206,60.096,38.935,60.387z"/>
<path fill="#E03636" d="M16.355,60.298c-0.088-0.791-1.797-1.972-2.717-0.455C14.087,56.744,18.08,58.545,16.355,60.298z"/>
<path fill="#FFCC66" d="M40.305,6.02c-0.279-0.497,2.646-2.141,1.139-1.878c-1.635,0.284,2.965-1.937,1.746-1.95
	c-1.012-0.012-5.873,2.166-4.967,3.656c1.967,3.237,2.384,6.366,2.772,8.448c-4.463,1.803-4.008,0.938-7.703,2.37
	c0,0-4.043-3.967-3.663,1.223c0.031,0.451-1.253,1.11-1.253,1.11s-1.328,0-2.809,1.25c-1.119,0.947-4.117,1.934-5.5,2.635
	c-1.123,0.57-5.469,2.754-8.088,5.365c-0.662,0.658-4.475-1.392-2.627,0.147c1.412,1.176-3.938-1.463-2.598-0.145
	c2.102,2.074,5.297,2.678,6.098,1.739c2.297-2.689,4.84-1.99,8.158-4.412c4.627-1.542,5.5-2.66,6.963-2.667
	c1.324,2.249,9.55,1.795,8.677-3.72c0.254-0.988,4.344-1.699,6.973-3.091C44.366,15.707,43.248,11.283,40.305,6.02z"/>
<path fill="#E03636" d="M27.974,22.91c1.408,2.731,1.408,6.88-0.107,7.419c-3.656,1.299-11.689,9.833-21.629,4.23
	c-2.914,8.142,4.453,3.83,5.951,9.41c1.893,7.052,5-2.918,10.826,0.253c6.006,3.269,5.758-5.472,13.183-3.807
	c7.529,1.687,3.922-5.727,8.707-2.019c3.58,2.775,7.234-3.18,4.639-6.161c-6.711,2.323-15.088,1.403-13.393-2.07
	c1.605-3.286,0.625-5.104,1.184-5.386c1.432-0.723,3.357-2.712-0.143-5.24c-0.721-0.522-1.328-3.021-3.586-3.591
	c-1.49,0.648,2.053,0.477,2.053,3.745c-0.799,1.942-2.354,1.489-3.824,0.632c-2.857-1.668-2.9-1.903-3.5-1.527
	c-0.188,0.486,2.604,2.128,2.139,3.947C29.339,24.317,27.974,22.91,27.974,22.91z"/>
<path fill="#E6B045" d="M29.529,17.018c1.671,2.155,2.006,2.153,3.669-0.005L29.529,17.018z"/>
<path fill="#FFCC66" d="M34.643,5.854c-2.038,1.861-6.229,2.917-8.861,4.465c0.005,0.144,0.292,2.444,0.576,3.462
	c0.59,2.115,3.69,4.245,5.008,4.243c1.319-0.002,4.415-2.139,5-4.256c0.281-1.019,0.561-3.313,0.564-3.453
	C35.697,7.777,34.165,7.26,34.643,5.854z"/>
<path fill="#F5F5F5" d="M35.587,10.85c-0.521,1.37-2.649,1.171-3.042,0.213C32.839,9.524,35.297,9.389,35.587,10.85z"/>
<path fill="#45332C" d="M33.087,10.704c0.002,1.202,1.738,1.2,1.738-0.002C34.823,9.586,33.085,9.588,33.087,10.704z"/>
<path fill="#45332C" d="M35.587,10.839c-0.002-1.471-3.043-1.467-3.042,0.237C32.98,9.678,35.148,9.675,35.587,10.839z"/>
<path fill="#F5F5F5" d="M33.187,10.407c0.001,0.301,0.435,0.301,0.434,0C33.62,10.129,33.187,10.129,33.187,10.407z"/>
<path fill="#F5F5F5" d="M27.13,10.861c0.524,1.369,2.652,1.165,3.041,0.206C29.874,9.527,27.417,9.399,27.13,10.861z"/>
<path fill="#45332C" d="M29.629,10.71c0.002,1.203-1.736,1.205-1.738,0.002C27.891,9.597,29.627,9.595,29.629,10.71z"/>
<path fill="#45332C" d="M27.13,10.85c-0.002-1.471,3.039-1.475,3.041,0.229C29.737,9.68,27.564,9.683,27.13,10.85z"/>
<path fill="#F5F5F5" d="M28.48,10.354c0,0.3-0.434,0.301-0.434,0.001C28.046,10.075,28.48,10.074,28.48,10.354z"/>
<path fill="#D47706" d="M31.364,14.642c-0.953-0.417-0.959-0.016-2.428,0.085c0.554,0.625,0.959,1.43,2.428,1.428
	c1.687-0.002,1.97-0.917,2.426-1.434C32.323,14.624,32.314,14.223,31.364,14.642z"/>
<path fill="#FFFFFF" d="M29.377,14.882c0.96,0.997,3.026,0.98,3.97-0.004C31.875,15.038,30.856,15.039,29.377,14.882z"/>
<path fill="#594640" d="M35.671,9.249c-0.885-0.524-2.467-0.586-3.092-0.228c-0.133,0.072-0.097,0.452,0.02,0.404
	c0.89-0.374,2.25-0.394,3.089,0.036C35.8,9.517,35.804,9.324,35.671,9.249z"/>
<path fill="#594640" d="M27.042,9.26c0.883-0.527,2.463-0.593,3.091-0.236c0.133,0.072,0.1,0.451-0.018,0.404
	c-0.893-0.371-2.253-0.388-3.091,0.044C26.914,9.528,26.91,9.335,27.042,9.26z"/>
<path fill="#E6B045" d="M32.573,13.21c0.001,0.79-2.425,0.792-2.426,0.002C30.147,13.032,32.572,13.029,32.573,13.21z"/>
<path fill="#453631" d="M23.792,11.971c2.464-3.299,11.04-3.3,12.417-8.305C33.529,7.87,24.462,8.801,23.792,11.971z"/>
<path fill="#453631" d="M36.209,3.666c-4.639,2.622-9.079,0-14.097,7.74c2.226-2.043,4.133-3.175,5.782-3.863
	C31.895,5.872,34.378,6.805,36.209,3.666z"/>
<path fill="#D12828" d="M27.312,34.783c-5.784,6.525-12.743,6.181-16.162,7.243c0.445,0.47,0.813,1.09,1.041,1.942
	c1.231,4.588,2.979,1.972,5.652,0.456C18.917,41.344,23.771,41.085,27.312,34.783z"/>
<path fill="#D12828" d="M30.191,34.057c-0.898,5.51-4.119,8.438-6.409,10.525c1.752,0.717,2.931,0.313,3.985-0.49
	C27.895,41.773,30.464,39.359,30.191,34.057z"/>
<path fill="#D12828" d="M33.535,32.556c-0.113,4.766,2.713,5.571,2.319,7.794c0.115,0.021,0.227,0.039,0.346,0.065
	c2.712,0.607,3.976,0.033,4.711-0.775C39.277,38.436,34.736,37.898,33.535,32.556z"/>
<path fill="#D12828" d="M44.907,38.396c2.27,1.759,4.563,0.009,5.281-2.267c-2.462-0.281-7.457,1.687-12.558-2.425
	c1.735,2.22,3.5,3.064,4.958,3.68C43.041,37.238,43.713,37.471,44.907,38.396z"/>
<path fill="#D12828" d="M24.424,32.275L24.424,32.275c-4.268,2.689-10.683,6.514-18.185,2.283c-1.197,3.344-0.658,4.586,0.494,5.276
	C9.336,37.39,21.056,38.27,24.424,32.275z"/>
<path fill="#D12828" d="M31.377,25.351c0.776,1.65,3.713,1.463,4.151-0.178C34.591,26.033,32.435,25.845,31.377,25.351z"/>
</svg>
