<?xml version="1.0" encoding="utf-8"?>
<!-- Generator: Adobe Illustrator 15.0.0, SVG Export Plug-In . SVG Version: 6.00 Build 0)  -->
<!DOCTYPE svg PUBLIC "-//W3C//DTD SVG 1.1//EN" "http://www.w3.org/Graphics/SVG/1.1/DTD/svg11.dtd" [
	<!ENTITY ns_flows "http://ns.adobe.com/Flows/1.0/">
	<!ENTITY ns_extend "http://ns.adobe.com/Extensibility/1.0/">
	<!ENTITY ns_ai "http://ns.adobe.com/AdobeIllustrator/10.0/">
	<!ENTITY ns_graphs "http://ns.adobe.com/Graphs/1.0/">
]>
<svg version="1.1" id="Layer_1" xmlns:x="&ns_extend;" xmlns:i="&ns_ai;" xmlns:graph="&ns_graphs;"
	 xmlns="http://www.w3.org/2000/svg" xmlns:xlink="http://www.w3.org/1999/xlink" xmlns:a="http://ns.adobe.com/AdobeSVGViewerExtensions/3.0/"
	 x="0px" y="0px" width="64px" height="64px" viewBox="0 0 64 64" enable-background="new 0 0 64 64" xml:space="preserve">
<path fill="#3B2C29" d="M12.938,14.643c-8.131,34.904-7.388,34.156,9.73,34.156C13.195,42.172,31.341,14.168,12.938,14.643z"/>
<path fill="#453631" d="M10.005,14.102C4.07,40.621,9.19,47.432,13.736,48.799h5.21C6.757,40.211,25.811,13.581,10.005,14.102z"/>
<path fill="#3B2C29" d="M36.861,14.641c8.133,34.906,7.387,34.158-9.73,34.158C35.844,43.48,18.457,14.167,36.861,14.641z"/>
<path fill="#453631" d="M39.793,14.1c8.676,24.126-0.018,33.582-3.732,34.699h-5.207C43.045,40.91,23.99,13.579,39.793,14.1z"/>
<path fill="#594640" d="M41.236,27.065c2.512,6.132,0.027,18.722-5.176,21.734c5.768,0,9.277-7.979,10.99-18.955
	C49.189,16.127,36.762,16.12,41.236,27.065z"/>
<path fill="#594640" d="M3.394,32.389c2.1,9.906,4.685,16.41,10.343,16.41C7.428,42.268,8.17,28.491,9.964,25.063
	C19.103,19.622-0.16,15.633,3.394,32.389z"/>
<path fill="#8E3ED6" d="M6.077,50.43c2.302-1.412,12.2-5.139,12.2-5.139h13.517c0,0,9.889,3.721,12.18,5.135
	C47.299,52.48,48,62,48,62H2C2,62,2.741,52.473,6.077,50.43z"/>
<path fill="#E6B045" d="M18,45c0,6.75,14,6.75,14,0v-7H18V45z"/>
<path fill="#FFCC66" d="M25,6.254c-10.836,0-16.054,8.824-15.402,20.17c0.134,2.281,0.768,5.57,1.551,8.39
	C12.773,40.674,21.35,46.574,25,46.574c3.649,0,12.227-5.9,13.85-11.76c0.785-2.82,1.42-6.109,1.555-8.39
	C41.055,15.079,35.838,6.254,25,6.254z"/>
<path fill="#D47706" d="M25,37.217c-2.635-1.16-2.654-0.049-6.719,0.225c1.525,1.732,2.648,3.961,6.717,3.961
	c4.67,0,5.459-2.531,6.722-3.961C27.652,37.168,27.635,36.057,25,37.217z"/>
<path fill="#FFFFFF" d="M19.5,37.871c2.655,2.764,8.378,2.729,11,0.002C26.412,38.313,23.59,38.313,19.5,37.871z"/>
<path fill="#594640" d="M36.941,22.301c-2.441-1.453-6.82-1.633-8.555-0.641c-0.366,0.201-0.268,1.252,0.05,1.121
	c2.472-1.029,6.235-1.08,8.556,0.109C37.305,23.047,37.311,22.514,36.941,22.301z"/>
<path fill="#594640" d="M13.061,22.301c2.44-1.453,6.818-1.633,8.555-0.641c0.366,0.201,0.27,1.252-0.051,1.121
	c-2.473-1.029-6.234-1.082-8.555,0.109C12.697,23.047,12.689,22.514,13.061,22.301z"/>
<path fill="#E6B045" d="M28.359,33.256c0,2.186-6.719,2.186-6.719,0C21.641,32.752,28.359,32.752,28.359,33.256z"/>
<path fill="#FFFFFF" d="M36.705,26.735c-1.447,3.787-7.337,3.232-8.414,0.582C29.107,23.053,35.908,22.688,36.705,26.735z"/>
<path fill="#613F34" d="M29.766,26.323c0,3.355,4.854,3.355,4.854,0C34.619,23.206,29.766,23.206,29.766,26.323z"/>
<path fill="#7D5037" d="M30.245,27.395c0,1.926,3.894,1.926,3.894,0C34.139,25.61,30.245,25.61,30.245,27.395z"/>
<path fill="#1A1626" d="M31.185,26.375c0,1.393,2.014,1.393,2.014,0C33.199,25.083,31.185,25.083,31.185,26.375z"/>
<path fill="#AB968C" d="M30.496,25.969c0,0.703,1.017,0.703,1.017,0C31.513,25.315,30.496,25.315,30.496,25.969z"/>
<path fill="#45332C" d="M36.705,26.706c0-4.072-8.414-4.072-8.414,0.645C29.489,23.479,35.504,23.479,36.705,26.706z"/>
<path fill="#FFFFFF" d="M13.295,26.735c1.449,3.787,7.339,3.232,8.418,0.582C20.895,23.053,14.094,22.688,13.295,26.735z"/>
<path fill="#613F34" d="M15.383,26.329c0,3.355,4.852,3.355,4.852,0C20.234,23.211,15.383,23.211,15.383,26.329z"/>
<path fill="#7D5037" d="M15.861,27.401c0,1.924,3.895,1.924,3.895,0C19.756,25.616,15.861,25.616,15.861,27.401z"/>
<path fill="#1A1626" d="M16.801,26.381c0,1.393,2.017,1.393,2.017,0C18.817,25.086,16.801,25.086,16.801,26.381z"/>
<path fill="#AB968C" d="M16.113,25.973c0,0.705,1.018,0.705,1.018,0C17.131,25.321,16.113,25.321,16.113,25.973z"/>
<path fill="#45332C" d="M13.295,26.706c0-4.072,8.418-4.072,8.418,0.643C20.513,23.477,14.498,23.477,13.295,26.706z"/>
<path fill="#594640" d="M37.107,7.833c-7.598,7.785-0.346,8.287,4.129,19.232c2.512,6.132,4.102,13.755,5.814,2.779
	C49.189,16.127,40.969,6.688,37.107,7.833z"/>
<path fill="#594640" d="M18.457,4.85C8.822,7.118-0.16,15.633,3.394,32.389c2.1,9.906,4.776-3.898,6.57-7.326
	c9.139-5.441,24.769-9.561,27.144-17.23C38.314,6.061,28.099,2.325,18.457,4.85z"/>
<path fill="#453631" d="M11.074,17.055c4.074-0.826,23.566-1.215,26.033-9.223C32.501,11.502,27.729,12.502,11.074,17.055z"/>
<path fill="#453631" d="M4.05,29.795c6.835-9.123,29.228-8.117,33.058-21.963C29.672,19.454,5.918,21.024,4.05,29.795z"/>
<path fill="#453631" d="M34.855,9.729c-1.766,2.781,4.365-1.303,10.971,16.6C44.199,15.862,38.615,8.657,34.855,9.729z"/>
<path fill="#E6B045" d="M53.094,40.838c0.611-0.342,0.564-1.785-0.918-1.404c-3.563,0.914-5.711,1.595-6.732,3.495
	C44.754,44.211,48.789,42.791,53.094,40.838z"/>
<path fill="#732EB0" d="M9,62h1C9.5,55.334,9.5,55.334,9,62z"/>
<linearGradient id="SVGID_1_" gradientUnits="userSpaceOnUse" x1="43.0098" y1="56.501" x2="38.6672" y2="55.3968">
	<stop  offset="0" style="stop-color:#5D1E96"/>
	<stop  offset="0.093" style="stop-color:#6825A5"/>
	<stop  offset="0.2674" style="stop-color:#7930BB"/>
	<stop  offset="0.4596" style="stop-color:#8538CA"/>
	<stop  offset="0.6813" style="stop-color:#8C3DD3"/>
	<stop  offset="1" style="stop-color:#8E3ED6"/>
	<a:midPointStop  offset="0" style="stop-color:#5D1E96"/>
	<a:midPointStop  offset="0.2242" style="stop-color:#5D1E96"/>
	<a:midPointStop  offset="1" style="stop-color:#8E3ED6"/>
</linearGradient>
<path fill="url(#SVGID_1_)" d="M35.441,62h7.77l0.309-11.938l-4.99-2.124C38.529,47.938,35.732,57.905,35.441,62z"/>
<path fill="#8E3ED6" d="M51.844,62c0,0-0.467-15.172-1.031-15.766c-1.053-1.104-5.824-0.666-6.635,0.021S41.844,62,41.844,62H51.844
	z"/>
<path fill="#FFCC66" d="M50.453,46.75c-0.088-0.662,0.328-1.234,0.328-1.234s12.961-2.808,11.021-5.51
	c-0.836-1.163-5.111,0.26-8.902,0.695c-2.307,0.266-8.887-0.998-8.268,6.049C44.76,48.201,50.557,47.541,50.453,46.75z"/>
</svg>
