<?xml version="1.0" encoding="utf-8"?>
<!-- Generator: Adobe Illustrator 19.0.0, SVG Export Plug-In . SVG Version: 6.00 Build 0)  -->
<svg version="1.1" id="Layer_1" xmlns="http://www.w3.org/2000/svg" xmlns:xlink="http://www.w3.org/1999/xlink" x="0px" y="0px"
	 width="64px" height="64px" viewBox="0 0 64 64" enable-background="new 0 0 64 64" xml:space="preserve">
<path fill="#947D41" d="M12.937,14.644c-8.131,34.903-7.388,34.155,9.73,34.155C13.195,42.172,31.341,14.169,12.937,14.644z"/>
<path fill="#BA9D52" d="M10.005,14.102C4.07,40.622,9.19,47.432,13.736,48.799h5.21C6.757,40.212,25.81,13.581,10.005,14.102z"/>
<path fill="#947D41" d="M36.861,14.642c8.132,34.905,7.387,34.157-9.731,34.157C35.842,43.48,18.457,14.167,36.861,14.642z"/>
<path fill="#BA9D52" d="M39.793,14.101c8.675,24.127-0.018,33.581-3.732,34.698h-5.207C43.045,40.91,23.99,13.579,39.793,14.101z"/>
<path fill="#EFDE8B" d="M41.236,27.065c2.512,6.133,0.027,18.722-5.176,21.733c5.767,0,9.277-7.979,10.99-18.954
	C49.189,16.128,36.761,16.12,41.236,27.065z"/>
<path fill="#EFDE8B" d="M3.393,32.39c2.1,9.905,4.685,16.409,10.343,16.409C7.427,42.268,8.17,28.491,9.964,25.063
	C19.102,19.622-0.16,15.634,3.393,32.39z"/>
<path fill="#8E3ED6" d="M6.077,50.43c2.302-1.412,12.2-5.139,12.2-5.139h13.517c0,0,9.89,3.721,12.18,5.135
	C47.298,52.48,48,62,48,62H2C2,62,2.741,52.473,6.077,50.43z"/>
<path fill="#D6A67A" d="M18,45c0,6.75,14,6.75,14,0v-7H18V45z"/>
<path fill="#E3C19B" d="M25,6.255c-10.836,0-16.054,8.824-15.402,20.17c0.134,2.281,0.768,5.57,1.551,8.391
	C12.773,40.674,21.349,46.574,25,46.574c3.649,0,12.227-5.9,13.85-11.759c0.785-2.82,1.419-6.109,1.555-8.391
	C41.053,15.079,35.838,6.255,25,6.255z"/>
<path fill="#C97E55" d="M25,37.218c-2.635-1.16-2.654-0.049-6.719,0.225c1.525,1.732,2.648,3.96,6.717,3.96
	c4.67,0,5.459-2.53,6.723-3.96C27.652,37.169,27.634,36.058,25,37.218z"/>
<path fill="#FFFFFF" d="M19.5,37.872c2.655,2.764,8.378,2.729,11,0.002C26.412,38.313,23.59,38.313,19.5,37.872z"/>
<path fill="#594640" d="M36.941,22.302c-2.442-1.453-6.82-1.633-8.555-0.641c-0.366,0.201-0.268,1.252,0.05,1.121
	c2.472-1.029,6.235-1.08,8.556,0.109C37.304,23.048,37.31,22.515,36.941,22.302z"/>
<path fill="#594640" d="M13.06,22.302c2.44-1.453,6.818-1.633,8.555-0.641c0.366,0.201,0.27,1.252-0.051,1.121
	c-2.473-1.029-6.234-1.082-8.555,0.109C12.697,23.048,12.689,22.515,13.06,22.302z"/>
<path fill="#D6A67A" d="M28.359,33.257c0,2.186-6.719,2.186-6.719,0C21.64,32.753,28.359,32.753,28.359,33.257z"/>
<path fill="#FFFFFF" d="M36.705,26.735c-1.447,3.787-7.337,3.233-8.414,0.582C29.107,23.054,35.908,22.688,36.705,26.735z"/>
<path fill="#613F34" d="M29.765,26.323c0,3.355,4.854,3.355,4.854,0C34.619,23.206,29.765,23.206,29.765,26.323z"/>
<path fill="#7D5037" d="M30.245,27.396c0,1.926,3.893,1.926,3.893,0C34.138,25.61,30.245,25.61,30.245,27.396z"/>
<path fill="#1A1626" d="M31.184,26.376c0,1.393,2.015,1.393,2.015,0C33.199,25.083,31.184,25.083,31.184,26.376z"/>
<path fill="#AB968C" d="M30.496,25.97c0,0.703,1.018,0.703,1.018,0C31.513,25.315,30.496,25.315,30.496,25.97z"/>
<path fill="#45332C" d="M36.705,26.706c0-4.072-8.414-4.072-8.414,0.644C29.489,23.479,35.504,23.479,36.705,26.706z"/>
<path fill="#FFFFFF" d="M13.295,26.735c1.449,3.787,7.339,3.233,8.418,0.582C20.894,23.054,14.093,22.688,13.295,26.735z"/>
<path fill="#613F34" d="M15.383,26.329c0,3.356,4.851,3.356,4.851,0C20.234,23.212,15.383,23.212,15.383,26.329z"/>
<path fill="#7D5037" d="M15.861,27.401c0,1.924,3.894,1.924,3.894,0C19.756,25.616,15.861,25.616,15.861,27.401z"/>
<path fill="#1A1626" d="M16.8,26.382c0,1.393,2.017,1.393,2.017,0C18.817,25.087,16.8,25.087,16.8,26.382z"/>
<path fill="#AB968C" d="M16.113,25.974c0,0.705,1.018,0.705,1.018,0C17.131,25.321,16.113,25.321,16.113,25.974z"/>
<path fill="#45332C" d="M13.295,26.706c0-4.072,8.418-4.072,8.418,0.642C20.512,23.477,14.498,23.477,13.295,26.706z"/>
<path fill="#EFDE8B" d="M37.107,7.833c-7.598,7.785-0.346,8.287,4.129,19.232c2.512,6.133,4.101,13.755,5.814,2.779
	C49.189,16.128,40.968,6.688,37.107,7.833z"/>
<path fill="#EFDE8B" d="M18.457,4.851C8.822,7.118-0.16,15.634,3.393,32.39c2.1,9.905,4.776-3.898,6.57-7.326
	c9.139-5.441,24.769-9.561,27.144-17.23C38.313,6.062,28.098,2.325,18.457,4.851z"/>
<path fill="#BA9D52" d="M11.074,17.056c4.074-0.826,23.566-1.215,26.033-9.223C32.502,11.503,27.729,12.503,11.074,17.056z"/>
<path fill="#BA9D52" d="M4.05,29.796c6.835-9.123,29.228-8.117,33.058-21.963C29.672,19.454,5.918,21.024,4.05,29.796z"/>
<path fill="#BA9D52" d="M34.855,9.729c-1.766,2.781,4.364-1.303,10.971,16.6C44.198,15.862,38.615,8.657,34.855,9.729z"/>
<path fill="#D6A67A" d="M53.092,40.838c0.611-0.342,0.564-1.785-0.917-1.404c-3.563,0.915-5.712,1.596-6.733,3.496
	C44.753,44.211,48.788,42.791,53.092,40.838z"/>
<path fill="#732EB0" d="M9,62h1C9.5,55.334,9.5,55.334,9,62z"/>
<linearGradient id="SVGID_1_" gradientUnits="userSpaceOnUse" x1="43.0077" y1="56.5011" x2="38.6658" y2="55.3971">
	<stop  offset="0" style="stop-color:#5D1E96"/>
	<stop  offset="0.093" style="stop-color:#6825A5"/>
	<stop  offset="0.2674" style="stop-color:#7930BB"/>
	<stop  offset="0.4596" style="stop-color:#8538CA"/>
	<stop  offset="0.6813" style="stop-color:#8C3DD3"/>
	<stop  offset="1" style="stop-color:#8E3ED6"/>
</linearGradient>
<path fill="url(#SVGID_1_)" d="M35.441,62h7.768l0.31-11.938l-4.99-2.123C38.529,47.939,35.731,57.906,35.441,62z"/>
<path fill="#8E3ED6" d="M51.843,62c0,0-0.467-15.172-1.031-15.766c-1.053-1.104-5.824-0.666-6.635,0.021
	C43.367,46.943,41.843,62,41.843,62H51.843z"/>
<path fill="#E3C19B" d="M50.453,46.75c-0.088-0.662,0.328-1.234,0.328-1.234s12.961-2.807,11.021-5.51
	c-0.836-1.162-5.111,0.26-8.902,0.695c-2.307,0.266-8.887-0.998-8.267,6.049C44.759,48.201,50.556,47.541,50.453,46.75z"/>
</svg>
