<?xml version="1.0" encoding="utf-8"?>
<!-- Generator: Adobe Illustrator 15.0.0, SVG Export Plug-In . SVG Version: 6.00 Build 0)  -->
<!DOCTYPE svg PUBLIC "-//W3C//DTD SVG 1.1//EN" "http://www.w3.org/Graphics/SVG/1.1/DTD/svg11.dtd" [
	<!ENTITY ns_flows "http://ns.adobe.com/Flows/1.0/">
	<!ENTITY ns_extend "http://ns.adobe.com/Extensibility/1.0/">
	<!ENTITY ns_ai "http://ns.adobe.com/AdobeIllustrator/10.0/">
	<!ENTITY ns_graphs "http://ns.adobe.com/Graphs/1.0/">
]>
<svg version="1.1" id="Layer_1" xmlns:x="&ns_extend;" xmlns:i="&ns_ai;" xmlns:graph="&ns_graphs;"
	 xmlns="http://www.w3.org/2000/svg" xmlns:xlink="http://www.w3.org/1999/xlink" xmlns:a="http://ns.adobe.com/AdobeSVGViewerExtensions/3.0/"
	 x="0px" y="0px" width="64px" height="64px" viewBox="0 0 64 64" enable-background="new 0 0 64 64" xml:space="preserve">
<path fill="#7AB51D" d="M6.256,49.336c2.4-1.572,12.361-5.727,12.361-5.727h14.842c0,0,9.951,4.145,12.34,5.723
	C49.268,51.621,50,62,50,62H2C2,62,2.775,51.613,6.256,49.336z"/>
<path fill="#E6B045" d="M34,44.998c0,6.75-16,6.75-16,0v-7h16V44.998z"/>
<path fill="#E6B045" d="M41.391,22.874c5.146-0.928,1.127,13.46-2.902,9.492C36.623,30.524,38.984,23.309,41.391,22.874z"/>
<path fill="#E6B045" d="M10.611,22.874c2.406,0.436,4.77,7.65,2.9,9.492C9.482,36.334,5.467,21.946,10.611,22.874z"/>
<path fill="#FFCC66" d="M26,6c10.643,0,15.77,8.051,15.127,19.244c-0.129,2.254-1.525,9.599-2.844,12.234
	c-1.348,2.695-5.859,6.852-8.625,7.713c-1.746,0.543-5.568,0.543-7.314,0c-2.764-0.861-7.277-5.018-8.627-7.713
	c-1.318-2.635-2.713-9.98-2.842-12.234C10.23,14.051,15.359,6,26,6z"/>
<path fill="#E6A400" d="M26,36.475c2.395-0.705,5.939,0.332,5.939,0.332c-1.35,1.471-2.34,3.381-5.939,3.381
	c-4.123,0-4.822-2.166-5.939-3.381C20.061,36.807,23.609,35.766,26,36.475z"/>
<path fill="#FFFFFF" d="M31.035,37.057c-2.508,2.105-7.576,2.117-10.1,0C23.609,37.17,28.342,37.172,31.035,37.057z"/>
<path fill="#E6B045" d="M22.701,32.516c0,2.148,6.6,2.148,6.6,0C29.301,32.024,22.701,32.024,22.701,32.516z"/>
<path fill="#453631" d="M26,6c7.322,0-9.73,6.189-16.016,11.658C10.6,10.918,14.883,6,26,6z"/>
<path fill="#453631" d="M20.586,11.875c7.041,2.6,21.992,2.803,21.705,7.127c-0.205,3.084-0.734,6.387-1.568,9.271
	c-0.334-2.475,0.426-3.496-0.717-6.479c-3.426-8.914-1.221-5.172-14.008-5.172c-12.783,0-10.477-3.414-14.004,5.172
	c-1.053,2.559-0.383,4.004-0.719,6.479C7.072,12.637,13.117,9.12,20.586,11.875z"/>
<path fill="#FFFFFF" d="M14.607,26.112c1.424,3.721,7.207,3.176,8.268,0.57C22.07,22.499,15.389,22.141,14.607,26.112z"/>
<path fill="#FFFFFF" d="M37.395,26.112c-1.422,3.721-7.209,3.176-8.268,0.57C29.934,22.497,36.613,22.139,37.395,26.112z"/>
<path fill="#C1873C" d="M14.018,21.631c2.436-1.207,7.092-1.268,8.826-0.426c0.371,0.164,0.127,1.311-0.186,1.199
	c-2.42-0.895-6.318-0.916-8.582,0.078C13.775,22.61,13.648,21.801,14.018,21.631z"/>
<path fill="#C1873C" d="M37.984,21.631c-2.434-1.207-7.09-1.268-8.826-0.426c-0.371,0.164-0.127,1.311,0.186,1.199
	c2.422-0.895,6.318-0.916,8.584,0.078C38.229,22.61,38.354,21.801,37.984,21.631z"/>
<path fill="#613F34" d="M16.674,25.713c0,3.266,4.725,3.266,4.725,0C21.398,22.682,16.674,22.682,16.674,25.713z"/>
<path fill="#7D5037" d="M20.932,26.76c0,1.871-3.791,1.871-3.791,0C17.141,25.022,20.932,25.022,20.932,26.76z"/>
<path fill="#1A1626" d="M20.018,25.764c0,1.357-1.963,1.357-1.963,0C18.055,24.51,20.018,24.51,20.018,25.764z"/>
<path fill="#AB968C" d="M17.385,25.37c0,0.686,0.992,0.686,0.992,0C18.377,24.737,17.385,24.737,17.385,25.37z"/>
<path fill="#613F34" d="M30.602,25.713c0,3.266,4.727,3.266,4.727,0C35.328,22.682,30.602,22.682,30.602,25.713z"/>
<path fill="#7D5037" d="M34.859,26.758c0,1.873-3.789,1.873-3.789,0C31.07,25.02,34.859,25.02,34.859,26.758z"/>
<path fill="#1A1626" d="M33.945,25.764c0,1.355-1.961,1.355-1.961,0C31.984,24.508,33.945,24.508,33.945,25.764z"/>
<path fill="#AB968C" d="M31.314,25.37c0,0.684,0.99,0.684,0.99,0C32.305,24.735,31.314,24.735,31.314,25.37z"/>
<path fill="#E6B045" d="M14.607,26.083c0-3.996,8.268-3.996,8.268,0.633C21.693,22.918,15.789,22.918,14.607,26.083z"/>
<path fill="#E6B045" d="M37.395,26.083c0-3.996-8.268-3.996-8.268,0.631C30.307,22.917,36.213,22.917,37.395,26.083z"/>
<path fill="#529320" d="M9,62h1C9.5,55.332,9.5,55.332,9,62z"/>
<path fill="#529320" d="M42,62h1C42.5,55.332,42.5,55.332,42,62z"/>
<path fill="#BEC3CF" d="M45.908,6.749c-0.338,13.354,0.547,21.566,0.547,21.566s1.02,2.348,0.854,2.854
	c-0.557-0.184-1.17-0.254-1.799-0.182c-2.24,0.262-3.854,2.21-3.602,4.351c0.25,2.145,2.27,3.668,4.508,3.41
	c2.24-0.262,3.854-2.213,3.604-4.355c-0.025-0.234-0.186-0.803-0.199-0.84c-1.633-4.601-1.072-6.408-1.072-6.408L45.908,6.749z
	 M46.197,36.871c-1.158,0.137-2.203-0.652-2.332-1.76s0.707-2.115,1.863-2.251c1.16-0.135,2.205,0.654,2.332,1.761
	C48.193,35.729,47.355,36.738,46.197,36.871z"/>
<path fill="#594640" d="M26.176,6c-14.83,0-15.219,7.988-11.344,9.717c13.441,5.99,34.744,10.109,38.072-0.99
	C42.266,19.491,43.873,6,26.176,6z"/>
<path fill="#453631" d="M15.672,8.202c-0.924,0.648-6.217,3.586-1.352,7.896c7.4,6.557,36.658,10.461,38.584-1.371
	C48.021,28.514,9.461,15.426,15.672,8.202z"/>
<path fill="#CFD8DD" d="M54.725,26c-0.393,0.477-0.65,1.014-0.785,1.572c-0.531-0.135-2.068-2.197-2.068-2.197L35.625,12.293
	c5.391,8.164,10.705,11.604,10.807,12.994c0.182,2.51,2.779,2.373,3.373,1.172c0,0,1.717,0.668,4.926,4.422
	c0.025,0.029,0.447,0.459,0.637,0.605c1.764,1.33,4.332,1.029,5.738-0.672c1.41-1.697,1.121-4.156-0.643-5.486
	C58.701,23.999,56.137,24.301,54.725,26z M59.568,29.655C58.838,30.532,57.51,30.688,56.6,30c-0.912-0.688-1.061-1.959-0.332-2.838
	c0.727-0.879,2.057-1.035,2.967-0.348C60.146,27.502,60.295,28.774,59.568,29.655z"/>
<path fill="#302C3B" d="M49.006,24.473c0.465,0.354,0.543,1.004,0.17,1.453c-0.375,0.451-1.055,0.531-1.521,0.182
	c-0.467-0.355-0.545-1.004-0.168-1.455C47.855,24.2,48.537,24.122,49.006,24.473z"/>
</svg>
