<?xml version="1.0" encoding="utf-8"?>
<!-- Generator: Adobe Illustrator 19.0.0, SVG Export Plug-In . SVG Version: 6.00 Build 0)  -->
<svg version="1.1" id="Layer_1" xmlns="http://www.w3.org/2000/svg" xmlns:xlink="http://www.w3.org/1999/xlink" x="0px" y="0px"
	 width="64px" height="64px" viewBox="0 0 64 64" enable-background="new 0 0 64 64" xml:space="preserve">
<path fill="#7AB51D" d="M12.256,49.337c2.4-1.572,12.361-5.726,12.361-5.726h14.842c0,0,9.951,4.145,12.34,5.723
	C55.268,51.622,56,61.999,56,61.999H8C8,61.999,8.775,51.614,12.256,49.337z"/>
<path fill="#D6A67A" d="M24.223,45.446c0,6.381,15.553,6.381,15.553,0c0-3.891,0-10.324,0-10.324H24.223
	C24.223,35.122,24.223,40.423,24.223,45.446z"/>
<path fill="#D6A67A" d="M16.611,22.874c-5.146-0.928-1.127,13.463,2.902,9.494C21.379,30.526,19.017,23.31,16.611,22.874z"/>
<path fill="#D6A67A" d="M47.391,22.874c-2.406,0.436-4.769,7.652-2.9,9.494C48.518,36.337,52.533,21.946,47.391,22.874z"/>
<path fill="#E3C19B" d="M32,6.001c-10.641,0-15.77,8.051-15.125,19.246c0.127,2.254,1.523,9.6,2.842,12.234
	c1.348,2.695,5.861,6.852,8.625,7.713c1.746,0.543,5.568,0.543,7.314,0c2.766-0.861,7.277-5.018,8.627-7.713
	c1.318-2.635,2.715-9.98,2.844-12.234C47.77,14.052,42.643,6.001,32,6.001z"/>
<path fill="#BF8C6B" d="M32,36.478c-2.395-0.705-5.94,0.332-5.94,0.332C27.41,38.28,28.4,40.19,32,40.19
	c4.125,0,4.824-2.166,5.939-3.381C37.939,36.81,34.391,35.769,32,36.478z"/>
<path fill="#FFFFFF" d="M26.967,37.06c2.508,2.105,7.576,2.117,10.098,0C34.391,37.173,29.658,37.175,26.967,37.06z"/>
<path fill="#D6A67A" d="M35.299,32.519c0,2.148-6.598,2.148-6.598,0C28.701,32.026,35.299,32.026,35.299,32.519z"/>
<path fill="#EFDE8B" d="M32,6.001c-7.32,0-11.744,2.418-13.65,1.49c0,0-0.207,1.248,0.539,2.061c0,0-0.789,0.684-2.063-0.469
	c-1.213,3.939,2.389,6.221,15.174,6.221c12.787,0,9.732-3.113,16.018,2.356C47.4,10.919,43.119,6.001,32,6.001z"/>
<path fill="#BA9D52" d="M37.414,11.876c-7.039,2.6-9.613-2.088-16.254-2.541c3.158,1.492,4.701,3.787,7.295,5.443
	c-5.646-1.889-9.789-5.141-10.104-7.275c0,0-0.943,3.117,2.783,5.447c-3.563,0.33-4.307-3.855-4.307-3.855
	c-1.803,2.898-1.553,12.246,0.451,19.182c0.334-2.475-0.428-3.498,0.717-6.48c3.424-8.914,1.221-5.172,14.006-5.172
	c12.785,0,10.477-3.414,14.004,5.172c1.053,2.559,0.385,4.006,0.719,6.48C50.928,12.638,44.883,9.12,37.414,11.876z"/>
<path fill="#BF8C6B" d="M43.982,21.632c-2.434-1.207-7.09-1.268-8.824-0.426c-0.371,0.164-0.127,1.31,0.186,1.199
	c2.418-0.895,6.318-0.916,8.582,0.078C44.227,22.61,44.352,21.802,43.982,21.632z"/>
<path fill="#BF8C6B" d="M20.017,21.632c2.434-1.207,7.09-1.268,8.826-0.426c0.371,0.164,0.127,1.31-0.188,1.199
	c-2.422-0.895-6.316-0.916-8.582,0.078C19.773,22.61,19.648,21.802,20.017,21.632z"/>
<path fill="#45332C" d="M28.56,26.142c-2.016,1.285-5.144,1.285-7.16,0c-0.309-0.197-0.492,0.016-0.395,0.182
	c1.957,3.318,5.99,3.318,7.947,0C29.053,26.157,28.867,25.944,28.56,26.142z"/>
<path fill="#45332C" d="M42.6,26.142c-2.016,1.285-5.145,1.285-7.16,0c-0.309-0.197-0.49,0.016-0.395,0.182
	c1.957,3.318,5.99,3.318,7.947,0C43.092,26.157,42.906,25.944,42.6,26.142z"/>
<path opacity="0.3" d="M26.328,14.153c-2.59,0.191-13.893-5.953-13.932,2.955c-0.012,2.814,3.393,8.486,3.537,10.149
	c0.25,2.875,3.371,2.84,3.252,0.771c-0.396-6.791-1.928-9.469,0.315-11.459c0.496-0.44,4.701,0.84,6.559-0.061
	C27.344,15.884,27.148,14.095,26.328,14.153z"/>
<path fill="#E3C19B" d="M26.223,13.981c-2.59,0.191-4.166-2.273-5.182-3.9c-0.705-1.129-3.271-2.049-3.951-3.719
	c-0.762-1.875-0.939-4.361-0.939-4.361h-6.1c0,0,1.635,5.68,1.596,14.586c-0.012,2.814,1.467,7.379,3.629,9.406
	c0,0,0.25,0.803,0.693,1.992c0.828,2.221,3.246,1.656,2.787-0.365c-1.225-5.383-2.242-10.283,0-12.273
	c0.496-0.439,5.311,1.6,7.168,0.697C27.209,15.421,27.043,13.923,26.223,13.981z"/>
<path opacity="0.3" d="M37.67,14.153c2.592,0.191,13.895-5.953,13.932,2.955c0.014,2.814-3.391,8.486-3.535,10.149
	c-0.25,2.875-3.373,2.84-3.252,0.771c0.395-6.791,1.928-9.469-0.314-11.459c-0.496-0.44-4.703,0.84-6.559-0.061
	C36.656,15.884,36.852,14.095,37.67,14.153z"/>
<path fill="#E3C19B" d="M37.775,13.981c2.592,0.191,4.168-2.273,5.184-3.9c0.703-1.129,3.271-2.049,3.951-3.719
	c0.762-1.875,0.94-4.361,0.94-4.361h6.1c0,0-1.635,5.68-1.598,14.586c0.014,2.814-1.465,7.379-3.627,9.406
	c0,0-0.25,0.803-0.693,1.992c-0.828,2.221-3.248,1.656-2.787-0.365c1.223-5.383,2.242-10.283,0-12.273
	c-0.496-0.439-5.313,1.6-7.168,0.697C36.791,15.421,36.957,13.923,37.775,13.981z"/>
<path fill="#529320" d="M15,61.999h1C15.5,55.333,15.5,55.333,15,61.999z"/>
<path fill="#529320" d="M48,61.999h1C48.5,55.333,48.5,55.333,48,61.999z"/>
</svg>
