<?xml version="1.0" encoding="utf-8"?>
<!-- Generator: Adobe Illustrator 15.0.0, SVG Export Plug-In . SVG Version: 6.00 Build 0)  -->
<!DOCTYPE svg PUBLIC "-//W3C//DTD SVG 1.1//EN" "http://www.w3.org/Graphics/SVG/1.1/DTD/svg11.dtd" [
	<!ENTITY ns_flows "http://ns.adobe.com/Flows/1.0/">
	<!ENTITY ns_extend "http://ns.adobe.com/Extensibility/1.0/">
	<!ENTITY ns_ai "http://ns.adobe.com/AdobeIllustrator/10.0/">
	<!ENTITY ns_graphs "http://ns.adobe.com/Graphs/1.0/">
]>
<svg version="1.1" id="Layer_1" xmlns:x="&ns_extend;" xmlns:i="&ns_ai;" xmlns:graph="&ns_graphs;"
	 xmlns="http://www.w3.org/2000/svg" xmlns:xlink="http://www.w3.org/1999/xlink" xmlns:a="http://ns.adobe.com/AdobeSVGViewerExtensions/3.0/"
	 x="0px" y="0px" width="64px" height="64px" viewBox="0 0 64 64" enable-background="new 0 0 64 64" xml:space="preserve">
<radialGradient id="SVGID_1_" cx="-486.6191" cy="-420.25" r="11.15" gradientTransform="matrix(2.9058 0 0 3.0887 1446.1848 1308.9381)" gradientUnits="userSpaceOnUse">
	<stop  offset="0.4182" style="stop-color:#FFC5C8"/>
	<stop  offset="0.5606" style="stop-color:#FFBFBF"/>
	<stop  offset="0.7941" style="stop-color:#FFAFA6"/>
	<stop  offset="1" style="stop-color:#FF9D8B"/>
	<a:midPointStop  offset="0.4182" style="stop-color:#FFC5C8"/>
	<a:midPointStop  offset="0.5979" style="stop-color:#FFC5C8"/>
	<a:midPointStop  offset="1" style="stop-color:#FF9D8B"/>
</radialGradient>
<path fill="url(#SVGID_1_)" d="M31.997,14.334C24.034,1.392,2,6.446,2,22.701C2,33.604,12.163,40.9,31.997,57
	C51.83,40.9,62,33.604,62,22.701C62,6.446,39.963,1.392,31.997,14.334z"/>
<radialGradient id="SVGID_2_" cx="-520.1592" cy="-340.1045" r="12.1637" gradientTransform="matrix(2.1309 0 0 2.2239 1140.5397 774.1422)" gradientUnits="userSpaceOnUse">
	<stop  offset="0.4182" style="stop-color:#FF7164"/>
	<stop  offset="0.5679" style="stop-color:#FC685D"/>
	<stop  offset="0.8135" style="stop-color:#F34F4A"/>
	<stop  offset="1" style="stop-color:#EB3838"/>
	<a:midPointStop  offset="0.4182" style="stop-color:#FF7164"/>
	<a:midPointStop  offset="0.5979" style="stop-color:#FF7164"/>
	<a:midPointStop  offset="1" style="stop-color:#EB3838"/>
</radialGradient>
<path fill="url(#SVGID_2_)" d="M31.999,20.488C25.627,10.322,8,14.292,8,27.06C8,35.624,16.131,41.354,31.999,54
	C47.865,41.354,56,35.624,56,27.06C56,14.292,38.371,10.322,31.999,20.488z"/>
<radialGradient id="SVGID_3_" cx="-551.1064" cy="-214.8623" r="13.3799" gradientTransform="matrix(1.4529 0 0 1.5444 832.8014 355.1763)" gradientUnits="userSpaceOnUse">
	<stop  offset="0.4182" style="stop-color:#C90000"/>
	<stop  offset="0.6205" style="stop-color:#C00000"/>
	<stop  offset="0.9523" style="stop-color:#A70000"/>
	<stop  offset="1" style="stop-color:#A30000"/>
	<a:midPointStop  offset="0.4182" style="stop-color:#C90000"/>
	<a:midPointStop  offset="0.5979" style="stop-color:#C90000"/>
	<a:midPointStop  offset="1" style="stop-color:#A30000"/>
</radialGradient>
<path fill="url(#SVGID_3_)" d="M31.999,25.4C27.221,17.634,14,20.668,14,30.42c0,6.543,6.099,10.921,17.999,20.58
	C43.898,41.341,50,36.963,50,30.42C50,20.668,36.777,17.634,31.999,25.4z"/>
</svg>
