<?xml version="1.0" encoding="utf-8"?>
<!-- Generator: Adobe Illustrator 15.0.0, SVG Export Plug-In . SVG Version: 6.00 Build 0)  -->
<!DOCTYPE svg PUBLIC "-//W3C//DTD SVG 1.1//EN" "http://www.w3.org/Graphics/SVG/1.1/DTD/svg11.dtd" [
	<!ENTITY ns_flows "http://ns.adobe.com/Flows/1.0/">
	<!ENTITY ns_extend "http://ns.adobe.com/Extensibility/1.0/">
	<!ENTITY ns_ai "http://ns.adobe.com/AdobeIllustrator/10.0/">
	<!ENTITY ns_graphs "http://ns.adobe.com/Graphs/1.0/">
]>
<svg version="1.1" id="Layer_1" xmlns:x="&ns_extend;" xmlns:i="&ns_ai;" xmlns:graph="&ns_graphs;"
	 xmlns="http://www.w3.org/2000/svg" xmlns:xlink="http://www.w3.org/1999/xlink" xmlns:a="http://ns.adobe.com/AdobeSVGViewerExtensions/3.0/"
	 x="0px" y="0px" width="64px" height="64px" viewBox="0 0 64 64" enable-background="new 0 0 64 64" xml:space="preserve">
<radialGradient id="SVGID_1_" cx="-486.6191" cy="-419.8887" r="11.15" gradientTransform="matrix(2.9058 0 0 3.0887 1446.1848 1308.8221)" gradientUnits="userSpaceOnUse">
	<stop  offset="0.4182" style="stop-color:#FF1C23"/>
	<stop  offset="0.6205" style="stop-color:#F6151B"/>
	<stop  offset="0.9523" style="stop-color:#DD0404"/>
	<stop  offset="1" style="stop-color:#D90100"/>
	<a:midPointStop  offset="0.4182" style="stop-color:#FF1C23"/>
	<a:midPointStop  offset="0.5979" style="stop-color:#FF1C23"/>
	<a:midPointStop  offset="1" style="stop-color:#D90100"/>
</radialGradient>
<path fill="url(#SVGID_1_)" d="M31.997,15.334C24.034,2.392,2,7.446,2,23.701C2,34.605,12.163,41.9,31.997,58
	C51.831,41.9,62,34.605,62,23.701C62,7.446,39.963,2.392,31.997,15.334z"/>
<path opacity="0.25" fill="#1A1626" d="M51.332,7.818c0,7.86-5.103,11.288-11.091,11.288c5.988,0,10.234,7.033,10.234,14.895
	c0-7.861,4.254-14.895,10.242-14.895C54.729,19.105,51.332,15.678,51.332,7.818z"/>
<path fill="#FFE12C" d="M51.758,2c0,7.86-4.244,14.891-10.231,14.891c5.987,0,10.231,7.034,10.231,14.895
	c0-7.861,4.254-14.895,10.242-14.895C56.012,16.891,51.758,9.86,51.758,2z"/>
<path opacity="0.25" fill="#1A1626" d="M13.091,22.818c0,7.86-5.103,11.288-11.091,11.288c5.988,0,10.234,7.033,10.234,14.895
	c0-7.861,4.254-14.895,10.242-14.895C16.488,34.105,13.091,30.678,13.091,22.818z"/>
<path fill="#FFE12C" d="M13.517,17c0,7.86-4.244,14.891-10.231,14.891c5.987,0,10.231,7.035,10.231,14.894
	c0-7.859,4.254-14.894,10.242-14.894C17.771,31.891,13.517,24.86,13.517,17z"/>
<path opacity="0.25" fill="#1A1626" d="M42.212,35.818c0,7.859-5.104,11.287-11.092,11.287c5.988,0,10.234,7.033,10.234,14.895
	c0-7.861,4.254-14.895,10.242-14.895C45.608,47.105,42.212,43.678,42.212,35.818z"/>
<path fill="#FFE12C" d="M42.638,30c0,7.859-4.244,14.891-10.232,14.891c5.988,0,10.232,7.033,10.232,14.895
	c0-7.861,4.254-14.895,10.242-14.895C46.892,44.891,42.638,37.859,42.638,30z"/>
</svg>
