<?xml version="1.0" encoding="utf-8"?>
<!-- Generator: Adobe Illustrator 15.0.0, SVG Export Plug-In . SVG Version: 6.00 Build 0)  -->
<!DOCTYPE svg PUBLIC "-//W3C//DTD SVG 1.1//EN" "http://www.w3.org/Graphics/SVG/1.1/DTD/svg11.dtd" [
	<!ENTITY ns_flows "http://ns.adobe.com/Flows/1.0/">
	<!ENTITY ns_extend "http://ns.adobe.com/Extensibility/1.0/">
	<!ENTITY ns_ai "http://ns.adobe.com/AdobeIllustrator/10.0/">
	<!ENTITY ns_graphs "http://ns.adobe.com/Graphs/1.0/">
]>
<svg version="1.1" id="Layer_1" xmlns:x="&ns_extend;" xmlns:i="&ns_ai;" xmlns:graph="&ns_graphs;"
	 xmlns="http://www.w3.org/2000/svg" xmlns:xlink="http://www.w3.org/1999/xlink" xmlns:a="http://ns.adobe.com/AdobeSVGViewerExtensions/3.0/"
	 x="0px" y="0px" width="64px" height="64px" viewBox="0 0 64 64" enable-background="new 0 0 64 64" xml:space="preserve">
<radialGradient id="SVGID_1_" cx="-403.9219" cy="-434.1431" r="9.3097" gradientTransform="matrix(2.6335 1.228 -1.3054 2.7993 527.3209 1738.5195)" gradientUnits="userSpaceOnUse">
	<stop  offset="0.4182" style="stop-color:#FF1C23"/>
	<stop  offset="0.6205" style="stop-color:#F6151B"/>
	<stop  offset="0.9523" style="stop-color:#DD0404"/>
	<stop  offset="1" style="stop-color:#D90100"/>
	<a:midPointStop  offset="0.4182" style="stop-color:#FF1C23"/>
	<a:midPointStop  offset="0.5979" style="stop-color:#FF1C23"/>
	<a:midPointStop  offset="1" style="stop-color:#D90100"/>
</radialGradient>
<path fill="url(#SVGID_1_)" d="M28.941,29.715c-1.459-12.604-19.916-16.554-25.65-4.254C-0.557,33.713,4.56,42.819,13.886,62
	c20.688-5.184,30.958-7.115,34.806-15.367C54.428,34.333,39.535,22.732,28.941,29.715z"/>
<radialGradient id="SVGID_2_" cx="-558.6694" cy="-452.9209" r="5.0779" gradientTransform="matrix(2.6335 -1.228 1.3054 2.7993 2109.2158 588.7471)" gradientUnits="userSpaceOnUse">
	<stop  offset="0.4182" style="stop-color:#FF1C23"/>
	<stop  offset="0.6205" style="stop-color:#F6151B"/>
	<stop  offset="0.9523" style="stop-color:#DD0404"/>
	<stop  offset="1" style="stop-color:#D90100"/>
	<a:midPointStop  offset="0.4182" style="stop-color:#FF1C23"/>
	<a:midPointStop  offset="0.5979" style="stop-color:#FF1C23"/>
	<a:midPointStop  offset="1" style="stop-color:#D90100"/>
</radialGradient>
<path fill="url(#SVGID_2_)" d="M47.303,8.39c-5.777-3.809-13.898,2.518-10.771,9.226c2.099,4.5,7.697,5.556,18.981,8.383
	c5.088-10.462,7.881-15.43,5.782-19.931C58.168-0.64,48.1,1.515,47.303,8.39z"/>
</svg>
