<?xml version="1.0" encoding="utf-8"?>
<!-- Generator: Adobe Illustrator 19.0.0, SVG Export Plug-In . SVG Version: 6.00 Build 0)  -->
<svg version="1.1" id="Layer_1" xmlns="http://www.w3.org/2000/svg" xmlns:xlink="http://www.w3.org/1999/xlink" x="0px" y="0px"
	 width="64px" height="64px" viewBox="0 0 64 64" enable-background="new 0 0 64 64" xml:space="preserve">
<path fill="#855C3F" d="M31.801,11.215c3.26,4.246,5,2.842,6.182,3.117c3.559,0.828,3.957,2.41,7.178,2.787
	c4.473,0.524,2.896-2.879,1.109-4.203C41.74,9.556,31.315,10.582,31.801,11.215z"/>
<path fill="#754E31" d="M46.453,14.103c0.662,0.746,2.176,2.668-1.205,2.272c-3.096-0.361-3.336-1.898-7.096-2.773
	c-1.098-0.258-2.094,0.59-3.971-0.936c-0.506,0.211-1.006,0.438-1.498,0.676c2.627,2.506,4.211,1.494,5.129,1.721
	c3.203,0.744,4.049,2.426,7.262,2.803c3.565,0.412,4.623-1.672,3.016-4.078C47.545,13.898,47,14.004,46.453,14.103z"/>
<radialGradient id="SVGID_1_" cx="128.4438" cy="26.5831" r="31.4367" gradientTransform="matrix(0.0555 0.9988 -1.3849 0.0616 69.4525 -103.3391)" gradientUnits="userSpaceOnUse">
	<stop  offset="0.4121" style="stop-color:#916B50"/>
	<stop  offset="0.7275" style="stop-color:#8F694D"/>
	<stop  offset="0.9223" style="stop-color:#896145"/>
	<stop  offset="1" style="stop-color:#855C3F"/>
</radialGradient>
<path fill="url(#SVGID_1_)" d="M31.221,12.863c1.68,0.715,3.434,0.053,4.158-0.611c1.225,0.09,2.92-0.164,2.92-0.164
	c-0.342,2.777,1.498,2.447,5.371,2.662c0.641,0.293,2.619,0.154,2.57-1.197c0.633,0.254,3.184,0.381,2.84-1.205
	c0.613-0.082,1.74-0.184,1.561-1.146c-0.15-0.816-2.826-9.016-6.836-8.314c-0.582,0.102-7.234,0.197-7.869,0.471
	c-3.305,1.428-6.838,1.428-8.475,3.047C6.703,26.912,8.135,35.106,3.936,42.278c-3.611,6.17,2.09,9.883,3.178,10.262
	c23.074,8.016,22.801,11.748,51.568,5.766c1.547-0.32,6.826-11.387-4.57-19.869c-10.328-7.688-21.479-5.725-29.822-0.346
	C28.647,24.824,21.649,25.097,31.221,12.863z"/>
<path fill="#754E31" d="M25.75,47.147c-0.803-1.068,0.555-2.088,1.359-1.021c5.17,6.871,16.402,8.002,25.039,2.518
	c1.201-0.76,2.107,0.674,0.912,1.435C44.115,55.758,32.01,55.465,25.75,47.147z"/>
<path fill="#754E31" d="M54.559,37.834c-9.043-6.73-19.5-6.719-28.902-1.441c2.988-11.09-2.539-11.764,5.826-22.643
	c0.41,0.115,0.836,0.172,1.271,0.172c1.223,0,2.254-0.451,2.873-0.906c0.646,0.025,1.35-0.027,1.889-0.08
	c0.174,2.814,3.613,2.428,5.994,2.557c1.203,0.414,2.813-0.094,3.291-1.063c1.396,0.141,2.766-0.256,3.025-1.438
	c0.838-0.176,1.775-0.715,1.551-1.926c-0.279-1.518-3.031-4.797-3.213-6.436c-0.256-2.318-1.764-2.959-4.486-2.484
	c-0.248,0.037-7.125,0.139-8.039,0.522c-3.41,1.428-6.844,1.361-8.705,3.203C5.705,26.846,8.102,33.684,3.289,41.899
	c-3.828,6.539,1.93,10.777,3.578,11.348C21.055,58.166,27.236,62,37.338,62c5.084,0,11.512-0.885,21.496-2.961
	C61.328,58.522,66.201,46.5,54.559,37.834z M58.529,57.571c-9.879,2.055-16.217,2.93-21.191,2.93
	c-10.375,0-17.334-4.482-29.979-8.67c-1.19-0.393-5.932-3.785-2.775-9.174C9.461,34.33,6.916,27.758,27.988,6.937
	c1.394-1.379,5.471-1.691,8.213-2.879c0.465-0.137,7.494-0.393,7.732-0.434c1.568-0.275,2.666-0.293,2.738,1.172
	c0.098,1.953,2.963,5.557,3.254,6.576c-0.104,0.111-0.547,0.178-0.848,0.219c-0.043-0.08-1.611-3-1.893-3.857
	c0.162,1.707,0.836,3.52,1.172,4.906c0.08,0.332-1.078,0.326-1.398,0.297c-0.205-3.195-0.621-4.576-0.666-7.744
	c-0.029-1.914-2.32-0.756-4.732-0.996c2.344,0.506,4.295-0.223,4.17,0.971c-0.732,7.496,0.885,9.148-1.619,8.934
	c0.16-1.879-0.17-5.488-0.139-7.285c0.027-1.596-2.619-0.482-4.4-1.047c1.68,0.756,3.557,0.207,3.842,0.818
	c0.15,0.242-0.357,6.998-0.658,7.369c-3.047-0.129-3.857-0.004-3.729-1.58c0.025-0.012,0.387-0.182,0.547-0.258
	c0.646,0.531,1.463,0.871,2.43,0.551c-0.736-0.098-1.311-0.598-1.525-1.045c0.711-0.453,1.268-1.094,1.606-1.793
	c-1.512,1.967-6.975,1.648-6.975,1.648s-1.635,1.773-4.125,0.469c-10.508,13.43-2.996,14.146-7.408,25.907
	c-1.467,3.916-3.252,5.494-4.83,7.494c-0.73,0.926,0.525,1.717,1.176,0.93c1.215-1.471,3.883-4.326,5.053-7.727
	c9.691-6.113,19.99-5.99,28.688,0.484C64.236,46.908,59.775,56.873,58.529,57.571z"/>
</svg>
