<?xml version="1.0" encoding="utf-8"?>
<!-- Generator: Adobe Illustrator 15.0.0, SVG Export Plug-In . SVG Version: 6.00 Build 0)  -->
<!DOCTYPE svg PUBLIC "-//W3C//DTD SVG 1.1//EN" "http://www.w3.org/Graphics/SVG/1.1/DTD/svg11.dtd" [
	<!ENTITY ns_flows "http://ns.adobe.com/Flows/1.0/">
	<!ENTITY ns_extend "http://ns.adobe.com/Extensibility/1.0/">
	<!ENTITY ns_ai "http://ns.adobe.com/AdobeIllustrator/10.0/">
	<!ENTITY ns_graphs "http://ns.adobe.com/Graphs/1.0/">
]>
<svg version="1.1" id="Layer_1" xmlns:x="&ns_extend;" xmlns:i="&ns_ai;" xmlns:graph="&ns_graphs;"
	 xmlns="http://www.w3.org/2000/svg" xmlns:xlink="http://www.w3.org/1999/xlink" xmlns:a="http://ns.adobe.com/AdobeSVGViewerExtensions/3.0/"
	 x="0px" y="0px" width="64px" height="64px" viewBox="0 0 64 64" enable-background="new 0 0 64 64" xml:space="preserve">
<path fill="#013366" d="M11,52c0,0-2,0-2,4s2,4,2,4h6v-8H11z"/>
<path fill="#006DAE" d="M17,52v8h36c0,0,2,0,2-2v-8L17,52z"/>
<linearGradient id="SVGID_1_" gradientUnits="userSpaceOnUse" x1="32.2524" y1="7" x2="32.2524" y2="15.958" gradientTransform="matrix(1 0 0 -1 0 66)">
	<stop  offset="0" style="stop-color:#FFFFFF"/>
	<stop  offset="0.2258" style="stop-color:#F5F6F7"/>
	<stop  offset="0.6071" style="stop-color:#DBDFE2"/>
	<stop  offset="1" style="stop-color:#B9C2C7"/>
	<a:midPointStop  offset="0" style="stop-color:#FFFFFF"/>
	<a:midPointStop  offset="0.5" style="stop-color:#FFFFFF"/>
	<a:midPointStop  offset="0.2258" style="stop-color:#F5F6F7"/>
	<a:midPointStop  offset="0.5" style="stop-color:#F5F6F7"/>
	<a:midPointStop  offset="0.6071" style="stop-color:#DBDFE2"/>
	<a:midPointStop  offset="0.5" style="stop-color:#DBDFE2"/>
	<a:midPointStop  offset="1" style="stop-color:#B9C2C7"/>
</linearGradient>
<path fill="url(#SVGID_1_)" d="M16.979,53h-5.936c-0.037,0-0.072,0.001-0.108,0.011C10.715,53.071,10,53.463,10,56
	c0,2.331,0.604,2.851,0.873,2.967C10.932,58.992,10.993,59,11.058,59h41.448c0,0,2,0,2-2v-6.455c0-0.294-0.25-0.525-0.543-0.501
	L17.02,52.998C17.007,52.999,16.993,53,16.979,53z"/>
<path fill="#006DAE" d="M53,53H17v-6h38v4C55,53,53,53,53,53z"/>
<path fill="#0FB4D4" d="M55,6c0,0,0-2-2-2H17v48h36c0,0,2,0,2-2V6z"/>
<linearGradient id="SVGID_2_" gradientUnits="userSpaceOnUse" x1="9" y1="30" x2="17" y2="30">
	<stop  offset="0.2182" style="stop-color:#013366"/>
	<stop  offset="1" style="stop-color:#006DAE"/>
	<a:midPointStop  offset="0.2182" style="stop-color:#013366"/>
	<a:midPointStop  offset="0.5" style="stop-color:#013366"/>
	<a:midPointStop  offset="1" style="stop-color:#006DAE"/>
</linearGradient>
<path fill="url(#SVGID_2_)" d="M11,52c0,0-2,0-2,4V8c0-4,2-4,2-4h6v48H11z"/>
<path fill="#BEC3CF" d="M10.237,58.041c0.057,0.184,0.12,0.332,0.185,0.451l42.941-0.226L10.237,58.041z"/>
<path fill="#BEC3CF" d="M10.058,57.109c0.02,0.164,0.041,0.315,0.066,0.453l43.239-0.228L10.058,57.109z"/>
<path fill="#BEC3CF" d="M10.004,56.176c0.002,0.16,0.006,0.313,0.015,0.455l43.346-0.227L10.004,56.176z"/>
<path fill="#BEC3CF" d="M10.027,55.244c-0.011,0.143-0.018,0.295-0.021,0.455l43.357-0.228L10.027,55.244z"/>
<path fill="#BEC3CF" d="M10.147,54.313c-0.029,0.137-0.054,0.288-0.075,0.454l43.291-0.227L10.147,54.313z"/>
<path fill="#BEC3CF" d="M10.495,53.383c-0.074,0.113-0.147,0.265-0.214,0.451l43.082-0.227L10.495,53.383z"/>
<path id="Shape_15_" fill="#006DAE" d="M35,12.749c1.243,0,2.246,1.007,2.246,2.253c0,1.242-1.003,2.249-2.246,2.249
	c-1.244,0-2.251-1.007-2.251-2.249C32.749,13.756,33.756,12.749,35,12.749z M35,12c-1.655,0-3,1.343-3,3.002
	C32,16.658,33.345,18,35,18c1.656,0,3-1.342,3-2.998c0-0.799-0.318-1.563-0.877-2.124C36.559,12.315,35.796,12,35,12z"/>
<path id="Combined-Shape_8_" fill="#006DAE" d="M35.599,15.298c-0.042,0.008-0.08-0.005-0.112-0.036
	c-0.029-0.029-0.043-0.068-0.036-0.112v-0.301c-0.007-0.039,0.007-0.081,0.036-0.11c0.032-0.029,0.07-0.046,0.112-0.038h0.978
	c0.038-0.008,0.082,0.009,0.111,0.038s0.041,0.071,0.037,0.11v0.153c0,0.695-0.421,1.327-1.065,1.593
	c-0.645,0.268-1.386,0.119-1.879-0.375c-0.035-0.024-0.054-0.063-0.054-0.107c0-0.041,0.019-0.079,0.054-0.104l0.318-0.321
	c0.023-0.034,0.065-0.051,0.106-0.051s0.08,0.017,0.104,0.051c0.241,0.24,0.589,0.338,0.917,0.258c0.33-0.078,0.596-0.321,0.7-0.647
	H35.599z"/>
<path fill="#006DAE" d="M24.558,22.353l-1.051-3.084c-0.023-0.073,0.015-0.12,0.09-0.12h0.364c0.059,0,0.101,0.026,0.12,0.088
	L24.91,21.8l0.83-2.563c0.019-0.062,0.061-0.088,0.12-0.088h0.363c0.075,0,0.113,0.047,0.09,0.12l-1.051,3.084
	c-0.019,0.056-0.061,0.087-0.12,0.087h-0.465C24.619,22.439,24.576,22.408,24.558,22.353z"/>
<path fill="#006DAE" d="M28.701,21.269c0,0.04-0.003,0.078-0.006,0.115c-0.007,0.068-0.049,0.099-0.112,0.099h-0.397h-1.354
	c0.077,0.386,0.363,0.583,0.722,0.583c0.224,0,0.409-0.094,0.51-0.226c0.038-0.04,0.073-0.063,0.13-0.063l0.301-0.002
	c0.077,0,0.119,0.047,0.089,0.112c-0.172,0.384-0.557,0.613-1.037,0.613c-0.749,0-1.24-0.53-1.24-1.236
	c0-0.695,0.496-1.235,1.231-1.235C28.24,20.028,28.701,20.592,28.701,21.269z M28.19,21.064c-0.067-0.4-0.353-0.573-0.655-0.573
	c-0.38,0-0.637,0.222-0.705,0.573H28.19z"/>
<path fill="#006DAE" d="M30.316,20.154v0.334c0,0.066-0.028,0.104-0.077,0.104c-0.309,0.007-0.6,0.176-0.6,0.64v1.102
	c0,0.069-0.038,0.106-0.106,0.106h-0.296c-0.068,0-0.105-0.037-0.105-0.106v-2.139c0-0.068,0.037-0.105,0.105-0.105h0.296
	c0.068,0,0.106,0.037,0.106,0.105v0.247c0.124-0.248,0.33-0.362,0.569-0.388C30.278,20.044,30.316,20.087,30.316,20.154z"/>
<path fill="#006DAE" d="M32.372,21.779c0,0.463-0.404,0.721-0.924,0.721c-0.481,0-0.864-0.229-0.916-0.677
	c-0.007-0.072,0.035-0.11,0.104-0.11h0.292c0.063,0,0.089,0.035,0.112,0.094c0.04,0.17,0.204,0.238,0.408,0.238
	c0.247,0,0.417-0.088,0.417-0.266c0-0.468-1.305-0.135-1.305-1.03c0-0.458,0.404-0.721,0.888-0.721c0.44,0,0.818,0.229,0.87,0.677
	c0.007,0.072-0.035,0.11-0.104,0.11h-0.291c-0.063,0-0.09-0.035-0.113-0.097c-0.037-0.167-0.194-0.235-0.362-0.235
	c-0.211,0-0.38,0.087-0.38,0.266C31.068,21.222,32.372,20.881,32.372,21.779z"/>
<path fill="#006DAE" d="M32.854,19.607v-0.353c0-0.068,0.038-0.106,0.105-0.106h0.296c0.068,0,0.106,0.038,0.106,0.106v0.353
	c0,0.067-0.038,0.105-0.106,0.105h-0.296C32.892,19.713,32.854,19.675,32.854,19.607z M32.854,22.333v-2.139
	c0-0.068,0.038-0.105,0.105-0.105h0.296c0.068,0,0.106,0.037,0.106,0.105v2.139c0,0.069-0.038,0.106-0.106,0.106h-0.296
	C32.892,22.439,32.854,22.402,32.854,22.333z"/>
<path fill="#006DAE" d="M33.819,21.264c0-0.697,0.552-1.235,1.24-1.235c0.689,0,1.241,0.538,1.241,1.235
	c0,0.698-0.552,1.236-1.241,1.236C34.371,22.5,33.819,21.962,33.819,21.264z M35.793,21.264c0-0.428-0.319-0.742-0.733-0.742
	c-0.413,0-0.732,0.314-0.732,0.742s0.319,0.743,0.732,0.743C35.474,22.007,35.793,21.691,35.793,21.264z"/>
<path fill="#006DAE" d="M38.709,20.926v1.407c0,0.069-0.038,0.106-0.105,0.106h-0.297c-0.067,0-0.105-0.037-0.105-0.106v-1.377
	c0-0.303-0.183-0.454-0.43-0.454c-0.266,0-0.506,0.158-0.506,0.588v1.243c0,0.069-0.037,0.106-0.105,0.106h-0.296
	c-0.068,0-0.105-0.037-0.105-0.106v-2.139c0-0.068,0.037-0.105,0.105-0.105h0.296c0.068,0,0.105,0.037,0.105,0.105v0.161
	c0.151-0.229,0.381-0.327,0.668-0.327C38.37,20.028,38.709,20.361,38.709,20.926z"/>
<path fill="#006DAE" d="M42.788,21.45v0.291c0,0.068-0.038,0.105-0.105,0.105h-0.271v0.486c0,0.069-0.038,0.106-0.105,0.106h-0.334
	c-0.068,0-0.105-0.037-0.105-0.106v-0.486h-1.535c-0.068,0-0.105-0.037-0.105-0.105v-0.329c0-0.047,0.009-0.087,0.03-0.132
	l1.064-2.057c0.026-0.051,0.066-0.075,0.125-0.075h0.359c0.08,0,0.113,0.052,0.075,0.127l-1.069,2.068h1.056v-0.749
	c0-0.068,0.037-0.106,0.105-0.106h0.334c0.067,0,0.105,0.038,0.105,0.106v0.749h0.271C42.75,21.344,42.788,21.382,42.788,21.45z"/>
<path fill="#006DAE" d="M43.151,22.333v-0.376c0-0.068,0.038-0.105,0.105-0.105h0.376c0.068,0,0.105,0.037,0.105,0.105v0.376
	c0,0.069-0.037,0.106-0.105,0.106h-0.376C43.189,22.439,43.151,22.402,43.151,22.333z"/>
<path fill="#006DAE" d="M46.5,21.445c0,0.688-0.545,1.055-1.151,1.055c-0.573,0-1.093-0.329-1.147-0.944
	c-0.004-0.073,0.036-0.11,0.104-0.11h0.334c0.063,0,0.097,0.035,0.108,0.101c0.042,0.273,0.274,0.428,0.602,0.428
	c0.369,0,0.611-0.199,0.611-0.528s-0.242-0.529-0.611-0.529h-0.886c-0.068,0-0.108-0.039-0.104-0.11l0.112-1.556
	c0.005-0.063,0.045-0.102,0.108-0.102h1.673c0.068,0,0.106,0.038,0.106,0.106v0.296c0,0.067-0.038,0.105-0.106,0.105h-1.271
	L44.93,20.39h0.442C45.979,20.39,46.5,20.756,46.5,21.445z"/>
</svg>
