<?xml version="1.0" encoding="utf-8"?>
<!-- Generator: Adobe Illustrator 15.0.0, SVG Export Plug-In . SVG Version: 6.00 Build 0)  -->
<!DOCTYPE svg PUBLIC "-//W3C//DTD SVG 1.1//EN" "http://www.w3.org/Graphics/SVG/1.1/DTD/svg11.dtd" [
	<!ENTITY ns_flows "http://ns.adobe.com/Flows/1.0/">
	<!ENTITY ns_extend "http://ns.adobe.com/Extensibility/1.0/">
	<!ENTITY ns_ai "http://ns.adobe.com/AdobeIllustrator/10.0/">
	<!ENTITY ns_graphs "http://ns.adobe.com/Graphs/1.0/">
]>
<svg version="1.1" id="Layer_1" xmlns:x="&ns_extend;" xmlns:i="&ns_ai;" xmlns:graph="&ns_graphs;"
	 xmlns="http://www.w3.org/2000/svg" xmlns:xlink="http://www.w3.org/1999/xlink" xmlns:a="http://ns.adobe.com/AdobeSVGViewerExtensions/3.0/"
	 x="0px" y="0px" width="64px" height="64px" viewBox="0 0 64 64" enable-background="new 0 0 64 64" xml:space="preserve">
<path fill="#7A0000" d="M11,52c0,0-2,0-2,4s2,4,2,4h6v-8H11z"/>
<path fill="#8F0000" d="M17,52v8h36c0,0,2,0,2-2v-8L17,52z"/>
<linearGradient id="SVGID_1_" gradientUnits="userSpaceOnUse" x1="32.2534" y1="59" x2="32.2534" y2="50">
	<stop  offset="0" style="stop-color:#FFFFFF"/>
	<stop  offset="0.2258" style="stop-color:#F5F6F7"/>
	<stop  offset="0.6071" style="stop-color:#DBDFE2"/>
	<stop  offset="1" style="stop-color:#B9C2C7"/>
	<a:midPointStop  offset="0" style="stop-color:#FFFFFF"/>
	<a:midPointStop  offset="0.5918" style="stop-color:#FFFFFF"/>
	<a:midPointStop  offset="1" style="stop-color:#B9C2C7"/>
</linearGradient>
<path fill="url(#SVGID_1_)" d="M17,53h-6c0,0-1,0-1,3s1,3,1,3h41.506c0,0,2,0,2-2v-7L17,53z"/>
<path fill="#A6141C" d="M53,53H17v-6h38v4C55,53,53,53,53,53z"/>
<linearGradient id="SVGID_2_" gradientUnits="userSpaceOnUse" x1="36" y1="52" x2="36" y2="4.0005">
	<stop  offset="0" style="stop-color:#CF0000"/>
	<stop  offset="1" style="stop-color:#FF000E"/>
	<a:midPointStop  offset="0" style="stop-color:#CF0000"/>
	<a:midPointStop  offset="0.5" style="stop-color:#CF0000"/>
	<a:midPointStop  offset="1" style="stop-color:#FF000E"/>
</linearGradient>
<path fill="url(#SVGID_2_)" d="M55,6c0,0,0-2-2-2H17v48h36c0,0,2,0,2-2V6z"/>
<linearGradient id="SVGID_3_" gradientUnits="userSpaceOnUse" x1="9" y1="30" x2="17" y2="30">
	<stop  offset="0.2182" style="stop-color:#870000"/>
	<stop  offset="0.4878" style="stop-color:#9D0000"/>
	<stop  offset="0.7787" style="stop-color:#AD0000"/>
	<stop  offset="1" style="stop-color:#B30000"/>
	<a:midPointStop  offset="0.2182" style="stop-color:#870000"/>
	<a:midPointStop  offset="0.3516" style="stop-color:#870000"/>
	<a:midPointStop  offset="1" style="stop-color:#B30000"/>
</linearGradient>
<path fill="url(#SVGID_3_)" d="M11,52c0,0-2,0-2,4V8c0-4,2-4,2-4h6v48H11z"/>
<path id="Shape_10_" fill="#8F0000" d="M35,12.75c1.242,0,2.246,1.007,2.246,2.252c0,1.243-1.004,2.25-2.246,2.25
	c-1.244,0-2.252-1.007-2.252-2.25C32.748,13.756,33.756,12.75,35,12.75z M35,12c-1.656,0-3,1.342-3,3.001C32,16.658,33.344,18,35,18
	s3-1.342,3-2.999c0-0.798-0.318-1.562-0.877-2.124C36.559,12.316,35.795,12,35,12z"/>
<path id="Combined-Shape_7_" fill="#8F0000" d="M35.598,15.298c-0.041,0.007-0.08-0.005-0.111-0.036
	c-0.029-0.029-0.043-0.068-0.037-0.112v-0.301c-0.006-0.039,0.008-0.081,0.037-0.11c0.031-0.029,0.07-0.046,0.111-0.039h0.979
	c0.038-0.007,0.082,0.009,0.111,0.039s0.041,0.071,0.037,0.11v0.153c0,0.696-0.422,1.328-1.066,1.593
	c-0.644,0.268-1.385,0.12-1.879-0.375c-0.034-0.024-0.053-0.063-0.053-0.107c0-0.041,0.019-0.08,0.053-0.104l0.318-0.321
	c0.024-0.035,0.066-0.051,0.107-0.051s0.08,0.017,0.104,0.051c0.241,0.24,0.589,0.337,0.917,0.258
	c0.33-0.078,0.596-0.321,0.699-0.647H35.598z"/>
<path fill="#BEC3CF" d="M10.237,58.041c0.057,0.184,0.12,0.332,0.185,0.451l42.941-0.225L10.237,58.041z"/>
<path fill="#BEC3CF" d="M10.058,57.109c0.019,0.164,0.041,0.316,0.066,0.453l43.239-0.227L10.058,57.109z"/>
<path fill="#BEC3CF" d="M10.004,56.176c0.002,0.16,0.006,0.313,0.015,0.455l43.345-0.227L10.004,56.176z"/>
<path fill="#BEC3CF" d="M10.027,55.244c-0.01,0.143-0.017,0.295-0.021,0.455l43.357-0.227L10.027,55.244z"/>
<path fill="#BEC3CF" d="M10.147,54.313c-0.029,0.137-0.053,0.289-0.075,0.455l43.291-0.227L10.147,54.313z"/>
<path fill="#BEC3CF" d="M10.495,53.383c-0.074,0.113-0.147,0.264-0.214,0.451l43.082-0.227L10.495,53.383z"/>
<path fill="#8F0000" d="M24.558,22.353l-1.051-3.083c-0.023-0.073,0.014-0.12,0.089-0.12h0.364c0.059,0,0.101,0.026,0.12,0.087
	l0.83,2.564l0.83-2.564c0.019-0.062,0.061-0.087,0.12-0.087h0.364c0.075,0,0.113,0.047,0.089,0.12l-1.05,3.083
	c-0.019,0.056-0.061,0.087-0.12,0.087h-0.465C24.619,22.439,24.576,22.409,24.558,22.353z"/>
<path fill="#8F0000" d="M28.701,21.269c0,0.04-0.003,0.078-0.006,0.115c-0.007,0.068-0.049,0.099-0.112,0.099h-0.397h-1.354
	c0.077,0.385,0.364,0.583,0.721,0.583c0.225,0,0.41-0.094,0.511-0.226c0.038-0.04,0.073-0.063,0.13-0.063l0.301-0.002
	c0.077,0,0.119,0.047,0.089,0.113c-0.172,0.383-0.558,0.613-1.037,0.613c-0.75,0-1.24-0.531-1.24-1.236
	c0-0.695,0.496-1.236,1.231-1.236C28.24,20.028,28.701,20.592,28.701,21.269z M28.189,21.064c-0.066-0.4-0.352-0.573-0.654-0.573
	c-0.38,0-0.637,0.222-0.706,0.573H28.189z"/>
<path fill="#8F0000" d="M30.316,20.155v0.333c0,0.066-0.028,0.104-0.078,0.104c-0.308,0.007-0.599,0.176-0.599,0.64v1.102
	c0,0.069-0.038,0.106-0.106,0.106h-0.296c-0.068,0-0.105-0.037-0.105-0.106v-2.139c0-0.068,0.037-0.105,0.105-0.105h0.296
	c0.068,0,0.106,0.037,0.106,0.105v0.247c0.124-0.248,0.329-0.362,0.569-0.388C30.278,20.044,30.316,20.087,30.316,20.155z"/>
<path fill="#8F0000" d="M32.372,21.779c0,0.463-0.404,0.721-0.924,0.721c-0.481,0-0.864-0.23-0.917-0.677
	c-0.006-0.073,0.036-0.111,0.104-0.111h0.293c0.063,0,0.089,0.036,0.111,0.094c0.041,0.169,0.205,0.238,0.409,0.238
	c0.247,0,0.417-0.087,0.417-0.266c0-0.468-1.305-0.134-1.305-1.03c0-0.458,0.404-0.721,0.888-0.721c0.44,0,0.818,0.23,0.87,0.677
	c0.007,0.073-0.035,0.11-0.104,0.11h-0.291c-0.064,0-0.09-0.035-0.113-0.096c-0.037-0.167-0.195-0.235-0.362-0.235
	c-0.212,0-0.38,0.087-0.38,0.266C31.068,21.222,32.372,20.881,32.372,21.779z"/>
<path fill="#8F0000" d="M32.854,19.607v-0.353c0-0.068,0.037-0.106,0.105-0.106h0.296c0.068,0,0.106,0.038,0.106,0.106v0.353
	c0,0.068-0.038,0.106-0.106,0.106h-0.296C32.891,19.713,32.854,19.675,32.854,19.607z M32.854,22.333v-2.139
	c0-0.068,0.037-0.105,0.105-0.105h0.296c0.068,0,0.106,0.037,0.106,0.105v2.139c0,0.069-0.038,0.106-0.106,0.106h-0.296
	C32.891,22.439,32.854,22.402,32.854,22.333z"/>
<path fill="#8F0000" d="M33.818,21.264c0-0.698,0.553-1.236,1.241-1.236s1.241,0.538,1.241,1.236c0,0.698-0.553,1.236-1.241,1.236
	S33.818,21.962,33.818,21.264z M35.793,21.264c0-0.428-0.319-0.743-0.733-0.743c-0.413,0-0.733,0.315-0.733,0.743
	s0.32,0.743,0.733,0.743C35.474,22.007,35.793,21.692,35.793,21.264z"/>
<path fill="#8F0000" d="M38.709,20.926v1.408c0,0.069-0.038,0.106-0.105,0.106h-0.297c-0.068,0-0.105-0.037-0.105-0.106v-1.377
	c0-0.303-0.184-0.454-0.43-0.454c-0.266,0-0.506,0.158-0.506,0.588v1.243c0,0.069-0.037,0.106-0.105,0.106h-0.296
	c-0.068,0-0.106-0.037-0.106-0.106v-2.139c0-0.068,0.038-0.105,0.106-0.105h0.296c0.068,0,0.105,0.037,0.105,0.105v0.161
	c0.15-0.229,0.381-0.327,0.668-0.327C38.37,20.028,38.709,20.362,38.709,20.926z"/>
<path fill="#8F0000" d="M42.788,21.45v0.291c0,0.068-0.038,0.106-0.106,0.106h-0.27v0.486c0,0.069-0.038,0.106-0.105,0.106h-0.334
	c-0.068,0-0.105-0.037-0.105-0.106v-0.486h-1.535c-0.068,0-0.105-0.038-0.105-0.106v-0.329c0-0.047,0.009-0.087,0.03-0.132
	l1.064-2.056c0.026-0.051,0.065-0.075,0.124-0.075h0.36c0.079,0,0.112,0.052,0.075,0.127l-1.069,2.068h1.056v-0.75
	c0-0.068,0.037-0.106,0.105-0.106h0.334c0.067,0,0.105,0.038,0.105,0.106v0.75h0.27C42.75,21.344,42.788,21.382,42.788,21.45z"/>
<path fill="#8F0000" d="M43.15,22.333v-0.376c0-0.068,0.039-0.105,0.106-0.105h0.376c0.068,0,0.105,0.037,0.105,0.105v0.376
	c0,0.069-0.037,0.106-0.105,0.106h-0.376C43.189,22.439,43.15,22.402,43.15,22.333z"/>
<path fill="#8F0000" d="M46.5,21.445c0,0.688-0.545,1.055-1.152,1.055c-0.572,0-1.092-0.329-1.146-0.945
	c-0.004-0.073,0.035-0.11,0.104-0.11h0.334c0.063,0,0.096,0.035,0.107,0.101c0.043,0.273,0.275,0.428,0.602,0.428
	c0.369,0,0.611-0.2,0.611-0.529s-0.242-0.529-0.611-0.529h-0.885c-0.068,0-0.108-0.04-0.104-0.11l0.111-1.556
	c0.006-0.063,0.045-0.101,0.109-0.101h1.673c0.068,0,0.106,0.038,0.106,0.106v0.296c0,0.068-0.038,0.106-0.106,0.106h-1.271
	L44.93,20.39h0.442C45.979,20.39,46.5,20.756,46.5,21.445z"/>
</svg>
