<?xml version="1.0" encoding="utf-8"?>
<!-- Generator: Adobe Illustrator 15.0.0, SVG Export Plug-In . SVG Version: 6.00 Build 0)  -->
<!DOCTYPE svg PUBLIC "-//W3C//DTD SVG 1.1//EN" "http://www.w3.org/Graphics/SVG/1.1/DTD/svg11.dtd" [
	<!ENTITY ns_flows "http://ns.adobe.com/Flows/1.0/">
	<!ENTITY ns_extend "http://ns.adobe.com/Extensibility/1.0/">
	<!ENTITY ns_ai "http://ns.adobe.com/AdobeIllustrator/10.0/">
	<!ENTITY ns_graphs "http://ns.adobe.com/Graphs/1.0/">
]>
<svg version="1.1" id="Layer_1" xmlns:x="&ns_extend;" xmlns:i="&ns_ai;" xmlns:graph="&ns_graphs;"
	 xmlns="http://www.w3.org/2000/svg" xmlns:xlink="http://www.w3.org/1999/xlink" xmlns:a="http://ns.adobe.com/AdobeSVGViewerExtensions/3.0/"
	 x="0px" y="0px" width="64px" height="64px" viewBox="0 0 64 64" enable-background="new 0 0 64 64" xml:space="preserve">
<path fill="#947D41" d="M18.961,15.476c-8.107,37.397-7.365,36.596,9.703,36.596C19.219,44.973,37.311,14.967,18.961,15.476z"/>
<path fill="#BA9D52" d="M16.038,14.897c-5.916,28.414-0.813,35.708,3.721,37.175h5.193C12.799,42.871,31.797,14.338,16.038,14.897z"
	/>
<path fill="#947D41" d="M42.814,15.475c8.107,37.396,7.365,36.595-9.701,36.595C41.799,46.373,24.465,14.965,42.814,15.475z"/>
<path fill="#BA9D52" d="M45.736,14.895c8.65,25.851-0.018,35.98-3.719,37.175h-5.193C48.979,43.621,29.981,14.336,45.736,14.895z"/>
<path fill="#EFDE8B" d="M46.936,28.787c2.467,6.571,0.025,20.057-5.082,23.286c5.66,0,9.111-8.549,10.791-20.31
	C54.746,17.067,42.539,17.059,46.936,28.787z"/>
<path fill="#EFDE8B" d="M9.766,34.489c2.064,10.614,4.602,17.583,10.16,17.583c-6.197-6.998-5.467-21.76-3.707-25.433
	C25.196,20.812,6.278,16.536,9.766,34.489z"/>
<path fill="#302C3B" d="M50.73,53.443c-2.398-1.26-12.363-4.596-12.363-4.596H23.528c0,0-9.953,3.326-12.344,4.594
	C7.717,55.277,6.989,62,6.989,62h48C54.988,62,54.211,55.271,50.73,53.443z"/>
<rect x="23.127" y="45.27" fill="#D6A67A" width="15.728" height="8.314"/>
<polygon fill="#FFFFFF" points="30.999,51.721 22.624,48.063 25.075,62 36.924,62 39.373,48.063 "/>
<polygon fill="#E6EBEF" points="30.999,51.721 23.586,54.816 25.075,62 36.924,62 38.412,54.816 "/>
<polygon fill="#302C3B" points="35.184,62 32.961,55.111 33.998,52.973 30.999,51.721 27.999,52.973 29.038,55.111 26.813,62 "/>
<path fill="#4E5E67" d="M20.375,62c0,0-3.162-2.988-6.055-8.773l7.313-1.932l-8.193-5.111c0,0,5.115-3.834,10.146-4.986v10.098
	c0,0,0.799,4.51,4.783,10.705H20.375z"/>
<path fill="#4E5E67" d="M41.625,62c0,0,3.158-2.988,6.055-8.773l-7.314-1.932l8.193-5.111c0,0-5.115-3.834-10.146-4.986v10.098
	c0,0-0.797,4.51-4.783,10.705H41.625z"/>
<path fill="#E3C19B" d="M30.989,6.489c-11.609,0-17.201,9.455-16.502,21.61c0.143,2.444,0.822,5.969,1.66,8.99
	c1.742,6.278,10.93,12.601,14.842,12.601c3.91,0,13.099-6.322,14.839-12.601c0.84-3.021,1.52-6.545,1.664-8.99
	C48.189,15.944,42.6,6.489,30.989,6.489z"/>
<path fill="#C97E55" d="M30.989,39.661c-2.822-1.241-2.844-0.05-7.199,0.242c1.635,1.856,2.838,4.243,7.197,4.243
	c5.003,0,5.849-2.711,7.203-4.243C33.83,39.611,33.811,38.42,30.989,39.661z"/>
<path fill="#FFFFFF" d="M25.096,40.365c2.844,2.959,8.976,2.92,11.785,0.002C32.502,40.838,29.477,40.838,25.096,40.365z"/>
<path fill="#D6A67A" d="M34.588,35.419c0,2.342-7.199,2.342-7.199,0C27.389,34.881,34.588,34.881,34.588,35.419z"/>
<path fill="#FFFFFF" d="M18.448,28.431c1.553,4.059,7.863,3.465,9.02,0.623C26.59,24.488,19.303,24.097,18.448,28.431z"/>
<path fill="#613F34" d="M20.684,27.995c0,3.596,5.199,3.596,5.199,0C25.883,24.658,20.684,24.658,20.684,27.995z"/>
<path fill="#7D5037" d="M21.198,29.145c0,2.062,4.172,2.062,4.172,0C25.37,27.232,21.198,27.232,21.198,29.145z"/>
<path fill="#1A1626" d="M22.204,28.051c0,1.492,2.16,1.492,2.16,0C24.364,26.666,22.204,26.666,22.204,28.051z"/>
<path fill="#AB968C" d="M21.467,27.615c0,0.755,1.09,0.755,1.09,0C22.557,26.916,21.467,26.916,21.467,27.615z"/>
<path fill="#45332C" d="M18.448,28.4c0-4.361,9.02-4.361,9.02,0.688C26.18,24.943,19.737,24.943,18.448,28.4z"/>
<path fill="#EFDE8B" d="M41.863,19.475c1.49,2.227,3.463,5.018,5.072,9.312c2.467,6.571,4.029,14.737,5.709,2.976
	c0.66-4.618,0.316-8.782-0.586-12.287H41.863z"/>
<path fill="#EFDE8B" d="M9.936,19.475c-1.123,4.089-1.326,9.063-0.17,15.014c2.064,10.614,2.9-3.666,4.662-7.339
	c4.027-2.613,9.693-5.045,14.932-7.675H9.936z"/>
<path fill="#BA9D52" d="M28.063,19.475c-8.371,3.898-16.875,6.757-17.961,12.235c4.289-6.152,14.723-8.007,22.818-12.235H28.063z"/>
<path fill="#FFFFFF" d="M45.131,28.699c-1.979,5.184-10.029,4.424-11.504,0.797C34.746,23.671,44.043,23.171,45.131,28.699z"/>
<path fill="#613F34" d="M35.68,28.148c0,4.547,6.576,4.547,6.576,0C42.256,23.927,35.68,23.927,35.68,28.148z"/>
<path fill="#7D5037" d="M36.332,29.603c0,2.607,5.275,2.607,5.275,0C41.607,27.183,36.332,27.183,36.332,29.603z"/>
<path fill="#1A1626" d="M37.604,28.218c0,1.889,2.73,1.889,2.73,0C40.334,26.468,37.604,26.468,37.604,28.218z"/>
<path fill="#AB968C" d="M36.672,27.669c0,0.953,1.379,0.953,1.379,0C38.051,26.785,36.672,26.785,36.672,27.669z"/>
<path fill="#45332C" d="M45.131,28.662c0-5.564-11.504-5.564-11.504,0.881C35.27,24.255,43.488,24.255,45.131,28.662z"/>
<path fill="#302C3B" d="M60.072,49.967C61.637,54.281,61.602,62,61.602,62h-9.236c0,0-1.176-10.43,0.479-11.223
	C56.188,49.176,59.838,49.322,60.072,49.967z"/>
<path fill="#D6A67A" d="M47.09,39.844c-0.871-1.279,2.57-2.223,3.139,0.023c0.23,0.908,9.633,0.668,10.383,2.01
	c1.352,2.41-1.748,7.166-1.295,8.145s-6.322,2.516-6.189,1.285c0.434-4.033-1.586-2.508-2.451-5.9
	C50.025,42.855,48.258,41.555,47.09,39.844z"/>
<linearGradient id="SVGID_1_" gradientUnits="userSpaceOnUse" x1="41.5381" y1="38.0547" x2="41.5381" y2="18.9448">
	<stop  offset="0" style="stop-color:#FFFFFF;stop-opacity:0"/>
	<stop  offset="1" style="stop-color:#FFFFFF"/>
	<a:midPointStop  offset="0" style="stop-color:#FFFFFF;stop-opacity:0"/>
	<a:midPointStop  offset="0.5" style="stop-color:#FFFFFF;stop-opacity:0"/>
	<a:midPointStop  offset="1" style="stop-color:#FFFFFF"/>
</linearGradient>
<path opacity="0.65" fill="url(#SVGID_1_)" d="M44.012,19.272c5.094,1.367,8.115,6.603,6.752,11.698
	c-1.365,5.096-6.604,8.124-11.695,6.756c-5.098-1.365-8.121-6.604-6.753-11.702C33.678,20.93,38.918,17.907,44.012,19.272z"/>
<rect x="48.343" y="35.187" transform="matrix(-0.7074 0.7068 -0.7068 -0.7074 111.5642 27.7978)" fill="#BEC3CF" width="3.371" height="3.609"/>
<path fill="#BEC3CF" d="M49.045,36.006c4.146-4.147,4.145-10.866,0.002-15.015c-4.148-4.145-10.869-4.146-15.016,0
	c-4.144,4.146-4.144,10.872,0,15.017C38.178,40.154,44.9,40.154,49.045,36.006z M35.367,34.67c-3.41-3.405-3.408-8.938,0.002-12.344
	c3.408-3.409,8.932-3.407,12.34,0c3.41,3.408,3.41,8.938,0,12.346C44.301,38.08,38.775,38.08,35.367,34.67z"/>
<rect x="53.157" y="36.244" transform="matrix(-0.7071 0.7071 -0.7071 -0.7071 124.5469 33.1532)" fill="#302C3B" width="4.5" height="12.254"/>
<path fill="#BEC3CF" d="M57.848,48.92c0.521,0.521,4.631-3.584,4.105-4.111l-0.32-0.318c-0.525-0.525-4.633,3.582-4.107,4.105
	L57.848,48.92z"/>
<path fill="#E3C19B" d="M54.955,37.025c1.793-0.781,2.447,0.791,2.471,1.396c1.646-0.135,2.455,1.197,2.461,1.709
	c3.465,1.652-3.807,9.588-2.83,4.857c-2.443,2.174-2.428-0.502-1.674-2.229c-2.367,3.924-3.207,0.949-1.469-2.361
	C50.611,45.734,50.439,32.494,54.955,37.025z"/>
<path opacity="0.2" d="M52.791,23.462c0,0,0.053,0.513,0.096,0.984c-5.498,0.955-12.895,1.51-21.888,1.51
	c-7.643,0-16.615-0.797-21.912-1.527c0.035-0.408,0.092-0.971,0.092-0.971L52.791,23.462z"/>
<path fill="#4E5E67" d="M60,20.542c0,2.146-12.988,4.415-29.001,4.415C14.981,24.957,2,22.687,2,20.542
	c0-2.146,12.98-3.887,28.998-3.887C47.012,16.655,60,18.395,60,20.542z"/>
<path fill="#4E5E67" d="M50.516,17.081c0,4.111-39.033,4.111-39.033,0c0-22.012,8.738-13.436,19.516-13.436
	C41.775,3.645,50.516-4.931,50.516,17.081z"/>
<path opacity="0.4" fill="#302C3B" d="M30.999,5.061c-5.41,0-14.775-3.377-11.615-0.627c4.154,3.607,19.226,3.477,23.226,0
	C45.779,1.684,36.408,5.061,30.999,5.061z"/>
<path fill="#302C3B" d="M11.483,15.325v3.889c7.627,2.561,31.406,2.561,39.033,0v-3.889C42.896,17.887,19.1,17.887,11.483,15.325z"
	/>
</svg>
