<?xml version="1.0" encoding="utf-8"?>
<!-- Generator: Adobe Illustrator 15.0.0, SVG Export Plug-In . SVG Version: 6.00 Build 0)  -->
<!DOCTYPE svg PUBLIC "-//W3C//DTD SVG 1.1//EN" "http://www.w3.org/Graphics/SVG/1.1/DTD/svg11.dtd" [
	<!ENTITY ns_flows "http://ns.adobe.com/Flows/1.0/">
	<!ENTITY ns_extend "http://ns.adobe.com/Extensibility/1.0/">
	<!ENTITY ns_ai "http://ns.adobe.com/AdobeIllustrator/10.0/">
	<!ENTITY ns_graphs "http://ns.adobe.com/Graphs/1.0/">
]>
<svg version="1.1" id="Layer_1" xmlns:x="&ns_extend;" xmlns:i="&ns_ai;" xmlns:graph="&ns_graphs;"
	 xmlns="http://www.w3.org/2000/svg" xmlns:xlink="http://www.w3.org/1999/xlink" xmlns:a="http://ns.adobe.com/AdobeSVGViewerExtensions/3.0/"
	 x="0px" y="0px" width="64px" height="64px" viewBox="0 0 64 64" enable-background="new 0 0 64 64" xml:space="preserve">
<path fill="#302C3B" d="M52.201,52.658c-2.697-1.375-13.906-5.018-13.906-5.018H21.606c0,0-11.197,3.633-13.885,5.016
	C3.821,54.66,3,62,3,62h53.99C56.99,62,56.117,54.654,52.201,52.658z"/>
<rect x="21.155" y="43.734" fill="#423225" width="17.689" height="9.078"/>
<polygon fill="#FFFFFF" points="30.008,50.777 20.588,46.785 23.344,62 36.672,62 39.428,46.785 "/>
<polygon fill="#E6EBEF" points="30.008,50.777 21.67,54.158 23.344,62 36.672,62 38.348,54.158 "/>
<polygon fill="#302C3B" points="34.715,62 32.215,54.479 33.383,52.145 30.008,50.777 26.633,52.145 27.803,54.479 25.301,62 "/>
<path fill="#4E5E67" d="M18.059,62c0,0-3.557-3.262-6.809-9.578l8.223-2.109l-9.215-5.58c0,0,5.754-4.187,11.412-5.444v11.024
	c0,0,0.898,4.924,5.381,11.688H18.059z"/>
<path fill="#4E5E67" d="M41.959,62c0,0,3.555-3.262,6.811-9.578l-8.227-2.109l9.215-5.58c0,0-5.752-4.187-11.41-5.444v11.024
	c0,0-0.896,4.924-5.38,11.688H41.959z"/>
<path fill="#423225" d="M13.676,24.33c-5.457-0.984-1.195,14.28,3.076,10.069C18.733,32.447,16.227,24.792,13.676,24.33z"/>
<path fill="#423225" d="M46.314,24.33c-2.553,0.463-5.057,8.118-3.076,10.069C47.512,38.609,51.77,23.345,46.314,24.33z"/>
<path fill="#614A36" d="M29.995,6.434c-11.283,0-16.721,8.539-16.039,20.411c0.137,2.391,1.615,10.182,3.014,12.976
	c1.43,2.86,6.215,7.269,9.146,8.183c1.852,0.574,5.906,0.574,7.757,0c2.932-0.914,7.717-5.322,9.146-8.183
	c1.4-2.794,2.879-10.585,3.014-12.976C46.717,14.973,41.279,6.434,29.995,6.434z"/>
<path fill="#36281D" d="M29.995,38.758c-2.539-0.748-6.299,0.354-6.299,0.354c1.432,1.56,2.482,3.584,6.299,3.584
	c4.373,0,5.115-2.298,6.298-3.584C36.293,39.111,32.53,38.008,29.995,38.758z"/>
<path fill="#FFFFFF" d="M24.657,39.374c2.66,2.234,8.035,2.248,10.708,0C32.53,39.495,27.512,39.497,24.657,39.374z"/>
<path fill="#423225" d="M33.494,34.561c0,2.277-6.998,2.277-6.998,0C26.497,34.037,33.494,34.037,33.494,34.561z"/>
<path fill="#FFFFFF" d="M44.139,27.812c-1.979,5.184-10.029,4.424-11.503,0.797C33.754,22.785,43.051,22.285,44.139,27.812z"/>
<path fill="#FFFFFF" d="M17.913,27.765c1.506,3.948,7.643,3.37,8.766,0.606C25.825,23.931,18.743,23.552,17.913,27.765z"/>
<path fill="#613F34" d="M34.688,27.261c0,4.547,6.576,4.547,6.576,0C41.264,23.041,34.688,23.041,34.688,27.261z"/>
<path fill="#7D5037" d="M35.34,28.717c0,2.607,5.275,2.607,5.275,0C40.615,26.296,35.34,26.296,35.34,28.717z"/>
<path fill="#1A1626" d="M36.611,27.332c0,1.889,2.73,1.889,2.73,0C39.342,25.582,36.611,25.582,36.611,27.332z"/>
<path fill="#AB968C" d="M35.68,26.783c0,0.953,1.379,0.953,1.379,0C37.059,25.898,35.68,25.898,35.68,26.783z"/>
<path fill="#613F34" d="M20.104,27.343c0,3.465,5.01,3.465,5.01,0C25.114,24.128,20.104,24.128,20.104,27.343z"/>
<path fill="#7D5037" d="M20.6,28.451c0,1.988,4.018,1.988,4.018,0C24.618,26.607,20.6,26.607,20.6,28.451z"/>
<path fill="#1A1626" d="M21.569,27.398c0,1.438,2.08,1.438,2.08,0C23.649,26.064,21.569,26.064,21.569,27.398z"/>
<path fill="#AB968C" d="M20.86,26.978c0,0.727,1.049,0.727,1.049,0C21.909,26.304,20.86,26.304,20.86,26.978z"/>
<path fill="#423225" d="M44.139,27.775c0-5.564-11.503-5.564-11.503,0.881C34.277,23.369,42.496,23.369,44.139,27.775z"/>
<path fill="#423225" d="M17.913,27.736c0-4.24,8.766-4.24,8.766,0.67C25.428,24.375,19.165,24.375,17.913,27.736z"/>
<path fill="#26221E" d="M15.071,23.406H13.04c0.295,2.279,0.744,4.568,1.346,6.655C14.729,27.501,13.985,26.39,15.071,23.406z"/>
<path fill="#26221E" d="M44.924,23.406c0.986,2.572,0.338,4.104,0.686,6.655c0.674-2.51,1.09-4.713,1.299-6.655H44.924z"/>
<path fill="#302C3B" d="M59.072,49.967C60.637,54.281,60.602,62,60.602,62h-9.236c0,0-1.176-10.43,0.479-11.223
	C55.188,49.176,58.838,49.322,59.072,49.967z"/>
<path fill="#423225" d="M46.09,39.843c-0.871-1.278,2.57-2.222,3.139,0.023c0.23,0.908,9.633,0.668,10.383,2.01
	c1.352,2.411-1.748,7.167-1.295,8.146s-6.322,2.516-6.189,1.285c0.434-4.033-1.586-2.508-2.451-5.9
	C49.025,42.855,47.258,41.554,46.09,39.843z"/>
<linearGradient id="SVGID_1_" gradientUnits="userSpaceOnUse" x1="40.5381" y1="38.0547" x2="40.5381" y2="18.9448">
	<stop  offset="0" style="stop-color:#FFFFFF;stop-opacity:0"/>
	<stop  offset="1" style="stop-color:#FFFFFF"/>
	<a:midPointStop  offset="0" style="stop-color:#FFFFFF;stop-opacity:0"/>
	<a:midPointStop  offset="0.5" style="stop-color:#FFFFFF;stop-opacity:0"/>
	<a:midPointStop  offset="1" style="stop-color:#FFFFFF"/>
</linearGradient>
<path opacity="0.65" fill="url(#SVGID_1_)" d="M43.012,19.272c5.094,1.367,8.115,6.603,6.752,11.699
	c-1.365,5.096-6.604,8.123-11.695,6.756c-5.097-1.365-8.121-6.604-6.753-11.702C32.678,20.93,37.918,17.907,43.012,19.272z"/>
<rect x="47.343" y="35.186" transform="matrix(-0.7075 0.7067 -0.7067 -0.7075 109.8582 28.5162)" fill="#BEC3CF" width="3.37" height="3.609"/>
<path fill="#BEC3CF" d="M48.045,36.006c4.146-4.146,4.145-10.866,0.002-15.015c-4.148-4.145-10.869-4.146-15.016,0
	c-4.144,4.146-4.144,10.873,0,15.017C37.178,40.153,43.9,40.153,48.045,36.006z M34.367,34.67c-3.41-3.404-3.408-8.938,0.002-12.344
	c3.408-3.409,8.932-3.407,12.34,0c3.41,3.408,3.41,8.938,0,12.346C43.301,38.08,37.775,38.08,34.367,34.67z"/>
<rect x="52.157" y="36.244" transform="matrix(-0.7071 0.7071 -0.7071 -0.7071 122.8398 33.8603)" fill="#302C3B" width="4.5" height="12.254"/>
<path fill="#BEC3CF" d="M56.848,48.92c0.521,0.521,4.631-3.584,4.105-4.111l-0.32-0.318c-0.525-0.525-4.633,3.582-4.107,4.105
	L56.848,48.92z"/>
<path fill="#614A36" d="M53.955,37.025c1.793-0.781,2.447,0.791,2.471,1.396c1.646-0.135,2.455,1.196,2.461,1.708
	c3.465,1.652-3.807,9.589-2.83,4.858c-2.443,2.174-2.428-0.502-1.674-2.229c-2.367,3.924-3.207,0.949-1.469-2.362
	C49.611,45.734,49.439,32.494,53.955,37.025z"/>
<path opacity="0.2" d="M49.861,23.417c0,0,0.229,0.443,0.443,0.916c-4.945,0.955-12.205,1.623-20.298,1.623
	c-6.877,0-11.984-0.293-16.75-1.023c-0.07-0.381-0.156-1.041-0.156-1.041L49.861,23.417z"/>
<path fill="#4E5E67" d="M57.002,20.542c0,2.146-12.088,4.415-26.996,4.415c-14.908,0-26.994-2.27-26.994-4.415
	c0-2.146,12.086-3.887,26.994-3.887C44.914,16.655,57.002,18.395,57.002,20.542z"/>
<path fill="#4E5E67" d="M47.486,17.081c0,4.111-34.958,4.111-34.958,0c0-22.012,7.826-13.436,17.479-13.436
	C39.658,3.645,47.486-4.931,47.486,17.081z"/>
<path opacity="0.4" fill="#302C3B" d="M30.006,5.061c-4.844,0-13.234-3.377-10.4-0.627c3.719,3.607,17.216,3.477,20.8,0
	C43.242,1.684,34.852,5.061,30.006,5.061z"/>
<path fill="#302C3B" d="M12.528,15.325v3.889c6.83,2.561,28.126,2.561,34.958,0v-3.889C40.662,17.887,19.35,17.887,12.528,15.325z"
	/>
</svg>
