<?xml version="1.0" encoding="utf-8"?>
<!-- Generator: Adobe Illustrator 15.0.0, SVG Export Plug-In . SVG Version: 6.00 Build 0)  -->
<!DOCTYPE svg PUBLIC "-//W3C//DTD SVG 1.1//EN" "http://www.w3.org/Graphics/SVG/1.1/DTD/svg11.dtd" [
	<!ENTITY ns_flows "http://ns.adobe.com/Flows/1.0/">
	<!ENTITY ns_extend "http://ns.adobe.com/Extensibility/1.0/">
	<!ENTITY ns_ai "http://ns.adobe.com/AdobeIllustrator/10.0/">
	<!ENTITY ns_graphs "http://ns.adobe.com/Graphs/1.0/">
]>
<svg version="1.1" id="Layer_1" xmlns:x="&ns_extend;" xmlns:i="&ns_ai;" xmlns:graph="&ns_graphs;"
	 xmlns="http://www.w3.org/2000/svg" xmlns:xlink="http://www.w3.org/1999/xlink" xmlns:a="http://ns.adobe.com/AdobeSVGViewerExtensions/3.0/"
	 x="0px" y="0px" width="64px" height="64px" viewBox="0 0 64 64" enable-background="new 0 0 64 64" xml:space="preserve">
<path fill="#302C3B" d="M52.199,52.658c-2.697-1.375-13.904-5.018-13.904-5.018H21.604c0,0-11.195,3.633-13.883,5.016
	C3.821,54.66,3,62,3,62h53.988C56.988,62,56.115,54.654,52.199,52.658z"/>
<rect x="21.155" y="43.734" fill="#755035" width="17.689" height="9.078"/>
<polygon fill="#FFFFFF" points="30.006,50.777 20.586,46.785 23.344,62 36.672,62 39.428,46.785 "/>
<polygon fill="#E6EBEF" points="30.006,50.777 21.67,54.158 23.344,62 36.672,62 38.346,54.158 "/>
<polygon fill="#302C3B" points="34.713,62 32.215,54.479 33.381,52.145 30.006,50.777 26.633,52.145 27.801,54.479 25.299,62 "/>
<path fill="#4E5E67" d="M18.059,62c0,0-3.557-3.262-6.811-9.578l8.225-2.109l-9.215-5.58c0,0,5.752-4.187,11.412-5.444v11.024
	c0,0,0.896,4.924,5.381,11.688H18.059z"/>
<path fill="#4E5E67" d="M41.959,62c0,0,3.553-3.262,6.811-9.578l-8.227-2.109l9.215-5.58c0,0-5.754-4.187-11.412-5.444v11.024
	c0,0-0.896,4.924-5.378,11.688H41.959z"/>
<path fill="#755035" d="M13.674,24.33c-5.457-0.984-1.195,14.28,3.076,10.069C18.731,32.447,16.227,24.792,13.674,24.33z"/>
<path fill="#755035" d="M46.314,24.33c-2.553,0.463-5.059,8.118-3.078,10.069C47.51,38.609,51.768,23.345,46.314,24.33z"/>
<path fill="#916B50" d="M29.993,6.434c-11.283,0-16.721,8.539-16.039,20.411c0.137,2.391,1.615,10.182,3.014,12.976
	c1.432,2.86,6.215,7.269,9.146,8.183c1.854,0.574,5.906,0.574,7.757,0c2.932-0.914,7.717-5.322,9.148-8.183
	c1.398-2.794,2.877-10.585,3.014-12.976C46.715,14.973,41.279,6.434,29.993,6.434z"/>
<path fill="#664129" d="M29.993,38.758c-2.537-0.748-6.297,0.354-6.297,0.354c1.432,1.56,2.48,3.584,6.297,3.584
	c4.375,0,5.117-2.298,6.298-3.584C36.291,39.111,32.53,38.008,29.993,38.758z"/>
<path fill="#FFFFFF" d="M24.655,39.374c2.66,2.234,8.035,2.248,10.708,0C32.53,39.495,27.512,39.497,24.655,39.374z"/>
<path fill="#755035" d="M33.492,34.561c0,2.277-6.998,2.277-6.998,0C26.495,34.037,33.492,34.037,33.492,34.561z"/>
<path fill="#FFFFFF" d="M44.139,27.812c-1.98,5.184-10.029,4.424-11.505,0.797C33.752,22.785,43.051,22.285,44.139,27.812z"/>
<path fill="#FFFFFF" d="M17.911,27.765c1.508,3.948,7.645,3.37,8.768,0.606C25.825,23.931,18.743,23.552,17.911,27.765z"/>
<path fill="#613F34" d="M34.688,27.261c0,4.547,6.576,4.547,6.576,0C41.264,23.041,34.688,23.041,34.688,27.261z"/>
<path fill="#7D5037" d="M35.338,28.717c0,2.607,5.275,2.607,5.275,0C40.613,26.296,35.338,26.296,35.338,28.717z"/>
<path fill="#1A1626" d="M36.611,27.332c0,1.889,2.729,1.889,2.729,0C39.34,25.582,36.611,25.582,36.611,27.332z"/>
<path fill="#AB968C" d="M35.68,26.783c0,0.953,1.379,0.953,1.379,0C37.059,25.898,35.68,25.898,35.68,26.783z"/>
<path fill="#613F34" d="M20.102,27.343c0,3.465,5.012,3.465,5.012,0C25.114,24.128,20.102,24.128,20.102,27.343z"/>
<path fill="#7D5037" d="M20.598,28.451c0,1.988,4.02,1.988,4.02,0C24.618,26.607,20.598,26.607,20.598,28.451z"/>
<path fill="#1A1626" d="M21.569,27.398c0,1.438,2.08,1.438,2.08,0C23.649,26.064,21.569,26.064,21.569,27.398z"/>
<path fill="#AB968C" d="M20.858,26.978c0,0.727,1.051,0.727,1.051,0C21.909,26.304,20.858,26.304,20.858,26.978z"/>
<path fill="#755035" d="M44.139,27.775c0-5.564-11.505-5.564-11.505,0.881C34.277,23.369,42.496,23.369,44.139,27.775z"/>
<path fill="#755035" d="M17.911,27.736c0-4.24,8.768-4.24,8.768,0.67C25.426,24.375,19.165,24.375,17.911,27.736z"/>
<path fill="#4A2E24" d="M15.071,23.406H13.04c0.295,2.279,0.742,4.568,1.344,6.655C14.729,27.501,13.985,26.39,15.071,23.406z"/>
<path fill="#4A2E24" d="M44.924,23.406c0.984,2.572,0.338,4.104,0.684,6.655c0.676-2.51,1.092-4.713,1.301-6.655H44.924z"/>
<path fill="#302C3B" d="M59.07,49.967C60.635,54.281,60.602,62,60.602,62h-9.238c0,0-1.176-10.43,0.479-11.223
	C55.188,49.176,58.838,49.322,59.07,49.967z"/>
<path fill="#755035" d="M46.09,39.843c-0.873-1.278,2.57-2.222,3.139,0.023c0.229,0.908,9.631,0.668,10.381,2.01
	c1.352,2.411-1.748,7.167-1.293,8.146c0.453,0.979-6.324,2.516-6.191,1.285c0.436-4.033-1.584-2.508-2.449-5.9
	C49.023,42.855,47.256,41.554,46.09,39.843z"/>
<linearGradient id="SVGID_1_" gradientUnits="userSpaceOnUse" x1="40.5381" y1="38.0547" x2="40.5381" y2="18.9448">
	<stop  offset="0" style="stop-color:#FFFFFF;stop-opacity:0"/>
	<stop  offset="1" style="stop-color:#FFFFFF"/>
	<a:midPointStop  offset="0" style="stop-color:#FFFFFF;stop-opacity:0"/>
	<a:midPointStop  offset="0.5" style="stop-color:#FFFFFF;stop-opacity:0"/>
	<a:midPointStop  offset="1" style="stop-color:#FFFFFF"/>
</linearGradient>
<path opacity="0.65" fill="url(#SVGID_1_)" d="M43.012,19.272c5.092,1.367,8.115,6.603,6.752,11.699
	c-1.367,5.096-6.604,8.123-11.697,6.756c-5.095-1.365-8.119-6.604-6.751-11.702C32.678,20.93,37.916,17.907,43.012,19.272z"/>
<rect x="47.34" y="35.186" transform="matrix(-0.7078 0.7064 -0.7064 -0.7078 109.8583 28.5425)" fill="#BEC3CF" width="3.372" height="3.61"/>
<path fill="#BEC3CF" d="M48.043,36.006c4.148-4.146,4.146-10.866,0.002-15.015c-4.146-4.145-10.869-4.146-15.014,0
	c-4.146,4.146-4.146,10.873,0,15.017C37.176,40.153,43.9,40.153,48.043,36.006z M34.367,34.67c-3.41-3.404-3.408-8.938,0.002-12.344
	c3.406-3.409,8.932-3.407,12.338,0c3.412,3.408,3.412,8.938,0,12.346C43.301,38.08,37.773,38.08,34.367,34.67z"/>
<rect x="52.156" y="36.244" transform="matrix(-0.7073 0.7069 -0.7069 -0.7073 122.8408 33.882)" fill="#302C3B" width="4.501" height="12.254"/>
<path fill="#BEC3CF" d="M56.846,48.92c0.521,0.521,4.633-3.584,4.107-4.111l-0.32-0.318c-0.525-0.525-4.635,3.582-4.109,4.105
	L56.846,48.92z"/>
<path fill="#916B50" d="M53.953,37.025c1.795-0.781,2.447,0.791,2.471,1.396c1.646-0.135,2.457,1.196,2.461,1.708
	c3.467,1.652-3.807,9.589-2.83,4.858c-2.443,2.174-2.428-0.502-1.674-2.229c-2.367,3.924-3.205,0.949-1.469-2.362
	C49.611,45.734,49.439,32.494,53.953,37.025z"/>
<path opacity="0.2" d="M49.861,23.417c0,0,0.229,0.443,0.443,0.916c-4.947,0.955-12.207,1.623-20.298,1.623
	c-6.877,0-11.984-0.293-16.752-1.023c-0.07-0.381-0.156-1.041-0.156-1.041L49.861,23.417z"/>
<path fill="#4E5E67" d="M57,20.542c0,2.146-12.088,4.415-26.994,4.415c-14.91,0-26.994-2.27-26.994-4.415
	c0-2.146,12.084-3.887,26.994-3.887C44.912,16.655,57,18.395,57,20.542z"/>
<path fill="#4E5E67" d="M47.484,17.081c0,4.111-34.957,4.111-34.957,0c0-22.012,7.824-13.436,17.479-13.436
	C39.658,3.645,47.484-4.931,47.484,17.081z"/>
<path opacity="0.4" fill="#302C3B" d="M30.006,5.061c-4.846,0-13.234-3.377-10.402-0.627c3.721,3.607,17.216,3.477,20.802,0
	C43.242,1.684,34.85,5.061,30.006,5.061z"/>
<path fill="#302C3B" d="M12.528,15.325v3.889c6.83,2.561,28.126,2.561,34.957,0v-3.889C40.662,17.887,19.348,17.887,12.528,15.325z"
	/>
</svg>
