<?xml version="1.0" encoding="utf-8"?>
<!-- Generator: Adobe Illustrator 19.0.0, SVG Export Plug-In . SVG Version: 6.00 Build 0)  -->
<svg version="1.1" id="Layer_1" xmlns="http://www.w3.org/2000/svg" xmlns:xlink="http://www.w3.org/1999/xlink" x="0px" y="0px"
	 width="64px" height="64px" viewBox="0 0 64 64" enable-background="new 0 0 64 64" xml:space="preserve">
<path fill="#E6B045" d="M32.524,16.336c0,0-5.338-3.094-4.833,0.324c4.328,4.084,5.502,10.378,5.502,10.378
	S35.458,19.345,32.524,16.336z"/>
<path fill="#1A1626" d="M20.372,58.553c0,0-1.206,1.645,0,3.447h3.332v-1.252c0,0,0.558,1.252,5.649,1.252
	c1.76,0,1.943-1.627,0.093-1.723c-1.87-0.097-1.596-1.334-3.345-3.449L20.372,58.553z"/>
<path fill="#1A1626" d="M40.372,58.553c0,0-1.201,1.645,0,3.447h3.335v-1.252c0,0,0.556,1.252,5.647,1.252
	c1.76,0,1.946-1.627,0.093-1.723c-1.869-0.097-1.593-1.334-3.342-3.449L40.372,58.553z"/>
<path fill="#302C3B" d="M44.08,46.727c-0.554-2.758-5.424-6.04-8.202-11.478c0,0-4.303,0-11.246,0c0,0-3.059,1.46-1.393,8.05
	c1.017,3.999-1.108,10.748-4.442,15.665c0,0,4.907,1.784,10.001,0c0,0-1.527-3.434,1.085-10.07c0.842-2.143-1.11-4.271,0.863-9.004
	c0,0,0.954,2.01,8.068,8.036c0,0-1.405,6.191,0.264,11.038c0,0,1.063,0.452,4.902,0.452c3.589,0,5.374-0.452,5.374-0.452
	S45.915,55.929,44.08,46.727z"/>
<path fill="#7AB51D" d="M32.524,16.336c0.771,2.442,0.574,9.365,0.574,9.365s-1.206-8-5.614-9.66c0,0,2.338,11.596,0,20.485
	c0,0,5.366,1.045,8.324-1.078C38.97,22.284,32.524,16.336,32.524,16.336z"/>
<path fill="#302C3B" d="M33.612,17.197c1.824-1.25,5.422,0.451,8.27-0.564c0.829-0.294,2.976-2.611,4.432-6.816l3.591,2.936
	c0,0-2.102,4.47-4.749,7.9c-0.39,0.501-2.619,1.045-7.31,0.587c0,0-1.75,9.019,2.9,14.868c0,0-2.1-0.867-5.328-1.188
	C35.418,34.92,37.856,27.544,33.612,17.197z"/>
<path fill="#1A1626" d="M36.847,36.941c0,0-0.528-0.726-1.038-1.493v-0.487c0,0,2.654,0.094,4.938,1.146
	C40.746,36.107,41.189,37.499,36.847,36.941z"/>
<path fill="#302C3B" d="M27.781,17.576c0,0-2.72-1.591-4.647-0.146c-10.347,7.769-8.854,5.291-10.08,15.197l4.848,0.137
	c0.436-7.441,1.114-7.563,7.065-9.8c0,0,3.443,6.308-4.023,13.144c0,0-0.269,4.903,10.224,1.928
	C31.167,38.035,35.809,29.459,27.781,17.576z"/>
<path fill="#529320" d="M13,33.47c0,0,1.903,0.703,5.189,0.112C18.189,33.582,16.604,32.355,13,33.47z"/>
<path fill="#7AB51D" d="M13.054,31.271c0,0,0.03,1.218-0.054,2.198c0,0,1.771-0.662,5.189,0.112c0,0-0.163-1.091-0.098-2.216
	c0,0-0.372-0.441-1.834-0.574l-0.663,1.929l-0.667-1.993C14.928,30.728,13.838,30.684,13.054,31.271z"/>
<path fill="#529320" d="M50.52,12.037c0,0-1.555-1.558-4.296-2.37C46.224,9.667,47.317,11.528,50.52,12.037z"/>
<path fill="#7AB51D" d="M49.546,13.809c0,0,0.493-1.003,0.974-1.771c0,0-2.035-0.391-4.296-2.37c0,0-0.338,0.958-0.864,1.847
	c0,0,0.205,0.567,1.258,1.248l1.321-1.312l-0.344,1.89C47.595,13.34,48.701,13.978,49.546,13.809z"/>
<path fill="#6E8189" d="M27.484,16.041l-2.518,0.903l2.738,1.355L26.7,20.587c0,0,8.72,5.224,4.466,17.447
	C34.896,30.385,31.967,20.293,27.484,16.041z"/>
<path fill="#6E8189" d="M32.334,16.041l2.965,0.783l-0.976,1.313l2.454,0.521c0,0,1.473,8.102-1.359,16.262
	C37.16,26.203,34.33,19.039,32.334,16.041z"/>
<path fill="#1A1626" d="M21.324,36.285c0,0,6.882,1.563,9.843,1.75c-3.682,0.222-7.782-0.833-8.161-0.408
	c-0.096,0.313-0.165,0.786-0.165,0.786C21.895,38.05,21.391,37.418,21.324,36.285z"/>
<path fill="#FFCC66" d="M13.533,33.336c-0.092,3.155,0.752,3.973,2.195,4.505c1.305,0.482-0.27-2.971,0.721-3.184
	c0.234,1.635,1.284,1.85,1.199,0.82c-0.084-1.01-0.082-1.6-0.333-2.069C16.624,33.204,14.287,33.072,13.533,33.336z"/>
<path fill="#FFCC66" d="M48.689,5.973c0.326-0.556,1.301-0.087,0.995,0.597c-0.143,0.316-0.54,1.074-0.847,1.712
	c1.573,0.514,3.309,1.336,1.154,3.608c0,0-2.053-0.514-3.381-1.905C47.285,8.602,48.034,7.094,48.689,5.973z"/>
<path fill="#E6B045" d="M48.468,10.139c0.288,0.407,1.079,0.998,1.708,0.891c-0.792,0.238-1.688-0.407-1.854-0.868L48.468,10.139z"
	/>
<path fill="#E6B045" d="M49.121,9.731c0.478-0.16,0.248-0.922-0.237-0.793c-0.903,0.233-1.734,0.479-1.734,0.479
	s0.769-0.412,1.766-0.604c0.566-0.11,0.974,0.823,0.277,1.026c-0.937,0.274-1.365,0.939-1.365,0.939S48.09,10.073,49.121,9.731z"/>
<path fill="#E6B045" d="M24.227,8.631c-2.021-0.365-0.443,5.291,1.14,3.73C26.101,11.64,25.171,8.802,24.227,8.631z"/>
<path fill="#E6B045" d="M36.321,8.631c-0.946,0.171-1.873,3.009-1.138,3.73C36.767,13.922,38.345,8.266,36.321,8.631z"/>
<path fill="#FFCC66" d="M30.273,2c-4.18,0-6.196,3.163-5.942,7.564c0.05,0.885,0.597,3.771,1.115,4.807
	c0.532,1.06,2.304,2.693,3.392,3.03c0.686,0.214,2.188,0.214,2.874,0c1.086-0.337,2.859-1.971,3.39-3.03
	c0.519-1.036,1.065-3.922,1.118-4.807C36.472,5.163,34.457,2,30.273,2z"/>
<path fill="#E6A400" d="M30.273,13.977c-0.94-0.276-2.334,0.132-2.334,0.132c0.531,0.577,0.92,1.327,2.334,1.327
	c1.621,0,1.896-0.851,2.333-1.327C32.606,14.108,31.213,13.698,30.273,13.977z"/>
<path fill="#FFFFFF" d="M28.295,14.206c0.988,0.827,2.979,0.831,3.971,0C31.213,14.25,29.354,14.251,28.295,14.206z"/>
<path fill="#E6B045" d="M31.571,12.421c0,0.845-2.593,0.845-2.593,0C28.979,12.229,31.571,12.229,31.571,12.421z"/>
<path fill="#594640" d="M30.273,2c-2.875,0-4.614,0.951-5.363,0.587c0,0-0.082,0.489,0.213,0.81c0,0-0.311,0.267-0.812-0.185
	c-0.478,1.548,0.939,2.444,5.962,2.444c5.025,0,3.825-1.224,6.296,0.925C36.326,3.933,34.644,2,30.273,2z"/>
<path fill="#453631" d="M32.4,4.311c-2.766,1.021-3.775-0.822-6.387-1.001c1.244,0.586,1.85,1.489,2.867,2.141
	c-2.219-0.742-3.847-2.021-3.971-2.859c0,0-0.369,1.225,1.095,2.141c-1.4,0.129-1.693-1.516-1.693-1.516
	c-0.708,1.14-0.61,4.813,0.178,7.538c0.13-0.973-0.169-1.374,0.28-2.547c1.346-3.503,0.481-2.032,5.506-2.032
	c5.023,0,4.118-1.342,5.503,2.032c0.415,1.006,0.15,1.574,0.282,2.547C37.713,4.607,35.338,3.227,32.4,4.311z"/>
<path fill="#FFFFFF" d="M34.752,9.904c-0.561,1.462-2.833,1.248-3.248,0.225C31.818,8.484,34.443,8.343,34.752,9.904z"/>
<path fill="#FFFFFF" d="M25.799,9.904c0.556,1.462,2.831,1.248,3.247,0.225C28.729,8.483,26.103,8.342,25.799,9.904z"/>
<path fill="#C1873C" d="M34.982,8.143c-0.956-0.474-2.786-0.498-3.468-0.165c-0.146,0.063-0.05,0.513,0.074,0.471
	c0.95-0.353,2.481-0.361,3.371,0.03C35.08,8.528,35.13,8.209,34.982,8.143z"/>
<path fill="#C1873C" d="M25.564,8.143c0.957-0.474,2.787-0.498,3.469-0.165c0.146,0.063,0.05,0.513-0.074,0.471
	c-0.95-0.353-2.481-0.361-3.373,0.03C25.469,8.528,25.421,8.209,25.564,8.143z"/>
<path fill="#613F34" d="M32.084,9.748c0,1.284,1.855,1.284,1.855,0C33.939,8.557,32.084,8.557,32.084,9.748z"/>
<path fill="#7D5037" d="M32.269,10.159c0,0.735,1.489,0.735,1.489,0C33.758,9.476,32.269,9.476,32.269,10.159z"/>
<path fill="#1A1626" d="M32.626,9.769c0,0.531,0.771,0.531,0.771,0C33.397,9.273,32.626,9.273,32.626,9.769z"/>
<path fill="#AB968C" d="M32.363,9.612c0,0.269,0.389,0.269,0.389,0C32.752,9.362,32.363,9.362,32.363,9.612z"/>
<path fill="#613F34" d="M26.608,9.748c0,1.284,1.858,1.284,1.858,0C28.467,8.557,26.608,8.557,26.608,9.748z"/>
<path fill="#7D5037" d="M26.793,10.158c0,0.736,1.489,0.736,1.489,0C28.282,9.476,26.793,9.476,26.793,10.158z"/>
<path fill="#1A1626" d="M27.151,9.769c0,0.531,0.772,0.531,0.772,0C27.924,9.273,27.151,9.273,27.151,9.769z"/>
<path fill="#AB968C" d="M26.891,9.612c0,0.269,0.389,0.269,0.389,0C27.279,9.362,26.891,9.362,26.891,9.612z"/>
<path fill="#E6B045" d="M34.752,9.892c0-1.569-3.248-1.569-3.248,0.25C31.969,8.649,34.287,8.649,34.752,9.892z"/>
<path fill="#E6B045" d="M25.799,9.892c0-1.569,3.247-1.569,3.247,0.25C28.582,8.648,26.261,8.648,25.799,9.892z"/>
</svg>
