<?xml version="1.0" encoding="utf-8"?>
<!-- Generator: Adobe Illustrator 15.0.0, SVG Export Plug-In . SVG Version: 6.00 Build 0)  -->
<!DOCTYPE svg PUBLIC "-//W3C//DTD SVG 1.1//EN" "http://www.w3.org/Graphics/SVG/1.1/DTD/svg11.dtd" [
	<!ENTITY ns_flows "http://ns.adobe.com/Flows/1.0/">
	<!ENTITY ns_extend "http://ns.adobe.com/Extensibility/1.0/">
	<!ENTITY ns_ai "http://ns.adobe.com/AdobeIllustrator/10.0/">
	<!ENTITY ns_graphs "http://ns.adobe.com/Graphs/1.0/">
]>
<svg version="1.1" id="Layer_1" xmlns:x="&ns_extend;" xmlns:i="&ns_ai;" xmlns:graph="&ns_graphs;"
	 xmlns="http://www.w3.org/2000/svg" xmlns:xlink="http://www.w3.org/1999/xlink" xmlns:a="http://ns.adobe.com/AdobeSVGViewerExtensions/3.0/"
	 x="0px" y="0px" width="64px" height="64px" viewBox="0 0 64 64" enable-background="new 0 0 64 64" xml:space="preserve">
<radialGradient id="SVGID_1_" cx="24.0508" cy="59.7549" r="9.598" gradientTransform="matrix(1.027 0 0 0.2172 7.2981 46.7737)" gradientUnits="userSpaceOnUse">
	<stop  offset="0.1091" style="stop-color:#81878A"/>
	<stop  offset="0.2795" style="stop-color:#898F92;stop-opacity:0.8087"/>
	<stop  offset="0.5503" style="stop-color:#9EA6A9;stop-opacity:0.5048"/>
	<stop  offset="0.8857" style="stop-color:#C1CACF;stop-opacity:0.1283"/>
	<stop  offset="1" style="stop-color:#CFD8DD;stop-opacity:0"/>
	<a:midPointStop  offset="0.1091" style="stop-color:#81878A"/>
	<a:midPointStop  offset="0.6061" style="stop-color:#81878A"/>
	<a:midPointStop  offset="1" style="stop-color:#CFD8DD;stop-opacity:0"/>
</radialGradient>
<path fill="url(#SVGID_1_)" d="M31.999,62c-13.332,0-13.332-4.49,0-4.49C45.334,57.51,45.334,62,31.999,62z"/>
<path fill="#302C3B" d="M32.438,48.992h-3.815v2.85l0,0c0.011,3.588,3.826,3.586,3.815,0V48.992z"/>
<path fill="#FFFFFF" d="M32.061,48.992h-3.063v2.094l0,0c0.004,1.694,3.066,1.693,3.063,0V48.992z"/>
<path fill="#302C3B" d="M35.604,49.585h-3.816v2.852l0,0c0.012,3.589,3.827,3.587,3.816,0V49.585z"/>
<path fill="#FFFFFF" d="M35.228,49.585h-3.063v2.096l0,0c0.004,1.695,3.065,1.693,3.063,0V49.585z"/>
<path fill="#FDCA47" d="M37.788,35.399c1.451-1.436,0.321,2.744,1.669,1.411c1.254-1.241,0.188-3.356,0.188-3.356l-2.135-0.378
	C37.511,33.076,36.589,36.587,37.788,35.399z"/>
<path fill="#FDCA47" d="M26.209,35.399c-1.451-1.438-0.322,2.743-1.669,1.41c-1.255-1.241-0.19-3.355-0.19-3.355l2.137-0.379
	C26.487,33.075,27.408,36.586,26.209,35.399z"/>
<path fill="#302C3B" d="M39.115,19.149c-0.86-0.562-4.828-2.034-4.828-2.034h-4.548c0,0-3.973,1.477-4.835,2.035
	c-1.252,0.811-0.976,14.699-0.976,14.699l2.51,0.183c0.9,7.906,1.774,16.736,1.774,16.736l7.573,0.001c0,0,0.874-8.831,1.774-16.737
	l2.51-0.183C40.069,33.849,40.36,19.962,39.115,19.149z"/>
<polygon fill="#1A1626" points="32.521,37.57 31.999,50.769 31.475,37.57 "/>
<polygon fill="#1A1626" points="37.907,24.566 37.56,33.526 37.21,24.566 "/>
<polygon fill="#1A1626" points="26.786,24.666 26.438,33.626 26.09,24.666 "/>
<rect x="26.438" y="32.512" fill="#1A1626" width="11.122" height="1.114"/>
<rect x="29.411" y="16.68" fill="#E6A400" width="5.176" height="2.698"/>
<path fill="#E6EBEF" d="M34.106,23.98c0.629-1.508,0.643-7.113,0.643-7.113c-0.921,1.658-2.65,2.414-2.75,2.457
	c-0.102-0.043-1.829-0.799-2.75-2.457c0,0,0.014,5.605,0.643,7.113l2.115,4.147L34.106,23.98z"/>
<polygon fill="#302C3B" points="33.417,25.64 32.665,21.369 33.017,20.638 31.999,19.424 30.981,20.638 31.333,21.369 30.58,25.64 
	31.997,28.127 "/>
<path fill="#FFFFFF" d="M31.999,19.324c-0.102-0.043-1.829-0.799-2.75-2.457c0,0,0.006,1.412,0.117,2.924
	c0.342,0.563,0.91,1.439,1.131,1.439c0.324,0,1.502-1.732,1.502-1.732s1.168,1.732,1.522,1.732c0.255,0,0.789-0.844,1.11-1.418
	c0.112-1.521,0.118-2.945,0.118-2.945C33.828,18.525,32.099,19.281,31.999,19.324"/>
<path fill="#4E5E67" d="M27.333,20.382l1.641-0.564l-1.838-1.489c0,0,1.147-1.12,2.277-1.456v2.945c0,0,1.688,6.501,2.584,8.31
	C31.997,28.127,27.983,22.071,27.333,20.382z"/>
<path fill="#4E5E67" d="M36.664,20.382l-1.64-0.564l1.838-1.489c0,0-1.148-1.12-2.277-1.456v2.945c0,0-1.694,6.501-2.588,8.31
	C31.997,28.127,36.015,22.071,36.664,20.382z"/>
<path fill="#F5BC2C" d="M26.356,9.274c-1.887-0.378-0.414,5.494,1.064,3.874C28.105,12.398,27.239,9.452,26.356,9.274z"/>
<path fill="#F5BC2C" d="M37.646,9.274c-0.883,0.178-1.75,3.124-1.064,3.874C38.06,14.768,39.532,8.896,37.646,9.274z"/>
<path fill="#FDCA47" d="M32,2.995c-3.902,0-5.783,2.996-5.547,7.16c0.047,0.84,0.558,3.573,1.042,4.552
	c0.495,1.003,2.149,2.551,3.163,2.87c0.641,0.203,2.043,0.203,2.684,0c1.014-0.319,2.668-1.867,3.163-2.87
	c0.483-0.979,0.995-3.712,1.042-4.552C37.784,5.991,35.903,2.995,32,2.995z"/>
<path fill="#E6A400" d="M32,14.333c-0.877-0.261-2.178,0.126-2.178,0.126c0.494,0.547,0.857,1.257,2.178,1.257
	c1.512,0,1.769-0.807,2.179-1.257C34.18,14.458,32.877,14.072,32,14.333z"/>
<path fill="#FFFFFF" d="M30.155,14.551c0.92,0.783,2.778,0.788,3.703,0C32.877,14.593,31.142,14.594,30.155,14.551z"/>
<path fill="#E6A400" d="M33.212,12.86c0,0.801-2.422,0.801-2.422,0C30.79,12.677,33.212,12.677,33.212,12.86z"/>
<path fill="#302C3B" d="M32.784,9.496c-0.449,0.229-1.119,0.229-1.568,0c-0.479-0.249-1.063-0.41-1.762-0.474
	c-0.683-0.062-2.131-0.059-2.855,0.201c-0.084,0.03-0.166,0.069-0.246,0.109c-0.045,0.022-0.053,0.041-0.053,0.126v0.107
	c0,0.209-0.023,0.127,0.119,0.213c0.281,0.169,0.44,0.605,0.529,1.206c0.12,0.874,0.541,1.423,1.225,1.686
	c0.635,0.241,1.344,0.233,1.974-0.023c0.345-0.14,0.646-0.362,0.887-0.722c0.419-0.631,0.295-1.025,0.513-1.567
	c0.188-0.473,0.721-0.473,0.91,0c0.217,0.542,0.092,0.937,0.513,1.567c0.239,0.359,0.542,0.582,0.886,0.722
	c0.629,0.257,1.338,0.265,1.974,0.023c0.685-0.263,1.104-0.812,1.226-1.686c0.086-0.601,0.246-1.037,0.527-1.206
	C37.725,9.693,37.7,9.775,37.7,9.566V9.458c0-0.085-0.01-0.104-0.053-0.126c-0.08-0.04-0.16-0.079-0.245-0.109
	c-0.724-0.26-2.173-0.263-2.855-0.201C33.847,9.085,33.263,9.247,32.784,9.496"/>
<linearGradient id="SVGID_2_" gradientUnits="userSpaceOnUse" x1="34.8115" y1="12.3516" x2="34.8115" y2="9.4536">
	<stop  offset="0" style="stop-color:#4E5E67"/>
	<stop  offset="0.2345" style="stop-color:#50606A"/>
	<stop  offset="0.381" style="stop-color:#576872"/>
	<stop  offset="0.5033" style="stop-color:#647681"/>
	<stop  offset="0.6124" style="stop-color:#758A95"/>
	<stop  offset="0.7126" style="stop-color:#8CA3B0"/>
	<stop  offset="0.8063" style="stop-color:#A7C2D1"/>
	<stop  offset="0.8934" style="stop-color:#C7E6F7"/>
	<stop  offset="0.9091" style="stop-color:#CEEDFF"/>
	<a:midPointStop  offset="0" style="stop-color:#4E5E67"/>
	<a:midPointStop  offset="0.7939" style="stop-color:#4E5E67"/>
	<a:midPointStop  offset="0.9091" style="stop-color:#CEEDFF"/>
</linearGradient>
<path opacity="0.3" fill="url(#SVGID_2_)" d="M33.083,9.879c-0.272,0.242-0.025,1.985,0.803,2.309
	c0.516,0.201,1.529,0.323,2.232-0.293c0.572-0.505,0.696-2.031,0.289-2.27C35.958,9.365,33.665,9.365,33.083,9.879z"/>
<linearGradient id="SVGID_3_" gradientUnits="userSpaceOnUse" x1="29.2236" y1="12.3521" x2="29.2236" y2="9.4541">
	<stop  offset="0" style="stop-color:#4E5E67"/>
	<stop  offset="0.2345" style="stop-color:#50606A"/>
	<stop  offset="0.381" style="stop-color:#576872"/>
	<stop  offset="0.5033" style="stop-color:#647681"/>
	<stop  offset="0.6124" style="stop-color:#758A95"/>
	<stop  offset="0.7126" style="stop-color:#8CA3B0"/>
	<stop  offset="0.8063" style="stop-color:#A7C2D1"/>
	<stop  offset="0.8934" style="stop-color:#C7E6F7"/>
	<stop  offset="0.9091" style="stop-color:#CEEDFF"/>
	<a:midPointStop  offset="0" style="stop-color:#4E5E67"/>
	<a:midPointStop  offset="0.7939" style="stop-color:#4E5E67"/>
	<a:midPointStop  offset="0.9091" style="stop-color:#CEEDFF"/>
</linearGradient>
<path opacity="0.3" fill="url(#SVGID_3_)" d="M30.953,9.881c0.272,0.24,0.024,1.984-0.803,2.307
	c-0.515,0.202-1.529,0.324-2.231-0.293c-0.573-0.503-0.699-2.031-0.289-2.269C28.079,9.365,30.37,9.365,30.953,9.881z"/>
<path fill="#4E5E67" d="M40.841,7.054c0,1.828-3.955,2.783-8.84,2.783c-4.885,0-8.842-0.955-8.842-2.783
	c0-0.87,3.959,0.414,8.842,0.414C36.883,7.468,40.841,6.184,40.841,7.054z"/>
<path fill="#4E5E67" d="M37.315,6.823c0,1.313-10.63,1.313-10.63,0c0-7.038,2.38-4.297,5.315-4.297
	C34.936,2.526,37.315-0.215,37.315,6.823z"/>
<path opacity="0.4" fill="#302C3B" d="M32,2.978c-1.473,0-4.025-1.078-3.164-0.2c1.131,1.154,5.239,1.11,6.328,0
	C36.025,1.9,33.474,2.978,32,2.978z"/>
<path fill="#302C3B" d="M26.685,6.26v1.244c2.077,0.818,8.554,0.818,10.63,0V6.26C35.241,7.081,28.759,7.081,26.685,6.26z"/>
</svg>
