<?xml version="1.0" encoding="utf-8"?>
<!-- Generator: Adobe Illustrator 15.0.0, SVG Export Plug-In . SVG Version: 6.00 Build 0)  -->
<!DOCTYPE svg PUBLIC "-//W3C//DTD SVG 1.1//EN" "http://www.w3.org/Graphics/SVG/1.1/DTD/svg11.dtd" [
	<!ENTITY ns_flows "http://ns.adobe.com/Flows/1.0/">
	<!ENTITY ns_extend "http://ns.adobe.com/Extensibility/1.0/">
	<!ENTITY ns_ai "http://ns.adobe.com/AdobeIllustrator/10.0/">
	<!ENTITY ns_graphs "http://ns.adobe.com/Graphs/1.0/">
]>
<svg version="1.1" id="Layer_1" xmlns:x="&ns_extend;" xmlns:i="&ns_ai;" xmlns:graph="&ns_graphs;"
	 xmlns="http://www.w3.org/2000/svg" xmlns:xlink="http://www.w3.org/1999/xlink" xmlns:a="http://ns.adobe.com/AdobeSVGViewerExtensions/3.0/"
	 x="0px" y="0px" width="64px" height="64px" viewBox="0 0 64 64" enable-background="new 0 0 64 64" xml:space="preserve">
<path fill="#261A17" d="M18.962,15.476c-8.107,37.397-7.365,36.596,9.703,36.596C19.22,44.973,37.312,14.967,18.962,15.476z"/>
<path fill="#1E1513" d="M16.039,14.897c-5.916,28.414-0.813,35.708,3.721,37.175h5.193C12.8,42.871,31.798,14.338,16.039,14.897z"/>
<path fill="#261A17" d="M42.815,15.475c8.107,37.396,7.365,36.595-9.701,36.595C41.8,46.373,24.466,14.965,42.815,15.475z"/>
<path fill="#1E1513" d="M45.737,14.895c8.65,25.851-0.018,35.98-3.719,37.175h-5.193C48.979,43.621,29.982,14.336,45.737,14.895z"/>
<path fill="#3A2C29" d="M46.937,28.787c2.467,6.571,0.025,20.057-5.082,23.286c5.66,0,9.111-8.549,10.791-20.31
	C54.747,17.067,42.54,17.059,46.937,28.787z"/>
<path fill="#3A2C29" d="M9.767,34.489c2.064,10.614,4.602,17.583,10.16,17.583c-6.197-6.998-5.467-21.76-3.707-25.433
	C25.197,20.812,6.279,16.536,9.767,34.489z"/>
<path fill="#302C3B" d="M50.729,53.443c-2.398-1.26-12.363-4.596-12.363-4.596H23.529c0,0-9.955,3.326-12.344,4.594
	C7.716,55.277,6.988,62,6.988,62h48C54.987,62,54.212,55.271,50.729,53.443z"/>
<rect x="23.128" y="45.27" fill="#DBA97F" width="15.726" height="8.314"/>
<polygon fill="#FFFFFF" points="31,51.721 22.625,48.063 25.074,62 36.923,62 39.374,48.063 "/>
<polygon fill="#E6EBEF" points="31,51.721 23.587,54.816 25.074,62 36.923,62 38.413,54.816 "/>
<polygon fill="#302C3B" points="35.183,62 32.962,55.111 33.999,52.973 31,51.721 28,52.973 29.039,55.111 26.814,62 "/>
<path fill="#4E5E67" d="M20.376,62c0,0-3.162-2.988-6.055-8.773l7.311-1.932l-8.191-5.111c0,0,5.113-3.834,10.146-4.986v10.098
	c0,0,0.797,4.51,4.783,10.705H20.376z"/>
<path fill="#4E5E67" d="M41.624,62c0,0,3.16-2.988,6.055-8.773l-7.313-1.932l8.191-5.111c0,0-5.115-3.834-10.145-4.986v10.098
	c0,0-0.797,4.51-4.783,10.705H41.624z"/>
<path fill="#FCD5B2" d="M30.99,6.489c-11.609,0-17.201,9.455-16.502,21.61c0.143,2.444,0.822,5.969,1.66,8.99
	c1.742,6.278,10.93,12.601,14.842,12.601c3.91,0,13.099-6.322,14.839-12.601c0.84-3.021,1.52-6.545,1.664-8.99
	C48.19,15.944,42.601,6.489,30.99,6.489z"/>
<path fill="#D88D56" d="M30.99,39.661c-2.822-1.241-2.844-0.05-7.199,0.242c1.635,1.856,2.838,4.243,7.197,4.243
	c5.003,0,5.849-2.711,7.203-4.243C33.831,39.611,33.812,38.42,30.99,39.661z"/>
<path fill="#FFFFFF" d="M25.097,40.365c2.844,2.959,8.976,2.92,11.785,0.002C32.503,40.838,29.478,40.838,25.097,40.365z"/>
<path fill="#DBA97F" d="M34.589,35.419c0,2.342-7.199,2.342-7.199,0C27.39,34.881,34.589,34.881,34.589,35.419z"/>
<path fill="#FFFFFF" d="M18.449,28.431c1.553,4.059,7.863,3.465,9.02,0.623C26.591,24.488,19.304,24.097,18.449,28.431z"/>
<path fill="#613F34" d="M20.685,27.995c0,3.596,5.199,3.596,5.199,0C25.884,24.658,20.685,24.658,20.685,27.995z"/>
<path fill="#7D5037" d="M21.199,29.145c0,2.062,4.172,2.062,4.172,0C25.371,27.232,21.199,27.232,21.199,29.145z"/>
<path fill="#1A1626" d="M22.205,28.051c0,1.492,2.16,1.492,2.16,0C24.365,26.666,22.205,26.666,22.205,28.051z"/>
<path fill="#AB968C" d="M21.468,27.615c0,0.755,1.09,0.755,1.09,0C22.558,26.916,21.468,26.916,21.468,27.615z"/>
<path fill="#45332C" d="M18.449,28.4c0-4.361,9.02-4.361,9.02,0.688C26.181,24.943,19.738,24.943,18.449,28.4z"/>
<path fill="#3A2C29" d="M41.862,19.475c1.49,2.227,3.465,5.018,5.074,9.312c2.467,6.571,4.029,14.737,5.709,2.976
	c0.66-4.618,0.314-8.782-0.586-12.287H41.862z"/>
<path fill="#3A2C29" d="M9.937,19.475c-1.125,4.089-1.326,9.063-0.17,15.014c2.064,10.614,2.9-3.666,4.662-7.339
	c4.025-2.613,9.691-5.045,14.93-7.675H9.937z"/>
<path fill="#1E1513" d="M28.064,19.475c-8.373,3.898-16.877,6.757-17.961,12.235c4.289-6.152,14.721-8.007,22.816-12.235H28.064z"/>
<path fill="#FFFFFF" d="M45.132,28.699c-1.98,5.184-10.029,4.424-11.506,0.797C34.745,23.671,44.044,23.171,45.132,28.699z"/>
<path fill="#613F34" d="M35.681,28.148c0,4.547,6.576,4.547,6.576,0C42.257,23.927,35.681,23.927,35.681,28.148z"/>
<path fill="#7D5037" d="M36.331,29.603c0,2.607,5.275,2.607,5.275,0C41.606,27.183,36.331,27.183,36.331,29.603z"/>
<path fill="#1A1626" d="M37.604,28.218c0,1.889,2.729,1.889,2.729,0C40.333,26.468,37.604,26.468,37.604,28.218z"/>
<path fill="#AB968C" d="M36.673,27.669c0,0.953,1.379,0.953,1.379,0C38.052,26.785,36.673,26.785,36.673,27.669z"/>
<path fill="#45332C" d="M45.132,28.662c0-5.564-11.506-5.564-11.506,0.881C35.271,24.255,43.489,24.255,45.132,28.662z"/>
<path fill="#302C3B" d="M60.071,49.967C61.636,54.281,61.603,62,61.603,62h-9.238c0,0-1.176-10.43,0.479-11.223
	C56.188,49.176,59.839,49.322,60.071,49.967z"/>
<path fill="#DBA97F" d="M47.091,39.844c-0.873-1.279,2.57-2.223,3.139,0.023c0.229,0.908,9.631,0.668,10.381,2.01
	c1.352,2.41-1.748,7.166-1.293,8.145c0.453,0.979-6.324,2.516-6.191,1.285c0.436-4.033-1.584-2.508-2.449-5.9
	C50.024,42.855,48.257,41.555,47.091,39.844z"/>
<linearGradient id="SVGID_1_" gradientUnits="userSpaceOnUse" x1="41.5391" y1="38.0547" x2="41.5391" y2="18.9448">
	<stop  offset="0" style="stop-color:#FFFFFF;stop-opacity:0"/>
	<stop  offset="1" style="stop-color:#FFFFFF"/>
	<a:midPointStop  offset="0" style="stop-color:#FFFFFF;stop-opacity:0"/>
	<a:midPointStop  offset="0.5" style="stop-color:#FFFFFF;stop-opacity:0"/>
	<a:midPointStop  offset="1" style="stop-color:#FFFFFF"/>
</linearGradient>
<path opacity="0.65" fill="url(#SVGID_1_)" d="M44.013,19.272c5.092,1.367,8.115,6.603,6.752,11.698
	c-1.367,5.096-6.604,8.124-11.697,6.756c-5.096-1.365-8.119-6.604-6.751-11.702C33.679,20.93,38.917,17.907,44.013,19.272z"/>
<rect x="48.341" y="35.186" transform="matrix(-0.7077 0.7065 -0.7065 -0.7077 111.5663 27.8237)" fill="#BEC3CF" width="3.373" height="3.61"/>
<path fill="#BEC3CF" d="M49.044,36.006c4.148-4.147,4.146-10.866,0.002-15.015c-4.146-4.145-10.869-4.146-15.014,0
	c-4.146,4.146-4.146,10.872,0,15.017C38.177,40.154,44.901,40.154,49.044,36.006z M35.368,34.67
	c-3.41-3.405-3.408-8.938,0.002-12.344c3.406-3.409,8.932-3.407,12.338,0c3.412,3.408,3.412,8.938,0,12.346
	C44.302,38.08,38.774,38.08,35.368,34.67z"/>
<rect x="53.157" y="36.244" transform="matrix(-0.7073 0.7069 -0.7069 -0.7073 124.5498 33.1744)" fill="#302C3B" width="4.501" height="12.254"/>
<path fill="#BEC3CF" d="M57.847,48.92c0.521,0.521,4.633-3.584,4.107-4.111l-0.32-0.318c-0.525-0.525-4.635,3.582-4.109,4.105
	L57.847,48.92z"/>
<path fill="#FCD5B2" d="M54.954,37.025c1.795-0.781,2.447,0.791,2.471,1.396c1.646-0.135,2.457,1.197,2.461,1.709
	c3.467,1.652-3.807,9.588-2.83,4.857c-2.443,2.174-2.428-0.502-1.674-2.229c-2.367,3.924-3.205,0.949-1.469-2.361
	C50.612,45.734,50.44,32.494,54.954,37.025z"/>
<path opacity="0.2" d="M52.79,23.462c0,0,0.055,0.513,0.096,0.984c-5.496,0.955-12.893,1.51-21.886,1.51
	c-7.643,0-16.617-0.797-21.914-1.527c0.035-0.408,0.094-0.971,0.094-0.971L52.79,23.462z"/>
<path fill="#4E5E67" d="M59.999,20.542c0,2.146-12.988,4.415-29,4.415c-16.018,0-29-2.27-29-4.415c0-2.146,12.982-3.887,29-3.887
	C47.011,16.655,59.999,18.395,59.999,20.542z"/>
<path fill="#4E5E67" d="M50.517,17.081c0,4.111-39.033,4.111-39.033,0C11.484-4.931,20.222,3.645,31,3.645
	C41.776,3.645,50.517-4.931,50.517,17.081z"/>
<path opacity="0.4" fill="#302C3B" d="M31,5.061c-5.41,0-14.777-3.377-11.617-0.627c4.156,3.607,19.226,3.477,23.228,0
	C45.778,1.684,36.409,5.061,31,5.061z"/>
<path fill="#302C3B" d="M11.484,15.325v3.889c7.627,2.561,31.404,2.561,39.033,0v-3.889C42.896,17.887,19.101,17.887,11.484,15.325z
	"/>
</svg>
