<?xml version="1.0" encoding="utf-8"?>
<!-- Generator: Adobe Illustrator 15.0.0, SVG Export Plug-In . SVG Version: 6.00 Build 0)  -->
<!DOCTYPE svg PUBLIC "-//W3C//DTD SVG 1.1//EN" "http://www.w3.org/Graphics/SVG/1.1/DTD/svg11.dtd" [
	<!ENTITY ns_flows "http://ns.adobe.com/Flows/1.0/">
	<!ENTITY ns_extend "http://ns.adobe.com/Extensibility/1.0/">
	<!ENTITY ns_ai "http://ns.adobe.com/AdobeIllustrator/10.0/">
	<!ENTITY ns_graphs "http://ns.adobe.com/Graphs/1.0/">
]>
<svg version="1.1" id="Layer_1" xmlns:x="&ns_extend;" xmlns:i="&ns_ai;" xmlns:graph="&ns_graphs;"
	 xmlns="http://www.w3.org/2000/svg" xmlns:xlink="http://www.w3.org/1999/xlink" xmlns:a="http://ns.adobe.com/AdobeSVGViewerExtensions/3.0/"
	 x="0px" y="0px" width="64px" height="64px" viewBox="0 0 64 64" enable-background="new 0 0 64 64" xml:space="preserve">
<path fill="#3B2C29" d="M18.962,15.476c-8.107,37.397-7.365,36.596,9.703,36.596C19.22,44.972,37.312,14.967,18.962,15.476z"/>
<path fill="#453631" d="M16.038,14.897c-5.916,28.413-0.813,35.708,3.721,37.175h5.193C12.8,42.87,31.798,14.338,16.038,14.897z"/>
<path fill="#3B2C29" d="M42.815,15.475c8.107,37.396,7.365,36.596-9.701,36.596C41.8,46.372,24.466,14.966,42.815,15.475z"/>
<path fill="#453631" d="M45.737,14.896c8.65,25.85-0.018,35.979-3.719,37.175h-5.193C48.979,43.621,29.981,14.336,45.737,14.896z"/>
<path fill="#594640" d="M46.937,28.786c2.467,6.571,0.025,20.058-5.082,23.286c5.66,0,9.111-8.55,10.791-20.31
	C54.747,17.067,42.54,17.06,46.937,28.786z"/>
<path fill="#594640" d="M9.767,34.488c2.064,10.614,4.602,17.584,10.16,17.584c-6.197-6.999-5.467-21.76-3.707-25.433
	C25.196,20.812,6.278,16.536,9.767,34.488z"/>
<path fill="#302C3B" d="M50.73,53.443c-2.398-1.26-12.363-4.597-12.363-4.597H23.528c0,0-9.954,3.327-12.344,4.595
	C7.717,55.276,6.988,62,6.988,62h48C54.988,62,54.212,55.271,50.73,53.443z"/>
<rect x="23.128" y="45.269" fill="#E6B045" width="15.728" height="8.315"/>
<polygon fill="#FFFFFF" points="30.999,51.72 22.624,48.063 25.074,62 36.924,62 39.374,48.063 "/>
<polygon fill="#E6EBEF" points="30.999,51.72 23.587,54.816 25.074,62 36.924,62 38.413,54.816 "/>
<polygon fill="#302C3B" points="35.184,62 32.962,55.11 33.999,52.973 30.999,51.72 27.999,52.973 29.038,55.11 26.813,62 "/>
<path fill="#4E5E67" d="M20.376,62c0,0-3.162-2.988-6.055-8.773l7.312-1.933l-8.192-5.111c0,0,5.114-3.834,10.146-4.986v10.098
	c0,0,0.798,4.511,4.783,10.706H20.376z"/>
<path fill="#4E5E67" d="M41.625,62c0,0,3.159-2.988,6.055-8.773l-7.313-1.933l8.192-5.111c0,0-5.115-3.834-10.146-4.986v10.098
	c0,0-0.797,4.511-4.783,10.706H41.625z"/>
<path fill="#FFCC66" d="M30.989,6.488c-11.609,0-17.201,9.455-16.502,21.611c0.143,2.444,0.822,5.969,1.66,8.988
	c1.742,6.279,10.93,12.601,14.842,12.601c3.91,0,13.1-6.321,14.84-12.601c0.84-3.02,1.52-6.544,1.664-8.988
	C48.19,15.943,42.601,6.488,30.989,6.488z"/>
<path fill="#D47706" d="M30.989,39.66c-2.822-1.24-2.844-0.05-7.199,0.242c1.635,1.856,2.838,4.244,7.197,4.244
	c5.004,0,5.85-2.711,7.203-4.244C33.831,39.61,33.812,38.42,30.989,39.66z"/>
<path fill="#FFFFFF" d="M25.097,40.365c2.844,2.959,8.977,2.92,11.785,0.002C32.503,40.837,29.478,40.837,25.097,40.365z"/>
<path fill="#594640" d="M43.784,23.684c-2.617-1.559-7.309-1.75-9.166-0.688c-0.393,0.214-0.287,1.341,0.053,1.2
	c2.648-1.103,6.682-1.158,9.168,0.117C44.173,24.482,44.179,23.91,43.784,23.684z"/>
<path fill="#594640" d="M18.196,23.684c2.615-1.559,7.307-1.75,9.166-0.688c0.393,0.214,0.289,1.341-0.055,1.2
	c-2.648-1.103-6.68-1.159-9.166,0.117C17.808,24.482,17.8,23.91,18.196,23.684z"/>
<path fill="#E6B045" d="M34.589,35.418c0,2.342-7.199,2.342-7.199,0C27.39,34.881,34.589,34.881,34.589,35.418z"/>
<path fill="#FFFFFF" d="M18.448,28.431c1.553,4.06,7.863,3.466,9.02,0.624C26.591,24.488,19.304,24.098,18.448,28.431z"/>
<path fill="#613F34" d="M20.685,27.995c0,3.596,5.199,3.596,5.199,0C25.884,24.657,20.685,24.657,20.685,27.995z"/>
<path fill="#7D5037" d="M21.198,29.145c0,2.062,4.172,2.062,4.172,0C25.37,27.231,21.198,27.231,21.198,29.145z"/>
<path fill="#1A1626" d="M22.204,28.051c0,1.492,2.16,1.492,2.16,0C24.364,26.666,22.204,26.666,22.204,28.051z"/>
<path fill="#AB968C" d="M21.468,27.615c0,0.754,1.09,0.754,1.09,0C22.558,26.916,21.468,26.916,21.468,27.615z"/>
<path fill="#45332C" d="M18.448,28.399c0-4.361,9.02-4.361,9.02,0.689C26.181,24.943,19.737,24.943,18.448,28.399z"/>
<path fill="#594640" d="M41.863,19.476c1.49,2.226,3.464,5.017,5.073,9.311c2.467,6.571,4.029,14.736,5.709,2.976
	c0.66-4.618,0.315-8.783-0.586-12.287H41.863z"/>
<path fill="#594640" d="M9.937,19.476c-1.124,4.088-1.326,9.063-0.17,15.013c2.064,10.614,2.9-3.665,4.662-7.338
	c4.026-2.613,9.692-5.046,14.931-7.675H9.937z"/>
<path fill="#453631" d="M28.063,19.476c-8.372,3.898-16.876,6.756-17.961,12.235c4.289-6.152,14.722-8.007,22.817-12.235H28.063z"/>
<path fill="#FFFFFF" d="M45.132,28.699c-1.979,5.183-10.029,4.423-11.505,0.797C34.746,23.672,44.044,23.172,45.132,28.699z"/>
<path fill="#613F34" d="M35.681,28.148c0,4.547,6.576,4.547,6.576,0C42.257,23.928,35.681,23.928,35.681,28.148z"/>
<path fill="#7D5037" d="M36.332,29.604c0,2.607,5.275,2.607,5.275,0C41.607,27.183,36.332,27.183,36.332,29.604z"/>
<path fill="#1A1626" d="M37.604,28.219c0,1.889,2.729,1.889,2.729,0C40.334,26.469,37.604,26.469,37.604,28.219z"/>
<path fill="#AB968C" d="M36.673,27.669c0,0.953,1.379,0.953,1.379,0C38.052,26.785,36.673,26.785,36.673,27.669z"/>
<path fill="#45332C" d="M45.132,28.662c0-5.564-11.505-5.564-11.505,0.881C35.271,24.256,43.489,24.256,45.132,28.662z"/>
<path fill="#302C3B" d="M60.072,49.967C61.637,54.281,61.603,62,61.603,62h-9.237c0,0-1.176-10.43,0.479-11.223
	C56.188,49.176,59.839,49.322,60.072,49.967z"/>
<path fill="#E6B045" d="M47.091,39.844c-0.872-1.279,2.57-2.223,3.139,0.022c0.229,0.908,9.632,0.669,10.382,2.01
	c1.352,2.411-1.748,7.167-1.294,8.146c0.453,0.979-6.323,2.516-6.19,1.285c0.435-4.033-1.585-2.509-2.45-5.9
	C50.025,42.855,48.258,41.555,47.091,39.844z"/>
<linearGradient id="SVGID_1_" gradientUnits="userSpaceOnUse" x1="41.5391" y1="38.0547" x2="41.5391" y2="18.9443">
	<stop  offset="0" style="stop-color:#FFFFFF;stop-opacity:0"/>
	<stop  offset="1" style="stop-color:#FFFFFF"/>
	<a:midPointStop  offset="0" style="stop-color:#FFFFFF;stop-opacity:0"/>
	<a:midPointStop  offset="0.5" style="stop-color:#FFFFFF;stop-opacity:0"/>
	<a:midPointStop  offset="1" style="stop-color:#FFFFFF"/>
</linearGradient>
<circle opacity="0.65" fill="url(#SVGID_1_)" cx="41.541" cy="28.499" r="9.553"/>
<rect x="48.342" y="35.187" transform="matrix(-0.7075 0.7067 -0.7067 -0.7075 111.5661 27.8104)" fill="#BEC3CF" width="3.372" height="3.609"/>
<path fill="#BEC3CF" d="M49.045,36.006c4.147-4.146,4.146-10.865,0.002-15.016c-4.147-4.145-10.869-4.146-15.015,0
	s-4.146,10.873,0,15.018C38.178,40.154,44.901,40.154,49.045,36.006z M35.368,34.67c-3.41-3.404-3.408-8.938,0.002-12.344
	c3.407-3.41,8.932-3.408,12.339,0c3.411,3.408,3.411,8.938,0,12.346C44.302,38.08,38.775,38.08,35.368,34.67z"/>
<rect x="53.158" y="36.244" transform="matrix(-0.7072 0.707 -0.707 -0.7072 124.5492 33.1634)" fill="#302C3B" width="4.5" height="12.254"/>
<path fill="#BEC3CF" d="M57.848,48.92c0.521,0.521,4.632-3.584,4.106-4.111l-0.32-0.318c-0.525-0.525-4.634,3.582-4.108,4.105
	L57.848,48.92z"/>
<path fill="#FFCC66" d="M54.955,37.025c1.794-0.781,2.447,0.791,2.471,1.396c1.646-0.134,2.456,1.198,2.461,1.71
	c3.466,1.652-3.807,9.587-2.83,4.857c-2.443,2.174-2.428-0.503-1.674-2.229c-2.367,3.924-3.206,0.949-1.469-2.361
	C50.612,45.733,50.44,32.494,54.955,37.025z"/>
<path opacity="0.2" d="M52.791,23.462c0,0,0.054,0.513,0.096,0.985c-5.497,0.955-12.894,1.51-21.888,1.51
	c-7.643,0-16.616-0.797-21.913-1.527c0.035-0.409,0.093-0.972,0.093-0.972L52.791,23.462z"/>
<path fill="#4E5E67" d="M60,20.541c0,2.146-12.988,4.416-29.001,4.416C14.981,24.957,2,22.688,2,20.541s12.981-3.887,28.999-3.887
	C47.012,16.654,60,18.395,60,20.541z"/>
<path fill="#4E5E67" d="M50.517,17.08c0,4.111-39.033,4.111-39.033,0c0-22.012,8.738-13.436,19.516-13.436
	S50.517-4.932,50.517,17.08z"/>
<path opacity="0.4" fill="#302C3B" d="M30.999,5.061c-5.41,0-14.776-3.377-11.616-0.627c4.155,3.607,19.227,3.477,23.228,0
	C45.779,1.684,36.409,5.061,30.999,5.061z"/>
<path fill="#302C3B" d="M11.483,15.324v3.889c7.627,2.561,31.405,2.561,39.033,0v-3.889C42.896,17.887,19.101,17.887,11.483,15.324z
	"/>
</svg>
