<?xml version="1.0" encoding="utf-8"?>
<!-- Generator: Adobe Illustrator 15.0.0, SVG Export Plug-In . SVG Version: 6.00 Build 0)  -->
<!DOCTYPE svg PUBLIC "-//W3C//DTD SVG 1.1//EN" "http://www.w3.org/Graphics/SVG/1.1/DTD/svg11.dtd" [
	<!ENTITY ns_flows "http://ns.adobe.com/Flows/1.0/">
	<!ENTITY ns_extend "http://ns.adobe.com/Extensibility/1.0/">
	<!ENTITY ns_ai "http://ns.adobe.com/AdobeIllustrator/10.0/">
	<!ENTITY ns_graphs "http://ns.adobe.com/Graphs/1.0/">
]>
<svg version="1.1" id="Layer_1" xmlns:x="&ns_extend;" xmlns:i="&ns_ai;" xmlns:graph="&ns_graphs;"
	 xmlns="http://www.w3.org/2000/svg" xmlns:xlink="http://www.w3.org/1999/xlink" xmlns:a="http://ns.adobe.com/AdobeSVGViewerExtensions/3.0/"
	 x="0px" y="0px" width="64px" height="64px" viewBox="0 0 64 64" enable-background="new 0 0 64 64" xml:space="preserve">
<radialGradient id="SVGID_1_" cx="24.3774" cy="59.7549" r="9.5976" gradientTransform="matrix(1.027 0 0 0.2172 6.9635 46.7737)" gradientUnits="userSpaceOnUse">
	<stop  offset="0.1091" style="stop-color:#81878A"/>
	<stop  offset="0.2795" style="stop-color:#898F92;stop-opacity:0.8087"/>
	<stop  offset="0.5503" style="stop-color:#9EA6A9;stop-opacity:0.5048"/>
	<stop  offset="0.8857" style="stop-color:#C1CACF;stop-opacity:0.1283"/>
	<stop  offset="1" style="stop-color:#CFD8DD;stop-opacity:0"/>
	<a:midPointStop  offset="0.1091" style="stop-color:#81878A"/>
	<a:midPointStop  offset="0.6061" style="stop-color:#81878A"/>
	<a:midPointStop  offset="1" style="stop-color:#CFD8DD;stop-opacity:0"/>
</radialGradient>
<path fill="url(#SVGID_1_)" d="M31.999,62c-13.332,0-13.332-4.49,0-4.49C45.333,57.51,45.333,62,31.999,62z"/>
<path fill="#302C3B" d="M32.437,48.992h-3.814v2.85l0,0c0.01,3.588,3.826,3.586,3.814,0V48.992z"/>
<path fill="#FFFFFF" d="M32.06,48.992h-3.063v2.094l0,0c0.006,1.694,3.066,1.693,3.063,0V48.992z"/>
<path fill="#302C3B" d="M35.603,49.585h-3.816v2.852l0,0c0.012,3.589,3.826,3.587,3.816,0V49.585z"/>
<path fill="#FFFFFF" d="M35.226,49.585h-3.061v2.096l0,0c0.002,1.695,3.064,1.693,3.061,0V49.585z"/>
<path fill="#E3C19B" d="M37.786,35.399c1.451-1.436,0.322,2.744,1.67,1.411c1.254-1.241,0.189-3.356,0.189-3.356l-2.137-0.378
	C37.509,33.076,36.587,36.587,37.786,35.399z"/>
<path fill="#E3C19B" d="M26.208,35.399c-1.451-1.438-0.322,2.743-1.668,1.41c-1.256-1.241-0.189-3.355-0.189-3.355l2.137-0.379
	C26.487,33.075,27.407,36.586,26.208,35.399z"/>
<path fill="#302C3B" d="M39.114,19.149c-0.859-0.562-4.828-2.034-4.828-2.034h-4.549c0,0-3.973,1.477-4.834,2.035
	c-1.252,0.811-0.977,14.699-0.977,14.699l2.512,0.183c0.898,7.906,1.773,16.736,1.773,16.736l7.572,0.001
	c0,0,0.873-8.831,1.773-16.737l2.51-0.183C40.067,33.849,40.358,19.962,39.114,19.149z"/>
<polygon fill="#1A1626" points="32.521,37.57 31.997,50.769 31.476,37.57 "/>
<polygon fill="#1A1626" points="37.907,24.566 37.558,33.526 37.208,24.566 "/>
<polygon fill="#1A1626" points="26.786,24.666 26.438,33.626 26.089,24.666 "/>
<rect x="26.438" y="32.512" fill="#1A1626" width="11.119" height="1.114"/>
<rect x="29.411" y="16.68" fill="#BF8C6B" width="5.174" height="2.698"/>
<path fill="#E6EBEF" d="M34.104,23.98c0.629-1.508,0.643-7.113,0.643-7.113c-0.92,1.658-2.648,2.414-2.75,2.457
	c-0.102-0.043-1.828-0.799-2.75-2.457c0,0,0.016,5.605,0.645,7.113l2.113,4.147L34.104,23.98z"/>
<polygon fill="#302C3B" points="33.415,25.64 32.663,21.369 33.015,20.638 31.997,19.424 30.979,20.638 31.333,21.369 30.579,25.64 
	31.995,28.127 "/>
<path fill="#FFFFFF" d="M31.997,19.324c-0.102-0.043-1.828-0.799-2.75-2.457c0,0,0.006,1.412,0.117,2.924
	c0.342,0.563,0.91,1.439,1.131,1.439c0.324,0,1.502-1.732,1.502-1.732s1.168,1.732,1.523,1.732c0.254,0,0.789-0.844,1.109-1.418
	c0.113-1.521,0.117-2.945,0.117-2.945C33.827,18.525,32.099,19.281,31.997,19.324"/>
<path fill="#4E5E67" d="M27.331,20.382l1.643-0.564l-1.84-1.489c0,0,1.148-1.12,2.277-1.456v2.945c0,0,1.689,6.501,2.584,8.31
	C31.995,28.127,27.981,22.071,27.331,20.382z"/>
<path fill="#4E5E67" d="M36.663,20.382l-1.641-0.564l1.838-1.489c0,0-1.148-1.12-2.275-1.456v2.945c0,0-1.695,6.501-2.59,8.31
	C31.995,28.127,36.013,22.071,36.663,20.382z"/>
<path fill="#D6A67A" d="M26.356,9.274c-1.889-0.378-0.414,5.494,1.063,3.874C28.104,12.398,27.237,9.452,26.356,9.274z"/>
<path fill="#D6A67A" d="M37.644,9.274c-0.883,0.178-1.748,3.124-1.063,3.874C38.058,14.768,39.53,8.896,37.644,9.274z"/>
<path fill="#E3C19B" d="M32.001,2.995c-3.904,0-5.785,2.996-5.549,7.16c0.047,0.84,0.559,3.573,1.043,4.552
	c0.494,1.003,2.148,2.551,3.164,2.87c0.641,0.203,2.041,0.203,2.682,0c1.014-0.319,2.67-1.867,3.164-2.87
	c0.484-0.979,0.996-3.712,1.041-4.552C37.784,5.991,35.901,2.995,32.001,2.995z"/>
<path fill="#BF8C6B" d="M32.001,14.333c-0.879-0.261-2.18,0.126-2.18,0.126c0.496,0.547,0.857,1.257,2.18,1.257
	c1.512,0,1.768-0.807,2.178-1.257C34.179,14.458,32.876,14.072,32.001,14.333z"/>
<path fill="#FFFFFF" d="M30.153,14.551c0.92,0.783,2.779,0.788,3.703,0C32.876,14.593,31.142,14.594,30.153,14.551z"/>
<path fill="#BF8C6B" d="M33.21,12.86c0,0.801-2.422,0.801-2.422,0C30.788,12.677,33.21,12.677,33.21,12.86z"/>
<path fill="#302C3B" d="M32.782,9.496c-0.447,0.229-1.119,0.229-1.566,0c-0.48-0.249-1.064-0.41-1.764-0.474
	c-0.682-0.062-2.131-0.059-2.854,0.201c-0.086,0.03-0.166,0.069-0.246,0.109C26.308,9.355,26.3,9.374,26.3,9.458v0.107
	c0,0.209-0.025,0.127,0.119,0.213c0.281,0.169,0.439,0.605,0.527,1.206c0.121,0.874,0.541,1.423,1.227,1.686
	c0.633,0.241,1.342,0.233,1.973-0.023c0.344-0.14,0.646-0.362,0.887-0.722c0.42-0.631,0.295-1.025,0.512-1.567
	c0.189-0.473,0.721-0.473,0.91,0c0.217,0.542,0.094,0.937,0.514,1.567c0.238,0.359,0.541,0.582,0.887,0.722
	c0.627,0.257,1.336,0.265,1.973,0.023c0.684-0.263,1.104-0.812,1.225-1.686c0.086-0.601,0.246-1.037,0.529-1.206
	c0.143-0.086,0.117-0.004,0.117-0.213V9.458c0-0.085-0.008-0.104-0.051-0.126c-0.08-0.04-0.162-0.079-0.246-0.109
	c-0.725-0.26-2.172-0.263-2.855-0.201C33.847,9.085,33.261,9.247,32.782,9.496"/>
<linearGradient id="SVGID_2_" gradientUnits="userSpaceOnUse" x1="34.8105" y1="12.3516" x2="34.8105" y2="9.4536">
	<stop  offset="0" style="stop-color:#4E5E67"/>
	<stop  offset="0.2345" style="stop-color:#50606A"/>
	<stop  offset="0.381" style="stop-color:#576872"/>
	<stop  offset="0.5033" style="stop-color:#647681"/>
	<stop  offset="0.6124" style="stop-color:#758A95"/>
	<stop  offset="0.7126" style="stop-color:#8CA3B0"/>
	<stop  offset="0.8063" style="stop-color:#A7C2D1"/>
	<stop  offset="0.8934" style="stop-color:#C7E6F7"/>
	<stop  offset="0.9091" style="stop-color:#CEEDFF"/>
	<a:midPointStop  offset="0" style="stop-color:#4E5E67"/>
	<a:midPointStop  offset="0.7939" style="stop-color:#4E5E67"/>
	<a:midPointStop  offset="0.9091" style="stop-color:#CEEDFF"/>
</linearGradient>
<path opacity="0.3" fill="url(#SVGID_2_)" d="M33.081,9.879c-0.271,0.242-0.023,1.985,0.803,2.309
	c0.516,0.201,1.531,0.323,2.232-0.293c0.574-0.505,0.697-2.031,0.289-2.27C35.958,9.365,33.663,9.365,33.081,9.879z"/>
<linearGradient id="SVGID_3_" gradientUnits="userSpaceOnUse" x1="29.2231" y1="12.3521" x2="29.2231" y2="9.4541">
	<stop  offset="0" style="stop-color:#4E5E67"/>
	<stop  offset="0.2345" style="stop-color:#50606A"/>
	<stop  offset="0.381" style="stop-color:#576872"/>
	<stop  offset="0.5033" style="stop-color:#647681"/>
	<stop  offset="0.6124" style="stop-color:#758A95"/>
	<stop  offset="0.7126" style="stop-color:#8CA3B0"/>
	<stop  offset="0.8063" style="stop-color:#A7C2D1"/>
	<stop  offset="0.8934" style="stop-color:#C7E6F7"/>
	<stop  offset="0.9091" style="stop-color:#CEEDFF"/>
	<a:midPointStop  offset="0" style="stop-color:#4E5E67"/>
	<a:midPointStop  offset="0.7939" style="stop-color:#4E5E67"/>
	<a:midPointStop  offset="0.9091" style="stop-color:#CEEDFF"/>
</linearGradient>
<path opacity="0.3" fill="url(#SVGID_3_)" d="M30.952,9.881c0.271,0.24,0.023,1.984-0.803,2.307
	c-0.516,0.202-1.529,0.324-2.23-0.293c-0.574-0.503-0.699-2.031-0.291-2.269C28.077,9.365,30.37,9.365,30.952,9.881z"/>
<path fill="#4E5E67" d="M40.841,7.054c0,1.828-3.957,2.783-8.84,2.783c-4.885,0-8.842-0.955-8.842-2.783
	c0-0.87,3.957,0.414,8.842,0.414C36.882,7.468,40.841,6.184,40.841,7.054z"/>
<path fill="#4E5E67" d="M37.315,6.823c0,1.313-10.631,1.313-10.631,0c0-7.038,2.379-4.297,5.316-4.297
	C34.935,2.526,37.315-0.215,37.315,6.823z"/>
<path opacity="0.4" fill="#302C3B" d="M32.001,2.978c-1.475,0-4.027-1.078-3.166-0.2c1.133,1.154,5.238,1.11,6.328,0
	C36.024,1.9,33.474,2.978,32.001,2.978z"/>
<path fill="#302C3B" d="M26.685,6.26v1.244c2.076,0.818,8.553,0.818,10.631,0V6.26C35.241,7.081,28.759,7.081,26.685,6.26z"/>
</svg>
