<?xml version="1.0" encoding="utf-8"?>
<!-- Generator: Adobe Illustrator 15.0.0, SVG Export Plug-In . SVG Version: 6.00 Build 0)  -->
<!DOCTYPE svg PUBLIC "-//W3C//DTD SVG 1.1//EN" "http://www.w3.org/Graphics/SVG/1.1/DTD/svg11.dtd" [
	<!ENTITY ns_flows "http://ns.adobe.com/Flows/1.0/">
	<!ENTITY ns_extend "http://ns.adobe.com/Extensibility/1.0/">
	<!ENTITY ns_ai "http://ns.adobe.com/AdobeIllustrator/10.0/">
	<!ENTITY ns_graphs "http://ns.adobe.com/Graphs/1.0/">
]>
<svg version="1.1" id="Layer_1" xmlns:x="&ns_extend;" xmlns:i="&ns_ai;" xmlns:graph="&ns_graphs;"
	 xmlns="http://www.w3.org/2000/svg" xmlns:xlink="http://www.w3.org/1999/xlink" xmlns:a="http://ns.adobe.com/AdobeSVGViewerExtensions/3.0/"
	 x="0px" y="0px" width="64px" height="64px" viewBox="0 0 64 64" enable-background="new 0 0 64 64" xml:space="preserve">
<path fill="#302C3B" d="M52.2,52.658c-2.697-1.375-13.905-5.018-13.905-5.018h-16.69c0,0-11.196,3.633-13.884,5.016
	C3.821,54.66,3,62,3,62h53.989C56.989,62,56.116,54.654,52.2,52.658z"/>
<rect x="21.155" y="43.734" fill="#E6B045" width="17.689" height="9.078"/>
<polygon fill="#FFFFFF" points="30.007,50.777 20.587,46.785 23.344,62 36.672,62 39.428,46.785 "/>
<polygon fill="#E6EBEF" points="30.007,50.777 21.67,54.158 23.344,62 36.672,62 38.347,54.158 "/>
<polygon fill="#302C3B" points="34.714,62 32.215,54.479 33.382,52.145 30.007,50.777 26.633,52.145 27.802,54.479 25.3,62 "/>
<path fill="#4E5E67" d="M18.059,62c0,0-3.557-3.262-6.81-9.578l8.224-2.109l-9.215-5.58c0,0,5.753-4.186,11.412-5.443v11.023
	c0,0,0.897,4.924,5.381,11.688H18.059z"/>
<path fill="#4E5E67" d="M41.959,62c0,0,3.554-3.262,6.811-9.578l-8.227-2.109l9.215-5.58c0,0-5.753-4.186-11.411-5.443v11.023
	c0,0-0.896,4.924-5.379,11.688H41.959z"/>
<path fill="#E6B045" d="M13.675,24.33c-5.457-0.984-1.195,14.277,3.076,10.068C18.732,32.448,16.227,24.792,13.675,24.33z"/>
<path fill="#E6B045" d="M46.314,24.33c-2.553,0.462-5.058,8.118-3.077,10.068C47.511,38.607,51.769,23.346,46.314,24.33z"/>
<path fill="#FFCC66" d="M29.994,6.435c-11.283,0-16.721,8.539-16.039,20.411c0.137,2.39,1.615,10.182,3.014,12.977
	c1.431,2.857,6.215,7.268,9.146,8.18c1.853,0.576,5.906,0.576,7.757,0c2.932-0.912,7.717-5.322,9.147-8.18
	c1.399-2.795,2.878-10.587,3.014-12.977C46.716,14.974,41.279,6.435,29.994,6.435z"/>
<path fill="#E6A400" d="M29.994,38.758c-2.538-0.748-6.298,0.354-6.298,0.354c1.432,1.559,2.481,3.584,6.298,3.584
	c4.374,0,5.116-2.297,6.298-3.584C36.292,39.111,32.53,38.006,29.994,38.758z"/>
<path fill="#FFFFFF" d="M24.656,39.375c2.66,2.232,8.035,2.246,10.708,0C32.53,39.496,27.512,39.498,24.656,39.375z"/>
<path fill="#E6B045" d="M33.493,34.559c0,2.279-6.998,2.279-6.998,0C26.496,34.037,33.493,34.037,33.493,34.559z"/>
<path fill="#FFFFFF" d="M44.139,27.813c-1.979,5.182-10.029,4.422-11.504,0.797C33.753,22.785,43.051,22.285,44.139,27.813z"/>
<path fill="#FFFFFF" d="M17.912,27.765c1.507,3.949,7.644,3.37,8.767,0.606C25.825,23.932,18.743,23.552,17.912,27.765z"/>
<path fill="#613F34" d="M34.688,27.262c0,4.547,6.576,4.547,6.576,0C41.264,23.041,34.688,23.041,34.688,27.262z"/>
<path fill="#7D5037" d="M35.339,28.717c0,2.607,5.275,2.607,5.275,0C40.614,26.296,35.339,26.296,35.339,28.717z"/>
<path fill="#1A1626" d="M36.611,27.332c0,1.889,2.729,1.889,2.729,0C39.341,25.582,36.611,25.582,36.611,27.332z"/>
<path fill="#AB968C" d="M35.68,26.782c0,0.953,1.379,0.953,1.379,0C37.059,25.898,35.68,25.898,35.68,26.782z"/>
<path fill="#613F34" d="M20.103,27.344c0,3.465,5.011,3.465,5.011,0C25.114,24.128,20.103,24.128,20.103,27.344z"/>
<path fill="#7D5037" d="M20.599,28.451c0,1.987,4.019,1.987,4.019,0C24.618,26.607,20.599,26.607,20.599,28.451z"/>
<path fill="#1A1626" d="M21.569,27.398c0,1.438,2.08,1.438,2.08,0C23.649,26.063,21.569,26.063,21.569,27.398z"/>
<path fill="#AB968C" d="M20.859,26.979c0,0.727,1.05,0.727,1.05,0C21.909,26.304,20.859,26.304,20.859,26.979z"/>
<path fill="#E6B045" d="M44.139,27.775c0-5.564-11.504-5.564-11.504,0.881C34.277,23.369,42.496,23.369,44.139,27.775z"/>
<path fill="#E6B045" d="M17.912,27.735c0-4.239,8.767-4.239,8.767,0.67C25.427,24.375,19.165,24.375,17.912,27.735z"/>
<path fill="#453631" d="M15.071,23.406H13.04c0.295,2.279,0.743,4.568,1.345,6.654C14.729,27.501,13.985,26.391,15.071,23.406z"/>
<path fill="#453631" d="M44.924,23.406c0.985,2.572,0.338,4.104,0.685,6.654c0.675-2.51,1.091-4.713,1.3-6.654H44.924z"/>
<path fill="#302C3B" d="M59.071,49.967C60.636,54.281,60.602,62,60.602,62h-9.237c0,0-1.176-10.43,0.479-11.223
	C55.188,49.176,58.838,49.322,59.071,49.967z"/>
<path fill="#E6B045" d="M46.09,39.844c-0.872-1.279,2.57-2.223,3.139,0.021c0.229,0.908,9.632,0.67,10.382,2.01
	c1.352,2.412-1.748,7.168-1.294,8.146c0.453,0.979-6.323,2.516-6.19,1.285c0.435-4.033-1.585-2.51-2.45-5.9
	C49.024,42.855,47.257,41.555,46.09,39.844z"/>
<linearGradient id="SVGID_1_" gradientUnits="userSpaceOnUse" x1="40.5381" y1="38.0547" x2="40.5381" y2="18.9443">
	<stop  offset="0" style="stop-color:#FFFFFF;stop-opacity:0"/>
	<stop  offset="1" style="stop-color:#FFFFFF"/>
	<a:midPointStop  offset="0" style="stop-color:#FFFFFF;stop-opacity:0"/>
	<a:midPointStop  offset="0.5" style="stop-color:#FFFFFF;stop-opacity:0"/>
	<a:midPointStop  offset="1" style="stop-color:#FFFFFF"/>
</linearGradient>
<circle opacity="0.65" fill="url(#SVGID_1_)" cx="40.54" cy="28.499" r="9.553"/>
<rect x="47.341" y="35.187" transform="matrix(-0.7075 0.7067 -0.7067 -0.7075 109.8569 28.5178)" fill="#BEC3CF" width="3.372" height="3.609"/>
<path fill="#BEC3CF" d="M48.044,36.006c4.147-4.146,4.146-10.865,0.002-15.016c-4.147-4.145-10.869-4.146-15.015,0
	c-4.145,4.146-4.145,10.874,0,15.018C37.177,40.154,43.9,40.154,48.044,36.006z M34.367,34.67c-3.41-3.404-3.408-8.938,0.002-12.344
	c3.407-3.41,8.932-3.408,12.339,0c3.411,3.408,3.411,8.938,0,12.346C43.301,38.08,37.774,38.08,34.367,34.67z"/>
<rect x="52.157" y="36.244" transform="matrix(-0.7072 0.707 -0.707 -0.7072 122.8403 33.8711)" fill="#302C3B" width="4.5" height="12.254"/>
<path fill="#BEC3CF" d="M56.847,48.92c0.521,0.521,4.632-3.584,4.106-4.111l-0.32-0.318c-0.525-0.525-4.634,3.582-4.108,4.105
	L56.847,48.92z"/>
<path fill="#FFCC66" d="M53.954,37.025c1.794-0.781,2.447,0.791,2.471,1.395c1.646-0.133,2.456,1.199,2.461,1.711
	c3.466,1.652-3.807,9.586-2.83,4.857c-2.443,2.174-2.428-0.504-1.674-2.229c-2.367,3.924-3.206,0.949-1.469-2.361
	C49.611,45.732,49.439,32.495,53.954,37.025z"/>
<path opacity="0.2" d="M49.861,23.418c0,0,0.229,0.443,0.443,0.916c-4.946,0.955-12.206,1.623-20.298,1.623
	c-6.877,0-11.984-0.293-16.751-1.023c-0.07-0.381-0.156-1.041-0.156-1.041L49.861,23.418z"/>
<path fill="#4E5E67" d="M57.001,20.541c0,2.146-12.088,4.416-26.995,4.416c-14.909,0-26.994-2.27-26.994-4.416
	s12.085-3.887,26.994-3.887C44.913,16.654,57.001,18.395,57.001,20.541z"/>
<path fill="#4E5E67" d="M47.485,17.08c0,4.111-34.958,4.111-34.958,0c0-22.012,7.825-13.436,17.479-13.436
	C39.658,3.645,47.485-4.932,47.485,17.08z"/>
<path opacity="0.4" fill="#302C3B" d="M30.006,5.061c-4.845,0-13.234-3.377-10.401-0.627c3.72,3.607,17.216,3.477,20.801,0
	C43.242,1.684,34.851,5.061,30.006,5.061z"/>
<path fill="#302C3B" d="M12.528,15.324v3.889c6.83,2.561,28.126,2.561,34.958,0v-3.889C40.662,17.887,19.349,17.887,12.528,15.324z"
	/>
</svg>
