<?xml version="1.0" encoding="utf-8"?>
<!-- Generator: Adobe Illustrator 15.0.0, SVG Export Plug-In . SVG Version: 6.00 Build 0)  -->
<!DOCTYPE svg PUBLIC "-//W3C//DTD SVG 1.1//EN" "http://www.w3.org/Graphics/SVG/1.1/DTD/svg11.dtd" [
	<!ENTITY ns_flows "http://ns.adobe.com/Flows/1.0/">
	<!ENTITY ns_extend "http://ns.adobe.com/Extensibility/1.0/">
	<!ENTITY ns_ai "http://ns.adobe.com/AdobeIllustrator/10.0/">
	<!ENTITY ns_graphs "http://ns.adobe.com/Graphs/1.0/">
]>
<svg version="1.1" id="Layer_1" xmlns:x="&ns_extend;" xmlns:i="&ns_ai;" xmlns:graph="&ns_graphs;"
	 xmlns="http://www.w3.org/2000/svg" xmlns:xlink="http://www.w3.org/1999/xlink" xmlns:a="http://ns.adobe.com/AdobeSVGViewerExtensions/3.0/"
	 x="0px" y="0px" width="64px" height="64px" viewBox="0 0 64 64" enable-background="new 0 0 64 64" xml:space="preserve">
<radialGradient id="SVGID_1_" cx="29.8887" cy="30.2134" r="42.1384" gradientTransform="matrix(-4.384689e-008 1.0447 -0.779 -3.546208e-008 52.1139 -10.4697)" gradientUnits="userSpaceOnUse">
	<stop  offset="0.4364" style="stop-color:#FFCC66"/>
	<stop  offset="0.6859" style="stop-color:#FECB64"/>
	<stop  offset="0.7967" style="stop-color:#FAC65D"/>
	<stop  offset="0.88" style="stop-color:#F4BD50"/>
	<stop  offset="0.903" style="stop-color:#F2BA4B"/>
	<a:midPointStop  offset="0.4364" style="stop-color:#FFCC66"/>
	<a:midPointStop  offset="0.844" style="stop-color:#FFCC66"/>
	<a:midPointStop  offset="0.903" style="stop-color:#F2BA4B"/>
</radialGradient>
<path fill="url(#SVGID_1_)" d="M52.711,31.238c-7.864,0.17-8.557,8.044-10.846,6.153c-0.471-0.392-0.65-2.309-0.402-3.168
	c1.91-6.613,4.647-18.057,5.354-20.808c1.5-5.822-6.362-8.014-7.859-2.191c-0.242,0.94,0.434-1.685,0.729-2.834
	c1.499-5.822-6.362-8.015-7.86-2.191c-0.855,3.333-4.597,17.867-6.388,24.831c-0.223,0.012-0.441,0.025-0.662,0.041
	c-1.274-7.536-3.354-19.821-3.821-22.57c-1.004-5.937-9-4.467-7.996,1.47c0.176,1.039,0.528,3.125,0.968,5.711
	c-0.897-5.262-7.996-3.957-7.102,1.311c0.457,2.705,2.072,12.186,3.054,18.054c0.402,2.393-0.064,7.285-0.186,9.709
	c-0.477,9.583,5.034,16.467,15.89,16.482c23.727,0.032,17.047-17.187,30.974-25.88C58.284,34.28,56.634,31.158,52.711,31.238z"/>
<path fill="#D9A640" d="M41.648,36.595c-4.011,0.171-10.265,7.078-9.945,14.758c0.49-6.952,7.395-13.239,11.253-13.193
	L41.648,36.595z"/>
<path fill="#D9A640" d="M52.695,30.482c-7.538,0.083-9.356,7.392-10.318,6.36c-0.335-0.358-0.53-1.165-0.193-2.409
	c1.405-5.204,5.19-20.165,5.36-20.826c1.258-4.888-3.394-8.03-6.962-5.925c0.668-6.122-7.767-8.2-9.482-1.673l-5.913,22.987
	c-1.277-7.542-3.063-18.1-3.491-20.622c-1.214-7.18-10.736-5.021-9.477,1.724l0.357,2.1c-2.994-1.842-7.231,0.556-6.491,4.922
	c0,0,2.328,13.701,3.056,18.052c0.303,1.807-0.17,9.036-0.194,9.546C8.378,56.122,15.239,61.977,25.582,62
	c24.175,0.055,17.857-17.565,31.373-26.002C59.37,34.489,57.455,30.43,52.695,30.482z M56.163,34.716
	c-14.314,8.934-7.369,25.81-30.579,25.775c-9.965-0.015-15.623-5.969-15.141-15.699c0.023-0.501,0.508-7.891,0.176-9.872
	c-0.729-4.351-3.056-18.054-3.056-18.054c-0.716-4.251,4.888-5.401,5.624-1.057l2.921,17.265l1.479-0.254L13.697,9.843
	c-0.845-4.901,5.683-6.159,6.521-1.214c0.467,2.749,3.935,23.239,3.935,23.239l1.877-0.116l6.524-25.364
	c1.261-4.896,7.638-2.958,6.407,1.814l-5.981,23.251l1.45,0.38l5.256-20.42c1.264-4.925,7.644-2.986,6.408,1.814
	c-0.172,0.665-3.905,15.781-5.349,20.785c-0.439,1.52-0.355,3.135,0.645,3.964c3.284,2.723,3.702-5.901,11.338-5.982
	C55.916,31.959,57.139,34.109,56.163,34.716z"/>
</svg>
