<?xml version="1.0" encoding="utf-8"?>
<!-- Generator: Adobe Illustrator 19.0.0, SVG Export Plug-In . SVG Version: 6.00 Build 0)  -->
<svg version="1.1" id="Layer_1" xmlns="http://www.w3.org/2000/svg" xmlns:xlink="http://www.w3.org/1999/xlink" x="0px" y="0px"
	 width="64px" height="64px" viewBox="0 0 64 64" enable-background="new 0 0 64 64" xml:space="preserve">
<radialGradient id="SVGID_1_" cx="29.8876" cy="29.9417" r="42.1374" gradientTransform="matrix(4.503577e-011 1.0447 -0.779 3.642481e-011 51.9021 -10.4715)" gradientUnits="userSpaceOnUse">
	<stop  offset="0.4364" style="stop-color:#E3C19B"/>
	<stop  offset="0.7294" style="stop-color:#E3BF99"/>
	<stop  offset="0.8595" style="stop-color:#E3BA92"/>
	<stop  offset="0.903" style="stop-color:#E3B68D"/>
</radialGradient>
<path fill="url(#SVGID_1_)" d="M52.712,31.238c-7.865,0.17-8.557,8.043-10.846,6.152c-0.471-0.391-0.65-2.309-0.402-3.168
	c1.91-6.613,4.646-18.057,5.354-20.807c1.5-5.822-6.361-8.014-7.859-2.191c-0.242,0.939,0.434-1.686,0.728-2.834
	c1.5-5.822-6.361-8.016-7.859-2.191c-0.855,3.332-4.598,17.867-6.389,24.83c-0.223,0.012-0.441,0.025-0.662,0.041
	c-1.273-7.535-3.354-19.82-3.82-22.57c-1.004-5.936-9-4.467-7.996,1.471c0.176,1.039,0.527,3.125,0.967,5.711
	c-0.896-5.262-7.996-3.957-7.102,1.311c0.457,2.705,2.072,12.186,3.055,18.053c0.402,2.393-0.064,7.285-0.186,9.709
	c-0.477,9.584,5.033,16.467,15.889,16.482c23.728,0.033,17.049-17.186,30.975-25.879C58.284,34.279,56.634,31.158,52.712,31.238z"/>
<path fill="#CF9E70" d="M41.65,36.594c-4.012,0.172-10.266,7.078-9.945,14.758c0.49-6.951,7.395-13.238,11.254-13.193L41.65,36.594z
	"/>
<path fill="#CF9E70" d="M52.697,30.482c-7.539,0.082-9.357,7.391-10.318,6.359c-0.336-0.357-0.531-1.164-0.193-2.408
	c1.404-5.205,5.189-20.166,5.359-20.826c1.258-4.889-3.393-8.031-6.961-5.926c0.668-6.121-7.768-8.199-9.482-1.672l-5.914,22.986
	c-1.277-7.541-3.063-18.1-3.49-20.621c-1.215-7.18-10.736-5.022-9.477,1.723l0.357,2.1c-2.994-1.842-7.232,0.557-6.492,4.922
	c0,0,2.328,13.701,3.057,18.053c0.303,1.807-0.17,9.035-0.195,9.545C8.378,56.121,15.239,61.976,25.581,62
	c24.176,0.055,17.858-17.566,31.373-26.002C59.37,34.488,57.456,30.43,52.697,30.482z M56.163,34.715
	c-14.314,8.934-7.369,25.811-30.578,25.775c-9.965-0.014-15.623-5.969-15.141-15.699c0.023-0.5,0.508-7.891,0.176-9.871
	c-0.728-4.352-3.057-18.055-3.057-18.055c-0.715-4.25,4.889-5.4,5.625-1.057l2.92,17.266l1.479-0.254L13.697,9.842
	c-0.844-4.9,5.684-6.158,6.521-1.213c0.467,2.748,3.934,23.238,3.934,23.238l1.877-0.115l6.525-25.365
	c1.262-4.894,7.639-2.957,6.406,1.814l-5.98,23.252l1.449,0.379l5.256-20.42c1.264-4.924,7.645-2.986,6.408,1.814
	c-0.172,0.666-3.904,15.781-5.348,20.785c-0.439,1.52-0.355,3.135,0.645,3.965c3.283,2.723,3.701-5.902,11.338-5.982
	C55.917,31.959,57.14,34.109,56.163,34.715z"/>
</svg>
