<?xml version="1.0" encoding="utf-8"?>
<!-- Generator: Adobe Illustrator 15.0.0, SVG Export Plug-In . SVG Version: 6.00 Build 0)  -->
<!DOCTYPE svg PUBLIC "-//W3C//DTD SVG 1.1//EN" "http://www.w3.org/Graphics/SVG/1.1/DTD/svg11.dtd" [
	<!ENTITY ns_flows "http://ns.adobe.com/Flows/1.0/">
	<!ENTITY ns_extend "http://ns.adobe.com/Extensibility/1.0/">
	<!ENTITY ns_ai "http://ns.adobe.com/AdobeIllustrator/10.0/">
	<!ENTITY ns_graphs "http://ns.adobe.com/Graphs/1.0/">
]>
<svg version="1.1" id="Layer_1" xmlns:x="&ns_extend;" xmlns:i="&ns_ai;" xmlns:graph="&ns_graphs;"
	 xmlns="http://www.w3.org/2000/svg" xmlns:xlink="http://www.w3.org/1999/xlink" xmlns:a="http://ns.adobe.com/AdobeSVGViewerExtensions/3.0/"
	 x="0px" y="0px" width="64px" height="64px" viewBox="0 0 64 64" enable-background="new 0 0 64 64" xml:space="preserve">
<radialGradient id="SVGID_1_" cx="23.7065" cy="19.9956" r="44.4631" gradientTransform="matrix(-4.332356e-008 0.9891 -0.7697 -3.357649e-008 43.8466 -2.7089)" gradientUnits="userSpaceOnUse">
	<stop  offset="0.4364" style="stop-color:#FFCC66"/>
	<stop  offset="0.6859" style="stop-color:#FECB64"/>
	<stop  offset="0.7967" style="stop-color:#FAC65D"/>
	<stop  offset="0.88" style="stop-color:#F4BD50"/>
	<stop  offset="0.903" style="stop-color:#F2BA4B"/>
	<a:midPointStop  offset="0.4364" style="stop-color:#FFCC66"/>
	<a:midPointStop  offset="0.844" style="stop-color:#FFCC66"/>
	<a:midPointStop  offset="0.903" style="stop-color:#F2BA4B"/>
</radialGradient>
<path fill="url(#SVGID_1_)" d="M53.75,31.787c-7.796,0.166-8.472,7.906-10.736,6.044c-0.467-0.383-0.644-2.267-0.397-3.11
	c1.768-6.067,4.486-17.275,5.307-20.437c1.486-5.721-6.307-7.874-7.791-2.154c-0.074,0.284-4.838,21.306-5.171,21.222
	c-0.319-0.082-0.554-23.918-0.693-26.198c-0.387-6.304-8.583-5.618-8.053,0.674c0.021,0.253,0.924,25.524,0.379,25.524
	c-0.467,0-4.828-21.11-5.291-23.311c-1.304-6.184-9.313-4.315-7.871,1.836c0.054,0.231,5.447,21.475,4.942,21.475
	c-0.425,0-5.974-13.333-5.974-13.333c-1.733-4.947-8.072-2.792-6.339,2.162c3.678,10.527,5.605,12.047,5.063,22.881
	c-0.475,9.434,5.031,16.174,15.789,16.189c23.52,0.029,16.859-16.88,30.665-25.418C59.289,34.774,57.638,31.706,53.75,31.787z"/>
<path fill="#D9A640" d="M53.75,31.036c-4.953,0.105-7.229,3.028-8.734,4.962c-0.795,1.021-1.195,1.585-1.49,1.288
	c-0.347-0.347-0.523-1.129-0.189-2.355c1.272-4.671,5.101-19.654,5.313-20.458c1.735-6.579-7.404-9.313-9.241-2.531
	c-0.011,0.038-4.021,17.687-4.021,17.687s-0.32-21.684-0.37-22.521c-0.427-7.196-10.049-6.65-9.549,0.77
	c0.055,0.812,0.672,21.454,0.672,21.454L22.036,9.886c-1.428-7.133-11.021-5.032-9.335,2.16c0,0,3.278,13.248,3.972,16.276
	c-1.069-2.449-2.372-5.579-3.564-8.552c-2.201-5.985-9.825-3.11-7.755,2.658c4.128,11.504,5.53,12.452,5.022,22.595
	C9.841,55.634,16.447,61.987,26.914,62c23.971,0,17.63-17.224,31.059-25.529C60.256,35.059,58.682,31.036,53.75,31.036z
	 M57.184,35.196c-14.385,8.895-7.151,25.305-30.27,25.305c-8.971-0.013-15.559-5.088-15.04-15.402
	c0.554-11.095-1.688-13.387-5.104-23.167c-1.384-3.953,3.513-5.726,4.936-1.634c5.248,13.393,6.158,13.798,6.972,13.655
	c1.244-0.216-0.614-6.211-4.515-22.247c-1.271-5.14,5.353-6.733,6.406-1.511c4.82,21.69,4.802,23.964,6.164,23.964
	c0.737,0,1.109-1.406,0.229-26.395c-0.188-5.32,6.315-5.854,6.557-0.565c0.455,9.942-0.283,26.688,1.353,26.891
	c1.325,0.165,1.287-2.635,5.986-21.771c1.246-4.802,7.555-2.9,6.34,1.777c-0.21,0.808-3.988,15.909-5.301,20.415
	c-0.519,1.783-0.07,3.315,0.641,3.9c1.654,1.361,2.992-0.631,3.661-1.49c1.411-1.813,3.313-4.296,7.552-4.385
	C56.907,32.536,58.163,34.59,57.184,35.196z"/>
<path fill="#D9A640" d="M42.8,36.947c-3.976,0.168-10.176,6.95-9.859,14.494c0.485-6.83,7.332-13.003,11.156-12.959L42.8,36.947z"/>
</svg>
