<?xml version="1.0" encoding="utf-8"?>
<!-- Generator: Adobe Illustrator 19.0.0, SVG Export Plug-In . SVG Version: 6.00 Build 0)  -->
<svg version="1.1" id="Layer_1" xmlns="http://www.w3.org/2000/svg" xmlns:xlink="http://www.w3.org/1999/xlink" x="0px" y="0px"
	 width="64px" height="64px" viewBox="0 0 64 64" enable-background="new 0 0 64 64" xml:space="preserve">
<radialGradient id="SVGID_1_" cx="89.7711" cy="19.5464" r="23.8191" gradientTransform="matrix(1.0806 0 0 1.4925 -62.7278 -7.1292)" gradientUnits="userSpaceOnUse">
	<stop  offset="0.4485" style="stop-color:#E3C19B"/>
	<stop  offset="0.7869" style="stop-color:#E3BF99"/>
	<stop  offset="0.9495" style="stop-color:#E3B991"/>
	<stop  offset="1" style="stop-color:#E3B68D"/>
</radialGradient>
<path fill="url(#SVGID_1_)" d="M45.847,27.923c-3.268-4.713-9.234-2.85-9.234-2.85s0-11.26,0-17.359c0-6.606-11.043-6.606-11.043,0
	c0,5.723,0,16.918,0,16.918c-3.186-3.092-9.406-0.369-9.82,3.389c-0.135,1.215-0.223,4.137-0.275,5.238c0,0,0,0-0.002,0
	c-6.396-0.82-7.744,13.719,5.314,19.193c0.971,0.406,1.904,2.197,1.904,5.475c0,4.588,23.963,4.24,23.963,0
	c0-8.35,4.578-5.162,6.393-19.313C54.255,29.191,49.843,26.939,45.847,27.923z"/>
<path fill="#CF9E70" d="M21.945,57.919c0-3.065-0.865-4.539-1.445-4.781c-13.461-5.644-12.351-20.367-5.74-20.664
	c0,0,0.143-3.598,0.248-4.543c0.424-3.863,6-6.732,9.816-4.76V7.708c0-7.611,12.543-7.611,12.543,0v16.42
	c1.912-0.336,6.068-0.541,8.799,2.953c4.318-0.781,8.867,1.965,7.627,11.623c-1.797,14.01-6.387,11.291-6.387,19.215
	C47.406,62.955,21.945,63.751,21.945,57.919z M21.079,51.755c1.48,0.619,2.365,2.775,2.365,6.018c0,3.664,22.463,3.395,22.463,0
	c0-8.498,4.605-5.275,6.399-19.26c1.523-11.877-5.797-10.094-6.779-9.746c0,0-2.617-5.066-9.66-2.686V7.708
	c0-5.635-9.543-5.635-9.543,0v18.689c-3.539-4.828-9.498-1.277-9.826,1.697c-0.098,0.893-0.311,6.004-0.311,6.004
	C10.333,31.908,8.081,46.306,21.079,51.755z"/>
<path fill="#CF9E70" d="M46.767,34.435l-1.484-0.221c0.006-0.035,0.51-3.522-0.162-6.102l1.451-0.379
	C47.322,30.615,46.788,34.281,46.767,34.435z"/>
<rect x="35.863" y="25.074" fill="#CF9E70" width="1.5" height="10.152"/>
<rect x="24.82" y="24.632" fill="#CF9E70" width="1.5" height="11.199"/>
<rect x="14.747" y="32.529" fill="#CF9E70" width="1.5" height="6.311"/>
</svg>
