<?xml version="1.0" encoding="utf-8"?>
<!-- Generator: Adobe Illustrator 15.0.0, SVG Export Plug-In . SVG Version: 6.00 Build 0)  -->
<!DOCTYPE svg PUBLIC "-//W3C//DTD SVG 1.1//EN" "http://www.w3.org/Graphics/SVG/1.1/DTD/svg11.dtd" [
	<!ENTITY ns_flows "http://ns.adobe.com/Flows/1.0/">
	<!ENTITY ns_extend "http://ns.adobe.com/Extensibility/1.0/">
	<!ENTITY ns_ai "http://ns.adobe.com/AdobeIllustrator/10.0/">
	<!ENTITY ns_graphs "http://ns.adobe.com/Graphs/1.0/">
]>
<svg version="1.1" id="Layer_1" xmlns:x="&ns_extend;" xmlns:i="&ns_ai;" xmlns:graph="&ns_graphs;"
	 xmlns="http://www.w3.org/2000/svg" xmlns:xlink="http://www.w3.org/1999/xlink" xmlns:a="http://ns.adobe.com/AdobeSVGViewerExtensions/3.0/"
	 x="0px" y="0px" width="64px" height="64px" viewBox="0 0 64 64" enable-background="new 0 0 64 64" xml:space="preserve">
<radialGradient id="SVGID_1_" cx="89.5352" cy="19.3418" r="23.8182" gradientTransform="matrix(1.0806 0 0 1.4925 -62.4743 -6.8239)" gradientUnits="userSpaceOnUse">
	<stop  offset="0.4485" style="stop-color:#FFCC66"/>
	<stop  offset="0.7332" style="stop-color:#FECB64"/>
	<stop  offset="0.87" style="stop-color:#FAC65C"/>
	<stop  offset="0.9751" style="stop-color:#F4BD4F"/>
	<stop  offset="1" style="stop-color:#F2BA4B"/>
	<a:midPointStop  offset="0.4485" style="stop-color:#FFCC66"/>
	<a:midPointStop  offset="0.8333" style="stop-color:#FFCC66"/>
	<a:midPointStop  offset="1" style="stop-color:#F2BA4B"/>
</radialGradient>
<path fill="url(#SVGID_1_)" d="M45.847,27.923c-3.268-4.712-9.233-2.85-9.233-2.85s0-11.259,0-17.358c0-6.605-11.043-6.605-11.043,0
	c0,5.723,0,16.918,0,16.918c-3.187-3.093-9.407-0.369-9.82,3.388c-0.135,1.216-0.223,4.137-0.275,5.239c-0.001,0-0.001,0-0.002,0
	c-6.396-0.821-7.744,13.719,5.313,19.193c0.971,0.406,1.905,2.197,1.905,5.475c0,4.588,23.962,4.24,23.962,0
	c0-8.35,4.579-5.162,6.393-19.313C54.256,29.19,49.844,26.939,45.847,27.923z"/>
<path fill="#D9A640" d="M21.944,57.92c0-3.064-0.864-4.539-1.445-4.781c-13.46-5.645-12.352-20.368-5.739-20.665
	c0,0,0.143-3.598,0.248-4.543c0.424-3.863,5.999-6.731,9.815-4.76V7.708c0-7.611,12.543-7.611,12.543,0v16.42
	c1.913-0.336,6.069-0.54,8.8,2.953c4.317-0.781,8.867,1.966,7.627,11.624c-1.797,14.01-6.387,11.291-6.387,19.215
	C47.406,62.955,21.944,63.752,21.944,57.92z M21.079,51.756c1.48,0.619,2.365,2.775,2.365,6.018c0,3.664,22.463,3.395,22.463,0
	c0-8.498,4.605-5.275,6.398-19.26c1.523-11.878-5.797-10.095-6.778-9.747c0,0-2.618-5.065-9.66-2.686L35.866,7.708
	c0-5.634-9.543-5.634-9.543,0v18.69c-3.539-4.828-9.497-1.277-9.825,1.696c-0.099,0.894-0.311,6.005-0.311,6.005
	C10.333,31.908,8.082,46.307,21.079,51.756z"/>
<path fill="#D9A640" d="M46.767,34.436l-1.484-0.221c0.006-0.035,0.511-3.522-0.161-6.103l1.45-0.379
	C47.322,30.614,46.788,34.281,46.767,34.436z"/>
<rect x="35.863" y="25.073" fill="#D9A640" width="1.5" height="10.153"/>
<rect x="24.82" y="24.633" fill="#D9A640" width="1.5" height="11.199"/>
<rect x="14.748" y="32.529" fill="#D9A640" width="1.5" height="6.311"/>
</svg>
