<?xml version="1.0" encoding="utf-8"?>
<!-- Generator: Adobe Illustrator 15.0.0, SVG Export Plug-In . SVG Version: 6.00 Build 0)  -->
<!DOCTYPE svg PUBLIC "-//W3C//DTD SVG 1.1//EN" "http://www.w3.org/Graphics/SVG/1.1/DTD/svg11.dtd" [
	<!ENTITY ns_flows "http://ns.adobe.com/Flows/1.0/">
	<!ENTITY ns_extend "http://ns.adobe.com/Extensibility/1.0/">
	<!ENTITY ns_ai "http://ns.adobe.com/AdobeIllustrator/10.0/">
	<!ENTITY ns_graphs "http://ns.adobe.com/Graphs/1.0/">
]>
<svg version="1.1" id="Layer_1" xmlns:x="&ns_extend;" xmlns:i="&ns_ai;" xmlns:graph="&ns_graphs;"
	 xmlns="http://www.w3.org/2000/svg" xmlns:xlink="http://www.w3.org/1999/xlink" xmlns:a="http://ns.adobe.com/AdobeSVGViewerExtensions/3.0/"
	 x="0px" y="0px" width="64px" height="64px" viewBox="0 0 64 64" enable-background="new 0 0 64 64" xml:space="preserve">
<linearGradient id="SVGID_1_" gradientUnits="userSpaceOnUse" x1="32.0005" y1="62" x2="32.0005" y2="2.0005">
	<stop  offset="0.5" style="stop-color:#B12FED"/>
	<stop  offset="1" style="stop-color:#C685FF"/>
	<a:midPointStop  offset="0.5" style="stop-color:#B12FED"/>
	<a:midPointStop  offset="0.5" style="stop-color:#B12FED"/>
	<a:midPointStop  offset="1" style="stop-color:#C685FF"/>
</linearGradient>
<circle fill="url(#SVGID_1_)" cx="32" cy="32" r="30"/>
<path fill="#302C3B" d="M44.055,10.252C45.225,8.267,50.768,9.688,58.393,2c2.313,12.75-2.59,19.338-4.324,19.901
	C46.08,24.5,40.768,15.823,44.055,10.252z"/>
<path fill="#1A1626" d="M58.393,2c0.244,9.622-3.381,14.764-6.506,17.456c-1.484,1.278-4.563,1.349,0-3.609
	c-6.229,5.688-8.541-0.208-7.873-5.52c-3.197,5.573,2.102,14.161,10.055,11.574C55.803,21.338,60.705,14.75,58.393,2z"/>
<path fill="#302C3B" d="M19.947,10.252C18.777,8.267,13.234,9.688,5.609,2c-2.313,12.75,2.59,19.338,4.324,19.901
	C17.922,24.5,23.234,15.823,19.947,10.252z"/>
<path fill="#1A1626" d="M5.609,2c-0.244,9.622,3.381,14.764,6.506,17.456c1.482,1.278,4.563,1.349,0-3.609
	c6.229,5.688,8.541-0.208,7.871-5.52c3.197,5.573-2.1,14.161-10.053,11.574C8.199,21.338,3.297,14.75,5.609,2z"/>
<path fill="#1A1626" d="M40.945,45.264c-5.449,4.66-12.447,4.658-17.894,0c-0.771-0.658-1.232,0.055-0.985,0.613
	c4.183,9.498,15.685,9.496,19.867,0C42.179,45.318,41.72,44.605,40.945,45.264z"/>
<path fill="#FFFFFF" d="M53.364,26.882c1.451,4.437-0.605,9.36-4.943,11.381c-4.332,2.021-9.42,0.438-11.888-3.516l6.47-7.244
	L53.364,26.882z"/>
<path fill="#1A1626" d="M50.026,27.182c1.43,3.06,0.105,6.696-2.953,8.124c-3.061,1.427-6.696,0.103-8.125-2.956
	C38.044,30.406,49.122,25.238,50.026,27.182z"/>
<path fill="#1A1626" d="M53.364,26.883c-1.488-0.971-3.258-1.372-5.055-1.365c-1.801,0.017-3.602,0.439-5.244,1.201
	c-1.637,0.751-3.14,1.858-4.313,3.229c-1.164,1.371-2.029,3.032-2.22,4.8c1.249-1.248,2.445-2.28,3.727-3.178
	c1.275-0.899,2.595-1.649,3.987-2.298c1.385-0.642,2.826-1.168,4.336-1.563C50.099,27.303,51.608,27.054,53.364,26.883z"/>
<path fill="#FFFFFF" d="M10.636,26.882c-1.451,4.437,0.606,9.36,4.944,11.381c4.331,2.021,9.42,0.438,11.888-3.516l-6.47-7.244
	L10.636,26.882z"/>
<path fill="#1A1626" d="M13.974,27.182c-1.429,3.06-0.104,6.696,2.953,8.124c3.062,1.427,6.697,0.103,8.126-2.956
	C25.957,30.406,14.879,25.238,13.974,27.182z"/>
<path fill="#1A1626" d="M10.636,26.883c1.488-0.971,3.259-1.372,5.055-1.365c1.801,0.017,3.603,0.439,5.245,1.201
	c1.637,0.751,3.14,1.858,4.313,3.229c1.164,1.371,2.029,3.032,2.22,4.8c-1.249-1.248-2.445-2.28-3.727-3.178
	c-1.275-0.899-2.595-1.649-3.988-2.298c-1.385-0.642-2.826-1.168-4.336-1.563C13.901,27.303,12.392,27.054,10.636,26.883z"/>
</svg>
