<?xml version="1.0" encoding="utf-8"?>
<!-- Generator: Adobe Illustrator 15.0.0, SVG Export Plug-In . SVG Version: 6.00 Build 0)  -->
<!DOCTYPE svg PUBLIC "-//W3C//DTD SVG 1.1//EN" "http://www.w3.org/Graphics/SVG/1.1/DTD/svg11.dtd" [
	<!ENTITY ns_flows "http://ns.adobe.com/Flows/1.0/">
	<!ENTITY ns_extend "http://ns.adobe.com/Extensibility/1.0/">
	<!ENTITY ns_ai "http://ns.adobe.com/AdobeIllustrator/10.0/">
	<!ENTITY ns_graphs "http://ns.adobe.com/Graphs/1.0/">
]>
<svg version="1.1" id="Layer_1" xmlns:x="&ns_extend;" xmlns:i="&ns_ai;" xmlns:graph="&ns_graphs;"
	 xmlns="http://www.w3.org/2000/svg" xmlns:xlink="http://www.w3.org/1999/xlink" xmlns:a="http://ns.adobe.com/AdobeSVGViewerExtensions/3.0/"
	 x="0px" y="0px" width="64px" height="64px" viewBox="0 0 64 64" enable-background="new 0 0 64 64" xml:space="preserve">
<linearGradient id="Oval_1_" gradientUnits="userSpaceOnUse" x1="-211.915" y1="275.918" x2="-211.915" y2="276.918" gradientTransform="matrix(60 0 0 -60 12746.9063 16617.0625)">
	<stop  offset="0" style="stop-color:#FFA027"/>
	<stop  offset="0.2723" style="stop-color:#FFC151"/>
	<stop  offset="0.7633" style="stop-color:#FFC93F"/>
	<stop  offset="1" style="stop-color:#FFE261"/>
	<a:midPointStop  offset="0" style="stop-color:#FFA027"/>
	<a:midPointStop  offset="0.5" style="stop-color:#FFA027"/>
	<a:midPointStop  offset="0.2723" style="stop-color:#FFC151"/>
	<a:midPointStop  offset="0.5" style="stop-color:#FFC151"/>
	<a:midPointStop  offset="0.7633" style="stop-color:#FFC93F"/>
	<a:midPointStop  offset="0.5" style="stop-color:#FFC93F"/>
	<a:midPointStop  offset="1" style="stop-color:#FFE261"/>
</linearGradient>
<circle id="Oval" fill="url(#Oval_1_)" cx="32" cy="32" r="30"/>
<path id="Shape_10_" fill="#302C3B" d="M26.659,50.002c7.75,2.006,17.272-1.016,21.293-7.303c0.329-0.516-0.183-1.064-0.7-0.654
	c-4.201,3.316-13.118,5.785-19.648,3.875C25.104,45.189,24.018,49.318,26.659,50.002z"/>
<path fill="#302C3B" d="M29.196,29.917c-3.35-3.887-13.57-2.729-17.043,3.106c-0.232,0.391,0.077,0.867,0.61,0.539
	c3.354-2.062,7.571-1.958,7.571-1.958c0.008,2.808,2.227,5.083,4.967,5.083C29.271,36.688,31.161,32.197,29.196,29.917z"/>
<path fill="#302C3B" d="M54.529,29.917c-3.35-3.887-13.57-2.729-17.043,3.106c-0.232,0.391,0.077,0.867,0.61,0.539
	c3.354-2.062,7.571-1.958,7.571-1.958c0.008,2.808,2.227,5.083,4.967,5.083C54.604,36.688,56.494,32.197,54.529,29.917z"/>
<path fill="#917524" d="M57.813,23.807c-3.188-4.168-8.717-7.32-12.318-7.269c-0.76,0.012-1.883,2.519-1.248,2.592
	c4.877,0.558,9.777,2.756,12.965,6.412C57.641,26.033,58.291,24.434,57.813,23.807z"/>
<path fill="#917524" d="M6.189,23.811c3.186-4.172,8.715-7.322,12.314-7.271c0.762,0.01,1.885,2.52,1.248,2.591
	c-4.875,0.56-9.777,2.756-12.965,6.412C6.361,26.036,5.709,24.436,6.189,23.811z"/>
</svg>
