<?xml version="1.0" encoding="utf-8"?>
<!-- Generator: Adobe Illustrator 15.0.0, SVG Export Plug-In . SVG Version: 6.00 Build 0)  -->
<!DOCTYPE svg PUBLIC "-//W3C//DTD SVG 1.1//EN" "http://www.w3.org/Graphics/SVG/1.1/DTD/svg11.dtd" [
	<!ENTITY ns_flows "http://ns.adobe.com/Flows/1.0/">
	<!ENTITY ns_extend "http://ns.adobe.com/Extensibility/1.0/">
	<!ENTITY ns_ai "http://ns.adobe.com/AdobeIllustrator/10.0/">
	<!ENTITY ns_graphs "http://ns.adobe.com/Graphs/1.0/">
]>
<svg version="1.1" id="Layer_1" xmlns:x="&ns_extend;" xmlns:i="&ns_ai;" xmlns:graph="&ns_graphs;"
	 xmlns="http://www.w3.org/2000/svg" xmlns:xlink="http://www.w3.org/1999/xlink" xmlns:a="http://ns.adobe.com/AdobeSVGViewerExtensions/3.0/"
	 x="0px" y="0px" width="64px" height="64px" viewBox="0 0 64 64" enable-background="new 0 0 64 64" xml:space="preserve">
<linearGradient id="SVGID_1_" gradientUnits="userSpaceOnUse" x1="32.0005" y1="62" x2="32.0005" y2="2.0005">
	<stop  offset="0" style="stop-color:#FFA027"/>
	<stop  offset="0.2723" style="stop-color:#FFC151"/>
	<stop  offset="0.7633" style="stop-color:#FFC93F"/>
	<stop  offset="1" style="stop-color:#FFE261"/>
	<a:midPointStop  offset="0" style="stop-color:#FFA027"/>
	<a:midPointStop  offset="0.5" style="stop-color:#FFA027"/>
	<a:midPointStop  offset="0.2723" style="stop-color:#FFC151"/>
	<a:midPointStop  offset="0.5" style="stop-color:#FFC151"/>
	<a:midPointStop  offset="0.7633" style="stop-color:#FFC93F"/>
	<a:midPointStop  offset="0.5" style="stop-color:#FFC93F"/>
	<a:midPointStop  offset="1" style="stop-color:#FFE261"/>
</linearGradient>
<circle fill="url(#SVGID_1_)" cx="32" cy="32" r="30"/>
<ellipse fill="#302C3B" cx="23" cy="22" rx="4" ry="7"/>
<path fill="#302C3B" d="M41,15c2.207,0,4,3.133,4,7s-1.793,7-4,7c-2.212,0-4-3.133-4-7S38.788,15,41,15z"/>
<path fill="#302C3B" d="M51,37.789c0-0.893-0.528-2.01-2.037-2.297C45.092,34.756,39.374,34,31.999,34l0,0l0,0h-0.002l0,0
	c-7.367,0-13.09,0.756-16.961,1.492C13.529,35.779,13,36.896,13,37.789C13,45.867,19.271,54,31.997,54l0,0h0.002l0,0l0,0
	C44.729,54,51,45.867,51,37.789z"/>
<linearGradient id="SVGID_2_" gradientUnits="userSpaceOnUse" x1="32.0005" y1="51.75" x2="32.0005" y2="48.3252">
	<stop  offset="0" style="stop-color:#D63324"/>
	<stop  offset="0.0798" style="stop-color:#DC3F31"/>
	<stop  offset="0.2475" style="stop-color:#E75346"/>
	<stop  offset="0.4352" style="stop-color:#EE6155"/>
	<stop  offset="0.6572" style="stop-color:#F3695D"/>
	<stop  offset="1" style="stop-color:#F46C60"/>
	<a:midPointStop  offset="0" style="stop-color:#D63324"/>
	<a:midPointStop  offset="0.2121" style="stop-color:#D63324"/>
	<a:midPointStop  offset="1" style="stop-color:#F46C60"/>
</linearGradient>
<path fill="url(#SVGID_2_)" d="M23.999,50.082c2.314,1.051,4.98,1.668,8,1.668c3.022,0,5.688-0.617,8.002-1.668
	c0,0-4.001-3.082-8.002-1.082C28,47,23.999,50.082,23.999,50.082z"/>
<linearGradient id="SVGID_3_" gradientUnits="userSpaceOnUse" x1="15.999" y1="39.5" x2="47.999" y2="39.5">
	<stop  offset="0" style="stop-color:#CFD7E6"/>
	<stop  offset="0.0368" style="stop-color:#DAE0EC"/>
	<stop  offset="0.1263" style="stop-color:#EEF1F6"/>
	<stop  offset="0.2147" style="stop-color:#FBFCFD"/>
	<stop  offset="0.3" style="stop-color:#FFFFFF"/>
	<stop  offset="0.7" style="stop-color:#FFFFFF"/>
	<stop  offset="0.7853" style="stop-color:#FBFCFD"/>
	<stop  offset="0.8737" style="stop-color:#EEF1F6"/>
	<stop  offset="0.9632" style="stop-color:#DAE0EC"/>
	<stop  offset="1" style="stop-color:#CFD7E6"/>
	<a:midPointStop  offset="0" style="stop-color:#CFD7E6"/>
	<a:midPointStop  offset="0.3" style="stop-color:#CFD7E6"/>
	<a:midPointStop  offset="0.3" style="stop-color:#FFFFFF"/>
	<a:midPointStop  offset="0.5" style="stop-color:#FFFFFF"/>
	<a:midPointStop  offset="0.7" style="stop-color:#FFFFFF"/>
	<a:midPointStop  offset="0.7" style="stop-color:#FFFFFF"/>
	<a:midPointStop  offset="1" style="stop-color:#CFD7E6"/>
</linearGradient>
<path fill="url(#SVGID_3_)" d="M46.504,38.037C43.995,37.66,38.688,37,31.999,37c-6.688,0-11.994,0.66-14.505,1.037
	c-1.478,0.221-1.567,0.76-1.466,1.52c0.063,0.451,0.157,1,0.303,1.588c0.161,0.652,0.291,0.824,1.447,0.836
	c2.221,0.027,26.222,0.027,28.443,0c1.156-0.012,1.28-0.184,1.446-0.836c0.145-0.588,0.242-1.137,0.3-1.588
	C48.074,38.797,47.98,38.258,46.504,38.037z"/>
</svg>
