<?xml version="1.0" encoding="utf-8"?>
<!-- Generator: Adobe Illustrator 15.0.0, SVG Export Plug-In . SVG Version: 6.00 Build 0)  -->
<!DOCTYPE svg PUBLIC "-//W3C//DTD SVG 1.1//EN" "http://www.w3.org/Graphics/SVG/1.1/DTD/svg11.dtd" [
	<!ENTITY ns_flows "http://ns.adobe.com/Flows/1.0/">
	<!ENTITY ns_extend "http://ns.adobe.com/Extensibility/1.0/">
	<!ENTITY ns_ai "http://ns.adobe.com/AdobeIllustrator/10.0/">
	<!ENTITY ns_graphs "http://ns.adobe.com/Graphs/1.0/">
]>
<svg version="1.1" id="Layer_1" xmlns:x="&ns_extend;" xmlns:i="&ns_ai;" xmlns:graph="&ns_graphs;"
	 xmlns="http://www.w3.org/2000/svg" xmlns:xlink="http://www.w3.org/1999/xlink" xmlns:a="http://ns.adobe.com/AdobeSVGViewerExtensions/3.0/"
	 x="0px" y="0px" width="64px" height="64px" viewBox="0 0 64 64" enable-background="new 0 0 64 64" xml:space="preserve">
<linearGradient id="SVGID_1_" gradientUnits="userSpaceOnUse" x1="32.0005" y1="62" x2="32.0005" y2="2.0005">
	<stop  offset="0" style="stop-color:#FFA027"/>
	<stop  offset="0.2723" style="stop-color:#FFC151"/>
	<stop  offset="0.7633" style="stop-color:#FFC93F"/>
	<stop  offset="1" style="stop-color:#FFE261"/>
	<a:midPointStop  offset="0" style="stop-color:#FFA027"/>
	<a:midPointStop  offset="0.5" style="stop-color:#FFA027"/>
	<a:midPointStop  offset="0.2723" style="stop-color:#FFC151"/>
	<a:midPointStop  offset="0.5" style="stop-color:#FFC151"/>
	<a:midPointStop  offset="0.7633" style="stop-color:#FFC93F"/>
	<a:midPointStop  offset="0.5" style="stop-color:#FFC93F"/>
	<a:midPointStop  offset="1" style="stop-color:#FFE261"/>
</linearGradient>
<circle fill="url(#SVGID_1_)" cx="32" cy="32" r="30"/>
<path fill="#302C3B" d="M22.252,27.092c2.484,0,4.5,2.016,4.5,4.498c0,2.487-2.016,4.502-4.5,4.502c-2.486,0-4.5-2.015-4.5-4.502
	C17.752,29.108,19.766,27.092,22.252,27.092z"/>
<path fill="#917524" d="M52.982,23.226c-4.381-2.159-10.892-2.207-14.174-1.374c-0.735,0.187-0.839,2.893-0.224,2.728
	c4.172-1.112,10.08-0.873,14.467,0.393C53.674,25.153,53.683,23.571,52.982,23.226z"/>
<path fill="#917524" d="M9.452,24.448c2.812-4.434,8.043-8.055,11.637-8.316c0.758-0.057,2.096,2.347,1.469,2.473
	c-4.808,0.98-9.5,3.597-12.357,7.516C9.818,26.65,9.028,25.113,9.452,24.448z"/>
<path fill="#302C3B" d="M24.659,50.003c7.75,2.007,17.272-1.016,21.293-7.304c0.329-0.516-0.183-1.063-0.7-0.654
	c-4.201,3.316-13.118,5.785-19.648,3.876C23.104,45.189,22.017,49.318,24.659,50.003z"/>
<path fill="#302C3B" d="M50.341,35.949c0.534,0.152,0.759-0.282,0.294-0.615c-3.522-2.52-7.205-2.944-7.205-3.424
	c0-0.368,2.745-2.167,7-3.276c0.503-0.131,0.384-0.66-0.192-0.653c-9.013,0.118-14.351,5.257-14.351,5.88
	C35.887,34.406,42.862,33.824,50.341,35.949z"/>
</svg>
