<?xml version="1.0" encoding="utf-8"?>
<!-- Generator: Adobe Illustrator 15.0.0, SVG Export Plug-In . SVG Version: 6.00 Build 0)  -->
<!DOCTYPE svg PUBLIC "-//W3C//DTD SVG 1.1//EN" "http://www.w3.org/Graphics/SVG/1.1/DTD/svg11.dtd" [
	<!ENTITY ns_flows "http://ns.adobe.com/Flows/1.0/">
	<!ENTITY ns_extend "http://ns.adobe.com/Extensibility/1.0/">
	<!ENTITY ns_ai "http://ns.adobe.com/AdobeIllustrator/10.0/">
	<!ENTITY ns_graphs "http://ns.adobe.com/Graphs/1.0/">
]>
<svg version="1.1" id="Layer_1" xmlns:x="&ns_extend;" xmlns:i="&ns_ai;" xmlns:graph="&ns_graphs;"
	 xmlns="http://www.w3.org/2000/svg" xmlns:xlink="http://www.w3.org/1999/xlink" xmlns:a="http://ns.adobe.com/AdobeSVGViewerExtensions/3.0/"
	 x="0px" y="0px" width="64px" height="64px" viewBox="0 0 64 64" enable-background="new 0 0 64 64" xml:space="preserve">
<linearGradient id="Oval_1_" gradientUnits="userSpaceOnUse" x1="-211.915" y1="275.918" x2="-211.915" y2="276.918" gradientTransform="matrix(60 0 0 -60 12746.9063 16617.0625)">
	<stop  offset="0" style="stop-color:#FFA027"/>
	<stop  offset="0.2723" style="stop-color:#FFC151"/>
	<stop  offset="0.7633" style="stop-color:#FFC93F"/>
	<stop  offset="1" style="stop-color:#FFE261"/>
	<a:midPointStop  offset="0" style="stop-color:#FFA027"/>
	<a:midPointStop  offset="0.5" style="stop-color:#FFA027"/>
	<a:midPointStop  offset="0.2723" style="stop-color:#FFC151"/>
	<a:midPointStop  offset="0.5" style="stop-color:#FFC151"/>
	<a:midPointStop  offset="0.7633" style="stop-color:#FFC93F"/>
	<a:midPointStop  offset="0.5" style="stop-color:#FFC93F"/>
	<a:midPointStop  offset="1" style="stop-color:#FFE261"/>
</linearGradient>
<circle id="Oval_15_" fill="url(#Oval_1_)" cx="32" cy="32" r="30"/>
<path id="Shape_31_" fill="#917524" d="M54.221,21.311c-3.863-3.551-9.855-5.695-13.393-5.019c-0.748,0.144-1.418,2.808-0.779,2.769
	c4.898-0.299,10.107,1.016,13.883,4.063C54.436,23.533,54.801,21.844,54.221,21.311z"/>
<path id="Shape_30_" fill="#917524" d="M9.781,21.313c3.861-3.554,9.854-5.696,13.393-5.021c0.745,0.142,1.416,2.809,0.777,2.768
	c-4.898-0.297-10.107,1.016-13.881,4.063C9.564,23.537,9.199,21.846,9.781,21.313z"/>
<path id="Shape_29_" fill="#302C3B" d="M27.55,26.932c-3.647,3.965-10.198,5.119-14.981,2.641c-0.731-0.38-1.022,0.222-0.744,0.604
	c5.563,7.596,14.002,6.107,16.629-2.933C28.588,26.79,28.109,26.324,27.55,26.932z"/>
<path id="Shape_28_" fill="#302C3B" d="M51.433,29.573c-4.784,2.478-11.334,1.323-14.981-2.644
	c-0.558-0.606-1.037-0.141-0.906,0.314c2.63,9.039,11.068,10.527,16.631,2.932C52.455,29.795,52.166,29.193,51.433,29.573z"/>
<path fill="#302C3B" d="M44.924,43.591c-7.873,5.242-17.982,5.239-25.85,0c-1.115-0.74-1.251,0.06-0.907,0.688
	c5.825,10.687,21.843,10.685,27.668,0C46.177,43.65,46.041,42.851,44.924,43.591z"/>
</svg>
