<?xml version="1.0" encoding="utf-8"?>
<!-- Generator: Adobe Illustrator 15.0.0, SVG Export Plug-In . SVG Version: 6.00 Build 0)  -->
<!DOCTYPE svg PUBLIC "-//W3C//DTD SVG 1.1//EN" "http://www.w3.org/Graphics/SVG/1.1/DTD/svg11.dtd" [
	<!ENTITY ns_flows "http://ns.adobe.com/Flows/1.0/">
	<!ENTITY ns_extend "http://ns.adobe.com/Extensibility/1.0/">
	<!ENTITY ns_ai "http://ns.adobe.com/AdobeIllustrator/10.0/">
	<!ENTITY ns_graphs "http://ns.adobe.com/Graphs/1.0/">
]>
<svg version="1.1" id="Layer_1" xmlns:x="&ns_extend;" xmlns:i="&ns_ai;" xmlns:graph="&ns_graphs;"
	 xmlns="http://www.w3.org/2000/svg" xmlns:xlink="http://www.w3.org/1999/xlink" xmlns:a="http://ns.adobe.com/AdobeSVGViewerExtensions/3.0/"
	 x="0px" y="0px" width="64px" height="64px" viewBox="0 0 64 64" enable-background="new 0 0 64 64" xml:space="preserve">
<linearGradient id="SVGID_1_" gradientUnits="userSpaceOnUse" x1="32.0005" y1="62" x2="32.0005" y2="2.0005">
	<stop  offset="0" style="stop-color:#FFA027"/>
	<stop  offset="0.2723" style="stop-color:#FFC151"/>
	<stop  offset="0.7633" style="stop-color:#FFC93F"/>
	<stop  offset="1" style="stop-color:#FFE261"/>
	<a:midPointStop  offset="0" style="stop-color:#FFA027"/>
	<a:midPointStop  offset="0.5" style="stop-color:#FFA027"/>
	<a:midPointStop  offset="0.2723" style="stop-color:#FFC151"/>
	<a:midPointStop  offset="0.5" style="stop-color:#FFC151"/>
	<a:midPointStop  offset="0.7633" style="stop-color:#FFC93F"/>
	<a:midPointStop  offset="0.5" style="stop-color:#FFC93F"/>
	<a:midPointStop  offset="1" style="stop-color:#FFE261"/>
</linearGradient>
<circle fill="url(#SVGID_1_)" cx="32" cy="32" r="30"/>
<path fill="#302C3B" d="M35.85,21.314c-2.201,1.124-5.5,1.124-7.7,0c-2.349-1.233-5.218-2.024-8.656-2.332
	c-3.354-0.301-10.467-0.291-14.025,0.991c-0.408,0.146-0.809,0.335-1.197,0.539c-0.219,0.114-0.263,0.198-0.263,0.616v0.54
	c0,1.016-0.124,0.621,0.585,1.044c1.382,0.828,2.166,2.977,2.587,5.935c0.599,4.313,2.665,7.014,6.022,8.305
	c3.115,1.195,6.6,1.154,9.691-0.107c1.69-0.691,3.174-1.785,4.353-3.558c2.07-3.11,1.449-5.051,2.516-7.722
	c0.93-2.332,3.543-2.332,4.475,0c1.068,2.671,0.447,4.611,2.516,7.722c1.176,1.772,2.662,2.866,4.354,3.558
	c3.09,1.262,6.574,1.303,9.689,0.107c3.357-1.291,5.426-3.992,6.023-8.305c0.42-2.958,1.205-5.106,2.588-5.935
	c0.709-0.423,0.584-0.028,0.584-1.044v-0.54c0-0.418-0.045-0.502-0.262-0.616c-0.389-0.203-0.791-0.393-1.197-0.539
	c-3.559-1.282-10.672-1.293-14.025-0.991C41.068,19.29,38.197,20.081,35.85,21.314"/>
<linearGradient id="SVGID_2_" gradientUnits="userSpaceOnUse" x1="45.8076" y1="35.3838" x2="45.8076" y2="21.1084">
	<stop  offset="0" style="stop-color:#4E5E67"/>
	<stop  offset="0.2345" style="stop-color:#50606A"/>
	<stop  offset="0.381" style="stop-color:#576872"/>
	<stop  offset="0.5033" style="stop-color:#647681"/>
	<stop  offset="0.6124" style="stop-color:#758A95"/>
	<stop  offset="0.7126" style="stop-color:#8CA3B0"/>
	<stop  offset="0.8063" style="stop-color:#A7C2D1"/>
	<stop  offset="0.8934" style="stop-color:#C7E6F7"/>
	<stop  offset="0.9091" style="stop-color:#CEEDFF"/>
	<a:midPointStop  offset="0" style="stop-color:#4E5E67"/>
	<a:midPointStop  offset="0.7939" style="stop-color:#4E5E67"/>
	<a:midPointStop  offset="0.9091" style="stop-color:#CEEDFF"/>
</linearGradient>
<path opacity="0.3" fill="url(#SVGID_2_)" d="M37.318,23.208c-1.338,1.188-0.123,9.78,3.939,11.37
	c2.533,0.992,7.516,1.593,10.959-1.443c2.82-2.485,3.428-10.01,1.424-11.18C51.439,20.669,40.18,20.669,37.318,23.208z"/>
<linearGradient id="SVGID_3_" gradientUnits="userSpaceOnUse" x1="18.3682" y1="35.3867" x2="18.3682" y2="21.1113">
	<stop  offset="0" style="stop-color:#4E5E67"/>
	<stop  offset="0.2345" style="stop-color:#50606A"/>
	<stop  offset="0.381" style="stop-color:#576872"/>
	<stop  offset="0.5033" style="stop-color:#647681"/>
	<stop  offset="0.6124" style="stop-color:#758A95"/>
	<stop  offset="0.7126" style="stop-color:#8CA3B0"/>
	<stop  offset="0.8063" style="stop-color:#A7C2D1"/>
	<stop  offset="0.8934" style="stop-color:#C7E6F7"/>
	<stop  offset="0.9091" style="stop-color:#CEEDFF"/>
	<a:midPointStop  offset="0" style="stop-color:#4E5E67"/>
	<a:midPointStop  offset="0.7939" style="stop-color:#4E5E67"/>
	<a:midPointStop  offset="0.9091" style="stop-color:#CEEDFF"/>
</linearGradient>
<path opacity="0.3" fill="url(#SVGID_3_)" d="M26.857,23.211c1.337,1.188,0.123,9.781-3.938,11.37
	c-2.535,0.992-7.517,1.593-10.961-1.442c-2.819-2.485-3.428-10.01-1.424-11.181C12.737,20.672,23.996,20.672,26.857,23.211z"/>
<path fill="#302C3B" d="M24.659,50.003c7.75,2.006,17.272-1.016,21.294-7.304c0.328-0.516-0.184-1.063-0.701-0.654
	c-4.201,3.316-13.118,5.785-19.648,3.876C23.104,45.189,22.017,49.318,24.659,50.003z"/>
</svg>
