<?xml version="1.0" encoding="utf-8"?>
<!-- Generator: Adobe Illustrator 15.0.0, SVG Export Plug-In . SVG Version: 6.00 Build 0)  -->
<!DOCTYPE svg PUBLIC "-//W3C//DTD SVG 1.1//EN" "http://www.w3.org/Graphics/SVG/1.1/DTD/svg11.dtd" [
	<!ENTITY ns_flows "http://ns.adobe.com/Flows/1.0/">
	<!ENTITY ns_extend "http://ns.adobe.com/Extensibility/1.0/">
	<!ENTITY ns_ai "http://ns.adobe.com/AdobeIllustrator/10.0/">
	<!ENTITY ns_graphs "http://ns.adobe.com/Graphs/1.0/">
]>
<svg version="1.1" id="Layer_1" xmlns:x="&ns_extend;" xmlns:i="&ns_ai;" xmlns:graph="&ns_graphs;"
	 xmlns="http://www.w3.org/2000/svg" xmlns:xlink="http://www.w3.org/1999/xlink" xmlns:a="http://ns.adobe.com/AdobeSVGViewerExtensions/3.0/"
	 x="0px" y="0px" width="64px" height="64px" viewBox="0 0 64 64" enable-background="new 0 0 64 64" xml:space="preserve">
<linearGradient id="SVGID_1_" gradientUnits="userSpaceOnUse" x1="32.0005" y1="62" x2="32.0005" y2="4.0005">
	<stop  offset="0" style="stop-color:#FFA027"/>
	<stop  offset="0.2723" style="stop-color:#FFC151"/>
	<stop  offset="0.7633" style="stop-color:#FFC93F"/>
	<stop  offset="1" style="stop-color:#FFE261"/>
	<a:midPointStop  offset="0" style="stop-color:#FFA027"/>
	<a:midPointStop  offset="0.5" style="stop-color:#FFA027"/>
	<a:midPointStop  offset="0.2723" style="stop-color:#FFC151"/>
	<a:midPointStop  offset="0.5" style="stop-color:#FFC151"/>
	<a:midPointStop  offset="0.7633" style="stop-color:#FFC93F"/>
	<a:midPointStop  offset="0.5" style="stop-color:#FFC93F"/>
	<a:midPointStop  offset="1" style="stop-color:#FFE261"/>
</linearGradient>
<circle fill="url(#SVGID_1_)" cx="32" cy="33" r="29"/>
<radialGradient id="SVGID_2_" cx="14.1895" cy="38.2539" r="10" gradientUnits="userSpaceOnUse">
	<stop  offset="0" style="stop-color:#F18D84"/>
	<stop  offset="0.2514" style="stop-color:#F29180;stop-opacity:0.7486"/>
	<stop  offset="0.5118" style="stop-color:#F49E73;stop-opacity:0.4882"/>
	<stop  offset="0.7755" style="stop-color:#F8B25F;stop-opacity:0.2245"/>
	<stop  offset="1" style="stop-color:#FDCA47;stop-opacity:0"/>
	<a:midPointStop  offset="0" style="stop-color:#F18D84"/>
	<a:midPointStop  offset="0.7" style="stop-color:#F18D84"/>
	<a:midPointStop  offset="1" style="stop-color:#FDCA47;stop-opacity:0"/>
</radialGradient>
<circle fill="url(#SVGID_2_)" cx="14.189" cy="38.254" r="10"/>
<radialGradient id="SVGID_3_" cx="49.8105" cy="38" r="10" gradientUnits="userSpaceOnUse">
	<stop  offset="0" style="stop-color:#F18D84"/>
	<stop  offset="0.2514" style="stop-color:#F29180;stop-opacity:0.7486"/>
	<stop  offset="0.5118" style="stop-color:#F49E73;stop-opacity:0.4882"/>
	<stop  offset="0.7755" style="stop-color:#F8B25F;stop-opacity:0.2245"/>
	<stop  offset="1" style="stop-color:#FDCA47;stop-opacity:0"/>
	<a:midPointStop  offset="0" style="stop-color:#F18D84"/>
	<a:midPointStop  offset="0.7" style="stop-color:#F18D84"/>
	<a:midPointStop  offset="1" style="stop-color:#FDCA47;stop-opacity:0"/>
</radialGradient>
<circle fill="url(#SVGID_3_)" cx="49.811" cy="38" r="10"/>
<linearGradient id="SVGID_4_" gradientUnits="userSpaceOnUse" x1="32.0005" y1="17.2773" x2="32.0005" y2="2">
	<stop  offset="0.4121" style="stop-color:#00D0FF"/>
	<stop  offset="0.9879" style="stop-color:#0174C7"/>
	<a:midPointStop  offset="0.4121" style="stop-color:#00D0FF"/>
	<a:midPointStop  offset="0.5" style="stop-color:#00D0FF"/>
	<a:midPointStop  offset="0.9879" style="stop-color:#0174C7"/>
</linearGradient>
<path fill="url(#SVGID_4_)" d="M2,9.639c0,4.22,10.158,7.639,30,7.639c19.84,0,30-3.419,30-7.639S51.84,2,32,2
	C12.158,2,2,5.419,2,9.639z M12.625,7.836c0-1.126,4.215-1.876,9.912-2.256C25.486,4.562,28.703,4,32,4s6.473,0.562,9.422,1.58
	c5.697,0.38,9.953,1.13,9.953,2.256C51.375,11.23,12.625,11.23,12.625,7.836z"/>
<path fill="#302C3B" d="M36.084,31.91c3.649-4.065,9.323-4.067,12.975,0c0.559,0.622,0.891-0.05,0.713-0.578
	c-3.547-10.496-10.855-10.496-14.403,0C35.19,31.86,35.523,32.532,36.084,31.91z"/>
<path fill="#302C3B" d="M14.943,31.91c3.651-4.065,9.323-4.067,12.975,0c0.559,0.622,0.894-0.05,0.714-0.578
	c-3.548-10.496-10.856-10.496-14.403,0C14.051,31.86,14.383,32.532,14.943,31.91z"/>
<path fill="#302C3B" d="M40.945,42.059c-5.449,4.659-12.447,4.656-17.894,0c-0.771-0.658-1.232,0.053-0.985,0.611
	c4.183,9.5,15.685,9.498,19.867,0C42.179,42.111,41.72,41.4,40.945,42.059z"/>
</svg>
