<?xml version="1.0" encoding="utf-8"?>
<!-- Generator: Adobe Illustrator 15.0.0, SVG Export Plug-In . SVG Version: 6.00 Build 0)  -->
<!DOCTYPE svg PUBLIC "-//W3C//DTD SVG 1.1//EN" "http://www.w3.org/Graphics/SVG/1.1/DTD/svg11.dtd" [
	<!ENTITY ns_flows "http://ns.adobe.com/Flows/1.0/">
	<!ENTITY ns_extend "http://ns.adobe.com/Extensibility/1.0/">
	<!ENTITY ns_ai "http://ns.adobe.com/AdobeIllustrator/10.0/">
	<!ENTITY ns_graphs "http://ns.adobe.com/Graphs/1.0/">
]>
<svg version="1.1" id="Layer_1" xmlns:x="&ns_extend;" xmlns:i="&ns_ai;" xmlns:graph="&ns_graphs;"
	 xmlns="http://www.w3.org/2000/svg" xmlns:xlink="http://www.w3.org/1999/xlink" xmlns:a="http://ns.adobe.com/AdobeSVGViewerExtensions/3.0/"
	 x="0px" y="0px" width="64px" height="64px" viewBox="0 0 64 64" enable-background="new 0 0 64 64" xml:space="preserve">
<linearGradient id="SVGID_1_" gradientUnits="userSpaceOnUse" x1="32.0005" y1="62" x2="32.0005" y2="2.0005">
	<stop  offset="0" style="stop-color:#FFA027"/>
	<stop  offset="0.2723" style="stop-color:#FFC151"/>
	<stop  offset="0.7633" style="stop-color:#FFC93F"/>
	<stop  offset="1" style="stop-color:#FFE261"/>
	<a:midPointStop  offset="0" style="stop-color:#FFA027"/>
	<a:midPointStop  offset="0.5" style="stop-color:#FFA027"/>
	<a:midPointStop  offset="0.2723" style="stop-color:#FFC151"/>
	<a:midPointStop  offset="0.5" style="stop-color:#FFC151"/>
	<a:midPointStop  offset="0.7633" style="stop-color:#FFC93F"/>
	<a:midPointStop  offset="0.5" style="stop-color:#FFC93F"/>
	<a:midPointStop  offset="1" style="stop-color:#FFE261"/>
</linearGradient>
<circle fill="url(#SVGID_1_)" cx="32" cy="32" r="30"/>
<path fill="#302C3B" d="M50,33.789c0-0.893-0.5-2.01-1.93-2.297C44.402,30.756,38.986,30,32,30l0,0l0,0h-0.002l0,0
	c-6.98,0-12.402,0.756-16.069,1.492C14.501,31.779,14,32.896,14,33.789C14,41.867,19.942,50,31.999,50l0,0H32l0,0l0,0
	C44.059,50,50,41.867,50,33.789z"/>
<linearGradient id="SVGID_2_" gradientUnits="userSpaceOnUse" x1="32.0005" y1="47.75" x2="32.0005" y2="44.3252">
	<stop  offset="0" style="stop-color:#D63324"/>
	<stop  offset="0.0798" style="stop-color:#DC3F31"/>
	<stop  offset="0.2475" style="stop-color:#E75346"/>
	<stop  offset="0.4352" style="stop-color:#EE6155"/>
	<stop  offset="0.6572" style="stop-color:#F3695D"/>
	<stop  offset="1" style="stop-color:#F46C60"/>
	<a:midPointStop  offset="0" style="stop-color:#D63324"/>
	<a:midPointStop  offset="0.2121" style="stop-color:#D63324"/>
	<a:midPointStop  offset="1" style="stop-color:#F46C60"/>
</linearGradient>
<path fill="url(#SVGID_2_)" d="M24.42,46.082c2.193,1.051,4.719,1.668,7.58,1.668c2.861,0,5.386-0.617,7.58-1.668
	c0,0-3.791-3.082-7.58-1.082C28.21,43,24.42,46.082,24.42,46.082z"/>
<linearGradient id="SVGID_3_" gradientUnits="userSpaceOnUse" x1="16.8418" y1="35.5" x2="47.1563" y2="35.5">
	<stop  offset="0" style="stop-color:#CFD7E6"/>
	<stop  offset="0.0368" style="stop-color:#DAE0EC"/>
	<stop  offset="0.1263" style="stop-color:#EEF1F6"/>
	<stop  offset="0.2147" style="stop-color:#FBFCFD"/>
	<stop  offset="0.3" style="stop-color:#FFFFFF"/>
	<stop  offset="0.7" style="stop-color:#FFFFFF"/>
	<stop  offset="0.7853" style="stop-color:#FBFCFD"/>
	<stop  offset="0.8737" style="stop-color:#EEF1F6"/>
	<stop  offset="0.9632" style="stop-color:#DAE0EC"/>
	<stop  offset="1" style="stop-color:#CFD7E6"/>
	<a:midPointStop  offset="0" style="stop-color:#CFD7E6"/>
	<a:midPointStop  offset="0.3" style="stop-color:#CFD7E6"/>
	<a:midPointStop  offset="0.3" style="stop-color:#FFFFFF"/>
	<a:midPointStop  offset="0.5" style="stop-color:#FFFFFF"/>
	<a:midPointStop  offset="0.7" style="stop-color:#FFFFFF"/>
	<a:midPointStop  offset="0.7" style="stop-color:#FFFFFF"/>
	<a:midPointStop  offset="1" style="stop-color:#CFD7E6"/>
</linearGradient>
<path fill="url(#SVGID_3_)" d="M45.74,34.037C43.363,33.66,38.336,33,31.999,33c-6.335,0-11.361,0.66-13.74,1.037
	c-1.399,0.221-1.485,0.76-1.389,1.52c0.06,0.451,0.149,1,0.286,1.588c0.153,0.652,0.276,0.824,1.371,0.836
	c2.104,0.027,24.84,0.027,26.946,0c1.096-0.012,1.213-0.184,1.371-0.836c0.137-0.588,0.229-1.137,0.283-1.588
	C47.229,34.797,47.139,34.258,45.74,34.037z"/>
<path fill="#302C3B" d="M36.762,23.798c4.281-3.271,10.932-3.271,15.213,0.001c0.654,0.501,1.045-0.041,0.838-0.466
	c-4.16-8.444-12.729-8.444-16.887,0.001C35.715,23.758,36.105,24.3,36.762,23.798z"/>
<path fill="#302C3B" d="M12.026,23.798c4.281-3.271,10.931-3.271,15.212,0.001c0.654,0.501,1.045-0.041,0.838-0.466
	c-4.16-8.444-12.729-8.444-16.887,0.001C10.979,23.758,11.37,24.3,12.026,23.798z"/>
<radialGradient id="SVGID_4_" cx="-407.1372" cy="-38.7065" r="9.1642" gradientTransform="matrix(-1.0242 -0.2941 -0.3462 1.2018 -420.9702 -38.6938)" gradientUnits="userSpaceOnUse">
	<stop  offset="0" style="stop-color:#75D6FF"/>
	<stop  offset="0.18" style="stop-color:#70D4FD"/>
	<stop  offset="0.3863" style="stop-color:#62D0F7"/>
	<stop  offset="0.6056" style="stop-color:#4BC8ED"/>
	<stop  offset="0.8324" style="stop-color:#2CBEE0"/>
	<stop  offset="1" style="stop-color:#0FB4D4"/>
	<a:midPointStop  offset="0" style="stop-color:#75D6FF"/>
	<a:midPointStop  offset="0.6788" style="stop-color:#75D6FF"/>
	<a:midPointStop  offset="1" style="stop-color:#0FB4D4"/>
</radialGradient>
<path fill="url(#SVGID_4_)" d="M1.557,35.22c1.546-5.268,8.48-9.605,9.317-9.729c1.098-0.16-1.821,1.772,1.42,10.6
	C16.873,48.555-2.477,48.958,1.557,35.22z"/>
<radialGradient id="SVGID_5_" cx="-99.8687" cy="-11.8237" r="9.1642" gradientTransform="matrix(1.0242 -0.2941 0.3462 1.2018 160.9625 19.3611)" gradientUnits="userSpaceOnUse">
	<stop  offset="0" style="stop-color:#75D6FF"/>
	<stop  offset="0.18" style="stop-color:#70D4FD"/>
	<stop  offset="0.3863" style="stop-color:#62D0F7"/>
	<stop  offset="0.6056" style="stop-color:#4BC8ED"/>
	<stop  offset="0.8324" style="stop-color:#2CBEE0"/>
	<stop  offset="1" style="stop-color:#0FB4D4"/>
	<a:midPointStop  offset="0" style="stop-color:#75D6FF"/>
	<a:midPointStop  offset="0.6788" style="stop-color:#75D6FF"/>
	<a:midPointStop  offset="1" style="stop-color:#0FB4D4"/>
</radialGradient>
<path fill="url(#SVGID_5_)" d="M62.443,35.22c-1.547-5.268-8.48-9.605-9.318-9.729c-1.098-0.16,1.822,1.772-1.42,10.6
	C47.127,48.555,66.477,48.958,62.443,35.22z"/>
</svg>
