<?xml version="1.0" encoding="utf-8"?>
<!-- Generator: Adobe Illustrator 15.0.0, SVG Export Plug-In . SVG Version: 6.00 Build 0)  -->
<!DOCTYPE svg PUBLIC "-//W3C//DTD SVG 1.1//EN" "http://www.w3.org/Graphics/SVG/1.1/DTD/svg11.dtd" [
	<!ENTITY ns_flows "http://ns.adobe.com/Flows/1.0/">
	<!ENTITY ns_extend "http://ns.adobe.com/Extensibility/1.0/">
	<!ENTITY ns_ai "http://ns.adobe.com/AdobeIllustrator/10.0/">
	<!ENTITY ns_graphs "http://ns.adobe.com/Graphs/1.0/">
]>
<svg version="1.1" id="Layer_1" xmlns:x="&ns_extend;" xmlns:i="&ns_ai;" xmlns:graph="&ns_graphs;"
	 xmlns="http://www.w3.org/2000/svg" xmlns:xlink="http://www.w3.org/1999/xlink" xmlns:a="http://ns.adobe.com/AdobeSVGViewerExtensions/3.0/"
	 x="0px" y="0px" width="64px" height="64px" viewBox="0 0 64 64" enable-background="new 0 0 64 64" xml:space="preserve">
<linearGradient id="SVGID_1_" gradientUnits="userSpaceOnUse" x1="32.0005" y1="62" x2="32.0005" y2="2.0005">
	<stop  offset="0" style="stop-color:#FFA027"/>
	<stop  offset="0.2723" style="stop-color:#FFC151"/>
	<stop  offset="0.7633" style="stop-color:#FFC93F"/>
	<stop  offset="1" style="stop-color:#FFE261"/>
	<a:midPointStop  offset="0" style="stop-color:#FFA027"/>
	<a:midPointStop  offset="0.5" style="stop-color:#FFA027"/>
	<a:midPointStop  offset="0.2723" style="stop-color:#FFC151"/>
	<a:midPointStop  offset="0.5" style="stop-color:#FFC151"/>
	<a:midPointStop  offset="0.7633" style="stop-color:#FFC93F"/>
	<a:midPointStop  offset="0.5" style="stop-color:#FFC93F"/>
	<a:midPointStop  offset="1" style="stop-color:#FFE261"/>
</linearGradient>
<circle fill="url(#SVGID_1_)" cx="32" cy="32" r="30"/>
<path fill="#302C3B" d="M36.225,29.617c3.775-4.206,9.645-4.208,13.42,0c0.58,0.644,0.924-0.052,0.74-0.598
	c-3.67-10.858-11.23-10.858-14.9,0C35.299,29.565,35.645,30.261,36.225,29.617z"/>
<path fill="#302C3B" d="M14.355,29.617c3.776-4.206,9.645-4.208,13.419,0c0.58,0.644,0.924-0.052,0.74-0.598
	c-3.669-10.858-11.23-10.858-14.9,0C13.431,29.565,13.775,30.261,14.355,29.617z"/>
<path fill="#302C3B" d="M14.11,38.096c5.437,16.682,30.343,16.682,35.781,0c0.346-1.061-0.152-2.302-1.148-0.777
	c-7.168,10.938-26.315,10.938-33.484,0C14.261,35.794,13.763,37.035,14.11,38.096z"/>
<linearGradient id="SVGID_2_" gradientUnits="userSpaceOnUse" x1="43.0078" y1="44.2207" x2="52.3822" y2="54.22">
	<stop  offset="0" style="stop-color:#B32E24"/>
	<stop  offset="0.0103" style="stop-color:#B63026"/>
	<stop  offset="0.1122" style="stop-color:#D14136"/>
	<stop  offset="0.2241" style="stop-color:#E54F42"/>
	<stop  offset="0.3496" style="stop-color:#F4594B"/>
	<stop  offset="0.4998" style="stop-color:#FC5E50"/>
	<stop  offset="0.7394" style="stop-color:#FF6052"/>
	<a:midPointStop  offset="0" style="stop-color:#B32E24"/>
	<a:midPointStop  offset="0.2066" style="stop-color:#B32E24"/>
	<a:midPointStop  offset="0.7394" style="stop-color:#FF6052"/>
</linearGradient>
<path fill="url(#SVGID_2_)" d="M38.799,49.444c0,0,1.889,1.847,2.719,2.675c4.516,4.518,8.861,4.704,11.428,2.143
	c2.561-2.564,2.371-6.908-2.145-11.426c-0.83-0.829-2.031-2.033-2.031-2.033s-1.92-0.541-5.084,3.48
	C38.436,47.215,38.799,49.444,38.799,49.444z"/>
<path fill="#B81B1B" d="M44.242,43.606c0,0,3.184,2.233,6.686,7.566c-4.67-4.687-8.123-6.373-8.123-6.373s0.428-0.366,0.881-0.532
	C43.889,43.918,44.242,43.606,44.242,43.606z"/>
</svg>
