<?xml version="1.0" encoding="utf-8"?>
<!-- Generator: Adobe Illustrator 15.0.0, SVG Export Plug-In . SVG Version: 6.00 Build 0)  -->
<!DOCTYPE svg PUBLIC "-//W3C//DTD SVG 1.1//EN" "http://www.w3.org/Graphics/SVG/1.1/DTD/svg11.dtd" [
	<!ENTITY ns_flows "http://ns.adobe.com/Flows/1.0/">
	<!ENTITY ns_extend "http://ns.adobe.com/Extensibility/1.0/">
	<!ENTITY ns_ai "http://ns.adobe.com/AdobeIllustrator/10.0/">
	<!ENTITY ns_graphs "http://ns.adobe.com/Graphs/1.0/">
]>
<svg version="1.1" id="Layer_1" xmlns:x="&ns_extend;" xmlns:i="&ns_ai;" xmlns:graph="&ns_graphs;"
	 xmlns="http://www.w3.org/2000/svg" xmlns:xlink="http://www.w3.org/1999/xlink" xmlns:a="http://ns.adobe.com/AdobeSVGViewerExtensions/3.0/"
	 x="0px" y="0px" width="64px" height="64px" viewBox="0 0 64 64" enable-background="new 0 0 64 64" xml:space="preserve">
<linearGradient id="SVGID_1_" gradientUnits="userSpaceOnUse" x1="31.9995" y1="61.999" x2="31.9995" y2="1.9995" gradientTransform="matrix(1 0 0 1 4.882813e-004 9.765625e-004)">
	<stop  offset="0" style="stop-color:#FFA027"/>
	<stop  offset="0.2723" style="stop-color:#FFC151"/>
	<stop  offset="0.7633" style="stop-color:#FFC93F"/>
	<stop  offset="1" style="stop-color:#FFE261"/>
	<a:midPointStop  offset="0" style="stop-color:#FFA027"/>
	<a:midPointStop  offset="0.5" style="stop-color:#FFA027"/>
	<a:midPointStop  offset="0.2723" style="stop-color:#FFC151"/>
	<a:midPointStop  offset="0.5" style="stop-color:#FFC151"/>
	<a:midPointStop  offset="0.7633" style="stop-color:#FFC93F"/>
	<a:midPointStop  offset="0.5" style="stop-color:#FFC93F"/>
	<a:midPointStop  offset="1" style="stop-color:#FFE261"/>
</linearGradient>
<circle fill="url(#SVGID_1_)" cx="31.999" cy="32" r="30"/>
<radialGradient id="SVGID_2_" cx="-31.3813" cy="4.1318" r="9.9998" gradientTransform="matrix(0.9848 -0.1736 0.1736 0.9848 45.7334 31.7337)" gradientUnits="userSpaceOnUse">
	<stop  offset="0" style="stop-color:#F18D84"/>
	<stop  offset="0.2514" style="stop-color:#F29180;stop-opacity:0.7486"/>
	<stop  offset="0.5118" style="stop-color:#F49E73;stop-opacity:0.4882"/>
	<stop  offset="0.7755" style="stop-color:#F8B25F;stop-opacity:0.2245"/>
	<stop  offset="1" style="stop-color:#FDCA47;stop-opacity:0"/>
	<a:midPointStop  offset="0" style="stop-color:#F18D84"/>
	<a:midPointStop  offset="0.7" style="stop-color:#F18D84"/>
	<a:midPointStop  offset="1" style="stop-color:#FDCA47;stop-opacity:0"/>
</radialGradient>
<circle fill="url(#SVGID_2_)" cx="15.546" cy="41.252" r="10"/>
<radialGradient id="SVGID_3_" cx="4.2393" cy="3.8774" r="10" gradientTransform="matrix(0.9848 -0.1736 0.1736 0.9848 45.7334 31.7337)" gradientUnits="userSpaceOnUse">
	<stop  offset="0" style="stop-color:#F18D84"/>
	<stop  offset="0.2514" style="stop-color:#F29180;stop-opacity:0.7486"/>
	<stop  offset="0.5118" style="stop-color:#F49E73;stop-opacity:0.4882"/>
	<stop  offset="0.7755" style="stop-color:#F8B25F;stop-opacity:0.2245"/>
	<stop  offset="1" style="stop-color:#FDCA47;stop-opacity:0"/>
	<a:midPointStop  offset="0" style="stop-color:#F18D84"/>
	<a:midPointStop  offset="0.7" style="stop-color:#F18D84"/>
	<a:midPointStop  offset="1" style="stop-color:#FDCA47;stop-opacity:0"/>
</radialGradient>
<circle fill="url(#SVGID_3_)" cx="50.582" cy="34.816" r="10"/>
<path fill="#302C3B" d="M43.685,48.437c1.272-1.89-2.315-2.603-2.821-5.466c-0.502-2.859,2.626-4.759,0.782-6.096
	c-2.205-1.604-6.013,0.576-8.993-1.593c0.374,2.119,2.559,4.117,5.882,3.533c0,0-2.098,1.308-1.479,4.827
	c0.623,3.521,3.041,4.033,3.041,4.033c-3.323,0.586-4.691,3.211-4.319,5.33C37.837,49.953,42.16,50.695,43.685,48.437z"/>
<path fill="#917524" d="M8.853,24.99c2.813-4.434,8.044-8.055,11.638-8.316c0.76-0.057,2.097,2.346,1.469,2.472
	c-4.808,0.98-9.5,3.595-12.357,7.515C9.22,27.191,8.431,25.654,8.853,24.99z"/>
<path fill="#917524" d="M53.324,17.148c-4.158-3.205-10.313-4.817-13.778-3.834c-0.733,0.207-1.169,2.921-0.537,2.826
	c4.854-0.723,10.157,0.13,14.185,2.836C53.733,19.342,53.949,17.628,53.324,17.148z"/>
<path fill="#302C3B" d="M37.32,28.99c3.648-3.964,10.196-5.12,14.981-2.641c0.731,0.38,1.022-0.221,0.744-0.604
	c-5.563-7.593-14.001-6.106-16.63,2.933C36.281,29.133,36.761,29.599,37.32,28.99z"/>
<path fill="#302C3B" d="M12.96,33.285c3.647-3.963,10.197-5.119,14.981-2.64c0.73,0.38,1.022-0.221,0.744-0.604
	c-5.563-7.593-14.001-6.106-16.63,2.933C11.922,33.428,12.4,33.895,12.96,33.285z"/>
</svg>
