<?xml version="1.0" encoding="utf-8"?>
<!-- Generator: Adobe Illustrator 15.0.0, SVG Export Plug-In . SVG Version: 6.00 Build 0)  -->
<!DOCTYPE svg PUBLIC "-//W3C//DTD SVG 1.1//EN" "http://www.w3.org/Graphics/SVG/1.1/DTD/svg11.dtd" [
	<!ENTITY ns_flows "http://ns.adobe.com/Flows/1.0/">
	<!ENTITY ns_extend "http://ns.adobe.com/Extensibility/1.0/">
	<!ENTITY ns_ai "http://ns.adobe.com/AdobeIllustrator/10.0/">
	<!ENTITY ns_graphs "http://ns.adobe.com/Graphs/1.0/">
]>
<svg version="1.1" id="Layer_1" xmlns:x="&ns_extend;" xmlns:i="&ns_ai;" xmlns:graph="&ns_graphs;"
	 xmlns="http://www.w3.org/2000/svg" xmlns:xlink="http://www.w3.org/1999/xlink" xmlns:a="http://ns.adobe.com/AdobeSVGViewerExtensions/3.0/"
	 x="0px" y="0px" width="64px" height="64px" viewBox="0 0 64 64" enable-background="new 0 0 64 64" xml:space="preserve">
<linearGradient id="SVGID_1_" gradientUnits="userSpaceOnUse" x1="32.0005" y1="62" x2="32.0005" y2="2.0005">
	<stop  offset="0" style="stop-color:#FFA027"/>
	<stop  offset="0.2723" style="stop-color:#FFC151"/>
	<stop  offset="0.7633" style="stop-color:#FFC93F"/>
	<stop  offset="1" style="stop-color:#FFE261"/>
	<a:midPointStop  offset="0" style="stop-color:#FFA027"/>
	<a:midPointStop  offset="0.5" style="stop-color:#FFA027"/>
	<a:midPointStop  offset="0.2723" style="stop-color:#FFC151"/>
	<a:midPointStop  offset="0.5" style="stop-color:#FFC151"/>
	<a:midPointStop  offset="0.7633" style="stop-color:#FFC93F"/>
	<a:midPointStop  offset="0.5" style="stop-color:#FFC93F"/>
	<a:midPointStop  offset="1" style="stop-color:#FFE261"/>
</linearGradient>
<circle fill="url(#SVGID_1_)" cx="32" cy="32" r="30"/>
<path fill="#917524" d="M9.402,29.439c5.243,0.237,11.212-1.973,13.487-4.765c0.479-0.591-0.719-3.061-1.184-2.622
	c-3.561,3.379-8.395,5.719-13.247,5.811C7.808,27.875,8.615,29.404,9.402,29.439z"/>
<path fill="#917524" d="M54.598,29.437c-5.242,0.238-11.211-1.971-13.486-4.764c-0.48-0.588,0.721-3.062,1.184-2.621
	c3.561,3.376,8.396,5.719,13.246,5.81C56.193,27.874,55.385,29.403,54.598,29.437z"/>
<path fill="#302C3B" d="M27.238,34.201c-4.281,3.271-10.932,3.271-15.214,0c-0.654-0.502-1.045,0.041-0.838,0.465
	c4.161,8.445,12.729,8.445,16.888,0C28.285,34.242,27.895,33.699,27.238,34.201z"/>
<path fill="#302C3B" d="M51.975,34.201c-4.281,3.271-10.932,3.271-15.213,0c-0.654-0.502-1.045,0.041-0.838,0.465
	c4.16,8.445,12.729,8.445,16.887,0C53.021,34.242,52.631,33.699,51.975,34.201z"/>
<path fill="#302C3B" d="M24.607,52.391c3.271-1.309,11.517-1.307,14.785,0c0.687,0.34,0.708-0.193,0.468-0.549
	c-4.139-5.789-11.584-5.789-15.722,0C23.897,52.199,23.92,52.73,24.607,52.391z"/>
</svg>
