<?xml version="1.0" encoding="utf-8"?>
<!-- Generator: Adobe Illustrator 15.0.0, SVG Export Plug-In . SVG Version: 6.00 Build 0)  -->
<!DOCTYPE svg PUBLIC "-//W3C//DTD SVG 1.1//EN" "http://www.w3.org/Graphics/SVG/1.1/DTD/svg11.dtd" [
	<!ENTITY ns_flows "http://ns.adobe.com/Flows/1.0/">
	<!ENTITY ns_extend "http://ns.adobe.com/Extensibility/1.0/">
	<!ENTITY ns_ai "http://ns.adobe.com/AdobeIllustrator/10.0/">
	<!ENTITY ns_graphs "http://ns.adobe.com/Graphs/1.0/">
]>
<svg version="1.1" id="Layer_1" xmlns:x="&ns_extend;" xmlns:i="&ns_ai;" xmlns:graph="&ns_graphs;"
	 xmlns="http://www.w3.org/2000/svg" xmlns:xlink="http://www.w3.org/1999/xlink" xmlns:a="http://ns.adobe.com/AdobeSVGViewerExtensions/3.0/"
	 x="0px" y="0px" width="64px" height="64px" viewBox="0 0 64 64" enable-background="new 0 0 64 64" xml:space="preserve">
<linearGradient id="SVGID_1_" gradientUnits="userSpaceOnUse" x1="32.0005" y1="62" x2="32.0005" y2="2.0005">
	<stop  offset="0" style="stop-color:#FFA027"/>
	<stop  offset="0.2723" style="stop-color:#FFC151"/>
	<stop  offset="0.7633" style="stop-color:#FFC93F"/>
	<stop  offset="1" style="stop-color:#FFE261"/>
	<a:midPointStop  offset="0" style="stop-color:#FFA027"/>
	<a:midPointStop  offset="0.5" style="stop-color:#FFA027"/>
	<a:midPointStop  offset="0.2723" style="stop-color:#FFC151"/>
	<a:midPointStop  offset="0.5" style="stop-color:#FFC151"/>
	<a:midPointStop  offset="0.7633" style="stop-color:#FFC93F"/>
	<a:midPointStop  offset="0.5" style="stop-color:#FFC93F"/>
	<a:midPointStop  offset="1" style="stop-color:#FFE261"/>
</linearGradient>
<circle fill="url(#SVGID_1_)" cx="32" cy="32" r="30"/>
<path fill="#302C3B" d="M22.59,53.347c5.295-3.813,13.525-3.813,18.822,0c0.813,0.582,1.296-0.047,1.037-0.543
	c-5.148-9.84-15.75-9.84-20.898,0C21.292,53.3,21.775,53.929,22.59,53.347z"/>
<radialGradient id="SVGID_2_" cx="-69.0962" cy="-25.3374" r="17.2135" gradientTransform="matrix(0.8863 0 0 0.9091 67.7384 34.1218)" gradientUnits="userSpaceOnUse">
	<stop  offset="0" style="stop-color:#75D6FF"/>
	<stop  offset="0.18" style="stop-color:#70D4FD"/>
	<stop  offset="0.3863" style="stop-color:#62D0F7"/>
	<stop  offset="0.6056" style="stop-color:#4BC8ED"/>
	<stop  offset="0.8324" style="stop-color:#2CBEE0"/>
	<stop  offset="1" style="stop-color:#0FB4D4"/>
	<a:midPointStop  offset="0" style="stop-color:#75D6FF"/>
	<a:midPointStop  offset="0.6788" style="stop-color:#75D6FF"/>
	<a:midPointStop  offset="1" style="stop-color:#0FB4D4"/>
</radialGradient>
<path fill="url(#SVGID_2_)" d="M12.893,2C7.881,8.855,5,15.166,5,20.345c0,4.403,3.536,7.976,7.896,7.976
	c4.362,0,7.896-3.572,7.896-7.976C20.793,15.166,17.826,8.745,12.893,2z"/>
<path fill="#302C3B" d="M36.762,36.49c4.281-3.271,10.932-3.271,15.213,0c0.654,0.502,1.045-0.041,0.838-0.465
	c-4.16-8.445-12.729-8.445-16.887,0C35.715,36.449,36.105,36.992,36.762,36.49z"/>
<path fill="#302C3B" d="M12.025,36.49c4.281-3.271,10.932-3.271,15.213,0c0.654,0.502,1.045-0.041,0.838-0.465
	c-4.16-8.445-12.729-8.445-16.887,0C10.979,36.449,11.369,36.992,12.025,36.49z"/>
</svg>
