<?xml version="1.0" encoding="utf-8"?>
<!-- Generator: Adobe Illustrator 15.0.0, SVG Export Plug-In . SVG Version: 6.00 Build 0)  -->
<!DOCTYPE svg PUBLIC "-//W3C//DTD SVG 1.1//EN" "http://www.w3.org/Graphics/SVG/1.1/DTD/svg11.dtd" [
	<!ENTITY ns_flows "http://ns.adobe.com/Flows/1.0/">
	<!ENTITY ns_extend "http://ns.adobe.com/Extensibility/1.0/">
	<!ENTITY ns_ai "http://ns.adobe.com/AdobeIllustrator/10.0/">
	<!ENTITY ns_graphs "http://ns.adobe.com/Graphs/1.0/">
]>
<svg version="1.1" id="Layer_1" xmlns:x="&ns_extend;" xmlns:i="&ns_ai;" xmlns:graph="&ns_graphs;"
	 xmlns="http://www.w3.org/2000/svg" xmlns:xlink="http://www.w3.org/1999/xlink" xmlns:a="http://ns.adobe.com/AdobeSVGViewerExtensions/3.0/"
	 x="0px" y="0px" width="64px" height="64px" viewBox="0 0 64 64" enable-background="new 0 0 64 64" xml:space="preserve">
<linearGradient id="SVGID_1_" gradientUnits="userSpaceOnUse" x1="31.9995" y1="62" x2="31.9995" y2="2" gradientTransform="matrix(1 0 0 1 4.882813e-004 4.882813e-004)">
	<stop  offset="0" style="stop-color:#FFA027"/>
	<stop  offset="0.2723" style="stop-color:#FFC151"/>
	<stop  offset="0.7633" style="stop-color:#FFC93F"/>
	<stop  offset="1" style="stop-color:#FFE261"/>
	<a:midPointStop  offset="0" style="stop-color:#FFA027"/>
	<a:midPointStop  offset="0.5" style="stop-color:#FFA027"/>
	<a:midPointStop  offset="0.2723" style="stop-color:#FFC151"/>
	<a:midPointStop  offset="0.5" style="stop-color:#FFC151"/>
	<a:midPointStop  offset="0.7633" style="stop-color:#FFC93F"/>
	<a:midPointStop  offset="0.5" style="stop-color:#FFC93F"/>
	<a:midPointStop  offset="1" style="stop-color:#FFE261"/>
</linearGradient>
<circle fill="url(#SVGID_1_)" cx="32" cy="32" r="30"/>
<path fill="#302C3B" d="M37.575,27.772c2.987-4.798,8.768-5.817,13.218-2.331c0.682,0.534,0.899-0.211,0.623-0.716
	c-5.499-10.057-12.945-8.744-14.674,2.587C36.656,27.882,37.115,28.507,37.575,27.772z"/>
<path fill="#302C3B" d="M16.038,31.57c2.99-4.798,8.768-5.818,13.218-2.331c0.682,0.533,0.901-0.211,0.624-0.717
	c-5.5-10.056-12.945-8.743-14.675,2.588C15.119,31.68,15.579,32.305,16.038,31.57z"/>
<path fill="#302C3B" d="M44.668,48.61c1.273-1.89-2.315-2.603-2.82-5.466c-0.502-2.859,2.626-4.758,0.782-6.095
	c-2.205-1.604-6.014,0.575-8.994-1.594c0.374,2.12,2.559,4.118,5.883,3.533c0,0-2.098,1.308-1.479,4.827
	c0.623,3.521,3.042,4.033,3.042,4.033c-3.324,0.586-4.691,3.211-4.319,5.33C38.821,50.127,43.145,50.869,44.668,48.61z"/>
</svg>
