<?xml version="1.0" encoding="utf-8"?>
<!-- Generator: Adobe Illustrator 15.0.0, SVG Export Plug-In . SVG Version: 6.00 Build 0)  -->
<!DOCTYPE svg PUBLIC "-//W3C//DTD SVG 1.1//EN" "http://www.w3.org/Graphics/SVG/1.1/DTD/svg11.dtd" [
	<!ENTITY ns_flows "http://ns.adobe.com/Flows/1.0/">
	<!ENTITY ns_extend "http://ns.adobe.com/Extensibility/1.0/">
	<!ENTITY ns_ai "http://ns.adobe.com/AdobeIllustrator/10.0/">
	<!ENTITY ns_graphs "http://ns.adobe.com/Graphs/1.0/">
]>
<svg version="1.1" id="Layer_1" xmlns:x="&ns_extend;" xmlns:i="&ns_ai;" xmlns:graph="&ns_graphs;"
	 xmlns="http://www.w3.org/2000/svg" xmlns:xlink="http://www.w3.org/1999/xlink" xmlns:a="http://ns.adobe.com/AdobeSVGViewerExtensions/3.0/"
	 x="0px" y="0px" width="64px" height="64px" viewBox="0 0 64 64" enable-background="new 0 0 64 64" xml:space="preserve">
<linearGradient id="SVGID_1_" gradientUnits="userSpaceOnUse" x1="31.9829" y1="62.1875" x2="31.9829" y2="2.187" gradientTransform="matrix(1 0 0 1 0.0171 -0.187)">
	<stop  offset="0" style="stop-color:#FFA027"/>
	<stop  offset="0.2723" style="stop-color:#FFC151"/>
	<stop  offset="0.7633" style="stop-color:#FFC93F"/>
	<stop  offset="1" style="stop-color:#FFE261"/>
	<a:midPointStop  offset="0" style="stop-color:#FFA027"/>
	<a:midPointStop  offset="0.5" style="stop-color:#FFA027"/>
	<a:midPointStop  offset="0.2723" style="stop-color:#FFC151"/>
	<a:midPointStop  offset="0.5" style="stop-color:#FFC151"/>
	<a:midPointStop  offset="0.7633" style="stop-color:#FFC93F"/>
	<a:midPointStop  offset="0.5" style="stop-color:#FFC93F"/>
	<a:midPointStop  offset="1" style="stop-color:#FFE261"/>
</linearGradient>
<circle fill="url(#SVGID_1_)" cx="32" cy="32" r="30"/>
<path fill="#302C3B" d="M42.684,49.794c1.273-1.89-2.314-2.603-2.82-5.466c-0.503-2.859,2.626-4.759,0.782-6.095
	c-2.206-1.604-6.013,0.575-8.995-1.594c0.375,2.119,2.561,4.117,5.884,3.533c0,0-2.099,1.308-1.479,4.827
	c0.623,3.521,3.041,4.033,3.041,4.033c-3.322,0.586-4.691,3.211-4.318,5.33C36.837,51.311,41.159,52.053,42.684,49.794z"/>
<path fill="#302C3B" d="M22.012,24.731c2.447-0.432,4.781,1.204,5.213,3.648c0.432,2.449-1.204,4.783-3.65,5.215
	c-2.448,0.432-4.781-1.203-5.213-3.652C17.93,27.498,19.563,25.163,22.012,24.731z"/>
<path fill="#917524" d="M51.604,15.588c-4.689-1.365-11.109-0.282-14.197,1.108c-0.691,0.312-0.324,2.995,0.254,2.726
	c3.915-1.82,9.775-2.61,14.315-2.125C52.619,17.366,52.354,15.807,51.604,15.588z"/>
<path fill="#917524" d="M8.947,24.351c1.999-4.854,6.521-9.329,10.016-10.211c0.736-0.188,2.472,1.947,1.876,2.18
	c-4.565,1.801-8.731,5.192-10.865,9.548C9.69,26.456,8.646,25.079,8.947,24.351z"/>
<path fill="#302C3B" d="M51.211,28.577c0.555,0.057,0.699-0.41,0.184-0.657c-3.906-1.87-7.607-1.649-7.691-2.122
	c-0.063-0.362,2.328-2.61,6.326-4.441c0.472-0.216,0.264-0.717-0.304-0.609c-8.854,1.682-13.22,7.669-13.111,8.284
	C36.709,29.566,43.478,27.783,51.211,28.577z"/>
<radialGradient id="SVGID_2_" cx="-882.4185" cy="879.4434" r="3.6345" gradientTransform="matrix(2.8617 -0.5046 -0.5364 -3.0419 3048.551 2269.0376)" gradientUnits="userSpaceOnUse">
	<stop  offset="0.4182" style="stop-color:#FF1C23"/>
	<stop  offset="0.6332" style="stop-color:#F8151A"/>
	<stop  offset="0.986" style="stop-color:#E40201"/>
	<stop  offset="1" style="stop-color:#E30100"/>
	<a:midPointStop  offset="0.4182" style="stop-color:#FF1C23"/>
	<a:midPointStop  offset="0.5" style="stop-color:#FF1C23"/>
	<a:midPointStop  offset="0.6332" style="stop-color:#F8151A"/>
	<a:midPointStop  offset="0.5" style="stop-color:#F8151A"/>
	<a:midPointStop  offset="0.986" style="stop-color:#E40201"/>
	<a:midPointStop  offset="0.5" style="stop-color:#E40201"/>
	<a:midPointStop  offset="1" style="stop-color:#E30100"/>
</radialGradient>
<path fill="url(#SVGID_2_)" d="M51.813,40.256c-3.288-3.704-10.077-0.834-9.157,4.383c0.618,3.5,4.294,5.268,11.571,9.313
	c5.456-6.292,8.308-9.209,7.689-12.709C60.998,36.025,53.637,35.65,51.813,40.256z"/>
</svg>
