<?xml version="1.0" encoding="utf-8"?>
<!-- Generator: Adobe Illustrator 15.0.0, SVG Export Plug-In . SVG Version: 6.00 Build 0)  -->
<!DOCTYPE svg PUBLIC "-//W3C//DTD SVG 1.1//EN" "http://www.w3.org/Graphics/SVG/1.1/DTD/svg11.dtd" [
	<!ENTITY ns_flows "http://ns.adobe.com/Flows/1.0/">
	<!ENTITY ns_extend "http://ns.adobe.com/Extensibility/1.0/">
	<!ENTITY ns_ai "http://ns.adobe.com/AdobeIllustrator/10.0/">
	<!ENTITY ns_graphs "http://ns.adobe.com/Graphs/1.0/">
]>
<svg version="1.1" id="Layer_1" xmlns:x="&ns_extend;" xmlns:i="&ns_ai;" xmlns:graph="&ns_graphs;"
	 xmlns="http://www.w3.org/2000/svg" xmlns:xlink="http://www.w3.org/1999/xlink" xmlns:a="http://ns.adobe.com/AdobeSVGViewerExtensions/3.0/"
	 x="0px" y="0px" width="64px" height="64px" viewBox="0 0 64 64" enable-background="new 0 0 64 64" xml:space="preserve">
<linearGradient id="SVGID_1_" gradientUnits="userSpaceOnUse" x1="32.0005" y1="62" x2="32.0005" y2="2.0005">
	<stop  offset="0" style="stop-color:#FFA027"/>
	<stop  offset="0.2723" style="stop-color:#FFC151"/>
	<stop  offset="0.7633" style="stop-color:#FFC93F"/>
	<stop  offset="1" style="stop-color:#FFE261"/>
	<a:midPointStop  offset="0" style="stop-color:#FFA027"/>
	<a:midPointStop  offset="0.5" style="stop-color:#FFA027"/>
	<a:midPointStop  offset="0.2723" style="stop-color:#FFC151"/>
	<a:midPointStop  offset="0.5" style="stop-color:#FFC151"/>
	<a:midPointStop  offset="0.7633" style="stop-color:#FFC93F"/>
	<a:midPointStop  offset="0.5" style="stop-color:#FFC93F"/>
	<a:midPointStop  offset="1" style="stop-color:#FFE261"/>
</linearGradient>
<circle fill="url(#SVGID_1_)" cx="32" cy="32" r="30"/>
<path fill="#302C3B" d="M47.875,37c-0.32,0-6.65,2-15.875,2c-9.227,0-15.557-2-15.877-2c-0.732,0-1.125,0.508-1.125,1
	c0,7.271,5.961,15,17.002,15s17-7.729,17-15C49,37.508,48.609,37,47.875,37z"/>
<linearGradient id="SVGID_2_" gradientUnits="userSpaceOnUse" x1="31.9995" y1="41.46" x2="31.9995" y2="62">
	<stop  offset="0" style="stop-color:#B32E24"/>
	<stop  offset="0.0103" style="stop-color:#B63026"/>
	<stop  offset="0.1122" style="stop-color:#D14136"/>
	<stop  offset="0.2241" style="stop-color:#E54F42"/>
	<stop  offset="0.3496" style="stop-color:#F4594B"/>
	<stop  offset="0.4998" style="stop-color:#FC5E50"/>
	<stop  offset="0.7394" style="stop-color:#FF6052"/>
	<a:midPointStop  offset="0" style="stop-color:#B32E24"/>
	<a:midPointStop  offset="0.2066" style="stop-color:#B32E24"/>
	<a:midPointStop  offset="0.7394" style="stop-color:#FF6052"/>
</linearGradient>
<path fill="url(#SVGID_2_)" d="M22,44.85c0,0.893,0,2.389,0,3.994C22,57.602,26.479,61.996,32,62c5.521-0.004,10-4.398,10-13.156
	c0-1.605,0-3.102,0-3.994c0-5.233-10-2.847-10-2.847S22,39.616,22,44.85z"/>
<path fill="#B81B1B" d="M30.578,41.734L32,54.789l1.418-13.055C32.563,41.869,32,42.003,32,42.003S31.434,41.869,30.578,41.734z"/>
<path fill="#FFFFFF" d="M52.25,24.925c0,5.247-4.257,9.5-9.5,9.5c-5.247,0-9.5-4.253-9.5-9.5c0-5.246,4.253-9.5,9.5-9.5
	C47.993,15.425,52.25,19.679,52.25,24.925z"/>
<circle fill="#302C3B" cx="42.75" cy="24.925" r="4.5"/>
<path fill="#302C3B" d="M13.546,30.729c-0.534,0.152-0.759-0.283-0.294-0.615c3.522-2.52,7.205-2.945,7.205-3.425
	c0-0.368-2.745-2.167-7-3.276c-0.503-0.131-0.384-0.66,0.192-0.653C22.662,22.878,28,28.017,28,28.641
	C28,29.185,21.024,28.604,13.546,30.729z"/>
</svg>
