<?xml version="1.0" encoding="utf-8"?>
<!-- Generator: Adobe Illustrator 15.0.0, SVG Export Plug-In . SVG Version: 6.00 Build 0)  -->
<!DOCTYPE svg PUBLIC "-//W3C//DTD SVG 1.1//EN" "http://www.w3.org/Graphics/SVG/1.1/DTD/svg11.dtd" [
	<!ENTITY ns_flows "http://ns.adobe.com/Flows/1.0/">
	<!ENTITY ns_extend "http://ns.adobe.com/Extensibility/1.0/">
	<!ENTITY ns_ai "http://ns.adobe.com/AdobeIllustrator/10.0/">
	<!ENTITY ns_graphs "http://ns.adobe.com/Graphs/1.0/">
]>
<svg version="1.1" id="Layer_1" xmlns:x="&ns_extend;" xmlns:i="&ns_ai;" xmlns:graph="&ns_graphs;"
	 xmlns="http://www.w3.org/2000/svg" xmlns:xlink="http://www.w3.org/1999/xlink" xmlns:a="http://ns.adobe.com/AdobeSVGViewerExtensions/3.0/"
	 x="0px" y="0px" width="64px" height="64px" viewBox="0 0 64 64" enable-background="new 0 0 64 64" xml:space="preserve">
<linearGradient id="SVGID_1_" gradientUnits="userSpaceOnUse" x1="32.0005" y1="62" x2="32.0005" y2="2.001">
	<stop  offset="0" style="stop-color:#FFA027"/>
	<stop  offset="0.2723" style="stop-color:#FFC151"/>
	<stop  offset="0.7633" style="stop-color:#FFC93F"/>
	<stop  offset="1" style="stop-color:#FFE261"/>
	<a:midPointStop  offset="0" style="stop-color:#FFA027"/>
	<a:midPointStop  offset="0.5" style="stop-color:#FFA027"/>
	<a:midPointStop  offset="0.2723" style="stop-color:#FFC151"/>
	<a:midPointStop  offset="0.5" style="stop-color:#FFC151"/>
	<a:midPointStop  offset="0.7633" style="stop-color:#FFC93F"/>
	<a:midPointStop  offset="0.5" style="stop-color:#FFC93F"/>
	<a:midPointStop  offset="1" style="stop-color:#FFE261"/>
</linearGradient>
<circle fill="url(#SVGID_1_)" cx="32" cy="32" r="30"/>
<radialGradient id="SVGID_2_" cx="14.1895" cy="30.127" r="10" gradientUnits="userSpaceOnUse">
	<stop  offset="0" style="stop-color:#F18D84"/>
	<stop  offset="0.2514" style="stop-color:#F29180;stop-opacity:0.7486"/>
	<stop  offset="0.5118" style="stop-color:#F49E73;stop-opacity:0.4882"/>
	<stop  offset="0.7755" style="stop-color:#F8B25F;stop-opacity:0.2245"/>
	<stop  offset="1" style="stop-color:#FDCA47;stop-opacity:0"/>
	<a:midPointStop  offset="0" style="stop-color:#F18D84"/>
	<a:midPointStop  offset="0.7" style="stop-color:#F18D84"/>
	<a:midPointStop  offset="1" style="stop-color:#FDCA47;stop-opacity:0"/>
</radialGradient>
<circle fill="url(#SVGID_2_)" cx="14.189" cy="30.127" r="10"/>
<radialGradient id="SVGID_3_" cx="49.8105" cy="29.873" r="10" gradientUnits="userSpaceOnUse">
	<stop  offset="0" style="stop-color:#F18D84"/>
	<stop  offset="0.2514" style="stop-color:#F29180;stop-opacity:0.7486"/>
	<stop  offset="0.5118" style="stop-color:#F49E73;stop-opacity:0.4882"/>
	<stop  offset="0.7755" style="stop-color:#F8B25F;stop-opacity:0.2245"/>
	<stop  offset="1" style="stop-color:#FDCA47;stop-opacity:0"/>
	<a:midPointStop  offset="0" style="stop-color:#F18D84"/>
	<a:midPointStop  offset="0.7" style="stop-color:#F18D84"/>
	<a:midPointStop  offset="1" style="stop-color:#FDCA47;stop-opacity:0"/>
</radialGradient>
<circle fill="url(#SVGID_3_)" cx="49.811" cy="29.873" r="10"/>
<path fill="#302C3B" d="M22.77,43.816c5.623-4.662,12.844-4.66,18.463,0c0.797,0.658,0.895-0.053,0.648-0.611
	c-4.16-9.502-15.602-9.5-19.762,0C21.873,43.764,21.971,44.475,22.77,43.816z"/>
<path fill="#917524" d="M48.696,11.741c-5.243-0.238-11.21,1.971-13.486,4.764c-0.479,0.592,0.72,3.061,1.184,2.621
	c3.56-3.377,8.396-5.719,13.245-5.809C50.291,13.303,49.484,11.774,48.696,11.741z"/>
<path fill="#917524" d="M15.299,11.743c5.244-0.24,11.211,1.971,13.486,4.764c0.482,0.588-0.719,3.061-1.182,2.619
	c-3.562-3.375-8.396-5.719-13.245-5.809C13.705,13.307,14.513,11.776,15.299,11.743z"/>
<path fill="#302C3B" d="M27.238,20.2c-4.281,3.271-10.932,3.271-15.213,0c-0.654-0.502-1.045,0.041-0.838,0.465
	c4.16,8.445,12.729,8.445,16.887,0C28.285,20.241,27.895,19.698,27.238,20.2z"/>
<path fill="#302C3B" d="M51.975,20.2c-4.281,3.271-10.932,3.271-15.213,0c-0.654-0.502-1.045,0.041-0.838,0.465
	c4.16,8.445,12.729,8.445,16.887,0C53.021,20.241,52.631,19.698,51.975,20.2z"/>
<path fill="#CFD8DD" d="M17.35,44.291l-3.918-4.561c-2.416-6.555-9.035-5.926-10.893-1.656c-0.83,1.906-0.814,4.111,0.852,6.5
	c-1.295,2.455-0.803,7.225,3.418,9.734c2.084,1.242,4.482,1.318,6.361,0.234c1.68,2.785,5.648,4.094,8.842,0.98
	C25.277,52.336,25.26,44.01,17.35,44.291z"/>
<linearGradient id="SVGID_4_" gradientUnits="userSpaceOnUse" x1="-42.4175" y1="-41.2227" x2="-23.0039" y2="-41.2227" gradientTransform="matrix(0.9857 0.1686 -0.1686 0.9857 43.532 85.2301)">
	<stop  offset="0" style="stop-color:#FFFFFF"/>
	<stop  offset="1" style="stop-color:#FFFFFF"/>
	<a:midPointStop  offset="0" style="stop-color:#FFFFFF"/>
	<a:midPointStop  offset="0.7" style="stop-color:#FFFFFF"/>
	<a:midPointStop  offset="1" style="stop-color:#FFFFFF"/>
</linearGradient>
<path fill="url(#SVGID_4_)" d="M10.785,40.809c4.15-2.346,19.027-11.81,19.027-11.81S19.615,42.104,16.443,46.482
	C10.26,55.023,2.777,45.332,10.785,40.809z"/>
<radialGradient id="SVGID_5_" cx="-3.3394" cy="476.1797" r="5.4048" gradientTransform="matrix(0.8005 -0.6156 0.5981 0.8641 -274.4272 -372.827)" gradientUnits="userSpaceOnUse">
	<stop  offset="0.5091" style="stop-color:#FFFFFF"/>
	<stop  offset="0.9152" style="stop-color:#FFFFFF;stop-opacity:0"/>
	<a:midPointStop  offset="0.5091" style="stop-color:#FFFFFF"/>
	<a:midPointStop  offset="0.6848" style="stop-color:#FFFFFF"/>
	<a:midPointStop  offset="0.9152" style="stop-color:#FFFFFF;stop-opacity:0"/>
</radialGradient>
<path fill="url(#SVGID_5_)" d="M12.346,37.721c4.537,5.66-5.002,12.164-9.133,6.197C-0.914,37.951,7.309,31.442,12.346,37.721z"/>
<radialGradient id="SVGID_6_" cx="-30.7383" cy="-15.2549" r="5.8768" gradientTransform="matrix(0.9857 0.1686 -0.1773 1.0364 45.6445 71.6708)" gradientUnits="userSpaceOnUse">
	<stop  offset="0.5091" style="stop-color:#FFFFFF"/>
	<stop  offset="0.9152" style="stop-color:#FFFFFF;stop-opacity:0"/>
	<a:midPointStop  offset="0.5091" style="stop-color:#FFFFFF"/>
	<a:midPointStop  offset="0.6848" style="stop-color:#FFFFFF"/>
	<a:midPointStop  offset="0.9152" style="stop-color:#FFFFFF;stop-opacity:0"/>
</radialGradient>
<path fill="url(#SVGID_6_)" d="M23.736,51.818c-1.369,8.012-12.799,6.059-11.428-1.955C13.754,41.416,25.184,43.371,23.736,51.818z"
	/>
<radialGradient id="SVGID_7_" cx="-38.9438" cy="-17.1934" r="7.2727" gradientTransform="matrix(0.9857 0.1686 -0.1773 1.0364 45.6445 71.6708)" gradientUnits="userSpaceOnUse">
	<stop  offset="0.5091" style="stop-color:#FFFFFF"/>
	<stop  offset="0.9152" style="stop-color:#FFFFFF;stop-opacity:0"/>
	<a:midPointStop  offset="0.5091" style="stop-color:#FFFFFF"/>
	<a:midPointStop  offset="0.6848" style="stop-color:#FFFFFF"/>
	<a:midPointStop  offset="0.9152" style="stop-color:#FFFFFF;stop-opacity:0"/>
</radialGradient>
<path fill="url(#SVGID_7_)" d="M17.475,48.512c-1.719,10.051-16.057,7.596-14.338-2.453C4.857,36.01,19.193,38.461,17.475,48.512z"
	/>
<path fill="#CFD8DD" d="M41.988,55.523c3.193,3.113,7.162,1.805,8.842-0.98c1.879,1.084,4.277,1.008,6.361-0.234
	c4.221-2.51,4.713-7.279,3.418-9.734c1.666-2.389,1.682-4.594,0.852-6.5c-1.857-4.27-8.477-4.898-10.893,1.656l-3.918,4.561
	C38.74,44.01,38.723,52.336,41.988,55.523z"/>
<linearGradient id="SVGID_8_" gradientUnits="userSpaceOnUse" x1="1151.6563" y1="-245.4644" x2="1171.0703" y2="-245.4644" gradientTransform="matrix(-0.9857 0.1686 0.1686 0.9857 1231.9016 85.2301)">
	<stop  offset="0" style="stop-color:#FFFFFF"/>
	<stop  offset="1" style="stop-color:#FFFFFF"/>
	<a:midPointStop  offset="0" style="stop-color:#FFFFFF"/>
	<a:midPointStop  offset="0.7" style="stop-color:#FFFFFF"/>
	<a:midPointStop  offset="1" style="stop-color:#FFFFFF"/>
</linearGradient>
<path fill="url(#SVGID_8_)" d="M53.215,40.809c-4.15-2.346-19.027-11.81-19.027-11.81s10.197,13.105,13.369,17.484
	C53.74,55.023,61.223,45.332,53.215,40.809z"/>
<radialGradient id="SVGID_9_" cx="984.2979" cy="1179.791" r="5.4043" gradientTransform="matrix(-0.8005 -0.6156 -0.5981 0.8641 1549.8599 -372.827)" gradientUnits="userSpaceOnUse">
	<stop  offset="0.5091" style="stop-color:#FFFFFF"/>
	<stop  offset="0.9152" style="stop-color:#FFFFFF;stop-opacity:0"/>
	<a:midPointStop  offset="0.5091" style="stop-color:#FFFFFF"/>
	<a:midPointStop  offset="0.6848" style="stop-color:#FFFFFF"/>
	<a:midPointStop  offset="0.9152" style="stop-color:#FFFFFF;stop-opacity:0"/>
</radialGradient>
<path fill="url(#SVGID_9_)" d="M51.654,37.721c-4.537,5.66,5.002,12.164,9.133,6.197C64.914,37.951,56.691,31.442,51.654,37.721z"/>
<radialGradient id="SVGID_10_" cx="1163.3301" cy="-209.5039" r="5.8768" gradientTransform="matrix(-0.9857 0.1686 0.1773 1.0364 1229.7892 71.6708)" gradientUnits="userSpaceOnUse">
	<stop  offset="0.5091" style="stop-color:#FFFFFF"/>
	<stop  offset="0.9152" style="stop-color:#FFFFFF;stop-opacity:0"/>
	<a:midPointStop  offset="0.5091" style="stop-color:#FFFFFF"/>
	<a:midPointStop  offset="0.6848" style="stop-color:#FFFFFF"/>
	<a:midPointStop  offset="0.9152" style="stop-color:#FFFFFF;stop-opacity:0"/>
</radialGradient>
<path fill="url(#SVGID_10_)" d="M40.264,51.818c1.369,8.012,12.799,6.059,11.428-1.955C50.246,41.416,38.816,43.371,40.264,51.818z"
	/>
<radialGradient id="SVGID_11_" cx="1155.124" cy="-211.4429" r="7.2729" gradientTransform="matrix(-0.9857 0.1686 0.1773 1.0364 1229.7892 71.6708)" gradientUnits="userSpaceOnUse">
	<stop  offset="0.5091" style="stop-color:#FFFFFF"/>
	<stop  offset="0.9152" style="stop-color:#FFFFFF;stop-opacity:0"/>
	<a:midPointStop  offset="0.5091" style="stop-color:#FFFFFF"/>
	<a:midPointStop  offset="0.6848" style="stop-color:#FFFFFF"/>
	<a:midPointStop  offset="0.9152" style="stop-color:#FFFFFF;stop-opacity:0"/>
</radialGradient>
<path fill="url(#SVGID_11_)" d="M46.525,48.512c1.719,10.051,16.057,7.596,14.338-2.453C59.143,36.01,44.807,38.461,46.525,48.512z"
	/>
</svg>
