<?xml version="1.0" encoding="utf-8"?>
<!-- Generator: Adobe Illustrator 15.0.0, SVG Export Plug-In . SVG Version: 6.00 Build 0)  -->
<!DOCTYPE svg PUBLIC "-//W3C//DTD SVG 1.1//EN" "http://www.w3.org/Graphics/SVG/1.1/DTD/svg11.dtd" [
	<!ENTITY ns_flows "http://ns.adobe.com/Flows/1.0/">
	<!ENTITY ns_extend "http://ns.adobe.com/Extensibility/1.0/">
	<!ENTITY ns_ai "http://ns.adobe.com/AdobeIllustrator/10.0/">
	<!ENTITY ns_graphs "http://ns.adobe.com/Graphs/1.0/">
]>
<svg version="1.1" id="Layer_1" xmlns:x="&ns_extend;" xmlns:i="&ns_ai;" xmlns:graph="&ns_graphs;"
	 xmlns="http://www.w3.org/2000/svg" xmlns:xlink="http://www.w3.org/1999/xlink" xmlns:a="http://ns.adobe.com/AdobeSVGViewerExtensions/3.0/"
	 x="0px" y="0px" width="64px" height="64px" viewBox="0 0 64 64" enable-background="new 0 0 64 64" xml:space="preserve">
<ellipse fill="#0FB4D4" cx="45.006" cy="60.197" rx="16.994" ry="1.803"/>
<ellipse fill="#0FB4D4" cx="18.994" cy="60.197" rx="16.994" ry="1.803"/>
<linearGradient id="SVGID_1_" gradientUnits="userSpaceOnUse" x1="32.0005" y1="62" x2="32.0005" y2="2.0005">
	<stop  offset="0" style="stop-color:#FFA027"/>
	<stop  offset="0.2723" style="stop-color:#FFC151"/>
	<stop  offset="0.7633" style="stop-color:#FFC93F"/>
	<stop  offset="1" style="stop-color:#FFE261"/>
	<a:midPointStop  offset="0" style="stop-color:#FFA027"/>
	<a:midPointStop  offset="0.5" style="stop-color:#FFA027"/>
	<a:midPointStop  offset="0.2723" style="stop-color:#FFC151"/>
	<a:midPointStop  offset="0.5" style="stop-color:#FFC151"/>
	<a:midPointStop  offset="0.7633" style="stop-color:#FFC93F"/>
	<a:midPointStop  offset="0.5" style="stop-color:#FFC93F"/>
	<a:midPointStop  offset="1" style="stop-color:#FFE261"/>
</linearGradient>
<circle fill="url(#SVGID_1_)" cx="32" cy="32" r="30"/>
<path fill="#302C3B" d="M39,42.119c0,9.674-14,9.674-14,0v-1.238c0-9.674,14-9.674,14,0V42.119z"/>
<linearGradient id="SVGID_2_" gradientUnits="userSpaceOnUse" x1="27.3325" y1="36.4824" x2="36.668" y2="36.4824">
	<stop  offset="0" style="stop-color:#CFD7E6"/>
	<stop  offset="0.0368" style="stop-color:#DAE0EC"/>
	<stop  offset="0.1263" style="stop-color:#EEF1F6"/>
	<stop  offset="0.2147" style="stop-color:#FBFCFD"/>
	<stop  offset="0.3" style="stop-color:#FFFFFF"/>
	<stop  offset="0.7" style="stop-color:#FFFFFF"/>
	<stop  offset="0.7853" style="stop-color:#FBFCFD"/>
	<stop  offset="0.8737" style="stop-color:#EEF1F6"/>
	<stop  offset="0.9632" style="stop-color:#DAE0EC"/>
	<stop  offset="1" style="stop-color:#CFD7E6"/>
	<a:midPointStop  offset="0" style="stop-color:#CFD7E6"/>
	<a:midPointStop  offset="0.3" style="stop-color:#CFD7E6"/>
	<a:midPointStop  offset="0.3" style="stop-color:#FFFFFF"/>
	<a:midPointStop  offset="0.5" style="stop-color:#FFFFFF"/>
	<a:midPointStop  offset="0.7" style="stop-color:#FFFFFF"/>
	<a:midPointStop  offset="0.7" style="stop-color:#FFFFFF"/>
	<a:midPointStop  offset="1" style="stop-color:#CFD7E6"/>
</linearGradient>
<path fill="url(#SVGID_2_)" d="M27.333,38c0.932-1.813,2.674-3.035,4.666-3.035c1.996,0,3.736,1.221,4.669,3.035H27.333z"/>
<linearGradient id="SVGID_3_" gradientUnits="userSpaceOnUse" x1="32.0005" y1="47.8574" x2="32.0005" y2="45.2588">
	<stop  offset="0" style="stop-color:#D63324"/>
	<stop  offset="0.0798" style="stop-color:#DC3F31"/>
	<stop  offset="0.2475" style="stop-color:#E75346"/>
	<stop  offset="0.4352" style="stop-color:#EE6155"/>
	<stop  offset="0.6572" style="stop-color:#F3695D"/>
	<stop  offset="1" style="stop-color:#F46C60"/>
	<a:midPointStop  offset="0" style="stop-color:#D63324"/>
	<a:midPointStop  offset="0.2121" style="stop-color:#D63324"/>
	<a:midPointStop  offset="1" style="stop-color:#F46C60"/>
</linearGradient>
<path fill="url(#SVGID_3_)" d="M28.333,46.592c1.061,0.799,2.283,1.266,3.668,1.266c1.384,0,2.607-0.467,3.667-1.266
	c0,0-1.834-2.338-3.667-0.82C30.167,44.254,28.333,46.592,28.333,46.592z"/>
<path fill="#917524" d="M11.456,16.17c5.242,0.236,11.211-1.973,13.488-4.766c0.477-0.59-0.721-3.061-1.184-2.621
	c-3.561,3.379-8.396,5.719-13.248,5.811C9.862,14.605,10.668,16.135,11.456,16.17z"/>
<path fill="#917524" d="M52.543,16.168c-5.242,0.238-11.209-1.971-13.486-4.764c-0.48-0.588,0.721-3.063,1.184-2.621
	c3.561,3.375,8.396,5.719,13.246,5.809C54.139,14.604,53.332,16.133,52.543,16.168z"/>
<linearGradient id="SVGID_4_" gradientUnits="userSpaceOnUse" x1="48" y1="21.1245" x2="48" y2="60.8013">
	<stop  offset="0" style="stop-color:#BFECFF"/>
	<stop  offset="0.0397" style="stop-color:#A9E5FF"/>
	<stop  offset="0.1152" style="stop-color:#75D6FF"/>
	<stop  offset="0.2306" style="stop-color:#71D5FD"/>
	<stop  offset="0.3558" style="stop-color:#64D0F8"/>
	<stop  offset="0.4856" style="stop-color:#4EC9EF"/>
	<stop  offset="0.6177" style="stop-color:#30BFE2"/>
	<stop  offset="0.7333" style="stop-color:#0FB4D4"/>
	<a:midPointStop  offset="0" style="stop-color:#BFECFF"/>
	<a:midPointStop  offset="0.5417" style="stop-color:#BFECFF"/>
	<a:midPointStop  offset="0.1152" style="stop-color:#75D6FF"/>
	<a:midPointStop  offset="0.6905" style="stop-color:#75D6FF"/>
	<a:midPointStop  offset="0.7333" style="stop-color:#0FB4D4"/>
</linearGradient>
<path fill="url(#SVGID_4_)" d="M44,23.051v37.75h8V25.506c-0.008-0.007-0.025-0.005-0.025-0.016C51.975,24.266,44,22.047,44,23.051z
	"/>
<linearGradient id="SVGID_5_" gradientUnits="userSpaceOnUse" x1="251.5605" y1="21.1245" x2="251.5605" y2="60.8013" gradientTransform="matrix(-1 0 0 1 267.5605 0)">
	<stop  offset="0" style="stop-color:#BFECFF"/>
	<stop  offset="0.0397" style="stop-color:#A9E5FF"/>
	<stop  offset="0.1152" style="stop-color:#75D6FF"/>
	<stop  offset="0.2306" style="stop-color:#71D5FD"/>
	<stop  offset="0.3558" style="stop-color:#64D0F8"/>
	<stop  offset="0.4856" style="stop-color:#4EC9EF"/>
	<stop  offset="0.6177" style="stop-color:#30BFE2"/>
	<stop  offset="0.7333" style="stop-color:#0FB4D4"/>
	<a:midPointStop  offset="0" style="stop-color:#BFECFF"/>
	<a:midPointStop  offset="0.5417" style="stop-color:#BFECFF"/>
	<a:midPointStop  offset="0.1152" style="stop-color:#75D6FF"/>
	<a:midPointStop  offset="0.6905" style="stop-color:#75D6FF"/>
	<a:midPointStop  offset="0.7333" style="stop-color:#0FB4D4"/>
</linearGradient>
<path fill="url(#SVGID_5_)" d="M20,23.051v37.75h-8V25.506c0.009-0.007,0.025-0.005,0.025-0.016C12.026,24.266,20,22.047,20,23.051z
	"/>
<path fill="#302C3B" d="M27.239,25.49c-4.281-3.271-10.932-3.271-15.213,0c-0.654,0.502-1.045-0.041-0.838-0.465
	c4.16-8.445,12.729-8.445,16.887,0C28.286,25.449,27.895,25.992,27.239,25.49z"/>
<path fill="#302C3B" d="M36.762,25.49c4.281-3.271,10.932-3.271,15.213,0c0.654,0.502,1.045-0.041,0.838-0.465
	c-4.16-8.445-12.729-8.445-16.887,0C35.715,25.449,36.105,25.992,36.762,25.49z"/>
</svg>
