<?xml version="1.0" encoding="utf-8"?>
<!-- Generator: Adobe Illustrator 15.0.0, SVG Export Plug-In . SVG Version: 6.00 Build 0)  -->
<!DOCTYPE svg PUBLIC "-//W3C//DTD SVG 1.1//EN" "http://www.w3.org/Graphics/SVG/1.1/DTD/svg11.dtd" [
	<!ENTITY ns_flows "http://ns.adobe.com/Flows/1.0/">
	<!ENTITY ns_extend "http://ns.adobe.com/Extensibility/1.0/">
	<!ENTITY ns_ai "http://ns.adobe.com/AdobeIllustrator/10.0/">
	<!ENTITY ns_graphs "http://ns.adobe.com/Graphs/1.0/">
]>
<svg version="1.1" id="Layer_1" xmlns:x="&ns_extend;" xmlns:i="&ns_ai;" xmlns:graph="&ns_graphs;"
	 xmlns="http://www.w3.org/2000/svg" xmlns:xlink="http://www.w3.org/1999/xlink" xmlns:a="http://ns.adobe.com/AdobeSVGViewerExtensions/3.0/"
	 x="0px" y="0px" width="64px" height="64px" viewBox="0 0 64 64" enable-background="new 0 0 64 64" xml:space="preserve">
<linearGradient id="SVGID_1_" gradientUnits="userSpaceOnUse" x1="32.0005" y1="62" x2="32.0005" y2="2.0005">
	<stop  offset="0" style="stop-color:#FFA027"/>
	<stop  offset="0.2723" style="stop-color:#FFC151"/>
	<stop  offset="0.7633" style="stop-color:#FFC93F"/>
	<stop  offset="1" style="stop-color:#FFE261"/>
	<a:midPointStop  offset="0" style="stop-color:#FFA027"/>
	<a:midPointStop  offset="0.5" style="stop-color:#FFA027"/>
	<a:midPointStop  offset="0.2723" style="stop-color:#FFC151"/>
	<a:midPointStop  offset="0.5" style="stop-color:#FFC151"/>
	<a:midPointStop  offset="0.7633" style="stop-color:#FFC93F"/>
	<a:midPointStop  offset="0.5" style="stop-color:#FFC93F"/>
	<a:midPointStop  offset="1" style="stop-color:#FFE261"/>
</linearGradient>
<circle fill="url(#SVGID_1_)" cx="32.001" cy="32" r="30"/>
<path fill="#302C3B" d="M15.081,16.071c-0.588-0.301-1.051,0.427-0.553,0.845c6.092,5.124,7.025,6.135,7.023,6.584
	c0.002,0.45-0.932,1.46-7.023,6.584c-0.498,0.418-0.035,1.146,0.553,0.846c12.752-6.513,14.236-6.98,14.236-7.43
	S27.833,22.583,15.081,16.071z"/>
<path fill="#302C3B" d="M48.921,30.93c0.586,0.301,1.047-0.426,0.551-0.844c-6.09-5.126-7.023-6.136-7.021-6.585
	c-0.002-0.451,0.932-1.461,7.021-6.584c0.496-0.418,0.035-1.146-0.551-0.846c-12.752,6.512-14.236,6.98-14.236,7.43
	S36.169,24.417,48.921,30.93z"/>
<path fill="#302C3B" d="M32,32c-8.838-0.059-15.945,4.945-16,11.168c-0.033,3.445,1.332,6.604,5.57,6.633
	c3.076,0.02,6.482-1.465,10.43-1.438c3.947-0.027,7.354,1.457,10.43,1.438c4.238-0.029,5.604-3.188,5.57-6.633
	C47.945,36.945,40.838,31.941,32,32z"/>
<linearGradient id="SVGID_2_" gradientUnits="userSpaceOnUse" x1="32.0005" y1="47.7285" x2="32.0005" y2="44.1807">
	<stop  offset="0" style="stop-color:#D63324"/>
	<stop  offset="0.0798" style="stop-color:#DC3F31"/>
	<stop  offset="0.2475" style="stop-color:#E75346"/>
	<stop  offset="0.4352" style="stop-color:#EE6155"/>
	<stop  offset="0.6572" style="stop-color:#F3695D"/>
	<stop  offset="1" style="stop-color:#F46C60"/>
	<a:midPointStop  offset="0" style="stop-color:#D63324"/>
	<a:midPointStop  offset="0.2121" style="stop-color:#D63324"/>
	<a:midPointStop  offset="1" style="stop-color:#F46C60"/>
</linearGradient>
<path fill="url(#SVGID_2_)" d="M32,44.646c-4.238-2-8.48,3.082-8.48,3.082s5.28-1.332,8.48-1.332s8.48,1.332,8.48,1.332
	S36.238,42.646,32,44.646z"/>
<linearGradient id="SVGID_3_" gradientUnits="userSpaceOnUse" x1="20.9995" y1="36" x2="42.999" y2="36">
	<stop  offset="0" style="stop-color:#CFD7E6"/>
	<stop  offset="0.0368" style="stop-color:#DAE0EC"/>
	<stop  offset="0.1263" style="stop-color:#EEF1F6"/>
	<stop  offset="0.2147" style="stop-color:#FBFCFD"/>
	<stop  offset="0.3" style="stop-color:#FFFFFF"/>
	<stop  offset="0.7" style="stop-color:#FFFFFF"/>
	<stop  offset="0.7853" style="stop-color:#FBFCFD"/>
	<stop  offset="0.8737" style="stop-color:#EEF1F6"/>
	<stop  offset="0.9632" style="stop-color:#DAE0EC"/>
	<stop  offset="1" style="stop-color:#CFD7E6"/>
	<a:midPointStop  offset="0" style="stop-color:#CFD7E6"/>
	<a:midPointStop  offset="0.3" style="stop-color:#CFD7E6"/>
	<a:midPointStop  offset="0.3" style="stop-color:#FFFFFF"/>
	<a:midPointStop  offset="0.5" style="stop-color:#FFFFFF"/>
	<a:midPointStop  offset="0.7" style="stop-color:#FFFFFF"/>
	<a:midPointStop  offset="0.7" style="stop-color:#FFFFFF"/>
	<a:midPointStop  offset="1" style="stop-color:#CFD7E6"/>
</linearGradient>
<path fill="url(#SVGID_3_)" d="M42.721,37.037C40.01,35.156,36.508,34,32,34s-8.012,1.154-10.725,3.037
	C20.839,37.338,20.889,38,21.657,38C24.244,38,32,38,32,38s7.754,0,10.338,0C43.109,38,43.161,37.338,42.721,37.037z"/>
</svg>
