<?xml version="1.0" encoding="utf-8"?>
<!-- Generator: Adobe Illustrator 15.0.0, SVG Export Plug-In . SVG Version: 6.00 Build 0)  -->
<!DOCTYPE svg PUBLIC "-//W3C//DTD SVG 1.1//EN" "http://www.w3.org/Graphics/SVG/1.1/DTD/svg11.dtd" [
	<!ENTITY ns_flows "http://ns.adobe.com/Flows/1.0/">
	<!ENTITY ns_extend "http://ns.adobe.com/Extensibility/1.0/">
	<!ENTITY ns_ai "http://ns.adobe.com/AdobeIllustrator/10.0/">
	<!ENTITY ns_graphs "http://ns.adobe.com/Graphs/1.0/">
]>
<svg version="1.1" id="Layer_1" xmlns:x="&ns_extend;" xmlns:i="&ns_ai;" xmlns:graph="&ns_graphs;"
	 xmlns="http://www.w3.org/2000/svg" xmlns:xlink="http://www.w3.org/1999/xlink" xmlns:a="http://ns.adobe.com/AdobeSVGViewerExtensions/3.0/"
	 x="0px" y="0px" width="64px" height="64px" viewBox="0 0 64 64" enable-background="new 0 0 64 64" xml:space="preserve">
<linearGradient id="SVGID_1_" gradientUnits="userSpaceOnUse" x1="88" y1="-142" x2="88" y2="-82" gradientTransform="matrix(1 0 0 -1 -56 -80)">
	<stop  offset="0.2" style="stop-color:#FF3E2E"/>
	<stop  offset="0.5226" style="stop-color:#FA6019"/>
	<stop  offset="0.8185" style="stop-color:#F7780A"/>
	<stop  offset="1" style="stop-color:#F68104"/>
	<a:midPointStop  offset="0.2" style="stop-color:#FF3E2E"/>
	<a:midPointStop  offset="0.4" style="stop-color:#FF3E2E"/>
	<a:midPointStop  offset="1" style="stop-color:#F68104"/>
</linearGradient>
<circle fill="url(#SVGID_1_)" cx="32" cy="32" r="30"/>
<path fill="#302C3B" d="M22.77,49.527c5.623-4.658,12.843-4.656,18.462,0c0.797,0.658,0.895-0.053,0.648-0.61
	c-4.16-9.5-15.602-9.498-19.762,0C21.873,49.477,21.971,50.188,22.77,49.527z"/>
<path fill="#302C3B" d="M17.614,31.572c0,2.483,2.012,4.5,4.5,4.5c2.485,0,4.5-2.017,4.5-4.5c0-2.485-2.015-4.5-4.5-4.5
	C19.625,27.074,17.614,29.087,17.614,31.572z"/>
<path fill="#302C3B" d="M25.961,33.906c-3.95-4.817-9.183-7.976-14.263-10.772c-0.339-0.287-0.143-0.853,0.363-0.761
	c3.098,0.564,10.994,2.419,13.494,4.585C27.865,28.96,26.895,32.481,25.961,33.906z"/>
<path fill="#302C3B" d="M41.885,27.072c-2.484,0-4.498,2.015-4.498,4.5c0,2.483,2.014,4.5,4.498,4.5c2.49,0,4.502-2.017,4.502-4.5
	C46.387,29.087,44.375,27.074,41.885,27.072z"/>
<path fill="#302C3B" d="M38.445,26.958c2.5-2.166,10.395-4.021,13.494-4.585c0.506-0.092,0.701,0.474,0.361,0.761
	c-5.078,2.797-10.313,5.955-14.262,10.772C37.105,32.481,36.135,28.96,38.445,26.958z"/>
</svg>
