<?xml version="1.0" encoding="utf-8"?>
<!-- Generator: Adobe Illustrator 15.0.0, SVG Export Plug-In . SVG Version: 6.00 Build 0)  -->
<!DOCTYPE svg PUBLIC "-//W3C//DTD SVG 1.1//EN" "http://www.w3.org/Graphics/SVG/1.1/DTD/svg11.dtd" [
	<!ENTITY ns_flows "http://ns.adobe.com/Flows/1.0/">
	<!ENTITY ns_extend "http://ns.adobe.com/Extensibility/1.0/">
	<!ENTITY ns_ai "http://ns.adobe.com/AdobeIllustrator/10.0/">
	<!ENTITY ns_graphs "http://ns.adobe.com/Graphs/1.0/">
]>
<svg version="1.1" id="Layer_1" xmlns:x="&ns_extend;" xmlns:i="&ns_ai;" xmlns:graph="&ns_graphs;"
	 xmlns="http://www.w3.org/2000/svg" xmlns:xlink="http://www.w3.org/1999/xlink" xmlns:a="http://ns.adobe.com/AdobeSVGViewerExtensions/3.0/"
	 x="0px" y="0px" width="64px" height="64px" viewBox="0 0 64 64" enable-background="new 0 0 64 64" xml:space="preserve">
<linearGradient id="SVGID_1_" gradientUnits="userSpaceOnUse" x1="32.0005" y1="62" x2="32.0005" y2="2.0005">
	<stop  offset="0" style="stop-color:#FFA027"/>
	<stop  offset="0.2723" style="stop-color:#FFC151"/>
	<stop  offset="0.7633" style="stop-color:#FFC93F"/>
	<stop  offset="1" style="stop-color:#FFE261"/>
	<a:midPointStop  offset="0" style="stop-color:#FFA027"/>
	<a:midPointStop  offset="0.5" style="stop-color:#FFA027"/>
	<a:midPointStop  offset="0.2723" style="stop-color:#FFC151"/>
	<a:midPointStop  offset="0.5" style="stop-color:#FFC151"/>
	<a:midPointStop  offset="0.7633" style="stop-color:#FFC93F"/>
	<a:midPointStop  offset="0.5" style="stop-color:#FFC93F"/>
	<a:midPointStop  offset="1" style="stop-color:#FFE261"/>
</linearGradient>
<circle fill="url(#SVGID_1_)" cx="32" cy="32" r="30"/>
<path fill="#917524" d="M9.456,25.181c5.242,0.237,11.211-1.973,13.487-4.765c0.478-0.591-0.72-3.061-1.184-2.622
	c-3.561,3.379-8.396,5.719-13.247,5.811C7.862,23.617,8.669,25.146,9.456,25.181z"/>
<path fill="#917524" d="M54.544,25.179c-5.243,0.238-11.21-1.971-13.486-4.764c-0.48-0.588,0.721-3.062,1.184-2.621
	c3.561,3.376,8.396,5.719,13.245,5.81C56.139,23.615,55.332,25.145,54.544,25.179z"/>
<path fill="#302C3B" d="M15.08,27.498c-0.588-0.301-1.05,0.427-0.553,0.845c6.092,5.124,7.025,6.135,7.024,6.584
	c0.001,0.45-0.933,1.46-7.024,6.584c-0.497,0.418-0.035,1.146,0.553,0.846c12.752-6.513,14.236-6.98,14.236-7.43
	S27.832,34.01,15.08,27.498z"/>
<path fill="#302C3B" d="M48.92,42.355c0.588,0.301,1.05-0.426,0.553-0.844c-6.092-5.125-7.025-6.135-7.024-6.584
	c-0.001-0.451,0.933-1.461,7.024-6.584c0.497-0.418,0.035-1.146-0.553-0.846c-12.752,6.512-14.236,6.98-14.236,7.43
	S36.168,35.844,48.92,42.355z"/>
<path fill="#302C3B" d="M22.77,52.328c5.623-4.66,12.844-4.658,18.463,0c0.797,0.658,0.895-0.053,0.648-0.611
	c-4.16-9.5-15.602-9.498-19.762,0C21.873,52.275,21.971,52.986,22.77,52.328z"/>
</svg>
