<?xml version="1.0" encoding="utf-8"?>
<!-- Generator: Adobe Illustrator 15.0.0, SVG Export Plug-In . SVG Version: 6.00 Build 0)  -->
<!DOCTYPE svg PUBLIC "-//W3C//DTD SVG 1.1//EN" "http://www.w3.org/Graphics/SVG/1.1/DTD/svg11.dtd" [
	<!ENTITY ns_flows "http://ns.adobe.com/Flows/1.0/">
	<!ENTITY ns_extend "http://ns.adobe.com/Extensibility/1.0/">
	<!ENTITY ns_ai "http://ns.adobe.com/AdobeIllustrator/10.0/">
	<!ENTITY ns_graphs "http://ns.adobe.com/Graphs/1.0/">
]>
<svg version="1.1" id="Layer_1" xmlns:x="&ns_extend;" xmlns:i="&ns_ai;" xmlns:graph="&ns_graphs;"
	 xmlns="http://www.w3.org/2000/svg" xmlns:xlink="http://www.w3.org/1999/xlink" xmlns:a="http://ns.adobe.com/AdobeSVGViewerExtensions/3.0/"
	 x="0px" y="0px" width="64px" height="64px" viewBox="0 0 64 64" enable-background="new 0 0 64 64" xml:space="preserve">
<linearGradient id="SVGID_1_" gradientUnits="userSpaceOnUse" x1="32.0005" y1="61.999" x2="32.0005" y2="2.0015">
	<stop  offset="0" style="stop-color:#FFA027"/>
	<stop  offset="0.2723" style="stop-color:#FFC151"/>
	<stop  offset="0.7633" style="stop-color:#FFC93F"/>
	<stop  offset="1" style="stop-color:#FFE261"/>
	<a:midPointStop  offset="0" style="stop-color:#FFA027"/>
	<a:midPointStop  offset="0.5" style="stop-color:#FFA027"/>
	<a:midPointStop  offset="0.2723" style="stop-color:#FFC151"/>
	<a:midPointStop  offset="0.5" style="stop-color:#FFC151"/>
	<a:midPointStop  offset="0.7633" style="stop-color:#FFC93F"/>
	<a:midPointStop  offset="0.5" style="stop-color:#FFC93F"/>
	<a:midPointStop  offset="1" style="stop-color:#FFE261"/>
</linearGradient>
<circle fill="url(#SVGID_1_)" cx="32" cy="32" r="29.999"/>
<path fill="#917524" d="M53.344,14.996c-4.158-3.201-10.314-4.814-13.781-3.832c-0.73,0.208-1.166,2.92-0.533,2.826
	c4.854-0.725,10.156,0.131,14.182,2.838C53.752,17.191,53.969,15.477,53.344,14.996z"/>
<path fill="#917524" d="M10.654,14.999c4.158-3.204,10.314-4.816,13.779-3.834c0.732,0.206,1.168,2.921,0.535,2.825
	c-4.854-0.723-10.158,0.131-14.182,2.838C10.246,17.194,10.029,15.479,10.654,14.999z"/>
<ellipse fill="#302C3B" cx="22" cy="26" rx="4.5" ry="6"/>
<ellipse fill="#302C3B" cx="42" cy="26" rx="4.5" ry="6"/>
<path fill="#302C3B" d="M47.676,44c-1.715-3.594-5.881-6-15.676-6c-9.793,0-13.959,2.406-15.674,6c-0.918,1.92,0.393,5,0.393,5
	c1.637,3.883,1.408,5,15.283,5c13.857,0,13.643-1.117,15.279-5C47.281,49,48.59,45.92,47.676,44z"/>
<linearGradient id="SVGID_2_" gradientUnits="userSpaceOnUse" x1="20.6035" y1="42" x2="43.3965" y2="42">
	<stop  offset="0" style="stop-color:#CFD7E6"/>
	<stop  offset="0.0368" style="stop-color:#DAE0EC"/>
	<stop  offset="0.1263" style="stop-color:#EEF1F6"/>
	<stop  offset="0.2147" style="stop-color:#FBFCFD"/>
	<stop  offset="0.3" style="stop-color:#FFFFFF"/>
	<stop  offset="0.7" style="stop-color:#FFFFFF"/>
	<stop  offset="0.7853" style="stop-color:#FBFCFD"/>
	<stop  offset="0.8737" style="stop-color:#EEF1F6"/>
	<stop  offset="0.9632" style="stop-color:#DAE0EC"/>
	<stop  offset="1" style="stop-color:#CFD7E6"/>
	<a:midPointStop  offset="0" style="stop-color:#CFD7E6"/>
	<a:midPointStop  offset="0.3" style="stop-color:#CFD7E6"/>
	<a:midPointStop  offset="0.3" style="stop-color:#FFFFFF"/>
	<a:midPointStop  offset="0.5" style="stop-color:#FFFFFF"/>
	<a:midPointStop  offset="0.7" style="stop-color:#FFFFFF"/>
	<a:midPointStop  offset="0.7" style="stop-color:#FFFFFF"/>
	<a:midPointStop  offset="1" style="stop-color:#CFD7E6"/>
</linearGradient>
<path fill="url(#SVGID_2_)" d="M43.363,42.965c0.09-0.26-0.008-0.619-0.217-0.797c0,0-2.545-2.168-11.146-2.168
	s-11.146,2.168-11.146,2.168c-0.209,0.178-0.307,0.537-0.217,0.797l0.195,0.563c0.09,0.26,0.389,0.473,0.664,0.473h21.008
	c0.275,0,0.574-0.213,0.664-0.473L43.363,42.965z"/>
<linearGradient id="SVGID_3_" gradientUnits="userSpaceOnUse" x1="32.0005" y1="52.1553" x2="32.0005" y2="50.0322">
	<stop  offset="0" style="stop-color:#D63324"/>
	<stop  offset="0.0798" style="stop-color:#DC3F31"/>
	<stop  offset="0.2475" style="stop-color:#E75346"/>
	<stop  offset="0.4352" style="stop-color:#EE6155"/>
	<stop  offset="0.6572" style="stop-color:#F3695D"/>
	<stop  offset="1" style="stop-color:#F46C60"/>
	<a:midPointStop  offset="0" style="stop-color:#D63324"/>
	<a:midPointStop  offset="0.2121" style="stop-color:#D63324"/>
	<a:midPointStop  offset="1" style="stop-color:#F46C60"/>
</linearGradient>
<path fill="url(#SVGID_3_)" d="M25,51.789c0.939,0.488,13.059,0.488,14,0c0,0-3.5-3.082-7.002-1.082
	C28.5,48.707,25,51.789,25,51.789z"/>
</svg>
