<?xml version="1.0" encoding="utf-8"?>
<!-- Generator: Adobe Illustrator 15.0.0, SVG Export Plug-In . SVG Version: 6.00 Build 0)  -->
<!DOCTYPE svg PUBLIC "-//W3C//DTD SVG 1.1//EN" "http://www.w3.org/Graphics/SVG/1.1/DTD/svg11.dtd" [
	<!ENTITY ns_flows "http://ns.adobe.com/Flows/1.0/">
	<!ENTITY ns_extend "http://ns.adobe.com/Extensibility/1.0/">
	<!ENTITY ns_ai "http://ns.adobe.com/AdobeIllustrator/10.0/">
	<!ENTITY ns_graphs "http://ns.adobe.com/Graphs/1.0/">
]>
<svg version="1.1" id="Layer_1" xmlns:x="&ns_extend;" xmlns:i="&ns_ai;" xmlns:graph="&ns_graphs;"
	 xmlns="http://www.w3.org/2000/svg" xmlns:xlink="http://www.w3.org/1999/xlink" xmlns:a="http://ns.adobe.com/AdobeSVGViewerExtensions/3.0/"
	 x="0px" y="0px" width="64px" height="64px" viewBox="0 0 64 64" enable-background="new 0 0 64 64" xml:space="preserve">
<linearGradient id="SVGID_1_" gradientUnits="userSpaceOnUse" x1="32.0005" y1="62" x2="32.0005" y2="2.0005">
	<stop  offset="0" style="stop-color:#FFA027"/>
	<stop  offset="0.2723" style="stop-color:#FFC151"/>
	<stop  offset="0.7633" style="stop-color:#FFC93F"/>
	<stop  offset="1" style="stop-color:#FFE261"/>
	<a:midPointStop  offset="0" style="stop-color:#FFA027"/>
	<a:midPointStop  offset="0.5" style="stop-color:#FFA027"/>
	<a:midPointStop  offset="0.2723" style="stop-color:#FFC151"/>
	<a:midPointStop  offset="0.5" style="stop-color:#FFC151"/>
	<a:midPointStop  offset="0.7633" style="stop-color:#FFC93F"/>
	<a:midPointStop  offset="0.5" style="stop-color:#FFC93F"/>
	<a:midPointStop  offset="1" style="stop-color:#FFE261"/>
</linearGradient>
<circle fill="url(#SVGID_1_)" cx="32" cy="32" r="30"/>
<path fill="#917524" d="M10.456,26.284c5.242,0.237,11.211-1.973,13.486-4.765c0.479-0.591-0.719-3.061-1.184-2.622
	c-3.561,3.379-8.396,5.719-13.246,5.811C8.862,24.721,9.669,26.249,10.456,26.284z"/>
<path fill="#917524" d="M53.545,26.282c-5.244,0.238-11.211-1.971-13.486-4.764c-0.48-0.588,0.721-3.062,1.184-2.621
	c3.561,3.376,8.396,5.719,13.244,5.81C55.139,24.719,54.332,26.248,53.545,26.282z"/>
<radialGradient id="SVGID_2_" cx="-72.8867" cy="8.667" r="13.0797" gradientTransform="matrix(0.8863 0 0 0.9091 67.7384 34.1218)" gradientUnits="userSpaceOnUse">
	<stop  offset="0" style="stop-color:#75D6FF"/>
	<stop  offset="0.18" style="stop-color:#70D4FD"/>
	<stop  offset="0.3863" style="stop-color:#62D0F7"/>
	<stop  offset="0.6056" style="stop-color:#4BC8ED"/>
	<stop  offset="0.8324" style="stop-color:#2CBEE0"/>
	<stop  offset="1" style="stop-color:#0FB4D4"/>
	<a:midPointStop  offset="0" style="stop-color:#75D6FF"/>
	<a:midPointStop  offset="0.6788" style="stop-color:#75D6FF"/>
	<a:midPointStop  offset="1" style="stop-color:#0FB4D4"/>
</radialGradient>
<path fill="url(#SVGID_2_)" d="M7.997,35.096C4.189,40.305,2,45.1,2,49.035c0,3.346,2.687,6.061,6,6.061c3.314,0,6-2.715,6-6.061
	C14,45.1,11.746,40.221,7.997,35.096z"/>
<circle fill="#302C3B" cx="22" cy="35" r="4.5"/>
<circle fill="#302C3B" cx="42" cy="35" r="4.5"/>
<path fill="#302C3B" d="M22.77,53.407c5.623-4.66,12.844-4.658,18.463,0c0.797,0.658,0.895-0.053,0.648-0.611
	c-4.16-9.5-15.602-9.498-19.762,0C21.873,53.354,21.971,54.065,22.77,53.407z"/>
</svg>
