<?xml version="1.0" encoding="utf-8"?>
<!-- Generator: Adobe Illustrator 15.0.0, SVG Export Plug-In . SVG Version: 6.00 Build 0)  -->
<!DOCTYPE svg PUBLIC "-//W3C//DTD SVG 1.1//EN" "http://www.w3.org/Graphics/SVG/1.1/DTD/svg11.dtd" [
	<!ENTITY ns_flows "http://ns.adobe.com/Flows/1.0/">
	<!ENTITY ns_extend "http://ns.adobe.com/Extensibility/1.0/">
	<!ENTITY ns_ai "http://ns.adobe.com/AdobeIllustrator/10.0/">
	<!ENTITY ns_graphs "http://ns.adobe.com/Graphs/1.0/">
]>
<svg version="1.1" id="Layer_1" xmlns:x="&ns_extend;" xmlns:i="&ns_ai;" xmlns:graph="&ns_graphs;"
	 xmlns="http://www.w3.org/2000/svg" xmlns:xlink="http://www.w3.org/1999/xlink" xmlns:a="http://ns.adobe.com/AdobeSVGViewerExtensions/3.0/"
	 x="0px" y="0px" width="64px" height="64px" viewBox="0 0 64 64" enable-background="new 0 0 64 64" xml:space="preserve">
<linearGradient id="SVGID_1_" gradientUnits="userSpaceOnUse" x1="32.0005" y1="62" x2="32.0005" y2="2.0005">
	<stop  offset="0" style="stop-color:#FFA027"/>
	<stop  offset="0.2723" style="stop-color:#FFC151"/>
	<stop  offset="0.7633" style="stop-color:#FFC93F"/>
	<stop  offset="1" style="stop-color:#FFE261"/>
	<a:midPointStop  offset="0" style="stop-color:#FFA027"/>
	<a:midPointStop  offset="0.5" style="stop-color:#FFA027"/>
	<a:midPointStop  offset="0.2723" style="stop-color:#FFC151"/>
	<a:midPointStop  offset="0.5" style="stop-color:#FFC151"/>
	<a:midPointStop  offset="0.7633" style="stop-color:#FFC93F"/>
	<a:midPointStop  offset="0.5" style="stop-color:#FFC93F"/>
	<a:midPointStop  offset="1" style="stop-color:#FFE261"/>
</linearGradient>
<circle fill="url(#SVGID_1_)" cx="32" cy="32" r="30"/>
<path fill="#302C3B" d="M41.659,48.564c-1.057-2.051-3.624-3.425-9.66-3.425c-6.035,0-8.602,1.374-9.658,3.425
	c-0.564,1.096-0.389,2.025,0.242,2.283c2.106,0.86,4.19-0.456,9.418-0.456c5.217,0,7.31,1.316,9.415,0.456
	C42.048,50.591,42.224,49.66,41.659,48.564z"/>
<linearGradient id="SVGID_2_" gradientUnits="userSpaceOnUse" x1="16.0732" y1="43.2842" x2="35.574" y2="57.2847" gradientTransform="matrix(0.9752 -0.2211 0.2211 0.9752 9.5471 1.2489)">
	<stop  offset="0" style="stop-color:#ADE7FF"/>
	<stop  offset="0.497" style="stop-color:#75D6FF"/>
	<stop  offset="0.5909" style="stop-color:#71D5FD"/>
	<stop  offset="0.6928" style="stop-color:#64D0F8"/>
	<stop  offset="0.7984" style="stop-color:#4EC9EF"/>
	<stop  offset="0.9059" style="stop-color:#30BFE2"/>
	<stop  offset="1" style="stop-color:#0FB4D4"/>
	<a:midPointStop  offset="0" style="stop-color:#ADE7FF"/>
	<a:midPointStop  offset="0.5" style="stop-color:#ADE7FF"/>
	<a:midPointStop  offset="0.497" style="stop-color:#75D6FF"/>
	<a:midPointStop  offset="0.6905" style="stop-color:#75D6FF"/>
	<a:midPointStop  offset="1" style="stop-color:#0FB4D4"/>
</linearGradient>
<path fill="url(#SVGID_2_)" d="M52.386,38.567c-6.757-3.132-17.376,0.059-18.248,0.803c-1.144,0.974,3.436-0.272,9.555,10.921
	C50.337,62.449,68.338,45.959,52.386,38.567z"/>
<path fill="#302C3B" d="M27.238,28.7c-4.281,3.271-10.932,3.271-15.213-0.001c-0.654-0.501-1.045,0.041-0.838,0.466
	c4.16,8.445,12.729,8.445,16.887-0.001C28.285,28.74,27.895,28.198,27.238,28.7z"/>
<path fill="#302C3B" d="M51.975,28.7c-4.281,3.271-10.932,3.271-15.213-0.001c-0.654-0.501-1.045,0.041-0.838,0.466
	c4.16,8.445,12.729,8.445,16.887-0.001C53.021,28.74,52.631,28.198,51.975,28.7z"/>
</svg>
