<?xml version="1.0" encoding="utf-8"?>
<!-- Generator: Adobe Illustrator 15.0.0, SVG Export Plug-In . SVG Version: 6.00 Build 0)  -->
<!DOCTYPE svg PUBLIC "-//W3C//DTD SVG 1.1//EN" "http://www.w3.org/Graphics/SVG/1.1/DTD/svg11.dtd" [
	<!ENTITY ns_flows "http://ns.adobe.com/Flows/1.0/">
	<!ENTITY ns_extend "http://ns.adobe.com/Extensibility/1.0/">
	<!ENTITY ns_ai "http://ns.adobe.com/AdobeIllustrator/10.0/">
	<!ENTITY ns_graphs "http://ns.adobe.com/Graphs/1.0/">
]>
<svg version="1.1" id="Layer_1" xmlns:x="&ns_extend;" xmlns:i="&ns_ai;" xmlns:graph="&ns_graphs;"
	 xmlns="http://www.w3.org/2000/svg" xmlns:xlink="http://www.w3.org/1999/xlink" xmlns:a="http://ns.adobe.com/AdobeSVGViewerExtensions/3.0/"
	 x="0px" y="0px" width="64px" height="64px" viewBox="0 0 64 64" enable-background="new 0 0 64 64" xml:space="preserve">
<linearGradient id="SVGID_1_" gradientUnits="userSpaceOnUse" x1="32.0005" y1="62" x2="32.0005" y2="2.0005">
	<stop  offset="0" style="stop-color:#FFA027"/>
	<stop  offset="0.2723" style="stop-color:#FFC151"/>
	<stop  offset="0.7633" style="stop-color:#FFC93F"/>
	<stop  offset="1" style="stop-color:#FFE261"/>
	<a:midPointStop  offset="0" style="stop-color:#FFA027"/>
	<a:midPointStop  offset="0.5" style="stop-color:#FFA027"/>
	<a:midPointStop  offset="0.2723" style="stop-color:#FFC151"/>
	<a:midPointStop  offset="0.5" style="stop-color:#FFC151"/>
	<a:midPointStop  offset="0.7633" style="stop-color:#FFC93F"/>
	<a:midPointStop  offset="0.5" style="stop-color:#FFC93F"/>
	<a:midPointStop  offset="1" style="stop-color:#FFE261"/>
</linearGradient>
<circle fill="url(#SVGID_1_)" cx="32" cy="32" r="30"/>
<path fill="#917524" d="M52.344,14.076c-4.158-3.201-10.314-4.814-13.779-3.832c-0.732,0.207-1.166,2.92-0.535,2.826
	c4.854-0.725,10.158,0.131,14.184,2.838C52.754,16.271,52.969,14.557,52.344,14.076z"/>
<path fill="#917524" d="M11.656,14.078c4.156-3.203,10.313-4.816,13.779-3.834c0.73,0.207,1.166,2.922,0.533,2.826
	c-4.854-0.723-10.157,0.131-14.182,2.838C11.246,16.273,11.03,14.559,11.656,14.078z"/>
<path fill="#FFFFFF" d="M29.5,29c0,5.246-4.257,9.5-9.5,9.5c-5.246,0-9.5-4.254-9.5-9.5c0-5.244,4.254-9.5,9.5-9.5
	C25.243,19.5,29.5,23.756,29.5,29z"/>
<path fill="#FFFFFF" d="M53.5,29c0,5.246-4.257,9.5-9.5,9.5c-5.246,0-9.5-4.254-9.5-9.5c0-5.244,4.254-9.5,9.5-9.5
	C49.243,19.5,53.5,23.756,53.5,29z"/>
<path fill="#302C3B" d="M24.5,29c0,2.486-2.018,4.5-4.5,4.5c-2.487,0-4.5-2.014-4.5-4.5s2.013-4.5,4.5-4.5
	C22.482,24.5,24.5,26.514,24.5,29z"/>
<path fill="#302C3B" d="M48.5,29c0,2.486-2.018,4.5-4.5,4.5c-2.488,0-4.5-2.014-4.5-4.5s2.012-4.5,4.5-4.5
	C46.482,24.5,48.5,26.514,48.5,29z"/>
<path fill="#302C3B" d="M39,50.119c0,9.674-14,9.674-14,0v-1.238c0-9.674,14-9.674,14,0V50.119z"/>
<linearGradient id="SVGID_2_" gradientUnits="userSpaceOnUse" x1="27.332" y1="44.4824" x2="36.668" y2="44.4824">
	<stop  offset="0" style="stop-color:#CFD7E6"/>
	<stop  offset="0.0368" style="stop-color:#DAE0EC"/>
	<stop  offset="0.1263" style="stop-color:#EEF1F6"/>
	<stop  offset="0.2147" style="stop-color:#FBFCFD"/>
	<stop  offset="0.3" style="stop-color:#FFFFFF"/>
	<stop  offset="0.7" style="stop-color:#FFFFFF"/>
	<stop  offset="0.7853" style="stop-color:#FBFCFD"/>
	<stop  offset="0.8737" style="stop-color:#EEF1F6"/>
	<stop  offset="0.9632" style="stop-color:#DAE0EC"/>
	<stop  offset="1" style="stop-color:#CFD7E6"/>
	<a:midPointStop  offset="0" style="stop-color:#CFD7E6"/>
	<a:midPointStop  offset="0.3" style="stop-color:#CFD7E6"/>
	<a:midPointStop  offset="0.3" style="stop-color:#FFFFFF"/>
	<a:midPointStop  offset="0.5" style="stop-color:#FFFFFF"/>
	<a:midPointStop  offset="0.7" style="stop-color:#FFFFFF"/>
	<a:midPointStop  offset="0.7" style="stop-color:#FFFFFF"/>
	<a:midPointStop  offset="1" style="stop-color:#CFD7E6"/>
</linearGradient>
<path fill="url(#SVGID_2_)" d="M27.332,46c0.932-1.813,2.674-3.035,4.666-3.035c1.996,0,3.736,1.221,4.67,3.035H27.332z"/>
<linearGradient id="SVGID_3_" gradientUnits="userSpaceOnUse" x1="32.0005" y1="55.8574" x2="32.0005" y2="53.2588">
	<stop  offset="0" style="stop-color:#D63324"/>
	<stop  offset="0.0798" style="stop-color:#DC3F31"/>
	<stop  offset="0.2475" style="stop-color:#E75346"/>
	<stop  offset="0.4352" style="stop-color:#EE6155"/>
	<stop  offset="0.6572" style="stop-color:#F3695D"/>
	<stop  offset="1" style="stop-color:#F46C60"/>
	<a:midPointStop  offset="0" style="stop-color:#D63324"/>
	<a:midPointStop  offset="0.2121" style="stop-color:#D63324"/>
	<a:midPointStop  offset="1" style="stop-color:#F46C60"/>
</linearGradient>
<path fill="url(#SVGID_3_)" d="M28.332,54.592c1.061,0.799,2.283,1.266,3.668,1.266c1.386,0,2.607-0.467,3.668-1.266
	c0,0-1.834-2.338-3.668-0.82C30.166,52.254,28.332,54.592,28.332,54.592z"/>
</svg>
