<?xml version="1.0" encoding="utf-8"?>
<!-- Generator: Adobe Illustrator 15.0.0, SVG Export Plug-In . SVG Version: 6.00 Build 0)  -->
<!DOCTYPE svg PUBLIC "-//W3C//DTD SVG 1.1//EN" "http://www.w3.org/Graphics/SVG/1.1/DTD/svg11.dtd" [
	<!ENTITY ns_flows "http://ns.adobe.com/Flows/1.0/">
	<!ENTITY ns_extend "http://ns.adobe.com/Extensibility/1.0/">
	<!ENTITY ns_ai "http://ns.adobe.com/AdobeIllustrator/10.0/">
	<!ENTITY ns_graphs "http://ns.adobe.com/Graphs/1.0/">
]>
<svg version="1.1" id="Layer_1" xmlns:x="&ns_extend;" xmlns:i="&ns_ai;" xmlns:graph="&ns_graphs;"
	 xmlns="http://www.w3.org/2000/svg" xmlns:xlink="http://www.w3.org/1999/xlink" xmlns:a="http://ns.adobe.com/AdobeSVGViewerExtensions/3.0/"
	 x="0px" y="0px" width="64px" height="64px" viewBox="0 0 64 64" enable-background="new 0 0 64 64" xml:space="preserve">
<linearGradient id="SVGID_1_" gradientUnits="userSpaceOnUse" x1="32.0005" y1="62" x2="32.0005" y2="2.0005">
	<stop  offset="0" style="stop-color:#FFA027"/>
	<stop  offset="0.4364" style="stop-color:#FFC548"/>
	<stop  offset="1" style="stop-color:#61B3FF"/>
	<a:midPointStop  offset="0" style="stop-color:#FFA027"/>
	<a:midPointStop  offset="0.5" style="stop-color:#FFA027"/>
	<a:midPointStop  offset="0.4364" style="stop-color:#FFC548"/>
	<a:midPointStop  offset="0.5" style="stop-color:#FFC548"/>
	<a:midPointStop  offset="1" style="stop-color:#61B3FF"/>
</linearGradient>
<circle fill="url(#SVGID_1_)" cx="32" cy="32" r="30"/>
<path fill="#302C3B" d="M45.717,48c-1.5-3.592-5.146-6-13.716-6c-8.569,0-12.213,2.408-13.715,6
	c-0.801,1.918,0.346,3.998,0.346,3.998C19.08,53.217,20.846,54,32.002,54c11.142,0,12.921-0.783,13.369-2.002
	C45.371,51.998,46.518,49.918,45.717,48z"/>
<linearGradient id="SVGID_2_" gradientUnits="userSpaceOnUse" x1="22.0024" y1="46" x2="42.002" y2="46">
	<stop  offset="0" style="stop-color:#CFD7E6"/>
	<stop  offset="0.0368" style="stop-color:#DAE0EC"/>
	<stop  offset="0.1263" style="stop-color:#EEF1F6"/>
	<stop  offset="0.2147" style="stop-color:#FBFCFD"/>
	<stop  offset="0.3" style="stop-color:#FFFFFF"/>
	<stop  offset="0.7" style="stop-color:#FFFFFF"/>
	<stop  offset="0.7853" style="stop-color:#FBFCFD"/>
	<stop  offset="0.8737" style="stop-color:#EEF1F6"/>
	<stop  offset="0.9632" style="stop-color:#DAE0EC"/>
	<stop  offset="1" style="stop-color:#CFD7E6"/>
	<a:midPointStop  offset="0" style="stop-color:#CFD7E6"/>
	<a:midPointStop  offset="0.3" style="stop-color:#CFD7E6"/>
	<a:midPointStop  offset="0.3" style="stop-color:#FFFFFF"/>
	<a:midPointStop  offset="0.5" style="stop-color:#FFFFFF"/>
	<a:midPointStop  offset="0.7" style="stop-color:#FFFFFF"/>
	<a:midPointStop  offset="0.7" style="stop-color:#FFFFFF"/>
	<a:midPointStop  offset="1" style="stop-color:#CFD7E6"/>
</linearGradient>
<path fill="url(#SVGID_2_)" d="M41.973,46.965c0.08-0.26-0.008-0.617-0.193-0.797c0,0-2.232-2.168-9.779-2.168
	c-7.545,0-9.778,2.168-9.778,2.168c-0.184,0.18-0.27,0.537-0.191,0.797l0.174,0.563c0.078,0.258,0.34,0.473,0.58,0.473h18.43
	c0.244,0,0.506-0.215,0.586-0.473L41.973,46.965z"/>
<path fill="#014D87" d="M9.456,26.283c5.242,0.238,11.211-1.973,13.488-4.764c0.477-0.592-0.721-3.061-1.184-2.623
	c-3.561,3.379-8.396,5.719-13.248,5.811C7.862,24.721,8.669,26.248,9.456,26.283z"/>
<path fill="#014D87" d="M54.543,26.281c-5.242,0.238-11.209-1.971-13.486-4.764c-0.48-0.588,0.721-3.061,1.184-2.621
	c3.561,3.377,8.396,5.719,13.246,5.811C56.139,24.719,55.332,26.248,54.543,26.281z"/>
<radialGradient id="SVGID_3_" cx="-70.6299" cy="9.043" r="13.0797" gradientTransform="matrix(0.8863 0 0 0.9091 67.7384 34.1218)" gradientUnits="userSpaceOnUse">
	<stop  offset="0" style="stop-color:#75D6FF"/>
	<stop  offset="0.18" style="stop-color:#70D4FD"/>
	<stop  offset="0.3863" style="stop-color:#62D0F7"/>
	<stop  offset="0.6056" style="stop-color:#4BC8ED"/>
	<stop  offset="0.8324" style="stop-color:#2CBEE0"/>
	<stop  offset="1" style="stop-color:#0FB4D4"/>
	<a:midPointStop  offset="0" style="stop-color:#75D6FF"/>
	<a:midPointStop  offset="0.6788" style="stop-color:#75D6FF"/>
	<a:midPointStop  offset="1" style="stop-color:#0FB4D4"/>
</radialGradient>
<path fill="url(#SVGID_3_)" d="M9.997,35.438C6.189,40.646,4,45.441,4,49.377c0,3.346,2.687,6.061,6,6.061c3.314,0,6-2.715,6-6.061
	C16,45.441,13.746,40.563,9.997,35.438z"/>
<path fill="#302C3B" d="M22,28.5c2.484,0,4.5,2.015,4.5,4.5s-2.016,4.5-4.5,4.5c-2.488,0-4.5-2.015-4.5-4.5S19.512,28.5,22,28.5z"/>
<path fill="#302C3B" d="M42,28.5c2.484,0,4.5,2.015,4.5,4.5s-2.016,4.5-4.5,4.5c-2.488,0-4.5-2.015-4.5-4.5S39.512,28.5,42,28.5z"/>
</svg>
