<?xml version="1.0" encoding="utf-8"?>
<!-- Generator: Adobe Illustrator 15.0.0, SVG Export Plug-In . SVG Version: 6.00 Build 0)  -->
<!DOCTYPE svg PUBLIC "-//W3C//DTD SVG 1.1//EN" "http://www.w3.org/Graphics/SVG/1.1/DTD/svg11.dtd" [
	<!ENTITY ns_flows "http://ns.adobe.com/Flows/1.0/">
	<!ENTITY ns_extend "http://ns.adobe.com/Extensibility/1.0/">
	<!ENTITY ns_ai "http://ns.adobe.com/AdobeIllustrator/10.0/">
	<!ENTITY ns_graphs "http://ns.adobe.com/Graphs/1.0/">
]>
<svg version="1.1" id="Layer_1" xmlns:x="&ns_extend;" xmlns:i="&ns_ai;" xmlns:graph="&ns_graphs;"
	 xmlns="http://www.w3.org/2000/svg" xmlns:xlink="http://www.w3.org/1999/xlink" xmlns:a="http://ns.adobe.com/AdobeSVGViewerExtensions/3.0/"
	 x="0px" y="0px" width="64px" height="64px" viewBox="0 0 64 64" enable-background="new 0 0 64 64" xml:space="preserve">
<path fill="#F9C302" d="M57.938,3c0,0,3.946,13.765-1.084,28.749L33.741,15.928C38.335,11.227,47.653,4.348,57.938,3z"/>
<linearGradient id="SVGID_1_" gradientUnits="userSpaceOnUse" x1="795.3213" y1="-317.0059" x2="811.9717" y2="-317.0059" gradientTransform="matrix(-1 0 0 -1 853.834 -298)">
	<stop  offset="0" style="stop-color:#AB5C10;stop-opacity:0.3"/>
	<stop  offset="0.0089" style="stop-color:#AB5C10;stop-opacity:0.3075"/>
	<stop  offset="0.5002" style="stop-color:#96510E;stop-opacity:0.7217"/>
	<stop  offset="0.8303" style="stop-color:#8F4D0D"/>
	<a:midPointStop  offset="0" style="stop-color:#AB5C10;stop-opacity:0.3"/>
	<a:midPointStop  offset="0.5" style="stop-color:#AB5C10;stop-opacity:0.3"/>
	<a:midPointStop  offset="0.0089" style="stop-color:#AB5C10;stop-opacity:0.3075"/>
	<a:midPointStop  offset="0.5" style="stop-color:#AB5C10;stop-opacity:0.3075"/>
	<a:midPointStop  offset="0.5002" style="stop-color:#96510E;stop-opacity:0.7217"/>
	<a:midPointStop  offset="0.5" style="stop-color:#96510E;stop-opacity:0.7217"/>
	<a:midPointStop  offset="0.8303" style="stop-color:#8F4D0D"/>
</linearGradient>
<path fill="url(#SVGID_1_)" d="M55.905,33.006L41.862,16.463c0,0,4.896-5.842,15.539-11.457
	C60.589,17.705,55.905,33.006,55.905,33.006z"/>
<path fill="#F9C302" d="M6.063,3c0,0-3.947,13.765,1.084,28.749l23.113-15.821C25.667,11.227,16.349,4.348,6.063,3z"/>
<linearGradient id="SVGID_2_" gradientUnits="userSpaceOnUse" x1="1326.1738" y1="-317.0059" x2="1342.8252" y2="-317.0059" gradientTransform="matrix(1 0 0 -1 -1320.6855 -298)">
	<stop  offset="0" style="stop-color:#AB5C10;stop-opacity:0.3"/>
	<stop  offset="0.0089" style="stop-color:#AB5C10;stop-opacity:0.3075"/>
	<stop  offset="0.5002" style="stop-color:#96510E;stop-opacity:0.7217"/>
	<stop  offset="0.8303" style="stop-color:#8F4D0D"/>
	<a:midPointStop  offset="0" style="stop-color:#AB5C10;stop-opacity:0.3"/>
	<a:midPointStop  offset="0.5" style="stop-color:#AB5C10;stop-opacity:0.3"/>
	<a:midPointStop  offset="0.0089" style="stop-color:#AB5C10;stop-opacity:0.3075"/>
	<a:midPointStop  offset="0.5" style="stop-color:#AB5C10;stop-opacity:0.3075"/>
	<a:midPointStop  offset="0.5002" style="stop-color:#96510E;stop-opacity:0.7217"/>
	<a:midPointStop  offset="0.5" style="stop-color:#96510E;stop-opacity:0.7217"/>
	<a:midPointStop  offset="0.8303" style="stop-color:#8F4D0D"/>
</linearGradient>
<path fill="url(#SVGID_2_)" d="M8.097,33.006L22.14,16.463c0,0-4.896-5.842-15.539-11.457C3.411,17.705,8.097,33.006,8.097,33.006z"
	/>
<linearGradient id="SVGID_3_" gradientUnits="userSpaceOnUse" x1="306" y1="-359" x2="306" y2="-306.8516" gradientTransform="matrix(1 0 0 -1 -274 -298)">
	<stop  offset="0" style="stop-color:#F9B700"/>
	<stop  offset="0.7212" style="stop-color:#F9C802"/>
	<a:midPointStop  offset="0" style="stop-color:#F9B700"/>
	<a:midPointStop  offset="0.5" style="stop-color:#F9B700"/>
	<a:midPointStop  offset="0.7212" style="stop-color:#F9C802"/>
</linearGradient>
<path fill="url(#SVGID_3_)" d="M32,8.852c-24.864,0-30,33.957-30,33.957c2.583,7.81,14.583,15.637,21.665,15.637
	C26.241,60.148,29.12,61,32,61c2.879,0,5.758-0.852,8.336-2.555c7.082,0,19.082-7.828,21.664-15.637
	C62,42.809,56.863,8.852,32,8.852z"/>
<path fill="#F9C802" d="M10.136,14.359c3.466,1.218,4.025,2.076,4.025,2.076s-2.591-0.242-5.211,0.929
	c1.598,0.715,2.184,2.519,2.184,2.519s-1.354-0.107-2.802,0.465c1.191,1.012,1.091,2.881,1.091,2.881l9.211-10.207
	C18.634,13.021,14.137,12.502,10.136,14.359z"/>
<path fill="#F9C802" d="M53.863,14.359c-3.465,1.218-4.023,2.076-4.023,2.076s2.59-0.242,5.211,0.929
	c-1.598,0.715-2.184,2.519-2.184,2.519s1.352-0.107,2.801,0.465c-1.191,1.012-1.09,2.881-1.09,2.881l-9.211-10.207
	C45.367,13.021,49.863,12.502,53.863,14.359z"/>
<radialGradient id="SVGID_4_" cx="16.6504" cy="42.1094" r="10.0005" gradientUnits="userSpaceOnUse">
	<stop  offset="0.2" style="stop-color:#F18D84"/>
	<stop  offset="1" style="stop-color:#F18D84;stop-opacity:0"/>
	<a:midPointStop  offset="0.2" style="stop-color:#F18D84"/>
	<a:midPointStop  offset="0.5" style="stop-color:#F18D84"/>
	<a:midPointStop  offset="1" style="stop-color:#F18D84;stop-opacity:0"/>
</radialGradient>
<path fill="url(#SVGID_4_)" d="M16.65,32.108c5.521,0,10,4.48,10,10.001c0,5.523-4.479,10.001-10,10.001
	c-5.522,0-10-4.478-10-10.001C6.65,36.589,11.128,32.108,16.65,32.108z"/>
<radialGradient id="SVGID_5_" cx="47.3496" cy="41.8906" r="10.0005" gradientUnits="userSpaceOnUse">
	<stop  offset="0.2" style="stop-color:#F18D84"/>
	<stop  offset="1" style="stop-color:#F18D84;stop-opacity:0"/>
	<a:midPointStop  offset="0.2" style="stop-color:#F18D84"/>
	<a:midPointStop  offset="0.5" style="stop-color:#F18D84"/>
	<a:midPointStop  offset="1" style="stop-color:#F18D84;stop-opacity:0"/>
</radialGradient>
<path fill="url(#SVGID_5_)" d="M47.35,31.89c5.521,0,10,4.48,10,10.001c0,5.525-4.479,10.001-10,10.001c-5.524,0-10-4.476-10-10.001
	C37.35,36.37,41.825,31.89,47.35,31.89z"/>
<path fill="#DE9400" d="M33.951,8.936C33.313,8.889,32.667,8.852,32,8.852s-1.313,0.037-1.951,0.084
	C30.611,15.854,31.936,24.42,32,25.258C32.064,24.42,33.391,15.852,33.951,8.936z"/>
<path fill="#DE9400" d="M40,10.175c-0.857-0.298-1.75-0.542-2.674-0.741c1.998,5.549,3.01,10.676,2.963,10.662
	C40.27,20.118,40.67,15.458,40,10.175z"/>
<path fill="#DE9400" d="M23.711,20.096c-0.048,0.014,0.965-5.115,2.963-10.662c-0.923,0.199-1.816,0.443-2.675,0.741
	C23.33,15.458,23.73,20.116,23.711,20.096z"/>
<path fill="#DE9400" d="M61.375,44.332c0.244-0.508,0.457-1.016,0.625-1.523c0,0-0.078-0.512-0.256-1.395
	c-5.65,0.496-12.045,1.426-12.713,1.477C49.684,42.938,55.82,43.832,61.375,44.332z"/>
<path fill="#DE9400" d="M53.443,47.16c-0.019-0.012,2.713,0.207,6.215-0.023c0.443-0.596,0.824-1.199,1.174-1.809
	C56.805,46.57,53.434,47.195,53.443,47.16z"/>
<path fill="#DE9400" d="M53.443,38.617c-0.01-0.035,3.795,0.672,8.147,2.074c-0.118-0.553-0.271-1.199-0.45-1.926
	C56.957,38.348,53.426,38.633,53.443,38.617z"/>
<path fill="#DE9400" d="M2.625,44.332c5.555-0.502,11.689-1.395,12.343-1.441c-0.667-0.051-7.063-0.979-12.712-1.477
	C2.078,42.297,2,42.809,2,42.809C2.168,43.316,2.381,43.824,2.625,44.332z"/>
<path fill="#DE9400" d="M10.557,38.617c0.021,0.016-3.514-0.27-7.695,0.148c-0.184,0.727-0.332,1.373-0.452,1.926
	C6.764,39.289,10.566,38.582,10.557,38.617z"/>
<path fill="#DE9400" d="M10.557,47.16c0.01,0.035-3.361-0.59-7.39-1.832c0.351,0.607,0.731,1.211,1.174,1.807
	C7.842,47.367,10.572,47.148,10.557,47.16z"/>
<path fill="#BB7A0A" d="M36.707,35.752c-0.943-1.002-8.473-1.002-9.415,0C25.848,37.279,30.134,41,32,41
	C33.865,41,38.152,37.279,36.707,35.752z"/>
<path fill="#302C3B" d="M37.685,32.062c3.273-3.036,8.359-3.036,11.631,0c0.502,0.469,0.8-0.036,0.644-0.432
	c-3.183-7.84-9.735-7.84-12.916,0C36.886,32.025,37.181,32.53,37.685,32.062z"/>
<path fill="#302C3B" d="M14.685,32.062c3.271-3.036,8.359-3.036,11.631,0c0.502,0.468,0.801-0.036,0.642-0.432
	c-3.181-7.841-9.733-7.841-12.914,0C13.883,32.026,14.182,32.53,14.685,32.062z"/>
<path fill="#302C3B" d="M38.419,54.255c1.146-1.189-1.324-2.148-1.325-4.256c0.002-2.102,2.473-3.064,1.325-4.25
	c-1.371-1.422-4.361-0.346-6.217-2.268c0.001,1.559,1.309,3.26,3.753,3.26c0,0-1.661,0.67-1.661,3.258
	c0,2.592,1.661,3.262,1.661,3.262c-2.444,0-3.751,1.699-3.752,3.258C34.058,54.599,37.048,55.673,38.419,54.255z"/>
</svg>
