<?xml version="1.0" encoding="utf-8"?>
<!-- Generator: Adobe Illustrator 15.0.0, SVG Export Plug-In . SVG Version: 6.00 Build 0)  -->
<!DOCTYPE svg PUBLIC "-//W3C//DTD SVG 1.1//EN" "http://www.w3.org/Graphics/SVG/1.1/DTD/svg11.dtd" [
	<!ENTITY ns_flows "http://ns.adobe.com/Flows/1.0/">
	<!ENTITY ns_extend "http://ns.adobe.com/Extensibility/1.0/">
	<!ENTITY ns_ai "http://ns.adobe.com/AdobeIllustrator/10.0/">
	<!ENTITY ns_graphs "http://ns.adobe.com/Graphs/1.0/">
]>
<svg version="1.1" id="Layer_1" xmlns:x="&ns_extend;" xmlns:i="&ns_ai;" xmlns:graph="&ns_graphs;"
	 xmlns="http://www.w3.org/2000/svg" xmlns:xlink="http://www.w3.org/1999/xlink" xmlns:a="http://ns.adobe.com/AdobeSVGViewerExtensions/3.0/"
	 x="0px" y="0px" width="64px" height="64px" viewBox="0 0 64 64" enable-background="new 0 0 64 64" xml:space="preserve">
<path fill="#F9C302" d="M57.938,2.912c0,0,3.946,13.765-1.084,28.749L33.741,15.839C38.335,11.138,47.653,4.259,57.938,2.912z"/>
<linearGradient id="SVGID_1_" gradientUnits="userSpaceOnUse" x1="795.3213" y1="-316.9175" x2="811.9717" y2="-316.9175" gradientTransform="matrix(-1 0 0 -1 853.834 -298)">
	<stop  offset="0" style="stop-color:#AB5C10;stop-opacity:0.3"/>
	<stop  offset="0.0089" style="stop-color:#AB5C10;stop-opacity:0.3075"/>
	<stop  offset="0.5002" style="stop-color:#96510E;stop-opacity:0.7217"/>
	<stop  offset="0.8303" style="stop-color:#8F4D0D"/>
	<a:midPointStop  offset="0" style="stop-color:#AB5C10;stop-opacity:0.3"/>
	<a:midPointStop  offset="0.5" style="stop-color:#AB5C10;stop-opacity:0.3"/>
	<a:midPointStop  offset="0.0089" style="stop-color:#AB5C10;stop-opacity:0.3075"/>
	<a:midPointStop  offset="0.5" style="stop-color:#AB5C10;stop-opacity:0.3075"/>
	<a:midPointStop  offset="0.5002" style="stop-color:#96510E;stop-opacity:0.7217"/>
	<a:midPointStop  offset="0.5" style="stop-color:#96510E;stop-opacity:0.7217"/>
	<a:midPointStop  offset="0.8303" style="stop-color:#8F4D0D"/>
</linearGradient>
<path fill="url(#SVGID_1_)" d="M55.905,32.917L41.862,16.375c0,0,4.896-5.842,15.539-11.457
	C60.589,17.617,55.905,32.917,55.905,32.917z"/>
<path fill="#F9C302" d="M6.063,2.912c0,0-3.947,13.765,1.084,28.749l23.113-15.821C25.667,11.138,16.349,4.259,6.063,2.912z"/>
<linearGradient id="SVGID_2_" gradientUnits="userSpaceOnUse" x1="1326.1738" y1="-316.9175" x2="1342.8252" y2="-316.9175" gradientTransform="matrix(1 0 0 -1 -1320.6855 -298)">
	<stop  offset="0" style="stop-color:#AB5C10;stop-opacity:0.3"/>
	<stop  offset="0.0089" style="stop-color:#AB5C10;stop-opacity:0.3075"/>
	<stop  offset="0.5002" style="stop-color:#96510E;stop-opacity:0.7217"/>
	<stop  offset="0.8303" style="stop-color:#8F4D0D"/>
	<a:midPointStop  offset="0" style="stop-color:#AB5C10;stop-opacity:0.3"/>
	<a:midPointStop  offset="0.5" style="stop-color:#AB5C10;stop-opacity:0.3"/>
	<a:midPointStop  offset="0.0089" style="stop-color:#AB5C10;stop-opacity:0.3075"/>
	<a:midPointStop  offset="0.5" style="stop-color:#AB5C10;stop-opacity:0.3075"/>
	<a:midPointStop  offset="0.5002" style="stop-color:#96510E;stop-opacity:0.7217"/>
	<a:midPointStop  offset="0.5" style="stop-color:#96510E;stop-opacity:0.7217"/>
	<a:midPointStop  offset="0.8303" style="stop-color:#8F4D0D"/>
</linearGradient>
<path fill="url(#SVGID_2_)" d="M8.097,32.917L22.14,16.375c0,0-4.896-5.842-15.539-11.457C3.411,17.617,8.097,32.917,8.097,32.917z"
	/>
<linearGradient id="SVGID_3_" gradientUnits="userSpaceOnUse" x1="306" y1="-359.0879" x2="306" y2="-306.9404" gradientTransform="matrix(1 0 0 -1 -274 -298)">
	<stop  offset="0" style="stop-color:#F9B700"/>
	<stop  offset="0.7212" style="stop-color:#F9C802"/>
	<a:midPointStop  offset="0" style="stop-color:#F9B700"/>
	<a:midPointStop  offset="0.5" style="stop-color:#F9B700"/>
	<a:midPointStop  offset="0.7212" style="stop-color:#F9C802"/>
</linearGradient>
<path fill="url(#SVGID_3_)" d="M32,8.94C7.136,8.94,2,42.896,2,42.896c2.583,7.811,14.583,15.637,21.665,15.637
	c2.576,1.703,5.455,2.555,8.335,2.555c2.879,0,5.758-0.852,8.336-2.555c7.082,0,19.082-7.828,21.664-15.637
	C62,42.896,56.863,8.94,32,8.94z"/>
<path fill="#F9C802" d="M10.136,14.448c3.466,1.218,4.025,2.076,4.025,2.076s-2.591-0.242-5.211,0.929
	c1.598,0.715,2.184,2.519,2.184,2.519s-1.354-0.107-2.802,0.465c1.191,1.012,1.091,2.881,1.091,2.881l9.211-10.207
	C18.634,13.11,14.137,12.591,10.136,14.448z"/>
<path fill="#F9C802" d="M53.863,14.448c-3.465,1.218-4.023,2.076-4.023,2.076s2.59-0.242,5.211,0.929
	c-1.598,0.715-2.184,2.519-2.184,2.519s1.352-0.107,2.801,0.465c-1.191,1.012-1.09,2.881-1.09,2.881L45.367,13.11
	C45.367,13.11,49.863,12.591,53.863,14.448z"/>
<path fill="#DE9400" d="M33.951,9.024C33.313,8.978,32.667,8.94,32,8.94s-1.313,0.037-1.951,0.084
	c0.563,6.918,1.887,15.484,1.951,16.322C32.064,24.509,33.391,15.94,33.951,9.024z"/>
<path fill="#DE9400" d="M40,10.264c-0.857-0.298-1.75-0.542-2.674-0.741c1.998,5.549,3.01,10.676,2.963,10.662
	C40.27,20.207,40.67,15.547,40,10.264z"/>
<path fill="#DE9400" d="M23.711,20.185c-0.048,0.014,0.965-5.115,2.963-10.662c-0.923,0.199-1.816,0.443-2.675,0.741
	C23.33,15.547,23.73,20.205,23.711,20.185z"/>
<path fill="#DE9400" d="M61.375,44.42c0.244-0.508,0.457-1.016,0.625-1.523c0,0-0.078-0.512-0.256-1.395
	c-5.65,0.496-12.045,1.426-12.713,1.477C49.684,43.025,55.82,43.92,61.375,44.42z"/>
<path fill="#DE9400" d="M53.443,47.248c-0.019-0.012,2.713,0.207,6.215-0.023c0.443-0.596,0.824-1.199,1.174-1.809
	C56.805,46.658,53.434,47.283,53.443,47.248z"/>
<path fill="#DE9400" d="M53.443,38.705c-0.01-0.035,3.795,0.672,8.147,2.074c-0.118-0.553-0.271-1.199-0.45-1.926
	C56.957,38.436,53.426,38.721,53.443,38.705z"/>
<path fill="#DE9400" d="M2.625,44.42c5.555-0.502,11.689-1.395,12.343-1.441C14.301,42.928,7.904,42,2.256,41.502
	C2.078,42.385,2,42.896,2,42.896C2.168,43.404,2.381,43.912,2.625,44.42z"/>
<path fill="#DE9400" d="M10.557,38.705c0.021,0.016-3.514-0.27-7.695,0.148c-0.184,0.727-0.332,1.373-0.452,1.926
	C6.764,39.377,10.566,38.67,10.557,38.705z"/>
<path fill="#DE9400" d="M10.557,47.248c0.01,0.035-3.361-0.59-7.39-1.832c0.351,0.607,0.731,1.211,1.174,1.807
	C7.842,47.455,10.572,47.236,10.557,47.248z"/>
<path fill="#302C3B" d="M45.074,43.088c-0.266,0-5.477,2-13.074,2s-12.811-2-13.074-2c-0.604,0-0.926,0.379-0.926,0.75
	c0,5.453,4.909,11.25,14.001,11.25c9.093,0,13.999-5.797,13.999-11.25C46,43.467,45.68,43.088,45.074,43.088z"/>
<linearGradient id="SVGID_4_" gradientUnits="userSpaceOnUse" x1="306" y1="-351.0879" x2="306" y2="-348.519" gradientTransform="matrix(1 0 0 -1 -274 -298)">
	<stop  offset="0" style="stop-color:#D63324"/>
	<stop  offset="0.0798" style="stop-color:#DC3F31"/>
	<stop  offset="0.2475" style="stop-color:#E75346"/>
	<stop  offset="0.4352" style="stop-color:#EE6155"/>
	<stop  offset="0.6572" style="stop-color:#F3695D"/>
	<stop  offset="1" style="stop-color:#F46C60"/>
	<a:midPointStop  offset="0" style="stop-color:#D63324"/>
	<a:midPointStop  offset="0.5" style="stop-color:#D63324"/>
	<a:midPointStop  offset="0.0798" style="stop-color:#DC3F31"/>
	<a:midPointStop  offset="0.5" style="stop-color:#DC3F31"/>
	<a:midPointStop  offset="0.2475" style="stop-color:#E75346"/>
	<a:midPointStop  offset="0.5" style="stop-color:#E75346"/>
	<a:midPointStop  offset="0.4352" style="stop-color:#EE6155"/>
	<a:midPointStop  offset="0.5" style="stop-color:#EE6155"/>
	<a:midPointStop  offset="0.6572" style="stop-color:#F3695D"/>
	<a:midPointStop  offset="0.5" style="stop-color:#F3695D"/>
	<a:midPointStop  offset="1" style="stop-color:#F46C60"/>
</linearGradient>
<path fill="url(#SVGID_4_)" d="M26,51.836c1.736,0.787,3.734,1.252,5.999,1.252c2.267,0,4.265-0.465,6.001-1.252
	c0,0-3.002-2.311-6.001-0.811C29.001,49.525,26,51.836,26,51.836z"/>
<linearGradient id="SVGID_5_" gradientUnits="userSpaceOnUse" x1="294" y1="-345.1045" x2="318" y2="-345.1045" gradientTransform="matrix(1 0 0 -1 -274 -298)">
	<stop  offset="0" style="stop-color:#CFD7E6"/>
	<stop  offset="0.0368" style="stop-color:#DAE0EC"/>
	<stop  offset="0.1263" style="stop-color:#EEF1F6"/>
	<stop  offset="0.2147" style="stop-color:#FBFCFD"/>
	<stop  offset="0.3" style="stop-color:#FFFFFF"/>
	<stop  offset="0.7" style="stop-color:#FFFFFF"/>
	<stop  offset="0.7853" style="stop-color:#FBFCFD"/>
	<stop  offset="0.8737" style="stop-color:#EEF1F6"/>
	<stop  offset="0.9632" style="stop-color:#DAE0EC"/>
	<stop  offset="1" style="stop-color:#CFD7E6"/>
	<a:midPointStop  offset="0" style="stop-color:#CFD7E6"/>
	<a:midPointStop  offset="0.5" style="stop-color:#CFD7E6"/>
	<a:midPointStop  offset="0.0368" style="stop-color:#DAE0EC"/>
	<a:midPointStop  offset="0.5" style="stop-color:#DAE0EC"/>
	<a:midPointStop  offset="0.1263" style="stop-color:#EEF1F6"/>
	<a:midPointStop  offset="0.5" style="stop-color:#EEF1F6"/>
	<a:midPointStop  offset="0.2147" style="stop-color:#FBFCFD"/>
	<a:midPointStop  offset="0.5" style="stop-color:#FBFCFD"/>
	<a:midPointStop  offset="0.3" style="stop-color:#FFFFFF"/>
	<a:midPointStop  offset="0.5" style="stop-color:#FFFFFF"/>
	<a:midPointStop  offset="0.7" style="stop-color:#FFFFFF"/>
	<a:midPointStop  offset="0.5" style="stop-color:#FFFFFF"/>
	<a:midPointStop  offset="0.7853" style="stop-color:#FBFCFD"/>
	<a:midPointStop  offset="0.5" style="stop-color:#FBFCFD"/>
	<a:midPointStop  offset="0.8737" style="stop-color:#EEF1F6"/>
	<a:midPointStop  offset="0.5" style="stop-color:#EEF1F6"/>
	<a:midPointStop  offset="0.9632" style="stop-color:#DAE0EC"/>
	<a:midPointStop  offset="0.5" style="stop-color:#DAE0EC"/>
	<a:midPointStop  offset="1" style="stop-color:#CFD7E6"/>
</linearGradient>
<path fill="url(#SVGID_5_)" d="M32,47.088c-6,0-12-2-12-2s0.167,1.906,2,4c0.262,0.301,0.477-1.5,0.477-1.5s4.561,1.5,9.523,1.5
	c4.965,0,9.375-1.5,9.375-1.5s0.361,1.801,0.625,1.5c1.836-2.1,2-4,2-4S38,47.088,32,47.088z"/>
<path fill="#BB7A0A" d="M36.707,37.84c-0.943-1.002-8.473-1.002-9.415,0c-1.444,1.527,2.842,5.248,4.708,5.248
	C33.865,43.088,38.152,39.367,36.707,37.84z"/>
<radialGradient id="SVGID_6_" cx="-844.0923" cy="866.4434" r="4.6282" gradientTransform="matrix(2.8617 0.5046 0.5364 -3.0419 1997.3265 3082.7559)" gradientUnits="userSpaceOnUse">
	<stop  offset="0.4182" style="stop-color:#FF1C23"/>
	<stop  offset="0.6332" style="stop-color:#F8151A"/>
	<stop  offset="0.986" style="stop-color:#E40201"/>
	<stop  offset="1" style="stop-color:#E30100"/>
	<a:midPointStop  offset="0.4182" style="stop-color:#FF1C23"/>
	<a:midPointStop  offset="0.5" style="stop-color:#FF1C23"/>
	<a:midPointStop  offset="0.6332" style="stop-color:#F8151A"/>
	<a:midPointStop  offset="0.5" style="stop-color:#F8151A"/>
	<a:midPointStop  offset="0.986" style="stop-color:#E40201"/>
	<a:midPointStop  offset="0.5" style="stop-color:#E40201"/>
	<a:midPointStop  offset="1" style="stop-color:#E30100"/>
</radialGradient>
<path fill="url(#SVGID_6_)" d="M46.23,22.594c-2.323-5.864-11.694-5.387-12.866,1.259c-0.786,4.457,2.842,8.173,9.79,16.185
	c9.27-5.152,13.951-7.402,14.737-11.859C59.064,21.532,50.419,17.878,46.23,22.594z"/>
<radialGradient id="SVGID_7_" cx="-883.0581" cy="806.6152" r="4.6277" gradientTransform="matrix(2.8617 -0.5046 -0.5364 -3.0419 2977.3032 2029.2206)" gradientUnits="userSpaceOnUse">
	<stop  offset="0.4182" style="stop-color:#FF1C23"/>
	<stop  offset="0.6332" style="stop-color:#F8151A"/>
	<stop  offset="0.986" style="stop-color:#E40201"/>
	<stop  offset="1" style="stop-color:#E30100"/>
	<a:midPointStop  offset="0.4182" style="stop-color:#FF1C23"/>
	<a:midPointStop  offset="0.5" style="stop-color:#FF1C23"/>
	<a:midPointStop  offset="0.6332" style="stop-color:#F8151A"/>
	<a:midPointStop  offset="0.5" style="stop-color:#F8151A"/>
	<a:midPointStop  offset="0.986" style="stop-color:#E40201"/>
	<a:midPointStop  offset="0.5" style="stop-color:#E40201"/>
	<a:midPointStop  offset="1" style="stop-color:#E30100"/>
</radialGradient>
<path fill="url(#SVGID_7_)" d="M17.768,22.594c-4.188-4.717-12.832-1.062-11.659,5.584c0.786,4.456,5.467,6.707,14.735,11.859
	c6.946-8.011,10.578-11.728,9.792-16.185C29.464,17.207,20.092,16.729,17.768,22.594z"/>
</svg>
