<?xml version="1.0" encoding="utf-8"?>
<!-- Generator: Adobe Illustrator 15.0.0, SVG Export Plug-In . SVG Version: 6.00 Build 0)  -->
<!DOCTYPE svg PUBLIC "-//W3C//DTD SVG 1.1//EN" "http://www.w3.org/Graphics/SVG/1.1/DTD/svg11.dtd" [
	<!ENTITY ns_flows "http://ns.adobe.com/Flows/1.0/">
	<!ENTITY ns_extend "http://ns.adobe.com/Extensibility/1.0/">
	<!ENTITY ns_ai "http://ns.adobe.com/AdobeIllustrator/10.0/">
	<!ENTITY ns_graphs "http://ns.adobe.com/Graphs/1.0/">
]>
<svg version="1.1" id="Layer_1" xmlns:x="&ns_extend;" xmlns:i="&ns_ai;" xmlns:graph="&ns_graphs;"
	 xmlns="http://www.w3.org/2000/svg" xmlns:xlink="http://www.w3.org/1999/xlink" xmlns:a="http://ns.adobe.com/AdobeSVGViewerExtensions/3.0/"
	 x="0px" y="0px" width="64px" height="64px" viewBox="0 0 64 64" enable-background="new 0 0 64 64" xml:space="preserve">
<linearGradient id="SVGID_1_" gradientUnits="userSpaceOnUse" x1="32.0005" y1="62" x2="32.0005" y2="2.0005">
	<stop  offset="0" style="stop-color:#FFA027"/>
	<stop  offset="0.2723" style="stop-color:#FFC151"/>
	<stop  offset="0.7633" style="stop-color:#FFC93F"/>
	<stop  offset="1" style="stop-color:#FFE261"/>
	<a:midPointStop  offset="0" style="stop-color:#FFA027"/>
	<a:midPointStop  offset="0.5" style="stop-color:#FFA027"/>
	<a:midPointStop  offset="0.2723" style="stop-color:#FFC151"/>
	<a:midPointStop  offset="0.5" style="stop-color:#FFC151"/>
	<a:midPointStop  offset="0.7633" style="stop-color:#FFC93F"/>
	<a:midPointStop  offset="0.5" style="stop-color:#FFC93F"/>
	<a:midPointStop  offset="1" style="stop-color:#FFE261"/>
</linearGradient>
<circle fill="url(#SVGID_1_)" cx="32" cy="32" r="30"/>
<path fill="#302C3B" d="M45.813,35.379c-2.113,0-4.332-0.822-6.354-2.844c-3.576-3.574-2.816-8.191-0.287-10.723
	c2.197-2.199,6.018-3.105,9.217,0.092c2.297,2.297,1.859,5.213,0.281,6.789c-1.404,1.404-3.844,1.807-5.793-0.141
	c-0.586-0.586-0.586-1.537,0-2.121c0.586-0.586,1.535-0.586,2.121,0c0.699,0.697,1.23,0.461,1.551,0.141
	c0.547-0.545,0.689-1.574-0.281-2.547c-1.867-1.867-3.795-1.273-4.975-0.094c-1.492,1.494-2.037,4.158,0.287,6.482
	c3.205,3.205,6.707,1.979,8.73-0.045c2.713-2.713,3.512-7.406-0.213-11.131c-4.32-4.318-9.895-2.609-13.502,1
	c-0.586,0.586-1.535,0.586-2.121,0s-0.586-1.535,0-2.121c5.516-5.518,12.814-5.93,17.744-1c5.063,5.063,3.889,11.699,0.213,15.373
	C50.725,34.199,48.344,35.379,45.813,35.379z"/>
<path fill="#302C3B" d="M21.955,36.396c-7.801,0-13.252-4.869-13.254-11.84c0-7.16,5.523-11.023,10.719-11.023
	c0.002,0,0.002,0,0.002,0c4.434,0,9.205,2.861,9.205,9.143c0,5.055-3.801,7.785-7.381,7.785c0,0,0,0-0.002,0
	c-3.105,0.002-6.447-2.059-6.449-6.582c0-3.248,2.371-5,4.6-5c0.002,0,0,0,0.002,0c1.986,0,3.996,1.441,3.996,4.197
	c0,0.828-0.672,1.5-1.5,1.5s-1.5-0.672-1.5-1.5c0-0.99-0.543-1.197-0.998-1.197l0,0c-0.77,0-1.6,0.625-1.6,2
	c0,2.641,1.781,3.582,3.449,3.582h0.002c2.109,0,4.381-1.498,4.381-4.785c0-4.533-3.344-6.143-6.205-6.143
	c-3.836,0-7.721,2.756-7.721,8.023c0.002,6.105,5.15,8.84,10.254,8.84l0,0c0.828,0,1.5,0.67,1.5,1.5
	C23.455,35.725,22.783,36.396,21.955,36.396z"/>
<path fill="#302C3B" d="M39,48.119c0,9.674-14,9.674-14,0v-1.238c0-9.674,14-9.674,14,0V48.119z"/>
<linearGradient id="SVGID_2_" gradientUnits="userSpaceOnUse" x1="27.332" y1="42.4824" x2="36.668" y2="42.4824">
	<stop  offset="0" style="stop-color:#CFD7E6"/>
	<stop  offset="0.0368" style="stop-color:#DAE0EC"/>
	<stop  offset="0.1263" style="stop-color:#EEF1F6"/>
	<stop  offset="0.2147" style="stop-color:#FBFCFD"/>
	<stop  offset="0.3" style="stop-color:#FFFFFF"/>
	<stop  offset="0.7" style="stop-color:#FFFFFF"/>
	<stop  offset="0.7853" style="stop-color:#FBFCFD"/>
	<stop  offset="0.8737" style="stop-color:#EEF1F6"/>
	<stop  offset="0.9632" style="stop-color:#DAE0EC"/>
	<stop  offset="1" style="stop-color:#CFD7E6"/>
	<a:midPointStop  offset="0" style="stop-color:#CFD7E6"/>
	<a:midPointStop  offset="0.3" style="stop-color:#CFD7E6"/>
	<a:midPointStop  offset="0.3" style="stop-color:#FFFFFF"/>
	<a:midPointStop  offset="0.5" style="stop-color:#FFFFFF"/>
	<a:midPointStop  offset="0.7" style="stop-color:#FFFFFF"/>
	<a:midPointStop  offset="0.7" style="stop-color:#FFFFFF"/>
	<a:midPointStop  offset="1" style="stop-color:#CFD7E6"/>
</linearGradient>
<path fill="url(#SVGID_2_)" d="M27.332,44c0.932-1.813,2.674-3.035,4.666-3.035c1.996,0,3.736,1.221,4.67,3.035H27.332z"/>
<linearGradient id="SVGID_3_" gradientUnits="userSpaceOnUse" x1="32.0005" y1="53.8574" x2="32.0005" y2="51.2588">
	<stop  offset="0" style="stop-color:#D63324"/>
	<stop  offset="0.0798" style="stop-color:#DC3F31"/>
	<stop  offset="0.2475" style="stop-color:#E75346"/>
	<stop  offset="0.4352" style="stop-color:#EE6155"/>
	<stop  offset="0.6572" style="stop-color:#F3695D"/>
	<stop  offset="1" style="stop-color:#F46C60"/>
	<a:midPointStop  offset="0" style="stop-color:#D63324"/>
	<a:midPointStop  offset="0.2121" style="stop-color:#D63324"/>
	<a:midPointStop  offset="1" style="stop-color:#F46C60"/>
</linearGradient>
<path fill="url(#SVGID_3_)" d="M28.332,52.592c1.061,0.799,2.283,1.266,3.668,1.266c1.386,0,2.607-0.467,3.668-1.266
	c0,0-1.834-2.338-3.668-0.82C30.166,50.254,28.332,52.592,28.332,52.592z"/>
</svg>
