<?xml version="1.0" encoding="utf-8"?>
<!-- Generator: Adobe Illustrator 15.0.0, SVG Export Plug-In . SVG Version: 6.00 Build 0)  -->
<!DOCTYPE svg PUBLIC "-//W3C//DTD SVG 1.1//EN" "http://www.w3.org/Graphics/SVG/1.1/DTD/svg11.dtd" [
	<!ENTITY ns_flows "http://ns.adobe.com/Flows/1.0/">
	<!ENTITY ns_extend "http://ns.adobe.com/Extensibility/1.0/">
	<!ENTITY ns_ai "http://ns.adobe.com/AdobeIllustrator/10.0/">
	<!ENTITY ns_graphs "http://ns.adobe.com/Graphs/1.0/">
]>
<svg version="1.1" id="Layer_1" xmlns:x="&ns_extend;" xmlns:i="&ns_ai;" xmlns:graph="&ns_graphs;"
	 xmlns="http://www.w3.org/2000/svg" xmlns:xlink="http://www.w3.org/1999/xlink" xmlns:a="http://ns.adobe.com/AdobeSVGViewerExtensions/3.0/"
	 x="0px" y="0px" width="64px" height="64px" viewBox="0 0 64 64" enable-background="new 0 0 64 64" xml:space="preserve">
<path fill="#F9C302" d="M57.938,3c0,0,3.946,13.765-1.084,28.749L33.741,15.928C38.335,11.227,47.653,4.348,57.938,3z"/>
<linearGradient id="SVGID_1_" gradientUnits="userSpaceOnUse" x1="795.3213" y1="-317.0059" x2="811.9717" y2="-317.0059" gradientTransform="matrix(-1 0 0 -1 853.834 -298)">
	<stop  offset="0" style="stop-color:#AB5C10;stop-opacity:0.3"/>
	<stop  offset="0.0089" style="stop-color:#AB5C10;stop-opacity:0.3075"/>
	<stop  offset="0.5002" style="stop-color:#96510E;stop-opacity:0.7217"/>
	<stop  offset="0.8303" style="stop-color:#8F4D0D"/>
	<a:midPointStop  offset="0" style="stop-color:#AB5C10;stop-opacity:0.3"/>
	<a:midPointStop  offset="0.5" style="stop-color:#AB5C10;stop-opacity:0.3"/>
	<a:midPointStop  offset="0.0089" style="stop-color:#AB5C10;stop-opacity:0.3075"/>
	<a:midPointStop  offset="0.5" style="stop-color:#AB5C10;stop-opacity:0.3075"/>
	<a:midPointStop  offset="0.5002" style="stop-color:#96510E;stop-opacity:0.7217"/>
	<a:midPointStop  offset="0.5" style="stop-color:#96510E;stop-opacity:0.7217"/>
	<a:midPointStop  offset="0.8303" style="stop-color:#8F4D0D"/>
</linearGradient>
<path fill="url(#SVGID_1_)" d="M55.905,33.006L41.862,16.463c0,0,4.896-5.842,15.539-11.457
	C60.589,17.705,55.905,33.006,55.905,33.006z"/>
<path fill="#F9C302" d="M6.063,3c0,0-3.947,13.765,1.084,28.749l23.113-15.821C25.667,11.227,16.349,4.348,6.063,3z"/>
<linearGradient id="SVGID_2_" gradientUnits="userSpaceOnUse" x1="1326.1738" y1="-317.0059" x2="1342.8252" y2="-317.0059" gradientTransform="matrix(1 0 0 -1 -1320.6855 -298)">
	<stop  offset="0" style="stop-color:#AB5C10;stop-opacity:0.3"/>
	<stop  offset="0.0089" style="stop-color:#AB5C10;stop-opacity:0.3075"/>
	<stop  offset="0.5002" style="stop-color:#96510E;stop-opacity:0.7217"/>
	<stop  offset="0.8303" style="stop-color:#8F4D0D"/>
	<a:midPointStop  offset="0" style="stop-color:#AB5C10;stop-opacity:0.3"/>
	<a:midPointStop  offset="0.5" style="stop-color:#AB5C10;stop-opacity:0.3"/>
	<a:midPointStop  offset="0.0089" style="stop-color:#AB5C10;stop-opacity:0.3075"/>
	<a:midPointStop  offset="0.5" style="stop-color:#AB5C10;stop-opacity:0.3075"/>
	<a:midPointStop  offset="0.5002" style="stop-color:#96510E;stop-opacity:0.7217"/>
	<a:midPointStop  offset="0.5" style="stop-color:#96510E;stop-opacity:0.7217"/>
	<a:midPointStop  offset="0.8303" style="stop-color:#8F4D0D"/>
</linearGradient>
<path fill="url(#SVGID_2_)" d="M8.097,33.006L22.14,16.463c0,0-4.896-5.842-15.539-11.457C3.411,17.705,8.097,33.006,8.097,33.006z"
	/>
<linearGradient id="SVGID_3_" gradientUnits="userSpaceOnUse" x1="306" y1="-359" x2="306" y2="-306.8516" gradientTransform="matrix(1 0 0 -1 -274 -298)">
	<stop  offset="0" style="stop-color:#F9B700"/>
	<stop  offset="0.7212" style="stop-color:#F9C802"/>
	<a:midPointStop  offset="0" style="stop-color:#F9B700"/>
	<a:midPointStop  offset="0.5" style="stop-color:#F9B700"/>
	<a:midPointStop  offset="0.7212" style="stop-color:#F9C802"/>
</linearGradient>
<path fill="url(#SVGID_3_)" d="M32,8.852c-24.864,0-30,33.957-30,33.957c2.583,7.811,14.583,15.637,21.665,15.637
	C26.241,60.148,29.12,61,32,61c2.879,0,5.758-0.852,8.336-2.555c7.082,0,19.082-7.828,21.664-15.637
	C62,42.809,56.863,8.852,32,8.852z"/>
<path fill="#F9C802" d="M10.136,14.359c3.466,1.218,4.025,2.076,4.025,2.076s-2.591-0.242-5.211,0.929
	c1.598,0.715,2.184,2.519,2.184,2.519s-1.354-0.107-2.802,0.465c1.191,1.012,1.091,2.881,1.091,2.881l9.211-10.207
	C18.634,13.021,14.137,12.502,10.136,14.359z"/>
<path fill="#F9C802" d="M53.863,14.359c-3.465,1.218-4.023,2.076-4.023,2.076s2.59-0.242,5.211,0.929
	c-1.598,0.715-2.184,2.519-2.184,2.519s1.352-0.107,2.801,0.465c-1.191,1.012-1.09,2.881-1.09,2.881l-9.211-10.207
	C45.367,13.021,49.863,12.502,53.863,14.359z"/>
<path fill="#DE9400" d="M33.951,8.936C33.313,8.889,32.667,8.852,32,8.852s-1.313,0.037-1.951,0.084
	C30.611,15.854,31.936,24.42,32,25.258C32.064,24.42,33.391,15.852,33.951,8.936z"/>
<path fill="#DE9400" d="M40,10.175c-0.857-0.298-1.75-0.542-2.674-0.741c1.998,5.549,3.01,10.676,2.963,10.662
	C40.27,20.118,40.67,15.458,40,10.175z"/>
<path fill="#DE9400" d="M23.711,20.096c-0.048,0.014,0.965-5.115,2.963-10.662c-0.923,0.199-1.816,0.443-2.675,0.741
	C23.33,15.458,23.73,20.116,23.711,20.096z"/>
<path fill="#DE9400" d="M61.375,44.332c0.244-0.508,0.457-1.016,0.625-1.523c0,0-0.078-0.512-0.256-1.395
	c-5.65,0.496-12.045,1.426-12.713,1.477C49.684,42.938,55.82,43.832,61.375,44.332z"/>
<path fill="#DE9400" d="M53.443,47.16c-0.019-0.012,2.713,0.207,6.215-0.023c0.443-0.596,0.824-1.199,1.174-1.809
	C56.805,46.57,53.434,47.195,53.443,47.16z"/>
<path fill="#DE9400" d="M53.443,38.617c-0.01-0.035,3.795,0.672,8.147,2.074c-0.118-0.553-0.271-1.199-0.45-1.926
	C56.957,38.348,53.426,38.633,53.443,38.617z"/>
<path fill="#DE9400" d="M2.625,44.332c5.555-0.502,11.689-1.395,12.343-1.441c-0.667-0.051-7.063-0.979-12.712-1.477
	C2.078,42.297,2,42.809,2,42.809C2.168,43.316,2.381,43.824,2.625,44.332z"/>
<path fill="#DE9400" d="M10.557,38.617c0.021,0.016-3.514-0.27-7.695,0.148c-0.184,0.727-0.332,1.373-0.452,1.926
	C6.764,39.289,10.566,38.582,10.557,38.617z"/>
<path fill="#DE9400" d="M10.557,47.16c0.01,0.035-3.361-0.59-7.39-1.832c0.351,0.607,0.731,1.211,1.174,1.807
	C7.842,47.367,10.572,47.148,10.557,47.16z"/>
<ellipse fill="#302C3B" cx="43.5" cy="32" rx="3.5" ry="5"/>
<ellipse fill="#302C3B" cx="20.5" cy="32" rx="3.5" ry="5"/>
<path fill="#302C3B" d="M45.074,43c-0.266,0-5.477,2-13.074,2s-12.811-2-13.074-2C18.322,43,18,43.379,18,43.75
	C18,49.203,22.909,55,32.001,55C41.094,55,46,49.203,46,43.75C46,43.379,45.68,43,45.074,43z"/>
<linearGradient id="SVGID_4_" gradientUnits="userSpaceOnUse" x1="306" y1="-351" x2="306" y2="-348.4312" gradientTransform="matrix(1 0 0 -1 -274 -298)">
	<stop  offset="0" style="stop-color:#D63324"/>
	<stop  offset="0.0798" style="stop-color:#DC3F31"/>
	<stop  offset="0.2475" style="stop-color:#E75346"/>
	<stop  offset="0.4352" style="stop-color:#EE6155"/>
	<stop  offset="0.6572" style="stop-color:#F3695D"/>
	<stop  offset="1" style="stop-color:#F46C60"/>
	<a:midPointStop  offset="0" style="stop-color:#D63324"/>
	<a:midPointStop  offset="0.5" style="stop-color:#D63324"/>
	<a:midPointStop  offset="0.0798" style="stop-color:#DC3F31"/>
	<a:midPointStop  offset="0.5" style="stop-color:#DC3F31"/>
	<a:midPointStop  offset="0.2475" style="stop-color:#E75346"/>
	<a:midPointStop  offset="0.5" style="stop-color:#E75346"/>
	<a:midPointStop  offset="0.4352" style="stop-color:#EE6155"/>
	<a:midPointStop  offset="0.5" style="stop-color:#EE6155"/>
	<a:midPointStop  offset="0.6572" style="stop-color:#F3695D"/>
	<a:midPointStop  offset="0.5" style="stop-color:#F3695D"/>
	<a:midPointStop  offset="1" style="stop-color:#F46C60"/>
</linearGradient>
<path fill="url(#SVGID_4_)" d="M26,51.748C27.736,52.535,29.734,53,31.999,53c2.267,0,4.265-0.465,6.001-1.252
	c0,0-3.002-2.311-6.001-0.811C29.001,49.438,26,51.748,26,51.748z"/>
<linearGradient id="SVGID_5_" gradientUnits="userSpaceOnUse" x1="294" y1="-345.0166" x2="318" y2="-345.0166" gradientTransform="matrix(1 0 0 -1 -274 -298)">
	<stop  offset="0" style="stop-color:#CFD7E6"/>
	<stop  offset="0.0368" style="stop-color:#DAE0EC"/>
	<stop  offset="0.1263" style="stop-color:#EEF1F6"/>
	<stop  offset="0.2147" style="stop-color:#FBFCFD"/>
	<stop  offset="0.3" style="stop-color:#FFFFFF"/>
	<stop  offset="0.7" style="stop-color:#FFFFFF"/>
	<stop  offset="0.7853" style="stop-color:#FBFCFD"/>
	<stop  offset="0.8737" style="stop-color:#EEF1F6"/>
	<stop  offset="0.9632" style="stop-color:#DAE0EC"/>
	<stop  offset="1" style="stop-color:#CFD7E6"/>
	<a:midPointStop  offset="0" style="stop-color:#CFD7E6"/>
	<a:midPointStop  offset="0.5" style="stop-color:#CFD7E6"/>
	<a:midPointStop  offset="0.0368" style="stop-color:#DAE0EC"/>
	<a:midPointStop  offset="0.5" style="stop-color:#DAE0EC"/>
	<a:midPointStop  offset="0.1263" style="stop-color:#EEF1F6"/>
	<a:midPointStop  offset="0.5" style="stop-color:#EEF1F6"/>
	<a:midPointStop  offset="0.2147" style="stop-color:#FBFCFD"/>
	<a:midPointStop  offset="0.5" style="stop-color:#FBFCFD"/>
	<a:midPointStop  offset="0.3" style="stop-color:#FFFFFF"/>
	<a:midPointStop  offset="0.5" style="stop-color:#FFFFFF"/>
	<a:midPointStop  offset="0.7" style="stop-color:#FFFFFF"/>
	<a:midPointStop  offset="0.5" style="stop-color:#FFFFFF"/>
	<a:midPointStop  offset="0.7853" style="stop-color:#FBFCFD"/>
	<a:midPointStop  offset="0.5" style="stop-color:#FBFCFD"/>
	<a:midPointStop  offset="0.8737" style="stop-color:#EEF1F6"/>
	<a:midPointStop  offset="0.5" style="stop-color:#EEF1F6"/>
	<a:midPointStop  offset="0.9632" style="stop-color:#DAE0EC"/>
	<a:midPointStop  offset="0.5" style="stop-color:#DAE0EC"/>
	<a:midPointStop  offset="1" style="stop-color:#CFD7E6"/>
</linearGradient>
<path fill="url(#SVGID_5_)" d="M32,47c-6,0-12-2-12-2s0.167,1.906,2,4c0.262,0.301,0.477-1.5,0.477-1.5S27.037,49,32,49
	c4.965,0,9.375-1.5,9.375-1.5S41.736,49.301,42,49c1.836-2.1,2-4,2-4S38,47,32,47z"/>
<path fill="#BB7A0A" d="M36.707,37.752c-0.943-1.002-8.473-1.002-9.415,0C25.848,39.279,30.134,43,32,43
	C33.865,43,38.152,39.279,36.707,37.752z"/>
<path id="Shape_51_" fill="#6E8189" d="M42.836,29.873c0,1.499-1.818,1.499-1.818,0S42.836,28.374,42.836,29.873L42.836,29.873z"/>
<path id="Shape_54_" fill="#6E8189" d="M19.836,29.873c0,1.499-1.818,1.499-1.818,0S19.836,28.374,19.836,29.873L19.836,29.873z"/>
</svg>
