<?xml version="1.0" encoding="utf-8"?>
<!-- Generator: Adobe Illustrator 15.0.0, SVG Export Plug-In . SVG Version: 6.00 Build 0)  -->
<!DOCTYPE svg PUBLIC "-//W3C//DTD SVG 1.1//EN" "http://www.w3.org/Graphics/SVG/1.1/DTD/svg11.dtd" [
	<!ENTITY ns_flows "http://ns.adobe.com/Flows/1.0/">
	<!ENTITY ns_extend "http://ns.adobe.com/Extensibility/1.0/">
	<!ENTITY ns_ai "http://ns.adobe.com/AdobeIllustrator/10.0/">
	<!ENTITY ns_graphs "http://ns.adobe.com/Graphs/1.0/">
]>
<svg version="1.1" id="Layer_1" xmlns:x="&ns_extend;" xmlns:i="&ns_ai;" xmlns:graph="&ns_graphs;"
	 xmlns="http://www.w3.org/2000/svg" xmlns:xlink="http://www.w3.org/1999/xlink" xmlns:a="http://ns.adobe.com/AdobeSVGViewerExtensions/3.0/"
	 x="0px" y="0px" width="64px" height="64px" viewBox="0 0 64 64" enable-background="new 0 0 64 64" xml:space="preserve">
<linearGradient id="SVGID_1_" gradientUnits="userSpaceOnUse" x1="32.0005" y1="59.8223" x2="32.0005" y2="2.0005">
	<stop  offset="0" style="stop-color:#FFA027"/>
	<stop  offset="0.4364" style="stop-color:#FFC548"/>
	<stop  offset="1" style="stop-color:#61B3FF"/>
	<a:midPointStop  offset="0" style="stop-color:#FFA027"/>
	<a:midPointStop  offset="0.5" style="stop-color:#FFA027"/>
	<a:midPointStop  offset="0.4364" style="stop-color:#FFC548"/>
	<a:midPointStop  offset="0.5" style="stop-color:#FFC548"/>
	<a:midPointStop  offset="1" style="stop-color:#61B3FF"/>
</linearGradient>
<path fill="url(#SVGID_1_)" d="M32,2C16.534,2,4,14.76,4,30.5c0,3.75,1.931,4.833,1.931,4.833S21.752,50.238,25.256,56.73
	c2.222,4.121,11.267,4.124,13.488,0c3.502-6.494,19.325-21.397,19.325-21.397S60,34.25,60,30.5C60,14.76,47.466,2,32,2z"/>
<ellipse transform="matrix(0.866 -0.5 0.5 0.866 -6.1718 24.9665)" fill="#FFFFFF" cx="43.5" cy="24" rx="7.546" ry="9.432"/>
<ellipse transform="matrix(0.866 0.5001 -0.5001 0.866 14.7487 -7.0348)" fill="#FFFFFF" cx="20.5" cy="24" rx="7.546" ry="9.431"/>
<linearGradient id="SVGID_2_" gradientUnits="userSpaceOnUse" x1="32.0005" y1="55.8828" x2="32.0005" y2="33.8828">
	<stop  offset="0.1273" style="stop-color:#AB5C10"/>
	<stop  offset="0.1649" style="stop-color:#A25813"/>
	<stop  offset="0.3464" style="stop-color:#794921"/>
	<stop  offset="0.5245" style="stop-color:#593C2D"/>
	<stop  offset="0.6958" style="stop-color:#423335"/>
	<stop  offset="0.8577" style="stop-color:#352E39"/>
	<stop  offset="1" style="stop-color:#302C3B"/>
	<a:midPointStop  offset="0.1273" style="stop-color:#AB5C10"/>
	<a:midPointStop  offset="0.3194" style="stop-color:#AB5C10"/>
	<a:midPointStop  offset="1" style="stop-color:#302C3B"/>
</linearGradient>
<path fill="url(#SVGID_2_)" d="M32,33.883c-3.418-0.067-8.598,17.067-4.479,20.915c1.547,1.446,7.41,1.446,8.957,0
	C40.598,50.95,35.418,33.815,32,33.883z"/>
<path fill="#FFFFFF" d="M5,35.131c0-3.788,4.557-3.753,5.075,0c1.631,11.803,6.108,9.9,10.469,13.829
	c2.783,2.508,3.594,4.939,3.594,12.04H13.673v-5.699C11.377,54.073,5,52.304,5,35.131z"/>
<path fill="#99A8AE" d="M18.122,45.876c-4.146-2.81-6.141-4.254-7.057-10.882c-0.35-2.536-2.18-3.691-3.73-3.691
	C5.678,31.303,4,32.618,4,35.131c0,15.384,6.117,19.474,8.672,20.773L12.673,62h12.465C25.138,51.266,22.417,48.786,18.122,45.876z
	 M6,35.131c0-1.348,0.689-1.828,1.335-1.828c0.735,0,1.563,0.607,1.75,1.965c1.103,7.98,3.689,9.4,7.915,12.265
	c3.611,2.444,6.027,4.355,6.132,12.468h-8.459v-5.299C11.742,53.064,6,50.236,6,35.131z"/>
<path fill="#FFFFFF" d="M59,35.131c0-3.788-4.557-3.753-5.074,0c-1.632,11.804-6.108,9.899-10.469,13.829
	c-2.783,2.508-3.594,4.939-3.594,12.04h10.465v-5.699C52.625,54.072,59,52.305,59,35.131z"/>
<path fill="#99A8AE" d="M38.863,62h12.465v-6.096C53.886,54.604,60,50.516,60,35.131c0-2.513-1.678-3.828-3.334-3.828
	c-1.551,0-3.381,1.155-3.73,3.691c-0.917,6.628-2.913,8.073-7.057,10.882C41.584,48.786,38.863,51.266,38.863,62z M49.328,54.701V60
	h-8.459c0.104-8.112,2.52-10.023,6.131-12.468c4.229-2.865,6.813-4.284,7.916-12.265c0.188-1.357,1.014-1.965,1.75-1.965
	c0.645,0,1.334,0.48,1.334,1.828C58,50.236,52.258,53.064,49.328,54.701z"/>
</svg>
