<?xml version="1.0" encoding="utf-8"?>
<!-- Generator: Adobe Illustrator 19.0.0, SVG Export Plug-In . SVG Version: 6.00 Build 0)  -->
<svg version="1.1" id="Layer_1" xmlns="http://www.w3.org/2000/svg" xmlns:xlink="http://www.w3.org/1999/xlink" x="0px" y="0px"
	 width="64px" height="64px" viewBox="0 0 64 64" enable-background="new 0 0 64 64" xml:space="preserve">
<path fill="#40281F" d="M19.73,16.642c-8.131,34.903-7.389,34.155,9.73,34.155C19.988,44.17,38.134,16.167,19.73,16.642z"/>
<path fill="#4A2E24" d="M16.796,16.103c-5.934,26.518-0.814,33.327,3.732,34.694h5.209C13.548,42.21,32.603,15.58,16.796,16.103z"/>
<path fill="#40281F" d="M43.654,16.64c8.131,34.905,7.387,34.157-9.73,34.157C42.634,45.479,25.249,16.166,43.654,16.64z"/>
<path fill="#4A2E24" d="M46.585,16.101c8.674,24.127-0.018,33.579-3.732,34.696h-5.207C49.837,42.909,30.783,15.578,46.585,16.101z"
	/>
<path fill="#614036" d="M48.029,29.066c2.512,6.133,0.027,18.72-5.176,21.731c5.766,0,9.277-7.979,10.99-18.954
	C55.982,18.128,43.554,18.121,48.029,29.066z"/>
<path fill="#614036" d="M10.185,34.388c2.1,9.905,4.686,16.409,10.344,16.409c-6.309-6.531-5.566-20.308-3.773-23.735
	C25.894,21.623,6.632,17.632,10.185,34.388z"/>
<path fill="#916B50" d="M31.792,8.253c-10.836,0-16.055,8.824-15.402,20.172c0.133,2.281,0.767,5.57,1.551,8.391
	c1.625,5.857,10.201,11.757,13.852,11.757c3.648,0,12.227-5.899,13.85-11.757c0.785-2.82,1.418-6.109,1.555-8.391
	C47.845,17.078,42.63,8.253,31.792,8.253z"/>
<path fill="#423225" d="M43.734,24.302c-2.443-1.455-6.82-1.633-8.555-0.643c-0.367,0.201-0.268,1.254,0.049,1.121
	c2.473-1.029,6.236-1.08,8.557,0.109C44.097,25.048,44.103,24.513,43.734,24.302z"/>
<path fill="#423225" d="M19.853,24.302c2.439-1.455,6.818-1.633,8.555-0.643c0.365,0.201,0.27,1.254-0.051,1.121
	c-2.473-1.029-6.234-1.082-8.555,0.109C19.49,25.048,19.482,24.513,19.853,24.302z"/>
<path fill="#755035" d="M35.152,35.257c0,2.184-6.719,2.184-6.719,0C28.433,34.753,35.152,34.753,35.152,35.257z"/>
<path fill="#FFFFFF" d="M43.498,28.734c-1.447,3.789-7.338,3.234-8.414,0.582C35.9,25.052,42.701,24.689,43.498,28.734z"/>
<path fill="#613F34" d="M36.558,28.322c0,3.357,4.854,3.357,4.854,0C41.412,25.207,36.558,25.207,36.558,28.322z"/>
<path fill="#7D5037" d="M37.037,29.396c0,1.926,3.895,1.926,3.895,0C40.931,27.609,37.037,27.609,37.037,29.396z"/>
<path fill="#1A1626" d="M37.976,28.375c0,1.392,2.016,1.392,2.016,0C39.992,27.083,37.976,27.083,37.976,28.375z"/>
<path fill="#AB968C" d="M37.289,27.968c0,0.703,1.018,0.703,1.018,0C38.306,27.314,37.289,27.314,37.289,27.968z"/>
<path fill="#45332C" d="M43.498,28.705c0-4.07-8.414-4.07-8.414,0.645C36.281,25.48,42.296,25.48,43.498,28.705z"/>
<path fill="#FFFFFF" d="M20.087,28.734c1.449,3.789,7.338,3.234,8.418,0.582C27.687,25.052,20.886,24.689,20.087,28.734z"/>
<path fill="#613F34" d="M22.175,28.328c0,3.355,4.852,3.355,4.852,0C27.027,25.212,22.175,25.212,22.175,28.328z"/>
<path fill="#7D5037" d="M22.654,29.402c0,1.924,3.895,1.924,3.895,0C26.548,27.615,22.654,27.615,22.654,29.402z"/>
<path fill="#1A1626" d="M23.593,28.38c0,1.393,2.016,1.393,2.016,0C25.609,27.085,23.593,27.085,23.593,28.38z"/>
<path fill="#AB968C" d="M22.906,27.972c0,0.705,1.018,0.705,1.018,0C23.923,27.32,22.906,27.32,22.906,27.972z"/>
<path fill="#45332C" d="M20.087,28.705c0-4.07,8.418-4.07,8.418,0.643C27.304,25.478,21.291,25.478,20.087,28.705z"/>
<path fill="#614036" d="M43.9,9.832c-7.598,7.785-0.346,8.289,4.129,19.234c2.512,6.133,4.102,13.753,5.814,2.777
	C55.982,18.128,47.761,8.687,43.9,9.832z"/>
<path fill="#614036" d="M25.249,6.849C15.615,9.117,6.632,17.632,10.185,34.388c2.1,9.905,4.777-3.898,6.57-7.326
	c9.139-5.44,24.77-9.559,27.145-17.23C45.105,8.062,34.89,4.326,25.249,6.849z"/>
<path fill="#4A2E24" d="M17.867,19.056c4.074-0.826,23.566-1.217,26.033-9.225C39.294,13.503,34.521,14.501,17.867,19.056z"/>
<path fill="#4A2E24" d="M10.841,31.794C17.677,22.673,40.07,23.679,43.9,9.832C36.464,21.453,12.71,23.025,10.841,31.794z"/>
<path fill="#4A2E24" d="M41.648,11.73c-1.766,2.779,4.363-1.305,10.971,16.6C50.99,17.861,45.408,10.656,41.648,11.73z"/>
<path fill="#916B50" d="M6.691,24.314c0.834,0.66,14.072,9.346,14.072,9.346l-1.535,5.539c-4.371-2.609-7.332-5.307-13.692-12.566
	C4.361,25.291,5.285,23.207,6.691,24.314z"/>
<path fill="#5D1E96" d="M51.691,49.098c-6.387-6.27-34.113-6.896-39.807,0.012C7.101,54.917,13.529,62,13.529,62H50.05
	C50.05,62,56.974,54.286,51.691,49.098z"/>
<path fill="#916B50" d="M57.281,24.421c-0.846,0.658-14.303,9.344-14.303,9.344l1.563,5.539c4.443-2.609,7.451-5.307,13.914-12.567
	C59.65,25.396,58.71,23.312,57.281,24.421z"/>
<path fill="#8E3ED6" d="M40.939,44.086c2.09-1.894,5.744-5.452,5.744-5.452l-2.703-6.416c0,0-5.031,3.018-12.205,6.512
	c-7.174-3.494-12.205-6.512-12.205-6.512l-2.705,6.416c0,0,3.656,3.559,5.746,5.452C11.99,49.594,4.949,55.446,11.208,61.051
	c3.834,3.438,11.082-3.096,20.566-9.598c9.483,6.502,16.731,13.035,20.566,9.598C58.601,55.446,51.558,49.594,40.939,44.086z"/>
<linearGradient id="SVGID_1_" gradientUnits="userSpaceOnUse" x1="32.4926" y1="54.9755" x2="40.2284" y2="53.3325">
	<stop  offset="0" style="stop-color:#5D1E96"/>
	<stop  offset="0.1931" style="stop-color:#6C28AA"/>
	<stop  offset="0.4943" style="stop-color:#7F34C2"/>
	<stop  offset="0.7714" style="stop-color:#8A3BD1"/>
	<stop  offset="1" style="stop-color:#8E3ED6"/>
</linearGradient>
<path fill="url(#SVGID_1_)" d="M31.775,51.454l9.164-7.367l5.439,17.035C46.378,61.122,42.156,59.516,31.775,51.454z"/>
<linearGradient id="SVGID_2_" gradientUnits="userSpaceOnUse" x1="24.4201" y1="44.3639" x2="24.3378" y2="39.7017">
	<stop  offset="0" style="stop-color:#5D1E96"/>
	<stop  offset="0.1931" style="stop-color:#6C28AA"/>
	<stop  offset="0.4943" style="stop-color:#7F34C2"/>
	<stop  offset="0.7714" style="stop-color:#8A3BD1"/>
	<stop  offset="1" style="stop-color:#8E3ED6"/>
</linearGradient>
<path fill="url(#SVGID_2_)" d="M22.611,44.086l9.164-5.357l-14.91-0.096C16.865,38.634,19.753,41.705,22.611,44.086z"/>
</svg>
