<?xml version="1.0" encoding="utf-8"?>
<!-- Generator: Adobe Illustrator 19.0.0, SVG Export Plug-In . SVG Version: 6.00 Build 0)  -->
<svg version="1.1" id="Layer_1" xmlns="http://www.w3.org/2000/svg" xmlns:xlink="http://www.w3.org/1999/xlink" x="0px" y="0px"
	 width="64px" height="64px" viewBox="0 0 64 64" enable-background="new 0 0 64 64" xml:space="preserve">
<path fill="#7AB51D" d="M12.256,49.336c2.4-1.572,12.361-5.727,12.361-5.727h14.842c0,0,9.951,4.145,12.34,5.723
	C55.268,51.621,56,62,56,62H8C8,62,8.775,51.613,12.256,49.336z"/>
<path fill="#423225" d="M24.223,45.445c0,6.381,15.553,6.381,15.553,0c0-3.89,0-10.323,0-10.323H24.223
	C24.223,35.122,24.223,40.423,24.223,45.445z"/>
<path fill="#529320" d="M15,62h1C15.5,55.334,15.5,55.334,15,62z"/>
<path fill="#529320" d="M48,62h1C48.5,55.334,48.5,55.334,48,62z"/>
<path fill="#423225" d="M16.611,22.874c-5.147-0.928-1.127,13.463,2.902,9.494C21.379,30.526,19.018,23.309,16.611,22.874z"/>
<path fill="#423225" d="M47.391,22.874c-2.406,0.435-4.77,7.652-2.9,9.494C48.518,36.337,52.533,21.946,47.391,22.874z"/>
<path fill="#614A36" d="M32,6.001c-10.641,0-15.77,8.051-15.125,19.246c0.127,2.254,1.524,9.6,2.842,12.234
	c1.348,2.695,5.861,6.851,8.625,7.712c1.746,0.543,5.568,0.543,7.314,0c2.766-0.861,7.277-5.017,8.627-7.712
	c1.318-2.635,2.715-9.98,2.844-12.234C47.77,14.052,42.643,6.001,32,6.001z"/>
<path fill="#38332D" d="M32,6.001c-7.32,0-11.744,2.418-13.65,1.49c0,0-0.207,1.248,0.539,2.061c0,0-0.789,0.684-2.063-0.469
	c-1.213,3.939,2.389,6.221,15.174,6.221c12.787,0,9.732-3.113,16.018,2.355C47.4,10.919,43.119,6.001,32,6.001z"/>
<path fill="#26221E" d="M37.414,11.876c-7.039,2.6-9.613-2.088-16.254-2.541c3.158,1.492,4.701,3.787,7.295,5.443
	c-5.646-1.889-9.789-5.141-10.103-7.275c0,0-0.943,3.117,2.783,5.447c-3.563,0.33-4.307-3.855-4.307-3.855
	c-1.803,2.898-1.553,12.246,0.451,19.182c0.334-2.475-0.428-3.498,0.717-6.48c3.424-8.914,1.221-5.172,14.006-5.172
	s10.477-3.414,14.004,5.172c1.053,2.559,0.385,4.006,0.719,6.48C50.928,12.637,44.883,9.12,37.414,11.876z"/>
<path fill="#423225" d="M35.301,32.518c0,2.148-6.6,2.148-6.6,0C28.701,32.026,35.301,32.026,35.301,32.518z"/>
<path fill="#36281D" d="M27.385,40.038c2.813-1.746,6.422-1.746,9.232,0c0.399,0.246,0.447-0.018,0.324-0.23
	c-2.08-3.561-7.801-3.561-9.881,0C26.938,40.02,26.984,40.284,27.385,40.038z"/>
<path fill="#36281D" d="M43.945,22.899c-1.736-2.936-6.914-1.6-8.463-2.516c-0.357-0.105-0.449,1.189-0.152,1.279
	c2.291,0.797,6.719-0.658,8.344,2.021C43.898,24.007,44.213,23.321,43.945,22.899z"/>
<path fill="#36281D" d="M20.057,22.899c1.734-2.936,6.914-1.6,8.463-2.516c0.357-0.105,0.451,1.189,0.152,1.279
	c-2.291,0.797-6.717-0.658-8.344,2.021C20.104,24.007,19.787,23.321,20.057,22.899z"/>
<path fill="#FFFFFF" d="M43.395,26.114c-1.424,3.723-7.207,3.178-8.268,0.572C35.932,22.501,42.613,22.143,43.395,26.114z"/>
<path fill="#FFFFFF" d="M20.608,26.114c1.422,3.723,7.209,3.178,8.267,0.572C28.068,22.499,21.389,22.141,20.608,26.114z"/>
<path fill="#613F34" d="M36.604,26.323c0,3.266,4.725,3.266,4.725,0C41.328,23.29,36.604,23.29,36.604,26.323z"/>
<path fill="#7D5037" d="M37.07,27.37c0,1.871,3.791,1.871,3.791,0C40.861,25.632,37.07,25.632,37.07,27.37z"/>
<path fill="#1A1626" d="M37.984,26.374c0,1.355,1.963,1.355,1.963,0C39.947,25.118,37.984,25.118,37.984,26.374z"/>
<path fill="#AB968C" d="M37.314,25.977c0,0.685,0.992,0.685,0.992,0C38.307,25.345,37.314,25.345,37.314,25.977z"/>
<path fill="#613F34" d="M22.674,26.323c0,3.266,4.726,3.266,4.726,0C27.4,23.29,22.674,23.29,22.674,26.323z"/>
<path fill="#7D5037" d="M23.143,27.368c0,1.873,3.789,1.873,3.789,0C26.932,25.63,23.143,25.63,23.143,27.368z"/>
<path fill="#1A1626" d="M24.057,26.374c0,1.355,1.961,1.355,1.961,0C26.018,25.116,24.057,25.116,24.057,26.374z"/>
<path fill="#AB968C" d="M23.387,25.977c0,0.684,0.99,0.684,0.99,0C24.377,25.343,23.387,25.343,23.387,25.977z"/>
<path fill="#423225" d="M43.395,26.085c0-3.998-8.268-3.998-8.268,0.635C36.309,22.921,42.213,22.921,43.395,26.085z"/>
<path fill="#423225" d="M20.608,26.085c0-3.998,8.267-3.998,8.267,0.633C27.695,22.917,21.789,22.917,20.608,26.085z"/>
<rect x="18.707" y="28.276" fill="#614A36" width="26.588" height="2.48"/>
</svg>
