<?xml version="1.0" encoding="utf-8"?>
<!-- Generator: Adobe Illustrator 19.0.0, SVG Export Plug-In . SVG Version: 6.00 Build 0)  -->
<svg version="1.1" id="Layer_1" xmlns="http://www.w3.org/2000/svg" xmlns:xlink="http://www.w3.org/1999/xlink" x="0px" y="0px"
	 width="64px" height="64px" viewBox="0 0 64 64" enable-background="new 0 0 64 64" xml:space="preserve">
<path fill="#211E1A" d="M19.938,16.643c-8.131,34.903-7.389,34.155,9.73,34.155C20.195,44.171,38.342,16.168,19.938,16.643z"/>
<path fill="#26221E" d="M17.004,16.102c-5.934,26.52-0.814,33.329,3.733,34.696h5.209C13.756,42.211,32.811,15.58,17.004,16.102z"/>
<path fill="#211E1A" d="M43.861,16.641c8.131,34.905,7.387,34.157-9.73,34.157C42.842,45.478,25.457,16.166,43.861,16.641z"/>
<path fill="#26221E" d="M46.793,16.1c8.674,24.127-0.018,33.581-3.732,34.698h-5.207C50.045,42.909,30.99,15.578,46.793,16.1z"/>
<path fill="#38332D" d="M48.236,29.065c2.512,6.133,0.027,18.722-5.176,21.733c5.766,0,9.277-7.978,10.99-18.954
	C56.189,18.127,43.762,18.119,48.236,29.065z"/>
<path fill="#38332D" d="M10.393,34.389c2.1,9.905,4.686,16.409,10.344,16.409c-6.309-6.529-5.566-20.308-3.774-23.735
	C26.102,21.621,6.84,17.633,10.393,34.389z"/>
<path fill="#8E3ED6" d="M13.076,52.429c2.303-1.412,11.85-5.139,11.85-5.139h14.219c0,0,9.539,3.721,11.828,5.135
	C54.297,54.48,55,61.999,55,61.999H9C9,61.999,9.74,54.472,13.076,52.429z"/>
<path fill="#423225" d="M24.832,48.939c0,5.725,14.336,5.725,14.336,0c0-3.492,0-9.263,0-9.263H24.832
	C24.832,39.676,24.832,44.431,24.832,48.939z"/>
<path fill="#614A36" d="M32,8.254c-10.836,0-16.055,8.824-15.402,20.17c0.133,2.281,0.768,5.57,1.551,8.391
	C19.774,42.674,28.35,48.576,32,48.576c3.648,0,12.227-5.901,13.85-11.761c0.785-2.82,1.418-6.109,1.555-8.391
	C48.053,17.078,42.838,8.254,32,8.254z"/>
<path fill="#732EB0" d="M16,61.999h1C16.5,55.333,16.5,55.333,16,61.999z"/>
<path fill="#732EB0" d="M47,61.999h1C47.5,55.333,47.5,55.333,47,61.999z"/>
<path fill="#423225" d="M35.299,35.323c0,2.148-6.6,2.148-6.6,0C28.699,34.83,35.299,34.83,35.299,35.323z"/>
<path fill="#36281D" d="M27.385,42.843c2.811-1.747,6.422-1.747,9.23,0c0.398,0.246,0.449-0.02,0.324-0.23
	c-2.08-3.562-7.799-3.562-9.881,0C26.938,42.824,26.984,43.089,27.385,42.843z"/>
<path fill="#423225" d="M43.945,25.703c-1.736-2.936-6.916-1.599-8.465-2.516c-0.357-0.104-0.449,1.19-0.15,1.279
	c2.291,0.798,6.717-0.658,8.342,2.022C43.896,26.811,44.213,26.125,43.945,25.703z"/>
<path fill="#423225" d="M20.057,25.703c1.734-2.935,6.912-1.599,8.461-2.516c0.357-0.104,0.451,1.19,0.152,1.28
	c-2.289,0.796-6.717-0.659-8.344,2.022C20.102,26.811,19.787,26.125,20.057,25.703z"/>
<path fill="#FFFFFF" d="M43.705,28.973c-1.447,3.787-7.336,3.232-8.414,0.582C36.107,25.289,42.908,24.926,43.705,28.973z"/>
<path fill="#613F34" d="M36.766,29.161c0,3.356,4.854,3.356,4.854,0C41.619,26.044,36.766,26.044,36.766,29.161z"/>
<path fill="#7D5037" d="M37.246,30.234c0,1.926,3.893,1.926,3.893,0C41.139,28.449,37.246,28.449,37.246,30.234z"/>
<path fill="#1A1626" d="M38.186,29.214c0,1.393,2.014,1.393,2.014,0C40.199,27.921,38.186,27.921,38.186,29.214z"/>
<path fill="#AB968C" d="M37.496,28.808c0,0.703,1.018,0.703,1.018,0C38.514,28.154,37.496,28.154,37.496,28.808z"/>
<path fill="#45332C" d="M43.705,28.944c0-4.072-8.414-4.072-8.414,0.645C36.49,25.717,42.504,25.717,43.705,28.944z"/>
<path fill="#FFFFFF" d="M20.295,28.973c1.449,3.787,7.34,3.232,8.418,0.582C27.895,25.289,21.094,24.926,20.295,28.973z"/>
<path fill="#613F34" d="M22.383,29.161c0,3.356,4.851,3.356,4.851,0C27.234,26.044,22.383,26.044,22.383,29.161z"/>
<path fill="#7D5037" d="M22.861,30.234c0,1.924,3.894,1.924,3.894,0C26.756,28.449,22.861,28.449,22.861,30.234z"/>
<path fill="#1A1626" d="M23.801,29.214c0,1.393,2.018,1.393,2.018,0C25.818,27.919,23.801,27.919,23.801,29.214z"/>
<path fill="#AB968C" d="M23.113,28.806c0,0.705,1.018,0.705,1.018,0C24.131,28.154,23.113,28.154,23.113,28.806z"/>
<path fill="#45332C" d="M20.295,28.944c0-4.072,8.418-4.072,8.418,0.643C27.514,25.713,21.498,25.713,20.295,28.944z"/>
<rect x="18.705" y="31.08" fill="#614A36" width="26.588" height="2.48"/>
<path fill="#38332D" d="M44.107,9.832c-7.598,7.785-0.346,8.287,4.129,19.232c2.512,6.133,4.101,13.755,5.814,2.779
	C56.189,18.127,47.969,8.688,44.107,9.832z"/>
<path fill="#38332D" d="M25.457,6.85C15.822,9.118,6.84,17.633,10.393,34.389c2.1,9.905,4.777-3.898,6.57-7.326
	c9.139-5.441,24.77-9.561,27.145-17.23C45.313,8.061,35.098,4.325,25.457,6.85z"/>
<path fill="#26221E" d="M18.074,19.055c4.074-0.826,23.566-1.215,26.033-9.223C39.502,13.502,34.729,14.502,18.074,19.055z"/>
<path fill="#26221E" d="M11.049,31.795c6.836-9.123,29.229-8.117,33.059-21.963C36.672,21.453,12.918,23.024,11.049,31.795z"/>
<path fill="#26221E" d="M41.855,11.729c-1.766,2.781,4.363-1.303,10.971,16.6C51.197,17.862,45.615,10.657,41.855,11.729z"/>
</svg>
