<?xml version="1.0" encoding="utf-8"?>
<!-- Generator: Adobe Illustrator 15.0.0, SVG Export Plug-In . SVG Version: 6.00 Build 0)  -->
<!DOCTYPE svg PUBLIC "-//W3C//DTD SVG 1.1//EN" "http://www.w3.org/Graphics/SVG/1.1/DTD/svg11.dtd" [
	<!ENTITY ns_flows "http://ns.adobe.com/Flows/1.0/">
	<!ENTITY ns_extend "http://ns.adobe.com/Extensibility/1.0/">
	<!ENTITY ns_ai "http://ns.adobe.com/AdobeIllustrator/10.0/">
	<!ENTITY ns_graphs "http://ns.adobe.com/Graphs/1.0/">
]>
<svg version="1.1" id="Layer_1" xmlns:x="&ns_extend;" xmlns:i="&ns_ai;" xmlns:graph="&ns_graphs;"
	 xmlns="http://www.w3.org/2000/svg" xmlns:xlink="http://www.w3.org/1999/xlink" xmlns:a="http://ns.adobe.com/AdobeSVGViewerExtensions/3.0/"
	 x="0px" y="0px" width="64px" height="64px" viewBox="0 0 64 64" enable-background="new 0 0 64 64" xml:space="preserve">
<path fill="#594640" d="M53.27,32.984c8.59-14.546-9.578-19.142-11.655-12.188c0,0-4.203,21.328,12.622,21.026
	C52.056,40.819,50.06,38.419,53.27,32.984z"/>
<path fill="#453631" d="M49.244,20.392c-3.833-2.261-2.406-2.75,0.402-2.34c-3.395-1.071-7.034-0.322-7.988,2.517
	c-3.467,10.324-1.383,23.984,13.491,22.817C41.004,39.879,61.525,27.638,49.244,20.392z"/>
<path fill="#732EB0" d="M50.207,32.65c-7.478-3.534-28.937-3.534-36.414,0c-4.849,2.292-9.048,21.835,0.804,27.049h34.807
	C59.255,54.485,55.056,34.942,50.207,32.65z"/>
<path fill="#8E3ED6" d="M10.977,50.253c-0.823,0.322,1.021-1.995,4.64-1.771c5.296-8.278,3.319-19.104-2.177-15.637
	C8.152,36.181,2.672,51.827,4.288,55.271c2.211,4.715,14.063,5.593,14.063,5.593s0.457-3.727,4.363-6.169
	C15.648,50.606,16.123,48.24,10.977,50.253z"/>
<path fill="#FFCC66" d="M31.142,58.458c1.511-1.031-4.478-3.973-7.889-3.973c-5.042,0-10.097,7.592-1.531,6.564
	c3.751,0.406,5.7,1.847,5.852,0.122c0,0,0.768-0.131,1.598,0.304c0.856,0.452,1.973-0.58,1.244-1.209
	C32.228,60.335,32.078,58.756,31.142,58.458z"/>
<path fill="#E6B045" d="M23.732,59.201c0,0,5.438,1.051,3.571,2.63C28.15,60.552,23.732,59.201,23.732,59.201z"/>
<path fill="#E6B045" d="M24.857,57.905c0,0,7.413,1.784,5.547,3.365C31.25,59.991,24.857,57.905,24.857,57.905z"/>
<path fill="#E6B045" d="M25.878,56.366c0,0,7.454,1.352,5.793,3.458C32.397,58.096,25.878,56.366,25.878,56.366z"/>
<path fill="#8E3ED6" d="M53.023,50.253c0.823,0.322-1.021-1.995-4.64-1.771c-5.296-8.278-3.319-19.104,2.177-15.637
	c5.287,3.335,10.768,18.981,9.151,22.425c-2.211,4.715-14.063,5.593-14.063,5.593s-0.457-3.727-4.363-6.169
	C48.351,50.606,47.877,48.24,53.023,50.253z"/>
<path fill="#FFCC66" d="M32.858,58.458c-1.511-1.031,4.478-3.973,7.889-3.973c5.042,0,10.097,7.592,1.531,6.564
	c-3.751,0.406-5.7,1.847-5.852,0.122c0,0-0.768-0.131-1.598,0.304c-0.857,0.452-1.973-0.58-1.244-1.209
	C31.772,60.335,31.922,58.756,32.858,58.458z"/>
<path fill="#E6B045" d="M40.268,59.201c0,0-5.438,1.051-3.571,2.63C35.85,60.552,40.268,59.201,40.268,59.201z"/>
<path fill="#E6B045" d="M39.143,57.905c0,0-7.413,1.784-5.547,3.365C32.749,59.991,39.143,57.905,39.143,57.905z"/>
<path fill="#E6B045" d="M38.122,56.366c0,0-7.454,1.352-5.793,3.458C31.603,58.096,38.122,56.366,38.122,56.366z"/>
<path fill="#8E3ED6" d="M40.21,16.093c-4.556,2.47,6.588,14.779,8.557,6.987C49.872,18.701,43.101,14.513,40.21,16.093z"/>
<path fill="#594640" d="M32.001,13.999c-13.487,0-19.632,9.942-20.854,21.86c-0.649,6.317,0.788,7.66,5.958,11.423
	c6.09,4.434,23.702,4.434,29.791,0c5.17-3.763,6.607-5.105,5.959-11.423c-1.869-18.202-11.172-18.01-11.172-18.01
	S40.881,13.999,32.001,13.999z"/>
<path fill="#E6B045" d="M17.642,46.796c1.071-10.242-1.589-11.312-5.241-3.942C12.4,42.854,15.495,48.832,17.642,46.796z"/>
<path fill="#E6B045" d="M46.36,46.796c0.187-10.747-0.369-12.167,5.308-6.063C51.668,40.733,49.122,49.412,46.36,46.796z"/>
<path fill="#FFCC66" d="M49.116,38.016c-12.901-8.2-9.973-12.608-9.973-12.608C23.886,33.988,14.928,38.04,14.928,38.04
	s-0.005,0.728,1.103,6.676c1.082,5.808,10.079,9.283,15.971,9.283s14.891-3.476,15.971-9.283
	C49.079,38.765,49.116,38.016,49.116,38.016z"/>
<path fill="#453631" d="M12.402,42.866c4.876-9.004,24.545-8.541,27.6-19.241C28.056,33.715,13.952,32.936,12.402,42.866z"/>
<path fill="#453631" d="M51.667,40.733c-7.684-6.372-19.164-10.687-11.665-17.108C37.7,31.758,46.748,32.614,51.667,40.733z"/>
<path fill="#FFFFFF" d="M44.877,42.938c-1.605,4.207-8.146,3.589-9.342,0.646C36.442,38.854,43.995,38.449,44.877,42.938z"/>
<path fill="#613F34" d="M37.203,42.489c0,3.692,5.34,3.692,5.34,0C42.543,39.062,37.203,39.062,37.203,42.489z"/>
<path fill="#7D5037" d="M37.73,43.672c0,2.115,4.284,2.115,4.284,0C42.015,41.705,37.73,41.705,37.73,43.672z"/>
<path fill="#1A1626" d="M38.764,42.549c0,1.532,2.217,1.532,2.217,0C40.98,41.127,38.764,41.127,38.764,42.549z"/>
<path fill="#AB968C" d="M38.007,42.1c0,0.775,1.118,0.775,1.118,0C39.125,41.382,38.007,41.382,38.007,42.1z"/>
<path fill="#E6B045" d="M44.877,42.906c0-4.519-9.342-4.519-9.342,0.716C36.869,39.328,43.542,39.328,44.877,42.906z"/>
<path fill="#FFFFFF" d="M19.121,42.938c1.606,4.207,8.147,3.589,9.344,0.646C27.556,38.852,20.009,38.447,19.121,42.938z"/>
<path fill="#613F34" d="M21.458,42.488c0,3.692,5.34,3.692,5.34,0C26.798,39.062,21.458,39.062,21.458,42.488z"/>
<path fill="#7D5037" d="M21.985,43.67c0,2.117,4.285,2.117,4.285,0C26.271,41.705,21.985,41.705,21.985,43.67z"/>
<path fill="#1A1626" d="M23.02,42.547c0,1.533,2.217,1.533,2.217,0C25.236,41.125,23.02,41.125,23.02,42.547z"/>
<path fill="#AB968C" d="M22.263,42.099c0,0.774,1.119,0.774,1.119,0C23.382,41.38,22.263,41.38,22.263,42.099z"/>
<path fill="#E6B045" d="M19.121,42.906c0-4.519,9.344-4.519,9.344,0.714C27.133,39.326,20.456,39.326,19.121,42.906z"/>
<path fill="#C1873C" d="M45.741,38.326c-2.791-1.386-8.133-1.452-10.121-0.487c-0.429,0.188-0.146,1.501,0.213,1.375
	c2.773-1.027,7.245-1.053,9.841,0.087C46.019,39.448,46.162,38.519,45.741,38.326z"/>
<path fill="#C1873C" d="M18.259,38.326c2.791-1.386,8.131-1.452,10.121-0.487c0.426,0.188,0.146,1.501-0.213,1.375
	c-2.776-1.027-7.245-1.053-9.841,0.087C17.981,39.448,17.838,38.519,18.259,38.326z"/>
<path fill="#E6B045" d="M35.783,49.602c0,2.462-7.568,2.462-7.568,0C28.215,49.036,35.783,49.036,35.783,49.602z"/>
<path fill="#0FB4D4" d="M39.502,2.079c3.996,1.071-2.166,9.336-2.48,9.252C36.704,11.246,35.499,1.006,39.502,2.079z"/>
<path fill="#0FB4D4" d="M53.638,10.184c2.372,3.389-7.661,5.76-7.848,5.493C45.602,15.407,51.261,6.788,53.638,10.184z"/>
<path fill="#0FB4D4" d="M24.502,2.079c3.996-1.07,2.792,9.168,2.478,9.252C26.662,11.417,20.499,3.151,24.502,2.079z"/>
<path fill="#0FB4D4" d="M10.364,10.181c2.373-3.389,8.032,5.229,7.846,5.495C18.021,15.945,7.987,13.575,10.364,10.181z"/>
</svg>
