<?xml version="1.0" encoding="utf-8"?>
<!-- Generator: Adobe Illustrator 15.0.0, SVG Export Plug-In . SVG Version: 6.00 Build 0)  -->
<!DOCTYPE svg PUBLIC "-//W3C//DTD SVG 1.1//EN" "http://www.w3.org/Graphics/SVG/1.1/DTD/svg11.dtd" [
	<!ENTITY ns_flows "http://ns.adobe.com/Flows/1.0/">
	<!ENTITY ns_extend "http://ns.adobe.com/Extensibility/1.0/">
	<!ENTITY ns_ai "http://ns.adobe.com/AdobeIllustrator/10.0/">
	<!ENTITY ns_graphs "http://ns.adobe.com/Graphs/1.0/">
]>
<svg version="1.1" id="Layer_1" xmlns:x="&ns_extend;" xmlns:i="&ns_ai;" xmlns:graph="&ns_graphs;"
	 xmlns="http://www.w3.org/2000/svg" xmlns:xlink="http://www.w3.org/1999/xlink" xmlns:a="http://ns.adobe.com/AdobeSVGViewerExtensions/3.0/"
	 x="0px" y="0px" width="64px" height="64px" viewBox="0 0 64 64" enable-background="new 0 0 64 64" xml:space="preserve">
<path fill="#3B2C29" d="M19.938,16.643c-8.131,34.904-7.388,34.156,9.73,34.156C20.195,44.172,38.342,16.168,19.938,16.643z"/>
<path fill="#453631" d="M17.005,16.102c-5.935,26.519-0.814,33.33,3.731,34.697h5.21C13.757,42.211,32.811,15.581,17.005,16.102z"/>
<path fill="#3B2C29" d="M43.861,16.641c8.132,34.906,7.387,34.158-9.73,34.158C42.843,45.479,25.457,16.167,43.861,16.641z"/>
<path fill="#453631" d="M46.793,16.1c8.675,24.126-0.018,33.582-3.732,34.699h-5.207C50.045,42.91,30.99,15.579,46.793,16.1z"/>
<path fill="#594640" d="M48.236,29.065c2.512,6.132,0.027,18.722-5.176,21.734c5.767,0,9.277-7.979,10.99-18.955
	C56.189,18.127,43.762,18.12,48.236,29.065z"/>
<path fill="#594640" d="M10.394,34.389c2.1,9.906,4.685,16.41,10.343,16.41c-6.309-6.529-5.566-20.308-3.772-23.736
	C26.103,21.622,6.84,17.633,10.394,34.389z"/>
<path fill="#8E3ED6" d="M13.077,52.43c2.302-1.412,11.849-5.139,11.849-5.139h14.22c0,0,9.538,3.721,11.828,5.135
	C54.298,54.48,55,62,55,62H9C9,62,9.741,54.473,13.077,52.43z"/>
<path fill="#E6B045" d="M24.832,48.939c0,5.725,14.336,5.725,14.336,0c0-3.492,0-9.264,0-9.264H24.832
	C24.832,39.676,24.832,44.432,24.832,48.939z"/>
<path fill="#FFCC66" d="M32,8.254c-10.836,0-16.054,8.824-15.402,20.17c0.134,2.281,0.768,5.57,1.551,8.39
	C19.773,42.674,28.35,48.576,32,48.576c3.649,0,12.227-5.902,13.85-11.762c0.785-2.82,1.419-6.109,1.555-8.39
	C48.054,17.079,42.838,8.254,32,8.254z"/>
<path fill="#732EB0" d="M16,62h1C16.5,55.334,16.5,55.334,16,62z"/>
<path fill="#732EB0" d="M47,62h1C47.5,55.334,47.5,55.334,47,62z"/>
<path fill="#E6B045" d="M35.3,35.24c0,2.148-6.6,2.148-6.6,0C28.7,34.748,35.3,34.748,35.3,35.24z"/>
<path fill="#C1873C" d="M27.385,41.76c2.812-1.746,6.422-1.746,9.231,0c0.398,0.246,0.448-0.018,0.324-0.23
	c-2.08-3.561-7.8-3.561-9.881,0C26.938,41.742,26.984,42.006,27.385,41.76z"/>
<path fill="#594640" d="M43.755,24.837c-2.437-2.386-7.093,0.245-8.826-0.239c-0.372-0.009-0.126,1.267,0.185,1.275
	c2.42,0.177,6.318-2.375,8.582-0.206C43.996,25.919,44.123,25.175,43.755,24.837z"/>
<path fill="#594640" d="M20.246,24.837c2.435-2.386,7.091,0.245,8.824-0.239c0.372-0.009,0.128,1.267-0.185,1.275
	c-2.418,0.177-6.316-2.375-8.582-0.206C20.003,25.919,19.876,25.175,20.246,24.837z"/>
<path fill="#E6B045" d="M29.632,42.883c1.442-0.836,3.296-0.836,4.738,0c0.204,0.119,0.229-0.008,0.166-0.109
	c-1.067-1.707-4.004-1.707-5.072,0C29.401,42.875,29.426,43.002,29.632,42.883z"/>
<path fill="#FFFFFF" d="M43.706,28.89c-1.152,3.015-7.632,2.507-8.414,0.582C36.108,25.207,42.909,24.843,43.706,28.89z"/>
<path fill="#613F34" d="M36.767,28.478c0,3.355,4.854,3.355,4.854,0C41.62,25.361,36.767,25.361,36.767,28.478z"/>
<path fill="#7D5037" d="M37.246,29.55c0,1.926,3.894,1.926,3.894,0C41.14,27.765,37.246,27.765,37.246,29.55z"/>
<path fill="#1A1626" d="M38.186,28.531c0,1.393,2.015,1.393,2.015,0C40.2,27.238,38.186,27.238,38.186,28.531z"/>
<path fill="#AB968C" d="M37.497,28.125c0,0.703,1.018,0.703,1.018,0C38.515,27.47,37.497,27.47,37.497,28.125z"/>
<path fill="#45332C" d="M43.706,28.861c0-4.072-8.414-4.072-8.414,0.645C36.49,25.634,42.505,25.634,43.706,28.861z"/>
<path fill="#FFFFFF" d="M20.296,28.89c1.153,3.015,7.634,2.508,8.418,0.582C27.896,25.207,21.095,24.843,20.296,28.89z"/>
<path fill="#613F34" d="M22.384,28.484c0,3.355,4.852,3.355,4.852,0C27.235,25.367,22.384,25.367,22.384,28.484z"/>
<path fill="#7D5037" d="M22.862,29.556c0,1.924,3.895,1.924,3.895,0C26.757,27.771,22.862,27.771,22.862,29.556z"/>
<path fill="#1A1626" d="M23.802,28.537c0,1.393,2.017,1.393,2.017,0C25.818,27.242,23.802,27.242,23.802,28.537z"/>
<path fill="#AB968C" d="M23.114,28.128c0,0.705,1.018,0.705,1.018,0C24.132,27.476,23.114,27.476,23.114,28.128z"/>
<path fill="#45332C" d="M20.296,28.861c0-4.072,8.418-4.072,8.418,0.643C27.514,25.63,21.499,25.63,20.296,28.861z"/>
<path fill="#594640" d="M44.107,9.833c-7.598,7.785-0.346,8.287,4.129,19.232c2.512,6.132,4.102,13.755,5.814,2.779
	C56.189,18.127,47.969,8.688,44.107,9.833z"/>
<path fill="#594640" d="M25.457,6.85C15.822,9.118,6.84,17.633,10.394,34.389c2.1,9.906,4.776-3.898,6.57-7.326
	c9.139-5.441,24.769-9.561,27.144-17.23C45.313,8.061,35.099,4.325,25.457,6.85z"/>
<path fill="#453631" d="M18.074,19.055c4.074-0.826,23.566-1.215,26.033-9.223C39.502,13.502,34.729,14.502,18.074,19.055z"/>
<path fill="#453631" d="M11.05,31.795c6.835-9.123,29.228-8.117,33.058-21.963C36.672,21.454,12.918,23.024,11.05,31.795z"/>
<path fill="#453631" d="M41.855,11.729c-1.766,2.781,4.364-1.303,10.971,16.6C51.198,17.862,45.615,10.657,41.855,11.729z"/>
</svg>
