<?xml version="1.0" encoding="utf-8"?>
<!-- Generator: Adobe Illustrator 19.0.0, SVG Export Plug-In . SVG Version: 6.00 Build 0)  -->
<svg version="1.1" id="Layer_1" xmlns="http://www.w3.org/2000/svg" xmlns:xlink="http://www.w3.org/1999/xlink" x="0px" y="0px"
	 width="64px" height="64px" viewBox="0 0 64 64" enable-background="new 0 0 64 64" xml:space="preserve">
<path fill="#261A17" d="M19.938,16.643c-8.131,34.903-7.389,34.155,9.73,34.155C20.195,44.172,38.342,16.169,19.938,16.643z"/>
<path fill="#1E1513" d="M17.004,16.103c-5.934,26.52-0.814,33.329,3.733,34.696h5.209C13.756,42.212,32.811,15.581,17.004,16.103z"
	/>
<path fill="#261A17" d="M43.861,16.642c8.131,34.905,7.387,34.157-9.73,34.157C42.842,45.479,25.457,16.167,43.861,16.642z"/>
<path fill="#1E1513" d="M46.793,16.101c8.674,24.127-0.018,33.581-3.732,34.698h-5.207C50.045,42.91,30.99,15.579,46.793,16.101z"/>
<path fill="#3A2C29" d="M48.236,29.065c2.512,6.133,0.027,18.722-5.176,21.733c5.766,0,9.277-7.979,10.99-18.954
	C56.189,18.128,43.762,18.12,48.236,29.065z"/>
<path fill="#3A2C29" d="M10.393,34.39c2.1,9.905,4.686,16.409,10.344,16.409c-6.309-6.529-5.566-20.308-3.774-23.735
	C26.102,21.622,6.84,17.634,10.393,34.39z"/>
<path fill="#8E3ED6" d="M13.076,52.43c2.303-1.412,11.85-5.139,11.85-5.139h14.219c0,0,9.539,3.721,11.828,5.135
	C54.297,54.48,55,62,55,62H9C9,62,9.74,54.473,13.076,52.43z"/>
<path fill="#DBA97F" d="M24.832,48.939c0,5.725,14.336,5.725,14.336,0c0-3.492,0-9.263,0-9.263H24.832
	C24.832,39.677,24.832,44.432,24.832,48.939z"/>
<path fill="#FCD5B2" d="M32,8.255c-10.836,0-16.055,8.824-15.402,20.17c0.133,2.281,0.768,5.57,1.551,8.391
	C19.774,42.675,28.35,48.576,32,48.576c3.648,0,12.227-5.901,13.85-11.761c0.785-2.82,1.418-6.109,1.555-8.391
	C48.053,17.079,42.838,8.255,32,8.255z"/>
<path fill="#732EB0" d="M16,62h1C16.5,55.334,16.5,55.334,16,62z"/>
<path fill="#732EB0" d="M47,62h1C47.5,55.334,47.5,55.334,47,62z"/>
<path fill="#DBA97F" d="M35.299,35.323c0,2.148-6.6,2.148-6.6,0C28.699,34.831,35.299,34.831,35.299,35.323z"/>
<path fill="#CC9D76" d="M27.385,42.844c2.81-1.747,6.422-1.747,9.23,0c0.398,0.246,0.449-0.02,0.324-0.23
	c-2.08-3.562-7.799-3.562-9.881,0C26.938,42.824,26.984,43.09,27.385,42.844z"/>
<path fill="#594640" d="M43.945,25.704c-1.736-2.936-6.916-1.599-8.465-2.516c-0.357-0.104-0.449,1.19-0.15,1.279
	c2.291,0.798,6.717-0.658,8.342,2.022C43.896,26.812,44.213,26.126,43.945,25.704z"/>
<path fill="#594640" d="M20.057,25.704c1.734-2.935,6.912-1.599,8.461-2.516c0.357-0.104,0.451,1.19,0.152,1.28
	c-2.289,0.796-6.717-0.659-8.344,2.021C20.102,26.812,19.787,26.126,20.057,25.704z"/>
<path fill="#FFFFFF" d="M43.705,28.974c-1.447,3.787-7.336,3.232-8.414,0.582C36.107,25.29,42.908,24.927,43.705,28.974z"/>
<path fill="#613F34" d="M36.766,29.162c0,3.356,4.854,3.356,4.854,0C41.619,26.045,36.766,26.045,36.766,29.162z"/>
<path fill="#7D5037" d="M37.246,30.234c0,1.926,3.893,1.926,3.893,0C41.139,28.449,37.246,28.449,37.246,30.234z"/>
<path fill="#1A1626" d="M38.186,29.215c0,1.393,2.014,1.393,2.014,0C40.199,27.922,38.186,27.922,38.186,29.215z"/>
<path fill="#AB968C" d="M37.496,28.809c0,0.703,1.018,0.703,1.018,0C38.514,28.154,37.496,28.154,37.496,28.809z"/>
<path fill="#45332C" d="M43.705,28.944c0-4.072-8.414-4.072-8.414,0.645C36.49,25.718,42.504,25.718,43.705,28.944z"/>
<path fill="#FFFFFF" d="M20.295,28.974c1.449,3.787,7.34,3.232,8.418,0.582C27.895,25.29,21.094,24.927,20.295,28.974z"/>
<path fill="#613F34" d="M22.383,29.162c0,3.356,4.852,3.356,4.852,0C27.234,26.045,22.383,26.045,22.383,29.162z"/>
<path fill="#7D5037" d="M22.861,30.234c0,1.924,3.894,1.924,3.894,0C26.756,28.449,22.861,28.449,22.861,30.234z"/>
<path fill="#1A1626" d="M23.801,29.215c0,1.393,2.018,1.393,2.018,0C25.818,27.92,23.801,27.92,23.801,29.215z"/>
<path fill="#AB968C" d="M23.113,28.807c0,0.705,1.018,0.705,1.018,0C24.131,28.154,23.113,28.154,23.113,28.807z"/>
<path fill="#45332C" d="M20.295,28.944c0-4.072,8.418-4.072,8.418,0.643C27.514,25.714,21.498,25.714,20.295,28.944z"/>
<rect x="18.705" y="31.081" fill="#FCD5B2" width="26.588" height="2.48"/>
<path fill="#3A2C29" d="M44.107,9.833c-7.598,7.785-0.346,8.287,4.129,19.232c2.512,6.133,4.101,13.755,5.814,2.779
	C56.189,18.128,47.969,8.689,44.107,9.833z"/>
<path fill="#3A2C29" d="M25.457,6.851C15.822,9.118,6.84,17.634,10.393,34.39c2.1,9.905,4.777-3.898,6.57-7.326
	c9.139-5.441,24.77-9.561,27.145-17.23C45.313,8.062,35.098,4.325,25.457,6.851z"/>
<path fill="#1E1513" d="M18.074,19.056c4.074-0.826,23.566-1.215,26.033-9.223C39.502,13.503,34.729,14.503,18.074,19.056z"/>
<path fill="#1E1513" d="M11.049,31.796c6.836-9.123,29.229-8.117,33.059-21.963C36.672,21.454,12.918,23.024,11.049,31.796z"/>
<path fill="#1E1513" d="M41.855,11.729c-1.766,2.781,4.363-1.303,10.971,16.6C51.197,17.862,45.615,10.657,41.855,11.729z"/>
</svg>
