<?xml version="1.0" encoding="utf-8"?>
<!-- Generator: Adobe Illustrator 19.0.0, SVG Export Plug-In . SVG Version: 6.00 Build 0)  -->
<svg version="1.1" id="Layer_1" xmlns="http://www.w3.org/2000/svg" xmlns:xlink="http://www.w3.org/1999/xlink" x="0px" y="0px"
	 width="64px" height="64px" viewBox="0 0 64 64" enable-background="new 0 0 64 64" xml:space="preserve">
<path fill="#947D41" d="M25.938,20.644c-8.131,34.902-7.388,34.154,9.73,34.154C26.196,48.172,44.342,20.17,25.938,20.644z"/>
<path fill="#BA9D52" d="M23.005,20.103c-5.934,26.519-0.814,33.328,3.732,34.695h5.21C19.757,46.213,38.811,19.582,23.005,20.103z"
	/>
<path fill="#947D41" d="M49.862,20.642c8.132,34.904,7.387,34.156-9.73,34.156C48.843,49.48,31.457,20.168,49.862,20.642z"/>
<path fill="#BA9D52" d="M52.793,20.101c8.675,24.127-0.018,33.58-3.732,34.697h-5.207C56.045,46.91,36.99,19.58,52.793,20.101z"/>
<path fill="#EFDE8B" d="M54.237,33.066c2.512,6.133,0.027,18.721-5.176,21.732c5.767,0,9.277-7.979,10.99-18.953
	C62.19,22.129,49.762,22.121,54.237,33.066z"/>
<path fill="#EFDE8B" d="M16.394,38.391c2.1,9.904,4.685,16.408,10.343,16.408c-6.309-6.531-5.566-20.307-3.772-23.734
	C32.103,25.623,12.84,21.635,16.394,38.391z"/>
<path fill="#8E3ED6" d="M19.076,56.43c2.303-1.412,12.08-6.139,12.08-6.139h13.758c0,0,9.77,4.721,12.059,6.135
	C60.297,58.48,61,62,61,62H15C15,62,15.74,58.473,19.076,56.43z"/>
<path fill="#8E3ED6" d="M6.137,23.441c0.357-1.524,9.516-1.535,9.275,0.361c-0.809,6.422,0.615,19.1,1.082,19.896
	C19.473,48.781,26.74,51.432,31,50.351C26.977,57.275,19.906,62,19.906,62h-7.676c0,0-6.17-11.475-7.217-15.625
	C4.281,43.469,4.543,30.201,6.137,23.441z"/>
<path fill="#E3C19B" d="M14.877,23.447c0,1.176-8.326,1.176-8.326,0C6.551,15.713,14.877,15.984,14.877,23.447z"/>
<path fill="#E3C19B" d="M20.383,12.517c-2.824,0.061-3.068,2.865-3.889,2.191c-0.17-0.139-0.234-0.822-0.144-1.127
	c0.642-2.199,1.627-6.26,1.922-7.404c0.539-2.072-2.283-2.852-2.822-0.779c-0.025,0.102-1.752,7.717-1.873,7.686
	c-0.115-0.029-0.199-8.664-0.25-9.49c-0.141-2.283-3.109-2.035-2.918,0.246c0.008,0.092,0.334,9.244,0.137,9.244
	c-0.168,0-1.748-7.646-1.916-8.443C8.156,2.4,5.256,3.078,5.778,5.307c0.02,0.084,1.973,7.777,1.789,7.777
	c-0.152,0-2.162-4.828-2.162-4.828C4.776,6.463,2.479,7.244,3.108,9.039c1.332,3.813,2.029,4.363,1.834,8.289
	c-0.172,3.416,1.822,5.857,5.721,5.863c8.519,0.012,6.107-6.115,11.107-9.207C22.391,13.601,21.793,12.49,20.383,12.517z"/>
<path fill="#D6A67A" d="M31,51c0,6.75,14,6.75,14,0v-7H31V51z"/>
<path fill="#E3C19B" d="M38,12.256c-10.836,0-16.054,8.824-15.402,20.17c0.134,2.281,0.768,5.57,1.551,8.391
	C25.774,46.674,34.35,52.574,38,52.574c3.649,0,12.227-5.9,13.85-11.758c0.785-2.82,1.419-6.109,1.555-8.391
	C54.054,21.08,48.838,12.256,38,12.256z"/>
<path fill="#C97E55" d="M38,43.219c-2.635-1.16-2.654-0.049-6.719,0.225c1.525,1.732,2.648,3.959,6.717,3.959
	c4.67,0,5.459-2.529,6.723-3.959C40.653,43.17,40.635,42.058,38,43.219z"/>
<path fill="#FFFFFF" d="M32.5,43.873c2.655,2.764,8.378,2.729,11,0.002C39.412,44.314,36.59,44.314,32.5,43.873z"/>
<path fill="#594640" d="M49.942,28.303c-2.442-1.453-6.82-1.633-8.555-0.641c-0.366,0.201-0.268,1.252,0.05,1.121
	c2.472-1.029,6.235-1.08,8.556,0.109C50.305,29.049,50.311,28.516,49.942,28.303z"/>
<path fill="#594640" d="M26.061,28.303c2.44-1.453,6.818-1.633,8.555-0.641c0.366,0.201,0.27,1.252-0.051,1.121
	c-2.473-1.029-6.234-1.082-8.555,0.109C25.697,29.049,25.69,28.516,26.061,28.303z"/>
<path fill="#D6A67A" d="M41.36,39.258c0,2.186-6.719,2.186-6.719,0C34.641,38.754,41.36,38.754,41.36,39.258z"/>
<path fill="#FFFFFF" d="M49.705,32.736c-1.447,3.787-7.337,3.232-8.414,0.582C42.108,29.055,48.908,28.689,49.705,32.736z"/>
<path fill="#613F34" d="M42.766,32.324c0,3.355,4.854,3.355,4.854,0C47.619,29.207,42.766,29.207,42.766,32.324z"/>
<path fill="#7D5037" d="M43.245,33.396c0,1.926,3.894,1.926,3.894,0C47.139,31.611,43.245,31.611,43.245,33.396z"/>
<path fill="#1A1626" d="M44.185,32.377c0,1.393,2.015,1.393,2.015,0C46.199,31.084,44.185,31.084,44.185,32.377z"/>
<path fill="#AB968C" d="M43.496,31.971c0,0.703,1.018,0.703,1.018,0C44.514,31.316,43.496,31.316,43.496,31.971z"/>
<path fill="#45332C" d="M49.705,32.707c0-4.072-8.414-4.072-8.414,0.645C42.489,29.48,48.504,29.48,49.705,32.707z"/>
<path fill="#FFFFFF" d="M26.295,32.736c1.449,3.787,7.339,3.232,8.418,0.582C33.895,29.055,27.094,28.689,26.295,32.736z"/>
<path fill="#613F34" d="M28.383,32.33c0,3.355,4.852,3.355,4.852,0C33.235,29.213,28.383,29.213,28.383,32.33z"/>
<path fill="#7D5037" d="M28.862,33.402c0,1.924,3.895,1.924,3.895,0C32.756,31.617,28.862,31.617,28.862,33.402z"/>
<path fill="#1A1626" d="M29.801,32.383c0,1.393,2.017,1.393,2.017,0C31.818,31.088,29.801,31.088,29.801,32.383z"/>
<path fill="#AB968C" d="M29.113,31.975c0,0.705,1.018,0.705,1.018,0C30.131,31.322,29.113,31.322,29.113,31.975z"/>
<path fill="#45332C" d="M26.295,32.707c0-4.072,8.418-4.072,8.418,0.643C33.513,29.478,27.498,29.478,26.295,32.707z"/>
<path fill="#EFDE8B" d="M50.108,13.834c-7.598,7.785-0.346,8.287,4.129,19.233c2.512,6.133,4.102,13.754,5.814,2.779
	C62.19,22.129,53.969,12.689,50.108,13.834z"/>
<path fill="#EFDE8B" d="M31.457,10.851c-9.635,2.268-18.617,10.783-15.063,27.539c2.1,9.904,4.776-3.899,6.57-7.326
	c9.139-5.441,24.769-9.56,27.144-17.23C51.314,12.062,41.099,8.326,31.457,10.851z"/>
<path fill="#BA9D52" d="M24.074,23.057c4.074-0.826,23.566-1.215,26.033-9.223C45.502,17.504,40.73,18.504,24.074,23.057z"/>
<path fill="#BA9D52" d="M17.05,35.797c6.835-9.123,29.228-8.117,33.058-21.963C42.672,25.455,18.918,27.025,17.05,35.797z"/>
<path fill="#BA9D52" d="M47.856,15.73c-1.766,2.781,4.364-1.303,10.971,16.6C57.198,21.863,51.615,14.658,47.856,15.73z"/>
</svg>
