<?xml version="1.0" encoding="utf-8"?>
<!-- Generator: Adobe Illustrator 15.0.0, SVG Export Plug-In . SVG Version: 6.00 Build 0)  -->
<!DOCTYPE svg PUBLIC "-//W3C//DTD SVG 1.1//EN" "http://www.w3.org/Graphics/SVG/1.1/DTD/svg11.dtd" [
	<!ENTITY ns_flows "http://ns.adobe.com/Flows/1.0/">
	<!ENTITY ns_extend "http://ns.adobe.com/Extensibility/1.0/">
	<!ENTITY ns_ai "http://ns.adobe.com/AdobeIllustrator/10.0/">
	<!ENTITY ns_graphs "http://ns.adobe.com/Graphs/1.0/">
]>
<svg version="1.1" id="Layer_1" xmlns:x="&ns_extend;" xmlns:i="&ns_ai;" xmlns:graph="&ns_graphs;"
	 xmlns="http://www.w3.org/2000/svg" xmlns:xlink="http://www.w3.org/1999/xlink" xmlns:a="http://ns.adobe.com/AdobeSVGViewerExtensions/3.0/"
	 x="0px" y="0px" width="64px" height="64px" viewBox="0 0 64 64" enable-background="new 0 0 64 64" xml:space="preserve">
<path fill="#529320" d="M51.794,49.098c-6.387-6.27-34.113-6.896-39.806,0.012C7.205,54.916,13.632,62,13.632,62h36.521
	C50.153,62,57.077,54.285,51.794,49.098z"/>
<path fill="#E6B045" d="M16.611,24.875c-5.146-0.928-1.127,13.46,2.902,9.492C21.378,32.528,19.017,25.309,16.611,24.875z"/>
<path fill="#E6B045" d="M47.39,24.875c-2.406,0.434-4.77,7.652-2.9,9.492C48.517,38.336,52.532,23.948,47.39,24.875z"/>
<path fill="#FFCC66" d="M32,8.002c-10.641,0-15.77,8.051-15.125,19.244c0.127,2.254,1.523,9.599,2.842,12.234
	c1.348,2.695,5.861,6.852,8.625,7.713c1.746,0.543,5.568,0.543,7.314,0c2.766-0.861,7.277-5.018,8.627-7.713
	c1.318-2.635,2.715-9.98,2.844-12.234C47.769,16.053,42.642,8.002,32,8.002z"/>
<path fill="#E6B045" d="M35.298,34.52c0,2.146-6.597,2.146-6.597,0C28.701,34.027,35.298,34.027,35.298,34.52z"/>
<path fill="#594640" d="M32,8c-7.32,0-11.744,2.418-13.65,1.49c0,0-0.207,1.248,0.539,2.063c0,0-0.789,0.682-2.063-0.469
	c-1.213,3.938,2.389,6.221,15.174,6.221c12.787,0,9.732-3.113,16.017,2.355C47.399,12.918,43.118,8,32,8z"/>
<path fill="#453631" d="M37.413,13.877c-7.039,2.6-9.613-2.09-16.253-2.543c3.158,1.492,4.701,3.789,7.295,5.445
	c-5.646-1.891-9.789-5.141-10.104-7.275c0,0-0.943,3.115,2.783,5.447c-3.563,0.33-4.307-3.855-4.307-3.855
	c-1.803,2.898-1.553,12.244,0.451,19.182c0.334-2.475-0.428-3.498,0.717-6.482c3.424-8.914,1.221-5.17,14.006-5.17
	c12.785,0,10.476-3.414,14.003,5.17c1.053,2.561,0.385,4.008,0.719,6.482C50.927,14.637,44.882,11.12,37.413,13.877z"/>
<path fill="#FFFFFF" d="M43.392,28.114c-1.422,3.721-7.207,3.176-8.268,0.572C35.931,24.499,42.61,24.143,43.392,28.114z"/>
<path fill="#FFFFFF" d="M20.605,28.114c1.424,3.721,7.209,3.176,8.268,0.572C28.068,24.497,21.388,24.141,20.605,28.114z"/>
<path fill="#C1873C" d="M43.981,23.633c-2.434-1.209-7.09-1.268-8.824-0.426c-0.371,0.164-0.127,1.309,0.186,1.199
	c2.418-0.895,6.318-0.916,8.582,0.076C44.226,24.612,44.351,23.801,43.981,23.633z"/>
<path fill="#C1873C" d="M20.017,23.633c2.434-1.209,7.09-1.268,8.826-0.426c0.371,0.164,0.127,1.309-0.188,1.199
	c-2.422-0.895-6.316-0.916-8.582,0.076C19.773,24.612,19.648,23.801,20.017,23.633z"/>
<path fill="#613F34" d="M36.601,27.717c0,3.266,4.727,3.266,4.727,0C41.327,24.684,36.601,24.684,36.601,27.717z"/>
<path fill="#7D5037" d="M37.069,28.762c0,1.873,3.789,1.873,3.789,0C40.858,27.024,37.069,27.024,37.069,28.762z"/>
<path fill="#1A1626" d="M37.983,27.768c0,1.357,1.961,1.357,1.961,0C39.944,26.51,37.983,26.51,37.983,27.768z"/>
<path fill="#AB968C" d="M37.313,27.372c0,0.686,0.99,0.686,0.99,0C38.304,26.737,37.313,26.737,37.313,27.372z"/>
<path fill="#613F34" d="M22.673,27.717c0,3.266,4.725,3.266,4.725,0C27.398,24.684,22.673,24.684,22.673,27.717z"/>
<path fill="#7D5037" d="M23.14,28.76c0,1.875,3.791,1.875,3.791,0C26.931,27.022,23.14,27.022,23.14,28.76z"/>
<path fill="#1A1626" d="M24.054,27.768c0,1.355,1.963,1.355,1.963,0C26.017,26.508,24.054,26.508,24.054,27.768z"/>
<path fill="#AB968C" d="M23.384,27.372c0,0.684,0.99,0.684,0.99,0C24.375,26.735,23.384,26.735,23.384,27.372z"/>
<path fill="#E6B045" d="M43.392,28.086c0-3.998-8.268-3.998-8.268,0.633C36.306,24.918,42.21,24.918,43.392,28.086z"/>
<path fill="#E6B045" d="M20.605,28.086c0-3.998,8.268-3.998,8.268,0.631C27.693,24.918,21.787,24.918,20.605,28.086z"/>
<path fill="#FFCC66" d="M6.691,24.313c0.834,0.66,14.072,9.345,14.072,9.345l-1.535,5.539c-4.371-2.609-7.332-5.307-13.691-12.566
	C4.361,25.29,5.285,23.206,6.691,24.313z"/>
<path fill="#FFCC66" d="M57.28,24.42c-0.846,0.658-14.303,9.343-14.303,9.343l1.563,5.539c4.443-2.609,7.451-5.307,13.914-12.566
	C59.649,25.395,58.71,23.311,57.28,24.42z"/>
<path fill="#7AB51D" d="M40.938,44.086c2.09-1.895,5.744-5.453,5.744-5.453l-2.703-6.416c0,0-5.031,3.017-12.205,6.511
	c-7.174-3.494-12.205-6.511-12.205-6.511l-2.705,6.416c0,0,3.656,3.559,5.746,5.453C11.99,49.594,4.949,55.445,11.208,61.051
	c3.834,3.438,11.082-3.096,20.566-9.598c9.482,6.502,16.73,13.035,20.566,9.598C58.601,55.445,51.558,49.594,40.938,44.086z"/>
<linearGradient id="SVGID_1_" gradientUnits="userSpaceOnUse" x1="32.502" y1="55.0166" x2="40.3095" y2="53.3584">
	<stop  offset="0" style="stop-color:#529320"/>
	<stop  offset="0.1053" style="stop-color:#5B9B1F"/>
	<stop  offset="0.3702" style="stop-color:#6CA91E"/>
	<stop  offset="0.6565" style="stop-color:#77B21D"/>
	<stop  offset="1" style="stop-color:#7AB51D"/>
	<a:midPointStop  offset="0" style="stop-color:#529320"/>
	<a:midPointStop  offset="0.5" style="stop-color:#529320"/>
	<a:midPointStop  offset="0.1053" style="stop-color:#5B9B1F"/>
	<a:midPointStop  offset="0.5" style="stop-color:#5B9B1F"/>
	<a:midPointStop  offset="0.3702" style="stop-color:#6CA91E"/>
	<a:midPointStop  offset="0.5" style="stop-color:#6CA91E"/>
	<a:midPointStop  offset="0.6565" style="stop-color:#77B21D"/>
	<a:midPointStop  offset="0.5" style="stop-color:#77B21D"/>
	<a:midPointStop  offset="1" style="stop-color:#7AB51D"/>
</linearGradient>
<path fill="url(#SVGID_1_)" d="M31.775,51.453l9.164-7.367l5.568,17.092C46.507,61.178,42.698,59.846,31.775,51.453z"/>
<linearGradient id="SVGID_2_" gradientUnits="userSpaceOnUse" x1="24.4199" y1="44.3633" x2="24.3376" y2="39.7002">
	<stop  offset="0" style="stop-color:#529320"/>
	<stop  offset="0.1053" style="stop-color:#5B9B1F"/>
	<stop  offset="0.3702" style="stop-color:#6CA91E"/>
	<stop  offset="0.6565" style="stop-color:#77B21D"/>
	<stop  offset="1" style="stop-color:#7AB51D"/>
	<a:midPointStop  offset="0" style="stop-color:#529320"/>
	<a:midPointStop  offset="0.5" style="stop-color:#529320"/>
	<a:midPointStop  offset="0.1053" style="stop-color:#5B9B1F"/>
	<a:midPointStop  offset="0.5" style="stop-color:#5B9B1F"/>
	<a:midPointStop  offset="0.3702" style="stop-color:#6CA91E"/>
	<a:midPointStop  offset="0.5" style="stop-color:#6CA91E"/>
	<a:midPointStop  offset="0.6565" style="stop-color:#77B21D"/>
	<a:midPointStop  offset="0.5" style="stop-color:#77B21D"/>
	<a:midPointStop  offset="1" style="stop-color:#7AB51D"/>
</linearGradient>
<path fill="url(#SVGID_2_)" d="M22.611,44.086l9.164-5.357l-14.91-0.096C16.865,38.633,19.753,41.703,22.611,44.086z"/>
</svg>
