<?xml version="1.0" encoding="utf-8"?>
<!-- Generator: Adobe Illustrator 19.0.0, SVG Export Plug-In . SVG Version: 6.00 Build 0)  -->
<svg version="1.1" id="Layer_1" xmlns="http://www.w3.org/2000/svg" xmlns:xlink="http://www.w3.org/1999/xlink" x="0px" y="0px"
	 width="64px" height="64px" viewBox="0 0 64 64" enable-background="new 0 0 64 64" xml:space="preserve">
<path fill="#38332D" d="M53.27,32.984c8.59-14.547-9.578-19.143-11.656-12.188c0,0-4.203,21.33,12.623,21.027
	C52.055,40.818,50.059,38.417,53.27,32.984z"/>
<path fill="#26221E" d="M49.245,20.39c-3.834-2.26-2.406-2.75,0.402-2.34c-3.395-1.07-7.035-0.322-7.988,2.518
	c-3.467,10.324-1.383,23.986,13.49,22.818C41.005,39.878,61.526,27.636,49.245,20.39z"/>
<path fill="#732EB0" d="M50.208,32.65c-7.479-3.535-28.938-3.535-36.414,0c-4.85,2.291-9.049,21.836,0.803,27.051h34.807
	C59.255,54.486,55.055,34.941,50.208,32.65z"/>
<path fill="#8E3ED6" d="M10.977,50.253c-0.824,0.322,1.02-1.994,4.639-1.77c5.297-8.281,3.32-19.107-2.176-15.639
	C8.153,36.179,2.673,51.828,4.288,55.271c2.211,4.715,14.064,5.594,14.064,5.594s0.457-3.727,4.363-6.17
	C15.649,50.607,16.124,48.242,10.977,50.253z"/>
<path fill="#614A36" d="M31.141,58.458c1.512-1.031-4.477-3.973-7.889-3.973c-5.041,0-10.096,7.592-1.531,6.564
	c3.752,0.406,5.701,1.848,5.851,0.123c0,0,0.768-0.131,1.598,0.303c0.857,0.453,1.973-0.58,1.244-1.209
	C32.227,60.335,32.079,58.757,31.141,58.458z"/>
<path fill="#423225" d="M23.733,59.203c0,0,5.438,1.051,3.57,2.629C28.151,60.552,23.733,59.203,23.733,59.203z"/>
<path fill="#423225" d="M24.858,57.906c0,0,7.412,1.785,5.547,3.365C31.251,59.992,24.858,57.906,24.858,57.906z"/>
<path fill="#423225" d="M25.878,56.367c0,0,7.455,1.352,5.793,3.459C32.397,58.097,25.878,56.367,25.878,56.367z"/>
<path fill="#8E3ED6" d="M53.024,50.253c0.822,0.322-1.021-1.994-4.641-1.77c-5.295-8.281-3.318-19.107,2.178-15.639
	c5.287,3.334,10.768,18.982,9.15,22.426c-2.211,4.715-14.063,5.594-14.063,5.594s-0.457-3.727-4.363-6.17
	C48.35,50.607,47.878,48.242,53.024,50.253z"/>
<path fill="#614A36" d="M32.858,58.458c-1.51-1.031,4.478-3.973,7.889-3.973c5.043,0,10.098,7.592,1.531,6.564
	c-3.75,0.406-5.699,1.848-5.852,0.123c0,0-0.768-0.131-1.598,0.303c-0.857,0.453-1.973-0.58-1.244-1.209
	C31.772,60.335,31.923,58.757,32.858,58.458z"/>
<path fill="#423225" d="M40.268,59.203c0,0-5.439,1.051-3.572,2.629C35.85,60.552,40.268,59.203,40.268,59.203z"/>
<path fill="#423225" d="M39.143,57.906c0,0-7.414,1.785-5.547,3.365C32.749,59.992,39.143,57.906,39.143,57.906z"/>
<path fill="#423225" d="M38.122,56.367c0,0-7.453,1.352-5.793,3.459C31.602,58.097,38.122,56.367,38.122,56.367z"/>
<path fill="#8E3ED6" d="M40.21,16.091c-4.555,2.471,6.588,14.779,8.557,6.988C49.872,18.701,43.1,14.511,40.21,16.091z"/>
<path fill="#38332D" d="M32.001,13.998c-13.486,0-19.631,9.943-20.853,21.861c-0.65,6.318,0.787,7.662,5.957,11.424
	c6.09,4.433,23.703,4.433,29.791,0c5.17-3.762,6.607-5.105,5.959-11.424c-1.869-18.203-11.172-18.01-11.172-18.01
	S40.881,13.998,32.001,13.998z"/>
<path fill="#423225" d="M17.641,46.796c1.072-10.244-1.588-11.313-5.24-3.941C12.401,42.855,15.495,48.833,17.641,46.796z"/>
<path fill="#423225" d="M46.36,46.796c0.188-10.748-0.369-12.168,5.308-6.064C51.669,40.732,49.122,49.414,46.36,46.796z"/>
<path fill="#614A36" d="M49.116,38.015c-12.9-8.201-9.973-12.609-9.973-12.609c-15.258,8.582-24.215,12.633-24.215,12.633
	s-0.006,0.729,1.102,6.678C17.112,50.525,26.11,54,32.001,54c5.893,0,14.891-3.475,15.971-9.283
	C49.079,38.763,49.116,38.015,49.116,38.015z"/>
<path fill="#26221E" d="M12.403,42.867c4.875-9.006,24.545-8.543,27.6-19.242C28.055,33.714,13.952,32.935,12.403,42.867z"/>
<path fill="#26221E" d="M51.667,40.732c-7.684-6.371-19.164-10.686-11.664-17.107C37.7,31.757,46.749,32.613,51.667,40.732z"/>
<path fill="#FFFFFF" d="M44.878,42.939c-1.605,4.207-8.146,3.588-9.342,0.646C36.442,38.853,43.995,38.449,44.878,42.939z"/>
<path fill="#613F34" d="M37.204,42.49c0,3.693,5.34,3.693,5.34,0C42.544,39.06,37.204,39.06,37.204,42.49z"/>
<path fill="#7D5037" d="M37.731,43.673c0,2.115,4.283,2.115,4.283,0C42.014,41.707,37.731,41.707,37.731,43.673z"/>
<path fill="#1A1626" d="M38.764,42.55c0,1.531,2.217,1.531,2.217,0C40.981,41.126,38.764,41.126,38.764,42.55z"/>
<path fill="#AB968C" d="M38.006,42.101c0,0.775,1.119,0.775,1.119,0C39.126,41.38,38.006,41.38,38.006,42.101z"/>
<path fill="#423225" d="M44.878,42.908c0-4.521-9.342-4.521-9.342,0.715C36.87,39.328,43.542,39.328,44.878,42.908z"/>
<path fill="#FFFFFF" d="M19.122,42.939c1.605,4.207,8.146,3.588,9.344,0.646C27.555,38.851,20.008,38.447,19.122,42.939z"/>
<path fill="#613F34" d="M21.458,42.49c0,3.691,5.34,3.691,5.34,0C26.798,39.06,21.458,39.06,21.458,42.49z"/>
<path fill="#7D5037" d="M21.985,43.671c0,2.117,4.285,2.117,4.285,0C26.27,41.707,21.985,41.707,21.985,43.671z"/>
<path fill="#1A1626" d="M23.02,42.548c0,1.533,2.217,1.533,2.217,0C25.237,41.125,23.02,41.125,23.02,42.548z"/>
<path fill="#AB968C" d="M22.262,42.099c0,0.775,1.119,0.775,1.119,0C23.381,41.378,22.262,41.378,22.262,42.099z"/>
<path fill="#423225" d="M19.122,42.908c0-4.521,9.344-4.521,9.344,0.713C27.133,39.326,20.456,39.326,19.122,42.908z"/>
<path fill="#36281D" d="M45.741,38.326c-2.791-1.387-8.133-1.453-10.121-0.488c-0.428,0.188-0.145,1.502,0.213,1.375
	c2.773-1.027,7.246-1.053,9.842,0.088C46.018,39.447,46.163,38.517,45.741,38.326z"/>
<path fill="#36281D" d="M18.258,38.326c2.791-1.387,8.131-1.453,10.121-0.488c0.426,0.188,0.147,1.502-0.213,1.375
	c-2.775-1.027-7.244-1.053-9.84,0.088C17.981,39.447,17.839,38.517,18.258,38.326z"/>
<path fill="#423225" d="M35.784,49.603c0,2.461-7.568,2.461-7.568,0C28.215,49.037,35.784,49.037,35.784,49.603z"/>
<path fill="#0FB4D4" d="M39.503,2.078c3.996,1.072-2.166,9.336-2.48,9.252C36.704,11.246,35.499,1.005,39.503,2.078z"/>
<path fill="#0FB4D4" d="M53.637,10.183c2.373,3.389-7.66,5.76-7.848,5.492C45.602,15.406,51.26,6.787,53.637,10.183z"/>
<path fill="#0FB4D4" d="M24.503,2.078c3.996-1.07,2.791,9.168,2.477,9.252C26.663,11.416,20.499,3.15,24.503,2.078z"/>
<path fill="#0FB4D4" d="M10.364,10.179c2.373-3.389,8.033,5.231,7.846,5.496C18.022,15.945,7.987,13.574,10.364,10.179z"/>
</svg>
