<?xml version="1.0" encoding="utf-8"?>
<!-- Generator: Adobe Illustrator 19.0.0, SVG Export Plug-In . SVG Version: 6.00 Build 0)  -->
<svg version="1.1" id="Layer_1" xmlns="http://www.w3.org/2000/svg" xmlns:xlink="http://www.w3.org/1999/xlink" x="0px" y="0px"
	 width="64px" height="64px" viewBox="0 0 64 64" enable-background="new 0 0 64 64" xml:space="preserve">
<path fill="#7AB51D" d="M17.257,55.336c2.4-1.572,12.361-5.727,12.361-5.727H44.46c0,0,9.951,4.145,12.339,5.723
	C60.269,57.621,61,62,61,62H13C13,62,13.775,57.613,17.257,55.336z"/>
<path fill="#7AB51D" d="M6.552,24.441c0.357-1.523,9.517-1.535,9.276,0.361c-0.81,6.422,0.2,18.1,0.667,18.897
	c2.978,5.082,9.517,6.924,12.108,6.338L13,62c0,0-6.938-11.475-7.985-15.625C4.281,43.468,4.958,31.201,6.552,24.441z"/>
<path fill="#614A36" d="M15.293,24.447c0,1.176-8.326,1.176-8.326,0C6.967,16.713,15.293,16.984,15.293,24.447z"/>
<path fill="#423225" d="M29.002,50.998c0,6.75,16,6.75,16,0v-7h-16V50.998z"/>
<path fill="#423225" d="M21.611,28.873c-5.146-0.928-1.127,13.462,2.902,9.493C26.379,36.524,24.018,29.308,21.611,28.873z"/>
<path fill="#423225" d="M52.391,28.873c-2.406,0.436-4.77,7.651-2.9,9.493C53.52,42.335,57.535,27.945,52.391,28.873z"/>
<path fill="#614A36" d="M37.002,12c-10.643,0-15.77,8.051-15.127,19.245c0.129,2.254,1.525,9.6,2.844,12.234
	c1.348,2.695,5.859,6.851,8.625,7.712c1.746,0.543,5.568,0.543,7.314,0c2.764-0.861,7.277-5.017,8.627-7.712
	c1.318-2.635,2.713-9.98,2.842-12.234C52.772,20.051,47.643,12,37.002,12z"/>
<path fill="#36281D" d="M37.002,42.475c-2.395-0.705-5.94,0.332-5.94,0.332c1.35,1.471,2.34,3.381,5.94,3.381
	c4.123,0,4.822-2.166,5.939-3.381C42.941,42.807,39.393,41.766,37.002,42.475z"/>
<path fill="#FFFFFF" d="M31.967,43.057c2.508,2.105,7.576,2.117,10.1,0C39.393,43.171,34.66,43.173,31.967,43.057z"/>
<path fill="#423225" d="M40.301,38.516c0,2.148-6.6,2.148-6.6,0C33.701,38.024,40.301,38.024,40.301,38.516z"/>
<path fill="#38332D" d="M37.002,12c-7.322,0-11.744,2.418-13.652,1.49c0,0-0.207,1.248,0.541,2.061c0,0-0.789,0.684-2.063-0.469
	c-1.213,3.939,2.387,6.221,15.174,6.221c12.785,0,9.73-3.113,16.016,2.355C52.402,16.918,48.119,12,37.002,12z"/>
<path fill="#26221E" d="M42.416,17.875c-7.041,2.6-9.613-2.088-16.256-2.541c3.16,1.492,4.701,3.787,7.295,5.443
	c-5.644-1.889-9.789-5.141-10.103-7.275c0,0-0.941,3.117,2.785,5.447c-3.563,0.33-4.307-3.856-4.307-3.856
	c-1.805,2.898-1.555,12.246,0.449,19.181c0.334-2.475-0.426-3.497,0.717-6.48c3.426-8.914,1.221-5.172,14.008-5.172
	c12.783,0,10.477-3.414,14.004,5.172c1.053,2.559,0.383,4.005,0.719,6.48C55.93,18.636,49.885,15.119,42.416,17.875z"/>
<path fill="#FFFFFF" d="M48.395,32.112c-1.424,3.721-7.207,3.176-8.268,0.57C40.932,28.498,47.613,28.14,48.395,32.112z"/>
<path fill="#FFFFFF" d="M25.608,32.112c1.422,3.721,7.209,3.176,8.268,0.57C33.068,28.496,26.389,28.138,25.608,32.112z"/>
<path fill="#36281D" d="M48.984,27.631c-2.436-1.207-7.092-1.268-8.826-0.426c-0.371,0.164-0.127,1.311,0.186,1.199
	c2.42-0.894,6.318-0.916,8.582,0.078C49.227,28.609,49.354,27.801,48.984,27.631z"/>
<path fill="#36281D" d="M25.018,27.631c2.434-1.207,7.09-1.268,8.826-0.426c0.371,0.164,0.127,1.311-0.186,1.199
	c-2.422-0.894-6.318-0.916-8.584,0.078C24.774,28.609,24.649,27.801,25.018,27.631z"/>
<path fill="#613F34" d="M41.604,31.714c0,3.266,4.725,3.266,4.725,0C46.328,28.681,41.604,28.681,41.604,31.714z"/>
<path fill="#7D5037" d="M42.07,32.76c0,1.871,3.791,1.871,3.791,0C45.861,31.022,42.07,31.022,42.07,32.76z"/>
<path fill="#1A1626" d="M42.984,31.764c0,1.358,1.963,1.358,1.963,0C44.947,30.51,42.984,30.51,42.984,31.764z"/>
<path fill="#AB968C" d="M42.315,31.37c0,0.686,0.992,0.686,0.992,0C43.307,30.736,42.315,30.736,42.315,31.37z"/>
<path fill="#613F34" d="M27.674,31.714c0,3.266,4.726,3.266,4.726,0C32.4,28.681,27.674,28.681,27.674,31.714z"/>
<path fill="#7D5037" d="M28.143,32.759c0,1.873,3.789,1.873,3.789,0C31.932,31.02,28.143,31.02,28.143,32.759z"/>
<path fill="#1A1626" d="M29.057,31.764c0,1.356,1.961,1.356,1.961,0C31.018,30.508,29.057,30.508,29.057,31.764z"/>
<path fill="#AB968C" d="M28.387,31.37c0,0.684,0.99,0.684,0.99,0C29.377,30.734,28.387,30.734,28.387,31.37z"/>
<path fill="#423225" d="M48.395,32.083c0-3.997-8.268-3.997-8.268,0.633C41.309,28.918,47.213,28.918,48.395,32.083z"/>
<path fill="#423225" d="M25.608,32.083c0-3.997,8.268-3.997,8.268,0.631C32.695,28.916,26.789,28.916,25.608,32.083z"/>
<path fill="#614A36" d="M21.457,13.168c-2.999,0.064-3.258,3.041-4.129,2.325c-0.181-0.148-0.248-0.872-0.154-1.196
	c0.682-2.334,1.727-6.646,2.041-7.86c0.571-2.2-2.425-3.028-2.996-0.829c-0.028,0.109-1.859,8.195-1.989,8.162
	c-0.122-0.031-0.212-9.199-0.266-10.076c-0.148-2.425-3.301-2.162-3.098,0.26c0.007,0.098,0.354,9.816,0.146,9.816
	c-0.179,0-1.858-8.119-2.036-8.967c-0.5-2.377-3.58-1.658-3.027,0.707c0.022,0.09,2.095,8.26,1.901,8.26
	c-0.162,0-2.298-5.128-2.298-5.128C4.886,6.739,2.447,7.567,3.114,9.472c1.414,4.049,2.155,4.635,1.947,8.802
	c-0.182,3.628,1.936,6.22,6.073,6.226c9.046,0.013,6.485-6.492,11.794-9.775C23.588,14.318,22.953,13.137,21.457,13.168z"/>
</svg>
