<?xml version="1.0" encoding="utf-8"?>
<!-- Generator: Adobe Illustrator 19.0.0, SVG Export Plug-In . SVG Version: 6.00 Build 0)  -->
<svg version="1.1" id="Layer_1" xmlns="http://www.w3.org/2000/svg" xmlns:xlink="http://www.w3.org/1999/xlink" x="0px" y="0px"
	 width="64px" height="64px" viewBox="0 0 64 64" enable-background="new 0 0 64 64" xml:space="preserve">
<path fill="#614036" d="M53.269,32.984c8.59-14.547-9.578-19.143-11.654-12.188c0,0-4.203,21.33,12.621,21.027
	C52.056,40.818,50.06,38.417,53.269,32.984z"/>
<path fill="#4A2E24" d="M49.243,20.39c-3.832-2.26-2.406-2.75,0.402-2.34c-3.395-1.07-7.033-0.322-7.988,2.518
	c-3.467,10.324-1.383,23.986,13.492,22.818C41.003,39.878,61.525,27.636,49.243,20.39z"/>
<path fill="#732EB0" d="M50.206,32.65c-7.477-3.535-28.935-3.535-36.414,0c-4.848,2.291-9.047,21.836,0.805,27.051h34.807
	C59.255,54.486,55.056,34.941,50.206,32.65z"/>
<path fill="#8E3ED6" d="M10.976,50.253c-0.822,0.322,1.021-1.994,4.641-1.77c5.295-8.281,3.318-19.107-2.178-15.639
	c-5.287,3.334-10.767,18.982-9.15,22.426c2.211,4.715,14.063,5.594,14.063,5.594s0.457-3.727,4.363-6.17
	C15.648,50.607,16.122,48.242,10.976,50.253z"/>
<path fill="#916B50" d="M31.142,58.458c1.51-1.031-4.479-3.973-7.889-3.973c-5.043,0-10.098,7.592-1.531,6.564
	c3.75,0.406,5.699,1.848,5.852,0.123c0,0,0.768-0.131,1.598,0.303c0.855,0.453,1.973-0.58,1.244-1.209
	C32.228,60.335,32.077,58.757,31.142,58.458z"/>
<path fill="#755035" d="M23.732,59.203c0,0,5.439,1.051,3.572,2.629C28.15,60.552,23.732,59.203,23.732,59.203z"/>
<path fill="#755035" d="M24.857,57.906c0,0,7.414,1.785,5.547,3.365C31.249,59.992,24.857,57.906,24.857,57.906z"/>
<path fill="#755035" d="M25.878,56.367c0,0,7.453,1.352,5.793,3.459C32.398,58.097,25.878,56.367,25.878,56.367z"/>
<path fill="#8E3ED6" d="M53.023,50.253c0.824,0.322-1.02-1.994-4.639-1.77c-5.297-8.281-3.32-19.107,2.176-15.639
	c5.287,3.334,10.768,18.982,9.152,22.426c-2.211,4.715-14.064,5.594-14.064,5.594s-0.457-3.727-4.363-6.17
	C48.351,50.607,47.876,48.242,53.023,50.253z"/>
<path fill="#916B50" d="M32.859,58.458c-1.512-1.031,4.477-3.973,7.889-3.973c5.041,0,10.096,7.592,1.531,6.564
	c-3.752,0.406-5.701,1.848-5.852,0.123c0,0-0.768-0.131-1.598,0.303c-0.857,0.453-1.973-0.58-1.244-1.209
	C31.773,60.335,31.921,58.757,32.859,58.458z"/>
<path fill="#755035" d="M40.267,59.203c0,0-5.438,1.051-3.57,2.629C35.849,60.552,40.267,59.203,40.267,59.203z"/>
<path fill="#755035" d="M39.142,57.906c0,0-7.412,1.785-5.547,3.365C32.749,59.992,39.142,57.906,39.142,57.906z"/>
<path fill="#755035" d="M38.122,56.367c0,0-7.455,1.352-5.793,3.459C31.603,58.097,38.122,56.367,38.122,56.367z"/>
<path fill="#8E3ED6" d="M40.21,16.091c-4.557,2.471,6.588,14.779,8.557,6.988C49.872,18.701,43.101,14.511,40.21,16.091z"/>
<path fill="#614036" d="M32.001,13.998c-13.488,0-19.633,9.943-20.855,21.861c-0.649,6.318,0.789,7.662,5.959,11.424
	c6.09,4.433,23.701,4.433,29.791,0c5.17-3.762,6.607-5.105,5.959-11.424c-1.869-18.203-11.172-18.01-11.172-18.01
	S40.88,13.998,32.001,13.998z"/>
<path fill="#755035" d="M17.642,46.796c1.07-10.244-1.59-11.313-5.242-3.941C12.4,42.855,15.495,48.833,17.642,46.796z"/>
<path fill="#755035" d="M46.361,46.796c0.186-10.748-0.369-12.168,5.307-6.064C51.667,40.732,49.122,49.414,46.361,46.796z"/>
<path fill="#916B50" d="M49.117,38.015c-12.902-8.201-9.973-12.609-9.973-12.609c-15.258,8.582-24.217,12.633-24.217,12.633
	s-0.004,0.729,1.103,6.678C17.113,50.525,26.109,54,32.001,54c5.891,0,14.891-3.475,15.971-9.283
	C49.079,38.763,49.117,38.015,49.117,38.015z"/>
<path fill="#4A2E24" d="M12.402,42.867c4.877-9.006,24.545-8.543,27.6-19.242C28.056,33.714,13.952,32.935,12.402,42.867z"/>
<path fill="#4A2E24" d="M51.667,40.732c-7.684-6.371-19.164-10.686-11.666-17.107C37.7,31.757,46.747,32.613,51.667,40.732z"/>
<path fill="#FFFFFF" d="M44.876,42.939c-1.605,4.207-8.145,3.588-9.342,0.646C36.443,38.853,43.995,38.449,44.876,42.939z"/>
<path fill="#613F34" d="M37.202,42.49c0,3.693,5.34,3.693,5.34,0C42.542,39.06,37.202,39.06,37.202,42.49z"/>
<path fill="#7D5037" d="M37.73,43.673c0,2.115,4.285,2.115,4.285,0C42.015,41.707,37.73,41.707,37.73,43.673z"/>
<path fill="#1A1626" d="M38.763,42.55c0,1.531,2.217,1.531,2.217,0C40.98,41.126,38.763,41.126,38.763,42.55z"/>
<path fill="#AB968C" d="M38.007,42.101c0,0.775,1.117,0.775,1.117,0C39.124,41.38,38.007,41.38,38.007,42.101z"/>
<path fill="#755035" d="M44.876,42.908c0-4.521-9.342-4.521-9.342,0.715C36.868,39.328,43.542,39.328,44.876,42.908z"/>
<path fill="#FFFFFF" d="M19.12,42.939c1.607,4.207,8.148,3.588,9.344,0.646C27.556,38.851,20.009,38.447,19.12,42.939z"/>
<path fill="#613F34" d="M21.458,42.49c0,3.691,5.34,3.691,5.34,0C26.798,39.06,21.458,39.06,21.458,42.49z"/>
<path fill="#7D5037" d="M21.986,43.671c0,2.117,4.285,2.117,4.285,0C26.271,41.707,21.986,41.707,21.986,43.671z"/>
<path fill="#1A1626" d="M23.019,42.548c0,1.533,2.217,1.533,2.217,0C25.236,41.125,23.019,41.125,23.019,42.548z"/>
<path fill="#AB968C" d="M22.263,42.099c0,0.775,1.119,0.775,1.119,0C23.382,41.378,22.263,41.378,22.263,42.099z"/>
<path fill="#755035" d="M19.12,42.908c0-4.521,9.344-4.521,9.344,0.713C27.132,39.326,20.456,39.326,19.12,42.908z"/>
<path fill="#664129" d="M45.742,38.326c-2.791-1.387-8.133-1.453-10.121-0.488c-0.43,0.188-0.146,1.502,0.213,1.375
	c2.773-1.027,7.244-1.053,9.84,0.088C46.019,39.447,46.161,38.517,45.742,38.326z"/>
<path fill="#664129" d="M18.259,38.326c2.791-1.387,8.131-1.453,10.121-0.488c0.426,0.188,0.145,1.502-0.213,1.375
	c-2.777-1.027-7.246-1.053-9.842,0.088C17.982,39.447,17.837,38.517,18.259,38.326z"/>
<path fill="#755035" d="M35.783,49.603c0,2.461-7.568,2.461-7.568,0C28.214,49.037,35.783,49.037,35.783,49.603z"/>
<path fill="#0FB4D4" d="M39.501,2.078c3.996,1.072-2.166,9.336-2.48,9.252C36.704,11.246,35.499,1.005,39.501,2.078z"/>
<path fill="#0FB4D4" d="M53.638,10.183c2.371,3.389-7.662,5.76-7.848,5.492C45.601,15.406,51.261,6.787,53.638,10.183z"/>
<path fill="#0FB4D4" d="M24.501,2.078c3.996-1.07,2.793,9.168,2.479,9.252C26.661,11.416,20.499,3.15,24.501,2.078z"/>
<path fill="#0FB4D4" d="M10.365,10.179c2.373-3.389,8.031,5.231,7.846,5.496C18.021,15.945,7.988,13.574,10.365,10.179z"/>
</svg>
