<?xml version="1.0" encoding="utf-8"?>
<!-- Generator: Adobe Illustrator 19.0.0, SVG Export Plug-In . SVG Version: 6.00 Build 0)  -->
<svg version="1.1" id="Layer_1" xmlns="http://www.w3.org/2000/svg" xmlns:xlink="http://www.w3.org/1999/xlink" x="0px" y="0px"
	 width="64px" height="64px" viewBox="0 0 64 64" enable-background="new 0 0 64 64" xml:space="preserve">
<path fill="#5C3A2E" d="M19.938,16.643c-8.131,34.904-7.388,34.156,9.73,34.156C20.195,44.172,38.342,16.168,19.938,16.643z"/>
<path fill="#6B4435" d="M17.005,16.102c-5.935,26.52-0.815,33.33,3.731,34.697h5.21C13.757,42.211,32.811,15.58,17.005,16.102z"/>
<path fill="#5C3A2E" d="M43.861,16.641c8.132,34.906,7.387,34.158-9.731,34.158C42.843,45.479,25.457,16.166,43.861,16.641z"/>
<path fill="#6B4435" d="M46.793,16.1c8.675,24.127-0.018,33.582-3.732,34.699h-5.207C50.045,42.91,30.99,15.578,46.793,16.1z"/>
<path fill="#875B49" d="M48.236,29.065c2.512,6.133,0.027,18.723-5.176,21.734c5.767,0,9.277-7.979,10.99-18.955
	C56.189,18.127,43.762,18.119,48.236,29.065z"/>
<path fill="#875B49" d="M10.394,34.389c2.1,9.906,4.685,16.41,10.343,16.41c-6.309-6.529-5.566-20.309-3.772-23.736
	C26.103,21.621,6.84,17.633,10.394,34.389z"/>
<path fill="#8E3ED6" d="M13.077,52.43c2.302-1.412,11.849-5.139,11.849-5.139h14.22c0,0,9.538,3.721,11.828,5.135
	C54.298,54.481,55,62,55,62H9C9,62,9.741,54.473,13.077,52.43z"/>
<path fill="#946346" d="M24.832,48.94c0,5.725,14.336,5.725,14.336,0c0-3.492,0-9.264,0-9.264H24.832
	C24.832,39.676,24.832,44.432,24.832,48.94z"/>
<path fill="#B88A6F" d="M32,8.254c-10.836,0-16.054,8.824-15.402,20.17c0.134,2.281,0.768,5.57,1.551,8.391
	C19.773,42.674,28.35,48.576,32,48.576c3.649,0,12.227-5.902,13.85-11.762c0.785-2.82,1.419-6.109,1.555-8.391
	C48.054,17.078,42.838,8.254,32,8.254z"/>
<path fill="#732EB0" d="M16,62h1C16.5,55.334,16.5,55.334,16,62z"/>
<path fill="#732EB0" d="M47,62h1C47.5,55.334,47.5,55.334,47,62z"/>
<path fill="#946346" d="M35.3,35.24c0,2.148-6.6,2.148-6.6,0C28.7,34.748,35.3,34.748,35.3,35.24z"/>
<path fill="#80553C" d="M27.385,41.76c2.812-1.746,6.422-1.746,9.231,0c0.398,0.246,0.448-0.018,0.324-0.23
	c-2.08-3.561-7.8-3.561-9.881,0C26.938,41.742,26.984,42.006,27.385,41.76z"/>
<path fill="#423225" d="M43.755,24.838c-2.437-2.387-7.093,0.244-8.826-0.24c-0.372-0.008-0.126,1.267,0.185,1.275
	c2.42,0.178,6.318-2.375,8.582-0.205C43.996,25.92,44.123,25.176,43.755,24.838z"/>
<path fill="#423225" d="M20.246,24.838c2.434-2.387,7.091,0.244,8.824-0.24c0.372-0.008,0.128,1.267-0.185,1.275
	c-2.418,0.178-6.316-2.375-8.582-0.205C20.003,25.92,19.876,25.176,20.246,24.838z"/>
<path fill="#946346" d="M29.632,42.883c1.442-0.836,3.296-0.836,4.738,0c0.204,0.119,0.23-0.008,0.166-0.109
	c-1.067-1.707-4.004-1.707-5.072,0C29.401,42.875,29.426,43.002,29.632,42.883z"/>
<path fill="#FFFFFF" d="M43.706,28.891c-1.152,3.014-7.632,2.506-8.414,0.582C36.108,25.207,42.909,24.844,43.706,28.891z"/>
<path fill="#613F34" d="M36.767,28.479c0,3.355,4.853,3.355,4.853,0C41.62,25.361,36.767,25.361,36.767,28.479z"/>
<path fill="#7D5037" d="M37.246,29.551c0,1.926,3.893,1.926,3.893,0C41.14,27.766,37.246,27.766,37.246,29.551z"/>
<path fill="#1A1626" d="M38.186,28.531c0,1.392,2.015,1.392,2.015,0C40.2,27.238,38.186,27.238,38.186,28.531z"/>
<path fill="#AB968C" d="M37.497,28.125c0,0.703,1.018,0.703,1.018,0C38.515,27.471,37.497,27.471,37.497,28.125z"/>
<path fill="#45332C" d="M43.706,28.861c0-4.072-8.414-4.072-8.414,0.645C36.49,25.635,42.505,25.635,43.706,28.861z"/>
<path fill="#FFFFFF" d="M20.296,28.891c1.153,3.014,7.634,2.508,8.418,0.582C27.896,25.207,21.095,24.844,20.296,28.891z"/>
<path fill="#613F34" d="M22.384,28.485c0,3.355,4.851,3.355,4.851,0C27.235,25.367,22.384,25.367,22.384,28.485z"/>
<path fill="#7D5037" d="M22.862,29.557c0,1.924,3.894,1.924,3.894,0C26.757,27.772,22.862,27.772,22.862,29.557z"/>
<path fill="#1A1626" d="M23.802,28.537c0,1.393,2.017,1.393,2.017,0C25.818,27.242,23.802,27.242,23.802,28.537z"/>
<path fill="#AB968C" d="M23.114,28.129c0,0.705,1.018,0.705,1.018,0C24.132,27.477,23.114,27.477,23.114,28.129z"/>
<path fill="#45332C" d="M20.296,28.861c0-4.072,8.418-4.072,8.418,0.643C27.514,25.631,21.499,25.631,20.296,28.861z"/>
<path fill="#875B49" d="M44.107,9.832c-7.598,7.785-0.346,8.287,4.129,19.233c2.512,6.133,4.102,13.756,5.814,2.779
	C56.189,18.127,47.969,8.688,44.107,9.832z"/>
<path fill="#875B49" d="M25.457,6.85C15.822,9.117,6.84,17.633,10.394,34.389c2.1,9.906,4.776-3.898,6.57-7.326
	c9.139-5.441,24.769-9.56,27.144-17.23C45.313,8.061,35.099,4.324,25.457,6.85z"/>
<path fill="#6B4435" d="M18.074,19.055c4.074-0.826,23.566-1.215,26.033-9.223C39.502,13.502,34.729,14.502,18.074,19.055z"/>
<path fill="#6B4435" d="M11.05,31.795c6.835-9.123,29.228-8.117,33.058-21.963C36.672,21.453,12.918,23.024,11.05,31.795z"/>
<path fill="#6B4435" d="M41.855,11.729c-1.766,2.781,4.364-1.303,10.971,16.6C51.198,17.861,45.615,10.656,41.855,11.729z"/>
</svg>
