<?xml version="1.0" encoding="utf-8"?>
<!-- Generator: Adobe Illustrator 19.0.0, SVG Export Plug-In . SVG Version: 6.00 Build 0)  -->
<svg version="1.1" id="Layer_1" xmlns="http://www.w3.org/2000/svg" xmlns:xlink="http://www.w3.org/1999/xlink" x="0px" y="0px"
	 width="64px" height="64px" viewBox="0 0 64 64" enable-background="new 0 0 64 64" xml:space="preserve">
<path fill="#855C3F" d="M38.719,19.963c-1.053-3.837-2.209-8.425-2.209-14.843C36.51,2,32,1.887,32,5.12v14.843H38.719z"/>
<path fill="#754E31" d="M38.06,20.148c-1.129-4.115-2.232-8.666-2.232-15.022c0-2.33-3.146-2.335-3.146-0.005h-1.363
	c0-4.163,5.874-4.158,5.874,0.005c0,6.187,1.08,10.636,2.184,14.662L38.06,20.148z"/>
<path fill="#018BC9" d="M62,62V48.817c0,0-6.85-4.407-11.021-7.491C48.573,39.548,36.064,49.4,37.428,52.74
	c0.604,1.476,5.568,9.26,5.568,9.26H62z"/>
<radialGradient id="SVGID_1_" cx="41.643" cy="11.8129" r="18.3073" gradientTransform="matrix(1 0 0 1.5779 0 0.7848)" gradientUnits="userSpaceOnUse">
	<stop  offset="0.4364" style="stop-color:#916B50"/>
	<stop  offset="0.7158" style="stop-color:#90694E"/>
	<stop  offset="0.8399" style="stop-color:#8A6347"/>
	<stop  offset="0.903" style="stop-color:#855C3F"/>
</radialGradient>
<path fill="url(#SVGID_1_)" d="M49.922,42.966c0,0-6.987-5.961-7.34-8.4c-0.483-3.334-0.624-6.161-2.147-10.09
	c-1.477-3.815-2.683-7.939-3.112-14.481C37.023,5.411,32,5.929,32,9.487V46.64c0,0,0.751,1.563,4.668,2.408
	c1.019,0.219,2.2,2.954,2.2,2.954C42.618,52.329,49.771,45.933,49.922,42.966z"/>
<path fill="#754E31" d="M39.33,51.38c-0.451-0.954-1.419-2.715-2.5-2.947c-3.443-0.742-4.197-2.041-4.207-2.054l-1.22,0.608
	c0.092,0.191,1.016,1.889,5.139,2.778c0.348,0.079,1.184,1.322,1.719,2.559C38.261,52.324,40.644,51.312,39.33,51.38z"/>
<path fill="#754E31" d="M50.367,42.481c-2.626-2.241-6.879-6.387-7.109-7.979c-0.437-3.042-0.604-6.157-2.186-10.239
	c-1.332-3.438-2.626-7.549-3.068-14.28c-0.345-5.267-6.685-5.234-6.685-0.462h1.363c0-2.92,3.732-2.924,3.961,0.551
	c0.455,6.915,1.786,11.144,3.157,14.683c1.479,3.815,1.695,7.101,2.107,9.942c0.348,2.406,5.833,7.31,7.289,8.576
	C50.064,43.797,50.367,42.481,50.367,42.481z"/>
<path fill="#018BC9" d="M49.532,41.484c-0.341,4.688-7.798,10.444-11.875,9.91C37.325,58.987,59.273,47.786,49.532,41.484z"/>
<rect x="31.318" y="5.12" fill="#754E31" width="1.363" height="42.245"/>
<path fill="#855C3F" d="M25.283,19.963c1.053-3.837,2.207-8.425,2.207-14.843C27.49,2,32,1.887,32,5.12v14.843H25.283z"/>
<path fill="#754E31" d="M25.94,20.148c1.129-4.115,2.232-8.666,2.232-15.022c0-2.33,3.146-2.335,3.146-0.005h1.363
	c0-4.163-5.873-4.158-5.873,0.005c0,6.187-1.078,10.636-2.184,14.662L25.94,20.148z"/>
<path fill="#018BC9" d="M2,62V48.817c0,0,6.85-4.407,11.021-7.491c2.408-1.778,14.917,8.074,13.551,11.414
	C25.97,54.216,21.004,62,21.004,62H2z"/>
<radialGradient id="SVGID_2_" cx="689.4575" cy="11.8129" r="18.3073" gradientTransform="matrix(-1 0 0 1.5779 711.8145 0.7848)" gradientUnits="userSpaceOnUse">
	<stop  offset="0.4364" style="stop-color:#916B50"/>
	<stop  offset="0.7158" style="stop-color:#90694E"/>
	<stop  offset="0.8399" style="stop-color:#8A6347"/>
	<stop  offset="0.903" style="stop-color:#855C3F"/>
</radialGradient>
<path fill="url(#SVGID_2_)" d="M14.078,42.966c0,0,6.988-5.961,7.34-8.4c0.483-3.334,0.625-6.161,2.147-10.09
	c1.479-3.815,2.683-7.939,3.112-14.481C26.979,5.411,32,5.929,32,9.487V46.64c0,0-0.751,1.563-4.668,2.408
	c-1.019,0.219-2.2,2.954-2.2,2.954C21.382,52.329,14.23,45.933,14.078,42.966z"/>
<path fill="#754E31" d="M24.672,51.38c0.451-0.954,1.418-2.715,2.498-2.947c3.445-0.742,4.199-2.041,4.206-2.054l1.22,0.608
	c-0.091,0.191-1.014,1.889-5.139,2.778c-0.348,0.079-1.183,1.322-1.717,2.559C25.741,52.324,23.358,51.312,24.672,51.38z"/>
<path fill="#754E31" d="M13.635,42.481c2.626-2.241,6.879-6.387,7.108-7.979c0.439-3.042,0.605-6.157,2.186-10.239
	c1.332-3.438,2.626-7.549,3.068-14.28c0.345-5.267,6.685-5.234,6.685-0.462h-1.363c0-2.92-3.732-2.924-3.961,0.551
	c-0.453,6.915-1.785,11.144-3.157,14.683c-1.477,3.815-1.694,7.101-2.107,9.942c-0.348,2.406-5.831,7.31-7.287,8.576
	C13.937,43.797,13.635,42.481,13.635,42.481z"/>
<path fill="#018BC9" d="M14.47,41.484c0.341,4.688,7.798,10.444,11.875,9.91C26.677,58.987,4.727,47.786,14.47,41.484z"/>
<rect x="31.318" y="5.12" fill="#754E31" width="1.363" height="42.245"/>
</svg>
