<?xml version="1.0" encoding="utf-8"?>
<!-- Generator: Adobe Illustrator 19.0.0, SVG Export Plug-In . SVG Version: 6.00 Build 0)  -->
<svg version="1.1" id="Layer_1" xmlns="http://www.w3.org/2000/svg" xmlns:xlink="http://www.w3.org/1999/xlink" x="0px" y="0px"
	 width="64px" height="64px" viewBox="0 0 64 64" enable-background="new 0 0 64 64" xml:space="preserve">
<path fill="#529320" d="M50.206,32.65c-7.477-3.535-28.936-3.535-36.414,0c-4.848,2.291-9.047,21.836,0.805,27.051h34.807
	C59.255,54.486,55.056,34.941,50.206,32.65z"/>
<path fill="#7AB51D" d="M10.976,50.253c-0.822,0.322,1.022-1.994,4.641-1.769c5.295-8.281,3.318-19.108-2.178-15.639
	c-5.287,3.334-10.768,18.982-9.15,22.426c2.211,4.715,14.063,5.594,14.063,5.594s0.457-3.727,4.363-6.17
	C15.648,50.607,16.122,48.242,10.976,50.253z"/>
<path fill="#E3C19B" d="M31.142,58.459c1.51-1.031-4.479-3.973-7.891-3.973c-5.041,0-10.096,7.592-1.529,6.564
	c3.75,0.406,5.699,1.848,5.852,0.123c0,0,0.768-0.131,1.598,0.303c0.855,0.453,1.973-0.58,1.244-1.209
	C32.228,60.335,32.077,58.757,31.142,58.459z"/>
<path fill="#D6A67A" d="M23.732,59.203c0,0,5.44,1.051,3.572,2.629C28.15,60.552,23.732,59.203,23.732,59.203z"/>
<path fill="#D6A67A" d="M24.857,57.906c0,0,7.414,1.785,5.547,3.365C31.249,59.992,24.857,57.906,24.857,57.906z"/>
<path fill="#D6A67A" d="M25.878,56.367c0,0,7.453,1.352,5.793,3.459C32.398,58.097,25.878,56.367,25.878,56.367z"/>
<path fill="#7AB51D" d="M53.023,50.253c0.824,0.322-1.02-1.994-4.639-1.769c-5.297-8.281-3.32-19.108,2.176-15.639
	c5.287,3.334,10.767,18.982,9.152,22.426c-2.211,4.715-14.064,5.594-14.064,5.594s-0.457-3.727-4.363-6.17
	C48.351,50.607,47.876,48.242,53.023,50.253z"/>
<path fill="#E3C19B" d="M32.859,58.459c-1.512-1.031,4.477-3.973,7.889-3.973c5.041,0,10.096,7.592,1.531,6.564
	c-3.752,0.406-5.701,1.848-5.852,0.123c0,0-0.768-0.131-1.598,0.303c-0.857,0.453-1.973-0.58-1.244-1.209
	C31.773,60.335,31.921,58.757,32.859,58.459z"/>
<path fill="#D6A67A" d="M40.267,59.203c0,0-5.438,1.051-3.57,2.629C35.849,60.552,40.267,59.203,40.267,59.203z"/>
<path fill="#D6A67A" d="M39.142,57.906c0,0-7.412,1.785-5.547,3.365C32.749,59.992,39.142,57.906,39.142,57.906z"/>
<path fill="#D6A67A" d="M38.122,56.367c0,0-7.455,1.352-5.793,3.459C31.603,58.097,38.122,56.367,38.122,56.367z"/>
<path fill="#EFDE8B" d="M31.999,13.998c-21.654,0-19.568,17.359-19.568,25.473h39.137C51.568,31.357,53.654,13.998,31.999,13.998z"
	/>
<path fill="#D6A67A" d="M14.365,35.041c-6.873-0.889-2.395,12.912,2.988,9.107C19.847,42.382,17.581,35.457,14.365,35.041z"/>
<path fill="#D6A67A" d="M49.634,35.041c-3.217,0.416-5.48,7.342-2.986,9.107C52.031,47.951,56.507,34.152,49.634,35.041z"/>
<path fill="#E3C19B" d="M49.411,35.869c0-11.576-34.822-11.576-34.822,0c0,0,0.037,2.9,1.164,8.697
	C16.296,47.359,22.538,54,31.999,54c9.465,0,15.703-6.641,16.246-9.434C49.372,38.767,49.411,35.869,49.411,35.869z"/>
<path fill="#EFDE8B" d="M31.642,25.523c-3.164,5.637-15.01,9.162-19.08,8.797C16.247,30.591,17.884,20.992,31.642,25.523z"/>
<path fill="#BA9D52" d="M12.562,34.32c5.184-1.355,11.916-4.117,19.08-8.797C28.478,31.16,18.076,35.611,12.562,34.32z"/>
<path fill="#EFDE8B" d="M47.624,25.218c-4.477,6.715-21.236,10.914-26.994,10.479C25.845,31.253,28.161,19.822,47.624,25.218z"/>
<path fill="#BA9D52" d="M20.63,35.697c13.768-3.828,26.994-10.479,26.994-10.479C43.148,31.933,30.673,36.668,20.63,35.697z"/>
<path fill="#EFDE8B" d="M48.275,23.675c5.365,8.738-8.601,12.322-14.373,11.971C39.077,32.234,42.548,23.402,48.275,23.675z"/>
<path fill="#BA9D52" d="M33.902,35.646c6.941-3.186,17.518-3.836,14.373-11.971C53.64,32.414,40.021,36.433,33.902,35.646z"/>
<path fill="#FFFFFF" d="M44.876,42.939c-1.607,4.207-8.145,3.59-9.344,0.646C36.443,38.853,43.994,38.449,44.876,42.939z"/>
<path fill="#613F34" d="M37.201,42.49c0,3.693,5.342,3.693,5.342,0C42.542,39.062,37.201,39.062,37.201,42.49z"/>
<path fill="#7D5037" d="M37.73,43.671c0,2.117,4.283,2.117,4.283,0C42.013,41.707,37.73,41.707,37.73,43.671z"/>
<path fill="#1A1626" d="M38.763,42.548c0,1.533,2.217,1.533,2.217,0C40.98,41.125,38.763,41.125,38.763,42.548z"/>
<path fill="#AB968C" d="M38.005,42.101c0,0.775,1.119,0.775,1.119,0C39.124,41.38,38.005,41.38,38.005,42.101z"/>
<path fill="#D6A67A" d="M44.876,42.908c0-4.521-9.344-4.521-9.344,0.715C36.869,39.328,43.54,39.328,44.876,42.908z"/>
<path fill="#FFFFFF" d="M19.12,42.939c1.607,4.207,8.148,3.59,9.344,0.646C27.556,38.851,20.007,38.447,19.12,42.939z"/>
<path fill="#613F34" d="M21.458,42.49c0,3.691,5.34,3.691,5.34,0C26.798,39.06,21.458,39.06,21.458,42.49z"/>
<path fill="#7D5037" d="M21.986,43.671c0,2.117,4.285,2.117,4.285,0C26.271,41.707,21.986,41.707,21.986,43.671z"/>
<path fill="#1A1626" d="M23.021,42.548c0,1.531,2.215,1.531,2.215,0C25.236,41.125,23.021,41.125,23.021,42.548z"/>
<path fill="#AB968C" d="M22.261,42.099c0,0.775,1.121,0.775,1.121,0C23.382,41.378,22.261,41.378,22.261,42.099z"/>
<path fill="#D6A67A" d="M19.12,42.908c0-4.521,9.344-4.521,9.344,0.713C27.132,39.326,20.454,39.326,19.12,42.908z"/>
<path fill="#BF8C6B" d="M45.74,38.326c-2.791-1.387-8.131-1.453-10.121-0.488c-0.426,0.188-0.145,1.502,0.215,1.375
	c2.773-1.027,7.244-1.051,9.84,0.088C46.019,39.447,46.161,38.519,45.74,38.326z"/>
<path fill="#BF8C6B" d="M18.259,38.326c2.791-1.387,8.129-1.453,10.121-0.488c0.426,0.188,0.144,1.502-0.213,1.375
	c-2.777-1.027-7.246-1.051-9.842,0.088C17.98,39.447,17.837,38.519,18.259,38.326z"/>
<path fill="#D6A67A" d="M35.783,49.603c0,2.461-7.568,2.461-7.568,0C28.214,49.037,35.783,49.037,35.783,49.603z"/>
<path fill="#0FB4D4" d="M39.501,2.078c3.996,1.072-2.166,9.336-2.48,9.252C36.702,11.246,35.497,1.005,39.501,2.078z"/>
<path fill="#0FB4D4" d="M53.636,10.183c2.373,3.389-7.66,5.76-7.848,5.492C45.601,15.406,51.259,6.787,53.636,10.183z"/>
<path fill="#0FB4D4" d="M24.501,2.078c3.996-1.07,2.791,9.168,2.476,9.252C26.661,11.416,20.497,3.15,24.501,2.078z"/>
<path fill="#0FB4D4" d="M10.363,10.179c2.373-3.389,8.033,5.23,7.846,5.496C18.021,15.945,7.986,13.574,10.363,10.179z"/>
</svg>
