<?xml version="1.0" encoding="utf-8"?>
<!-- Generator: Adobe Illustrator 19.0.0, SVG Export Plug-In . SVG Version: 6.00 Build 0)  -->
<svg version="1.1" id="Layer_1" xmlns="http://www.w3.org/2000/svg" xmlns:xlink="http://www.w3.org/1999/xlink" x="0px" y="0px"
	 width="64px" height="64px" viewBox="0 0 64 64" enable-background="new 0 0 64 64" xml:space="preserve">
<path fill="#529320" d="M50.208,32.65c-7.479-3.535-28.938-3.535-36.414,0c-4.85,2.291-9.049,21.836,0.803,27.051h34.807
	C59.255,54.486,55.055,34.941,50.208,32.65z"/>
<path fill="#7AB51D" d="M10.977,50.253c-0.824,0.322,1.019-1.994,4.639-1.769c5.297-8.281,3.32-19.108-2.176-15.639
	C8.153,36.179,2.673,51.828,4.288,55.271c2.211,4.715,14.064,5.594,14.064,5.594s0.457-3.727,4.363-6.17
	C15.649,50.607,16.124,48.242,10.977,50.253z"/>
<path fill="#B88A6F" d="M31.141,58.459c1.512-1.031-4.477-3.973-7.889-3.973c-5.041,0-10.096,7.592-1.531,6.564
	c3.752,0.406,5.701,1.848,5.852,0.123c0,0,0.768-0.131,1.598,0.303c0.858,0.453,1.973-0.58,1.244-1.209
	C32.227,60.335,32.079,58.757,31.141,58.459z"/>
<path fill="#946346" d="M23.733,59.203c0,0,5.438,1.051,3.57,2.629C28.151,60.552,23.733,59.203,23.733,59.203z"/>
<path fill="#946346" d="M24.858,57.906c0,0,7.412,1.785,5.547,3.365C31.251,59.992,24.858,57.906,24.858,57.906z"/>
<path fill="#946346" d="M25.878,56.367c0,0,7.455,1.352,5.793,3.459C32.397,58.097,25.878,56.367,25.878,56.367z"/>
<path fill="#7AB51D" d="M53.024,50.253c0.822,0.322-1.021-1.994-4.641-1.769c-5.295-8.281-3.318-19.108,2.178-15.639
	c5.287,3.334,10.768,18.982,9.15,22.426c-2.211,4.715-14.063,5.594-14.063,5.594s-0.457-3.727-4.363-6.17
	C48.352,50.607,47.878,48.242,53.024,50.253z"/>
<path fill="#B88A6F" d="M32.858,58.459c-1.51-1.031,4.479-3.973,7.889-3.973c5.043,0,10.098,7.592,1.531,6.564
	c-3.75,0.406-5.699,1.848-5.852,0.123c0,0-0.768-0.131-1.598,0.303c-0.855,0.453-1.973-0.58-1.244-1.209
	C31.772,60.335,31.923,58.757,32.858,58.459z"/>
<path fill="#946346" d="M40.268,59.203c0,0-5.439,1.051-3.572,2.629C35.85,60.552,40.268,59.203,40.268,59.203z"/>
<path fill="#946346" d="M39.143,57.906c0,0-7.414,1.785-5.547,3.365C32.751,59.992,39.143,57.906,39.143,57.906z"/>
<path fill="#946346" d="M38.122,56.367c0,0-7.453,1.352-5.793,3.459C31.602,58.097,38.122,56.367,38.122,56.367z"/>
<path fill="#875B49" d="M31.999,13.998c-21.654,0-19.568,17.359-19.568,25.473h39.137C51.567,31.357,53.655,13.998,31.999,13.998z"
	/>
<path fill="#946346" d="M14.366,35.041c-6.873-0.889-2.396,12.912,2.986,9.107C19.846,42.382,17.581,35.457,14.366,35.041z"/>
<path fill="#946346" d="M49.635,35.041c-3.219,0.416-5.482,7.342-2.988,9.107C52.03,47.951,56.507,34.152,49.635,35.041z"/>
<path fill="#B88A6F" d="M49.411,35.869c0-11.576-34.822-11.576-34.822,0c0,0,0.039,2.9,1.166,8.697
	C16.298,47.359,22.538,54,31.999,54c9.465,0,15.703-6.641,16.246-9.434C49.372,38.767,49.411,35.869,49.411,35.869z"/>
<path fill="#875B49" d="M31.641,25.523c-3.164,5.637-15.01,9.162-19.08,8.797C16.249,30.591,17.885,20.992,31.641,25.523z"/>
<path fill="#6B4435" d="M12.561,34.32c5.184-1.355,11.918-4.117,19.08-8.797C28.477,31.16,18.075,35.611,12.561,34.32z"/>
<path fill="#875B49" d="M47.624,25.218c-4.477,6.715-21.234,10.914-26.994,10.479C25.844,31.253,28.161,19.822,47.624,25.218z"/>
<path fill="#6B4435" d="M20.63,35.697c13.768-3.828,26.994-10.479,26.994-10.479C43.147,31.933,30.673,36.668,20.63,35.697z"/>
<path fill="#875B49" d="M48.274,23.675c5.365,8.738-8.602,12.322-14.371,11.971C39.077,32.234,42.548,23.402,48.274,23.675z"/>
<path fill="#6B4435" d="M33.903,35.646c6.939-3.186,17.516-3.836,14.371-11.971C53.639,32.414,40.022,36.433,33.903,35.646z"/>
<path fill="#FFFFFF" d="M44.876,42.939c-1.605,4.207-8.145,3.59-9.342,0.646C36.442,38.853,43.995,38.449,44.876,42.939z"/>
<path fill="#613F34" d="M37.2,42.49c0,3.693,5.342,3.693,5.342,0C42.542,39.062,37.2,39.062,37.2,42.49z"/>
<path fill="#7D5037" d="M37.729,43.671c0,2.117,4.283,2.117,4.283,0C42.012,41.707,37.729,41.707,37.729,43.671z"/>
<path fill="#1A1626" d="M38.762,42.548c0,1.533,2.217,1.533,2.217,0C40.979,41.125,38.762,41.125,38.762,42.548z"/>
<path fill="#AB968C" d="M38.007,42.101c0,0.775,1.119,0.775,1.119,0C39.126,41.38,38.007,41.38,38.007,42.101z"/>
<path fill="#946346" d="M44.876,42.908c0-4.521-9.342-4.521-9.342,0.715C36.868,39.328,43.542,39.328,44.876,42.908z"/>
<path fill="#FFFFFF" d="M19.122,42.939c1.605,4.207,8.146,3.59,9.344,0.646C27.555,38.851,20.008,38.447,19.122,42.939z"/>
<path fill="#613F34" d="M21.458,42.49c0,3.691,5.342,3.691,5.342,0C26.8,39.06,21.458,39.06,21.458,42.49z"/>
<path fill="#7D5037" d="M21.985,43.671c0,2.117,4.285,2.117,4.285,0C26.27,41.707,21.985,41.707,21.985,43.671z"/>
<path fill="#1A1626" d="M23.02,42.548c0,1.531,2.217,1.531,2.217,0C25.237,41.125,23.02,41.125,23.02,42.548z"/>
<path fill="#AB968C" d="M22.262,42.099c0,0.775,1.119,0.775,1.119,0C23.382,41.378,22.262,41.378,22.262,42.099z"/>
<path fill="#946346" d="M19.122,42.908c0-4.521,9.344-4.521,9.344,0.713C27.132,39.326,20.456,39.326,19.122,42.908z"/>
<path fill="#80553C" d="M45.739,38.326c-2.791-1.387-8.131-1.453-10.121-0.488c-0.426,0.188-0.143,1.502,0.215,1.375
	c2.773-1.027,7.246-1.051,9.842,0.088C46.018,39.447,46.163,38.519,45.739,38.326z"/>
<path fill="#80553C" d="M18.258,38.326c2.791-1.387,8.131-1.453,10.121-0.488c0.426,0.188,0.145,1.502-0.213,1.375
	c-2.777-1.027-7.244-1.051-9.84,0.088C17.981,39.447,17.837,38.519,18.258,38.326z"/>
<path fill="#946346" d="M35.784,49.603c0,2.461-7.568,2.461-7.568,0C28.216,49.037,35.784,49.037,35.784,49.603z"/>
<path fill="#0FB4D4" d="M39.503,2.078c3.996,1.072-2.166,9.336-2.48,9.252C36.704,11.246,35.499,1.005,39.503,2.078z"/>
<path fill="#0FB4D4" d="M53.637,10.183c2.373,3.389-7.66,5.76-7.848,5.492C45.602,15.406,51.26,6.787,53.637,10.183z"/>
<path fill="#0FB4D4" d="M24.503,2.078c3.996-1.07,2.791,9.168,2.476,9.252C26.663,11.416,20.499,3.15,24.503,2.078z"/>
<path fill="#0FB4D4" d="M10.364,10.179c2.373-3.389,8.033,5.23,7.846,5.496C18.022,15.945,7.987,13.574,10.364,10.179z"/>
</svg>
