<?xml version="1.0" encoding="utf-8"?>
<!-- Generator: Adobe Illustrator 15.0.0, SVG Export Plug-In . SVG Version: 6.00 Build 0)  -->
<!DOCTYPE svg PUBLIC "-//W3C//DTD SVG 1.1//EN" "http://www.w3.org/Graphics/SVG/1.1/DTD/svg11.dtd" [
	<!ENTITY ns_flows "http://ns.adobe.com/Flows/1.0/">
	<!ENTITY ns_extend "http://ns.adobe.com/Extensibility/1.0/">
	<!ENTITY ns_ai "http://ns.adobe.com/AdobeIllustrator/10.0/">
	<!ENTITY ns_graphs "http://ns.adobe.com/Graphs/1.0/">
]>
<svg version="1.1" id="Layer_1" xmlns:x="&ns_extend;" xmlns:i="&ns_ai;" xmlns:graph="&ns_graphs;"
	 xmlns="http://www.w3.org/2000/svg" xmlns:xlink="http://www.w3.org/1999/xlink" xmlns:a="http://ns.adobe.com/AdobeSVGViewerExtensions/3.0/"
	 x="0px" y="0px" width="64px" height="64px" viewBox="0 0 64 64" enable-background="new 0 0 64 64" xml:space="preserve">
<path fill="#3B2C29" d="M19.938,22.644c-8.131,34.903-7.388,34.155,9.73,34.155C20.195,50.172,38.342,22.169,19.938,22.644z"/>
<path fill="#453631" d="M17.005,22.103c-5.935,26.521-0.814,33.329,3.731,34.696h5.21C13.757,48.213,32.811,21.581,17.005,22.103z"
	/>
<path fill="#3B2C29" d="M43.861,22.642c8.132,34.905,7.387,34.157-9.73,34.157C42.843,51.48,25.457,22.167,43.861,22.642z"/>
<path fill="#453631" d="M46.793,22.101c8.675,24.128-0.018,33.581-3.732,34.698h-5.207C50.045,48.91,30.99,21.579,46.793,22.101z"/>
<path fill="#594640" d="M48.236,35.066c2.512,6.133,0.027,18.721-5.176,21.732c5.767,0,9.277-7.979,10.99-18.953
	C56.189,24.128,43.762,24.12,48.236,35.066z"/>
<path fill="#594640" d="M10.394,40.391c2.1,9.904,4.685,16.408,10.343,16.408c-6.309-6.531-5.566-20.307-3.772-23.735
	C26.103,27.622,6.84,23.634,10.394,40.391z"/>
<path fill="#8E3ED6" d="M24.617,51.609c3.49-1.256,11.428-1.451,14.842,0C43.195,53.199,51.945,62,51.945,62H12.055
	C12.055,62,20.781,52.99,24.617,51.609z"/>
<path fill="#E6B045" d="M25,53c0,6.75,14,6.75,14,0v-7H25V53z"/>
<path fill="#FFCC66" d="M32,14.255c-10.836,0-16.054,8.824-15.402,20.171c0.134,2.281,0.768,5.57,1.551,8.391
	C19.773,48.674,28.35,54.574,32,54.574c3.649,0,12.227-5.9,13.85-11.758c0.785-2.82,1.419-6.109,1.555-8.391
	C48.054,23.079,42.838,14.255,32,14.255z"/>
<path fill="#D47706" d="M32,45.219c-2.635-1.16-2.654-0.049-6.719,0.225c1.525,1.732,2.648,3.959,6.717,3.959
	c4.67,0,5.459-2.529,6.723-3.959C34.652,45.17,34.635,44.059,32,45.219z"/>
<path fill="#FFFFFF" d="M26.5,45.873c2.655,2.764,8.378,2.729,11,0.002C33.412,46.314,30.59,46.314,26.5,45.873z"/>
<path fill="#594640" d="M43.941,30.302c-2.442-1.453-6.82-1.633-8.555-0.641c-0.366,0.201-0.268,1.252,0.05,1.121
	c2.472-1.029,6.235-1.08,8.556,0.109C44.305,31.048,44.311,30.515,43.941,30.302z"/>
<path fill="#594640" d="M20.061,30.302c2.44-1.453,6.818-1.633,8.555-0.641c0.366,0.201,0.27,1.252-0.051,1.121
	c-2.473-1.029-6.234-1.082-8.555,0.109C19.697,31.048,19.689,30.515,20.061,30.302z"/>
<path fill="#E6B045" d="M35.359,41.258c0,2.186-6.719,2.186-6.719,0C28.641,40.754,35.359,40.754,35.359,41.258z"/>
<path fill="#FFFFFF" d="M43.705,34.736c-1.447,3.787-7.337,3.232-8.414,0.582C36.107,31.054,42.908,30.688,43.705,34.736z"/>
<path fill="#613F34" d="M36.766,34.324c0,3.355,4.854,3.355,4.854,0C41.619,31.206,36.766,31.206,36.766,34.324z"/>
<path fill="#7D5037" d="M37.245,35.396c0,1.926,3.894,1.926,3.894,0C41.139,33.61,37.245,33.61,37.245,35.396z"/>
<path fill="#1A1626" d="M38.185,34.377c0,1.393,2.015,1.393,2.015,0C40.199,33.083,38.185,33.083,38.185,34.377z"/>
<path fill="#AB968C" d="M37.496,33.971c0,0.703,1.018,0.703,1.018,0C38.514,33.315,37.496,33.315,37.496,33.971z"/>
<path fill="#45332C" d="M43.705,34.707c0-4.073-8.414-4.073-8.414,0.645C36.489,31.479,42.504,31.479,43.705,34.707z"/>
<path fill="#FFFFFF" d="M20.295,34.736c1.449,3.787,7.339,3.232,8.418,0.582C27.895,31.054,21.094,30.688,20.295,34.736z"/>
<path fill="#613F34" d="M22.383,34.33c0,3.355,4.852,3.355,4.852,0C27.234,31.212,22.383,31.212,22.383,34.33z"/>
<path fill="#7D5037" d="M22.861,35.402c0,1.924,3.895,1.924,3.895,0C26.756,33.616,22.861,33.616,22.861,35.402z"/>
<path fill="#1A1626" d="M23.801,34.383c0,1.393,2.017,1.393,2.017,0C25.817,33.087,23.801,33.087,23.801,34.383z"/>
<path fill="#AB968C" d="M23.113,33.975c0,0.705,1.018,0.705,1.018,0C24.131,33.321,23.113,33.321,23.113,33.975z"/>
<path fill="#45332C" d="M20.295,34.707c0-4.073,8.418-4.073,8.418,0.643C27.513,31.478,21.498,31.478,20.295,34.707z"/>
<path fill="#594640" d="M44.107,15.833c-7.598,7.785-0.346,8.287,4.129,19.233c2.512,6.133,4.102,13.754,5.814,2.779
	C56.189,24.128,47.969,14.688,44.107,15.833z"/>
<path fill="#594640" d="M25.457,12.851c-9.635,2.268-18.617,10.783-15.063,27.54c2.1,9.904,4.776-3.898,6.57-7.327
	c9.139-5.441,24.769-9.561,27.144-17.23C45.313,14.062,35.099,10.325,25.457,12.851z"/>
<path fill="#453631" d="M18.074,25.056c4.074-0.826,23.566-1.215,26.033-9.223C39.502,19.503,34.729,20.503,18.074,25.056z"/>
<path fill="#453631" d="M11.05,37.797c6.835-9.124,29.228-8.118,33.058-21.964C36.672,27.454,12.918,29.024,11.05,37.797z"/>
<path fill="#453631" d="M41.855,17.729c-1.766,2.781,4.364-1.303,10.971,16.601C51.198,23.862,45.615,16.657,41.855,17.729z"/>
<path fill="#8E3ED6" d="M24.793,51.613c-1.445,0.309-1.986-2.002-6.435-4.459c-0.778-0.429-6.528-13.97-6.528-15.226
	c0-4.115,2.661-13.809,6.216-18.93c1.172-1.686-5.108-6.696-6.33-5.047C3.473,19.077,2,29.07,2,33.434C2,37.762,12.055,62,12.055,62
	L24.793,51.613z"/>
<path fill="#8E3ED6" d="M39.207,51.613c1.445,0.309,1.986-2.002,6.435-4.459c0.778-0.429,6.528-13.97,6.528-15.226
	c0-4.115-2.661-13.809-6.216-18.93c-1.172-1.686,5.108-6.696,6.33-5.047C60.527,19.077,62,29.07,62,33.434
	C62,37.762,51.945,62,51.945,62L39.207,51.613z"/>
<path fill="#FFCC66" d="M20.97,2.529c-1.726,0.272-6.506,3.148-8.083,5.595c-0.865,1.34,3.506,4.38,4.78,3.512
	c3.846-2.62,2.539-5.144,7.229-6.109c5.613-1.155,7.223-1.805,7.223-3.15C32.118,1.782,24.708,1.937,20.97,2.529z"/>
<path fill="#FFCC66" d="M43.029,2.529c1.726,0.272,6.506,3.148,8.083,5.595c0.865,1.34-3.506,4.38-4.78,3.512
	c-3.846-2.62-2.539-5.144-7.229-6.109c-5.613-1.155-7.223-1.805-7.223-3.15C31.881,1.782,39.291,1.937,43.029,2.529z"/>
</svg>
