<?xml version="1.0" encoding="utf-8"?>
<!-- Generator: Adobe Illustrator 15.0.0, SVG Export Plug-In . SVG Version: 6.00 Build 0)  -->
<!DOCTYPE svg PUBLIC "-//W3C//DTD SVG 1.1//EN" "http://www.w3.org/Graphics/SVG/1.1/DTD/svg11.dtd" [
	<!ENTITY ns_flows "http://ns.adobe.com/Flows/1.0/">
	<!ENTITY ns_extend "http://ns.adobe.com/Extensibility/1.0/">
	<!ENTITY ns_ai "http://ns.adobe.com/AdobeIllustrator/10.0/">
	<!ENTITY ns_graphs "http://ns.adobe.com/Graphs/1.0/">
]>
<svg version="1.1" id="Layer_1" xmlns:x="&ns_extend;" xmlns:i="&ns_ai;" xmlns:graph="&ns_graphs;"
	 xmlns="http://www.w3.org/2000/svg" xmlns:xlink="http://www.w3.org/1999/xlink" xmlns:a="http://ns.adobe.com/AdobeSVGViewerExtensions/3.0/"
	 x="0px" y="0px" width="64px" height="64px" viewBox="0 0 64 64" enable-background="new 0 0 64 64" xml:space="preserve">
<path fill="#7AB51D" d="M12.256,49.336c2.4-1.572,12.361-5.727,12.361-5.727h14.842c0,0,9.951,4.145,12.34,5.723
	C55.268,51.621,56,62,56,62H8C8,62,8.775,51.613,12.256,49.336z"/>
<path fill="#E6B045" d="M24.223,45.445c0,6.381,15.553,6.381,15.553,0c0-3.891,0-10.324,0-10.324H24.223
	C24.223,35.121,24.223,40.422,24.223,45.445z"/>
<path fill="#529320" d="M15,62h1C15.5,55.334,15.5,55.334,15,62z"/>
<path fill="#529320" d="M48,62h1C48.5,55.334,48.5,55.334,48,62z"/>
<path fill="#E6B045" d="M16.611,22.873c-5.146-0.928-1.127,13.463,2.902,9.494C21.379,30.525,19.018,23.309,16.611,22.873z"/>
<path fill="#E6B045" d="M47.391,22.873c-2.406,0.436-4.77,7.652-2.9,9.494C48.518,36.336,52.533,21.945,47.391,22.873z"/>
<path fill="#FFCC66" d="M32,6c-10.641,0-15.77,8.051-15.125,19.246c0.127,2.254,1.523,9.6,2.842,12.234
	c1.348,2.695,5.861,6.852,8.625,7.713c1.746,0.543,5.568,0.543,7.314,0c2.766-0.861,7.277-5.018,8.627-7.713
	c1.318-2.635,2.715-9.98,2.844-12.234C47.77,14.051,42.643,6,32,6z"/>
<path fill="#594640" d="M32,6c-7.32,0-11.744,2.418-13.65,1.49c0,0-0.207,1.248,0.539,2.061c0,0-0.789,0.684-2.063-0.469
	c-1.213,3.939,2.389,6.221,15.174,6.221c12.787,0,9.732-3.113,16.018,2.355C47.4,10.918,43.119,6,32,6z"/>
<path fill="#453631" d="M37.414,11.875c-7.039,2.6-9.613-2.088-16.254-2.541c3.158,1.492,4.701,3.787,7.295,5.443
	c-5.646-1.889-9.789-5.141-10.104-7.275c0,0-0.943,3.117,2.783,5.447c-3.563,0.33-4.307-3.855-4.307-3.855
	c-1.803,2.898-1.553,12.246,0.451,19.182c0.334-2.475-0.428-3.498,0.717-6.48c3.424-8.914,1.221-5.172,14.006-5.172
	s10.477-3.414,14.004,5.172c1.053,2.559,0.385,4.006,0.719,6.48C50.928,12.637,44.883,9.119,37.414,11.875z"/>
<path fill="#E6B045" d="M35.301,32.518c0,2.148-6.6,2.148-6.6,0C28.701,32.025,35.301,32.025,35.301,32.518z"/>
<path fill="#C1873C" d="M27.385,40.037c2.813-1.746,6.422-1.746,9.232,0c0.398,0.246,0.447-0.018,0.324-0.23
	c-2.08-3.561-7.801-3.561-9.881,0C26.938,40.02,26.984,40.283,27.385,40.037z"/>
<path fill="#C1873C" d="M43.945,22.898c-1.736-2.936-6.914-1.6-8.463-2.516c-0.357-0.105-0.449,1.189-0.152,1.279
	c2.291,0.797,6.719-0.658,8.344,2.021C43.898,24.006,44.213,23.32,43.945,22.898z"/>
<path fill="#C1873C" d="M20.057,22.898c1.734-2.936,6.914-1.6,8.463-2.516c0.357-0.105,0.451,1.189,0.152,1.279
	c-2.291,0.797-6.717-0.658-8.344,2.021C20.104,24.006,19.787,23.32,20.057,22.898z"/>
<path fill="#FFFFFF" d="M43.395,26.113c-1.424,3.723-7.207,3.178-8.268,0.572C35.932,22.5,42.613,22.143,43.395,26.113z"/>
<path fill="#FFFFFF" d="M20.607,26.113c1.422,3.723,7.209,3.178,8.268,0.572C28.068,22.498,21.389,22.141,20.607,26.113z"/>
<path fill="#613F34" d="M36.604,26.322c0,3.266,4.725,3.266,4.725,0C41.328,23.289,36.604,23.289,36.604,26.322z"/>
<path fill="#7D5037" d="M37.07,27.369c0,1.871,3.791,1.871,3.791,0C40.861,25.631,37.07,25.631,37.07,27.369z"/>
<path fill="#1A1626" d="M37.984,26.373c0,1.355,1.963,1.355,1.963,0C39.947,25.117,37.984,25.117,37.984,26.373z"/>
<path fill="#AB968C" d="M37.314,25.977c0,0.686,0.992,0.686,0.992,0C38.307,25.344,37.314,25.344,37.314,25.977z"/>
<path fill="#613F34" d="M22.674,26.322c0,3.266,4.727,3.266,4.727,0C27.4,23.289,22.674,23.289,22.674,26.322z"/>
<path fill="#7D5037" d="M23.143,27.367c0,1.873,3.789,1.873,3.789,0C26.932,25.629,23.143,25.629,23.143,27.367z"/>
<path fill="#1A1626" d="M24.057,26.373c0,1.355,1.961,1.355,1.961,0C26.018,25.115,24.057,25.115,24.057,26.373z"/>
<path fill="#AB968C" d="M23.387,25.977c0,0.684,0.99,0.684,0.99,0C24.377,25.342,23.387,25.342,23.387,25.977z"/>
<path fill="#E6B045" d="M43.395,26.084c0-3.998-8.268-3.998-8.268,0.635C36.309,22.92,42.213,22.92,43.395,26.084z"/>
<path fill="#E6B045" d="M20.607,26.084c0-3.998,8.268-3.998,8.268,0.633C27.695,22.916,21.789,22.916,20.607,26.084z"/>
<rect x="18.707" y="28.275" fill="#FFCC66" width="26.588" height="2.48"/>
</svg>
