<?xml version="1.0" encoding="utf-8"?>
<!-- Generator: Adobe Illustrator 19.0.0, SVG Export Plug-In . SVG Version: 6.00 Build 0)  -->
<svg version="1.1" id="Layer_1" xmlns="http://www.w3.org/2000/svg" xmlns:xlink="http://www.w3.org/1999/xlink" x="0px" y="0px"
	 width="64px" height="64px" viewBox="0 0 64 64" enable-background="new 0 0 64 64" xml:space="preserve">
<path fill="#7AB51D" d="M12.257,49.336c2.4-1.572,12.361-5.726,12.361-5.726H39.46c0,0,9.951,4.144,12.339,5.723
	C55.269,51.621,56,62,56,62H8C8,62,8.775,51.613,12.257,49.336z"/>
<path fill="#DBA97F" d="M24.224,45.445c0,6.381,15.553,6.381,15.553,0c0-3.891,0-10.324,0-10.324H24.224
	C24.224,35.121,24.224,40.422,24.224,45.445z"/>
<path fill="#529320" d="M15,62h1C15.5,55.334,15.5,55.334,15,62z"/>
<path fill="#529320" d="M48,62h1C48.5,55.334,48.5,55.334,48,62z"/>
<path fill="#DBA97F" d="M16.611,22.873c-5.147-0.928-1.127,13.463,2.902,9.494C21.379,30.525,19.018,23.309,16.611,22.873z"/>
<path fill="#DBA97F" d="M47.391,22.873c-2.406,0.436-4.77,7.652-2.9,9.494C48.519,36.336,52.534,21.945,47.391,22.873z"/>
<path fill="#FCD5B2" d="M32.001,6c-10.642,0-15.769,8.051-15.126,19.246c0.128,2.254,1.524,9.6,2.843,12.234
	c1.348,2.695,5.86,6.852,8.625,7.713c1.746,0.543,5.568,0.543,7.314,0c2.765-0.861,7.277-5.017,8.627-7.713
	c1.318-2.635,2.714-9.98,2.843-12.234C47.771,14.051,42.643,6,32.001,6z"/>
<path fill="#3A2C29" d="M32.001,6C24.68,6,20.257,8.418,18.35,7.49c0,0-0.207,1.248,0.54,2.061c0,0-0.789,0.684-2.063-0.469
	c-1.213,3.939,2.388,6.221,15.174,6.221s9.731-3.113,16.017,2.355C47.401,10.918,43.119,6,32.001,6z"/>
<path fill="#1E1513" d="M37.415,11.875c-7.04,2.6-9.613-2.088-16.255-2.541c3.159,1.492,4.701,3.787,7.295,5.443
	c-5.645-1.889-9.789-5.141-10.103-7.275c0,0-0.942,3.117,2.784,5.447c-3.563,0.33-4.307-3.855-4.307-3.855
	c-1.804,2.898-1.554,12.246,0.45,19.182c0.334-2.475-0.427-3.498,0.717-6.48c3.425-8.914,1.221-5.172,14.007-5.172
	c12.784,0,10.477-3.414,14.004,5.172c1.053,2.559,0.384,4.006,0.719,6.48C50.929,12.637,44.884,9.119,37.415,11.875z"/>
<path fill="#DBA97F" d="M35.301,32.518c0,2.148-6.6,2.148-6.6,0C28.701,32.025,35.301,32.025,35.301,32.518z"/>
<path fill="#FFFFFF" d="M43.395,26.113c-1.104,2.888-7.525,2.397-8.268,0.572C35.933,22.5,42.613,22.143,43.395,26.113z"/>
<path fill="#FFFFFF" d="M20.607,26.113c1.105,2.894,7.529,2.389,8.268,0.572C28.069,22.498,21.39,22.141,20.607,26.113z"/>
<path fill="#613F34" d="M36.604,25.717c0,3.266,4.726,3.266,4.726,0C41.329,22.684,36.604,22.684,36.604,25.717z"/>
<path fill="#7D5037" d="M37.071,26.764c0,1.871,3.79,1.871,3.79,0C40.861,25.025,37.071,25.025,37.071,26.764z"/>
<path fill="#1A1626" d="M37.985,25.768c0,1.355,1.962,1.355,1.962,0C39.947,24.512,37.985,24.512,37.985,25.768z"/>
<path fill="#AB968C" d="M37.315,25.371c0,0.686,0.991,0.686,0.991,0C38.307,24.738,37.315,24.738,37.315,25.371z"/>
<path fill="#613F34" d="M22.675,25.717c0,3.266,4.726,3.266,4.726,0C27.4,22.684,22.675,22.684,22.675,25.717z"/>
<path fill="#7D5037" d="M23.143,26.762c0,1.873,3.79,1.873,3.79,0C26.933,25.023,23.143,25.023,23.143,26.762z"/>
<path fill="#1A1626" d="M24.057,25.768c0,1.355,1.962,1.355,1.962,0C26.019,24.51,24.057,24.51,24.057,25.768z"/>
<path fill="#AB968C" d="M23.387,25.371c0,0.684,0.99,0.684,0.99,0C24.377,24.736,23.387,24.736,23.387,25.371z"/>
<path fill="#DBA97F" d="M43.395,26.084c0-3.998-8.268-3.998-8.268,0.635C36.309,22.92,42.213,22.92,43.395,26.084z"/>
<path fill="#DBA97F" d="M20.607,26.084c0-3.998,8.268-3.998,8.268,0.633C27.695,22.916,21.789,22.916,20.607,26.084z"/>
<path fill="#CC9D76" d="M27.386,39.038c2.812-1.747,6.422-1.747,9.231,0c0.399,0.246,0.448-0.019,0.324-0.231
	c-2.08-3.561-7.8-3.561-9.881,0C26.938,39.02,26.985,39.284,27.386,39.038z"/>
<path fill="#CC9D76" d="M43.756,22.257c-2.437-2.386-7.093,0.245-8.826-0.239c-0.372-0.009-0.126,1.267,0.185,1.275
	c2.42,0.177,6.318-2.375,8.582-0.206C43.997,23.339,44.124,22.595,43.756,22.257z"/>
<path fill="#CC9D76" d="M20.247,22.257c2.435-2.386,7.091,0.245,8.824-0.239c0.372-0.009,0.128,1.267-0.185,1.275
	c-2.418,0.177-6.316-2.375-8.582-0.206C20.004,23.339,19.877,22.595,20.247,22.257z"/>
<path fill="#DBA97F" d="M29.633,40.161c1.442-0.837,3.296-0.837,4.738,0c0.204,0.118,0.229-0.009,0.166-0.11
	c-1.067-1.706-4.004-1.706-5.072,0C29.402,40.152,29.427,40.279,29.633,40.161z"/>
</svg>
