<?xml version="1.0" encoding="utf-8"?>
<!-- Generator: Adobe Illustrator 15.0.0, SVG Export Plug-In . SVG Version: 6.00 Build 0)  -->
<!DOCTYPE svg PUBLIC "-//W3C//DTD SVG 1.1//EN" "http://www.w3.org/Graphics/SVG/1.1/DTD/svg11.dtd" [
	<!ENTITY ns_flows "http://ns.adobe.com/Flows/1.0/">
	<!ENTITY ns_extend "http://ns.adobe.com/Extensibility/1.0/">
	<!ENTITY ns_ai "http://ns.adobe.com/AdobeIllustrator/10.0/">
	<!ENTITY ns_graphs "http://ns.adobe.com/Graphs/1.0/">
]>
<svg version="1.1" id="Layer_1" xmlns:x="&ns_extend;" xmlns:i="&ns_ai;" xmlns:graph="&ns_graphs;"
	 xmlns="http://www.w3.org/2000/svg" xmlns:xlink="http://www.w3.org/1999/xlink" xmlns:a="http://ns.adobe.com/AdobeSVGViewerExtensions/3.0/"
	 x="0px" y="0px" width="64px" height="64px" viewBox="0 0 64 64" enable-background="new 0 0 64 64" xml:space="preserve">
<path fill="#3B2C29" d="M25.938,20.643c-8.131,34.904-7.388,34.156,9.73,34.156C26.196,48.172,44.342,20.168,25.938,20.643z"/>
<path fill="#453631" d="M23.005,20.102c-5.935,26.519-0.814,33.33,3.731,34.697h5.21C19.757,46.211,38.811,19.581,23.005,20.102z"/>
<path fill="#3B2C29" d="M49.861,20.641c8.132,34.906,7.387,34.158-9.73,34.158C48.843,49.48,31.458,20.167,49.861,20.641z"/>
<path fill="#453631" d="M52.793,20.1c8.675,24.126-0.018,33.582-3.732,34.699h-5.207C56.045,46.91,36.99,19.579,52.793,20.1z"/>
<path fill="#594640" d="M54.236,33.064c2.512,6.133,0.027,18.723-5.176,21.734c5.767,0,9.277-7.979,10.99-18.955
	C62.189,22.127,49.762,22.12,54.236,33.064z"/>
<path fill="#594640" d="M16.394,38.389c2.1,9.906,4.685,16.41,10.343,16.41c-6.309-6.531-5.566-20.309-3.772-23.736
	C32.103,25.622,12.84,21.633,16.394,38.389z"/>
<path fill="#8E3ED6" d="M19.077,56.43c2.303-1.412,12.08-6.139,12.08-6.139h13.757c0,0,9.77,4.721,12.059,6.135
	C60.297,58.48,61,62,61,62H15C15,62,15.741,58.473,19.077,56.43z"/>
<path fill="#8E3ED6" d="M6.137,23.441c0.357-1.523,9.516-1.535,9.275,0.361c-0.809,6.422,0.615,19.098,1.082,19.895
	C19.473,48.781,26.741,51.43,31,50.35C26.977,57.273,19.907,62,19.907,62h-7.676c0,0-6.17-11.475-7.217-15.625
	C4.282,43.467,4.543,30.201,6.137,23.441z"/>
<path fill="#FFCC66" d="M14.877,23.447c0,1.176-8.326,1.176-8.326,0C6.551,15.712,14.877,15.983,14.877,23.447z"/>
<path fill="#FFCC66" d="M20.383,12.517c-2.824,0.061-3.068,2.864-3.889,2.19c-0.17-0.139-0.234-0.821-0.145-1.127
	c0.643-2.198,1.627-6.259,1.922-7.403c0.539-2.072-2.283-2.853-2.822-0.78c-0.025,0.103-1.752,7.718-1.873,7.687
	c-0.115-0.029-0.199-8.664-0.25-9.49c-0.141-2.283-3.109-2.035-2.918,0.245c0.008,0.092,0.334,9.245,0.137,9.245
	c-0.168,0-1.748-7.646-1.916-8.444C8.157,2.4,5.256,3.077,5.778,5.305c0.02,0.084,1.973,7.778,1.789,7.778
	c-0.152,0-2.162-4.829-2.162-4.829C4.776,6.462,2.479,7.243,3.108,9.038c1.332,3.813,2.029,4.364,1.834,8.289
	c-0.172,3.417,1.822,5.858,5.721,5.864c8.52,0.012,6.107-6.115,11.107-9.207C22.391,13.6,21.793,12.489,20.383,12.517z"/>
<path fill="#E6B045" d="M31,51c0,6.75,14,6.75,14,0v-7H31V51z"/>
<path fill="#FFCC66" d="M38,12.254c-10.835,0-16.053,8.824-15.402,20.169c0.134,2.281,0.768,5.57,1.551,8.391
	C25.774,46.674,34.35,52.574,38,52.574c3.649,0,12.227-5.9,13.85-11.76c0.785-2.82,1.419-6.109,1.555-8.391
	C54.054,21.079,48.838,12.254,38,12.254z"/>
<path fill="#D47706" d="M38,43.217c-2.635-1.16-2.654-0.049-6.718,0.225c1.525,1.732,2.648,3.961,6.716,3.961
	c4.67,0,5.459-2.531,6.723-3.961C40.652,43.168,40.635,42.057,38,43.217z"/>
<path fill="#FFFFFF" d="M32.5,43.871c2.655,2.764,8.377,2.729,11,0.002C39.412,44.313,36.59,44.313,32.5,43.871z"/>
<path fill="#594640" d="M49.941,28.301c-2.442-1.453-6.82-1.633-8.555-0.641c-0.366,0.201-0.268,1.252,0.05,1.121
	c2.472-1.029,6.235-1.08,8.556,0.109C50.305,29.047,50.311,28.514,49.941,28.301z"/>
<path fill="#594640" d="M26.061,28.301c2.44-1.453,6.818-1.633,8.554-0.641c0.366,0.201,0.27,1.252-0.051,1.121
	c-2.472-1.029-6.234-1.082-8.554,0.109C25.698,29.047,25.69,28.514,26.061,28.301z"/>
<path fill="#E6B045" d="M41.359,39.256c0,2.186-6.719,2.186-6.719,0C34.641,38.752,41.359,38.752,41.359,39.256z"/>
<path fill="#FFFFFF" d="M49.705,32.734c-1.447,3.787-7.337,3.232-8.414,0.582C42.107,29.053,48.908,28.688,49.705,32.734z"/>
<path fill="#613F34" d="M42.766,32.322c0,3.355,4.854,3.355,4.854,0C47.619,29.206,42.766,29.206,42.766,32.322z"/>
<path fill="#7D5037" d="M43.245,33.395c0,1.926,3.894,1.926,3.894,0C47.139,31.609,43.245,31.609,43.245,33.395z"/>
<path fill="#1A1626" d="M44.185,32.375c0,1.393,2.015,1.393,2.015,0C46.199,31.083,44.185,31.083,44.185,32.375z"/>
<path fill="#AB968C" d="M43.496,31.969c0,0.703,1.018,0.703,1.018,0C44.514,31.315,43.496,31.315,43.496,31.969z"/>
<path fill="#45332C" d="M49.705,32.705c0-4.072-8.414-4.072-8.414,0.645C42.489,29.479,48.504,29.479,49.705,32.705z"/>
<path fill="#FFFFFF" d="M26.295,32.734c1.449,3.787,7.338,3.232,8.417,0.582C33.895,29.053,27.094,28.688,26.295,32.734z"/>
<path fill="#613F34" d="M28.383,32.328c0,3.355,4.851,3.355,4.851,0C33.234,29.211,28.383,29.211,28.383,32.328z"/>
<path fill="#7D5037" d="M28.862,33.4c0,1.924,3.895,1.924,3.895,0C32.756,31.615,28.862,31.615,28.862,33.4z"/>
<path fill="#1A1626" d="M29.801,32.381c0,1.393,2.017,1.393,2.017,0C31.818,31.086,29.801,31.086,29.801,32.381z"/>
<path fill="#AB968C" d="M29.114,31.973c0,0.705,1.018,0.705,1.018,0C30.131,31.321,29.114,31.321,29.114,31.973z"/>
<path fill="#45332C" d="M26.295,32.705c0-4.072,8.417-4.072,8.417,0.643C33.513,29.477,27.499,29.477,26.295,32.705z"/>
<path fill="#594640" d="M50.107,13.833c-7.598,7.785-0.346,8.287,4.129,19.232c2.512,6.133,4.102,13.756,5.814,2.779
	C62.189,22.127,53.969,12.688,50.107,13.833z"/>
<path fill="#594640" d="M31.458,10.85c-9.635,2.268-18.617,10.783-15.063,27.539c2.1,9.906,4.776-3.898,6.57-7.326
	c9.139-5.441,24.768-9.561,27.143-17.23C51.313,12.061,41.099,8.325,31.458,10.85z"/>
<path fill="#453631" d="M24.075,23.055c4.074-0.826,23.566-1.215,26.033-9.223C45.502,17.502,40.729,18.502,24.075,23.055z"/>
<path fill="#453631" d="M17.05,35.795c6.835-9.123,29.227-8.117,33.057-21.962C42.672,25.454,18.918,27.024,17.05,35.795z"/>
<path fill="#453631" d="M47.855,15.729c-1.766,2.781,4.364-1.303,10.971,16.599C57.198,21.862,51.615,14.657,47.855,15.729z"/>
</svg>
