<?xml version="1.0" encoding="utf-8"?>
<!-- Generator: Adobe Illustrator 19.0.0, SVG Export Plug-In . SVG Version: 6.00 Build 0)  -->
<svg version="1.1" id="Layer_1" xmlns="http://www.w3.org/2000/svg" xmlns:xlink="http://www.w3.org/1999/xlink" x="0px" y="0px"
	 width="64px" height="64px" viewBox="0 0 64 64" enable-background="new 0 0 64 64" xml:space="preserve">
<path fill="#7AB51D" d="M24.793,51.612c-1.445,0.309-1.986-2.002-6.434-4.458c-0.778-0.429-6.528-13.97-6.528-15.226
	c0-4.115,2.661-13.81,6.216-18.93c1.172-1.686-5.108-6.696-6.33-5.047C3.473,19.077,2,29.07,2,33.433C2,37.761,12.055,62,12.055,62
	L24.793,51.612z"/>
<path fill="#7AB51D" d="M39.207,51.612c1.445,0.309,1.986-2.002,6.435-4.458c0.778-0.429,6.528-13.97,6.528-15.226
	c0-4.115-2.661-13.81-6.216-18.93c-1.172-1.686,5.108-6.696,6.33-5.047C60.527,19.077,62,29.07,62,33.433
	C62,37.761,51.945,62,51.945,62L39.207,51.612z"/>
<path fill="#B88A6F" d="M20.97,2.529c-1.726,0.272-6.506,3.147-8.083,5.595c-0.865,1.341,3.506,4.381,4.78,3.513
	c3.846-2.62,2.539-5.145,7.229-6.109c5.613-1.155,7.223-1.805,7.223-3.15C32.118,1.782,24.708,1.936,20.97,2.529z"/>
<path fill="#B88A6F" d="M43.029,2.529c1.726,0.272,6.506,3.147,8.083,5.595c0.865,1.341-3.506,4.381-4.78,3.513
	c-3.846-2.62-2.539-5.145-7.229-6.109c-5.613-1.155-7.223-1.805-7.223-3.15C31.881,1.782,39.291,1.936,43.029,2.529z"/>
<path fill="#7AB51D" d="M24.617,51.609c3.49-1.257,11.428-1.452,14.842,0C43.195,53.199,51.945,62,51.945,62H12.055
	C12.055,62,20.781,52.99,24.617,51.609z"/>
<path fill="#946346" d="M24,53c0,6.75,16,6.75,16,0v-7H24V53z"/>
<path fill="#946346" d="M16.609,30.875c-5.146-0.928-1.127,13.462,2.902,9.493C21.377,38.526,19.016,31.31,16.609,30.875z"/>
<path fill="#946346" d="M47.389,30.875c-2.406,0.435-4.77,7.651-2.9,9.493C48.518,44.337,52.533,29.947,47.389,30.875z"/>
<path fill="#B88A6F" d="M32,14.002c-10.643,0-15.77,8.051-15.127,19.245c0.129,2.254,1.525,9.6,2.844,12.234
	c1.348,2.695,5.859,6.851,8.625,7.712c1.746,0.543,5.568,0.543,7.314,0c2.764-0.861,7.277-5.017,8.627-7.712
	c1.318-2.635,2.713-9.98,2.842-12.234C47.77,22.052,42.641,14.002,32,14.002z"/>
<path fill="#80553C" d="M32,44.477c-2.395-0.705-5.94,0.332-5.94,0.332C27.41,46.28,28.4,48.19,32,48.19
	c4.123,0,4.822-2.166,5.939-3.381C37.939,44.809,34.391,43.768,32,44.477z"/>
<path fill="#FFFFFF" d="M26.965,45.059c2.508,2.105,7.576,2.117,10.1,0C34.391,45.173,29.658,45.175,26.965,45.059z"/>
<path fill="#946346" d="M35.299,40.518c0,2.148-6.6,2.148-6.6,0C28.699,40.026,35.299,40.026,35.299,40.518z"/>
<path fill="#875B49" d="M32,14.002c-7.322,0-11.744,2.418-13.652,1.49c0,0-0.207,1.248,0.541,2.061c0,0-0.789,0.684-2.063-0.469
	c-1.213,3.939,2.387,6.221,15.174,6.221c12.785,0,9.73-3.113,16.016,2.355C47.4,18.92,43.117,14.002,32,14.002z"/>
<path fill="#6B4435" d="M37.414,19.877c-7.041,2.6-9.613-2.088-16.256-2.541c3.16,1.492,4.701,3.787,7.295,5.443
	c-5.645-1.889-9.789-5.141-10.104-7.275c0,0-0.941,3.117,2.785,5.447c-3.563,0.33-4.307-3.855-4.307-3.855
	c-1.805,2.898-1.555,12.246,0.449,19.181c0.334-2.475-0.426-3.497,0.717-6.479c3.426-8.914,1.221-5.172,14.008-5.172
	c12.783,0,10.477-3.414,14.004,5.172c1.053,2.559,0.383,4.005,0.719,6.479C50.928,20.638,44.883,17.121,37.414,19.877z"/>
<path fill="#FFFFFF" d="M43.393,34.114c-1.424,3.721-7.207,3.176-8.268,0.57C35.93,30.5,42.611,30.142,43.393,34.114z"/>
<path fill="#FFFFFF" d="M20.605,34.114c1.422,3.721,7.209,3.176,8.268,0.57C28.066,30.498,21.387,30.14,20.605,34.114z"/>
<path fill="#80553C" d="M43.982,29.633c-2.435-1.207-7.092-1.268-8.826-0.426c-0.371,0.164-0.127,1.31,0.186,1.199
	c2.42-0.895,6.318-0.916,8.582,0.078C44.225,30.611,44.352,29.802,43.982,29.633z"/>
<path fill="#80553C" d="M20.016,29.633c2.434-1.207,7.09-1.268,8.826-0.426c0.371,0.164,0.127,1.31-0.186,1.199
	c-2.422-0.895-6.318-0.916-8.584,0.078C19.771,30.611,19.646,29.802,20.016,29.633z"/>
<path fill="#613F34" d="M36.602,33.716c0,3.266,4.725,3.266,4.725,0C41.326,30.683,36.602,30.683,36.602,33.716z"/>
<path fill="#7D5037" d="M37.068,34.762c0,1.871,3.791,1.871,3.791,0C40.859,33.024,37.068,33.024,37.068,34.762z"/>
<path fill="#1A1626" d="M37.982,33.766c0,1.357,1.963,1.357,1.963,0C39.945,32.511,37.982,32.511,37.982,33.766z"/>
<path fill="#AB968C" d="M37.313,33.372c0,0.686,0.992,0.686,0.992,0C38.305,32.738,37.313,32.738,37.313,33.372z"/>
<path fill="#613F34" d="M22.672,33.716c0,3.266,4.726,3.266,4.726,0C27.398,30.683,22.672,30.683,22.672,33.716z"/>
<path fill="#7D5037" d="M23.141,34.76c0,1.873,3.789,1.873,3.789,0C26.93,33.022,23.141,33.022,23.141,34.76z"/>
<path fill="#1A1626" d="M24.055,33.766c0,1.355,1.961,1.355,1.961,0C26.016,32.509,24.055,32.509,24.055,33.766z"/>
<path fill="#AB968C" d="M23.385,33.372c0,0.684,0.99,0.684,0.99,0C24.375,32.736,23.385,32.736,23.385,33.372z"/>
<path fill="#946346" d="M43.393,34.085c0-3.997-8.268-3.997-8.268,0.633C36.307,30.92,42.211,30.92,43.393,34.085z"/>
<path fill="#946346" d="M20.605,34.085c0-3.997,8.268-3.997,8.268,0.631C27.693,30.918,21.787,30.918,20.605,34.085z"/>
</svg>
