<?xml version="1.0" encoding="utf-8"?>
<!-- Generator: Adobe Illustrator 19.0.0, SVG Export Plug-In . SVG Version: 6.00 Build 0)  -->
<svg version="1.1" id="Layer_1" xmlns="http://www.w3.org/2000/svg" xmlns:xlink="http://www.w3.org/1999/xlink" x="0px" y="0px"
	 width="64px" height="64px" viewBox="0 0 64 64" enable-background="new 0 0 64 64" xml:space="preserve">
<path fill="#529320" d="M51.794,49.097c-6.387-6.27-34.113-6.896-39.807,0.012c-4.783,5.807,1.644,12.891,1.644,12.891h36.521
	C50.154,61.999,57.078,54.284,51.794,49.097z"/>
<path fill="#D6A67A" d="M16.611,24.875c-5.146-0.928-1.127,13.461,2.902,9.492C21.378,32.527,19.017,25.309,16.611,24.875z"/>
<path fill="#D6A67A" d="M47.39,24.875c-2.406,0.434-4.769,7.652-2.9,9.492C48.517,38.336,52.533,23.947,47.39,24.875z"/>
<path fill="#E3C19B" d="M31.999,8.002c-10.641,0-15.77,8.051-15.125,19.244c0.127,2.254,1.523,9.6,2.842,12.234
	c1.348,2.695,5.861,6.851,8.625,7.712c1.746,0.543,5.568,0.543,7.314,0c2.766-0.861,7.277-5.017,8.627-7.712
	c1.318-2.635,2.715-9.98,2.844-12.234C47.769,16.053,42.642,8.002,31.999,8.002z"/>
<path fill="#D6A67A" d="M35.298,34.52c0,2.146-6.598,2.146-6.598,0C28.701,34.027,35.298,34.027,35.298,34.52z"/>
<path fill="#EFDE8B" d="M31.999,8c-7.32,0-11.744,2.418-13.65,1.49c0,0-0.207,1.248,0.539,2.063c0,0-0.789,0.682-2.063-0.469
	c-1.213,3.938,2.389,6.221,15.174,6.221c12.787,0,9.732-3.113,16.018,2.355C47.4,12.918,43.119,8,31.999,8z"/>
<path fill="#BA9D52" d="M37.413,13.877c-7.039,2.6-9.613-2.09-16.254-2.543c3.158,1.492,4.701,3.789,7.295,5.445
	c-5.646-1.891-9.789-5.141-10.104-7.275c0,0-0.943,3.115,2.783,5.447c-3.563,0.33-4.307-3.856-4.307-3.856
	c-1.803,2.898-1.553,12.244,0.451,19.182c0.334-2.475-0.428-3.498,0.717-6.482c3.424-8.914,1.221-5.17,14.006-5.17
	c12.785,0,10.477-3.414,14.004,5.17c1.053,2.56,0.385,4.008,0.719,6.482C50.927,14.637,44.882,11.119,37.413,13.877z"/>
<path fill="#FFFFFF" d="M43.392,28.113c-1.422,3.721-7.207,3.176-8.268,0.572C35.931,24.498,42.611,24.143,43.392,28.113z"/>
<path fill="#FFFFFF" d="M20.605,28.113c1.424,3.721,7.209,3.176,8.267,0.572C28.068,24.496,21.388,24.141,20.605,28.113z"/>
<path fill="#BF8C6B" d="M43.982,23.633c-2.434-1.209-7.09-1.268-8.824-0.426c-0.371,0.164-0.127,1.309,0.186,1.199
	c2.418-0.895,6.318-0.916,8.582,0.076C44.226,24.611,44.351,23.801,43.982,23.633z"/>
<path fill="#BF8C6B" d="M20.017,23.633c2.434-1.209,7.09-1.268,8.826-0.426c0.371,0.164,0.127,1.309-0.188,1.199
	c-2.422-0.895-6.316-0.916-8.582,0.076C19.773,24.611,19.648,23.801,20.017,23.633z"/>
<path fill="#613F34" d="M36.601,27.717c0,3.266,4.727,3.266,4.727,0C41.328,24.684,36.601,24.684,36.601,27.717z"/>
<path fill="#7D5037" d="M37.07,28.762c0,1.873,3.789,1.873,3.789,0C40.859,27.023,37.07,27.023,37.07,28.762z"/>
<path fill="#1A1626" d="M37.984,27.768c0,1.357,1.961,1.357,1.961,0C39.945,26.51,37.984,26.51,37.984,27.768z"/>
<path fill="#AB968C" d="M37.314,27.371c0,0.686,0.99,0.686,0.99,0C38.304,26.736,37.314,26.736,37.314,27.371z"/>
<path fill="#613F34" d="M22.673,27.717c0,3.266,4.725,3.266,4.725,0C27.398,24.684,22.673,24.684,22.673,27.717z"/>
<path fill="#7D5037" d="M23.14,28.76c0,1.875,3.791,1.875,3.791,0C26.931,27.021,23.14,27.021,23.14,28.76z"/>
<path fill="#1A1626" d="M24.054,27.768c0,1.355,1.963,1.355,1.963,0C26.017,26.508,24.054,26.508,24.054,27.768z"/>
<path fill="#AB968C" d="M23.384,27.371c0,0.684,0.99,0.684,0.99,0C24.374,26.734,23.384,26.734,23.384,27.371z"/>
<path fill="#D6A67A" d="M43.392,28.086c0-3.998-8.268-3.998-8.268,0.633C36.306,24.918,42.21,24.918,43.392,28.086z"/>
<path fill="#D6A67A" d="M20.605,28.086c0-3.998,8.267-3.998,8.267,0.631C27.693,24.918,21.787,24.918,20.605,28.086z"/>
<path fill="#E3C19B" d="M6.691,24.313c0.834,0.66,14.072,9.346,14.072,9.346l-1.535,5.539c-4.371-2.609-7.332-5.307-13.691-12.566
	C4.361,25.289,5.285,23.205,6.691,24.313z"/>
<path fill="#E3C19B" d="M57.281,24.42c-0.846,0.658-14.303,9.344-14.303,9.344l1.563,5.539c4.443-2.609,7.451-5.307,13.914-12.566
	C59.65,25.395,58.71,23.31,57.281,24.42z"/>
<path fill="#7AB51D" d="M40.939,44.085c2.09-1.894,5.744-5.452,5.744-5.452l-2.703-6.416c0,0-5.031,3.018-12.205,6.512
	c-7.174-3.494-12.205-6.512-12.205-6.512l-2.705,6.416c0,0,3.656,3.559,5.746,5.452C11.99,49.593,4.949,55.444,11.208,61.05
	c3.834,3.437,11.082-3.096,20.566-9.598c9.482,6.502,16.73,13.035,20.566,9.598C58.601,55.444,51.558,49.593,40.939,44.085z"/>
<linearGradient id="SVGID_1_" gradientUnits="userSpaceOnUse" x1="32.5009" y1="55.0142" x2="40.3088" y2="53.356">
	<stop  offset="0" style="stop-color:#529320"/>
	<stop  offset="0.1053" style="stop-color:#5B9B1F"/>
	<stop  offset="0.3702" style="stop-color:#6CA91E"/>
	<stop  offset="0.6565" style="stop-color:#77B21D"/>
	<stop  offset="1" style="stop-color:#7AB51D"/>
</linearGradient>
<path fill="url(#SVGID_1_)" d="M31.775,51.452l9.164-7.367l5.568,17.092C46.507,61.177,42.699,59.845,31.775,51.452z"/>
<linearGradient id="SVGID_2_" gradientUnits="userSpaceOnUse" x1="24.4201" y1="44.3624" x2="24.3378" y2="39.7002">
	<stop  offset="0" style="stop-color:#529320"/>
	<stop  offset="0.1053" style="stop-color:#5B9B1F"/>
	<stop  offset="0.3702" style="stop-color:#6CA91E"/>
	<stop  offset="0.6565" style="stop-color:#77B21D"/>
	<stop  offset="1" style="stop-color:#7AB51D"/>
</linearGradient>
<path fill="url(#SVGID_2_)" d="M22.611,44.085l9.164-5.356l-14.91-0.096C16.865,38.633,19.753,41.703,22.611,44.085z"/>
</svg>
