<?xml version="1.0" encoding="utf-8"?>
<!-- Generator: Adobe Illustrator 15.0.0, SVG Export Plug-In . SVG Version: 6.00 Build 0)  -->
<!DOCTYPE svg PUBLIC "-//W3C//DTD SVG 1.1//EN" "http://www.w3.org/Graphics/SVG/1.1/DTD/svg11.dtd" [
	<!ENTITY ns_flows "http://ns.adobe.com/Flows/1.0/">
	<!ENTITY ns_extend "http://ns.adobe.com/Extensibility/1.0/">
	<!ENTITY ns_ai "http://ns.adobe.com/AdobeIllustrator/10.0/">
	<!ENTITY ns_graphs "http://ns.adobe.com/Graphs/1.0/">
]>
<svg version="1.1" id="Layer_1" xmlns:x="&ns_extend;" xmlns:i="&ns_ai;" xmlns:graph="&ns_graphs;"
	 xmlns="http://www.w3.org/2000/svg" xmlns:xlink="http://www.w3.org/1999/xlink" xmlns:a="http://ns.adobe.com/AdobeSVGViewerExtensions/3.0/"
	 x="0px" y="0px" width="64px" height="64px" viewBox="0 0 64 64" enable-background="new 0 0 64 64" xml:space="preserve">
<path fill="#3B2C29" d="M19.938,16.643c-8.131,34.904-7.388,34.156,9.73,34.156C20.195,44.172,38.342,16.168,19.938,16.643z"/>
<path fill="#453631" d="M17.005,16.102c-5.935,26.519-0.814,33.33,3.731,34.697h5.21C13.757,42.211,32.811,15.581,17.005,16.102z"/>
<path fill="#3B2C29" d="M43.861,16.641c8.132,34.906,7.387,34.158-9.73,34.158C42.843,45.479,25.457,16.167,43.861,16.641z"/>
<path fill="#453631" d="M46.793,16.1c8.675,24.126-0.018,33.582-3.732,34.699h-5.207C50.045,42.91,30.99,15.579,46.793,16.1z"/>
<path fill="#594640" d="M48.236,29.065c2.512,6.132,0.027,18.722-5.176,21.734c5.767,0,9.277-7.979,10.99-18.955
	C56.189,18.127,43.762,18.12,48.236,29.065z"/>
<path fill="#594640" d="M10.394,34.389c2.1,9.906,4.685,16.41,10.343,16.41c-6.309-6.529-5.566-20.308-3.772-23.736
	C26.103,21.622,6.84,17.633,10.394,34.389z"/>
<path fill="#8E3ED6" d="M13.077,52.43c2.302-1.412,11.849-5.139,11.849-5.139h14.22c0,0,9.538,3.721,11.828,5.135
	C54.298,54.48,55,62,55,62H9C9,62,9.741,54.473,13.077,52.43z"/>
<path fill="#E6B045" d="M24.832,48.939c0,5.725,14.336,5.725,14.336,0c0-3.492,0-9.264,0-9.264H24.832
	C24.832,39.676,24.832,44.432,24.832,48.939z"/>
<path fill="#FFCC66" d="M32,8.254c-10.836,0-16.054,8.824-15.402,20.17c0.134,2.281,0.768,5.57,1.551,8.39
	C19.773,42.674,28.35,48.576,32,48.576c3.649,0,12.227-5.902,13.85-11.762c0.785-2.82,1.419-6.109,1.555-8.39
	C48.054,17.079,42.838,8.254,32,8.254z"/>
<path fill="#732EB0" d="M16,62h1C16.5,55.334,16.5,55.334,16,62z"/>
<path fill="#732EB0" d="M47,62h1C47.5,55.334,47.5,55.334,47,62z"/>
<path fill="#E6B045" d="M35.3,35.322c0,2.148-6.6,2.148-6.6,0C28.7,34.83,35.3,34.83,35.3,35.322z"/>
<path fill="#C1873C" d="M27.385,42.844c2.812-1.748,6.422-1.748,9.231,0c0.398,0.246,0.448-0.02,0.324-0.23
	c-2.08-3.563-7.8-3.563-9.881,0C26.938,42.824,26.984,43.09,27.385,42.844z"/>
<path fill="#594640" d="M43.945,25.704c-1.736-2.936-6.915-1.599-8.464-2.516c-0.357-0.104-0.449,1.19-0.151,1.279
	c2.291,0.798,6.718-0.658,8.343,2.022C43.897,26.811,44.213,26.125,43.945,25.704z"/>
<path fill="#594640" d="M20.057,25.704c1.734-2.935,6.913-1.599,8.462-2.516c0.357-0.104,0.451,1.19,0.152,1.28
	c-2.29,0.796-6.717-0.659-8.344,2.021C20.103,26.811,19.787,26.125,20.057,25.704z"/>
<path fill="#FFFFFF" d="M43.706,28.973c-1.447,3.787-7.337,3.232-8.414,0.582C36.108,25.29,42.909,24.926,43.706,28.973z"/>
<path fill="#613F34" d="M36.767,29.162c0,3.355,4.854,3.355,4.854,0C41.62,26.044,36.767,26.044,36.767,29.162z"/>
<path fill="#7D5037" d="M37.246,30.234c0,1.926,3.894,1.926,3.894,0C41.14,28.449,37.246,28.449,37.246,30.234z"/>
<path fill="#1A1626" d="M38.186,29.214c0,1.393,2.015,1.393,2.015,0C40.2,27.921,38.186,27.921,38.186,29.214z"/>
<path fill="#AB968C" d="M37.497,28.808c0,0.703,1.018,0.703,1.018,0C38.515,28.154,37.497,28.154,37.497,28.808z"/>
<path fill="#45332C" d="M43.706,28.944c0-4.072-8.414-4.072-8.414,0.645C36.49,25.717,42.505,25.717,43.706,28.944z"/>
<path fill="#FFFFFF" d="M20.296,28.973c1.449,3.787,7.339,3.232,8.418,0.582C27.896,25.29,21.095,24.926,20.296,28.973z"/>
<path fill="#613F34" d="M22.384,29.162c0,3.355,4.852,3.355,4.852,0C27.235,26.044,22.384,26.044,22.384,29.162z"/>
<path fill="#7D5037" d="M22.862,30.234c0,1.924,3.895,1.924,3.895,0C26.757,28.449,22.862,28.449,22.862,30.234z"/>
<path fill="#1A1626" d="M23.802,29.214c0,1.393,2.017,1.393,2.017,0C25.818,27.919,23.802,27.919,23.802,29.214z"/>
<path fill="#AB968C" d="M23.114,28.806c0,0.705,1.018,0.705,1.018,0C24.132,28.154,23.114,28.154,23.114,28.806z"/>
<path fill="#45332C" d="M20.296,28.944c0-4.072,8.418-4.072,8.418,0.643C27.514,25.713,21.499,25.713,20.296,28.944z"/>
<rect x="18.706" y="31.081" fill="#FFCC66" width="26.588" height="2.48"/>
<path fill="#594640" d="M44.107,9.833c-7.598,7.785-0.346,8.287,4.129,19.232c2.512,6.132,4.102,13.755,5.814,2.779
	C56.189,18.127,47.969,8.688,44.107,9.833z"/>
<path fill="#594640" d="M25.457,6.85C15.822,9.118,6.84,17.633,10.394,34.389c2.1,9.906,4.776-3.898,6.57-7.326
	c9.139-5.441,24.769-9.561,27.144-17.23C45.313,8.061,35.099,4.325,25.457,6.85z"/>
<path fill="#453631" d="M18.074,19.055c4.074-0.826,23.566-1.215,26.033-9.223C39.502,13.502,34.729,14.502,18.074,19.055z"/>
<path fill="#453631" d="M11.05,31.795c6.835-9.123,29.228-8.117,33.058-21.963C36.672,21.454,12.918,23.024,11.05,31.795z"/>
<path fill="#453631" d="M41.855,11.729c-1.766,2.781,4.364-1.303,10.971,16.6C51.198,17.862,45.615,10.657,41.855,11.729z"/>
</svg>
