<?xml version="1.0" encoding="utf-8"?>
<!-- Generator: Adobe Illustrator 15.0.0, SVG Export Plug-In . SVG Version: 6.00 Build 0)  -->
<!DOCTYPE svg PUBLIC "-//W3C//DTD SVG 1.1//EN" "http://www.w3.org/Graphics/SVG/1.1/DTD/svg11.dtd" [
	<!ENTITY ns_flows "http://ns.adobe.com/Flows/1.0/">
	<!ENTITY ns_extend "http://ns.adobe.com/Extensibility/1.0/">
	<!ENTITY ns_ai "http://ns.adobe.com/AdobeIllustrator/10.0/">
	<!ENTITY ns_graphs "http://ns.adobe.com/Graphs/1.0/">
]>
<svg version="1.1" id="Layer_1" xmlns:x="&ns_extend;" xmlns:i="&ns_ai;" xmlns:graph="&ns_graphs;"
	 xmlns="http://www.w3.org/2000/svg" xmlns:xlink="http://www.w3.org/1999/xlink" xmlns:a="http://ns.adobe.com/AdobeSVGViewerExtensions/3.0/"
	 x="0px" y="0px" width="64px" height="64px" viewBox="0 0 64 64" enable-background="new 0 0 64 64" xml:space="preserve">
<path fill="#946346" d="M28.908,18.068c-1.744-1.087-1.363,3.611-1.42,4.033c0,0-1.314-2.872-5.117-3.593
	c0,0,1.027-1.537,1.625-4.001C24.783,7.594,28.908,18.068,28.908,18.068z"/>
<path fill="#7AB51D" d="M12.018,35.395c0,0,8.24,2.053,11.598,1.32c-0.029-7.664,4.617-9.244,4.199-15.499
	c-0.184-2.752-4.512-4.56-4.512-4.56C17.865,20.844,14.477,28.159,12.018,35.395z"/>
<path fill="#B00505" d="M14.195,45.553c16.105-3.521,31.736-8.03,46.803-13.433c0.334-0.025,0.668-0.051,1.002-0.078
	c-0.053-0.664-0.105-1.329-0.156-1.994c-18.832,1.489-37.746,1.571-56.588,0.248c-0.09-0.34-0.182-0.681-0.271-1.021
	C3.99,29.204,2.994,29.129,2,29.051C2.631,37.454,9.344,43.925,14.195,45.553z"/>
<linearGradient id="SVGID_1_" gradientUnits="userSpaceOnUse" x1="5.7773" y1="39.3877" x2="61.1133" y2="39.3877">
	<stop  offset="0" style="stop-color:#FF3B3B"/>
	<stop  offset="0.2816" style="stop-color:#FC3838"/>
	<stop  offset="0.5284" style="stop-color:#F32D2D"/>
	<stop  offset="0.7622" style="stop-color:#E31B1B"/>
	<stop  offset="0.9869" style="stop-color:#CD0302"/>
	<stop  offset="1" style="stop-color:#CC0100"/>
	<a:midPointStop  offset="0" style="stop-color:#FF3B3B"/>
	<a:midPointStop  offset="0.7333" style="stop-color:#FF3B3B"/>
	<a:midPointStop  offset="1" style="stop-color:#CC0100"/>
</linearGradient>
<path fill="url(#SVGID_1_)" d="M14.195,45.553c3.266,1.702,43.047,1.39,46.02-0.621c1.342-4.947,0.783-12.812,0.783-12.812
	c-18.381,1.405-36.834,1.477-55.221,0.218C8.463,41.812,14.201,45.562,14.195,45.553z"/>
<path fill="#B00505" d="M60.748,36.751c-9.363,2.129-40.605,1.535-52.705,0C20.959,37.161,44.084,38.074,60.748,36.751z"/>
<path fill="#B00505" d="M60.178,41.438c-8.689,2.129-37.674,1.535-48.896,0C23.262,41.849,44.717,42.762,60.178,41.438z"/>
<path fill="#B88A6F" d="M35.566,7.991c0.197,1.028,0.012,1.823-0.355,2.685c-0.572,1.322-0.084,2.143,0.756,3.319
	c0.801,1.116-0.455,1.688-1.508,1.447c-0.277,0.274-0.303,0.796-0.303,0.796s-0.92,0.47-0.48,1.76
	c-1.002,0.652,0.199,2.416-1.895,2.041c-2.041-0.368-4.416-2.475-4.785-3.022c-0.582-0.862-0.385-3.122-0.385-3.122
	c-1.076,1.024-2.859-1.514-2.42-4.04C24.92,5.666,29.49,0.692,35.566,7.991z"/>
<path fill="#946346" d="M27.105,11.212c0.219-0.992-0.402-2.033-1.215-2.213c0,0,1.137,1.485,0.439,3.005
	C26.33,12.004,26.961,11.904,27.105,11.212z"/>
<path fill="#F5F5F5" d="M31.4,11.699c0.441,0.697,1.709,1.237,2.162,1.213C35.096,9.868,32.299,10.455,31.4,11.699z"/>
<path fill="#45332C" d="M33.51,12.912c-1.248-0.223-0.055-3.492,0.527-1.535C34.039,11.705,33.762,12.96,33.51,12.912z"/>
<path fill="#946346" d="M31.4,11.699c0.525-1.201,2.82-1.788,2.637-0.322C33.813,10.536,32.209,10.818,31.4,11.699z"/>
<path fill="#F5F5F5" d="M33.652,11.355c-0.051,0.309-0.494,0.229-0.441-0.077C33.262,10.992,33.703,11.07,33.652,11.355z"/>
<path fill="#80553C" d="M31.609,9.543c0.979-0.486,2.646-0.222,3.186,0.341c0.123,0.109-0.074,0.705-0.174,0.627
	c-0.783-0.636-2.17-0.894-3.074-0.509C31.432,10.05,31.461,9.609,31.609,9.543z"/>
<path fill="#80553C" d="M34.041,16.684c-0.441,0.187-0.203,0.662-0.203,0.662c0.191,0.033,0.119,0.705-0.162,0.652
	c-1.412-0.254-1.785-1.275-2.076-1.863C33.164,16.329,34.852,15.825,34.041,16.684z"/>
<path fill="#FFFFFF" d="M34.041,16.684c0,0-0.119,0.586-0.203,0.662c-0.309-0.055-1.412-0.51-1.959-1.052L34.041,16.684z"/>
<path fill="#875B49" d="M23.139,3.867c1.211-1.514,3.32-2.261,6.689-1.659c3.102,0.555,4.793,1.927,5.672,1.673
	c0,0,0.076,0.548-0.205,0.952c0.426,0.099,0.73-0.144,0.73-0.138c0.215,0.543,0.51,1.906-0.459,3.296
	c-4.586-2.721-5.178-1.037-6.541,0.144c-0.313,0.275,0.246,1.846-1.295,3.061c0.287-3.257-3.518-3.629-3.568-0.775
	c-0.033,1.828,0.627,2.718,0.988,3.203c-0.75,0.094-1.154,0.885-1.154,0.885C20.494,13.88,20.676,5.145,23.139,3.867z"/>
<path fill="#946346" d="M33.639,14.721c0.072,0.465,0.688,0.717,1.068,0.784c0.514,0.093,1.047-0.069,1.334-0.395
	C35.924,14.634,34.623,15.528,33.639,14.721z"/>
<linearGradient id="SVGID_2_" gradientUnits="userSpaceOnUse" x1="38.7266" y1="290.6406" x2="47.4795" y2="290.6406" gradientTransform="matrix(0.7071 0.7071 -0.7071 0.7071 193.792 -184.2116)">
	<stop  offset="0" style="stop-color:#DB9442"/>
	<stop  offset="0.3947" style="stop-color:#CF843D"/>
	<stop  offset="1" style="stop-color:#B86432"/>
	<a:midPointStop  offset="0" style="stop-color:#DB9442"/>
	<a:midPointStop  offset="0.5576" style="stop-color:#DB9442"/>
	<a:midPointStop  offset="1" style="stop-color:#B86432"/>
</linearGradient>
<path fill="url(#SVGID_2_)" d="M20.201,45.475C16.65,47.479,8.316,55.51,8.504,56.835c0.379,2.689,2.504,4.773,5.162,5.162
	c1.34,0.194,9.422-8.062,11.424-11.636c2.994-5.359,2.191-7.086,2.191-7.086S25.516,42.474,20.201,45.475z"/>
<linearGradient id="SVGID_3_" gradientUnits="userSpaceOnUse" x1="40.959" y1="254.5586" x2="45.25" y2="254.5586" gradientTransform="matrix(0.7071 0.7071 -0.7071 0.7071 193.792 -184.2116)">
	<stop  offset="0" style="stop-color:#DB9442"/>
	<stop  offset="0.3947" style="stop-color:#CF843D"/>
	<stop  offset="1" style="stop-color:#B86432"/>
	<a:midPointStop  offset="0" style="stop-color:#DB9442"/>
	<a:midPointStop  offset="0.5576" style="stop-color:#DB9442"/>
	<a:midPointStop  offset="1" style="stop-color:#B86432"/>
</linearGradient>
<path fill="url(#SVGID_3_)" d="M47.418,26.155l-3.033-3.034c-1.057,1.057-1.74,4.774-1.74,4.774S46.361,27.214,47.418,26.155z"/>
<linearGradient id="SVGID_4_" gradientUnits="userSpaceOnUse" x1="43.1035" y1="302.7051" x2="43.1035" y2="252.2568" gradientTransform="matrix(0.7071 0.7071 -0.7071 0.7071 193.792 -184.2116)">
	<stop  offset="0" style="stop-color:#F5A54A"/>
	<stop  offset="0.3395" style="stop-color:#EB9E47"/>
	<stop  offset="1" style="stop-color:#DB9442"/>
	<a:midPointStop  offset="0" style="stop-color:#F5A54A"/>
	<a:midPointStop  offset="0.4424" style="stop-color:#F5A54A"/>
	<a:midPointStop  offset="1" style="stop-color:#DB9442"/>
</linearGradient>
<path fill="url(#SVGID_4_)" d="M10.814,60.791c0,0-0.596-0.369-1.072-1.059l35.625-35.628l1.066,1.066L10.814,60.791z"/>
<path fill="#B88A6F" d="M41.877,27.591l0.713-0.711c-0.807-0.756-1.139-0.012-2.725,1.003c0,0-5.906-0.559-9.75-3.321l-1.803,3.224
	c4.5,2.743,10.422,2.759,10.422,2.759c0.477,0.443,1.969,0.758,2.676,0.651c0.973-0.148,2.078-1.017,1.945-1.768
	C44.549,27.968,42.1,28.373,41.877,27.591z"/>
<path fill="#529320" d="M27.025,20.258c-0.701-1.144-2.469-1.017-3.463-0.081c-0.994,0.934-0.732,2.258-0.139,3.466
	c0.902,1.828,2.615,3.333,4.619,4.553l2.57-4.161C29.246,23.051,27.982,21.815,27.025,20.258z"/>
</svg>
