<?xml version="1.0" encoding="utf-8"?>
<!-- Generator: Adobe Illustrator 15.0.0, SVG Export Plug-In . SVG Version: 6.00 Build 0)  -->
<!DOCTYPE svg PUBLIC "-//W3C//DTD SVG 1.1//EN" "http://www.w3.org/Graphics/SVG/1.1/DTD/svg11.dtd" [
	<!ENTITY ns_flows "http://ns.adobe.com/Flows/1.0/">
	<!ENTITY ns_extend "http://ns.adobe.com/Extensibility/1.0/">
	<!ENTITY ns_ai "http://ns.adobe.com/AdobeIllustrator/10.0/">
	<!ENTITY ns_graphs "http://ns.adobe.com/Graphs/1.0/">
]>
<svg version="1.1" id="Layer_1" xmlns:x="&ns_extend;" xmlns:i="&ns_ai;" xmlns:graph="&ns_graphs;"
	 xmlns="http://www.w3.org/2000/svg" xmlns:xlink="http://www.w3.org/1999/xlink" xmlns:a="http://ns.adobe.com/AdobeSVGViewerExtensions/3.0/"
	 x="0px" y="0px" width="64px" height="64px" viewBox="0 0 64 64" enable-background="new 0 0 64 64" xml:space="preserve">
<path fill="#875B49" d="M11.305,17.085c0.613-0.032,1.383-0.977,2.063-2.223c-0.596,0.118-1.244,0.088-1.955-0.184
	C17.189,12.433,15-1.003,22.607,3.734L21.535,7.27c-2.75-2.572,0.115,6.198-4.518,7.691c0.492-0.342,0.646-1.211,0.715-2.259
	C16.4,15.511,14.508,18.062,11.305,17.085z"/>
<path fill="#6B4435" d="M11.305,17.085c0.613-0.032,2.639-1.199,3.318-2.446c-1.684,0.65-2.598,0.627-3.211,0.04
	c6.584-0.93,4.445-13.101,10.402-9.026L21.535,7.27c-2.75-2.572,0.115,6.198-4.518,7.691c1.449-1.104,1.561-2.235,1.201-3.017
	C16.885,14.751,14.508,18.062,11.305,17.085z"/>
<path fill="#8E3ED6" d="M23.027,3.805c1.064,0.853,0.215,4.093-2.01,3.837C19.191,7.439,21.617,2.667,23.027,3.805z"/>
<path fill="#946346" d="M28.908,18.069c-1.744-1.087-1.363,3.611-1.42,4.033c0,0-1.314-2.872-5.117-3.593
	c0,0,0.676-1.473,1.273-3.937C24.432,7.659,28.908,18.069,28.908,18.069z"/>
<path fill="#B88A6F" d="M35.186,7.414c0.232,1.021,0.242,2.149-0.111,3.021c-0.545,1.346-0.021,2.146,0.885,3.291
	c0.861,1.086-0.418,1.704-1.506,1.505c-0.279,0.28-0.152,0.63-0.152,0.63c-1.004,0.604-1.188,1.77-0.844,2.157
	c0,0-0.293,0.09-0.328,0.598c-0.105,1.452-1.066,1.729-3.07,0.665c-3.955-2.103-3.742-5.301-3.742-5.301
	c-1.07,1.063-3.285-1.463-2.91-4.002C24.018,5.76,28.693,0.347,35.186,7.414z"/>
<path fill="#946346" d="M26.609,11.962c0.184-1.029-0.49-2.078-1.332-2.234c0,0,1.223,1.488,0.555,3.076
	C25.832,12.804,26.48,12.681,26.609,11.962z"/>
<path fill="#F5F5F5" d="M31.432,11.708c0.436,0.729,1.725,1.323,2.191,1.313C35.295,9.929,32.395,10.45,31.432,11.708z"/>
<path fill="#45332C" d="M33.572,13.02c-1.283-0.271,0.047-3.601,0.59-1.566C34.152,11.79,33.828,13.074,33.572,13.02z"/>
<path fill="#45332C" d="M31.432,11.708c0.574-1.224,2.961-1.759,2.73-0.254C33.955,10.58,32.289,10.823,31.432,11.708z"/>
<path fill="#F5F5F5" d="M33.766,11.419c-0.064,0.316-0.516,0.222-0.453-0.095C33.373,11.035,33.824,11.129,33.766,11.419z"/>
<path fill="#423225" d="M31.457,9.626c0.99-0.537,2.762-0.165,3.336,0.393c0.127,0.11-0.102,0.583-0.197,0.493
	c-0.65-0.594-2.01-0.985-3.148-0.673C31.32,9.874,31.305,9.699,31.457,9.626z"/>
<path fill="#84401E" d="M33.807,16.442c-0.443,0.204-0.127,0.726-0.127,0.726c0.361,0.05,0.191,1.024-0.223,0.851
	c-1.207-0.512-2.15-1.644-2.127-2.021c0.246,0.053,2.146,0.314,2.971-0.136C34.301,15.861,34.303,16.269,33.807,16.442z"/>
<path fill="#FFFFFF" d="M33.807,16.442l-0.127,0.726c-0.318-0.043-1.475-0.503-2.057-1.021
	C31.623,16.147,32.99,16.574,33.807,16.442z"/>
<path fill="#875B49" d="M22.121,5.708c0.674-2.907,3.881-4.176,7.414-3.554c4.572,0.802,6.428,3.972,5.65,5.259
	c-4.813-3.466-6.926,6.339-8.385,2.738c-0.734-1.803-3.223-1.335-3.129,0.962c0.094,2.318,1.416,2.918,1.416,2.918
	c-0.732,0.937-1.469,0.947-1.469,0.947C20.131,13.802,19.418,6.631,22.121,5.708z"/>
<path fill="#6B4435" d="M22.121,5.708c0.674-2.907,5.869-3.392,7.449-2.788c-2.438-0.027-5.48,1.036-5.961,1.957
	c2.041-0.202,5.125-0.867,8.416-0.118c-2.064-0.074-4.021,1.321-8.25,1.303c0,0,2.889,1.147,6.381,0.347
	c-1.08,1.022-3.658,1.725-4.889,1.873c1.305,0.299,2.809,0.41,6.223-1.101c-2.342,1.484-3.674,5.479-4.689,2.971
	c-0.734-1.803-3.223-1.335-3.129,0.962c0.094,2.318,1.416,2.918,1.416,2.918c-0.732,0.937-1.469,0.947-1.469,0.947
	C20.131,13.802,19.418,6.631,22.121,5.708z"/>
<path fill="#946346" d="M33.582,14.54c0.092,0.465,0.732,0.69,1.129,0.744c0.529,0.074,1.074-0.11,1.361-0.446
	C35.938,14.367,34.623,15.308,33.582,14.54z"/>
<path fill="#8E3ED6" d="M12.018,35.394c0,0,8.24,2.053,11.598,1.32c0.408-2.49,0.746-7.271,1.465-7.156
	c1.045,0.168,5.324-1.176,2.734-8.342c-0.938-2.594-4.756-4.611-4.756-4.611C17.621,20.792,14.477,28.16,12.018,35.394z"/>
<path fill="#B00505" d="M14.195,45.553c16.105-3.521,31.736-8.031,46.803-13.433c0.334-0.025,0.668-0.051,1.002-0.078
	c-0.053-0.664-0.105-1.328-0.156-1.993c-18.832,1.488-37.746,1.57-56.588,0.248c-0.09-0.34-0.182-0.681-0.271-1.021
	C3.99,29.205,2.994,29.129,2,29.051C2.631,37.453,9.344,43.924,14.195,45.553z"/>
<linearGradient id="SVGID_1_" gradientUnits="userSpaceOnUse" x1="5.7773" y1="39.3877" x2="61.1133" y2="39.3877">
	<stop  offset="0" style="stop-color:#FF3B3B"/>
	<stop  offset="0.2816" style="stop-color:#FC3838"/>
	<stop  offset="0.5284" style="stop-color:#F32D2D"/>
	<stop  offset="0.7622" style="stop-color:#E31B1B"/>
	<stop  offset="0.9869" style="stop-color:#CD0302"/>
	<stop  offset="1" style="stop-color:#CC0100"/>
	<a:midPointStop  offset="0" style="stop-color:#FF3B3B"/>
	<a:midPointStop  offset="0.7333" style="stop-color:#FF3B3B"/>
	<a:midPointStop  offset="1" style="stop-color:#CC0100"/>
</linearGradient>
<path fill="url(#SVGID_1_)" d="M14.195,45.553c3.266,1.701,43.047,1.389,46.02-0.621c1.342-4.948,0.783-12.812,0.783-12.812
	c-18.381,1.404-36.834,1.476-55.221,0.218C8.463,41.811,14.201,45.561,14.195,45.553z"/>
<path fill="#B00505" d="M60.748,36.75c-9.363,2.129-40.605,1.535-52.705,0C20.959,37.16,44.084,38.073,60.748,36.75z"/>
<path fill="#B00505" d="M60.178,41.438c-8.689,2.129-37.674,1.535-48.896,0C23.262,41.848,44.717,42.762,60.178,41.438z"/>
<linearGradient id="SVGID_2_" gradientUnits="userSpaceOnUse" x1="38.7256" y1="290.6406" x2="47.4795" y2="290.6406" gradientTransform="matrix(0.7071 0.7071 -0.7071 0.7071 193.792 -184.2116)">
	<stop  offset="0" style="stop-color:#DB9442"/>
	<stop  offset="0.3947" style="stop-color:#CF843D"/>
	<stop  offset="1" style="stop-color:#B86432"/>
	<a:midPointStop  offset="0" style="stop-color:#DB9442"/>
	<a:midPointStop  offset="0.5576" style="stop-color:#DB9442"/>
	<a:midPointStop  offset="1" style="stop-color:#B86432"/>
</linearGradient>
<path fill="url(#SVGID_2_)" d="M20.201,45.475C16.65,47.479,8.316,55.51,8.504,56.834c0.379,2.689,2.504,4.773,5.162,5.162
	c1.34,0.195,9.422-8.061,11.424-11.635c2.994-5.359,2.191-7.086,2.191-7.086S25.516,42.473,20.201,45.475z"/>
<linearGradient id="SVGID_3_" gradientUnits="userSpaceOnUse" x1="40.96" y1="254.5586" x2="45.25" y2="254.5586" gradientTransform="matrix(0.7071 0.7071 -0.7071 0.7071 193.792 -184.2116)">
	<stop  offset="0" style="stop-color:#DB9442"/>
	<stop  offset="0.3947" style="stop-color:#CF843D"/>
	<stop  offset="1" style="stop-color:#B86432"/>
	<a:midPointStop  offset="0" style="stop-color:#DB9442"/>
	<a:midPointStop  offset="0.5576" style="stop-color:#DB9442"/>
	<a:midPointStop  offset="1" style="stop-color:#B86432"/>
</linearGradient>
<path fill="url(#SVGID_3_)" d="M47.418,26.156l-3.033-3.034c-1.057,1.057-1.74,4.774-1.74,4.774S46.361,27.214,47.418,26.156z"/>
<linearGradient id="SVGID_4_" gradientUnits="userSpaceOnUse" x1="43.1035" y1="302.7051" x2="43.1035" y2="252.2568" gradientTransform="matrix(0.7071 0.7071 -0.7071 0.7071 193.792 -184.2116)">
	<stop  offset="0" style="stop-color:#F5A54A"/>
	<stop  offset="0.3395" style="stop-color:#EB9E47"/>
	<stop  offset="1" style="stop-color:#DB9442"/>
	<a:midPointStop  offset="0" style="stop-color:#F5A54A"/>
	<a:midPointStop  offset="0.4424" style="stop-color:#F5A54A"/>
	<a:midPointStop  offset="1" style="stop-color:#DB9442"/>
</linearGradient>
<path fill="url(#SVGID_4_)" d="M10.814,60.791c0,0-0.596-0.369-1.072-1.059l35.625-35.627l1.066,1.066L10.814,60.791z"/>
<path fill="#B88A6F" d="M41.877,27.591l0.713-0.711c-0.807-0.756-1.139-0.012-2.725,1.003c0,0-5.906-0.559-9.75-3.321l-1.803,3.224
	c4.5,2.743,10.422,2.759,10.422,2.759c0.477,0.443,1.969,0.758,2.676,0.65c0.973-0.148,2.078-1.017,1.945-1.768
	C44.549,27.968,42.1,28.374,41.877,27.591z"/>
<path fill="#5D1E96" d="M27.025,20.258c-0.701-1.144-2.469-1.017-3.463-0.081c-0.994,0.934-0.732,2.258-0.139,3.466
	c0.902,1.828,2.615,3.333,4.619,4.553l2.57-4.161C29.246,23.051,27.982,21.816,27.025,20.258z"/>
</svg>
