<?xml version="1.0" encoding="utf-8"?>
<!-- Generator: Adobe Illustrator 15.0.0, SVG Export Plug-In . SVG Version: 6.00 Build 0)  -->
<!DOCTYPE svg PUBLIC "-//W3C//DTD SVG 1.1//EN" "http://www.w3.org/Graphics/SVG/1.1/DTD/svg11.dtd" [
	<!ENTITY ns_flows "http://ns.adobe.com/Flows/1.0/">
	<!ENTITY ns_extend "http://ns.adobe.com/Extensibility/1.0/">
	<!ENTITY ns_ai "http://ns.adobe.com/AdobeIllustrator/10.0/">
	<!ENTITY ns_graphs "http://ns.adobe.com/Graphs/1.0/">
]>
<svg version="1.1" id="Layer_1" xmlns:x="&ns_extend;" xmlns:i="&ns_ai;" xmlns:graph="&ns_graphs;"
	 xmlns="http://www.w3.org/2000/svg" xmlns:xlink="http://www.w3.org/1999/xlink" xmlns:a="http://ns.adobe.com/AdobeSVGViewerExtensions/3.0/"
	 x="0px" y="0px" width="64px" height="64px" viewBox="0 0 64 64" enable-background="new 0 0 64 64" xml:space="preserve">
<path fill="#6E8189" d="M16.378,55.636c0,0-0.596,0.072-0.291,0.34c3.877,3.393,8.947,6.025,8.947,6.025
	c0.293-0.113,0.289-0.443,0.289-0.443L16.378,55.636z"/>
<path fill="#99A8AE" d="M24.38,56.983c-4.373-1.709-7.33-2.521-8.002-1.348c4.914,3.92,8.945,5.922,8.945,5.922
	C27.419,59.692,26.212,58.067,24.38,56.983z"/>
<path fill="#1A1626" d="M19.697,55.397c0.385,1.219,0.861,1.662,1.217,1.143c0.334,0.682,0.809,0.527,0.984,0.199
	c0.447,0.566,0.932,0.156,0.553-0.793C22.22,55.429,19.593,55.069,19.697,55.397z"/>
<path fill="#6E8189" d="M40.087,61.558c0,0-0.234,0.307,0.086,0.443c4.076-0.305,7.826-7.414,7.826-7.414
	c0-0.283-0.262-0.453-0.262-0.453L40.087,61.558z"/>
<path fill="#99A8AE" d="M43.608,54.712c-3.215,4.313-3.799,5.809-3.521,6.846c3.914-0.408,7.65-7.424,7.65-7.424
	C45.765,50.884,44.177,53.95,43.608,54.712z"/>
<path fill="#1A1626" d="M40.942,58.542c1.268-0.021,1.832-0.352,1.451-0.846c0.746-0.125,0.744-0.629,0.49-0.896
	c0.672-0.266,0.432-0.855-0.576-0.764C41.747,56.11,40.601,58.548,40.942,58.542z"/>
<path fill="#1A1626" d="M36.874,32.306c-8.222-1.227-7.5,2.283-7.5,2.283c1.205,6.003,3.816,13.25,4.806,14.496
	c0.826,1.041,4.754,3.682,7.836,7.32c2.154-1.021,6.002-2.369,4.951-3.396c-3.998-3.91-7.848-7.383-7.848-7.383
	C36.39,41.207,35.661,36.46,36.874,32.306z"/>
<path fill="#302C3B" d="M37.007,32.205c0,0-4.773-3.007-6.712,1.799c-0.666,4.633-4.568,9.126-5.252,10.58
	c-0.746,1.59-1.355,6.999-3.34,10.944c2.236,1.801,4.307,6.086,4.727,4.73c1.867-6.021,4.059-13.423,4.059-13.423
	C36.353,38.709,39.3,39.585,37.007,32.205z"/>
<path fill="#614A36" d="M29.941,25.159c-2.189,2.623-3.588,4.831-4.605,5.646c-0.395,0.314-1.389,1.164-1.744,1.922
	c-0.256,0.545-0.768,2.435,0.074,3.403c0.758,0.872,1.084-2.304,1.908-2.069c-0.531,1.304,0.129,1.868,0.533,1.085
	c0.711-1.372,0.504-1.896,0.465-2.497c-0.031-0.469,1.357-2.125,3.369-3.656V25.159z"/>
<path fill="#38332D" d="M46.278,17.11c-0.506-0.117-1.008-1.017-1.391-2.154c0.479,0.187,1.023,0.256,1.654,0.134
	c-4.48-2.718-0.684-13.586-7.715-10.758L39.2,7.434c2.668-1.738-1.006,5.145,2.633,7.068c-0.359-0.356-0.359-1.103-0.264-1.985
	C42.267,15.051,43.468,17.453,46.278,17.11z"/>
<path fill="#26221E" d="M46.278,17.11c-0.506-0.117-2.021-1.387-2.404-2.524c1.307,0.788,2.072,0.903,2.668,0.504
	c-5.346-1.74-1.777-11.563-7.336-9.044L39.2,7.434c2.668-1.738-1.006,5.145,2.633,7.068c-1.045-1.132-0.971-2.091-0.557-2.688
	C41.974,14.347,43.468,17.453,46.278,17.11z"/>
<path fill="#8E3ED6" d="M38.466,4.329c-1.012,0.554-0.779,3.377,1.111,3.491C41.128,7.918,39.808,3.589,38.466,4.329z"/>
<path fill="#423225" d="M31.476,15.344c1.611-0.649,0.604,3.207,0.59,3.567c0,0,1.515-2.199,4.789-2.24c0,0-0.348-1.326-0.482-3.465
	C36.731,7.332,31.476,15.344,31.476,15.344z"/>
<path fill="#614A36" d="M27.812,5.549c-0.344,0.816-0.516,1.754-0.35,2.533c0.256,1.2-0.299,1.79-1.221,2.61
	c-0.877,0.777,0.098,1.48,1.033,1.474c0.191,0.275,0.033,0.548,0.033,0.548c0.748,0.649,0.73,1.647,0.387,1.92
	c0,0,0.23,0.118,0.186,0.546c-0.125,1.225,0.635,1.597,2.459,1.005c3.601-1.17,3.894-3.865,3.894-3.865
	c0.736,1.043,2.951-0.735,3.012-2.905C37.354,5.812,34.257,0.617,27.812,5.549z"/>
<path fill="#423225" d="M34.286,10.597c-0.002-0.885,0.713-1.659,1.438-1.665c0,0-1.236,1.06-0.914,2.479
	C34.81,11.411,34.288,11.214,34.286,10.597z"/>
<path fill="#F5F5F5" d="M30.308,9.676c-0.471,0.543-1.631,0.849-2.018,0.771C27.351,7.628,29.691,8.487,30.308,9.676z"/>
<path fill="#45332C" d="M28.333,10.454c1.107-0.036,0.488-3.005-0.262-1.391C28.031,9.345,28.111,10.462,28.333,10.454z"/>
<path fill="#45332C" d="M30.308,9.676c-0.299-1.104-2.207-1.899-2.236-0.612C28.373,8.366,29.724,8.813,30.308,9.676z"/>
<path fill="#F5F5F5" d="M28.408,9.094c0.006,0.272,0.396,0.26,0.391-0.013C28.791,8.831,28.4,8.843,28.408,9.094z"/>
<path fill="#423225" d="M30.593,7.938c-0.746-0.592-2.275-0.542-2.836-0.162c-0.123,0.073-0.002,0.5,0.092,0.439
	c0.629-0.399,1.818-0.525,2.721-0.098C30.669,8.165,30.708,8.021,30.593,7.938z"/>
<path fill="#36281D" d="M27.634,13.27c0.34,0.235,0,0.623,0,0.623c-0.309-0.012-0.311,0.825,0.061,0.741
	c1.08-0.249,2.031-1.053,2.068-1.371c-0.213,0.008-1.834-0.054-2.455-0.549C27.308,12.714,27.248,13.053,27.634,13.27z"/>
<path fill="#FFFFFF" d="M27.634,13.27v0.623c0.271,0.011,1.303-0.202,1.863-0.548C29.498,13.345,28.296,13.5,27.634,13.27z"/>
<path fill="#38332D" d="M38.942,6.047C38.808,3.527,36.323,2,33.29,1.999c-3.925-0.003-5.935,2.364-5.478,3.55
	c4.518-2.18,4.838,6.296,6.582,3.512c0.875-1.394,2.879-0.639,2.463,1.26c-0.418,1.918-1.607,2.223-1.607,2.223
	c0.473,0.888,1.084,1.005,1.084,1.005C39.411,13.079,41.058,7.213,38.942,6.047z"/>
<path fill="#26221E" d="M38.942,6.047c-0.135-2.52-4.391-3.687-5.795-3.415c2.035,0.335,4.412,1.667,4.678,2.505
	c-1.67-0.468-4.141-1.475-6.992-1.334c1.73,0.241,3.154,1.69,6.679,2.296c0,0-2.574,0.531-5.365-0.647
	c0.75,1.01,2.792,1.973,3.796,2.277c-1.131,0.057-2.4-0.071-5.021-1.831c1.732,1.581,2.255,5.102,3.47,3.163
	c0.875-1.394,2.879-0.639,2.463,1.26c-0.418,1.918-1.607,2.223-1.607,2.223c0.473,0.888,1.084,1.005,1.084,1.005
	C39.411,13.079,41.058,7.213,38.942,6.047z"/>
<path fill="#423225" d="M28.101,11.719c-0.145,0.373-0.711,0.467-1.049,0.454c-0.451-0.017-0.879-0.25-1.068-0.571
	C26.166,11.229,27.121,12.206,28.101,11.719z"/>
<path fill="#8E3ED6" d="M37.007,32.205c0,0-3.125,0.166-7.699,2.416c-0.369-3.467,0.547-8.082,0.266-8.227
	c-4.867-2.5,1.41-6.284,2.047-7.976c0.127-0.34,0.463-0.699,0.688-0.95c-0.244,2.534,2.601-3.041,5.214-0.459
	C39.454,22.253,35.685,25.603,37.007,32.205z"/>
<path fill="#614A36" d="M42.208,25.119c-0.168-0.466-1.104-2.16-2.049-3.822c-1.08,0.53-1.881,0.94-2.912,1.532
	c0.924,1.263,2.299,2.867,2.377,3.508c0.334,2.741,0.676,4.653,0.42,7.343c-0.041,0.438-1.152,0.708-1.744,2.927
	c-0.256,0.955,0.768,0.931,1.266-0.57c0.895,0.37-1.17,3.353,0.137,3.121c1.447-0.257,2.582-2.404,2.764-3.055
	c0.16-0.582-0.186-1.79-0.197-2.33C42.204,31.127,42.501,25.938,42.208,25.119z"/>
<path fill="#5D1E96" d="M41.146,22.577c-0.748-1.403-1.803-3.229-3.066-5.202c-1.361-2.123-4.57-0.15-3.469,2.131
	c0.6,1.239,1.555,2.889,3.07,5.098C38.757,23.837,39.923,23.154,41.146,22.577z"/>
</svg>
