<?xml version="1.0" encoding="utf-8"?>
<!-- Generator: Adobe Illustrator 15.0.0, SVG Export Plug-In . SVG Version: 6.00 Build 0)  -->
<!DOCTYPE svg PUBLIC "-//W3C//DTD SVG 1.1//EN" "http://www.w3.org/Graphics/SVG/1.1/DTD/svg11.dtd" [
	<!ENTITY ns_flows "http://ns.adobe.com/Flows/1.0/">
	<!ENTITY ns_extend "http://ns.adobe.com/Extensibility/1.0/">
	<!ENTITY ns_ai "http://ns.adobe.com/AdobeIllustrator/10.0/">
	<!ENTITY ns_graphs "http://ns.adobe.com/Graphs/1.0/">
]>
<svg version="1.1" id="Layer_1" xmlns:x="&ns_extend;" xmlns:i="&ns_ai;" xmlns:graph="&ns_graphs;"
	 xmlns="http://www.w3.org/2000/svg" xmlns:xlink="http://www.w3.org/1999/xlink" xmlns:a="http://ns.adobe.com/AdobeSVGViewerExtensions/3.0/"
	 x="0px" y="0px" width="64px" height="64px" viewBox="0 0 64 64" enable-background="new 0 0 64 64" xml:space="preserve">
<path fill="#99A8AE" d="M3.963,50.39c0,0.334,19,0.334,19,0C22.963,50.058,3.963,50.058,3.963,50.39z"/>
<path fill="#99A8AE" d="M13.463,40.89c-0.333,0-0.333,19,0,19S13.796,40.89,13.463,40.89z"/>
<path fill="#99A8AE" d="M6.745,43.673c-0.235,0.234,13.199,13.67,13.436,13.436C20.415,56.872,6.98,43.437,6.745,43.673z"/>
<path fill="#99A8AE" d="M20.181,43.673C19.944,43.438,6.51,56.872,6.745,57.108C6.981,57.343,20.416,43.909,20.181,43.673z"/>
<path fill="#99A8AE" d="M4.687,54.025c0.127,0.309,17.682-6.963,17.553-7.271C22.112,46.447,4.56,53.719,4.687,54.025z"/>
<path fill="#99A8AE" d="M9.827,41.612c-0.307,0.128,6.964,17.682,7.271,17.554C17.406,59.039,10.136,41.485,9.827,41.612z"/>
<path fill="#99A8AE" d="M4.687,46.755c-0.128,0.307,17.426,7.578,17.554,7.271C22.367,53.718,4.813,46.446,4.687,46.755z"/>
<path fill="#99A8AE" d="M17.099,41.613c-0.307-0.126-7.578,17.426-7.271,17.555C10.136,59.294,17.407,41.741,17.099,41.613z"/>
<path fill="#99A8AE" d="M41.037,50.39c0,0.334,19,0.334,19,0C60.037,50.058,41.037,50.058,41.037,50.39z"/>
<path fill="#99A8AE" d="M50.537,40.89c-0.333,0-0.333,19,0,19S50.87,40.89,50.537,40.89z"/>
<path fill="#99A8AE" d="M43.819,43.673c-0.235,0.234,13.199,13.67,13.436,13.436C57.489,56.872,44.055,43.437,43.819,43.673z"/>
<path fill="#99A8AE" d="M57.255,43.673c-0.236-0.234-13.671,13.199-13.436,13.436C44.056,57.343,57.49,43.909,57.255,43.673z"/>
<path fill="#99A8AE" d="M41.761,54.025c0.127,0.309,17.682-6.963,17.553-7.271C59.187,46.447,41.634,53.719,41.761,54.025z"/>
<path fill="#99A8AE" d="M46.901,41.612c-0.307,0.128,6.964,17.682,7.271,17.554C54.48,59.039,47.21,41.485,46.901,41.612z"/>
<path fill="#99A8AE" d="M41.761,46.755c-0.128,0.307,17.426,7.578,17.554,7.271C59.441,53.718,41.888,46.446,41.761,46.755z"/>
<path fill="#99A8AE" d="M54.173,41.613c-0.307-0.126-7.578,17.426-7.271,17.555C47.21,59.294,54.481,41.741,54.173,41.613z"/>
<path fill="#302C3B" d="M36,52h-2c-1.553,0-1.553,2,0,2h2C37.553,54,37.553,52,36,52"/>
<path fill="#302C3B" d="M13.5,62C7.159,62,2,56.842,2,50.5C2,44.16,7.159,39,13.5,39S25,44.16,25,50.5C25,56.842,19.841,62,13.5,62
	 M13.5,41.447c-4.992,0-9.053,4.061-9.053,9.053s4.061,9.055,9.053,9.055s9.053-4.063,9.053-9.055S18.492,41.447,13.5,41.447"/>
<path fill="#302C3B" d="M50.5,62C44.159,62,39,56.842,39,50.5C39,44.16,44.159,39,50.5,39S62,44.16,62,50.5
	C62,56.842,56.841,62,50.5,62 M50.5,41.447c-4.992,0-9.055,4.061-9.055,9.053s4.063,9.055,9.055,9.055
	c4.991,0,9.055-4.063,9.055-9.055S55.491,41.447,50.5,41.447"/>
<linearGradient id="SVGID_1_" gradientUnits="userSpaceOnUse" x1="29.5186" y1="32.9019" x2="28.4774" y2="35.1102">
	<stop  offset="0" style="stop-color:#4ECEE6"/>
	<stop  offset="0.1981" style="stop-color:#46C9E8"/>
	<stop  offset="0.5045" style="stop-color:#30BAEC"/>
	<stop  offset="0.8791" style="stop-color:#0DA3F4"/>
	<stop  offset="1" style="stop-color:#009AF7"/>
	<a:midPointStop  offset="0" style="stop-color:#4ECEE6"/>
	<a:midPointStop  offset="0.6121" style="stop-color:#4ECEE6"/>
	<a:midPointStop  offset="1" style="stop-color:#009AF7"/>
</linearGradient>
<polygon fill="url(#SVGID_1_)" points="37.941,40 19,30.193 20.059,28 39,37.807 "/>
<linearGradient id="SVGID_2_" gradientUnits="userSpaceOnUse" x1="23.8096" y1="41.918" x2="25.8505" y2="40.3341">
	<stop  offset="0" style="stop-color:#009AF7"/>
	<stop  offset="0.1209" style="stop-color:#0DA3F4"/>
	<stop  offset="0.4955" style="stop-color:#30BAEC"/>
	<stop  offset="0.8019" style="stop-color:#46C9E8"/>
	<stop  offset="1" style="stop-color:#4ECEE6"/>
	<a:midPointStop  offset="0" style="stop-color:#009AF7"/>
	<a:midPointStop  offset="0.3879" style="stop-color:#009AF7"/>
	<a:midPointStop  offset="1" style="stop-color:#4ECEE6"/>
</linearGradient>
<path fill="url(#SVGID_2_)" d="M32.209,48.644L18.975,31.35l-1.379,2.229L30.787,50.82C31.277,50.105,31.74,49.373,32.209,48.644z"
	/>
<linearGradient id="SVGID_3_" gradientUnits="userSpaceOnUse" x1="40.9873" y1="49.1924" x2="40.9873" y2="51.6517">
	<stop  offset="0" style="stop-color:#4ECEE6"/>
	<stop  offset="0.1981" style="stop-color:#46C9E8"/>
	<stop  offset="0.5045" style="stop-color:#30BAEC"/>
	<stop  offset="0.8791" style="stop-color:#0DA3F4"/>
	<stop  offset="1" style="stop-color:#009AF7"/>
	<a:midPointStop  offset="0" style="stop-color:#4ECEE6"/>
	<a:midPointStop  offset="0.6121" style="stop-color:#4ECEE6"/>
	<a:midPointStop  offset="1" style="stop-color:#009AF7"/>
</linearGradient>
<path fill="url(#SVGID_3_)" d="M33.067,49.152c-0.536,0.83-1.064,1.663-1.631,2.472h19.101v-2.472H33.067z"/>
<linearGradient id="SVGID_4_" gradientUnits="userSpaceOnUse" x1="44.0068" y1="42.6621" x2="46.007" y2="41.329">
	<stop  offset="0" style="stop-color:#009AF7"/>
	<stop  offset="0.1209" style="stop-color:#0DA3F4"/>
	<stop  offset="0.4955" style="stop-color:#30BAEC"/>
	<stop  offset="0.8019" style="stop-color:#46C9E8"/>
	<stop  offset="1" style="stop-color:#4ECEE6"/>
	<a:midPointStop  offset="0" style="stop-color:#009AF7"/>
	<a:midPointStop  offset="0.3879" style="stop-color:#009AF7"/>
	<a:midPointStop  offset="1" style="stop-color:#4ECEE6"/>
</linearGradient>
<polygon fill="url(#SVGID_4_)" points="49.016,50 39,35.287 40.986,34 51,48.713 "/>
<linearGradient id="SVGID_5_" gradientUnits="userSpaceOnUse" x1="38.9795" y1="39.5967" x2="36.8133" y2="38.4721">
	<stop  offset="0" style="stop-color:#009AF7"/>
	<stop  offset="0.1209" style="stop-color:#0DA3F4"/>
	<stop  offset="0.4955" style="stop-color:#30BAEC"/>
	<stop  offset="0.8019" style="stop-color:#46C9E8"/>
	<stop  offset="1" style="stop-color:#4ECEE6"/>
	<a:midPointStop  offset="0" style="stop-color:#009AF7"/>
	<a:midPointStop  offset="0.3879" style="stop-color:#009AF7"/>
	<a:midPointStop  offset="1" style="stop-color:#4ECEE6"/>
</linearGradient>
<polygon fill="url(#SVGID_5_)" points="33.091,50.939 30.908,49.836 42.641,27.094 44.822,28.201 "/>
<path fill="#B3C2C6" d="M32.06,54.836c-2.557,0-4.482-2.051-4.482-4.479c0-2.557,2.151-4.681,4.896-4.46
	c3.073,0.259,8.381,0.758,12.645,1.16c1.884,0.177,3.609,0.339,4.935,0.461c1.849,0.169,2.962,1.363,2.962,2.839
	s-1.113,2.67-2.962,2.837c-1.325,0.124-3.049,0.286-4.933,0.463c-4.266,0.401-9.573,0.901-12.646,1.16
	C32.334,54.831,32.196,54.836,32.06,54.836 M32.062,46.693c-2.055,0-3.794,1.677-3.794,3.664c0,2.09,1.92,3.843,4.118,3.651
	c3.07-0.259,8.374-0.758,12.635-1.16c1.885-0.178,3.611-0.34,4.937-0.463c1.391-0.127,2.361-0.961,2.361-2.028
	c0-1.066-0.971-1.902-2.361-2.028c-1.325-0.123-3.052-0.284-4.937-0.463c-4.263-0.4-9.566-0.899-12.635-1.159
	C32.277,46.697,32.169,46.693,32.062,46.693"/>
<path fill="#99A8AE" d="M48.537,50.388c0,2.669,4,2.669,4,0C52.537,47.724,48.537,47.724,48.537,50.388z"/>
<path fill="#6E8189" d="M49.538,50.391c0,1.334,2,1.334,2,0C51.538,49.058,49.538,49.058,49.538,50.391z"/>
<linearGradient id="SVGID_6_" gradientUnits="userSpaceOnUse" x1="17.0557" y1="39.3926" x2="14.9727" y2="38.5596">
	<stop  offset="0" style="stop-color:#009AF7"/>
	<stop  offset="0.1209" style="stop-color:#0DA3F4"/>
	<stop  offset="0.4955" style="stop-color:#30BAEC"/>
	<stop  offset="0.8019" style="stop-color:#46C9E8"/>
	<stop  offset="1" style="stop-color:#4ECEE6"/>
	<a:midPointStop  offset="0" style="stop-color:#009AF7"/>
	<a:midPointStop  offset="0.3879" style="stop-color:#009AF7"/>
	<a:midPointStop  offset="1" style="stop-color:#4ECEE6"/>
</linearGradient>
<path fill="url(#SVGID_6_)" d="M21.375,28c0,0-4.779,12.718-4.865,13c1.28,5.895-2.261,10.391-2.261,10.391l-1.875-2.002
	C15.502,46,14.078,41,14.078,41l4.863-13H21.375z"/>
<path fill="#302C3B" d="M11.463,50.388c0,2.669,4,2.669,4,0C15.463,47.724,11.463,47.724,11.463,50.388z"/>
<linearGradient id="SVGID_7_" gradientUnits="userSpaceOnUse" x1="43.002" y1="29.0684" x2="43.002" y2="25">
	<stop  offset="0" style="stop-color:#302C3B"/>
	<stop  offset="0.364" style="stop-color:#3D3E4B"/>
	<stop  offset="1" style="stop-color:#5B666E"/>
	<a:midPointStop  offset="0" style="stop-color:#302C3B"/>
	<a:midPointStop  offset="0.5515" style="stop-color:#302C3B"/>
	<a:midPointStop  offset="1" style="stop-color:#5B666E"/>
</linearGradient>
<path fill="url(#SVGID_7_)" d="M47.05,25c-2.011,0-4.021,2.094-9.757,1.43c-0.471-0.054-0.288,1.388,0,1.713
	c1.548,1.744,10.066,0.629,11.236-0.143C48.945,27.727,49.832,25,47.05,25"/>
<path fill="#99A8AE" d="M19,21h5v-2h-5c-2,0-3,1-3,2.5c0,2.5,3,3.5,3,4.5h-1v2h4v-2h-1c0-2-3-3-3-4C18,21.448,18.448,21,19,21z"/>
<path fill="#302C3B" d="M27,19h-3v-1h-1v4h1v-1h3C28.461,21,28.461,19,27,19"/>
<path fill="#99A8AE" d="M28,50.389c0,5.333,8,5.333,8,0S28,45.056,28,50.389z"/>
<path fill="#6E8189" d="M30,50.388c0,2.669,4,2.669,4,0C34,47.724,30,47.724,30,50.388z"/>
<rect x="29.033" y="48.194" transform="matrix(0.5083 0.8612 -0.8612 0.5083 57.1786 -2.7529)" fill="#E6EBEF" width="3.935" height="1"/>
<path fill="#302C3B" d="M30,46h-2c-1.552,0-1.552,2,0,2h2C31.553,48,31.553,46,30,46z"/>
<path fill="#E6EBEF" d="M31,50.389c0,1.334,2,1.334,2,0C33,49.056,31,49.056,31,50.389z"/>
</svg>
