<?xml version="1.0" encoding="utf-8"?>
<!-- Generator: Adobe Illustrator 19.0.0, SVG Export Plug-In . SVG Version: 6.00 Build 0)  -->
<svg version="1.1" id="Layer_1" xmlns="http://www.w3.org/2000/svg" xmlns:xlink="http://www.w3.org/1999/xlink" x="0px" y="0px"
	 width="64px" height="64px" viewBox="0 0 64 64" enable-background="new 0 0 64 64" xml:space="preserve">
<linearGradient id="SVGID_1_" gradientUnits="userSpaceOnUse" x1="32" y1="58.0048" x2="32" y2="2.0086">
	<stop  offset="0" style="stop-color:#697378"/>
	<stop  offset="0.1088" style="stop-color:#727C82"/>
	<stop  offset="0.4414" style="stop-color:#87949A"/>
	<stop  offset="0.7475" style="stop-color:#94A3A9"/>
	<stop  offset="1" style="stop-color:#99A8AE"/>
</linearGradient>
<path fill="url(#SVGID_1_)" d="M45.691,2.009c-0.357-0.055-6.848,23.744-15.434,21.503L13,14.837c0,0,0.266,12.152-11,18.154v25.014
	h60v-30.77C50.266,13.961,52.723,3.105,45.691,2.009z"/>
<path fill="#CFD8DD" d="M30.258,23.512C40.344,20.417,43.891,0.563,45.852,2.083c0.957,0.742,5.113,15.415,0.848,12.205
	c-6.561-4.937,1.941,5.246,2.004,10.894c0.039,3.571-13.656-10.468-4.609,13.811L30.258,23.512z"/>
<polygon fill="#CFD8DD" points="56.682,28.589 51.4,18.406 52.906,25.68 "/>
<polygon fill="#CFD8DD" points="51.809,40.495 51.1,33.802 47.207,30.008 "/>
<path fill="#CFD8DD" d="M2,30.455c0,0,8.621-4.355,10.906-15.54c0.188-0.926,3.074,5.576,4.5,12.379
	c0.621,2.972-4.314-3.232-4.313,1.094c0.002,6.529-5.187,14.098-5.187,14.098C10.748,25.112,2,43.989,2,43.989V30.455z"/>
<linearGradient id="SVGID_2_" gradientUnits="userSpaceOnUse" x1="32" y1="61.9999" x2="32" y2="46.7157">
	<stop  offset="0" style="stop-color:#916958"/>
	<stop  offset="0.21" style="stop-color:#8B6454"/>
	<stop  offset="0.4866" style="stop-color:#7B5748"/>
	<stop  offset="0.799" style="stop-color:#5F4034"/>
	<stop  offset="1" style="stop-color:#4A2F24"/>
</linearGradient>
<path fill="url(#SVGID_2_)" d="M62,46.716c-36.494,2.329-42.457,8.853-60,9.65V62h60V46.716z"/>
<path fill="#594640" d="M39.468,16.433c0.379-0.283,0.699-0.677,0.912-1.231c-3.482,1.762-8.488-3.286-10.931-1.679
	c0.567,0.959,1.017,1.983,1.491,2.994c0.684-0.824,3.804,3.761,6.682,2.086c-0.456,0.108-1.04-0.256-1.684-0.762
	c2.324,0.69,4.79,0.923,5.895-1.446C41.494,16.734,40.545,16.689,39.468,16.433z"/>
<path fill="#453631" d="M41.833,16.395c-0.339,0.339-2.072,0.906-3.15,0.651c1.254-0.638,1.719-1.182,1.697-1.844
	c-3.474,2.918-8.458-2.515-10.149-0.195c0.24,0.501,0.474,1.006,0.71,1.51c0.684-0.824,3.804,3.761,6.682,2.086
	c-1.396,0.266-2.112-0.259-2.378-0.875C37.568,18.417,40.729,18.764,41.833,16.395z"/>
<path fill="#8E3ED6" d="M29.205,13.299c-0.79,0.716-0.029,3.971,1.691,3.664C32.309,16.716,30.247,12.345,29.205,13.299z"/>
<path fill="#F7C259" d="M24.856,22.648c1.301-1.173,2.659,0.537,2.769,0.883c0,0,3.133-1.892,2.407-3.996
	C25.712,14.958,24.856,22.648,24.856,22.648z"/>
<path fill="#FFCC66" d="M18.039,14.646c-0.044,0.892,0.114,1.838,0.54,2.517c0.65,1.049,0.329,1.797-0.262,2.892
	c-0.563,1.041,0.599,1.368,1.481,1.037c0.275,0.195,0.22,0.507,0.22,0.507c0.928,0.358,1.253,1.306,1.022,1.685
	c0,0,0.257,0.032,0.361,0.453c0.301,1.201,1.146,1.29,2.668,0.099c3.002-2.354,2.357-5.004,2.357-5.004
	c1.053,0.732,2.537-1.717,1.851-3.791C27.147,11.594,22.442,7.75,18.039,14.646z"/>
<path fill="#E6B045" d="M25.887,17.182c-0.306-0.835,0.106-1.814,0.788-2.072c0,0-0.806,1.43-0.014,2.662
	C26.661,17.771,26.101,17.766,25.887,17.182z"/>
<path fill="#F5F5F5" d="M21.813,17.686c-0.26,0.678-1.251,1.368-1.644,1.43C18.316,16.772,20.821,16.776,21.813,17.686z"/>
<path fill="#45332C" d="M20.212,19.107c1.035-0.418-0.566-3.014-0.723-1.226C19.546,18.163,20.005,19.192,20.212,19.107z"/>
<path fill="#45332C" d="M21.813,17.686c-0.661-0.94-2.737-1.033-2.323,0.195C19.535,17.118,20.966,17.073,21.813,17.686z"/>
<path fill="#F5F5F5" d="M19.816,17.793c0.1,0.256,0.464,0.11,0.365-0.146C20.089,17.413,19.724,17.559,19.816,17.793z"/>
<path fill="#594640" d="M21.486,15.946c-0.907-0.302-2.336,0.273-2.735,0.827c-0.09,0.111,0.17,0.475,0.237,0.385
	c0.457-0.596,1.538-1.126,2.537-1.035C21.637,16.133,21.624,15.984,21.486,15.946z"/>
<path fill="#D47706" d="M20.515,22.013c0.403,0.105,0.215,0.588,0.215,0.588c-0.297,0.096-0.012,0.889,0.312,0.682
	c0.934-0.611,1.558-1.7,1.483-2.014c-0.198,0.081-1.75,0.583-2.506,0.329C20.019,21.599,20.076,21.942,20.515,22.013z"/>
<path fill="#FFFFFF" d="M20.515,22.013l0.215,0.588c0.262-0.084,1.163-0.642,1.572-1.163C22.302,21.439,21.22,22.002,20.515,22.013z
	"/>
<path fill="#594640" d="M28.729,11.266c-0.99-2.336-3.86-2.921-6.728-1.875c-3.71,1.356-4.8,4.29-3.962,5.255
	c3.523-3.627,6.728,4.283,7.423,1.045c0.35-1.621,2.503-1.601,2.759,0.34c0.262,1.959-0.757,2.659-0.757,2.659
	c0.75,0.677,1.367,0.576,1.367,0.576C31.579,17.759,31.128,11.638,28.729,11.266z"/>
<path fill="#453631" d="M28.729,11.266c-0.99-2.336-5.411-1.968-6.646-1.226c2.037-0.385,4.74,0.051,5.278,0.752
	c-1.738,0.137-4.417,0.037-7.063,1.156c1.718-0.371,3.559,0.509,7.098-0.137c0,0-2.25,1.392-5.292,1.243
	c1.055,0.695,3.314,0.9,4.368,0.842c-1.049,0.444-2.294,0.762-5.373,0.003c2.179,0.896,3.879,4.047,4.363,1.793
	c0.35-1.621,2.503-1.601,2.759,0.34c0.262,1.959-0.757,2.659-0.757,2.659c0.75,0.677,1.367,0.576,1.367,0.576
	C31.579,17.759,31.128,11.638,28.729,11.266z"/>
<path fill="#E6B045" d="M20.426,20.384c-0.008,0.401-0.512,0.687-0.837,0.793c-0.43,0.141-0.915,0.067-1.204-0.172
	C18.429,20.59,19.666,21.184,20.426,20.384z"/>
<path fill="#302C3B" d="M29.491,13.995c0,0-1.005-0.324-0.998-0.072c0.027,1.046-0.808,3.494-0.808,3.494s-2.649-1.558-3.646-4.36
	c-0.084-0.241-0.826,0.269-0.872,0.517c-0.284,1.508,4.06,4.96,4.06,4.96s-1.446,3.609-2.579,4.805
	C28.342,22.346,29.491,13.995,29.491,13.995z"/>
<path fill="#302C3B" d="M17.245,13.326c0,0-0.164-0.061-2.067,1.303c0,0,2.944,1.701,7.501-0.128L17.245,13.326z"/>
<path fill="#E81C27" d="M33.21,10.135c-14.65-6.263-15.965,3.191-15.965,3.191c10.579,3.641,15.773-0.313,15.773-0.313l-1.473-0.567
	C31.545,12.446,32.887,11.376,33.21,10.135z"/>
<path fill="#B00505" d="M18.929,12.772c1.581-3.18,4.143-4.33,6.846-3.631C21.165,10.459,18.929,12.772,18.929,12.772z"/>
<path fill="#B00505" d="M21.181,12.101c2.486-1.762,4.336-2.224,8.416-1.972C26.12,12.509,21.181,12.101,21.181,12.101z"/>
<path fill="#B00505" d="M20.877,13.086c2.158-0.748,5.182-1.031,7.381-0.462C25.338,14.396,20.877,13.086,20.877,13.086z"/>
<path fill="#F7C259" d="M28.761,33.833c-0.775,3.343,1.955,3,5.435,8.831l1.676-2.539c-2.285-2.392-1.129-2.945-2.655-5.821
	L28.761,33.833z"/>
<path fill="#5D1E96" d="M38.634,34.356l-2.301-4.699c-2.266,1.3-5.861,2.128-7.757,4.032c0,0,1.462,1.471,5.48,2.795
	C35.746,35.811,38.634,34.356,38.634,34.356z"/>
<path fill="#302C3B" d="M22.467,30.524c-0.621-0.291-2.6-0.867-2.6-0.867v1.733l1.632,0.408l-0.766,3.059l1.733,0.867l0.866-3.467
	C23.333,32.257,24.69,31.565,22.467,30.524z"/>
<path fill="#99A8AE" d="M16.4,40.058c-5.267,0-9.533,4.267-9.533,9.533s4.267,9.533,9.533,9.533c5.264,0,9.533-4.267,9.533-9.533
	S21.664,40.058,16.4,40.058z M16.4,57.391c-4.309,0-7.8-3.492-7.8-7.8s3.491-7.8,7.8-7.8c4.308,0,7.8,3.492,7.8,7.8
	S20.708,57.391,16.4,57.391z"/>
<path fill="#99A8AE" d="M47.602,40.058c-5.268,0-9.535,4.267-9.535,9.533s4.268,9.533,9.535,9.533c5.264,0,9.533-4.267,9.533-9.533
	S52.865,40.058,47.602,40.058z M47.602,57.391c-4.31,0-7.802-3.492-7.802-7.8s3.492-7.8,7.802-7.8c4.307,0,7.799,3.492,7.799,7.8
	S51.908,57.391,47.602,57.391z"/>
<path fill="#302C3B" d="M16.4,39.191c-5.743,0-10.4,4.657-10.4,10.4c0,5.743,4.657,10.4,10.4,10.4S26.8,55.334,26.8,49.591
	C26.8,43.848,22.144,39.191,16.4,39.191z M16.4,58.257c-4.787,0-8.667-3.879-8.667-8.667s3.88-8.667,8.667-8.667
	s8.666,3.879,8.666,8.667S21.188,58.257,16.4,58.257z"/>
<path fill="#302C3B" d="M47.602,39.191c-5.745,0-10.401,4.657-10.401,10.4c0,5.743,4.656,10.4,10.401,10.4
	c5.742,0,10.398-4.657,10.398-10.4C58,43.848,53.344,39.191,47.602,39.191z M47.602,58.257c-4.788,0-8.668-3.879-8.668-8.667
	s3.88-8.667,8.668-8.667c4.785,0,8.666,3.879,8.666,8.667S52.387,58.257,47.602,58.257z"/>
<path fill="#0FB4D4" d="M48.172,48.926L39.386,38.49l1.189-2.378c0.214-0.428-1.337-1.204-1.551-0.775l-1.141,2.282l-16.895-3.785
	l-5.406,15.47c-0.344,0.971,1.321,1.459,1.635,0.577l4.667-13.225l10.293,13.462c0.007,0.01,0.021,0.014,0.027,0.022
	c0.074,0.091,0.536,0.318,0.662,0.318h14.734c0.004,0,0.012,0,0.016,0C48.096,50.457,48.363,49.084,48.172,48.926z M37.085,39.216
	l-4.374,8.746l-8.975-11.739L37.085,39.216z M34.269,48.724l4.273-8.545l7.194,8.545H34.269z"/>
<path fill="#302C3B" d="M18.134,49.591c0,2.312-3.467,2.312-3.467,0C14.667,47.278,18.134,47.278,18.134,49.591z"/>
<polygon fill="#BEC3CF" points="47.602,47.857 32.865,46.991 32.865,46.124 47.602,46.991 "/>
<polygon fill="#BEC3CF" points="47.602,52.191 32.867,53.058 32.867,52.191 47.602,51.324 "/>
<path fill="#302C3B" d="M50.201,49.591c0,3.467-5.201,3.467-5.201,0S50.201,46.124,50.201,49.591z"/>
<path fill="#302C3B" d="M32.865,53.058c-4.619,0-4.619-6.934,0-6.934C37.489,46.124,37.489,53.058,32.865,53.058z"/>
<rect x="27.667" y="55.657" fill="#99A8AE" width="6.066" height="1.733"/>
<polygon fill="#6E8189" points="31.134,55.657 29.4,55.657 32,49.591 33.733,49.591 "/>
<path fill="#99A8AE" d="M33.733,49.594c0,1.153-1.733,1.153-1.733,0C32,48.435,33.733,48.435,33.733,49.594z"/>
<path fill="#302C3B" d="M43.267,36.591c-1.733,0.867-3.467-0.867-6.934-0.867c0,0,0-1.733,1.733-1.733c3.573,0,4.71-0.679,6.067,0
	C45.867,34.857,44.362,36.042,43.267,36.591z"/>
<path fill="#FFCC66" d="M32.249,40.281c-0.445,1.82,2.053,6.223,0.765,12.431h3.658c-0.961-6.208,0.582-7.485,0.149-12.103
	C36.821,40.609,32.792,38.067,32.249,40.281z"/>
<path fill="#302C3B" d="M36.581,52.035c-2.252,0.848-2.684,0.557-3.51,0.267C32,52.968,28.5,53.682,27.466,54.769
	c-0.149,0.156,0,0.889,0,0.889h9.776C37.242,55.657,37.337,51.75,36.581,52.035z"/>
<path fill="#8E3ED6" d="M44.338,28.325c-4.254-9.16-15.71-11.363-17.065-7.875c-0.912,2.351,3.145,7.951,6.256,6.201
	c0.456-0.257,1.68,1.894,2.805,3.006c-1.415,2.6-3.146,7.691-4.608,10.947c0,0,2.263-0.124,5.476,1.119
	C38.788,37.182,46.79,33.604,44.338,28.325z"/>
<path fill="#FFE463" d="M35.728,41.224l-1.703-0.413c0.819-3.714,2.813-5.919,4.416-7.691c1.412-1.559,2.199-2.497,1.996-3.646
	c-0.489-2.763-4.047-5.421-10.02-7.485l0.567-1.639c4.663,1.613,10.385,4.452,11.158,8.821c0.362,2.042-0.926,3.465-2.415,5.112
	C38.186,35.986,36.447,37.96,35.728,41.224z"/>
<path fill="#FFCC66" d="M27.806,26.286c0.136,0.768,0.249,1.433,0.295,1.899c-2.763,1.435-3.464,2.135-6.052,0.606
	c-1.733-1.024-5.092-1.105-4.378,2.424c0.307,1.515,2.218-2.546,2.949-1.139c1.154,2.221,1.561,1.749,3.201,1.662
	c3.892-0.205,7.903-0.347,7.752-1.84c-0.091-0.904,0.185-1.774,0.147-3.017L27.806,26.286z"/>
<path fill="#8E3ED6" d="M31.526,21.568c-0.461-3.404-4.611-2.871-4.406-0.074c0.117,1.608,0.288,4.139,0.536,5.55l4.327,0.15
	C31.928,25.317,31.758,23.286,31.526,21.568z"/>
<path fill="#302C3B" d="M21.601,30.529c0,2.304-3.467,2.304-3.467,0C18.134,28.212,21.601,28.212,21.601,30.529z"/>
<path fill="#99A8AE" d="M20.733,30.526c0,1.153-1.733,1.153-1.733,0C19,29.368,20.733,29.368,20.733,30.526z"/>
</svg>
