<?xml version="1.0" encoding="utf-8"?>
<!-- Generator: Adobe Illustrator 15.0.0, SVG Export Plug-In . SVG Version: 6.00 Build 0)  -->
<!DOCTYPE svg PUBLIC "-//W3C//DTD SVG 1.1//EN" "http://www.w3.org/Graphics/SVG/1.1/DTD/svg11.dtd" [
	<!ENTITY ns_flows "http://ns.adobe.com/Flows/1.0/">
	<!ENTITY ns_extend "http://ns.adobe.com/Extensibility/1.0/">
	<!ENTITY ns_ai "http://ns.adobe.com/AdobeIllustrator/10.0/">
	<!ENTITY ns_graphs "http://ns.adobe.com/Graphs/1.0/">
]>
<svg version="1.1" id="Layer_1" xmlns:x="&ns_extend;" xmlns:i="&ns_ai;" xmlns:graph="&ns_graphs;"
	 xmlns="http://www.w3.org/2000/svg" xmlns:xlink="http://www.w3.org/1999/xlink" xmlns:a="http://ns.adobe.com/AdobeSVGViewerExtensions/3.0/"
	 x="0px" y="0px" width="64px" height="64px" viewBox="0 0 64 64" enable-background="new 0 0 64 64" xml:space="preserve">
<path fill="#755035" d="M23.777,18.852c1.54-1.39,3.149,0.635,3.278,1.045c0,0,3.709-2.239,2.85-4.729
	C24.79,9.748,23.777,18.852,23.777,18.852z"/>
<path fill="#916B50" d="M15.843,10.104c-0.012,1.026,0.307,1.765,0.81,2.533c0.784,1.182,0.456,2.059-0.151,3.344
	c-0.583,1.22,0.733,1.552,1.71,1.137c0.314,0.215,0.431,0.716,0.431,0.716s0.972,0.295,0.772,1.621
	c1.082,0.456,0.227,2.371,2.186,1.644c1.913-0.712,3.843-3.164,4.104-3.757c0.414-0.938-0.172-3.089-0.172-3.089
	c1.219,0.803,2.502-1.96,1.638-4.329C25.737,5.997,20.45,1.984,15.843,10.104z"/>
<path fill="#755035" d="M24.586,11.745c-0.383-0.922,0.038-2.037,0.791-2.351c0,0-0.84,1.633,0.1,2.98
	C25.477,12.375,24.85,12.389,24.586,11.745z"/>
<path fill="#F5F5F5" d="M20.519,12.965c-0.307,0.748-1.437,1.493-1.88,1.549C16.625,11.836,19.433,11.917,20.519,12.965z"/>
<path fill="#45332C" d="M18.69,14.505c1.168-0.433-0.554-3.388-0.778-1.394C17.966,13.43,18.453,14.593,18.69,14.505z"/>
<path fill="#755035" d="M20.519,12.965c-0.718-1.072-3.039-1.24-2.608,0.146C17.982,12.26,19.582,12.253,20.519,12.965z"/>
<path fill="#F5F5F5" d="M18.28,13.025c0.104,0.289,0.518,0.134,0.414-0.153C18.596,12.604,18.181,12.757,18.28,13.025z"/>
<path fill="#664129" d="M19.94,10.915c-1.03-0.301-2.598,0.247-3.022,0.883c-0.1,0.127,0.193,0.668,0.276,0.576
	c0.648-0.747,1.945-1.242,2.885-1.026C20.201,11.373,20.096,10.955,19.94,10.915z"/>
<path fill="#664129" d="M18.833,18.246c0.459,0.104,0.311,0.604,0.311,0.604c-0.18,0.065,0.007,0.703,0.271,0.605
	c1.321-0.492,1.505-1.545,1.683-2.164C19.617,17.751,17.898,17.557,18.833,18.246z"/>
<path fill="#FFFFFF" d="M18.833,18.246c0,0,0.214,0.546,0.311,0.604c0.288-0.106,1.278-0.738,1.711-1.355L18.833,18.246z"/>
<path fill="#614036" d="M27.146,3.948c-1.435-1.253-12.492,0.584-11.305,6.155c3.963-3.432,4.826-1.906,6.354-1.002
	c0.351,0.213,0.084,1.83,1.784,2.737c-0.845-3.1,2.772-4.124,3.318-1.373c0.349,1.765-0.136,2.74-0.399,3.273
	c0.742-0.042,1.848,0.39,1.848,0.39C31.518,11.607,29.751,4.756,27.146,3.948z"/>
<path fill="#755035" d="M18.88,16.277c0.01,0.463-0.541,0.813-0.897,0.943c-0.48,0.18-1.025,0.115-1.36-0.147
	C16.653,16.591,18.067,17.229,18.88,16.277z"/>
<path fill="#302C3B" d="M28.284,8.354c0,0-1.151-0.263-1.118,0.017c0.132,1.163-0.563,3.971-0.563,3.971s-3.1-1.477-4.482-4.502
	C22.004,7.58,21.229,8.219,21.2,8.5c-0.17,1.707,5.004,5.129,5.004,5.129s-1.342,4.639-2.486,6.081
	C27.732,18.245,28.284,8.354,28.284,8.354z"/>
<path fill="#302C3B" d="M14.975,8.156c0,0-0.189-0.07-2.385,1.504c0,0,3.397,1.963,8.654-0.149L14.975,8.156z"/>
<path fill="#E81C27" d="M33.396,4.475C16.492-2.752,14.975,8.156,14.975,8.156c12.207,4.201,18.199-0.361,18.199-0.361l-1.699-0.654
	C31.475,7.141,33.023,5.906,33.396,4.475z"/>
<path fill="#B00505" d="M16.918,7.518c1.824-3.67,4.779-4.996,7.898-4.189C19.498,4.848,16.918,7.518,16.918,7.518z"/>
<path fill="#B00505" d="M19.516,6.742c2.869-2.033,5.004-2.566,9.71-2.275C25.215,7.212,19.516,6.742,19.516,6.742z"/>
<path fill="#B00505" d="M19.166,7.878c2.49-0.862,5.979-1.188,8.516-0.533C24.313,9.391,19.166,7.878,19.166,7.878z"/>
<path fill="#755035" d="M28.262,31.818c-0.894,3.856,2.256,3.461,6.271,10.188l1.934-2.93c-2.637-2.761-1.303-3.397-3.064-6.718
	L28.262,31.818z"/>
<path fill="#529320" d="M39.654,32.421L37,26.999c-2.615,1.5-6.764,2.455-8.951,4.651c0,0,1.688,1.697,6.324,3.226
	C36.322,34.1,39.654,32.421,39.654,32.421z"/>
<path fill="#302C3B" d="M21,27.999c-0.717-0.336-3-1-3-1v2l1.883,0.471L19,32.999l2,1l1-4C22,29.999,23.565,29.201,21,27.999z"/>
<path fill="#99A8AE" d="M14,38.999c-6.076,0-11,4.924-11,11s4.924,11,11,11c6.074,0,11-4.924,11-11S20.074,38.999,14,38.999z
	 M14,58.999c-4.971,0-9-4.029-9-9c0-4.972,4.029-9,9-9s9,4.028,9,9C23,54.97,18.971,58.999,14,58.999z"/>
<path fill="#99A8AE" d="M50,38.999c-6.076,0-11,4.924-11,11s4.924,11,11,11c6.074,0,11-4.924,11-11S56.074,38.999,50,38.999z
	 M50,58.999c-4.971,0-9-4.029-9-9c0-4.972,4.029-9,9-9s9,4.028,9,9C59,54.97,54.971,58.999,50,58.999z"/>
<path fill="#302C3B" d="M14,37.999c-6.627,0-12,5.373-12,12s5.373,12,12,12s12-5.373,12-12C26,43.373,20.627,37.999,14,37.999z
	 M14,59.999c-5.523,0-10-4.478-10-10s4.477-10,10-10s10,4.478,10,10C24,55.523,19.523,59.999,14,59.999z"/>
<path fill="#302C3B" d="M50,37.999c-6.627,0-12,5.373-12,12s5.373,12,12,12s12-5.373,12-12C62,43.373,56.627,37.999,50,37.999z
	 M50,59.999c-5.523,0-10-4.478-10-10s4.477-10,10-10s10,4.478,10,10C60,55.523,55.523,59.999,50,59.999z"/>
<path fill="#0FB4D4" d="M50.66,49.232L40.521,37.191l1.373-2.744c0.246-0.494-1.543-1.389-1.789-0.896l-1.316,2.634l-19.494-4.367
	l-6.238,17.85c-0.396,1.121,1.525,1.684,1.887,0.666l5.385-15.26l11.877,15.533c0.008,0.012,0.022,0.016,0.03,0.024
	c0.087,0.104,0.619,0.367,0.765,0.367h17c0.006,0,0.015,0,0.021,0C50.572,50.999,50.881,49.415,50.66,49.232z M37.867,38.029
	L32.82,48.121L22.465,34.576L37.867,38.029z M34.617,48.999l4.932-9.858l8.301,9.858H34.617z"/>
<path fill="#302C3B" d="M16,49.999c0,2.668-4,2.668-4,0C12,47.332,16,47.332,16,49.999z"/>
<polygon fill="#BEC3CF" points="50,47.999 32.998,46.999 32.998,45.999 50,46.999 "/>
<polygon fill="#BEC3CF" points="50,52.999 33,53.999 33,52.999 50,51.999 "/>
<path fill="#302C3B" d="M53,49.999c0,4-6,4-6,0S53,45.999,53,49.999z"/>
<path fill="#302C3B" d="M32.998,53.999c-5.33,0-5.33-8,0-8C38.334,45.999,38.334,53.999,32.998,53.999z"/>
<rect x="27" y="56.999" fill="#99A8AE" width="7" height="2"/>
<polygon fill="#6E8189" points="31,56.999 29,56.999 32,49.999 34,49.999 "/>
<path fill="#99A8AE" d="M34,50.003c0,1.33-2,1.33-2,0C32,48.665,34,48.665,34,50.003z"/>
<path fill="#302C3B" d="M45,34.999c-2,1-4-1-8-1c0,0,0-2,2-2c4.123,0,5.434-0.783,7,0C48,32.999,46.264,34.367,45,34.999z"/>
<path fill="#916B50" d="M32.287,39.257c-0.514,2.101,2.369,7.181,0.883,14.345h4.221c-1.108-7.164,0.672-8.638,0.172-13.966
	C37.563,39.636,32.914,36.703,32.287,39.257z"/>
<path fill="#302C3B" d="M37.285,52.82c-2.598,0.979-3.096,0.643-4.049,0.309c-1.236,0.768-5.275,1.592-6.469,2.846
	c-0.172,0.181,0,1.025,0,1.025h11.28C38.049,56.999,38.158,52.492,37.285,52.82z"/>
<path fill="#7AB51D" d="M46.236,25.462c-4.909-10.569-18.127-13.11-19.691-9.086C25.492,19.089,32.762,21.745,37,26.999
	c-1.633,3-3.631,8.873-5.318,12.631c0,0,2.611-0.144,6.318,1.291C39.832,35.682,49.064,31.555,46.236,25.462z"/>
<path fill="#89CC14" d="M36.301,40.345l-1.965-0.477c0.945-4.285,3.246-6.83,5.096-8.875c1.629-1.8,2.537-2.882,2.303-4.207
	c-0.564-3.188-4.67-6.254-11.561-8.638l0.654-1.891c5.381,1.861,11.982,5.137,12.875,10.178c0.418,2.355-1.068,3.998-2.787,5.899
	C39.137,34.302,37.131,36.58,36.301,40.345z"/>
<path fill="#916B50" d="M27.16,23.109c0.156,0.887,0.287,1.654,0.34,2.19c-3.188,1.656-3.996,2.464-6.982,0.699
	c-2-1.183-5.875-1.274-5.051,2.797c0.354,1.748,2.559-2.938,3.402-1.313c1.332,2.563,1.801,2.018,3.693,1.918
	c4.49-0.236,9.12-0.4,8.945-2.123c-0.104-1.043,0.214-2.047,0.17-3.481L27.16,23.109z"/>
<path fill="#529320" d="M31.453,17.665c-0.531-3.929-5.32-3.313-5.084-0.086c0.135,1.856,0.332,4.774,0.619,6.403l4.992,0.175
	C31.916,21.992,31.721,19.648,31.453,17.665z"/>
<path fill="#302C3B" d="M20,28.005c0,2.658-4,2.658-4,0C16,25.332,20,25.332,20,28.005z"/>
<path fill="#99A8AE" d="M19,28.001c0,1.33-2,1.33-2,0C17,26.665,19,26.665,19,28.001z"/>
</svg>
