<?xml version="1.0" encoding="utf-8"?>
<!-- Generator: Adobe Illustrator 15.0.0, SVG Export Plug-In . SVG Version: 6.00 Build 0)  -->
<!DOCTYPE svg PUBLIC "-//W3C//DTD SVG 1.1//EN" "http://www.w3.org/Graphics/SVG/1.1/DTD/svg11.dtd" [
	<!ENTITY ns_flows "http://ns.adobe.com/Flows/1.0/">
	<!ENTITY ns_extend "http://ns.adobe.com/Extensibility/1.0/">
	<!ENTITY ns_ai "http://ns.adobe.com/AdobeIllustrator/10.0/">
	<!ENTITY ns_graphs "http://ns.adobe.com/Graphs/1.0/">
]>
<svg version="1.1" id="Layer_1" xmlns:x="&ns_extend;" xmlns:i="&ns_ai;" xmlns:graph="&ns_graphs;"
	 xmlns="http://www.w3.org/2000/svg" xmlns:xlink="http://www.w3.org/1999/xlink" xmlns:a="http://ns.adobe.com/AdobeSVGViewerExtensions/3.0/"
	 x="0px" y="0px" width="64px" height="64px" viewBox="0 0 64 64" enable-background="new 0 0 64 64" xml:space="preserve">
<linearGradient id="SVGID_1_" gradientUnits="userSpaceOnUse" x1="88" y1="-138.0059" x2="88" y2="-82.0093" gradientTransform="matrix(1 0 0 -1 -56 -80)">
	<stop  offset="0" style="stop-color:#697378"/>
	<stop  offset="0.1088" style="stop-color:#727C82"/>
	<stop  offset="0.4414" style="stop-color:#87949A"/>
	<stop  offset="0.7475" style="stop-color:#94A3A9"/>
	<stop  offset="1" style="stop-color:#99A8AE"/>
	<a:midPointStop  offset="0" style="stop-color:#697378"/>
	<a:midPointStop  offset="0.5" style="stop-color:#697378"/>
	<a:midPointStop  offset="0.1088" style="stop-color:#727C82"/>
	<a:midPointStop  offset="0.5" style="stop-color:#727C82"/>
	<a:midPointStop  offset="0.4414" style="stop-color:#87949A"/>
	<a:midPointStop  offset="0.5" style="stop-color:#87949A"/>
	<a:midPointStop  offset="0.7475" style="stop-color:#94A3A9"/>
	<a:midPointStop  offset="0.5" style="stop-color:#94A3A9"/>
	<a:midPointStop  offset="1" style="stop-color:#99A8AE"/>
</linearGradient>
<path fill="url(#SVGID_1_)" d="M45.691,2.009c-0.357-0.055-6.849,23.744-15.435,21.502L13,14.837c0,0,0.266,12.152-11,18.154v25.014
	h60V27.234C50.266,13.96,52.723,3.105,45.691,2.009z"/>
<path fill="#CFD8DD" d="M30.258,23.511C40.344,20.417,43.891,0.562,45.852,2.083c0.957,0.742,5.113,15.414,0.849,12.205
	c-6.562-4.938,1.94,5.246,2.004,10.893c0.039,3.572-13.656-10.467-4.608,13.813L30.258,23.511z"/>
<polygon fill="#CFD8DD" points="56.682,28.589 51.4,18.406 52.906,25.679 "/>
<polygon fill="#CFD8DD" points="51.809,40.496 51.1,33.803 47.207,30.007 "/>
<path fill="#CFD8DD" d="M2,30.455c0,0,8.621-4.355,10.906-15.539c0.188-0.926,3.074,5.576,4.5,12.379
	c0.621,2.971-4.314-3.232-4.313,1.094c0.002,6.53-5.187,14.098-5.187,14.098C10.748,25.111,2,43.99,2,43.99V30.455z"/>
<linearGradient id="SVGID_2_" gradientUnits="userSpaceOnUse" x1="88" y1="-142" x2="88" y2="-126.7168" gradientTransform="matrix(1 0 0 -1 -56 -80)">
	<stop  offset="0" style="stop-color:#916958"/>
	<stop  offset="0.21" style="stop-color:#8B6454"/>
	<stop  offset="0.4866" style="stop-color:#7B5748"/>
	<stop  offset="0.799" style="stop-color:#5F4034"/>
	<stop  offset="1" style="stop-color:#4A2F24"/>
	<a:midPointStop  offset="0" style="stop-color:#916958"/>
	<a:midPointStop  offset="0.5" style="stop-color:#916958"/>
	<a:midPointStop  offset="0.21" style="stop-color:#8B6454"/>
	<a:midPointStop  offset="0.5" style="stop-color:#8B6454"/>
	<a:midPointStop  offset="0.4866" style="stop-color:#7B5748"/>
	<a:midPointStop  offset="0.5" style="stop-color:#7B5748"/>
	<a:midPointStop  offset="0.799" style="stop-color:#5F4034"/>
	<a:midPointStop  offset="0.5" style="stop-color:#5F4034"/>
	<a:midPointStop  offset="1" style="stop-color:#4A2F24"/>
</linearGradient>
<path fill="url(#SVGID_2_)" d="M62,46.717c-36.494,2.328-42.457,8.852-60,9.65V62h60V46.717z"/>
<path fill="#EFDE8B" d="M39.468,16.433c0.38-0.283,0.699-0.678,0.912-1.23c-3.481,1.762-8.488-3.287-10.931-1.68
	c0.567,0.959,1.017,1.982,1.491,2.994c0.684-0.824,3.804,3.76,6.682,2.086c-0.456,0.107-1.04-0.256-1.685-0.762
	c2.324,0.689,4.791,0.922,5.896-1.447C41.494,16.734,40.545,16.689,39.468,16.433z"/>
<path fill="#BA9D52" d="M41.833,16.394c-0.339,0.34-2.071,0.906-3.149,0.652c1.254-0.639,1.719-1.182,1.696-1.844
	c-3.474,2.918-8.458-2.516-10.148-0.195c0.24,0.5,0.474,1.006,0.709,1.51c0.685-0.824,3.805,3.76,6.683,2.086
	c-1.396,0.266-2.111-0.26-2.378-0.875C37.568,18.417,40.729,18.763,41.833,16.394z"/>
<path fill="#8E3ED6" d="M29.205,13.298c-0.79,0.717-0.029,3.971,1.69,3.664C32.31,16.716,30.247,12.345,29.205,13.298z"/>
<path fill="#D6A67A" d="M24.856,22.648c1.301-1.174,2.659,0.537,2.769,0.883c0,0,3.133-1.893,2.407-3.996
	C25.712,14.958,24.856,22.648,24.856,22.648z"/>
<path fill="#E3C19B" d="M18.039,14.646c-0.044,0.893,0.114,1.838,0.54,2.518c0.65,1.049,0.329,1.797-0.262,2.891
	c-0.563,1.041,0.599,1.369,1.481,1.037c0.275,0.195,0.22,0.508,0.22,0.508c0.928,0.357,1.253,1.307,1.022,1.686
	c0,0,0.257,0.031,0.361,0.451c0.301,1.201,1.146,1.291,2.668,0.1c3.002-2.354,2.357-5.004,2.357-5.004
	c1.054,0.732,2.537-1.717,1.851-3.791C27.147,11.593,22.442,7.75,18.039,14.646z"/>
<path fill="#D6A67A" d="M25.887,17.181c-0.306-0.834,0.106-1.813,0.788-2.072c0,0-0.806,1.432-0.014,2.662
	C26.661,17.771,26.101,17.765,25.887,17.181z"/>
<path fill="#F5F5F5" d="M21.813,17.685c-0.26,0.68-1.251,1.369-1.644,1.432C18.316,16.771,20.821,16.775,21.813,17.685z"/>
<path fill="#45332C" d="M20.212,19.107c1.035-0.418-0.566-3.014-0.723-1.227C19.546,18.164,20.005,19.191,20.212,19.107z"/>
<path fill="#45332C" d="M21.813,17.685c-0.661-0.939-2.737-1.033-2.323,0.195C19.535,17.119,20.966,17.074,21.813,17.685z"/>
<path fill="#F5F5F5" d="M19.816,17.792c0.1,0.256,0.464,0.109,0.365-0.146C20.089,17.414,19.724,17.558,19.816,17.792z"/>
<path fill="#594640" d="M21.486,15.945c-0.907-0.301-2.336,0.273-2.735,0.828c-0.09,0.111,0.17,0.475,0.237,0.385
	c0.457-0.596,1.538-1.125,2.537-1.035C21.637,16.132,21.624,15.984,21.486,15.945z"/>
<path fill="#C97E55" d="M20.515,22.013c0.403,0.105,0.215,0.588,0.215,0.588c-0.297,0.096-0.012,0.889,0.312,0.682
	c0.934-0.611,1.558-1.699,1.483-2.014c-0.198,0.08-1.75,0.582-2.506,0.328C20.019,21.599,20.076,21.941,20.515,22.013z"/>
<path fill="#FFFFFF" d="M20.515,22.013l0.215,0.588c0.262-0.084,1.163-0.643,1.572-1.164C22.302,21.439,21.22,22.001,20.515,22.013z
	"/>
<path fill="#EFDE8B" d="M28.729,11.265c-0.99-2.336-3.86-2.92-6.729-1.875c-3.71,1.357-4.8,4.291-3.962,5.256
	c3.523-3.627,6.728,4.283,7.423,1.045c0.35-1.621,2.503-1.602,2.76,0.34c0.262,1.959-0.758,2.658-0.758,2.658
	c0.75,0.678,1.367,0.576,1.367,0.576C31.579,17.759,31.128,11.638,28.729,11.265z"/>
<path fill="#BA9D52" d="M28.729,11.265c-0.99-2.336-5.412-1.967-6.646-1.225c2.037-0.385,4.74,0.051,5.277,0.752
	c-1.737,0.137-4.417,0.037-7.063,1.156c1.718-0.371,3.559,0.508,7.098-0.139c0,0-2.25,1.393-5.292,1.244
	c1.055,0.695,3.314,0.9,4.368,0.842c-1.049,0.443-2.294,0.762-5.373,0.002c2.179,0.896,3.879,4.047,4.363,1.793
	c0.35-1.621,2.503-1.6,2.76,0.342c0.262,1.959-0.758,2.658-0.758,2.658c0.75,0.678,1.367,0.576,1.367,0.576
	C31.579,17.759,31.128,11.638,28.729,11.265z"/>
<path fill="#D6A67A" d="M20.426,20.384c-0.008,0.4-0.512,0.686-0.837,0.793c-0.43,0.141-0.915,0.066-1.204-0.172
	C18.429,20.589,19.666,21.183,20.426,20.384z"/>
<path fill="#302C3B" d="M29.491,13.996c0,0-1.006-0.324-0.998-0.072c0.027,1.045-0.809,3.494-0.809,3.494s-2.648-1.559-3.646-4.361
	c-0.084-0.24-0.826,0.27-0.872,0.518c-0.284,1.508,4.061,4.961,4.061,4.961s-1.447,3.607-2.58,4.805
	C28.342,22.345,29.491,13.996,29.491,13.996z"/>
<path fill="#302C3B" d="M17.245,13.326c0,0-0.164-0.061-2.067,1.303c0,0,2.944,1.701,7.501-0.127L17.245,13.326z"/>
<path fill="#E81C27" d="M33.21,10.134c-14.65-6.262-15.965,3.191-15.965,3.191c10.579,3.641,15.772-0.313,15.772-0.313l-1.473-0.568
	C31.545,12.445,32.887,11.376,33.21,10.134z"/>
<path fill="#B00505" d="M18.929,12.771c1.581-3.18,4.143-4.33,6.846-3.631C21.165,10.458,18.929,12.771,18.929,12.771z"/>
<path fill="#B00505" d="M21.181,12.101c2.486-1.762,4.336-2.225,8.416-1.973C26.12,12.509,21.181,12.101,21.181,12.101z"/>
<path fill="#B00505" d="M20.877,13.085c2.158-0.748,5.182-1.031,7.381-0.461C25.338,14.396,20.877,13.085,20.877,13.085z"/>
<path fill="#D6A67A" d="M28.761,33.834c-0.775,3.342,1.955,3,5.435,8.83l1.677-2.539c-2.285-2.393-1.129-2.945-2.655-5.82
	L28.761,33.834z"/>
<path fill="#5D1E96" d="M38.634,34.355l-2.301-4.698c-2.267,1.299-5.861,2.127-7.757,4.032c0,0,1.462,1.471,5.48,2.795
	C35.746,35.811,38.634,34.355,38.634,34.355z"/>
<path fill="#302C3B" d="M22.467,30.523c-0.621-0.291-2.6-0.865-2.6-0.865v1.732l1.632,0.408l-0.766,3.059l1.733,0.867l0.866-3.467
	C23.333,32.257,24.69,31.564,22.467,30.523z"/>
<path fill="#99A8AE" d="M16.4,40.059c-5.267,0-9.533,4.268-9.533,9.533s4.267,9.533,9.533,9.533c5.264,0,9.533-4.268,9.533-9.533
	S21.664,40.059,16.4,40.059z M16.4,57.391c-4.309,0-7.8-3.492-7.8-7.799c0-4.309,3.491-7.801,7.8-7.801c4.308,0,7.8,3.492,7.8,7.801
	C24.2,53.898,20.708,57.391,16.4,57.391z"/>
<path fill="#99A8AE" d="M47.602,40.059c-5.268,0-9.535,4.268-9.535,9.533s4.269,9.533,9.535,9.533c5.265,0,9.533-4.268,9.533-9.533
	S52.865,40.059,47.602,40.059z M47.602,57.391c-4.31,0-7.802-3.492-7.802-7.799c0-4.309,3.492-7.801,7.802-7.801
	c4.308,0,7.799,3.492,7.799,7.801C55.4,53.898,51.908,57.391,47.602,57.391z"/>
<path fill="#302C3B" d="M16.4,39.191c-5.743,0-10.4,4.656-10.4,10.4c0,5.742,4.657,10.4,10.4,10.4c5.743,0,10.4-4.658,10.4-10.4
	C26.8,43.848,22.144,39.191,16.4,39.191z M16.4,58.258c-4.787,0-8.667-3.879-8.667-8.668c0-4.787,3.88-8.666,8.667-8.666
	s8.666,3.879,8.666,8.666C25.066,54.379,21.188,58.258,16.4,58.258z"/>
<path fill="#302C3B" d="M47.602,39.191c-5.744,0-10.4,4.656-10.4,10.4c0,5.742,4.656,10.4,10.4,10.4
	c5.742,0,10.398-4.658,10.398-10.4C58,43.848,53.344,39.191,47.602,39.191z M47.602,58.258c-4.787,0-8.668-3.879-8.668-8.668
	c0-4.787,3.881-8.666,8.668-8.666c4.785,0,8.666,3.879,8.666,8.666C56.268,54.379,52.387,58.258,47.602,58.258z"/>
<path fill="#0FB4D4" d="M48.172,48.926L39.387,38.49l1.188-2.379c0.214-0.428-1.337-1.203-1.552-0.773l-1.141,2.281l-16.895-3.785
	l-5.406,15.471c-0.344,0.971,1.321,1.459,1.635,0.576l4.667-13.225l10.293,13.463c0.008,0.01,0.021,0.014,0.027,0.021
	c0.074,0.09,0.536,0.318,0.662,0.318H47.6c0.004,0,0.012,0,0.017,0C48.096,50.457,48.363,49.084,48.172,48.926z M37.085,39.217
	l-4.374,8.746l-8.975-11.74L37.085,39.217z M34.27,48.725l4.272-8.545l7.194,8.545H34.27z"/>
<path fill="#302C3B" d="M18.134,49.592c0,2.311-3.467,2.311-3.467,0C14.667,47.277,18.134,47.277,18.134,49.592z"/>
<polygon fill="#BEC3CF" points="47.602,47.857 32.865,46.992 32.865,46.125 47.602,46.992 "/>
<polygon fill="#BEC3CF" points="47.602,52.191 32.867,53.059 32.867,52.191 47.602,51.324 "/>
<path fill="#302C3B" d="M50.201,49.592c0,3.467-5.201,3.467-5.201,0S50.201,46.125,50.201,49.592z"/>
<path fill="#302C3B" d="M32.865,53.059c-4.619,0-4.619-6.934,0-6.934C37.488,46.125,37.488,53.059,32.865,53.059z"/>
<rect x="27.667" y="55.658" fill="#99A8AE" width="6.065" height="1.732"/>
<polygon fill="#6E8189" points="31.134,55.658 29.399,55.658 32,49.592 33.732,49.592 "/>
<path fill="#99A8AE" d="M33.732,49.594c0,1.154-1.732,1.154-1.732,0C32,48.436,33.732,48.436,33.732,49.594z"/>
<path fill="#302C3B" d="M43.268,36.592c-1.733,0.867-3.468-0.867-6.935-0.867c0,0,0-1.732,1.733-1.732c3.572,0,4.709-0.68,6.066,0
	C45.867,34.857,44.361,36.043,43.268,36.592z"/>
<path fill="#E3C19B" d="M32.249,40.281c-0.445,1.82,2.053,6.223,0.765,12.432h3.658c-0.961-6.209,0.582-7.486,0.148-12.104
	C36.82,40.609,32.792,38.066,32.249,40.281z"/>
<path fill="#302C3B" d="M36.581,52.035c-2.252,0.848-2.685,0.557-3.511,0.268c-1.07,0.666-4.57,1.379-5.604,2.467
	c-0.148,0.156,0,0.889,0,0.889h9.776C37.242,55.658,37.337,51.75,36.581,52.035z"/>
<path fill="#8E3ED6" d="M44.338,28.326c-4.254-9.16-15.71-11.363-17.065-7.875c-0.912,2.35,3.146,7.949,6.257,6.199
	c0.455-0.256,1.68,1.895,2.805,3.008c-1.415,2.6-3.146,7.69-4.608,10.946c0,0,2.263-0.123,5.477,1.119
	C38.788,37.182,46.79,33.604,44.338,28.326z"/>
<path fill="#FFE463" d="M35.729,41.225l-1.703-0.414c0.818-3.713,2.813-5.918,4.416-7.689c1.412-1.561,2.199-2.499,1.996-3.647
	c-0.489-2.764-4.047-5.422-10.021-7.484l0.566-1.641c4.663,1.613,10.386,4.453,11.159,8.822c0.361,2.041-0.927,3.465-2.416,5.112
	C38.186,35.986,36.447,37.961,35.729,41.225z"/>
<path fill="#E3C19B" d="M27.806,26.287c0.137,0.768,0.25,1.432,0.295,1.898c-2.763,1.436-3.463,2.135-6.052,0.605
	c-1.733-1.023-5.092-1.105-4.378,2.424c0.307,1.516,2.218-2.545,2.949-1.139c1.154,2.221,1.561,1.75,3.201,1.662
	c3.892-0.205,7.903-0.348,7.752-1.84c-0.092-0.904,0.185-1.773,0.146-3.018L27.806,26.287z"/>
<path fill="#8E3ED6" d="M31.526,21.568c-0.461-3.404-4.611-2.871-4.406-0.074c0.117,1.607,0.288,4.139,0.535,5.551l4.328,0.148
	C31.929,25.316,31.758,23.287,31.526,21.568z"/>
<path fill="#302C3B" d="M21.601,30.529c0,2.305-3.467,2.305-3.467,0C18.134,28.212,21.601,28.212,21.601,30.529z"/>
<path fill="#99A8AE" d="M20.733,30.525c0,1.154-1.733,1.154-1.733,0C19,29.369,20.733,29.369,20.733,30.525z"/>
</svg>
