<?xml version="1.0" encoding="utf-8"?>
<!-- Generator: Adobe Illustrator 15.0.0, SVG Export Plug-In . SVG Version: 6.00 Build 0)  -->
<!DOCTYPE svg PUBLIC "-//W3C//DTD SVG 1.1//EN" "http://www.w3.org/Graphics/SVG/1.1/DTD/svg11.dtd" [
	<!ENTITY ns_flows "http://ns.adobe.com/Flows/1.0/">
	<!ENTITY ns_extend "http://ns.adobe.com/Extensibility/1.0/">
	<!ENTITY ns_ai "http://ns.adobe.com/AdobeIllustrator/10.0/">
	<!ENTITY ns_graphs "http://ns.adobe.com/Graphs/1.0/">
]>
<svg version="1.1" id="Layer_1" xmlns:x="&ns_extend;" xmlns:i="&ns_ai;" xmlns:graph="&ns_graphs;"
	 xmlns="http://www.w3.org/2000/svg" xmlns:xlink="http://www.w3.org/1999/xlink" xmlns:a="http://ns.adobe.com/AdobeSVGViewerExtensions/3.0/"
	 x="0px" y="0px" width="64px" height="64px" viewBox="0 0 64 64" enable-background="new 0 0 64 64" xml:space="preserve">
<path fill="#6E8189" d="M16.379,55.636c0,0-0.597,0.072-0.292,0.34c3.878,3.393,8.947,6.025,8.947,6.025
	c0.293-0.113,0.289-0.443,0.289-0.443L16.379,55.636z"/>
<path fill="#99A8AE" d="M24.38,56.983c-4.373-1.709-7.33-2.521-8.001-1.348c4.913,3.92,8.944,5.922,8.944,5.922
	C27.42,59.692,26.213,58.067,24.38,56.983z"/>
<path fill="#1A1626" d="M19.696,55.397c0.386,1.219,0.861,1.662,1.217,1.143c0.334,0.682,0.809,0.527,0.984,0.199
	c0.447,0.566,0.933,0.156,0.554-0.793C22.221,55.429,19.593,55.069,19.696,55.397z"/>
<path fill="#6E8189" d="M40.087,61.558c0,0-0.234,0.307,0.087,0.443C44.25,61.696,48,54.587,48,54.587
	c0-0.283-0.263-0.453-0.263-0.453L40.087,61.558z"/>
<path fill="#99A8AE" d="M43.609,54.712c-3.216,4.313-3.8,5.809-3.522,6.846c3.915-0.408,7.65-7.424,7.65-7.424
	C45.765,50.884,44.178,53.95,43.609,54.712z"/>
<path fill="#1A1626" d="M40.943,58.542c1.267-0.021,1.832-0.352,1.45-0.846c0.747-0.125,0.745-0.629,0.49-0.896
	c0.672-0.266,0.432-0.855-0.576-0.764C41.747,56.11,40.602,58.548,40.943,58.542z"/>
<path fill="#1A1626" d="M36.874,32.306c-8.222-1.227-7.499,2.283-7.499,2.283c1.205,6.003,3.816,13.25,4.806,14.496
	c0.827,1.041,4.754,3.682,7.836,7.32c2.155-1.021,6.002-2.369,4.951-3.396c-3.998-3.91-7.847-7.383-7.847-7.383
	C36.39,41.207,35.662,36.46,36.874,32.306z"/>
<path fill="#302C3B" d="M37.007,32.205c0,0-4.773-3.007-6.713,1.799c-0.665,4.634-4.568,9.126-5.252,10.58
	c-0.746,1.59-1.354,6.999-3.339,10.944c2.235,1.801,4.307,6.086,4.727,4.73c1.866-6.021,4.059-13.423,4.059-13.423
	C36.353,38.709,39.3,39.585,37.007,32.205z"/>
<path fill="#FFCC66" d="M29.94,25.159c-2.189,2.623-3.588,4.832-4.605,5.646c-0.394,0.315-1.389,1.165-1.744,1.922
	c-0.255,0.545-0.767,2.435,0.075,3.403c0.757,0.872,1.083-2.304,1.907-2.069c-0.531,1.304,0.129,1.868,0.534,1.085
	c0.711-1.372,0.503-1.896,0.464-2.497c-0.031-0.469,1.358-2.125,3.369-3.656V25.159z"/>
<path fill="#594640" d="M46.278,17.111c-0.506-0.117-1.008-1.017-1.391-2.154c0.479,0.187,1.023,0.256,1.654,0.134
	c-4.48-2.718-0.684-13.586-7.715-10.758L39.2,7.435c2.668-1.738-1.006,5.145,2.633,7.068c-0.359-0.356-0.359-1.103-0.264-1.985
	C42.267,15.052,43.468,17.454,46.278,17.111z"/>
<path fill="#453631" d="M46.278,17.111c-0.506-0.117-2.021-1.387-2.404-2.524c1.307,0.788,2.072,0.903,2.668,0.504
	c-5.346-1.74-1.777-11.563-7.336-9.044L39.2,7.435c2.668-1.738-1.006,5.145,2.633,7.068c-1.045-1.132-0.971-2.091-0.557-2.688
	C41.974,14.348,43.468,17.454,46.278,17.111z"/>
<path fill="#8E3ED6" d="M38.466,4.33c-1.012,0.554-0.779,3.377,1.111,3.491C41.128,7.919,39.808,3.59,38.466,4.33z"/>
<path fill="#F7C259" d="M31.476,15.345c1.612-0.649,0.604,3.207,0.591,3.567c0,0,1.516-2.199,4.788-2.24
	c0,0-0.348-1.326-0.482-3.465C36.731,7.333,31.476,15.345,31.476,15.345z"/>
<path fill="#FFCC66" d="M27.812,5.55c-0.344,0.816-0.516,1.754-0.35,2.533c0.256,1.2-0.299,1.79-1.221,2.61
	c-0.877,0.777,0.098,1.48,1.033,1.474c0.191,0.275,0.033,0.548,0.033,0.548c0.748,0.649,0.73,1.647,0.387,1.92
	c0,0,0.23,0.118,0.186,0.546c-0.125,1.225,0.635,1.597,2.459,1.005c3.602-1.17,3.895-3.865,3.895-3.865
	c0.736,1.043,2.951-0.735,3.012-2.905C37.354,5.813,34.257,0.618,27.812,5.55z"/>
<path fill="#E6B045" d="M34.286,10.598c-0.002-0.885,0.713-1.659,1.438-1.665c0,0-1.236,1.06-0.914,2.479
	C34.81,11.412,34.288,11.215,34.286,10.598z"/>
<path fill="#F5F5F5" d="M30.308,9.677c-0.471,0.543-1.631,0.849-2.018,0.771C27.351,7.629,29.69,8.488,30.308,9.677z"/>
<path fill="#45332C" d="M28.333,10.455c1.107-0.036,0.488-3.005-0.262-1.391C28.03,9.346,28.11,10.463,28.333,10.455z"/>
<path fill="#45332C" d="M30.308,9.677c-0.299-1.104-2.207-1.899-2.236-0.612C28.372,8.367,29.724,8.814,30.308,9.677z"/>
<path fill="#F5F5F5" d="M28.407,9.095c0.006,0.272,0.396,0.26,0.391-0.013C28.79,8.832,28.399,8.844,28.407,9.095z"/>
<path fill="#594640" d="M30.593,7.939c-0.746-0.592-2.275-0.542-2.836-0.162c-0.123,0.073-0.002,0.5,0.092,0.439
	c0.629-0.399,1.818-0.525,2.721-0.098C30.669,8.166,30.708,8.022,30.593,7.939z"/>
<path fill="#D47706" d="M27.634,13.271c0.34,0.235,0,0.623,0,0.623c-0.309-0.012-0.311,0.825,0.061,0.741
	c1.08-0.249,2.031-1.053,2.068-1.371c-0.213,0.008-1.834-0.054-2.455-0.549C27.308,12.715,27.247,13.054,27.634,13.271z"/>
<path fill="#FFFFFF" d="M27.634,13.271v0.623c0.271,0.011,1.303-0.202,1.863-0.548C29.497,13.346,28.296,13.501,27.634,13.271z"/>
<path fill="#594640" d="M38.942,6.048C38.808,3.528,36.323,2.001,33.29,2c-3.926-0.003-5.936,2.364-5.479,3.55
	c4.518-2.18,4.838,6.296,6.582,3.512c0.875-1.394,2.879-0.639,2.463,1.26c-0.418,1.918-1.607,2.223-1.607,2.223
	c0.473,0.888,1.084,1.005,1.084,1.005C39.411,13.08,41.058,7.214,38.942,6.048z"/>
<path fill="#453631" d="M38.942,6.048c-0.135-2.52-4.391-3.687-5.795-3.415c2.035,0.335,4.412,1.667,4.678,2.505
	c-1.67-0.468-4.141-1.475-6.992-1.334c1.73,0.241,3.154,1.69,6.68,2.296c0,0-2.574,0.531-5.365-0.647
	c0.75,1.01,2.793,1.973,3.797,2.277c-1.131,0.057-2.4-0.071-5.021-1.831c1.732,1.581,2.256,5.102,3.471,3.163
	c0.875-1.394,2.879-0.639,2.463,1.26c-0.418,1.918-1.607,2.223-1.607,2.223c0.473,0.888,1.084,1.005,1.084,1.005
	C39.411,13.08,41.058,7.214,38.942,6.048z"/>
<path fill="#E6B045" d="M28.101,11.72c-0.145,0.373-0.711,0.467-1.049,0.454c-0.451-0.017-0.879-0.25-1.068-0.571
	C26.165,11.229,27.12,12.207,28.101,11.72z"/>
<path fill="#8E3ED6" d="M37.007,32.205c0,0-3.125,0.166-7.698,2.416c-0.369-3.467,0.546-8.081,0.265-8.226
	c-4.867-2.5,1.41-6.284,2.047-7.976c0.128-0.34,0.463-0.699,0.688-0.95c-0.245,2.534,2.602-3.041,5.215-0.459
	C39.454,22.254,35.686,25.604,37.007,32.205z"/>
<path fill="#FFCC66" d="M42.208,25.119c-0.167-0.465-1.104-2.159-2.049-3.822c-1.079,0.531-1.88,0.94-2.911,1.533
	c0.924,1.263,2.298,2.866,2.376,3.507c0.334,2.742,0.676,4.653,0.421,7.343c-0.042,0.438-1.153,0.708-1.745,2.927
	c-0.255,0.955,0.769,0.931,1.266-0.57c0.895,0.37-1.169,3.354,0.138,3.121c1.447-0.256,2.582-2.404,2.764-3.055
	c0.16-0.582-0.187-1.789-0.198-2.33C42.204,31.127,42.502,25.938,42.208,25.119z"/>
<path fill="#5D1E96" d="M41.146,22.577c-0.748-1.403-1.803-3.229-3.066-5.201c-1.361-2.124-4.571-0.151-3.469,2.13
	c0.599,1.24,1.554,2.89,3.07,5.098C38.758,23.837,39.924,23.155,41.146,22.577z"/>
</svg>
