<?xml version="1.0" encoding="utf-8"?>
<!-- Generator: Adobe Illustrator 19.0.0, SVG Export Plug-In . SVG Version: 6.00 Build 0)  -->
<svg version="1.1" id="Layer_1" xmlns="http://www.w3.org/2000/svg" xmlns:xlink="http://www.w3.org/1999/xlink" x="0px" y="0px"
	 width="64px" height="64px" viewBox="0 0 64 64" enable-background="new 0 0 64 64" xml:space="preserve">
<path fill="#F7C259" d="M23.777,18.851c1.54-1.389,3.149,0.636,3.278,1.046c0,0,3.708-2.24,2.85-4.73
	C24.79,9.748,23.777,18.851,23.777,18.851z"/>
<path fill="#FFCC66" d="M15.843,10.103c-0.012,1.027,0.307,1.765,0.81,2.534c0.784,1.182,0.456,2.058-0.151,3.343
	c-0.583,1.22,0.733,1.552,1.71,1.137c0.314,0.215,0.431,0.716,0.431,0.716s0.972,0.295,0.772,1.621
	c1.082,0.456,0.227,2.371,2.186,1.643c1.913-0.711,3.843-3.163,4.104-3.756c0.414-0.938-0.172-3.089-0.172-3.089
	c1.219,0.803,2.502-1.96,1.638-4.329C25.737,5.997,20.45,1.984,15.843,10.103z"/>
<path fill="#E6B045" d="M24.586,11.745c-0.383-0.922,0.038-2.037,0.791-2.351c0,0-0.84,1.634,0.1,2.981
	C25.477,12.375,24.85,12.389,24.586,11.745z"/>
<path fill="#F5F5F5" d="M20.519,12.965c-0.307,0.748-1.437,1.493-1.88,1.548C16.625,11.836,19.433,11.917,20.519,12.965z"/>
<path fill="#45332C" d="M18.69,14.505c1.168-0.433-0.554-3.388-0.778-1.393C17.966,13.43,18.453,14.593,18.69,14.505z"/>
<path fill="#E6B045" d="M20.519,12.965c-0.718-1.072-3.039-1.24-2.608,0.146C17.982,12.26,19.582,12.253,20.519,12.965z"/>
<path fill="#F5F5F5" d="M18.28,13.025c0.104,0.289,0.518,0.134,0.414-0.153C18.596,12.604,18.181,12.757,18.28,13.025z"/>
<path fill="#C1873C" d="M19.94,10.915c-1.03-0.301-2.598,0.247-3.022,0.883c-0.1,0.127,0.193,0.668,0.276,0.576
	c0.648-0.747,1.945-1.242,2.885-1.027C20.201,11.373,20.096,10.955,19.94,10.915z"/>
<path fill="#E6A400" d="M18.833,18.246c0.459,0.103,0.311,0.603,0.311,0.603c-0.18,0.066,0.007,0.704,0.271,0.606
	c1.321-0.492,1.505-1.545,1.683-2.164C19.617,17.751,17.898,17.556,18.833,18.246z"/>
<path fill="#FFFFFF" d="M18.833,18.246c0,0,0.214,0.546,0.311,0.603c0.288-0.106,1.278-0.738,1.711-1.355L18.833,18.246z"/>
<path fill="#594640" d="M27.146,3.948c-1.434-1.253-12.491,0.584-11.304,6.156c3.963-3.432,4.826-1.907,6.354-1.002
	c0.351,0.212,0.084,1.83,1.784,2.737c-0.845-3.1,2.772-4.124,3.318-1.373c0.349,1.764-0.136,2.74-0.4,3.273
	c0.742-0.042,1.848,0.39,1.848,0.39C31.518,11.607,29.751,4.756,27.146,3.948z"/>
<path fill="#E6B045" d="M18.88,16.277c0.01,0.463-0.541,0.813-0.897,0.944c-0.48,0.179-1.025,0.115-1.36-0.148
	C16.653,16.591,18.067,17.229,18.88,16.277z"/>
<path fill="#302C3B" d="M28.284,8.353c0,0-1.151-0.262-1.118,0.017c0.132,1.163-0.562,3.971-0.562,3.971s-3.1-1.477-4.483-4.502
	C22.004,7.58,21.229,8.219,21.2,8.5c-0.17,1.707,5.004,5.129,5.004,5.129s-1.342,4.639-2.486,6.081
	C27.733,18.245,28.284,8.353,28.284,8.353z"/>
<path fill="#302C3B" d="M14.975,8.156c0,0-0.189-0.07-2.385,1.504c0,0,3.397,1.963,8.654-0.149L14.975,8.156z"/>
<path fill="#E81C27" d="M33.396,4.474C16.492-2.752,14.975,8.156,14.975,8.156c12.207,4.201,18.199-0.361,18.199-0.361L31.475,7.14
	C31.475,7.14,33.023,5.906,33.396,4.474z"/>
<path fill="#B00505" d="M16.918,7.517c1.824-3.67,4.779-4.996,7.898-4.189C19.498,4.847,16.918,7.517,16.918,7.517z"/>
<path fill="#B00505" d="M19.516,6.742c2.869-2.033,5.004-2.566,9.711-2.275C25.215,7.212,19.516,6.742,19.516,6.742z"/>
<path fill="#B00505" d="M19.166,7.878c2.49-0.863,5.979-1.189,8.516-0.533C24.313,9.39,19.166,7.878,19.166,7.878z"/>
<path fill="#F7C259" d="M28.262,31.818c-0.894,3.857,2.256,3.461,6.271,10.189l1.934-2.93c-2.637-2.76-1.303-3.398-3.064-6.717
	L28.262,31.818z"/>
<path fill="#529320" d="M39.654,32.421L37,26.999c-2.615,1.5-6.764,2.455-8.951,4.652c0,0,1.688,1.697,6.324,3.225
	C36.322,34.099,39.654,32.421,39.654,32.421z"/>
<path fill="#302C3B" d="M21,27.999c-0.717-0.336-3-1-3-1v2l1.883,0.471L19,32.999l2,1l1-4C22,29.999,23.565,29.201,21,27.999z"/>
<path fill="#99A8AE" d="M14,38.999c-6.076,0-11,4.924-11,11s4.924,11,11,11c6.074,0,11-4.924,11-11S20.074,38.999,14,38.999z
	 M14,58.999c-4.971,0-9-4.029-9-9s4.029-9,9-9s9,4.029,9,9S18.971,58.999,14,58.999z"/>
<path fill="#99A8AE" d="M50,38.999c-6.076,0-11,4.924-11,11s4.924,11,11,11c6.074,0,11-4.924,11-11S56.074,38.999,50,38.999z
	 M50,58.999c-4.971,0-9-4.029-9-9s4.029-9,9-9s9,4.029,9,9S54.971,58.999,50,58.999z"/>
<path fill="#302C3B" d="M14,37.999c-6.627,0-12,5.373-12,12c0,6.627,5.373,12,12,12s12-5.373,12-12
	C26,43.373,20.627,37.999,14,37.999z M14,59.999c-5.523,0-10-4.477-10-10c0-5.523,4.477-10,10-10s10,4.477,10,10
	C24,55.523,19.523,59.999,14,59.999z"/>
<path fill="#302C3B" d="M50,37.999c-6.627,0-12,5.373-12,12c0,6.627,5.373,12,12,12s12-5.373,12-12
	C62,43.373,56.627,37.999,50,37.999z M50,59.999c-5.523,0-10-4.477-10-10c0-5.523,4.477-10,10-10s10,4.477,10,10
	C60,55.523,55.523,59.999,50,59.999z"/>
<path fill="#0FB4D4" d="M50.66,49.232L40.521,37.191l1.373-2.744c0.246-0.494-1.543-1.389-1.789-0.895l-1.316,2.633l-19.494-4.367
	l-6.238,17.85c-0.396,1.121,1.525,1.684,1.887,0.666l5.385-15.26l11.877,15.533c0.008,0.012,0.023,0.016,0.031,0.025
	c0.086,0.105,0.619,0.367,0.764,0.367h17c0.006,0,0.014,0,0.02,0C50.572,50.999,50.881,49.415,50.66,49.232z M37.867,38.029
	L32.82,48.121L22.465,34.576L37.867,38.029z M34.617,48.999l4.932-9.859l8.301,9.859H34.617z"/>
<path fill="#302C3B" d="M16,49.999c0,2.668-4,2.668-4,0C12,47.332,16,47.332,16,49.999z"/>
<polygon fill="#BEC3CF" points="50,47.999 32.998,46.999 32.998,45.999 50,46.999 "/>
<polygon fill="#BEC3CF" points="50,52.999 33,53.999 33,52.999 50,51.999 "/>
<path fill="#302C3B" d="M53,49.999c0,4-6,4-6,0S53,45.999,53,49.999z"/>
<path fill="#302C3B" d="M32.998,53.999c-5.33,0-5.33-8,0-8C38.334,45.999,38.334,53.999,32.998,53.999z"/>
<rect x="27" y="56.999" fill="#99A8AE" width="7" height="2"/>
<polygon fill="#6E8189" points="31,56.999 29,56.999 32,49.999 34,49.999 "/>
<path fill="#99A8AE" d="M34,50.003c0,1.33-2,1.33-2,0C32,48.665,34,48.665,34,50.003z"/>
<path fill="#302C3B" d="M45,34.999c-2,1-4-1-8-1c0,0,0-2,2-2c4.123,0,5.434-0.783,7,0C48,32.999,46.264,34.367,45,34.999z"/>
<path fill="#FFCC66" d="M32.287,39.257c-0.514,2.1,2.369,7.18,0.883,14.344h4.221c-1.109-7.164,0.672-8.637,0.172-13.965
	C37.563,39.636,32.914,36.703,32.287,39.257z"/>
<path fill="#302C3B" d="M37.285,52.82c-2.598,0.979-3.096,0.643-4.049,0.309c-1.236,0.768-5.275,1.592-6.469,2.846
	c-0.172,0.18,0,1.025,0,1.025h11.281C38.049,56.999,38.158,52.492,37.285,52.82z"/>
<path fill="#7AB51D" d="M46.236,25.462c-4.909-10.569-18.127-13.111-19.691-9.086C25.492,19.089,32.761,21.745,37,26.999
	c-1.633,3-3.631,8.873-5.318,12.631c0,0,2.611-0.143,6.318,1.291C39.832,35.681,49.065,31.554,46.236,25.462z"/>
<path fill="#89CC14" d="M36.301,40.345l-1.965-0.477c0.945-4.285,3.246-6.83,5.096-8.875c1.629-1.799,2.537-2.881,2.303-4.207
	c-0.565-3.188-4.67-6.254-11.561-8.637l0.654-1.891c5.381,1.861,11.982,5.137,12.875,10.178c0.418,2.355-1.068,3.998-2.787,5.899
	C39.137,34.302,37.131,36.58,36.301,40.345z"/>
<path fill="#FFCC66" d="M27.16,23.109c0.156,0.887,0.287,1.654,0.34,2.191c-3.188,1.656-3.996,2.463-6.982,0.699
	c-2-1.182-5.875-1.275-5.051,2.797c0.354,1.748,2.559-2.938,3.402-1.314c1.332,2.563,1.801,2.018,3.693,1.918
	c4.49-0.236,9.119-0.4,8.945-2.123c-0.105-1.043,0.213-2.047,0.17-3.481L27.16,23.109z"/>
<path fill="#529320" d="M31.453,17.665c-0.531-3.928-5.32-3.313-5.084-0.086c0.135,1.856,0.332,4.775,0.619,6.404l4.992,0.174
	C31.916,21.992,31.721,19.648,31.453,17.665z"/>
<path fill="#302C3B" d="M20,28.005c0,2.658-4,2.658-4,0C16,25.332,20,25.332,20,28.005z"/>
<path fill="#99A8AE" d="M19,28.001c0,1.33-2,1.33-2,0C17,26.665,19,26.665,19,28.001z"/>
</svg>
