<?xml version="1.0" encoding="utf-8"?>
<!-- Generator: Adobe Illustrator 15.0.0, SVG Export Plug-In . SVG Version: 6.00 Build 0)  -->
<!DOCTYPE svg PUBLIC "-//W3C//DTD SVG 1.1//EN" "http://www.w3.org/Graphics/SVG/1.1/DTD/svg11.dtd" [
	<!ENTITY ns_flows "http://ns.adobe.com/Flows/1.0/">
	<!ENTITY ns_extend "http://ns.adobe.com/Extensibility/1.0/">
	<!ENTITY ns_ai "http://ns.adobe.com/AdobeIllustrator/10.0/">
	<!ENTITY ns_graphs "http://ns.adobe.com/Graphs/1.0/">
]>
<svg version="1.1" id="Layer_1" xmlns:x="&ns_extend;" xmlns:i="&ns_ai;" xmlns:graph="&ns_graphs;"
	 xmlns="http://www.w3.org/2000/svg" xmlns:xlink="http://www.w3.org/1999/xlink" xmlns:a="http://ns.adobe.com/AdobeSVGViewerExtensions/3.0/"
	 x="0px" y="0px" width="64px" height="64px" viewBox="0 0 64 64" enable-background="new 0 0 64 64" xml:space="preserve">
<path fill="#875B49" d="M40.615,11.741c0.438-0.327,0.809-0.781,1.053-1.42c-4.018,2.033-9.792-3.791-12.611-1.938
	c0.654,1.106,1.172,2.288,1.721,3.454c0.789-0.951,4.388,4.34,7.708,2.407c-0.525,0.125-1.199-0.296-1.943-0.88
	c2.682,0.797,5.527,1.065,6.803-1.668C42.953,12.088,41.859,12.036,40.615,11.741z"/>
<path fill="#6B4435" d="M43.346,11.697c-0.393,0.392-2.393,1.046-3.635,0.751c1.445-0.736,1.982-1.363,1.957-2.127
	c-4.008,3.366-9.759-2.901-11.71-0.226c0.277,0.578,0.547,1.161,0.82,1.742c0.789-0.951,4.388,4.34,7.708,2.407
	c-1.611,0.307-2.438-0.3-2.744-1.011C38.424,14.03,42.07,14.43,43.346,11.697z"/>
<path fill="#8E3ED6" d="M28.774,8.125c-0.91,0.826-0.033,4.582,1.953,4.228C32.356,12.067,29.977,7.023,28.774,8.125z"/>
<path fill="#946346" d="M23.757,18.912c1.501-1.354,3.068,0.619,3.195,1.019c0,0,3.615-2.183,2.777-4.61
	C24.744,10.039,23.757,18.912,23.757,18.912z"/>
<path fill="#B88A6F" d="M15.892,9.679c-0.052,1.028,0.132,2.121,0.622,2.903c0.751,1.21,0.38,2.073-0.302,3.337
	c-0.649,1.201,0.691,1.579,1.71,1.197c0.317,0.225,0.253,0.584,0.253,0.584c1.07,0.413,1.446,1.507,1.18,1.944
	c0,0,0.297,0.036,0.417,0.522c0.348,1.385,1.323,1.488,3.079,0.114c3.464-2.716,2.719-5.774,2.719-5.774
	c1.214,0.845,2.927-1.98,2.136-4.373C26.4,6.157,20.972,1.721,15.892,9.679z"/>
<path fill="#946346" d="M24.946,12.604c-0.353-0.964,0.121-2.094,0.909-2.391c0,0-0.93,1.649-0.016,3.071
	C25.84,13.285,25.192,13.278,24.946,12.604z"/>
<path fill="#F5F5F5" d="M20.245,13.186c-0.3,0.782-1.443,1.578-1.896,1.649C16.211,12.132,19.102,12.136,20.245,13.186z"/>
<path fill="#45332C" d="M18.398,14.826c1.194-0.482-0.654-3.477-0.834-1.415C17.63,13.736,18.159,14.924,18.398,14.826z"/>
<path fill="#45332C" d="M20.245,13.186c-0.763-1.084-3.158-1.192-2.681,0.225C17.617,12.531,19.268,12.479,20.245,13.186z"/>
<path fill="#F5F5F5" d="M17.942,13.309c0.114,0.296,0.534,0.127,0.421-0.168C18.256,12.872,17.835,13.04,17.942,13.309z"/>
<path fill="#423225" d="M19.868,11.178c-1.046-0.349-2.694,0.314-3.155,0.954c-0.104,0.128,0.195,0.548,0.273,0.443
	c0.527-0.688,1.774-1.3,2.928-1.194C20.042,11.394,20.027,11.222,19.868,11.178z"/>
<path fill="#84401E" d="M18.748,18.179c0.465,0.121,0.247,0.679,0.247,0.679c-0.342,0.111-0.014,1.026,0.359,0.787
	c1.078-0.705,1.798-1.961,1.712-2.323c-0.229,0.093-2.02,0.672-2.892,0.379C18.175,17.701,18.241,18.096,18.748,18.179z"/>
<path fill="#FFFFFF" d="M18.748,18.179l0.247,0.679c0.302-0.097,1.342-0.741,1.814-1.342C20.81,17.516,19.562,18.166,18.748,18.179z
	"/>
<path fill="#875B49" d="M28.225,5.778c-1.143-2.695-4.455-3.371-7.762-2.163c-4.281,1.565-5.538,4.951-4.571,6.064
	c4.065-4.185,7.763,4.942,8.564,1.206c0.403-1.871,2.888-1.847,3.183,0.393c0.303,2.261-0.873,3.068-0.873,3.068
	c0.865,0.781,1.578,0.664,1.578,0.664C31.514,13.27,30.993,6.208,28.225,5.778z"/>
<path fill="#6B4435" d="M28.225,5.778c-1.143-2.695-6.244-2.271-7.667-1.414c2.351-0.444,5.469,0.06,6.089,0.867
	c-2.005,0.158-5.096,0.042-8.15,1.334c1.982-0.428,4.106,0.588,8.189-0.158c0,0-2.595,1.606-6.105,1.435
	c1.217,0.802,3.824,1.038,5.04,0.972c-1.21,0.512-2.646,0.879-6.199,0.004c2.514,1.034,4.476,4.67,5.034,2.068
	c0.403-1.871,2.888-1.847,3.183,0.393c0.303,2.261-0.873,3.068-0.873,3.068c0.865,0.781,1.578,0.664,1.578,0.664
	C31.514,13.27,30.993,6.208,28.225,5.778z"/>
<path fill="#946346" d="M18.645,16.299c-0.009,0.463-0.59,0.792-0.965,0.914c-0.496,0.163-1.056,0.077-1.39-0.198
	C16.341,16.537,17.769,17.221,18.645,16.299z"/>
<path fill="#302C3B" d="M29.106,8.926c0,0-1.16-0.373-1.152-0.083c0.031,1.207-0.932,4.031-0.932,4.031s-3.057-1.797-4.208-5.031
	c-0.098-0.277-0.953,0.311-1.007,0.598c-0.328,1.739,4.685,5.724,4.685,5.724s-1.669,4.164-2.976,5.543
	C27.778,18.563,29.106,8.926,29.106,8.926z"/>
<path fill="#302C3B" d="M14.975,8.156c0,0-0.189-0.07-2.385,1.504c0,0,3.396,1.963,8.654-0.148L14.975,8.156z"/>
<path fill="#E81C27" d="M33.396,4.474C16.492-2.752,14.975,8.156,14.975,8.156c12.208,4.201,18.199-0.361,18.199-0.361L31.475,7.14
	C31.475,7.14,33.023,5.906,33.396,4.474z"/>
<path fill="#B00505" d="M16.918,7.517c1.824-3.67,4.779-4.996,7.898-4.189C19.498,4.847,16.918,7.517,16.918,7.517z"/>
<path fill="#B00505" d="M19.516,6.742c2.869-2.033,5.004-2.566,9.711-2.275C25.215,7.212,19.516,6.742,19.516,6.742z"/>
<path fill="#B00505" d="M19.166,7.878c2.49-0.863,5.979-1.189,8.516-0.533C24.313,9.39,19.166,7.878,19.166,7.878z"/>
<path fill="#946346" d="M28.262,31.818c-0.895,3.857,2.256,3.46,6.271,10.189l1.934-2.93c-2.637-2.76-1.303-3.398-3.064-6.716
	L28.262,31.818z"/>
<path fill="#5D1E96" d="M39.654,32.421L37,27c-2.615,1.5-6.763,2.455-8.951,4.652c0,0,1.688,1.697,6.324,3.224
	C36.322,34.099,39.654,32.421,39.654,32.421z"/>
<path fill="#302C3B" d="M21,28c-0.717-0.336-3-1-3-1v2l1.883,0.471L19,33l2,1l1-4C22,30,23.564,29.201,21,28z"/>
<path fill="#99A8AE" d="M14,38.999c-6.076,0-11,4.924-11,11s4.924,11,11,11c6.074,0,11-4.924,11-11S20.074,38.999,14,38.999z
	 M14,58.999c-4.971,0-9-4.029-9-9s4.029-9,9-9s9,4.029,9,9S18.971,58.999,14,58.999z"/>
<path fill="#99A8AE" d="M50,38.999c-6.076,0-11,4.924-11,11s4.924,11,11,11c6.074,0,11-4.924,11-11S56.074,38.999,50,38.999z
	 M50,58.999c-4.971,0-9-4.029-9-9s4.029-9,9-9s9,4.029,9,9S54.971,58.999,50,58.999z"/>
<path fill="#302C3B" d="M14,37.999c-6.627,0-12,5.373-12,12s5.373,12,12,12s12-5.373,12-12S20.627,37.999,14,37.999z M14,59.999
	c-5.523,0-10-4.477-10-10s4.477-10,10-10s10,4.477,10,10S19.523,59.999,14,59.999z"/>
<path fill="#302C3B" d="M50,37.999c-6.627,0-12,5.373-12,12s5.373,12,12,12s12-5.373,12-12S56.627,37.999,50,37.999z M50,59.999
	c-5.523,0-10-4.477-10-10s4.477-10,10-10s10,4.477,10,10S55.523,59.999,50,59.999z"/>
<path fill="#0FB4D4" d="M50.66,49.231L40.521,37.19l1.373-2.744c0.246-0.494-1.543-1.389-1.789-0.895l-1.316,2.633l-19.494-4.367
	l-6.238,17.849c-0.396,1.121,1.525,1.684,1.887,0.666l5.385-15.26l11.877,15.533c0.008,0.012,0.023,0.016,0.031,0.025
	c0.086,0.105,0.619,0.367,0.763,0.367h17c0.006,0,0.014,0,0.02,0C50.572,50.999,50.881,49.415,50.66,49.231z M37.867,38.028
	L32.821,48.12L22.465,34.575L37.867,38.028z M34.617,48.999l4.932-9.859l8.301,9.859H34.617z"/>
<path fill="#302C3B" d="M16,49.999c0,2.668-4,2.668-4,0S16,47.331,16,49.999z"/>
<polygon fill="#BEC3CF" points="50,47.999 32.999,46.999 32.999,45.999 50,46.999 "/>
<polygon fill="#BEC3CF" points="50,52.999 33,53.999 33,52.999 50,51.999 "/>
<path fill="#302C3B" d="M53,49.999c0,4-6,4-6,0S53,45.999,53,49.999z"/>
<path fill="#302C3B" d="M32.999,53.999c-5.33,0-5.33-8,0-8C38.334,45.999,38.334,53.999,32.999,53.999z"/>
<rect x="27" y="56.999" fill="#99A8AE" width="7" height="2"/>
<polygon fill="#6E8189" points="31,56.999 29,56.999 32,49.999 34,49.999 "/>
<path fill="#99A8AE" d="M34,50.003c0,1.33-2,1.33-2,0C32,48.665,34,48.665,34,50.003z"/>
<path fill="#302C3B" d="M45,34.999c-2,1-4-1-8-1c0,0,0-2,2-2c4.123,0,5.434-0.783,7,0C48,33,46.264,34.366,45,34.999z"/>
<path fill="#B88A6F" d="M32.288,39.257c-0.514,2.1,2.369,7.18,0.882,14.344h4.221c-1.109-7.164,0.672-8.637,0.172-13.965
	C37.563,39.636,32.915,36.702,32.288,39.257z"/>
<path fill="#302C3B" d="M37.285,52.819c-2.598,0.979-3.096,0.643-4.049,0.309c-1.236,0.768-5.275,1.592-6.468,2.846
	c-0.172,0.18,0,1.025,0,1.025h11.281C38.049,56.999,38.158,52.491,37.285,52.819z"/>
<path fill="#8E3ED6" d="M46.236,25.462c-4.91-10.569-18.126-13.111-19.691-9.086c-1.053,2.713,3.629,9.174,7.219,7.154
	C34.289,23.234,35.701,25.716,37,27c-1.633,3-3.631,8.873-5.318,12.63c0,0,2.611-0.143,6.318,1.291
	C39.832,35.681,49.064,31.553,46.236,25.462z"/>
<path fill="#FFE463" d="M36.301,40.345l-1.965-0.477c0.945-4.285,3.246-6.83,5.096-8.875c1.629-1.799,2.537-2.881,2.303-4.207
	c-0.564-3.188-4.67-6.254-11.56-8.637l0.654-1.891c5.38,1.861,11.982,5.137,12.875,10.178c0.418,2.355-1.068,3.998-2.787,5.898
	C39.137,34.302,37.131,36.579,36.301,40.345z"/>
<path fill="#B88A6F" d="M27.161,23.109c0.156,0.887,0.287,1.654,0.34,2.191c-3.188,1.656-3.997,2.463-6.983,0.699
	c-2-1.182-5.875-1.275-5.051,2.797c0.354,1.748,2.559-2.938,3.402-1.314c1.332,2.563,1.801,2.018,3.693,1.918
	c4.491-0.236,9.12-0.4,8.946-2.123c-0.105-1.043,0.213-2.047,0.17-3.48L27.161,23.109z"/>
<path fill="#8E3ED6" d="M31.454,17.666c-0.531-3.928-5.321-3.313-5.084-0.086c0.135,1.855,0.333,4.775,0.62,6.404l4.992,0.174
	C31.917,21.992,31.721,19.648,31.454,17.666z"/>
<path fill="#302C3B" d="M20,28.005c0,2.658-4,2.658-4,0C16,25.332,20,25.332,20,28.005z"/>
<path fill="#99A8AE" d="M19,28.001c0,1.33-2,1.33-2,0C17,26.666,19,26.666,19,28.001z"/>
</svg>
