<?xml version="1.0" encoding="utf-8"?>
<!-- Generator: Adobe Illustrator 15.0.0, SVG Export Plug-In . SVG Version: 6.00 Build 0)  -->
<!DOCTYPE svg PUBLIC "-//W3C//DTD SVG 1.1//EN" "http://www.w3.org/Graphics/SVG/1.1/DTD/svg11.dtd" [
	<!ENTITY ns_flows "http://ns.adobe.com/Flows/1.0/">
	<!ENTITY ns_extend "http://ns.adobe.com/Extensibility/1.0/">
	<!ENTITY ns_ai "http://ns.adobe.com/AdobeIllustrator/10.0/">
	<!ENTITY ns_graphs "http://ns.adobe.com/Graphs/1.0/">
]>
<svg version="1.1" id="Layer_1" xmlns:x="&ns_extend;" xmlns:i="&ns_ai;" xmlns:graph="&ns_graphs;"
	 xmlns="http://www.w3.org/2000/svg" xmlns:xlink="http://www.w3.org/1999/xlink" xmlns:a="http://ns.adobe.com/AdobeSVGViewerExtensions/3.0/"
	 x="0px" y="0px" width="64px" height="64px" viewBox="0 0 64 64" enable-background="new 0 0 64 64" xml:space="preserve">
<path fill="#6E8189" d="M16.379,55.635c0,0-0.598,0.073-0.293,0.34C19.965,59.368,25.034,62,25.034,62
	c0.293-0.112,0.289-0.443,0.289-0.443L16.379,55.635z"/>
<path fill="#99A8AE" d="M24.379,56.982c-4.373-1.709-7.33-2.521-8-1.348c4.912,3.921,8.943,5.922,8.943,5.922
	C27.42,59.691,26.213,58.066,24.379,56.982z"/>
<path fill="#1A1626" d="M19.696,55.397c0.387,1.219,0.861,1.662,1.217,1.143c0.334,0.681,0.809,0.526,0.984,0.199
	c0.447,0.566,0.934,0.155,0.555-0.794C22.221,55.428,19.592,55.068,19.696,55.397z"/>
<path fill="#6E8189" d="M40.086,61.557c0,0-0.234,0.308,0.088,0.443C44.25,61.696,48,54.586,48,54.586
	c0-0.283-0.264-0.453-0.264-0.453L40.086,61.557z"/>
<path fill="#99A8AE" d="M43.609,54.712c-3.217,4.313-3.801,5.808-3.523,6.845c3.916-0.407,7.65-7.424,7.65-7.424
	C45.764,50.884,44.178,53.95,43.609,54.712z"/>
<path fill="#1A1626" d="M40.943,58.541c1.266-0.021,1.832-0.351,1.449-0.846c0.748-0.125,0.746-0.629,0.49-0.896
	c0.672-0.267,0.432-0.855-0.576-0.764C41.746,56.109,40.602,58.548,40.943,58.541z"/>
<path fill="#DBA97F" d="M30.75,16.241c1.551-0.707,0.664,2.195,0.662,2.558c0,0,2.232-2.036,5.425-2.188c0,0-0.383-1.32-0.588-3.463
	C36.4,7.24,30.75,16.241,30.75,16.241z"/>
<path fill="#FCD5B2" d="M27.301,6.114C26.975,6.97,27.014,7.684,27.2,8.481c0.293,1.229-0.252,1.86-1.156,2.747
	c-0.861,0.841,0.137,1.523,1.08,1.477c0.197,0.277,0.141,0.732,0.141,0.732s0.721,0.545,0.146,1.591
	c0.764,0.715-0.539,2.052,1.322,2.046c1.816-0.006,4.184-1.461,4.583-1.876c0.635-0.657,0.807-2.635,0.807-2.635
	c0.771,1.046,2.695-0.869,2.701-3.114C36.834,5.727,33.648,0.745,27.301,6.114z"/>
<path fill="#DBA97F" d="M34.104,10.176c-0.035-0.889,0.658-1.69,1.385-1.722c0,0-1.205,1.107-0.834,2.522
	C34.654,10.977,34.125,10.795,34.104,10.176z"/>
<path fill="#F5F5F5" d="M30.329,9.944c-0.486,0.532-1.66,0.807-2.047,0.716C27.422,7.803,29.745,8.734,30.329,9.944z"/>
<path fill="#45332C" d="M28.327,10.669c1.109-0.003,0.578-3.003-0.223-1.404C28.053,9.547,28.102,10.67,28.327,10.669z"/>
<path fill="#DBA97F" d="M30.329,9.944c-0.27-1.116-2.158-1.972-2.225-0.68C28.426,8.575,29.766,9.062,30.329,9.944z"/>
<path fill="#F5F5F5" d="M28.44,9.306c-0.002,0.273,0.391,0.272,0.393-0.001C28.833,9.052,28.44,9.052,28.44,9.306z"/>
<path fill="#CC9D76" d="M30.477,8.054c-0.77-0.568-2.248-0.594-2.799-0.192c-0.121,0.076-0.043,0.619,0.055,0.566
	c0.771-0.427,2.008-0.439,2.727,0.029C30.553,8.517,30.594,8.134,30.477,8.054z"/>
<path fill="#CC9D76" d="M27.295,13.839c0.352,0.228,0.074,0.601,0.074,0.601c-0.17,0-0.211,0.59,0.041,0.589
	c1.256-0.004,1.732-0.828,2.072-1.291C28.104,13.667,26.727,12.975,27.295,13.839z"/>
<path fill="#FFFFFF" d="M27.295,13.839c0,0,0.012,0.522,0.074,0.601c0.275,0,1.295-0.225,1.848-0.607L27.295,13.839z"/>
<path fill="#3A2C29" d="M38.643,4.447C37.828,2.959,36.123,1.992,33.127,2c-2.757,0.007-4.425,0.932-5.144,0.58
	c0,0-0.148,0.461,0.033,0.852c-0.383,0.02-0.609-0.233-0.609-0.229c-0.268,0.435-0.729,1.566-0.105,2.912
	c4.367-1.649,4.621-0.108,5.617,1.117c0.228,0.284-0.492,1.555,0.65,2.836c0.248-2.852,3.586-2.594,3.195-0.127
	c-0.25,1.581-0.955,2.248-1.34,2.611c0.633,0.194,0.861,0.938,0.861,0.938C39.398,13.481,40.57,5.923,38.643,4.447z"/>
<path fill="#DBA97F" d="M27.94,12.208c-0.133,0.391-0.701,0.514-1.039,0.514c-0.457,0.002-0.893-0.22-1.092-0.543
	C25.983,11.786,26.969,12.754,27.94,12.208z"/>
<path fill="#1A1626" d="M37.455,31.767c-8.22-1.227-8.197,2.774-8.197,2.774c1.205,6.003,3.933,13.298,4.921,14.543
	c0.828,1.042,4.754,3.682,7.836,7.32c2.156-1.021,6.002-2.368,4.951-3.396c-3.998-3.91-7.846-7.383-7.846-7.383
	C36.389,41.207,36.244,35.921,37.455,31.767z"/>
<path fill="#302C3B" d="M37.455,31.767c0,0-5.222-2.568-7.162,2.237c-0.664,4.634-4.568,9.126-5.252,10.58
	c-0.746,1.59-1.354,6.999-3.338,10.943c2.234,1.802,4.307,6.086,4.727,4.731c1.865-6.022,4.059-13.423,4.059-13.423
	C36.352,38.709,39.748,39.146,37.455,31.767z"/>
<path fill="#FCD5B2" d="M29.442,25.565c-1.691,2.217-3.09,4.426-4.107,5.239c-0.393,0.315-1.389,1.165-1.744,1.922
	c-0.254,0.545-0.766,2.435,0.076,3.403c0.756,0.872,1.082-2.304,1.906-2.069c-0.531,1.304,0.129,1.869,0.535,1.085
	c0.711-1.372,0.502-1.896,0.463-2.497c-0.031-0.469,1.359-2.125,2.871-3.25V25.565z"/>
<path fill="#7AB51D" d="M37.676,32.205c0,0-3.967,0.167-8.417,2.417c-0.693-6.718-0.354-13.861,2.361-16.969
	c-0.24,2.534,3.029-3.225,5.572-0.643C39.07,22.254,36.391,25.604,37.676,32.205z"/>
<path fill="#FCD5B2" d="M42.207,25.119c-0.166-0.465-1.104-2.159-2.049-3.822c-1.078,0.531-2.139,1.089-3.17,1.681
	c0.924,1.263,1.875,2.603,2.377,3.432c0.164,2.292,0.934,4.581,0.68,7.271c-0.043,0.438-1.154,0.709-1.746,2.928
	c-0.254,0.954,0.77,0.93,1.266-0.57c0.895,0.369-1.168,3.353,0.139,3.121c1.447-0.257,2.582-2.405,2.764-3.055
	c0.16-0.582-0.188-1.79-0.199-2.33C42.203,31.127,42.502,25.938,42.207,25.119z"/>
<path fill="#529320" d="M41.146,22.577c-0.748-1.403-1.803-3.229-3.066-5.201c-1.361-2.124-4.572-0.151-3.469,2.13
	c0.598,1.24,1.553,2.89,3.07,5.098C38.758,23.837,39.924,23.155,41.146,22.577z"/>
</svg>
