<?xml version="1.0" encoding="utf-8"?>
<!-- Generator: Adobe Illustrator 15.0.0, SVG Export Plug-In . SVG Version: 6.00 Build 0)  -->
<!DOCTYPE svg PUBLIC "-//W3C//DTD SVG 1.1//EN" "http://www.w3.org/Graphics/SVG/1.1/DTD/svg11.dtd" [
	<!ENTITY ns_flows "http://ns.adobe.com/Flows/1.0/">
	<!ENTITY ns_extend "http://ns.adobe.com/Extensibility/1.0/">
	<!ENTITY ns_ai "http://ns.adobe.com/AdobeIllustrator/10.0/">
	<!ENTITY ns_graphs "http://ns.adobe.com/Graphs/1.0/">
]>
<svg version="1.1" id="Layer_1" xmlns:x="&ns_extend;" xmlns:i="&ns_ai;" xmlns:graph="&ns_graphs;"
	 xmlns="http://www.w3.org/2000/svg" xmlns:xlink="http://www.w3.org/1999/xlink" xmlns:a="http://ns.adobe.com/AdobeSVGViewerExtensions/3.0/"
	 x="0px" y="0px" width="64px" height="64px" viewBox="0 0 64 64" enable-background="new 0 0 64 64" xml:space="preserve">
<linearGradient id="SVGID_1_" gradientUnits="userSpaceOnUse" x1="88" y1="-138.0049" x2="88" y2="-82.0088" gradientTransform="matrix(1 0 0 -1 -56 -80)">
	<stop  offset="0" style="stop-color:#697378"/>
	<stop  offset="0.1088" style="stop-color:#727C82"/>
	<stop  offset="0.4414" style="stop-color:#87949A"/>
	<stop  offset="0.7475" style="stop-color:#94A3A9"/>
	<stop  offset="1" style="stop-color:#99A8AE"/>
	<a:midPointStop  offset="0" style="stop-color:#697378"/>
	<a:midPointStop  offset="0.5" style="stop-color:#697378"/>
	<a:midPointStop  offset="0.1088" style="stop-color:#727C82"/>
	<a:midPointStop  offset="0.5" style="stop-color:#727C82"/>
	<a:midPointStop  offset="0.4414" style="stop-color:#87949A"/>
	<a:midPointStop  offset="0.5" style="stop-color:#87949A"/>
	<a:midPointStop  offset="0.7475" style="stop-color:#94A3A9"/>
	<a:midPointStop  offset="0.5" style="stop-color:#94A3A9"/>
	<a:midPointStop  offset="1" style="stop-color:#99A8AE"/>
</linearGradient>
<path fill="url(#SVGID_1_)" d="M45.691,2.009c-0.357-0.055-6.85,23.744-15.435,21.503L13,14.837c0,0,0.266,12.152-11,18.154v25.014
	h60V27.234C50.266,13.961,52.723,3.105,45.691,2.009z"/>
<path fill="#CFD8DD" d="M30.258,23.512C40.344,20.417,43.891,0.563,45.852,2.083c0.957,0.742,5.113,15.415,0.848,12.205
	c-6.561-4.937,1.941,5.246,2.004,10.894c0.039,3.571-13.656-10.468-4.607,13.812L30.258,23.512z"/>
<polygon fill="#CFD8DD" points="56.682,28.589 51.4,18.406 52.906,25.68 "/>
<polygon fill="#CFD8DD" points="51.809,40.495 51.1,33.802 47.207,30.008 "/>
<path fill="#CFD8DD" d="M2,30.455c0,0,8.621-4.355,10.906-15.54c0.188-0.926,3.074,5.576,4.5,12.379
	c0.621,2.972-4.314-3.231-4.313,1.095c0.002,6.528-5.187,14.098-5.187,14.098C10.748,25.111,2,43.989,2,43.989V30.455z"/>
<linearGradient id="SVGID_2_" gradientUnits="userSpaceOnUse" x1="88" y1="-142" x2="88" y2="-126.7158" gradientTransform="matrix(1 0 0 -1 -56 -80)">
	<stop  offset="0" style="stop-color:#916958"/>
	<stop  offset="0.21" style="stop-color:#8B6454"/>
	<stop  offset="0.4866" style="stop-color:#7B5748"/>
	<stop  offset="0.799" style="stop-color:#5F4034"/>
	<stop  offset="1" style="stop-color:#4A2F24"/>
	<a:midPointStop  offset="0" style="stop-color:#916958"/>
	<a:midPointStop  offset="0.5" style="stop-color:#916958"/>
	<a:midPointStop  offset="0.21" style="stop-color:#8B6454"/>
	<a:midPointStop  offset="0.5" style="stop-color:#8B6454"/>
	<a:midPointStop  offset="0.4866" style="stop-color:#7B5748"/>
	<a:midPointStop  offset="0.5" style="stop-color:#7B5748"/>
	<a:midPointStop  offset="0.799" style="stop-color:#5F4034"/>
	<a:midPointStop  offset="0.5" style="stop-color:#5F4034"/>
	<a:midPointStop  offset="1" style="stop-color:#4A2F24"/>
</linearGradient>
<path fill="url(#SVGID_2_)" d="M62,46.716c-36.494,2.329-42.457,8.853-60,9.65V62h60V46.716z"/>
<path fill="#946346" d="M24.875,22.595c1.334-1.204,2.729,0.552,2.84,0.906c0,0,3.215-1.94,2.471-4.101
	C25.752,14.706,24.875,22.595,24.875,22.595z"/>
<path fill="#B88A6F" d="M17.998,15.014c-0.01,0.892,0.266,1.529,0.701,2.196c0.68,1.024,0.396,1.784-0.131,2.897
	c-0.504,1.058,0.637,1.345,1.482,0.985c0.273,0.188,0.373,0.62,0.373,0.62s0.842,0.256,0.67,1.405
	c0.938,0.396,0.195,2.055,1.895,1.424c1.658-0.616,3.33-2.741,3.557-3.255c0.359-0.813-0.148-2.678-0.148-2.678
	c1.057,0.697,2.168-1.698,1.418-3.75C26.572,11.455,21.99,7.977,17.998,15.014z"/>
<path fill="#946346" d="M25.574,16.438c-0.33-0.799,0.033-1.767,0.686-2.039c0,0-0.727,1.418,0.088,2.584
	C26.348,16.982,25.803,16.995,25.574,16.438z"/>
<path fill="#F5F5F5" d="M22.051,17.494c-0.266,0.648-1.246,1.294-1.631,1.342C18.676,16.516,21.109,16.586,22.051,17.494z"/>
<path fill="#45332C" d="M20.465,18.828c1.012-0.375-0.48-2.936-0.674-1.207C19.838,17.896,20.26,18.905,20.465,18.828z"/>
<path fill="#946346" d="M22.051,17.494c-0.623-0.93-2.635-1.075-2.26,0.127C19.852,16.883,21.238,16.877,22.051,17.494z"/>
<path fill="#F5F5F5" d="M20.109,17.546c0.09,0.25,0.449,0.116,0.359-0.133C20.383,17.182,20.023,17.314,20.109,17.546z"/>
<path fill="#80553C" d="M21.549,15.718c-0.892-0.261-2.252,0.214-2.619,0.765c-0.086,0.11,0.168,0.58,0.24,0.5
	c0.561-0.648,1.686-1.076,2.5-0.891C21.775,16.115,21.684,15.752,21.549,15.718z"/>
<path fill="#80553C" d="M20.59,22.07c0.396,0.09,0.268,0.522,0.268,0.522c-0.154,0.058,0.008,0.61,0.236,0.525
	c1.145-0.427,1.305-1.339,1.459-1.875C21.27,21.643,19.779,21.473,20.59,22.07z"/>
<path fill="#FFFFFF" d="M20.59,22.07c0,0,0.186,0.475,0.268,0.522c0.25-0.092,1.109-0.64,1.484-1.175L20.59,22.07z"/>
<path fill="#875B49" d="M27.795,9.68c-1.242-1.086-10.826,0.506-9.797,5.334c3.434-2.975,4.182-1.652,5.506-0.869
	c0.305,0.185,0.072,1.586,1.547,2.373c-0.732-2.687,2.403-3.574,2.875-1.19c0.303,1.528-0.117,2.375-0.346,2.837
	c0.643-0.036,1.6,0.337,1.6,0.337C31.583,16.318,30.051,10.379,27.795,9.68z"/>
<path fill="#946346" d="M20.629,20.365c0.01,0.402-0.469,0.705-0.777,0.818c-0.416,0.154-0.889,0.1-1.178-0.129
	C18.699,20.637,19.926,21.189,20.629,20.365z"/>
<path fill="#302C3B" d="M28.779,13.497c0,0-0.995-0.228-0.969,0.015c0.114,1.008-0.485,3.441-0.485,3.441s-2.686-1.28-3.886-3.902
	c-0.102-0.224-0.774,0.33-0.799,0.574c-0.146,1.48,4.336,4.445,4.336,4.445s-1.162,4.021-2.154,5.27
	C28.303,22.07,28.779,13.497,28.779,13.497z"/>
<path fill="#302C3B" d="M17.246,13.326c0,0-0.164-0.061-2.068,1.303c0,0,2.945,1.701,7.502-0.128L17.246,13.326z"/>
<path fill="#E81C27" d="M33.211,10.135c-14.65-6.263-15.965,3.191-15.965,3.191c10.579,3.641,15.771-0.313,15.771-0.313
	l-1.472-0.568C31.545,12.445,32.887,11.376,33.211,10.135z"/>
<path fill="#B00505" d="M18.93,12.773c1.58-3.182,4.143-4.33,6.846-3.631C21.166,10.459,18.93,12.773,18.93,12.773z"/>
<path fill="#B00505" d="M21.182,12.1c2.486-1.762,4.336-2.224,8.416-1.972C26.121,12.509,21.182,12.1,21.182,12.1z"/>
<path fill="#B00505" d="M20.877,13.086c2.158-0.748,5.182-1.031,7.381-0.462C25.338,14.396,20.877,13.086,20.877,13.086z"/>
<path fill="#946346" d="M28.762,33.833c-0.775,3.343,1.955,3,5.433,8.831l1.676-2.539c-2.285-2.393-1.129-2.945-2.654-5.82
	L28.762,33.833z"/>
<path fill="#529320" d="M38.635,34.355l-2.301-4.698c-2.266,1.3-5.861,2.128-7.757,4.032c0,0,1.463,1.471,5.48,2.795
	C35.746,35.811,38.635,34.355,38.635,34.355z"/>
<path fill="#302C3B" d="M22.467,30.523c-0.621-0.291-2.6-0.865-2.6-0.865v1.732l1.633,0.408l-0.766,3.059l1.732,0.867l0.867-3.467
	C23.334,32.257,24.69,31.564,22.467,30.523z"/>
<path fill="#99A8AE" d="M16.4,40.057c-5.266,0-9.533,4.268-9.533,9.533s4.268,9.533,9.533,9.533c5.264,0,9.533-4.268,9.533-9.533
	S21.664,40.057,16.4,40.057z M16.4,57.391c-4.309,0-7.799-3.492-7.799-7.801c0-4.308,3.49-7.8,7.799-7.8s7.801,3.492,7.801,7.8
	C24.201,53.898,20.709,57.391,16.4,57.391z"/>
<path fill="#99A8AE" d="M47.602,40.057c-5.268,0-9.535,4.268-9.535,9.533s4.268,9.533,9.535,9.533c5.264,0,9.533-4.268,9.533-9.533
	S52.865,40.057,47.602,40.057z M47.602,57.391c-4.309,0-7.801-3.492-7.801-7.801c0-4.308,3.492-7.8,7.801-7.8
	c4.307,0,7.799,3.492,7.799,7.8C55.4,53.898,51.908,57.391,47.602,57.391z"/>
<path fill="#302C3B" d="M16.4,39.191c-5.742,0-10.4,4.656-10.4,10.399s4.658,10.4,10.4,10.4c5.744,0,10.399-4.657,10.399-10.4
	C26.801,43.848,22.145,39.191,16.4,39.191z M16.4,58.257c-4.787,0-8.666-3.879-8.666-8.667s3.879-8.667,8.666-8.667
	s8.666,3.879,8.666,8.667S21.188,58.257,16.4,58.257z"/>
<path fill="#302C3B" d="M47.602,39.191c-5.744,0-10.4,4.656-10.4,10.399s4.656,10.4,10.4,10.4c5.742,0,10.398-4.657,10.398-10.4
	S53.344,39.191,47.602,39.191z M47.602,58.257c-4.787,0-8.668-3.879-8.668-8.667s3.881-8.667,8.668-8.667
	c4.785,0,8.666,3.879,8.666,8.667S52.387,58.257,47.602,58.257z"/>
<path fill="#0FB4D4" d="M48.172,48.926L39.387,38.49l1.189-2.379c0.213-0.428-1.338-1.203-1.551-0.774l-1.143,2.282L20.99,33.833
	l-5.406,15.47c-0.344,0.973,1.32,1.459,1.635,0.577l4.666-13.225l10.293,13.462c0.008,0.01,0.021,0.014,0.027,0.021
	c0.073,0.092,0.537,0.318,0.662,0.318h14.734c0.004,0,0.012,0,0.016,0C48.096,50.457,48.363,49.084,48.172,48.926z M37.086,39.216
	l-4.375,8.746l-8.976-11.739L37.086,39.216z M34.27,48.725l4.273-8.545l7.193,8.545H34.27z"/>
<path fill="#302C3B" d="M18.135,49.591c0,2.312-3.467,2.312-3.467,0S18.135,47.279,18.135,49.591z"/>
<polygon fill="#BEC3CF" points="47.602,47.857 32.866,46.991 32.866,46.124 47.602,46.991 "/>
<polygon fill="#BEC3CF" points="47.602,52.191 32.868,53.057 32.868,52.191 47.602,51.324 "/>
<path fill="#302C3B" d="M50.201,49.591c0,3.468-5.201,3.468-5.201,0C45,46.124,50.201,46.124,50.201,49.591z"/>
<path fill="#302C3B" d="M32.866,53.057c-4.619,0-4.619-6.934,0-6.934C37.49,46.124,37.49,53.057,32.866,53.057z"/>
<rect x="27.668" y="55.658" fill="#99A8AE" width="6.066" height="1.732"/>
<polygon fill="#6E8189" points="31.135,55.658 29.4,55.658 32,49.591 33.734,49.591 "/>
<path fill="#99A8AE" d="M33.734,49.594c0,1.153-1.734,1.153-1.734,0C32,48.434,33.734,48.434,33.734,49.594z"/>
<path fill="#302C3B" d="M43.268,36.591c-1.734,0.867-3.467-0.866-6.934-0.866c0,0,0-1.733,1.732-1.733c3.574,0,4.711-0.679,6.066,0
	C45.867,34.857,44.363,36.042,43.268,36.591z"/>
<path fill="#B88A6F" d="M32.25,40.281c-0.445,1.82,2.052,6.223,0.763,12.432h3.658c-0.961-6.209,0.582-7.484,0.15-12.104
	C36.822,40.609,32.793,38.066,32.25,40.281z"/>
<path fill="#302C3B" d="M36.582,52.035c-2.252,0.848-2.684,0.557-3.51,0.267C32,52.968,28.5,53.682,27.467,54.77
	c-0.15,0.154,0,0.889,0,0.889h9.775C37.242,55.658,37.338,51.75,36.582,52.035z"/>
<path fill="#7AB51D" d="M44.338,28.325c-4.254-9.16-15.708-11.363-17.064-7.874c-0.912,2.352,5.387,4.652,9.06,9.207
	c-1.416,2.6-3.145,7.689-4.608,10.945c0,0,2.264-0.123,5.477,1.119C38.789,37.182,46.791,33.604,44.338,28.325z"/>
<path fill="#89CC14" d="M35.729,41.223l-1.703-0.412c0.818-3.713,2.813-5.92,4.416-7.691c1.412-1.559,2.199-2.497,1.996-3.646
	c-0.49-2.763-4.047-5.42-10.019-7.484l0.565-1.639c4.665,1.612,10.385,4.451,11.159,8.82c0.361,2.042-0.928,3.465-2.414,5.112
	C38.186,35.986,36.447,37.96,35.729,41.223z"/>
<path fill="#B88A6F" d="M27.807,26.286c0.135,0.769,0.248,1.434,0.295,1.899c-2.764,1.435-3.465,2.133-6.053,0.605
	c-1.732-1.023-5.092-1.105-4.377,2.424c0.307,1.516,2.217-2.546,2.949-1.139c1.154,2.221,1.561,1.748,3.201,1.662
	c3.892-0.205,7.902-0.348,7.753-1.84c-0.093-0.904,0.184-1.774,0.146-3.018L27.807,26.286z"/>
<path fill="#529320" d="M31.527,21.568c-0.461-3.404-4.61-2.871-4.405-0.074c0.116,1.607,0.287,4.139,0.534,5.55l4.328,0.151
	C31.928,25.316,31.758,23.286,31.527,21.568z"/>
<path fill="#302C3B" d="M21.602,30.529c0,2.304-3.467,2.304-3.467,0C18.135,28.212,21.602,28.212,21.602,30.529z"/>
<path fill="#99A8AE" d="M20.734,30.525c0,1.154-1.734,1.154-1.734,0C19,29.368,20.734,29.368,20.734,30.525z"/>
</svg>
