<?xml version="1.0" encoding="utf-8"?>
<!-- Generator: Adobe Illustrator 15.0.0, SVG Export Plug-In . SVG Version: 6.00 Build 0)  -->
<!DOCTYPE svg PUBLIC "-//W3C//DTD SVG 1.1//EN" "http://www.w3.org/Graphics/SVG/1.1/DTD/svg11.dtd" [
	<!ENTITY ns_flows "http://ns.adobe.com/Flows/1.0/">
	<!ENTITY ns_extend "http://ns.adobe.com/Extensibility/1.0/">
	<!ENTITY ns_ai "http://ns.adobe.com/AdobeIllustrator/10.0/">
	<!ENTITY ns_graphs "http://ns.adobe.com/Graphs/1.0/">
]>
<svg version="1.1" id="Layer_1" xmlns:x="&ns_extend;" xmlns:i="&ns_ai;" xmlns:graph="&ns_graphs;"
	 xmlns="http://www.w3.org/2000/svg" xmlns:xlink="http://www.w3.org/1999/xlink" xmlns:a="http://ns.adobe.com/AdobeSVGViewerExtensions/3.0/"
	 x="0px" y="0px" width="64px" height="64px" viewBox="0 0 64 64" enable-background="new 0 0 64 64" xml:space="preserve">
<linearGradient id="SVGID_1_" gradientUnits="userSpaceOnUse" x1="31.9663" y1="61.9824" x2="31.9663" y2="1.9824" gradientTransform="matrix(1 0 0 1 0.0078 0.0181)">
	<stop  offset="0" style="stop-color:#FFA027"/>
	<stop  offset="0.2723" style="stop-color:#FFC151"/>
	<stop  offset="0.7633" style="stop-color:#FFC93F"/>
	<stop  offset="1" style="stop-color:#FFE261"/>
	<a:midPointStop  offset="0" style="stop-color:#FFA027"/>
	<a:midPointStop  offset="0.5" style="stop-color:#FFA027"/>
	<a:midPointStop  offset="0.2723" style="stop-color:#FFC151"/>
	<a:midPointStop  offset="0.5" style="stop-color:#FFC151"/>
	<a:midPointStop  offset="0.7633" style="stop-color:#FFC93F"/>
	<a:midPointStop  offset="0.5" style="stop-color:#FFC93F"/>
	<a:midPointStop  offset="1" style="stop-color:#FFE261"/>
</linearGradient>
<circle fill="url(#SVGID_1_)" cx="31.974" cy="32" r="30"/>
<radialGradient id="SVGID_2_" cx="14.1626" cy="38.2539" r="10" gradientUnits="userSpaceOnUse">
	<stop  offset="0" style="stop-color:#F18D84"/>
	<stop  offset="0.2514" style="stop-color:#F29180;stop-opacity:0.7486"/>
	<stop  offset="0.5118" style="stop-color:#F49E73;stop-opacity:0.4882"/>
	<stop  offset="0.7755" style="stop-color:#F8B25F;stop-opacity:0.2245"/>
	<stop  offset="1" style="stop-color:#FDCA47;stop-opacity:0"/>
	<a:midPointStop  offset="0" style="stop-color:#F18D84"/>
	<a:midPointStop  offset="0.7" style="stop-color:#F18D84"/>
	<a:midPointStop  offset="1" style="stop-color:#FDCA47;stop-opacity:0"/>
</radialGradient>
<circle fill="url(#SVGID_2_)" cx="14.163" cy="38.254" r="10"/>
<radialGradient id="SVGID_3_" cx="49.7842" cy="38" r="10" gradientUnits="userSpaceOnUse">
	<stop  offset="0" style="stop-color:#F18D84"/>
	<stop  offset="0.2514" style="stop-color:#F29180;stop-opacity:0.7486"/>
	<stop  offset="0.5118" style="stop-color:#F49E73;stop-opacity:0.4882"/>
	<stop  offset="0.7755" style="stop-color:#F8B25F;stop-opacity:0.2245"/>
	<stop  offset="1" style="stop-color:#FDCA47;stop-opacity:0"/>
	<a:midPointStop  offset="0" style="stop-color:#F18D84"/>
	<a:midPointStop  offset="0.7" style="stop-color:#F18D84"/>
	<a:midPointStop  offset="1" style="stop-color:#FDCA47;stop-opacity:0"/>
</radialGradient>
<circle fill="url(#SVGID_3_)" cx="49.784" cy="38" r="10"/>
<path fill="#302C3B" d="M42.804,44.239c-6.916-4.032-16.901-3.704-22.475,1.26c-0.456,0.407-0.113,1.072,0.497,0.819
	c4.943-2.054,14.195-2.014,19.962,1.593C42.997,49.294,45.163,45.614,42.804,44.239z"/>
<path fill="#917524" d="M14.428,20.888c5.242,0.237,11.212-1.972,13.488-4.764c0.477-0.591-0.721-3.061-1.183-2.622
	c-3.562,3.379-8.397,5.719-13.249,5.811C12.834,19.324,13.641,20.854,14.428,20.888z"/>
<path fill="#917524" d="M49.517,20.887c-5.242,0.238-11.209-1.971-13.486-4.764c-0.48-0.588,0.721-3.062,1.184-2.621
	c3.561,3.376,8.396,5.719,13.246,5.81C51.112,19.323,50.306,20.852,49.517,20.887z"/>
<circle fill="#302C3B" cx="21.973" cy="28.5" r="4.5"/>
<circle fill="#302C3B" cx="41.974" cy="28.5" r="4.5"/>
<linearGradient id="SVGID_4_" gradientUnits="userSpaceOnUse" x1="-82.1636" y1="463.167" x2="-74.9917" y2="463.167" gradientTransform="matrix(0.7071 0.7071 -0.6993 0.6993 428.769 -233.2022)">
	<stop  offset="0.4121" style="stop-color:#F2F8FF"/>
	<stop  offset="0.7879" style="stop-color:#DADEE6"/>
	<a:midPointStop  offset="0.4121" style="stop-color:#F2F8FF"/>
	<a:midPointStop  offset="0.5238" style="stop-color:#F2F8FF"/>
	<a:midPointStop  offset="0.7879" style="stop-color:#DADEE6"/>
</linearGradient>
<path fill="url(#SVGID_4_)" d="M41.774,47.739l-6.541-3.602c0,0,14.713-14.711,20.729-20.727c3.15-3.151,8.223,1.92,5.068,5.069
	C55.298,34.214,41.774,47.739,41.774,47.739z"/>
<linearGradient id="SVGID_5_" gradientUnits="userSpaceOnUse" x1="-80.8828" y1="467.0654" x2="-76.2725" y2="467.0654" gradientTransform="matrix(0.7071 0.7071 -0.6993 0.6993 428.769 -233.2022)">
	<stop  offset="0" style="stop-color:#FFADAD"/>
	<stop  offset="0.1394" style="stop-color:#FF2121"/>
	<stop  offset="1" style="stop-color:#D1000B"/>
	<a:midPointStop  offset="0" style="stop-color:#FFADAD"/>
	<a:midPointStop  offset="0.5" style="stop-color:#FFADAD"/>
	<a:midPointStop  offset="0.1394" style="stop-color:#FF2121"/>
	<a:midPointStop  offset="0.5" style="stop-color:#FF2121"/>
	<a:midPointStop  offset="1" style="stop-color:#D1000B"/>
</linearGradient>
<path fill="url(#SVGID_5_)" d="M40.606,47.096l-4.203-2.316c0,0,11.727-11.725,15.594-15.59c2.023-2.028,5.283,1.232,3.256,3.258
	C51.567,36.134,40.606,47.096,40.606,47.096z"/>
<rect x="54.076" y="25.17" transform="matrix(0.7073 0.7069 -0.7069 0.7073 34.3224 -31.4381)" fill="#6E8189" width="2.104" height="1.123"/>
<rect x="50.48" y="28.767" transform="matrix(0.7066 0.7076 -0.7076 0.7066 35.8688 -27.8584)" fill="#6E8189" width="2.103" height="1.121"/>
<rect x="46.882" y="32.365" transform="matrix(0.7073 0.7069 -0.7069 0.7073 37.303 -24.2468)" fill="#6E8189" width="2.104" height="1.123"/>
<rect x="43.284" y="35.964" transform="matrix(0.7059 0.7083 -0.7083 0.7059 38.9063 -20.6606)" fill="#6E8189" width="2.103" height="1.121"/>
<rect x="39.687" y="39.559" transform="matrix(0.7078 0.7064 -0.7064 0.7078 40.2455 -17.0555)" fill="#6E8189" width="2.105" height="1.123"/>
<linearGradient id="SVGID_6_" gradientUnits="userSpaceOnUse" x1="38.7402" y1="45.6895" x2="40.2511" y2="43.757" gradientTransform="matrix(1 0 0 1 0.0078 0.0181)">
	<stop  offset="0" style="stop-color:#302C3B"/>
	<stop  offset="1" style="stop-color:#302C3B;stop-opacity:0"/>
	<a:midPointStop  offset="0" style="stop-color:#302C3B"/>
	<a:midPointStop  offset="0.5" style="stop-color:#302C3B"/>
	<a:midPointStop  offset="1" style="stop-color:#302C3B;stop-opacity:0"/>
</linearGradient>
<path fill="url(#SVGID_6_)" d="M34.661,44.226c4.201-5.501,13-1.438,7.5,3.656C41.028,47.882,37.13,45.439,34.661,44.226z"/>
</svg>
