<?xml version="1.0" encoding="utf-8"?>
<!-- Generator: Adobe Illustrator 19.0.0, SVG Export Plug-In . SVG Version: 6.00 Build 0)  -->
<svg version="1.1" id="Layer_1" xmlns="http://www.w3.org/2000/svg" xmlns:xlink="http://www.w3.org/1999/xlink" x="0px" y="0px"
	 width="64px" height="64px" viewBox="0 0 64 64" enable-background="new 0 0 64 64" xml:space="preserve">
<radialGradient id="SVGID_1_" cx="38.0809" cy="22.4128" r="44.7123" gradientTransform="matrix(4.565983e-011 1.0082 -0.7898 3.515219e-011 45.8809 -17.65)" gradientUnits="userSpaceOnUse">
	<stop  offset="0.4364" style="stop-color:#614A36"/>
	<stop  offset="0.72" style="stop-color:#5F4834"/>
	<stop  offset="0.846" style="stop-color:#58412D"/>
	<stop  offset="0.903" style="stop-color:#523B26"/>
</radialGradient>
<path fill="url(#SVGID_1_)" d="M55.523,31.452c-8.154,0.342-8.775,7.973-11.17,6.193c-0.619-0.459-0.924-3.139-0.975-4.223
	c-0.313-6.608-0.008-15.992-0.234-26.457c-0.131-5.766-8.699-5.551-8.695,0.217c0.002,4.412-0.168,21.609-1.066,25.611
	c-5.42-0.846-11.568-0.412-16.463,0.797c-1.76-5.644-3.844-10.264-5.932-17.453c-1.367-4.699-8.346-2.748-7.08,1.982
	c1.088,4.074,4.176,16.062,3.742,19.221c-0.59,4.262-0.328,10.69,3.65,16.941c3.578,5.641,11.254,7.84,19.316,6.693
	c20.064-2.172,15.244-17.289,28.939-25.629C61.332,34.267,59.584,31.283,55.523,31.452z"/>
<path fill="#452F1B" d="M10.666,54.685c-4.41-6.936-4.25-13.908-3.76-17.447c0.338-2.439-1.693-11.377-3.725-18.922
	c-1.504-5.598,6.793-8.098,8.525-2.387c1.242,4.082,5.023,14.602,5.721,16.77c4.852-1.1,10.594-1.389,15.35-0.75
	c0.775-4.93,0.908-20.609,0.922-24.766C33.72,0.31,43.767,0.312,43.892,6.951c0.092,4.894,0.07,22.934,0.236,26.438
	c0.07,1.539,0.381,3.396,0.697,3.68c1.15,1.025,2.791-6.033,10.666-6.365c4.92-0.246,6.916,3.787,4.453,5.285
	c-13.311,8.105-8.789,23.519-29.248,25.736C26.088,62.378,15.627,62.497,10.666,54.685z M4.63,17.927
	c1.305,4.775,4.211,16.26,3.762,19.516c-0.461,3.336-0.615,9.906,3.539,16.438c4.719,7.43,15.018,6.857,18.58,6.354
	c19.633-2.127,14.69-17.025,28.654-25.527c1.078-0.658-0.512-2.617-3.611-2.504c-7.932,0.332-8.324,8.514-11.646,6.047
	c-1.039-0.77-1.246-4.125-1.277-4.789c-0.166-3.541-0.188-21.6-0.238-26.477c-0.049-4.652-7.178-4.654-7.193,0.197
	c-0.012,3.658-0.029,21.082-1.238,26.465l0,0l0,0c-4.945-0.773-12.512-0.402-17.547,0.842l0,0l0,0
	c-1.959-6.17-4.41-12.074-6.148-18.141C9.175,12.531,3.63,14.267,4.63,17.927z"/>
<path fill="#452F1B" d="M44.109,36.999c-4.16-0.176-11.23,5.943-11.576,13.367c1.121-6.654,8.805-12.121,12.791-11.748
	L44.109,36.999z"/>
<path fill="#452F1B" d="M15.326,29.072c-0.629-7.029,9.486-7.686,10.033-0.676l0.543,7.883c0.627,6.961-9.48,7.586-10.041,0.639
	L15.326,29.072z"/>
<radialGradient id="SVGID_2_" cx="-239.4285" cy="33.6332" r="6.331" gradientTransform="matrix(0.8235 -0.0609 0.0967 1.1382 215.1245 -23.202)" gradientUnits="userSpaceOnUse">
	<stop  offset="0.4545" style="stop-color:#614A36"/>
	<stop  offset="0.7335" style="stop-color:#5C4531"/>
	<stop  offset="1" style="stop-color:#523B26"/>
</radialGradient>
<path fill="url(#SVGID_2_)" d="M16.804,28.923c-0.441-5.051,6.646-5.533,7.098-0.475l0.521,7.953
	c0.449,5.031-6.648,5.486-7.096,0.451L16.804,28.923z"/>
<path fill="#452F1B" d="M24.298,27.726c-0.016-7.055,10.123-6.881,10.061,0.15l0.025,7.906c0.016,6.984-10.109,6.781-10.062-0.186
	L24.298,27.726z"/>
<radialGradient id="SVGID_3_" cx="-236.8812" cy="104.6553" r="6.3395" gradientTransform="matrix(0.8259 0.0068 -0.0029 1.142 226.1538 -89.1106)" gradientUnits="userSpaceOnUse">
	<stop  offset="0.4545" style="stop-color:#614A36"/>
	<stop  offset="0.7335" style="stop-color:#5C4531"/>
	<stop  offset="1" style="stop-color:#523B26"/>
</radialGradient>
<path fill="url(#SVGID_3_)" d="M25.787,27.702c-0.002-5.07,7.105-4.971,7.111,0.104l0.004,7.979
	c0.006,5.047-7.105,4.922-7.113-0.133L25.787,27.702z"/>
</svg>
