<?xml version="1.0" encoding="utf-8"?>
<!-- Generator: Adobe Illustrator 19.0.0, SVG Export Plug-In . SVG Version: 6.00 Build 0)  -->
<svg version="1.1" id="Layer_1" xmlns="http://www.w3.org/2000/svg" xmlns:xlink="http://www.w3.org/1999/xlink" x="0px" y="0px"
	 width="64px" height="64px" viewBox="0 0 64 64" enable-background="new 0 0 64 64" xml:space="preserve">
<radialGradient id="SVGID_1_" cx="2308.0298" cy="24.3676" r="36.4079" gradientTransform="matrix(-0.9776 -0.2539 -0.166 0.653 2297.5715 592.6188)" gradientUnits="userSpaceOnUse">
	<stop  offset="0.4485" style="stop-color:#916B50"/>
	<stop  offset="0.77" style="stop-color:#8F694E"/>
	<stop  offset="0.9245" style="stop-color:#8A6246"/>
	<stop  offset="1" style="stop-color:#855C3F"/>
</radialGradient>
<path fill="url(#SVGID_1_)" d="M6.798,12.468c4.553,0,10.361-0.209,19.111,0.014c19.557,0.502,31.109-2.885,34.098,1.727
	c2.605,4.019,0.238,13.293,0.688,22.572c0.274,5.639-6.049,6.225-6.049,6.225c0.828,3.142-1.529,11.264-8.355,8.783
	c-6.873-2.496-13.643-2.579-16.848-4.923c-2.879-2.105-6.475-6.993-9.016-9.536c-0.436-0.438-9.781-3.855-13.629-3.855
	C1.343,33.474,1.343,12.468,6.798,12.468z"/>
<path fill="#754E31" d="M46.038,52.49c-6.768-2.457-13.617-2.522-17.035-5.022c-3.117-2.278-6.195-6.677-9.037-9.556
	c-0.81-0.531-9.611-3.692-13.164-3.692c-6.402,0-6.402-22.506,0-22.506c1.328,0,16.41-0.055,19.129,0.014
	c20.344,0.523,31.395-3.045,34.709,2.068c2.791,4.306,0.348,13.453,0.807,22.945c0.219,4.514-3.42,6.39-5.928,6.888
	C55.972,47.93,52.807,54.951,46.038,52.49z M25.891,13.228c-2.705-0.068-17.756-0.014-19.09-0.014c-4.461,0-4.461,19.506,0,19.506
	c3.869,0,13.418,3.364,14.16,4.076c1.346,1.289,6.588,7.75,8.928,9.46c2.906,2.126,9.801,2.334,16.66,4.823
	c6.328,2.303,8.377-5.807,7.146-8.744c0.604-0.016,6.506-0.281,6.252-5.521c-0.434-8.982,1.783-18.573-0.57-22.202
	C56.751,10.558,44.366,13.701,25.891,13.228z"/>
<path fill="#754E31" d="M41.167,24.339c3.207,1.305,8.162,3.055,11.398,0.451c-3.322,3.912-0.629,6.121-0.588,9.205
	c-1.387-3.381-2.699-4.01-2.994-4.084c-0.58-0.148-2.072,2.296-2.072,2.296c-0.023-2.953,2.121-3.336,2.08-3.974
	c-0.029-0.445-3.574-0.053-7.023-1.361c-0.729-0.275-1.104,13.357,12.355,15.184c1.254,0.166,0.897,1.648-0.58,1.648
	C37.089,40.603,39.565,23.687,41.167,24.339z"/>
</svg>
