<?xml version="1.0" encoding="utf-8"?>
<!-- Generator: Adobe Illustrator 19.0.0, SVG Export Plug-In . SVG Version: 6.00 Build 0)  -->
<svg version="1.1" id="Layer_1" xmlns="http://www.w3.org/2000/svg" xmlns:xlink="http://www.w3.org/1999/xlink" x="0px" y="0px"
	 width="64px" height="64px" viewBox="0 0 64 64" enable-background="new 0 0 64 64" xml:space="preserve">
<radialGradient id="SVGID_1_" cx="32.7739" cy="24.3676" r="36.4078" gradientTransform="matrix(0.9776 -0.2539 0.166 0.653 -9.1966 14.9613)" gradientUnits="userSpaceOnUse">
	<stop  offset="0.4485" style="stop-color:#916B50"/>
	<stop  offset="0.77" style="stop-color:#8F694E"/>
	<stop  offset="0.9245" style="stop-color:#8A6246"/>
	<stop  offset="1" style="stop-color:#855C3F"/>
</radialGradient>
<path fill="url(#SVGID_1_)" d="M57.2,12.468c-4.553,0-10.36-0.209-19.109,0.014C18.535,12.984,6.982,9.597,3.994,14.209
	c-2.605,4.02-0.24,13.293-0.688,22.572c-0.275,5.639,6.049,6.225,6.049,6.225c-0.83,3.143,1.529,11.264,8.353,8.783
	c6.875-2.496,13.645-2.578,16.848-4.922c2.881-2.105,6.477-6.994,9.016-9.537c0.436-0.438,9.781-3.856,13.628-3.856
	C62.657,33.474,62.657,12.468,57.2,12.468z"/>
<path fill="#754E31" d="M8.48,43.63c-2.506-0.498-6.146-2.375-5.928-6.889C3.013,27.25,0.57,18.103,3.361,13.796
	c3.313-5.113,14.363-1.545,34.707-2.068c2.721-0.068,17.802-0.014,19.13-0.014c6.402,0,6.402,22.506,0,22.506
	c-3.553,0-12.353,3.16-13.164,3.691c-2.842,2.879-5.92,7.277-9.039,9.557c-3.418,2.5-10.266,2.564-17.033,5.021
	C11.193,54.951,8.029,47.931,8.48,43.63z M4.621,14.613c-2.353,3.629-0.135,13.219-0.568,22.201
	c-0.256,5.24,5.647,5.506,6.252,5.521c-1.231,2.938,0.816,11.047,7.146,8.744c6.859-2.488,13.752-2.697,16.66-4.822
	c2.34-1.711,7.582-8.172,8.928-9.461c0.742-0.711,10.291-4.076,14.16-4.076c4.459,0,4.459-19.506,0-19.506
	c-1.334,0-16.384-0.055-19.091,0.014C19.632,13.701,7.248,10.558,4.621,14.613z"/>
<path fill="#754E31" d="M22.832,24.339c-3.207,1.305-8.16,3.055-11.398,0.451c3.324,3.912,0.631,6.121,0.588,9.205
	c1.389-3.381,2.701-4.01,2.994-4.084c0.582-0.146,2.074,2.297,2.074,2.297c0.021-2.953-2.123-3.336-2.08-3.975
	c0.029-0.445,3.574-0.053,7.023-1.361c0.727-0.275,1.102,13.357-12.356,15.184c-1.254,0.166-0.898,1.648,0.58,1.648
	C26.912,40.603,24.433,23.687,22.832,24.339z"/>
</svg>
