<?xml version="1.0" encoding="utf-8"?>
<!-- Generator: Adobe Illustrator 15.0.0, SVG Export Plug-In . SVG Version: 6.00 Build 0)  -->
<!DOCTYPE svg PUBLIC "-//W3C//DTD SVG 1.1//EN" "http://www.w3.org/Graphics/SVG/1.1/DTD/svg11.dtd" [
	<!ENTITY ns_flows "http://ns.adobe.com/Flows/1.0/">
	<!ENTITY ns_extend "http://ns.adobe.com/Extensibility/1.0/">
	<!ENTITY ns_ai "http://ns.adobe.com/AdobeIllustrator/10.0/">
	<!ENTITY ns_graphs "http://ns.adobe.com/Graphs/1.0/">
]>
<svg version="1.1" id="Layer_1" xmlns:x="&ns_extend;" xmlns:i="&ns_ai;" xmlns:graph="&ns_graphs;"
	 xmlns="http://www.w3.org/2000/svg" xmlns:xlink="http://www.w3.org/1999/xlink" xmlns:a="http://ns.adobe.com/AdobeSVGViewerExtensions/3.0/"
	 x="0px" y="0px" width="64px" height="64px" viewBox="0 0 64 64" enable-background="new 0 0 64 64" xml:space="preserve">
<linearGradient id="SVGID_1_" gradientUnits="userSpaceOnUse" x1="32.0005" y1="62" x2="32.0005" y2="2.0005">
	<stop  offset="0" style="stop-color:#FFA027"/>
	<stop  offset="0.2723" style="stop-color:#FFC151"/>
	<stop  offset="0.7633" style="stop-color:#FFC93F"/>
	<stop  offset="1" style="stop-color:#FFE261"/>
	<a:midPointStop  offset="0" style="stop-color:#FFA027"/>
	<a:midPointStop  offset="0.5" style="stop-color:#FFA027"/>
	<a:midPointStop  offset="0.2723" style="stop-color:#FFC151"/>
	<a:midPointStop  offset="0.5" style="stop-color:#FFC151"/>
	<a:midPointStop  offset="0.7633" style="stop-color:#FFC93F"/>
	<a:midPointStop  offset="0.5" style="stop-color:#FFC93F"/>
	<a:midPointStop  offset="1" style="stop-color:#FFE261"/>
</linearGradient>
<circle fill="url(#SVGID_1_)" cx="32" cy="32" r="30"/>
<path fill="#302C3B" d="M20.501,15.929c2.365,0,4.285,1.918,4.285,4.285c0,2.366-1.92,4.286-4.285,4.286
	c-2.371,0-4.286-1.92-4.286-4.286C16.215,17.847,18.13,15.929,20.501,15.929z"/>
<circle fill="#302C3B" cx="40.285" cy="22.356" r="4.286"/>
<path fill="#917524" d="M48.498,14.046c-4.182-1.74-9.674-1.711-12.346-0.117c-0.563,0.337-0.32,2.695,0.186,2.478
	c3.885-1.689,8.5-2.161,12.461-0.805C49.33,15.784,49.127,14.306,48.498,14.046z"/>
<path fill="#917524" d="M13.975,9.239c4.318-1.37,9.788-0.861,12.31,0.959c0.533,0.384,0.083,2.715-0.4,2.449
	c-3.724-2.021-8.278-2.894-12.342-1.886C12.995,10.898,13.326,9.443,13.975,9.239z"/>
<path fill="#302C3B" d="M38.736,37.078c-5.363-4.482-14.008-5.661-19.534-2.205c-0.453,0.284-0.254,0.906,0.308,0.779
	c4.556-1.045,12.515,0.344,16.953,4.293C38.162,41.458,40.564,38.607,38.736,37.078z"/>
<path fill="#FFFFFF" d="M20.818,60.227c-10.27,2.361-14.777-7.09-11.753-15.5c1.083-3.008-1.761-7.483,1.224-9.232
	c3.069-1.797,5.943,0.895,6.045,6.761c2.729-0.616,6.432-2.922,8.78-2.76c1.283,0.09,5.766,2.11,7.239,2.219
	c5.073,0.37,4.901,6.86-1.625,6.166c0.104,0.988-0.303,2.754-1.25,3.777c0.414,1.147,0.474,2.847-0.961,4.373
	C29.077,60.012,24.171,62.364,20.818,60.227z"/>
<path fill="#99A8AE" d="M20.585,61.08C9.603,63.675,5.308,52.982,8.187,45.041c1.192-3.291-1.969-8.411,1.224-10.332
	c3.282-1.977,7.362,0.16,7.47,6.605c2.919-0.681,6.111-2.992,8.622-2.814c1.374,0.1,6.176,2.439,7.753,2.559
	c5.424,0.405,4.998,8.053-1.981,7.291c0.109,1.086-0.09,2.387-1.104,3.51c0.441,1.263,0.504,3.127-1.027,4.806
	C29.742,61.037,24.173,63.428,20.585,61.08z M22.619,58.051L21.4,59.436c5.018,2.479,8.533-3.345,3.227-5.473
	c1.497,0.072,2.582,0.694,3.106,1.146c1.555-2.39,1.386-3.941-1.696-6.021c2.104,0.479,2.877,1.514,2.877,1.514
	c1.521-3.02,0.637-4.285-2.163-5.862c2.083,0.144,3.387,1.351,4.641,1.673c3.154,0.813,4.518-3.417,1.888-3.607
	c-3.24-0.236-6.341-2.423-8.247-2.254c-2.72,0.241-4.31,1.967-10.262,3.756c0.28-5.836-1.214-8.824-3.829-7.939
	c-2.264,0.765,0.541,4.238-0.861,8.828C6.937,55.484,14.183,62.328,22.619,58.051z"/>
</svg>
