<?xml version="1.0" encoding="utf-8"?>
<!-- Generator: Adobe Illustrator 19.0.0, SVG Export Plug-In . SVG Version: 6.00 Build 0)  -->
<svg version="1.1" id="Layer_1" xmlns="http://www.w3.org/2000/svg" xmlns:xlink="http://www.w3.org/1999/xlink" x="0px" y="0px"
	 width="64px" height="64px" viewBox="0 0 64 64" enable-background="new 0 0 64 64" xml:space="preserve">
<path fill="#916B50" d="M34.605,30.669c-2.332-5.664-4.453-13.887-8.649-24.543c-2.299-5.853-10.389-3.463-8.279,2.457
	c3.582,10.041,6.477,18.084,7.537,22.086H34.605z"/>
<path fill="#754E31" d="M25.981,30.669c-0.787-3.094-7.598-22.338-7.598-22.338c-1.686-4.738,4.848-7.092,6.873-1.93
	c2.297,5.828,7.519,21.736,8.547,24.268h1.611c-1.084-2.586-6.369-18.98-8.762-24.816c-2.801-6.844-12.086-3.768-9.682,2.982
	c0,0,6.404,17.951,7.475,21.834H25.981z"/>
<radialGradient id="SVGID_1_" cx="50.5811" cy="29.36" r="26.3571" gradientTransform="matrix(1.0236 0 0 1.4056 -23.4053 -14.2862)" gradientUnits="userSpaceOnUse">
	<stop  offset="0.4364" style="stop-color:#916B50"/>
	<stop  offset="0.7158" style="stop-color:#90694E"/>
	<stop  offset="0.8399" style="stop-color:#8A6347"/>
	<stop  offset="0.903" style="stop-color:#855C3F"/>
</radialGradient>
<path fill="url(#SVGID_1_)" d="M48.511,35.442l-23.379-3.481c1.824-5.426,4.598-12.295,7.269-21.271
	c1.789-6.01-6.217-8.627-8.209-2.668c-4.777,14.324-9.674,26.264-10.619,30.197C7.212,64.618,39.433,65.833,47.411,54.262
	C51.626,48.155,48.511,35.442,48.511,35.442z"/>
<path fill="#754E31" d="M12.847,38.044c0.664-2.766,8.502-23.865,10.635-30.26c2.354-7.037,11.645-3.68,9.637,3.121
	c-2.078,7.037-6.451,18.893-6.986,20.447l22.988,3.422l0,0c0.145,0.594,3.416,13.381-1.092,19.914
	C39.521,67.026,6.308,65.18,12.847,38.044z M24.903,8.26c-2.383,7.146-10.137,28.203-10.6,30.135
	c-6.18,25.641,25.01,26.289,32.49,15.441c3.521-5.104,1.602-15.373,1.098-17.729l-23.756-3.535c0,0,5.762-16.105,7.545-22.096
	C33.183,5.438,26.587,3.223,24.903,8.26z"/>
<path fill="#754E31" d="M28.524,35.419l1.674-0.193c3.75,2.309,6.33,11.195,1.74,17.668C35.351,46.612,32.247,37.454,28.524,35.419z
	"/>
<radialGradient id="SVGID_2_" cx="807.2465" cy="-1224.0872" r="7.7821" gradientTransform="matrix(0.149 -0.8767 0.6543 0.1008 728.0272 864.7679)" gradientUnits="userSpaceOnUse">
	<stop  offset="0.4545" style="stop-color:#916B50"/>
	<stop  offset="0.724" style="stop-color:#8D674B"/>
	<stop  offset="1" style="stop-color:#855C3F"/>
</radialGradient>
<path fill="url(#SVGID_2_)" d="M51.239,31.217c0.084,2.115-0.346,6.215-0.938,7.857c-0.449,1.246-1.318,2.541-1.98,2.998
	c-1.803,1.244-6.521,0.857-5.793-3.279c0.547-3.098,1.068-6.074,1.643-9.328C44.819,25.786,51.116,27.85,51.239,31.217z"/>
<radialGradient id="SVGID_3_" cx="807.8029" cy="-1232.1665" r="9.3829" gradientTransform="matrix(0.149 -0.8767 0.6543 0.1008 725.173 864.2905)" gradientUnits="userSpaceOnUse">
	<stop  offset="0.4545" style="stop-color:#916B50"/>
	<stop  offset="0.724" style="stop-color:#8D674B"/>
	<stop  offset="1" style="stop-color:#855C3F"/>
</radialGradient>
<path fill="url(#SVGID_3_)" d="M44.298,28.749c-0.799,4.531-1.41,8.012-2.035,11.557c-0.818,4.647-9.375,3.287-8.557-1.359
	c0.613-3.484,1.389-7.896,2.035-11.555C36.562,22.743,45.116,24.104,44.298,28.749z"/>
<path fill="#754E31" d="M41.79,38.663l1.643-9.326c0.582-4.381,8.389-2.674,8.557,1.854c0.086,2.195-0.352,6.383-0.98,8.139
	c-0.502,1.389-1.453,2.803-2.26,3.361C46.337,44.35,40.948,43.438,41.79,38.663z M44.909,29.596l-1.643,9.328
	c-0.629,3.566,3.527,3.291,4.629,2.531c0.482-0.334,1.281-1.473,1.701-2.635c0.553-1.537,0.973-5.57,0.895-7.574
	C50.388,28.461,45.368,26.991,44.909,29.596z"/>
<path fill="#754E31" d="M32.968,38.817l2.037-11.557c1.23-5.758,10.979-3.883,10.033,1.619l-2.037,11.557
	C42.038,46.063,31.974,44.438,32.968,38.817z M36.48,27.522l-2.035,11.555c-0.625,3.543,6.398,4.853,7.08,1.1L43.56,28.62
	C44.218,25.112,37.157,23.749,36.48,27.522z"/>
<path fill="#916B50" d="M29.95,27.975c6.24-5.709,11.168,1.746,5.461,8.152c-3.947,4.436-10.85,6.27-12.096,7.93
	c-0.908,1.209-7.99-0.65-8.727-3.127C12.282,33.124,24.128,33.301,29.95,27.975z"/>
<path fill="#754E31" d="M23.915,44.485l-1.199-0.9c1.469-1.957,7.977-3.449,12.135-7.979c5.02-5.467,1.213-12.227-4.395-7.1
	c-6.068,5.553-15.477,3.726-16.686,12.641l-1.484-0.201c1.332-9.854,11.557-8.422,17.16-13.547
	c6.752-6.174,13.074,1.854,6.523,9.205C32.171,40.874,24.892,43.184,23.915,44.485z"/>
</svg>
