<?xml version="1.0" encoding="utf-8"?>
<!-- Generator: Adobe Illustrator 19.0.0, SVG Export Plug-In . SVG Version: 6.00 Build 0)  -->
<svg version="1.1" id="Layer_1" xmlns="http://www.w3.org/2000/svg" xmlns:xlink="http://www.w3.org/1999/xlink" x="0px" y="0px"
	 width="64px" height="64px" viewBox="0 0 64 64" enable-background="new 0 0 64 64" xml:space="preserve">
<linearGradient id="SVGID_1_" gradientUnits="userSpaceOnUse" x1="1.9622" y1="273.538" x2="1.9622" y2="223.2167" gradientTransform="matrix(0.9659 0.2588 -0.2588 0.9659 92.4525 -213.6382)">
	<stop  offset="0.097" style="stop-color:#E3B68D"/>
	<stop  offset="0.1495" style="stop-color:#E3BA92"/>
	<stop  offset="0.3067" style="stop-color:#E3BF99"/>
	<stop  offset="0.6606" style="stop-color:#E3C19B"/>
</linearGradient>
<path fill="url(#SVGID_1_)" d="M37.572,19.99c3.406-3.801,5.217-7.805,3.754-12.973c-1.824-6.449-7.082-4.35-7.498-1.852
	c-2.084,12.541-9.697,13.982-12.346,16.66c-8.098,8.199-7.482,19.381-5.25,22.965C21.14,52.674,33.41,53.1,33.41,53.1l9.035-23.758
	C42.445,29.342,32.502,25.643,37.572,19.99z"/>
<radialGradient id="SVGID_2_" cx="168.008" cy="842.3635" r="8.1793" gradientTransform="matrix(0.5759 0.7544 -0.4829 0.3666 346.4803 -379.2617)" gradientUnits="userSpaceOnUse">
	<stop  offset="0.4545" style="stop-color:#E3C19B"/>
	<stop  offset="0.7558" style="stop-color:#E3BD96"/>
	<stop  offset="1" style="stop-color:#E3B68D"/>
</radialGradient>
<path fill="url(#SVGID_2_)" d="M37.365,60.33c-1.418-1.297-4.254-5.094-9.1-8.002c-1.027-0.617,4.084-8.898,7.32-3.123
	c1.396,2.494,4.227,4.703,6.037,7.102C44.109,59.596,40.209,62.937,37.365,60.33z"/>
<path fill="#CF9E70" d="M36.859,60.902c-1.979-1.816-4.111-4.965-8.887-7.857c-4.051-0.977-9.441-3.131-12.375-7.838
	c-2.531-4.066-2.908-15.527,5.353-23.891c2.613-2.646,10.117-4.092,12.139-16.258c0.539-3.254,6.902-5.488,8.957,1.772
	c1.385,4.895,0.176,9.111-3.918,13.678c-4.352,4.855,4.342,8.059,5.271,8.404l0,0l0,0c-2.525,7.072-6.523,18.404-7.023,20.18
	c1.35,2.234,4.176,4.566,5.846,6.781C45.342,60.004,40.23,63.99,36.859,60.902z M34.568,5.305
	c-2.129,12.805-10.037,14.519-12.553,17.066c-8.131,8.232-6.977,19.102-5.146,22.041c2.691,4.32,7.883,6.344,11.674,7.246l0,0
	c5.059,3.033,7.26,6.164,9.328,8.137c2.086,1.988,5.143-0.387,3.156-3.018c-1.611-2.135-4.662-4.631-6.096-7.189
	c-0.217-0.381-0.309-0.543,6.568-19.81c-4.156-1.852-8.609-5.674-4.486-10.272c3.713-4.141,4.82-7.924,3.592-12.266
	C39.021,1.643,34.863,3.533,34.568,5.305z"/>
<path fill="#CF9E70" d="M34.164,36.951l-0.014,1.395c-2.477,2.768-10.686,3.73-15.945-0.859
	C23.424,41.086,31.933,39.734,34.164,36.951z"/>
<radialGradient id="SVGID_3_" cx="-51.6809" cy="258.814" r="8.353" gradientTransform="matrix(0.8869 0.2324 -0.1538 0.5857 128.4313 -107.5812)" gradientUnits="userSpaceOnUse">
	<stop  offset="0.4545" style="stop-color:#E3C19B"/>
	<stop  offset="0.7558" style="stop-color:#E3BD96"/>
	<stop  offset="1" style="stop-color:#E3B68D"/>
</radialGradient>
<path fill="url(#SVGID_3_)" d="M45.297,36.475c-4.354-1.166-7.699-2.061-11.102-2.971c-3.352-0.9-1.561-5.332,0.717-5.955
	c0.857-0.234,2.289-0.439,3.965-0.213c1.867,0.256,4.977,0.91,8.355,2.506C50.777,31.514,49.271,37.539,45.297,36.475z"/>
<path fill="#CF9E70" d="M45.105,37.201l-11.104-2.973c-4.174-1.119-2.246-6.596,0.713-7.404c1.047-0.285,2.576-0.459,4.262-0.232
	c1.646,0.225,4.953,0.842,8.574,2.57C52.006,31.291,49.898,38.449,45.105,37.201z M35.109,28.273
	c-1.459,0.398-3.355,3.797-0.721,4.504l11.104,2.973c2.986,0.85,4.268-3.897,1.422-5.231c-3.455-1.615-6.58-2.226-8.139-2.439
	C37.465,27.902,36.103,28.002,35.109,28.273z"/>
<radialGradient id="SVGID_4_" cx="-26.266" cy="265.9909" r="8.5627" gradientTransform="matrix(0.9191 0.2411 -0.1537 0.5857 105.3958 -110.5516)" gradientUnits="userSpaceOnUse">
	<stop  offset="0.4545" style="stop-color:#E3C19B"/>
	<stop  offset="0.7558" style="stop-color:#E3BD96"/>
	<stop  offset="1" style="stop-color:#E3B68D"/>
</radialGradient>
<path fill="url(#SVGID_4_)" d="M43.015,43.356c-4.332-1.162-7.662-2.053-11.053-2.961c-4.443-1.188-2.57-8.174,1.873-6.982
	c3.334,0.893,7.555,2.021,11.053,2.959C49.332,37.561,47.461,44.545,43.015,43.356z"/>
<path fill="#CF9E70" d="M42.822,44.08l-11.053-2.961c-5.557-1.646-2.918-9.9,2.26-8.433l11.053,2.961
	C50.625,37.203,48.08,45.535,42.822,44.08z M32.156,39.67l11.053,2.959c3.436,0.955,4.967-4.547,1.486-5.531l-11.053-2.961
	C30.443,33.096,28.414,38.551,32.156,39.67z"/>
<radialGradient id="SVGID_5_" cx="-27.0373" cy="273.4626" r="7.996" gradientTransform="matrix(0.9191 0.2411 -0.1537 0.5857 104.7393 -108.1941)" gradientUnits="userSpaceOnUse">
	<stop  offset="0.4545" style="stop-color:#E3C19B"/>
	<stop  offset="0.7558" style="stop-color:#E3BD96"/>
	<stop  offset="1" style="stop-color:#E3B68D"/>
</radialGradient>
<path fill="url(#SVGID_5_)" d="M40.328,49.609c-4.047-1.084-7.156-1.914-10.322-2.766c-4.148-1.109-2.4-7.633,1.75-6.521
	c3.113,0.832,7.053,1.889,10.32,2.764C46.224,44.195,44.476,50.719,40.328,49.609z"/>
<path fill="#CF9E70" d="M40.135,50.334L29.812,47.57c-5.146-1.531-2.924-9.238,2.137-7.973l10.32,2.764
	C47.594,43.99,45.004,51.666,40.135,50.334z M30.199,46.119l10.322,2.766c3.061,0.851,4.608-4.066,1.361-5.074l-10.32-2.764
	C28.521,40.195,26.959,45.242,30.199,46.119z"/>
</svg>
