<?xml version="1.0" encoding="utf-8"?>
<!-- Generator: Adobe Illustrator 15.0.0, SVG Export Plug-In . SVG Version: 6.00 Build 0)  -->
<!DOCTYPE svg PUBLIC "-//W3C//DTD SVG 1.1//EN" "http://www.w3.org/Graphics/SVG/1.1/DTD/svg11.dtd" [
	<!ENTITY ns_flows "http://ns.adobe.com/Flows/1.0/">
	<!ENTITY ns_extend "http://ns.adobe.com/Extensibility/1.0/">
	<!ENTITY ns_ai "http://ns.adobe.com/AdobeIllustrator/10.0/">
	<!ENTITY ns_graphs "http://ns.adobe.com/Graphs/1.0/">
]>
<svg version="1.1" id="Layer_1" xmlns:x="&ns_extend;" xmlns:i="&ns_ai;" xmlns:graph="&ns_graphs;"
	 xmlns="http://www.w3.org/2000/svg" xmlns:xlink="http://www.w3.org/1999/xlink" xmlns:a="http://ns.adobe.com/AdobeSVGViewerExtensions/3.0/"
	 x="0px" y="0px" width="64px" height="64px" viewBox="0 0 64 64" enable-background="new 0 0 64 64" xml:space="preserve">
<linearGradient id="SVGID_1_" gradientUnits="userSpaceOnUse" x1="32.0005" y1="62" x2="32.0005" y2="2.0005">
	<stop  offset="0" style="stop-color:#FFA027"/>
	<stop  offset="0.2723" style="stop-color:#FFC151"/>
	<stop  offset="0.7633" style="stop-color:#FFC93F"/>
	<stop  offset="1" style="stop-color:#FFE261"/>
	<a:midPointStop  offset="0" style="stop-color:#FFA027"/>
	<a:midPointStop  offset="0.5" style="stop-color:#FFA027"/>
	<a:midPointStop  offset="0.2723" style="stop-color:#FFC151"/>
	<a:midPointStop  offset="0.5" style="stop-color:#FFC151"/>
	<a:midPointStop  offset="0.7633" style="stop-color:#FFC93F"/>
	<a:midPointStop  offset="0.5" style="stop-color:#FFC93F"/>
	<a:midPointStop  offset="1" style="stop-color:#FFE261"/>
</linearGradient>
<circle fill="url(#SVGID_1_)" cx="32" cy="32" r="30"/>
<path fill="#302C3B" d="M44,43.265c-7.684,4.9-16.4,4.846-24.003,0c-1.035-0.658-1.162,0.053-0.842,0.613
	c5.408,9.498,20.282,9.496,25.692,0C45.164,43.317,45.039,42.606,44,43.265z"/>
<linearGradient id="SVGID_2_" gradientUnits="userSpaceOnUse" x1="-167.5005" y1="120.3594" x2="-161.8477" y2="120.3594" gradientTransform="matrix(1 0 0 -1 194 170)">
	<stop  offset="0" style="stop-color:#E6EEFF"/>
	<stop  offset="0.0572" style="stop-color:#EEF4FF"/>
	<stop  offset="0.1807" style="stop-color:#FBFCFF"/>
	<stop  offset="0.3" style="stop-color:#FFFFFF"/>
	<stop  offset="0.7" style="stop-color:#FFFFFF"/>
	<stop  offset="0.8193" style="stop-color:#FBFCFF"/>
	<stop  offset="0.9428" style="stop-color:#EEF4FF"/>
	<stop  offset="1" style="stop-color:#E6EEFF"/>
	<a:midPointStop  offset="0" style="stop-color:#E6EEFF"/>
	<a:midPointStop  offset="0.3" style="stop-color:#E6EEFF"/>
	<a:midPointStop  offset="0.3" style="stop-color:#FFFFFF"/>
	<a:midPointStop  offset="0.5" style="stop-color:#FFFFFF"/>
	<a:midPointStop  offset="0.7" style="stop-color:#FFFFFF"/>
	<a:midPointStop  offset="0.7" style="stop-color:#FFFFFF"/>
	<a:midPointStop  offset="1" style="stop-color:#E6EEFF"/>
</linearGradient>
<path fill="url(#SVGID_2_)" d="M32.001,47.947c-3.364,0-5.499-0.584-5.499-0.584s-0.062,4.016,0.419,4.25
	c0.857,0.418,3.67,0.342,4.438,0.143c0.644-0.17,0.642-0.549,0.642-0.549C32.342,49.895,32.001,47.947,32.001,47.947z"/>
<linearGradient id="SVGID_3_" gradientUnits="userSpaceOnUse" x1="552.0811" y1="120.3594" x2="557.5791" y2="120.3594" gradientTransform="matrix(-1 0 0 -1 589.5801 170)">
	<stop  offset="0" style="stop-color:#E6EEFF"/>
	<stop  offset="0.0572" style="stop-color:#EEF4FF"/>
	<stop  offset="0.1807" style="stop-color:#FBFCFF"/>
	<stop  offset="0.3" style="stop-color:#FFFFFF"/>
	<stop  offset="0.7" style="stop-color:#FFFFFF"/>
	<stop  offset="0.8193" style="stop-color:#FBFCFF"/>
	<stop  offset="0.9428" style="stop-color:#EEF4FF"/>
	<stop  offset="1" style="stop-color:#E6EEFF"/>
	<a:midPointStop  offset="0" style="stop-color:#E6EEFF"/>
	<a:midPointStop  offset="0.3" style="stop-color:#E6EEFF"/>
	<a:midPointStop  offset="0.3" style="stop-color:#FFFFFF"/>
	<a:midPointStop  offset="0.5" style="stop-color:#FFFFFF"/>
	<a:midPointStop  offset="0.7" style="stop-color:#FFFFFF"/>
	<a:midPointStop  offset="0.7" style="stop-color:#FFFFFF"/>
	<a:midPointStop  offset="1" style="stop-color:#E6EEFF"/>
</linearGradient>
<path fill="url(#SVGID_3_)" d="M32.001,47.947c3.364,0,5.495-0.584,5.495-0.584s0.066,4.016-0.416,4.25
	c-0.855,0.418-3.668,0.342-4.438,0.143c-0.644-0.17-0.642-0.549-0.642-0.549V47.947z"/>
<ellipse id="Oval_17_" fill="#302C3B" cx="20" cy="29" rx="4" ry="5"/>
<ellipse id="Oval_16_" fill="#302C3B" cx="44" cy="29" rx="4" ry="5"/>
<rect id="Rectangle-path" x="29.792" y="23.91" fill="#302C3B" width="4.416" height="4.773"/>
<path id="Shape_11_" fill="#302C3B" d="M5.254,21.994c-1.686,0.563-2.229,3.602-0.84,4.701C6.393,28.264,7.655,21.189,5.254,21.994z
	"/>
<path id="Shape_10_" fill="#302C3B" d="M58.746,21.994c-2.401-0.805-1.139,6.268,0.84,4.701
	C60.975,25.598,60.432,22.558,58.746,21.994z"/>
<linearGradient id="Shape_1_" gradientUnits="userSpaceOnUse" x1="-204.6465" y1="260.7559" x2="-204.6465" y2="261.7559" gradientTransform="matrix(23.2003 0 0 -17.1813 4765.6719 4517.7007)">
	<stop  offset="0" style="stop-color:#FFFFFF;stop-opacity:0"/>
	<stop  offset="1" style="stop-color:#FFFFFF"/>
	<a:midPointStop  offset="0" style="stop-color:#FFFFFF;stop-opacity:0"/>
	<a:midPointStop  offset="0.5" style="stop-color:#FFFFFF;stop-opacity:0"/>
	<a:midPointStop  offset="1" style="stop-color:#FFFFFF"/>
</linearGradient>
<path id="Shape_3_" opacity="0.5" fill="url(#Shape_1_)" enable-background="new    " d="M26.609,35.463
	c-3.23,2.844-14.492,2.828-17.74,0c-2.76-2.403-3.849-11.852-0.936-14.091c1.949-1.497,17.713-1.052,19.611,0
	C30.789,23.167,29.355,33.047,26.609,35.463z"/>
<linearGradient id="Shape_2_" gradientUnits="userSpaceOnUse" x1="-204.646" y1="260.7568" x2="-204.646" y2="261.7559" gradientTransform="matrix(23.2003 0 0 -17.1818 4794.0469 4517.8584)">
	<stop  offset="0" style="stop-color:#FFFFFF;stop-opacity:0"/>
	<stop  offset="1" style="stop-color:#FFFFFF"/>
	<a:midPointStop  offset="0" style="stop-color:#FFFFFF;stop-opacity:0"/>
	<a:midPointStop  offset="0.5" style="stop-color:#FFFFFF;stop-opacity:0"/>
	<a:midPointStop  offset="1" style="stop-color:#FFFFFF"/>
</linearGradient>
<path id="Shape_6_" opacity="0.5" fill="url(#Shape_2_)" enable-background="new    " d="M37.391,35.463
	c3.23,2.844,14.492,2.828,17.74,0c2.76-2.404,3.849-11.854,0.936-14.093c-1.948-1.497-17.711-1.05-19.609,0
	C33.211,23.167,34.645,33.047,37.391,35.463z"/>
<path id="Shape_7_" fill="#302C3B" d="M17.76,39.022c-1.641,0-7.201-0.179-9.848-2.485c-2.215-1.928-3.258-6.605-3.145-10.23
	c0.062-2.017,0.508-4.706,2.275-6.064c0.408-0.313,1.646-1.265,9.581-1.265c0.39,0,9.583,0.013,11.63,1.146
	c1.387,0.768,2.258,2.426,2.52,4.793c0.42,3.794-0.792,9.497-3.201,11.616C24.948,38.844,19.398,39.022,17.76,39.022z
	 M16.624,21.841c-4.88,0-7.356,0.409-7.833,0.684c-0.48,0.373-1.057,1.604-1.127,3.872c-0.109,3.559,1.029,7.006,2.164,7.994
	c1.215,1.057,4.402,1.77,7.932,1.77c3.518,0,6.685-0.709,7.883-1.766c1.338-1.176,2.638-5.637,2.247-9.167
	c-0.147-1.349-0.543-2.323-1.056-2.606C26.141,22.3,21.906,21.841,16.624,21.841z"/>
<path id="Shape_8_" fill="#302C3B" d="M46.238,39.021c-1.638,0-7.188-0.18-9.813-2.488c-2.407-2.119-3.619-7.821-3.201-11.615
	c0.262-2.369,1.135-4.027,2.521-4.795c2.047-1.133,11.242-1.145,11.633-1.145c7.932,0,9.17,0.95,9.576,1.264
	c1.769,1.359,2.215,4.048,2.277,6.064c0.113,3.625-0.932,8.303-3.145,10.231C53.441,38.844,47.883,39.021,46.238,39.021z
	 M47.38,21.841c-5.284,0-9.522,0.458-10.232,0.788c-0.496,0.274-0.89,1.25-1.039,2.599c-0.389,3.529,0.909,7.991,2.247,9.167
	c1.198,1.055,4.367,1.765,7.883,1.765c3.529,0,6.717-0.71,7.932-1.769c1.135-0.988,2.275-4.436,2.165-7.996
	c-0.071-2.268-0.646-3.498-1.159-3.893C54.734,22.25,52.258,21.841,47.38,21.841z"/>
</svg>
