<?xml version="1.0" encoding="utf-8"?>
<!-- Generator: Adobe Illustrator 15.0.0, SVG Export Plug-In . SVG Version: 6.00 Build 0)  -->
<!DOCTYPE svg PUBLIC "-//W3C//DTD SVG 1.1//EN" "http://www.w3.org/Graphics/SVG/1.1/DTD/svg11.dtd" [
	<!ENTITY ns_flows "http://ns.adobe.com/Flows/1.0/">
	<!ENTITY ns_extend "http://ns.adobe.com/Extensibility/1.0/">
	<!ENTITY ns_ai "http://ns.adobe.com/AdobeIllustrator/10.0/">
	<!ENTITY ns_graphs "http://ns.adobe.com/Graphs/1.0/">
]>
<svg version="1.1" id="Layer_1" xmlns:x="&ns_extend;" xmlns:i="&ns_ai;" xmlns:graph="&ns_graphs;"
	 xmlns="http://www.w3.org/2000/svg" xmlns:xlink="http://www.w3.org/1999/xlink" xmlns:a="http://ns.adobe.com/AdobeSVGViewerExtensions/3.0/"
	 x="0px" y="0px" width="64px" height="64px" viewBox="0 0 64 64" enable-background="new 0 0 64 64" xml:space="preserve">
<linearGradient id="SVGID_1_" gradientUnits="userSpaceOnUse" x1="32.0005" y1="62" x2="32.0005" y2="2.0005">
	<stop  offset="0" style="stop-color:#FFA027"/>
	<stop  offset="0.2723" style="stop-color:#FFC151"/>
	<stop  offset="0.7633" style="stop-color:#FFC93F"/>
	<stop  offset="1" style="stop-color:#FFE261"/>
	<a:midPointStop  offset="0" style="stop-color:#FFA027"/>
	<a:midPointStop  offset="0.5" style="stop-color:#FFA027"/>
	<a:midPointStop  offset="0.2723" style="stop-color:#FFC151"/>
	<a:midPointStop  offset="0.5" style="stop-color:#FFC151"/>
	<a:midPointStop  offset="0.7633" style="stop-color:#FFC93F"/>
	<a:midPointStop  offset="0.5" style="stop-color:#FFC93F"/>
	<a:midPointStop  offset="1" style="stop-color:#FFE261"/>
</linearGradient>
<circle fill="url(#SVGID_1_)" cx="32" cy="32" r="30"/>
<path fill="#302C3B" d="M48.602,43.5H15.4c-0.221,0-0.4,0.16-0.4,0.359v0.281c0,0.199,0.18,0.359,0.4,0.359h33.201
	C48.82,44.5,49,44.34,49,44.141v-0.281C49,43.66,48.82,43.5,48.602,43.5z"/>
<linearGradient id="SVGID_2_" gradientUnits="userSpaceOnUse" x1="40" y1="49" x2="40" y2="43">
	<stop  offset="0" style="stop-color:#6E8189"/>
	<stop  offset="1" style="stop-color:#839AA3"/>
	<a:midPointStop  offset="0" style="stop-color:#6E8189"/>
	<a:midPointStop  offset="0.5" style="stop-color:#6E8189"/>
	<a:midPointStop  offset="1" style="stop-color:#839AA3"/>
</linearGradient>
<path fill="url(#SVGID_2_)" d="M41.602,43H38.4c-0.221,0-0.4,0.16-0.4,0.359v5.281C38,48.84,38.18,49,38.4,49h3.201
	C41.82,49,42,48.84,42,48.641v-5.281C42,43.16,41.82,43,41.602,43z"/>
<linearGradient id="SVGID_3_" gradientUnits="userSpaceOnUse" x1="20" y1="44" x2="20" y2="38">
	<stop  offset="0" style="stop-color:#6E8189"/>
	<stop  offset="1" style="stop-color:#839AA3"/>
	<a:midPointStop  offset="0" style="stop-color:#6E8189"/>
	<a:midPointStop  offset="0.5" style="stop-color:#6E8189"/>
	<a:midPointStop  offset="1" style="stop-color:#839AA3"/>
</linearGradient>
<path fill="url(#SVGID_3_)" d="M21.602,38H18.4c-0.221,0-0.4,0.16-0.4,0.359v5.281C18,43.84,18.18,44,18.4,44h3.201
	C21.82,44,22,43.84,22,43.641v-5.281C22,38.16,21.82,38,21.602,38z"/>
<linearGradient id="SVGID_4_" gradientUnits="userSpaceOnUse" x1="44" y1="44" x2="44" y2="38">
	<stop  offset="0" style="stop-color:#6E8189"/>
	<stop  offset="1" style="stop-color:#839AA3"/>
	<a:midPointStop  offset="0" style="stop-color:#6E8189"/>
	<a:midPointStop  offset="0.5" style="stop-color:#6E8189"/>
	<a:midPointStop  offset="1" style="stop-color:#839AA3"/>
</linearGradient>
<path fill="url(#SVGID_4_)" d="M45.602,38H42.4c-0.221,0-0.4,0.16-0.4,0.359v5.281C42,43.84,42.18,44,42.4,44h3.201
	C45.82,44,46,43.84,46,43.641v-5.281C46,38.16,45.82,38,45.602,38z"/>
<linearGradient id="SVGID_5_" gradientUnits="userSpaceOnUse" x1="24" y1="49" x2="24" y2="43">
	<stop  offset="0" style="stop-color:#6E8189"/>
	<stop  offset="1" style="stop-color:#839AA3"/>
	<a:midPointStop  offset="0" style="stop-color:#6E8189"/>
	<a:midPointStop  offset="0.5" style="stop-color:#6E8189"/>
	<a:midPointStop  offset="1" style="stop-color:#839AA3"/>
</linearGradient>
<path fill="url(#SVGID_5_)" d="M25.602,43H22.4c-0.221,0-0.4,0.16-0.4,0.359v5.281C22,48.84,22.18,49,22.4,49h3.201
	C25.82,49,26,48.84,26,48.641v-5.281C26,43.16,25.82,43,25.602,43z"/>
<linearGradient id="SVGID_6_" gradientUnits="userSpaceOnUse" x1="28" y1="44" x2="28" y2="38">
	<stop  offset="0" style="stop-color:#6E8189"/>
	<stop  offset="1" style="stop-color:#839AA3"/>
	<a:midPointStop  offset="0" style="stop-color:#6E8189"/>
	<a:midPointStop  offset="0.5" style="stop-color:#6E8189"/>
	<a:midPointStop  offset="1" style="stop-color:#839AA3"/>
</linearGradient>
<path fill="url(#SVGID_6_)" d="M29.602,38H26.4c-0.221,0-0.4,0.16-0.4,0.359v5.281C26,43.84,26.18,44,26.4,44h3.201
	C29.82,44,30,43.84,30,43.641v-5.281C30,38.16,29.82,38,29.602,38z"/>
<linearGradient id="SVGID_7_" gradientUnits="userSpaceOnUse" x1="32.0005" y1="49" x2="32.0005" y2="43">
	<stop  offset="0" style="stop-color:#6E8189"/>
	<stop  offset="1" style="stop-color:#839AA3"/>
	<a:midPointStop  offset="0" style="stop-color:#6E8189"/>
	<a:midPointStop  offset="0.5" style="stop-color:#6E8189"/>
	<a:midPointStop  offset="1" style="stop-color:#839AA3"/>
</linearGradient>
<path fill="url(#SVGID_7_)" d="M33.602,43H30.4c-0.221,0-0.4,0.16-0.4,0.359v5.281C30,48.84,30.18,49,30.4,49h3.201
	C33.82,49,34,48.84,34,48.641v-5.281C34,43.16,33.82,43,33.602,43z"/>
<linearGradient id="SVGID_8_" gradientUnits="userSpaceOnUse" x1="36" y1="44" x2="36" y2="38">
	<stop  offset="0" style="stop-color:#6E8189"/>
	<stop  offset="1" style="stop-color:#839AA3"/>
	<a:midPointStop  offset="0" style="stop-color:#6E8189"/>
	<a:midPointStop  offset="0.5" style="stop-color:#6E8189"/>
	<a:midPointStop  offset="1" style="stop-color:#839AA3"/>
</linearGradient>
<path fill="url(#SVGID_8_)" d="M37.602,38H34.4c-0.221,0-0.4,0.16-0.4,0.359v5.281C34,43.84,34.18,44,34.4,44h3.201
	C37.82,44,38,43.84,38,43.641v-5.281C38,38.16,37.82,38,37.602,38z"/>
<linearGradient id="SVGID_9_" gradientUnits="userSpaceOnUse" x1="48.4121" y1="60.9814" x2="48.4121" y2="43.6436">
	<stop  offset="0" style="stop-color:#6E8189"/>
	<stop  offset="1" style="stop-color:#839AA3"/>
	<a:midPointStop  offset="0" style="stop-color:#6E8189"/>
	<a:midPointStop  offset="0.5" style="stop-color:#6E8189"/>
	<a:midPointStop  offset="1" style="stop-color:#839AA3"/>
</linearGradient>
<path fill="url(#SVGID_9_)" d="M49.435,45.181c-1.563-2.432-4.708-1.876-5.345,0.943c-0.619,2.734-1.494,6.668-0.942,9.8
	c0.831,4.717,3.387,5.429,6.292,4.916c2.906-0.512,5.063-2.055,4.232-6.771C53.119,50.936,50.951,47.539,49.435,45.181z
	 M48.965,46.915c0.564,3.2-3.276,3.878-3.84,0.678C44.561,44.391,48.4,43.714,48.965,46.915z M44.869,56.241
	c-0.856-4.86,6.436-6.146,7.292-1.285C53.019,59.816,45.727,61.102,44.869,56.241z"/>
<ellipse fill="#302C3B" cx="22" cy="26" rx="4.5" ry="6"/>
<ellipse fill="#302C3B" cx="42" cy="26" rx="4.5" ry="6"/>
<linearGradient id="SVGID_10_" gradientUnits="userSpaceOnUse" x1="28.1782" y1="74.5352" x2="28.1782" y2="70.5352" gradientTransform="matrix(0.9848 -0.1736 0.1736 0.9848 6.0016 -22.2279)">
	<stop  offset="0" style="stop-color:#6E8189"/>
	<stop  offset="1" style="stop-color:#839AA3"/>
	<a:midPointStop  offset="0" style="stop-color:#6E8189"/>
	<a:midPointStop  offset="0.5" style="stop-color:#6E8189"/>
	<a:midPointStop  offset="1" style="stop-color:#839AA3"/>
</linearGradient>
<path fill="url(#SVGID_10_)" d="M46.589,42.238l-1.184,0.209c-0.217,0.038-0.365,0.227-0.331,0.424l0.569,3.23
	c0.035,0.196,0.24,0.323,0.457,0.285l1.183-0.209c0.216-0.038,0.364-0.227,0.33-0.424l-0.569-3.23
	C47.009,42.327,46.804,42.201,46.589,42.238z"/>
</svg>
