<?xml version="1.0" encoding="utf-8"?>
<!-- Generator: Adobe Illustrator 15.0.0, SVG Export Plug-In . SVG Version: 6.00 Build 0)  -->
<!DOCTYPE svg PUBLIC "-//W3C//DTD SVG 1.1//EN" "http://www.w3.org/Graphics/SVG/1.1/DTD/svg11.dtd" [
	<!ENTITY ns_flows "http://ns.adobe.com/Flows/1.0/">
	<!ENTITY ns_extend "http://ns.adobe.com/Extensibility/1.0/">
	<!ENTITY ns_ai "http://ns.adobe.com/AdobeIllustrator/10.0/">
	<!ENTITY ns_graphs "http://ns.adobe.com/Graphs/1.0/">
]>
<svg version="1.1" id="Layer_1" xmlns:x="&ns_extend;" xmlns:i="&ns_ai;" xmlns:graph="&ns_graphs;"
	 xmlns="http://www.w3.org/2000/svg" xmlns:xlink="http://www.w3.org/1999/xlink" xmlns:a="http://ns.adobe.com/AdobeSVGViewerExtensions/3.0/"
	 x="0px" y="0px" width="64px" height="64px" viewBox="0 0 64 64" enable-background="new 0 0 64 64" xml:space="preserve">
<radialGradient id="SVGID_1_" cx="32.0342" cy="24.603" r="36.4083" gradientTransform="matrix(-0.9776 -0.2539 -0.166 0.6529 72.5114 14.6204)" gradientUnits="userSpaceOnUse">
	<stop  offset="0.4485" style="stop-color:#FFCC66"/>
	<stop  offset="0.7332" style="stop-color:#FECB64"/>
	<stop  offset="0.87" style="stop-color:#FAC65C"/>
	<stop  offset="0.9751" style="stop-color:#F4BD4F"/>
	<stop  offset="1" style="stop-color:#F2BA4B"/>
	<a:midPointStop  offset="0.4485" style="stop-color:#FFCC66"/>
	<a:midPointStop  offset="0.8333" style="stop-color:#FFCC66"/>
	<a:midPointStop  offset="1" style="stop-color:#F2BA4B"/>
</radialGradient>
<path fill="url(#SVGID_1_)" d="M6.799,12.469c4.553,0,10.361-0.21,19.11,0.014c19.556,0.502,31.109-2.886,34.097,1.726
	c2.605,4.019,0.24,13.292,0.688,22.573c0.273,5.639-6.05,6.225-6.05,6.225c0.83,3.142-1.529,11.263-8.354,8.783
	c-6.875-2.496-13.644-2.579-16.848-4.923c-2.88-2.105-6.476-6.993-9.016-9.537c-0.436-0.437-9.781-3.854-13.629-3.854
	C1.343,33.475,1.343,12.469,6.799,12.469z"/>
<path fill="#D9A640" d="M46.037,52.49c-6.768-2.457-13.615-2.522-17.033-5.022c-3.118-2.278-6.196-6.676-9.039-9.557
	c-0.81-0.531-9.61-3.69-13.163-3.69c-6.402,0-6.402-22.505,0-22.505c1.328,0,16.41-0.056,19.13,0.014
	c20.344,0.522,31.394-3.046,34.708,2.067c2.79,4.306,0.347,13.453,0.808,22.945c0.219,4.516-3.421,6.391-5.928,6.889
	C55.971,47.931,52.808,54.951,46.037,52.49z M25.893,13.229c-2.706-0.069-17.757-0.014-19.091-0.014c-4.46,0-4.46,19.505,0,19.505
	c3.869,0,13.418,3.365,14.16,4.076c1.346,1.289,6.588,7.751,8.928,9.461c2.906,2.126,9.8,2.334,16.66,4.823
	c6.329,2.302,8.376-5.807,7.146-8.743c0.605-0.017,6.508-0.282,6.252-5.523c-0.434-8.981,1.785-18.573-0.568-22.202
	C56.752,10.558,44.366,13.702,25.893,13.229z"/>
<path fill="#D9A640" d="M41.167,24.339c3.207,1.306,8.161,3.055,11.399,0.452c-3.323,3.912-0.631,6.121-0.589,9.205
	c-1.388-3.381-2.7-4.01-2.993-4.084c-0.582-0.147-2.074,2.296-2.074,2.296c-0.022-2.953,2.123-3.336,2.081-3.974
	c-0.029-0.445-3.575-0.053-7.024-1.361c-0.727-0.276-1.103,13.356,12.355,15.185c1.255,0.165,0.898,1.647-0.58,1.647
	C37.088,40.604,39.565,23.688,41.167,24.339z"/>
</svg>
