<?xml version="1.0" encoding="utf-8"?>
<!-- Generator: Adobe Illustrator 19.0.0, SVG Export Plug-In . SVG Version: 6.00 Build 0)  -->
<svg version="1.1" id="Layer_1" xmlns="http://www.w3.org/2000/svg" xmlns:xlink="http://www.w3.org/1999/xlink" x="0px" y="0px"
	 width="64px" height="64px" viewBox="0 0 64 64" enable-background="new 0 0 64 64" xml:space="preserve">
<radialGradient id="SVGID_1_" cx="67.7403" cy="28.5123" r="26.9603" gradientTransform="matrix(1.0292 0 0 1.3615 -29.0965 -13.0365)" gradientUnits="userSpaceOnUse">
	<stop  offset="0.4485" style="stop-color:#FCD5B2"/>
	<stop  offset="0.7565" style="stop-color:#FBD3B0"/>
	<stop  offset="0.9046" style="stop-color:#F6CDA8"/>
	<stop  offset="1" style="stop-color:#F0C59E"/>
</radialGradient>
<path fill="url(#SVGID_1_)" d="M23.854,33.078c-1.753-5.75-3.825-10.455-5.9-17.779c-1.359-4.789-8.299-2.799-7.041,2.02
	c1.085,4.15,4.154,16.363,3.722,19.58c-0.586,4.342-0.323,10.895,3.629,17.262c5.876,9.482,29.919,11.369,34.472-6.619
	C56.696,31.89,36.227,29.947,23.854,33.078z"/>
<path fill="#E0AF82" d="M17.622,54.57c-4.386-7.066-4.225-14.172-3.739-17.775c0.334-2.484-1.693-11.59-3.702-19.279
	c-1.516-5.795,6.975-8.244,8.502-2.432c1.104,4.197,4.993,14.875,5.684,17.078c13.707-3.184,33.094-0.197,29.103,15.568
	C48.78,66.25,23.921,64.734,17.622,54.57z M11.646,17.121c1.272,4.873,4.186,16.564,3.739,19.883
	c-0.458,3.398-0.61,10.092,3.521,16.744c5.466,8.822,28.665,11.101,33.095-6.4c3.84-15.164-17.233-16.588-28.659-13.344
	c0,0-4.999-14.244-6.117-18.494C16.191,11.582,10.676,13.408,11.646,17.121z"/>
<linearGradient id="SVGID_2_" gradientUnits="userSpaceOnUse" x1="45.5185" y1="31.7625" x2="46.6744" y2="2.9285">
	<stop  offset="0" style="stop-color:#F0C59E"/>
	<stop  offset="0.1481" style="stop-color:#F6CDA8"/>
	<stop  offset="0.3789" style="stop-color:#FBD3B0"/>
	<stop  offset="0.8545" style="stop-color:#FCD5B2"/>
</linearGradient>
<path fill="url(#SVGID_2_)" d="M50.376,36.207c-1.094-9.543-0.209-17.594-0.445-29.152c-0.123-5.873-8.309-5.654-8.305,0.221
	c0.004,4.838-0.143,23.535-1.182,25.459C43.716,33.863,47.202,34.771,50.376,36.207z"/>
<path fill="#E0AF82" d="M49.188,7.07c0.082,3.98-0.203,21.213,0.447,28.918c0.555,0.375,1.086,0.781,1.613,1.188
	c-0.814-6.924-0.49-25.906-0.576-30.137c-0.145-6.91-9.793-6.602-9.789,0.238c0.008,8.867-0.299,22.354-0.98,24.803h1.424
	c0.533-2.404,1.055-8.604,1.039-24.805C42.362,2.351,49.089,2.222,49.188,7.07z"/>
<path fill="#E0AF82" d="M22.735,28.102c-0.629-7.029,9.486-7.686,10.033-0.676l0.543,7.883c0.627,6.961-9.48,7.586-10.041,0.639
	L22.735,28.102z"/>
<radialGradient id="SVGID_3_" cx="-230.4905" cy="32.1882" r="6.331" gradientTransform="matrix(0.8235 -0.0609 0.0967 1.1382 215.3131 -21.9822)" gradientUnits="userSpaceOnUse">
	<stop  offset="0.4545" style="stop-color:#FCD5B2"/>
	<stop  offset="0.6999" style="stop-color:#F9D1AD"/>
	<stop  offset="0.9919" style="stop-color:#F0C59F"/>
	<stop  offset="1" style="stop-color:#F0C59E"/>
</radialGradient>
<path fill="url(#SVGID_3_)" d="M24.214,27.954c-0.441-5.051,6.646-5.533,7.098-0.475l0.522,7.953
	c0.449,5.031-6.648,5.486-7.096,0.451L24.214,27.954z"/>
<path fill="#E0AF82" d="M31.708,26.757c-0.016-7.055,10.123-6.881,10.06,0.15l0.025,7.906c0.016,6.984-10.109,6.781-10.062-0.186
	L31.708,26.757z"/>
<radialGradient id="SVGID_4_" cx="-228.0913" cy="102.504" r="6.3395" gradientTransform="matrix(0.8259 0.0068 -0.0029 1.142 226.2971 -87.6825)" gradientUnits="userSpaceOnUse">
	<stop  offset="0.4545" style="stop-color:#FCD5B2"/>
	<stop  offset="0.6999" style="stop-color:#F9D1AD"/>
	<stop  offset="0.9919" style="stop-color:#F0C59F"/>
	<stop  offset="1" style="stop-color:#F0C59E"/>
</radialGradient>
<path fill="url(#SVGID_4_)" d="M33.196,26.733c-0.002-5.07,7.105-4.971,7.111,0.104l0.004,7.978
	c0.006,5.047-7.105,4.922-7.113-0.133L33.196,26.733z"/>
<path fill="#E0AF82" d="M44.44,42.256l-1.023-1.299c-4.264-0.873-12.434,3.943-13.88,11.918
	C31.667,45.859,40.391,41.199,44.44,42.256z"/>
<path fill="#FCD5B2" d="M37.688,32.385c-1.736-0.01-5.854,1.598-11.699,1.771c-2.559,0.074-2.982,4.447,0.892,6.371
	c5.396,2.678,13.72-0.814,16.218,5.074c0.615,1.451,9.617-2.326,8.553-5.117C48.971,33.453,38.903,32.392,37.688,32.385z"/>
<path fill="#E0AF82" d="M42.423,45.914c-2.326-5.486-10.767-2.168-15.859-4.689c-4.752-2.363-3.986-7.738-0.594-7.836
	c3.603-0.109,8.664-1.981,11.752-1.981c3.412,0,9.543,0.826,13.447,5c1.666,1.779-0.152,2.178-1.355,0.836
	c-2.863-3.191-8.744-4.438-12.092-4.438c-3.375,0-7.971,2.008-11.711,2.121c-1.522,0.045-2.252,3.195,1.187,4.904
	c5.233,2.596,13.809-1.064,16.575,5.457L42.423,45.914z"/>
</svg>
