<?xml version="1.0" encoding="utf-8"?>
<!-- Generator: Adobe Illustrator 15.0.0, SVG Export Plug-In . SVG Version: 6.00 Build 0)  -->
<!DOCTYPE svg PUBLIC "-//W3C//DTD SVG 1.1//EN" "http://www.w3.org/Graphics/SVG/1.1/DTD/svg11.dtd" [
	<!ENTITY ns_flows "http://ns.adobe.com/Flows/1.0/">
	<!ENTITY ns_extend "http://ns.adobe.com/Extensibility/1.0/">
	<!ENTITY ns_ai "http://ns.adobe.com/AdobeIllustrator/10.0/">
	<!ENTITY ns_graphs "http://ns.adobe.com/Graphs/1.0/">
]>
<svg version="1.1" id="Layer_1" xmlns:x="&ns_extend;" xmlns:i="&ns_ai;" xmlns:graph="&ns_graphs;"
	 xmlns="http://www.w3.org/2000/svg" xmlns:xlink="http://www.w3.org/1999/xlink" xmlns:a="http://ns.adobe.com/AdobeSVGViewerExtensions/3.0/"
	 x="0px" y="0px" width="64px" height="64px" viewBox="0 0 64 64" enable-background="new 0 0 64 64" xml:space="preserve">
<linearGradient id="SVGID_1_" gradientUnits="userSpaceOnUse" x1="32.0005" y1="62" x2="32.0005" y2="2.0005">
	<stop  offset="0" style="stop-color:#FFA027"/>
	<stop  offset="0.2723" style="stop-color:#FFC151"/>
	<stop  offset="0.7633" style="stop-color:#FFC93F"/>
	<stop  offset="1" style="stop-color:#FFE261"/>
	<a:midPointStop  offset="0" style="stop-color:#FFA027"/>
	<a:midPointStop  offset="0.5" style="stop-color:#FFA027"/>
	<a:midPointStop  offset="0.2723" style="stop-color:#FFC151"/>
	<a:midPointStop  offset="0.5" style="stop-color:#FFC151"/>
	<a:midPointStop  offset="0.7633" style="stop-color:#FFC93F"/>
	<a:midPointStop  offset="0.5" style="stop-color:#FFC93F"/>
	<a:midPointStop  offset="1" style="stop-color:#FFE261"/>
</linearGradient>
<circle fill="url(#SVGID_1_)" cx="32" cy="32" r="30"/>
<path fill="#302C3B" d="M47.875,37c-0.32,0-6.65,2-15.875,2c-9.227,0-15.555-2-15.875-2C15.391,37,15,37.508,15,38
	c0,7.271,5.959,15,17,15s17-7.729,17-15C49,37.508,48.609,37,47.875,37z"/>
<linearGradient id="SVGID_2_" gradientUnits="userSpaceOnUse" x1="31.9995" y1="41.3037" x2="31.9995" y2="62">
	<stop  offset="0.1212" style="stop-color:#20591D"/>
	<stop  offset="0.2982" style="stop-color:#3B7422"/>
	<stop  offset="0.6776" style="stop-color:#81B92F"/>
	<stop  offset="0.7636" style="stop-color:#92C932"/>
	<a:midPointStop  offset="0.1212" style="stop-color:#20591D"/>
	<a:midPointStop  offset="0.5339" style="stop-color:#20591D"/>
	<a:midPointStop  offset="0.7636" style="stop-color:#92C932"/>
</linearGradient>
<path fill="url(#SVGID_2_)" d="M21.923,44.718c0,0.899,0,2.407,0,4.026C21.923,57.568,26.436,61.996,32,62
	c5.564-0.004,10.077-4.432,10.077-13.256c0-1.619,0-3.127,0-4.026c0-5.271-10.077-2.867-10.077-2.867S21.923,39.446,21.923,44.718z"
	/>
<path fill="#302C3B" d="M48,27.223c0-1.096-0.303-1.977-0.91-2.643c-0.838-0.92-2.051-1.293-3.205-1.604v-5.169
	c0.461,0.104,0.869,0.266,1.184,0.531c0.533,0.443,0.838,1.074,0.91,1.893h1.734c-0.055-1.283-0.508-2.292-1.363-3.027
	c-0.645-0.553-1.473-0.934-2.465-1.08V15h-1.732v1.099c-1.057,0.14-1.934,0.552-2.611,1.178c-0.836,0.776-1.252,1.824-1.252,3.142
	c0,1.048,0.318,1.895,0.955,2.539c0.787,0.809,1.859,1.186,2.908,1.49v5.628c-0.639-0.113-1.152-0.335-1.52-0.679
	c-0.541-0.513-0.83-1.342-0.861-2.486H38c0,1.511,0.424,2.848,1.27,3.652c0.684,0.635,1.654,1.137,2.883,1.307V33h1.732v-1.115
	c1.146-0.145,2.094-0.652,2.814-1.332C47.564,29.727,48,28.617,48,27.223z M40.723,21.708c-0.889-0.851-0.789-2.55,0.102-3.37
	c0.338-0.312,0.783-0.508,1.328-0.603v4.751C41.543,22.288,41.063,22.031,40.723,21.708z M45.426,29.491
	c-0.385,0.337-0.904,0.539-1.541,0.622v-5.197c0.768,0.208,1.342,0.527,1.721,0.954c0.387,0.437,0.58,0.989,0.58,1.654
	C46.186,28.385,45.932,29.04,45.426,29.491z"/>
<path fill="#FFFFFF" d="M35.611,54.058c0-0.791-0.219-1.428-0.657-1.908c-0.604-0.666-1.48-0.934-2.314-1.159v-3.734
	c0.332,0.076,0.628,0.192,0.854,0.385c0.386,0.319,0.606,0.776,0.659,1.367h1.251c-0.038-0.927-0.366-1.655-0.984-2.187
	c-0.465-0.399-1.063-0.675-1.779-0.78V45.23h-1.251v0.793c-0.764,0.102-1.396,0.398-1.887,0.851
	c-0.604,0.562-0.904,1.318-0.904,2.269c0,0.758,0.23,1.367,0.69,1.833c0.567,0.586,1.343,0.856,2.101,1.078v4.063
	c-0.461-0.081-0.832-0.241-1.098-0.489c-0.392-0.37-0.6-0.969-0.622-1.796h-1.28c0,1.091,0.306,2.057,0.918,2.638
	c0.493,0.459,1.194,0.819,2.082,0.942v0.818h1.251v-0.807c0.828-0.104,1.512-0.47,2.032-0.962
	C35.297,55.865,35.611,55.063,35.611,54.058z M30.355,50.074c-0.642-0.614-0.569-1.841,0.074-2.434
	c0.243-0.225,0.565-0.368,0.959-0.436v3.432C30.948,50.493,30.602,50.309,30.355,50.074z M33.753,55.695
	c-0.279,0.243-0.653,0.39-1.113,0.449v-3.752c0.555,0.148,0.969,0.379,1.242,0.688c0.279,0.315,0.419,0.714,0.419,1.195
	C34.301,54.897,34.118,55.37,33.753,55.695z"/>
<path fill="#302C3B" d="M26,27.224c0-1.097-0.303-1.978-0.909-2.644c-0.838-0.92-2.051-1.293-3.205-1.604v-5.17
	c0.46,0.104,0.869,0.266,1.183,0.531c0.533,0.443,0.838,1.075,0.911,1.894h1.733c-0.054-1.283-0.508-2.292-1.363-3.028
	c-0.645-0.553-1.473-0.934-2.464-1.079v-1.123h-1.732V16.1c-1.057,0.139-1.934,0.552-2.612,1.178
	c-0.835,0.776-1.252,1.824-1.252,3.142c0,1.048,0.319,1.894,0.956,2.538c0.786,0.81,1.859,1.186,2.908,1.49v5.629
	c-0.639-0.113-1.152-0.336-1.521-0.679c-0.541-0.513-0.829-1.342-0.86-2.486H16c0,1.511,0.424,2.848,1.271,3.651
	c0.684,0.635,1.654,1.137,2.883,1.307v1.132h1.732v-1.116c1.146-0.145,2.093-0.652,2.813-1.332C25.565,29.728,26,28.617,26,27.224z
	 M18.724,21.709c-0.89-0.852-0.789-2.55,0.102-3.371c0.337-0.311,0.783-0.508,1.328-0.602v4.75
	C19.544,22.289,19.063,22.032,18.724,21.709z M23.427,29.492c-0.386,0.336-0.904,0.539-1.541,0.622v-5.197
	c0.768,0.208,1.342,0.526,1.72,0.954c0.387,0.437,0.58,0.988,0.58,1.654C24.186,28.385,23.933,29.041,23.427,29.492z"/>
</svg>
