<?xml version="1.0" encoding="utf-8"?>
<!-- Generator: Adobe Illustrator 15.0.0, SVG Export Plug-In . SVG Version: 6.00 Build 0)  -->
<!DOCTYPE svg PUBLIC "-//W3C//DTD SVG 1.1//EN" "http://www.w3.org/Graphics/SVG/1.1/DTD/svg11.dtd" [
	<!ENTITY ns_flows "http://ns.adobe.com/Flows/1.0/">
	<!ENTITY ns_extend "http://ns.adobe.com/Extensibility/1.0/">
	<!ENTITY ns_ai "http://ns.adobe.com/AdobeIllustrator/10.0/">
	<!ENTITY ns_graphs "http://ns.adobe.com/Graphs/1.0/">
]>
<svg version="1.1" id="Layer_1" xmlns:x="&ns_extend;" xmlns:i="&ns_ai;" xmlns:graph="&ns_graphs;"
	 xmlns="http://www.w3.org/2000/svg" xmlns:xlink="http://www.w3.org/1999/xlink" xmlns:a="http://ns.adobe.com/AdobeSVGViewerExtensions/3.0/"
	 x="0px" y="0px" width="64px" height="64px" viewBox="0 0 64 64" enable-background="new 0 0 64 64" xml:space="preserve">
<radialGradient id="SVGID_1_" cx="28.2031" cy="37.6553" r="22.0424" gradientTransform="matrix(1.0009 0 0 1.0853 -0.6442 -10.8504)" gradientUnits="userSpaceOnUse">
	<stop  offset="0.4364" style="stop-color:#FFCC66"/>
	<stop  offset="0.6859" style="stop-color:#FECB64"/>
	<stop  offset="0.7967" style="stop-color:#FAC65D"/>
	<stop  offset="0.88" style="stop-color:#F4BD50"/>
	<stop  offset="0.903" style="stop-color:#F2BA4B"/>
	<a:midPointStop  offset="0.4364" style="stop-color:#FFCC66"/>
	<a:midPointStop  offset="0.844" style="stop-color:#FFCC66"/>
	<a:midPointStop  offset="0.903" style="stop-color:#F2BA4B"/>
</radialGradient>
<path fill="url(#SVGID_1_)" d="M10.77,9.901C7.753,7.933,0.098,25.91,3.421,27.189c1.764,0.677,6.249,3.232,7.402,5.258
	c6.208,10.913,25.816,23.71,29.438,14.889c2.95,0.51,4.918-0.622,5.02-3.28c2.432-0.34,4.633-2.228,4.631-4.207
	c3.198-0.147,2.989-3.689,2.045-5.972c-3.63-8.765-11.621-19.306-23.003-21.458C24.764,11.619,18.078,14.679,10.77,9.901z"/>
<path fill="#D9A640" d="M10.17,32.818C9.178,31.073,5.003,28.6,3.152,27.89C-0.738,26.394,6.134,9,10.265,9
	c0.331,0,0.638,0.092,0.915,0.273c7.039,4.601,13.71,1.604,17.915,2.409c11.585,2.19,19.765,12.753,23.557,21.907
	c1.536,3.717,0.377,6.461-2.054,6.932c-0.369,1.908-2.262,3.628-4.62,4.169c-0.466,3.202-3.308,3.681-5.27,3.467
	C36.067,56.991,16.265,43.53,10.17,32.818z M10.35,10.529c-2.645,0-8.84,15.117-6.658,15.959c1.676,0.645,6.454,3.251,7.785,5.588
	c5.788,10.178,25.593,23.582,28.319,14.418c0,0,5.093,1.49,4.759-3.095c2.069-0.136,4.932-1.651,4.605-4.267
	c3.548,0.239,2.791-3.306,2.103-4.969c-3.641-8.792-11.45-18.929-22.448-21.007c-3.885-0.746-10.938,2.285-18.455-2.628
	C10.356,10.529,10.353,10.529,10.35,10.529z"/>
<path fill="#D9A640" d="M40.189,48.102c-0.063-0.028-6.368-2.938-12.803-7.595l0.88-1.215c6.31,4.564,12.487,7.417,12.549,7.445
	L40.189,48.102z"/>
<path fill="#D9A640" d="M44.909,44.647c-0.05-0.038-5.08-3.872-13.173-8.453l0.738-1.305c8.192,4.636,13.296,8.527,13.347,8.565
	L44.909,44.647z"/>
<path fill="#D9A640" d="M49.423,40.327c-0.037-0.043-3.775-4.39-13.045-9.209l0.692-1.331c9.567,4.974,13.345,9.389,13.501,9.574
	L49.423,40.327z"/>
<radialGradient id="SVGID_2_" cx="40.376" cy="28.9443" r="21.7015" gradientTransform="matrix(0.9394 -0.3746 0.2231 0.6577 -4.6172 16.6524)" gradientUnits="userSpaceOnUse">
	<stop  offset="0.3758" style="stop-color:#FFCC66"/>
	<stop  offset="0.6142" style="stop-color:#FDC962"/>
	<stop  offset="0.8622" style="stop-color:#F7C155"/>
	<stop  offset="1" style="stop-color:#F2BA4B"/>
	<a:midPointStop  offset="0.3758" style="stop-color:#FFCC66"/>
	<a:midPointStop  offset="0.6989" style="stop-color:#FFCC66"/>
	<a:midPointStop  offset="1" style="stop-color:#F2BA4B"/>
</radialGradient>
<path fill="url(#SVGID_2_)" d="M53.13,12.611c2.871-2.217,10.673,15.007,7.349,16.285c-1.762,0.68-6.848,4.138-8.002,6.165
	c-5.87-9.611-21.343-14.865-22.804-12.795c-6.623,9.385-11.943,2.858-9.656,0.553c4.585-4.625,5.479-8.105,8.079-8.315
	c3.342-0.272,7.67-0.973,16.711,1.912C45.613,16.672,49.58,15.354,53.13,12.611z"/>
<path fill="#D9A640" d="M53.699,11.664c-0.916,0-7.354,4.431-8.663,4.036c-7.163-2.157-12.62-2.569-17.002-1.944
	c-3.347,0.478-3.548,3.488-8.55,8.535c-3.306,3.329,3.986,10.423,10.79,0.422c0.669-0.983,15.063,2.099,22.225,13.825
	c2.039-3.577,7.068-6.486,8.249-6.941C64.822,28.029,58.017,11.664,53.699,11.664z M59.997,28.25
	c-1.669,0.644-5.592,3.345-7.479,5.5c-6.14-8.876-21.47-14.871-23.459-11.916c-5.479,8.145-10.304,3.318-8.508,1.514
	c4.798-4.842,5.438-7.883,7.605-8.097c1.004-0.1,6.706-1.225,16.668,1.913c1.707,0.537,7.443-3.243,8.72-3.955
	C55.607,12.058,63.022,27.086,59.997,28.25z"/>
<radialGradient id="SVGID_3_" cx="13.7754" cy="76.1445" r="3.904" gradientTransform="matrix(0.9991 0.0643 -0.0557 1.018 8.3751 -39.5972)" gradientUnits="userSpaceOnUse">
	<stop  offset="0.4364" style="stop-color:#FFCC66"/>
	<stop  offset="0.654" style="stop-color:#FDC962"/>
	<stop  offset="0.8686" style="stop-color:#F7C156"/>
	<stop  offset="1" style="stop-color:#F2BA4B"/>
	<a:midPointStop  offset="0.4364" style="stop-color:#FFCC66"/>
	<a:midPointStop  offset="0.7097" style="stop-color:#FFCC66"/>
	<a:midPointStop  offset="1" style="stop-color:#F2BA4B"/>
</radialGradient>
<path fill="url(#SVGID_3_)" d="M15.542,37.145c-0.659,0.763-1.49,2.02-1.959,2.789c-1.189,1.955,0.679,6.238,4.463,3.889
	c0.77-0.479,2.065-2.11,2.614-3.101C22.119,38.095,17.414,34.991,15.542,37.145z"/>
<radialGradient id="SVGID_4_" cx="-40.0537" cy="99.8008" r="4.8067" gradientTransform="matrix(0.9046 0.0919 -0.0899 1.04 67.6977 -58.2399)" gradientUnits="userSpaceOnUse">
	<stop  offset="0.4364" style="stop-color:#FFCC66"/>
	<stop  offset="0.654" style="stop-color:#FDC962"/>
	<stop  offset="0.8686" style="stop-color:#F7C156"/>
	<stop  offset="1" style="stop-color:#F2BA4B"/>
	<a:midPointStop  offset="0.4364" style="stop-color:#FFCC66"/>
	<a:midPointStop  offset="0.7097" style="stop-color:#FFCC66"/>
	<a:midPointStop  offset="1" style="stop-color:#F2BA4B"/>
</radialGradient>
<path fill="url(#SVGID_4_)" d="M20.736,40.768c-0.704,0.646-2.723,3.238-3.176,4.013c-1.259,2.146,0.818,6.112,3.902,4.095
	c0.716-0.468,4.27-4.008,4.809-5.005C27.696,41.225,22.907,38.772,20.736,40.768z"/>
<radialGradient id="SVGID_5_" cx="-31.7412" cy="104.335" r="4.1305" gradientTransform="matrix(0.9008 0.0915 -0.0901 1.0424 71.0527 -58.424)" gradientUnits="userSpaceOnUse">
	<stop  offset="0.4364" style="stop-color:#FFCC66"/>
	<stop  offset="0.654" style="stop-color:#FDC962"/>
	<stop  offset="0.8686" style="stop-color:#F7C156"/>
	<stop  offset="1" style="stop-color:#F2BA4B"/>
	<a:midPointStop  offset="0.4364" style="stop-color:#FFCC66"/>
	<a:midPointStop  offset="0.7097" style="stop-color:#FFCC66"/>
	<a:midPointStop  offset="1" style="stop-color:#F2BA4B"/>
</radialGradient>
<path fill="url(#SVGID_5_)" d="M31.748,46.705c-0.708,0.637-2.64,2.783-3.093,3.56c-1.349,2.317,1.442,5.176,3.933,3.473
	c1.467-1.002,2.608-2.649,3.075-3.703C36.938,47.163,34.393,44.314,31.748,46.705z"/>
<radialGradient id="SVGID_6_" cx="-28.6006" cy="100.8418" r="5.1272" gradientTransform="matrix(0.913 0.0928 -0.0879 1.017 62.9898 -55.1983)" gradientUnits="userSpaceOnUse">
	<stop  offset="0.4364" style="stop-color:#FFCC66"/>
	<stop  offset="0.654" style="stop-color:#FDC962"/>
	<stop  offset="0.8686" style="stop-color:#F7C156"/>
	<stop  offset="1" style="stop-color:#F2BA4B"/>
	<a:midPointStop  offset="0.4364" style="stop-color:#FFCC66"/>
	<a:midPointStop  offset="0.7097" style="stop-color:#FFCC66"/>
	<a:midPointStop  offset="1" style="stop-color:#F2BA4B"/>
</radialGradient>
<path fill="url(#SVGID_6_)" d="M26.975,43.272c-0.715,0.618-3.927,4.142-4.382,4.898c-1.681,2.782,2.01,5.456,4.341,3.928
	c1.957-1.285,4.045-4.543,4.692-5.416C33.283,44.445,29.648,40.949,26.975,43.272z"/>
<path fill="#D9A640" d="M12.942,39.544c0.511-0.841,1.351-2.103,2.032-2.891c2.426-2.79,8.25,0.991,6.342,4.434
	c-0.56,1.01-1.924,2.781-2.873,3.372C13.847,47.313,11.41,42.062,12.942,39.544z M16.109,37.638
	c-0.581,0.669-1.365,1.831-1.885,2.686c-0.736,1.212,0.298,4.802,3.426,2.862c0.583-0.363,1.793-1.815,2.353-2.827
	C21.013,38.541,17.376,36.176,16.109,37.638z"/>
<path fill="#D9A640" d="M16.912,44.4c0.501-0.853,2.566-3.498,3.316-4.187c2.749-2.526,8.557,0.575,6.703,4.012
	c-0.626,1.16-4.282,4.771-5.059,5.277C18.086,51.979,15.265,47.209,16.912,44.4z M21.244,41.319c-0.632,0.58-2.61,3.114-3.035,3.84
	c-0.813,1.386,0.375,4.703,2.842,3.089c0.65-0.426,4.107-3.896,4.56-4.734C26.579,41.717,22.856,39.84,21.244,41.319z"/>
<path fill="#D9A640" d="M28.006,49.888c0.525-0.898,2.545-3.115,3.239-3.74c3.04-2.748,6.829,0.309,5.104,4.19
	c-0.551,1.241-1.796,2.965-3.339,4.019C29.924,56.473,26.224,52.951,28.006,49.888z M32.251,47.262
	c-0.678,0.611-2.544,2.69-2.947,3.381c-0.951,1.635,1.106,3.675,2.859,2.476c1.293-0.883,2.365-2.375,2.814-3.388
	C35.813,47.846,34.433,45.292,32.251,47.262z"/>
<path fill="#D9A640" d="M21.949,47.783c0.509-0.846,3.785-4.431,4.533-5.078c3.088-2.681,8.287,0.997,5.746,4.424
	c-0.097,0.131-3.108,4.433-4.882,5.597C24.301,54.721,19.88,51.211,21.949,47.783z M27.467,43.839
	c-0.71,0.614-3.838,4.063-4.231,4.719c-1.308,2.168,1.749,3.922,3.287,2.913c1.532-1.006,4.396-5.096,4.5-5.234
	C32.511,44.226,29.219,42.315,27.467,43.839z"/>
</svg>
