<?xml version="1.0" encoding="utf-8"?>
<!-- Generator: Adobe Illustrator 15.0.0, SVG Export Plug-In . SVG Version: 6.00 Build 0)  -->
<!DOCTYPE svg PUBLIC "-//W3C//DTD SVG 1.1//EN" "http://www.w3.org/Graphics/SVG/1.1/DTD/svg11.dtd" [
	<!ENTITY ns_flows "http://ns.adobe.com/Flows/1.0/">
	<!ENTITY ns_extend "http://ns.adobe.com/Extensibility/1.0/">
	<!ENTITY ns_ai "http://ns.adobe.com/AdobeIllustrator/10.0/">
	<!ENTITY ns_graphs "http://ns.adobe.com/Graphs/1.0/">
]>
<svg version="1.1" id="Layer_1" xmlns:x="&ns_extend;" xmlns:i="&ns_ai;" xmlns:graph="&ns_graphs;"
	 xmlns="http://www.w3.org/2000/svg" xmlns:xlink="http://www.w3.org/1999/xlink" xmlns:a="http://ns.adobe.com/AdobeSVGViewerExtensions/3.0/"
	 x="0px" y="0px" width="64px" height="64px" viewBox="0 0 64 64" enable-background="new 0 0 64 64" xml:space="preserve">
<linearGradient id="SVGID_1_" gradientUnits="userSpaceOnUse" x1="32.0005" y1="58" x2="32.0005" y2="2.0005">
	<stop  offset="0" style="stop-color:#FFA027"/>
	<stop  offset="0.2723" style="stop-color:#FFC151"/>
	<stop  offset="0.7633" style="stop-color:#FFC93F"/>
	<stop  offset="1" style="stop-color:#FFE261"/>
	<a:midPointStop  offset="0" style="stop-color:#FFA027"/>
	<a:midPointStop  offset="0.5" style="stop-color:#FFA027"/>
	<a:midPointStop  offset="0.2723" style="stop-color:#FFC151"/>
	<a:midPointStop  offset="0.5" style="stop-color:#FFC151"/>
	<a:midPointStop  offset="0.7633" style="stop-color:#FFC93F"/>
	<a:midPointStop  offset="0.5" style="stop-color:#FFC93F"/>
	<a:midPointStop  offset="1" style="stop-color:#FFE261"/>
</linearGradient>
<circle fill="url(#SVGID_1_)" cx="32" cy="30" r="28"/>
<ellipse fill="#302C3B" cx="22.666" cy="21.867" rx="4.199" ry="5.6"/>
<ellipse fill="#302C3B" cx="41.332" cy="21.867" rx="4.199" ry="5.6"/>
<path fill="#302C3B" d="M39.062,38.422c0,3.688-9.213,3.688-9.213,0C29.849,34.739,39.062,34.739,39.062,38.422z"/>
<path fill="#917524" d="M48.846,12.57c-3.621-2.787-8.98-4.193-12-3.338c-0.637,0.184-1.016,2.543-0.465,2.461
	c4.227-0.631,8.846,0.115,12.35,2.473C49.203,14.482,49.391,12.988,48.846,12.57z"/>
<path fill="#917524" d="M15.156,12.574c3.619-2.791,8.98-4.195,11.998-3.34c0.639,0.18,1.018,2.543,0.467,2.459
	c-4.227-0.629-8.846,0.115-12.35,2.473C14.801,14.484,14.611,12.99,15.156,12.574z"/>
<path fill="#99A8AE" d="M33.465,32.463c0,4.106-2.64,11.563-2.64,11.563l8.715-0.458c0,0,1.504-5.851,1.764-10.978
	C41.615,26.495,33.465,26.258,33.465,32.463z"/>
<path fill="#FFFFFF" d="M38.105,41.78l-4.591,0.242c0,0,1.811-5.065,1.811-9.56c0-3.644,4.227-3.619,4.118,0.072
	C39.296,37.501,38.105,41.78,38.105,41.78z"/>
<path fill="#99A8AE" d="M38.65,39.475c-4.188,0-9.657,2.346-11.289,8.953c-3.617,13.867,14.263,17.996,17.813,8.221
	c1.305-3.685,2.955-5.419,4.159-6.685c4.357-3.97-0.294-7.827-2.975-6.904C45.054,40.887,42.135,39.475,38.65,39.475L38.65,39.475z"
	/>
<g>
	<path fill="#FFFFFF" d="M49.191,46.801c-0.009,1.514-3.508,2.709-5.815,9.226c-2.636,7.444-17.148,4.591-14.25-7.153
		c2.468-9.998,14.997-8.713,15.994-3.836c0.295,1.43-1.399,2.148-1.408,2.134c-2.03-3.233-5.26-3.49-6.697-3.3
		c3.795,0.047,9.339,5.608,4.647,6.684c-2.731-3.138-6.109-3.108-7.834-2.892c4.06,0.199,6.244,1.805,7.105,3.729
		c0.828,1.856-0.626,4.763-2.501,2.767c-1.25-1.332-2.706-2.063-5.019-2.001c2.365,0.63,3.673,1.413,4.771,2.943
		c1.945,2.718,4.987-0.916,3.897-3.563c2.001-0.617,2.51-2.089,2.025-3.406c1.675-0.839,1.896-1.972,1.813-2.714
		C47.292,43.932,49.2,45.404,49.191,46.801z"/>
</g>
</svg>
