<?xml version="1.0" encoding="utf-8"?>
<!-- Generator: Adobe Illustrator 15.0.0, SVG Export Plug-In . SVG Version: 6.00 Build 0)  -->
<!DOCTYPE svg PUBLIC "-//W3C//DTD SVG 1.1//EN" "http://www.w3.org/Graphics/SVG/1.1/DTD/svg11.dtd" [
	<!ENTITY ns_flows "http://ns.adobe.com/Flows/1.0/">
	<!ENTITY ns_extend "http://ns.adobe.com/Extensibility/1.0/">
	<!ENTITY ns_ai "http://ns.adobe.com/AdobeIllustrator/10.0/">
	<!ENTITY ns_graphs "http://ns.adobe.com/Graphs/1.0/">
]>
<svg version="1.1" id="Layer_1" xmlns:x="&ns_extend;" xmlns:i="&ns_ai;" xmlns:graph="&ns_graphs;"
	 xmlns="http://www.w3.org/2000/svg" xmlns:xlink="http://www.w3.org/1999/xlink" xmlns:a="http://ns.adobe.com/AdobeSVGViewerExtensions/3.0/"
	 x="0px" y="0px" width="64px" height="64px" viewBox="0 0 64 64" enable-background="new 0 0 64 64" xml:space="preserve">
<linearGradient id="SVGID_1_" gradientUnits="userSpaceOnUse" x1="31.4312" y1="49.1719" x2="31.4312" y2="-10.8286" gradientTransform="matrix(1 0 0 1 0.5693 12.8286)">
	<stop  offset="0" style="stop-color:#FFA027"/>
	<stop  offset="0.2723" style="stop-color:#FFC151"/>
	<stop  offset="0.7633" style="stop-color:#FFC93F"/>
	<stop  offset="1" style="stop-color:#FFE261"/>
	<a:midPointStop  offset="0" style="stop-color:#FFA027"/>
	<a:midPointStop  offset="0.5" style="stop-color:#FFA027"/>
	<a:midPointStop  offset="0.2723" style="stop-color:#FFC151"/>
	<a:midPointStop  offset="0.5" style="stop-color:#FFC151"/>
	<a:midPointStop  offset="0.7633" style="stop-color:#FFC93F"/>
	<a:midPointStop  offset="0.5" style="stop-color:#FFC93F"/>
	<a:midPointStop  offset="1" style="stop-color:#FFE261"/>
</linearGradient>
<circle fill="url(#SVGID_1_)" cx="32" cy="32" r="30"/>
<path fill="#FFFFFF" d="M28,25.422c0,4.693-3.81,8.502-8.5,8.5c-4.693,0-8.5-3.807-8.5-8.5c0-4.691,3.807-8.5,8.5-8.5
	C24.19,16.922,28,20.73,28,25.422z"/>
<path fill="#FFFFFF" d="M51,20c0,5.523-4.48,10-10,10c-5.522,0-10-4.477-10-10c0-5.52,4.478-10,10-10C46.52,10,51,14.48,51,20z"/>
<circle fill="#302C3B" cx="22" cy="26" r="3.5"/>
<path fill="#302C3B" d="M42.5,19c0,2.486-2.018,4.5-4.5,4.5c-2.488,0-4.5-2.014-4.5-4.5s2.012-4.5,4.5-4.5
	C40.482,14.5,42.5,16.514,42.5,19z"/>
<path fill="#302C3B" d="M51.717,34.402c-0.155-0.879-0.869-1.887-2.405-1.908c-3.94-0.053-9.702,0.195-16.965,1.477l0,0l0,0h-0.002
	l0,0c-7.256,1.279-12.76,3.018-16.444,4.414c-1.435,0.545-1.762,1.736-1.606,2.615c1.402,7.957,8.991,14.877,21.523,12.666l0,0
	h0.002l0,0l0,0C48.355,51.455,53.119,42.357,51.717,34.402z"/>
<linearGradient id="SVGID_2_" gradientUnits="userSpaceOnUse" x1="42.1914" y1="-62.0371" x2="74.1914" y2="-62.0371" gradientTransform="matrix(0.9848 -0.1736 0.1736 0.9848 -13.2357 110.5827)">
	<stop  offset="0" style="stop-color:#CFD7E6"/>
	<stop  offset="0.0368" style="stop-color:#DAE0EC"/>
	<stop  offset="0.1263" style="stop-color:#EEF1F6"/>
	<stop  offset="0.2147" style="stop-color:#FBFCFD"/>
	<stop  offset="0.3" style="stop-color:#FFFFFF"/>
	<stop  offset="0.7" style="stop-color:#FFFFFF"/>
	<stop  offset="0.7853" style="stop-color:#FBFCFD"/>
	<stop  offset="0.8737" style="stop-color:#EEF1F6"/>
	<stop  offset="0.9632" style="stop-color:#DAE0EC"/>
	<stop  offset="1" style="stop-color:#CFD7E6"/>
	<a:midPointStop  offset="0" style="stop-color:#CFD7E6"/>
	<a:midPointStop  offset="0.3" style="stop-color:#CFD7E6"/>
	<a:midPointStop  offset="0.3" style="stop-color:#FFFFFF"/>
	<a:midPointStop  offset="0.5" style="stop-color:#FFFFFF"/>
	<a:midPointStop  offset="0.7" style="stop-color:#FFFFFF"/>
	<a:midPointStop  offset="0.7" style="stop-color:#FFFFFF"/>
	<a:midPointStop  offset="1" style="stop-color:#CFD7E6"/>
</linearGradient>
<path fill="url(#SVGID_2_)" d="M47.332,35.428c-2.536,0.064-7.877,0.336-14.465,1.496c-6.587,1.162-11.697,2.734-14.104,3.541
	c-1.417,0.475-1.411,1.02-1.18,1.75c0.14,0.434,0.329,0.959,0.574,1.512c0.271,0.615,0.43,0.762,1.57,0.572
	c2.191-0.359,25.828-4.525,28.01-4.939c1.138-0.213,1.23-0.402,1.28-1.074c0.041-0.604,0.041-1.162,0.02-1.615
	C49.011,35.902,48.824,35.389,47.332,35.428z"/>
<linearGradient id="SVGID_3_" gradientUnits="userSpaceOnUse" x1="277.4219" y1="-204.0693" x2="277.4219" y2="-187.2964" gradientTransform="matrix(0.9852 -0.4431 0.4102 0.912 -150.7167 353.9438)">
	<stop  offset="0" style="stop-color:#B32E24"/>
	<stop  offset="0.0103" style="stop-color:#B63026"/>
	<stop  offset="0.1122" style="stop-color:#D14136"/>
	<stop  offset="0.2241" style="stop-color:#E54F42"/>
	<stop  offset="0.3496" style="stop-color:#F4594B"/>
	<stop  offset="0.4998" style="stop-color:#FC5E50"/>
	<stop  offset="0.7394" style="stop-color:#FF6052"/>
	<a:midPointStop  offset="0" style="stop-color:#B32E24"/>
	<a:midPointStop  offset="0.2066" style="stop-color:#B32E24"/>
	<a:midPointStop  offset="0.7394" style="stop-color:#FF6052"/>
</linearGradient>
<path fill="url(#SVGID_3_)" d="M31.981,51.053c0.3,0.662,0.801,1.779,1.338,2.973c2.935,6.525,8.009,8.174,12.453,6.178
	c4.44-2,6.571-6.895,3.639-13.416c-0.54-1.197-1.037-2.311-1.34-2.975c-1.754-3.898-8.998,1.5-8.998,1.5
	S30.226,47.154,31.981,51.053z"/>
<path fill="#B81B1B" d="M37.84,45.625l5.518,9.209l-3.234-10.236c-0.644,0.41-1.05,0.715-1.05,0.715S38.572,45.416,37.84,45.625z"/>
</svg>
