<?xml version="1.0" encoding="utf-8"?>
<!-- Generator: Adobe Illustrator 15.0.0, SVG Export Plug-In . SVG Version: 6.00 Build 0)  -->
<!DOCTYPE svg PUBLIC "-//W3C//DTD SVG 1.1//EN" "http://www.w3.org/Graphics/SVG/1.1/DTD/svg11.dtd" [
	<!ENTITY ns_flows "http://ns.adobe.com/Flows/1.0/">
	<!ENTITY ns_extend "http://ns.adobe.com/Extensibility/1.0/">
	<!ENTITY ns_ai "http://ns.adobe.com/AdobeIllustrator/10.0/">
	<!ENTITY ns_graphs "http://ns.adobe.com/Graphs/1.0/">
]>
<svg version="1.1" id="Layer_1" xmlns:x="&ns_extend;" xmlns:i="&ns_ai;" xmlns:graph="&ns_graphs;"
	 xmlns="http://www.w3.org/2000/svg" xmlns:xlink="http://www.w3.org/1999/xlink" xmlns:a="http://ns.adobe.com/AdobeSVGViewerExtensions/3.0/"
	 x="0px" y="0px" width="64px" height="64px" viewBox="0 0 64 64" enable-background="new 0 0 64 64" xml:space="preserve">
<linearGradient id="SVGID_1_" gradientUnits="userSpaceOnUse" x1="32.0005" y1="62" x2="32.0005" y2="2.0005">
	<stop  offset="0" style="stop-color:#FFA027"/>
	<stop  offset="0.2723" style="stop-color:#FFC151"/>
	<stop  offset="0.7633" style="stop-color:#FFC93F"/>
	<stop  offset="1" style="stop-color:#FFE261"/>
	<a:midPointStop  offset="0" style="stop-color:#FFA027"/>
	<a:midPointStop  offset="0.5" style="stop-color:#FFA027"/>
	<a:midPointStop  offset="0.2723" style="stop-color:#FFC151"/>
	<a:midPointStop  offset="0.5" style="stop-color:#FFC151"/>
	<a:midPointStop  offset="0.7633" style="stop-color:#FFC93F"/>
	<a:midPointStop  offset="0.5" style="stop-color:#FFC93F"/>
	<a:midPointStop  offset="1" style="stop-color:#FFE261"/>
</linearGradient>
<circle fill="url(#SVGID_1_)" cx="32" cy="32" r="30"/>
<path fill="#302C3B" d="M21.193,42.416c7.875,3.605,18.568,2.865,21.717,2.865c0.844,0,1.338,0.305,1.135,0.92
	c-2.271,6.887-19.297,6.887-23.982-2.703C19.541,42.426,20.471,42.086,21.193,42.416z"/>
<linearGradient id="SVGID_2_" gradientUnits="userSpaceOnUse" x1="36.1162" y1="49.2432" x2="39.9912" y2="59.9307">
	<stop  offset="0.0303" style="stop-color:#BDEBFF"/>
	<stop  offset="0.1697" style="stop-color:#75D6FF"/>
	<stop  offset="0.3955" style="stop-color:#72D5FE"/>
	<stop  offset="0.5504" style="stop-color:#69D2FA"/>
	<stop  offset="0.6841" style="stop-color:#5ACDF4"/>
	<stop  offset="0.8056" style="stop-color:#44C6EA"/>
	<stop  offset="0.9179" style="stop-color:#29BDDF"/>
	<stop  offset="1" style="stop-color:#0FB4D4"/>
	<a:midPointStop  offset="0.0303" style="stop-color:#BDEBFF"/>
	<a:midPointStop  offset="0.5" style="stop-color:#BDEBFF"/>
	<a:midPointStop  offset="0.1697" style="stop-color:#75D6FF"/>
	<a:midPointStop  offset="0.7782" style="stop-color:#75D6FF"/>
	<a:midPointStop  offset="1" style="stop-color:#0FB4D4"/>
</linearGradient>
<path fill="url(#SVGID_2_)" d="M29.927,50.588c0.801-1.336,5.79-0.934,5.79-0.934c2.699-1.781,5.75-1.969,6.801-1.168
	c-1.752,5.777,2.367,11.674-1.945,11.674c-4.125,0,1.656-10.189-4.25-9.125C32.931,51.646,29.927,50.588,29.927,50.588z"/>
<path fill="#917524" d="M53.344,20.273c-4.158-3.201-10.314-4.814-13.779-3.832c-0.732,0.208-1.168,2.92-0.535,2.826
	c4.854-0.725,10.158,0.131,14.184,2.838C53.752,22.469,53.969,20.754,53.344,20.273z"/>
<path fill="#917524" d="M10.959,19.496c3.537-3.877,9.319-6.534,12.904-6.168c0.755,0.076,1.655,2.674,1.016,2.689
	c-4.905,0.131-9.981,1.893-13.474,5.257C10.936,21.729,10.425,20.077,10.959,19.496z"/>
<path fill="#302C3B" d="M36.762,32.98c4.281-3.271,10.932-3.272,15.213,0c0.654,0.502,1.045-0.041,0.838-0.465
	c-4.16-8.445-12.729-8.445-16.887,0C35.715,32.939,36.105,33.482,36.762,32.98z"/>
<path fill="#302C3B" d="M12.025,32.98c4.281-3.271,10.932-3.272,15.212,0c0.654,0.502,1.045-0.041,0.838-0.465
	c-4.16-8.445-12.728-8.445-16.886,0C10.979,32.939,11.369,33.482,12.025,32.98z"/>
</svg>
