<?xml version="1.0" encoding="utf-8"?>
<!-- Generator: Adobe Illustrator 19.0.0, SVG Export Plug-In . SVG Version: 6.00 Build 0)  -->
<svg version="1.1" id="Layer_1" xmlns="http://www.w3.org/2000/svg" xmlns:xlink="http://www.w3.org/1999/xlink" x="0px" y="0px"
	 width="64px" height="64px" viewBox="0 0 64 64" enable-background="new 0 0 64 64" xml:space="preserve">
<path fill="#947D41" d="M19.938,16.643c-8.131,34.904-7.388,34.156,9.73,34.156C20.195,44.172,38.342,16.168,19.938,16.643z"/>
<path fill="#BA9D52" d="M17.005,16.102c-5.935,26.519-0.814,33.33,3.731,34.697h5.21C13.757,42.211,32.811,15.58,17.005,16.102z"/>
<path fill="#947D41" d="M43.861,16.641c8.132,34.906,7.387,34.158-9.731,34.158C42.843,45.479,25.457,16.166,43.861,16.641z"/>
<path fill="#BA9D52" d="M46.793,16.1c8.675,24.127-0.018,33.582-3.732,34.699h-5.207C50.045,42.91,30.99,15.578,46.793,16.1z"/>
<path fill="#EFDE8B" d="M48.236,29.065c2.512,6.133,0.027,18.723-5.176,21.734c5.767,0,9.277-7.979,10.99-18.955
	C56.189,18.127,43.762,18.119,48.236,29.065z"/>
<path fill="#EFDE8B" d="M10.394,34.389c2.1,9.906,4.685,16.41,10.343,16.41c-6.309-6.531-5.566-20.309-3.772-23.736
	C26.103,21.621,6.84,17.633,10.394,34.389z"/>
<path fill="#8E3ED6" d="M13.077,52.43c2.302-1.412,11.849-5.139,11.849-5.139h14.22c0,0,9.538,3.721,11.828,5.135
	C54.298,54.481,55,62,55,62H9C9,62,9.741,54.473,13.077,52.43z"/>
<path fill="#D6A67A" d="M24.832,48.94c0,5.725,14.336,5.725,14.336,0c0-3.492,0-9.264,0-9.264H24.832
	C24.832,39.676,24.832,44.432,24.832,48.94z"/>
<path fill="#E3C19B" d="M32,8.254c-10.836,0-16.054,8.824-15.402,20.17c0.134,2.281,0.768,5.57,1.551,8.391
	C19.773,42.674,28.35,48.575,32,48.575c3.649,0,12.227-5.9,13.85-11.76c0.785-2.82,1.419-6.109,1.555-8.391
	C48.054,17.078,42.838,8.254,32,8.254z"/>
<g>
	<g>
		<g>
			<g>
				<path fill="#594640" d="M43.941,24.301c-2.442-1.453-6.82-1.633-8.555-0.641c-0.366,0.201-0.268,1.252,0.05,1.121
					c2.472-1.029,6.235-1.08,8.556,0.109C44.305,25.047,44.311,24.514,43.941,24.301z"/>
			</g>
			<g>
				<path fill="#594640" d="M20.06,24.301c2.44-1.453,6.818-1.633,8.555-0.641c0.366,0.201,0.27,1.252-0.051,1.121
					c-2.473-1.029-6.234-1.082-8.555,0.109C19.697,25.047,19.689,24.514,20.06,24.301z"/>
			</g>
		</g>
	</g>
	<path fill="#D6A67A" d="M35.359,35.256c0,2.186-6.719,2.186-6.719,0C28.641,34.752,35.359,34.752,35.359,35.256z"/>
</g>
<path fill="#EFDE8B" d="M44.107,9.832c-7.598,7.785-0.346,8.287,4.129,19.232c2.512,6.133,4.101,13.756,5.814,2.779
	C56.189,18.127,47.969,8.688,44.107,9.832z"/>
<path fill="#EFDE8B" d="M25.457,6.85C15.822,9.117,6.84,17.633,10.394,34.389c2.1,9.906,4.776-3.898,6.57-7.326
	c9.139-5.441,24.769-9.56,27.144-17.23C45.313,8.061,35.099,4.325,25.457,6.85z"/>
<g>
	<path fill="#BA9D52" d="M18.074,19.055c4.074-0.826,23.566-1.215,26.033-9.223C39.502,13.502,34.729,14.502,18.074,19.055z"/>
	<path fill="#BA9D52" d="M11.05,31.795c6.835-9.123,29.228-8.117,33.058-21.963C36.672,21.453,12.918,23.024,11.05,31.795z"/>
	<path fill="#BA9D52" d="M41.855,11.729c-1.766,2.781,4.364-1.303,10.971,16.6C51.198,17.862,45.615,10.657,41.855,11.729z"/>
</g>
<path fill="#45332C" d="M28.562,29.485c-2.015,1.284-5.146,1.284-7.16,0c-0.308-0.199-0.491,0.016-0.394,0.182
	c1.957,3.318,5.99,3.318,7.946,0C29.054,29.5,28.869,29.285,28.562,29.485z"/>
<path fill="#45332C" d="M42.6,29.485c-2.015,1.284-5.144,1.284-7.16,0c-0.308-0.199-0.49,0.016-0.395,0.182
	c1.958,3.318,5.991,3.318,7.947,0C43.093,29.5,42.908,29.285,42.6,29.485z"/>
<path fill="#BF8C6B" d="M27.297,42.274c2.866-1.662,6.547-1.662,9.411,0c0.406,0.234,0.457-0.018,0.331-0.219
	c-2.121-3.389-7.953-3.389-10.074,0C26.84,42.256,26.889,42.508,27.297,42.274z"/>
<path opacity="0.3" d="M47.1,50.922c0,0-13.919-14.139-4.958-28.047c-3.653,0.201-4.164,5.016-4.288,3.141
	c-0.171-2.584-1.127-7.516-1.256-8.846c-0.229-2.408-3.308-2.357-3.578,0.047c-0.155,1.377,0.48,6.053,0.34,6.068
	c-0.133,0.012-2.607-5.853-2.98-6.709c-1.03-2.371-3.753-1.635-3.359,0.953c0.438,2.875,2.237,6.373,2.027,6.449
	c-0.179,0.064-2.94-3.934-3.402-4.731c-1.194-2.061-4.213-0.242-2.797,1.922c0.054,0.082,3.456,5.232,3.262,5.303
	c-0.161,0.059-2.487-2.24-2.487-2.24c-1.368-1.189-3.329,0.207-2.227,1.781c2.456,3.513,3.125,3.463,4.434,7.705
	c0.643,2.086,1.855,5.107,3.572,5.738c0.068,0.363,0.162,0.74,0.282,1.131c-0.217,0.25-0.319,0.484-0.268,0.693
	C32.501,53.621,36.016,62,36.016,62H55C55,62,49.28,53.541,47.1,50.922z"/>
<path fill="#8E3ED6" d="M30.442,40.153c-0.429-1.715,9.51-5.307,9.988-3.201C42.052,44.082,54,62,54,62l-14.72-0.002
	C39.28,61.998,33.528,52.492,30.442,40.153z"/>
<path fill="#EDD0AC" d="M39.724,36.782c0.455,1.248-8.385,4.465-8.838,3.217C27.897,31.787,36.841,28.858,39.724,36.782z"/>
<path fill="#EDD0AC" d="M41.347,23.051c-2.975,1.156-2.15,4.227-3.282,3.828c-0.233-0.082-0.565-0.781-0.59-1.141
	c-0.167-2.582-0.691-7.273-0.819-8.604c-0.229-2.406-3.527-2.144-3.297,0.264c0.012,0.119,1.121,8.869,0.98,8.885
	c-0.133,0.012-3.56-9.123-3.934-9.979c-1.03-2.371-4.087-0.959-3.002,1.387c0.043,0.096,3.928,9.686,3.718,9.762
	c-0.179,0.064-4.812-7.441-5.298-8.223c-1.365-2.197-4.186-0.356-2.77,1.807c0.054,0.082,5.1,7.496,4.905,7.566
	c-0.161,0.059-4.162-4.289-4.162-4.289c-1.359-1.662-3.496,0.055-2.136,1.719c2.888,3.533,3.842,3.848,5.15,8.09
	c1.139,3.693,4.199,5.516,8.339,4.016c9.049-3.279,4.12-8.851,8.233-14.066C43.896,23.426,42.831,22.477,41.347,23.051z"/>
<path fill="#732EB0" d="M16,62h1C16.5,55.334,16.5,55.334,16,62z"/>
</svg>
