<?xml version="1.0" encoding="utf-8"?>
<!-- Generator: Adobe Illustrator 19.0.0, SVG Export Plug-In . SVG Version: 6.00 Build 0)  -->
<svg version="1.1" id="Layer_1" xmlns="http://www.w3.org/2000/svg" xmlns:xlink="http://www.w3.org/1999/xlink" x="0px" y="0px"
	 width="64px" height="64px" viewBox="0 0 64 64" enable-background="new 0 0 64 64" xml:space="preserve">
<path fill="#7AB51D" d="M12.257,47.336c2.4-1.572,12.361-5.726,12.361-5.726H39.46c0,0,9.951,4.144,12.339,5.723
	C55.269,49.621,56,60,56,60H8C8,60,8.775,49.613,12.257,47.336z"/>
<path fill="#E6B045" d="M24.224,43.445c0,6.381,15.553,6.381,15.553,0c0-3.891,0-10.324,0-10.324H24.224
	C24.224,33.121,24.224,38.422,24.224,43.445z"/>
<path fill="#E6B045" d="M16.611,20.873c-5.147-0.928-1.127,13.463,2.902,9.494C21.379,28.525,19.018,21.309,16.611,20.873z"/>
<path fill="#E6B045" d="M47.391,20.873c-2.406,0.435-4.77,7.652-2.9,9.494C48.519,34.336,52.534,19.945,47.391,20.873z"/>
<path fill="#FFCC66" d="M32.001,4c-10.642,0-15.769,8.051-15.126,19.246c0.128,2.254,1.524,9.6,2.843,12.234
	c1.348,2.695,5.86,6.852,8.625,7.713c1.746,0.543,5.568,0.543,7.314,0c2.765-0.861,7.277-5.018,8.627-7.713
	c1.318-2.635,2.714-9.98,2.843-12.234C47.771,12.051,42.643,4,32.001,4z"/>
<path fill="#E6B045" d="M35.3,30.518c0,2.148-6.599,2.148-6.599,0C28.701,30.025,35.3,30.025,35.3,30.518z"/>
<path fill="#594640" d="M32.001,4C24.68,4,20.257,6.418,18.35,5.49c0,0-0.207,1.248,0.54,2.061c0,0-0.789,0.684-2.063-0.469
	c-1.213,3.939,2.388,6.221,15.174,6.221s9.731-3.113,16.017,2.356C47.401,8.918,43.119,4,32.001,4z"/>
<path fill="#453631" d="M37.415,9.875c-7.04,2.6-9.613-2.088-16.255-2.541c3.159,1.492,4.701,3.787,7.295,5.443
	c-5.645-1.889-9.789-5.141-10.103-7.275c0,0-0.942,3.117,2.784,5.447c-3.563,0.33-4.307-3.855-4.307-3.855
	c-1.804,2.898-1.554,12.246,0.45,19.182c0.334-2.475-0.427-3.498,0.717-6.48c3.425-8.914,1.221-5.172,14.007-5.172
	c12.784,0,10.477-3.414,14.004,5.172c1.053,2.559,0.384,4.006,0.719,6.48C50.929,10.637,44.884,7.119,37.415,9.875z"/>
<path fill="#C1873C" d="M43.983,20.631c-2.434-1.207-7.091-1.268-8.825-0.426c-0.371,0.164-0.127,1.311,0.186,1.199
	c2.419-0.895,6.318-0.916,8.582,0.078C44.227,21.609,44.353,20.801,43.983,20.631z"/>
<path fill="#C1873C" d="M20.018,20.631c2.434-1.207,7.09-1.268,8.826-0.426c0.371,0.164,0.127,1.311-0.186,1.199
	c-2.422-0.895-6.317-0.916-8.583,0.078C19.774,21.609,19.649,20.801,20.018,20.631z"/>
<path fill="#45332C" d="M28.561,24.754c-2.016,1.285-5.145,1.285-7.16,0c-0.308-0.198-0.491,0.016-0.393,0.182
	c1.957,3.318,5.99,3.318,7.946,0C29.053,24.77,28.868,24.556,28.561,24.754z"/>
<path fill="#45332C" d="M42.6,24.754c-2.016,1.285-5.145,1.285-7.16,0c-0.308-0.198-0.49,0.016-0.395,0.182
	c1.958,3.318,5.991,3.318,7.947,0C43.092,24.77,42.907,24.556,42.6,24.754z"/>
<path fill="#C1873C" d="M27.296,37.543c2.866-1.662,6.547-1.662,9.411,0c0.406,0.234,0.457-0.018,0.331-0.219
	c-2.121-3.389-7.953-3.389-10.074,0C26.839,37.525,26.888,37.777,27.296,37.543z"/>
<path fill="#529320" d="M15,60h1C15.5,53.333,15.5,53.333,15,60z"/>
<path opacity="0.3" d="M45.585,44.458c0,0-11.404-9.675-2.443-23.583c-3.653,0.201-4.164,5.016-4.288,3.141
	c-0.171-2.584-1.127-7.516-1.256-8.846c-0.228-2.408-3.308-2.357-3.578,0.047c-0.155,1.377,0.48,6.052,0.34,6.068
	c-0.133,0.012-2.607-5.853-2.981-6.709c-1.03-2.371-3.753-1.635-3.359,0.953c0.438,2.875,2.237,6.373,2.027,6.449
	c-0.179,0.064-2.94-3.933-3.402-4.73c-1.194-2.061-4.213-0.242-2.797,1.922c0.054,0.082,3.456,5.232,3.262,5.302
	c-0.161,0.059-2.487-2.24-2.487-2.24c-1.368-1.189-3.329,0.206-2.228,1.781c2.456,3.512,3.125,3.462,4.434,7.705
	c0.642,2.086,1.855,5.108,3.572,5.739c0.068,0.363,0.162,0.74,0.282,1.131c-0.217,0.25-0.319,0.484-0.267,0.693
	C33.501,51.621,37.016,60,37.016,60H56L45.585,44.458z"/>
<path fill="#7AB51D" d="M31.442,38.152c-0.429-1.715,9.51-5.307,9.988-3.201C43.052,42.082,55,60,55,60l-14.72-0.002
	C40.28,59.998,34.528,50.492,31.442,38.152z"/>
<path fill="#FFD580" d="M40.724,34.781c0.455,1.248-8.385,4.465-8.838,3.217C28.897,29.787,37.841,26.857,40.724,34.781z"/>
<path fill="#FFD580" d="M42.347,21.051c-2.975,1.156-2.15,4.227-3.282,3.828c-0.233-0.082-0.565-0.781-0.59-1.141
	c-0.167-2.582-0.69-7.273-0.819-8.604c-0.229-2.406-3.527-2.145-3.297,0.264c0.012,0.119,1.121,8.869,0.981,8.885
	c-0.133,0.012-3.561-9.123-3.934-9.978c-1.03-2.371-4.087-0.959-3.002,1.387c0.043,0.096,3.928,9.686,3.718,9.762
	c-0.179,0.064-4.812-7.441-5.298-8.223c-1.365-2.197-4.186-0.355-2.77,1.807c0.054,0.082,5.1,7.496,4.905,7.566
	c-0.161,0.059-4.162-4.289-4.162-4.289c-1.359-1.662-3.496,0.055-2.136,1.719c2.888,3.533,3.842,3.848,5.15,8.09
	c1.139,3.693,4.199,5.516,8.339,4.016c9.049-3.279,4.12-8.852,8.233-14.066C44.896,21.426,43.831,20.477,42.347,21.051z"/>
</svg>
