<?xml version="1.0" encoding="utf-8"?>
<!-- Generator: Adobe Illustrator 15.0.0, SVG Export Plug-In . SVG Version: 6.00 Build 0)  -->
<!DOCTYPE svg PUBLIC "-//W3C//DTD SVG 1.1//EN" "http://www.w3.org/Graphics/SVG/1.1/DTD/svg11.dtd" [
	<!ENTITY ns_flows "http://ns.adobe.com/Flows/1.0/">
	<!ENTITY ns_extend "http://ns.adobe.com/Extensibility/1.0/">
	<!ENTITY ns_ai "http://ns.adobe.com/AdobeIllustrator/10.0/">
	<!ENTITY ns_graphs "http://ns.adobe.com/Graphs/1.0/">
]>
<svg version="1.1" id="Layer_1" xmlns:x="&ns_extend;" xmlns:i="&ns_ai;" xmlns:graph="&ns_graphs;"
	 xmlns="http://www.w3.org/2000/svg" xmlns:xlink="http://www.w3.org/1999/xlink" xmlns:a="http://ns.adobe.com/AdobeSVGViewerExtensions/3.0/"
	 x="0px" y="0px" width="64px" height="64px" viewBox="0 0 64 64" enable-background="new 0 0 64 64" xml:space="preserve">
<linearGradient id="SVGID_1_" gradientUnits="userSpaceOnUse" x1="32.0005" y1="62" x2="32.0005" y2="2.0005">
	<stop  offset="0" style="stop-color:#7AB51D"/>
	<stop  offset="1" style="stop-color:#A6E639"/>
	<a:midPointStop  offset="0" style="stop-color:#7AB51D"/>
	<a:midPointStop  offset="0.5" style="stop-color:#7AB51D"/>
	<a:midPointStop  offset="1" style="stop-color:#A6E639"/>
</linearGradient>
<circle fill="url(#SVGID_1_)" cx="32" cy="32" r="30"/>
<radialGradient id="SVGID_2_" cx="49.8105" cy="41" r="10" gradientUnits="userSpaceOnUse">
	<stop  offset="0" style="stop-color:#957CA1;stop-opacity:0.5"/>
	<stop  offset="0.1848" style="stop-color:#957F9D;stop-opacity:0.4076"/>
	<stop  offset="0.3762" style="stop-color:#958890;stop-opacity:0.3119"/>
	<stop  offset="0.5708" style="stop-color:#94967C;stop-opacity:0.2146"/>
	<stop  offset="0.7675" style="stop-color:#93AA5F;stop-opacity:0.1162"/>
	<stop  offset="0.9641" style="stop-color:#92C43A;stop-opacity:0.0179"/>
	<stop  offset="1" style="stop-color:#92C932;stop-opacity:0"/>
	<a:midPointStop  offset="0" style="stop-color:#957CA1;stop-opacity:0.5"/>
	<a:midPointStop  offset="0.7" style="stop-color:#957CA1;stop-opacity:0.5"/>
	<a:midPointStop  offset="1" style="stop-color:#92C932;stop-opacity:0"/>
</radialGradient>
<path fill="url(#SVGID_2_)" d="M49.811,31c5.52,0,10,4.477,10,10c0,5.521-4.48,10-10,10c-5.525,0-10-4.479-10-10
	C39.811,35.477,44.285,31,49.811,31z"/>
<radialGradient id="SVGID_3_" cx="14.1895" cy="41" r="10" gradientUnits="userSpaceOnUse">
	<stop  offset="0" style="stop-color:#957CA1;stop-opacity:0.5"/>
	<stop  offset="0.1848" style="stop-color:#957F9D;stop-opacity:0.4076"/>
	<stop  offset="0.3762" style="stop-color:#958890;stop-opacity:0.3119"/>
	<stop  offset="0.5708" style="stop-color:#94967C;stop-opacity:0.2146"/>
	<stop  offset="0.7675" style="stop-color:#93AA5F;stop-opacity:0.1162"/>
	<stop  offset="0.9641" style="stop-color:#92C43A;stop-opacity:0.0179"/>
	<stop  offset="1" style="stop-color:#92C932;stop-opacity:0"/>
	<a:midPointStop  offset="0" style="stop-color:#957CA1;stop-opacity:0.5"/>
	<a:midPointStop  offset="0.7" style="stop-color:#957CA1;stop-opacity:0.5"/>
	<a:midPointStop  offset="1" style="stop-color:#92C932;stop-opacity:0"/>
</radialGradient>
<path fill="url(#SVGID_3_)" d="M14.189,31c5.52,0,10,4.477,10,10c0,5.521-4.48,10-10,10c-5.525,0-10-4.479-10-10
	C4.189,35.477,8.664,31,14.189,31z"/>
<path fill="#529320" d="M14.453,17.75c5.244,0.238,11.211-1.973,13.488-4.764c0.479-0.592-0.721-3.061-1.184-2.623
	c-3.561,3.379-8.396,5.719-13.246,5.811C12.861,16.188,13.666,17.715,14.453,17.75z"/>
<path fill="#529320" d="M49.541,17.748c-5.242,0.238-11.209-1.971-13.486-4.764c-0.48-0.588,0.723-3.061,1.186-2.621
	c3.559,3.377,8.395,5.719,13.244,5.811C51.137,16.186,50.33,17.715,49.541,17.748z"/>
<path fill="#302C3B" d="M39.627,42.532c-5.734-1.727-9.52-1.727-15.254,0.001C23.428,42.831,23,39.186,23,39.186
	c7.238-2.181,10.76-2.181,18,0C41,39.186,40.574,42.832,39.627,42.532z"/>
<path fill="#529320" d="M43.639,33.741c-5.865,1.606-5.865,13.011,0,14.617C40.705,44.883,40.705,37.217,43.639,33.741z"/>
<path fill="#529320" d="M20.359,48.358c5.867-1.606,5.867-13.011,0-14.617C23.295,37.217,23.295,44.883,20.359,48.358z"/>
<circle fill="#302C3B" cx="22" cy="25.5" r="4.5"/>
<circle fill="#302C3B" cx="42" cy="25.5" r="4.5"/>
</svg>
