<?xml version="1.0" encoding="utf-8"?>
<!-- Generator: Adobe Illustrator 15.0.0, SVG Export Plug-In . SVG Version: 6.00 Build 0)  -->
<!DOCTYPE svg PUBLIC "-//W3C//DTD SVG 1.1//EN" "http://www.w3.org/Graphics/SVG/1.1/DTD/svg11.dtd" [
	<!ENTITY ns_flows "http://ns.adobe.com/Flows/1.0/">
	<!ENTITY ns_extend "http://ns.adobe.com/Extensibility/1.0/">
	<!ENTITY ns_ai "http://ns.adobe.com/AdobeIllustrator/10.0/">
	<!ENTITY ns_graphs "http://ns.adobe.com/Graphs/1.0/">
]>
<svg version="1.1" id="Layer_1" xmlns:x="&ns_extend;" xmlns:i="&ns_ai;" xmlns:graph="&ns_graphs;"
	 xmlns="http://www.w3.org/2000/svg" xmlns:xlink="http://www.w3.org/1999/xlink" xmlns:a="http://ns.adobe.com/AdobeSVGViewerExtensions/3.0/"
	 x="0px" y="0px" width="64px" height="64px" viewBox="0 0 64 64" enable-background="new 0 0 64 64" xml:space="preserve">
<path fill="#E81C27" d="M12.254,51.746c2.402-1.514,12.363-5.506,12.363-5.506h14.84c0,0,9.95,3.986,12.341,5.502
	C55.268,53.943,56.001,62,56.001,62H8C8,62,8.774,53.936,12.254,51.746z"/>
<path fill="#E81C27" d="M15.262,16.282C11.683,7.544,16.63,2,32,2c15.365,0,20.318,5.544,16.738,14.282
	C46.493,21.764,17.506,21.757,15.262,16.282z"/>
<path fill="#E6EBEF" d="M49.365,12.623c3.713,8.43-38.444,8.43-34.731,0C19.667,1.198,44.319,1.169,49.365,12.623z"/>
<path fill="#E81C27" d="M53.36,18.272C57.93,26.809,55.427,32.224,32,32.224c-23.427,0-25.93-5.415-21.36-13.951
	C11.975,15.776,19.332,5.324,32,5.324C44.668,5.324,52.024,15.776,53.36,18.272z"/>
<path fill="#99A8AE" d="M15.27,21.732c-5.593-1.007-1.224,14.602,3.155,10.297C20.455,30.033,17.887,22.204,15.27,21.732z"/>
<path fill="#99A8AE" d="M48.731,21.732c-2.617,0.472-5.185,8.301-3.155,10.297C49.957,36.334,54.321,20.726,48.731,21.732z"/>
<path fill="#FFCC66" d="M14.427,26.545c0.152,2.602,0.876,6.355,1.77,9.57C18.619,44.844,27.267,47.999,32,47.999
	c4.731,0,13.382-3.155,15.803-11.884c0.893-3.215,1.617-6.969,1.77-9.57C50.624,8.252,13.374,8.252,14.427,26.545z"/>
<path fill="#99A8AE" d="M45.625,22.609c-2.785-1.66-7.783-1.863-9.761-0.732c-0.42,0.228-0.306,1.428,0.058,1.278
	c2.818-1.175,7.113-1.233,9.761,0.124C46.037,23.459,46.045,22.851,45.625,22.609z"/>
<path fill="#99A8AE" d="M18.376,22.609c2.785-1.66,7.781-1.863,9.761-0.732c0.42,0.228,0.308,1.428-0.058,1.278
	c-2.818-1.175-7.111-1.234-9.761,0.124C17.962,23.459,17.957,22.851,18.376,22.609z"/>
<path fill="#A17B31" d="M24.527,38.139c3.277,3.058,11.683,3.076,14.986,0C35.598,39.012,28.47,39.017,24.527,38.139z"/>
<path fill="#E6B045" d="M35.834,33.569c0,2.495-7.665,2.495-7.665,0C28.169,32.996,35.834,32.996,35.834,33.569z"/>
<path fill="#E6B045" d="M27.785,33.831c-2.294,2.462-4.76,4.001-3.813,7.488C24.074,38.009,26.173,37.385,27.785,33.831z"/>
<path fill="#E6B045" d="M40.029,41.319c0.938-3.452-1.496-5.001-3.813-7.487C37.83,37.389,39.927,38.008,40.029,41.319z"/>
<path fill="#E6B045" d="M35.877,28.326c1.53,2.893,7.624,3.897,7.624,3.897S36.987,29.867,35.877,28.326z"/>
<path fill="#E6B045" d="M20.5,32.224c0,0,6.071-0.977,7.624-3.897C27.013,29.867,20.5,32.224,20.5,32.224z"/>
<path fill="#FFFFFF" d="M45.034,27.798c-0.981,2.984-8.621,1.8-9.2,0.147C36.73,22.542,44.164,22.67,45.034,27.798z"/>
<path fill="#613F34" d="M37.306,26.581c0,3.794,5.489,3.794,5.489,0C42.795,23.059,37.306,23.059,37.306,26.581z"/>
<path fill="#7D5037" d="M37.848,27.795c0,2.176,4.404,2.176,4.404,0C42.252,25.775,37.848,25.775,37.848,27.795z"/>
<path fill="#1A1626" d="M38.911,26.641c0,1.575,2.277,1.575,2.277,0C41.188,25.18,38.911,25.18,38.911,26.641z"/>
<path fill="#AB968C" d="M38.134,26.181c0,0.796,1.15,0.796,1.15,0C39.284,25.442,38.134,25.442,38.134,26.181z"/>
<path fill="#E6B045" d="M45.034,27.762c0-5.162-9.2-5.752-9.2,0.226C37.147,23.083,43.72,23.673,45.034,27.762z"/>
<path fill="#FFFFFF" d="M18.966,27.798c0.982,2.984,8.621,1.8,9.199,0.147C27.272,22.542,19.836,22.67,18.966,27.798z"/>
<path fill="#613F34" d="M21.204,26.581c0,3.794,5.489,3.794,5.489,0C26.693,23.059,21.204,23.059,21.204,26.581z"/>
<path fill="#7D5037" d="M21.746,27.795c0,2.176,4.404,2.176,4.404,0C26.15,25.775,21.746,25.775,21.746,27.795z"/>
<path fill="#1A1626" d="M22.81,26.641c0,1.575,2.276,1.575,2.276,0C25.086,25.18,22.81,25.18,22.81,26.641z"/>
<path fill="#AB968C" d="M22.033,26.181c0,0.796,1.149,0.796,1.149,0C23.182,25.442,22.033,25.442,22.033,26.181z"/>
<path fill="#E6B045" d="M18.966,27.762c0-5.161,9.199-5.752,9.199,0.225C26.853,23.083,20.281,23.673,18.966,27.762z"/>
<radialGradient id="SVGID_1_" cx="41.3477" cy="43.4746" r="14.564" gradientUnits="userSpaceOnUse">
	<stop  offset="0" style="stop-color:#FFFFFF"/>
	<stop  offset="0.2477" style="stop-color:#FCFDFD"/>
	<stop  offset="0.4201" style="stop-color:#F3F5F6"/>
	<stop  offset="0.5691" style="stop-color:#E4E7E9"/>
	<stop  offset="0.6485" style="stop-color:#D8DDE0"/>
	<a:midPointStop  offset="0" style="stop-color:#FFFFFF"/>
	<a:midPointStop  offset="0.7757" style="stop-color:#FFFFFF"/>
	<a:midPointStop  offset="0.6485" style="stop-color:#D8DDE0"/>
</radialGradient>
<path fill="url(#SVGID_1_)" d="M45.122,41.486c-5.049,5.963-13.112,6.513-13.112,6.513s3.221,6.856,9.352,4.433
	c-0.85-0.387-0.842-0.703-0.834-0.702c3.596,0.429,7.717-1.196,8.639-3.73c-0.012,0.011,0.666-0.383,0.75,0.95
	C52.454,46.326,50.011,40.918,45.122,41.486z"/>
<radialGradient id="SVGID_2_" cx="577.8887" cy="43.4746" r="14.564" gradientTransform="matrix(-1 0 0 1 600.543 0)" gradientUnits="userSpaceOnUse">
	<stop  offset="0" style="stop-color:#FFFFFF"/>
	<stop  offset="0.2477" style="stop-color:#FCFDFD"/>
	<stop  offset="0.4201" style="stop-color:#F3F5F6"/>
	<stop  offset="0.5691" style="stop-color:#E4E7E9"/>
	<stop  offset="0.6485" style="stop-color:#D8DDE0"/>
	<a:midPointStop  offset="0" style="stop-color:#FFFFFF"/>
	<a:midPointStop  offset="0.7757" style="stop-color:#FFFFFF"/>
	<a:midPointStop  offset="0.6485" style="stop-color:#D8DDE0"/>
</radialGradient>
<path fill="url(#SVGID_2_)" d="M18.879,41.486c5.049,5.963,13.111,6.513,13.111,6.513s-3.221,6.856-9.352,4.433
	c0.85-0.387,0.842-0.703,0.834-0.702c-3.596,0.429-7.717-1.196-8.639-3.73c0.012,0.011-0.666-0.383-0.75,0.95
	C11.547,46.326,13.991,40.918,18.879,41.486z"/>
<path fill="#F9B700" d="M30.5,53.211c0,2.074,3,2.074,3,0C33.501,51.285,30.5,51.285,30.5,53.211z"/>
<path fill="#F9B700" d="M30.5,59.151c0,2.075,3,2.075,3,0C33.501,57.227,30.5,57.227,30.5,59.151z"/>
<linearGradient id="SVGID_3_" gradientUnits="userSpaceOnUse" x1="23.0669" y1="33.7637" x2="23.0669" y2="25.7207">
	<stop  offset="0" style="stop-color:#FFFFFF;stop-opacity:0"/>
	<stop  offset="1" style="stop-color:#FFFFFF"/>
	<a:midPointStop  offset="0" style="stop-color:#FFFFFF;stop-opacity:0"/>
	<a:midPointStop  offset="0.5" style="stop-color:#FFFFFF;stop-opacity:0"/>
	<a:midPointStop  offset="1" style="stop-color:#FFFFFF"/>
</linearGradient>
<path opacity="0.8" fill="url(#SVGID_3_)" d="M28.592,29.742c0,5.361-11.051,5.361-11.051,0
	C17.542,24.38,28.592,24.38,28.592,29.742z"/>
<linearGradient id="SVGID_4_" gradientUnits="userSpaceOnUse" x1="40.9336" y1="33.7637" x2="40.9336" y2="25.7207">
	<stop  offset="0" style="stop-color:#FFFFFF;stop-opacity:0"/>
	<stop  offset="1" style="stop-color:#FFFFFF"/>
	<a:midPointStop  offset="0" style="stop-color:#FFFFFF;stop-opacity:0"/>
	<a:midPointStop  offset="0.5" style="stop-color:#FFFFFF;stop-opacity:0"/>
	<a:midPointStop  offset="1" style="stop-color:#FFFFFF"/>
</linearGradient>
<path opacity="0.8" fill="url(#SVGID_4_)" d="M46.459,29.742c0,5.361-11.051,5.361-11.051,0
	C35.408,24.38,46.459,24.38,46.459,29.742z"/>
<polygon fill="#99A8AE" points="17.249,29.369 13.739,21.01 14.542,21.125 17.794,28.765 "/>
<polygon fill="#99A8AE" points="46.753,29.369 46.205,28.765 49.457,21.125 50.261,21.01 "/>
<path fill="#99A8AE" d="M35.421,29.492l-0.037,0.767c0,0-0.192-1.078-3.383-1.078c-3.192,0-3.383,1.078-3.383,1.078l-0.037-0.767
	c0,0-0.136-1.129,3.42-1.129C35.556,28.363,35.421,29.492,35.421,29.492z"/>
<path fill="#99A8AE" d="M23.067,33.427c-2.541,0-5.278-1.152-5.278-3.685s2.737-3.686,5.278-3.686c2.542,0,5.278,1.153,5.278,3.686
	S25.609,33.427,23.067,33.427 M23.067,25.238c-2.933,0-6.09,1.409-6.09,4.504c0,3.096,3.157,4.504,6.09,4.504
	c2.934,0,6.09-1.408,6.09-4.504C29.157,26.647,26,25.238,23.067,25.238"/>
<path fill="#99A8AE" d="M40.934,33.427c-2.544,0-5.278-1.152-5.278-3.685s2.734-3.686,5.278-3.686c2.542,0,5.278,1.153,5.278,3.686
	S43.476,33.427,40.934,33.427 M40.934,25.238c-2.933,0-6.09,1.409-6.09,4.504c0,3.096,3.157,4.504,6.09,4.504
	c2.934,0,6.091-1.408,6.091-4.504C47.024,26.647,43.867,25.238,40.934,25.238"/>
<radialGradient id="SVGID_5_" cx="18.8252" cy="53.9453" r="22.2613" gradientTransform="matrix(0.96 0 0 0.8593 13.9276 -25.0821)" gradientUnits="userSpaceOnUse">
	<stop  offset="0" style="stop-color:#FFFFFF"/>
	<stop  offset="0.3253" style="stop-color:#FBFCFC"/>
	<stop  offset="0.6381" style="stop-color:#F0F2F3"/>
	<stop  offset="0.945" style="stop-color:#DCE1E3"/>
	<stop  offset="1" style="stop-color:#D8DDE0"/>
	<a:midPointStop  offset="0" style="stop-color:#FFFFFF"/>
	<a:midPointStop  offset="0.7152" style="stop-color:#FFFFFF"/>
	<a:midPointStop  offset="1" style="stop-color:#D8DDE0"/>
</radialGradient>
<path fill="url(#SVGID_5_)" d="M55.328,24.562c0.569-2.208-2.718-1.508-2.418-4.067c0.218-1.844-0.672-4.188-3.523-4.068
	c-5.977,0.252-2.863-2.606-7.269-4.441c-2.212-0.922-3.357,0.916-5.324,0.987c-1.895,0.07-1.76-2.227-4.794-2.227
	c-3.034,0-2.899,2.297-4.794,2.227c-1.967-0.071-3.112-1.909-5.324-0.987c-4.405,1.835-1.293,4.693-7.269,4.441
	c-2.852-0.12-3.741,2.225-3.523,4.068c0.3,2.56-2.987,1.859-2.418,4.067c0.729,2.837-3.124,4.662,2.197,4.842
	c1.324,0.044,0.791,3.456,2.959,2.073c2.367-1.511,1.847-4.862,1.462-6.918c-0.807-4.318,4.301-1.118,5.232-5.144
	c0.844-3.646,3.268-1.345,6.02-1.733c2.491-0.352,2.975-1.645,5.458-1.645c2.484,0,2.967,1.293,5.458,1.645
	c2.753,0.389,5.177-1.913,6.02,1.733c0.933,4.025,6.04,0.825,5.233,5.144c-0.385,2.056-0.905,5.407,1.462,6.918
	c2.168,1.383,1.635-2.029,2.96-2.073C58.452,29.224,54.599,27.398,55.328,24.562z"/>
</svg>
