<?xml version="1.0" encoding="utf-8"?>
<!-- Generator: Adobe Illustrator 15.0.0, SVG Export Plug-In . SVG Version: 6.00 Build 0)  -->
<!DOCTYPE svg PUBLIC "-//W3C//DTD SVG 1.1//EN" "http://www.w3.org/Graphics/SVG/1.1/DTD/svg11.dtd" [
	<!ENTITY ns_flows "http://ns.adobe.com/Flows/1.0/">
	<!ENTITY ns_extend "http://ns.adobe.com/Extensibility/1.0/">
	<!ENTITY ns_ai "http://ns.adobe.com/AdobeIllustrator/10.0/">
	<!ENTITY ns_graphs "http://ns.adobe.com/Graphs/1.0/">
]>
<svg version="1.1" id="Layer_1" xmlns:x="&ns_extend;" xmlns:i="&ns_ai;" xmlns:graph="&ns_graphs;"
	 xmlns="http://www.w3.org/2000/svg" xmlns:xlink="http://www.w3.org/1999/xlink" xmlns:a="http://ns.adobe.com/AdobeSVGViewerExtensions/3.0/"
	 x="0px" y="0px" width="64px" height="64px" viewBox="0 0 64 64" enable-background="new 0 0 64 64" xml:space="preserve">
<radialGradient id="SVGID_1_" cx="-168.9536" cy="-343.7119" r="39.3979" gradientTransform="matrix(-0.0416 0.8274 -0.3663 -0.0094 -86.7657 165.6164)" gradientUnits="userSpaceOnUse">
	<stop  offset="0.4121" style="stop-color:#FFCC66"/>
	<stop  offset="0.6828" style="stop-color:#FECA63"/>
	<stop  offset="0.8501" style="stop-color:#FAC55B"/>
	<stop  offset="0.9891" style="stop-color:#F3BB4C"/>
	<stop  offset="1" style="stop-color:#F2BA4B"/>
	<a:midPointStop  offset="0.4121" style="stop-color:#FFCC66"/>
	<a:midPointStop  offset="0.7955" style="stop-color:#FFCC66"/>
	<a:midPointStop  offset="1" style="stop-color:#F2BA4B"/>
</radialGradient>
<path fill="url(#SVGID_1_)" d="M61.156,27.486c0.807-2.657-3.973-3.511-5.447,0.354c0,0,0.35-7.586-1.934-14.841
	c-1.195-3.802-5.287-2.969-5.939-1.69c0,0-0.096-0.558-0.158-0.955c-0.652-4.138-7.225-2.96-6.561,1.215
	c-0.67-0.86-5.811-0.318-4.59,4.618c0.42,1.693,0.938,4.86,0.938,4.86c-0.836-4.086-6.298-3.003-5.364,1.08
	c2.485,10.815,0,10.909,0,17.506c0,8.959,3.848,15.355,11.844,16.451c12.148,1.668,15.375-9.309,16.096-12.247
	C61.275,38.809,59.381,33.324,61.156,27.486z"/>
<path fill="#D9A640" d="M56.465,25.461c-0.072-2.849-0.441-7.812-1.977-12.688c-1.141-3.63-4.514-3.652-6.137-2.865
	c-1.18-4.522-7.531-3.336-8,0.592c-2.225-0.21-5.637,1.467-4.549,5.867c0.119,0.481,0.246,1.088,0.369,1.708
	c-2.537-1.238-5.577,0.82-4.799,4.221c2.448,10.639-0.018,10.732-0.018,17.337c0,9.84,4.551,16.106,12.489,17.193
	c9.029,1.237,14.826-4.27,16.924-12.811c1.34-5.465-0.725-10.3,1.104-16.311C62.744,24.821,58.975,23.352,56.465,25.461z
	 M60.441,27.267c-1.84,6.052,0.104,11.384-1.127,16.39c-2.018,8.22-7.193,12.794-15.268,11.684
	c-7.221-0.988-11.198-6.568-11.198-15.708c0-6.55,2.516-6.642-0.019-17.674c-0.604-2.632,2.695-4.076,3.75-1.288
	c0.313,1.575,0.953,5.574,0.752,11.276L38.826,32c0.195-5.571-0.531-11.79-1.574-15.994c-0.793-3.215,1.668-4.245,3.166-3.986
	c0.436,4.611,2.537,9.411,2.064,19.131l1.492,0.074c-0.01-3.627,0.508-7.354-2.096-19.625c-0.723-3.404,4.607-4.293,5.063-1.128
	c0.031,0.229,0.078,0.497,0.113,0.696c-1.615,3.479,2.541,5.638,1.389,19.18l1.486,0.127c0.703-8.262-0.578-12.612-1.363-15.206
	c-1.617-5.348,3.482-5.272,4.498-2.044c2.033,6.464,1.938,13.279,1.906,14.404c-1.477,3.592-1.082,6.882-1.082,6.882
	c-3.717,0.867-9.357,5.021-9.398,10.497c0.738-5.533,6.754-8.71,10.969-9.322C54.639,23.939,61.059,25.245,60.441,27.267z"/>
<radialGradient id="SVGID_2_" cx="1648.2158" cy="-391.2129" r="39.3977" gradientTransform="matrix(0.0416 0.8274 0.3663 -0.0094 92.5747 -1338.2737)" gradientUnits="userSpaceOnUse">
	<stop  offset="0.4121" style="stop-color:#FFCC66"/>
	<stop  offset="0.6828" style="stop-color:#FECA63"/>
	<stop  offset="0.8501" style="stop-color:#FAC55B"/>
	<stop  offset="0.9891" style="stop-color:#F3BB4C"/>
	<stop  offset="1" style="stop-color:#F2BA4B"/>
	<a:midPointStop  offset="0.4121" style="stop-color:#FFCC66"/>
	<a:midPointStop  offset="0.7955" style="stop-color:#FFCC66"/>
	<a:midPointStop  offset="1" style="stop-color:#F2BA4B"/>
</radialGradient>
<path fill="url(#SVGID_2_)" d="M2.844,27.486c-0.807-2.657,3.973-3.511,5.445,0.354c0,0-0.349-7.586,1.935-14.841
	c1.196-3.802,5.288-2.969,5.94-1.69c0,0,0.096-0.558,0.158-0.955c0.651-4.138,7.224-2.96,6.56,1.215
	c0.671-0.86,5.812-0.318,4.591,4.618c-0.421,1.693-0.938,4.86-0.938,4.86c0.835-4.086,6.298-3.003,5.363,1.08
	c-2.485,10.815,0,10.909,0,17.506c0,8.959-3.849,15.355-11.845,16.451C7.907,57.752,4.68,46.775,3.959,43.837
	C2.725,38.809,4.619,33.324,2.844,27.486z"/>
<path fill="#D9A640" d="M2.128,27.705c1.829,6.011-0.235,10.846,1.104,16.311c2.097,8.541,7.895,14.048,16.924,12.811
	c7.937-1.087,12.488-7.354,12.488-17.193c0-6.605-2.464-6.699-0.018-17.337c0.777-3.4-2.263-5.459-4.799-4.221
	c0.122-0.62,0.25-1.227,0.369-1.708c1.089-4.4-2.325-6.077-4.549-5.867c-0.469-3.928-6.819-5.114-8-0.592
	c-1.622-0.787-4.996-0.765-6.137,2.865c-1.535,4.877-1.904,9.84-1.978,12.688C5.025,23.352,1.255,24.821,2.128,27.705z
	 M8.542,35.686c4.215,0.612,10.23,3.789,10.968,9.322c-0.041-5.477-5.682-9.63-9.397-10.497c0,0,0.395-3.291-1.082-6.882
	c-0.031-1.125-0.128-7.94,1.906-14.404c1.015-3.229,6.114-3.304,4.498,2.044c-0.786,2.594-2.067,6.944-1.364,15.206l1.489-0.127
	c-1.153-13.542,3.002-15.701,1.387-19.18c0.034-0.199,0.081-0.468,0.114-0.696c0.454-3.165,5.785-2.276,5.063,1.128
	c-2.605,12.271-2.086,15.998-2.098,19.625l1.492-0.074c-0.473-9.72,1.63-14.52,2.066-19.131c1.496-0.259,3.96,0.771,3.164,3.986
	c-1.043,4.204-1.77,10.423-1.574,15.994l1.494-0.053c-0.2-5.702,0.439-9.701,0.752-11.276c1.055-2.788,4.354-1.344,3.75,1.288
	c-2.534,11.032-0.018,11.125-0.018,17.674c0,9.14-3.977,14.72-11.198,15.708c-8.075,1.11-13.251-3.464-15.268-11.684
	c-1.23-5.006,0.713-10.338-1.127-16.39C2.941,25.245,9.361,23.939,8.542,35.686z"/>
</svg>
