<?xml version="1.0" encoding="utf-8"?>
<!-- Generator: Adobe Illustrator 19.0.0, SVG Export Plug-In . SVG Version: 6.00 Build 0)  -->
<svg version="1.1" id="Layer_1" xmlns="http://www.w3.org/2000/svg" xmlns:xlink="http://www.w3.org/1999/xlink" x="0px" y="0px"
	 width="64px" height="64px" viewBox="0 0 64 64" enable-background="new 0 0 64 64" xml:space="preserve">
<radialGradient id="SVGID_1_" cx="16.8829" cy="32.7232" r="34.6798" gradientTransform="matrix(1 0 0 0.8316 0 5.5095)" gradientUnits="userSpaceOnUse">
	<stop  offset="0" style="stop-color:#A6E639"/>
	<stop  offset="0.3299" style="stop-color:#A3E337"/>
	<stop  offset="0.5842" style="stop-color:#9AD932"/>
	<stop  offset="0.8123" style="stop-color:#8CC928"/>
	<stop  offset="1" style="stop-color:#7AB51D"/>
</radialGradient>
<path fill="url(#SVGID_1_)" d="M40.199,32.34c-4.141,8.271-14.1,13.004-14.1,13.004L2,41.42v18.281c0,0,24.281,3.615,30.127,1.779
	c6.731-2.119,18.367-15.904,22.086-26.293C55.09,32.743,41.487,29.77,40.199,32.34z"/>
<linearGradient id="SVGID_2_" gradientUnits="userSpaceOnUse" x1="41.3915" y1="32.1162" x2="53.9416" y2="32.1162">
	<stop  offset="0" style="stop-color:#B88A6F"/>
	<stop  offset="0.4638" style="stop-color:#B6876C"/>
	<stop  offset="0.8449" style="stop-color:#AF7F62"/>
	<stop  offset="1" style="stop-color:#AB795B"/>
</linearGradient>
<path fill="url(#SVGID_2_)" d="M52.131,35.404c-1.287,1.833-11.725-0.285-10.664-2.859c0.688-1.67,0.971-4.406,0.971-4.406
	l11.504,0.844C53.942,28.982,53.098,34.024,52.131,35.404z"/>
<linearGradient id="SVGID_3_" gradientUnits="userSpaceOnUse" x1="56.6379" y1="18.4652" x2="43.3879" y2="24.2777">
	<stop  offset="0" style="stop-color:#AB795B"/>
	<stop  offset="0.1551" style="stop-color:#AF7F62"/>
	<stop  offset="0.5362" style="stop-color:#B6876C"/>
	<stop  offset="1" style="stop-color:#B88A6F"/>
</linearGradient>
<path fill="url(#SVGID_3_)" d="M50.92,17.457c-1.387-1.482-3.207-2.942-5.52-4.295c-2.811-2.016-6.381,6.648-6.301,8.26
	c0.092,1.871,1.436,8.09,4.381,8.824c13.559,5.961,13.561-6.848,13.787-7.088C61.367,18.824,57.819,18.126,50.92,17.457z"/>
<path fill="#AB795B" d="M61.59,9.043c-2.881,5.121-4.863,1.635-4.699,0.758c0.115-0.615,1.303-1.559,2.826-3.309
	C60.772,5.279,62.891,6.728,61.59,9.043z"/>
<path fill="#302C3B" d="M56.338,22.588c-0.184,0.857-1.021,1.396-1.861,1.191l-9.264-2.236c-0.842-0.205-1.354-1.066-1.137-1.918
	l4.959-16.389c0.215-0.852,1.059-1.168,1.926-1.178C52.947,2.037,56.737,2.009,59.11,2c0.865-0.004,1.381,1.074,1.199,1.934
	L56.338,22.588z"/>
<linearGradient id="SVGID_4_" gradientUnits="userSpaceOnUse" x1="52.0141" y1="21.933" x2="52.0141" y2="3.1671">
	<stop  offset="0" style="stop-color:#4E5E67"/>
	<stop  offset="1" style="stop-color:#6E8189"/>
</linearGradient>
<path fill="url(#SVGID_4_)" d="M55.336,21.265c-0.1,0.465-0.553,0.754-1.008,0.645l-8.654-2.092
	c-0.451-0.109-0.729-0.574-0.611-1.035l4.529-14.922c0.115-0.459,0.57-0.629,1.037-0.635c3.926-0.063,5.354-0.066,7.699-0.053
	c0.465,0.004,0.742,0.578,0.644,1.043L55.336,21.265z"/>
<path fill="#B88A6F" d="M42.328,16.129c4.223,4.955,8.547,2.236,8.441-0.014c-0.025-0.547-2.191-0.959-5.252-2.885
	C45.01,12.91,42.35,15.926,42.328,16.129z"/>
<path fill="#B88A6F" d="M59.953,14.625c-4.615,2.82-5.01-0.592-4.475-1.381c0.379-0.557,1.473-0.898,3.717-1.959
	C59.852,10.976,62.375,13.146,59.953,14.625z"/>
<path fill="#B88A6F" d="M58.715,21.754c-5.373,3.074-5.172-0.504-4.666-1.248c0.355-0.525,1.84-0.9,3.953-1.898
	C58.619,18.314,61.033,20.426,58.715,21.754z"/>
<path fill="#B88A6F" d="M59.924,18.142c-6.365,3.943-5.979,0.025-5.43-1.088c0.342-0.695,1.943-1.617,4.56-2.752
	C60.363,13.732,62.695,16.424,59.924,18.142z"/>
</svg>
