<?xml version="1.0" encoding="utf-8"?>
<!-- Generator: Adobe Illustrator 15.0.0, SVG Export Plug-In . SVG Version: 6.00 Build 0)  -->
<!DOCTYPE svg PUBLIC "-//W3C//DTD SVG 1.1//EN" "http://www.w3.org/Graphics/SVG/1.1/DTD/svg11.dtd" [
	<!ENTITY ns_flows "http://ns.adobe.com/Flows/1.0/">
	<!ENTITY ns_extend "http://ns.adobe.com/Extensibility/1.0/">
	<!ENTITY ns_ai "http://ns.adobe.com/AdobeIllustrator/10.0/">
	<!ENTITY ns_graphs "http://ns.adobe.com/Graphs/1.0/">
]>
<svg version="1.1" id="Layer_1" xmlns:x="&ns_extend;" xmlns:i="&ns_ai;" xmlns:graph="&ns_graphs;"
	 xmlns="http://www.w3.org/2000/svg" xmlns:xlink="http://www.w3.org/1999/xlink" xmlns:a="http://ns.adobe.com/AdobeSVGViewerExtensions/3.0/"
	 x="0px" y="0px" width="64px" height="64px" viewBox="0 0 64 64" enable-background="new 0 0 64 64" xml:space="preserve">
<path fill="#FFBB4F" d="M41.011,2.715c0-0.002-1.856,6.516-7.321,6.516c5.273,3.666,9.367,3.666,14.641,0
	C42.865,9.23,41.011,2.713,41.011,2.715z"/>
<path fill="#FFBB4F" d="M22.989,2.715c0-0.002-1.854,6.516-7.32,6.516c5.272,3.666,9.368,3.666,14.642,0
	C24.846,9.23,22.989,2.713,22.989,2.715z"/>
<path fill="#018BC9" d="M9.789,51.781c2.699-1.51,13.906-5.49,13.906-5.49h16.699c0,0,11.197,3.975,13.881,5.484
	C58.18,53.969,59,62,59,62H5C5,62,5.871,53.965,9.789,51.781z"/>
<path fill="#F9C802" d="M5.996,53.021h3.006c0,0,0,4.475,0,7.494c0,1.904-3.006,1.904-3.006,0
	C5.996,56.34,5.996,53.021,5.996,53.021z"/>
<path fill="#F9B700" d="M9.002,51.934h3.006c0,0,0,4.475,0,7.496c0,1.902-3.006,1.902-3.006,0
	C9.002,55.254,9.002,51.934,9.002,51.934z"/>
<path fill="#F9C802" d="M12.008,50.848h3.006c0,0,0,4.475,0,7.494c0,1.904-3.006,1.904-3.006,0
	C12.008,54.168,12.008,50.848,12.008,50.848z"/>
<path fill="#F9B700" d="M15.014,49.76h3.006c0,0,0,4.475,0,7.496c0,1.902-3.006,1.902-3.006,0
	C15.014,53.08,15.014,49.76,15.014,49.76z"/>
<path fill="#FFE12C" d="M23.777,45.244l-1.006,3.34c0,0-14.564,5.873-16.586,6.844c-2.002,0.969-1.189-2.145,0.385-3.266
	C7.158,51.734,20.291,46.289,23.777,45.244z"/>
<path fill="#F9C802" d="M58.004,53.021h-3.006c0,0,0,4.475,0,7.494c0,1.904,3.006,1.904,3.006,0
	C58.004,56.34,58.004,53.021,58.004,53.021z"/>
<path fill="#F9B700" d="M54.998,51.934h-3.006c0,0,0,4.475,0,7.496c0,1.902,3.006,1.902,3.006,0
	C54.998,55.254,54.998,51.934,54.998,51.934z"/>
<path fill="#F9C802" d="M51.992,50.848h-3.006c0,0,0,4.475,0,7.494c0,1.904,3.006,1.904,3.006,0
	C51.992,54.168,51.992,50.848,51.992,50.848z"/>
<path fill="#F9B700" d="M48.986,49.76H45.98c0,0,0,4.475,0,7.496c0,1.902,3.006,1.902,3.006,0
	C48.986,53.08,48.986,49.76,48.986,49.76z"/>
<path fill="#FFE12C" d="M40.223,45.244l1.008,3.34c0,0,14.564,5.873,16.584,6.844c2.002,0.969,1.191-2.145-0.383-3.266
	C56.842,51.734,43.709,46.289,40.223,45.244z"/>
<path fill="#E6B045" d="M23.188,50.146l7.738,3.479h2.146c0,0,8.068-1.277,8.068-10.322H23.188V50.146z"/>
<path fill="#006DAE" d="M22.178,46.547c0-0.979,0-2.822,0-4.047c0-0.307,1.242-0.287,1.242-0.287
	c-0.771,9.484,7.506,9.572,7.506,9.572v4.209C30.926,55.994,22.178,55.963,22.178,46.547z"/>
<path fill="#FFE12C" d="M22.178,42.5c0-0.307,1.242-0.287,1.242-0.287c0,9.047,7.506,9.572,7.506,9.572v1.01
	C27.781,52.795,22.178,50.188,22.178,42.5z"/>
<path fill="#006DAE" d="M41.824,46.547c0-0.979,0-2.822,0-4.047c0-0.307-1.242-0.287-1.242-0.287c0.746,9.375-7.51,9.572-7.51,9.572
	v4.209C33.072,55.994,41.824,55.963,41.824,46.547z"/>
<path fill="#FFE12C" d="M41.824,42.5c0-0.307-1.242-0.287-1.242-0.287c0,9.047-7.51,9.572-7.51,9.572v1.01
	C36.219,52.795,41.824,50.188,41.824,42.5z"/>
<polygon fill="#F9B700" points="32,51.785 30.926,51.785 30.926,62 32.539,62 "/>
<rect x="32" y="51.785" fill="#F9C802" width="1.076" height="10.215"/>
<path fill="#E6B045" d="M14.9,24.235c-5.717-1.03-1.252,14.96,3.225,10.548C20.197,32.74,17.574,24.72,14.9,24.235z"/>
<path fill="#E6B045" d="M49.1,24.235c-2.674,0.484-5.299,8.505-3.223,10.548C50.355,39.195,54.816,23.205,49.1,24.235z"/>
<path fill="#FFCC66" d="M32,5.488c-11.822,0-17.52,8.945-16.805,21.383c0.143,2.504,1.691,10.666,3.156,13.594
	c1.5,2.996,6.512,7.615,9.584,8.57c1.941,0.604,6.188,0.604,8.129,0c3.072-0.955,8.086-5.574,9.586-8.57
	c1.465-2.928,3.014-11.09,3.158-13.594C49.521,14.434,43.826,5.488,32,5.488z"/>
<path fill="#E6A400" d="M32,39.35c-2.66-0.781-6.6,0.371-6.6,0.371c1.5,1.635,2.602,3.756,6.6,3.756
	c4.582,0,5.361-2.408,6.602-3.756C38.602,39.721,34.656,38.564,32,39.35z"/>
<path fill="#FFFFFF" d="M26.406,39.998c2.789,2.338,8.42,2.354,11.223,0C34.656,40.125,29.398,40.127,26.406,39.998z"/>
<path fill="#E6B045" d="M35.666,34.951c0,2.387-7.33,2.387-7.33,0C28.336,34.404,35.666,34.404,35.666,34.951z"/>
<path fill="#453631" d="M13.807,16.797c-0.006,4.211,0.617,9.221,1.836,13.441c0.371-2.75-0.475-3.887,0.797-7.201
	c1.479-3.85,2.015-5.569,2.949-6.24H13.807z"/>
<path fill="#453631" d="M44.308,16.797c1.099,0.561,1.599,2.205,3.257,6.24c1.168,2.844,0.424,4.451,0.797,7.201
	c1.614-6.009,1.854-10.386,1.15-13.441H44.308z"/>
<path fill="#FFFFFF" d="M44.66,27.834c-1.578,4.137-8.006,3.529-9.184,0.635C36.369,23.819,43.793,23.422,44.66,27.834z"/>
<path fill="#FFFFFF" d="M19.342,27.834c1.58,4.137,8.01,3.529,9.186,0.635C27.635,23.817,20.213,23.42,19.342,27.834z"/>
<path fill="#C1873C" d="M45.316,22.855c-2.703-1.342-7.879-1.407-9.807-0.472c-0.412,0.182-0.141,1.454,0.207,1.332
	c2.688-0.995,7.021-1.019,9.535,0.086C45.586,23.943,45.727,23.043,45.316,22.855z"/>
<path fill="#C1873C" d="M18.688,22.855c2.705-1.342,7.877-1.407,9.807-0.472c0.412,0.182,0.141,1.454-0.205,1.332
	c-2.691-0.995-7.021-1.019-9.537,0.086C18.418,23.943,18.279,23.043,18.688,22.855z"/>
<path fill="#613F34" d="M37.115,27.395c0,3.629,5.25,3.629,5.25,0C42.365,24.024,37.115,24.024,37.115,27.395z"/>
<path fill="#7D5037" d="M37.635,28.555c0,2.082,4.211,2.082,4.211,0C41.846,26.623,37.635,26.623,37.635,28.555z"/>
<path fill="#1A1626" d="M38.65,27.451c0,1.506,2.18,1.506,2.18,0C40.83,26.053,38.65,26.053,38.65,27.451z"/>
<path fill="#AB968C" d="M37.908,27.012c0,0.76,1.1,0.76,1.1,0C39.008,26.305,37.908,26.305,37.908,27.012z"/>
<path fill="#613F34" d="M21.639,27.393c0,3.631,5.25,3.631,5.25,0C26.889,24.023,21.639,24.023,21.639,27.393z"/>
<path fill="#7D5037" d="M22.158,28.555c0,2.08,4.211,2.08,4.211,0C26.369,26.623,22.158,26.623,22.158,28.555z"/>
<path fill="#1A1626" d="M23.174,27.451c0,1.506,2.18,1.506,2.18,0C25.354,26.051,23.174,26.051,23.174,27.451z"/>
<path fill="#AB968C" d="M22.43,27.01c0,0.762,1.102,0.762,1.102,0C23.531,26.305,22.43,26.305,22.43,27.01z"/>
<path fill="#E6B045" d="M44.66,27.803c0-4.44-9.184-4.44-9.184,0.703C36.787,24.286,43.35,24.286,44.66,27.803z"/>
<path fill="#E6B045" d="M19.342,27.803c0-4.44,9.186-4.44,9.186,0.703C27.217,24.283,20.654,24.283,19.342,27.803z"/>
<linearGradient id="SVGID_1_" gradientUnits="userSpaceOnUse" x1="15.1348" y1="11.3389" x2="48.8662" y2="11.3389">
	<stop  offset="0" style="stop-color:#8E3ED6"/>
	<stop  offset="0.2286" style="stop-color:#8A3BD1"/>
	<stop  offset="0.5057" style="stop-color:#7F34C2"/>
	<stop  offset="0.8069" style="stop-color:#6C28AA"/>
	<stop  offset="1" style="stop-color:#5D1E96"/>
	<a:midPointStop  offset="0" style="stop-color:#8E3ED6"/>
	<a:midPointStop  offset="0.6667" style="stop-color:#8E3ED6"/>
	<a:midPointStop  offset="1" style="stop-color:#5D1E96"/>
</linearGradient>
<path fill="url(#SVGID_1_)" d="M48.866,17.631C46.495,9.936,40.846,5.047,31.999,5.047c-8.843,0-14.494,4.889-16.864,12.584H48.866z
	"/>
<radialGradient id="SVGID_2_" cx="39.1787" cy="146.7539" r="21.2638" gradientTransform="matrix(1.0084 0 0 0.9471 -7.5082 -127.3152)" gradientUnits="userSpaceOnUse">
	<stop  offset="0" style="stop-color:#FFE14D"/>
	<stop  offset="0.2499" style="stop-color:#FFDF4A"/>
	<stop  offset="0.4691" style="stop-color:#FFD93F"/>
	<stop  offset="0.6767" style="stop-color:#FFCF2D"/>
	<stop  offset="0.8761" style="stop-color:#FFC214"/>
	<stop  offset="1" style="stop-color:#FFB700"/>
	<a:midPointStop  offset="0" style="stop-color:#FFE14D"/>
	<a:midPointStop  offset="0.7333" style="stop-color:#FFE14D"/>
	<a:midPointStop  offset="1" style="stop-color:#FFB700"/>
</radialGradient>
<path fill="url(#SVGID_2_)" d="M51.43,3.854c0,0-3.369,7.36-10.263,7.36C34.275,11.214,31.999,2,31.999,2l0,0
	c0,0-2.276,9.214-9.169,9.214c-6.894,0-10.26-7.36-10.26-7.36l0,0l1.091,17.485h36.677L51.43,3.854L51.43,3.854z"/>
<polygon fill="#018BC9" points="32.039,10.797 29.171,14.217 32.039,17.784 34.828,14.217 "/>
<linearGradient id="SVGID_3_" gradientUnits="userSpaceOnUse" x1="32.0005" y1="14.2295" x2="32.0005" y2="11.377">
	<stop  offset="0" style="stop-color:#75D6FF;stop-opacity:0"/>
	<stop  offset="1" style="stop-color:#75D6FF"/>
	<a:midPointStop  offset="0" style="stop-color:#75D6FF;stop-opacity:0"/>
	<a:midPointStop  offset="0.5" style="stop-color:#75D6FF;stop-opacity:0"/>
	<a:midPointStop  offset="1" style="stop-color:#75D6FF"/>
</linearGradient>
<polygon fill="url(#SVGID_3_)" points="32.033,11.377 29.64,14.229 34.36,14.229 "/>
<polygon fill="#018BC9" points="20.763,12.175 18.86,14.443 20.763,16.809 22.613,14.443 "/>
<linearGradient id="SVGID_4_" gradientUnits="userSpaceOnUse" x1="20.7358" y1="14.4512" x2="20.7358" y2="12.5586">
	<stop  offset="0" style="stop-color:#75D6FF;stop-opacity:0"/>
	<stop  offset="1" style="stop-color:#75D6FF"/>
	<a:midPointStop  offset="0" style="stop-color:#75D6FF;stop-opacity:0"/>
	<a:midPointStop  offset="0.5" style="stop-color:#75D6FF;stop-opacity:0"/>
	<a:midPointStop  offset="1" style="stop-color:#75D6FF"/>
</linearGradient>
<polygon fill="url(#SVGID_4_)" points="20.759,12.559 19.171,14.451 22.301,14.451 "/>
<polygon fill="#018BC9" points="43.289,12.175 41.387,14.443 43.289,16.809 45.14,14.443 "/>
<linearGradient id="SVGID_5_" gradientUnits="userSpaceOnUse" x1="43.2637" y1="14.4512" x2="43.2637" y2="12.5586">
	<stop  offset="0" style="stop-color:#75D6FF;stop-opacity:0"/>
	<stop  offset="1" style="stop-color:#75D6FF"/>
	<a:midPointStop  offset="0" style="stop-color:#75D6FF;stop-opacity:0"/>
	<a:midPointStop  offset="0.5" style="stop-color:#75D6FF;stop-opacity:0"/>
	<a:midPointStop  offset="1" style="stop-color:#75D6FF"/>
</linearGradient>
<polygon fill="url(#SVGID_5_)" points="43.285,12.559 41.699,14.451 44.829,14.451 "/>
<polygon fill="#018BC9" points="50.664,10.998 49.727,13.069 50.358,15.234 51.89,13.069 "/>
<linearGradient id="SVGID_6_" gradientUnits="userSpaceOnUse" x1="51.043" y1="13.0781" x2="51.043" y2="11.3975">
	<stop  offset="0" style="stop-color:#75D6FF;stop-opacity:0"/>
	<stop  offset="1" style="stop-color:#75D6FF"/>
	<a:midPointStop  offset="0" style="stop-color:#75D6FF;stop-opacity:0"/>
	<a:midPointStop  offset="0.5" style="stop-color:#75D6FF;stop-opacity:0"/>
	<a:midPointStop  offset="1" style="stop-color:#75D6FF"/>
</linearGradient>
<polygon fill="url(#SVGID_6_)" points="50.902,11.397 50.195,13.078 51.89,13.069 "/>
<polygon fill="#018BC9" points="13.336,10.998 14.273,13.069 13.642,15.234 12.11,13.069 "/>
<linearGradient id="SVGID_7_" gradientUnits="userSpaceOnUse" x1="396.3965" y1="13.0781" x2="396.3965" y2="11.3975" gradientTransform="matrix(-1 0 0 1 409.3555 0)">
	<stop  offset="0" style="stop-color:#75D6FF;stop-opacity:0"/>
	<stop  offset="1" style="stop-color:#75D6FF"/>
	<a:midPointStop  offset="0" style="stop-color:#75D6FF;stop-opacity:0"/>
	<a:midPointStop  offset="0.5" style="stop-color:#75D6FF;stop-opacity:0"/>
	<a:midPointStop  offset="1" style="stop-color:#75D6FF"/>
</linearGradient>
<polygon fill="url(#SVGID_7_)" points="13.1,11.397 13.807,13.078 12.11,13.069 "/>
<radialGradient id="SVGID_8_" cx="39.1787" cy="155.2959" r="19.1257" gradientTransform="matrix(1.0084 0 0 0.2299 -7.5082 -16.9503)" gradientUnits="userSpaceOnUse">
	<stop  offset="0" style="stop-color:#FFE14D"/>
	<stop  offset="0.2499" style="stop-color:#FFDF4A"/>
	<stop  offset="0.4691" style="stop-color:#FFD93F"/>
	<stop  offset="0.6767" style="stop-color:#FFCF2D"/>
	<stop  offset="0.8761" style="stop-color:#FFC214"/>
	<stop  offset="1" style="stop-color:#FFB700"/>
	<a:midPointStop  offset="0" style="stop-color:#FFE14D"/>
	<a:midPointStop  offset="0.7333" style="stop-color:#FFE14D"/>
	<a:midPointStop  offset="1" style="stop-color:#FFB700"/>
</radialGradient>
<path fill="url(#SVGID_8_)" d="M50.502,20.689c-12.37,0-25.148,0.001-37.004,0.001c-0.888-0.234-0.867-1.995-0.009-1.775
	c11.864,0,24.727,0,37.021,0C51.37,18.696,51.389,20.454,50.502,20.689z"/>
</svg>
