<?xml version="1.0" encoding="utf-8"?>
<!-- Generator: Adobe Illustrator 15.0.0, SVG Export Plug-In . SVG Version: 6.00 Build 0)  -->
<!DOCTYPE svg PUBLIC "-//W3C//DTD SVG 1.1//EN" "http://www.w3.org/Graphics/SVG/1.1/DTD/svg11.dtd" [
	<!ENTITY ns_flows "http://ns.adobe.com/Flows/1.0/">
	<!ENTITY ns_extend "http://ns.adobe.com/Extensibility/1.0/">
	<!ENTITY ns_ai "http://ns.adobe.com/AdobeIllustrator/10.0/">
	<!ENTITY ns_graphs "http://ns.adobe.com/Graphs/1.0/">
]>
<svg version="1.1" id="Layer_1" xmlns:x="&ns_extend;" xmlns:i="&ns_ai;" xmlns:graph="&ns_graphs;"
	 xmlns="http://www.w3.org/2000/svg" xmlns:xlink="http://www.w3.org/1999/xlink" xmlns:a="http://ns.adobe.com/AdobeSVGViewerExtensions/3.0/"
	 x="0px" y="0px" width="64px" height="64px" viewBox="0 0 64 64" enable-background="new 0 0 64 64" xml:space="preserve">
<rect x="9.137" y="29.356" fill="#FFCC66" width="4.584" height="2.133"/>
<path fill="#FFCC66" d="M57.066,24.258c0.879-1.533-0.441-2.51-2.525,0.176c-1.609,2.072-7.045,5.795-3.119,6.732
	c2.797,0.668,9.613-4.387,10.465-9.473C62.662,17.073,59.281,23.262,57.066,24.258z"/>
<path fill="#FFCC66" d="M6.934,24.258c-0.879-1.533,0.441-2.51,2.523,0.176c1.609,2.072,7.045,5.795,3.119,6.732
	c-2.795,0.668-9.613-4.387-10.463-9.473C1.338,17.073,4.717,23.262,6.934,24.258z"/>
<rect x="50.639" y="29.356" fill="#FFCC66" width="4.584" height="2.133"/>
<path fill="#7AB51D" d="M55.764,31.077h-5.709L50.26,44.22c0,0-1.922-3.754-5.027-6.299c-4.744-3.886-8.332-1.334-13.053-1.334
	s-8.309-2.552-13.053,1.334c-3.107,2.545-5.029,6.299-5.029,6.299l0.207-13.143H8.594c0,0-0.734,15.769-0.457,21.017
	c0.258,4.848,3.916,6.688,11.459-3.385C20.428,55.771,20.012,62,20.012,62H32.18l0,0h12.166c0,0-0.416-6.229,0.418-13.291
	c7.541,10.072,11.199,8.232,11.459,3.385C56.5,46.846,55.764,31.077,55.764,31.077z"/>
<polygon fill="#529320" points="15.906,41.384 14.109,43.458 14.008,48.217 "/>
<polygon fill="#529320" points="48.453,41.384 50.25,43.458 50.352,48.217 "/>
<path fill="#E6B045" d="M27.18,37.298c0,4.469,10,4.469,10,0c0-2.728,0-5.233,0-5.233h-10C27.18,32.065,27.18,33.777,27.18,37.298z"
	/>
<path fill="#E6B045" d="M19.387,24.655c-3.877-0.014,0.91,9.976,3.342,6.559C23.854,29.629,21.199,24.665,19.387,24.655z"/>
<path fill="#E6B045" d="M41.861,20.694c-1.701,0.627-2.498,6.201-0.896,7.305C44.418,30.377,45.496,19.354,41.861,20.694z"/>
<path fill="#FFCC66" d="M28.453,10.356c-7.771,1.369-10.479,7.908-8.568,15.998c0.385,1.629,2.35,6.812,3.652,8.566
	c1.33,1.796,5.16,4.249,7.289,4.522c1.346,0.172,4.137-0.32,5.342-0.941c1.906-0.986,4.666-4.601,5.305-6.743
	c0.625-2.094,0.695-7.637,0.5-9.299C41.002,14.204,36.221,8.985,28.453,10.356z"/>
<path fill="#E6B045" d="M34.275,29.292c0.275,1.568-4.543,2.418-4.818,0.85C29.393,29.782,34.211,28.932,34.275,29.292z"/>
<path fill="#594640" d="M28.453,10.356c-5.348,0.941-8.266,3.277-9.777,2.846c0,0,0.01,0.938,0.66,1.434
	c0,0-0.486,0.602-1.566-0.076c-0.379,3.031,2.545,4.234,11.881,2.588c9.334-1.646,6.703-3.525,11.996-0.342
	C40.33,11.963,36.568,8.924,28.453,10.356z"/>
<path fill="#453631" d="M33.162,13.948c-4.807,2.805-7.287-0.287-12.197,0.238c2.5,0.682,3.92,2.16,6.027,3.035
	c-4.363-0.652-7.809-2.494-8.314-4.012c0,0-0.285,2.396,2.734,3.619c-2.557,0.699-3.639-2.262-3.639-2.262
	c-0.945,2.35,0.441,9.143,2.797,13.947c-0.074-1.85-0.762-2.498-0.311-4.824c1.354-6.949,0.225-3.932,9.563-5.578
	c9.332-1.646,7.209-3.842,10.891,1.973c1.098,1.732,0.793,2.875,1.357,4.639C43.127,12.764,38.26,10.975,33.162,13.948z"/>
<path fill="#FFFFFF" d="M39.359,23.573c-0.561,2.9-4.854,3.248-5.963,1.48C33.445,21.895,38.277,20.774,39.359,23.573z"/>
<path fill="#FFFFFF" d="M22.723,26.506c1.516,2.533,5.672,1.391,6.107-0.648C27.705,22.905,22.781,23.504,22.723,26.506z"/>
<path fill="#C1873C" d="M39.213,20.225c-1.934-0.568-5.342-0.012-6.498,0.826c-0.25,0.168,0.076,0.973,0.289,0.852
	c1.652-0.965,4.496-1.482,6.275-1.049C39.516,20.909,39.504,20.301,39.213,20.225z"/>
<path fill="#C1873C" d="M21.715,23.311c1.621-1.195,5.014-1.838,6.389-1.447c0.293,0.072,0.262,0.941,0.02,0.9
	c-1.883-0.342-4.732,0.143-6.258,1.16C21.662,24.057,21.467,23.481,21.715,23.311z"/>
<path fill="#613F34" d="M34.35,24.157c0.42,2.385,3.871,1.777,3.449-0.609C37.408,21.334,33.959,21.942,34.35,24.157z"/>
<path fill="#7D5037" d="M34.824,24.862c0.242,1.365,3.01,0.877,2.77-0.488C37.369,23.104,34.602,23.592,34.824,24.862z"/>
<path fill="#1A1626" d="M35.365,24.016c0.174,0.99,1.607,0.738,1.432-0.252C36.635,22.846,35.203,23.1,35.365,24.016z"/>
<path fill="#AB968C" d="M34.824,23.813c0.088,0.502,0.813,0.373,0.725-0.127C35.467,23.223,34.742,23.352,34.824,23.813z"/>
<path fill="#613F34" d="M24.18,25.95c0.42,2.385,3.871,1.777,3.451-0.609C27.24,23.127,23.789,23.735,24.18,25.95z"/>
<path fill="#7D5037" d="M24.656,26.653c0.242,1.367,3.008,0.879,2.768-0.488C27.199,24.895,24.434,25.383,24.656,26.653z"/>
<path fill="#1A1626" d="M25.195,25.809c0.176,0.99,1.607,0.736,1.434-0.252C26.467,24.637,25.033,24.891,25.195,25.809z"/>
<path fill="#AB968C" d="M24.656,25.606c0.088,0.502,0.811,0.373,0.723-0.127C25.297,25.016,24.574,25.143,24.656,25.606z"/>
<path fill="#E6B045" d="M39.355,23.551c-0.514-2.918-6.551-1.854-5.955,1.527C33.775,22.153,38.086,21.393,39.355,23.551z"/>
<path fill="#E6B045" d="M22.719,26.485c-0.516-2.918,5.521-3.982,6.117-0.602C27.486,23.26,23.174,24.02,22.719,26.485z"/>
<path fill="#C1873C" d="M35.535,33.127c-1.662,0.266-4.029,0.416-5.949,0.258c-0.725-0.059-0.912,0.938-0.152,1.037
	c2.133,0.275,4.594,0.059,6.326-0.73C36.18,33.5,35.938,33.063,35.535,33.127z"/>
</svg>
