<?xml version="1.0" encoding="utf-8"?>
<!-- Generator: Adobe Illustrator 15.0.0, SVG Export Plug-In . SVG Version: 6.00 Build 0)  -->
<!DOCTYPE svg PUBLIC "-//W3C//DTD SVG 1.1//EN" "http://www.w3.org/Graphics/SVG/1.1/DTD/svg11.dtd" [
	<!ENTITY ns_flows "http://ns.adobe.com/Flows/1.0/">
	<!ENTITY ns_extend "http://ns.adobe.com/Extensibility/1.0/">
	<!ENTITY ns_ai "http://ns.adobe.com/AdobeIllustrator/10.0/">
	<!ENTITY ns_graphs "http://ns.adobe.com/Graphs/1.0/">
]>
<svg version="1.1" id="Layer_1" xmlns:x="&ns_extend;" xmlns:i="&ns_ai;" xmlns:graph="&ns_graphs;"
	 xmlns="http://www.w3.org/2000/svg" xmlns:xlink="http://www.w3.org/1999/xlink" xmlns:a="http://ns.adobe.com/AdobeSVGViewerExtensions/3.0/"
	 x="0px" y="0px" width="64px" height="64px" viewBox="0 0 64 64" enable-background="new 0 0 64 64" xml:space="preserve">
<path fill="#947D41" d="M25.81,7.433c-8.713,20.418-8.178,20.039,2.264,21.881C23.007,24.251,37.091,9.12,25.81,7.433z"/>
<path fill="#BA9D52" d="M24.077,6.786c-6.469,15.541-4.074,20.244-1.451,21.566l3.176,0.561
	C19.294,22.364,33.776,8.167,24.077,6.786z"/>
<path fill="#947D41" d="M40.405,10.003c1.205,22.17,0.83,21.631-9.609,19.789C36.685,27.487,29.231,7.735,40.405,10.003z"/>
<path fill="#BA9D52" d="M42.255,9.991c2.695,15.648-3.623,20.479-6.012,20.762l-3.176-0.561
	C41.353,26.696,32.671,7.972,42.255,9.991z"/>
<path fill="#EFDE8B" d="M41.741,18.052c0.873,4.014-2,11.424-5.498,12.701c3.516,0.621,6.521-3.865,8.742-10.377
	C47.769,12.237,40.188,10.894,41.741,18.052z"/>
<path fill="#EFDE8B" d="M18.083,17.231c0.213,6.268,1.09,10.512,4.543,11.121c-3.145-4.662-1.215-12.986,0.254-14.883
	C29.034,11.134,17.718,6.626,18.083,17.231z"/>
<path fill="#732EB0" d="M33.101,27.294c4.434,0.926,5.523,4.482,5.527,5.348c0.004,0.711,1.313,5.896,1.607,8.689
	c2.063,2.645,7.611,14.928,4.682,17.35C42.55,58.292,29.169,26.472,33.101,27.294z"/>
<linearGradient id="SVGID_1_" gradientUnits="userSpaceOnUse" x1="24.189" y1="59.2471" x2="37.1061" y2="33.5804">
	<stop  offset="0" style="stop-color:#732EB0"/>
	<stop  offset="0.0177" style="stop-color:#742FB1"/>
	<stop  offset="0.3488" style="stop-color:#8237C6"/>
	<stop  offset="0.6777" style="stop-color:#8B3CD2"/>
	<stop  offset="1" style="stop-color:#8E3ED6"/>
	<a:midPointStop  offset="0" style="stop-color:#732EB0"/>
	<a:midPointStop  offset="0.297" style="stop-color:#732EB0"/>
	<a:midPointStop  offset="1" style="stop-color:#8E3ED6"/>
</linearGradient>
<path fill="url(#SVGID_1_)" d="M40.54,41.085c1.195-0.473,2.109-2.377,0.131-4.65c0.006,0.01,0.01,0.018,0.016,0.027
	c-0.627-0.945-1.492-1.771-2.043-2.535c-3.002-4.156-1.156-5.531-7.334-7.436c-3.053-0.049-5.018,0.232-6.242,0.809
	c-0.002,0-0.004,0-0.006,0c-2.402,0.375-4.68,1.582-5.131,6.049c-0.43,4.277-1.348,17.322,0.586,17.666
	c0.367,0.064,1.162-0.084,2.189-0.363c-0.504,12.883,15.529,14.484,20.609,6.391C45.8,53.085,44.841,45.968,40.54,41.085z"/>
<path fill="#E3C19B" d="M41.991,44.108c-0.809-0.287-1.805-1.225-2.49-1.279c-3.561-0.295-5.305-0.813-3.818,2.465
	c0.604,0.258,1.195,0.098,3.82,2.16c0.785,0.623,1.219,0.4,0.846,0.004c-2.988-3.182-0.334-0.594,0.303-0.008
	c0.873,0.799,1.758,0.652,1.289,0.201c-3.027-2.924-1.869-2.025,0.156-0.152c0.457,0.42,1.188,0.109,0.477-0.559
	c-2.25-2.105-1.641-1.736,0.197-0.088c0.406,0.359,0.957,0.26,0.525-0.32c-0.189-0.248-1.285-1.428-1.758-1.881
	C42.38,44.825,42.657,44.343,41.991,44.108z"/>
<path fill="#E3C19B" d="M37.253,61.556c0.363-1.373,2.021,0.039,4.445-3.021c0.363-0.463-3.172,1.779-3.15,0.037
	c2.068-0.582,2.066-2.029,5.441-2.012c0.332,0.234,0.99,1.691,0.922,1.973c-0.881,1.117-1.678,1.912-2.33,2.24
	C41.577,61.278,37.122,62.056,37.253,61.556z"/>
<linearGradient id="SVGID_2_" gradientUnits="userSpaceOnUse" x1="22.6055" y1="43.9375" x2="30.5214" y2="36.8751">
	<stop  offset="0" style="stop-color:#5D1E96"/>
	<stop  offset="1" style="stop-color:#5D1E96;stop-opacity:0"/>
	<a:midPointStop  offset="0" style="stop-color:#5D1E96"/>
	<a:midPointStop  offset="0.3333" style="stop-color:#5D1E96"/>
	<a:midPointStop  offset="1" style="stop-color:#5D1E96;stop-opacity:0"/>
</linearGradient>
<path fill="url(#SVGID_2_)" d="M35.638,42.603c-0.598,0.229-11.762,3.207-11.896,2.631s0.713-8.289,1.232-10.367
	c0.271-1.092,0.551-2.586,0.699-3.959"/>
<linearGradient id="SVGID_3_" gradientUnits="userSpaceOnUse" x1="22.958" y1="49.4971" x2="34.9606" y2="54.1444">
	<stop  offset="0" style="stop-color:#5D1E96"/>
	<stop  offset="1" style="stop-color:#5D1E96;stop-opacity:0"/>
	<a:midPointStop  offset="0" style="stop-color:#5D1E96"/>
	<a:midPointStop  offset="0.3333" style="stop-color:#5D1E96"/>
	<a:midPointStop  offset="1" style="stop-color:#5D1E96;stop-opacity:0"/>
</linearGradient>
<path fill="url(#SVGID_3_)" d="M33.601,61.999c-5.391,0-11.344-3.766-10.895-11.348c3.176-1.074,11.584-4.029,13.316-5.338"/>
<path fill="#D6A67A" d="M26.847,26.374c-0.727,4.119,5.67,5.246,6.395,1.129l0.754-4.273l-6.396-1.127L26.847,26.374z"/>
<path fill="#E3C19B" d="M34.071,3.614c-6.609-1.166-10.742,3.65-11.566,10.646c-0.164,1.406-0.129,3.48,0.045,5.283
	c0.357,3.75,4.957,8.271,7.186,8.664s8.09-2.285,9.717-5.686c0.777-1.633,1.518-3.57,1.848-4.949
	C42.917,10.72,40.685,4.78,34.071,3.614z"/>
<path fill="#C97E55" d="M30.741,22.501c-1.482-0.992-1.615-0.314-4.127-0.59c0.75,1.225,1.195,2.705,3.676,3.143
	c2.852,0.502,3.6-0.957,4.529-1.695C32.366,22.757,32.472,22.075,30.741,22.501z"/>
<path fill="#FFFFFF" d="M27.313,22.308c1.322,1.969,4.822,2.566,6.713,1.184C31.487,23.319,29.767,23.017,27.313,22.308z"/>
<path fill="#594640" d="M39.63,14.685c-1.334-1.148-3.984-1.727-5.15-1.311c-0.244,0.08-0.295,0.738-0.09,0.689
	c1.621-0.363,3.924,0.012,5.209,0.988C39.772,15.181,39.833,14.854,39.63,14.685z"/>
<path fill="#594640" d="M25.063,12.116c1.643-0.625,4.332-0.262,5.287,0.529c0.201,0.16,0.029,0.795-0.15,0.678
	c-1.398-0.895-3.689-1.33-5.23-0.85C24.761,12.532,24.812,12.206,25.063,12.116z"/>
<path fill="#D6A67A" d="M33.216,20.444c-0.236,1.334-4.33,0.613-4.096-0.723C29.175,19.415,33.271,20.136,33.216,20.444z"/>
<path fill="#EFDE8B" d="M41.288,5.874c-5.475,3.934-1.1,5.02,0.453,12.178c0.873,4.014,1.023,8.836,3.244,2.324
	C47.769,12.237,43.767,5.591,41.288,5.874z"/>
<path fill="#EFDE8B" d="M30.233,2.052c-6.123,0.346-12.516,4.574-12.15,15.18c0.213,6.268,3.328-1.865,4.797-3.762
	c6.154-2.336,16.133-3.17,18.408-7.596C42.214,4.925,36.384,1.546,30.233,2.052z"/>
<path fill="#BA9D52" d="M24.415,8.702c2.576-0.064,14.508,1.793,16.873-2.828C38.083,7.62,35.067,7.718,24.415,8.702z"/>
<path fill="#BA9D52" d="M18.761,15.718c5.148-4.83,18.701-1.807,22.527-9.844C35.503,12.167,20.841,10.567,18.761,15.718z"/>
<path fill="#BA9D52" d="M39.71,6.79c-1.373,1.51,2.805-0.324,4.908,11.309C44.751,11.538,42.118,6.542,39.71,6.79z"/>
<path fill="#45332C" d="M29.765,15.78c-1.367,0.566-3.277,0.23-4.367-0.77c-0.166-0.154-0.303-0.045-0.26,0.068
	c0.836,2.234,3.297,2.668,4.848,0.854C30.063,15.843,29.974,15.692,29.765,15.78z"/>
<path fill="#45332C" d="M38.329,17.29c-1.367,0.566-3.277,0.23-4.367-0.77c-0.166-0.154-0.301-0.043-0.262,0.068
	c0.838,2.234,3.299,2.668,4.848,0.854C38.626,17.353,38.538,17.202,38.329,17.29z"/>
</svg>
