<?xml version="1.0" encoding="utf-8"?>
<!-- Generator: Adobe Illustrator 19.0.0, SVG Export Plug-In . SVG Version: 6.00 Build 0)  -->
<svg version="1.1" id="Layer_1" xmlns="http://www.w3.org/2000/svg" xmlns:xlink="http://www.w3.org/1999/xlink" x="0px" y="0px"
	 width="64px" height="64px" viewBox="0 0 64 64" enable-background="new 0 0 64 64" xml:space="preserve">
<path fill="#FFBB4F" d="M41.01,2.715c0-0.002-1.855,6.516-7.32,6.516c5.273,3.666,9.367,3.666,14.641,0
	C42.865,9.231,41.01,2.713,41.01,2.715z"/>
<path fill="#FFBB4F" d="M22.988,2.715c0-0.002-1.853,6.516-7.32,6.516c5.273,3.666,9.369,3.666,14.642,0
	C24.846,9.231,22.988,2.713,22.988,2.715z"/>
<path fill="#018BC9" d="M9.789,51.781c2.699-1.511,13.906-5.49,13.906-5.49h16.699c0,0,11.197,3.974,13.881,5.484
	C58.18,53.968,59,62,59,62H5C5,62,5.871,53.965,9.789,51.781z"/>
<path fill="#F9C802" d="M5.996,53.021h3.006c0,0,0,4.475,0,7.495c0,1.903-3.006,1.903-3.006,0
	C5.996,56.34,5.996,53.021,5.996,53.021z"/>
<path fill="#F9B700" d="M9.002,51.934h3.006c0,0,0,4.475,0,7.495c0,1.903-3.006,1.903-3.006,0
	C9.002,55.254,9.002,51.934,9.002,51.934z"/>
<path fill="#F9C802" d="M12.008,50.847h3.006c0,0,0,4.475,0,7.495c0,1.903-3.006,1.903-3.006,0
	C12.008,54.167,12.008,50.847,12.008,50.847z"/>
<path fill="#F9B700" d="M15.014,49.76h3.006c0,0,0,4.475,0,7.495c0,1.903-3.006,1.903-3.006,0
	C15.014,53.08,15.014,49.76,15.014,49.76z"/>
<path fill="#FFE12C" d="M23.777,45.243l-1.006,3.34c0,0-14.565,5.874-16.586,6.845c-2.002,0.968-1.189-2.146,0.385-3.267
	C7.158,51.734,20.291,46.288,23.777,45.243z"/>
<path fill="#F9C802" d="M58.004,53.021h-3.006c0,0,0,4.475,0,7.495c0,1.903,3.006,1.903,3.006,0
	C58.004,56.34,58.004,53.021,58.004,53.021z"/>
<path fill="#F9B700" d="M54.998,51.934h-3.006c0,0,0,4.475,0,7.495c0,1.903,3.006,1.903,3.006,0
	C54.998,55.254,54.998,51.934,54.998,51.934z"/>
<path fill="#F9C802" d="M51.992,50.847h-3.006c0,0,0,4.475,0,7.495c0,1.903,3.006,1.903,3.006,0
	C51.992,54.167,51.992,50.847,51.992,50.847z"/>
<path fill="#F9B700" d="M48.986,49.76H45.98c0,0,0,4.475,0,7.495c0,1.903,3.006,1.903,3.006,0
	C48.986,53.08,48.986,49.76,48.986,49.76z"/>
<path fill="#FFE12C" d="M40.223,45.243l1.008,3.34c0,0,14.564,5.874,16.584,6.845c2.002,0.968,1.191-2.146-0.383-3.267
	C56.842,51.734,43.709,46.288,40.223,45.243z"/>
<path fill="#755035" d="M23.187,50.146l7.738,3.478h2.146c0,0,8.068-1.277,8.068-10.321H23.187V50.146z"/>
<path fill="#006DAE" d="M22.178,46.546c0-0.978,0-2.821,0-4.046c0-0.308,1.242-0.287,1.242-0.287
	c-0.771,9.483,7.506,9.571,7.506,9.571v4.21C30.926,55.994,22.178,55.962,22.178,46.546z"/>
<path fill="#FFE12C" d="M22.178,42.5c0-0.308,1.242-0.287,1.242-0.287c0,9.047,7.506,9.571,7.506,9.571v1.011
	C27.781,52.795,22.178,50.188,22.178,42.5z"/>
<path fill="#006DAE" d="M41.824,46.546c0-0.978,0-2.821,0-4.046c0-0.308-1.242-0.287-1.242-0.287c0.746,9.375-7.51,9.571-7.51,9.571
	v4.21C33.072,55.994,41.824,55.962,41.824,46.546z"/>
<path fill="#FFE12C" d="M41.824,42.5c0-0.308-1.242-0.287-1.242-0.287c0,9.047-7.51,9.571-7.51,9.571v1.011
	C36.219,52.795,41.824,50.188,41.824,42.5z"/>
<polygon fill="#F9B700" points="32,51.784 30.926,51.784 30.926,62 32.539,62 "/>
<rect x="32" y="51.784" fill="#F9C802" width="1.076" height="10.216"/>
<path fill="#755035" d="M14.9,24.235c-5.717-1.03-1.252,14.959,3.225,10.548C20.197,32.74,17.574,24.72,14.9,24.235z"/>
<path fill="#755035" d="M49.099,24.235c-2.674,0.484-5.299,8.505-3.223,10.548C50.355,39.194,54.816,23.205,49.099,24.235z"/>
<path fill="#916B50" d="M32,5.488c-11.822,0-17.52,8.945-16.805,21.383c0.143,2.503,1.691,10.666,3.156,13.594
	c1.5,2.995,6.512,7.614,9.584,8.57c1.941,0.604,6.188,0.604,8.129,0c3.072-0.956,8.086-5.575,9.586-8.57
	c1.465-2.928,3.014-11.091,3.158-13.594C49.521,14.434,43.826,5.488,32,5.488z"/>
<path fill="#664129" d="M32,39.35c-2.66-0.782-6.6,0.37-6.6,0.37c1.5,1.635,2.602,3.756,6.6,3.756c4.582,0,5.361-2.407,6.602-3.756
	C38.601,39.72,34.656,38.563,32,39.35z"/>
<path fill="#FFFFFF" d="M26.406,39.997c2.789,2.339,8.42,2.354,11.223,0C34.656,40.124,29.398,40.126,26.406,39.997z"/>
<path fill="#755035" d="M35.666,34.951c0,2.387-7.33,2.387-7.33,0C28.336,34.404,35.666,34.404,35.666,34.951z"/>
<path fill="#4A2E24" d="M13.806,16.797c-0.006,4.211,0.617,9.22,1.836,13.441c0.371-2.75-0.475-3.887,0.797-7.201
	c1.479-3.85,2.014-5.569,2.949-6.24H13.806z"/>
<path fill="#4A2E24" d="M44.306,16.797c1.1,0.561,1.6,2.205,3.258,6.24c1.168,2.844,0.424,4.451,0.797,7.201
	c1.613-6.009,1.854-10.386,1.15-13.441H44.306z"/>
<path fill="#FFFFFF" d="M44.66,27.834c-1.578,4.136-8.006,3.529-9.184,0.635C36.369,23.819,43.793,23.422,44.66,27.834z"/>
<path fill="#FFFFFF" d="M19.342,27.834c1.58,4.136,8.01,3.529,9.186,0.635C27.635,23.817,20.213,23.42,19.342,27.834z"/>
<path fill="#664129" d="M45.316,22.855c-2.703-1.342-7.879-1.407-9.807-0.472c-0.412,0.182-0.141,1.454,0.207,1.332
	c2.688-0.995,7.021-1.019,9.535,0.086C45.586,23.943,45.726,23.043,45.316,22.855z"/>
<path fill="#664129" d="M18.687,22.855c2.705-1.342,7.877-1.407,9.807-0.472c0.412,0.182,0.141,1.454-0.205,1.332
	c-2.691-0.995-7.021-1.019-9.537,0.086C18.418,23.943,18.279,23.043,18.687,22.855z"/>
<path fill="#613F34" d="M37.115,27.394c0,3.629,5.25,3.629,5.25,0C42.365,24.024,37.115,24.024,37.115,27.394z"/>
<path fill="#7D5037" d="M37.635,28.555c0,2.081,4.211,2.081,4.211,0C41.846,26.623,37.635,26.623,37.635,28.555z"/>
<path fill="#1A1626" d="M38.65,27.45c0,1.507,2.18,1.507,2.18,0C40.83,26.053,38.65,26.053,38.65,27.45z"/>
<path fill="#AB968C" d="M37.908,27.011c0,0.761,1.1,0.761,1.1,0C39.008,26.305,37.908,26.305,37.908,27.011z"/>
<path fill="#613F34" d="M21.639,27.393c0,3.63,5.25,3.63,5.25,0C26.889,24.024,21.639,24.024,21.639,27.393z"/>
<path fill="#7D5037" d="M22.158,28.554c0,2.081,4.211,2.081,4.211,0C26.369,26.622,22.158,26.622,22.158,28.554z"/>
<path fill="#1A1626" d="M23.174,27.45c0,1.506,2.18,1.506,2.18,0C25.353,26.051,23.174,26.051,23.174,27.45z"/>
<path fill="#AB968C" d="M22.43,27.01c0,0.761,1.101,0.761,1.101,0C23.531,26.304,22.43,26.304,22.43,27.01z"/>
<path fill="#755035" d="M44.66,27.803c0-4.44-9.184-4.44-9.184,0.703C36.787,24.286,43.349,24.286,44.66,27.803z"/>
<path fill="#755035" d="M19.342,27.803c0-4.44,9.186-4.44,9.186,0.702C27.217,24.283,20.654,24.283,19.342,27.803z"/>
<linearGradient id="SVGID_1_" gradientUnits="userSpaceOnUse" x1="15.1346" y1="11.3389" x2="48.865" y2="11.3389">
	<stop  offset="0" style="stop-color:#8E3ED6"/>
	<stop  offset="0.2286" style="stop-color:#8A3BD1"/>
	<stop  offset="0.5057" style="stop-color:#7F34C2"/>
	<stop  offset="0.8069" style="stop-color:#6C28AA"/>
	<stop  offset="1" style="stop-color:#5D1E96"/>
</linearGradient>
<path fill="url(#SVGID_1_)" d="M48.865,17.631c-2.371-7.695-8.02-12.584-16.867-12.584c-8.842,0-14.494,4.889-16.863,12.584H48.865z
	"/>
<radialGradient id="SVGID_2_" cx="39.3178" cy="146.9306" r="21.2644" gradientTransform="matrix(1.0084 0 0 0.947 -7.6482 -127.4804)" gradientUnits="userSpaceOnUse">
	<stop  offset="0" style="stop-color:#FFE14D"/>
	<stop  offset="0.2499" style="stop-color:#FFDF4A"/>
	<stop  offset="0.4691" style="stop-color:#FFD93F"/>
	<stop  offset="0.6767" style="stop-color:#FFCF2D"/>
	<stop  offset="0.8761" style="stop-color:#FFC214"/>
	<stop  offset="1" style="stop-color:#FFB700"/>
</radialGradient>
<path fill="url(#SVGID_2_)" d="M51.43,3.853c0,0-3.369,7.36-10.264,7.36C34.275,11.214,31.998,2,31.998,2l0,0
	c0,0-2.275,9.214-9.168,9.214c-6.895,0-10.26-7.36-10.26-7.36l0,0l1.09,17.485h36.678L51.43,3.853L51.43,3.853z"/>
<polygon fill="#018BC9" points="32.039,10.797 29.17,14.217 32.039,17.784 34.828,14.217 "/>
<linearGradient id="SVGID_3_" gradientUnits="userSpaceOnUse" x1="31.9989" y1="14.2295" x2="31.9989" y2="11.377">
	<stop  offset="0" style="stop-color:#75D6FF;stop-opacity:0"/>
	<stop  offset="1" style="stop-color:#75D6FF"/>
</linearGradient>
<polygon fill="url(#SVGID_3_)" points="32.033,11.377 29.639,14.229 34.359,14.229 "/>
<polygon fill="#018BC9" points="20.762,12.175 18.859,14.443 20.762,16.809 22.613,14.443 "/>
<linearGradient id="SVGID_4_" gradientUnits="userSpaceOnUse" x1="20.7352" y1="14.4512" x2="20.7352" y2="12.5586">
	<stop  offset="0" style="stop-color:#75D6FF;stop-opacity:0"/>
	<stop  offset="1" style="stop-color:#75D6FF"/>
</linearGradient>
<polygon fill="url(#SVGID_4_)" points="20.758,12.559 19.17,14.451 22.301,14.451 "/>
<polygon fill="#018BC9" points="43.289,12.175 41.387,14.443 43.289,16.809 45.139,14.443 "/>
<linearGradient id="SVGID_5_" gradientUnits="userSpaceOnUse" x1="43.2635" y1="14.4512" x2="43.2635" y2="12.5586">
	<stop  offset="0" style="stop-color:#75D6FF;stop-opacity:0"/>
	<stop  offset="1" style="stop-color:#75D6FF"/>
</linearGradient>
<polygon fill="url(#SVGID_5_)" points="43.285,12.559 41.699,14.451 44.828,14.451 "/>
<polygon fill="#018BC9" points="50.664,10.998 49.726,13.069 50.357,15.234 51.889,13.069 "/>
<linearGradient id="SVGID_6_" gradientUnits="userSpaceOnUse" x1="51.0418" y1="13.0782" x2="51.0418" y2="11.3975">
	<stop  offset="0" style="stop-color:#75D6FF;stop-opacity:0"/>
	<stop  offset="1" style="stop-color:#75D6FF"/>
</linearGradient>
<polygon fill="url(#SVGID_6_)" points="50.902,11.398 50.195,13.078 51.889,13.069 "/>
<polygon fill="#018BC9" points="13.336,10.998 14.273,13.069 13.64,15.234 12.109,13.069 "/>
<linearGradient id="SVGID_7_" gradientUnits="userSpaceOnUse" x1="396.3977" y1="13.0782" x2="396.3977" y2="11.3975" gradientTransform="matrix(-1 0 0 1 409.3555 0)">
	<stop  offset="0" style="stop-color:#75D6FF;stop-opacity:0"/>
	<stop  offset="1" style="stop-color:#75D6FF"/>
</linearGradient>
<polygon fill="url(#SVGID_7_)" points="13.099,11.398 13.806,13.078 12.109,13.069 "/>
<radialGradient id="SVGID_8_" cx="39.3173" cy="155.4729" r="19.1262" gradientTransform="matrix(1.0084 0 0 0.2299 -7.6482 -16.991)" gradientUnits="userSpaceOnUse">
	<stop  offset="0" style="stop-color:#FFE14D"/>
	<stop  offset="0.2499" style="stop-color:#FFDF4A"/>
	<stop  offset="0.4691" style="stop-color:#FFD93F"/>
	<stop  offset="0.6767" style="stop-color:#FFCF2D"/>
	<stop  offset="0.8761" style="stop-color:#FFC214"/>
	<stop  offset="1" style="stop-color:#FFB700"/>
</radialGradient>
<path fill="url(#SVGID_8_)" d="M50.502,20.69c-12.371,0-25.149,0.001-37.004,0.001c-0.889-0.234-0.867-1.995-0.01-1.775
	c11.865,0,24.727,0,37.021,0C51.369,18.696,51.389,20.454,50.502,20.69z"/>
</svg>
