<?xml version="1.0" encoding="utf-8"?>
<!-- Generator: Adobe Illustrator 15.0.0, SVG Export Plug-In . SVG Version: 6.00 Build 0)  -->
<!DOCTYPE svg PUBLIC "-//W3C//DTD SVG 1.1//EN" "http://www.w3.org/Graphics/SVG/1.1/DTD/svg11.dtd" [
	<!ENTITY ns_flows "http://ns.adobe.com/Flows/1.0/">
	<!ENTITY ns_extend "http://ns.adobe.com/Extensibility/1.0/">
	<!ENTITY ns_ai "http://ns.adobe.com/AdobeIllustrator/10.0/">
	<!ENTITY ns_graphs "http://ns.adobe.com/Graphs/1.0/">
]>
<svg version="1.1" id="Layer_1" xmlns:x="&ns_extend;" xmlns:i="&ns_ai;" xmlns:graph="&ns_graphs;"
	 xmlns="http://www.w3.org/2000/svg" xmlns:xlink="http://www.w3.org/1999/xlink" xmlns:a="http://ns.adobe.com/AdobeSVGViewerExtensions/3.0/"
	 x="0px" y="0px" width="64px" height="64px" viewBox="0 0 64 64" enable-background="new 0 0 64 64" xml:space="preserve">
<path fill="#7AB51D" d="M9.006,2.368c0,0,3.346-1.107,6.492,0.521l2.418,0.529c0.037,0.341-0.107,0.394-0.107,0.394
	s-2.242,0.784-8.668-1.1C9.141,2.712,8.961,2.668,9.006,2.368z"/>
<path fill="#302C3B" d="M13.836,6.373C13.385,4.969,8.79,4.932,9.141,2.712c0,0,3.105-1.061,6.25,0.57l2.418,0.529
	C17.809,7.553,16.344,6.984,13.836,6.373z"/>
<path fill="#7AB51D" d="M11.329,4.904c0.996-0.625,1.605-0.665,1.559-0.106c0.645-0.285,0.902,0.092,0.838,0.418
	c0.66-0.14,0.773,0.416-0.061,0.856C13.19,6.299,11.059,5.071,11.329,4.904z"/>
<path fill="#B88A6F" d="M16.967,6.263c1.936,4.521,4.287,5.684,4.748,10.083c1.063,3.895,2.57,4.817,3.723,8.514
	c-0.287,1.635-3.199,2.564-5.367,2.296c-2.203-6.554-2.703-9.786-2.707-10.963c-0.002-0.888-0.07-3.04-2.869-8.958
	C14.266,6.752,16.864,6.019,16.967,6.263z"/>
<path fill="#F2F5F7" d="M17.2,5.988c0.084,0.056,0.072,0.943,0.072,0.943c-0.674-0.319-2.451-0.184-2.777,0.303
	c-0.127-0.281-0.262-0.562-0.391-0.854C13.948,6.028,16.311,5.403,17.2,5.988z"/>
<path fill="#7AB51D" d="M55,20.34c0,0-1.57-3.049-5.047-4.026L47.82,15.05c-0.281,0.216-0.219,0.351-0.219,0.351
	s1.023,2.073,7.045,5.093C54.646,20.493,54.809,20.584,55,20.34z"/>
<path fill="#302C3B" d="M48.535,19.901c1.375-0.687,4.699,2.397,6.111,0.592c0,0-1.434-2.854-4.912-3.829L47.602,15.4
	C44.799,18.047,46.275,18.637,48.535,19.901z"/>
<path fill="#7AB51D" d="M51.436,20.562c-0.248-1.116-0.654-1.558-1.039-1.131c-0.25-0.638-0.717-0.546-0.916-0.271
	c-0.367-0.546-0.865-0.23-0.598,0.647C49.055,20.287,51.504,20.862,51.436,20.562z"/>
<path fill="#B88A6F" d="M46.445,17.663c-4.635,1.769-7.068,0.844-10.592,3.592c-3.572,1.962-5.33,1.557-8.822,3.313
	c-0.99,1.354,0.345,4.108,2.044,5.488c6.301-2.999,8.996-4.579,9.855-5.401c0.648-0.619,2.268-2.4,8.52-4.522
	C47.961,19.959,46.697,17.566,46.445,17.663z"/>
<path fill="#F2F5F7" d="M46.484,17.304c-0.098-0.022-0.736,0.607-0.736,0.607c0.701,0.264,1.83,1.645,1.703,2.221
	c0.293-0.105,0.59-0.204,0.893-0.316C48.709,19.682,47.529,17.537,46.484,17.304z"/>
<path fill="#302C3B" d="M18.627,23.112c0,0,2.818-0.016,5.979-1.889c0,0,0.826,2.445,1.689,3.234c1.13-0.74,3.683-1.912,3.683-1.912
	s0.66,3.423,3.691,5.639c0,0-4.27,2.557-5.322,4.298c0,0-4.187,1.584-8.611-1.293C19.737,31.189,18.596,26.518,18.627,23.112z"/>
<path fill="#B88A6F" d="M32.021,41.811c1.107,0.233,2.117,0.467,2.799,0.666c1.709,1.798,3.996,3.121,5.57,5.576
	c0.256,0.4-0.631,1.493,0.297,3.815c0.4,0.999,1.369,0.184,0.834-1.462c1.111-0.386,1.141,3.722,2.246,2.513
	c1.221-1.341,0.861-4.025,0.598-4.712c-0.24-0.613-1.635-1.257-2.01-1.7c-1.85-2.174-4.563-6.271-5.398-6.729
	c-0.352-0.193-1.844-1.22-3.283-1.701C33.146,39.332,32.598,40.577,32.021,41.811z"/>
<path fill="#B88A6F" d="M15.458,59.985C12.51,61.019,10.534,62,14.403,62c4.021,0,3.467-0.636,4.525-0.453
	C20.147,61.758,20.577,62,21.776,62c1.195,0,1.102-0.768-0.424-1.196c-1.441-0.406-1.896-1.003-2.24-2.429
	c-0.574-2.391-0.902-7.502-0.902-7.502s0.367-1.847,1.553-3.477l-3.402-2.56c-2.09,6.995-1.904,3.689,0.176,12.615
	C16.807,58.616,16.524,59.61,15.458,59.985z"/>
<path fill="#7AB51D" d="M15.821,45.29c0,0,2.189,0.789,3.898,2.917c0,0,0.455-2.128,1.895-3.37c3.203-1.469,3.617,0.573,8.316-2.385
	l3.371-0.084c0,0-0.1-2.373,0.984-4.395c0,0-2.238-0.54-3.443-0.794c-0.176-0.037-2.273-2.322-1.502-5.92
	c0,0-5.416,0.616-10.025-1.204c-0.711,4.037,1.447,7.679,0.088,10.325C18.952,41.038,16.793,43.063,15.821,45.29z"/>
<path fill="#946346" d="M28.162,42.703c-0.395-2.233-4.718-1.471-4.326,0.764l0.408,2.315l4.324-0.764L28.162,42.703z"/>
<path fill="#946346" d="M32.521,49.519c1.803,0.007-0.424-4.651-1.555-3.059C30.443,47.198,31.68,49.514,32.521,49.519z"/>
<path fill="#946346" d="M22.065,51.365c0.793-0.293,1.16-2.892,0.414-3.405C20.874,46.851,20.37,51.99,22.065,51.365z"/>
<path fill="#B88A6F" d="M28.305,56.185c3.613-0.638,4.875-3.687,3.984-7.459c-0.18-0.759-1.09-3.176-1.697-3.993
	c-0.621-0.837-2.402-1.982-3.395-2.108c-0.625-0.08-1.925,0.149-2.484,0.439c-0.889,0.458-2.174,2.144-2.469,3.144
	c-0.291,0.977-0.324,3.56-0.234,4.335C22.463,54.392,24.688,56.824,28.305,56.185z"/>
<path fill="#80553C" d="M26.479,45.811c0.855,0.096,1.998-0.47,1.998-0.47c-0.547-0.42-1-1.011-2.22-0.794
	c-1.402,0.248-1.512,1.027-1.814,1.507C24.442,46.054,25.708,46.195,26.479,45.811z"/>
<path fill="#FFFFFF" d="M28.154,45.31c-0.98-0.565-2.701-0.266-3.433,0.606C25.625,45.717,27.232,45.433,28.154,45.31z"/>
<path fill="#946346" d="M25.592,47.355c-0.127-0.73,2.113-1.126,2.242-0.396C27.863,47.128,25.624,47.524,25.592,47.355z"/>
<path fill="#875B49" d="M28.305,56.186c2.486-0.439,3.844-1.528,4.547-1.326c0,0-0.004-0.438-0.309-0.67
	c0,0,0.229-0.279,0.732,0.036c0.176-1.414-1.186-1.975-5.529-1.207c-4.343,0.768-3.119,1.645-5.585,0.16
	C22.776,55.436,24.526,56.853,28.305,56.186z"/>
<path fill="#6B4435" d="M26.112,54.51c2.236-1.307,3.39,0.135,5.675-0.109c-1.164-0.318-1.824-1.008-2.807-1.416
	c2.033,0.305,3.637,1.162,3.871,1.871c0,0,0.133-1.118-1.273-1.688c1.191-0.326,1.695,1.053,1.695,1.053
	c0.439-1.095-0.207-4.262-1.303-6.502c0.035,0.862,0.355,1.165,0.145,2.249c-0.629,3.24-0.105,1.834-4.449,2.602
	c-4.343,0.768-3.355,1.79-5.068-0.92c-0.512-0.808-0.369-1.341-0.631-2.164C21.473,55.063,23.739,55.896,26.112,54.51z"/>
<path fill="#FFFFFF" d="M23.227,50.023c0.262-1.354,2.26-1.515,2.773-0.691C25.979,50.805,23.731,51.327,23.227,50.023z"/>
<path fill="#FFFFFF" d="M30.969,48.655c-0.703-1.182-2.639-0.649-2.842,0.302C28.65,50.333,30.943,50.055,30.969,48.655z"/>
<path fill="#80553C" d="M23.297,51.584c0.898,0.265,2.484,0.005,3.023-0.387c0.115-0.077-0.035-0.452-0.137-0.396
	c-0.768,0.449-2.09,0.691-2.918,0.488C23.155,51.265,23.159,51.548,23.297,51.584z"/>
<path fill="#80553C" d="M31.439,50.146c-0.754,0.557-2.334,0.855-2.975,0.674c-0.135-0.033-0.121-0.438-0.008-0.42
	c0.877,0.16,2.201-0.066,2.912-0.542C31.465,49.797,31.555,50.065,31.439,50.146z"/>
<path fill="#613F34" d="M25.557,49.751c-0.193-1.112-1.799-0.828-1.604,0.283C24.135,51.066,25.741,50.782,25.557,49.751z"/>
<path fill="#7D5037" d="M25.336,49.423c-0.111-0.638-1.4-0.41-1.287,0.228C24.151,50.242,25.44,50.015,25.336,49.423z"/>
<path fill="#1A1626" d="M25.084,49.815c-0.08-0.461-0.746-0.344-0.666,0.118C24.495,50.362,25.161,50.244,25.084,49.815z"/>
<path fill="#AB968C" d="M25.336,49.911c-0.041-0.234-0.377-0.175-0.336,0.059C25.04,50.187,25.375,50.127,25.336,49.911z"/>
<path fill="#613F34" d="M30.293,48.914c-0.197-1.111-1.803-0.828-1.607,0.284C28.867,50.229,30.473,49.946,30.293,48.914z"/>
<path fill="#7D5037" d="M30.07,48.587c-0.113-0.638-1.4-0.41-1.289,0.228C28.887,49.406,30.174,49.179,30.07,48.587z"/>
<path fill="#1A1626" d="M29.818,48.979c-0.08-0.462-0.748-0.344-0.666,0.118C29.227,49.526,29.895,49.408,29.818,48.979z"/>
<path fill="#AB968C" d="M30.068,49.074c-0.041-0.232-0.377-0.174-0.336,0.061C29.771,49.351,30.107,49.291,30.068,49.074z"/>
<path fill="#946346" d="M23.229,50.032c0.24,1.36,3.049,0.864,2.77-0.711C25.825,50.685,23.821,51.039,23.229,50.032z"/>
<path fill="#946346" d="M30.969,48.665c0.24,1.36-2.566,1.856-2.846,0.28C28.754,50.168,30.76,49.813,30.969,48.665z"/>
</svg>
