<?xml version="1.0" encoding="utf-8"?>
<!-- Generator: Adobe Illustrator 15.0.0, SVG Export Plug-In . SVG Version: 6.00 Build 0)  -->
<!DOCTYPE svg PUBLIC "-//W3C//DTD SVG 1.1//EN" "http://www.w3.org/Graphics/SVG/1.1/DTD/svg11.dtd" [
	<!ENTITY ns_flows "http://ns.adobe.com/Flows/1.0/">
	<!ENTITY ns_extend "http://ns.adobe.com/Extensibility/1.0/">
	<!ENTITY ns_ai "http://ns.adobe.com/AdobeIllustrator/10.0/">
	<!ENTITY ns_graphs "http://ns.adobe.com/Graphs/1.0/">
]>
<svg version="1.1" id="Layer_1" xmlns:x="&ns_extend;" xmlns:i="&ns_ai;" xmlns:graph="&ns_graphs;"
	 xmlns="http://www.w3.org/2000/svg" xmlns:xlink="http://www.w3.org/1999/xlink" xmlns:a="http://ns.adobe.com/AdobeSVGViewerExtensions/3.0/"
	 x="0px" y="0px" width="64px" height="64px" viewBox="0 0 64 64" enable-background="new 0 0 64 64" xml:space="preserve">
<path fill="#3B2C29" d="M20.828,8.133c-9.936,23.045-9.324,22.62,2.582,24.697C17.633,27.114,33.691,10.038,20.828,8.133z"/>
<path fill="#453631" d="M18.854,7.405c-7.376,17.54-4.647,22.848-1.655,24.341l3.621,0.633C13.398,24.986,29.911,8.963,18.854,7.405
	z"/>
<path fill="#3B2C29" d="M37.472,11.033c1.375,25.024,0.947,24.417-10.958,22.339C33.227,30.769,24.73,8.475,37.472,11.033z"/>
<path fill="#453631" d="M39.579,11.021c3.077,17.662-4.13,23.114-6.851,23.436l-3.624-0.633
	C38.553,29.875,28.652,8.741,39.579,11.021z"/>
<path fill="#594640" d="M38.995,20.117c0.994,4.533-2.28,12.895-6.267,14.34c4.006,0.698,7.435-4.364,9.966-11.717
	C45.868,13.558,37.224,12.04,38.995,20.117z"/>
<path fill="#594640" d="M12.017,19.193c0.244,7.075,1.242,11.865,5.182,12.553c-3.587-5.261-1.386-14.659,0.289-16.801
	C24.507,12.308,11.6,7.224,12.017,19.193z"/>
<path fill="#732EB0" d="M30.249,59.657c15.233-2.55,19.855-4.962,20.706-7.651C51.614,49.928,46.314,39.479,30.249,59.657z"/>
<path fill="#FFCC66" d="M21.614,25.765c0.311,3.541-0.222,4.676-0.222,4.676c-2.795,1.009,6.163,18.091,19.286,20.174
	c10.775-6.237-2.323-16.129-3.318-16.988c-1.654-1.425-3.792-1.554-6.966-2.208c-1.33-0.271-1.754-2.549-1.726-5.653H21.614z"/>
<linearGradient id="SVGID_1_" gradientUnits="userSpaceOnUse" x1="39.6816" y1="44.0176" x2="36.4449" y2="38.3534">
	<stop  offset="0" style="stop-color:#E6B045"/>
	<stop  offset="0.5537" style="stop-color:#F6C25A"/>
	<stop  offset="1" style="stop-color:#FFCC66"/>
	<a:midPointStop  offset="0" style="stop-color:#E6B045"/>
	<a:midPointStop  offset="0.4242" style="stop-color:#E6B045"/>
	<a:midPointStop  offset="1" style="stop-color:#FFCC66"/>
</linearGradient>
<path fill="url(#SVGID_1_)" d="M30.835,38.769c4.18,2.143,5.786,5.071,5.5,7.455c3.416,0.471,6.369-0.029,7.482-5.031
	c-0.692-2.223-3.74-3.773-5.802-4.953C34.579,34.688,30.255,34.665,30.835,38.769z"/>
<linearGradient id="SVGID_2_" gradientUnits="userSpaceOnUse" x1="31.4854" y1="52.582" x2="30.1104" y2="37.999">
	<stop  offset="0" style="stop-color:#5D1E96"/>
	<stop  offset="0.1931" style="stop-color:#6C28AA"/>
	<stop  offset="0.4943" style="stop-color:#7F34C2"/>
	<stop  offset="0.7714" style="stop-color:#8A3BD1"/>
	<stop  offset="1" style="stop-color:#8E3ED6"/>
	<a:midPointStop  offset="0" style="stop-color:#5D1E96"/>
	<a:midPointStop  offset="0.3333" style="stop-color:#5D1E96"/>
	<a:midPointStop  offset="1" style="stop-color:#8E3ED6"/>
</linearGradient>
<path fill="url(#SVGID_2_)" d="M21.392,30.44c-11.774,3.271-5.174,13.685,2.203,27.873c11.042-1.236,19.944-3.492,21.829-7.727
	c2.866-6.429-4.253-13.628-5.094-14.648c-3.766-4.581-8.152-4.478-9.802-4.493c3.36,1.023,6.184,4.125,7.875,5.023
	c9.71,5.157,4.876,7.662-2.532,11.402C26.057,44.766,22.113,34.951,21.392,30.44z"/>
<linearGradient id="SVGID_3_" gradientUnits="userSpaceOnUse" x1="39.752" y1="45.6504" x2="51.1289" y2="45.6504">
	<stop  offset="0" style="stop-color:#E635DE"/>
	<stop  offset="0.1777" style="stop-color:#DA30D3"/>
	<stop  offset="0.4992" style="stop-color:#BA24B4"/>
	<stop  offset="0.925" style="stop-color:#871083"/>
	<stop  offset="1" style="stop-color:#7D0C7A"/>
	<a:midPointStop  offset="0" style="stop-color:#E635DE"/>
	<a:midPointStop  offset="0.5758" style="stop-color:#E635DE"/>
	<a:midPointStop  offset="1" style="stop-color:#7D0C7A"/>
</linearGradient>
<path fill="url(#SVGID_3_)" d="M51.127,47.285c0.158-9.056-11.706-7.588-11.368-0.739C43.88,54.657,51.127,47.285,51.127,47.285z"/>
<linearGradient id="SVGID_4_" gradientUnits="userSpaceOnUse" x1="35.7588" y1="54.6836" x2="34.29" y2="46.6211">
	<stop  offset="0" style="stop-color:#018BC9"/>
	<stop  offset="0.3755" style="stop-color:#0597CC"/>
	<stop  offset="1" style="stop-color:#0FB4D4"/>
	<a:midPointStop  offset="0" style="stop-color:#018BC9"/>
	<a:midPointStop  offset="0.5758" style="stop-color:#018BC9"/>
	<a:midPointStop  offset="1" style="stop-color:#0FB4D4"/>
</linearGradient>
<path fill="url(#SVGID_4_)" d="M47.877,50.542c0.162-9.057-23.189-3.877-25.003,4.601C26.994,63.252,47.877,50.542,47.877,50.542z"
	/>
<path fill="#FFCC66" d="M51.73,45.354c-0.047-1.093-0.941-1.983-1.467-1.835c-0.721,2.356-4.256,5.273-5.287,4.445
	c-1.198-0.959-0.167-4.129-1.338-3.18c-1.157,0.937-0.151,6.188-1.076,6.479c-1.137,1.041,2.079,3.558,2.694,3.478
	C51.482,50.54,52.627,48.588,51.73,45.354z"/>
<path fill="#8E3ED6" d="M42.457,51.002c-7.717,2.415-10.467,2.132-17.766,4.453c-5.41-19.738-6.308-23.799-7.422-23.068
	c-9.702,6.362,1.806,27.73,4.121,29.007c2.993,1.657,13.125,0.055,24.049-6.518C45.815,53.397,43.382,50.712,42.457,51.002z"/>
<path fill="#E6B045" d="M21.047,28.171c3.392,5.795,4.254,5.941,9.438,1.645L21.047,28.171z"/>
<path fill="#FFCC66" d="M30.25,3.822C22.713,2.507,18,7.943,17.062,15.838c-0.189,1.587-0.149,3.932,0.05,5.963
	c0.408,4.234,5.655,9.336,8.192,9.778c2.542,0.443,9.223-2.575,11.08-6.416c0.887-1.841,1.732-4.031,2.107-5.585
	C40.335,11.842,37.788,5.138,30.25,3.822z"/>
<path fill="#D47706" d="M26.454,25.138c-1.69-1.117-1.843-0.354-4.707-0.662c0.854,1.381,1.362,3.05,4.193,3.544
	c3.248,0.568,4.104-1.078,5.162-1.91C28.304,25.428,28.425,24.659,26.454,25.138z"/>
<path fill="#FFFFFF" d="M22.544,24.922c1.507,2.225,5.498,2.896,7.653,1.337C27.3,26.067,25.341,25.725,22.544,24.922z"/>
<path fill="#594640" d="M36.588,16.32c-1.521-1.3-4.542-1.952-5.873-1.479c-0.277,0.089-0.337,0.829-0.1,0.776
	c1.845-0.41,4.469,0.011,5.937,1.115C36.751,16.878,36.82,16.508,36.588,16.32z"/>
<path fill="#594640" d="M19.977,13.421c1.875-0.707,4.942-0.299,6.031,0.598c0.229,0.179,0.031,0.894-0.175,0.765
	c-1.592-1.011-4.206-1.504-5.963-0.962C19.632,13.89,19.692,13.518,19.977,13.421z"/>
<path fill="#E6B045" d="M29.275,22.817c-0.269,1.509-4.939,0.694-4.67-0.814C24.667,21.654,29.336,22.471,29.275,22.817z"/>
<path fill="#594640" d="M38.478,6.375c-6.242,4.438-1.254,5.665,0.518,13.742c0.994,4.533,1.168,9.976,3.699,2.623
	C45.868,13.558,41.302,6.057,38.478,6.375z"/>
<path fill="#594640" d="M25.873,2.058C18.889,2.45,11.6,7.224,12.017,19.193c0.244,7.075,3.796-2.106,5.471-4.248
	c7.02-2.638,18.396-3.577,20.99-8.57C39.532,5.302,32.887,1.489,25.873,2.058z"/>
<path fill="#453631" d="M19.24,9.565c2.938-0.074,16.539,2.024,19.238-3.19C34.823,8.344,31.384,8.455,19.24,9.565z"/>
<path fill="#453631" d="M12.791,17.485c5.872-5.454,21.325-2.042,25.687-11.11C31.88,13.475,15.164,11.672,12.791,17.485z"/>
<path fill="#453631" d="M36.682,7.407c-1.57,1.705,3.194-0.365,5.594,12.764C42.429,12.768,39.425,7.128,36.682,7.407z"/>
<path fill="#45332C" d="M25.297,17.772c-1.558,0.64-3.735,0.26-4.979-0.87c-0.188-0.174-0.343-0.05-0.296,0.078
	c0.954,2.522,3.76,3.012,5.528,0.965C25.64,17.842,25.538,17.671,25.297,17.772z"/>
<path fill="#45332C" d="M35.063,19.477c-1.56,0.64-3.735,0.261-4.98-0.869c-0.189-0.176-0.342-0.05-0.296,0.077
	c0.954,2.522,3.759,3.013,5.527,0.965C35.402,19.546,35.301,19.376,35.063,19.477z"/>
</svg>
