<?xml version="1.0" encoding="utf-8"?>
<!-- Generator: Adobe Illustrator 15.0.0, SVG Export Plug-In . SVG Version: 6.00 Build 0)  -->
<!DOCTYPE svg PUBLIC "-//W3C//DTD SVG 1.1//EN" "http://www.w3.org/Graphics/SVG/1.1/DTD/svg11.dtd" [
	<!ENTITY ns_flows "http://ns.adobe.com/Flows/1.0/">
	<!ENTITY ns_extend "http://ns.adobe.com/Extensibility/1.0/">
	<!ENTITY ns_ai "http://ns.adobe.com/AdobeIllustrator/10.0/">
	<!ENTITY ns_graphs "http://ns.adobe.com/Graphs/1.0/">
]>
<svg version="1.1" id="Layer_1" xmlns:x="&ns_extend;" xmlns:i="&ns_ai;" xmlns:graph="&ns_graphs;"
	 xmlns="http://www.w3.org/2000/svg" xmlns:xlink="http://www.w3.org/1999/xlink" xmlns:a="http://ns.adobe.com/AdobeSVGViewerExtensions/3.0/"
	 x="0px" y="0px" width="64px" height="64px" viewBox="0 0 64 64" enable-background="new 0 0 64 64" xml:space="preserve">
<path fill="#7AB51D" d="M21.841,42.871c-3.857,1.41-4.576,7.079-6.701,8.86c-1.043-2.077-2.813-5.254-3.662-7.575
	c0,0-3.386-0.7-4.916,0.597c1.362,5.344,2.578,10.234,5.453,15.422c1.223,2.206,9.656-1.344,10.893-6.38
	C22.907,53.795,23.366,49.981,21.841,42.871z"/>
<path fill="#D6A67A" d="M5.377,42.902c0.45,0.222,1.611-2.256,1.161-2.477c0,0-2.3-0.771-3.024-0.745
	c-1.712,0.057-1.692,1.552-1.287,1.657C3.411,41.64,5.377,42.902,5.377,42.902z"/>
<path fill="#E3C19B" d="M5.582,35.497c-0.049,2.662,0.53,4.479,0.53,4.479c0-1.307,0.14-3.786,0.313-4.873
	c0.238-1.5,2.177-1.676,2.046-0.163c-0.209,2.415,0.107,5.021,0.107,5.021s0.263-2.302,0.421-4.235
	c0.122-1.461,1.973-1.31,1.945,0.157c-0.021,1.182-0.38,4.803-0.38,4.803s0.641-0.873,0.797-2.98
	c0.082-1.102,1.325-0.776,1.359,0.313c0.061,1.939-0.203,2.434-0.438,3.344c-0.125,0.486-0.175,1.844-0.956,3.234
	c-0.484,0.861-3.601,1.109-4.5,0.422c-0.509-0.39-2.197-2.872-2.575-3.721c-0.409-0.92-0.748-3.42-0.609-5.529
	C3.743,34.244,5.61,33.969,5.582,35.497z"/>
<path fill="#7AB51D" d="M46.16,42.871c5.039,1.02,4.605,15.406,11.777,16.19c-1.176,2.647-3.877,2.644-5.564,2.644
	c-2.604,0-5.277-3.603-7.279-6.986C45.094,54.719,44.635,49.981,46.16,42.871z"/>
<path fill="#7AB51D" d="M21.841,42.871c1.71-1.12,7.829-3.024,7.829-3.024h8.717c0,0,6.074,1.898,7.773,3.024L45.473,62H22.546
	L21.841,42.871z"/>
<path fill="#302C3B" d="M21.841,42.871c1.536-0.867,2.93-1.408,2.93-1.408L27.806,62h-3.644L21.841,42.871z"/>
<path fill="#302C3B" d="M46.16,42.871c-1.537-0.867-2.93-1.408-2.93-1.408L40.195,62h3.643L46.16,42.871z"/>
<path fill="#D6A67A" d="M29.041,40.574c0,4.071,9.918,4.071,9.918,0c0-2.48,0-6.584,0-6.584h-9.918
	C29.041,33.99,29.041,37.371,29.041,40.574z"/>
<path fill="#D6A67A" d="M24.185,27.102c-3.282-0.593-0.719,8.587,1.852,6.056C27.224,31.981,25.72,27.379,24.185,27.102z"/>
<path fill="#D6A67A" d="M43.816,27.102c-1.533,0.277-3.041,4.88-1.85,6.056C44.537,35.688,47.098,26.509,43.816,27.102z"/>
<path fill="#E3C19B" d="M34.002,16.34c-6.79,0-10.06,5.135-9.649,12.274c0.082,1.437,0.971,6.122,1.813,7.803
	c0.86,1.72,3.739,4.37,5.502,4.922c1.115,0.345,3.551,0.345,4.665,0c1.766-0.552,4.643-3.202,5.504-4.922
	c0.842-1.681,1.732-6.366,1.813-7.803C44.061,21.475,40.789,16.34,34.002,16.34z"/>
<path fill="#BF8C6B" d="M34.002,35.777c-1.528-0.449-3.79,0.213-3.79,0.213c0.861,0.938,1.492,2.156,3.79,2.156
	c2.629,0,3.076-1.382,3.789-2.156C37.791,35.99,35.525,35.326,34.002,35.777z"/>
<path fill="#FFFFFF" d="M30.789,36.148c1.6,1.345,4.834,1.351,6.442,0C35.525,36.223,32.507,36.225,30.789,36.148z"/>
<path fill="#D6A67A" d="M36.105,33.253c0,1.37-4.209,1.37-4.209,0C31.896,32.938,36.105,32.938,36.105,33.253z"/>
<path fill="#BA9D52" d="M25.69,24.777h-2.066c0.138,1.926,0.467,3.974,0.986,5.77c0.213-1.577-0.272-2.23,0.458-4.134
	C25.316,25.768,25.517,25.23,25.69,24.777z"/>
<path fill="#BA9D52" d="M42.271,24.777c0.186,0.451,0.396,0.988,0.664,1.636c0.67,1.633,0.244,2.557,0.459,4.134
	c0.627-2.337,0.885-4.233,0.867-5.77H42.271z"/>
<path fill="#FFFFFF" d="M41.268,29.168c-0.908,2.372-4.598,2.024-5.273,0.362C36.508,26.861,40.77,26.635,41.268,29.168z"/>
<path fill="#FFFFFF" d="M26.734,29.168c0.906,2.372,4.598,2.024,5.271,0.362C31.492,26.86,27.232,26.635,26.734,29.168z"/>
<path fill="#BF8C6B" d="M41.645,26.309c-1.555-0.771-4.523-0.808-5.629-0.271c-0.236,0.104-0.08,0.834,0.117,0.764
	c1.543-0.571,4.029-0.582,5.475,0.049C41.799,26.934,41.881,26.418,41.645,26.309z"/>
<path fill="#BF8C6B" d="M26.357,26.309c1.552-0.771,4.523-0.808,5.628-0.271c0.238,0.104,0.082,0.834-0.117,0.764
	c-1.547-0.571-4.029-0.582-5.476,0.049C26.201,26.934,26.121,26.418,26.357,26.309z"/>
<path fill="#613F34" d="M36.936,28.913c0,2.083,3.014,2.083,3.014,0C39.949,26.978,36.936,26.978,36.936,28.913z"/>
<path fill="#7D5037" d="M37.234,29.58c0,1.195,2.418,1.195,2.418,0C39.652,28.472,37.234,28.472,37.234,29.58z"/>
<path fill="#1A1626" d="M37.818,28.946c0,0.867,1.252,0.867,1.252,0C39.07,28.144,37.818,28.144,37.818,28.946z"/>
<path fill="#AB968C" d="M37.391,28.693c0,0.437,0.633,0.437,0.633,0C38.023,28.29,37.391,28.29,37.391,28.693z"/>
<path fill="#613F34" d="M28.052,28.913c0,2.083,3.012,2.083,3.012,0C31.064,26.978,28.052,26.978,28.052,28.913z"/>
<path fill="#7D5037" d="M28.349,29.58c0,1.195,2.418,1.195,2.418,0C30.767,28.47,28.349,28.47,28.349,29.58z"/>
<path fill="#1A1626" d="M28.933,28.946c0,0.863,1.252,0.863,1.252,0C30.185,28.142,28.933,28.142,28.933,28.946z"/>
<path fill="#AB968C" d="M28.505,28.693c0,0.437,0.631,0.437,0.631,0C29.136,28.288,28.505,28.288,28.505,28.693z"/>
<path fill="#D6A67A" d="M41.268,29.149c0-2.549-5.273-2.549-5.273,0.404C36.748,27.129,40.514,27.129,41.268,29.149z"/>
<path fill="#D6A67A" d="M26.734,29.149c0-2.549,5.271-2.549,5.271,0.404C31.253,27.129,27.488,27.129,26.734,29.149z"/>
<path fill="#4E5E67" d="M48.643,24.142c0,2.549-29.285,2.549-29.285,0C19.357,21.592,48.643,21.592,48.643,24.142z"/>
<path fill="#302C3B" d="M44.738,23.062c0,2.193-21.476,2.193-21.476,0C23.263,10.979,44.738,10.979,44.738,23.062z"/>
<path fill="#302C3B" d="M40.182,46.866c0.441,1.108-4.623-1.043-4.623-1.043V43.38c0,0,4.92-2.879,4.598-1.73
	C39.76,43.068,39.816,45.951,40.182,46.866z"/>
<polygon fill="#4E5E67" points="38.068,44.4 35.982,44.229 37.369,42.996 35.559,43.993 35.559,45.232 37.6,45.863 36.033,44.897 
	"/>
<path fill="#302C3B" d="M27.841,46.866c-0.441,1.108,4.621-1.043,4.621-1.043V43.38c0,0-4.926-2.879-4.6-1.73
	C28.263,43.068,28.207,45.951,27.841,46.866z"/>
<polygon fill="#4E5E67" points="29.953,44.4 32.041,44.229 30.652,42.996 32.462,43.993 32.462,45.232 30.421,45.863 31.986,44.897 
	"/>
<path fill="#302C3B" d="M35.514,46.159c-0.529,0.551-2.477,0.551-3.01,0c-0.531-0.548-0.531-2.557,0-3.104
	c0.534-0.55,2.481-0.55,3.01,0C36.047,43.603,36.047,45.611,35.514,46.159z"/>
<radialGradient id="SVGID_1_" cx="42.5635" cy="5.9722" r="5.5" gradientUnits="userSpaceOnUse">
	<stop  offset="0" style="stop-color:#FFE02E"/>
	<stop  offset="0.2489" style="stop-color:#FFDA29"/>
	<stop  offset="0.5857" style="stop-color:#FFC91A"/>
	<stop  offset="0.9714" style="stop-color:#FFAC02"/>
	<stop  offset="1" style="stop-color:#FFAA00"/>
	<a:midPointStop  offset="0" style="stop-color:#FFE02E"/>
	<a:midPointStop  offset="0.6424" style="stop-color:#FFE02E"/>
	<a:midPointStop  offset="1" style="stop-color:#FFAA00"/>
</radialGradient>
<path fill="url(#SVGID_1_)" d="M43.633,2c-3.035,0-5.5,2.466-5.5,5.505c0,3.036,2.465,5.495,5.5,5.495s5.5-2.459,5.5-5.495
	C49.133,4.466,46.668,2,43.633,2z"/>
<radialGradient id="SVGID_2_" cx="555.9434" cy="-40.6104" r="3.9133" gradientTransform="matrix(0.3583 0.4654 -0.7924 0.61 -189.2077 -228.6484)" gradientUnits="userSpaceOnUse">
	<stop  offset="0" style="stop-color:#FFFFFF"/>
	<stop  offset="1" style="stop-color:#FFFFFF;stop-opacity:0"/>
	<a:midPointStop  offset="0" style="stop-color:#FFFFFF"/>
	<a:midPointStop  offset="0.4857" style="stop-color:#FFFFFF"/>
	<a:midPointStop  offset="1" style="stop-color:#FFFFFF;stop-opacity:0"/>
</radialGradient>
<path opacity="0.5" fill="url(#SVGID_2_)" d="M43.568,7.137c-1.713,1.319-3.729,1.572-4.502,0.566
	c-0.775-1.007-0.016-2.891,1.697-4.209c1.713-1.319,3.729-1.572,4.504-0.566C46.043,3.935,45.281,5.819,43.568,7.137z"/>
<radialGradient id="SVGID_3_" cx="9.7363" cy="15.5474" r="5.4999" gradientUnits="userSpaceOnUse">
	<stop  offset="0" style="stop-color:#9BE022"/>
	<stop  offset="0.2668" style="stop-color:#91D422"/>
	<stop  offset="0.7474" style="stop-color:#78B423"/>
	<stop  offset="1" style="stop-color:#69A123"/>
	<a:midPointStop  offset="0" style="stop-color:#9BE022"/>
	<a:midPointStop  offset="0.5758" style="stop-color:#9BE022"/>
	<a:midPointStop  offset="1" style="stop-color:#69A123"/>
</radialGradient>
<path fill="url(#SVGID_3_)" d="M10.5,11.27c-3.036,0-5.5,2.464-5.5,5.502c0,3.039,2.464,5.498,5.5,5.498
	c3.034,0,5.5-2.459,5.5-5.498C16,13.733,13.534,11.27,10.5,11.27z"/>
<radialGradient id="SVGID_4_" cx="533.9209" cy="-8.4531" r="3.9136" gradientTransform="matrix(0.3583 0.4654 -0.7924 0.61 -189.2077 -228.6484)" gradientUnits="userSpaceOnUse">
	<stop  offset="0" style="stop-color:#FFFFFF"/>
	<stop  offset="1" style="stop-color:#FFFFFF;stop-opacity:0"/>
	<a:midPointStop  offset="0" style="stop-color:#FFFFFF"/>
	<a:midPointStop  offset="0.4857" style="stop-color:#FFFFFF"/>
	<a:midPointStop  offset="1" style="stop-color:#FFFFFF;stop-opacity:0"/>
</radialGradient>
<path opacity="0.5" fill="url(#SVGID_4_)" d="M10.197,16.503c-1.713,1.319-3.729,1.572-4.503,0.566
	C4.92,16.063,5.68,14.179,7.392,12.86c1.714-1.319,3.729-1.572,4.504-0.566C12.671,13.301,11.91,15.186,10.197,16.503z"/>
<path fill="#D6A67A" d="M59.76,59.138c-0.313,0.392-2.43-1.337-2.121-1.731c0,0,1.74-1.69,2.404-1.981
	c1.568-0.688,2.197,0.668,1.877,0.937C60.984,57.148,59.76,59.138,59.76,59.138z"/>
<radialGradient id="SVGID_5_" cx="54.9678" cy="52.4727" r="5.4998" gradientUnits="userSpaceOnUse">
	<stop  offset="0.2121" style="stop-color:#FF3B3B"/>
	<stop  offset="0.4183" style="stop-color:#F63131"/>
	<stop  offset="0.7712" style="stop-color:#DE1615"/>
	<stop  offset="1" style="stop-color:#CC0100"/>
	<a:midPointStop  offset="0.2121" style="stop-color:#FF3B3B"/>
	<a:midPointStop  offset="0.5879" style="stop-color:#FF3B3B"/>
	<a:midPointStop  offset="1" style="stop-color:#CC0100"/>
</radialGradient>
<path fill="url(#SVGID_5_)" d="M56.037,48.5c-3.035,0-5.5,2.466-5.5,5.505c0,3.036,2.465,5.495,5.5,5.495s5.5-2.459,5.5-5.495
	C61.537,50.966,59.072,48.5,56.037,48.5z"/>
<radialGradient id="SVGID_6_" cx="631.2461" cy="-21.9092" r="3.9131" gradientTransform="matrix(0.3583 0.4654 -0.7924 0.61 -189.2077 -228.6484)" gradientUnits="userSpaceOnUse">
	<stop  offset="0" style="stop-color:#FFFFFF"/>
	<stop  offset="1" style="stop-color:#FFFFFF;stop-opacity:0"/>
	<a:midPointStop  offset="0" style="stop-color:#FFFFFF"/>
	<a:midPointStop  offset="0.4857" style="stop-color:#FFFFFF"/>
	<a:midPointStop  offset="1" style="stop-color:#FFFFFF;stop-opacity:0"/>
</radialGradient>
<path opacity="0.5" fill="url(#SVGID_6_)" d="M55.73,53.59c-1.713,1.319-3.729,1.572-4.502,0.566
	c-0.775-1.007-0.016-2.891,1.697-4.209c1.713-1.319,3.729-1.572,4.504-0.566C58.205,50.388,57.443,52.272,55.73,53.59z"/>
<path fill="#E3C19B" d="M58.775,57.384c-0.1,0.61-0.355,1.116-0.355,1.116s0.121-1.256,0-1.957
	c-0.236-1.384-2.025-1.266-1.934,0.071c0.074,1.089-0.311,2.088-0.311,2.088s-0.246-0.998-0.354-2.041
	c-0.15-1.438-2.166-1.275-2.102,0.168c0.035,0.796,0.16,1.856,0.16,1.856s-0.264-0.538-0.389-1.164
	c-0.268-1.355-1.967-1.351-1.762,0.022c0.396,2.672,2.09,2.686,2.369,2.002c0.338,0.811,1.479,0.742,1.945,0.254
	c0.383,0.47,1.789,0.556,2.156-0.136c0.691,0.706,1.924-0.084,2.143-1.605C60.539,56.708,58.992,56.035,58.775,57.384z"/>
</svg>
