<?xml version="1.0" encoding="utf-8"?>
<!-- Generator: Adobe Illustrator 15.0.0, SVG Export Plug-In . SVG Version: 6.00 Build 0)  -->
<!DOCTYPE svg PUBLIC "-//W3C//DTD SVG 1.1//EN" "http://www.w3.org/Graphics/SVG/1.1/DTD/svg11.dtd" [
	<!ENTITY ns_flows "http://ns.adobe.com/Flows/1.0/">
	<!ENTITY ns_extend "http://ns.adobe.com/Extensibility/1.0/">
	<!ENTITY ns_ai "http://ns.adobe.com/AdobeIllustrator/10.0/">
	<!ENTITY ns_graphs "http://ns.adobe.com/Graphs/1.0/">
]>
<svg version="1.1" id="Layer_1" xmlns:x="&ns_extend;" xmlns:i="&ns_ai;" xmlns:graph="&ns_graphs;"
	 xmlns="http://www.w3.org/2000/svg" xmlns:xlink="http://www.w3.org/1999/xlink" xmlns:a="http://ns.adobe.com/AdobeSVGViewerExtensions/3.0/"
	 x="0px" y="0px" width="64px" height="64px" viewBox="0 0 64 64" enable-background="new 0 0 64 64" xml:space="preserve">
<path fill="#875B49" d="M45.08,21.631c-0.596-0.139-1.189-1.2-1.641-2.543c0.564,0.22,1.207,0.302,1.951,0.158
	c-5.287-3.207-0.807-16.033-9.104-12.695l0.439,3.66c3.148-2.052-1.188,6.071,3.107,8.342c-0.424-0.421-0.424-1.302-0.311-2.344
	C40.346,19.201,41.762,22.036,45.08,21.631z"/>
<path fill="#6B4435" d="M45.08,21.631c-0.596-0.139-2.385-1.637-2.838-2.979c1.541,0.93,2.445,1.065,3.148,0.595
	c-6.309-2.054-2.096-13.646-8.658-10.673l-0.006,1.638c3.148-2.052-1.188,6.071,3.107,8.342c-1.232-1.336-1.145-2.468-0.658-3.174
	C40,18.37,41.762,22.036,45.08,21.631z"/>
<path fill="#8E3ED6" d="M35.859,6.547c-1.193,0.653-0.92,3.985,1.313,4.12C39.002,10.783,37.443,5.674,35.859,6.547z"/>
<path fill="#8E3ED6" d="M56.83,61.979c0,0,0.854-3.619-1.27-6.747l-0.84-2.48c-0.379-0.005-0.42,0.151-0.42,0.151
	s-0.617,2.431,2.139,8.972C56.439,61.875,56.506,62.06,56.83,61.979z"/>
<path fill="#302C3B" d="M51.924,57.327c1.586,0.332,2.123,5.142,4.516,4.548c0,0,0.826-3.364-1.299-6.491l-0.84-2.48
	C50.203,53.287,50.982,54.764,51.924,57.327z"/>
<path fill="#8E3ED6" d="M53.803,59.808c0.576-1.11,0.555-1.753-0.053-1.646c0.242-0.705-0.197-0.935-0.547-0.834
	c0.082-0.706-0.539-0.768-0.932,0.152C52.074,57.999,53.648,60.106,53.803,59.808z"/>
<path fill="#8E3ED6" d="M46.611,59.888c0,0-0.352-3.701-3.369-5.993l-1.592-2.086c-0.361,0.115-0.352,0.277-0.352,0.277
	s0.195,2.499,4.906,7.828C46.205,59.914,46.328,60.066,46.611,59.888z"/>
<path fill="#302C3B" d="M40.41,56.957c1.607-0.186,3.721,4.275,5.795,2.957c0,0-0.295-3.45-3.313-5.742l-1.594-2.086
	C37.539,53.746,38.691,54.826,40.41,56.957z"/>
<path fill="#8E3ED6" d="M43.047,58.786c0.188-1.233-0.039-1.835-0.582-1.543c0.002-0.743-0.486-0.823-0.785-0.617
	c-0.148-0.694-0.76-0.556-0.836,0.438C40.824,57.62,42.994,59.12,43.047,58.786z"/>
<path fill="#B88A6F" d="M39.838,53.494c-4.814-0.416-5.803-4.188-10.621-3.115c0.299-1.961,0.686-3.286,0.686-3.286
	s-3.955,0.646-5.917,0.695c-0.432,3.611,1.619,6.267,2.336,6.637c1.033,0.533,5.312,0.059,12.859,2.158
	C39.797,56.754,40.156,53.521,39.838,53.494z"/>
<path fill="#F2F5F7" d="M40.168,53.494c-0.211-0.229-1.221-0.267-1.221-0.267s0.785,1.95,0.232,3.355
	c0.359,0.092,0.721,0.185,1.088,0.287C40.883,57.042,40.986,54.387,40.168,53.494z"/>
<path fill="#8E3ED6" d="M29.4,49.696c0.125,0.146,0.402,0.419,0.566,0.518c0.469,4.521-0.588,4.772-0.588,4.772
	c-3.689,1.154-5.017-2.495-5.017-2.495C25.506,50.99,27.926,49.886,29.4,49.696z"/>
<path fill="#B88A6F" d="M51.764,53.823c-5.578-1.869-5.543-4.199-10.84-4.337c-0.391-1.944-0.785-3.975-1.416-5.42
	c-1.926,0.495-3.68,3.295-5.506,4.006c1.381,2.585,2.971,4.845,3.652,5.277c0.98,0.624,5.85,0.727,13.176,3.491
	C51.428,57.066,52.066,53.925,51.764,53.823z"/>
<path fill="#F2F5F7" d="M52.07,53.526c-0.074-0.097-1.133,0-1.133,0c0.443,0.77,0.443,2.884-0.107,3.314
	c0.348,0.124,0.695,0.257,1.057,0.383C52.32,57.376,52.852,54.523,52.07,53.526z"/>
<path fill="#8E3ED6" d="M40.756,48.29c0.199,0.852,0.568,0.974,1.488,1.217c-0.395,4.369-1.963,4.591-1.963,4.591
	c-1.842,0-4.012-1.069-4.482-2.764C36.121,50.071,37.957,49.9,40.756,48.29z"/>
<path fill="#302C3B" d="M36.898,37.562l-11.488-0.116c-0.709,2.857-2.785,6.641-1.857,12.916c1.418,0.676,6.662-2.411,6.662-2.411
	c0.225-2.425,0.475-3.067,1.309-3.487c0.24-0.121,1.395,3.117,2.785,4.659l6.703-3.976L36.898,37.562z"/>
<path fill="#FFE463" d="M40.354,45.536c-0.488,0.368-1.336,0.793-1.336,0.793l-4.793-8.768h1.535L40.354,45.536z"/>
<path fill="#B88A6F" d="M21.786,28.941c0.508-0.141,2.391-1,4.238-1.871c-0.482-1.184-0.992-2.35-1.543-3.488
	c-1.42,0.88-2.924,1.782-3.848,2.249c-2.459-0.006-4.961,0.63-7.811,0.151c-0.463-0.08-0.666-1.278-2.986-2.078
	c-0.998-0.344-1.053,0.742,0.508,1.385c-0.463,0.918-3.482-1.498-3.34-0.098c0.16,1.553,2.363,2.923,3.041,3.166
	c0.609,0.215,1.926-0.059,2.502-0.029C15.377,28.466,20.889,29.188,21.786,28.941z"/>
<path fill="#B88A6F" d="M41.986,17.662l2.834-5.514l3.057,1.297c0,0-2.07,5.613-3.145,7.282C43.91,22,39.83,23.582,39.83,23.582
	l-1.438-4.197L41.986,17.662z"/>
<radialGradient id="SVGID_1_" cx="42.7207" cy="5.1807" r="11.5434" gradientTransform="matrix(1.0076 0 0 1 0.1642 0)" gradientUnits="userSpaceOnUse">
	<stop  offset="0" style="stop-color:#9BE022"/>
	<stop  offset="0.3647" style="stop-color:#99DE22"/>
	<stop  offset="0.5757" style="stop-color:#93D522"/>
	<stop  offset="0.7475" style="stop-color:#87C722"/>
	<stop  offset="0.8974" style="stop-color:#78B423"/>
	<stop  offset="1" style="stop-color:#69A123"/>
	<a:midPointStop  offset="0" style="stop-color:#9BE022"/>
	<a:midPointStop  offset="0.8061" style="stop-color:#9BE022"/>
	<a:midPointStop  offset="1" style="stop-color:#69A123"/>
</radialGradient>
<path fill="url(#SVGID_1_)" d="M51.229,2.924c3.355,1.901,4.504,6.11,2.568,9.405c-1.938,3.295-6.223,4.42-9.574,2.519
	c-3.352-1.899-4.504-6.108-2.566-9.402C43.592,2.148,47.879,1.023,51.229,2.924z"/>
<radialGradient id="SVGID_2_" cx="42.7207" cy="5.1807" r="11.5441" gradientTransform="matrix(1.0076 0 0 1 0.1642 0)" gradientUnits="userSpaceOnUse">
	<stop  offset="0" style="stop-color:#FF000E"/>
	<stop  offset="0.2242" style="stop-color:#F8000C"/>
	<stop  offset="0.5531" style="stop-color:#E40008"/>
	<stop  offset="0.9448" style="stop-color:#C40001"/>
	<stop  offset="1" style="stop-color:#BF0000"/>
	<a:midPointStop  offset="0" style="stop-color:#FF000E"/>
	<a:midPointStop  offset="0.6242" style="stop-color:#FF000E"/>
	<a:midPointStop  offset="1" style="stop-color:#BF0000"/>
</radialGradient>
<path fill="url(#SVGID_2_)" d="M51.018,2.817c-4.373,4.961-11.184,5.604-3.611-0.763c0.018-0.015,0.035-0.028,0.051-0.042
	C48.662,1.965,49.889,2.225,51.018,2.817z"/>
<radialGradient id="SVGID_3_" cx="42.7236" cy="5.1802" r="11.542" gradientTransform="matrix(1.0076 0 0 1 0.1642 0)" gradientUnits="userSpaceOnUse">
	<stop  offset="0" style="stop-color:#FF000E"/>
	<stop  offset="0.2242" style="stop-color:#F8000C"/>
	<stop  offset="0.5531" style="stop-color:#E40008"/>
	<stop  offset="0.9448" style="stop-color:#C40001"/>
	<stop  offset="1" style="stop-color:#BF0000"/>
	<a:midPointStop  offset="0" style="stop-color:#FF000E"/>
	<a:midPointStop  offset="0.6242" style="stop-color:#FF000E"/>
	<a:midPointStop  offset="1" style="stop-color:#BF0000"/>
</radialGradient>
<path fill="url(#SVGID_3_)" d="M50.248,15.307c-3.484-9.078,1.418-11.146,2.576-1.702C52.09,14.368,51.209,14.944,50.248,15.307z"/>
<radialGradient id="SVGID_4_" cx="42.7217" cy="5.1802" r="11.5443" gradientTransform="matrix(1.0076 0 0 1 0.1642 0)" gradientUnits="userSpaceOnUse">
	<stop  offset="0" style="stop-color:#FF000E"/>
	<stop  offset="0.2242" style="stop-color:#F8000C"/>
	<stop  offset="0.5531" style="stop-color:#E40008"/>
	<stop  offset="0.9448" style="stop-color:#C40001"/>
	<stop  offset="1" style="stop-color:#BF0000"/>
	<a:midPointStop  offset="0" style="stop-color:#FF000E"/>
	<a:midPointStop  offset="0.6242" style="stop-color:#FF000E"/>
	<a:midPointStop  offset="1" style="stop-color:#BF0000"/>
</radialGradient>
<path fill="url(#SVGID_4_)" d="M40.752,8.256c7.998,1.856,7.854,6.111,0.529,3.317C40.832,10.532,40.645,9.392,40.752,8.256z"/>
<path fill="#8E3ED6" d="M40.504,23.407c-1.193-0.799-1.787-4.355-1.787-4.355c-7.102,2.152-11.8,2.152-16.941,5.297l2.381,4.251
	c0.297-0.15,0.596-0.314,0.891-0.481c-0.304,2.696,1.478,3.134,0.02,10.017l12.058-0.487c0,0-2.254-5.714-0.879-10.513
	C36.594,25.928,40.504,23.407,40.504,23.407z"/>
<path fill="#FFE463" d="M35.072,20.042c-0.988,0.094-1.518,0.359-1.518,0.359c-1.619,8.228-0.242,17.425-0.242,17.425h1.641
	C34.953,37.826,33.52,28.274,35.072,20.042z"/>
<path fill="#946346" d="M26.973,19.926c1.791-0.8,1.521,3.985,1.519,4.396c0,0,1.568-2.538,5.063-3.921c0,0,0.008-1.551-0.23-3.979
	C33.498,9.732,26.973,19.926,26.973,19.926z"/>
<path fill="#B88A6F" d="M23.287,7.987c-0.405,0.964-0.608,2.069-0.412,2.989c0.302,1.417-0.354,2.113-1.441,3.081
	c-1.035,0.917,0.116,1.747,1.22,1.738c0.226,0.325,0.039,0.646,0.039,0.646c0.883,0.768,0.861,1.945,0.456,2.267
	c0,0,0.272,0.14,0.22,0.644c-0.148,1.445,0.748,1.885,2.901,1.187c4.25-1.381,4.596-4.562,4.596-4.562
	c0.869,1.23,3.482-0.868,3.555-3.429C34.549,8.296,30.893,2.167,23.287,7.987z"/>
<path fill="#946346" d="M30.928,13.944c-0.002-1.044,0.84-1.958,1.695-1.965c0,0-1.459,1.25-1.078,2.926
	C31.545,14.905,30.93,14.672,30.928,13.944z"/>
<path fill="#F5F5F5" d="M26.232,12.857c-0.556,0.641-1.925,1.002-2.381,0.911C22.743,10.441,25.503,11.455,26.232,12.857z"/>
<path fill="#45332C" d="M23.902,13.776c1.307-0.043,0.576-3.547-0.31-1.642C23.544,12.466,23.639,13.785,23.902,13.776z"/>
<path fill="#45332C" d="M26.232,12.857c-0.352-1.302-2.604-2.241-2.64-0.723C23.948,11.311,25.542,11.839,26.232,12.857z"/>
<path fill="#F5F5F5" d="M23.989,12.17c0.008,0.321,0.469,0.307,0.462-0.016C24.441,11.86,23.98,11.874,23.989,12.17z"/>
<path fill="#423225" d="M26.568,10.807c-0.879-0.699-2.685-0.64-3.347-0.191c-0.145,0.086-0.002,0.59,0.109,0.519
	c0.742-0.472,2.146-0.62,3.211-0.115C26.659,11.075,26.706,10.905,26.568,10.807z"/>
<path fill="#84401E" d="M23.077,17.098c0.401,0.278,0,0.735,0,0.735c-0.364-0.014-0.366,0.974,0.071,0.875
	c1.274-0.294,2.397-1.242,2.441-1.618c-0.252,0.009-2.165-0.063-2.897-0.648C22.692,16.442,22.621,16.842,23.077,17.098z"/>
<path fill="#FFFFFF" d="M23.077,17.098v0.735c0.32,0.013,1.537-0.238,2.199-0.646C25.276,17.187,23.858,17.37,23.077,17.098z"/>
<path fill="#875B49" d="M36.422,8.575c-0.158-2.974-3.09-4.776-6.67-4.777c-4.632-0.003-7.004,2.79-6.465,4.189
	c5.331-2.572,5.709,7.43,7.768,4.145c1.031-1.646,3.398-0.754,2.906,1.486c-0.494,2.264-1.896,2.623-1.896,2.623
	c0.557,1.048,1.279,1.187,1.279,1.187C36.977,16.874,38.918,9.951,36.422,8.575z"/>
<path fill="#6B4435" d="M36.422,8.575c-0.158-2.974-5.182-4.351-6.838-4.03c2.402,0.395,5.207,1.967,5.52,2.956
	c-1.971-0.552-4.885-1.74-8.251-1.574c2.042,0.284,3.722,1.994,7.882,2.709c0,0-3.037,0.627-6.33-0.764
	c0.885,1.191,3.295,2.328,4.48,2.688c-1.334,0.066-2.832-0.084-5.926-2.161c2.045,1.866,2.663,6.021,4.096,3.733
	c1.031-1.646,3.398-0.754,2.906,1.486c-0.494,2.264-1.896,2.623-1.896,2.623c0.557,1.048,1.279,1.187,1.279,1.187
	C36.977,16.874,38.918,9.951,36.422,8.575z"/>
<path fill="#946346" d="M23.627,15.268c-0.171,0.44-0.839,0.551-1.237,0.536c-0.533-0.021-1.037-0.295-1.261-0.675
	C21.344,14.689,22.471,15.843,23.627,15.268z"/>
</svg>
