<?xml version="1.0" encoding="utf-8"?>
<!-- Generator: Adobe Illustrator 15.0.0, SVG Export Plug-In . SVG Version: 6.00 Build 0)  -->
<!DOCTYPE svg PUBLIC "-//W3C//DTD SVG 1.1//EN" "http://www.w3.org/Graphics/SVG/1.1/DTD/svg11.dtd" [
	<!ENTITY ns_flows "http://ns.adobe.com/Flows/1.0/">
	<!ENTITY ns_extend "http://ns.adobe.com/Extensibility/1.0/">
	<!ENTITY ns_ai "http://ns.adobe.com/AdobeIllustrator/10.0/">
	<!ENTITY ns_graphs "http://ns.adobe.com/Graphs/1.0/">
]>
<svg version="1.1" id="Layer_1" xmlns:x="&ns_extend;" xmlns:i="&ns_ai;" xmlns:graph="&ns_graphs;"
	 xmlns="http://www.w3.org/2000/svg" xmlns:xlink="http://www.w3.org/1999/xlink" xmlns:a="http://ns.adobe.com/AdobeSVGViewerExtensions/3.0/"
	 x="0px" y="0px" width="64px" height="64px" viewBox="0 0 64 64" enable-background="new 0 0 64 64" xml:space="preserve">
<path fill="#3B2C29" d="M25.811,7.433c-8.713,20.418-8.179,20.039,2.264,21.88C23.008,24.251,37.091,9.121,25.811,7.433z"/>
<path fill="#453631" d="M24.078,6.787c-6.469,15.541-4.075,20.245-1.451,21.566l3.176,0.56C19.294,22.364,33.776,8.167,24.078,6.787
	z"/>
<path fill="#3B2C29" d="M40.406,10.003c1.205,22.171,0.83,21.631-9.61,19.79C36.685,27.487,29.231,7.735,40.406,10.003z"/>
<path fill="#453631" d="M42.255,9.992c2.696,15.647-3.623,20.479-6.012,20.762l-3.175-0.56C41.354,26.696,32.671,7.973,42.255,9.992
	z"/>
<path fill="#594640" d="M41.741,18.052c0.873,4.014-2,11.424-5.498,12.701c3.517,0.62,6.522-3.866,8.742-10.378
	C47.769,12.237,40.189,10.893,41.741,18.052z"/>
<path fill="#594640" d="M18.083,17.232c0.214,6.267,1.09,10.511,4.544,11.12c-3.146-4.662-1.216-12.987,0.253-14.883
	C29.035,11.133,17.718,6.627,18.083,17.232z"/>
<path fill="#732EB0" d="M33.102,27.295c4.434,0.925,5.523,4.482,5.527,5.348c0.004,0.71,1.312,5.896,1.606,8.688
	c2.063,2.645,7.612,14.928,4.683,17.35C42.551,58.292,29.17,26.472,33.102,27.295z"/>
<linearGradient id="SVGID_1_" gradientUnits="userSpaceOnUse" x1="24.1909" y1="59.2471" x2="37.1079" y2="33.5806">
	<stop  offset="0" style="stop-color:#732EB0"/>
	<stop  offset="0.0177" style="stop-color:#742FB1"/>
	<stop  offset="0.3488" style="stop-color:#8237C6"/>
	<stop  offset="0.6777" style="stop-color:#8B3CD2"/>
	<stop  offset="1" style="stop-color:#8E3ED6"/>
	<a:midPointStop  offset="0" style="stop-color:#732EB0"/>
	<a:midPointStop  offset="0.297" style="stop-color:#732EB0"/>
	<a:midPointStop  offset="1" style="stop-color:#8E3ED6"/>
</linearGradient>
<path fill="url(#SVGID_1_)" d="M40.541,41.085c1.195-0.473,2.109-2.377,0.131-4.65c0.006,0.01,0.01,0.019,0.016,0.028
	c-0.627-0.946-1.492-1.772-2.043-2.535c-3.002-4.156-1.156-5.532-7.334-7.437c-3.053-0.048-5.018,0.233-6.242,0.809
	c-0.002,0-0.004-0.001-0.006,0c-2.402,0.375-4.68,1.583-5.131,6.05c-0.43,4.276-1.348,17.321,0.586,17.665
	c0.367,0.064,1.162-0.084,2.189-0.363c-0.504,12.883,15.529,14.484,20.609,6.391C45.801,53.085,44.842,45.968,40.541,41.085z"/>
<path fill="#FFCC66" d="M41.992,44.108c-0.809-0.287-1.805-1.225-2.49-1.279c-3.561-0.295-5.305-0.813-3.818,2.465
	c0.604,0.258,1.195,0.098,3.82,2.16c0.785,0.623,1.219,0.4,0.846,0.004c-2.988-3.182-0.334-0.594,0.303-0.008
	c0.873,0.799,1.758,0.652,1.289,0.201c-3.027-2.924-1.869-2.025,0.156-0.152c0.457,0.42,1.188,0.109,0.477-0.559
	c-2.25-2.105-1.641-1.736,0.197-0.088c0.406,0.359,0.957,0.26,0.525-0.32c-0.189-0.248-1.285-1.428-1.758-1.881
	C42.381,44.825,42.658,44.343,41.992,44.108z"/>
<path fill="#FFCC66" d="M37.254,61.556c0.363-1.373,2.021,0.039,4.445-3.021c0.363-0.463-3.172,1.779-3.15,0.037
	c2.068-0.582,2.066-2.029,5.441-2.012c0.332,0.234,0.99,1.691,0.922,1.973c-0.881,1.117-1.678,1.912-2.33,2.24
	C41.578,61.278,37.123,62.056,37.254,61.556z"/>
<linearGradient id="SVGID_2_" gradientUnits="userSpaceOnUse" x1="22.6064" y1="43.9375" x2="30.5219" y2="36.8755">
	<stop  offset="0" style="stop-color:#5D1E96"/>
	<stop  offset="1" style="stop-color:#5D1E96;stop-opacity:0"/>
	<a:midPointStop  offset="0" style="stop-color:#5D1E96"/>
	<a:midPointStop  offset="0.3333" style="stop-color:#5D1E96"/>
	<a:midPointStop  offset="1" style="stop-color:#5D1E96;stop-opacity:0"/>
</linearGradient>
<path fill="url(#SVGID_2_)" d="M35.639,42.603c-0.598,0.229-11.762,3.207-11.896,2.631s0.713-8.289,1.232-10.367
	c0.271-1.092,0.551-2.586,0.699-3.958"/>
<linearGradient id="SVGID_3_" gradientUnits="userSpaceOnUse" x1="22.9595" y1="49.498" x2="34.9612" y2="54.145">
	<stop  offset="0" style="stop-color:#5D1E96"/>
	<stop  offset="1" style="stop-color:#5D1E96;stop-opacity:0"/>
	<a:midPointStop  offset="0" style="stop-color:#5D1E96"/>
	<a:midPointStop  offset="0.3333" style="stop-color:#5D1E96"/>
	<a:midPointStop  offset="1" style="stop-color:#5D1E96;stop-opacity:0"/>
</linearGradient>
<path fill="url(#SVGID_3_)" d="M33.602,61.999c-5.391,0-11.344-3.766-10.895-11.348c3.176-1.074,11.584-4.029,13.316-5.338"/>
<path fill="#E6B045" d="M26.847,26.375c-0.726,4.118,5.67,5.246,6.396,1.127l0.753-4.272L27.6,22.103L26.847,26.375z"/>
<path fill="#FFCC66" d="M34.071,3.614C27.463,2.449,23.329,7.266,22.506,14.26c-0.164,1.407-0.13,3.481,0.045,5.283
	c0.357,3.75,4.957,8.271,7.185,8.664c2.229,0.393,8.09-2.284,9.717-5.684c0.777-1.634,1.518-3.572,1.849-4.95
	C42.918,10.719,40.685,4.78,34.071,3.614z"/>
<path fill="#D47706" d="M30.741,22.501c-1.481-0.991-1.614-0.314-4.126-0.589c0.75,1.223,1.195,2.704,3.676,3.141
	c2.851,0.502,3.6-0.956,4.529-1.694C32.366,22.757,32.473,22.076,30.741,22.501z"/>
<path fill="#FFFFFF" d="M27.314,22.307c1.321,1.97,4.821,2.567,6.713,1.184C31.487,23.32,29.768,23.018,27.314,22.307z"/>
<path fill="#594640" d="M39.63,14.686c-1.334-1.15-3.983-1.728-5.149-1.311c-0.244,0.08-0.295,0.737-0.09,0.688
	c1.621-0.363,3.923,0.012,5.208,0.99C39.772,15.181,39.834,14.854,39.63,14.686z"/>
<path fill="#594640" d="M25.063,12.117c1.644-0.625,4.332-0.261,5.287,0.53c0.202,0.159,0.029,0.794-0.15,0.678
	c-1.397-0.895-3.688-1.331-5.229-0.851C24.761,12.533,24.813,12.206,25.063,12.117z"/>
<path fill="#E6B045" d="M33.216,20.444c-0.235,1.335-4.33,0.613-4.095-0.722C29.176,19.415,33.271,20.137,33.216,20.444z"/>
<path fill="#594640" d="M41.289,5.875c-5.476,3.934-1.1,5.019,0.452,12.178c0.873,4.014,1.024,8.835,3.244,2.323
	C47.769,12.237,43.767,5.592,41.289,5.875z"/>
<path fill="#594640" d="M30.234,2.051C24.11,2.397,17.718,6.627,18.083,17.232c0.214,6.267,3.328-1.867,4.797-3.763
	c6.155-2.336,16.133-3.168,18.409-7.595C42.214,4.925,36.384,1.547,30.234,2.051z"/>
<path fill="#453631" d="M24.416,8.703c2.576-0.065,14.507,1.792,16.873-2.828C38.084,7.62,35.067,7.719,24.416,8.703z"/>
<path fill="#453631" d="M18.761,15.718c5.149-4.83,18.701-1.807,22.528-9.843C35.503,12.167,20.841,10.567,18.761,15.718z"/>
<path fill="#453631" d="M39.711,6.791c-1.374,1.509,2.805-0.325,4.908,11.309C44.752,11.539,42.119,6.542,39.711,6.791z"/>
<path fill="#45332C" d="M29.765,15.78c-1.367,0.567-3.276,0.23-4.367-0.77c-0.166-0.154-0.302-0.043-0.26,0.068
	c0.837,2.235,3.298,2.669,4.848,0.855C30.064,15.843,29.975,15.692,29.765,15.78z"/>
<path fill="#45332C" d="M38.329,17.291c-1.367,0.567-3.276,0.23-4.367-0.77c-0.166-0.154-0.301-0.043-0.261,0.068
	c0.837,2.235,3.298,2.669,4.848,0.855C38.627,17.353,38.538,17.202,38.329,17.291z"/>
</svg>
