<?xml version="1.0" encoding="utf-8"?>
<!-- Generator: Adobe Illustrator 15.0.0, SVG Export Plug-In . SVG Version: 6.00 Build 0)  -->
<!DOCTYPE svg PUBLIC "-//W3C//DTD SVG 1.1//EN" "http://www.w3.org/Graphics/SVG/1.1/DTD/svg11.dtd" [
	<!ENTITY ns_flows "http://ns.adobe.com/Flows/1.0/">
	<!ENTITY ns_extend "http://ns.adobe.com/Extensibility/1.0/">
	<!ENTITY ns_ai "http://ns.adobe.com/AdobeIllustrator/10.0/">
	<!ENTITY ns_graphs "http://ns.adobe.com/Graphs/1.0/">
]>
<svg version="1.1" id="Layer_1" xmlns:x="&ns_extend;" xmlns:i="&ns_ai;" xmlns:graph="&ns_graphs;"
	 xmlns="http://www.w3.org/2000/svg" xmlns:xlink="http://www.w3.org/1999/xlink" xmlns:a="http://ns.adobe.com/AdobeSVGViewerExtensions/3.0/"
	 x="0px" y="0px" width="64px" height="64px" viewBox="0 0 64 64" enable-background="new 0 0 64 64" xml:space="preserve">
<path fill="#FFCC66" d="M9.464,50.943c5.501-4.255,4.792-6.424,8.125-9.574c2.859-4.865,2.172-10.081,7.063-11.891
	c3.099,3.214,0.041,8.147-2.271,11.161c-0.531,3.411-4.815,7.951-8.167,10.889C9.102,56.007,6.12,53.531,9.464,50.943z"/>
<path fill="#FFCC66" d="M49.893,15.438c-1.849,4.165-3.142,5.82-4.085,8.033c-3.313,1.643-4.655,0.747-7.875,2.177
	c-7.076,3.482-1.635,16.046,0.375,11.372c0.636-6.664,4.74-6.643,10.241-9.606c1.529-0.823,4.165-11.031,4.165-11.031
	S50.194,14.757,49.893,15.438z"/>
<path fill="#8E3ED6" d="M37.933,25.647c-9.047,1.578-13.281,3.831-13.281,3.831c-1.043,4.659-5.902,8.715-2.301,12.653
	c1.208,1.32,0.652,5.437-0.73,9.886l14.011-1.991c0.328-5.843,2.837-5.505,2.677-13.007C36.833,38.398,33.98,28.973,37.933,25.647z"
	/>
<path fill="#F7C259" d="M26.202,26.693c2.199-0.469,1.559,1.482,1.345,2.57c-0.583,2.969,6.421,0.46,6.417-1.991
	c-0.002-1.251-0.141-1.756-0.217-3.033C34.28,15.516,26.202,26.693,26.202,26.693z"/>
<path fill="#FFCC66" d="M20.675,12.379c-0.51,1.213-0.672,2.372-0.425,3.53c0.38,1.783-0.443,2.658-1.811,3.877
	c-1.301,1.154,0.145,2.198,1.531,2.188c0.285,0.409,0.05,0.814,0.05,0.814c1.11,0.965,1.084,2.447,0.574,2.851
	c0,0,0.342,0.175,0.274,0.811c-0.185,1.819,0.941,2.372,3.648,1.493c5.343-1.737,5.776-5.74,5.776-5.74
	c1.092,1.549,4.377-1.093,4.467-4.315C34.924,12.537,30.234,5.055,20.675,12.379z"/>
<path fill="#F5F5F5" d="M24.471,18.275c-0.698,0.808-2.42,1.261-2.993,1.146C20.085,15.234,23.555,16.511,24.471,18.275z"/>
<path fill="#45332C" d="M21.542,19.432c1.643-0.054,0.725-4.463-0.389-2.064C21.093,17.784,21.212,19.442,21.542,19.432z"/>
<path fill="#45332C" d="M24.471,18.275c-0.443-1.639-3.274-2.82-3.317-0.908C21.6,16.331,23.604,16.994,24.471,18.275z"/>
<path fill="#F5F5F5" d="M21.651,17.411c0.009,0.404,0.588,0.387,0.58-0.018C22.22,17.021,21.64,17.039,21.651,17.411z"/>
<path fill="#594640" d="M24.894,15.695c-1.107-0.878-3.375-0.806-4.206-0.24c-0.183,0.109-0.003,0.743,0.137,0.653
	c0.931-0.595,2.696-0.78,4.034-0.145C25.007,16.032,25.065,15.819,24.894,15.695z"/>
<path fill="#D47706" d="M20.505,23.614c0.504,0.348,0,0.925,0,0.925c-0.457-0.018-0.461,1.225,0.09,1.1
	c1.604-0.37,3.012-1.563,3.067-2.036c-0.315,0.013-2.72-0.08-3.642-0.814C20.021,22.788,19.932,23.291,20.505,23.614z"/>
<path fill="#FFFFFF" d="M20.505,23.614v0.925c0.403,0.016,1.933-0.302,2.764-0.814C23.269,23.725,21.486,23.956,20.505,23.614z"/>
<path fill="#E6B045" d="M21.196,21.311c-0.213,0.553-1.054,0.691-1.555,0.674c-0.669-0.025-1.303-0.371-1.584-0.849
	C18.327,20.582,19.742,22.034,21.196,21.311z"/>
<path fill="#8E3ED6" d="M20.675,12.379c0,0,9.266-0.273,13.072,11.86l4.592-10.838C35.811,3.873,22.231,5.229,20.675,12.379z"/>
<path fill="#792CBF" d="M38.339,13.401c-2.712,1.602-3.581,4.846-3.581,4.846c-2.221-2.098-4.619-0.879-4.619-0.879
	s2.237,2.399,3.608,6.871C36.927,22.622,39.607,18.122,38.339,13.401z"/>
<path fill="#8E3ED6" d="M34.369,19.526c0.051,3.788-5.583,4.273-5.637,0.483C28.678,16.218,34.313,15.732,34.369,19.526z"/>
<path fill="#48C2F9" d="M2,62h60V49.164c-32.493-0.939-42.373,3.053-60,1.003V62z"/>
<path fill="#7ED2FC" d="M62,54.823c-22.666-0.26-39.188,2.21-60,1.5V62h60V54.823z"/>
<path fill="#792CBF" d="M35.282,38.049c0.621,2.853-3.291,5.478-5.443,3.817C31.865,42.046,34.422,39.709,35.282,38.049z"/>
<radialGradient id="SVGID_1_" cx="53.375" cy="8.4414" r="8.01" gradientTransform="matrix(0.9987 0 0 1 -0.1413 0)" gradientUnits="userSpaceOnUse">
	<stop  offset="0" style="stop-color:#FAE803"/>
	<stop  offset="0.2582" style="stop-color:#FAE103"/>
	<stop  offset="0.636" style="stop-color:#FACD03"/>
	<stop  offset="1" style="stop-color:#FAB403"/>
	<a:midPointStop  offset="0" style="stop-color:#FAE803"/>
	<a:midPointStop  offset="0.6242" style="stop-color:#FAE803"/>
	<a:midPointStop  offset="1" style="stop-color:#FAB403"/>
</radialGradient>
<ellipse fill="url(#SVGID_1_)" cx="54" cy="10.01" rx="8" ry="8.01"/>
<path fill="#302C3B" d="M61.112,6.792c-0.531-0.747-1.071-1.196-1.396-1.425c0.074-0.266,0.129-0.531,0.159-0.791
	c-0.098-0.107-0.199-0.211-0.304-0.312c-0.101,2.292-2.507,5.159-3.304,6.109c-0.043,0.052-0.081,0.097-0.115,0.138
	c-0.965-0.235-2.12-0.489-3.304-0.737c0.853-2.914,2.456-6.188,4.205-7.168c-0.126-0.054-0.255-0.103-0.384-0.148
	c-1.854,1.227-3.364,4.575-4.143,7.25c-1.326-0.276-2.668-0.54-3.796-0.759c0.122-1.244,0.5-2.637,1.02-3.755
	c0.708-1.521,1.683-2.578,2.825-3.068c-0.387,0.071-0.762,0.167-1.125,0.29c-0.788,0.606-1.468,1.502-1.998,2.642
	s-0.915,2.557-1.046,3.829c-0.507-0.1-0.963-0.187-1.344-0.259c-0.142-0.028-0.273-0.053-0.392-0.075
	c-0.046-0.515-0.039-1.73,0.755-3.108c-0.462,0.665-0.826,1.402-1.07,2.192c-0.046,0.438-0.029,0.79-0.005,1.017
	c-0.123,0.21-0.235,0.47-0.331,0.767C46.008,9.616,46,9.813,46,10.011c0,0.376,0.026,0.746,0.077,1.108
	c0.017-0.921,0.243-1.734,0.53-2.247c0.119,0.023,0.252,0.049,0.395,0.075c2.071,0.396,6.355,1.216,9.079,1.883
	c0.305,1.075,0.544,2.054,0.715,2.915c-1.442,0.444-3.811,0.489-5.963,0.106c-2.465-0.438-4.172-1.324-4.71-2.437
	c0.05,0.285,0.116,0.563,0.195,0.837c0.336,0.353,0.789,0.674,1.355,0.958c0.829,0.417,1.902,0.749,3.101,0.962
	c0.992,0.178,2.031,0.265,3.01,0.265c1.174,0,2.26-0.125,3.073-0.37c0.19,1.037,0.276,1.89,0.252,2.519
	c-1.07,0.577-2.721,0.884-4.341,0.8c-1.307-0.066-2.487-0.37-3.446-0.876c0.568,0.411,1.191,0.747,1.856,0.999
	c0.5,0.106,1.025,0.175,1.573,0.203c0.179,0.009,0.358,0.013,0.538,0.013c1.405,0,2.793-0.275,3.785-0.756
	c-0.027,0.195-0.069,0.359-0.128,0.492c0.136-0.054,0.269-0.112,0.399-0.173c0.356-1.479-0.411-4.645-0.951-6.555
	c0.036-0.044,0.078-0.094,0.125-0.15c0.386-0.46,1.042-1.242,1.675-2.175c1.107,1.396,2.958,3.854,2.003,6.668
	c0.185-0.229,0.357-0.465,0.518-0.711c0.182-1.072,0.026-2.189-0.468-3.335c-0.521-1.209-1.317-2.223-1.862-2.908
	c0.489-0.754,0.947-1.589,1.229-2.424c0.29,0.217,0.767,0.629,1.231,1.283c0.541,0.758,0.923,1.632,1.144,2.601
	c-0.035-0.652-0.147-1.283-0.328-1.884C61.5,7.381,61.317,7.079,61.112,6.792z"/>
</svg>
