<?xml version="1.0" encoding="utf-8"?>
<!-- Generator: Adobe Illustrator 15.0.0, SVG Export Plug-In . SVG Version: 6.00 Build 0)  -->
<!DOCTYPE svg PUBLIC "-//W3C//DTD SVG 1.1//EN" "http://www.w3.org/Graphics/SVG/1.1/DTD/svg11.dtd" [
	<!ENTITY ns_flows "http://ns.adobe.com/Flows/1.0/">
	<!ENTITY ns_extend "http://ns.adobe.com/Extensibility/1.0/">
	<!ENTITY ns_ai "http://ns.adobe.com/AdobeIllustrator/10.0/">
	<!ENTITY ns_graphs "http://ns.adobe.com/Graphs/1.0/">
]>
<svg version="1.1" id="Layer_1" xmlns:x="&ns_extend;" xmlns:i="&ns_ai;" xmlns:graph="&ns_graphs;"
	 xmlns="http://www.w3.org/2000/svg" xmlns:xlink="http://www.w3.org/1999/xlink" xmlns:a="http://ns.adobe.com/AdobeSVGViewerExtensions/3.0/"
	 x="0px" y="0px" width="64px" height="64px" viewBox="0 0 64 64" enable-background="new 0 0 64 64" xml:space="preserve">
<path fill="#614A36" d="M49.892,15.437c-1.848,4.166-3.27,4.971-4.213,7.185c-3.311,1.643-4.561,1.196-7.779,2.626
	c-9.047,1.578-13.248,4.231-13.248,4.231c-5.961,1.895-4.135,4.204-7.045,11.436c-2.625,4-1.666,6.667-6.207,10.376
	c-3.275,2.675,0.027,4.66,5.141,0.182c1.85-3.308,4.135-4.683,5.68-10.315c0,4.281,1.553,5.185-0.6,10.861l14.012-1.991
	c0.994-4.917,2.795-7.081,3.58-12.967c0.883-6.636,4.092-6.161,9.592-9.125c1.531-0.823,4.281-11.455,4.281-11.455
	S50.194,14.757,49.892,15.437z"/>
<path fill="#48C2F9" d="M2.001,62h59.998V49.164c-32.492-0.939-42.371,3.053-59.998,1.003V62z"/>
<path fill="#7ED2FC" d="M61.999,54.823c-22.666-0.26-39.188,2.21-59.998,1.5V62h59.998V54.823z"/>
<radialGradient id="SVGID_1_" cx="53.7715" cy="8.4414" r="8.0104" gradientTransform="matrix(0.9987 0 0 1 -0.5357 0)" gradientUnits="userSpaceOnUse">
	<stop  offset="0" style="stop-color:#FAE803"/>
	<stop  offset="0.2582" style="stop-color:#FAE103"/>
	<stop  offset="0.636" style="stop-color:#FACD03"/>
	<stop  offset="1" style="stop-color:#FAB403"/>
	<a:midPointStop  offset="0" style="stop-color:#FAE803"/>
	<a:midPointStop  offset="0.6242" style="stop-color:#FAE803"/>
	<a:midPointStop  offset="1" style="stop-color:#FAB403"/>
</radialGradient>
<ellipse fill="url(#SVGID_1_)" cx="54.001" cy="10.01" rx="8.002" ry="8.01"/>
<path fill="#302C3B" d="M61.112,6.792c-0.531-0.748-1.072-1.196-1.396-1.425c0.074-0.267,0.129-0.531,0.16-0.791
	c-0.098-0.108-0.199-0.212-0.305-0.312c-0.1,2.291-2.506,5.159-3.303,6.109c-0.043,0.051-0.082,0.096-0.115,0.137
	c-0.965-0.234-2.121-0.488-3.305-0.736c0.854-2.914,2.457-6.189,4.205-7.168c-0.125-0.054-0.254-0.103-0.383-0.148
	c-1.854,1.227-3.365,4.575-4.143,7.25c-1.326-0.276-2.668-0.541-3.797-0.76c0.123-1.243,0.5-2.636,1.02-3.754
	c0.709-1.521,1.684-2.578,2.826-3.068c-0.387,0.07-0.762,0.167-1.125,0.289c-0.789,0.607-1.469,1.502-1.998,2.643
	c-0.531,1.14-0.916,2.557-1.047,3.828c-0.506-0.099-0.963-0.186-1.344-0.258C46.923,8.6,46.79,8.575,46.673,8.553
	c-0.047-0.515-0.039-1.731,0.754-3.108c-0.461,0.665-0.824,1.402-1.07,2.191c-0.045,0.439-0.029,0.791-0.004,1.018
	c-0.123,0.209-0.236,0.469-0.332,0.767c-0.014,0.196-0.021,0.392-0.021,0.591c0,0.375,0.027,0.746,0.078,1.108
	c0.016-0.921,0.242-1.734,0.529-2.247c0.119,0.023,0.252,0.049,0.395,0.074c2.072,0.397,6.355,1.217,9.08,1.884
	c0.305,1.075,0.543,2.054,0.715,2.915c-1.443,0.444-3.811,0.489-5.963,0.105c-2.465-0.438-4.172-1.323-4.711-2.436
	c0.051,0.285,0.117,0.563,0.195,0.836c0.336,0.354,0.789,0.674,1.355,0.959c0.83,0.416,1.902,0.749,3.102,0.962
	c0.992,0.177,2.031,0.265,3.01,0.265c1.174,0,2.26-0.125,3.072-0.37c0.191,1.036,0.277,1.89,0.252,2.519
	c-1.07,0.577-2.721,0.883-4.34,0.799c-1.307-0.065-2.488-0.369-3.445-0.875c0.566,0.41,1.189,0.747,1.855,0.998
	c0.5,0.107,1.025,0.176,1.572,0.203c0.18,0.01,0.359,0.014,0.539,0.014c1.404,0,2.793-0.275,3.785-0.756
	c-0.027,0.195-0.07,0.359-0.129,0.492c0.137-0.055,0.27-0.112,0.4-0.173c0.355-1.479-0.412-4.645-0.951-6.556
	c0.035-0.043,0.078-0.094,0.125-0.15c0.385-0.459,1.041-1.241,1.674-2.174c1.107,1.395,2.959,3.854,2.004,6.668
	c0.184-0.229,0.357-0.465,0.518-0.711c0.182-1.072,0.025-2.189-0.469-3.335c-0.521-1.21-1.316-2.224-1.861-2.909
	c0.488-0.754,0.947-1.588,1.229-2.424c0.289,0.217,0.766,0.63,1.23,1.284c0.541,0.758,0.924,1.632,1.145,2.601
	c-0.035-0.652-0.148-1.283-0.328-1.884C61.499,7.38,61.317,7.079,61.112,6.792z"/>
<path fill="#614A36" d="M26.202,26.693c2.199-0.469,2.266,1.487,2.051,2.575c-0.582,2.969,5.715,0.455,5.711-1.996
	c-0.002-1.251-0.141-1.756-0.217-3.033C34.28,15.516,26.202,26.693,26.202,26.693z"/>
<path fill="#423225" d="M26.202,26.693c2.199-0.469,1.773,2.043,1.322,3.055c-0.438,0.979,3.791,0.062,4.027-7.73
	C32.085,13.294,26.202,26.693,26.202,26.693z"/>
<path fill="#614A36" d="M20.675,12.379c-0.467,1.224-0.561,2.538-0.295,3.68c0.42,1.757-0.361,2.661-1.654,3.93
	c-1.232,1.203,0.195,2.18,1.545,2.112c0.283,0.397,0.201,1.048,0.201,1.048s1.031,0.78,0.209,2.276
	c1.094,1.022-0.77,2.936,1.893,2.927c2.6-0.009,5.984-2.09,6.559-2.684c0.908-0.94,1.154-3.77,1.154-3.77
	c1.104,1.496,3.855-1.243,3.863-4.456C34.163,12.117,29.757,4.697,20.675,12.379z"/>
<path fill="#F5F5F5" d="M24.856,18.151c-0.695,0.762-2.375,1.154-2.928,1.023C20.698,15.087,24.021,16.42,24.856,18.151z"/>
<path fill="#45332C" d="M21.991,19.188c1.588-0.004,0.828-4.296-0.318-2.009C21.601,17.583,21.671,19.189,21.991,19.188z"/>
<path fill="#423225" d="M24.856,18.151c-0.387-1.597-3.088-2.821-3.184-0.973C22.134,16.192,24.052,16.888,24.856,18.151z"/>
<path fill="#F5F5F5" d="M22.153,17.237c-0.002,0.392,0.561,0.39,0.563-0.001C22.716,16.874,22.153,16.874,22.153,17.237z"/>
<path fill="#36281D" d="M25.069,15.446c-1.102-0.813-3.217-0.85-4.006-0.275c-0.172,0.109-0.061,0.886,0.08,0.811
	c1.104-0.61,2.871-0.629,3.9,0.042C25.177,16.108,25.235,15.561,25.069,15.446z"/>
<path fill="#36281D" d="M20.517,23.723c0.504,0.326,0.105,0.859,0.105,0.859c-0.242,0-0.301,0.844,0.059,0.843
	c1.797-0.006,2.479-1.185,2.965-1.848C21.673,23.477,19.704,22.486,20.517,23.723z"/>
<path fill="#FFFFFF" d="M20.517,23.723c0,0,0.018,0.748,0.105,0.859c0.395,0,1.854-0.321,2.645-0.869L20.517,23.723z"/>
<path fill="#423225" d="M21.438,21.39c-0.189,0.559-1.002,0.735-1.486,0.735c-0.654,0.002-1.277-0.314-1.563-0.777
	C18.64,20.786,20.05,22.171,21.438,21.39z"/>
<path fill="#E81C27" d="M20.675,12.379c0,0,9.266-0.274,13.072,11.86l4.592-10.838C35.812,3.872,22.231,5.229,20.675,12.379z"/>
<path fill="#B00505" d="M38.339,13.401c-2.711,1.602-3.58,4.846-3.58,4.846c-2.221-2.098-4.619-0.879-4.619-0.879
	s2.236,2.398,3.607,6.871C36.927,22.622,39.608,18.122,38.339,13.401z"/>
<path fill="#E81C27" d="M34.37,19.526c0.051,3.788-5.584,4.273-5.637,0.482C28.679,16.218,34.313,15.732,34.37,19.526z"/>
<path fill="#423225" d="M24.526,38.475c0.02,0.757-1.41,0.855-1.43,0.098S24.507,37.715,24.526,38.475z"/>
<path fill="#423225" d="M34.632,36.025c0.275,0.704-1.035,1.283-1.311,0.576C33.046,35.896,34.356,35.316,34.632,36.025z"/>
</svg>
