<?xml version="1.0" encoding="utf-8"?>
<!-- Generator: Adobe Illustrator 15.0.0, SVG Export Plug-In . SVG Version: 6.00 Build 0)  -->
<!DOCTYPE svg PUBLIC "-//W3C//DTD SVG 1.1//EN" "http://www.w3.org/Graphics/SVG/1.1/DTD/svg11.dtd" [
	<!ENTITY ns_flows "http://ns.adobe.com/Flows/1.0/">
	<!ENTITY ns_extend "http://ns.adobe.com/Extensibility/1.0/">
	<!ENTITY ns_ai "http://ns.adobe.com/AdobeIllustrator/10.0/">
	<!ENTITY ns_graphs "http://ns.adobe.com/Graphs/1.0/">
]>
<svg version="1.1" id="Layer_1" xmlns:x="&ns_extend;" xmlns:i="&ns_ai;" xmlns:graph="&ns_graphs;"
	 xmlns="http://www.w3.org/2000/svg" xmlns:xlink="http://www.w3.org/1999/xlink" xmlns:a="http://ns.adobe.com/AdobeSVGViewerExtensions/3.0/"
	 x="0px" y="0px" width="64px" height="64px" viewBox="0 0 64 64" enable-background="new 0 0 64 64" xml:space="preserve">
<path fill="#E81C27" d="M12.254,51.746c2.402-1.514,12.363-5.506,12.363-5.506h14.839c0,0,9.951,3.986,12.342,5.502
	C55.268,53.943,56,62,56,62H8C8,62,8.774,53.936,12.254,51.746z"/>
<path fill="#E81C27" d="M15.262,16.281C11.684,7.543,16.631,2,32,2c15.365,0,20.318,5.543,16.738,14.281
	C46.492,21.764,17.506,21.756,15.262,16.281z"/>
<path fill="#E6EBEF" d="M49.365,12.623c3.713,8.43-38.443,8.43-34.73,0C19.668,1.199,44.318,1.17,49.365,12.623z"/>
<path fill="#E81C27" d="M53.359,18.271C57.93,26.809,55.426,32.223,32,32.223c-23.428,0-25.93-5.414-21.361-13.951
	C11.975,15.775,19.333,5.324,32,5.324C44.668,5.324,52.023,15.775,53.359,18.271z"/>
<path fill="#99A8AE" d="M15.27,21.732c-5.592-1.008-1.223,14.602,3.156,10.297C20.456,30.033,17.887,22.203,15.27,21.732z"/>
<path fill="#99A8AE" d="M48.73,21.732c-2.617,0.471-5.184,8.301-3.154,10.297C49.957,36.334,54.32,20.725,48.73,21.732z"/>
<path fill="#916B50" d="M14.428,26.545c0.152,2.602,0.875,6.355,1.77,9.57C18.62,44.844,27.268,47.998,32,47.998
	c4.73,0,13.38-3.154,15.802-11.883c0.893-3.215,1.617-6.969,1.77-9.57C50.623,8.252,13.374,8.252,14.428,26.545z"/>
<path fill="#99A8AE" d="M45.625,22.609c-2.785-1.66-7.783-1.863-9.762-0.732c-0.42,0.227-0.305,1.428,0.059,1.277
	c2.818-1.174,7.113-1.232,9.76,0.125C46.037,23.459,46.045,22.85,45.625,22.609z"/>
<path fill="#99A8AE" d="M18.377,22.609c2.785-1.66,7.781-1.863,9.76-0.732c0.42,0.227,0.309,1.428-0.057,1.277
	c-2.818-1.174-7.111-1.234-9.762,0.125C17.963,23.459,17.958,22.85,18.377,22.609z"/>
<path fill="#523825" d="M24.528,38.139c3.277,3.057,11.681,3.076,14.984,0C35.598,39.012,28.471,39.016,24.528,38.139z"/>
<path fill="#755035" d="M35.834,33.568c0,2.496-7.664,2.496-7.664,0C28.17,32.996,35.834,32.996,35.834,33.568z"/>
<path fill="#755035" d="M27.786,33.83c-2.295,2.463-4.76,4.002-3.813,7.488C24.075,38.008,26.174,37.385,27.786,33.83z"/>
<path fill="#755035" d="M40.029,41.318c0.938-3.451-1.496-5-3.813-7.486C37.83,37.389,39.926,38.008,40.029,41.318z"/>
<path fill="#755035" d="M35.877,28.326c1.529,2.893,7.623,3.896,7.623,3.896S36.986,29.867,35.877,28.326z"/>
<path fill="#755035" d="M20.5,32.223c0,0,6.072-0.977,7.625-3.896C27.014,29.867,20.5,32.223,20.5,32.223z"/>
<path fill="#FFFFFF" d="M45.033,27.797c-0.98,2.984-8.621,1.801-9.199,0.148C36.73,22.541,44.164,22.67,45.033,27.797z"/>
<path fill="#613F34" d="M37.305,26.58c0,3.795,5.49,3.795,5.49,0C42.795,23.059,37.305,23.059,37.305,26.58z"/>
<path fill="#7D5037" d="M37.848,27.795c0,2.176,4.404,2.176,4.404,0C42.252,25.775,37.848,25.775,37.848,27.795z"/>
<path fill="#1A1626" d="M38.91,26.641c0,1.574,2.277,1.574,2.277,0C41.188,25.18,38.91,25.18,38.91,26.641z"/>
<path fill="#AB968C" d="M38.133,26.18c0,0.797,1.15,0.797,1.15,0C39.283,25.441,38.133,25.441,38.133,26.18z"/>
<path fill="#755035" d="M45.033,27.762c0-5.162-9.199-5.752-9.199,0.225C37.146,23.082,43.719,23.672,45.033,27.762z"/>
<path fill="#FFFFFF" d="M18.967,27.797c0.982,2.984,8.621,1.801,9.199,0.148C27.272,22.541,19.836,22.67,18.967,27.797z"/>
<path fill="#613F34" d="M21.204,26.58c0,3.795,5.49,3.795,5.49,0C26.694,23.059,21.204,23.059,21.204,26.58z"/>
<path fill="#7D5037" d="M21.747,27.795c0,2.176,4.404,2.176,4.404,0C26.151,25.775,21.747,25.775,21.747,27.795z"/>
<path fill="#1A1626" d="M22.811,26.641c0,1.574,2.275,1.574,2.275,0C25.086,25.18,22.811,25.18,22.811,26.641z"/>
<path fill="#AB968C" d="M22.034,26.18c0,0.797,1.148,0.797,1.148,0C23.182,25.441,22.034,25.441,22.034,26.18z"/>
<path fill="#755035" d="M18.967,27.762c0-5.162,9.199-5.752,9.199,0.225C26.854,23.082,20.282,23.672,18.967,27.762z"/>
<radialGradient id="SVGID_1_" cx="41.3467" cy="43.4746" r="14.5639" gradientUnits="userSpaceOnUse">
	<stop  offset="0" style="stop-color:#FFFFFF"/>
	<stop  offset="0.2477" style="stop-color:#FCFDFD"/>
	<stop  offset="0.4201" style="stop-color:#F3F5F6"/>
	<stop  offset="0.5691" style="stop-color:#E4E7E9"/>
	<stop  offset="0.6485" style="stop-color:#D8DDE0"/>
	<a:midPointStop  offset="0" style="stop-color:#FFFFFF"/>
	<a:midPointStop  offset="0.7757" style="stop-color:#FFFFFF"/>
	<a:midPointStop  offset="0.6485" style="stop-color:#D8DDE0"/>
</radialGradient>
<path fill="url(#SVGID_1_)" d="M45.121,41.486c-5.049,5.963-13.111,6.512-13.111,6.512s3.22,6.857,9.351,4.434
	c-0.85-0.387-0.842-0.703-0.834-0.703c3.596,0.43,7.717-1.195,8.639-3.73c-0.012,0.012,0.666-0.383,0.75,0.951
	C52.453,46.326,50.01,40.918,45.121,41.486z"/>
<radialGradient id="SVGID_2_" cx="577.8896" cy="43.4746" r="14.5639" gradientTransform="matrix(-1 0 0 1 600.543 0)" gradientUnits="userSpaceOnUse">
	<stop  offset="0" style="stop-color:#FFFFFF"/>
	<stop  offset="0.2477" style="stop-color:#FCFDFD"/>
	<stop  offset="0.4201" style="stop-color:#F3F5F6"/>
	<stop  offset="0.5691" style="stop-color:#E4E7E9"/>
	<stop  offset="0.6485" style="stop-color:#D8DDE0"/>
	<a:midPointStop  offset="0" style="stop-color:#FFFFFF"/>
	<a:midPointStop  offset="0.7757" style="stop-color:#FFFFFF"/>
	<a:midPointStop  offset="0.6485" style="stop-color:#D8DDE0"/>
</radialGradient>
<path fill="url(#SVGID_2_)" d="M18.879,41.486c5.049,5.963,13.111,6.512,13.111,6.512s-3.221,6.857-9.352,4.434
	c0.85-0.387,0.842-0.703,0.834-0.703c-3.596,0.43-7.717-1.195-8.639-3.73c0.012,0.012-0.666-0.383-0.75,0.951
	C11.547,46.326,13.991,40.918,18.879,41.486z"/>
<path fill="#F9B700" d="M30.5,53.211c0,2.074,3,2.074,3,0C33.5,51.285,30.5,51.285,30.5,53.211z"/>
<path fill="#F9B700" d="M30.5,59.15c0,2.076,3,2.076,3,0C33.5,57.227,30.5,57.227,30.5,59.15z"/>
<linearGradient id="SVGID_3_" gradientUnits="userSpaceOnUse" x1="23.0669" y1="33.7637" x2="23.0669" y2="25.7202">
	<stop  offset="0" style="stop-color:#FFFFFF;stop-opacity:0"/>
	<stop  offset="1" style="stop-color:#FFFFFF"/>
	<a:midPointStop  offset="0" style="stop-color:#FFFFFF;stop-opacity:0"/>
	<a:midPointStop  offset="0.5" style="stop-color:#FFFFFF;stop-opacity:0"/>
	<a:midPointStop  offset="1" style="stop-color:#FFFFFF"/>
</linearGradient>
<path opacity="0.8" fill="url(#SVGID_3_)" d="M28.592,29.742c0,5.361-11.051,5.361-11.051,0
	C17.542,24.379,28.592,24.379,28.592,29.742z"/>
<linearGradient id="SVGID_4_" gradientUnits="userSpaceOnUse" x1="40.9336" y1="33.7637" x2="40.9336" y2="25.7202">
	<stop  offset="0" style="stop-color:#FFFFFF;stop-opacity:0"/>
	<stop  offset="1" style="stop-color:#FFFFFF"/>
	<a:midPointStop  offset="0" style="stop-color:#FFFFFF;stop-opacity:0"/>
	<a:midPointStop  offset="0.5" style="stop-color:#FFFFFF;stop-opacity:0"/>
	<a:midPointStop  offset="1" style="stop-color:#FFFFFF"/>
</linearGradient>
<path opacity="0.8" fill="url(#SVGID_4_)" d="M46.459,29.742c0,5.361-11.051,5.361-11.051,0
	C35.408,24.379,46.459,24.379,46.459,29.742z"/>
<polygon fill="#99A8AE" points="17.249,29.369 13.739,21.01 14.543,21.125 17.795,28.764 "/>
<polygon fill="#99A8AE" points="46.752,29.369 46.205,28.764 49.457,21.125 50.26,21.01 "/>
<path fill="#99A8AE" d="M35.42,29.492l-0.037,0.766c0,0-0.191-1.078-3.382-1.078c-3.191,0-3.383,1.078-3.383,1.078l-0.037-0.766
	c0,0-0.135-1.129,3.42-1.129C35.555,28.363,35.42,29.492,35.42,29.492z"/>
<path fill="#99A8AE" d="M23.067,33.426c-2.541,0-5.277-1.152-5.277-3.684c0-2.533,2.736-3.686,5.277-3.686
	c2.543,0,5.279,1.152,5.279,3.686C28.346,32.273,25.61,33.426,23.067,33.426 M23.067,25.238c-2.932,0-6.09,1.408-6.09,4.504
	s3.158,4.504,6.09,4.504c2.934,0,6.09-1.408,6.09-4.504S26,25.238,23.067,25.238"/>
<path fill="#99A8AE" d="M40.934,33.426c-2.545,0-5.279-1.152-5.279-3.684c0-2.533,2.734-3.686,5.279-3.686
	c2.541,0,5.277,1.152,5.277,3.686C46.211,32.273,43.475,33.426,40.934,33.426 M40.934,25.238c-2.934,0-6.09,1.408-6.09,4.504
	s3.156,4.504,6.09,4.504s6.09-1.408,6.09-4.504S43.867,25.238,40.934,25.238"/>
<radialGradient id="SVGID_5_" cx="18.9053" cy="54.4063" r="22.262" gradientTransform="matrix(0.96 0 0 0.8593 13.8513 -25.4765)" gradientUnits="userSpaceOnUse">
	<stop  offset="0" style="stop-color:#FFFFFF"/>
	<stop  offset="0.3253" style="stop-color:#FBFCFC"/>
	<stop  offset="0.6381" style="stop-color:#F0F2F3"/>
	<stop  offset="0.945" style="stop-color:#DCE1E3"/>
	<stop  offset="1" style="stop-color:#D8DDE0"/>
	<a:midPointStop  offset="0" style="stop-color:#FFFFFF"/>
	<a:midPointStop  offset="0.7152" style="stop-color:#FFFFFF"/>
	<a:midPointStop  offset="1" style="stop-color:#D8DDE0"/>
</radialGradient>
<path fill="url(#SVGID_5_)" d="M55.328,24.561c0.568-2.207-2.719-1.508-2.418-4.066c0.217-1.844-0.672-4.189-3.523-4.068
	c-5.977,0.252-2.863-2.607-7.27-4.441c-2.211-0.922-3.357,0.916-5.324,0.986c-1.895,0.07-1.76-2.227-4.792-2.227
	c-3.035,0-2.9,2.297-4.795,2.227c-1.967-0.07-3.111-1.908-5.324-0.986c-4.404,1.834-1.293,4.693-7.268,4.441
	c-2.852-0.121-3.742,2.225-3.523,4.068c0.299,2.559-2.988,1.859-2.418,4.066c0.729,2.838-3.125,4.662,2.197,4.842
	c1.324,0.045,0.791,3.457,2.959,2.074c2.367-1.512,1.846-4.863,1.461-6.918c-0.807-4.318,4.301-1.119,5.232-5.145
	c0.844-3.646,3.268-1.344,6.02-1.732c2.492-0.352,2.975-1.645,5.459-1.645c2.482,0,2.966,1.293,5.457,1.645
	c2.752,0.389,5.176-1.914,6.02,1.732c0.932,4.025,6.039,0.826,5.232,5.145c-0.385,2.055-0.904,5.406,1.463,6.918
	c2.168,1.383,1.635-2.029,2.959-2.074C58.451,29.223,54.598,27.398,55.328,24.561z"/>
</svg>
