<?xml version="1.0" encoding="utf-8"?>
<!-- Generator: Adobe Illustrator 19.0.0, SVG Export Plug-In . SVG Version: 6.00 Build 0)  -->
<svg version="1.1" id="Layer_1" xmlns="http://www.w3.org/2000/svg" xmlns:xlink="http://www.w3.org/1999/xlink" x="0px" y="0px"
	 width="64px" height="64px" viewBox="0 0 64 64" enable-background="new 0 0 64 64" xml:space="preserve">
<path fill="#F7C259" d="M36.361,15.663c-2.427,2.535-5.183,7.966-6.548,8.331c-2.416,0.649-6.675-1.608-9.177-1.857
	c-3.831-0.384-2.447-5.479,0.493-4.548c2.612,0.824,6.039,1.963,7.423,2.44c2.208-2.685,5.451-4.123,5.078-6.831
	c-0.321-2.356,0.88-3.19,1.176-1.608c0,0,0.826-2.775,2.763-1.979C39.556,10.423,38.448,13.48,36.361,15.663z"/>
<path fill="#F7C259" d="M39.641,17.22c1.249-1.226,1.414,1.886,1.538,2.235c0,0,1.44-2.749,4.468-4.017c0,0-0.832-1.141-1.783-3.137
	C41.934,6.549,39.641,17.22,39.641,17.22z"/>
<path fill="#FFCC66" d="M32.756,8.658c-0.014,0.94,0.275,1.615,0.734,2.32c0.713,1.082,0.41,1.883-0.151,3.058
	c-0.536,1.113,0.667,1.421,1.562,1.045c0.287,0.199,0.392,0.657,0.392,0.657s0.742-0.076,0.557,1.135
	c0.988,0.422,0.344,2.221,2.139,1.561c1.75-0.643,3.523-2.581,3.764-3.123c0.383-0.856-0.147-2.825-0.147-2.825
	c1.112,0.739,2.297-1.785,1.514-3.954C41.819,4.935,36.995,1.247,32.756,8.658z"/>
<path fill="#E6B045" d="M40.748,10.187c-0.346-0.845,0.041-1.861,0.731-2.147c0,0-0.774,1.491,0.081,2.727
	C41.561,10.767,40.986,10.778,40.748,10.187z"/>
<path fill="#F5F5F5" d="M37.023,11.291c-0.282,0.685-1.317,1.362-1.724,1.409C33.466,10.245,36.034,10.328,37.023,11.291z"/>
<path fill="#45332C" d="M35.346,12.693c1.07-0.393-0.498-3.1-0.708-1.277C34.688,11.707,35.129,12.772,35.346,12.693z"/>
<path fill="#E6B045" d="M37.023,11.291c-0.651-0.982-2.775-1.145-2.385,0.125C34.707,10.639,36.17,10.638,37.023,11.291z"/>
<path fill="#F5F5F5" d="M34.977,11.338c0.094,0.264,0.473,0.126,0.378-0.138C35.266,10.955,34.887,11.093,34.977,11.338z"/>
<path fill="#C1873C" d="M36.502,9.414c-0.942-0.278-2.378,0.217-2.768,0.798c-0.091,0.115,0.175,0.613,0.251,0.527
	c0.595-0.683,1.782-1.129,2.642-0.93C36.738,9.834,36.644,9.45,36.502,9.414z"/>
<path fill="#E69B45" d="M35.523,16.207c-0.177,0.433,0.092,0.774,0.327,0.666c0.509-0.234,0.613-0.855,1.694-1.163
	C36.234,15.302,34.556,15.486,35.523,16.207z"/>
<path fill="#594640" d="M43.116,3.065c-1.309-1.149-3.294-1.484-6.183-0.425c-2.659,0.977-3.943,2.454-4.762,2.367
	c0,0,0.02,0.497,0.331,0.811c-0.362,0.153-0.67-0.012-0.669-0.008c-0.104,0.513-0.152,1.768,0.922,2.848
	c3.635-3.126,4.422-1.727,5.814-0.895c0.319,0.193,0.07,1.674,1.623,2.51c-0.763-2.841,2.549-3.764,3.039-1.246
	c0.313,1.614-0.132,2.506-0.376,2.991c0.679-0.034,1.16,0.602,1.16,0.602C47.019,11.517,45.494,3.812,43.116,3.065z"/>
<path fill="#E6B045" d="M35.513,14.315c0.01,0.423-0.496,0.742-0.822,0.86c-0.441,0.161-0.939,0.1-1.244-0.141
	C33.477,14.595,34.768,15.182,35.513,14.315z"/>
<path fill="#F7C259" d="M23.437,17.22c-1.249-1.226-1.414,1.886-1.538,2.235c0,0-1.44-2.749-4.468-4.017
	c0,0,0.832-1.141,1.783-3.137C21.144,6.549,23.437,17.22,23.437,17.22z"/>
<path fill="#FFCC66" d="M30.321,8.658c0.014,0.94-0.275,1.615-0.734,2.32c-0.713,1.082-0.41,1.883,0.151,3.058
	c0.536,1.113-0.667,1.421-1.562,1.045c-0.287,0.199-0.392,0.657-0.392,0.657s-0.742-0.076-0.557,1.135
	c-0.988,0.422-0.344,2.221-2.139,1.561c-1.75-0.643-3.523-2.581-3.764-3.123c-0.383-0.856,0.147-2.825,0.147-2.825
	c-1.112,0.739-2.297-1.785-1.514-3.954C21.258,4.935,26.082,1.247,30.321,8.658z"/>
<path fill="#E6B045" d="M22.329,10.187c0.346-0.845-0.041-1.861-0.732-2.147c0,0,0.774,1.491-0.081,2.727
	C21.517,10.767,22.091,10.778,22.329,10.187z"/>
<path fill="#F5F5F5" d="M26.055,11.291c0.282,0.685,1.317,1.362,1.724,1.409C29.611,10.245,27.043,10.328,26.055,11.291z"/>
<path fill="#45332C" d="M27.732,12.693c-1.07-0.393,0.498-3.1,0.708-1.277C28.39,11.707,27.948,12.772,27.732,12.693z"/>
<path fill="#E6B045" d="M26.055,11.291c0.651-0.982,2.775-1.145,2.385,0.125C28.37,10.639,26.907,10.638,26.055,11.291z"/>
<path fill="#F5F5F5" d="M28.101,11.338c-0.094,0.264-0.473,0.126-0.378-0.138C27.812,10.955,28.191,11.093,28.101,11.338z"/>
<path fill="#C1873C" d="M26.575,9.414c0.942-0.278,2.378,0.217,2.767,0.798c0.091,0.115-0.175,0.613-0.251,0.527
	c-0.595-0.683-1.782-1.129-2.642-0.93C26.339,9.834,26.434,9.45,26.575,9.414z"/>
<path fill="#E69B45" d="M27.555,16.207c0.177,0.433-0.092,0.774-0.327,0.666c-0.509-0.234-0.613-0.855-1.694-1.163
	C26.844,15.302,28.522,15.486,27.555,16.207z"/>
<path fill="#594640" d="M19.961,3.065c1.309-1.149,3.294-1.484,6.183-0.425c2.659,0.977,3.943,2.454,4.762,2.367
	c0,0-0.02,0.497-0.331,0.811c0.362,0.153,0.67-0.012,0.669-0.008c0.104,0.513,0.152,1.768-0.922,2.848
	c-3.635-3.126-4.422-1.727-5.814-0.895c-0.319,0.193-0.07,1.674-1.623,2.51c0.763-2.841-2.549-3.764-3.039-1.246
	c-0.314,1.614,0.132,2.506,0.376,2.991c-0.679-0.034-1.16,0.602-1.16,0.602C16.059,11.517,17.583,3.812,19.961,3.065z"/>
<path fill="#E6B045" d="M27.565,14.315c-0.01,0.423,0.496,0.742,0.822,0.86c0.441,0.161,0.938,0.1,1.244-0.141
	C29.601,14.595,28.31,15.182,27.565,14.315z"/>
<path fill="#E81C27" d="M41.693,7.893c-0.694-0.361-2.626,0.249-2.987,0.943c-0.672,1.292,0.397,5.023,1.753,5.553
	c0.729,0.286,2.505-0.434,2.726-1.184C43.736,11.33,42.985,8.566,41.693,7.893z M39.101,9.662c-0.446-0.484,0.522-1.379,0.971-0.896
	C40.518,9.251,39.549,10.146,39.101,9.662z M41.336,13.784c-0.379,0.654-1.69-0.103-1.313-0.76
	C40.402,12.37,41.715,13.127,41.336,13.784z M41.95,8.868c-0.19,0.661-1.515,0.287-1.329-0.376C40.81,7.83,42.136,8.203,41.95,8.868
	z"/>
<path fill="#F2F5F7" d="M37.383,19.3c-0.281,0.243-0.761-0.217-0.692-0.447c0.299-1.016,2.661-4.633,3.509-5.449
	c0.356-0.345,0.793,0.168,0.693,0.446C40.5,14.961,38.184,18.605,37.383,19.3z"/>
<path fill="#E3E6E8" d="M34.714,3.977c-0.271-0.342,0.239-0.738,0.494-0.617c1.123,0.527,5.138,3.756,6.044,4.81
	c0.284,0.328-0.134,0.81-0.491,0.621C39.527,8.142,35.483,4.956,34.714,3.977z"/>
<path fill="#F2F5F7" d="M34.059,4.318c-0.207-0.346,0.334-0.692,0.559-0.56c0.989,0.579,4.325,3.928,5.031,4.995
	c0.298,0.45-0.289,0.738-0.558,0.563C38.017,8.617,34.646,5.306,34.059,4.318z"/>
<path fill="#7AB51D" d="M19.894,13.205c0.221,0.75,1.997,1.471,2.726,1.184c1.356-0.53,2.425-4.261,1.753-5.553
	c-0.361-0.694-2.293-1.305-2.987-0.943C20.092,8.566,19.341,11.33,19.894,13.205z M23.006,8.766
	c0.448-0.483,1.417,0.411,0.971,0.896C23.528,10.146,22.56,9.251,23.006,8.766z M23.054,13.024c0.378,0.657-0.934,1.414-1.313,0.76
	C21.362,13.127,22.675,12.37,23.054,13.024z M22.456,8.492c0.186,0.663-1.14,1.037-1.329,0.376
	C20.942,8.203,22.268,7.83,22.456,8.492z"/>
<path fill="#E3E6E8" d="M28.363,3.977c0.271-0.342-0.239-0.738-0.494-0.617c-1.123,0.527-5.138,3.756-6.044,4.81
	c-0.284,0.328,0.134,0.81,0.491,0.621C23.55,8.142,27.595,4.956,28.363,3.977z"/>
<path fill="#F2F5F7" d="M29.019,4.318c0.207-0.346-0.334-0.692-0.559-0.56c-0.989,0.579-4.325,3.928-5.031,4.995
	c-0.298,0.45,0.289,0.738,0.558,0.563C25.061,8.617,28.432,5.306,29.019,4.318z"/>
<path fill="#F7C259" d="M22.06,37.999c-3.017,0.345-3.514,1.914-5.166,3.084c0.566,0.357,1.653,6.148,0.192,8.456l3.668,0.312
	c1.644-5.854,2.693-6.304,2.812-8.89C23.606,40.093,23.08,39.207,22.06,37.999z"/>
<path fill="#529320" d="M22.06,37.999c-2.236-3.198-7.075-6.646-7.075-6.646l-4.886,3.914c1.517,4.1,5.196,4.646,7.084,6.019
	C19.021,40.405,20.229,38.81,22.06,37.999z"/>
<path fill="#E6EBEF" d="M17.07,49.209l3.69,0.097l0.185-1.222l-3.612-0.481C17.333,47.602,16.878,48.562,17.07,49.209z"/>
<path fill="#7AB51D" d="M19.472,55.876l-3.144-0.313c-0.46-0.046-0.12-0.773-0.12-0.773s3.115-1.5,12.346,0.39
	C28.554,55.18,26.07,58.264,19.472,55.876z"/>
<path fill="#302C3B" d="M16.767,51.75c-0.399-0.924,0.059-3.642,0.347-3.452c0.553,0.364,2.744,0.475,3.263,0.189
	c-0.396-1.948,1.294-1.599,1.253-1.014c-0.574,8.169,7.657,3.948,6.925,7.706c0,0-4.281,1.931-8.905-0.02l-3.44-0.369
	C15.994,52.72,16.769,51.753,16.767,51.75z"/>
<path fill="#7AB51D" d="M24.008,52.623c-1.58,0.506-1.917,0.185-1.645-0.586c-0.977,0.16-1.18-0.464-0.973-0.898
	c-0.942-0.051-0.886-0.874,0.403-1.183C22.518,49.813,24.433,52.487,24.008,52.623z"/>
<path fill="#F7C259" d="M30.905,32.959c0.158-0.538-0.525-1.094,0.496-1.218c0,0-0.032-0.748,0.4-0.693
	c1.563,0.194,2.005,0.377,2.63,1.355c0.213,0.338,6.03-2.364,8.307-3.038c-1.538-2.682-5.97-10.02-2.715-10.856
	c3.102-0.356,7.879,12.024,6.932,12.601c-4.5,2.732-10.725,2.835-11.938,3.441c-1.696,0.844-3.96,0.833-3.851-0.393
	C31.216,33.607,30.76,33.457,30.905,32.959z"/>
<path fill="#F7C259" d="M17.415,15.019c1.257,10.758,5.113,14.65,6.14,3.327C22.287,17.816,21.092,14.981,17.415,15.019z"/>
<path fill="#FFCC66" d="M18.984,41.876c0,0-2.555-2.089-6.758,0.894c0,0,0.497,1.276,0.449,2.408
	c-4.075,0.455-4.059,2.787-6.675,5.564l3.163,1.738c1.734-3.175,6.829-3.054,9.041-5.294C19.654,45.719,18.984,41.876,18.984,41.876
	z"/>
<path fill="#7AB51D" d="M18.984,41.876c-0.096-1.921,0.49-4.569-1.624-8.445c-1.615-2.958,6.479-3.545,6.479-15.041
	c0,0-0.592-0.813-0.749-0.369c-0.865,2.45-3.547-0.045-4.355-1.926c-0.546-1.268-3.06-2.17-4.832-0.443
	c-4.829,4.701-3.135,10.024-5.473,13.909c-1.387,2.303-1.852,5.188,0.171,7.185c1.504,1.484,2.062,3.709,3.625,6.024
	C14.06,41.936,16.685,41.186,18.984,41.876z"/>
<path fill="#F7C259" d="M12.185,18.442c-2.052,4.553,2.547,6.717,4.763,2.246C19.693,15.147,14.567,13.161,12.185,18.442z"/>
<path fill="#E6EBEF" d="M49.053,54.426l-3.69,0.097l-0.185-1.222l3.612-0.481C48.79,52.819,49.245,53.779,49.053,54.426z"/>
<path fill="#E81C27" d="M46.651,61.093l3.144-0.313c0.46-0.046,0.12-0.773,0.12-0.773s-3.115-1.5-12.346,0.39
	C37.569,60.396,40.053,63.481,46.651,61.093z"/>
<path fill="#302C3B" d="M49.357,56.967c0.399-0.924-0.06-3.642-0.347-3.452c-0.553,0.364-2.744,0.475-3.263,0.19
	c0.396-1.948-1.294-1.599-1.253-1.014c0.574,8.169-7.657,3.948-6.925,7.706c0,0,4.281,1.931,8.905-0.021l3.44-0.369
	C50.129,57.936,49.355,56.97,49.357,56.967z"/>
<path fill="#E81C27" d="M42.115,57.84c1.58,0.506,1.917,0.185,1.645-0.586c0.977,0.16,1.18-0.464,0.973-0.898
	c0.942-0.051,0.886-0.874-0.403-1.183C43.606,55.03,41.691,57.704,42.115,57.84z"/>
<path fill="#F7C259" d="M51.309,41.409c-0.415-1.196,3.314-3.146,0.099-3.578c-2.105-0.283-8.267,1.86-5.397,6.561
	c1.462,1.689,4.842,0.304,8.877,3.591l2.137-2.954C53.359,43.261,54.033,41.653,51.309,41.409z"/>
<path fill="#F7C259" d="M45.663,15.019c-1.258,10.758-5.114,14.65-6.141,3.327C40.79,17.816,41.985,14.981,45.663,15.019z"/>
<path fill="#FFCC66" d="M47.229,43.81c-1.893-1.339-2.815-3.792-6.517-2.309c-1.278,2.423-1.001,3.85-0.596,4.838
	c0.775,1.89,3.348,2.147,5.069,7.175l3.665-0.324c-1.244-3.34-0.906-5.192-2.837-7.134C45.99,45.271,46.374,44.635,47.229,43.81z"/>
<path fill="#E81C27" d="M55.153,30.558c-3.032-4.186-1.15-10.206-5.979-14.907c-1.772-1.727-4.286-0.825-4.832,0.443
	c-0.809,1.881-3.49,4.376-4.355,1.926c-0.157-0.444-0.749,0.369-0.749,0.369c0,10.343,8.958,13.009,6.901,15.108
	c-2.103,2.146-4.072,5.181-5.427,8.004c2.218,0.52,4.675,0.99,6.517,2.309c2.724-1.813,3.195-3.612,5.793-4.604
	C56.621,37.831,57.364,33.61,55.153,30.558z"/>
<path fill="#F7C259" d="M50.893,18.442c2.052,4.553-2.547,6.717-4.763,2.246C43.385,15.147,48.511,13.161,50.893,18.442z"/>
<path fill="#FFCC66" d="M29.825,26.99c-0.342-0.493,0.168-1.287-0.912-1.072c0,0-0.219-0.771-0.64-0.571
	c-1.526,0.722-1.915,1.056-2.222,2.26c-0.104,0.414-6.929-0.387-9.47-0.311c0.667-3.243,2.719-12.193-0.872-11.955
	c-3.276,0.678-3.991,14.872-2.835,15.142c5.494,1.274,11.861-0.706,13.3-0.496c2.008,0.291,4.308-0.479,3.787-1.689
	C29.727,27.755,30.141,27.449,29.825,26.99z"/>
<path fill="#E6EBEF" d="M56.919,45.169l-2.541,2.679l-0.994-0.734l2.214-2.895C55.598,44.219,56.599,44.576,56.919,45.169z"/>
<path fill="#E81C27" d="M59.936,51.582l2.002-2.444c0.293-0.357-0.462-0.632-0.462-0.632s-3.264,1.142-8.454,9.006
	C53.022,57.512,56.959,57.936,59.936,51.582z"/>
<path fill="#302C3B" d="M58.931,46.751c-0.371-0.935-2.617-2.532-2.685-2.195c-0.134,0.648-1.605,2.275-2.174,2.44
	c-1.098-1.657-2.045-0.215-1.603,0.17c6.183,5.37-2.623,8.206,0.553,10.346c0,0,4.393-1.662,6.282-6.313l2.172-2.693
	C60.163,46.89,58.932,46.755,58.931,46.751z"/>
<path fill="#E81C27" d="M54.428,52.489c1.475-0.76,1.486-1.225,0.749-1.577c0.804-0.578,0.506-1.162,0.052-1.323
	c0.631-0.702,0.009-1.244-1.121-0.552C53.495,49.448,54.031,52.693,54.428,52.489z"/>
<path fill="#E6EBEF" d="M5.329,51.623l3.352,1.548l0.652-1.049l-3.127-1.871C6.206,50.251,5.408,50.953,5.329,51.623z"/>
<path fill="#7AB51D" d="M4.899,58.696l-2.764-1.53c-0.404-0.224,0.195-0.758,0.195-0.758s3.455-0.146,11.186,5.24
	C13.516,61.648,10.015,63.5,4.899,58.696z"/>
<path fill="#302C3B" d="M4.046,53.837c-0.001-1.006,1.494-3.321,1.684-3.033c0.363,0.553,2.332,1.521,2.921,1.464
	c0.408-1.946,1.821-0.957,1.553-0.436c-3.759,7.276,5.471,6.654,3.313,9.816c0,0-4.696,0.08-8.172-3.541L2.33,56.408
	C2.952,54.422,4.046,53.84,4.046,53.837z"/>
<path fill="#7AB51D" d="M10.352,57.503c-1.651-0.161-1.834-0.589-1.279-1.189c-0.96-0.238-0.9-0.893-0.538-1.209
	c-0.846-0.42-0.468-1.153,0.838-0.928C10.094,54.333,10.795,57.546,10.352,57.503z"/>
<path fill="#F2F5F7" d="M25.696,19.305c0.281,0.243,0.761-0.217,0.692-0.447c-0.299-1.016-2.661-4.633-3.509-5.449
	c-0.357-0.345-0.793,0.168-0.693,0.446C22.579,14.966,24.896,18.61,25.696,19.305z"/>
<path fill="#FFCC66" d="M45.84,15.409c-3.467,0.966-6.03,2.819-10.114,3.116c-2.047,0.147-10.132,0.04-10.911-0.153
	c-3.042-0.755-6.618-4.467-7.399-3.353c0.084,0.681,2.115,2.191,2.936,3.62c0.625,1.09,2.58,2.17,3.925,1.66
	c0.62-0.235,10.101,2.688,11.35,2.473c4.374-0.758,10.707-1.259,12.339-2.024C52.307,18.721,49.52,14.384,45.84,15.409z"/>
</svg>
