<?xml version="1.0" encoding="utf-8"?>
<!-- Generator: Adobe Illustrator 15.0.0, SVG Export Plug-In . SVG Version: 6.00 Build 0)  -->
<!DOCTYPE svg PUBLIC "-//W3C//DTD SVG 1.1//EN" "http://www.w3.org/Graphics/SVG/1.1/DTD/svg11.dtd" [
	<!ENTITY ns_flows "http://ns.adobe.com/Flows/1.0/">
	<!ENTITY ns_extend "http://ns.adobe.com/Extensibility/1.0/">
	<!ENTITY ns_ai "http://ns.adobe.com/AdobeIllustrator/10.0/">
	<!ENTITY ns_graphs "http://ns.adobe.com/Graphs/1.0/">
]>
<svg version="1.1" id="Layer_1" xmlns:x="&ns_extend;" xmlns:i="&ns_ai;" xmlns:graph="&ns_graphs;"
	 xmlns="http://www.w3.org/2000/svg" xmlns:xlink="http://www.w3.org/1999/xlink" xmlns:a="http://ns.adobe.com/AdobeSVGViewerExtensions/3.0/"
	 x="0px" y="0px" width="64px" height="64px" viewBox="0 0 64 64" enable-background="new 0 0 64 64" xml:space="preserve">
<path fill="#7AB51D" d="M56.831,61.979c0,0,0.854-3.619-1.27-6.747l-0.84-2.48c-0.379-0.005-0.42,0.151-0.42,0.151
	s-0.617,2.431,2.139,8.972C56.44,61.875,56.507,62.06,56.831,61.979z"/>
<path fill="#302C3B" d="M51.925,57.327c1.586,0.332,2.123,5.142,4.516,4.548c0,0,0.826-3.364-1.299-6.491l-0.84-2.48
	C50.204,53.287,50.983,54.764,51.925,57.327z"/>
<path fill="#7AB51D" d="M53.804,59.808c0.576-1.11,0.555-1.753-0.053-1.646c0.242-0.705-0.197-0.935-0.547-0.834
	c0.082-0.706-0.539-0.768-0.932,0.152C52.075,57.999,53.649,60.106,53.804,59.808z"/>
<path fill="#7AB51D" d="M46.612,59.888c0,0-0.352-3.701-3.369-5.993l-1.592-2.086c-0.361,0.115-0.352,0.277-0.352,0.277
	s0.195,2.499,4.906,7.828C46.206,59.914,46.329,60.066,46.612,59.888z"/>
<path fill="#302C3B" d="M40.411,56.957c1.607-0.186,3.721,4.275,5.795,2.957c0,0-0.295-3.45-3.313-5.742L41.3,52.086
	C37.54,53.746,38.692,54.826,40.411,56.957z"/>
<path fill="#7AB51D" d="M43.048,58.786c0.188-1.233-0.039-1.835-0.582-1.543c0.002-0.743-0.486-0.823-0.785-0.617
	c-0.148-0.694-0.76-0.556-0.836,0.438C40.825,57.62,42.995,59.12,43.048,58.786z"/>
<path fill="#FCD5B2" d="M39.839,53.494c-4.814-0.416-5.803-4.188-10.621-3.115c0.299-1.961,0.686-3.286,0.686-3.286
	s-4.793,0.762-6.756,0.813c-0.432,3.611,1.619,6.266,2.336,6.636c1.033,0.534,6.151-0.058,13.698,2.042
	C39.798,56.754,40.157,53.521,39.839,53.494z"/>
<path fill="#F2F5F7" d="M40.169,53.494c-0.211-0.229-1.221-0.267-1.221-0.267s0.785,1.95,0.232,3.355
	c0.359,0.092,0.721,0.185,1.088,0.287C40.884,57.042,40.987,54.387,40.169,53.494z"/>
<path fill="#7AB51D" d="M29.401,49.696c0.125,0.146,0.402,0.419,0.566,0.518c0.469,4.521-1.426,4.89-1.426,4.89
	c-3.69,1.154-5.018-2.496-5.018-2.496C24.668,51.106,27.927,49.886,29.401,49.696z"/>
<path fill="#FCD5B2" d="M51.765,53.823c-5.578-1.869-5.201-4.831-10.498-4.969c-0.391-1.944-1.129-3.343-1.76-4.788
	c-1.926,0.495-3.678,3.295-5.504,4.006c1.381,2.585,2.971,4.845,3.652,5.277c0.98,0.624,5.85,0.727,13.176,3.491
	C51.429,57.066,52.067,53.925,51.765,53.823z"/>
<path fill="#F2F5F7" d="M52.071,53.526c-0.074-0.097-1.133,0-1.133,0c0.443,0.77,0.443,2.884-0.107,3.314
	c0.348,0.124,0.695,0.257,1.057,0.383C52.321,57.376,52.853,54.523,52.071,53.526z"/>
<path fill="#7AB51D" d="M41.099,47.658c0.199,0.852,0.568,0.974,1.488,1.217c-0.395,4.369-2.305,5.223-2.305,5.223
	c-1.842,0-4.012-1.069-4.482-2.764C36.122,50.071,38.3,49.269,41.099,47.658z"/>
<path fill="#302C3B" d="M36.899,37.562H24.573c-0.709,2.857-2.785,6.641-1.857,12.916c1.418,0.677,7.5-2.527,7.5-2.527
	c0.225-2.425,0.475-3.067,1.309-3.487c0.24-0.121,1.395,3.117,2.785,4.659l6.701-3.976L36.899,37.562z"/>
<path fill="#FFE463" d="M40.354,45.536c-0.488,0.368-1.336,0.793-1.336,0.793l-4.793-8.768h1.535L40.354,45.536z"/>
<path fill="#FCD5B2" d="M21.786,28.941c0.508-0.141,2.391-1,4.238-1.871c-0.482-1.184-0.992-2.35-1.543-3.488
	c-1.42,0.88-2.924,1.782-3.848,2.249c-2.459-0.006-4.961,0.63-7.811,0.151c-0.463-0.08-0.666-1.278-2.986-2.078
	c-0.998-0.344-1.053,0.742,0.508,1.385c-0.463,0.918-3.482-1.498-3.34-0.098c0.16,1.553,2.363,2.923,3.041,3.166
	c0.609,0.215,1.926-0.059,2.502-0.029C15.377,28.466,20.889,29.188,21.786,28.941z"/>
<path fill="#FCD5B2" d="M41.987,17.662l2.834-5.514l3.057,1.297c0,0-2.07,5.613-3.145,7.282c-0.822,1.273-4.902,2.854-4.902,2.854
	l-1.438-4.197L41.987,17.662z"/>
<radialGradient id="SVGID_1_" cx="42.7227" cy="5.1807" r="11.5429" gradientTransform="matrix(1.0076 0 0 1 0.1642 0)" gradientUnits="userSpaceOnUse">
	<stop  offset="0" style="stop-color:#9BE022"/>
	<stop  offset="0.3647" style="stop-color:#99DE22"/>
	<stop  offset="0.5757" style="stop-color:#93D522"/>
	<stop  offset="0.7475" style="stop-color:#87C722"/>
	<stop  offset="0.8974" style="stop-color:#78B423"/>
	<stop  offset="1" style="stop-color:#69A123"/>
	<a:midPointStop  offset="0" style="stop-color:#9BE022"/>
	<a:midPointStop  offset="0.8061" style="stop-color:#9BE022"/>
	<a:midPointStop  offset="1" style="stop-color:#69A123"/>
</radialGradient>
<path fill="url(#SVGID_1_)" d="M51.229,2.924c3.355,1.901,4.504,6.11,2.568,9.405c-1.938,3.295-6.223,4.42-9.574,2.519
	c-3.352-1.899-4.504-6.108-2.566-9.402C43.593,2.148,47.88,1.023,51.229,2.924z"/>
<radialGradient id="SVGID_2_" cx="42.7207" cy="5.1807" r="11.5455" gradientTransform="matrix(1.0076 0 0 1 0.1642 0)" gradientUnits="userSpaceOnUse">
	<stop  offset="0" style="stop-color:#FF000E"/>
	<stop  offset="0.2242" style="stop-color:#F8000C"/>
	<stop  offset="0.5531" style="stop-color:#E40008"/>
	<stop  offset="0.9448" style="stop-color:#C40001"/>
	<stop  offset="1" style="stop-color:#BF0000"/>
	<a:midPointStop  offset="0" style="stop-color:#FF000E"/>
	<a:midPointStop  offset="0.6242" style="stop-color:#FF000E"/>
	<a:midPointStop  offset="1" style="stop-color:#BF0000"/>
</radialGradient>
<path fill="url(#SVGID_2_)" d="M51.019,2.817c-4.373,4.961-11.184,5.604-3.611-0.763c0.018-0.015,0.035-0.028,0.051-0.042
	C48.663,1.965,49.89,2.225,51.019,2.817z"/>
<radialGradient id="SVGID_3_" cx="42.7236" cy="5.1802" r="11.5425" gradientTransform="matrix(1.0076 0 0 1 0.1642 0)" gradientUnits="userSpaceOnUse">
	<stop  offset="0" style="stop-color:#FF000E"/>
	<stop  offset="0.2242" style="stop-color:#F8000C"/>
	<stop  offset="0.5531" style="stop-color:#E40008"/>
	<stop  offset="0.9448" style="stop-color:#C40001"/>
	<stop  offset="1" style="stop-color:#BF0000"/>
	<a:midPointStop  offset="0" style="stop-color:#FF000E"/>
	<a:midPointStop  offset="0.6242" style="stop-color:#FF000E"/>
	<a:midPointStop  offset="1" style="stop-color:#BF0000"/>
</radialGradient>
<path fill="url(#SVGID_3_)" d="M50.249,15.307c-3.484-9.078,1.418-11.146,2.576-1.702C52.091,14.368,51.21,14.944,50.249,15.307z"/>
<radialGradient id="SVGID_4_" cx="42.7236" cy="5.1802" r="11.5437" gradientTransform="matrix(1.0076 0 0 1 0.1642 0)" gradientUnits="userSpaceOnUse">
	<stop  offset="0" style="stop-color:#FF000E"/>
	<stop  offset="0.2242" style="stop-color:#F8000C"/>
	<stop  offset="0.5531" style="stop-color:#E40008"/>
	<stop  offset="0.9448" style="stop-color:#C40001"/>
	<stop  offset="1" style="stop-color:#BF0000"/>
	<a:midPointStop  offset="0" style="stop-color:#FF000E"/>
	<a:midPointStop  offset="0.6242" style="stop-color:#FF000E"/>
	<a:midPointStop  offset="1" style="stop-color:#BF0000"/>
</radialGradient>
<path fill="url(#SVGID_4_)" d="M40.753,8.256c7.998,1.856,7.854,6.111,0.529,3.317C40.833,10.532,40.646,9.392,40.753,8.256z"/>
<path fill="#7AB51D" d="M40.505,23.407c-1.193-0.799-1.787-4.355-1.787-4.355c-7.102,2.152-11.801,2.152-16.942,5.297l2.381,4.251
	c0.297-0.15,0.596-0.314,0.891-0.481c-0.799,4.472-0.818,10.133-0.818,10.133l12.895-0.604c0,0-2.252-5.714-0.877-10.513
	C36.595,25.928,40.505,23.407,40.505,23.407z"/>
<path fill="#FFE463" d="M35.073,20.042c-0.988,0.094-1.518,0.359-1.518,0.359c-1.619,8.228-0.244,17.425-0.244,17.425h1.641
	C34.952,37.826,33.521,28.274,35.073,20.042z"/>
<path fill="#DBA97F" d="M26.973,19.926c1.792-0.8,1.522,3.985,1.52,4.396c0,0,1.568-2.538,5.063-3.921c0,0,0.008-1.551-0.23-3.979
	C33.499,9.732,26.973,19.926,26.973,19.926z"/>
<path fill="#FCD5B2" d="M23.051,8.456c-0.371,0.97-0.326,1.778-0.113,2.682c0.332,1.392-0.289,2.106-1.322,3.111
	c-0.982,0.952,0.158,1.727,1.232,1.673c0.227,0.313,0.162,0.829,0.162,0.829s0.822,0.619,0.168,1.803
	c0.871,0.81-0.615,2.322,1.51,2.317c2.074-0.006,4.774-1.655,5.235-2.126c0.725-0.743,0.92-2.983,0.92-2.983
	c0.881,1.185,3.076-0.985,3.082-3.527C33.937,8.017,30.302,2.375,23.051,8.456z"/>
<path fill="#DBA97F" d="M30.821,13.056c-0.041-1.006,0.75-1.914,1.578-1.95c0,0-1.373,1.254-0.949,2.857
	C31.45,13.963,30.845,13.758,30.821,13.056z"/>
<path fill="#F5F5F5" d="M26.51,12.794c-0.557,0.603-1.898,0.913-2.338,0.811C23.192,10.369,25.842,11.423,26.51,12.794z"/>
<path fill="#45332C" d="M24.223,13.616c1.268-0.004,0.658-3.401-0.256-1.592C23.911,12.344,23.965,13.617,24.223,13.616z"/>
<path fill="#DBA97F" d="M26.51,12.794c-0.309-1.265-2.465-2.233-2.543-0.771C24.334,11.243,25.868,11.794,26.51,12.794z"/>
<path fill="#F5F5F5" d="M24.352,12.071c-0.002,0.31,0.445,0.309,0.447-0.001C24.799,11.785,24.352,11.784,24.352,12.071z"/>
<path fill="#CC9D76" d="M26.678,10.654c-0.877-0.646-2.566-0.674-3.195-0.22c-0.137,0.087-0.049,0.701,0.063,0.643
	c0.881-0.482,2.293-0.497,3.115,0.034C26.766,11.178,26.813,10.744,26.678,10.654z"/>
<path fill="#CC9D76" d="M23.045,17.206c0.4,0.258,0.086,0.681,0.086,0.681c-0.195,0.001-0.242,0.669,0.047,0.667
	c1.432-0.004,1.979-0.939,2.365-1.462C23.969,17.01,22.397,16.227,23.045,17.206z"/>
<path fill="#FFFFFF" d="M23.045,17.206c0,0,0.014,0.591,0.086,0.681c0.314-0.001,1.477-0.255,2.109-0.688L23.045,17.206z"/>
<path fill="#3A2C29" d="M36.003,6.568c-0.93-1.686-2.877-2.78-6.297-2.771c-3.151,0.007-5.055,1.054-5.875,0.657
	c0,0-0.168,0.521,0.037,0.964c-0.436,0.021-0.695-0.267-0.697-0.261c-0.303,0.493-0.828,1.774-0.119,3.298
	c4.987-1.868,5.278-0.122,6.415,1.266c0.262,0.321-0.563,1.761,0.744,3.212c0.283-3.229,4.094-2.937,3.646-0.143
	c-0.285,1.79-1.09,2.545-1.529,2.958c0.723,0.22,1.043,1.063,1.043,1.063C36.927,16.801,38.204,8.239,36.003,6.568z"/>
<path fill="#DBA97F" d="M23.782,15.359c-0.15,0.442-0.801,0.581-1.188,0.582c-0.52,0.002-1.018-0.25-1.244-0.615
	C21.547,14.88,22.672,15.976,23.782,15.359z"/>
</svg>
