<?xml version="1.0" encoding="utf-8"?>
<!-- Generator: Adobe Illustrator 19.0.0, SVG Export Plug-In . SVG Version: 6.00 Build 0)  -->
<svg version="1.1" id="Layer_1" xmlns="http://www.w3.org/2000/svg" xmlns:xlink="http://www.w3.org/1999/xlink" x="0px" y="0px"
	 width="64px" height="64px" viewBox="0 0 64 64" enable-background="new 0 0 64 64" xml:space="preserve">
<path fill="#40281F" d="M20.678,17.701C19.236,44.23,19.682,43.59,32.182,41.385C24.412,37.766,34.055,14.985,20.678,17.701z"/>
<path fill="#4A2E24" d="M18.469,17.684c-0.92,20.125,3.695,24.439,7.191,24.852l3.803-0.67
	C19.457,37.166,29.941,15.268,18.469,17.684z"/>
<path fill="#40281F" d="M38.147,14.619c10.43,24.438,9.791,23.988-2.707,26.191C41.115,35.807,24.649,16.643,38.147,14.619z"/>
<path fill="#4A2E24" d="M40.217,13.848c9.439,16.498,4.311,24.52,1.742,25.815l-3.803,0.67C46.043,33.002,28.611,15.5,40.217,13.848
	z"/>
<path fill="#614036" d="M42.941,23.127c2.621,4.154,2.43,13.666-0.982,16.535c4.211-0.744,5.746-7.02,5.584-15.256
	C47.338,14.118,38.264,15.711,42.941,23.127z"/>
<path fill="#614036" d="M15.996,31.887c2.807,6.961,5.531,11.377,9.664,10.648c-5.447-3.957-6.68-14.109-5.813-16.844
	C25.822,20.543,11.242,20.11,15.996,31.887z"/>
<rect x="9.137" y="29.356" fill="#916B50" width="4.584" height="2.133"/>
<path fill="#916B50" d="M57.066,24.258c0.879-1.533-0.441-2.51-2.525,0.176c-1.609,2.072-7.045,5.795-3.119,6.732
	c2.797,0.668,9.613-4.387,10.465-9.473C62.662,17.073,59.281,23.262,57.066,24.258z"/>
<path fill="#916B50" d="M6.934,24.258c-0.879-1.533,0.441-2.51,2.523,0.176c1.609,2.072,7.045,5.795,3.119,6.732
	c-2.795,0.668-9.613-4.387-10.463-9.473C1.338,17.073,4.717,23.262,6.934,24.258z"/>
<rect x="50.639" y="29.356" fill="#916B50" width="4.584" height="2.133"/>
<path fill="#8E3ED6" d="M55.764,31.076h-5.709l0.205,13.142c0,0-1.922-3.753-5.027-6.298c-4.744-3.885-8.332-1.334-13.053-1.334
	s-8.309-2.551-13.053,1.334c-3.108,2.545-5.029,6.298-5.029,6.298l0.207-13.142H8.594c0,0-0.734,15.769-0.457,21.017
	c0.258,4.848,3.916,6.688,11.459-3.385c0.832,7.063,0.416,13.291,0.416,13.291H32.18l0,0h12.166c0,0-0.416-6.229,0.418-13.291
	c7.541,10.072,11.199,8.232,11.459,3.385C56.5,46.845,55.764,31.076,55.764,31.076z"/>
<polygon fill="#732EB0" points="15.906,41.383 14.109,43.457 14.008,48.216 "/>
<polygon fill="#732EB0" points="48.453,41.383 50.25,43.457 50.352,48.216 "/>
<path fill="#755035" d="M27.5,36.914c0,5.004,9,5.004,9,0v-5.189h-9V36.914z"/>
<path fill="#916B50" d="M28.406,10.022c-7.912,1.396-10.584,8.512-8.649,16.711c0.391,1.648,1.277,3.969,2.211,5.926
	c1.941,4.068,8.963,7.272,11.629,6.803c2.664-0.471,8.166-5.881,8.598-10.369c0.211-2.16,0.25-4.643,0.055-6.326
	C41.264,14.399,36.318,8.627,28.406,10.022z"/>
<path fill="#423225" d="M39.19,20.201c-1.969-0.746-5.189-0.314-6.328,0.635c-0.24,0.193-0.033,0.947,0.182,0.813
	c1.672-1.07,4.412-1.592,6.26-1.021C39.551,20.7,39.488,20.309,39.19,20.201z"/>
<path fill="#423225" d="M21.754,23.276c1.596-1.375,4.77-2.07,6.164-1.568c0.295,0.1,0.357,0.879,0.107,0.826
	c-1.938-0.436-4.691,0.012-6.23,1.18C21.586,23.868,21.512,23.479,21.754,23.276z"/>
<path fill="#755035" d="M34.334,29.305c0.281,1.596-4.623,2.461-4.904,0.865C29.365,29.803,34.27,28.938,34.334,29.305z"/>
<path fill="#FFFFFF" d="M39.588,23.469c-0.568,2.951-4.939,3.305-6.068,1.51C33.568,21.76,38.486,20.618,39.588,23.469z"/>
<path fill="#613F34" d="M34.469,24.063c0.432,2.449,3.976,1.824,3.545-0.625C37.611,21.162,34.068,21.787,34.469,24.063z"/>
<path fill="#7D5037" d="M34.957,24.784c0.248,1.406,3.092,0.904,2.844-0.502C37.57,22.979,34.727,23.481,34.957,24.784z"/>
<path fill="#1A1626" d="M35.512,23.918c0.18,1.018,1.65,0.758,1.471-0.26C36.816,22.715,35.346,22.975,35.512,23.918z"/>
<path fill="#AB968C" d="M34.957,23.709c0.092,0.514,0.834,0.383,0.744-0.131C35.617,23.102,34.873,23.233,34.957,23.709z"/>
<path fill="#45332C" d="M39.584,23.448c-0.523-2.973-6.666-1.889-6.061,1.555C33.902,22.022,38.293,21.246,39.584,23.448z"/>
<path fill="#FFFFFF" d="M22.496,26.483c1.547,2.578,5.775,1.416,6.221-0.658C27.57,22.817,22.559,23.426,22.496,26.483z"/>
<path fill="#613F34" d="M23.969,25.918c0.432,2.449,3.975,1.824,3.543-0.625C27.109,23.018,23.568,23.643,23.969,25.918z"/>
<path fill="#7D5037" d="M24.457,26.639c0.246,1.406,3.09,0.904,2.844-0.5C27.07,24.834,24.227,25.336,24.457,26.639z"/>
<path fill="#1A1626" d="M25.012,25.774c0.18,1.018,1.65,0.758,1.471-0.26C26.316,24.569,24.844,24.828,25.012,25.774z"/>
<path fill="#AB968C" d="M24.457,25.565c0.09,0.514,0.834,0.383,0.742-0.131C25.115,24.957,24.373,25.088,24.457,25.565z"/>
<path fill="#45332C" d="M22.492,26.461c-0.523-2.973,5.621-4.057,6.229-0.615C27.348,23.176,22.955,23.95,22.492,26.461z"/>
<path fill="#614036" d="M37.449,9.618c-4.545,6.662,0.814,6.094,5.492,13.51c2.621,4.154,4.764,9.516,4.602,1.279
	C47.338,14.118,40.121,8.284,37.449,9.618z"/>
<path fill="#614036" d="M23.449,9.84c-6.744,2.897-12.207,10.269-7.453,22.047c2.807,6.961,2.984-3.461,3.852-6.195
	c5.975-5.149,16.854-10.168,17.602-16.074C38.102,8.168,30.162,6.754,23.449,9.84z"/>
<path fill="#4A2E24" d="M19.629,19.701c2.869-1.127,17.051-3.92,17.82-10.084C34.561,12.889,31.203,14.233,19.629,19.701z"/>
<path fill="#4A2E24" d="M16.141,29.909c3.816-7.541,20.295-9.69,21.309-20.291C33.516,19.059,16.375,23.264,16.141,29.909z"/>
<path fill="#4A2E24" d="M36.049,11.291c-0.93,2.258,3.02-1.512,10.149,10.707C43.66,14.567,38.656,10.026,36.049,11.291z"/>
<path fill="#664129" d="M35.656,33.143c-1.664,0.266-4.031,0.416-5.951,0.258c-0.725-0.059-0.91,0.939-0.152,1.037
	c2.135,0.275,4.594,0.059,6.326-0.73C36.299,33.516,36.059,33.078,35.656,33.143z"/>
</svg>
