<?xml version="1.0" encoding="utf-8"?>
<!-- Generator: Adobe Illustrator 15.0.0, SVG Export Plug-In . SVG Version: 6.00 Build 0)  -->
<!DOCTYPE svg PUBLIC "-//W3C//DTD SVG 1.1//EN" "http://www.w3.org/Graphics/SVG/1.1/DTD/svg11.dtd" [
	<!ENTITY ns_flows "http://ns.adobe.com/Flows/1.0/">
	<!ENTITY ns_extend "http://ns.adobe.com/Extensibility/1.0/">
	<!ENTITY ns_ai "http://ns.adobe.com/AdobeIllustrator/10.0/">
	<!ENTITY ns_graphs "http://ns.adobe.com/Graphs/1.0/">
]>
<svg version="1.1" id="Layer_1" xmlns:x="&ns_extend;" xmlns:i="&ns_ai;" xmlns:graph="&ns_graphs;"
	 xmlns="http://www.w3.org/2000/svg" xmlns:xlink="http://www.w3.org/1999/xlink" xmlns:a="http://ns.adobe.com/AdobeSVGViewerExtensions/3.0/"
	 x="0px" y="0px" width="64px" height="64px" viewBox="0 0 64 64" enable-background="new 0 0 64 64" xml:space="preserve">
<path fill="#E3C19B" d="M9.463,50.943c5.502-4.255,4.793-6.424,8.125-9.574c2.859-4.865,2.172-10.081,7.063-11.891
	c3.099,3.214,0.041,8.147-2.27,11.161c-0.531,3.411-4.816,7.951-8.168,10.889C9.102,56.007,6.119,53.531,9.463,50.943z"/>
<path fill="#E3C19B" d="M49.893,15.437c-1.85,4.166-3.143,5.82-4.086,8.034c-3.313,1.643-4.654,0.747-7.875,2.177
	c-7.077,3.482-1.635,16.046,0.375,11.372c0.637-6.664,4.74-6.643,10.242-9.606c1.529-0.823,4.164-11.031,4.164-11.031
	S50.193,14.757,49.893,15.437z"/>
<path fill="#8E3ED6" d="M37.932,25.647c-9.047,1.578-13.281,3.831-13.281,3.831c-1.043,4.659-5.902,8.715-2.301,12.653
	c1.209,1.32,0.652,5.437-0.73,9.886l14.012-1.991c0.328-5.843,2.836-5.505,2.676-13.007C36.832,38.398,33.98,28.973,37.932,25.647z"
	/>
<path fill="#D6A67A" d="M26.201,26.693c2.199-0.469,1.558,1.482,1.345,2.57c-0.584,2.969,6.42,0.46,6.417-1.991
	c-0.002-1.251-0.141-1.756-0.217-3.033C34.279,15.516,26.201,26.693,26.201,26.693z"/>
<path fill="#E3C19B" d="M20.674,12.379c-0.51,1.212-0.672,2.372-0.424,3.53c0.379,1.783-0.443,2.658-1.811,3.877
	c-1.301,1.154,0.145,2.198,1.531,2.188c0.285,0.408,0.049,0.814,0.049,0.814c1.111,0.965,1.084,2.447,0.574,2.851
	c0,0,0.342,0.175,0.275,0.811c-0.186,1.819,0.941,2.372,3.648,1.493c5.341-1.737,5.775-5.74,5.775-5.74
	c1.092,1.549,4.377-1.093,4.467-4.315C34.924,12.537,30.234,5.055,20.674,12.379z"/>
<path fill="#F5F5F5" d="M24.471,18.274c-0.699,0.809-2.42,1.262-2.994,1.146C20.084,15.233,23.555,16.511,24.471,18.274z"/>
<path fill="#45332C" d="M21.541,19.432c1.643-0.054,0.725-4.463-0.389-2.065C21.092,17.784,21.211,19.442,21.541,19.432z"/>
<path fill="#45332C" d="M24.471,18.274c-0.443-1.639-3.275-2.819-3.318-0.908C21.6,16.331,23.604,16.993,24.471,18.274z"/>
<path fill="#F5F5F5" d="M21.65,17.411c0.01,0.404,0.588,0.387,0.58-0.018C22.219,17.021,21.639,17.039,21.65,17.411z"/>
<path fill="#594640" d="M24.893,15.695c-1.107-0.878-3.375-0.806-4.205-0.24c-0.184,0.109-0.004,0.743,0.137,0.653
	c0.93-0.595,2.695-0.781,4.033-0.145C25.006,16.032,25.064,15.819,24.893,15.695z"/>
<path fill="#C97E55" d="M20.504,23.614c0.504,0.348,0,0.925,0,0.925c-0.457-0.018-0.461,1.225,0.09,1.1
	c1.604-0.37,3.012-1.563,3.068-2.036c-0.316,0.012-2.721-0.08-3.643-0.814C20.02,22.788,19.932,23.291,20.504,23.614z"/>
<path fill="#FFFFFF" d="M20.504,23.614v0.925c0.403,0.016,1.934-0.302,2.764-0.815C23.268,23.724,21.486,23.956,20.504,23.614z"/>
<path fill="#D6A67A" d="M21.195,21.31c-0.213,0.554-1.053,0.692-1.555,0.675c-0.668-0.025-1.303-0.372-1.584-0.849
	C18.326,20.581,19.741,22.034,21.195,21.31z"/>
<path fill="#8E3ED6" d="M20.674,12.379c0,0,9.265-0.274,13.072,11.86l4.592-10.838C35.811,3.872,22.23,5.229,20.674,12.379z"/>
<path fill="#792CBF" d="M38.338,13.401c-2.711,1.602-3.58,4.846-3.58,4.846c-2.221-2.098-4.62-0.879-4.62-0.879
	s2.236,2.398,3.608,6.871C36.926,22.622,39.607,18.122,38.338,13.401z"/>
<path fill="#8E3ED6" d="M34.369,19.526c0.051,3.788-5.584,4.273-5.637,0.482C28.677,16.218,34.313,15.732,34.369,19.526z"/>
<path fill="#48C2F9" d="M2,62h60V49.164c-32.495-0.939-42.373,3.053-60,1.003V62z"/>
<path fill="#7ED2FC" d="M62,54.823c-22.666-0.26-39.188,2.21-60,1.5V62h60V54.823z"/>
<path fill="#792CBF" d="M35.281,38.049c0.621,2.853-3.292,5.478-5.444,3.817C31.865,42.046,34.422,39.709,35.281,38.049z"/>
<radialGradient id="SVGID_1_" cx="53.7734" cy="8.4414" r="8.01" gradientTransform="matrix(0.9987 0 0 1 -0.5357 0)" gradientUnits="userSpaceOnUse">
	<stop  offset="0" style="stop-color:#FAE803"/>
	<stop  offset="0.2582" style="stop-color:#FAE103"/>
	<stop  offset="0.636" style="stop-color:#FACD03"/>
	<stop  offset="1" style="stop-color:#FAB403"/>
	<a:midPointStop  offset="0" style="stop-color:#FAE803"/>
	<a:midPointStop  offset="0.6242" style="stop-color:#FAE803"/>
	<a:midPointStop  offset="1" style="stop-color:#FAB403"/>
</radialGradient>
<ellipse fill="url(#SVGID_1_)" cx="54" cy="10.01" rx="8" ry="8.01"/>
<path fill="#302C3B" d="M61.111,6.792c-0.531-0.748-1.07-1.196-1.395-1.425c0.074-0.267,0.129-0.531,0.158-0.791
	c-0.098-0.108-0.199-0.212-0.303-0.312c-0.102,2.291-2.508,5.159-3.305,6.109c-0.043,0.051-0.08,0.096-0.115,0.137
	c-0.965-0.234-2.119-0.488-3.303-0.736c0.852-2.914,2.455-6.189,4.205-7.168c-0.127-0.054-0.256-0.103-0.385-0.148
	c-1.854,1.227-3.363,4.575-4.143,7.25c-1.326-0.276-2.668-0.541-3.795-0.76c0.121-1.243,0.5-2.636,1.02-3.754
	c0.707-1.521,1.682-2.578,2.824-3.068c-0.387,0.07-0.762,0.167-1.125,0.289c-0.787,0.607-1.467,1.502-1.998,2.643
	c-0.529,1.14-0.914,2.557-1.045,3.828C47.9,8.787,47.445,8.7,47.064,8.628c-0.143-0.028-0.273-0.053-0.393-0.075
	c-0.045-0.515-0.039-1.731,0.756-3.108c-0.463,0.665-0.826,1.402-1.07,2.191c-0.047,0.439-0.029,0.791-0.006,1.018
	c-0.123,0.209-0.234,0.469-0.33,0.767C46.008,9.616,46,9.812,46,10.011c0,0.375,0.025,0.746,0.076,1.108
	c0.018-0.921,0.244-1.734,0.531-2.247c0.119,0.023,0.252,0.049,0.395,0.074c2.07,0.397,6.355,1.217,9.078,1.884
	c0.305,1.075,0.545,2.054,0.715,2.915c-1.441,0.444-3.811,0.489-5.963,0.105c-2.465-0.438-4.172-1.323-4.709-2.436
	c0.049,0.285,0.115,0.563,0.195,0.836c0.336,0.354,0.789,0.674,1.355,0.959c0.828,0.416,1.902,0.749,3.1,0.962
	c0.992,0.177,2.031,0.265,3.01,0.265c1.174,0,2.26-0.125,3.074-0.37c0.189,1.036,0.275,1.89,0.252,2.519
	c-1.07,0.577-2.721,0.883-4.342,0.799c-1.307-0.065-2.486-0.369-3.445-0.875c0.568,0.41,1.191,0.747,1.855,0.998
	c0.5,0.107,1.025,0.176,1.574,0.203c0.178,0.01,0.357,0.014,0.537,0.014c1.406,0,2.793-0.275,3.785-0.756
	c-0.027,0.195-0.068,0.359-0.127,0.492c0.135-0.055,0.268-0.112,0.398-0.173c0.357-1.479-0.41-4.645-0.951-6.556
	c0.037-0.043,0.078-0.094,0.125-0.15c0.387-0.459,1.043-1.241,1.676-2.174c1.107,1.395,2.957,3.854,2.002,6.668
	c0.186-0.229,0.357-0.465,0.518-0.711c0.182-1.072,0.027-2.189-0.467-3.335c-0.521-1.21-1.318-2.224-1.863-2.909
	c0.49-0.754,0.947-1.588,1.229-2.424c0.291,0.217,0.768,0.63,1.232,1.284c0.541,0.758,0.922,1.632,1.143,2.601
	c-0.035-0.652-0.146-1.283-0.328-1.884C61.5,7.38,61.316,7.079,61.111,6.792z"/>
</svg>
