<?xml version="1.0" encoding="utf-8"?>
<!-- Generator: Adobe Illustrator 15.0.0, SVG Export Plug-In . SVG Version: 6.00 Build 0)  -->
<!DOCTYPE svg PUBLIC "-//W3C//DTD SVG 1.1//EN" "http://www.w3.org/Graphics/SVG/1.1/DTD/svg11.dtd" [
	<!ENTITY ns_flows "http://ns.adobe.com/Flows/1.0/">
	<!ENTITY ns_extend "http://ns.adobe.com/Extensibility/1.0/">
	<!ENTITY ns_ai "http://ns.adobe.com/AdobeIllustrator/10.0/">
	<!ENTITY ns_graphs "http://ns.adobe.com/Graphs/1.0/">
]>
<svg version="1.1" id="Layer_1" xmlns:x="&ns_extend;" xmlns:i="&ns_ai;" xmlns:graph="&ns_graphs;"
	 xmlns="http://www.w3.org/2000/svg" xmlns:xlink="http://www.w3.org/1999/xlink" xmlns:a="http://ns.adobe.com/AdobeSVGViewerExtensions/3.0/"
	 x="0px" y="0px" width="64px" height="64px" viewBox="0 0 64 64" enable-background="new 0 0 64 64" xml:space="preserve">
<path fill="#261A17" d="M20.827,8.132c-9.936,23.045-9.324,22.621,2.582,24.697C17.634,27.114,33.692,10.038,20.827,8.132z"/>
<path fill="#1E1513" d="M18.854,7.405c-7.377,17.539-4.648,22.848-1.656,24.34l3.621,0.633C13.397,24.985,29.911,8.962,18.854,7.405
	z"/>
<path fill="#261A17" d="M37.472,11.032c1.375,25.025,0.947,24.418-10.957,22.34C33.228,30.769,24.729,8.474,37.472,11.032z"/>
<path fill="#1E1513" d="M39.579,11.021c3.078,17.662-4.129,23.115-6.852,23.436l-3.623-0.633
	C38.554,29.874,28.651,8.741,39.579,11.021z"/>
<path fill="#3A2C29" d="M38.995,20.116c0.994,4.533-2.279,12.895-6.268,14.34c4.008,0.699,7.436-4.363,9.967-11.717
	C45.868,13.558,37.224,12.04,38.995,20.116z"/>
<path fill="#3A2C29" d="M12.017,19.192c0.244,7.076,1.242,11.865,5.182,12.553c-3.586-5.26-1.385-14.658,0.289-16.801
	C24.507,12.308,11.601,7.224,12.017,19.192z"/>
<path fill="#732EB0" d="M30.249,59.657c15.232-2.551,19.855-4.963,20.705-7.652C51.614,49.927,46.315,39.478,30.249,59.657z"/>
<path fill="#FCD5B2" d="M21.614,25.765c0.311,3.541-0.223,4.676-0.223,4.676c-2.795,1.008,6.164,18.09,19.287,20.174
	c10.775-6.238-2.324-16.129-3.318-16.988c-1.654-1.426-3.793-1.555-6.967-2.209c-1.33-0.271-1.754-2.549-1.727-5.652H21.614z"/>
<linearGradient id="SVGID_1_" gradientUnits="userSpaceOnUse" x1="39.6826" y1="44.0186" x2="36.4459" y2="38.3544">
	<stop  offset="0" style="stop-color:#DBA97F"/>
	<stop  offset="0.1155" style="stop-color:#E0AF86"/>
	<stop  offset="0.6844" style="stop-color:#F4CBA6"/>
	<stop  offset="1" style="stop-color:#FCD5B2"/>
	<a:midPointStop  offset="0" style="stop-color:#DBA97F"/>
	<a:midPointStop  offset="0.4242" style="stop-color:#DBA97F"/>
	<a:midPointStop  offset="1" style="stop-color:#FCD5B2"/>
</linearGradient>
<path fill="url(#SVGID_1_)" d="M30.835,38.769c4.182,2.143,5.787,5.07,5.502,7.455c3.416,0.471,6.369-0.029,7.482-5.031
	c-0.693-2.223-3.74-3.773-5.803-4.953C34.579,34.688,30.255,34.665,30.835,38.769z"/>
<linearGradient id="SVGID_2_" gradientUnits="userSpaceOnUse" x1="31.4854" y1="52.583" x2="30.1103" y2="37.9995">
	<stop  offset="0" style="stop-color:#5D1E96"/>
	<stop  offset="0.1931" style="stop-color:#6C28AA"/>
	<stop  offset="0.4943" style="stop-color:#7F34C2"/>
	<stop  offset="0.7714" style="stop-color:#8A3BD1"/>
	<stop  offset="1" style="stop-color:#8E3ED6"/>
	<a:midPointStop  offset="0" style="stop-color:#5D1E96"/>
	<a:midPointStop  offset="0.3333" style="stop-color:#5D1E96"/>
	<a:midPointStop  offset="1" style="stop-color:#8E3ED6"/>
</linearGradient>
<path fill="url(#SVGID_2_)" d="M21.392,30.44c-11.773,3.271-5.174,13.684,2.203,27.873c11.043-1.236,19.945-3.492,21.83-7.727
	c2.865-6.43-4.254-13.629-5.094-14.648c-3.766-4.582-8.152-4.479-9.803-4.494c3.359,1.023,6.184,4.125,7.875,5.023
	c9.709,5.158,4.875,7.662-2.533,11.402C26.058,44.765,22.112,34.95,21.392,30.44z"/>
<linearGradient id="SVGID_3_" gradientUnits="userSpaceOnUse" x1="39.752" y1="45.6504" x2="51.1299" y2="45.6504">
	<stop  offset="0" style="stop-color:#E635DE"/>
	<stop  offset="0.1777" style="stop-color:#DA30D3"/>
	<stop  offset="0.4992" style="stop-color:#BA24B4"/>
	<stop  offset="0.925" style="stop-color:#871083"/>
	<stop  offset="1" style="stop-color:#7D0C7A"/>
	<a:midPointStop  offset="0" style="stop-color:#E635DE"/>
	<a:midPointStop  offset="0.5758" style="stop-color:#E635DE"/>
	<a:midPointStop  offset="1" style="stop-color:#7D0C7A"/>
</linearGradient>
<path fill="url(#SVGID_3_)" d="M51.128,47.284c0.158-9.055-11.707-7.588-11.369-0.738C43.88,54.657,51.128,47.284,51.128,47.284z"/>
<linearGradient id="SVGID_4_" gradientUnits="userSpaceOnUse" x1="35.7598" y1="54.6816" x2="34.2912" y2="46.6199">
	<stop  offset="0" style="stop-color:#018BC9"/>
	<stop  offset="0.3755" style="stop-color:#0597CC"/>
	<stop  offset="1" style="stop-color:#0FB4D4"/>
	<a:midPointStop  offset="0" style="stop-color:#018BC9"/>
	<a:midPointStop  offset="0.5758" style="stop-color:#018BC9"/>
	<a:midPointStop  offset="1" style="stop-color:#0FB4D4"/>
</linearGradient>
<path fill="url(#SVGID_4_)" d="M47.878,50.542c0.162-9.057-23.189-3.877-25.004,4.6C26.993,63.251,47.878,50.542,47.878,50.542z"/>
<path fill="#FCD5B2" d="M51.731,45.354c-0.047-1.094-0.941-1.984-1.467-1.836c-0.721,2.357-4.256,5.273-5.287,4.445
	c-1.199-0.959-0.168-4.129-1.338-3.18c-1.158,0.938-0.152,6.188-1.076,6.479c-1.137,1.041,2.078,3.559,2.693,3.479
	C51.483,50.54,52.628,48.587,51.731,45.354z"/>
<path fill="#8E3ED6" d="M42.458,51.001c-7.717,2.416-10.469,2.133-17.768,4.453c-5.41-19.738-6.307-23.799-7.422-23.068
	c-9.701,6.363,1.807,27.73,4.121,29.008c2.994,1.656,13.127,0.055,24.051-6.518C45.815,53.397,43.382,50.712,42.458,51.001z"/>
<path fill="#DBA97F" d="M21.048,28.171c3.391,5.795,4.254,5.941,9.438,1.645L21.048,28.171z"/>
<path fill="#FCD5B2" d="M30.251,3.821c-7.537-1.314-12.25,4.121-13.189,12.016c-0.189,1.588-0.148,3.932,0.051,5.963
	c0.408,4.234,5.654,9.336,8.191,9.779c2.543,0.443,9.225-2.576,11.08-6.416c0.887-1.842,1.732-4.031,2.107-5.586
	C40.335,11.841,37.788,5.138,30.251,3.821z"/>
<path fill="#D88D56" d="M26.454,25.138c-1.691-1.117-1.844-0.354-4.707-0.662c0.854,1.381,1.361,3.049,4.193,3.543
	c3.248,0.568,4.104-1.078,5.162-1.91C28.304,25.427,28.425,24.659,26.454,25.138z"/>
<path fill="#FFFFFF" d="M22.544,24.921c1.508,2.225,5.498,2.896,7.654,1.338C27.3,26.067,25.341,25.724,22.544,24.921z"/>
<path fill="#594640" d="M36.589,16.319c-1.521-1.299-4.543-1.951-5.873-1.479c-0.277,0.088-0.338,0.828-0.1,0.775
	c1.844-0.41,4.469,0.012,5.938,1.115C36.751,16.878,36.821,16.507,36.589,16.319z"/>
<path fill="#594640" d="M19.978,13.421c1.875-0.707,4.941-0.299,6.031,0.598c0.229,0.178,0.031,0.893-0.176,0.764
	c-1.592-1.01-4.205-1.504-5.963-0.961C19.632,13.89,19.692,13.517,19.978,13.421z"/>
<path fill="#DBA97F" d="M29.274,22.817c-0.268,1.508-4.939,0.693-4.67-0.814C24.667,21.653,29.337,22.47,29.274,22.817z"/>
<path fill="#3A2C29" d="M38.478,6.374c-6.242,4.438-1.254,5.666,0.518,13.742c0.994,4.533,1.168,9.977,3.699,2.623
	C45.868,13.558,41.302,6.056,38.478,6.374z"/>
<path fill="#3A2C29" d="M25.872,2.058C18.89,2.45,11.601,7.224,12.017,19.192c0.244,7.076,3.797-2.105,5.471-4.248
	c7.02-2.637,18.396-3.576,20.99-8.57C39.532,5.302,32.888,1.489,25.872,2.058z"/>
<path fill="#1E1513" d="M19.239,9.565c2.939-0.074,16.539,2.023,19.238-3.191C34.823,8.343,31.384,8.454,19.239,9.565z"/>
<path fill="#1E1513" d="M12.79,17.485c5.873-5.455,21.326-2.043,25.688-11.111C31.88,13.474,15.163,11.671,12.79,17.485z"/>
<path fill="#1E1513" d="M36.683,7.407c-1.57,1.705,3.193-0.365,5.594,12.764C42.429,12.767,39.425,7.128,36.683,7.407z"/>
<path fill="#45332C" d="M25.298,17.772c-1.559,0.639-3.736,0.26-4.98-0.871c-0.188-0.174-0.342-0.049-0.295,0.078
	c0.953,2.523,3.76,3.012,5.527,0.965C25.64,17.841,25.538,17.671,25.298,17.772z"/>
<path fill="#45332C" d="M35.063,19.476c-1.559,0.641-3.734,0.262-4.98-0.869c-0.189-0.176-0.342-0.049-0.295,0.078
	c0.953,2.521,3.76,3.012,5.527,0.965C35.403,19.546,35.302,19.376,35.063,19.476z"/>
</svg>
