<?xml version="1.0" encoding="utf-8"?>
<!-- Generator: Adobe Illustrator 15.0.0, SVG Export Plug-In . SVG Version: 6.00 Build 0)  -->
<!DOCTYPE svg PUBLIC "-//W3C//DTD SVG 1.1//EN" "http://www.w3.org/Graphics/SVG/1.1/DTD/svg11.dtd" [
	<!ENTITY ns_flows "http://ns.adobe.com/Flows/1.0/">
	<!ENTITY ns_extend "http://ns.adobe.com/Extensibility/1.0/">
	<!ENTITY ns_ai "http://ns.adobe.com/AdobeIllustrator/10.0/">
	<!ENTITY ns_graphs "http://ns.adobe.com/Graphs/1.0/">
]>
<svg version="1.1" id="Layer_1" xmlns:x="&ns_extend;" xmlns:i="&ns_ai;" xmlns:graph="&ns_graphs;"
	 xmlns="http://www.w3.org/2000/svg" xmlns:xlink="http://www.w3.org/1999/xlink" xmlns:a="http://ns.adobe.com/AdobeSVGViewerExtensions/3.0/"
	 x="0px" y="0px" width="64px" height="64px" viewBox="0 0 64 64" enable-background="new 0 0 64 64" xml:space="preserve">
<path fill="#614036" d="M11.226,53.304c0.45-0.33,1.531-0.105,2.724,0.382c-0.488,0.257-0.927,0.65-1.27,1.248
	c5.345-1.729,10.79,8.294,14.135,1.28l-2.778-1.872C22.336,58.742,16.172,49.488,11.226,53.304z"/>
<path fill="#4A2E24" d="M11.226,53.304c0.45-0.33,2.541-0.67,3.733-0.182c-1.556,0.507-2.187,1.049-2.279,1.812
	c5.158-3.118,10.626,6.662,12.48,0.387l-1.124-0.979C21.997,57.637,17.562,48.007,11.226,53.304z"/>
<path fill="#8E3ED6" d="M27.312,56.141c0.592-1.085-4.807-3.243-4.643-1.223C22.844,57.054,26.464,57.697,27.312,56.141z"/>
<path fill="#8E3ED6" d="M9.007,2.368c0,0,3.346-1.107,6.491,0.521l2.419,0.529c0.036,0.341-0.107,0.394-0.107,0.394
	s-2.243,0.784-8.669-1.1C9.141,2.712,8.961,2.669,9.007,2.368z"/>
<path fill="#302C3B" d="M13.837,6.373C13.386,4.97,8.79,4.932,9.141,2.712c0,0,3.105-1.061,6.251,0.57l2.418,0.529
	C17.809,7.554,16.344,6.985,13.837,6.373z"/>
<path fill="#8E3ED6" d="M11.328,4.905c0.997-0.625,1.605-0.666,1.559-0.107c0.646-0.285,0.903,0.092,0.838,0.418
	c0.66-0.14,0.774,0.416-0.061,0.857C13.189,6.299,11.059,5.071,11.328,4.905z"/>
<path fill="#916B50" d="M16.968,6.263c1.936,4.521,4.287,5.684,4.748,10.084c1.062,3.895,2.57,4.816,3.723,8.513
	c-0.288,1.635-3.199,2.564-5.368,2.296c-2.202-6.554-2.702-9.785-2.706-10.963c-0.003-0.887-0.07-3.04-2.87-8.957
	C14.266,6.752,16.864,6.019,16.968,6.263z"/>
<path fill="#F2F5F7" d="M17.199,5.989c0.085,0.055,0.073,0.942,0.073,0.942c-0.675-0.319-2.452-0.183-2.778,0.304
	c-0.126-0.281-0.262-0.563-0.39-0.855C13.947,6.028,16.311,5.403,17.199,5.989z"/>
<path fill="#8E3ED6" d="M55.001,20.341c0,0-1.57-3.049-5.047-4.027l-2.133-1.264c-0.281,0.217-0.219,0.352-0.219,0.352
	s1.023,2.072,7.045,5.092C54.647,20.493,54.81,20.585,55.001,20.341z"/>
<path fill="#302C3B" d="M48.536,19.901c1.375-0.687,4.699,2.398,6.111,0.592c0,0-1.434-2.854-4.912-3.829l-2.133-1.263
	C44.8,18.047,46.276,18.638,48.536,19.901z"/>
<path fill="#8E3ED6" d="M51.437,20.562c-0.248-1.116-0.654-1.557-1.039-1.131c-0.25-0.638-0.717-0.546-0.916-0.271
	c-0.367-0.546-0.865-0.23-0.598,0.647C49.056,20.288,51.505,20.862,51.437,20.562z"/>
<path fill="#916B50" d="M46.446,17.663c-4.635,1.77-7.07,0.844-10.594,3.592c-3.572,1.962-5.33,1.557-8.822,3.313
	c-0.989,1.354,0.348,4.108,2.045,5.488c6.3-2.999,8.996-4.579,9.857-5.401c0.646-0.619,2.268-2.399,8.52-4.522
	C47.962,19.959,46.698,17.566,46.446,17.663z"/>
<path fill="#F2F5F7" d="M46.485,17.304c-0.098-0.022-0.736,0.607-0.736,0.607c0.701,0.264,1.83,1.645,1.703,2.221
	c0.293-0.105,0.59-0.204,0.893-0.316C48.71,19.683,47.53,17.537,46.485,17.304z"/>
<path fill="#302C3B" d="M18.627,23.112c0,0,2.819-0.016,5.979-1.889c0,0,0.825,2.445,1.688,3.234
	c1.132-0.74,3.685-1.912,3.685-1.912s0.66,3.423,3.689,5.64c0,0-4.267,2.557-5.32,4.297c0,0-4.188,1.584-8.613-1.293
	C19.736,31.189,18.596,26.518,18.627,23.112z"/>
<path fill="#916B50" d="M32.023,41.811c1.105,0.234,2.117,0.467,2.796,0.666c1.709,1.798,3.998,3.121,5.572,5.576
	c0.254,0.4-0.633,1.493,0.295,3.815c0.402,0.999,1.371,0.184,0.836-1.462c1.111-0.385,1.141,3.722,2.246,2.514
	c1.221-1.342,0.861-4.026,0.598-4.713c-0.24-0.613-1.635-1.257-2.01-1.7c-1.852-2.174-4.563-6.271-5.4-6.729
	c-0.352-0.193-1.842-1.22-3.281-1.7C33.147,39.332,32.597,40.577,32.023,41.811z"/>
<path fill="#916B50" d="M15.457,59.985C12.511,61.019,10.534,62,14.402,62c4.021,0,3.468-0.636,4.526-0.453
	C20.146,61.758,20.577,62,21.776,62c1.195,0,1.102-0.768-0.425-1.196c-1.441-0.405-1.896-1.003-2.239-2.429
	c-0.574-2.391-0.903-7.502-0.903-7.502s0.368-1.847,1.554-3.477l-3.402-2.559c-2.09,6.994-1.905,3.688,0.175,12.614
	C16.808,58.617,16.524,59.611,15.457,59.985z"/>
<path fill="#8E3ED6" d="M15.82,45.29c0,0,2.19,0.79,3.899,2.917c0,0,0.455-2.127,1.895-3.369c3.202-1.47,3.617,0.572,8.317-2.385
	l3.371-0.085c0,0-0.102-2.373,0.984-4.394c0,0-2.238-0.541-3.445-0.795c-0.176-0.037-2.271-2.322-1.5-5.92
	c0,0-5.417,0.616-10.026-1.204c-0.712,4.037,1.446,7.679,0.087,10.325C18.951,41.038,16.794,43.063,15.82,45.29z"/>
<path fill="#755035" d="M23.753,44.144c-0.437-2.477,4.264-3.306,4.7-0.829c0.131,0.739,0.502,2.844,0.502,2.844l-4.7,0.829
	C24.255,46.987,23.871,44.809,23.753,44.144z"/>
<path fill="#755035" d="M22.486,47.878c-1.598-1.115-2.086,4.038-0.404,3.416C22.867,51.002,23.229,48.396,22.486,47.878z"/>
<path fill="#755035" d="M30.914,46.392c-0.52,0.741,0.713,3.065,1.551,3.071C34.255,49.473,32.035,44.798,30.914,46.392z"/>
<path fill="#916B50" d="M28.279,56.08c3.617-0.638,4.841-3.891,3.955-7.643c-0.176-0.754-0.584-1.814-1.012-2.71
	c-0.887-1.861-4.1-3.326-5.317-3.111c-1.221,0.216-3.733,2.689-3.935,4.742c-0.095,0.988-0.113,2.124-0.023,2.894
	C22.397,54.08,24.657,56.719,28.279,56.08z"/>
<path fill="#423225" d="M23.345,51.426c0.903,0.341,2.376,0.144,2.897-0.29c0.108-0.088,0.012-0.435-0.084-0.372
	c-0.766,0.489-2.02,0.729-2.864,0.468C23.181,51.197,23.21,51.377,23.345,51.426z"/>
<path fill="#423225" d="M31.32,50.02c-0.729,0.629-2.18,0.946-2.818,0.718c-0.133-0.045-0.162-0.403-0.049-0.378
	c0.887,0.197,2.146-0.006,2.85-0.539C31.398,49.748,31.433,49.927,31.32,50.02z"/>
<path fill="#755035" d="M25.567,47.261c-0.129-0.73,2.114-1.126,2.243-0.396C27.839,47.034,25.598,47.43,25.567,47.261z"/>
<path fill="#FFFFFF" d="M23.164,49.93c0.258-1.348,2.26-1.511,2.773-0.688C25.918,50.713,23.67,51.235,23.164,49.93z"/>
<path fill="#613F34" d="M25.506,49.66c-0.197-1.12-1.82-0.834-1.623,0.286C24.066,50.987,25.689,50.701,25.506,49.66z"/>
<path fill="#7D5037" d="M25.28,49.331c-0.112-0.645-1.413-0.415-1.299,0.229C24.087,50.155,25.386,49.927,25.28,49.331z"/>
<path fill="#1A1626" d="M25.029,49.726c-0.083-0.466-0.756-0.347-0.674,0.118C24.432,50.277,25.105,50.158,25.029,49.726z"/>
<path fill="#AB968C" d="M25.28,49.822c-0.041-0.235-0.381-0.176-0.34,0.06C24.979,50.1,25.318,50.04,25.28,49.822z"/>
<path fill="#45332C" d="M23.166,49.94c0.24,1.36,3.048,0.865,2.77-0.71C25.765,50.595,23.757,50.948,23.166,49.94z"/>
<path fill="#FFFFFF" d="M30.982,48.552c-0.709-1.178-2.641-0.646-2.846,0.302C28.662,50.229,30.955,49.951,30.982,48.552z"/>
<path fill="#613F34" d="M30.308,48.811c-0.197-1.12-1.816-0.835-1.619,0.285C28.873,50.138,30.492,49.853,30.308,48.811z"/>
<path fill="#7D5037" d="M30.083,48.481c-0.113-0.644-1.412-0.414-1.299,0.229C28.89,49.307,30.189,49.077,30.083,48.481z"/>
<path fill="#1A1626" d="M29.835,48.876c-0.084-0.465-0.758-0.346-0.676,0.119C29.236,49.429,29.912,49.31,29.835,48.876z"/>
<path fill="#AB968C" d="M30.085,48.972c-0.041-0.234-0.381-0.174-0.34,0.061C29.785,49.251,30.125,49.19,30.085,48.972z"/>
<path fill="#45332C" d="M30.984,48.562c0.24,1.36-2.572,1.856-2.85,0.283C28.763,50.065,30.773,49.711,30.984,48.562z"/>
<path fill="#614036" d="M21.902,49.997c1.45,3.779,4.983,2.636,2.895,5.697C23.291,56.476,20.69,52.594,21.902,49.997z"/>
<path fill="#614036" d="M24.797,55.694c0.86-4.165,6.492-4.625,7.457-7.264c0.91,1.898,1.302,5.753-1.98,7.588
	C27.308,57.674,24.499,56.359,24.797,55.694z"/>
<path fill="#4A2E24" d="M24.797,55.694c0.501-2.392,3.574-2.438,7.14-4.798C28.794,54.064,27.117,53.224,24.797,55.694z"/>
<path fill="#4A2E24" d="M24.797,55.694c0.6-4.716,5.74-4.621,7.457-7.264C31.785,51.249,26.464,51.587,24.797,55.694z"/>
<path fill="#4A2E24" d="M22.357,52.463c1.861,3.234,3.392,1.531,3.205,2.501C24.629,55.678,23.07,54.813,22.357,52.463z"/>
<path fill="#84401E" d="M26.465,45.796c0.916,0.225,0.861-0.137,2.158-0.455c-0.592-0.474-1.082-1.129-2.394-0.897
	c-1.51,0.267-1.621,1.128-1.946,1.663C25.609,45.962,25.681,46.319,26.465,45.796z"/>
<path fill="#FFFFFF" d="M28.205,45.271c-1.016-0.741-2.861-0.405-3.554,0.625C25.946,45.522,26.857,45.361,28.205,45.271z"/>
</svg>
