<?xml version="1.0" encoding="utf-8"?>
<!-- Generator: Adobe Illustrator 15.0.0, SVG Export Plug-In . SVG Version: 6.00 Build 0)  -->
<!DOCTYPE svg PUBLIC "-//W3C//DTD SVG 1.1//EN" "http://www.w3.org/Graphics/SVG/1.1/DTD/svg11.dtd" [
	<!ENTITY ns_flows "http://ns.adobe.com/Flows/1.0/">
	<!ENTITY ns_extend "http://ns.adobe.com/Extensibility/1.0/">
	<!ENTITY ns_ai "http://ns.adobe.com/AdobeIllustrator/10.0/">
	<!ENTITY ns_graphs "http://ns.adobe.com/Graphs/1.0/">
]>
<svg version="1.1" id="Layer_1" xmlns:x="&ns_extend;" xmlns:i="&ns_ai;" xmlns:graph="&ns_graphs;"
	 xmlns="http://www.w3.org/2000/svg" xmlns:xlink="http://www.w3.org/1999/xlink" xmlns:a="http://ns.adobe.com/AdobeSVGViewerExtensions/3.0/"
	 x="0px" y="0px" width="64px" height="64px" viewBox="0 0 64 64" enable-background="new 0 0 64 64" xml:space="preserve">
<path fill="#947D41" d="M27.101,21.881c-4.647,21.435-4.221,20.976,5.566,20.976C27.251,38.785,37.623,21.588,27.101,21.881z"/>
<path fill="#BA9D52" d="M25.426,21.548c-3.387,16.286-0.463,20.466,2.136,21.309h2.975C23.572,37.58,34.459,21.228,25.426,21.548z"
	/>
<path fill="#947D41" d="M40.779,21.879C45.43,43.315,45,42.856,35.219,42.856C40.197,39.588,30.259,21.588,40.779,21.879z"/>
<path fill="#BA9D52" d="M42.455,21.548c4.959,14.814-0.008,20.62-2.133,21.309h-2.979C44.318,38.012,33.426,21.226,42.455,21.548z"
	/>
<path fill="#EFDE8B" d="M43.281,29.506c1.436,3.769,0.016,11.5-2.959,13.351c3.297,0,5.305-4.899,6.283-11.642
	C47.828,22.791,40.723,22.785,43.281,29.506z"/>
<path fill="#EFDE8B" d="M21.649,32.779c1.198,6.083,2.677,10.077,5.913,10.077c-3.606-4.013-3.184-12.472-2.158-14.578
	C30.628,24.938,19.617,22.487,21.649,32.779z"/>
<path fill="#8E3ED6" d="M23,42.871c-2.136,0.78-4.102,7.288-7.481,10.121c-1.043-2.077-3.192-6.515-4.041-8.836
	c0,0-3.386-0.7-4.916,0.597c1.362,5.344,2.578,10.234,5.453,15.422c1.223,2.206,10.656-3.344,11.893-8.38
	C23.907,51.795,24.525,49.981,23,42.871z"/>
<path fill="#D6A67A" d="M5.377,42.902c0.45,0.222,1.611-2.256,1.161-2.477c0,0-2.3-0.771-3.024-0.745
	c-1.712,0.057-1.692,1.552-1.287,1.657C3.411,41.64,5.377,42.902,5.377,42.902z"/>
<path fill="#E3C19B" d="M5.582,35.497c-0.049,2.662,0.53,4.479,0.53,4.479c0-1.307,0.14-3.786,0.313-4.873
	c0.238-1.5,2.177-1.676,2.046-0.163c-0.209,2.415,0.107,5.021,0.107,5.021s0.263-2.302,0.421-4.235
	c0.122-1.461,1.973-1.31,1.945,0.157c-0.021,1.182-0.38,4.803-0.38,4.803s0.641-0.873,0.797-2.98
	c0.082-1.102,1.325-0.776,1.359,0.313c0.061,1.939-0.203,2.434-0.438,3.344c-0.125,0.486-0.175,1.844-0.956,3.234
	c-0.484,0.861-3.601,1.109-4.5,0.422c-0.509-0.39-2.197-2.872-2.575-3.721c-0.409-0.92-0.748-3.42-0.609-5.529
	C3.743,34.244,5.61,33.969,5.582,35.497z"/>
<path fill="#8E3ED6" d="M45,42.871c3.643,2.544,5.766,15.406,12.938,16.19c-1.176,2.647-3.877,2.644-5.564,2.644
	c-2.604,0-6.168-5.422-8.279-7.986C44.094,53.719,43.475,49.981,45,42.871z"/>
<path fill="#8E3ED6" d="M23,42.871c1.547-1.12,7.083-3.024,7.083-3.024h7.885c0,0,5.494,1.898,7.031,3.024L44.379,62H23.638
	L23,42.871z"/>
<path fill="#302C3B" d="M23,42.871c1.39-0.867,2.65-1.408,2.65-1.408L28.396,62H25.1L23,42.871z"/>
<path fill="#302C3B" d="M45,42.871c-1.389-0.867-2.65-1.408-2.65-1.408L39.604,62H42.9L45,42.871z"/>
<radialGradient id="SVGID_1_" cx="42.5635" cy="5.9722" r="5.5" gradientUnits="userSpaceOnUse">
	<stop  offset="0" style="stop-color:#FFE02E"/>
	<stop  offset="0.2489" style="stop-color:#FFDA29"/>
	<stop  offset="0.5857" style="stop-color:#FFC91A"/>
	<stop  offset="0.9714" style="stop-color:#FFAC02"/>
	<stop  offset="1" style="stop-color:#FFAA00"/>
	<a:midPointStop  offset="0" style="stop-color:#FFE02E"/>
	<a:midPointStop  offset="0.6424" style="stop-color:#FFE02E"/>
	<a:midPointStop  offset="1" style="stop-color:#FFAA00"/>
</radialGradient>
<path fill="url(#SVGID_1_)" d="M43.633,2c-3.035,0-5.5,2.466-5.5,5.505c0,3.036,2.465,5.495,5.5,5.495s5.5-2.459,5.5-5.495
	C49.133,4.466,46.668,2,43.633,2z"/>
<radialGradient id="SVGID_2_" cx="555.9434" cy="-40.6104" r="3.9133" gradientTransform="matrix(0.3583 0.4654 -0.7924 0.61 -189.2077 -228.6484)" gradientUnits="userSpaceOnUse">
	<stop  offset="0" style="stop-color:#FFFFFF"/>
	<stop  offset="1" style="stop-color:#FFFFFF;stop-opacity:0"/>
	<a:midPointStop  offset="0" style="stop-color:#FFFFFF"/>
	<a:midPointStop  offset="0.4857" style="stop-color:#FFFFFF"/>
	<a:midPointStop  offset="1" style="stop-color:#FFFFFF;stop-opacity:0"/>
</radialGradient>
<path opacity="0.5" fill="url(#SVGID_2_)" d="M43.568,7.137c-1.713,1.319-3.729,1.572-4.502,0.566
	c-0.775-1.007-0.016-2.891,1.697-4.209c1.713-1.319,3.729-1.572,4.504-0.566C46.043,3.935,45.281,5.819,43.568,7.137z"/>
<radialGradient id="SVGID_3_" cx="9.7363" cy="15.5474" r="5.4999" gradientUnits="userSpaceOnUse">
	<stop  offset="0" style="stop-color:#9BE022"/>
	<stop  offset="0.2668" style="stop-color:#91D422"/>
	<stop  offset="0.7474" style="stop-color:#78B423"/>
	<stop  offset="1" style="stop-color:#69A123"/>
	<a:midPointStop  offset="0" style="stop-color:#9BE022"/>
	<a:midPointStop  offset="0.5758" style="stop-color:#9BE022"/>
	<a:midPointStop  offset="1" style="stop-color:#69A123"/>
</radialGradient>
<path fill="url(#SVGID_3_)" d="M10.5,11.27c-3.036,0-5.5,2.464-5.5,5.502c0,3.039,2.464,5.498,5.5,5.498
	c3.034,0,5.5-2.459,5.5-5.498C16,13.733,13.534,11.27,10.5,11.27z"/>
<radialGradient id="SVGID_4_" cx="533.9209" cy="-8.4531" r="3.9136" gradientTransform="matrix(0.3583 0.4654 -0.7924 0.61 -189.2077 -228.6484)" gradientUnits="userSpaceOnUse">
	<stop  offset="0" style="stop-color:#FFFFFF"/>
	<stop  offset="1" style="stop-color:#FFFFFF;stop-opacity:0"/>
	<a:midPointStop  offset="0" style="stop-color:#FFFFFF"/>
	<a:midPointStop  offset="0.4857" style="stop-color:#FFFFFF"/>
	<a:midPointStop  offset="1" style="stop-color:#FFFFFF;stop-opacity:0"/>
</radialGradient>
<path opacity="0.5" fill="url(#SVGID_4_)" d="M10.197,16.503c-1.713,1.319-3.729,1.572-4.503,0.566
	C4.92,16.063,5.68,14.179,7.392,12.86c1.714-1.319,3.729-1.572,4.504-0.566C12.671,13.301,11.91,15.186,10.197,16.503z"/>
<path fill="#D6A67A" d="M59.76,59.138c-0.313,0.392-2.43-1.337-2.121-1.731c0,0,1.74-1.69,2.404-1.981
	c1.568-0.688,2.197,0.668,1.877,0.937C60.984,57.148,59.76,59.138,59.76,59.138z"/>
<radialGradient id="SVGID_5_" cx="54.9678" cy="52.4727" r="5.4998" gradientUnits="userSpaceOnUse">
	<stop  offset="0.2121" style="stop-color:#FF3B3B"/>
	<stop  offset="0.4183" style="stop-color:#F63131"/>
	<stop  offset="0.7712" style="stop-color:#DE1615"/>
	<stop  offset="1" style="stop-color:#CC0100"/>
	<a:midPointStop  offset="0.2121" style="stop-color:#FF3B3B"/>
	<a:midPointStop  offset="0.5879" style="stop-color:#FF3B3B"/>
	<a:midPointStop  offset="1" style="stop-color:#CC0100"/>
</radialGradient>
<path fill="url(#SVGID_5_)" d="M56.037,48.5c-3.035,0-5.5,2.466-5.5,5.505c0,3.036,2.465,5.495,5.5,5.495s5.5-2.459,5.5-5.495
	C61.537,50.966,59.072,48.5,56.037,48.5z"/>
<radialGradient id="SVGID_6_" cx="631.2461" cy="-21.9092" r="3.9131" gradientTransform="matrix(0.3583 0.4654 -0.7924 0.61 -189.2077 -228.6484)" gradientUnits="userSpaceOnUse">
	<stop  offset="0" style="stop-color:#FFFFFF"/>
	<stop  offset="1" style="stop-color:#FFFFFF;stop-opacity:0"/>
	<a:midPointStop  offset="0" style="stop-color:#FFFFFF"/>
	<a:midPointStop  offset="0.4857" style="stop-color:#FFFFFF"/>
	<a:midPointStop  offset="1" style="stop-color:#FFFFFF;stop-opacity:0"/>
</radialGradient>
<path opacity="0.5" fill="url(#SVGID_6_)" d="M55.73,53.59c-1.713,1.319-3.729,1.572-4.502,0.566
	c-0.775-1.007-0.016-2.891,1.697-4.209c1.713-1.319,3.729-1.572,4.504-0.566C58.205,50.388,57.443,52.272,55.73,53.59z"/>
<path fill="#E3C19B" d="M58.775,57.384c-0.1,0.61-0.355,1.116-0.355,1.116s0.121-1.256,0-1.957
	c-0.236-1.384-2.025-1.266-1.934,0.071c0.074,1.089-0.311,2.088-0.311,2.088s-0.246-0.998-0.354-2.041
	c-0.15-1.438-2.166-1.275-2.102,0.168c0.035,0.796,0.16,1.856,0.16,1.856s-0.264-0.538-0.389-1.164
	c-0.268-1.355-1.967-1.351-1.762,0.022c0.396,2.672,2.09,2.686,2.369,2.002c0.338,0.811,1.479,0.742,1.945,0.254
	c0.383,0.47,1.789,0.556,2.156-0.136c0.691,0.706,1.924-0.084,2.143-1.605C60.539,56.708,58.992,56.035,58.775,57.384z"/>
<path fill="#D6A67A" d="M30.335,40.521c0,4.147,7.327,4.147,7.327,0v-4.298h-7.327V40.521z"/>
<path fill="#E3C19B" d="M34,16.729c-6.659,0-9.862,5.418-9.457,12.387c0.08,1.401,0.467,3.422,0.949,5.153
	c1,3.598,6.263,7.219,8.508,7.219c2.246,0,7.506-3.621,8.506-7.219c0.48-1.731,0.871-3.752,0.951-5.153
	C43.859,22.146,40.654,16.729,34,16.729z"/>
<path fill="#C97E55" d="M34,35.743c-1.616-0.713-1.633-0.03-4.129,0.138c0.939,1.064,1.631,2.431,4.125,2.431
	c2.871,0,3.355-1.552,4.131-2.431C35.631,35.713,35.617,35.03,34,35.743z"/>
<path fill="#FFFFFF" d="M30.621,36.144c1.631,1.696,5.145,1.679,6.76,0.002C34.865,36.416,33.135,36.416,30.621,36.144z"/>
<path fill="#594640" d="M41.332,26.582c-1.502-0.893-4.186-1.002-5.254-0.393c-0.225,0.122-0.16,0.77,0.035,0.688
	c1.514-0.632,3.826-0.663,5.254,0.069C41.559,27.041,41.559,26.713,41.332,26.582z"/>
<path fill="#594640" d="M26.669,26.582c1.496-0.893,4.186-1.002,5.25-0.393c0.223,0.122,0.168,0.77-0.031,0.688
	c-1.52-0.632-3.826-0.663-5.25,0.069C26.442,27.041,26.438,26.713,26.669,26.582z"/>
<path fill="#D6A67A" d="M36.064,33.312c0,1.343-4.127,1.343-4.127,0C31.937,33.001,36.064,33.001,36.064,33.312z"/>
<path fill="#FFFFFF" d="M41.189,29.308c-0.891,2.322-4.508,1.982-5.168,0.354C36.521,27.044,40.697,26.822,41.189,29.308z"/>
<path fill="#613F34" d="M36.926,29.053c0,2.06,2.98,2.06,2.98,0C39.906,27.138,36.926,27.138,36.926,29.053z"/>
<path fill="#7D5037" d="M37.219,29.712c0,1.183,2.393,1.183,2.393,0C39.611,28.615,37.219,28.615,37.219,29.712z"/>
<path fill="#1A1626" d="M37.795,29.083c0,0.855,1.24,0.855,1.24,0C39.035,28.291,37.795,28.291,37.795,29.083z"/>
<path fill="#AB968C" d="M37.377,28.834c0,0.433,0.625,0.433,0.625,0C38.002,28.435,37.377,28.435,37.377,28.834z"/>
<path fill="#45332C" d="M41.189,29.289c0-2.502-5.168-2.502-5.168,0.396C36.76,27.307,40.451,27.307,41.189,29.289z"/>
<path fill="#FFFFFF" d="M26.808,29.308c0.895,2.322,4.512,1.982,5.174,0.354C31.476,27.044,27.304,26.822,26.808,29.308z"/>
<path fill="#613F34" d="M28.093,29.056c0,2.06,2.979,2.06,2.979,0C31.072,27.143,28.093,27.143,28.093,29.056z"/>
<path fill="#7D5037" d="M28.388,29.714c0,1.183,2.393,1.183,2.393,0C30.781,28.619,28.388,28.619,28.388,29.714z"/>
<path fill="#1A1626" d="M28.962,29.087c0,0.857,1.238,0.857,1.238,0C30.201,28.293,28.962,28.293,28.962,29.087z"/>
<path fill="#AB968C" d="M28.544,28.84c0,0.431,0.623,0.431,0.623,0C29.167,28.438,28.544,28.438,28.544,28.84z"/>
<path fill="#45332C" d="M26.808,29.289c0-2.502,5.174-2.502,5.174,0.392C31.242,27.305,27.548,27.305,26.808,29.289z"/>
<path fill="#EFDE8B" d="M40.52,24.45c0.842,1.231,1.891,2.768,2.762,5.056c1.436,3.769,2.346,8.451,3.324,1.709
	c0.367-2.529,0.193-4.814-0.279-6.765H40.52z"/>
<path fill="#EFDE8B" d="M21.675,24.45c-0.588,2.29-0.673,5.051-0.025,8.329c1.198,6.083,2.729-2.395,3.755-4.501
	c2.097-1.342,4.792-2.554,7.357-3.828H21.675z"/>
<path fill="#BA9D52" d="M31.716,24.45c-4.598,2.096-9.096,3.726-9.694,6.735c2.364-3.389,7.977-4.504,12.53-6.735H31.716z"/>
<path fill="#BA9D52" d="M43.979,24.45c0.619,1.189,1.268,2.688,1.926,4.605c-0.246-1.695-0.65-3.245-1.15-4.605H43.979z"/>
<path fill="#4E5E67" d="M48.643,24.142c0,2.549-29.285,2.549-29.285,0C19.357,21.592,48.643,21.592,48.643,24.142z"/>
<path fill="#302C3B" d="M45.5,23.062c0,2.193-23,2.193-23,0C22.5,10.979,45.5,10.979,45.5,23.062z"/>
<path fill="#302C3B" d="M40.182,46.866c0.441,1.108-4.623-1.043-4.623-1.043V43.38c0,0,4.92-2.879,4.598-1.73
	C39.76,43.068,39.816,45.951,40.182,46.866z"/>
<polygon fill="#4E5E67" points="38.068,44.4 35.982,44.229 37.369,42.996 35.559,43.993 35.559,45.232 37.6,45.863 36.033,44.897 
	"/>
<path fill="#302C3B" d="M27.841,46.866c-0.441,1.108,4.621-1.043,4.621-1.043V43.38c0,0-4.926-2.879-4.6-1.73
	C28.263,43.068,28.207,45.951,27.841,46.866z"/>
<polygon fill="#4E5E67" points="29.953,44.4 32.041,44.229 30.652,42.996 32.462,43.993 32.462,45.232 30.421,45.863 31.986,44.897 
	"/>
<path fill="#302C3B" d="M35.514,46.159c-0.529,0.551-2.477,0.551-3.01,0c-0.531-0.548-0.531-2.557,0-3.104
	c0.534-0.55,2.481-0.55,3.01,0C36.047,43.603,36.047,45.611,35.514,46.159z"/>
</svg>
