<?xml version="1.0" encoding="utf-8"?>
<!-- Generator: Adobe Illustrator 15.0.0, SVG Export Plug-In . SVG Version: 6.00 Build 0)  -->
<!DOCTYPE svg PUBLIC "-//W3C//DTD SVG 1.1//EN" "http://www.w3.org/Graphics/SVG/1.1/DTD/svg11.dtd" [
	<!ENTITY ns_flows "http://ns.adobe.com/Flows/1.0/">
	<!ENTITY ns_extend "http://ns.adobe.com/Extensibility/1.0/">
	<!ENTITY ns_ai "http://ns.adobe.com/AdobeIllustrator/10.0/">
	<!ENTITY ns_graphs "http://ns.adobe.com/Graphs/1.0/">
]>
<svg version="1.1" id="Layer_1" xmlns:x="&ns_extend;" xmlns:i="&ns_ai;" xmlns:graph="&ns_graphs;"
	 xmlns="http://www.w3.org/2000/svg" xmlns:xlink="http://www.w3.org/1999/xlink" xmlns:a="http://ns.adobe.com/AdobeSVGViewerExtensions/3.0/"
	 x="0px" y="0px" width="64px" height="64px" viewBox="0 0 64 64" enable-background="new 0 0 64 64" xml:space="preserve">
<path fill="#F7C259" d="M36.361,15.663c-2.427,2.535-5.183,7.966-6.548,8.331c-2.416,0.649-6.675-1.608-9.177-1.857
	c-3.831-0.384-2.447-5.479,0.493-4.548c2.612,0.824,6.039,1.963,7.423,2.44c2.208-2.685,5.451-4.123,5.078-6.831
	c-0.321-2.356,0.88-3.19,1.176-1.608c0,0,0.826-2.775,2.763-1.979C39.556,10.423,38.448,13.48,36.361,15.663z"/>
<path fill="#594640" d="M8.152,13.52c0.553,0.067,1.389-0.654,2.192-1.662c-0.551,0.014-1.125-0.117-1.717-0.47
	c5.513-1.097,5.673-13.444,11.723-8.014l-1.514,2.989c-2.052-2.73-0.873,5.554-5.247,6.158c0.493-0.228,0.767-0.98,0.994-1.905
	C12.952,12.916,10.859,14.896,8.152,13.52z"/>
<path fill="#453631" d="M8.152,13.52c0.553,0.067,2.547-0.656,3.35-1.662c-1.605,0.314-2.42,0.15-2.874-0.47
	c6.026,0.206,6.034-11.004,10.713-6.426l-0.504,1.401c-2.052-2.73-0.873,5.554-5.247,6.158c1.469-0.758,1.746-1.752,1.549-2.507
	C13.505,12.313,10.859,14.896,8.152,13.52z"/>
<path fill="#8E3ED6" d="M20.717,3.503c0.815,0.93-0.454,3.689-2.401,3.112C16.716,6.145,19.636,2.265,20.717,3.503z"/>
<path fill="#F7C259" d="M23.722,17.171c-1.386-1.246-1.785,3.011-1.903,3.378c0,0-0.721-2.772-4.006-4.015
	c0,0,0.837-1.209,1.758-3.315C21.363,7.167,23.722,17.171,23.722,17.171z"/>
<path fill="#FFCC66" d="M31.009,8.642c0.047,0.949-0.124,1.957-0.577,2.682c-0.698,1.115-0.355,1.913,0.273,3.078
	c0.598,1.105-0.643,1.457-1.583,1.107c-0.295,0.207-0.233,0.523-0.233,0.523c-1.002,0.627-1.342,1.394-1.095,1.794
	c0,0-0.275,0.051-0.388,0.498c-0.324,1.28-1.226,1.376-2.848,0.11c-3.201-2.501-2.508-5.325-2.508-5.325
	c-1.124,0.78-2.704-1.823-1.969-4.033C21.293,5.404,26.321,1.306,31.009,8.642z"/>
<path fill="#F5F5F5" d="M26.979,11.886c0.274,0.72,1.333,1.453,1.751,1.519C30.71,10.905,28.037,10.913,26.979,11.886z"/>
<path fill="#45332C" d="M28.683,13.394c-1.103-0.441,0.611-3.207,0.774-1.306C29.396,12.387,28.905,13.483,28.683,13.394z"/>
<path fill="#45332C" d="M26.979,11.886c0.706-1.002,2.922-1.105,2.479,0.202C29.41,11.275,27.884,11.23,26.979,11.886z"/>
<path fill="#F5F5F5" d="M29.107,11.996c-0.105,0.271-0.496,0.116-0.389-0.157C28.818,11.591,29.208,11.746,29.107,11.996z"/>
<path fill="#594640" d="M27.328,10.028c0.97-0.322,2.492,0.291,2.919,0.877c0.097,0.121-0.183,0.505-0.255,0.41
	c-0.486-0.632-1.639-1.196-2.705-1.097C27.168,10.229,27.182,10.071,27.328,10.028z"/>
<path fill="#594640" d="M19.606,5.061c1.06-2.49,4.124-3.119,7.183-2.009c3.958,1.438,5.115,4.563,4.22,5.59
	c-3.755-3.854-7.187,4.57-7.924,1.125c-0.37-1.728-2.667-1.7-2.944,0.366c-0.282,2.086,0.805,2.83,0.805,2.83
	c-0.802,0.721-1.461,0.614-1.461,0.614C16.554,11.976,17.046,5.459,19.606,5.061z"/>
<path fill="#453631" d="M19.606,5.061c1.06-2.49,5.778-2.106,7.094-1.318c-2.175-0.407-5.059,0.063-5.635,0.81
	c1.856,0.141,4.715,0.033,7.538,1.221c-1.832-0.392-3.8,0.546-7.575-0.137c0,0,2.4,1.479,5.646,1.316
	c-1.127,0.742-3.54,0.964-4.663,0.903c1.119,0.471,2.446,0.808,5.733-0.005c-2.326,0.959-4.145,4.315-4.659,1.916
	c-0.37-1.728-2.667-1.7-2.944,0.366c-0.282,2.086,0.805,2.83,0.805,2.83c-0.802,0.721-1.461,0.614-1.461,0.614
	C16.554,11.976,17.046,5.459,19.606,5.061z"/>
<path fill="#E6B045" d="M28.453,14.755c0.009,0.429,0.545,0.731,0.891,0.842c0.461,0.149,0.979,0.07,1.287-0.184
	C30.584,14.971,29.264,15.604,28.453,14.755z"/>
<path fill="#594640" d="M54.925,13.52c-0.553,0.067-1.389-0.654-2.192-1.662c0.551,0.014,1.125-0.117,1.717-0.47
	c-5.513-1.097-5.673-13.444-11.723-8.014l1.514,2.989c2.052-2.73,0.873,5.555,5.247,6.159c-0.493-0.229-0.767-0.981-0.994-1.906
	C50.125,12.916,52.218,14.896,54.925,13.52z"/>
<path fill="#453631" d="M54.925,13.52c-0.553,0.067-2.547-0.656-3.35-1.662c1.605,0.314,2.42,0.15,2.874-0.47
	c-6.026,0.206-6.034-11.004-10.713-6.426l0.504,1.401c2.052-2.73,0.873,5.555,5.247,6.159c-1.469-0.759-1.746-1.753-1.549-2.507
	C49.572,12.313,52.218,14.896,54.925,13.52z"/>
<path fill="#E81C27" d="M42.36,3.503c-0.815,0.93,0.454,3.689,2.401,3.112C46.361,6.145,43.441,2.265,42.36,3.503z"/>
<path fill="#F7C259" d="M39.355,17.171c1.386-1.246,1.785,3.011,1.903,3.379c0,0,0.721-2.773,4.006-4.016
	c0,0-0.837-1.209-1.758-3.315C41.715,7.167,39.355,17.171,39.355,17.171z"/>
<path fill="#FFCC66" d="M32.068,8.642c-0.047,0.949,0.124,1.957,0.577,2.682c0.698,1.115,0.355,1.913-0.273,3.078
	c-0.598,1.105,0.643,1.457,1.583,1.107c0.295,0.207,0.233,0.539,0.233,0.539c0.993,0.382,1.342,1.394,1.095,1.794
	c0,0,0.275,0.035,0.388,0.482c0.324,1.28,1.226,1.376,2.848,0.11c3.201-2.501,2.508-5.325,2.508-5.325
	c1.124,0.78,2.704-1.823,1.969-4.033C41.784,5.404,36.757,1.306,32.068,8.642z"/>
<path fill="#F5F5F5" d="M36.099,11.886c-0.274,0.72-1.333,1.453-1.751,1.519C32.367,10.905,35.04,10.913,36.099,11.886z"/>
<path fill="#45332C" d="M34.395,13.394c1.103-0.441-0.611-3.207-0.774-1.306C33.682,12.387,34.172,13.483,34.395,13.394z"/>
<path fill="#45332C" d="M36.099,11.886c-0.706-1.002-2.922-1.105-2.479,0.202C33.667,11.275,35.193,11.23,36.099,11.886z"/>
<path fill="#F5F5F5" d="M33.97,11.996c0.105,0.271,0.496,0.116,0.389-0.157C34.259,11.591,33.869,11.746,33.97,11.996z"/>
<path fill="#594640" d="M35.749,10.028c-0.97-0.322-2.492,0.291-2.919,0.877c-0.097,0.121,0.183,0.505,0.255,0.41
	c0.487-0.632,1.639-1.196,2.705-1.097C35.909,10.229,35.896,10.071,35.749,10.028z"/>
<path fill="#E69B45" d="M34.961,16.791c-0.248,0.866-0.005,1.296,0.322,1.051c0.587-0.439,0.475-1.053,1.616-1.446
	c-0.801-0.259-1.704,0.272-2.711-0.348C34.188,16.048,34.492,16.714,34.961,16.791z"/>
<path fill="#594640" d="M43.471,5.061c-1.06-2.49-4.124-3.119-7.183-2.009c-3.958,1.438-5.115,4.563-4.22,5.59
	c3.755-3.854,7.187,4.57,7.924,1.125c0.37-1.728,2.667-1.7,2.944,0.366c0.282,2.087-0.804,2.83-0.804,2.83
	c0.801,0.721,1.46,0.614,1.46,0.614C46.523,11.976,46.031,5.459,43.471,5.061z"/>
<path fill="#453631" d="M43.471,5.061c-1.06-2.49-5.778-2.106-7.094-1.318c2.175-0.407,5.059,0.063,5.635,0.81
	c-1.856,0.141-4.715,0.033-7.538,1.221c1.832-0.392,3.8,0.546,7.575-0.137c0,0-2.4,1.479-5.646,1.316
	c1.127,0.743,3.54,0.964,4.663,0.903c-1.119,0.471-2.446,0.808-5.733-0.005c2.326,0.959,4.145,4.315,4.659,1.916
	c0.37-1.728,2.667-1.7,2.944,0.366c0.282,2.087-0.804,2.83-0.804,2.83c0.801,0.721,1.46,0.614,1.46,0.614
	C46.523,11.976,46.031,5.459,43.471,5.061z"/>
<path fill="#E6B045" d="M34.624,14.755c-0.009,0.429-0.545,0.731-0.891,0.842c-0.461,0.149-0.979,0.07-1.287-0.184
	C32.493,14.971,33.813,15.604,34.624,14.755z"/>
<path fill="#E81C27" d="M41.692,7.894c-0.694-0.361-2.626,0.249-2.987,0.943c-0.672,1.292,0.397,5.022,1.753,5.553
	c0.729,0.286,2.505-0.435,2.726-1.185C43.736,11.33,42.985,8.566,41.692,7.894z M39.101,9.662c-0.446-0.484,0.522-1.379,0.971-0.896
	C40.518,9.251,39.549,10.146,39.101,9.662z M41.336,13.784c-0.379,0.654-1.69-0.103-1.313-0.76
	C40.402,12.37,41.715,13.127,41.336,13.784z M41.95,8.868c-0.189,0.661-1.515,0.287-1.329-0.376
	C40.81,7.83,42.136,8.203,41.95,8.868z"/>
<path fill="#F2F5F7" d="M37.383,19.3c-0.281,0.243-0.761-0.217-0.692-0.447c0.299-1.016,2.661-4.633,3.509-5.449
	c0.356-0.345,0.793,0.168,0.693,0.446C40.5,14.961,38.184,18.605,37.383,19.3z"/>
<path fill="#E3E6E8" d="M34.714,3.978c-0.271-0.342,0.239-0.738,0.494-0.617c1.123,0.527,5.138,3.756,6.044,4.81
	c0.284,0.328-0.134,0.81-0.491,0.621C39.527,8.143,35.482,4.956,34.714,3.978z"/>
<path fill="#F2F5F7" d="M34.059,4.318c-0.207-0.346,0.334-0.692,0.559-0.56c0.989,0.579,4.325,3.928,5.031,4.995
	c0.298,0.45-0.289,0.738-0.558,0.563C38.017,8.617,34.646,5.306,34.059,4.318z"/>
<path fill="#8E3ED6" d="M19.894,13.205c0.221,0.75,1.997,1.471,2.726,1.185c1.355-0.53,2.425-4.261,1.753-5.553
	c-0.361-0.694-2.293-1.305-2.987-0.943C20.092,8.566,19.341,11.33,19.894,13.205z M23.006,8.767
	c0.448-0.483,1.417,0.411,0.971,0.896C23.528,10.146,22.56,9.251,23.006,8.767z M23.054,13.024c0.378,0.657-0.934,1.414-1.313,0.76
	C21.362,13.127,22.675,12.37,23.054,13.024z M22.456,8.492c0.186,0.663-1.14,1.037-1.329,0.376
	C20.941,8.203,22.268,7.83,22.456,8.492z"/>
<path fill="#E3E6E8" d="M28.363,3.978c0.271-0.342-0.239-0.738-0.494-0.617c-1.123,0.527-5.138,3.756-6.044,4.81
	c-0.284,0.328,0.134,0.81,0.491,0.621C23.55,8.143,27.595,4.956,28.363,3.978z"/>
<path fill="#F2F5F7" d="M29.019,4.318c0.207-0.346-0.334-0.692-0.559-0.56c-0.989,0.579-4.325,3.928-5.031,4.995
	c-0.298,0.45,0.289,0.738,0.558,0.563C25.061,8.617,28.432,5.306,29.019,4.318z"/>
<path fill="#F7C259" d="M22.06,37.999c-3.018,0.345-3.514,1.914-5.166,3.084c0.565,0.357,1.653,6.148,0.192,8.456l3.668,0.312
	c1.644-5.854,2.693-6.304,2.812-8.89C23.605,40.093,23.08,39.207,22.06,37.999z"/>
<path fill="#5D1E96" d="M22.06,37.999c-2.236-3.198-7.075-6.646-7.075-6.646l-4.886,3.914c1.517,4.1,5.196,4.646,7.084,6.019
	C19.021,40.405,20.229,38.811,22.06,37.999z"/>
<path fill="#E6EBEF" d="M17.07,49.209l3.69,0.097l0.185-1.222l-3.612-0.481C17.333,47.603,16.878,48.563,17.07,49.209z"/>
<path fill="#8E3ED6" d="M19.472,55.876l-3.144-0.313c-0.46-0.046-0.12-0.773-0.12-0.773s3.115-1.5,12.346,0.39
	C28.554,55.18,26.07,58.265,19.472,55.876z"/>
<path fill="#302C3B" d="M16.767,51.75c-0.398-0.924,0.06-3.642,0.347-3.452c0.553,0.364,2.744,0.475,3.263,0.189
	c-0.396-1.948,1.294-1.599,1.253-1.014c-0.574,8.169,7.657,3.948,6.925,7.706c0,0-4.281,1.931-8.905-0.021l-3.44-0.369
	C15.994,52.72,16.769,51.753,16.767,51.75z"/>
<path fill="#8E3ED6" d="M24.008,52.623c-1.58,0.506-1.917,0.185-1.645-0.586c-0.977,0.16-1.18-0.464-0.973-0.898
	c-0.942-0.051-0.886-0.874,0.403-1.183C22.518,49.813,24.433,52.487,24.008,52.623z"/>
<path fill="#F7C259" d="M30.905,32.959c0.158-0.538-0.525-1.094,0.496-1.218c0,0-0.032-0.748,0.4-0.693
	c1.563,0.194,2.005,0.377,2.63,1.354c0.213,0.338,6.03-2.364,8.307-3.038c-1.538-2.682-5.97-10.02-2.715-10.856
	c3.102-0.355,7.879,12.024,6.932,12.601c-4.5,2.732-10.725,2.835-11.938,3.441c-1.696,0.844-3.96,0.833-3.851-0.393
	C31.216,33.607,30.76,33.457,30.905,32.959z"/>
<path fill="#F7C259" d="M17.415,15.02c1.257,10.758,5.113,14.65,6.14,3.327C22.287,17.816,21.092,14.981,17.415,15.02z"/>
<path fill="#FFCC66" d="M18.984,41.876c0,0-2.555-2.089-6.758,0.894c0,0,0.497,1.276,0.449,2.408
	c-4.075,0.455-4.059,2.787-6.675,5.564l3.163,1.738c1.734-3.175,6.829-3.054,9.041-5.294C19.654,45.719,18.984,41.876,18.984,41.876
	z"/>
<path fill="#8E3ED6" d="M18.984,41.876c-0.096-1.921-0.51-4.569-2.624-8.445c-0.638-1.169,2.248-5.249,2.983-5.38
	c4.496-0.8,3.017-3.436,4.496-9.661c0,0-0.592-0.813-0.749-0.369c-0.865,2.45-3.547-0.045-4.355-1.926
	c-0.546-1.269-3.06-2.17-4.832-0.443c-4.829,4.701-3.135,10.024-5.473,13.909c-1.387,2.303-1.852,5.188,0.171,7.185
	c1.504,1.484,2.062,3.709,3.625,6.024C14.06,41.937,16.685,41.187,18.984,41.876z"/>
<path fill="#F7C259" d="M12.185,18.442c-2.052,4.553,2.547,6.717,4.763,2.246C19.692,15.147,14.566,13.161,12.185,18.442z"/>
<path fill="#E6EBEF" d="M49.053,54.426l-3.69,0.097l-0.185-1.222l3.612-0.481C48.79,52.819,49.245,53.779,49.053,54.426z"/>
<path fill="#E81C27" d="M46.651,61.093l3.144-0.313c0.46-0.046,0.12-0.773,0.12-0.773s-3.115-1.5-12.346,0.39
	C37.569,60.396,40.053,63.481,46.651,61.093z"/>
<path fill="#302C3B" d="M49.356,56.967c0.398-0.924-0.06-3.642-0.347-3.452c-0.553,0.364-2.744,0.475-3.263,0.189
	c0.396-1.948-1.294-1.599-1.253-1.014c0.574,8.169-7.657,3.948-6.925,7.706c0,0,4.281,1.931,8.905-0.021l3.44-0.369
	C50.129,57.937,49.354,56.97,49.356,56.967z"/>
<path fill="#E81C27" d="M42.115,57.84c1.58,0.506,1.917,0.185,1.645-0.586c0.977,0.16,1.18-0.464,0.973-0.898
	c0.942-0.051,0.886-0.874-0.403-1.183C43.605,55.03,41.69,57.704,42.115,57.84z"/>
<path fill="#F7C259" d="M51.309,41.409c-0.415-1.196,3.314-3.146,0.099-3.578c-2.105-0.283-8.267,1.86-5.397,6.561
	c1.462,1.689,4.842,0.304,8.877,3.591l2.137-2.954C53.358,43.261,54.033,41.653,51.309,41.409z"/>
<path fill="#F7C259" d="M45.663,15.02c-1.258,10.758-5.114,14.65-6.141,3.327C40.79,17.816,41.985,14.981,45.663,15.02z"/>
<path fill="#FFCC66" d="M47.229,43.811c-1.893-1.339-2.815-3.792-6.517-2.309c-1.278,2.423-1.001,3.85-0.596,4.838
	c0.775,1.89,3.348,2.147,5.069,7.175l3.665-0.324c-1.244-3.34-0.906-5.192-2.837-7.134C45.99,45.271,46.374,44.635,47.229,43.811z"
	/>
<path fill="#E81C27" d="M55.153,30.559c-3.032-4.186-1.15-10.206-5.979-14.907c-1.772-1.727-4.286-0.825-4.832,0.443
	c-0.809,1.881-3.49,4.376-4.355,1.926c-0.157-0.444-0.749,0.369-0.749,0.369c1.479,6.226,0,8.862,4.496,9.661
	c0.735,0.131,4.337,4.496,3.405,5.447c-2.104,2.146-5.072,5.181-6.427,8.004c2.218,0.52,4.675,0.99,6.517,2.309
	c2.724-1.813,3.195-3.612,5.793-4.604C56.621,37.831,57.364,33.61,55.153,30.559z"/>
<path fill="#F7C259" d="M50.893,18.442c2.052,4.553-2.547,6.717-4.763,2.246C43.385,15.147,48.511,13.161,50.893,18.442z"/>
<path fill="#FFCC66" d="M29.825,26.99c-0.342-0.493,0.168-1.287-0.912-1.072c0,0-0.219-0.771-0.64-0.571
	c-1.526,0.722-1.915,1.056-2.222,2.26c-0.104,0.414-6.929-0.387-9.47-0.311c0.667-3.243,2.719-12.193-0.872-11.955
	c-3.276,0.678-3.991,14.872-2.835,15.142c5.494,1.273,11.861-0.706,13.3-0.496c2.008,0.291,4.308-0.479,3.787-1.688
	C29.727,27.755,30.141,27.449,29.825,26.99z"/>
<path fill="#E6EBEF" d="M56.919,45.169l-2.541,2.679l-0.994-0.734l2.214-2.895C55.598,44.219,56.599,44.576,56.919,45.169z"/>
<path fill="#E81C27" d="M59.936,51.582l2.002-2.444c0.293-0.357-0.462-0.632-0.462-0.632s-3.264,1.143-8.454,9.006
	C53.021,57.512,56.959,57.937,59.936,51.582z"/>
<path fill="#302C3B" d="M58.931,46.751c-0.371-0.935-2.617-2.532-2.686-2.195c-0.134,0.648-1.605,2.275-2.174,2.44
	c-1.098-1.657-2.045-0.215-1.603,0.17c6.183,5.37-2.623,8.206,0.553,10.346c0,0,4.393-1.662,6.282-6.313l2.172-2.693
	C60.163,46.891,58.932,46.755,58.931,46.751z"/>
<path fill="#E81C27" d="M54.428,52.489c1.475-0.76,1.486-1.226,0.749-1.577c0.804-0.578,0.506-1.162,0.052-1.323
	c0.631-0.702,0.009-1.244-1.121-0.552C53.495,49.448,54.031,52.693,54.428,52.489z"/>
<path fill="#E6EBEF" d="M5.329,51.623l3.352,1.548l0.652-1.049l-3.127-1.871C6.206,50.251,5.408,50.953,5.329,51.623z"/>
<path fill="#8E3ED6" d="M4.898,58.696l-2.764-1.53C1.73,56.942,2.33,56.408,2.33,56.408s3.455-0.146,11.186,5.24
	C13.516,61.648,10.015,63.5,4.898,58.696z"/>
<path fill="#302C3B" d="M4.046,53.837c-0.001-1.006,1.494-3.321,1.684-3.033c0.363,0.553,2.332,1.521,2.921,1.464
	c0.408-1.946,1.821-0.957,1.553-0.436c-3.759,7.276,5.471,6.654,3.313,9.816c0,0-4.696,0.08-8.172-3.541L2.33,56.408
	C2.952,54.422,4.046,53.84,4.046,53.837z"/>
<path fill="#8E3ED6" d="M10.352,57.503c-1.651-0.161-1.834-0.589-1.279-1.189c-0.96-0.238-0.9-0.893-0.538-1.209
	c-0.846-0.42-0.468-1.153,0.838-0.928C10.094,54.333,10.795,57.546,10.352,57.503z"/>
<path fill="#E69B45" d="M28.116,16.76c0.248,0.866,0.005,1.312-0.322,1.066c-0.587-0.439-0.475-1.068-1.616-1.462
	c0.801-0.259,1.704,0.288,2.711-0.332C28.889,16.032,28.585,16.683,28.116,16.76z"/>
<path fill="#F2F5F7" d="M25.696,19.305c0.281,0.243,0.761-0.217,0.692-0.447c-0.299-1.016-2.661-4.633-3.509-5.449
	c-0.356-0.345-0.793,0.168-0.693,0.446C22.579,14.966,24.896,18.61,25.696,19.305z"/>
<path fill="#FFCC66" d="M45.84,15.409c-3.467,0.966-6.03,2.819-10.114,3.116c-2.047,0.147-10.132,0.04-10.911-0.153
	c-3.042-0.755-6.618-4.467-7.399-3.353c0.084,0.681,2.115,2.19,2.936,3.62c0.625,1.09,2.58,2.17,3.925,1.66
	c0.62-0.235,10.102,2.688,11.35,2.473c4.374-0.758,10.707-1.259,12.339-2.024C52.307,18.721,49.52,14.384,45.84,15.409z"/>
</svg>
