<?xml version="1.0" encoding="utf-8"?>
<!-- Generator: Adobe Illustrator 15.0.0, SVG Export Plug-In . SVG Version: 6.00 Build 0)  -->
<!DOCTYPE svg PUBLIC "-//W3C//DTD SVG 1.1//EN" "http://www.w3.org/Graphics/SVG/1.1/DTD/svg11.dtd" [
	<!ENTITY ns_flows "http://ns.adobe.com/Flows/1.0/">
	<!ENTITY ns_extend "http://ns.adobe.com/Extensibility/1.0/">
	<!ENTITY ns_ai "http://ns.adobe.com/AdobeIllustrator/10.0/">
	<!ENTITY ns_graphs "http://ns.adobe.com/Graphs/1.0/">
]>
<svg version="1.1" id="Layer_1" xmlns:x="&ns_extend;" xmlns:i="&ns_ai;" xmlns:graph="&ns_graphs;"
	 xmlns="http://www.w3.org/2000/svg" xmlns:xlink="http://www.w3.org/1999/xlink" xmlns:a="http://ns.adobe.com/AdobeSVGViewerExtensions/3.0/"
	 x="0px" y="0px" width="64px" height="64px" viewBox="0 0 64 64" enable-background="new 0 0 64 64" xml:space="preserve">
<path fill="#3B2C29" d="M20.679,17.701C19.236,44.23,19.683,43.59,32.182,41.385C24.412,37.766,34.056,14.984,20.679,17.701z"/>
<path fill="#453631" d="M18.469,17.684c-0.919,20.125,3.696,24.439,7.191,24.852l3.804-0.67
	C19.458,37.166,29.941,15.269,18.469,17.684z"/>
<path fill="#3B2C29" d="M38.146,14.619c10.431,24.438,9.791,23.988-2.707,26.191C41.116,35.807,24.648,16.643,38.146,14.619z"/>
<path fill="#453631" d="M40.217,13.848c9.44,16.499,4.311,24.52,1.742,25.814l-3.802,0.67
	C46.043,33.002,28.612,15.501,40.217,13.848z"/>
<path fill="#594640" d="M42.941,23.128c2.622,4.153,2.43,13.665-0.982,16.534c4.211-0.744,5.747-7.019,5.585-15.255
	C47.339,14.118,38.265,15.712,42.941,23.128z"/>
<path fill="#594640" d="M15.996,31.887c2.808,6.96,5.532,11.376,9.664,10.648c-5.446-3.957-6.679-14.109-5.812-16.843
	C25.822,20.543,11.243,20.11,15.996,31.887z"/>
<rect x="9.138" y="29.355" fill="#FFCC66" width="4.584" height="2.133"/>
<path fill="#FFCC66" d="M57.066,24.259c0.879-1.534-0.441-2.51-2.525,0.175c-1.608,2.072-7.044,5.795-3.118,6.733
	c2.796,0.668,9.612-4.387,10.464-9.472C62.662,17.073,59.281,23.263,57.066,24.259z"/>
<path fill="#FFCC66" d="M6.934,24.259c-0.879-1.534,0.441-2.51,2.524,0.175c1.609,2.072,7.045,5.795,3.119,6.733
	c-2.796,0.668-9.613-4.387-10.464-9.472C1.338,17.073,4.718,23.263,6.934,24.259z"/>
<rect x="50.639" y="29.355" fill="#FFCC66" width="4.584" height="2.133"/>
<path fill="#8E3ED6" d="M55.765,31.077h-5.71l0.206,13.142c0,0-1.922-3.754-5.028-6.299c-4.743-3.885-8.331-1.334-13.053-1.334
	c-4.721,0-8.309-2.551-13.053,1.334c-3.106,2.545-5.029,6.299-5.029,6.299l0.207-13.142h-5.71c0,0-0.735,15.769-0.457,21.017
	c0.258,4.848,3.916,6.688,11.458-3.385C20.429,55.771,20.013,62,20.013,62H32.18l0,0h12.167c0,0-0.417-6.229,0.417-13.291
	c7.542,10.072,11.2,8.232,11.459,3.385C56.5,46.846,55.765,31.077,55.765,31.077z"/>
<polygon fill="#732EB0" points="15.906,41.383 14.11,43.457 14.008,48.217 "/>
<polygon fill="#732EB0" points="48.453,41.383 50.25,43.457 50.352,48.217 "/>
<path fill="#E6B045" d="M27.5,36.914c0,5.004,9,5.004,9,0v-5.189h-9V36.914z"/>
<path fill="#FFCC66" d="M28.406,10.022c-7.912,1.396-10.584,8.511-8.648,16.71c0.392,1.648,1.277,3.969,2.212,5.926
	c1.941,4.068,8.963,7.271,11.628,6.802c2.664-0.471,8.167-5.881,8.599-10.368c0.21-2.16,0.249-4.644,0.055-6.326
	C41.264,14.399,36.319,8.628,28.406,10.022z"/>
<path fill="#594640" d="M39.19,20.202c-1.969-0.746-5.189-0.314-6.328,0.634c-0.241,0.193-0.034,0.948,0.182,0.813
	c1.672-1.07,4.412-1.592,6.26-1.021C39.552,20.7,39.488,20.31,39.19,20.202z"/>
<path fill="#594640" d="M21.755,23.276c1.595-1.375,4.769-2.07,6.163-1.568c0.295,0.099,0.358,0.879,0.108,0.825
	c-1.938-0.435-4.692,0.013-6.231,1.181C21.586,23.868,21.512,23.479,21.755,23.276z"/>
<path fill="#E6B045" d="M34.335,29.306c0.281,1.596-4.623,2.46-4.904,0.865C29.365,29.803,34.271,28.938,34.335,29.306z"/>
<path fill="#FFFFFF" d="M39.589,23.47c-0.568,2.951-4.94,3.305-6.068,1.509C33.569,21.76,38.486,20.618,39.589,23.47z"/>
<path fill="#613F34" d="M34.47,24.063c0.432,2.45,3.976,1.825,3.544-0.625C37.612,21.162,34.068,21.787,34.47,24.063z"/>
<path fill="#7D5037" d="M34.958,24.783c0.248,1.406,3.091,0.905,2.843-0.501C37.571,22.979,34.728,23.48,34.958,24.783z"/>
<path fill="#1A1626" d="M35.513,23.918c0.179,1.018,1.649,0.758,1.47-0.26C36.816,22.715,35.346,22.975,35.513,23.918z"/>
<path fill="#AB968C" d="M34.958,23.71c0.091,0.513,0.834,0.382,0.743-0.131C35.617,23.102,34.874,23.232,34.958,23.71z"/>
<path fill="#45332C" d="M39.585,23.448c-0.523-2.974-6.667-1.89-6.061,1.554C33.902,22.021,38.293,21.247,39.585,23.448z"/>
<path fill="#FFFFFF" d="M22.497,26.483c1.546,2.578,5.775,1.415,6.221-0.658C27.571,22.817,22.56,23.427,22.497,26.483z"/>
<path fill="#613F34" d="M23.97,25.919c0.432,2.449,3.974,1.824,3.542-0.625C27.11,23.018,23.568,23.643,23.97,25.919z"/>
<path fill="#7D5037" d="M24.457,26.64c0.247,1.405,3.091,0.904,2.844-0.501C27.07,24.835,24.227,25.337,24.457,26.64z"/>
<path fill="#1A1626" d="M25.012,25.774c0.18,1.017,1.651,0.757,1.472-0.26C26.316,24.568,24.845,24.828,25.012,25.774z"/>
<path fill="#AB968C" d="M24.457,25.564c0.091,0.515,0.834,0.384,0.743-0.131C25.116,24.958,24.373,25.089,24.457,25.564z"/>
<path fill="#45332C" d="M22.493,26.462c-0.523-2.974,5.621-4.057,6.229-0.615C27.348,23.176,22.956,23.95,22.493,26.462z"/>
<path fill="#594640" d="M37.45,9.617c-4.545,6.662,0.814,6.095,5.491,13.511c2.622,4.153,4.765,9.515,4.603,1.279
	C47.339,14.118,40.122,8.284,37.45,9.617z"/>
<path fill="#594640" d="M23.449,9.84c-6.743,2.896-12.206,10.271-7.453,22.047c2.808,6.96,2.985-3.461,3.853-6.195
	c5.974-5.149,16.854-10.169,17.602-16.075C38.102,8.168,30.162,6.755,23.449,9.84z"/>
<path fill="#453631" d="M19.63,19.702c2.868-1.128,17.05-3.921,17.82-10.085C34.561,12.89,31.204,14.233,19.63,19.702z"/>
<path fill="#453631" d="M16.141,29.908c3.816-7.54,20.295-9.689,21.31-20.291C33.517,19.059,16.375,23.264,16.141,29.908z"/>
<path fill="#453631" d="M36.05,11.292c-0.931,2.258,3.019-1.513,10.147,10.707C43.66,14.566,38.656,10.025,36.05,11.292z"/>
<path fill="#C1873C" d="M35.656,33.143c-1.663,0.266-4.03,0.416-5.95,0.258c-0.725-0.059-0.911,0.939-0.152,1.037
	c2.134,0.275,4.594,0.059,6.326-0.73C36.299,33.516,36.059,33.078,35.656,33.143z"/>
</svg>
