<?xml version="1.0" encoding="utf-8"?>
<!-- Generator: Adobe Illustrator 15.0.0, SVG Export Plug-In . SVG Version: 6.00 Build 0)  -->
<!DOCTYPE svg PUBLIC "-//W3C//DTD SVG 1.1//EN" "http://www.w3.org/Graphics/SVG/1.1/DTD/svg11.dtd" [
	<!ENTITY ns_flows "http://ns.adobe.com/Flows/1.0/">
	<!ENTITY ns_extend "http://ns.adobe.com/Extensibility/1.0/">
	<!ENTITY ns_ai "http://ns.adobe.com/AdobeIllustrator/10.0/">
	<!ENTITY ns_graphs "http://ns.adobe.com/Graphs/1.0/">
]>
<svg version="1.1" id="Layer_1" xmlns:x="&ns_extend;" xmlns:i="&ns_ai;" xmlns:graph="&ns_graphs;"
	 xmlns="http://www.w3.org/2000/svg" xmlns:xlink="http://www.w3.org/1999/xlink" xmlns:a="http://ns.adobe.com/AdobeSVGViewerExtensions/3.0/"
	 x="0px" y="0px" width="64px" height="64px" viewBox="0 0 64 64" enable-background="new 0 0 64 64" xml:space="preserve">
<path fill="#302C3B" d="M9.789,49.891c2.699-1.787,15.135-6.504,15.135-6.504h14.24c0,0,12.426,4.709,15.113,6.502
	C58.18,52.486,59,62,59,62H5C5,62,5.871,52.477,9.789,49.891"/>
<rect x="23.871" y="42" fill="#755035" width="16.199" height="8.621"/>
<path fill="#1A1626" d="M53.666,53.945c-0.734,2.01-1.424,5.656-0.838,8.055C54.09,60.682,54.348,52.078,53.666,53.945"/>
<path fill="#1A1626" d="M11.172,62c0.59-2.398-0.104-6.045-0.836-8.055C9.654,52.078,9.91,60.682,11.172,62"/>
<path fill="#E6EBEF" d="M38.568,62c1.967-4.814,2.014-19.4,2.014-19.4c-2.885,5.293-8.297,7.707-8.611,7.844
	c-0.316-0.137-5.727-2.551-8.609-7.844c0,0,0.043,14.586,2.012,19.4H38.568z"/>
<path fill="#FFFFFF" d="M31.971,50.443c-0.316-0.137-5.727-2.551-8.609-7.844c0,0,0.016,4.508,0.365,9.334
	c1.068,1.799,2.848,4.598,3.539,4.598c1.02,0,4.705-5.535,4.705-5.535s3.656,5.535,4.764,5.535c0.797,0,2.471-2.695,3.477-4.529
	c0.354-4.855,0.371-9.402,0.371-9.402C37.697,47.893,32.285,50.307,31.971,50.443"/>
<path fill="#302C3B" d="M39.42,54.092c0.531,1.34-5.559-1.262-5.559-1.262v-2.953c0,0,5.918-3.484,5.527-2.094
	C38.912,49.498,38.98,52.986,39.42,54.092z"/>
<polygon fill="#4E5E67" points="36.879,51.113 34.369,50.902 36.039,49.412 33.861,50.615 33.861,52.115 36.316,52.879 
	34.434,51.713 "/>
<path fill="#302C3B" d="M24.582,54.092c-0.531,1.34,5.557-1.262,5.557-1.262v-2.953c0,0-5.92-3.484-5.529-2.094
	C25.09,49.498,25.021,52.986,24.582,54.092z"/>
<polygon fill="#4E5E67" points="27.121,51.113 29.633,50.902 27.961,49.412 30.139,50.615 30.139,52.115 27.686,52.879 
	29.566,51.713 "/>
<path fill="#302C3B" d="M33.809,53.236c-0.639,0.666-2.979,0.666-3.619,0c-0.641-0.664-0.641-3.092,0-3.756s2.98-0.664,3.619,0
	C34.449,50.145,34.449,52.572,33.809,53.236z"/>
<path fill="#302C3B" d="M33.197,56.285c0,1.615-2.395,1.615-2.395,0S33.197,54.67,33.197,56.285z"/>
<path fill="#302C3B" d="M33.197,60.043c0,1.615-2.395,1.615-2.395,0S33.197,58.428,33.197,60.043z"/>
<path fill="#4E5E67" d="M21.646,61.973c0,0-2.223-2.785-4.256-8.176l5.139-1.799l-5.756-4.764c0,0,3.596-3.572,7.131-4.645v9.408
	c0,0,0.559,4.201,3.359,9.975H21.646z"/>
<path fill="#4E5E67" d="M42.354,61.973c0,0,2.221-2.785,4.254-8.176l-5.137-1.799l5.756-4.764c0,0-3.594-3.572-7.129-4.645v9.408
	c0,0-0.561,4.201-3.361,9.975H42.354z"/>
<path fill="#755035" d="M14.902,20.749c-5.719-1.031-1.252,14.958,3.225,10.547C20.199,29.252,17.576,21.232,14.902,20.749z"/>
<path fill="#755035" d="M49.102,20.749c-2.674,0.483-5.299,8.503-3.223,10.547C50.355,35.707,54.816,19.718,49.102,20.749z"/>
<path fill="#916B50" d="M32.002,2.001c-11.824,0-17.521,8.945-16.807,21.384c0.143,2.503,1.693,10.666,3.158,13.594
	c1.498,2.994,6.512,7.613,9.584,8.57c1.939,0.604,6.188,0.604,8.127,0c3.072-0.957,8.086-5.576,9.586-8.57
	c1.465-2.928,3.016-11.091,3.158-13.594C49.523,10.946,43.826,2.001,32.002,2.001z"/>
<path fill="#664129" d="M32.002,35.863c-2.66-0.783-6.6,0.369-6.6,0.369c1.5,1.635,2.6,3.756,6.6,3.756
	c4.582,0,5.359-2.406,6.6-3.756C38.602,36.232,34.658,35.076,32.002,35.863z"/>
<path fill="#FFFFFF" d="M26.408,36.51c2.787,2.34,8.418,2.354,11.221,0C34.658,36.637,29.4,36.639,26.408,36.51z"/>
<path fill="#755035" d="M35.668,31.465c0,2.386-7.332,2.386-7.332,0C28.336,30.917,35.668,30.917,35.668,31.465z"/>
<path fill="#614036" d="M32.002,2c-8.135,0-13.049,2.688-15.168,1.655c0,0-0.23,1.388,0.6,2.291c0,0-0.877,0.758-2.291-0.521
	c-1.348,4.377,2.652,6.913,16.859,6.913s10.813-3.46,17.797,2.616C49.113,7.465,44.355,2,32.002,2z"/>
<path fill="#4A2E24" d="M38.018,8.529c-7.822,2.888-10.682-2.321-18.061-2.824c3.51,1.657,5.223,4.208,8.105,6.049
	c-6.273-2.101-10.877-5.712-11.227-8.085c0,0-1.047,3.464,3.094,6.053c-3.959,0.367-4.785-4.283-4.785-4.283
	c-2.004,3.221-1.727,13.606,0.5,21.313c0.371-2.75-0.475-3.887,0.797-7.201c3.805-9.904,1.355-5.745,15.563-5.745
	c14.205,0,11.641-3.793,15.561,5.745c1.17,2.844,0.426,4.451,0.799,7.201C53.033,9.374,46.316,5.467,38.018,8.529z"/>
<path fill="#FFFFFF" d="M44.66,24.347c-1.58,4.136-8.008,3.529-9.186,0.635C36.369,20.332,43.793,19.935,44.66,24.347z"/>
<path fill="#FFFFFF" d="M19.342,24.347c1.58,4.136,8.01,3.529,9.186,0.635C27.633,20.33,20.211,19.933,19.342,24.347z"/>
<path fill="#664129" d="M45.316,19.368c-2.705-1.342-7.879-1.407-9.807-0.472c-0.412,0.182-0.141,1.454,0.207,1.332
	c2.688-0.995,7.02-1.019,9.535,0.086C45.586,20.456,45.727,19.557,45.316,19.368z"/>
<path fill="#664129" d="M18.688,19.368c2.703-1.342,7.877-1.407,9.807-0.472c0.412,0.182,0.141,1.454-0.207,1.332
	c-2.691-0.995-7.02-1.019-9.537,0.086C18.416,20.456,18.277,19.557,18.688,19.368z"/>
<path fill="#613F34" d="M37.115,23.906c0,3.629,5.25,3.629,5.25,0C42.365,20.537,37.115,20.537,37.115,23.906z"/>
<path fill="#7D5037" d="M37.635,25.067c0,2.081,4.211,2.081,4.211,0C41.846,23.136,37.635,23.136,37.635,25.067z"/>
<path fill="#1A1626" d="M38.65,23.963c0,1.507,2.18,1.507,2.18,0C40.83,22.565,38.65,22.565,38.65,23.963z"/>
<path fill="#AB968C" d="M37.906,23.523c0,0.761,1.102,0.761,1.102,0C39.008,22.817,37.906,22.817,37.906,23.523z"/>
<path fill="#613F34" d="M21.639,23.905c0,3.63,5.25,3.63,5.25,0C26.889,20.536,21.639,20.536,21.639,23.905z"/>
<path fill="#7D5037" d="M22.158,25.066c0,2.081,4.211,2.081,4.211,0C26.369,23.135,22.158,23.135,22.158,25.066z"/>
<path fill="#1A1626" d="M23.174,23.963c0,1.506,2.18,1.506,2.18,0C25.354,22.564,23.174,22.564,23.174,23.963z"/>
<path fill="#AB968C" d="M22.43,23.522c0,0.761,1.1,0.761,1.1,0C23.529,22.816,22.43,22.816,22.43,23.522z"/>
<path fill="#755035" d="M44.66,24.315c0-4.44-9.186-4.44-9.186,0.703C36.787,20.799,43.348,20.799,44.66,24.315z"/>
<path fill="#755035" d="M19.342,24.315c0-4.44,9.186-4.44,9.186,0.702C27.217,20.796,20.654,20.796,19.342,24.315z"/>
</svg>
