<?xml version="1.0" encoding="utf-8"?>
<!-- Generator: Adobe Illustrator 19.0.0, SVG Export Plug-In . SVG Version: 6.00 Build 0)  -->
<svg version="1.1" id="Layer_1" xmlns="http://www.w3.org/2000/svg" xmlns:xlink="http://www.w3.org/1999/xlink" x="0px" y="0px"
	 width="64px" height="64px" viewBox="0 0 64 64" enable-background="new 0 0 64 64" xml:space="preserve">
<path fill="#7AB51D" d="M9.007,2.368c0,0,3.346-1.108,6.491,0.52l2.419,0.529c0.036,0.341-0.107,0.394-0.107,0.394
	s-2.243,0.784-8.669-1.1C9.141,2.712,8.961,2.668,9.007,2.368z"/>
<path fill="#302C3B" d="M13.837,6.373C13.386,4.969,8.79,4.931,9.141,2.712c0,0,3.106-1.061,6.251,0.57l2.418,0.529
	C17.809,7.553,16.344,6.984,13.837,6.373z"/>
<path fill="#7AB51D" d="M11.328,4.904c0.997-0.625,1.606-0.665,1.559-0.107c0.646-0.285,0.903,0.091,0.838,0.418
	c0.66-0.14,0.774,0.416-0.061,0.857C13.189,6.298,11.059,5.071,11.328,4.904z"/>
<path fill="#FFCC66" d="M16.968,6.263c1.935,4.521,4.287,5.684,4.748,10.083c1.062,3.894,2.57,4.817,3.723,8.514
	c-0.288,1.634-3.199,2.564-5.368,2.295c-2.202-6.554-2.702-9.786-2.706-10.963c-0.003-0.887-0.07-3.04-2.87-8.957
	C14.266,6.752,16.864,6.018,16.968,6.263z"/>
<path fill="#F2F5F7" d="M17.199,5.988c0.085,0.055,0.073,0.943,0.073,0.943c-0.675-0.319-2.452-0.183-2.778,0.303
	c-0.126-0.281-0.262-0.562-0.39-0.855C13.947,6.028,16.311,5.403,17.199,5.988z"/>
<path fill="#7AB51D" d="M55.001,20.34c0,0-1.57-3.049-5.047-4.027l-2.133-1.264c-0.281,0.216-0.219,0.351-0.219,0.351
	s1.024,2.073,7.045,5.092C54.647,20.493,54.809,20.584,55.001,20.34z"/>
<path fill="#302C3B" d="M48.536,19.901c1.375-0.687,4.699,2.398,6.111,0.592c0,0-1.434-2.853-4.912-3.829L47.602,15.4
	C44.799,18.046,46.276,18.637,48.536,19.901z"/>
<path fill="#7AB51D" d="M51.436,20.562c-0.248-1.117-0.654-1.558-1.039-1.131c-0.25-0.638-0.717-0.546-0.916-0.272
	c-0.367-0.546-0.865-0.23-0.598,0.647C49.055,20.287,51.505,20.862,51.436,20.562z"/>
<path fill="#FFCC66" d="M46.446,17.663c-4.634,1.769-7.069,0.844-10.592,3.592c-3.572,1.961-5.33,1.556-8.822,3.312
	c-0.989,1.354,0.347,4.109,2.045,5.488c6.301-2.999,8.996-4.579,9.856-5.401c0.647-0.62,2.268-2.4,8.519-4.522
	C47.962,19.959,46.698,17.566,46.446,17.663z"/>
<path fill="#F2F5F7" d="M46.485,17.303c-0.098-0.022-0.736,0.607-0.736,0.607c0.701,0.264,1.83,1.645,1.703,2.221
	c0.293-0.106,0.59-0.205,0.893-0.316C48.71,19.682,47.53,17.537,46.485,17.303z"/>
<path fill="#302C3B" d="M18.627,23.112c0,0,2.819-0.015,5.979-1.888c0,0,0.825,2.445,1.688,3.234
	c1.132-0.74,3.685-1.912,3.685-1.912s0.66,3.423,3.69,5.639c0,0-4.268,2.557-5.321,4.298c0,0-4.188,1.583-8.612-1.293
	C19.736,31.189,18.596,26.517,18.627,23.112z"/>
<path fill="#FFCC66" d="M32.022,41.811c1.107,0.233,2.117,0.466,2.798,0.666c1.709,1.797,3.997,3.121,5.571,5.576
	c0.255,0.4-0.632,1.493,0.296,3.815c0.401,0.999,1.37,0.184,0.835-1.462c1.111-0.385,1.141,3.722,2.246,2.513
	c1.221-1.341,0.861-4.026,0.598-4.712c-0.24-0.613-1.634-1.257-2.009-1.7c-1.851-2.174-4.563-6.27-5.399-6.729
	c-0.351-0.193-1.843-1.22-3.282-1.701C33.147,39.332,32.598,40.577,32.022,41.811z"/>
<path fill="#FFCC66" d="M15.457,59.985C12.511,61.018,10.534,62,14.402,62c4.021,0,3.468-0.636,4.526-0.454
	C20.147,61.757,20.577,62,21.776,62c1.195,0,1.101-0.768-0.425-1.197c-1.441-0.406-1.896-1.003-2.239-2.428
	c-0.574-2.391-0.903-7.502-0.903-7.502s0.368-1.847,1.554-3.476l-3.402-2.56c-2.09,6.995-1.905,3.689,0.175,12.615
	C16.808,58.616,16.524,59.61,15.457,59.985z"/>
<path fill="#7AB51D" d="M15.82,45.29c0,0,2.19,0.79,3.899,2.917c0,0,0.455-2.128,1.894-3.37c3.202-1.469,3.617,0.573,8.316-2.385
	l3.371-0.084c0,0-0.1-2.373,0.984-4.394c0,0-2.238-0.54-3.444-0.794c-0.176-0.037-2.272-2.322-1.501-5.92
	c0,0-5.417,0.616-10.025-1.205c-0.712,4.037,1.446,7.679,0.087,10.326C18.951,41.038,16.794,43.063,15.82,45.29z"/>
<path fill="#E6B045" d="M28.162,42.703c-0.394-2.233-4.718-1.47-4.325,0.764l0.407,2.315l4.325-0.764L28.162,42.703z"/>
<path fill="#E6B045" d="M32.522,49.518c1.803,0.007-0.424-4.651-1.556-3.058C30.443,47.198,31.681,49.514,32.522,49.518z"/>
<path fill="#E6B045" d="M22.064,51.365c0.793-0.293,1.16-2.892,0.415-3.406C20.873,46.85,20.37,51.99,22.064,51.365z"/>
<path fill="#FFCC66" d="M28.305,56.185c3.613-0.638,4.875-3.687,3.985-7.459c-0.18-0.759-1.091-3.175-1.698-3.993
	c-0.62-0.837-2.401-1.982-3.394-2.108c-0.625-0.081-1.925,0.149-2.484,0.439c-0.888,0.458-2.173,2.144-2.469,3.144
	c-0.29,0.977-0.324,3.56-0.234,4.335C22.464,54.391,24.688,56.824,28.305,56.185z"/>
<path fill="#E6A400" d="M26.479,45.811c0.855,0.096,1.999-0.47,1.999-0.47c-0.548-0.419-1-1.01-2.222-0.794
	c-1.402,0.248-1.511,1.027-1.814,1.507C24.441,46.053,25.708,46.195,26.479,45.811z"/>
<path fill="#FFFFFF" d="M28.154,45.309c-0.98-0.565-2.701-0.266-3.433,0.607C25.625,45.717,27.232,45.432,28.154,45.309z"/>
<path fill="#E6B045" d="M25.593,47.356c-0.128-0.731,2.112-1.126,2.241-0.396C27.864,47.128,25.623,47.524,25.593,47.356z"/>
<path fill="#594640" d="M28.305,56.186c2.486-0.439,3.845-1.528,4.547-1.327c0,0-0.003-0.438-0.308-0.67
	c0,0,0.229-0.279,0.732,0.036c0.177-1.414-1.185-1.974-5.528-1.207c-4.344,0.768-3.119,1.645-5.586,0.16
	C22.776,55.435,24.525,56.853,28.305,56.186z"/>
<path fill="#453631" d="M26.112,54.51c2.235-1.307,3.391,0.135,5.676-0.11c-1.164-0.318-1.825-1.007-2.807-1.416
	c2.033,0.305,3.636,1.163,3.87,1.871c0,0,0.133-1.118-1.272-1.688c1.19-0.326,1.695,1.053,1.695,1.053
	c0.438-1.094-0.207-4.261-1.303-6.502c0.034,0.863,0.355,1.165,0.144,2.249c-0.629,3.24-0.106,1.834-4.45,2.602
	c-4.344,0.768-3.355,1.791-5.067-0.919c-0.512-0.808-0.37-1.341-0.632-2.164C21.474,55.063,23.738,55.897,26.112,54.51z"/>
<path fill="#FFFFFF" d="M23.228,50.023c0.261-1.353,2.259-1.515,2.773-0.691C25.98,50.805,23.731,51.327,23.228,50.023z"/>
<path fill="#FFFFFF" d="M30.969,48.655c-0.703-1.182-2.639-0.649-2.842,0.302C28.651,50.333,30.944,50.054,30.969,48.655z"/>
<path fill="#C1873C" d="M23.297,51.584c0.898,0.265,2.484,0.005,3.023-0.386c0.115-0.077-0.034-0.452-0.136-0.396
	c-0.769,0.45-2.09,0.691-2.918,0.489C23.154,51.264,23.158,51.548,23.297,51.584z"/>
<path fill="#C1873C" d="M31.44,50.145c-0.755,0.557-2.335,0.856-2.975,0.674c-0.136-0.033-0.122-0.438-0.009-0.419
	c0.877,0.16,2.201-0.066,2.912-0.542C31.465,49.796,31.555,50.065,31.44,50.145z"/>
<path fill="#613F34" d="M25.558,49.751c-0.193-1.112-1.8-0.828-1.605,0.283C24.135,51.066,25.74,50.782,25.558,49.751z"/>
<path fill="#7D5037" d="M25.336,49.422c-0.111-0.637-1.4-0.41-1.287,0.228C24.151,50.242,25.439,50.015,25.336,49.422z"/>
<path fill="#1A1626" d="M25.085,49.815c-0.081-0.461-0.747-0.344-0.666,0.118C24.495,50.362,25.16,50.244,25.085,49.815z"/>
<path fill="#AB968C" d="M25.337,49.911c-0.041-0.234-0.377-0.174-0.336,0.059C25.039,50.186,25.375,50.127,25.337,49.911z"/>
<path fill="#613F34" d="M30.293,48.914c-0.196-1.112-1.803-0.828-1.607,0.284C28.867,50.23,30.474,49.946,30.293,48.914z"/>
<path fill="#7D5037" d="M30.07,48.587c-0.112-0.638-1.399-0.411-1.288,0.227C28.887,49.406,30.175,49.178,30.07,48.587z"/>
<path fill="#1A1626" d="M29.818,48.979c-0.079-0.461-0.748-0.343-0.666,0.118C29.228,49.526,29.896,49.408,29.818,48.979z"/>
<path fill="#AB968C" d="M30.068,49.074c-0.041-0.233-0.377-0.174-0.335,0.06C29.772,49.35,30.107,49.291,30.068,49.074z"/>
<path fill="#E6B045" d="M23.229,50.032c0.24,1.36,3.049,0.864,2.77-0.711C25.824,50.685,23.82,51.039,23.229,50.032z"/>
<path fill="#E6B045" d="M30.97,48.665c0.24,1.36-2.567,1.856-2.846,0.281C28.754,50.168,30.761,49.814,30.97,48.665z"/>
</svg>
