<?xml version="1.0" encoding="utf-8"?>
<!-- Generator: Adobe Illustrator 15.0.0, SVG Export Plug-In . SVG Version: 6.00 Build 0)  -->
<!DOCTYPE svg PUBLIC "-//W3C//DTD SVG 1.1//EN" "http://www.w3.org/Graphics/SVG/1.1/DTD/svg11.dtd" [
	<!ENTITY ns_flows "http://ns.adobe.com/Flows/1.0/">
	<!ENTITY ns_extend "http://ns.adobe.com/Extensibility/1.0/">
	<!ENTITY ns_ai "http://ns.adobe.com/AdobeIllustrator/10.0/">
	<!ENTITY ns_graphs "http://ns.adobe.com/Graphs/1.0/">
]>
<svg version="1.1" id="Layer_1" xmlns:x="&ns_extend;" xmlns:i="&ns_ai;" xmlns:graph="&ns_graphs;"
	 xmlns="http://www.w3.org/2000/svg" xmlns:xlink="http://www.w3.org/1999/xlink" xmlns:a="http://ns.adobe.com/AdobeSVGViewerExtensions/3.0/"
	 x="0px" y="0px" width="64px" height="64px" viewBox="0 0 64 64" enable-background="new 0 0 64 64" xml:space="preserve">
<linearGradient id="SVGID_1_" gradientUnits="userSpaceOnUse" x1="22.001" y1="16" x2="42.001" y2="16">
	<stop  offset="0" style="stop-color:#FF000E"/>
	<stop  offset="0.7283" style="stop-color:#DD0004"/>
	<stop  offset="1" style="stop-color:#CF0000"/>
	<a:midPointStop  offset="0" style="stop-color:#FF000E"/>
	<a:midPointStop  offset="0.5273" style="stop-color:#FF000E"/>
	<a:midPointStop  offset="1" style="stop-color:#CF0000"/>
</linearGradient>
<polygon fill="url(#SVGID_1_)" points="36.001,2 22.001,30 28.001,30 42.001,2 "/>
<linearGradient id="SVGID_2_" gradientUnits="userSpaceOnUse" x1="34.001" y1="16" x2="54" y2="16">
	<stop  offset="0" style="stop-color:#005687"/>
	<stop  offset="0.2619" style="stop-color:#0B669B"/>
	<stop  offset="0.7365" style="stop-color:#1C7FBB"/>
	<stop  offset="1" style="stop-color:#2289C7"/>
	<a:midPointStop  offset="0" style="stop-color:#005687"/>
	<a:midPointStop  offset="0.4242" style="stop-color:#005687"/>
	<a:midPointStop  offset="1" style="stop-color:#2289C7"/>
</linearGradient>
<polygon fill="url(#SVGID_2_)" points="48.001,2 34.001,30 40,30 54,2 "/>
<linearGradient id="SVGID_3_" gradientUnits="userSpaceOnUse" x1="28.001" y1="16" x2="48.001" y2="16">
	<stop  offset="0.3333" style="stop-color:#EEF2F5"/>
	<stop  offset="0.647" style="stop-color:#E4E8EA"/>
	<stop  offset="1" style="stop-color:#D4D7D9"/>
	<a:midPointStop  offset="0.3333" style="stop-color:#EEF2F5"/>
	<a:midPointStop  offset="0.5856" style="stop-color:#EEF2F5"/>
	<a:midPointStop  offset="1" style="stop-color:#D4D7D9"/>
</linearGradient>
<polygon fill="url(#SVGID_3_)" points="42.001,2 28.001,30 34.001,30 48.001,2 "/>
<path fill="#EA8800" d="M43.001,28h-22c0,0-1,0-1,1v7h2v-6h19c0,0,1,0,1,1v5h2v-7C44.001,28,43.001,28,43.001,28z"/>
<linearGradient id="SVGID_4_" gradientUnits="userSpaceOnUse" x1="22.001" y1="16" x2="40.001" y2="16">
	<stop  offset="0" style="stop-color:#005687"/>
	<stop  offset="0.2619" style="stop-color:#0B669B"/>
	<stop  offset="0.7365" style="stop-color:#1C7FBB"/>
	<stop  offset="1" style="stop-color:#2289C7"/>
	<a:midPointStop  offset="0" style="stop-color:#005687"/>
	<a:midPointStop  offset="0.4242" style="stop-color:#005687"/>
	<a:midPointStop  offset="1" style="stop-color:#2289C7"/>
</linearGradient>
<polygon fill="url(#SVGID_4_)" points="28.001,2 22.001,2 34.001,30 40.001,30 "/>
<linearGradient id="SVGID_5_" gradientUnits="userSpaceOnUse" x1="10" y1="16" x2="28.001" y2="16">
	<stop  offset="0" style="stop-color:#CF0000"/>
	<stop  offset="0.2717" style="stop-color:#DD0004"/>
	<stop  offset="1" style="stop-color:#FF000E"/>
	<a:midPointStop  offset="0" style="stop-color:#CF0000"/>
	<a:midPointStop  offset="0.4727" style="stop-color:#CF0000"/>
	<a:midPointStop  offset="1" style="stop-color:#FF000E"/>
</linearGradient>
<polygon fill="url(#SVGID_5_)" points="16.001,2 10,2 22,30 28.001,30 "/>
<radialGradient id="SVGID_6_" cx="25.001" cy="16" r="11.7686" gradientUnits="userSpaceOnUse">
	<stop  offset="0.3333" style="stop-color:#EEF2F5"/>
	<stop  offset="0.647" style="stop-color:#E4E8EA"/>
	<stop  offset="1" style="stop-color:#D4D7D9"/>
	<a:midPointStop  offset="0.3333" style="stop-color:#EEF2F5"/>
	<a:midPointStop  offset="0.5856" style="stop-color:#EEF2F5"/>
	<a:midPointStop  offset="1" style="stop-color:#D4D7D9"/>
</radialGradient>
<polygon fill="url(#SVGID_6_)" points="28.001,30 34.001,30 22.001,2 16.001,2 "/>
<radialGradient id="SVGID_7_" cx="44.3555" cy="43.7764" r="14" gradientTransform="matrix(0.8081 -0.8081 4.0406 4.0406 -180.7268 -95.0382)" gradientUnits="userSpaceOnUse">
	<stop  offset="0.1636" style="stop-color:#EA8800"/>
	<stop  offset="0.3526" style="stop-color:#E48402"/>
	<stop  offset="0.6038" style="stop-color:#D37806"/>
	<stop  offset="0.8887" style="stop-color:#B8650D"/>
	<stop  offset="1" style="stop-color:#AB5C10"/>
	<a:midPointStop  offset="0.1636" style="stop-color:#EA8800"/>
	<a:midPointStop  offset="0.6466" style="stop-color:#EA8800"/>
	<a:midPointStop  offset="1" style="stop-color:#AB5C10"/>
</radialGradient>
<ellipse fill="url(#SVGID_7_)" cx="32" cy="46" rx="16" ry="16"/>
<radialGradient id="SVGID_8_" cx="44.3555" cy="43.7764" r="11.9995" gradientTransform="matrix(0.8081 0.8081 -1.6162 1.6162 66.9098 -60.5975)" gradientUnits="userSpaceOnUse">
	<stop  offset="0.1636" style="stop-color:#EA8800"/>
	<stop  offset="0.3526" style="stop-color:#E48402"/>
	<stop  offset="0.6038" style="stop-color:#D37806"/>
	<stop  offset="0.8887" style="stop-color:#B8650D"/>
	<stop  offset="1" style="stop-color:#AB5C10"/>
	<a:midPointStop  offset="0.1636" style="stop-color:#EA8800"/>
	<a:midPointStop  offset="0.6466" style="stop-color:#EA8800"/>
	<a:midPointStop  offset="1" style="stop-color:#AB5C10"/>
</radialGradient>
<path fill="url(#SVGID_8_)" d="M32,32.286c7.58,0,13.714,6.143,13.714,13.714S39.58,59.714,32,59.714
	c-7.576,0-13.714-6.143-13.714-13.714S24.424,32.286,32,32.286z"/>
<path fill="#8F4500" d="M27.548,41.298h-0.911c0.284-0.782,0.695-1.46,1.23-2.03c0.535-0.571,1.168-1.009,1.898-1.313
	c0.73-0.303,1.532-0.455,2.405-0.455c0.806,0,1.551,0.139,2.233,0.414s1.214,0.654,1.594,1.138s0.568,1.028,0.568,1.635
	c0,1.422-1.07,2.728-3.215,3.918c2.75,0.791,4.126,2.257,4.126,4.397c0,0.758-0.187,1.473-0.563,2.144
	c-0.374,0.671-0.896,1.261-1.564,1.768s-1.436,0.898-2.298,1.173c-0.863,0.276-1.788,0.414-2.774,0.414
	c-1.015,0-1.895-0.174-2.64-0.521s-1.116-0.76-1.116-1.239c0-0.312,0.144-0.575,0.428-0.791s0.631-0.323,1.037-0.323
	c0.305,0,0.6,0.062,0.89,0.186c0.289,0.124,0.659,0.307,1.11,0.545c0.45,0.239,0.801,0.408,1.052,0.503
	c0.252,0.097,0.524,0.144,0.818,0.144c0.721,0,1.304-0.232,1.75-0.7s0.668-1.085,0.668-1.851c0-0.742-0.22-1.414-0.66-2.014
	c-0.441-0.598-1.065-1.1-1.871-1.503c-0.807-0.403-1.769-0.681-2.889-0.833v-0.695c0.883-0.184,1.651-0.452,2.305-0.808
	c0.655-0.355,1.165-0.776,1.53-1.265c0.365-0.486,0.548-0.994,0.548-1.521c0-0.422-0.109-0.807-0.328-1.149
	c-0.218-0.343-0.526-0.613-0.924-0.81c-0.398-0.195-0.84-0.293-1.324-0.293C29.4,39.561,28.363,40.14,27.548,41.298z"/>
</svg>
