<?xml version="1.0" encoding="utf-8"?>
<!-- Generator: Adobe Illustrator 15.0.0, SVG Export Plug-In . SVG Version: 6.00 Build 0)  -->
<!DOCTYPE svg PUBLIC "-//W3C//DTD SVG 1.1//EN" "http://www.w3.org/Graphics/SVG/1.1/DTD/svg11.dtd" [
	<!ENTITY ns_flows "http://ns.adobe.com/Flows/1.0/">
	<!ENTITY ns_extend "http://ns.adobe.com/Extensibility/1.0/">
	<!ENTITY ns_ai "http://ns.adobe.com/AdobeIllustrator/10.0/">
	<!ENTITY ns_graphs "http://ns.adobe.com/Graphs/1.0/">
]>
<svg version="1.1" id="Layer_1" xmlns:x="&ns_extend;" xmlns:i="&ns_ai;" xmlns:graph="&ns_graphs;"
	 xmlns="http://www.w3.org/2000/svg" xmlns:xlink="http://www.w3.org/1999/xlink" xmlns:a="http://ns.adobe.com/AdobeSVGViewerExtensions/3.0/"
	 x="0px" y="0px" width="64px" height="64px" viewBox="0 0 64 64" enable-background="new 0 0 64 64" xml:space="preserve">
<path fill="#C5D7E8" d="M2,6.676l4.799,49.971C7.49,59.58,18.109,62,32,62c13.89,0,24.509-2.42,25.201-5.354L62,6.676H2z"/>
<polygon fill="#E6EBEF" points="4.4,6.676 6.799,31.889 57.201,31.889 59.6,6.676 "/>
<radialGradient id="SVGID_1_" cx="32.375" cy="47.9316" r="28.1257" gradientTransform="matrix(1 0 0 0.5784 0 20.2058)" gradientUnits="userSpaceOnUse">
	<stop  offset="0" style="stop-color:#FFAC07"/>
	<stop  offset="0.1526" style="stop-color:#FBA807"/>
	<stop  offset="0.3108" style="stop-color:#F09B06"/>
	<stop  offset="0.4715" style="stop-color:#DD8705"/>
	<stop  offset="0.6341" style="stop-color:#C26A04"/>
	<stop  offset="0.798" style="stop-color:#A04402"/>
	<stop  offset="0.961" style="stop-color:#761701"/>
	<stop  offset="1" style="stop-color:#6B0B00"/>
	<a:midPointStop  offset="0" style="stop-color:#FFAC07"/>
	<a:midPointStop  offset="0.7" style="stop-color:#FFAC07"/>
	<a:midPointStop  offset="1" style="stop-color:#6B0B00"/>
</radialGradient>
<path fill="url(#SVGID_1_)" d="M7.999,45.276c1.166,9.266,46.835,9.266,48.001,0l1.201-13.388H6.799L7.999,45.276z"/>
<radialGradient id="SVGID_2_" cx="32" cy="31.8887" r="25.1784" gradientTransform="matrix(1 0 0 0.126 0 27.8692)" gradientUnits="userSpaceOnUse">
	<stop  offset="0" style="stop-color:#FFAC07"/>
	<stop  offset="0.1839" style="stop-color:#FCA807"/>
	<stop  offset="0.3745" style="stop-color:#F19B06"/>
	<stop  offset="0.5682" style="stop-color:#E08705"/>
	<stop  offset="0.764" style="stop-color:#C86A03"/>
	<stop  offset="0.9596" style="stop-color:#AA4501"/>
	<stop  offset="1" style="stop-color:#A33C00"/>
	<a:midPointStop  offset="0" style="stop-color:#FFAC07"/>
	<a:midPointStop  offset="0.7" style="stop-color:#FFAC07"/>
	<a:midPointStop  offset="1" style="stop-color:#A33C00"/>
</radialGradient>
<path fill="url(#SVGID_2_)" d="M32,29.211c-13.889,0-25.202,1.19-25.202,2.678C7.4,33.376,18.111,34.566,32,34.566
	c13.888,0,24.599-1.19,25.201-2.678C57.201,30.401,45.889,29.211,32,29.211z"/>
<path fill="#C5D7E8" d="M32,4C15.431,4,2,5.069,2,6.676c0.787,1.757,13.431,2.678,30,2.678c16.568,0,28.798-1.07,30-2.678
	C62,5.271,48.568,4,32,4z"/>
<path fill="#E6EBEF" d="M32,4.785c-18.655,0-27.6,0.948-27.6,1.861S16.758,8.3,32,8.3C47.242,8.3,59.6,7.56,59.6,6.646
	S50.654,4.785,32,4.785z"/>
<path opacity="0.35" fill="#FFFFFF" d="M46.992,31.4c-1.033-1.075-8.867-2.012-10.313-2.012c-1.688,0-6.443,6.823-6.443,8.321
	c0,2.705,2.833,10.503,3.751,11.453c1.031,1.069,9.473,1.687,10.914,1.687c1.51,0,7.838-7.825,7.838-9.322
	C52.74,41.055,47.779,32.225,46.992,31.4z"/>
<path opacity="0.7" fill="#ABD6FF" d="M47.5,32.107c-0.227-0.347-0.404-0.599-0.508-0.707c-1.033-1.075-8.867-2.012-10.313-2.012
	c-0.625,0-1.672,0.939-2.742,2.195C38.18,32.599,42.904,32.533,47.5,32.107z"/>
<path opacity="0.35" fill="#FFFFFF" d="M28.854,44.271c-1.082,1.076-9.312,2.019-10.828,2.019c-1.773,0-6.768-6.851-6.768-8.355
	c0-2.717,2.977-10.546,3.939-11.497c1.084-1.076,9.949-1.695,11.462-1.695c1.586,0.001,8.228,7.858,8.228,9.359
	C34.889,34.577,29.68,43.44,28.854,44.271z"/>
<path opacity="0.7" fill="#ABD6FF" d="M26.651,24.742c-1.514,0-10.378,0.619-11.462,1.695c-0.382,0.378-1.082,1.846-1.787,3.642
	c0.281,3.719,19.78,3.766,19.587,0.771C30.37,27.423,27.487,24.743,26.651,24.742z"/>
<path fill="#96AAB0" d="M8.666,53.697c19.209,4.432,22.963,5.307,44.934-0.234C36.988,54.701,24.136,55.336,8.666,53.697z"/>
<path fill="#96AAB0" d="M15.676,56.621c12.508,2.919,26.588,2.174,39.658-1.254C41.998,55.727,29.088,57.141,15.676,56.621z"/>
<linearGradient id="SVGID_3_" gradientUnits="userSpaceOnUse" x1="14.0244" y1="49.5381" x2="14.0244" y2="4.5213">
	<stop  offset="0" style="stop-color:#FFFFFF;stop-opacity:0"/>
	<stop  offset="0.1142" style="stop-color:#FFFFFF;stop-opacity:0.1142"/>
	<stop  offset="1" style="stop-color:#FFFFFF"/>
	<a:midPointStop  offset="0" style="stop-color:#FFFFFF;stop-opacity:0"/>
	<a:midPointStop  offset="0.2303" style="stop-color:#FFFFFF;stop-opacity:0"/>
	<a:midPointStop  offset="1" style="stop-color:#FFFFFF"/>
</linearGradient>
<path opacity="0.7" fill="url(#SVGID_3_)" enable-background="new    " d="M6.799,9.996c0,0,2.367,25.271,3.118,35.729
	c0.094,1.313,11.339,5.269,11.333,3.25c-0.033-11.993-0.833-38.063-0.833-38.063S10.188,10.704,6.799,9.996z"/>
</svg>
