<?xml version="1.0" encoding="utf-8"?>
<!-- Generator: Adobe Illustrator 15.0.0, SVG Export Plug-In . SVG Version: 6.00 Build 0)  -->
<!DOCTYPE svg PUBLIC "-//W3C//DTD SVG 1.1//EN" "http://www.w3.org/Graphics/SVG/1.1/DTD/svg11.dtd" [
	<!ENTITY ns_flows "http://ns.adobe.com/Flows/1.0/">
	<!ENTITY ns_extend "http://ns.adobe.com/Extensibility/1.0/">
	<!ENTITY ns_ai "http://ns.adobe.com/AdobeIllustrator/10.0/">
	<!ENTITY ns_graphs "http://ns.adobe.com/Graphs/1.0/">
]>
<svg version="1.1" id="Layer_1" xmlns:x="&ns_extend;" xmlns:i="&ns_ai;" xmlns:graph="&ns_graphs;"
	 xmlns="http://www.w3.org/2000/svg" xmlns:xlink="http://www.w3.org/1999/xlink" xmlns:a="http://ns.adobe.com/AdobeSVGViewerExtensions/3.0/"
	 x="0px" y="0px" width="64px" height="64px" viewBox="0 0 64 64" enable-background="new 0 0 64 64" xml:space="preserve">
<linearGradient id="SVGID_1_" gradientUnits="userSpaceOnUse" x1="19.5513" y1="310.1807" x2="19.5513" y2="246.1582" gradientTransform="matrix(0.7071 0.7071 -0.7071 0.7071 211.4033 -186.0821)">
	<stop  offset="0" style="stop-color:#6B0B00"/>
	<stop  offset="0.2" style="stop-color:#BD3422"/>
	<stop  offset="0.8" style="stop-color:#BD3422"/>
	<stop  offset="1" style="stop-color:#6B0B00"/>
	<a:midPointStop  offset="0" style="stop-color:#6B0B00"/>
	<a:midPointStop  offset="0.5" style="stop-color:#6B0B00"/>
	<a:midPointStop  offset="0.2" style="stop-color:#BD3422"/>
	<a:midPointStop  offset="0.5" style="stop-color:#BD3422"/>
	<a:midPointStop  offset="0.8" style="stop-color:#BD3422"/>
	<a:midPointStop  offset="0.5" style="stop-color:#BD3422"/>
	<a:midPointStop  offset="1" style="stop-color:#6B0B00"/>
</linearGradient>
<path fill="url(#SVGID_1_)" d="M48.767,5.558c-1.42-0.75-1.988-3.092-2.809-3.525c-0.796-0.423-8.761,3.244-13.954,10.91
	c-2.112,3.119-4.083,6.908-12.379,11.447c-8.301,4.54-5.965,6.663-17.224,17.613c-1.472,1.435,1.301,2.727,5.013,3.51
	c3.264,0.69,2.258,4.562,3.704,3.157c7.423-7.22,9.273-14.922,17.574-19.461c8.3-4.541,10.228-8.351,12.338-11.472
	c5.192-7.663,12.303-7.702,15.018-10.343C57.606,5.876,50.183,6.311,48.767,5.558z"/>
<path fill="#FAAA52" d="M26.356,27.849c6.587-4.208,8.085-5.902,12.622-12.103c3.722-5.092,8.262-8.1,11.689-9.801
	c-0.845-0.089-1.552-0.202-1.9-0.388c-0.168-0.088-0.326-0.204-0.472-0.332c-2.985,1.476-6.686,4.309-10.829,9.719
	c-7.419,9.694-11.404,8.188-19.997,18.749c-4.784,5.88-7.792,9.63-9.998,11.835c1.113,0.255,1.718,0.884,2.097,1.538
	C17.561,38.544,20.418,31.641,26.356,27.849z"/>
<path fill="#FAAA52" d="M21.552,26.813c6.587-4.92,9.01-5.532,15.515-13.888c2.644-3.396,6.839-6.629,10.258-8.938
	c-0.354-0.58-0.647-1.158-0.951-1.549c-4.576,2.883-8.488,5.382-15.076,13.85c-7.027,9.034-11.906,7.171-16.563,13.135
	C10.077,35.389,5.01,40.38,2.106,43.178c0.135,0.266,0.398,0.524,0.774,0.767c5.489-5.298,10.132-12.102,8.024-8.036
	c-1.306,2.515-4.015,6.099-6.267,8.851c0.515,0.181,1.088,0.351,1.7,0.505C10.022,40.052,13.319,32.965,21.552,26.813z"/>
<radialGradient id="SVGID_2_" cx="-5.2021" cy="139.1914" r="14.1967" gradientTransform="matrix(0.2857 0.1794 -0.2216 0.2597 51.0828 -4.3974)" gradientUnits="userSpaceOnUse">
	<stop  offset="0" style="stop-color:#FFFFFF"/>
	<stop  offset="1" style="stop-color:#FFFFFF;stop-opacity:0"/>
	<a:midPointStop  offset="0" style="stop-color:#FFFFFF"/>
	<a:midPointStop  offset="0.5" style="stop-color:#FFFFFF"/>
	<a:midPointStop  offset="1" style="stop-color:#FFFFFF;stop-opacity:0"/>
</radialGradient>
<path opacity="0.4" fill="url(#SVGID_2_)" d="M22.951,33.448c-4.77,5.589-13.173,0.311-8.405-5.277
	C19.312,22.586,27.717,27.866,22.951,33.448z"/>
<radialGradient id="SVGID_3_" cx="21.7275" cy="107.9902" r="14.1981" gradientTransform="matrix(0.2741 0.19 -0.2343 0.2656 59.431 -21.7352)" gradientUnits="userSpaceOnUse">
	<stop  offset="0" style="stop-color:#FFFFFF"/>
	<stop  offset="1" style="stop-color:#FFFFFF;stop-opacity:0"/>
	<a:midPointStop  offset="0" style="stop-color:#FFFFFF"/>
	<a:midPointStop  offset="0.5" style="stop-color:#FFFFFF"/>
	<a:midPointStop  offset="1" style="stop-color:#FFFFFF;stop-opacity:0"/>
</radialGradient>
<path opacity="0.4" fill="url(#SVGID_3_)" d="M44.117,13.87c-5.036,5.712-13.101,0.123-8.062-5.59
	C41.095,2.569,49.156,8.158,44.117,13.87z"/>
<linearGradient id="SVGID_4_" gradientUnits="userSpaceOnUse" x1="35.7988" y1="74.1963" x2="35.7988" y2="16.6455" gradientTransform="matrix(0.7071 0.7071 0.7071 -0.7071 -17.9044 43.2256)">
	<stop  offset="0" style="stop-color:#6B0B00"/>
	<stop  offset="0.2" style="stop-color:#BD3422"/>
	<stop  offset="0.8" style="stop-color:#BD3422"/>
	<stop  offset="1" style="stop-color:#6B0B00"/>
	<a:midPointStop  offset="0" style="stop-color:#6B0B00"/>
	<a:midPointStop  offset="0.5" style="stop-color:#6B0B00"/>
	<a:midPointStop  offset="0.2" style="stop-color:#BD3422"/>
	<a:midPointStop  offset="0.5" style="stop-color:#BD3422"/>
	<a:midPointStop  offset="0.8" style="stop-color:#BD3422"/>
	<a:midPointStop  offset="0.5" style="stop-color:#BD3422"/>
	<a:midPointStop  offset="1" style="stop-color:#6B0B00"/>
</linearGradient>
<path fill="url(#SVGID_4_)" d="M22.64,54.695c-0.812-1.414-3.101-2.109-3.57-2.926c-0.457-0.791,2.567-8.225,9.616-12.733
	c2.866-1.835,6.388-3.493,10.23-11.187c3.845-7.698,6.035-5.318,15.856-15.459c1.287-1.326,2.707,1.424,3.695,5.045
	c0.869,3.184,4.531,2.462,3.271,3.764c-6.477,6.686-13.771,7.98-17.613,15.678c-3.844,7.699-7.387,9.313-10.257,11.146
	c-7.045,4.511-6.634,11.35-9.003,13.795C23.504,63.221,23.455,56.105,22.64,54.695z"/>
<path fill="#FAAA52" d="M42.671,34.543c-3.633,6.072-5.168,7.404-10.846,11.377c-4.663,3.26-7.271,7.436-8.692,10.629
	c-0.14-0.818-0.292-1.506-0.492-1.854c-0.096-0.168-0.215-0.326-0.35-0.475c1.231-2.778,3.723-6.16,8.667-9.804
	c8.858-6.526,7.157-10.454,16.772-18.053c5.357-4.233,8.774-6.89,10.757-8.872c0.315,1.086,0.959,1.709,1.612,2.113
	C52.403,26.757,45.942,29.071,42.671,34.543z"/>
<path fill="#FAAA52" d="M41.37,29.855c-4.317,6.028-4.754,8.321-12.381,14.05c-3.101,2.329-5.946,6.161-7.952,9.303
	c-0.58-0.374-1.155-0.695-1.549-1.013c2.484-4.221,4.641-7.826,12.371-13.627c8.248-6.194,6.147-11.002,11.59-15.105
	c5.446-4.106,9.475-6.052,13.221-10.488c0.75,0.962,1.302,2.81,1.49,3.409C53.379,19.599,46.769,22.322,41.37,29.855z"/>
<radialGradient id="SVGID_5_" cx="186.6641" cy="-19.0107" r="12.7636" gradientTransform="matrix(0.2121 0.3184 0.2623 -0.219 10.4316 -36.1921)" gradientUnits="userSpaceOnUse">
	<stop  offset="0" style="stop-color:#FFFFFF"/>
	<stop  offset="1" style="stop-color:#FFFFFF;stop-opacity:0"/>
	<a:midPointStop  offset="0" style="stop-color:#FFFFFF"/>
	<a:midPointStop  offset="0.5" style="stop-color:#FFFFFF"/>
	<a:midPointStop  offset="1" style="stop-color:#FFFFFF;stop-opacity:0"/>
</radialGradient>
<path opacity="0.4" fill="url(#SVGID_5_)" d="M47.842,31.621c5.075-4.236-0.534-12.656-5.608-8.422
	C37.161,27.434,42.772,35.854,47.842,31.621z"/>
<radialGradient id="SVGID_6_" cx="202.9297" cy="-44.8271" r="12.7598" gradientTransform="matrix(0.2226 0.3067 0.2678 -0.2321 -5.764 -25.9438)" gradientUnits="userSpaceOnUse">
	<stop  offset="0" style="stop-color:#FFFFFF"/>
	<stop  offset="1" style="stop-color:#FFFFFF;stop-opacity:0"/>
	<a:midPointStop  offset="0" style="stop-color:#FFFFFF"/>
	<a:midPointStop  offset="0.5" style="stop-color:#FFFFFF"/>
	<a:midPointStop  offset="1" style="stop-color:#FFFFFF;stop-opacity:0"/>
</radialGradient>
<path opacity="0.4" fill="url(#SVGID_6_)" d="M30.342,50.748c5.177-4.486-0.71-12.598-5.885-8.109
	C19.278,47.125,25.165,55.234,30.342,50.748z"/>
</svg>
