<?xml version="1.0" encoding="utf-8"?>
<!-- Generator: Adobe Illustrator 15.0.0, SVG Export Plug-In . SVG Version: 6.00 Build 0)  -->
<!DOCTYPE svg PUBLIC "-//W3C//DTD SVG 1.1//EN" "http://www.w3.org/Graphics/SVG/1.1/DTD/svg11.dtd" [
	<!ENTITY ns_flows "http://ns.adobe.com/Flows/1.0/">
	<!ENTITY ns_extend "http://ns.adobe.com/Extensibility/1.0/">
	<!ENTITY ns_ai "http://ns.adobe.com/AdobeIllustrator/10.0/">
	<!ENTITY ns_graphs "http://ns.adobe.com/Graphs/1.0/">
]>
<svg version="1.1" id="Layer_1" xmlns:x="&ns_extend;" xmlns:i="&ns_ai;" xmlns:graph="&ns_graphs;"
	 xmlns="http://www.w3.org/2000/svg" xmlns:xlink="http://www.w3.org/1999/xlink" xmlns:a="http://ns.adobe.com/AdobeSVGViewerExtensions/3.0/"
	 x="0px" y="0px" width="64px" height="64px" viewBox="0 0 64 64" enable-background="new 0 0 64 64" xml:space="preserve">
<path fill="#FFE9B0" d="M53.348,5.75c-0.475-2.25-3.42-3.291-5.615-0.969c-1.682,2.374-7.004,5.465-10.297-0.251
	c-1.005-3.046-4.718-3.545-6.116-0.375c-0.844,2.803-6.269,6.901-10.124,3.031c-1.529-1.983-5.062-0.051-4.259,2.19
	c1.419,5.458-1.835,9.048-7.561,7.561c-2.241-0.804-4.173,2.729-2.19,4.259c3.87,3.855-0.229,9.28-3.031,10.124
	c-3.17,1.396-2.672,5.111,0.375,6.116c5.717,3.292,2.625,8.615,0.252,10.297C2.458,49.928,3.5,52.875,5.75,53.349
	c4.884-0.116,7.196,5.006,4.843,8.651c8.104-3.827,12.25-7.032,28.312-23.095C54.968,22.842,58.172,18.697,62,10.593
	C58.354,12.946,53.231,10.634,53.348,5.75z"/>
<linearGradient id="SVGID_1_" gradientUnits="userSpaceOnUse" x1="174.0586" y1="267.958" x2="174.0586" y2="238.9258" gradientTransform="matrix(0.7071 -0.7071 0.7071 0.7071 -269.6208 -23.4648)">
	<stop  offset="0" style="stop-color:#EBCF8D"/>
	<stop  offset="0.0863" style="stop-color:#EDD290"/>
	<stop  offset="0.5407" style="stop-color:#F7DE9C"/>
	<stop  offset="1" style="stop-color:#FAE2A0"/>
	<a:midPointStop  offset="0" style="stop-color:#EBCF8D"/>
	<a:midPointStop  offset="0.2909" style="stop-color:#EBCF8D"/>
	<a:midPointStop  offset="1" style="stop-color:#FAE2A0"/>
</linearGradient>
<path fill="url(#SVGID_1_)" d="M22.401,22.402c-11.076,11.077-5.285,24.938-1.195,33.086c15.664-3.441,30.837-18.619,34.283-34.281
	C47.34,17.116,33.477,11.324,22.401,22.402z"/>
<path fill="#EBCF8D" d="M7.938,26.775c-0.777,2.649-3.783,4.545-3.783,4.545c11.27,2.653,14.301-7.472,3.031-10.124
	C7.186,21.196,8.581,24.577,7.938,26.775z"/>
<path fill="#EBCF8D" d="M6.959,42.299c0.045,2.681-2.178,5.435-2.178,5.435C16.84,46.729,16.588,36.432,4.53,37.437
	C4.53,37.437,6.921,40.073,6.959,42.299z"/>
<path fill="#EBCF8D" d="M10.208,56.399C11.45,58.662,10.592,62,10.592,62c11.808-6.776,6.964-15.428-4.843-8.651
	C5.75,53.349,9.177,54.522,10.208,56.399z"/>
<path fill="#EBCF8D" d="M14.833,14.834c-2,2.001-5.456,2.104-5.456,2.104c8.214,8.214,15.774,0.653,7.561-7.561
	C16.937,9.377,16.834,12.833,14.833,14.834z"/>
<path fill="#EBCF8D" d="M26.774,7.938c2.65-0.775,4.546-3.782,4.546-3.782c2.653,11.269-7.472,14.301-10.124,3.031
	C21.196,7.187,24.577,8.582,26.774,7.938z"/>
<path fill="#EBCF8D" d="M42.297,6.96c2.682,0.044,5.436-2.179,5.436-2.179c-1.004,12.06-11.302,11.808-10.297-0.251
	C37.436,4.53,40.072,6.922,42.297,6.96z"/>
<path fill="#EBCF8D" d="M56.398,10.208C58.66,11.451,62,10.593,62,10.593c-6.732,11.729-15.386,6.886-8.652-4.843
	C53.348,5.75,54.521,9.178,56.398,10.208z"/>
</svg>
