<?xml version="1.0" encoding="utf-8"?>
<!-- Generator: Adobe Illustrator 15.0.0, SVG Export Plug-In . SVG Version: 6.00 Build 0)  -->
<!DOCTYPE svg PUBLIC "-//W3C//DTD SVG 1.1//EN" "http://www.w3.org/Graphics/SVG/1.1/DTD/svg11.dtd" [
	<!ENTITY ns_flows "http://ns.adobe.com/Flows/1.0/">
	<!ENTITY ns_extend "http://ns.adobe.com/Extensibility/1.0/">
	<!ENTITY ns_ai "http://ns.adobe.com/AdobeIllustrator/10.0/">
	<!ENTITY ns_graphs "http://ns.adobe.com/Graphs/1.0/">
]>
<svg version="1.1" id="Layer_1" xmlns:x="&ns_extend;" xmlns:i="&ns_ai;" xmlns:graph="&ns_graphs;"
	 xmlns="http://www.w3.org/2000/svg" xmlns:xlink="http://www.w3.org/1999/xlink" xmlns:a="http://ns.adobe.com/AdobeSVGViewerExtensions/3.0/"
	 x="0px" y="0px" width="64px" height="64px" viewBox="0 0 64 64" enable-background="new 0 0 64 64" xml:space="preserve">
<path fill="#F9B146" d="M51.221,6.965c0,0-1.045,1.701-2.059-0.41c-1.863-6.594-21.434-5.059-21.248-1.484
	c0,0-0.389,1.898-2.996-0.313C19-2.38-2.381,18.999,4.76,24.918c2.211,2.607,0.311,2.994,0.311,2.994
	c-3.572-0.184-5.107,19.385,1.484,21.25c2.111,1.012,0.412,2.061,0.412,2.061c-2.139,2.844,9.234,11.145,12.598,8.752
	c2.018-0.594,3.041,0.482,3.041,0.482c7.604,4.055,15.752-3.049,7.322-10.004c0.633-1.623-3.078-6.07-4.746-6.09
	c1.525-0.67,3.447-5.795,1.854-7.543c1.748,0.248,10.035-8.04,9.789-9.788c1.746,1.596,6.871-0.326,7.541-1.852
	c0.02,1.668,4.467,5.377,6.09,4.744c6.957,8.428,14.061,0.279,10.004-7.32c0,0-1.076-1.025-0.484-3.043
	C62.369,16.202,54.064,4.827,51.221,6.965z"/>
<path fill="#EA9D31" d="M51.758,28.62c-3.148,1.346-7.318-2.756-4.174-8.459c-3.434,4.531-8.139,7.648-12.938-3.146
	c3.063,9.309-3.34,18.975-14.965,14.145c10.135,6.473,5.559,10.092-0.598,13.545c7.115-0.361,10.621,3.363,9.531,6.84
	c9.658,4.969,1.658,12.746-6.01,8.914c6.682,4.531,19.592-1.547,7.607-10.111c0.633-1.623-2.852-6.102-4.52-6.119
	c1.525-0.672,3.271-5.484,1.676-7.232c5.117,0.727,10.352-4.508,9.625-9.625c1.748,1.596,6.563-0.148,7.232-1.674
	c0.02,1.666,4.496,5.15,6.119,4.518c8.564,11.983,14.643-0.928,10.111-7.605C64.305,30.305,57.012,38.481,51.758,28.62z"/>
<path fill="#FFC876" d="M24.918,4.76c11.254,11.029,9.676,17.42,11.904,22.273c0.57,1.244,2.518-13.209-8.908-21.963
	C27.334,4.625,24.652,4.499,24.918,4.76z"/>
<path fill="#FFC876" d="M49.059,6.397c1.744,11.373-5.299,19.596-4.686,18.93c5.773-6.262,8.43-14.096,6.963-18.338
	C51.242,6.719,48.973,5.833,49.059,6.397z"/>
<path fill="#FFC876" d="M50.932,29.602c4.92-4.488,6.512-5.791,9.527-6.996c0.41-0.162-0.199-3.404-0.441-3.184
	C53.748,25.163,49.461,30.944,50.932,29.602z"/>
<path fill="#FFC876" d="M4.76,24.918c13.559,0.887,20.605,8.135,22.273,11.905c0.555,1.252-5.342-6.706-21.963-8.911
	C4.348,27.817,4.389,24.895,4.76,24.918z"/>
<path fill="#FFC876" d="M6.396,49.06c9.387-6.379,19.822-4.848,18.932-4.686c-6.947,1.244-10.594,2.619-18.34,6.961
	C6.74,51.474,5.924,49.38,6.396,49.06z"/>
<path fill="#FFC876" d="M29.602,50.931c-4.488,4.922-5.791,6.512-6.996,9.527c-0.162,0.412-3.404-0.197-3.184-0.439
	C25.162,53.747,30.943,49.46,29.602,50.931z"/>
<path fill="#FEBB59" d="M27.43,16.7c0.859,1.305-2.52-9.145-4.496-10.602c-4.74-3.494-13.785,7.205-12.047,6.545
	C17.127,10.268,20.355,5.987,27.43,16.7z"/>
<path fill="#FEBB59" d="M47.756,12.942c0.42,1.258,0.516-6.576-0.809-7.443c-2.652-1.734-9.418-2.418-8.004-1.672
	C44.486,6.75,45.512,6.243,47.756,12.942z"/>
<path fill="#FEBB59" d="M54.369,22.18c-0.635,0.973,4.785-3.232,4.658-4.611c-0.258-2.764-3.477-7.771-3.217-6.396
	C56.828,16.563,57.734,16.991,54.369,22.18z"/>
<path fill="#FEBB59" d="M58.932,28.543c3.041-1.375,1.023-5.994,0.842-4.455C59.387,27.338,57.574,29.159,58.932,28.543z"/>
<path fill="#FEBB59" d="M5.049,32.721C1.355,38.378,6.715,47.646,6.174,43.88C5.021,35.923,6.693,30.194,5.049,32.721z"/>
<path fill="#FEBB59" d="M10.59,53.89c2.395,5.066,10.691,5.334,7.947,4.074C12.734,55.306,9.518,51.628,10.59,53.89z"/>
<path fill="#FEBB59" d="M24.172,59.731c2.219,2.15,6.08-0.406,4.543-0.238C25.469,59.851,23.182,58.771,24.172,59.731z"/>
</svg>
