<?xml version="1.0" encoding="utf-8"?>
<!-- Generator: Adobe Illustrator 15.0.0, SVG Export Plug-In . SVG Version: 6.00 Build 0)  -->
<!DOCTYPE svg PUBLIC "-//W3C//DTD SVG 1.1//EN" "http://www.w3.org/Graphics/SVG/1.1/DTD/svg11.dtd" [
	<!ENTITY ns_flows "http://ns.adobe.com/Flows/1.0/">
	<!ENTITY ns_extend "http://ns.adobe.com/Extensibility/1.0/">
	<!ENTITY ns_ai "http://ns.adobe.com/AdobeIllustrator/10.0/">
	<!ENTITY ns_graphs "http://ns.adobe.com/Graphs/1.0/">
]>
<svg version="1.1" id="Layer_1" xmlns:x="&ns_extend;" xmlns:i="&ns_ai;" xmlns:graph="&ns_graphs;"
	 xmlns="http://www.w3.org/2000/svg" xmlns:xlink="http://www.w3.org/1999/xlink" xmlns:a="http://ns.adobe.com/AdobeSVGViewerExtensions/3.0/"
	 x="0px" y="0px" width="64px" height="64px" viewBox="0 0 64 64" enable-background="new 0 0 64 64" xml:space="preserve">
<path fill="#D47706" d="M46.142,58.835c-0.1,0-0.197-0.001-0.297-0.007c-1.41-0.071-2.699-0.66-3.621-1.655
	c-0.867-0.935-1.303-2.126-1.229-3.355c0.051-0.793-0.088-1.611-0.424-2.482c-6.127,2.031-12.716,1.939-18.736-0.284
	c-2.65-0.977-5.08-2.327-7.238-4.023c-1.174,1.118-2.146,2.317-2.957,3.65c-0.91,1.494-2.633,2.421-4.494,2.422
	c-0.863,0-1.719-0.204-2.478-0.588c-1.233-0.625-2.115-1.66-2.485-2.913c-0.358-1.212-0.188-2.481,0.479-3.577
	c1.478-2.426,3.283-4.554,5.504-6.485c-2.392-4.254-3.522-9.158-3.274-14.235C5.517,12.575,12.152,7.917,16.05,6.271
	C18.049,5.428,20.195,5,22.425,5c3.612,0,7.244,1.165,10.228,3.282c0.648,0.456,1.273,0.961,1.863,1.508
	c3.008-1.785,6.326-2.724,9.646-2.724c4.232,0,8.186,1.488,11.436,4.308c3.699,3.208,5.859,7.733,6.086,12.74
	c0.207,4.551-1.088,11.564-8.422,19.141c-1.162,1.201-2.402,2.309-3.695,3.297c1.314,2.601,1.875,5.162,1.711,7.806
	C51.122,56.869,48.866,58.835,46.142,58.835z M23.69,41.361c0.634,0.33,1.292,0.621,1.968,0.868
	c1.877,0.693,3.841,1.044,5.845,1.044l0,0c0.818,0,1.643-0.059,2.463-0.176l-0.467-0.46c-1.318-1.298-2.639-2.599-3.867-3.94
	c-1.082,0.513-2.183,0.995-3.252,1.465C25.533,40.534,24.616,40.938,23.69,41.361z M37.81,32.893
	c0.908,0.976,1.955,2.021,3.201,3.246c0.846,0.829,1.732,1.702,2.604,2.601c0.682-0.557,1.342-1.164,1.967-1.81
	c3.922-4.05,5.982-8.476,5.803-12.459c-0.111-2.49-1.121-4.684-2.842-6.176c-1.279-1.11-2.869-1.723-4.477-1.723
	c-1.494,0-2.992,0.506-4.461,1.507c0.916,3.177,1.021,6.705,0.303,10.251C39.569,30.016,38.88,31.516,37.81,32.893z M22.448,14.489
	c-0.741,0-1.451,0.142-2.111,0.418c-3,1.266-4.88,5.211-5.155,10.821c-0.145,2.961,0.373,5.803,1.502,8.282
	c1.791-0.896,3.537-1.663,5.231-2.409c0.878-0.387,1.681-0.74,2.417-1.076c-0.055-0.16-0.107-0.321-0.157-0.483
	c-1.413-4.59-0.401-9.155,3.007-13.582c-0.253-0.232-0.521-0.449-0.803-0.648C25.157,14.946,23.797,14.489,22.448,14.489z"/>
<path fill="#AB5C10" d="M15.468,34.626c0.469-0.197,1.514-0.765,1.514-0.765c-4.615-12.356,1.529-20.509,7.362-19.105
	C18.07,11.571,10.802,21.352,15.468,34.626z"/>
<path fill="#AB5C10" d="M50.858,8.407c15.469,7.592,12.57,26.79-3.074,37.302c0.322,0.685,0.576,1.394,0.832,2.104
	C66.458,35.599,65.7,13.691,50.858,8.407z"/>
<path fill="#AB5C10" d="M39.628,49.763c-5.133,2.978-15.845,2.276-20.974-0.118c5.169,2.994,14.191,4.616,21.914,1.698
	C40.181,50.48,39.628,49.763,39.628,49.763z"/>
<path fill="#AB5C10" d="M47.235,42.723c-1.377-1.726-4.752-5.203-5.619-6.053c-4.338-4.263-9.553-9.532-9.342-13.828
	c-1.605,4.127,1.516,7.524,7,12.915c4.895,4.812,10.441,10.269,9.992,17.511c-0.264,4.27-4.299,5.887-6.813,4.134
	c3.777,3.342,8.867,1.027,9.123-3.099C51.853,49.854,49.927,46.102,47.235,42.723z"/>
<path fill="#AB5C10" d="M38.954,18.785c2.832-2.326,5.406-2.598,8.104-1.488c-1.93-2.096-5.703-2.619-9.105-0.487
	C38.366,17.428,38.722,18.092,38.954,18.785z"/>
<path fill="#AB5C10" d="M28.391,37.193c-1.617,0.85-3.19,1.528-4.903,2.28c-5.727,2.518-11.651,5.117-15.168,10.891
	c-1.191,1.948-3.203,2.396-4.711,1.437c2.748,2.435,6.718,1.371,7.916-0.594c3.519-5.772,8.547-8.183,14.274-10.7
	c1.426-0.628,2.515-1.085,3.889-1.771C29.236,38.199,28.391,37.193,28.391,37.193z"/>
<path fill="#AB5C10" d="M29.339,6.431c9.984,4.284,11.519,19.561,7.183,24.937c0.568,0.59,1.008,1.181,1.541,1.796
	C43.442,24.928,40.614,10.343,29.339,6.431z"/>
<path fill="#FED0AC" d="M54.892,13.847c0,1.082-1.596,1.082-1.596,0S54.892,12.765,54.892,13.847z"/>
<path fill="#FED0AC" d="M58.056,29.848c0,1.082-1.596,1.082-1.596,0S58.056,28.766,58.056,29.848z"/>
<path fill="#FED0AC" d="M52.401,34.44c0,1.082-1.596,1.082-1.596,0S52.401,33.358,52.401,34.44z"/>
<path fill="#FED0AC" d="M59.118,22.842c0,1.082-1.596,1.082-1.596,0S59.118,21.76,59.118,22.842z"/>
<path fill="#FED0AC" d="M52.052,41.266c0,1.082-1.596,1.082-1.596,0S52.052,40.184,52.052,41.266z"/>
<path fill="#FED0AC" d="M32.833,36.755c0,1.082-1.596,1.082-1.596,0S32.833,35.673,32.833,36.755z"/>
<path fill="#FED0AC" d="M33.571,12.781c0,1.082-1.596,1.082-1.596,0C31.976,11.697,33.571,11.697,33.571,12.781z"/>
<path fill="#FED0AC" d="M12.435,12.78c0,1.082-1.596,1.082-1.596,0S12.435,11.698,12.435,12.78z"/>
<path fill="#FED0AC" d="M12.856,19.597c0,1.082-1.596,1.082-1.596,0S12.856,18.515,12.856,19.597z"/>
<path fill="#FED0AC" d="M34.538,47.316c0,1.082-1.596,1.082-1.596,0S34.538,46.234,34.538,47.316z"/>
<path fill="#FED0AC" d="M23.539,47.681c0,1.082-1.596,1.082-1.596,0S23.539,46.599,23.539,47.681z"/>
<path fill="#FED0AC" d="M9.705,36.133c0,1.082-1.596,1.082-1.596,0S9.705,35.051,9.705,36.133z"/>
<path fill="#FED0AC" d="M16.411,40.651c0,1.082-1.596,1.082-1.596,0S16.411,39.569,16.411,40.651z"/>
<path fill="#FED0AC" d="M18.654,35.734c0,1.082-1.596,1.082-1.596,0S18.654,34.652,18.654,35.734z"/>
<path fill="#FED0AC" d="M25.94,36.133c0,1.082-1.596,1.082-1.596,0S25.94,35.051,25.94,36.133z"/>
<path fill="#FED0AC" d="M26.89,25.199c0,0.813-1.2,0.813-1.2,0S26.89,24.386,26.89,25.199z"/>
<path fill="#FED0AC" d="M7.216,49.645c0,1.082-1.596,1.082-1.596,0S7.216,48.563,7.216,49.645z"/>
<path fill="#FED0AC" d="M8.907,41.732c0,1.082-1.596,1.082-1.596,0S8.907,40.65,8.907,41.732z"/>
<path fill="#FED0AC" d="M36.999,24.098c0,1.082-1.596,1.082-1.596,0C35.403,23.014,36.999,23.014,36.999,24.098z"/>
<path fill="#FED0AC" d="M23.406,7.863c0,1.082-1.596,1.082-1.596,0C21.81,6.779,23.406,6.779,23.406,7.863z"/>
<path fill="#FED0AC" d="M12.856,31.473c0,1.082-1.596,1.082-1.596,0C11.26,30.389,12.856,30.389,12.856,31.473z"/>
<path fill="#FED0AC" d="M43.304,9.219c0,1.082-1.596,1.082-1.596,0S43.304,8.137,43.304,9.219z"/>
<path fill="#FED0AC" d="M44.237,54.555c0,1.082-1.596,1.082-1.596,0S44.237,53.473,44.237,54.555z"/>
<path fill="#FED0AC" d="M41.644,46.014c0,1.082-1.596,1.082-1.596,0S41.644,44.932,41.644,46.014z"/>
<path fill="#FED0AC" d="M39.29,43.355c0,0.813-1.2,0.813-1.2,0S39.29,42.542,39.29,43.355z"/>
<path fill="#FED0AC" d="M25.742,49.645c0,0.813-1.2,0.813-1.2,0S25.742,48.831,25.742,49.645z"/>
<path fill="#FED0AC" d="M29.339,50.255c0,0.813-1.2,0.813-1.2,0S29.339,49.441,29.339,50.255z"/>
<path fill="#FED0AC" d="M27.856,47.115c0,0.813-1.2,0.813-1.2,0S27.856,46.302,27.856,47.115z"/>
<path fill="#FED0AC" d="M32.036,15.445c0,0.813-1.201,0.813-1.201,0S32.036,14.632,32.036,15.445z"/>
<path fill="#FED0AC" d="M35.019,15.242c0,0.813-1.199,0.813-1.199,0S35.019,14.429,35.019,15.242z"/>
<path fill="#FED0AC" d="M29.364,10.227c0,0.813-1.2,0.813-1.2,0S29.364,9.413,29.364,10.227z"/>
<path fill="#FED0AC" d="M27.708,12.914c0,0.813-1.2,0.813-1.2,0S27.708,12.101,27.708,12.914z"/>
<path fill="#FED0AC" d="M35.989,19.617c0,0.813-1.2,0.813-1.2,0S35.989,18.804,35.989,19.617z"/>
<path fill="#FED0AC" d="M54.893,31.674c0,0.813-1.2,0.813-1.2,0S54.893,30.86,54.893,31.674z"/>
<path fill="#FED0AC" d="M58.921,26.621c0,0.813-1.2,0.813-1.2,0S58.921,25.808,58.921,26.621z"/>
<path fill="#FED0AC" d="M55.493,26.534c0,0.813-1.201,0.813-1.201,0S55.493,25.721,55.493,26.534z"/>
<path fill="#FED0AC" d="M55.731,22.231c0,0.813-1.2,0.813-1.2,0S55.731,21.418,55.731,22.231z"/>
<path fill="#FED0AC" d="M57.858,18.785c0,0.813-1.2,0.813-1.2,0S57.858,17.972,57.858,18.785z"/>
<path fill="#FED0AC" d="M44.838,44.576c0,0.813-1.2,0.813-1.2,0S44.838,43.763,44.838,44.576z"/>
<path fill="#FED0AC" d="M44.04,49.645c0,0.813-1.2,0.813-1.2,0S44.04,48.831,44.04,49.645z"/>
<path fill="#FED0AC" d="M19.254,38.422c0,0.813-1.2,0.813-1.2,0S19.254,37.608,19.254,38.422z"/>
<path fill="#FED0AC" d="M14.815,37.566c0,0.813-1.2,0.813-1.2,0S14.815,36.753,14.815,37.566z"/>
<path fill="#FED0AC" d="M9.507,17.69c0,0.813-1.2,0.813-1.2,0S9.507,16.877,9.507,17.69z"/>
<path fill="#FED0AC" d="M15.548,15.445c0,0.813-1.2,0.813-1.2,0S15.548,14.632,15.548,15.445z"/>
<path fill="#FED0AC" d="M16.148,11.589c0,0.813-1.2,0.813-1.2,0S16.148,10.775,16.148,11.589z"/>
<path fill="#FED0AC" d="M11.86,42.343c0,0.813-1.2,0.813-1.2,0S11.86,41.529,11.86,42.343z"/>
</svg>
