<?xml version="1.0" encoding="utf-8"?>
<!-- Generator: Adobe Illustrator 15.0.0, SVG Export Plug-In . SVG Version: 6.00 Build 0)  -->
<!DOCTYPE svg PUBLIC "-//W3C//DTD SVG 1.1//EN" "http://www.w3.org/Graphics/SVG/1.1/DTD/svg11.dtd">
<svg version="1.1" id="Layer_1" xmlns="http://www.w3.org/2000/svg" xmlns:xlink="http://www.w3.org/1999/xlink" x="0px" y="0px"
	 width="64px" height="64px" viewBox="0 0 64 64" enable-background="new 0 0 64 64" xml:space="preserve">
<path fill="#FBB855" d="M31.286,33.592c0,0-16.158,9.297-25.402,9.761c-9.24,0.465,0.095-19.621,6.443-27.291
	c3.832-4.573,16.534-17.009,34.364-13.42c17.826,3.589,23.756,34.066-2.475,50.986c-13.439,8.682-15.634,3.707-16.589,1.075
	C26.67,52.07,25.781,43.871,31.286,33.592z"/>
<path fill="#FFC36B" d="M31.286,33.592l9.325-23.051C25.57,6.194,23.215,35.434,11.001,42.461c-1.827,0.488-3.568,0.814-5.118,0.892
	c-9.24,0.465,0.095-19.621,6.443-27.291c3.832-4.573,15.062-14.849,31.004-11.64c9.968,2.006,4.48,14.93-5.135,24.437
	c-9.065,8.968-9.615,28.476-10.57,25.844C26.67,52.07,25.781,43.871,31.286,33.592z"/>
<path fill="#D47706" d="M61.996,24.511c-2.182,22.424-28.5,33.115-30.825,32.299C25.368,52.811,58.205,46.611,61.996,24.511z"/>
<path fill="#AB5C10" d="M30.502,55.616c0.498-2.669,12.2-6.548,21.275-14.435C41.712,50.398,30.42,56.042,30.502,55.616z"/>
<path fill="#D99025" d="M33.039,17.245c-1.798-8.767,8.473-8.318,8.083-6.313c-1.873,9.618-9.836,22.659-9.836,22.659
	s-5.536,3.323-10.829,5.422C20.457,39.014,36.122,32.248,33.039,17.245z"/>
<path fill="#E6EBEF" d="M59.998,53.758c-7.84-4.121-12.846-9-12.846-9c-4.815,3.079-10.816,6.479-10.816,6.479
	S41.388,59.022,49.673,62C49.673,62,55.205,59.053,59.998,53.758z"/>
<path fill="#CFD8DD" d="M49.646,46.926c-1.608-1.305-2.493-2.168-2.493-2.168c-4.815,3.079-10.816,6.479-10.816,6.479
	s0.846,1.302,2.411,3.044C38.747,54.281,45.116,50.705,49.646,46.926z"/>
<path fill="#99A8AE" d="M47.363,44.959c-0.139-0.131-0.211-0.201-0.211-0.201c-4.815,3.079-10.816,6.479-10.816,6.479
	s0.237,0.364,0.691,0.966C43.415,48.41,47.363,44.959,47.363,44.959z"/>
</svg>
