<?xml version="1.0" encoding="utf-8"?>
<!-- Generator: Adobe Illustrator 15.0.0, SVG Export Plug-In . SVG Version: 6.00 Build 0)  -->
<!DOCTYPE svg PUBLIC "-//W3C//DTD SVG 1.1//EN" "http://www.w3.org/Graphics/SVG/1.1/DTD/svg11.dtd" [
	<!ENTITY ns_flows "http://ns.adobe.com/Flows/1.0/">
	<!ENTITY ns_extend "http://ns.adobe.com/Extensibility/1.0/">
	<!ENTITY ns_ai "http://ns.adobe.com/AdobeIllustrator/10.0/">
	<!ENTITY ns_graphs "http://ns.adobe.com/Graphs/1.0/">
]>
<svg version="1.1" id="Layer_1" xmlns:x="&ns_extend;" xmlns:i="&ns_ai;" xmlns:graph="&ns_graphs;"
	 xmlns="http://www.w3.org/2000/svg" xmlns:xlink="http://www.w3.org/1999/xlink" xmlns:a="http://ns.adobe.com/AdobeSVGViewerExtensions/3.0/"
	 x="0px" y="0px" width="64px" height="64px" viewBox="0 0 64 64" enable-background="new 0 0 64 64" xml:space="preserve">
<linearGradient id="SVGID_1_" gradientUnits="userSpaceOnUse" x1="32.0005" y1="62" x2="32.0005" y2="2.0005">
	<stop  offset="0" style="stop-color:#FFA027"/>
	<stop  offset="0.2723" style="stop-color:#FFC151"/>
	<stop  offset="0.7633" style="stop-color:#FFC93F"/>
	<stop  offset="1" style="stop-color:#FFE261"/>
	<a:midPointStop  offset="0" style="stop-color:#FFA027"/>
	<a:midPointStop  offset="0.5" style="stop-color:#FFA027"/>
	<a:midPointStop  offset="0.2723" style="stop-color:#FFC151"/>
	<a:midPointStop  offset="0.5" style="stop-color:#FFC151"/>
	<a:midPointStop  offset="0.7633" style="stop-color:#FFC93F"/>
	<a:midPointStop  offset="0.5" style="stop-color:#FFC93F"/>
	<a:midPointStop  offset="1" style="stop-color:#FFE261"/>
</linearGradient>
<circle fill="url(#SVGID_1_)" cx="32" cy="32" r="30"/>
<radialGradient id="SVGID_2_" cx="14.1895" cy="38.2539" r="10" gradientUnits="userSpaceOnUse">
	<stop  offset="0" style="stop-color:#F18D84"/>
	<stop  offset="0.2514" style="stop-color:#F29180;stop-opacity:0.7486"/>
	<stop  offset="0.5118" style="stop-color:#F49E73;stop-opacity:0.4882"/>
	<stop  offset="0.7755" style="stop-color:#F8B25F;stop-opacity:0.2245"/>
	<stop  offset="1" style="stop-color:#FDCA47;stop-opacity:0"/>
	<a:midPointStop  offset="0" style="stop-color:#F18D84"/>
	<a:midPointStop  offset="0.7" style="stop-color:#F18D84"/>
	<a:midPointStop  offset="1" style="stop-color:#FDCA47;stop-opacity:0"/>
</radialGradient>
<circle fill="url(#SVGID_2_)" cx="14.189" cy="38.254" r="10"/>
<radialGradient id="SVGID_3_" cx="49.8105" cy="38" r="10" gradientUnits="userSpaceOnUse">
	<stop  offset="0" style="stop-color:#F18D84"/>
	<stop  offset="0.2514" style="stop-color:#F29180;stop-opacity:0.7486"/>
	<stop  offset="0.5118" style="stop-color:#F49E73;stop-opacity:0.4882"/>
	<stop  offset="0.7755" style="stop-color:#F8B25F;stop-opacity:0.2245"/>
	<stop  offset="1" style="stop-color:#FDCA47;stop-opacity:0"/>
	<a:midPointStop  offset="0" style="stop-color:#F18D84"/>
	<a:midPointStop  offset="0.7" style="stop-color:#F18D84"/>
	<a:midPointStop  offset="1" style="stop-color:#FDCA47;stop-opacity:0"/>
</radialGradient>
<circle fill="url(#SVGID_3_)" cx="49.811" cy="38" r="10"/>
<path fill="#302C3B" d="M36.225,31.834c3.775-4.207,9.645-4.208,13.42,0c0.58,0.643,0.924-0.053,0.74-0.598
	c-3.67-10.858-11.23-10.858-14.9,0C35.299,31.781,35.645,32.477,36.225,31.834z"/>
<path fill="#302C3B" d="M14.355,31.834c3.776-4.207,9.645-4.208,13.42,0c0.58,0.643,0.924-0.053,0.74-0.598
	c-3.67-10.858-11.23-10.858-14.9,0C13.431,31.781,13.775,32.477,14.355,31.834z"/>
<path fill="#302C3B" d="M40.946,42.264c-5.449,4.66-12.447,4.658-17.894,0c-0.771-0.658-1.232,0.054-0.985,0.613
	c4.183,9.498,15.685,9.496,19.867,0C42.18,42.317,41.721,41.605,40.946,42.264z"/>
<radialGradient id="SVGID_4_" cx="-868.3784" cy="896.5771" r="4.1281" gradientTransform="matrix(2.9058 0 0 -3.0888 2564.4563 2772.782)" gradientUnits="userSpaceOnUse">
	<stop  offset="0.4182" style="stop-color:#FF1C23"/>
	<stop  offset="0.6332" style="stop-color:#F8151A"/>
	<stop  offset="0.986" style="stop-color:#E40201"/>
	<stop  offset="1" style="stop-color:#E30100"/>
	<a:midPointStop  offset="0.4182" style="stop-color:#FF1C23"/>
	<a:midPointStop  offset="0.5" style="stop-color:#FF1C23"/>
	<a:midPointStop  offset="0.6332" style="stop-color:#F8151A"/>
	<a:midPointStop  offset="0.5" style="stop-color:#F8151A"/>
	<a:midPointStop  offset="0.986" style="stop-color:#E40201"/>
	<a:midPointStop  offset="0.5" style="stop-color:#E40201"/>
	<a:midPointStop  offset="1" style="stop-color:#E30100"/>
</radialGradient>
<path fill="url(#SVGID_4_)" d="M41.063,4.715c-2.948-4.792-11.106-2.92-11.106,3.097c0,4.037,3.764,6.738,11.105,12.698
	c7.343-5.96,11.107-8.662,11.107-12.698C52.169,1.795,44.011-0.076,41.063,4.715z"/>
<radialGradient id="SVGID_5_" cx="-864.7544" cy="883.1094" r="3.2877" gradientTransform="matrix(2.9058 0 0 -3.0888 2564.4563 2772.782)" gradientUnits="userSpaceOnUse">
	<stop  offset="0.4182" style="stop-color:#FF1C23"/>
	<stop  offset="0.6332" style="stop-color:#F8151A"/>
	<stop  offset="0.986" style="stop-color:#E40201"/>
	<stop  offset="1" style="stop-color:#E30100"/>
	<a:midPointStop  offset="0.4182" style="stop-color:#FF1C23"/>
	<a:midPointStop  offset="0.5" style="stop-color:#FF1C23"/>
	<a:midPointStop  offset="0.6332" style="stop-color:#F8151A"/>
	<a:midPointStop  offset="0.5" style="stop-color:#F8151A"/>
	<a:midPointStop  offset="0.986" style="stop-color:#E40201"/>
	<a:midPointStop  offset="0.5" style="stop-color:#E40201"/>
	<a:midPointStop  offset="1" style="stop-color:#E30100"/>
</radialGradient>
<path fill="url(#SVGID_5_)" d="M51.604,46.053c-2.348-3.816-8.846-2.326-8.846,2.467c0,3.215,2.998,5.365,8.846,10.113
	c5.848-4.748,8.846-6.898,8.846-10.113C60.45,43.727,53.952,42.236,51.604,46.053z"/>
<radialGradient id="SVGID_6_" cx="-878.9185" cy="886.3555" r="3.1407" gradientTransform="matrix(2.9058 0 0 -3.0888 2564.4563 2772.782)" gradientUnits="userSpaceOnUse">
	<stop  offset="0.4182" style="stop-color:#FF1C23"/>
	<stop  offset="0.6332" style="stop-color:#F8151A"/>
	<stop  offset="0.986" style="stop-color:#E40201"/>
	<stop  offset="1" style="stop-color:#E30100"/>
	<a:midPointStop  offset="0.4182" style="stop-color:#FF1C23"/>
	<a:midPointStop  offset="0.5" style="stop-color:#FF1C23"/>
	<a:midPointStop  offset="0.6332" style="stop-color:#F8151A"/>
	<a:midPointStop  offset="0.5" style="stop-color:#F8151A"/>
	<a:midPointStop  offset="0.986" style="stop-color:#E40201"/>
	<a:midPointStop  offset="0.5" style="stop-color:#E40201"/>
	<a:midPointStop  offset="1" style="stop-color:#E30100"/>
</radialGradient>
<path fill="url(#SVGID_6_)" d="M10.449,35.982C8.207,32.337,2,33.76,2,38.339C2,41.41,4.863,43.465,10.448,48
	c5.586-4.535,8.451-6.59,8.451-9.661C18.899,33.761,12.691,32.337,10.449,35.982z"/>
</svg>
