<?xml version="1.0" encoding="utf-8"?>
<!-- Generator: Adobe Illustrator 15.0.0, SVG Export Plug-In . SVG Version: 6.00 Build 0)  -->
<!DOCTYPE svg PUBLIC "-//W3C//DTD SVG 1.1//EN" "http://www.w3.org/Graphics/SVG/1.1/DTD/svg11.dtd">
<svg version="1.1" id="Layer_1" xmlns="http://www.w3.org/2000/svg" xmlns:xlink="http://www.w3.org/1999/xlink" x="0px" y="0px"
	 width="64px" height="64px" viewBox="0 0 64 64" enable-background="new 0 0 64 64" xml:space="preserve">
<path fill="#E6EBEF" d="M47.1,8.469c-1.564-1.094-5.692-3.149-6.74-3.562C38.006,5.107,36.852,2,36.852,2h-9.703
	c0,0-0.855,3.045-3.508,2.907c-1.045,0.412-5.174,2.468-6.738,3.562C15.19,9.665,5.072,38.939,5,40.146
	c1.143,2.225,8.619,5.518,9.249,3.844c1.511-4.02,4.324-12.926,4.324-12.926s-0.657,15.814-1.187,27.056
	c-0.111,2.356,9.516,3.956,16.581,3.877l-0.002-0.489c6.149-0.191,12.747-1.317,12.647-3.388
	c-0.527-11.241-1.186-27.056-1.186-27.056s2.813,8.906,4.325,12.926c0.628,1.674,7.985-1.549,9.247-3.844
	C58.928,38.939,48.812,9.665,47.1,8.469z"/>
<path fill="#99A8AE" d="M31.046,14.883C38.391,10.653,36.852,2,36.852,2h-9.703C27.148,2,26.143,11.475,31.046,14.883z"/>
<path fill="#4E5E67" d="M33.383,25.416c0,1.322-2.116,1.322-2.116,0S33.383,24.094,33.383,25.416z"/>
<path fill="#4E5E67" d="M33.383,37.071c0,1.322-2.116,1.322-2.116,0C31.267,35.748,33.383,35.748,33.383,37.071z"/>
<path fill="#4E5E67" d="M33.383,48.729c0,1.322-2.113,1.322-2.113,0C31.27,47.404,33.383,47.404,33.383,48.729z"/>
<path fill="#99A8AE" d="M19.061,28.626c-1.287,4.63-2.725,9.058-3.523,11.3c-0.088,0.249-2.895,0.063-6.436-1.125
	c3.668,1.906,6.1,1.911,6.059,2.022c-0.867,2.3-1.179,2.851-1.35,2.863C10.524,43.922,7.632,42.79,5,40.146
	c0.449,1.857,4.856,4.434,9.395,4.635c0.386,0.016,2.398-4.521,1.84-4.745c0.572-1.695,1.988-6.864,1.988-6.864l-0.234,11.609
	C17.988,44.781,19.194,36.079,19.061,28.626z"/>
<path fill="#99A8AE" d="M44.941,28.626c1.286,4.63,2.724,9.058,3.521,11.3c0.088,0.249,2.896,0.063,6.436-1.125
	c-3.668,1.906-6.1,1.911-6.059,2.022c0.867,2.3,1.18,2.851,1.35,2.863c3.286,0.235,6.18-0.896,8.811-3.54
	c-0.449,1.857-4.856,4.434-9.393,4.635c-0.387,0.016-2.4-4.521-1.841-4.745c-0.573-1.695-1.989-6.864-1.989-6.864l0.235,11.609
	C46.013,44.781,44.807,36.079,44.941,28.626z"/>
<path fill="#99A8AE" d="M27.385,54.232c-0.982,0.846-6.779,0.393-7.969-0.896c-0.444-0.483-0.535-7.913-0.535-7.913
	s-0.592,7.674,0,8.316c1.6,1.734,7.441,2.394,9.039,1.018c0.341-0.294,0-8.321,0-8.321S27.617,54.033,27.385,54.232z"/>
<path fill="#99A8AE" d="M18.746,43.568c3.084,0.822,6.226,1.177,9.31,1.05c0,1.025,0,2.051,0,3.076
	c-3.084,0.127-6.226-0.228-9.31-1.05C18.746,45.619,18.746,44.594,18.746,43.568z"/>
<path fill="#99A8AE" d="M36.615,54.232c0.982,0.846,6.779,0.393,7.969-0.896c0.444-0.483,0.535-7.913,0.535-7.913
	s0.591,7.674,0,8.316c-1.6,1.734-7.441,2.394-9.038,1.018c-0.342-0.294,0-8.321,0-8.321S36.383,54.033,36.615,54.232z"/>
<path fill="#99A8AE" d="M45.254,43.568c-3.084,0.822-6.226,1.177-9.31,1.05c0,1.025,0,2.051,0,3.076
	c3.084,0.127,6.226-0.228,9.31-1.05C45.254,45.619,45.254,44.594,45.254,43.568z"/>
<path fill="#99A8AE" d="M36.777,28.191c0.786,0.676,5.434,0.313,6.386-0.72c0.356-0.386,0.429-6.341,0.429-6.341
	s0.475,6.148,0,6.663c-1.281,1.392-5.963,1.919-7.242,0.817c-0.275-0.236,0-6.67,0-6.67S36.59,28.03,36.777,28.191z"/>
<path fill="#99A8AE" d="M43.699,19.645c-2.471,0.658-4.988,0.943-7.459,0.842c0,0.821,0,1.643,0,2.465
	c2.471,0.102,4.988-0.184,7.459-0.842C43.699,21.288,43.699,20.466,43.699,19.645z"/>
<path fill="#6E8189" d="M30.969,16.755c4.332-4.753,6.422-11.537,6.422-11.537H26.609C26.609,5.218,27.354,12.252,30.969,16.755z"/>
<path fill="#E6EBEF" d="M27.148,2c-2.035,2.241-3.453,2.254-3.508,2.907c1.574,3.066,0.119,7.441,0.119,7.441
	s1.842-0.334,2.719-0.438c-0.622,1.983-1.028,2.09-1.883,3.156c3.427,1.922,7.668,5.844,9.299,7.484
	C33.553,20.393,27.064,7.947,27.148,2z"/>
<path fill="#99A8AE" d="M17.371,10.014c0.709,6.438,0.967,14.084,0.967,14.084s-0.773-2.376-3.074-4.095
	c1.367,1.985,2.768,5.234,2.768,5.234s-1.818-1.236-3.137-0.703c2.622,0.281,4.176,2.682,4.176,2.682
	C18.728,25.058,18.658,16.94,17.371,10.014z"/>
<path fill="#99A8AE" d="M46.629,10.014c-0.708,6.438-0.966,14.084-0.966,14.084s0.772-2.376,3.073-4.095
	c-1.367,1.985-2.768,5.234-2.768,5.234s1.818-1.236,3.138-0.703c-2.622,0.281-4.176,2.682-4.176,2.682
	C45.273,25.058,45.342,16.94,46.629,10.014z"/>
<path fill="#E6EBEF" d="M40.359,4.907c-1.355,2.479-0.174,6.331-0.174,6.331s-1.568-0.252-2.943,0.359c0,0,0.595,1.952,1.351,3.285
	c0,0-6.64,3.593-7.626,1.996C30.773,14.832,36.852,7.468,36.852,2C38.586,4.336,40.347,4.254,40.359,4.907z"/>
<path fill="#99A8AE" d="M23.641,4.907c1.13,3.015-0.094,6.974-0.557,8.784c0,0,1.471-0.604,2.791-0.865c0,0-0.813,1.316-1.666,2.382
	c2.675,1.175,8.243,6.229,9.4,7.753c0.949,1.249-0.227,28.496,0.356,38.548c0.331-24.438,0.81-38.21,0.476-39.036
	c-1.609-3.097-3.783-8.045-3.783-8.045c0.792,3.216,3.035,7.708,2.914,7.569c-2.576-2.933-5.567-5.503-8.207-7.455
	c0,0,1.105-1.903,1.997-3.342c-1.858,0.124-3.286,0.372-3.286,0.372S25.215,7.968,23.641,4.907z"/>
<path fill="#99A8AE" d="M40.359,4.907c-1.354,2.475-0.526,5.704-0.526,5.704s-1.619-0.014-2.995,0.597c0,0,0.586,1.896,1.344,3.226
	c0,0-3.697,1.33-6.514,2.461c0.354,2.289,0.021,0.555,7.641-1.629c-1.177-1.357-1.494-2.653-1.494-2.653s1.371-0.489,3.158-0.374
	C39.6,10.149,39.766,6.855,40.359,4.907z"/>
</svg>
