<?xml version="1.0" encoding="utf-8"?>
<!-- Generator: Adobe Illustrator 15.0.0, SVG Export Plug-In . SVG Version: 6.00 Build 0)  -->
<!DOCTYPE svg PUBLIC "-//W3C//DTD SVG 1.1//EN" "http://www.w3.org/Graphics/SVG/1.1/DTD/svg11.dtd" [
	<!ENTITY ns_flows "http://ns.adobe.com/Flows/1.0/">
	<!ENTITY ns_extend "http://ns.adobe.com/Extensibility/1.0/">
	<!ENTITY ns_ai "http://ns.adobe.com/AdobeIllustrator/10.0/">
	<!ENTITY ns_graphs "http://ns.adobe.com/Graphs/1.0/">
]>
<svg version="1.1" id="Layer_1" xmlns:x="&ns_extend;" xmlns:i="&ns_ai;" xmlns:graph="&ns_graphs;"
	 xmlns="http://www.w3.org/2000/svg" xmlns:xlink="http://www.w3.org/1999/xlink" xmlns:a="http://ns.adobe.com/AdobeSVGViewerExtensions/3.0/"
	 x="0px" y="0px" width="64px" height="64px" viewBox="0 0 64 64" enable-background="new 0 0 64 64" xml:space="preserve">
<linearGradient id="SVGID_1_" gradientUnits="userSpaceOnUse" x1="32.0005" y1="62" x2="32.0005" y2="2.0005">
	<stop  offset="0" style="stop-color:#FFA027"/>
	<stop  offset="0.2723" style="stop-color:#FFC151"/>
	<stop  offset="0.7633" style="stop-color:#FFC93F"/>
	<stop  offset="1" style="stop-color:#FFE261"/>
	<a:midPointStop  offset="0" style="stop-color:#FFA027"/>
	<a:midPointStop  offset="0.5" style="stop-color:#FFA027"/>
	<a:midPointStop  offset="0.2723" style="stop-color:#FFC151"/>
	<a:midPointStop  offset="0.5" style="stop-color:#FFC151"/>
	<a:midPointStop  offset="0.7633" style="stop-color:#FFC93F"/>
	<a:midPointStop  offset="0.5" style="stop-color:#FFC93F"/>
	<a:midPointStop  offset="1" style="stop-color:#FFE261"/>
</linearGradient>
<circle fill="url(#SVGID_1_)" cx="32" cy="32" r="30"/>
<radialGradient id="SVGID_2_" cx="13.1885" cy="39.2539" r="10" gradientUnits="userSpaceOnUse">
	<stop  offset="0" style="stop-color:#F18D84"/>
	<stop  offset="0.2514" style="stop-color:#F29180;stop-opacity:0.7486"/>
	<stop  offset="0.5118" style="stop-color:#F49E73;stop-opacity:0.4882"/>
	<stop  offset="0.7755" style="stop-color:#F8B25F;stop-opacity:0.2245"/>
	<stop  offset="1" style="stop-color:#FDCA47;stop-opacity:0"/>
	<a:midPointStop  offset="0" style="stop-color:#F18D84"/>
	<a:midPointStop  offset="0.7" style="stop-color:#F18D84"/>
	<a:midPointStop  offset="1" style="stop-color:#FDCA47;stop-opacity:0"/>
</radialGradient>
<circle fill="url(#SVGID_2_)" cx="13.188" cy="39.254" r="10"/>
<radialGradient id="SVGID_3_" cx="50.8096" cy="39" r="10" gradientUnits="userSpaceOnUse">
	<stop  offset="0" style="stop-color:#F18D84"/>
	<stop  offset="0.2514" style="stop-color:#F29180;stop-opacity:0.7486"/>
	<stop  offset="0.5118" style="stop-color:#F49E73;stop-opacity:0.4882"/>
	<stop  offset="0.7755" style="stop-color:#F8B25F;stop-opacity:0.2245"/>
	<stop  offset="1" style="stop-color:#FDCA47;stop-opacity:0"/>
	<a:midPointStop  offset="0" style="stop-color:#F18D84"/>
	<a:midPointStop  offset="0.7" style="stop-color:#F18D84"/>
	<a:midPointStop  offset="1" style="stop-color:#FDCA47;stop-opacity:0"/>
</radialGradient>
<circle fill="url(#SVGID_3_)" cx="50.81" cy="39" r="10"/>
<path fill="#917524" d="M12.457,19.186c5.242,0.238,11.211-1.973,13.488-4.764c0.477-0.592-0.721-3.061-1.184-2.623
	c-3.561,3.379-8.396,5.719-13.248,5.811C10.863,17.623,11.67,19.15,12.457,19.186z"/>
<path fill="#917524" d="M51.545,19.184c-5.242,0.238-11.209-1.971-13.486-4.764c-0.48-0.588,0.721-3.061,1.184-2.621
	c3.561,3.377,8.396,5.719,13.246,5.811C53.141,17.621,52.334,19.15,51.545,19.184z"/>
<path fill="#FFFFFF" d="M44.5,22.576c-4.947,0-8.957,4.225-8.957,9.43c0,1.227,0.229,2.396,0.635,3.473
	c1.588,0.934,4.156,1.857,8.324,1.857c4.162,0,6.73-0.922,8.318-1.855c0.406-1.076,0.637-2.246,0.637-3.475
	C53.457,26.801,49.445,22.576,44.5,22.576z"/>
<path fill="#302C3B" d="M43.684,37.32c0.092-2.01,1.445-3.607,3.115-3.607c1.318,0,2.443,0.992,2.908,2.396
	c0.842-1.162,1.348-2.607,1.348-4.182c0-3.809-2.936-6.898-6.555-6.898s-6.555,3.09-6.555,6.898c0,1.953,0.775,3.713,2.016,4.967
	C41.016,37.121,42.25,37.275,43.684,37.32z M41.4,29.541c1.084,0,1.963,1.066,1.963,2.387c0,1.322-0.879,2.393-1.963,2.393
	c-1.086,0-1.965-1.07-1.965-2.393C39.436,30.607,40.314,29.541,41.4,29.541z"/>
<path fill="#FFFFFF" d="M19.5,22.576c-4.947,0-8.959,4.225-8.959,9.43c0,1.227,0.23,2.396,0.637,3.473
	c1.588,0.934,4.156,1.857,8.322,1.857c4.162,0,6.73-0.922,8.318-1.855c0.406-1.076,0.637-2.246,0.637-3.475
	C28.455,26.801,24.443,22.576,19.5,22.576z"/>
<path fill="#302C3B" d="M18.684,37.32c0.09-2.01,1.445-3.607,3.115-3.607c1.318,0,2.443,0.992,2.906,2.396
	c0.842-1.162,1.35-2.607,1.35-4.182c0-3.809-2.936-6.898-6.555-6.898s-6.555,3.09-6.555,6.898c0,1.953,0.775,3.713,2.014,4.967
	C16.014,37.121,17.248,37.275,18.684,37.32z M16.398,29.541c1.084,0,1.963,1.066,1.963,2.387c0,1.322-0.879,2.393-1.963,2.393
	s-1.963-1.07-1.963-2.393C14.436,30.607,15.314,29.541,16.398,29.541z"/>
<path fill="#302C3B" d="M24.608,50.391c3.271-1.309,11.517-1.307,14.785,0c0.687,0.34,0.708-0.193,0.468-0.549
	c-4.139-5.789-11.584-5.789-15.722,0C23.898,50.199,23.921,50.73,24.608,50.391z"/>
</svg>
