<?xml version="1.0" encoding="utf-8"?>
<!-- Generator: Adobe Illustrator 15.0.0, SVG Export Plug-In . SVG Version: 6.00 Build 0)  -->
<!DOCTYPE svg PUBLIC "-//W3C//DTD SVG 1.1//EN" "http://www.w3.org/Graphics/SVG/1.1/DTD/svg11.dtd" [
	<!ENTITY ns_flows "http://ns.adobe.com/Flows/1.0/">
	<!ENTITY ns_extend "http://ns.adobe.com/Extensibility/1.0/">
	<!ENTITY ns_ai "http://ns.adobe.com/AdobeIllustrator/10.0/">
	<!ENTITY ns_graphs "http://ns.adobe.com/Graphs/1.0/">
]>
<svg version="1.1" id="Layer_1" xmlns:x="&ns_extend;" xmlns:i="&ns_ai;" xmlns:graph="&ns_graphs;"
	 xmlns="http://www.w3.org/2000/svg" xmlns:xlink="http://www.w3.org/1999/xlink" xmlns:a="http://ns.adobe.com/AdobeSVGViewerExtensions/3.0/"
	 x="0px" y="0px" width="64px" height="64px" viewBox="0 0 64 64" enable-background="new 0 0 64 64" xml:space="preserve">
<linearGradient id="SVGID_1_" gradientUnits="userSpaceOnUse" x1="32.0005" y1="62.001" x2="32.0005" y2="1.9995">
	<stop  offset="0" style="stop-color:#FFA027"/>
	<stop  offset="0.2723" style="stop-color:#FFC151"/>
	<stop  offset="0.7633" style="stop-color:#FFC93F"/>
	<stop  offset="1" style="stop-color:#FFE261"/>
	<a:midPointStop  offset="0" style="stop-color:#FFA027"/>
	<a:midPointStop  offset="0.5" style="stop-color:#FFA027"/>
	<a:midPointStop  offset="0.2723" style="stop-color:#FFC151"/>
	<a:midPointStop  offset="0.5" style="stop-color:#FFC151"/>
	<a:midPointStop  offset="0.7633" style="stop-color:#FFC93F"/>
	<a:midPointStop  offset="0.5" style="stop-color:#FFC93F"/>
	<a:midPointStop  offset="1" style="stop-color:#FFE261"/>
</linearGradient>
<path fill="url(#SVGID_1_)" d="M32,1.999c16.571,0,30,13.439,30,30.004c0,16.572-13.43,29.998-30,29.998
	c-16.572,0-29.996-13.426-30-29.998C2,15.438,15.428,1.999,32,1.999z"/>
<path fill="#FFFFFF" d="M53.467,26.669c0,5.521-4.479,9.996-9.998,9.998c-5.523,0-10.002-4.479-10.002-10
	C33.467,21.147,53.467,21.147,53.467,26.669z"/>
<path fill="#302C3B" d="M46.469,26.665c0,2.766-2.244,5-5.002,5.002c-2.764,0-5-2.24-4.998-5c-0.002-2.764,2.234-4.998,4.998-5
	C44.225,21.669,46.469,23.903,46.469,26.665z"/>
<radialGradient id="SVGID_2_" cx="43.4668" cy="21.667" r="7.9063" gradientUnits="userSpaceOnUse">
	<stop  offset="0" style="stop-color:#FDC22B"/>
	<stop  offset="1" style="stop-color:#F2AC00"/>
	<a:midPointStop  offset="0" style="stop-color:#FDC22B"/>
	<a:midPointStop  offset="0.5" style="stop-color:#FDC22B"/>
	<a:midPointStop  offset="1" style="stop-color:#F2AC00"/>
</radialGradient>
<path fill="url(#SVGID_2_)" d="M53.467,26.669c-4.58-1.343-16.949-0.896-20-0.002c0-5.52,4.479-10.002,10-10.002
	C48.988,16.667,53.467,21.147,53.467,26.669z"/>
<path fill="#FFFFFF" d="M29.533,26.667c-0.002,4.97-4.03,9-9,9s-8.997-4.03-9-9C11.536,21.699,29.531,21.699,29.533,26.667z"/>
<path fill="#302C3B" d="M25.776,25.604c-0.002,1.933-1.568,3.5-3.5,3.5c-1.935,0-3.5-1.567-3.5-3.5s1.565-3.5,3.5-3.5
	C24.206,22.104,25.776,23.672,25.776,25.604z"/>
<radialGradient id="SVGID_3_" cx="20.5332" cy="22.167" r="7.1148" gradientUnits="userSpaceOnUse">
	<stop  offset="0" style="stop-color:#FDC22B"/>
	<stop  offset="1" style="stop-color:#F2AC00"/>
	<a:midPointStop  offset="0" style="stop-color:#FDC22B"/>
	<a:midPointStop  offset="0.5" style="stop-color:#FDC22B"/>
	<a:midPointStop  offset="1" style="stop-color:#F2AC00"/>
</radialGradient>
<path fill="url(#SVGID_3_)" d="M29.533,26.667c-3.341-3.423-15.491-3.086-18,0c0.002-4.968,4.031-9,9-9
	C25.502,17.669,29.531,21.699,29.533,26.667z"/>
<path fill="#917524" d="M53.533,15.962c-2.813-4.43-8.045-8.053-11.639-8.314c-0.758-0.055-2.096,2.346-1.469,2.473
	c4.809,0.98,9.5,3.598,12.357,7.518C53.166,18.165,53.957,16.628,53.533,15.962z"/>
<path fill="#917524" d="M11.656,15.597c4.158-3.203,10.314-4.816,13.779-3.834c0.732,0.207,1.168,2.922,0.535,2.826
	c-4.854-0.723-10.158,0.131-14.182,2.838C11.248,17.792,11.031,16.077,11.656,15.597z"/>
<path fill="#302C3B" d="M50.891,39.651c-0.102,3.358-2.008,6.476-4.975,8.134c-3.25,1.817-7.162,1.6-11.014-0.613
	c-3.993-2.293-7.422-1.334-10.45-0.487c-3.834,1.071-6.603,1.85-10.074-3.878c-0.635-1.049-2.773,0.247-2.137,1.296
	c4.454,7.35,8.933,6.098,12.886,4.99c2.801-0.783,5.448-1.524,8.529,0.246c2.463,1.415,5.02,2.134,7.48,2.149
	c2.115,0.015,4.156-0.489,6-1.521c3.729-2.084,6.125-6.008,6.252-10.241C53.428,38.452,50.93,38.376,50.891,39.651z"/>
</svg>
