<?xml version="1.0" encoding="utf-8"?>
<!-- Generator: Adobe Illustrator 15.0.0, SVG Export Plug-In . SVG Version: 6.00 Build 0)  -->
<!DOCTYPE svg PUBLIC "-//W3C//DTD SVG 1.1//EN" "http://www.w3.org/Graphics/SVG/1.1/DTD/svg11.dtd" [
	<!ENTITY ns_flows "http://ns.adobe.com/Flows/1.0/">
	<!ENTITY ns_extend "http://ns.adobe.com/Extensibility/1.0/">
	<!ENTITY ns_ai "http://ns.adobe.com/AdobeIllustrator/10.0/">
	<!ENTITY ns_graphs "http://ns.adobe.com/Graphs/1.0/">
]>
<svg version="1.1" id="Layer_1" xmlns:x="&ns_extend;" xmlns:i="&ns_ai;" xmlns:graph="&ns_graphs;"
	 xmlns="http://www.w3.org/2000/svg" xmlns:xlink="http://www.w3.org/1999/xlink" xmlns:a="http://ns.adobe.com/AdobeSVGViewerExtensions/3.0/"
	 x="0px" y="0px" width="64px" height="64px" viewBox="0 0 64 64" enable-background="new 0 0 64 64" xml:space="preserve">
<path fill="#AF1F23" d="M52.19,10.009c0,0-7.107-12.63-16.793-6.169c-0.305,1.077,5.268-0.893,6.903,2.149
	C44.848,10.725,50.389,12.057,52.19,10.009z"/>
<linearGradient id="SVGID_1_" gradientUnits="userSpaceOnUse" x1="100.3457" y1="-94.9243" x2="100.3457" y2="-85.376" gradientTransform="matrix(1 0 0 -1 -56 -80)">
	<stop  offset="0" style="stop-color:#B00000"/>
	<stop  offset="1" style="stop-color:#FF6800"/>
	<a:midPointStop  offset="0" style="stop-color:#B00000"/>
	<a:midPointStop  offset="0.5" style="stop-color:#B00000"/>
	<a:midPointStop  offset="1" style="stop-color:#FF6800"/>
</linearGradient>
<path fill="url(#SVGID_1_)" d="M40.984,7.552c1.521-0.807,2.322-0.674,2.322-0.674c0.864-1.533,2.427-0.752,2.427-0.752
	s3.233-3.283,6.457,3.883l-3.362,4.915c-9.526-2.151-12.327-7.371-12.327-7.371S38.464,6.017,40.984,7.552z"/>
<linearGradient id="SVGID_2_" gradientUnits="userSpaceOnUse" x1="104.5068" y1="-95.4956" x2="110.7461" y2="-95.4956" gradientTransform="matrix(1 0 0 -1 -56 -80)">
	<stop  offset="0" style="stop-color:#B00000"/>
	<stop  offset="1" style="stop-color:#FF6800"/>
	<a:midPointStop  offset="0" style="stop-color:#B00000"/>
	<a:midPointStop  offset="0.5" style="stop-color:#B00000"/>
	<a:midPointStop  offset="1" style="stop-color:#FF6800"/>
</linearGradient>
<path fill="url(#SVGID_2_)" d="M52.596,21.472c-0.479,0.418-3.989-4.884-4.088-7.365c-0.051-1.301,1.841-4.311,3.15-4.604
	C52.899,9.226,57.36,17.302,52.596,21.472z"/>
<linearGradient id="SVGID_3_" gradientUnits="userSpaceOnUse" x1="101.5947" y1="-105.126" x2="108.9427" y2="-97.778" gradientTransform="matrix(1 0 0 -1 -56 -80)">
	<stop  offset="0" style="stop-color:#B00000"/>
	<stop  offset="1" style="stop-color:#FF6800"/>
	<a:midPointStop  offset="0" style="stop-color:#B00000"/>
	<a:midPointStop  offset="0.5" style="stop-color:#B00000"/>
	<a:midPointStop  offset="1" style="stop-color:#FF6800"/>
</linearGradient>
<path fill="url(#SVGID_3_)" d="M54.257,19.143c0.277,0.727-3.751,6.01-7.747,6.862l-2.591-2.553c0,0,3.298-4.502,5.922-5.583
	C50.517,17.693,53.979,18.416,54.257,19.143z"/>
<path fill="#AF1F23" d="M11.81,10.009c0,0,7.107-12.63,16.793-6.169c0.305,1.077-5.268-0.893-6.903,2.149
	C19.153,10.725,13.612,12.057,11.81,10.009z"/>
<linearGradient id="SVGID_4_" gradientUnits="userSpaceOnUse" x1="279.7119" y1="-94.9243" x2="279.7119" y2="-85.376" gradientTransform="matrix(-1 0 0 -1 299.3672 -80)">
	<stop  offset="0" style="stop-color:#B00000"/>
	<stop  offset="1" style="stop-color:#FF6800"/>
	<a:midPointStop  offset="0" style="stop-color:#B00000"/>
	<a:midPointStop  offset="0.5" style="stop-color:#B00000"/>
	<a:midPointStop  offset="1" style="stop-color:#FF6800"/>
</linearGradient>
<path fill="url(#SVGID_4_)" d="M23.016,7.552c-1.521-0.807-2.322-0.674-2.322-0.674c-0.864-1.533-2.427-0.752-2.427-0.752
	s-3.233-3.283-6.457,3.883l3.362,4.915C24.699,12.773,27.5,7.554,27.5,7.554S25.537,6.017,23.016,7.552z"/>
<linearGradient id="SVGID_5_" gradientUnits="userSpaceOnUse" x1="283.874" y1="-95.4956" x2="290.1123" y2="-95.4956" gradientTransform="matrix(-1 0 0 -1 299.3672 -80)">
	<stop  offset="0" style="stop-color:#B00000"/>
	<stop  offset="1" style="stop-color:#FF6800"/>
	<a:midPointStop  offset="0" style="stop-color:#B00000"/>
	<a:midPointStop  offset="0.5" style="stop-color:#B00000"/>
	<a:midPointStop  offset="1" style="stop-color:#FF6800"/>
</linearGradient>
<path fill="url(#SVGID_5_)" d="M11.405,21.472c0.479,0.418,3.989-4.884,4.088-7.365c0.051-1.301-1.841-4.311-3.15-4.604
	C11.101,9.226,6.64,17.302,11.405,21.472z"/>
<linearGradient id="SVGID_6_" gradientUnits="userSpaceOnUse" x1="280.96" y1="-105.127" x2="288.3086" y2="-97.7783" gradientTransform="matrix(-1 0 0 -1 299.3672 -80)">
	<stop  offset="0" style="stop-color:#B00000"/>
	<stop  offset="1" style="stop-color:#FF6800"/>
	<a:midPointStop  offset="0" style="stop-color:#B00000"/>
	<a:midPointStop  offset="0.5" style="stop-color:#B00000"/>
	<a:midPointStop  offset="1" style="stop-color:#FF6800"/>
</linearGradient>
<path fill="url(#SVGID_6_)" d="M9.744,19.143c-0.277,0.727,3.751,6.01,7.747,6.862l2.591-2.553c0,0-3.298-4.502-5.922-5.583
	C13.484,17.693,10.021,18.416,9.744,19.143z"/>
<path fill="#AF1F23" d="M35.248,15.182l-3.498,2.792l-3.496-2.792c-3.645,2.117-3.329,5.021-3.329,5.021h14.157
	C39.081,20.202,38.891,17.3,35.248,15.182z"/>
<path fill="#AF1F23" d="M49.858,57.011c0.199,1.331,1.466,5.229,1.733,4.978c1.504-2.556,0.853-5.445,0.377-6.234
	C51.969,55.754,49.751,55.885,49.858,57.011z"/>
<linearGradient id="SVGID_7_" gradientUnits="userSpaceOnUse" x1="-14.8813" y1="-68.0791" x2="-14.8813" y2="-61.4141" gradientTransform="matrix(0.8989 -0.4381 -0.4381 -0.8989 34.6519 -11.0561)">
	<stop  offset="0" style="stop-color:#B00000"/>
	<stop  offset="1" style="stop-color:#FF6800"/>
	<a:midPointStop  offset="0" style="stop-color:#B00000"/>
	<a:midPointStop  offset="0.5" style="stop-color:#B00000"/>
	<a:midPointStop  offset="1" style="stop-color:#FF6800"/>
</linearGradient>
<path fill="url(#SVGID_7_)" d="M48.645,50.465c-2.749,0.896,0.15,5.766,0.529,6.172c0.683,0.733,2.335,0.031,3.077-0.815
	C52.995,54.977,49.644,50.309,48.645,50.465z"/>
<linearGradient id="SVGID_8_" gradientUnits="userSpaceOnUse" x1="99.1641" y1="-132.5234" x2="99.1641" y2="-125.4102" gradientTransform="matrix(1 0 0 -1 -56 -80)">
	<stop  offset="0" style="stop-color:#B00000"/>
	<stop  offset="1" style="stop-color:#FF6800"/>
	<a:midPointStop  offset="0" style="stop-color:#B00000"/>
	<a:midPointStop  offset="0.5" style="stop-color:#B00000"/>
	<a:midPointStop  offset="1" style="stop-color:#FF6800"/>
</linearGradient>
<path fill="url(#SVGID_8_)" d="M37.438,45.74c2.633-1.781,11.587,4.195,11.74,4.863c0.154,0.668-0.565,1.914-1.182,1.92
	c-9.12-0.926-10.675-3.787-10.675-3.787S36.818,46.158,37.438,45.74z"/>
<path fill="#AF1F23" d="M58.803,49.711c0.504,1.4,2.664,5.56,2.875,5.32c0.93-2.521-0.385-5.582-1.046-6.445
	C60.632,48.586,58.436,48.533,58.803,49.711z"/>
<linearGradient id="SVGID_9_" gradientUnits="userSpaceOnUse" x1="168.3076" y1="-138.0244" x2="177.1152" y2="-138.0244" gradientTransform="matrix(0.9805 0.1965 0.1965 -0.9805 -85.6994 -121.9352)">
	<stop  offset="0" style="stop-color:#FF6800"/>
	<stop  offset="1" style="stop-color:#B00000"/>
	<a:midPointStop  offset="0" style="stop-color:#FF6800"/>
	<a:midPointStop  offset="0.5" style="stop-color:#FF6800"/>
	<a:midPointStop  offset="1" style="stop-color:#B00000"/>
</linearGradient>
<path fill="url(#SVGID_9_)" d="M52.949,44.045c-2.065,1.682,4.625,5.788,5.249,6.237c0.834,0.601,2.518-0.849,2.6-1.907
	C60.879,47.316,53.83,43.604,52.949,44.045z"/>
<linearGradient id="SVGID_10_" gradientUnits="userSpaceOnUse" x1="163.4961" y1="-138.4365" x2="163.4961" y2="-134.3423" gradientTransform="matrix(0.9805 0.1965 0.1965 -0.9805 -85.6994 -121.9352)">
	<stop  offset="0" style="stop-color:#B00000"/>
	<stop  offset="1" style="stop-color:#FF6800"/>
	<a:midPointStop  offset="0" style="stop-color:#B00000"/>
	<a:midPointStop  offset="0.5" style="stop-color:#B00000"/>
	<a:midPointStop  offset="1" style="stop-color:#FF6800"/>
</linearGradient>
<path fill="url(#SVGID_10_)" d="M41.889,44.627c0,0,1.854,0.969,12.167,2.144c0.686,0.006,1.32-1.36,1.059-2.102
	c-0.265-0.741-7.339-4.038-12.933-2.837C42.182,41.832,38.17,43.237,41.889,44.627z"/>
<path fill="#AF1F23" d="M59.528,34.319c0.137-1.672,1.185-6.862,1.448-6.671c1.518,2.412,1.012,6.137,0.591,7.282
	C61.567,34.93,59.469,35.711,59.528,34.319z"/>
<linearGradient id="SVGID_11_" gradientUnits="userSpaceOnUse" x1="171.6563" y1="-131.5879" x2="171.6563" y2="-123.9653" gradientTransform="matrix(0.9823 0.1873 0.1873 -0.9823 -87.0159 -120.5224)">
	<stop  offset="0" style="stop-color:#B00000"/>
	<stop  offset="1" style="stop-color:#FF6800"/>
	<a:midPointStop  offset="0" style="stop-color:#B00000"/>
	<a:midPointStop  offset="0.5" style="stop-color:#B00000"/>
	<a:midPointStop  offset="1" style="stop-color:#FF6800"/>
</linearGradient>
<path fill="url(#SVGID_11_)" d="M54.137,40.354c-2.154-1.458,0.563-2.547,5.003-6.486c0.766-0.68,2.552,0.608,2.701,1.63
	C61.99,36.521,55.039,40.707,54.137,40.354z"/>
<linearGradient id="SVGID_12_" gradientUnits="userSpaceOnUse" x1="163.1934" y1="-133.3706" x2="163.1934" y2="-129.2422" gradientTransform="matrix(0.9823 0.1873 0.1873 -0.9823 -87.0159 -120.5224)">
	<stop  offset="0" style="stop-color:#B00000"/>
	<stop  offset="1" style="stop-color:#FF6800"/>
	<a:midPointStop  offset="0" style="stop-color:#B00000"/>
	<a:midPointStop  offset="0.5" style="stop-color:#B00000"/>
	<a:midPointStop  offset="1" style="stop-color:#FF6800"/>
</linearGradient>
<path fill="url(#SVGID_12_)" d="M43.938,37.165c0,0,1.937-0.397,10.634,0.889c0.562,0.149,0.566,1.458,0.182,2.05
	c-0.383,0.592-6.921,1.902-11.217-0.414C43.536,39.691,40.827,38.232,43.938,37.165z"/>
<linearGradient id="SVGID_13_" gradientUnits="userSpaceOnUse" x1="200.9814" y1="-129.9463" x2="200.9814" y2="-118.876" gradientTransform="matrix(0.9538 0.3006 0.3006 -0.9538 -105.3956 -149.4345)">
	<stop  offset="0" style="stop-color:#B00000"/>
	<stop  offset="1" style="stop-color:#FF6800"/>
	<a:midPointStop  offset="0" style="stop-color:#B00000"/>
	<a:midPointStop  offset="0.5" style="stop-color:#B00000"/>
	<a:midPointStop  offset="1" style="stop-color:#FF6800"/>
</linearGradient>
<path fill="url(#SVGID_13_)" d="M43.046,32.643c-0.399-0.744,0.332-5.119,11.055-7.122c0.57-0.207,0.542,1.533,0.582,2.309
	C48.103,35.65,44.372,35.112,43.046,32.643z"/>
<path fill="#AF1F23" d="M59.416,19.591c0.011-1.857,1.195-8.122,1.481-7.939c1.766,2.505,0.964,6.501,0.616,7.804
	C61.516,19.457,59.463,21.128,59.416,19.591z"/>
<linearGradient id="SVGID_14_" gradientUnits="userSpaceOnUse" x1="206.9082" y1="-121.1494" x2="206.9082" y2="-110.4297" gradientTransform="matrix(0.9538 0.3006 0.3006 -0.9538 -105.3956 -149.4345)">
	<stop  offset="0" style="stop-color:#B00000"/>
	<stop  offset="1" style="stop-color:#FF6800"/>
	<a:midPointStop  offset="0" style="stop-color:#B00000"/>
	<a:midPointStop  offset="0.5" style="stop-color:#B00000"/>
	<a:midPointStop  offset="1" style="stop-color:#FF6800"/>
</linearGradient>
<path fill="url(#SVGID_14_)" d="M54.681,27.832c-6.037-0.091,3.2-8.137,3.78-8.852c0.7-0.861,2.69-0.472,3.263,0.505
	C62.3,20.463,55.692,27.804,54.681,27.832z"/>
<path fill="#AF1F23" d="M14.141,57.011c-0.199,1.331-1.465,5.229-1.732,4.978c-1.504-2.556-0.854-5.445-0.377-6.234
	C12.032,55.754,14.249,55.885,14.141,57.011z"/>
<linearGradient id="SVGID_15_" gradientUnits="userSpaceOnUse" x1="48.4883" y1="-98.96" x2="48.4883" y2="-92.2949" gradientTransform="matrix(-0.8989 -0.4381 0.4381 -0.8989 99.8422 -11.0561)">
	<stop  offset="0" style="stop-color:#B00000"/>
	<stop  offset="1" style="stop-color:#FF6800"/>
	<a:midPointStop  offset="0" style="stop-color:#B00000"/>
	<a:midPointStop  offset="0.5" style="stop-color:#B00000"/>
	<a:midPointStop  offset="1" style="stop-color:#FF6800"/>
</linearGradient>
<path fill="url(#SVGID_15_)" d="M15.356,50.465c2.748,0.896-0.15,5.766-0.529,6.172c-0.684,0.733-2.336,0.031-3.078-0.815
	C11.004,54.977,14.356,50.309,15.356,50.465z"/>
<linearGradient id="SVGID_16_" gradientUnits="userSpaceOnUse" x1="169.6572" y1="-132.5234" x2="169.6572" y2="-125.4102" gradientTransform="matrix(-1 0 0 -1 190.4941 -80)">
	<stop  offset="0" style="stop-color:#B00000"/>
	<stop  offset="1" style="stop-color:#FF6800"/>
	<a:midPointStop  offset="0" style="stop-color:#B00000"/>
	<a:midPointStop  offset="0.5" style="stop-color:#B00000"/>
	<a:midPointStop  offset="1" style="stop-color:#FF6800"/>
</linearGradient>
<path fill="url(#SVGID_16_)" d="M26.563,45.74c-2.633-1.781-11.588,4.195-11.74,4.863c-0.154,0.668,0.564,1.914,1.182,1.92
	c9.119-0.926,10.674-3.787,10.674-3.787S27.182,46.158,26.563,45.74z"/>
<path fill="#AF1F23" d="M5.198,49.711c-0.504,1.4-2.664,5.56-2.875,5.32c-0.93-2.521,0.385-5.582,1.045-6.445
	C3.368,48.586,5.565,48.533,5.198,49.711z"/>
<linearGradient id="SVGID_17_" gradientUnits="userSpaceOnUse" x1="237.4277" y1="-124.1729" x2="246.2354" y2="-124.1729" gradientTransform="matrix(-0.9805 0.1965 -0.1965 -0.9805 220.1935 -121.9352)">
	<stop  offset="0" style="stop-color:#FF6800"/>
	<stop  offset="1" style="stop-color:#B00000"/>
	<a:midPointStop  offset="0" style="stop-color:#FF6800"/>
	<a:midPointStop  offset="0.5" style="stop-color:#FF6800"/>
	<a:midPointStop  offset="1" style="stop-color:#B00000"/>
</linearGradient>
<path fill="url(#SVGID_17_)" d="M11.051,44.045c2.064,1.682-4.625,5.788-5.25,6.237c-0.834,0.601-2.518-0.849-2.6-1.907
	C3.122,47.316,10.17,43.604,11.051,44.045z"/>
<linearGradient id="SVGID_18_" gradientUnits="userSpaceOnUse" x1="232.6152" y1="-124.5854" x2="232.6152" y2="-120.4917" gradientTransform="matrix(-0.9805 0.1965 -0.1965 -0.9805 220.1935 -121.9352)">
	<stop  offset="0" style="stop-color:#B00000"/>
	<stop  offset="1" style="stop-color:#FF6800"/>
	<a:midPointStop  offset="0" style="stop-color:#B00000"/>
	<a:midPointStop  offset="0.5" style="stop-color:#B00000"/>
	<a:midPointStop  offset="1" style="stop-color:#FF6800"/>
</linearGradient>
<path fill="url(#SVGID_18_)" d="M22.112,44.627c0,0-1.854,0.969-12.168,2.144c-0.686,0.006-1.32-1.36-1.059-2.102
	c0.266-0.741,7.34-4.038,12.934-2.837C21.819,41.832,25.831,43.237,22.112,44.627z"/>
<path fill="#AF1F23" d="M4.471,34.319c-0.137-1.672-1.184-6.862-1.447-6.671c-1.518,2.412-1.012,6.137-0.592,7.282
	C2.432,34.93,4.532,35.711,4.471,34.319z"/>
<linearGradient id="SVGID_19_" gradientUnits="userSpaceOnUse" x1="240.9004" y1="-118.3813" x2="240.9004" y2="-110.7588" gradientTransform="matrix(-0.9823 0.1873 -0.1873 -0.9823 221.509 -120.5224)">
	<stop  offset="0" style="stop-color:#B00000"/>
	<stop  offset="1" style="stop-color:#FF6800"/>
	<a:midPointStop  offset="0" style="stop-color:#B00000"/>
	<a:midPointStop  offset="0.5" style="stop-color:#B00000"/>
	<a:midPointStop  offset="1" style="stop-color:#FF6800"/>
</linearGradient>
<path fill="url(#SVGID_19_)" d="M9.864,40.354c2.154-1.458-0.564-2.547-5.004-6.486c-0.766-0.68-2.551,0.608-2.701,1.63
	C2.01,36.521,8.961,40.707,9.864,40.354z"/>
<linearGradient id="SVGID_20_" gradientUnits="userSpaceOnUse" x1="232.4395" y1="-120.1641" x2="232.4395" y2="-116.0356" gradientTransform="matrix(-0.9823 0.1873 -0.1873 -0.9823 221.509 -120.5224)">
	<stop  offset="0" style="stop-color:#B00000"/>
	<stop  offset="1" style="stop-color:#FF6800"/>
	<a:midPointStop  offset="0" style="stop-color:#B00000"/>
	<a:midPointStop  offset="0.5" style="stop-color:#B00000"/>
	<a:midPointStop  offset="1" style="stop-color:#FF6800"/>
</linearGradient>
<path fill="url(#SVGID_20_)" d="M20.061,37.165c0,0-1.936-0.397-10.633,0.889c-0.563,0.149-0.566,1.458-0.182,2.05
	c0.383,0.592,6.92,1.902,11.217-0.414C20.463,39.691,23.172,38.232,20.061,37.165z"/>
<linearGradient id="SVGID_21_" gradientUnits="userSpaceOnUse" x1="268.2168" y1="-108.7583" x2="268.2168" y2="-97.688" gradientTransform="matrix(-0.9538 0.3006 -0.3006 -0.9538 239.8897 -149.4345)">
	<stop  offset="0" style="stop-color:#B00000"/>
	<stop  offset="1" style="stop-color:#FF6800"/>
	<a:midPointStop  offset="0" style="stop-color:#B00000"/>
	<a:midPointStop  offset="0.5" style="stop-color:#B00000"/>
	<a:midPointStop  offset="1" style="stop-color:#FF6800"/>
</linearGradient>
<path fill="url(#SVGID_21_)" d="M20.954,32.643c0.4-0.744-0.332-5.119-11.055-7.122c-0.57-0.207-0.541,1.533-0.582,2.309
	C15.897,35.65,19.627,35.112,20.954,32.643z"/>
<path fill="#AF1F23" d="M4.584,19.591c-0.012-1.857-1.195-8.122-1.482-7.939c-1.766,2.505-0.963,6.501-0.615,7.804
	C2.485,19.457,4.538,21.128,4.584,19.591z"/>
<linearGradient id="SVGID_22_" gradientUnits="userSpaceOnUse" x1="274.1445" y1="-99.9619" x2="274.1445" y2="-89.2422" gradientTransform="matrix(-0.9538 0.3006 -0.3006 -0.9538 239.8897 -149.4345)">
	<stop  offset="0" style="stop-color:#B00000"/>
	<stop  offset="1" style="stop-color:#FF6800"/>
	<a:midPointStop  offset="0" style="stop-color:#B00000"/>
	<a:midPointStop  offset="0.5" style="stop-color:#B00000"/>
	<a:midPointStop  offset="1" style="stop-color:#FF6800"/>
</linearGradient>
<path fill="url(#SVGID_22_)" d="M9.319,27.832c6.037-0.091-3.199-8.137-3.779-8.852c-0.701-0.861-2.691-0.472-3.264,0.505
	C1.7,20.463,8.307,27.804,9.319,27.832z"/>
<radialGradient id="SVGID_23_" cx="32" cy="34.3037" r="17.0294" gradientTransform="matrix(1 0 0 1.3006 0 -10.3118)" gradientUnits="userSpaceOnUse">
	<stop  offset="0" style="stop-color:#FF6800"/>
	<stop  offset="0.2668" style="stop-color:#FD6500"/>
	<stop  offset="0.4524" style="stop-color:#F65C00"/>
	<stop  offset="0.6133" style="stop-color:#EA4D00"/>
	<stop  offset="0.7602" style="stop-color:#DA3700"/>
	<stop  offset="0.8963" style="stop-color:#C41B00"/>
	<stop  offset="1" style="stop-color:#B00000"/>
	<a:midPointStop  offset="0" style="stop-color:#FF6800"/>
	<a:midPointStop  offset="0.7758" style="stop-color:#FF6800"/>
	<a:midPointStop  offset="1" style="stop-color:#B00000"/>
</radialGradient>
<path fill="url(#SVGID_23_)" d="M32.179,18.304C26.878,18.299,14,21.033,14,31.991c0,10.958,10.82,12.785,12.119,15.828
	s6.061,2.436,6.061,2.436s4.76,0.609,6.057-2.436C39.536,44.775,50,42.949,50,31.991C50,21.033,37.403,18.309,32.179,18.304z"/>
<path fill="#302C3B" d="M36.74,20.942c-0.972,0-1.758-0.779-1.758-1.743c0-0.963,0.786-1.744,1.758-1.744
	c0.969,0,1.755,0.782,1.755,1.744C38.497,20.163,37.708,20.942,36.74,20.942z"/>
<path id="Shape_21_" fill="#6E8189" d="M37.396,18.931c-0.667,0-0.667-1,0-1C38.063,17.932,38.063,18.931,37.396,18.931
	L37.396,18.931z"/>
<path fill="#302C3B" d="M25.505,19.198c0-0.963,0.786-1.744,1.755-1.744c0.972,0,1.758,0.782,1.758,1.744
	c0,0.964-0.786,1.743-1.758,1.743C26.292,20.942,25.503,20.163,25.505,19.198z"/>
<path id="Shape_7_" fill="#6E8189" d="M26.604,18.931c-0.667,0-0.667-1,0-1S27.27,18.931,26.604,18.931L26.604,18.931z"/>
<path id="Shape_47_" fill="#AF1F23" d="M45.115,8.681c-0.667,0-0.667-1,0-1C45.782,7.682,45.782,8.681,45.115,8.681L45.115,8.681z"
	/>
<path id="Shape_48_" fill="#AF1F23" d="M47.658,10.95c-0.667,0-0.667-1,0-1C48.325,9.951,48.325,10.95,47.658,10.95L47.658,10.95z"
	/>
<path id="Shape_49_" fill="#AF1F23" d="M48.324,8.48c-1.066,0-1.066-1.6,0-1.6C49.391,6.883,49.391,8.48,48.324,8.48L48.324,8.48z"
	/>
<path id="Shape_50_" fill="#AF1F23" d="M52.346,12.962c-0.667,0-0.667-1,0-1C53.013,11.963,53.013,12.962,52.346,12.962
	L52.346,12.962z"/>
<path id="Shape_53_" fill="#AF1F23" d="M51.127,21.202c-0.667,0-0.667-1,0-1C51.794,20.203,51.794,21.202,51.127,21.202
	L51.127,21.202z"/>
<path id="Shape_52_" fill="#AF1F23" d="M52.19,16.295c-1.066,0-1.066-1.6,0-1.6C53.257,14.698,53.257,16.295,52.19,16.295
	L52.19,16.295z"/>
<path id="Shape_65_" fill="#AF1F23" d="M18.885,8.681c0.667,0,0.667-1,0-1C18.218,7.682,18.218,8.681,18.885,8.681L18.885,8.681z"/>
<path id="Shape_64_" fill="#AF1F23" d="M16.342,10.95c1.066,0,1.066-1.6,0-1.6C15.276,9.352,15.276,10.95,16.342,10.95L16.342,10.95
	z"/>
<path id="Shape_63_" fill="#AF1F23" d="M15.676,8.181c0.667,0,0.667-1,0-1C15.009,7.182,15.009,8.181,15.676,8.181L15.676,8.181z"/>
<path id="Shape_60_" fill="#AF1F23" d="M11.655,12.962c0.667,0,0.667-1,0-1C10.988,11.963,10.988,12.962,11.655,12.962
	L11.655,12.962z"/>
<path id="Shape_56_" fill="#AF1F23" d="M11.358,16.481c1.066,0,1.066-1.6,0-1.6C10.292,14.884,10.292,16.481,11.358,16.481
	L11.358,16.481z"/>
<path id="Shape_55_" fill="#AF1F23" d="M12.874,21.202c0.667,0,0.667-1,0-1C12.207,20.203,12.207,21.202,12.874,21.202
	L12.874,21.202z"/>
<path id="Shape_34_" fill="#AF1F23" d="M22.645,26.288c-1.046,0-1.046-1.567,0-1.567C23.69,24.723,23.69,26.288,22.645,26.288
	L22.645,26.288z"/>
<path id="Shape_35_" fill="#AF1F23" d="M22.909,30.487c-0.801,0-0.801-1.2,0-1.2C23.708,29.289,23.708,30.487,22.909,30.487
	L22.909,30.487z"/>
<path id="Shape_66_" fill="#AF1F23" d="M18.544,38.042c-0.801,0-0.801-1.2,0-1.2C19.344,36.844,19.344,38.042,18.544,38.042
	L18.544,38.042z"/>
<path id="Shape_36_" fill="#AF1F23" d="M20.486,34.462c-1.046,0-1.046-1.567,0-1.567C21.531,32.897,21.531,34.462,20.486,34.462
	L20.486,34.462z"/>
<path id="Shape_37_" fill="#AF1F23" d="M43.525,40.184c-1.046,0-1.046-1.566,0-1.566C44.57,38.619,44.57,40.184,43.525,40.184
	L43.525,40.184z"/>
<path id="Shape_38_" fill="#AF1F23" d="M45.435,35.246c-1.046,0-1.046-1.568,0-1.568C46.479,33.68,46.479,35.246,45.435,35.246
	L45.435,35.246z"/>
<path id="Shape_43_" fill="#AF1F23" d="M40.909,36.843c-0.801,0-0.801-1.199,0-1.199C41.708,35.645,41.708,36.843,40.909,36.843
	L40.909,36.843z"/>
<path id="Shape_46_" fill="#AF1F23" d="M38.848,42.171c-0.801,0-0.801-1.199,0-1.199C39.647,40.973,39.647,42.171,38.848,42.171
	L38.848,42.171z"/>
<path id="Shape_25_" fill="#AF1F23" d="M18.544,30.214c-1.046,0-1.046-1.567,0-1.567C19.589,28.647,19.587,30.214,18.544,30.214
	L18.544,30.214z"/>
</svg>
