<?xml version="1.0" encoding="utf-8"?>
<!-- Generator: Adobe Illustrator 15.0.0, SVG Export Plug-In . SVG Version: 6.00 Build 0)  -->
<!DOCTYPE svg PUBLIC "-//W3C//DTD SVG 1.1//EN" "http://www.w3.org/Graphics/SVG/1.1/DTD/svg11.dtd" [
	<!ENTITY ns_flows "http://ns.adobe.com/Flows/1.0/">
	<!ENTITY ns_extend "http://ns.adobe.com/Extensibility/1.0/">
	<!ENTITY ns_ai "http://ns.adobe.com/AdobeIllustrator/10.0/">
	<!ENTITY ns_graphs "http://ns.adobe.com/Graphs/1.0/">
]>
<svg version="1.1" id="Layer_1" xmlns:x="&ns_extend;" xmlns:i="&ns_ai;" xmlns:graph="&ns_graphs;"
	 xmlns="http://www.w3.org/2000/svg" xmlns:xlink="http://www.w3.org/1999/xlink" xmlns:a="http://ns.adobe.com/AdobeSVGViewerExtensions/3.0/"
	 x="0px" y="0px" width="64px" height="64px" viewBox="0 0 64 64" enable-background="new 0 0 64 64" xml:space="preserve">
<path fill="#859399" d="M33.254,10.299c2.654,5.135-0.728,7.711,5.123,12.221c0,0,0.524-2.705,2.009-5.573
	C35.185,15.093,36.831,10.162,33.254,10.299z"/>
<path fill="#4E5E67" d="M33.608,10.309c2.176,0.479,0.316,5.069,3.036,8.16c-0.423,2.498-3.885,4.39-3.21-3.551
	C33.592,13.069,32.229,10.004,33.608,10.309z"/>
<linearGradient id="SVGID_1_" gradientUnits="userSpaceOnUse" x1="35.3096" y1="56" x2="35.3096" y2="8.0005">
	<stop  offset="0" style="stop-color:#7B8A94"/>
	<stop  offset="0.2872" style="stop-color:#8B9AA2"/>
	<stop  offset="0.6144" style="stop-color:#96A5AB"/>
	<stop  offset="1" style="stop-color:#99A8AE"/>
	<a:midPointStop  offset="0" style="stop-color:#7B8A94"/>
	<a:midPointStop  offset="0.2606" style="stop-color:#7B8A94"/>
	<a:midPointStop  offset="1" style="stop-color:#99A8AE"/>
</linearGradient>
<path fill="url(#SVGID_1_)" d="M8.758,39.582c-0.708,1.936,1.568,2.499,0.878,3.256c-1.188,1.303,0.896,5.361,0.827,5.723
	c-0.068,0.362,0.452,0.06,0.259,0.842c-0.568,2.306,3.386,6.157,3.377,3.209c2.283,0.236,3.886,3.138,7.892,2.433
	c0.775,1.899,4.222,0.349,5.135,0.538c7.479,1.551,12.363-8.54,20.263-7.979c1.144,0.08,3.964,4.416,6.6,2.992
	C55.279,52.711,62,55.316,62,55.316V8c-12.302,0.217-16.785,7.841-18.541,7.885c-12.991,0.316-7.098,9.114-18.953,11.572
	C23.816,27.602,11.187,32.938,8.758,39.582z"/>
<radialGradient id="SVGID_2_" cx="9.874" cy="12.9048" r="9.5055" gradientTransform="matrix(0.6032 0.837 -0.5439 0.4318 10.937 14.4051)" gradientUnits="userSpaceOnUse">
	<stop  offset="0" style="stop-color:#E3EDF2"/>
	<stop  offset="0.4075" style="stop-color:#E0EAEF"/>
	<stop  offset="0.7424" style="stop-color:#D6E0E5"/>
	<stop  offset="0.897" style="stop-color:#CFD8DD"/>
	<a:midPointStop  offset="0" style="stop-color:#E3EDF2"/>
	<a:midPointStop  offset="0.7455" style="stop-color:#E3EDF2"/>
	<a:midPointStop  offset="0.897" style="stop-color:#CFD8DD"/>
</radialGradient>
<path fill="url(#SVGID_2_)" d="M2.761,20.785c-2.133,0.733,0.336,12.748,5.906,19.111c0.586,0.669,6.681-4.456,6.036-7.089
	C2.74,27.905,4.26,20.27,2.761,20.785z"/>
<linearGradient id="SVGID_3_" gradientUnits="userSpaceOnUse" x1="14.751" y1="28.4053" x2="22.4839" y2="24.2951">
	<stop  offset="0.1879" style="stop-color:#CFD8DD"/>
	<stop  offset="0.3413" style="stop-color:#D9E3E8"/>
	<stop  offset="0.5739" style="stop-color:#E1EBF0"/>
	<stop  offset="1" style="stop-color:#E3EDF2"/>
	<a:midPointStop  offset="0.1879" style="stop-color:#CFD8DD"/>
	<a:midPointStop  offset="0.1852" style="stop-color:#CFD8DD"/>
	<a:midPointStop  offset="1" style="stop-color:#E3EDF2"/>
</linearGradient>
<path fill="url(#SVGID_3_)" d="M16.434,21.517c-2.307-2.478-1.938,5.805-0.232,10.715c0.31,0.892,7.495,0.624,8.652-4.611
	C23.825,25.369,18.614,23.859,16.434,21.517z"/>
<path fill="#302C3B" d="M13.746,50.216c-5.127-1.763,1.391-2.987,2.429-2.413C16.666,48.073,14.023,50.312,13.746,50.216z"/>
<ellipse fill="#302C3B" cx="26.956" cy="38.881" rx="1.829" ry="2.044"/>
<path id="Shape_28_" fill="#6E8189" d="M26.459,38.537c0,0.813-0.824,0.813-0.824,0C25.635,37.723,26.459,37.723,26.459,38.537
	L26.459,38.537z"/>
<path fill="#302C3B" d="M23.806,39.742c0,0,2.594-2.951,5.879-1.701C28.23,34.445,23.806,36.063,23.806,39.742z"/>
<path fill="#4E5E67" d="M14.099,52.611c7.013,0.923,10.253-3.453,10.253-3.453S20.182,52.105,14.099,52.611z"/>
<path fill="#6E8189" d="M25.681,29.434c-2.188,2.12-3.437,3.995-6.55,4.372C21.933,34.592,24.326,31.847,25.681,29.434z"/>
<path fill="#6E8189" d="M16.076,34.489c-1.767,3.237-2.352,6.11-6.549,6.651C14.022,42.386,15.684,38.189,16.076,34.489z"/>
<path fill="#6E8189" d="M12.802,46.923c2.559-1.052,4.03-0.854,4.834,1.07C17.683,45.73,16.072,44.703,12.802,46.923z"/>
<path fill="#99A8AE" d="M50.175,10.83c1.247,6.473,2.805,9.18-2.753,14.397c0,0-3.818-0.564-5.479-3.5
	C45.465,18.13,45.855,7.851,50.175,10.83z"/>
<path fill="#4E5E67" d="M50.846,11.54c-2.051-2.53-3.859-1.28-5.246,5.748c-1.142,5.792,1.633,9.783,2.063,6.753
	C53.768,18.594,51.988,12.949,50.846,11.54z"/>
<path fill="#6E8189" d="M45.326,28.779c-1.998-3.155-4.17-4.818-2.913-9.844C39.535,23.688,42.381,27.051,45.326,28.779z"/>
<path fill="#6E8189" d="M53.987,50.596c2.999-6.867,0.972-11.924,4.716-27.466C54.005,32.188,55.881,40.555,53.987,50.596z"/>
</svg>
