<?xml version="1.0" encoding="utf-8"?>
<!-- Generator: Adobe Illustrator 15.0.0, SVG Export Plug-In . SVG Version: 6.00 Build 0)  -->
<!DOCTYPE svg PUBLIC "-//W3C//DTD SVG 1.1//EN" "http://www.w3.org/Graphics/SVG/1.1/DTD/svg11.dtd" [
	<!ENTITY ns_flows "http://ns.adobe.com/Flows/1.0/">
	<!ENTITY ns_extend "http://ns.adobe.com/Extensibility/1.0/">
	<!ENTITY ns_ai "http://ns.adobe.com/AdobeIllustrator/10.0/">
	<!ENTITY ns_graphs "http://ns.adobe.com/Graphs/1.0/">
]>
<svg version="1.1" id="Layer_1" xmlns:x="&ns_extend;" xmlns:i="&ns_ai;" xmlns:graph="&ns_graphs;"
	 xmlns="http://www.w3.org/2000/svg" xmlns:xlink="http://www.w3.org/1999/xlink" xmlns:a="http://ns.adobe.com/AdobeSVGViewerExtensions/3.0/"
	 x="0px" y="0px" width="64px" height="64px" viewBox="0 0 64 64" enable-background="new 0 0 64 64" xml:space="preserve">
<path fill="#BEC3CF" d="M27.985,9.579c2.127,3.259,24.487,41.865,29.505,46.699C70.342,42.37,54.091,3.037,27.985,9.579z"/>
<path fill="#CFD8DD" d="M20.744,4.352C20.571,2.72,30.24,9.036,30.63,19.877c0.033,0.696-4.501,0.056-7.271-2.363
	C23.359,17.514,21.363,10.275,20.744,4.352z"/>
<path fill="#99A8AE" d="M21.747,6.981c-0.099-1.146,6.361,4.532,6.521,12.044c0.016,0.482-3.036-0.583-4.883-2.627
	C23.385,16.398,22.108,11.143,21.747,6.981z"/>
<path fill="#1A1626" d="M51.993,17.606c-1.2,4.765-4.842,7.625-4.842,7.625l6.492,10.284c3.377-2.912,5.263-6.979,5.263-6.979
	C56.484,22.121,51.993,17.606,51.993,17.606z"/>
<path fill="#1A1626" d="M60.547,33.17c-1.383,4.377-5.129,6.703-5.129,6.703l2.117,9.738c2.897-2.477,4.445-5.877,4.445-5.877
	C62.195,37.734,60.547,33.17,60.547,33.17z"/>
<path fill="#1A1626" d="M40.012,18.464c0,0,0.263-4.886-1.515-9.092c0,0,3.86,0.602,7.815,3.349c0,0,0.604,4.357-1.179,10.228
	L40.012,18.464z"/>
<path fill="#302C3B" d="M23.715,27.601c0,0,18.324-30.021-5.843-12.823C21.606,20.956,23.715,27.601,23.715,27.601z"/>
<linearGradient id="SVGID_1_" gradientUnits="userSpaceOnUse" x1="43.4102" y1="62" x2="43.4102" y2="36.1714">
	<stop  offset="0.2545" style="stop-color:#CFD8DD"/>
	<stop  offset="0.6086" style="stop-color:#D7DFE3"/>
	<stop  offset="1" style="stop-color:#E6EBEF"/>
	<a:midPointStop  offset="0.2545" style="stop-color:#CFD8DD"/>
	<a:midPointStop  offset="0.6098" style="stop-color:#CFD8DD"/>
	<a:midPointStop  offset="1" style="stop-color:#E6EBEF"/>
</linearGradient>
<path fill="url(#SVGID_1_)" d="M31.651,14.953c-5.264,8.905-0.605,29.596-0.605,29.596C38.564,46.361,32.113,62,37.066,62
	c14.06,0,20.424-5.723,20.424-5.723C59.659,35.846,42.464,15.707,31.651,14.953z"/>
<path fill="#302C3B" d="M55.418,39.873c-1.831,9.91-3.268,15.417-6.485,20.541c2.502-0.728,4.45-1.59,5.837-2.342
	c0.845-2.487,1.974-5.179,2.766-8.461C57.535,46.496,56.607,42.496,55.418,39.873z"/>
<path fill="#302C3B" d="M47.151,25.23c-3.976,19.229-1.173,19.224-6.206,36.604c1.276-0.103,2.482-0.244,3.604-0.43
	c1.661-5.543,6.509-17.551,9.094-25.89C52.317,31.746,49.555,27.412,47.151,25.23z"/>
<path fill="#302C3B" d="M40.012,18.464c0.651,7.05-3.862,17.295-6.467,27.703c2.08,2.77,1.327,8.161,1.443,11.881
	c1.592-9.896,9.226-25.745,10.146-35.099C43.821,20.871,41.718,19.329,40.012,18.464z"/>
<linearGradient id="SVGID_2_" gradientUnits="userSpaceOnUse" x1="31.3052" y1="41.2441" x2="41.5132" y2="45.9625">
	<stop  offset="0" style="stop-color:#1A1626;stop-opacity:0.6"/>
	<stop  offset="1" style="stop-color:#1A1626;stop-opacity:0"/>
	<a:midPointStop  offset="0" style="stop-color:#1A1626;stop-opacity:0.6"/>
	<a:midPointStop  offset="0.6098" style="stop-color:#1A1626;stop-opacity:0.6"/>
	<a:midPointStop  offset="1" style="stop-color:#1A1626;stop-opacity:0"/>
</linearGradient>
<path fill="url(#SVGID_2_)" d="M37.372,25.76c-9.696-0.786-6.327,18.789-6.327,18.789C38.564,46.361,32.113,62,37.066,62
	C35.209,50.822,45.11,40.463,37.372,25.76z"/>
<linearGradient id="SVGID_3_" gradientUnits="userSpaceOnUse" x1="27.1528" y1="54.4521" x2="21.224" y2="35.9374">
	<stop  offset="0.2545" style="stop-color:#CFD8DD"/>
	<stop  offset="0.6086" style="stop-color:#D7DFE3"/>
	<stop  offset="1" style="stop-color:#E6EBEF"/>
	<a:midPointStop  offset="0.2545" style="stop-color:#CFD8DD"/>
	<a:midPointStop  offset="0.6098" style="stop-color:#CFD8DD"/>
	<a:midPointStop  offset="1" style="stop-color:#E6EBEF"/>
</linearGradient>
<path fill="url(#SVGID_3_)" d="M36.146,16.813C35.649,14.382,33.2,4.71,28.054,2.006c-0.622-0.327-1.148,12.275-1.148,12.275
	c-10.703,8.997-22.93,24.1-24.402,26.829c-1.461,2.708,3.793,9.646,3.793,9.646c1.573,0.201,3.533,1.646,4.335,2.261
	c1.482,1.141,5.081-3.273,9.116-4.091c15.185-3.085,18.195-8.528,18.7-13.657C39.627,23.313,36.146,16.813,36.146,16.813z"/>
<path fill="#302C3B" d="M14.73,26.155C8.47,32.961,3.16,39.432,2.247,41.125c-1.462,2.708,4.05,9.63,4.05,9.63
	c1.573,0.201,3.493,1.972,4.296,2.587c1.481,1.142,5.422-3.281,9.155-4.417C24.578,41.992,11.682,36.967,14.73,26.155z"/>
<path fill="#1A1626" d="M6.398,44.197c-0.524,0.401-1.803,0.701-2.189,0.158c-0.388-0.544,0.267-1.727,0.788-2.127
	c0.521-0.397,1.259-0.282,1.644,0.261C7.029,43.031,6.919,43.799,6.398,44.197z"/>
<path fill="#1A1626" d="M16.203,41.225c-0.119,2.521-1.291,4.996-3.092,6.792c-0.915,0.892-1.987,1.607-3.146,2.069
	c-1.155,0.467-2.387,0.682-3.598,0.662c2.309-0.759,4.406-1.82,6.057-3.479c0.832-0.812,1.554-1.75,2.181-2.764
	C15.216,43.48,15.774,42.399,16.203,41.225z"/>
<path fill="#99A8AE" d="M28.071,3.865c0.163-1.138,5.143,6.075,3.604,13.402c-0.098,0.473-3.761-0.838-4.142-3.839
	C27.534,13.428,27.482,7.994,28.071,3.865z"/>
<path fill="#1A1626" d="M5.164,40.107c-0.532,0.352-0.438,0.569,0.028,0.381c0.468-0.188,2.749-0.813,2.939,1.794
	c0,0,0.129,1.167,0.418,0.009C8.835,41.126,8.152,38.123,5.164,40.107z"/>
<path fill="#302C3B" d="M26.55,27.17c0,4.237-4.737,4.237-4.737,0S26.55,22.934,26.55,27.17z"/>
<path fill="#6E8189" d="M24.122,26.09c0,1.058-1.457,1.058-1.457,0C22.665,25.03,24.122,25.03,24.122,26.09z"/>
<path fill="#302C3B" d="M31.634,20.142c2.598,12.155-4.102,10.999,0.812,24.309c0,0,2.797-1.644,3.662-3.156
	C32.252,33.17,37.325,28.141,31.634,20.142z"/>
<path fill="#302C3B" d="M30.37,45.592c-4.087-5.076-3.499-11.389-12.718-10.607c8.205,2.162,4.702,8.125,7.211,12.686
	C24.863,47.67,28.138,46.859,30.37,45.592z"/>
<path fill="#302C3B" d="M22.44,17.702c2.862,0.848,2.093,5.173,6.703,7.125c-3.186-3.507-0.478-7.437-4.538-10.068
	C23.51,15.965,22.44,17.702,22.44,17.702z"/>
<path fill="#302C3B" d="M13.576,31.854c1.022-3.397,9.93-2.854,6.716-11.483c0,0-1.573,1.521-2.124,2.146
	c-0.372,3.424-2.479,4.292-4.292,6.867C13.556,29.835,13.576,31.854,13.576,31.854z"/>
</svg>
