<?xml version="1.0" encoding="utf-8"?>
<!-- Generator: Adobe Illustrator 15.0.0, SVG Export Plug-In . SVG Version: 6.00 Build 0)  -->
<!DOCTYPE svg PUBLIC "-//W3C//DTD SVG 1.1//EN" "http://www.w3.org/Graphics/SVG/1.1/DTD/svg11.dtd" [
	<!ENTITY ns_flows "http://ns.adobe.com/Flows/1.0/">
	<!ENTITY ns_extend "http://ns.adobe.com/Extensibility/1.0/">
	<!ENTITY ns_ai "http://ns.adobe.com/AdobeIllustrator/10.0/">
	<!ENTITY ns_graphs "http://ns.adobe.com/Graphs/1.0/">
]>
<svg version="1.1" id="Layer_1" xmlns:x="&ns_extend;" xmlns:i="&ns_ai;" xmlns:graph="&ns_graphs;"
	 xmlns="http://www.w3.org/2000/svg" xmlns:xlink="http://www.w3.org/1999/xlink" xmlns:a="http://ns.adobe.com/AdobeSVGViewerExtensions/3.0/"
	 x="0px" y="0px" width="64px" height="64px" viewBox="0 0 64 64" enable-background="new 0 0 64 64" xml:space="preserve">
<path fill="#E3BB8A" d="M55.45,46.009c0,0,1.418,3.091,5.717,3.152c0,0-1.903,3.835-9.474,1.784L55.45,46.009z"/>
<path fill="#A37049" d="M34.679,49.094c2.214,10.033-3.989,8.37-2.6,11.073h5.886c1.685-3.659,0.225-12.068,0.225-12.068
	S34.352,47.611,34.679,49.094z"/>
<path fill="#A37049" d="M16.29,49.094c2.213,10.033-3.99,8.37-2.601,11.073h5.886C21.26,56.508,19.8,48.099,19.8,48.099
	S15.962,47.611,16.29,49.094z"/>
<path fill="#B58562" d="M21.349,50.93c2.214,10.032-3.99,8.367-2.601,11.07h5.885c1.687-3.656,0.226-12.066,0.226-12.066
	S21.021,49.447,21.349,50.93z"/>
<path fill="#B58562" d="M40.847,50.93c2.205,10.032-3.177,8.367-1.793,11.07h5.863c1.678-3.656,0.224-12.066,0.224-12.066
	S40.521,49.447,40.847,50.93z"/>
<linearGradient id="SVGID_1_" gradientUnits="userSpaceOnUse" x1="29.2212" y1="55.8496" x2="29.2212" y2="35.0889">
	<stop  offset="0" style="stop-color:#D9B080"/>
	<stop  offset="0.314" style="stop-color:#F0C99B"/>
	<stop  offset="0.503" style="stop-color:#FFDAAD"/>
	<a:midPointStop  offset="0" style="stop-color:#D9B080"/>
	<a:midPointStop  offset="0.5347" style="stop-color:#D9B080"/>
	<a:midPointStop  offset="0.503" style="stop-color:#FFDAAD"/>
</linearGradient>
<path fill="url(#SVGID_1_)" d="M55.45,46.009c1.476,15.435-28.806,8.015-40.754,8.337c-5.069-0.102-10.181-3.143-9.9-4.334
	c-1.614-0.547-1.976-1.145-1.825-3.058c1.063-2.403,5.529-3.238,7.523-5.229C18.682,33.552,42.29,30.798,55.45,46.009z"/>
<linearGradient id="SVGID_2_" gradientUnits="userSpaceOnUse" x1="3.061" y1="48.5068" x2="14.3716" y2="48.3973">
	<stop  offset="0.2242" style="stop-color:#785E58;stop-opacity:0.8"/>
	<stop  offset="0.3305" style="stop-color:#856A60;stop-opacity:0.679"/>
	<stop  offset="0.5285" style="stop-color:#A88A76;stop-opacity:0.4538"/>
	<stop  offset="0.7945" style="stop-color:#E0BE9A;stop-opacity:0.1511"/>
	<stop  offset="0.9273" style="stop-color:#FFDAAD;stop-opacity:0"/>
	<a:midPointStop  offset="0.2242" style="stop-color:#785E58;stop-opacity:0.8"/>
	<a:midPointStop  offset="0.569" style="stop-color:#785E58;stop-opacity:0.8"/>
	<a:midPointStop  offset="0.9273" style="stop-color:#FFDAAD;stop-opacity:0"/>
</linearGradient>
<path fill="url(#SVGID_2_)" d="M14.696,54.346c-5.069-0.102-10.181-3.143-9.9-4.334c-1.614-0.547-1.976-1.145-1.825-3.058
	c0.708-1.601,2.925-2.505,4.915-3.519c2.096,0.57,2.905-1.311,4.997-0.914C10.013,50.188,27.705,52.229,14.696,54.346z"/>
<path fill="#302C3B" d="M3.192,48.542c-1.205-0.013-2.093-2.601,0.404-2.985C7.366,44.975,4.312,48.555,3.192,48.542z"/>
<path fill="#302C3B" d="M14.448,44.549c0,2.75-3.813,2.75-3.813,0C10.635,41.806,14.448,41.806,14.448,44.549z"/>
<path fill="#6E8189" d="M12.105,43.714c0,0.688-0.953,0.688-0.953,0C11.152,43.027,12.105,43.027,12.105,43.714z"/>
<path fill="#302C3B" d="M4.796,50.012c1.703-0.05,3.336,0.669,5.995-0.914C9.326,51.381,6.157,50.217,4.796,50.012z"/>
<path fill="#54423D" d="M61.567,39.098c-0.623-1.781-2.021-2.785-3.441-3.174c1.2-0.451,2.55-0.84,3.874-0.377
	c-0.953-1.692-2.581-2.405-4.095-2.468c1.009-0.856,2.186-1.724,3.604-1.745c-0.978-0.873-2.115-1.19-3.204-1.159
	c0.499-0.801,1.12-1.53,1.993-1.952c-1.033-0.324-2.024-0.237-2.9,0.091c0.331-0.892,0.798-1.74,1.566-2.342
	c-1.218-0.102-2.276,0.304-3.126,0.949c0.286-1.062,0.727-2.115,1.583-2.861c-1.259-0.037-2.319,0.454-3.146,1.179
	c0.068-1.074,0.288-2.166,0.951-3.067c-1.443,0.3-2.482,1.235-3.14,2.351c0.022-1.278,0.176-2.647,0.979-3.737
	c-1.427,0.296-2.458,1.212-3.115,2.31c-0.119-1.191-0.105-2.457,0.497-3.57c-1.362,0.503-2.259,1.552-2.767,2.725
	c-0.198-1.149-0.264-2.375,0.234-3.506c-1.287,0.606-2.095,1.692-2.519,2.874c-0.25-1.069-0.362-2.209,0.025-3.307
	c-1.412,0.813-2.155,2.196-2.411,3.591c-0.342-1.234-0.589-2.599-0.127-3.902c-1.397,0.805-2.138,2.167-2.4,3.548
	c-0.457-1.056-0.801-2.218-0.582-3.437c-1.271,1.066-1.781,2.58-1.803,4.011c-0.592-1.11-1.113-2.368-0.946-3.738
	c-1.175,1.112-1.605,2.6-1.575,3.995c-0.608-1.016-1.132-2.164-1.056-3.455c-1.193,1.291-1.493,2.957-1.286,4.436
	c-0.723-1.061-1.406-2.285-1.372-3.708c-1.065,1.241-1.347,2.774-1.175,4.163c-0.693-0.987-1.318-2.118-1.326-3.444
	c-1.068,1.326-1.287,2.942-1.029,4.366c-0.695-0.987-1.321-2.119-1.328-3.444c-1.139,1.412-1.307,3.15-0.969,4.638
	c-0.725-1.014-1.397-2.184-1.406-3.56c-1.136,1.408-1.307,3.144-0.97,4.63c-0.679-0.975-1.282-2.089-1.289-3.391
	c-1.006,1.247-1.25,2.75-1.063,4.11c-0.631-0.768-1.164-1.65-1.306-2.719c-0.878,1.439-0.905,3.039-0.495,4.399
	c-0.709-0.817-1.333-1.768-1.485-2.939c-0.823,1.346-0.893,2.83-0.564,4.129c-0.601-0.748-1.102-1.604-1.237-2.634
	c-0.878,1.436-0.904,3.034-0.496,4.392c-0.846-0.58-1.634-1.308-2.053-2.352c-0.503,1.668-0.112,3.254,0.651,4.463
	c-0.853-0.473-1.652-1.089-2.151-2.031c-0.297,1.525,0.113,2.902,0.826,3.974c-0.532-0.019-1.064-0.112-1.577-0.353
	c1.4,3.149,5.177,3.5,6.822,2.32c-0.39,0.564-0.864,1.064-1.481,1.406c1.984,0.498,3.737-0.447,4.825-1.733
	c0.214,1.935,1.162,3.379,2.79,3.379c0.123,0,0.214-0.027,0.322-0.038c-0.727,1.828-0.633,4.564,1.31,6.272
	c-0.172-1.102,0.108-2.147,0.515-3.106c-0.132,1.76,0.457,3.817,2.23,5.001c-0.357-1.241-0.1-2.49,0.274-3.633
	c-0.11,1.944,0.759,4.384,3.012,5.37c-0.503-1.063-0.499-2.227-0.354-3.333c0.249,1.799,1.331,3.752,3.417,4.434
	c-0.553-0.94-0.672-2.01-0.649-3.054c0.399,1.595,1.455,3.176,3.285,3.777c-0.529-0.902-0.658-1.923-0.645-2.926
	c0.621,1.505,1.883,2.889,3.767,3.193c-0.588-0.733-0.869-1.617-1.012-2.515c0.82,1.579,2.45,2.992,4.604,2.881
	c-0.87-0.726-1.334-1.765-1.646-2.819c1.033,1.592,3.088,2.934,5.41,2.286c-0.826-0.432-1.416-1.139-1.886-1.918
	c1.343,1.23,3.519,1.972,5.573,0.87c-1.086-0.289-1.914-1.053-2.607-1.894c1.443,0.981,3.545,1.394,5.398,0.166
	c-1.161-0.194-2.079-0.934-2.866-1.749c1.549,0.869,3.767,1.083,5.53-0.408c-1.396-0.063-2.541-0.933-3.52-1.807
	c1.387,0.783,3.229,1.033,4.9-0.016c-1.541-0.297-2.637-1.552-3.553-2.664c1.416,0.223,3.137,0.301,4.438,0.753
	c-0.524-1.379-1.423-2.48-2.407-3.235c1.128,0.109,2.305,0.371,3.219,1.223c-0.238-1.834-1.344-3.119-2.612-3.839
	C59.049,38.5,60.388,38.412,61.567,39.098z"/>
<path fill="#FFDAAD" d="M20.173,44.211c0,0-0.574-4.097,1.431-6.338c2.005-2.238,4.689-2.419,5.383,0.488
	C28.103,43.058,22.831,46.066,20.173,44.211z"/>
<path fill="#B58562" d="M21.275,42.766c0,0-0.358-2.537,0.883-3.922c1.24-1.386,2.901-1.496,3.331,0.303
	C26.181,42.049,22.919,43.912,21.275,42.766z"/>
<path fill="#FFDAAD" d="M36.149,43.328c-1.199-1.344-4.629-0.07-4.246,0.936C32.294,45.288,34.321,43.244,36.149,43.328z"/>
<path fill="#FFDAAD" d="M41.253,39.23c-1.198-1.344-4.629-0.07-4.245,0.936C37.397,41.191,39.426,39.146,41.253,39.23z"/>
<path fill="#FFDAAD" d="M31.823,36.213c-1.331-1.199-4.61,0.457-4.126,1.412C28.19,38.6,29.997,36.338,31.823,36.213z"/>
<path fill="#FFDAAD" d="M40.218,35.164c-1.457-1.021-4.522,1.041-3.932,1.928C36.888,37.996,38.42,35.521,40.218,35.164z"/>
<path fill="#FFDAAD" d="M37.449,33.551c-1.458-1.021-4.522,1.039-3.932,1.928C34.118,36.383,35.651,33.906,37.449,33.551z"/>
<path fill="#FFDAAD" d="M33.186,33.746c-1.034-1.488-4.587-0.666-4.323,0.381C29.129,35.194,31.381,33.428,33.186,33.746z"/>
<path fill="#FFDAAD" d="M28.571,31.57c-1.751,0.041-3.145,3.576-2.177,3.949C27.379,35.898,27.29,32.945,28.571,31.57z"/>
<path fill="#FFDAAD" d="M27.49,26.819c-1.688,0.497-2.205,4.285-1.18,4.394C27.354,31.324,26.572,28.486,27.49,26.819z"/>
<path fill="#FFDAAD" d="M25.271,25.656c-1.689,0.52-2.22,4.433-1.194,4.542C25.119,30.31,24.347,27.381,25.271,25.656z"/>
<path fill="#FFDAAD" d="M19.865,27.866c1.743-0.233,3.765,3.331,2.874,3.884C21.832,32.313,21.384,29.135,19.865,27.866z"/>
<path fill="#FFDAAD" d="M20.581,31.85c1.752,0.02,3.186,3.536,2.222,3.921C21.823,36.163,21.878,33.209,20.581,31.85z"/>
<path fill="#FFDAAD" d="M17.939,34.32c1.578-0.804,4.349,1.674,3.648,2.471C20.877,37.602,19.677,34.93,17.939,34.32z"/>
<path fill="#FFDAAD" d="M16.663,30.872c1.578-0.804,4.35,1.675,3.648,2.47C19.602,34.152,18.4,31.482,16.663,30.872z"/>
<path fill="#FFDAAD" d="M15.897,37.671c0.917-1.573,4.521-1.06,4.339,0.008C20.053,38.765,17.673,37.197,15.897,37.671z"/>
<path fill="#FFDAAD" d="M12.92,37.596c0.462-1.768,3.235-2.297,3.251-1.223C16.19,37.467,14.183,36.639,12.92,37.596z"/>
<path fill="#FFDAAD" d="M14.235,32.754c1.643-0.629,3.958,1.863,3.163,2.55C16.594,36.003,15.824,33.443,14.235,32.754z"/>
<path fill="#FFDAAD" d="M35.938,23.083c-1.752,0.042-3.146,3.577-2.177,3.949C34.744,27.412,34.656,24.458,35.938,23.083z"/>
<path fill="#FFDAAD" d="M25.006,30.659c-1.564,0.83-1.378,4.652-0.352,4.551C25.698,35.107,24.41,32.48,25.006,30.659z"/>
<path fill="#FFDAAD" d="M31.881,23.067c-1.564,0.83-1.378,4.652-0.352,4.55C32.573,27.515,31.285,24.889,31.881,23.067z"/>
<path fill="#FFDAAD" d="M29.534,25.074c-1.563,0.83-1.378,4.652-0.351,4.55C30.228,29.522,28.939,26.896,29.534,25.074z"/>
<path fill="#FFDAAD" d="M45.726,44.885c-1.199-1.344-4.629-0.07-4.246,0.936C41.87,46.845,43.897,44.801,45.726,44.885z"/>
<path fill="#FFDAAD" d="M53.831,43.173c-1.199-1.344-4.629-0.069-4.246,0.936C49.976,45.133,52.003,43.09,53.831,43.173z"/>
<path fill="#FFDAAD" d="M48.031,38.934c-1.199-1.344-4.63-0.07-4.246,0.936C44.175,40.894,46.203,38.85,48.031,38.934z"/>
<path fill="#FFDAAD" d="M44.18,37.297c-0.787-1.646-4.42-1.449-4.323-0.371C39.954,38.025,42.449,36.67,44.18,37.297z"/>
<path fill="#FFDAAD" d="M49.175,34.854c-1.364-1.156-4.594,0.604-4.082,1.546C45.614,37.357,47.353,35.038,49.175,34.854z"/>
<path fill="#FFDAAD" d="M45.805,33.84c-1.048-1.479-4.593-0.619-4.32,0.426C41.763,35.33,43.996,33.539,45.805,33.84z"/>
<path fill="#FFDAAD" d="M43.587,28.512c-1.086-1.447-4.607-0.488-4.307,0.548C39.585,30.117,41.772,28.263,43.587,28.512z"/>
<path fill="#FFDAAD" d="M42.756,31.475c-1.335-1.194-4.607,0.479-4.12,1.432C39.134,33.879,40.93,31.607,42.756,31.475z"/>
<path fill="#FFDAAD" d="M38.841,25.799c-1.589-0.778-4.32,1.75-3.61,2.533C35.956,29.129,37.113,26.438,38.841,25.799z"/>
<path fill="#FFDAAD" d="M34.064,28.935c-1.589-0.778-4.321,1.75-3.61,2.533C31.18,32.266,32.337,29.573,34.064,28.935z"/>
<path fill="#FFDAAD" d="M38.233,30.259c-1.335-1.193-4.607,0.478-4.119,1.433C34.611,32.663,36.407,30.392,38.233,30.259z"/>
<path fill="#FFDAAD" d="M54.53,37.838c-1.199-1.345-4.629-0.071-4.246,0.935C50.675,39.797,52.702,37.754,54.53,37.838z"/>
<path fill="#FFDAAD" d="M52.404,35.232c-1.535-0.889-4.425,1.436-3.766,2.268C49.31,38.349,50.64,35.746,52.404,35.232z"/>
<path fill="#FFDAAD" d="M47.682,28.271c-1.535-0.889-4.424,1.436-3.766,2.268C44.587,31.387,45.917,28.784,47.682,28.271z"/>
<path fill="#FFDAAD" d="M43.861,23.771c-1.602-0.748-4.29,1.829-3.566,2.599C41.033,27.155,42.146,24.442,43.861,23.771z"/>
<path fill="#FFDAAD" d="M41.315,22.459c-1.535-0.89-4.425,1.435-3.766,2.268C38.221,25.575,39.551,22.972,41.315,22.459z"/>
<path fill="#FFDAAD" d="M50.694,23.863c-1.568-0.821-4.362,1.63-3.671,2.433C47.728,27.113,48.952,24.454,50.694,23.863z"/>
<path fill="#FFDAAD" d="M56.316,28.304c-1.535-0.89-4.424,1.436-3.765,2.268C53.223,31.42,54.553,28.817,56.316,28.304z"/>
<path fill="#FFDAAD" d="M46.902,22.263c-1.749-0.124-3.435,3.267-2.504,3.729C45.348,26.462,45.509,23.511,46.902,22.263z"/>
<path fill="#FFDAAD" d="M50.474,30.216c-1.535-0.889-4.425,1.436-3.766,2.268C47.379,33.332,48.709,30.73,50.474,30.216z"/>
<path fill="#FFDAAD" d="M53.767,26.728c-1.175-1.369-4.627-0.167-4.264,0.846C49.874,28.606,51.938,26.605,53.767,26.728z"/>
<path fill="#FFDAAD" d="M58.33,35.504c-1.073-1.455-4.603-0.523-4.31,0.516C54.317,37.078,56.518,35.242,58.33,35.504z"/>
<path fill="#FFDAAD" d="M58.603,31.365c-1.281-1.256-4.622,0.258-4.176,1.234C54.882,33.594,56.774,31.41,58.603,31.365z"/>
<path fill="#FFDAAD" d="M59.372,37.838c-1.199-1.345-4.629-0.071-4.246,0.935C55.517,39.797,57.544,37.754,59.372,37.838z"/>
<path fill="#FFDAAD" d="M36.327,49.137c0.565-1.745-2.111-4.336-2.774-3.509C32.874,46.471,35.541,47.398,36.327,49.137z"/>
<path fill="#FFDAAD" d="M40.519,50.239c0.565-1.744-2.111-4.335-2.775-3.509C37.065,47.574,39.731,48.502,40.519,50.239z"/>
<path fill="#FFDAAD" d="M44.334,43.494c0.565-1.744-2.112-4.336-2.775-3.509C40.881,40.828,43.547,41.756,44.334,43.494z"/>
<path fill="#FFDAAD" d="M45.158,50.971c0.565-1.745-2.111-4.336-2.775-3.509C41.705,48.305,44.372,49.232,45.158,50.971z"/>
<path fill="#FFDAAD" d="M48.333,45.548c0.565-1.745-2.111-4.336-2.775-3.509C44.88,42.883,47.547,43.809,48.333,45.548z"/>
<path fill="#FFDAAD" d="M48.948,52.072c0.565-1.744-2.111-4.336-2.775-3.508C45.495,49.408,48.162,50.334,48.948,52.072z"/>
<path fill="#FFDAAD" d="M30.732,42.787c-1.198-1.344-4.629-0.07-4.245,0.936C26.877,44.747,28.905,42.703,30.732,42.787z"/>
<path fill="#FFDAAD" d="M35.909,40.738c-1.198-1.345-4.629-0.07-4.245,0.935C32.054,42.697,34.082,40.654,35.909,40.738z"/>
<path fill="#FFDAAD" d="M31.874,39.836c-1.199-1.344-4.629-0.07-4.246,0.936C28.018,41.796,30.046,39.752,31.874,39.836z"/>
<path fill="#FFDAAD" d="M32.191,46.973c-0.402-1.813-3.98-2.506-4.124-1.421C27.92,46.658,30.646,45.934,32.191,46.973z"/>
<path fill="#FFDAAD" d="M40.28,46.108c-0.403-1.813-3.981-2.506-4.125-1.421C36.008,45.793,38.734,45.069,40.28,46.108z"/>
<path fill="#FFDAAD" d="M41.45,43.175c-0.402-1.812-3.981-2.505-4.125-1.421C37.178,42.859,39.904,42.136,41.45,43.175z"/>
<path fill="#FFDAAD" d="M53.581,47.941c-0.402-1.813-3.981-2.506-4.125-1.421C49.309,47.627,52.035,46.902,53.581,47.941z"/>
<path fill="#FFDAAD" d="M51.433,41.881c-0.402-1.813-3.981-2.506-4.125-1.422C47.16,41.565,49.887,40.842,51.433,41.881z"/>
<path fill="#FFDAAD" d="M35.838,39.127c-0.403-1.812-3.981-2.505-4.125-1.421C31.565,38.813,34.292,38.088,35.838,39.127z"/>
<path fill="#FFDAAD" d="M56.698,41.764c-0.402-1.811-3.981-2.504-4.125-1.42C52.426,41.449,55.152,40.727,56.698,41.764z"/>
<path fill="#FFDAAD" d="M53.793,33.195c-0.869-1.621-4.489-1.232-4.338-0.15C49.607,34.15,52.032,32.652,53.793,33.195z"/>
<path fill="#FFDAAD" d="M56.069,46.175c-0.402-1.813-3.981-2.505-4.125-1.421C51.797,45.859,54.523,45.136,56.069,46.175z"/>
<path fill="#FFDAAD" d="M49.366,48.271c-0.402-1.813-3.98-2.506-4.124-1.421C45.095,47.957,47.821,47.232,49.366,48.271z"/>
</svg>
