<?xml version="1.0" encoding="utf-8"?>
<!-- Generator: Adobe Illustrator 15.0.0, SVG Export Plug-In . SVG Version: 6.00 Build 0)  -->
<!DOCTYPE svg PUBLIC "-//W3C//DTD SVG 1.1//EN" "http://www.w3.org/Graphics/SVG/1.1/DTD/svg11.dtd" [
	<!ENTITY ns_flows "http://ns.adobe.com/Flows/1.0/">
	<!ENTITY ns_extend "http://ns.adobe.com/Extensibility/1.0/">
	<!ENTITY ns_ai "http://ns.adobe.com/AdobeIllustrator/10.0/">
	<!ENTITY ns_graphs "http://ns.adobe.com/Graphs/1.0/">
]>
<svg version="1.1" id="Layer_1" xmlns:x="&ns_extend;" xmlns:i="&ns_ai;" xmlns:graph="&ns_graphs;"
	 xmlns="http://www.w3.org/2000/svg" xmlns:xlink="http://www.w3.org/1999/xlink" xmlns:a="http://ns.adobe.com/AdobeSVGViewerExtensions/3.0/"
	 x="0px" y="0px" width="64px" height="64px" viewBox="0 0 64 64" enable-background="new 0 0 64 64" xml:space="preserve">
<path fill="#C5DCA8" d="M36.922,14.156c0,21.697-9.846,21.697-9.846,0C27.076,7.051,31.076,2,32,2S36.922,7.051,36.922,14.156z"/>
<path fill="#C5DCA8" d="M50.941,44.16c-19.743,0-19.743-10.824,0-10.824c6.463,0,11.059,4.396,11.059,5.412
	S57.404,44.16,50.941,44.16z"/>
<path fill="#C5DCA8" d="M13.056,33.336c19.742,0,19.742,10.824,0,10.824C6.593,44.16,2,39.764,2,38.748S6.593,33.336,13.056,33.336z
	"/>
<path fill="#C5DCA8" d="M52.086,34.785c-17.096,10.85-22.02,1.477-4.922-9.373c5.596-3.551,11.576-2.27,12.037-1.391
	C59.664,24.902,57.684,31.234,52.086,34.785z"/>
<path fill="#C5DCA8" d="M47.564,22.584c-9.871,18.791-18.399,13.379-8.527-5.412c3.23-6.152,8.992-8.328,9.793-7.82
	S50.797,16.432,47.564,22.584z"/>
<path fill="#C5DCA8" d="M11.912,34.785c17.096,10.85,22.02,1.477,4.922-9.373c-5.596-3.551-11.576-2.27-12.037-1.391
	C4.333,24.902,6.314,31.234,11.912,34.785z"/>
<path fill="#C5DCA8" d="M16.433,22.584c9.871,18.791,18.399,13.379,8.527-5.412c-3.23-6.152-8.992-8.328-9.793-7.82
	C14.369,9.859,13.203,16.432,16.433,22.584z"/>
<path fill="#A3C86B" d="M31.072,15.348c5.11,20.959-4.402,23.76-9.512,2.801c-1.674-6.861,1-12.879,1.893-13.141
	C24.345,4.744,29.398,8.484,31.072,15.348z"/>
<path fill="#A3C86B" d="M51.648,40.703C32.58,46.318,30.031,35.865,49.1,30.248c6.242-1.838,11.717,1.102,11.955,2.082
	C61.295,33.311,57.891,38.865,51.648,40.703z"/>
<path fill="#A3C86B" d="M50.002,29.84c-13.959,15.342-20.922,7.689-6.963-7.654c4.57-5.023,10.648-5.486,11.301-4.768
	C54.994,18.137,54.572,24.816,50.002,29.84z"/>
<path fill="#A3C86B" d="M42.438,18.148c-5.109,20.959-14.622,18.158-9.51-2.801c1.672-6.863,6.725-10.604,7.618-10.34
	C41.438,5.27,44.111,11.287,42.438,18.148z"/>
<path fill="#A3C86B" d="M12.349,40.703c19.068,5.615,21.618-4.838,2.549-10.455C8.656,28.41,3.181,31.35,2.943,32.33
	S6.107,38.865,12.349,40.703z"/>
<path fill="#A3C86B" d="M13.996,29.84c13.959,15.342,20.922,7.689,6.963-7.654c-4.57-5.023-10.646-5.486-11.301-4.768
	C9.005,18.137,9.425,24.816,13.996,29.84z"/>
<path fill="#7AB51D" d="M36.922,23.285c0,21.697-9.846,21.697-9.846,0c0-7.104,4-12.154,4.924-12.154S36.922,16.182,36.922,23.285z"
	/>
<path fill="#7AB51D" d="M48.652,48c-19.741,0-19.741-10.822,0-10.822c6.463,0,11.059,4.396,11.059,5.412S55.115,48,48.652,48z"/>
<path fill="#7AB51D" d="M15.345,37.178c19.743,0,19.743,10.822,0,10.822c-6.463,0-11.059-4.395-11.059-5.41
	S8.882,37.178,15.345,37.178z"/>
<path fill="#7AB51D" d="M48.883,38.123c-17.096,10.85-22.02,1.477-4.924-9.373c5.598-3.551,11.576-2.27,12.039-1.391
	C56.461,28.24,54.48,34.572,48.883,38.123z"/>
<path fill="#7AB51D" d="M44.59,29.443c-9.871,18.791-18.399,13.379-8.527-5.412c3.23-6.152,8.992-8.328,9.793-7.82
	C46.654,16.719,47.822,23.291,44.59,29.443z"/>
<path fill="#7AB51D" d="M15.115,38.123c17.096,10.85,22.02,1.477,4.924-9.373C14.441,25.199,8.462,26.48,8,27.359
	C7.537,28.24,9.517,34.572,15.115,38.123z"/>
<path fill="#7AB51D" d="M19.408,29.443c9.871,18.791,18.399,13.379,8.527-5.412c-3.23-6.152-8.992-8.328-9.791-7.82
	C17.343,16.719,16.177,23.291,19.408,29.443z"/>
<path fill="#CBD716" d="M50.943,46.436c-5.984,0-5.984-7.545,0-7.545c2.992,0,5.123,3.07,5.123,3.773S53.936,46.436,50.943,46.436z"
	/>
<path fill="#F59E01" d="M50.943,45.77c-4.93,0-4.93-6.213,0-6.213c2.465,0,4.119,2.736,4.119,3.107
	C55.063,43.033,53.408,45.77,50.943,45.77z"/>
<path fill="#75D6FF" d="M50.064,45.109c-3.193,0-3.193-4.893,0-4.893C53.26,40.217,53.26,45.109,50.064,45.109z"/>
<path fill="#013366" d="M50.336,44.621c-1.449,0-1.059-1.305-0.512-1.957c-0.547-0.652-0.938-1.957,0.512-1.957
	C52.467,40.707,52.467,44.621,50.336,44.621z"/>
<path fill="#CBD716" d="M13.054,38.891c5.984,0,5.984,7.545,0,7.545c-2.992,0-5.123-3.068-5.123-3.771S10.062,38.891,13.054,38.891z
	"/>
<path fill="#F59E01" d="M13.054,39.557c4.93,0,4.93,6.213,0,6.213c-2.465,0-4.119-2.736-4.119-3.105
	C8.935,42.293,10.589,39.557,13.054,39.557z"/>
<path fill="#75D6FF" d="M13.933,40.217c3.195,0,3.195,4.893,0,4.893S10.738,40.217,13.933,40.217z"/>
<path fill="#013366" d="M13.662,40.707c1.451,0,1.059,1.305,0.512,1.957c0.547,0.652,0.939,1.955-0.512,1.955
	C11.531,44.619,11.531,40.707,13.662,40.707z"/>
<path fill="#CBD716" d="M50.121,35.52c-5.184,3.289-8.615-3.246-3.432-6.535c2.592-1.645,5.832-0.156,6.152,0.453
	S52.713,33.875,50.121,35.52z"/>
<path fill="#F59E01" d="M49.818,34.943c-4.268,2.709-7.096-2.674-2.826-5.383c2.135-1.354,4.813,0.107,4.98,0.428
	S51.953,33.588,49.818,34.943z"/>
<path fill="#75D6FF" d="M48.758,34.854c-2.768,1.756-4.992-2.48-2.227-4.236C49.299,28.861,51.523,33.098,48.758,34.854z"/>
<path fill="#013366" d="M48.77,34.281c-1.256,0.797-1.51-0.549-1.334-1.414c-0.77-0.266-1.703-1.18-0.447-1.975
	C48.834,29.721,50.615,33.109,48.77,34.281z"/>
<path fill="#CBD716" d="M44.443,26.518c-2.992,5.697-8.938,1.924-5.945-3.773c1.496-2.85,4.98-3.342,5.535-2.99
	C44.586,20.105,45.939,23.668,44.443,26.518z"/>
<path fill="#F59E01" d="M43.92,26.184c-2.465,4.691-7.361,1.584-4.896-3.107c1.232-2.346,4.217-2.551,4.508-2.367
	C43.822,20.895,45.152,23.838,43.92,26.184z"/>
<path fill="#75D6FF" d="M42.959,26.691c-1.596,3.039-5.451,0.594-3.854-2.447S44.557,23.648,42.959,26.691z"/>
<path fill="#013366" d="M42.709,26.188c-0.725,1.381-1.557,0.354-1.797-0.492c-0.787,0.193-2.012-0.084-1.287-1.465
	C40.691,22.201,43.775,24.158,42.709,26.188z"/>
<path fill="#CBD716" d="M13.876,35.52c5.184,3.289,8.615-3.246,3.432-6.535c-2.59-1.645-5.832-0.156-6.152,0.453
	S11.285,33.875,13.876,35.52z"/>
<path fill="#F59E01" d="M14.179,34.943c4.27,2.709,7.096-2.674,2.826-5.383c-2.133-1.354-4.813,0.107-4.98,0.428
	S12.044,33.588,14.179,34.943z"/>
<path fill="#75D6FF" d="M15.24,34.854c2.768,1.756,4.992-2.48,2.227-4.236C14.699,28.861,12.474,33.098,15.24,34.854z"/>
<path fill="#013366" d="M15.228,34.281c1.256,0.797,1.51-0.549,1.334-1.414c0.77-0.266,1.703-1.18,0.447-1.975
	C15.164,29.721,13.382,33.109,15.228,34.281z"/>
<path fill="#CBD716" d="M19.554,26.518c2.992,5.697,8.938,1.924,5.945-3.773c-1.496-2.85-4.98-3.342-5.533-2.99
	C19.412,20.105,18.058,23.668,19.554,26.518z"/>
<path fill="#F59E01" d="M20.078,26.184c2.465,4.691,7.361,1.584,4.896-3.107c-1.232-2.346-4.215-2.551-4.508-2.367
	C20.175,20.895,18.847,23.838,20.078,26.184z"/>
<path fill="#75D6FF" d="M21.039,26.691c1.596,3.039,5.451,0.594,3.855-2.447C23.296,21.203,19.441,23.648,21.039,26.691z"/>
<path fill="#013366" d="M21.289,26.188c0.725,1.381,1.557,0.354,1.797-0.492c0.787,0.193,2.012-0.084,1.287-1.465
	C23.306,22.201,20.222,24.158,21.289,26.188z"/>
<path fill="#529320" d="M22.513,44.596c13.629,2.564,14.047,1.787,0.27,5.895C15.646,52.615,15.517,43.279,22.513,44.596z"/>
<path fill="#529320" d="M41.486,44.596c-13.629,2.564-14.049,1.787-0.271,5.895C48.352,52.615,48.482,43.279,41.486,44.596z"/>
<path fill="#529320" d="M29.052,34.623c4.202,15.182,4.993,15.26-4.43,2.951C19.746,31.199,26.894,26.828,29.052,34.623z"/>
<path fill="#529320" d="M35.947,34.623c-4.202,15.182-4.993,15.26,4.428,2.951C45.254,31.199,38.104,26.828,35.947,34.623z"/>
<path fill="#529320" d="M24.507,39.057c10.217,10.723,10.936,10.336-2.555,5.109C14.966,41.461,19.265,33.551,24.507,39.057z"/>
<path fill="#529320" d="M39.49,39.057c-10.217,10.723-10.936,10.336,2.557,5.109C49.033,41.461,44.732,33.551,39.49,39.057z"/>
<path fill="#E5BC5E" d="M35.699,59.438c-0.477-2.127-0.135-4.438,0.34-5.5c0.648-1.451-0.475-1.605,0.482-4.857
	c-0.223-0.459-2.521-0.459-2.744,0c0.957,3.252-0.166,3.406,0.48,4.857c0.475,1.063,0.816,3.373,0.342,5.5
	c-0.217,0.971-1.506,0.523-1.663,1.689c0.561-0.467,0.975-0.117,1.584-0.467c0.248,0.232,0.229,1.068,0.629,1.34
	c0.398-0.271,0.377-1.107,0.627-1.34c0.609,0.35,1.023,0,1.582,0.467C37.205,59.961,35.916,60.408,35.699,59.438z"/>
<path fill="#E5BC5E" d="M29.48,59.438c-0.475-2.127-0.133-4.438,0.342-5.5c0.646-1.451-0.477-1.605,0.482-4.857
	c-0.225-0.459-2.521-0.459-2.746,0c0.957,3.252-0.166,3.406,0.482,4.857c0.475,1.063,0.816,3.373,0.342,5.5
	c-0.219,0.971-1.508,0.523-1.662,1.689c0.559-0.467,0.973-0.117,1.584-0.467c0.248,0.232,0.229,1.068,0.627,1.34
	c0.398-0.271,0.379-1.107,0.627-1.34c0.611,0.35,1.025,0,1.584,0.467C30.986,59.961,29.697,60.408,29.48,59.438z"/>
<path fill="#302C3B" d="M31.82,19.6c-1.385,2.207,0.463-2.959,3.375-4.209C34.055,16.393,32.755,18.109,31.82,19.6z"/>
<path fill="#1A1626" d="M35.572,15.256c-1.299-1.598-0.848-0.271-0.797,0.369C35.932,15.547,36.318,16.176,35.572,15.256z"/>
<path fill="#302C3B" d="M32.169,19.725c-2.006,1.578,2.209-3.092,4.336-2.967C35.156,17.393,33.605,18.594,32.169,19.725z"/>
<path fill="#1A1626" d="M36.9,16.732c-0.857-1.914-0.748-0.506-0.859,0.127C37.176,17.119,37.395,17.836,36.9,16.732z"/>
<path fill="#302C3B" d="M32.406,19.99c-2.375,0.768,3.094-2.199,5.045-1.273C35.98,18.799,33.957,19.49,32.406,19.99z"/>
<path fill="#1A1626" d="M37.828,18.844c-0.176-2.117-0.533-0.758-0.848-0.209C37.961,19.311,37.93,20.066,37.828,18.844z"/>
<radialGradient id="SVGID_1_" cx="31.4155" cy="29.8369" r="13.9875" gradientTransform="matrix(1 0 0 1.3178 0 -9.4823)" gradientUnits="userSpaceOnUse">
	<stop  offset="0" style="stop-color:#006DAE"/>
	<stop  offset="0.3495" style="stop-color:#006AAB"/>
	<stop  offset="0.6371" style="stop-color:#0062A1"/>
	<stop  offset="0.9018" style="stop-color:#01548F"/>
	<stop  offset="1" style="stop-color:#014D87"/>
	<a:midPointStop  offset="0" style="stop-color:#006DAE"/>
	<a:midPointStop  offset="0.7455" style="stop-color:#006DAE"/>
	<a:midPointStop  offset="1" style="stop-color:#014D87"/>
</radialGradient>
<path fill="url(#SVGID_1_)" d="M37.115,38.809c-0.9-0.803-1.773-2.785-2.441-7.551c-0.439-3.127,0.303-8.52-0.967-10.207
	c-2.09-2.789-7.459-1.293-6.495,0.867c3.842,1.765,2.91,2.885,2.195,9.34c-0.531,4.783-1.543,6.748-2.441,7.551
	c-8.107,7.25-1.232,9.754-0.127,10.154c1.91,2.684,3.242,0.406,5.201,0.406c1.958,0,3.29,2.277,5.202-0.406
	C38.348,48.563,45.221,46.059,37.115,38.809z"/>
<path fill="#FFFFFF" d="M27.349,21.049c-0.455,1.133,4.236,2.576,5.242,0C30.162,19.191,28.808,19.971,27.349,21.049z"/>
<path fill="#006DAE" d="M27.611,21.117c0.979,1.123,3.221,0.734,3.314,0C31.027,20.299,29.164,19.758,27.611,21.117z"/>
<path fill="#EBBB96" d="M25.007,22.531c1.395,0.295,4.125,0.684,4.063-0.359C29.07,22.172,25.136,22.014,25.007,22.531z"/>
<path fill="#FFE1BD" d="M26.837,21.117c-2.064,0.568-2.244,1.535-2.244,1.535c1.668-0.578,3.785-0.072,4.477-0.48
	C28.001,21.771,28.031,20.789,26.837,21.117z"/>
<path fill="#302C3B" d="M30.634,20.805c0,0.969-1.359,0.969-1.359,0C29.275,19.832,30.634,19.832,30.634,20.805z"/>
<path id="Shape_12_" fill="#6E8189" d="M29.908,20.516c0,0.229-0.33,0.229-0.33,0C29.578,20.293,29.908,20.293,29.908,20.516
	L29.908,20.516z"/>
</svg>
