<?xml version="1.0" encoding="utf-8"?>
<!-- Generator: Adobe Illustrator 15.0.0, SVG Export Plug-In . SVG Version: 6.00 Build 0)  -->
<!DOCTYPE svg PUBLIC "-//W3C//DTD SVG 1.1//EN" "http://www.w3.org/Graphics/SVG/1.1/DTD/svg11.dtd" [
	<!ENTITY ns_flows "http://ns.adobe.com/Flows/1.0/">
	<!ENTITY ns_extend "http://ns.adobe.com/Extensibility/1.0/">
	<!ENTITY ns_ai "http://ns.adobe.com/AdobeIllustrator/10.0/">
	<!ENTITY ns_graphs "http://ns.adobe.com/Graphs/1.0/">
]>
<svg version="1.1" id="Layer_1" xmlns:x="&ns_extend;" xmlns:i="&ns_ai;" xmlns:graph="&ns_graphs;"
	 xmlns="http://www.w3.org/2000/svg" xmlns:xlink="http://www.w3.org/1999/xlink" xmlns:a="http://ns.adobe.com/AdobeSVGViewerExtensions/3.0/"
	 x="0px" y="0px" width="64px" height="64px" viewBox="0 0 64 64" enable-background="new 0 0 64 64" xml:space="preserve">
<linearGradient id="SVGID_1_" gradientUnits="userSpaceOnUse" x1="37.2813" y1="59.7764" x2="40.6182" y2="59.7764">
	<stop  offset="0" style="stop-color:#B47D56"/>
	<stop  offset="1" style="stop-color:#755238"/>
	<a:midPointStop  offset="0" style="stop-color:#B47D56"/>
	<a:midPointStop  offset="0.5" style="stop-color:#B47D56"/>
	<a:midPointStop  offset="1" style="stop-color:#755238"/>
</linearGradient>
<path fill="url(#SVGID_1_)" d="M37.349,60.548h2.992c0,0,0.277-0.287,0.277-0.771l-2.943-0.771
	C37.062,59.946,37.349,60.548,37.349,60.548z"/>
<path fill="#F5CFA0" d="M41.735,42.749c-0.389-1.238-4.275-0.693-4.01,0.365c1.449,5.832,2.385,5.996,2.893,10.195
	c0.447,3.689-2.471,3.939-2.943,5.695l2.943,0.771c-0.27-1.463,1.279-2.305,1.281-2.533c0.033-4.359,1.695-2.029,0.816-4.936
	C41.06,46.817,43.011,46.817,41.735,42.749z"/>
<path fill="#D6A57C" d="M42.083,46.985c-2.139-0.354-4.408-4.205-3.555-0.992C27.884,36.569,47.194,32.029,42.083,46.985z"/>
<linearGradient id="SVGID_2_" gradientUnits="userSpaceOnUse" x1="17.0781" y1="59.7764" x2="20.4146" y2="59.7764">
	<stop  offset="0" style="stop-color:#B47D56"/>
	<stop  offset="1" style="stop-color:#755238"/>
	<a:midPointStop  offset="0" style="stop-color:#B47D56"/>
	<a:midPointStop  offset="0.5" style="stop-color:#B47D56"/>
	<a:midPointStop  offset="1" style="stop-color:#755238"/>
</linearGradient>
<path fill="url(#SVGID_2_)" d="M17.145,60.548h2.992c0,0,0.277-0.287,0.277-0.771l-2.943-0.771
	C16.858,59.946,17.145,60.548,17.145,60.548z"/>
<path fill="#F5CFA0" d="M21.532,42.749c-0.389-1.238-4.275-0.693-4.01,0.365c1.449,5.832,2.385,5.996,2.893,10.195
	c0.447,3.689-2.471,3.939-2.943,5.695l2.943,0.771c-0.27-1.463,1.279-2.305,1.281-2.533c0.033-4.359,1.695-2.029,0.816-4.936
	C20.856,46.817,22.807,46.817,21.532,42.749z"/>
<path fill="#D6A57C" d="M21.881,46.985c-2.139-0.354-4.408-4.205-3.555-0.992C10.486,32.32,26.993,32.029,21.881,46.985z"/>
<linearGradient id="SVGID_3_" gradientUnits="userSpaceOnUse" x1="14.8892" y1="15.124" x2="13.6392" y2="9.6865">
	<stop  offset="0" style="stop-color:#E8C8A0"/>
	<stop  offset="0.2782" style="stop-color:#F4D5B0"/>
	<stop  offset="0.6037" style="stop-color:#FCDEBA"/>
	<stop  offset="1" style="stop-color:#FFE1BD"/>
	<a:midPointStop  offset="0" style="stop-color:#E8C8A0"/>
	<a:midPointStop  offset="0.2545" style="stop-color:#E8C8A0"/>
	<a:midPointStop  offset="1" style="stop-color:#FFE1BD"/>
</linearGradient>
<path fill="url(#SVGID_3_)" d="M16.6,8.121c4.205,0.205,3.854,8.959-1.992,7.406c-4.341-1.15-4.755,0.314-4.94-1.473
	c-1.107-0.125-0.021-0.592-0.48-1.398c-0.949-1.398,1.932-2.422,3.835-2.66C13.897,9.885,14.954,8.916,16.6,8.121z"/>
<path fill-rule="evenodd" clip-rule="evenodd" fill="#302C3B" d="M10.537,12.494c0,0-1.08,0.395-1.191,0.016
	C9.191,11.982,10.56,12.23,10.537,12.494z"/>
<path fill="#302C3B" d="M9.718,14.381c-0.045-0.188-0.051-0.326-0.051-0.326s1.158,0.18,2.521,0.014
	C11.22,14.516,9.718,14.381,9.718,14.381z"/>
<path fill="#D6A57C" d="M50.009,30.191c0.836,3.354,5.545,3.091,4.938,1.578C54.573,30.844,49.019,26.213,50.009,30.191z"/>
<path fill="#D6A57C" d="M49.462,30.941c-3.977,1.421,5.516,4.54,4.908,3.024C53.997,33.042,52.485,29.861,49.462,30.941z"/>
<path fill="#D6A57C" d="M51.31,30.809c-4.037-2.055,1.254,9.126,1.793,7.144C53.431,36.739,54.382,32.373,51.31,30.809z"/>
<path fill-rule="evenodd" clip-rule="evenodd" fill="#302C3B" d="M14.774,10.172c0,0,1.158-0.125,1.648,0.68
	c0,0-0.6,0.953-1.584,0.586C14.307,11.236,14.774,10.172,14.774,10.172z"/>
<path fill="#FFFFFF" d="M15.088,10.5c-0.039,0.314-0.309,0.275-0.27-0.039C14.846,10.225,15.116,10.262,15.088,10.5z"/>
<linearGradient id="SVGID_4_" gradientUnits="userSpaceOnUse" x1="43.4707" y1="61.2285" x2="46.8096" y2="61.2285">
	<stop  offset="0" style="stop-color:#B47D56"/>
	<stop  offset="1" style="stop-color:#755238"/>
	<a:midPointStop  offset="0" style="stop-color:#B47D56"/>
	<a:midPointStop  offset="0.5" style="stop-color:#B47D56"/>
	<a:midPointStop  offset="1" style="stop-color:#755238"/>
</linearGradient>
<path fill="url(#SVGID_4_)" d="M43.538,61.999h2.994c0,0,0.277-0.285,0.277-0.77l-2.943-0.771
	C43.251,61.399,43.538,61.999,43.538,61.999z"/>
<linearGradient id="SVGID_5_" gradientUnits="userSpaceOnUse" x1="48.7012" y1="51.5781" x2="45.4514" y2="52.5781">
	<stop  offset="0" style="stop-color:#E8C8A0"/>
	<stop  offset="0.2782" style="stop-color:#F4D5B0"/>
	<stop  offset="0.6037" style="stop-color:#FCDEBA"/>
	<stop  offset="1" style="stop-color:#FFE1BD"/>
	<a:midPointStop  offset="0" style="stop-color:#E8C8A0"/>
	<a:midPointStop  offset="0.2545" style="stop-color:#E8C8A0"/>
	<a:midPointStop  offset="1" style="stop-color:#FFE1BD"/>
</linearGradient>
<path fill="url(#SVGID_5_)" d="M47.927,44.2c-0.389-1.238-4.275-0.693-4.012,0.367c1.449,5.832,2.387,5.996,2.895,10.195
	c0.445,3.689-2.471,3.939-2.943,5.695l2.943,0.771c-0.271-1.463,1.277-2.307,1.279-2.533c0.033-4.359,1.695-2.029,0.818-4.936
	C47.249,48.271,49.202,48.271,47.927,44.2z"/>
<linearGradient id="SVGID_6_" gradientUnits="userSpaceOnUse" x1="21.3125" y1="61.2285" x2="24.6509" y2="61.2285">
	<stop  offset="0" style="stop-color:#B47D56"/>
	<stop  offset="1" style="stop-color:#755238"/>
	<a:midPointStop  offset="0" style="stop-color:#B47D56"/>
	<a:midPointStop  offset="0.5" style="stop-color:#B47D56"/>
	<a:midPointStop  offset="1" style="stop-color:#755238"/>
</linearGradient>
<path fill="url(#SVGID_6_)" d="M21.379,61.999h2.994c0,0,0.277-0.285,0.277-0.77l-2.943-0.771
	C21.092,61.399,21.379,61.999,21.379,61.999z"/>
<linearGradient id="SVGID_7_" gradientUnits="userSpaceOnUse" x1="26.3989" y1="51.6865" x2="23.6076" y2="52.478">
	<stop  offset="0" style="stop-color:#E8C8A0"/>
	<stop  offset="0.2782" style="stop-color:#F4D5B0"/>
	<stop  offset="0.6037" style="stop-color:#FCDEBA"/>
	<stop  offset="1" style="stop-color:#FFE1BD"/>
	<a:midPointStop  offset="0" style="stop-color:#E8C8A0"/>
	<a:midPointStop  offset="0.2545" style="stop-color:#E8C8A0"/>
	<a:midPointStop  offset="1" style="stop-color:#FFE1BD"/>
</linearGradient>
<path fill="url(#SVGID_7_)" d="M25.768,44.2c-0.389-1.238-4.275-0.693-4.012,0.367c1.449,5.832,2.387,5.996,2.895,10.195
	c0.445,3.689-2.471,3.939-2.943,5.695l2.943,0.771c-0.271-1.463,1.277-2.307,1.279-2.533c0.033-4.359,1.696-2.029,0.819-4.936
	C25.09,48.271,27.044,48.271,25.768,44.2z"/>
<radialGradient id="SVGID_8_" cx="30.0723" cy="28.1777" r="26.3565" gradientUnits="userSpaceOnUse">
	<stop  offset="0" style="stop-color:#F2C19B"/>
	<stop  offset="0.4371" style="stop-color:#EFBE98"/>
	<stop  offset="0.7963" style="stop-color:#E5B590"/>
	<stop  offset="1" style="stop-color:#DBAD88"/>
	<a:midPointStop  offset="0" style="stop-color:#F2C19B"/>
	<a:midPointStop  offset="0.7455" style="stop-color:#F2C19B"/>
	<a:midPointStop  offset="1" style="stop-color:#DBAD88"/>
</radialGradient>
<path fill="url(#SVGID_8_)" d="M49.163,27.928c-3.553-3.787-17.604-1.635-22.16-0.629c-0.925-0.526-1.252-2.503-1.472-5.045
	c0.322,0.046,0.667,0.06,1.044,0.028c-0.664-0.79-0.888-1.614-1.222-2.367c-0.059-0.83-0.123-1.685-0.202-2.545
	c0.289,0.033,0.594,0.044,0.924,0.016c-0.633-0.754-0.866-1.54-1.176-2.265c-0.104-0.765-0.232-1.515-0.391-2.237
	c0.316,0.043,0.657,0.054,1.025,0.023c-1.186-1.411-0.964-2.934-2.483-3.957c-0.86-1.392-2.074-2.333-3.803-2.533
	c0.011-0.031,0.025-0.061,0.036-0.092c-3.176-0.494-3.396,1.52-5.469,2.453c0.767,0.452,1.496,0.633,2.165,0.593
	c-0.149,0.147-0.313,0.283-0.51,0.389c0.88,0.795,1.638,0.938,2.231,0.608c0.702,0.571,1.372,1.222,0.881,2.581
	c-2.626,0.222-2.671,2.065-4.458,3.215c0.687,0.278,1.32,0.371,1.891,0.316c-0.261,0.646-0.507,1.329-1.061,1.989
	c0.445,0.038,0.838,0,1.208-0.07c-0.309,1.324-0.574,2.615-0.792,3.867c-0.571,1.059-0.442,2.238-1.188,3.49
	c0.255-0.02,0.476-0.075,0.701-0.126c-0.121,1.046-0.207,2.059-0.258,3.034c-0.581,1.216-0.187,2.44-0.792,3.891
	c0.285-0.063,0.531-0.156,0.771-0.256c0.066,1.474,0.229,2.832,0.489,4.048c0.065,0.832,0.272,1.672,0.066,2.697
	c0.231-0.102,0.435-0.217,0.628-0.338c0.728,1.872,1.778,3.237,3.138,3.992c0.62,1.247,1.711,2.617,3.429,4.07
	c-0.541-3.137,1.723,0.236,3.863,0.59c0.667-1.606,1.072-3.014,1.286-4.256c4.748-0.281,10.576-0.664,13.613-0.332
	c0.627,1.228,1.712,2.572,3.396,3.998c-0.541-3.137,1.725,0.236,3.863,0.59c1.129-2.719,1.527-4.885,1.453-6.584
	C55.353,36.809,51.661,28.441,49.163,27.928z"/>
<path fill="#D6A57C" d="M40.401,40.716c0.119,1.219,0.711,2.053,0.711,2.053s-1.033,0.842-2.377-0.123
	C40.323,42.485,40.317,39.866,40.401,40.716z"/>
<path fill="#D6A57C" d="M19.993,31.719c-1.16,1.442-0.834,3.343-2.16,4.306C18.698,34.544,18.163,32.316,19.993,31.719z"/>
<path fill="#D6A57C" d="M18.077,23.586c-0.91,1.613-0.279,3.436-1.432,4.602C17.258,26.586,16.368,24.475,18.077,23.586z"/>
<path fill="#D6A57C" d="M23.245,28.471c1.027,1.541,0.531,3.404,1.768,4.482C24.284,31.4,25.014,29.23,23.245,28.471z"/>
<path fill="#D6A57C" d="M23.436,20.938c0.559,1.383-0.137,2.77,0.66,3.822C23.776,23.416,24.708,21.824,23.436,20.938z"/>
<path fill="#D6A57C" d="M27.241,33.948c-0.445,1.799,0.65,3.385-0.148,4.816C27.255,37.058,25.833,35.261,27.241,33.948z"/>
<path fill="#D6A57C" d="M34.269,30.385c-0.447,1.796,0.65,3.384-0.148,4.815C34.28,33.491,32.858,31.697,34.269,30.385z"/>
<path fill="#D6A57C" d="M36.265,31.963c0.549,1.769,2.309,2.56,2.365,4.198C37.884,34.616,35.737,33.815,36.265,31.963z"/>
<path fill="#D6A57C" d="M44.683,29.141c1.143,1.459,3.068,1.57,3.703,3.082C47.14,31.045,44.851,31.061,44.683,29.141z"/>
<path fill="#D6A57C" d="M43.974,32.878c1.301,2.142,3.43,2.867,4.172,4.921C46.739,35.968,44.208,35.292,43.974,32.878z"/>
<path fill="#FFE1BD" d="M18.438,9.887c-2.756-4.537,0.014-8.504,0.279-7.807c0.852,2.225,2.082,3.785,1.586,6.041
	C20.086,9.107,18.784,10.455,18.438,9.887z"/>
<linearGradient id="SVGID_9_" gradientUnits="userSpaceOnUse" x1="17.5991" y1="6.0371" x2="19.4077" y2="6.0371">
	<stop  offset="0" style="stop-color:#D6A57C"/>
	<stop  offset="0.3096" style="stop-color:#D2A27A"/>
	<stop  offset="0.5896" style="stop-color:#C79873"/>
	<stop  offset="0.8575" style="stop-color:#B58867"/>
	<stop  offset="1" style="stop-color:#A87D5F"/>
	<a:midPointStop  offset="0" style="stop-color:#D6A57C"/>
	<a:midPointStop  offset="0.7273" style="stop-color:#D6A57C"/>
	<a:midPointStop  offset="1" style="stop-color:#A87D5F"/>
</linearGradient>
<path fill="url(#SVGID_9_)" d="M18.44,9.027c-1.854-3.156-0.102-6.613,0.158-5.992C20.34,7.236,18.78,9.602,18.44,9.027z"/>
</svg>
