<?xml version="1.0" encoding="utf-8"?>
<!-- Generator: Adobe Illustrator 15.0.0, SVG Export Plug-In . SVG Version: 6.00 Build 0)  -->
<!DOCTYPE svg PUBLIC "-//W3C//DTD SVG 1.1//EN" "http://www.w3.org/Graphics/SVG/1.1/DTD/svg11.dtd" [
	<!ENTITY ns_flows "http://ns.adobe.com/Flows/1.0/">
	<!ENTITY ns_extend "http://ns.adobe.com/Extensibility/1.0/">
	<!ENTITY ns_ai "http://ns.adobe.com/AdobeIllustrator/10.0/">
	<!ENTITY ns_graphs "http://ns.adobe.com/Graphs/1.0/">
]>
<svg version="1.1" id="Layer_1" xmlns:x="&ns_extend;" xmlns:i="&ns_ai;" xmlns:graph="&ns_graphs;"
	 xmlns="http://www.w3.org/2000/svg" xmlns:xlink="http://www.w3.org/1999/xlink" xmlns:a="http://ns.adobe.com/AdobeSVGViewerExtensions/3.0/"
	 x="0px" y="0px" width="64px" height="64px" viewBox="0 0 64 64" enable-background="new 0 0 64 64" xml:space="preserve">
<path fill="#BA0731" d="M23.178,35.49l3.278,2.836c-3.43,12.186-19.678,16.48-16.488,14.395
	C13.379,50.486,20.044,45.89,23.178,35.49z"/>
<path fill="#C90835" d="M25.525,35.468l3.585,2.423c-1.993,12.516-17.631,18.73-14.705,16.273
	C17.534,51.539,23.618,46.172,25.525,35.468z"/>
<path fill="#C90835" d="M27.858,37.781l-2.519-3.553c-10.982,6.51-18.553,17.736-15.394,15.6
	C13.183,47.639,20.395,41.197,27.858,37.781z"/>
<path fill="#C90835" d="M22.976,35.697l-1.5-4.107C9.056,30.715-0.454,44.803,2.563,42.462
	C5.788,39.957,12.306,35.148,22.976,35.697z"/>
<path fill="#BA0731" d="M28.771,39.615l3.826,2.004c-0.622,12.662-15.489,20.6-12.848,17.83
	C22.575,56.486,28.039,50.467,28.771,39.615z"/>
<linearGradient id="SVGID_1_" gradientUnits="userSpaceOnUse" x1="24.2065" y1="28.5264" x2="24.2065" y2="-21.7397" gradientTransform="matrix(0.7071 0.7071 -0.7071 0.7071 13.5674 18.0321)">
	<stop  offset="0" style="stop-color:#FF6672"/>
	<stop  offset="0.2275" style="stop-color:#FC6370"/>
	<stop  offset="0.427" style="stop-color:#F55868"/>
	<stop  offset="0.616" style="stop-color:#E8465C"/>
	<stop  offset="0.7986" style="stop-color:#D52D4B"/>
	<stop  offset="0.975" style="stop-color:#BE0C35"/>
	<stop  offset="1" style="stop-color:#BA0731"/>
	<a:midPointStop  offset="0" style="stop-color:#FF6672"/>
	<a:midPointStop  offset="0.7333" style="stop-color:#FF6672"/>
	<a:midPointStop  offset="1" style="stop-color:#BA0731"/>
</linearGradient>
<path fill="url(#SVGID_1_)" d="M49.229,40.107c-2.328-2.316-5.162-0.879-5.678-0.111c-1.123,1.666,4.939,2.031,1.82,5.133
	c-8.887,8.838-16.557-7.555-5.049-9.646c2.972-0.537,4.646-0.984,5.205-4.325c0.793-4.88,2.891-3.702,5.318-6.591l-9.528-9.475
	c-2.927,2.43-1.69,4.473-6.629,5.289c-3.36,0.556-3.808,2.222-4.351,5.177c-0.004,0.021-0.01,0.039-0.014,0.059
	c-2.151,11.352-18.557,3.74-9.687-5.082c3.118-3.1,3.486,2.927,5.163,1.811c0.771-0.513,2.217-3.328-0.115-5.646
	c-2.943-2.926-14.098,2.503-11.76,12.812c0.623,2.742,2.043,4.478,3.854,5.492c-6.21,1.813-13.038,7.707-7.407,13.302
	c1.296,1.29,4.258,4.235,10.943,0.251c6.61-3.941,1.521-8.08-1.364-7.363c-2.888,0.719,4.944,4.118-3.401,5.412
	c-4.161,0.645-5.365-5.871,3.309-7.971c3.333-0.807,5.699-0.743,7.826-0.895c-0.689,1.861-1.205,3.906-1.428,6.117
	c-0.844,8.355-10.691,11.406-13.889,12.318c-3.196,0.91,7.664,2.859,14.18-5.141c1.59-1.953,2.596-3.725,3.369-5.42
	c0.662,2.889,2.552,5.318,6.43,6.189C46.716,54.131,52.175,43.037,49.229,40.107z"/>
<path fill="#BA0731" d="M56.417,4.814c0,0-4.914,0.291-9.238-0.75c-4.44-1.071-4.969,11.535-7.82,15.976
	C39.358,20.04,51.853,10.103,56.417,4.814z"/>
<path fill="#BA0731" d="M61.185,9.553c0,0-0.295,4.888,0.75,9.186c1.08,4.413-11.598,4.94-16.064,7.776
	C45.87,26.516,55.862,14.091,61.185,9.553z"/>
<radialGradient id="SVGID_2_" cx="23.3799" cy="-31.208" r="8.5158" gradientTransform="matrix(0.7071 0.6984 -1.5052 1.4867 -11.3396 43.3319)" gradientUnits="userSpaceOnUse">
	<stop  offset="0" style="stop-color:#FF6672"/>
	<stop  offset="0.1754" style="stop-color:#F85D6C"/>
	<stop  offset="0.4616" style="stop-color:#E7455B"/>
	<stop  offset="0.8207" style="stop-color:#CA1D40"/>
	<stop  offset="1" style="stop-color:#BA0731"/>
	<a:midPointStop  offset="0" style="stop-color:#FF6672"/>
	<a:midPointStop  offset="0.6" style="stop-color:#FF6672"/>
	<a:midPointStop  offset="1" style="stop-color:#BA0731"/>
</radialGradient>
<path fill="url(#SVGID_2_)" d="M57.276,17.965c4.861-5.905,5.215-10.558,3.256-12.505c-1.957-1.949-6.635-1.596-12.576,3.238
	c-6.584,5.361-11.978,4.565-12.629,7.317c-0.652,2.756,3.736,0.719,3.211,5.081c-0.266,2.205,0.123,3.996,1.186,5.055
	c1.065,1.057,2.865,1.444,5.084,1.179c4.387-0.521,2.34,3.845,5.111,3.195C52.687,29.877,51.886,24.514,57.276,17.965z"/>
<path fill="#B00505" d="M33.845,29.494c-1.36,1.354-2.566,2.341-2.697,2.21c-0.133-0.131,0.863-1.329,2.222-2.683
	c1.361-1.352,2.567-2.342,2.698-2.211C36.198,26.94,35.204,28.141,33.845,29.494z"/>
<path fill="#B00505" d="M35.323,30.969c-1.598,1.587-2.969,2.795-3.068,2.697c-0.098-0.1,1.115-1.463,2.713-3.053
	c1.596-1.584,2.969-2.794,3.067-2.695C38.134,28.016,36.919,29.381,35.323,30.969z"/>
<ellipse transform="matrix(0.7094 0.7048 -0.7048 0.7094 33.3544 -16.4558)" fill="#B00505" cx="36.632" cy="32.218" rx="0.322" ry="3.387"/>
<path fill="#FFFFFF" d="M43.97,33.746c-0.807,0.797-2.129,0.785-2.949-0.023c-0.822-0.813-0.832-2.117-0.025-2.912
	c0.808-0.8,2.127-0.791,2.951,0.021C44.767,31.645,44.776,32.949,43.97,33.746z"/>
<path fill="#302C3B" d="M43.544,33.326c-0.576,0.568-1.52,0.563-2.106-0.016c-0.589-0.582-0.594-1.514-0.017-2.082
	c0.576-0.571,1.52-0.564,2.107,0.016C44.114,31.822,44.122,32.757,43.544,33.326z"/>
<path fill="#6E8189" d="M42.218,31.182c-0.389,0.384,0.086,0.852,0.473,0.469C43.078,31.267,42.604,30.799,42.218,31.182z"/>
<path fill="#FFFFFF" d="M35.063,24.949c-0.807,0.796-2.129,0.786-2.95-0.023c-0.823-0.813-0.831-2.117-0.023-2.915
	c0.807-0.798,2.127-0.79,2.949,0.022S35.87,24.151,35.063,24.949z"/>
<path fill="#302C3B" d="M34.638,24.529c-0.576,0.568-1.521,0.563-2.107-0.018c-0.588-0.58-0.594-1.512-0.018-2.082
	c0.576-0.569,1.521-0.563,2.107,0.018C35.207,23.025,35.214,23.959,34.638,24.529z"/>
<path fill="#6E8189" d="M33.312,22.385c-0.389,0.383,0.084,0.852,0.473,0.469C34.172,22.469,33.698,22.001,33.312,22.385z"/>
<path opacity="0.15" fill="#73031E" d="M42.999,16.015c-1.092,1.077,0.24,2.393,1.332,1.315
	C45.421,16.252,44.089,14.935,42.999,16.015z"/>
<path opacity="0.15" fill="#73031E" d="M45.554,22.287c-1.09,1.075,0.24,2.391,1.332,1.314
	C47.978,22.523,46.646,21.207,45.554,22.287z"/>
<path opacity="0.15" fill="#73031E" d="M46.829,18.477c-0.629,0.62,0.137,1.378,0.768,0.757
	C48.226,18.613,47.458,17.855,46.829,18.477z"/>
<path opacity="0.15" fill="#73031E" d="M49.372,23.076c-0.629,0.62,0.139,1.379,0.768,0.758S50.001,22.454,49.372,23.076z"/>
<path opacity="0.15" fill="#73031E" d="M52.604,15.267c-0.631,0.62,0.137,1.378,0.766,0.757
	C53.999,15.403,53.231,14.645,52.604,15.267z"/>
<path opacity="0.15" fill="#73031E" d="M51.685,9.863c-0.629,0.62,0.139,1.379,0.768,0.757C53.081,10,52.312,9.242,51.685,9.863z"/>
<path opacity="0.15" fill="#73031E" d="M58.563,9.606c-0.629,0.62,0.139,1.378,0.768,0.757C59.96,9.743,59.19,8.984,58.563,9.606z"
	/>
<path opacity="0.15" fill="#73031E" d="M45.698,13.064c-0.631,0.62,0.139,1.378,0.766,0.757
	C47.095,13.201,46.325,12.442,45.698,13.064z"/>
<path opacity="0.15" fill="#73031E" d="M48.765,13.607c-1.092,1.076,0.24,2.392,1.332,1.313
	C51.187,13.844,49.854,12.527,48.765,13.607z"/>
<path opacity="0.15" fill="#73031E" d="M51.015,18.735c-1.092,1.075,0.24,2.392,1.332,1.313
	C53.437,18.972,52.104,17.655,51.015,18.735z"/>
<path opacity="0.15" fill="#73031E" d="M54.979,12.282c-1.092,1.075,0.24,2.391,1.332,1.314S56.069,11.202,54.979,12.282z"/>
<path opacity="0.15" fill="#73031E" d="M55.735,6.992c-1.092,1.076,0.24,2.392,1.33,1.313C58.157,7.229,56.825,5.912,55.735,6.992z"
	/>
</svg>
