<?xml version="1.0" encoding="utf-8"?>
<!-- Generator: Adobe Illustrator 15.0.0, SVG Export Plug-In . SVG Version: 6.00 Build 0)  -->
<!DOCTYPE svg PUBLIC "-//W3C//DTD SVG 1.1//EN" "http://www.w3.org/Graphics/SVG/1.1/DTD/svg11.dtd" [
	<!ENTITY ns_flows "http://ns.adobe.com/Flows/1.0/">
	<!ENTITY ns_extend "http://ns.adobe.com/Extensibility/1.0/">
	<!ENTITY ns_ai "http://ns.adobe.com/AdobeIllustrator/10.0/">
	<!ENTITY ns_graphs "http://ns.adobe.com/Graphs/1.0/">
]>
<svg version="1.1" id="Layer_1" xmlns:x="&ns_extend;" xmlns:i="&ns_ai;" xmlns:graph="&ns_graphs;"
	 xmlns="http://www.w3.org/2000/svg" xmlns:xlink="http://www.w3.org/1999/xlink" xmlns:a="http://ns.adobe.com/AdobeSVGViewerExtensions/3.0/"
	 x="0px" y="0px" width="64px" height="64px" viewBox="0 0 64 64" enable-background="new 0 0 64 64" xml:space="preserve">
<path fill="#E6EBEF" d="M9.682,6.016c-2.662,2.61-3.764,12.878,1.22,17.441c2.219-3.49,6.543-9.153,12.721-12.175
	C21.212,6.279,12.425,3.328,9.682,6.016z"/>
<linearGradient id="SVGID_1_" gradientUnits="userSpaceOnUse" x1="9.5444" y1="15.4727" x2="20.0596" y2="15.4727">
	<stop  offset="0.3818" style="stop-color:#3E4A52"/>
	<stop  offset="0.4432" style="stop-color:#3C474F"/>
	<stop  offset="1" style="stop-color:#302C3B"/>
	<a:midPointStop  offset="0.3818" style="stop-color:#3E4A52"/>
	<a:midPointStop  offset="0.4653" style="stop-color:#3E4A52"/>
	<a:midPointStop  offset="1" style="stop-color:#302C3B"/>
</linearGradient>
<path fill="url(#SVGID_1_)" d="M12.026,21.512c-3.491-2.856-2.788-9.704-1.006-11.422c1.764-1.702,7.324,0.097,9.039,3.212
	C16.563,15.787,13.862,18.947,12.026,21.512z"/>
<path fill="#E6EBEF" d="M54.318,6.016c-2.742-2.688-11.529,0.264-13.939,5.267c6.178,3.021,10.502,8.685,12.719,12.175
	C58.082,18.894,56.98,8.626,54.318,6.016z"/>
<linearGradient id="SVGID_2_" gradientUnits="userSpaceOnUse" x1="43.9414" y1="15.4727" x2="54.4561" y2="15.4727">
	<stop  offset="0" style="stop-color:#302C3B"/>
	<stop  offset="0.5568" style="stop-color:#3C474F"/>
	<stop  offset="0.6182" style="stop-color:#3E4A52"/>
	<a:midPointStop  offset="0" style="stop-color:#302C3B"/>
	<a:midPointStop  offset="0.5347" style="stop-color:#302C3B"/>
	<a:midPointStop  offset="0.6182" style="stop-color:#3E4A52"/>
</linearGradient>
<path fill="url(#SVGID_2_)" d="M51.975,21.512c3.49-2.856,2.787-9.704,1.004-11.422c-1.762-1.702-7.322,0.097-9.037,3.212
	C47.438,15.787,50.139,18.947,51.975,21.512z"/>
<linearGradient id="SVGID_3_" gradientUnits="userSpaceOnUse" x1="32.0005" y1="34.6699" x2="32.0005" y2="10.0825">
	<stop  offset="0" style="stop-color:#5A6A70"/>
	<stop  offset="0.6401" style="stop-color:#66777F"/>
	<stop  offset="1" style="stop-color:#6E8189"/>
	<a:midPointStop  offset="0" style="stop-color:#5A6A70"/>
	<a:midPointStop  offset="0.5625" style="stop-color:#5A6A70"/>
	<a:midPointStop  offset="1" style="stop-color:#6E8189"/>
</linearGradient>
<path fill="url(#SVGID_3_)" d="M51.847,18.085c-0.686-2.362-0.185-4.452-0.185-4.452c-0.697,0.247-1.654,0.674-2.676,1.22
	c-0.439-1.828-0.303-3.258-0.303-3.258c-0.775,0.362-1.867,1.015-2.989,1.828c-3.671-2.019-8.171-3.341-13.694-3.341
	s-10.023,1.322-13.694,3.341c-1.122-0.813-2.213-1.466-2.988-1.828c0,0,0.137,1.43-0.304,3.258c-1.021-0.546-1.979-0.973-2.676-1.22
	c0,0,0.502,2.089-0.184,4.452C5.053,25.263,3.156,34.67,3.156,34.67h28.805h0.078h28.805C60.844,34.67,58.947,25.263,51.847,18.085z
	"/>
<linearGradient id="SVGID_4_" gradientUnits="userSpaceOnUse" x1="32.0005" y1="59" x2="32.0005" y2="21.4556">
	<stop  offset="0.1576" style="stop-color:#CFD8DD"/>
	<stop  offset="0.2131" style="stop-color:#D1DADF"/>
	<stop  offset="0.6483" style="stop-color:#E1E7EB"/>
	<stop  offset="1" style="stop-color:#E6EBEF"/>
	<a:midPointStop  offset="0.1576" style="stop-color:#CFD8DD"/>
	<a:midPointStop  offset="0.3381" style="stop-color:#CFD8DD"/>
	<a:midPointStop  offset="1" style="stop-color:#E6EBEF"/>
</linearGradient>
<path fill="url(#SVGID_4_)" d="M62,34.779c-8.654-3.293-13.096-9.854-23.564-10.383c-0.871-0.043-1.686-1.695-1.441-2.941
	c-2.68,1.096-4.188,4.309-4.994,8.246c-0.807-3.938-2.314-7.15-4.994-8.246c0.246,1.246-0.568,2.898-1.441,2.941
	C15.097,24.926,10.655,31.486,2,34.779c0.373,8.404,8.038,17.557,17.923,19.664C23.094,56.564,28.343,58.998,32,59
	c3.658-0.002,8.907-2.436,12.078-4.557C53.963,52.336,61.627,43.184,62,34.779z"/>
<linearGradient id="SVGID_5_" gradientUnits="userSpaceOnUse" x1="17.4468" y1="51.0352" x2="17.4468" y2="26.9263">
	<stop  offset="0" style="stop-color:#3E4A52"/>
	<stop  offset="0.0994" style="stop-color:#3C474F"/>
	<stop  offset="1" style="stop-color:#302C3B"/>
	<a:midPointStop  offset="0" style="stop-color:#3E4A52"/>
	<a:midPointStop  offset="0.4653" style="stop-color:#3E4A52"/>
	<a:midPointStop  offset="1" style="stop-color:#302C3B"/>
</linearGradient>
<path fill="url(#SVGID_5_)" d="M26.84,30.027c-5.772-5.09-11.663,4.359-21.45,7.748c3.037,8.713,8.563,9.086,12.3,13.26
	c-0.914-10.102,16.934-9.025,10.355-24.109C28.045,26.926,28.199,29.092,26.84,30.027z"/>
<linearGradient id="SVGID_6_" gradientUnits="userSpaceOnUse" x1="46.5537" y1="51.0352" x2="46.5537" y2="26.9263">
	<stop  offset="0" style="stop-color:#3E4A52"/>
	<stop  offset="0.0994" style="stop-color:#3C474F"/>
	<stop  offset="1" style="stop-color:#302C3B"/>
	<a:midPointStop  offset="0" style="stop-color:#3E4A52"/>
	<a:midPointStop  offset="0.4653" style="stop-color:#3E4A52"/>
	<a:midPointStop  offset="1" style="stop-color:#302C3B"/>
</linearGradient>
<path fill="url(#SVGID_6_)" d="M37.16,30.027c5.773-5.09,11.664,4.359,21.451,7.748c-3.037,8.713-8.564,9.086-12.301,13.26
	c0.914-10.102-16.932-9.025-10.355-24.109C35.955,26.926,35.803,29.092,37.16,30.027z"/>
<path fill="#4E5E67" d="M25.143,35.424c0,5.33-7.001,5.33-7.001,0C18.142,30.088,25.143,30.088,25.143,35.424z"/>
<path fill="#1A1626" d="M24.643,35.424c0,4.664-6.001,4.664-6.001,0C18.642,30.754,24.643,30.754,24.643,35.424z"/>
<path id="Shape_15_" fill="#6E8189" d="M21.411,33.674c0,1.381-1.598,1.381-1.598,0C19.813,32.289,21.411,32.289,21.411,33.674
	L21.411,33.674z"/>
<path fill="#4E5E67" d="M45.859,35.424c0,5.33-7,5.33-7,0C38.859,30.088,45.859,30.088,45.859,35.424z"/>
<path fill="#1A1626" d="M45.359,35.424c0,4.664-6,4.664-6,0C39.359,30.754,45.359,30.754,45.359,35.424z"/>
<path id="Shape_14_" fill="#6E8189" d="M42.129,33.674c0,1.381-1.598,1.381-1.598,0C40.531,32.289,42.129,32.289,42.129,33.674
	L42.129,33.674z"/>
<path fill="#99A8AE" d="M23.253,45.1c-10.047-2.217-12.201,0.408-12.143,0.963C11.132,46.242,15.521,44.375,23.253,45.1z"/>
<path fill="#99A8AE" d="M23.608,47c-12.319-0.08-14.55,3.66-14.405,4.322C9.25,51.533,14.259,48.129,23.608,47z"/>
<path fill="#99A8AE" d="M40.748,45.1c10.047-2.217,12.201,0.408,12.143,0.963C52.869,46.242,48.479,44.375,40.748,45.1z"/>
<path fill="#99A8AE" d="M40.393,47c12.318-0.08,14.549,3.66,14.404,4.322C54.75,51.533,49.742,48.129,40.393,47z"/>
<linearGradient id="SVGID_7_" gradientUnits="userSpaceOnUse" x1="32.0015" y1="41.4385" x2="32.0015" y2="19.4934">
	<stop  offset="0.7455" style="stop-color:#6E8189"/>
	<stop  offset="0.7721" style="stop-color:#6E8189;stop-opacity:0.8954"/>
	<stop  offset="1" style="stop-color:#6E8189;stop-opacity:0"/>
	<a:midPointStop  offset="0.7455" style="stop-color:#6E8189"/>
	<a:midPointStop  offset="0.2388" style="stop-color:#6E8189"/>
	<a:midPointStop  offset="1" style="stop-color:#6E8189;stop-opacity:0"/>
</linearGradient>
<path fill="url(#SVGID_7_)" d="M33.459,19.605h-2.916c1.943,2.213-4.289,29.979,1.459,30C37.746,49.584,31.518,21.818,33.459,19.605
	z"/>
<path fill="#302C3B" d="M31.998,51.693c-1.201,5.352-5.373,2.727-5.871,1.809c0,1.525,3.352,4.217,5.871,1.504
	c2.52,2.713,5.875,0.021,5.875-1.504C37.369,54.42,33.201,57.045,31.998,51.693z"/>
<path id="Shape_13_" fill="#302C3B" d="M26.305,49.934c0-2.426,2.551-2.891,5.697-2.891c3.145,0,5.695,0.465,5.695,2.891
	c0,1.93-4.535,3.645-5.695,3.645C30.838,53.578,26.305,51.863,26.305,49.934L26.305,49.934z"/>
</svg>
