<?xml version="1.0" encoding="utf-8"?>
<!-- Generator: Adobe Illustrator 15.0.0, SVG Export Plug-In . SVG Version: 6.00 Build 0)  -->
<!DOCTYPE svg PUBLIC "-//W3C//DTD SVG 1.1//EN" "http://www.w3.org/Graphics/SVG/1.1/DTD/svg11.dtd" [
	<!ENTITY ns_flows "http://ns.adobe.com/Flows/1.0/">
	<!ENTITY ns_extend "http://ns.adobe.com/Extensibility/1.0/">
	<!ENTITY ns_ai "http://ns.adobe.com/AdobeIllustrator/10.0/">
	<!ENTITY ns_graphs "http://ns.adobe.com/Graphs/1.0/">
]>
<svg version="1.1" id="Layer_1" xmlns:x="&ns_extend;" xmlns:i="&ns_ai;" xmlns:graph="&ns_graphs;"
	 xmlns="http://www.w3.org/2000/svg" xmlns:xlink="http://www.w3.org/1999/xlink" xmlns:a="http://ns.adobe.com/AdobeSVGViewerExtensions/3.0/"
	 x="0px" y="0px" width="64px" height="64px" viewBox="0 0 64 64" enable-background="new 0 0 64 64" xml:space="preserve">
<path fill="#436618" d="M23.605,33.645c-2.374,2.297-2,10.188-0.438,12.5c1.959,2.9,7.784,4.761,5.097,9.674
	c-0.955,1.744-2.262,0.154-4.085,2.652c-1.432,1.963,1.578,1.225,3.439,0.222c-0.283,2.519,3.15,1.188,3.401-0.614
	c0.511,2.191,4.595,1.605,2.443-1.949c-2.396-3.955-0.019-5.621-1.196-6.924C26.792,43.145,40.324,34.922,23.605,33.645z"/>
<path fill="#302C3B" d="M25.094,57.968c-1.428,0.025-2.036,1.145-2.29,2.294C24.565,59.112,26.761,60.1,25.094,57.968z"/>
<path fill="#302C3B" d="M28.615,58.288c-1.426,0.025-2.036,1.149-2.289,2.297C28.088,59.438,30.283,60.422,28.615,58.288z"/>
<path fill="#436618" d="M18.172,24.931c-1.348,0.354-5.939,2.927-6.882,4.633c-0.494-0.356-1.681-0.528-2.778-1.13
	c-1.169-0.643-1.854-1.557-2.802-1.395c-0.521,0.09,0.29,0.162,1.063,0.714c0.434,0.308-1.541-0.411-1.631,1.119
	c-0.011,0.19,0.377-0.545,1.305-0.234c0.379,0.127-0.846,0.371-0.516,1.341c0.104,0.298,0.33-0.576,0.856-0.573
	c0.486,0.002,0.879,0.208,1.486-0.145c0.439-0.253,3.411,2.818,3.938,2.261C14.257,29.346,21.844,29.142,18.172,24.931z"/>
<radialGradient id="SVGID_1_" cx="26.7163" cy="43.709" r="45.6063" gradientTransform="matrix(0.8444 0.5193 -0.2826 0.4314 20.0103 -11.0516)" gradientUnits="userSpaceOnUse">
	<stop  offset="0" style="stop-color:#7DB03F"/>
	<stop  offset="0.2448" style="stop-color:#76A839"/>
	<stop  offset="0.6322" style="stop-color:#62912A"/>
	<stop  offset="1" style="stop-color:#4B7518"/>
	<a:midPointStop  offset="0" style="stop-color:#7DB03F"/>
	<a:midPointStop  offset="0.6061" style="stop-color:#7DB03F"/>
	<a:midPointStop  offset="1" style="stop-color:#4B7518"/>
</radialGradient>
<path fill="url(#SVGID_1_)" d="M61.342,8.189c0.997-0.9-16.146,6.666-7.604,21.397c4.769,8.222-6.233,4.183-12.295-3.754
	c-6.606-8.652-18.626-5.478-18.02-11.397c0.605-5.907-2.477-8.18-10.12-7.629c1.334,3.213,2.108,6.452,2.755,9.595
	c-0.78,0.935-4.364,2.294-6.287,3.072c7.497,1.521,3.999,5.423,9.481,13.461c6.395,10.322,14.161,8.443,17.443,9.086
	c6.559,4.69,27.764,5.301,25.07-8.192C59.527,22.61,46.929,21.188,61.342,8.189z"/>
<linearGradient id="SVGID_2_" gradientUnits="userSpaceOnUse" x1="8.8638" y1="38.1816" x2="8.8638" y2="24.8242" gradientTransform="matrix(0.9759 -0.218 0.218 0.9759 -6.3165 -15.3546)">
	<stop  offset="0" style="stop-color:#7DB03F"/>
	<stop  offset="0.2448" style="stop-color:#76A839"/>
	<stop  offset="0.6322" style="stop-color:#62912A"/>
	<stop  offset="1" style="stop-color:#4B7518"/>
	<a:midPointStop  offset="0" style="stop-color:#7DB03F"/>
	<a:midPointStop  offset="0.6061" style="stop-color:#7DB03F"/>
	<a:midPointStop  offset="1" style="stop-color:#4B7518"/>
</linearGradient>
<path fill="url(#SVGID_2_)" d="M16.377,13.751c-0.795-0.945-0.067-1.785,0.043-2.833c0.277-2.627-1.238-2.275-2.048-3.497
	c-1.826-2.756-4.452-1.115-5.53,1.623c-2.738,1.554-4.559,2.46-5.627,3.553c-0.894,0.334-1.447,1.338-1.121,2.186
	C1.939,15.685,2,16.805,2.245,18.301c0.207,0.104,0.453,0.183,0.728,0.242c0.178,1.171,1.012,2.556,2.232,2.561
	c1.835,0.006,4.573-1.82,7.322-1.909C17.309,19.041,17.833,15.483,16.377,13.751z"/>
<path fill="#FFFFFF" d="M3.341,18.556c0.407,0.703,1.095,1.078,1.802,1.071C3.919,18.165,5.492,18.597,3.341,18.556z"/>
<path fill="#FFFFFF" d="M4.886,18.512c0.406,0.704,1.093,1.078,1.802,1.072C5.464,18.122,7.029,18.048,4.886,18.512z"/>
<path fill="#FFFFFF" d="M6.228,18.104c0.387,0.663,1.034,1.016,1.704,1.012C6.775,17.737,8.252,17.666,6.228,18.104z"/>
<path fill="#FFFFFF" d="M7.507,17.834c0.458,0.506,1.09,0.699,1.668,0.576C7.911,17.416,9.182,17.096,7.507,17.834z"/>
<path fill="#FFFFFF" d="M8.624,17.172c0.372,0.397,0.876,0.542,1.333,0.435C8.938,16.833,9.943,16.564,8.624,17.172z"/>
<path fill="#013D1E" d="M2.245,18.301c2.488,1.129,8.536-0.341,9.42-3.866C9.587,17.654,4.257,18.695,2.245,18.301z"/>
<path fill="#436618" d="M9.763,10.679c0.9,1.178,4.257,1.523,3.871-2.439C12.539,7.426,9.934,6.929,9.763,10.679z"/>
<path fill="#FDCA47" d="M10.633,10.433c0.563,0.521,2.617,0.382,2.555-1.501C12.469,8.592,10.637,8.563,10.633,10.433z"/>
<path fill="#302C3B" d="M12.401,9.612c0.249,1.074-1.151,1.376-1.399,0.303C10.754,8.837,12.154,8.535,12.401,9.612z"/>
<path fill="#6E8189" d="M11.263,9.339c0.31-0.066,0.415,0.39,0.105,0.457C11.063,9.862,10.958,9.406,11.263,9.339z"/>
<path fill="#436618" d="M4.315,13.406c0,0-1.314,0.687-0.885,1.898C2.051,14.423,3.045,12.712,4.315,13.406z"/>
<linearGradient id="SVGID_3_" gradientUnits="userSpaceOnUse" x1="44.7588" y1="59.7246" x2="29.9742" y2="28.2507">
	<stop  offset="0" style="stop-color:#365411"/>
	<stop  offset="0.0214" style="stop-color:#385612"/>
	<stop  offset="0.3923" style="stop-color:#547C23"/>
	<stop  offset="0.6916" style="stop-color:#65932D"/>
	<stop  offset="0.88" style="stop-color:#6B9B31"/>
	<a:midPointStop  offset="0" style="stop-color:#365411"/>
	<a:midPointStop  offset="0.3939" style="stop-color:#365411"/>
	<a:midPointStop  offset="0.88" style="stop-color:#6B9B31"/>
</linearGradient>
<path fill="url(#SVGID_3_)" d="M28.444,32.691c1.022,2.799-1.105,11.194,1.143,13.051c2.701,2.225,11.23,5.783,8.323,11.1
	c-1.033,1.888-2.448,0.167-4.421,2.871c-1.55,2.124,1.707,1.325,3.722,0.239c-0.307,2.725,3.408,1.286,3.681-0.665
	c0.553,2.372,4.972,1.737,2.644-2.108c-2.593-4.28,0.14-6.246-1.295-7.493c-1.922-1.672,0.728-4.147-3.169-4.991
	c-1.721-3.852,3.334-5.025,2.375-9.509C47.529,20.473,23.337,18.699,28.444,32.691z"/>
<path fill="#302C3B" d="M34.478,59.168c-1.545,0.027-2.204,1.238-2.478,2.481C33.906,60.406,36.282,61.476,34.478,59.168z"/>
<path fill="#302C3B" d="M38.288,59.515c-1.543,0.027-2.203,1.243-2.477,2.485C37.718,60.758,40.093,61.824,38.288,59.515z"/>
<path fill="#302C3B" d="M42.574,58.728c-1.545,0.029-1.969,1.769-1.661,2.922C42.98,60.759,44.143,60.534,42.574,58.728z"/>
<path fill="#302C3B" d="M32.461,57.721c-1.388,0.027-1.769,1.59-1.492,2.625C32.827,59.546,33.87,59.344,32.461,57.721z"/>
<linearGradient id="SVGID_4_" gradientUnits="userSpaceOnUse" x1="20.749" y1="44.1836" x2="6.3832" y2="55.394" gradientTransform="matrix(0.9759 -0.218 0.218 0.9759 -6.3165 -15.3546)">
	<stop  offset="0" style="stop-color:#6B9B31"/>
	<stop  offset="0.507" style="stop-color:#527922"/>
	<stop  offset="1" style="stop-color:#365411"/>
	<a:midPointStop  offset="0" style="stop-color:#6B9B31"/>
	<a:midPointStop  offset="0.5273" style="stop-color:#6B9B31"/>
	<a:midPointStop  offset="1" style="stop-color:#365411"/>
</linearGradient>
<path fill="url(#SVGID_4_)" d="M22.411,29.097c8.29-6.669-4.911-10.354-3.751-2.522c-1.542,2.365-2.545,4.544-1.987,6.068
	c-0.592,0.081-2.185,2.146-3.37,2.471c-1.264,0.344-2.369,0.148-2.931,0.936c-0.309,0.432,0.315-0.084,1.24-0.221
	c0.516-0.074-1.374,0.781-0.399,1.976c0.122,0.146-0.102-0.668,0.766-1.093c0.356-0.17-0.344,0.872,0.548,1.355
	c0.272,0.146-0.156-0.659,0.216-1.024c0.345-0.341,0.71-0.304,0.901-0.989c0.139-0.5,3.191-1.307,4.779-1.572
	C19.099,34.369,19.131,31.734,22.411,29.097z"/>
<path fill="#609122" d="M27.001,18.323c0.64,2.056,1.146,3.52,0.151,6.796c1.957-2.266,2.139-3.992,1.664-6.26L27.001,18.323z"/>
<path fill="#5B8A20" d="M47.468,31.557l-1.956-1.494c0.603,1.935,0.631,3.544,0.079,6.396
	C47.013,34.813,47.491,33.047,47.468,31.557z"/>
<path fill="#5B8A20" d="M53.146,34.098c0,0-0.84-0.139-1.381-0.292c0.176,1.159,0.098,2.44-0.486,4.362
	C52.61,36.627,53.106,35.48,53.146,34.098z"/>
<path fill="#56821E" d="M54.66,33.611c0.843,0.401,1.775,0.925,2.847,1.947c-0.795-1.929-1.46-2.96-2.72-3.615
	C54.787,31.943,55.028,33.061,54.66,33.611z"/>
<path fill="#609122" d="M23.649,16.066c-0.771,1.572-1.632,2.355-4.054,4.262c2.627-0.668,4.145-1.309,5.254-2.958
	C24.849,17.37,24.168,16.819,23.649,16.066z"/>
<path fill="#609122" d="M23.459,12.179c-2.161-0.272-3.786-0.444-6.504-0.151c2.266-1.957,3.829-2.171,6.098-1.696
	C23.053,10.331,23.459,11.203,23.459,12.179z"/>
<path fill="#609122" d="M28.489,29.083c0.456,1.162,8.026-5.209,13.364,2.171C38.21,21.385,28.032,27.917,28.489,29.083z"/>
<path fill="#5B8A20" d="M29.299,35.031c0.254,0.956,7.551-3.266,11.274,3.053C38.612,29.989,29.044,34.072,29.299,35.031z"/>
<path fill="#56821E" d="M28.822,42.298c0.339,0.6,4.509-3.521,8.124,0.077C34.205,37.271,28.483,41.697,28.822,42.298z"/>
</svg>
