<?xml version="1.0" encoding="utf-8"?>
<!-- Generator: Adobe Illustrator 15.0.0, SVG Export Plug-In . SVG Version: 6.00 Build 0)  -->
<!DOCTYPE svg PUBLIC "-//W3C//DTD SVG 1.1//EN" "http://www.w3.org/Graphics/SVG/1.1/DTD/svg11.dtd" [
	<!ENTITY ns_flows "http://ns.adobe.com/Flows/1.0/">
	<!ENTITY ns_extend "http://ns.adobe.com/Extensibility/1.0/">
	<!ENTITY ns_ai "http://ns.adobe.com/AdobeIllustrator/10.0/">
	<!ENTITY ns_graphs "http://ns.adobe.com/Graphs/1.0/">
]>
<svg version="1.1" id="Layer_1" xmlns:x="&ns_extend;" xmlns:i="&ns_ai;" xmlns:graph="&ns_graphs;"
	 xmlns="http://www.w3.org/2000/svg" xmlns:xlink="http://www.w3.org/1999/xlink" xmlns:a="http://ns.adobe.com/AdobeSVGViewerExtensions/3.0/"
	 x="0px" y="0px" width="64px" height="64px" viewBox="0 0 64 64" enable-background="new 0 0 64 64" xml:space="preserve">
<path fill="#4E5E67" d="M12.543,46.654c-3.52,0.107-4.764,1.965-6.133,0.801C4.375,45.723,8.211,44.738,12.543,46.654z"/>
<path fill="#302C3B" d="M11.089,45.795c-3.52,0.107-2.156,1.17-4.089,1.797C4.589,46.424,6.757,43.879,11.089,45.795z"/>
<path fill-rule="evenodd" clip-rule="evenodd" fill="#1A1626" d="M20.517,49.904c-2.724,0.883-3.414,2.594-5.186,4.279
	c-1.669,1.592-1.438,6.527,0.325,6.549c1.331-0.885,1.198-2.889,2.416-3.916c1.752-0.656,0.496-3.707,12.283-3.344
	C27.268,47.736,20.517,49.904,20.517,49.904z"/>
<path fill="#99A8AE" d="M9.039,37.264l4.504-0.375C15.762,34.363,10.378,31.736,9.039,37.264z"/>
<path fill-rule="evenodd" clip-rule="evenodd" fill="#1A1626" d="M38.063,52.684c6.801,6.502-2.04,5.268-2.04,9.316h5.063
	c1.028,0,5.688-4.432,5.454-10.076C46.54,51.924,37.389,52.037,38.063,52.684z"/>
<linearGradient id="SVGID_1_" gradientUnits="userSpaceOnUse" x1="32.2827" y1="59.7939" x2="32.2827" y2="34.9473">
	<stop  offset="0" style="stop-color:#46545C"/>
	<stop  offset="0.2882" style="stop-color:#4D5B63"/>
	<stop  offset="1" style="stop-color:#5A6A70"/>
	<a:midPointStop  offset="0" style="stop-color:#46545C"/>
	<a:midPointStop  offset="0.4375" style="stop-color:#46545C"/>
	<a:midPointStop  offset="1" style="stop-color:#5A6A70"/>
</linearGradient>
<path fill="url(#SVGID_1_)" d="M24.791,53.533c-6.641,0.156-5.92-7.016-14.493-6.783c-5.396,0.146-6.481-0.049-7.733-1.494
	c3.104-2.463,3.639-8.486,10.184-10.033c4.24-1.004,7.188,2.709,11.653,2.027c5.682-0.865,9.001-2.303,15.518-2.303
	c13.844,0,18.397,6.607,18.144,13.561c-0.119,3.283,1.637,9.014,3.783,10.291c1.139,0.678-4.277,3.621-8.303-5.463
	c-0.686,1.352-5.702,1.375-7.556-0.563c-4.211,2.518-12.469,1.785-15.717,1.203C29.479,56.924,26.151,56.297,24.791,53.533z"/>
<path fill="#302C3B" d="M55.684,47.959c0,0-0.186,3.014-2.141,5.377c0,0,1.105,3.51,3.688,5.238
	C52.966,53.863,55.668,52.795,55.684,47.959z"/>
<path fill-rule="evenodd" clip-rule="evenodd" fill="#302C3B" d="M43.402,47.939c-0.508-1.326,0.874,2.061,2.718,4.838
	c0,0-2.483,1.783-8.416,1.754C39.965,53.961,45.563,53.568,43.402,47.939z"/>
<path fill-rule="evenodd" clip-rule="evenodd" fill="#302C3B" d="M30.26,50.076c-0.203,1.826-0.047,2.006-0.003,3.893
	c0,0,2.011,0.416,3.269,0.416C29.78,53.734,30.476,48.135,30.26,50.076z"/>
<path fill-rule="evenodd" clip-rule="evenodd" fill="#302C3B" d="M25.061,54.021c-0.438-1.348-1.079-6.652-1.134-5.283
	c-0.123,3.127,0.747,4.838-2.504,4.055C22.882,53.764,25.061,54.021,25.061,54.021z"/>
<path fill-rule="evenodd" clip-rule="evenodd" fill="#302C3B" d="M24.506,52.684c2.885,8.922-2.147,5.193-2.229,9.316h6.5
	c1.126,0,1.805-3.449,1.555-9.004C29.782,54.867,26.099,55.422,24.506,52.684z"/>
<path fill-rule="evenodd" clip-rule="evenodd" fill="#302C3B" d="M45.083,51.32c5.691,9.092-1.023,7.311-0.838,10.68h6.073
	c1.596-0.521,1.082-2.205,1.366-4.066c0.255-1.682,2.038-4.568,2.724-5.92C53.163,53.545,47.807,53.715,45.083,51.32z"/>
<path fill="#302C3B" d="M4.589,43.635c8.961-13.619,18.262-6.6,20.472,2.736C16.76,38.025,8.723,46.443,4.589,43.635z"/>
<path fill="#E6EBEF" d="M4.794,43.633c2.662-1.408,2.619-5.65,8.687-7.014c3.436-0.773,1.447,2.658,1.732,2.643
	c1.786-0.1,3.524-5.242-1.358-4.166c-1.115,0.246-4.657,0.93-9.158,7.359c-3.766,0.869-2.132,2.797-2.132,2.797
	c2.395,3.377,13.613-1.926,22.496,1.119C18.817,36.322,7.296,45.59,4.794,43.633z"/>
<path fill-rule="evenodd" clip-rule="evenodd" fill="#1A1626" d="M8.922,40.24c0,0,1.222-0.342,1.901,0.598
	c0,0-0.469,1.307-1.597,0.996C8.616,41.666,8.922,40.24,8.922,40.24z"/>
<path fill="#6E8189" d="M9.354,40.604c0.021,0.436-0.294,0.428-0.313-0.006C9.023,40.264,9.337,40.27,9.354,40.604z"/>
<path fill="#302C3B" d="M3.311,43.006c0.509-0.018-0.024,1.955-0.746,2.246C2.023,44.857,1.353,43.072,3.311,43.006z"/>
<path fill="#6E8189" d="M49.231,42.186c1.06-0.996,4.659-0.637,5.842,3.342C52.396,43.234,47.545,43.768,49.231,42.186z"/>
<path fill="#6E8189" d="M33.036,43.295c0.793-0.945,3.86-1,5.252,2.232C35.808,43.863,31.772,44.791,33.036,43.295z"/>
<path fill="#6E8189" d="M50.056,46.943c1.058-0.635,3.976,0.313,4.241,3.826C52.49,48.385,48.374,47.949,50.056,46.943z"/>
<path fill="#6E8189" d="M45.312,37.828c0.729-1.158,4.096-1.686,6.116,1.66C48.445,38.033,44.148,39.672,45.312,37.828z"/>
<path fill="#6E8189" d="M36.591,47.658c1.104-0.549,3.938,0.629,3.924,4.148C38.903,49.287,34.835,48.529,36.591,47.658z"/>
<path fill="#6E8189" d="M28.727,46.998c0.969-0.76,3.982-0.178,4.676,3.275C31.318,48.129,27.181,48.203,28.727,46.998z"/>
<path fill="#6E8189" d="M24.447,40.322c0.988-0.734,3.986-0.082,4.597,3.387C27.012,41.516,22.873,41.492,24.447,40.322z"/>
<path fill="#6E8189" d="M41.245,45.227c1.151-1.156,5.208-0.885,6.684,3.537C44.838,46.287,39.409,47.064,41.245,45.227z"/>
<path fill="#6E8189" d="M29.554,37.895c0.803-0.938,3.87-0.961,5.23,2.285C32.319,38.49,28.275,39.381,29.554,37.895z"/>
<path fill="#6E8189" d="M39.451,40.525c0.853-1.078,4.271-1.24,5.929,2.318C42.559,41.068,38.094,42.24,39.451,40.525z"/>
<path fill="#6E8189" d="M37.11,36.287c0.74-0.988,3.797-1.221,5.374,1.928C39.91,36.695,35.937,37.857,37.11,36.287z"/>
</svg>
