<?xml version="1.0" encoding="utf-8"?>
<!-- Generator: Adobe Illustrator 15.0.0, SVG Export Plug-In . SVG Version: 6.00 Build 0)  -->
<!DOCTYPE svg PUBLIC "-//W3C//DTD SVG 1.1//EN" "http://www.w3.org/Graphics/SVG/1.1/DTD/svg11.dtd" [
	<!ENTITY ns_flows "http://ns.adobe.com/Flows/1.0/">
	<!ENTITY ns_extend "http://ns.adobe.com/Extensibility/1.0/">
	<!ENTITY ns_ai "http://ns.adobe.com/AdobeIllustrator/10.0/">
	<!ENTITY ns_graphs "http://ns.adobe.com/Graphs/1.0/">
]>
<svg version="1.1" id="Layer_1" xmlns:x="&ns_extend;" xmlns:i="&ns_ai;" xmlns:graph="&ns_graphs;"
	 xmlns="http://www.w3.org/2000/svg" xmlns:xlink="http://www.w3.org/1999/xlink" xmlns:a="http://ns.adobe.com/AdobeSVGViewerExtensions/3.0/"
	 x="0px" y="0px" width="64px" height="64px" viewBox="0 0 64 64" enable-background="new 0 0 64 64" xml:space="preserve">
<path fill="#018BC9" d="M38.143,26.811c2.025-0.435,6.146-1.32,8.172-1.754c1.36-0.293,1.836,1.867,0.477,2.159
	c-1.889,0.404-6.823,1.464-8.174,1.754C37.261,29.261,36.785,27.1,38.143,26.811z"/>
<path fill="#018BC9" d="M40.617,34.881c1.893-0.833,5.744-2.53,7.64-3.363c1.27-0.559,2.182,1.459,0.911,2.018
	c-1.767,0.777-6.379,2.808-7.642,3.363C40.259,37.458,39.347,35.438,40.617,34.881z"/>
<path fill="#018BC9" d="M43.515,41.052c2.053-0.296,6.225-0.897,8.277-1.192c1.375-0.198,1.7,1.988,0.323,2.187
	c-1.912,0.274-6.908,0.995-8.277,1.192C42.465,43.437,42.142,41.248,43.515,41.052z"/>
<path fill="#018BC9" d="M43.318,45.932c1.812,0.998,5.491,3.029,7.303,4.028c1.214,0.67,0.123,2.6-1.09,1.929
	c-1.688-0.931-6.097-3.362-7.305-4.028C41.016,47.191,42.106,45.262,43.318,45.932z"/>
<path fill="#018BC9" d="M39.752,50.239c1.082,1.749,3.278,5.303,4.359,7.051c0.725,1.172-1.185,2.325-1.908,1.152
	c-1.008-1.629-3.64-5.885-4.359-7.051C37.119,50.221,39.029,49.068,39.752,50.239z"/>
<path fill="#018BC9" d="M34.237,52.634c0.252,2.034,0.763,6.168,1.014,8.201c0.167,1.362-2.054,1.63-2.221,0.267
	c-0.235-1.894-0.845-6.844-1.013-8.199C31.851,51.539,34.071,51.271,34.237,52.634z"/>
<path fill="#018BC9" d="M28.563,52.541c-0.771,1.903-2.336,5.769-3.106,7.671c-0.518,1.275-2.595,0.454-2.077-0.82
	c0.717-1.773,2.593-6.401,3.107-7.67C27.003,50.448,29.081,51.268,28.563,52.541z"/>
<path fill="#018BC9" d="M24.025,49.772c-1.691,1.189-5.125,3.602-6.814,4.79c-1.134,0.796-2.431-1.005-1.298-1.802
	c1.574-1.107,5.689-3.996,6.815-4.787C23.861,47.179,25.159,48.979,24.025,49.772z"/>
<path fill="#018BC9" d="M21.346,44.495c-2.032,0.414-6.16,1.253-8.191,1.666c-1.361,0.275-1.813-1.888-0.45-2.165
	c1.893-0.386,6.836-1.388,8.191-1.663C22.257,42.057,22.708,44.222,21.346,44.495z"/>
<path fill="#018BC9" d="M20.431,37.43c-2.077,0.046-6.29,0.139-8.363,0.186c-1.39,0.03-1.439-2.179-0.05-2.209
	c1.934-0.044,6.978-0.153,8.361-0.186C21.77,35.192,21.818,37.401,20.431,37.43z"/>
<path fill="#018BC9" d="M20.684,30.439c-2.052-0.324-6.211-0.983-8.26-1.306c-1.373-0.217-1.019-2.399,0.354-2.182
	c1.91,0.299,6.891,1.091,8.26,1.306C22.409,28.475,22.055,30.659,20.684,30.439z"/>
<path fill="#018BC9" d="M22.242,23.88c-1.926-0.772-5.828-2.341-7.75-3.111c-1.287-0.517-0.444-2.564,0.844-2.046
	c1.791,0.716,6.464,2.597,7.747,3.11C24.37,22.352,23.527,24.4,22.242,23.88z"/>
<path fill="#018BC9" d="M25.316,17.989c-1.626-1.276-4.924-3.867-6.548-5.141c-1.089-0.854,0.305-2.584,1.392-1.729
	c1.516,1.186,5.463,4.29,6.548,5.14C27.795,17.114,26.402,18.844,25.316,17.989z"/>
<path fill="#018BC9" d="M29.878,13.435c-1.068-1.761-3.23-5.332-4.296-7.089c-0.714-1.179,1.206-2.313,1.92-1.135
	c0.994,1.637,3.582,5.915,4.294,7.087C32.508,13.479,30.588,14.614,29.878,13.435z"/>
<path fill="#018BC9" d="M34.735,11.252c0.066-2.053,0.203-6.211,0.269-8.259c0.045-1.372,2.28-1.3,2.235,0.072
	c-0.06,1.907-0.226,6.888-0.269,8.255C36.924,12.694,34.688,12.624,34.735,11.252z"/>
<path fill="#018BC9" d="M36.813,11.248c2.052-0.337,6.207-1.015,8.254-1.351c1.371-0.224,1.735,1.956,0.363,2.18
	c-1.905,0.315-6.884,1.125-8.25,1.349C35.809,13.647,35.443,11.467,36.813,11.248z"/>
<path fill="#018BC9" d="M37.395,18.338c2.078-0.066,6.287-0.193,8.359-0.261c1.391-0.041,1.459,2.167,0.069,2.209
	c-1.932,0.064-6.973,0.215-8.356,0.259C36.076,20.586,36.005,18.378,37.395,18.338z"/>
<path fill="#018BC9" d="M38.142,26.81c2.032-0.437,6.148-1.317,8.175-1.755c1.358-0.291,1.832,1.869,0.473,2.159
	c-1.887,0.409-6.817,1.462-8.171,1.754C37.259,29.257,36.783,27.098,38.142,26.81z"/>
<linearGradient id="SVGID_1_" gradientUnits="userSpaceOnUse" x1="189.2627" y1="375.8027" x2="189.2627" y2="358.8926" gradientTransform="matrix(-1.2003 0 0 2.9474 259.1757 -1050.7064)">
	<stop  offset="0" style="stop-color:#01B0FF"/>
	<stop  offset="1" style="stop-color:#45DFFF"/>
	<a:midPointStop  offset="0" style="stop-color:#01B0FF"/>
	<a:midPointStop  offset="0.5" style="stop-color:#01B0FF"/>
	<a:midPointStop  offset="1" style="stop-color:#45DFFF"/>
</linearGradient>
<path fill="url(#SVGID_1_)" d="M16.658,42.497c3.607,25.765,39.242,12.669,29.538-5.558c-6.549-12.301-3.733-18.832-5.338-26.336
	C38.871,1.3,12.094,9.915,16.658,42.497z"/>
<path fill="#00A4ED" d="M35.671,9.298c1.136,0,2.547,0.272,2.823,1.565c0.475,2.223,0.53,4.452,0.589,6.813
	c0.134,5.414,0.286,11.551,5.057,20.513c1.832,3.441,1.849,6.847,0.048,9.847c-2.356,3.924-7.584,6.665-12.713,6.665
	c-3.236,0-10.932-1.211-12.502-12.425c-2.108-15.048,2.911-23.429,6.091-27.084C28.847,10.842,33.143,9.298,35.671,9.298
	 M35.671,6.767c-8.253,0-22.676,11.088-19.205,35.862c1.467,10.473,8.159,14.604,15.009,14.604c10.216,0,20.781-9.186,14.899-20.232
	c-6.631-12.456-3.78-19.067-5.404-26.667C40.468,7.989,38.408,6.767,35.671,6.767L35.671,6.767z"/>
<path fill="#82E8FF" d="M40.734,45.516c0,2.667-4,2.667-4,0S40.734,42.849,40.734,45.516z"/>
<path fill="#82E8FF" d="M32.222,45.516c0,4.167-6.25,4.167-6.25,0S32.222,41.349,32.222,45.516z"/>
<path fill="#82E8FF" d="M36.734,36.418c0,2.667-4,2.667-4,0S36.734,33.751,36.734,36.418z"/>
<path fill="#82E8FF" d="M35.333,22.005c0,2.667-4,2.667-4,0S35.333,19.338,35.333,22.005z"/>
<path fill="#82E8FF" d="M31.478,16.39c0,1.877-2.814,1.877-2.814,0S31.478,14.513,31.478,16.39z"/>
<path fill="#82E8FF" d="M29.892,25.792c0,4.112-6.168,4.112-6.168,0S29.892,21.68,29.892,25.792z"/>
</svg>
