<?xml version="1.0" encoding="utf-8"?>
<!-- Generator: Adobe Illustrator 15.0.0, SVG Export Plug-In . SVG Version: 6.00 Build 0)  -->
<!DOCTYPE svg PUBLIC "-//W3C//DTD SVG 1.1//EN" "http://www.w3.org/Graphics/SVG/1.1/DTD/svg11.dtd" [
	<!ENTITY ns_flows "http://ns.adobe.com/Flows/1.0/">
	<!ENTITY ns_extend "http://ns.adobe.com/Extensibility/1.0/">
	<!ENTITY ns_ai "http://ns.adobe.com/AdobeIllustrator/10.0/">
	<!ENTITY ns_graphs "http://ns.adobe.com/Graphs/1.0/">
]>
<svg version="1.1" id="Layer_1" xmlns:x="&ns_extend;" xmlns:i="&ns_ai;" xmlns:graph="&ns_graphs;"
	 xmlns="http://www.w3.org/2000/svg" xmlns:xlink="http://www.w3.org/1999/xlink" xmlns:a="http://ns.adobe.com/AdobeSVGViewerExtensions/3.0/"
	 x="0px" y="0px" width="64px" height="64px" viewBox="0 0 64 64" enable-background="new 0 0 64 64" xml:space="preserve">
<path fill="#E6B045" d="M12.137,33.464c-6.642-1.199-1.454,17.375,3.745,12.252C18.291,43.341,15.243,34.025,12.137,33.464z"/>
<path fill="#E6B045" d="M51.864,33.464c-3.107,0.562-6.155,9.877-3.745,12.252C53.32,50.839,58.503,32.265,51.864,33.464z"/>
<path fill="#FFCC66" d="M32,11.687c-13.734,0-20.352,10.392-19.522,24.839c0.166,2.906,1.967,12.39,3.668,15.789h31.709
	c1.702-3.399,3.503-12.883,3.668-15.789C52.353,22.078,45.736,11.687,32,11.687z"/>
<polygon fill="#6E8189" points="62,62 56.5,62 56.5,59 59,59 59,56.5 62,56.5 "/>
<path fill="#6E8189" d="M49.5,62h-7v-3h7V62z M35.5,62h-7v-3h7V62z M21.5,62h-7v-3h7V62z"/>
<polygon fill="#6E8189" points="7.5,62 2,62 2,56.5 5,56.5 5,59 7.5,59 "/>
<path fill="#6E8189" d="M5,49.5H2v-7h3V49.5z M5,35.5H2v-7h3V35.5z M5,21.5H2v-7h3V21.5z"/>
<polygon fill="#6E8189" points="5,7.5 2,7.5 2,2 7.5,2 7.5,5 5,5 "/>
<path fill="#6E8189" d="M49.5,5h-7V2h7V5z M35.5,5h-7V2h7V5z M21.5,5h-7V2h7V5z"/>
<polygon fill="#6E8189" points="62,7.5 59,7.5 59,5 56.5,5 56.5,2 62,2 "/>
<path fill="#6E8189" d="M62,49.5h-3v-7h3V49.5z M62,35.5h-3v-7h3V35.5z M62,21.5h-3v-7h3V21.5z"/>
</svg>
