<?xml version="1.0" encoding="utf-8"?>
<!-- Generator: Adobe Illustrator 15.0.0, SVG Export Plug-In . SVG Version: 6.00 Build 0)  -->
<!DOCTYPE svg PUBLIC "-//W3C//DTD SVG 1.1//EN" "http://www.w3.org/Graphics/SVG/1.1/DTD/svg11.dtd">
<svg version="1.1" id="Layer_1" xmlns="http://www.w3.org/2000/svg" xmlns:xlink="http://www.w3.org/1999/xlink" x="0px" y="0px"
	 width="64px" height="64px" viewBox="0 0 64 64" enable-background="new 0 0 64 64" xml:space="preserve">
<path fill="#7AB51D" d="M62,62H2c0,0,7.186-26.025,13.045-30.104c5.063-3.523,29.371-3.811,33.908,0C54.445,36.506,62,62,62,62z"/>
<path fill="#297124" d="M54.641,62H9.375c0,0,1.439-21.463,6.738-25.09c7.33-5.021,24.963-5.662,31.791,0
	C52.834,40.998,54.641,62,54.641,62z"/>
<path fill="#302C3B" d="M59.893,45.979c-1.21-4.083-10.149-12.709-11.96-14.229l-15.939-5.086l-15.938,5.086
	c-1.81,1.52-10.751,10.146-11.961,14.229C3.257,48.804,7.668,52.7,16.222,59.318c3.973-1.218,1.895-4.535,1.895-4.535
	c-3.12-2.003-5.101-5.429-7.863-8.491c1.22-0.188,7.858-6.813,8.384-6.313c1.738,1.652,4.657,6.75,3.147,15.188
	c0.877,5.875,19.541,5.875,20.418,0c-1.51-8.438,1.409-13.535,3.147-15.188c0.526-0.5,7.164,6.125,8.384,6.313
	c-2.763,3.063-4.743,6.488-7.863,8.491c0,0-2.078,3.317,1.895,4.535C56.318,52.7,60.729,48.804,59.893,45.979z"/>
<path fill="#1A1626" d="M41.938,56.395c-3.515,3.775-16.365,3.774-19.88,0L21.515,62h20.97L41.938,56.395z"/>
<path fill="#FDCA47" d="M18.116,54.783c2.076,0.374,2.473-0.961,3.862-0.473c0,0,0.446,0.338,0.536,1.418
	c0.087,1.029,0.664,1.822,2.681,3.094c1.328,0.837,0.223,2.604-1,2.021C23.517,62.009,21.799,62,21.502,62
	c-1.359,0-3.746-1.859-5.28-2.682C18.111,56.927,18.116,54.783,18.116,54.783z"/>
<path fill="#FDCA47" d="M45.87,54.783c-2.076,0.374-2.473-0.961-3.862-0.473c0,0-0.446,0.338-0.536,1.418
	c-0.087,1.029-0.664,1.822-2.681,3.094c-1.328,0.837-0.223,2.604,1,2.021C40.47,62.009,42.188,62,42.484,62
	c1.359,0,3.746-1.859,5.28-2.682C45.876,56.927,45.87,54.783,45.87,54.783z"/>
<path fill="#E6A400" d="M27.937,28.176c0,4.269,7.835,4.269,7.834,0c0-2.603,0.001-6.905,0.001-6.905h-7.835
	C27.937,21.271,27.937,24.816,27.937,28.176z"/>
<path fill="#7AB51D" d="M22.619,33.649c3.098-1.856,3.166-5.013,3.166-5.013s-1.973-0.898-3.453,0.463c0,0-2.373-0.773-3.086,0.562
	c-2.214-0.633-3.542,1.041-3.245,2.105C18.716,30.741,21.174,34.134,22.619,33.649z"/>
<path fill="#297124" d="M16.001,31.767c0.872-2.31,5.729,2.109,7.057,1.605C21.188,35.09,18.923,31.598,16.001,31.767z"/>
<path fill="#297124" d="M19.246,29.661c1.632,0.404,2.385,1.899,2.381,1.724c-0.05-0.948-1.755-1.786-0.685-2.501
	C20.942,28.884,19.512,28.784,19.246,29.661z"/>
<path fill="#297124" d="M22.332,29.1c1.186,0.922,0.999,2.248,1.059,2.082c0.314-0.944-0.308-2.385,0.376-2.786
	C23.767,28.396,22.662,28.542,22.332,29.1z"/>
<path fill="#D9E617" d="M24.527,33.563c0.079,1.899-3.886,2.206-3.962,0.307C20.489,32.107,24.455,31.803,24.527,33.563z"/>
<path fill="#7AB51D" d="M41.381,33.649c-3.098-1.856-3.166-5.013-3.166-5.013s1.973-0.898,3.453,0.463c0,0,2.373-0.773,3.086,0.562
	c2.214-0.633,3.542,1.041,3.245,2.105C45.284,30.741,42.826,34.134,41.381,33.649z"/>
<path fill="#297124" d="M47.999,31.767c-0.872-2.31-5.729,2.109-7.057,1.605C42.813,35.09,45.077,31.598,47.999,31.767z"/>
<path fill="#297124" d="M44.754,29.661c-1.631,0.404-2.385,1.899-2.381,1.724c0.05-0.948,1.755-1.786,0.685-2.501
	C43.058,28.884,44.489,28.784,44.754,29.661z"/>
<path fill="#297124" d="M41.668,29.1c-1.186,0.922-0.999,2.248-1.059,2.082c-0.314-0.944,0.308-2.385-0.376-2.786
	C40.233,28.396,41.338,28.542,41.668,29.1z"/>
<path fill="#D9E617" d="M39.473,33.563c-0.079,1.899,3.886,2.206,3.962,0.307C43.511,32.107,39.546,31.803,39.473,33.563z"/>
<path fill="#7AB51D" d="M37.297,35.359c-2.961-0.48-7.648-0.48-10.609,0c-0.674,2.775-6.688,3.793-6.688,3.793L31.993,51
	l11.994-11.848C43.987,39.152,37.971,38.135,37.297,35.359z"/>
<path fill="#297124" d="M29.843,47.737l-4.98-9.115l3.262-1.867l3.871,7.063l3.871-7.063l3.258,1.867l-4.979,9.115H29.843z"/>
<path fill="#297124" d="M22.654,14.74c-3.388-0.647-0.742,9.396,1.91,6.625C25.794,20.082,24.238,15.044,22.654,14.74z"/>
<path fill="#297124" d="M41.055,14.74c-1.585,0.304-3.14,5.342-1.909,6.625C41.797,24.136,44.44,14.093,41.055,14.74z"/>
<path fill="#FDCA47" d="M31.854,4c-6.771,0-10.034,5.516-9.626,12.606c0.083,1.426,0.479,3.482,0.969,5.244
	c1.017,3.662,6.376,7.35,8.657,7.35s7.642-3.688,8.657-7.35c0.489-1.762,0.886-3.818,0.97-5.244C41.888,9.516,38.627,4,31.854,4z"/>
<path fill="#297124" d="M31.854,4c-6.939,0-10.283,5.123-9.865,12.246c0.356,6.02,2.134,7.562,2.134,7.562
	c-0.444-4.254,5.847-6.567,7.731-6.567c1.883,0,8.176,2.313,7.729,6.567c0,0,1.77-1.525,2.136-7.562C42.138,9.123,38.794,4,31.854,4
	z"/>
<path fill="#302C3B" d="M31.87,14.899c-2.492,0.004-7.548-4.07-9.93,0.881c1.037,9.468,7.385,2.115,9.93,2.118
	c2.538,0.004,8.945,7.434,9.896-2.118C39.385,10.827,34.355,14.898,31.87,14.899z"/>
<path fill="#F5F5F5" d="M38.945,16.404c-0.729,1.864-4.34,1.923-5.104,0.732C34.168,15.086,38.299,14.545,38.945,16.404z"/>
<path fill="#F5F5F5" d="M24.765,16.404c0.729,1.864,4.341,1.923,5.104,0.732C29.541,15.086,25.412,14.544,24.765,16.404z"/>
<path fill="#E6A400" d="M33.955,20.875c0,1.367-4.199,1.367-4.199,0C29.756,20.562,33.955,20.562,33.955,20.875z"/>
<path fill="#45332C" d="M35.753,23.943c-0.425-0.682-1.462-1.14-3.897-1.14c-2.437,0-3.472,0.458-3.898,1.14
	c-0.229,0.365,0.097,0.95,0.097,0.95c0.408,0.738,0.351,0.95,3.803,0.95c3.445,0,3.393-0.212,3.8-0.95
	C35.656,24.894,35.981,24.309,35.753,23.943z"/>
<path fill="#FFFFFF" d="M34.892,23.941c0.02-0.104-0.033-0.23-0.115-0.284c0,0-0.742-0.474-2.921-0.474
	c-2.18,0-2.921,0.474-2.921,0.474c-0.082,0.054-0.135,0.181-0.116,0.284l0.038,0.196c0.02,0.103,0.113,0.187,0.21,0.187h5.576
	c0.097,0,0.193-0.084,0.211-0.187L34.892,23.941z"/>
<path fill="#FFFFFF" d="M31.855,25.464c1.192,0,2.895,0,2.849-0.39c-0.007-0.069-0.026-0.152-0.053-0.242
	c-0.03-0.101-0.053-0.127-0.259-0.127c-0.448,0-4.73,0-5.074,0c-0.206,0-0.229,0.026-0.259,0.127
	c-0.025,0.09-0.046,0.173-0.055,0.242C28.96,25.464,30.662,25.464,31.855,25.464z"/>
</svg>
