<?xml version="1.0" encoding="utf-8"?>
<!-- Generator: Adobe Illustrator 15.0.0, SVG Export Plug-In . SVG Version: 6.00 Build 0)  -->
<!DOCTYPE svg PUBLIC "-//W3C//DTD SVG 1.1//EN" "http://www.w3.org/Graphics/SVG/1.1/DTD/svg11.dtd" [
	<!ENTITY ns_flows "http://ns.adobe.com/Flows/1.0/">
	<!ENTITY ns_extend "http://ns.adobe.com/Extensibility/1.0/">
	<!ENTITY ns_ai "http://ns.adobe.com/AdobeIllustrator/10.0/">
	<!ENTITY ns_graphs "http://ns.adobe.com/Graphs/1.0/">
]>
<svg version="1.1" id="Layer_1" xmlns:x="&ns_extend;" xmlns:i="&ns_ai;" xmlns:graph="&ns_graphs;"
	 xmlns="http://www.w3.org/2000/svg" xmlns:xlink="http://www.w3.org/1999/xlink" xmlns:a="http://ns.adobe.com/AdobeSVGViewerExtensions/3.0/"
	 x="0px" y="0px" width="64px" height="64px" viewBox="0 0 64 64" enable-background="new 0 0 64 64" xml:space="preserve">
<path fill="#594640" d="M56.457,37.057c0.769-0.926,0.707-2.385-0.103-3.27c0.852-1.197,0.438-3.111-1.036-3.705
	c0.495-1.213-0.006-2.816-1.396-3.289c0.384-1.209-0.302-2.654-1.536-3.1c0.365-1.318-0.518-2.875-1.949-3.125
	c0.282-1.445-0.985-2.91-2.48-2.922c-0.181-1.322-1.567-2.346-2.923-2.139c-0.248-1.535-2.106-2.693-3.661-1.842
	c-0.419-1.365-2.136-2.094-3.454-1.539c-0.76-1.209-2.619-1.553-3.76-0.646c-0.91-1.531-3.408-1.531-4.318,0
	c-1.141-0.906-3-0.563-3.76,0.646c-1.318-0.555-3.035,0.174-3.454,1.539c-1.555-0.852-3.413,0.307-3.661,1.842
	c-1.356-0.207-2.742,0.816-2.923,2.139c-1.495,0.012-2.763,1.477-2.48,2.922c-1.432,0.25-2.314,1.807-1.949,3.125
	c-1.234,0.445-1.92,1.891-1.536,3.1c-1.39,0.473-1.891,2.076-1.396,3.289c-1.475,0.594-1.887,2.508-1.035,3.705
	c-0.81,0.885-0.87,2.344-0.103,3.27c-0.906,1.15-0.715,3.086,0.85,3.768c-0.783,1.121-0.461,2.861,0.774,3.563
	c-0.801,1.387,0.066,3.414,1.775,3.654c-0.314,1.461,0.941,3.033,2.509,2.994c0.62,1.063,2.925,1.561,4.083,1.08
	c0.449,1.287,2.521,1.771,3.859,1.461c-2.086-2.016-3.792-4.352-4.45-6.68c-0.851-3.012-1.541-6.525-1.686-8.961
	c-0.078-1.338-0.074-2.637,0.002-3.9c0.255-0.586,0.452-1.184,0.366-1.469c1.261,0.02,2.989-1.537,2.693-2.742
	c0.618,1.055,3.727,0.18,3.628-1.428c1.927,0.912,3.985-0.453,3.753-1.619c0.754,0.85,3.51,0.883,3.972-0.891
	c0.688,1.357,3.918,1.332,4.655,0c0.468,1.771,3.143,1.975,3.971,0.883c-0.232,1.17,1.828,2.531,3.754,1.623
	c-0.1,1.605,2.586,2.314,3.627,1.426c-0.293,1.211,1.433,2.762,2.693,2.742c-0.085,0.287,0.113,0.883,0.369,1.473
	c0.076,1.264,0.081,2.564,0.003,3.902c-0.146,2.436-0.837,5.949-1.688,8.961c-0.658,2.328-2.365,4.664-4.451,6.678
	c1.339,0.313,3.41-0.172,3.86-1.459c1.158,0.48,3.463-0.018,4.083-1.08c1.567,0.039,2.823-1.533,2.509-2.994
	c1.708-0.24,2.576-2.268,1.775-3.654c1.236-0.701,1.558-2.441,0.774-3.563C57.172,40.143,57.363,38.207,56.457,37.057z"/>
<path fill="#45332C" d="M41.9,19.723c1.439,0.043,2.768,1.271,2.569,2.686c1.36-1.939-0.248-3.855-2.097-3.822
	c0.056-2.072-2.854-3.453-4.722-1.326C39.557,16.369,41.892,17.838,41.9,19.723z"/>
<path fill="#45332C" d="M50.902,32.381c1.15,0.85,1.521,2.605,0.529,3.65c2.249-0.818,2.054-3.297,0.521-4.311
	c1.257-1.666-0.315-4.438-3.087-3.754C50.945,28.316,51.997,30.834,50.902,32.381z"/>
<path fill="#45332C" d="M29.229,16.863c0.741-1.213,2.483-1.752,3.643-0.893c-1.059-2.113-3.547-1.668-4.42-0.068
	c-1.813-1.059-4.461,0.76-3.486,3.398C25.108,17.234,27.553,15.949,29.229,16.863z"/>
<path fill="#45332C" d="M19.072,24.818c0.291-1.385,1.751-2.463,3.135-2.027c-1.711-1.648-3.909-0.42-4.192,1.375
	c-2.067-0.408-3.952,2.168-2.14,4.342C15.31,26.512,17.182,24.504,19.072,24.818z"/>
<path fill="#45332C" d="M11.963,33.213c-0.404-1.104,0.152-2.488,1.323-2.77c-1.938-0.438-2.951,1.367-2.36,2.758
	c-1.642,0.592-1.836,3.217,0.404,3.982C10.05,36.012,10.487,33.795,11.963,33.213z"/>
<path fill="#45332C" d="M36.303,22.291c0.032-2.338-3.369-3.115-4.372-0.998C33.273,20.666,35.372,21.146,36.303,22.291z"/>
<path fill="#45332C" d="M32.604,21.789c-0.674-2.238-4.156-1.99-4.476,0.322C29.223,21.123,31.371,20.971,32.604,21.789z"/>
<path fill="#45332C" d="M39.323,24.76c0.774-2.211-2.21-3.994-3.836-2.291C36.962,22.289,38.802,23.387,39.323,24.76z"/>
<path fill="#45332C" d="M21.525,18.955c-1.334-1.936-4.576-0.66-4.166,1.639C18.096,19.326,20.096,18.539,21.525,18.955z"/>
<path fill="#45332C" d="M49.769,25.816c1.674-1.662-0.227-4.541-2.443-3.699C48.733,22.58,49.908,24.357,49.769,25.816z"/>
<path fill="#45332C" d="M45.642,25.641c1.673-1.662-0.228-4.541-2.444-3.699C44.605,22.406,45.78,24.182,45.642,25.641z"/>
<path fill="#45332C" d="M12.608,43.338c-1.422,1.873,0.866,4.463,2.942,3.33C14.09,46.398,12.679,44.801,12.608,43.338z"/>
<path fill="#45332C" d="M11.215,40.178c-1.422,1.873,0.866,4.463,2.942,3.328C12.696,43.238,11.285,41.639,11.215,40.178z"/>
<path fill="#45332C" d="M48.524,46.535c2.213,0.867,4.168-1.977,2.515-3.652C51.153,44.336,49.947,46.092,48.524,46.535z"/>
<path fill="#45332C" d="M50.09,42.926c2.212,0.865,4.168-1.979,2.514-3.654C52.718,40.727,51.513,42.48,50.09,42.926z"/>
<polygon fill="#6E8189" points="62,62 56.5,62 56.5,59 59,59 59,56.5 62,56.5 "/>
<path fill="#6E8189" d="M49.5,62h-7v-3h7V62z M35.5,62h-7v-3h7V62z M21.5,62h-7v-3h7V62z"/>
<polygon fill="#6E8189" points="7.5,62 2,62 2,56.5 5,56.5 5,59 7.5,59 "/>
<path fill="#6E8189" d="M5,49.5H2v-7h3V49.5z M5,35.5H2v-7h3V35.5z M5,21.5H2v-7h3V21.5z"/>
<polygon fill="#6E8189" points="5,7.5 2,7.5 2,2 7.5,2 7.5,5 5,5 "/>
<path fill="#6E8189" d="M49.5,5h-7V2h7V5z M35.5,5h-7V2h7V5z M21.5,5h-7V2h7V5z"/>
<polygon fill="#6E8189" points="62,7.5 59,7.5 59,5 56.5,5 56.5,2 62,2 "/>
<path fill="#6E8189" d="M62,49.5h-3v-7h3V49.5z M62,35.5h-3v-7h3V35.5z M62,21.5h-3v-7h3V21.5z"/>
</svg>
