<?xml version="1.0" encoding="utf-8"?>
<!-- Generator: Adobe Illustrator 15.0.0, SVG Export Plug-In . SVG Version: 6.00 Build 0)  -->
<!DOCTYPE svg PUBLIC "-//W3C//DTD SVG 1.1//EN" "http://www.w3.org/Graphics/SVG/1.1/DTD/svg11.dtd" [
	<!ENTITY ns_flows "http://ns.adobe.com/Flows/1.0/">
	<!ENTITY ns_extend "http://ns.adobe.com/Extensibility/1.0/">
	<!ENTITY ns_ai "http://ns.adobe.com/AdobeIllustrator/10.0/">
	<!ENTITY ns_graphs "http://ns.adobe.com/Graphs/1.0/">
]>
<svg version="1.1" id="Layer_1" xmlns:x="&ns_extend;" xmlns:i="&ns_ai;" xmlns:graph="&ns_graphs;"
	 xmlns="http://www.w3.org/2000/svg" xmlns:xlink="http://www.w3.org/1999/xlink" xmlns:a="http://ns.adobe.com/AdobeSVGViewerExtensions/3.0/"
	 x="0px" y="0px" width="64px" height="64px" viewBox="0 0 64 64" enable-background="new 0 0 64 64" xml:space="preserve">
<path fill="#7AB51D" d="M62,61.001H2c0,0,7.186-26.027,13.045-30.105c5.063-3.523,29.371-3.811,33.908,0
	C54.445,35.505,62,61.001,62,61.001z"/>
<path fill="#297124" d="M54.641,61.001H9.375c0,0,1.439-21.465,6.738-25.092c7.33-5.02,24.963-5.662,31.791,0
	C52.834,39.997,54.641,61.001,54.641,61.001z"/>
<path fill="#302C3B" d="M59.893,44.979c-1.211-4.084-10.15-12.709-11.961-14.229l-15.939-5.086l-15.938,5.086
	c-1.811,1.52-10.752,10.145-11.961,14.229c-0.838,2.824,3.574,6.721,12.127,13.34c3.973-1.219,1.895-4.535,1.895-4.535
	c-3.119-2.004-5.1-5.43-7.863-8.492c1.221-0.188,7.859-6.813,8.385-6.313c1.738,1.652,4.656,6.75,3.146,15.188
	c0.877,5.875,19.541,5.875,20.418,0c-1.51-8.438,1.41-13.535,3.148-15.188c0.525-0.5,7.164,6.125,8.383,6.313
	c-2.762,3.063-4.742,6.488-7.863,8.492c0,0-2.078,3.316,1.895,4.535C56.318,51.7,60.729,47.804,59.893,44.979z"/>
<path fill="#1A1626" d="M41.938,55.396c-3.514,3.775-16.365,3.773-19.879,0l-0.545,5.605h20.971L41.938,55.396z"/>
<path fill="#B88A6F" d="M18.115,53.784c2.076,0.373,2.473-0.961,3.863-0.473c0,0,0.445,0.338,0.535,1.418
	c0.088,1.029,0.664,1.822,2.682,3.094c1.328,0.836,0.223,2.604-1,2.02c-0.68,1.166-2.396,1.158-2.693,1.158
	c-1.359,0-3.746-1.859-5.281-2.682C18.111,55.927,18.115,53.784,18.115,53.784z"/>
<path fill="#B88A6F" d="M45.869,53.784c-2.076,0.373-2.473-0.961-3.861-0.473c0,0-0.447,0.338-0.537,1.418
	c-0.086,1.029-0.664,1.822-2.68,3.094c-1.328,0.836-0.223,2.604,1,2.02c0.678,1.166,2.396,1.158,2.693,1.158
	c1.359,0,3.746-1.859,5.279-2.682C45.875,55.927,45.869,53.784,45.869,53.784z"/>
<path fill="#80553C" d="M27.936,27.175c0,4.27,7.836,4.27,7.834,0c0-2.602,0.002-6.904,0.002-6.904h-7.836
	C27.936,20.271,27.936,23.815,27.936,27.175z"/>
<path fill="#7AB51D" d="M22.619,32.649c3.098-1.857,3.166-5.014,3.166-5.014s-1.973-0.898-3.453,0.463c0,0-2.373-0.773-3.086,0.563
	c-2.215-0.633-3.543,1.041-3.246,2.105C18.715,29.741,21.174,33.134,22.619,32.649z"/>
<path fill="#297124" d="M16,30.767c0.873-2.311,5.729,2.109,7.057,1.605C21.188,34.089,18.922,30.597,16,30.767z"/>
<path fill="#297124" d="M19.246,28.661c1.631,0.404,2.385,1.898,2.381,1.723c-0.051-0.947-1.756-1.785-0.686-2.5
	C20.941,27.884,19.512,27.784,19.246,28.661z"/>
<path fill="#297124" d="M22.332,28.099c1.186,0.922,0.998,2.248,1.059,2.082c0.314-0.943-0.309-2.385,0.375-2.785
	C23.766,27.396,22.662,27.542,22.332,28.099z"/>
<path fill="#D9E617" d="M24.527,32.562c0.078,1.9-3.887,2.207-3.963,0.307C20.488,31.106,24.455,30.802,24.527,32.562z"/>
<path fill="#7AB51D" d="M41.381,32.649c-3.098-1.857-3.166-5.014-3.166-5.014s1.973-0.898,3.453,0.463c0,0,2.373-0.773,3.086,0.563
	c2.213-0.633,3.541,1.041,3.244,2.105C45.283,29.741,42.826,33.134,41.381,32.649z"/>
<path fill="#297124" d="M47.998,30.767c-0.871-2.311-5.729,2.109-7.057,1.605C42.813,34.089,45.076,30.597,47.998,30.767z"/>
<path fill="#297124" d="M44.754,28.661c-1.631,0.404-2.385,1.898-2.381,1.723c0.049-0.947,1.754-1.785,0.684-2.5
	C43.057,27.884,44.488,27.784,44.754,28.661z"/>
<path fill="#297124" d="M41.668,28.099c-1.186,0.922-1,2.248-1.059,2.082c-0.314-0.943,0.307-2.385-0.377-2.785
	C40.232,27.396,41.338,27.542,41.668,28.099z"/>
<path fill="#D9E617" d="M39.473,32.562c-0.08,1.9,3.885,2.207,3.961,0.307C43.51,31.106,39.545,30.802,39.473,32.562z"/>
<path fill="#7AB51D" d="M37.297,34.358c-2.961-0.48-7.648-0.48-10.609,0c-0.674,2.775-6.689,3.793-6.689,3.793l11.994,11.85
	l11.994-11.85C43.986,38.151,37.971,37.134,37.297,34.358z"/>
<path fill="#297124" d="M29.842,46.737l-4.98-9.115l3.262-1.867l3.871,7.063l3.871-7.063l3.258,1.867l-4.979,9.115H29.842z"/>
<path fill="#297124" d="M22.654,13.739c-3.389-0.646-0.742,9.396,1.91,6.625C25.793,19.081,24.238,14.044,22.654,13.739z"/>
<path fill="#297124" d="M41.055,13.739c-1.586,0.305-3.141,5.342-1.91,6.625C41.797,23.136,44.439,13.093,41.055,13.739z"/>
<path fill="#B88A6F" d="M31.854,2.999c-6.771,0-10.035,5.516-9.627,12.607c0.084,1.426,0.48,3.482,0.969,5.244
	c1.018,3.662,6.377,7.35,8.658,7.35s7.641-3.688,8.656-7.35c0.49-1.762,0.887-3.818,0.971-5.244
	C41.887,8.515,38.627,2.999,31.854,2.999z"/>
<path fill="#297124" d="M31.854,2.999c-6.939,0-10.283,5.123-9.865,12.246c0.357,6.02,2.135,7.563,2.135,7.563
	c-0.445-4.254,5.846-6.568,7.73-6.568c1.883,0,8.176,2.314,7.73,6.568c0,0,1.77-1.525,2.135-7.563
	C42.137,8.122,38.793,2.999,31.854,2.999z"/>
<path fill="#302C3B" d="M31.869,13.899c-2.492,0.004-7.547-4.07-9.93,0.881c1.037,9.467,7.385,2.115,9.93,2.117
	c2.539,0.004,8.945,7.434,9.896-2.117C39.385,9.827,34.355,13.897,31.869,13.899z"/>
<path fill="#F5F5F5" d="M38.945,15.403c-0.73,1.865-4.34,1.924-5.105,0.732C34.168,14.085,38.299,13.544,38.945,15.403z"/>
<path fill="#F5F5F5" d="M24.764,15.403c0.729,1.865,4.342,1.924,5.104,0.732C29.541,14.085,25.412,13.544,24.764,15.403z"/>
<path fill="#80553C" d="M33.955,19.874c0,1.367-4.199,1.367-4.199,0C29.756,19.562,33.955,19.562,33.955,19.874z"/>
<path fill="#45332C" d="M35.752,22.942c-0.424-0.682-1.461-1.139-3.896-1.139c-2.438,0-3.473,0.457-3.898,1.139
	c-0.229,0.365,0.096,0.951,0.096,0.951c0.408,0.738,0.352,0.949,3.803,0.949c3.445,0,3.393-0.211,3.801-0.949
	C35.656,23.894,35.98,23.308,35.752,22.942z"/>
<path fill="#FFFFFF" d="M34.891,22.94c0.02-0.104-0.033-0.23-0.115-0.283c0,0-0.742-0.475-2.92-0.475
	c-2.18,0-2.922,0.475-2.922,0.475c-0.082,0.053-0.135,0.18-0.115,0.283l0.037,0.197c0.02,0.102,0.113,0.186,0.211,0.186h5.576
	c0.096,0,0.193-0.084,0.211-0.186L34.891,22.94z"/>
<path fill="#FFFFFF" d="M31.855,24.464c1.191,0,2.895,0,2.848-0.391c-0.006-0.068-0.025-0.152-0.053-0.242
	c-0.029-0.1-0.053-0.127-0.258-0.127c-0.449,0-4.73,0-5.074,0c-0.207,0-0.229,0.027-0.26,0.127c-0.025,0.09-0.045,0.174-0.055,0.242
	C28.959,24.464,30.662,24.464,31.855,24.464z"/>
</svg>
