<?xml version="1.0" encoding="utf-8"?>
<!-- Generator: Adobe Illustrator 15.0.0, SVG Export Plug-In . SVG Version: 6.00 Build 0)  -->
<!DOCTYPE svg PUBLIC "-//W3C//DTD SVG 1.1//EN" "http://www.w3.org/Graphics/SVG/1.1/DTD/svg11.dtd" [
	<!ENTITY ns_flows "http://ns.adobe.com/Flows/1.0/">
	<!ENTITY ns_extend "http://ns.adobe.com/Extensibility/1.0/">
	<!ENTITY ns_ai "http://ns.adobe.com/AdobeIllustrator/10.0/">
	<!ENTITY ns_graphs "http://ns.adobe.com/Graphs/1.0/">
]>
<svg version="1.1" id="Layer_1" xmlns:x="&ns_extend;" xmlns:i="&ns_ai;" xmlns:graph="&ns_graphs;"
	 xmlns="http://www.w3.org/2000/svg" xmlns:xlink="http://www.w3.org/1999/xlink" xmlns:a="http://ns.adobe.com/AdobeSVGViewerExtensions/3.0/"
	 x="0px" y="0px" width="64px" height="64px" viewBox="0 0 64 64" enable-background="new 0 0 64 64" xml:space="preserve">
<path fill="#7AB51D" d="M62,62H2c0,0,5.186-26.459,11.045-30.605c5.063-3.582,33.371-3.875,37.908,0C56.445,36.082,62,62,62,62z"/>
<path fill="#297124" d="M54.652,62H9.363c0,0-0.561-21.463,4.74-25.09c7.334-5.02,28.979-5.662,35.811,0
	C54.846,40.998,54.652,62,54.652,62z"/>
<path fill="#302C3B" d="M60.08,42.791c-1.037-5.051-4.406-7.232-7.805-9.01c-1.271-2.617-4.088-3.811-7.287-4.113L32,23.666
	l-12.988,6.002c-3.199,0.303-6.016,1.496-7.287,4.113c-3.398,1.777-6.768,3.959-7.805,9.01
	c-7.947,7.256,11.146,16.527,11.146,16.527c4.934-1.217,2.035-4.535,2.035-4.535c-3.352-2.002-2.121-5.594-6.154-7.832
	c2.592,0.545,4.809-3.906,4.809-3.906c1.844,11.42,6.48,6.287,5.875,16.445h20.738c-0.605-10.158,4.031-5.025,5.875-16.445
	c0,0,2.217,4.451,4.809,3.906c-4.033,2.238-2.803,5.83-6.154,7.832c0,0-2.898,3.318,2.035,4.535
	C48.934,59.318,68.027,50.047,60.08,42.791z"/>
<path fill="#1A1626" d="M42.676,56.395c-3.773,3.775-17.578,3.775-21.354,0L20.738,62h22.523L42.676,56.395z"/>
<path fill="#1A1626" d="M12.768,38.479c-3.65,0.84-4.666,4.348-4.191,6.248C9.506,41.67,10.617,39.922,12.768,38.479z"/>
<path fill="#1A1626" d="M16.348,38.988c1.506,5.74,7.641,7.297,10.953,6.525C21.955,44.088,18.889,42.357,16.348,38.988z"/>
<path fill="#1A1626" d="M51.23,38.479c3.652,0.84,4.666,4.348,4.191,6.248C54.492,41.67,53.381,39.922,51.23,38.479z"/>
<path fill="#1A1626" d="M47.65,38.988c-1.506,5.74-7.641,7.297-10.953,6.525C42.045,44.088,45.111,42.357,47.65,38.988z"/>
<path fill="#1A1626" d="M32,33.58c-1.854-2.35-8.441-3.096-10.598-2.617c3.959,0.508,8.682,1.971,10.598,4.754
	c1.916-2.783,6.639-4.246,10.598-4.754C40.439,30.484,33.852,31.23,32,33.58z"/>
<path fill="#B88A6F" d="M46.898,54.783c-2.229,0.375-2.654-0.961-4.148-0.473c0,0-0.477,0.338-0.576,1.418
	c-0.092,1.029-0.711,1.822-2.879,3.094c-1.426,0.838-0.238,2.605,1.074,2.021C41.098,62.01,42.943,62,43.262,62
	c1.461,0,4.023-1.859,5.672-2.682C46.904,56.928,46.898,54.783,46.898,54.783z"/>
<path fill="#B88A6F" d="M17.102,54.783c2.23,0.375,2.656-0.961,4.15-0.473c0,0,0.477,0.338,0.574,1.418
	c0.094,1.029,0.713,1.822,2.879,3.094c1.428,0.838,0.24,2.605-1.072,2.021C22.904,62.01,21.059,62,20.738,62
	c-1.459,0-4.021-1.859-5.672-2.682C17.096,56.928,17.102,54.783,17.102,54.783z"/>
<path fill="#7AB51D" d="M41.563,32.125c-3.67-2.508-3.055-5.615-3.055-5.615s2.801-0.443,4.451,1.221c0,0,3.307-0.229,3.945,1.236
	c3.061-0.129,4.441,1.809,3.813,2.785C47.365,30.143,43.363,32.922,41.563,32.125z"/>
<path fill="#297124" d="M50.717,31.752c-0.637-2.457-8.029,0.793-9.67,0.006C43.131,33.855,46.896,30.938,50.717,31.752z"/>
<path fill="#297124" d="M46.904,28.967c-2.24,0.033-3.57,1.332-3.523,1.16c0.277-0.918,2.713-1.361,1.461-2.299
	C44.842,27.828,46.752,28.049,46.904,28.967z"/>
<path fill="#297124" d="M42.959,27.73c-1.77,0.641-1.82,1.98-1.859,1.805c-0.205-0.996,0.938-2.268,0.125-2.814
	C41.225,26.721,42.648,27.111,42.959,27.73z"/>
<path fill="#D9E617" d="M39.064,31.617c-0.525,1.844,4.637,3.025,5.162,1.18C44.717,31.088,39.555,29.908,39.064,31.617z"/>
<path fill="#7AB51D" d="M22.436,32.125c3.67-2.508,3.057-5.615,3.057-5.615s-2.803-0.443-4.453,1.221c0,0-3.305-0.229-3.945,1.236
	c-3.061-0.129-4.439,1.809-3.811,2.785C16.635,30.143,20.637,32.922,22.436,32.125z"/>
<path fill="#297124" d="M13.283,31.752c0.635-2.457,8.029,0.793,9.668,0.006C20.867,33.855,17.102,30.938,13.283,31.752z"/>
<path fill="#297124" d="M17.094,28.967c2.242,0.033,3.572,1.332,3.525,1.16c-0.277-0.918-2.713-1.361-1.461-2.299
	C19.158,27.828,17.248,28.049,17.094,28.967z"/>
<path fill="#297124" d="M21.039,27.73c1.771,0.641,1.822,1.98,1.861,1.805c0.205-0.996-0.938-2.268-0.125-2.814
	C22.775,26.721,21.352,27.111,21.039,27.73z"/>
<path fill="#D9E617" d="M24.934,31.617c0.527,1.844-4.635,3.025-5.16,1.18C19.281,31.088,24.443,29.908,24.934,31.617z"/>
<path fill="#7AB51D" d="M37.307,35.361c-2.963-0.48-7.652-0.48-10.615,0C26.018,38.135,20,39.154,20,39.154L32,51l12-11.846
	C44,39.154,37.98,38.135,37.307,35.361z"/>
<path fill="#297124" d="M29.848,47.738l-4.98-9.115l3.262-1.867L32,43.818l3.871-7.063l3.258,1.867l-4.979,9.115H29.848z"/>
<path fill="#297124" d="M21.777,13.934c-3.764-0.719-0.824,10.439,2.123,7.361C25.266,19.869,23.537,14.271,21.777,13.934z"/>
<path fill="#297124" d="M42.223,13.934c-1.762,0.338-3.488,5.936-2.121,7.361C43.047,24.373,45.984,13.215,42.223,13.934z"/>
<path fill="#B88A6F" d="M32,2.002c-7.523,0-11.148,5.691-10.695,13.607c0.092,1.592,1.078,6.787,2.01,8.648
	c0.955,1.906,4.145,4.846,6.1,5.455c1.234,0.383,3.938,0.383,5.172,0c1.955-0.609,5.146-3.549,6.1-5.455
	c0.932-1.861,1.918-7.057,2.01-8.648C43.15,7.693,39.525,2.002,32,2.002z"/>
<path fill="#297124" d="M32,2c-7.711,0-11.426,5.691-10.961,13.607c0.094,1.592,1.205,6.537,2.158,8.4
	c-0.494-4.727,6.709-7.297,8.803-7.297c2.092,0,9.297,2.57,8.801,7.297c0.955-1.863,2.064-6.809,2.16-8.4
	C43.426,7.691,39.711,2,32,2z"/>
<path fill="#302C3B" d="M32.018,14.111c-2.77,0.004-8.387-4.523-11.033,0.979c1.152,10.52,8.205,2.35,11.033,2.354
	c2.82,0.004,9.939,8.26,10.996-2.354C40.367,9.586,34.779,14.109,32.018,14.111z"/>
<path fill="#F5F5F5" d="M39.879,15.783c-0.811,2.07-4.822,2.137-5.672,0.813C34.57,14.318,39.16,13.717,39.879,15.783z"/>
<path fill="#F5F5F5" d="M24.121,15.783c0.811,2.07,4.824,2.137,5.672,0.813C29.43,14.318,24.842,13.715,24.121,15.783z"/>
<path fill="#80553C" d="M34.334,20.75c0,1.52-4.666,1.52-4.666,0C29.668,20.402,34.334,20.402,34.334,20.75z"/>
<path fill="#45332C" d="M36.332,24.16c-0.473-0.758-1.625-1.268-4.332-1.268s-3.857,0.51-4.332,1.268
	c-0.252,0.404,0.109,1.055,0.109,1.055c0.453,0.82,0.389,1.057,4.225,1.057c3.828,0,3.77-0.236,4.223-1.057
	C36.225,25.215,36.586,24.564,36.332,24.16z"/>
<path fill="#FFFFFF" d="M35.375,24.156c0.021-0.113-0.037-0.256-0.129-0.314c0,0-0.824-0.527-3.246-0.527s-3.244,0.527-3.244,0.527
	c-0.092,0.059-0.15,0.201-0.129,0.314l0.041,0.219c0.021,0.113,0.127,0.207,0.234,0.207h6.195c0.107,0,0.215-0.094,0.234-0.207
	L35.375,24.156z"/>
<path fill="#FFFFFF" d="M32,25.85c1.326,0,3.217,0,3.166-0.434c-0.008-0.078-0.029-0.17-0.059-0.27
	c-0.033-0.111-0.059-0.141-0.287-0.141c-0.498,0-5.256,0-5.639,0c-0.229,0-0.254,0.029-0.287,0.141
	c-0.029,0.1-0.051,0.191-0.061,0.27C28.783,25.85,30.674,25.85,32,25.85z"/>
</svg>
