<?xml version="1.0" encoding="utf-8"?>
<!-- Generator: Adobe Illustrator 15.0.0, SVG Export Plug-In . SVG Version: 6.00 Build 0)  -->
<!DOCTYPE svg PUBLIC "-//W3C//DTD SVG 1.1//EN" "http://www.w3.org/Graphics/SVG/1.1/DTD/svg11.dtd" [
	<!ENTITY ns_flows "http://ns.adobe.com/Flows/1.0/">
	<!ENTITY ns_extend "http://ns.adobe.com/Extensibility/1.0/">
	<!ENTITY ns_ai "http://ns.adobe.com/AdobeIllustrator/10.0/">
	<!ENTITY ns_graphs "http://ns.adobe.com/Graphs/1.0/">
]>
<svg version="1.1" id="Layer_1" xmlns:x="&ns_extend;" xmlns:i="&ns_ai;" xmlns:graph="&ns_graphs;"
	 xmlns="http://www.w3.org/2000/svg" xmlns:xlink="http://www.w3.org/1999/xlink" xmlns:a="http://ns.adobe.com/AdobeSVGViewerExtensions/3.0/"
	 x="0px" y="0px" width="64px" height="64px" viewBox="0 0 64 64" enable-background="new 0 0 64 64" xml:space="preserve">
<path fill="#006DAE" d="M61.984,62H2.016c0,0,5.183-26.459,11.039-30.607c5.06-3.582,33.354-3.873,37.889,0
	C56.433,36.08,61.984,62,61.984,62z"/>
<path fill="#014D87" d="M54.641,62H9.375c0,0-0.561-21.463,4.738-25.09c7.33-5.021,28.963-5.662,35.791,0
	C54.834,40.998,54.641,62,54.641,62z"/>
<path fill="#E81C27" d="M60.065,42.789c-1.036-5.051-4.404-7.232-7.801-9.01c-1.271-2.615-4.086-3.811-7.283-4.111L32,23.664
	l-12.981,6.004c-3.197,0.301-6.013,1.496-7.283,4.111c-3.396,1.777-6.765,3.959-7.801,9.01
	c-7.943,7.258,11.141,16.529,11.141,16.529c4.931-1.219,2.034-4.535,2.034-4.535c-3.35-2.004-2.12-5.596-6.151-7.832
	c2.591,0.545,4.807-3.908,4.807-3.908c1.843,11.42,6.477,6.287,5.872,16.445h20.727c-0.604-10.158,4.029-5.025,5.872-16.445
	c0,0,2.216,4.453,4.807,3.908c-4.031,2.236-2.802,5.828-6.151,7.832c0,0-2.896,3.316,2.034,4.535
	C48.925,59.318,68.009,50.047,60.065,42.789z"/>
<path fill="#AD1413" d="M42.67,56.395c-3.773,3.775-17.568,3.773-21.342,0L20.744,62h22.512L42.67,56.395z"/>
<path fill="#AD1413" d="M12.777,38.477c-3.648,0.84-4.663,4.348-4.188,6.25C9.518,41.668,10.628,39.92,12.777,38.477z"/>
<path fill="#AD1413" d="M16.355,38.986c1.506,5.74,7.637,7.299,10.947,6.525C21.96,44.088,18.896,42.355,16.355,38.986z"/>
<path fill="#AD1413" d="M51.221,38.477c3.65,0.84,4.663,4.348,4.188,6.25C54.48,41.668,53.37,39.92,51.221,38.477z"/>
<path fill="#AD1413" d="M47.643,38.986c-1.506,5.74-7.637,7.299-10.948,6.525C42.04,44.088,45.104,42.355,47.643,38.986z"/>
<path fill="#AD1413" d="M32,33.578c-1.853-2.35-8.438-3.096-10.592-2.615c3.957,0.506,8.677,1.969,10.592,4.754
	c1.915-2.785,6.635-4.248,10.592-4.754C40.435,30.482,33.851,31.229,32,33.578z"/>
<path fill="#916B50" d="M46.891,54.783c-2.229,0.373-2.654-0.961-4.146-0.473c0,0-0.479,0.338-0.575,1.418
	c-0.094,1.029-0.713,1.822-2.878,3.094c-1.426,0.836-0.239,2.604,1.073,2.02C41.093,62.008,42.938,62,43.256,62
	c1.46,0,4.021-1.859,5.669-2.682C46.896,56.926,46.891,54.783,46.891,54.783z"/>
<path fill="#916B50" d="M17.109,54.783c2.229,0.373,2.654-0.961,4.146-0.473c0,0,0.479,0.338,0.575,1.418
	c0.094,1.029,0.713,1.822,2.878,3.094c1.426,0.836,0.239,2.604-1.073,2.02C22.907,62.008,21.063,62,20.744,62
	c-1.46,0-4.021-1.859-5.669-2.682C17.104,56.926,17.109,54.783,17.109,54.783z"/>
<path fill="#006DAE" d="M41.558,32.125c-3.668-2.508-3.054-5.617-3.054-5.617s2.8-0.441,4.449,1.223c0,0,3.305-0.23,3.943,1.236
	c3.059-0.129,4.439,1.807,3.811,2.783C47.357,30.143,43.357,32.922,41.558,32.125z"/>
<path fill="#014D87" d="M50.707,31.75c-0.637-2.457-8.025,0.795-9.665,0.006C43.125,33.855,46.889,30.936,50.707,31.75z"/>
<path fill="#014D87" d="M46.896,28.967c-2.239,0.033-3.568,1.33-3.521,1.16c0.277-0.918,2.711-1.361,1.46-2.299
	C44.835,27.828,46.744,28.047,46.896,28.967z"/>
<path fill="#014D87" d="M42.953,27.73c-1.769,0.641-1.819,1.98-1.858,1.805c-0.205-0.996,0.938-2.27,0.125-2.814
	C41.22,26.721,42.643,27.109,42.953,27.73z"/>
<path fill="#0FB4D4" d="M39.061,31.615c-0.525,1.844,4.635,3.025,5.159,1.182C44.71,31.086,39.551,29.908,39.061,31.615z"/>
<path fill="#006DAE" d="M22.44,32.125c3.668-2.508,3.055-5.617,3.055-5.617s-2.801-0.441-4.45,1.223c0,0-3.303-0.23-3.943,1.236
	c-3.059-0.129-4.438,1.807-3.809,2.783C16.643,30.143,20.643,32.922,22.44,32.125z"/>
<path fill="#014D87" d="M13.293,31.75c0.635-2.457,8.025,0.795,9.663,0.006C20.873,33.855,17.109,30.936,13.293,31.75z"/>
<path fill="#014D87" d="M17.102,28.967c2.241,0.033,3.57,1.33,3.523,1.16c-0.277-0.918-2.711-1.361-1.46-2.299
	C19.165,27.828,17.256,28.047,17.102,28.967z"/>
<path fill="#014D87" d="M21.045,27.73c1.771,0.641,1.821,1.98,1.86,1.805c0.205-0.996-0.938-2.27-0.125-2.814
	C22.78,26.721,21.357,27.109,21.045,27.73z"/>
<path fill="#0FB4D4" d="M24.938,31.615c0.527,1.844-4.633,3.025-5.157,1.182C19.288,31.086,24.447,29.908,24.938,31.615z"/>
<path fill="#FFE12C" d="M37.304,35.359c-2.961-0.48-7.648-0.48-10.609,0c-0.674,2.775-6.688,3.793-6.688,3.793L32,51l11.994-11.848
	C43.994,39.152,37.978,38.135,37.304,35.359z"/>
<path fill="#D47706" d="M38.188,37.123l-2.589,2.57h-5.833c-0.471,0-0.706,0.105-0.706,0.322c0,0.213,0.235,0.322,0.706,0.322h3.527
	c2.82,0,4.233,0.963,4.233,2.891c0,1.93-1.413,2.895-4.233,2.895h-4.832l-2.588-2.574h7.42c0.472,0,0.706-0.105,0.706-0.32
	c0-0.217-0.234-0.322-0.706-0.322h-3.527c-2.819,0-4.233-0.963-4.233-2.891c0-1.93,1.414-2.893,4.233-2.893H38.188z"/>
<path fill="#755035" d="M26.998,27.285c0,5.156,10,5.156,10,0v-5.344h-10V27.285z"/>
<path fill="#755035" d="M21.117,13.93c-3.636-0.656-0.796,9.52,2.052,6.715C24.489,19.344,22.817,14.238,21.117,13.93z"/>
<path fill="#755035" d="M42.88,13.93c-1.703,0.309-3.371,5.414-2.047,6.715C43.681,23.449,46.521,13.273,42.88,13.93z"/>
<path fill="#916B50" d="M31.998,2c-7.521,0-11.15,5.691-10.691,13.609c0.09,1.594,1.073,6.785,2.007,8.648
	c0.957,1.906,4.145,4.848,6.103,5.453c1.232,0.387,3.937,0.387,5.171,0c1.954-0.605,5.145-3.547,6.099-5.453
	c0.934-1.863,1.917-7.055,2.012-8.648C43.149,7.691,39.525,2,31.998,2z"/>
<path fill="#664129" d="M31.998,23.551c-1.691-0.5-4.201,0.234-4.201,0.234c0.959,1.039,1.657,2.391,4.201,2.391
	c2.918,0,3.413-1.531,4.198-2.391C36.196,23.785,33.689,23.047,31.998,23.551z"/>
<path fill="#FFFFFF" d="M28.438,23.961c1.778,1.488,5.359,1.496,7.146,0C33.689,24.043,30.345,24.043,28.438,23.961z"/>
<path fill="#755035" d="M34.334,20.75c0,1.52-4.666,1.52-4.666,0C29.668,20.402,34.334,20.402,34.334,20.75z"/>
<path fill="#614036" d="M31.998,2c-5.173,0-8.302,1.709-9.649,1.053c0,0-0.148,0.885,0.384,1.457c0,0-0.56,0.482-1.462-0.33
	c-0.859,2.785,1.691,4.398,10.728,4.398c9.043,0,6.883-2.199,11.327,1.664C42.889,5.477,39.861,2,31.998,2z"/>
<path fill="#4A2E24" d="M35.826,6.156c-4.977,1.836-6.794-1.479-11.493-1.803c2.238,1.057,3.328,2.682,5.16,3.854
	c-3.992-1.336-6.922-3.633-7.145-5.145c0,0-0.663,2.203,1.969,3.852c-2.519,0.234-3.047-2.727-3.047-2.727
	c-1.273,2.049-1.099,8.66,0.32,13.563c0.234-1.75-0.306-2.473,0.504-4.582c2.422-6.301,0.867-3.656,9.906-3.656
	c9.04,0,7.411-2.414,9.902,3.656c0.746,1.809,0.271,2.832,0.508,4.582C45.385,6.691,41.11,4.207,35.826,6.156z"/>
<path fill="#664129" d="M40.471,13.051c-1.72-0.852-5.012-0.895-6.239-0.297c-0.262,0.113-0.09,0.926,0.133,0.848
	c1.711-0.633,4.465-0.65,6.066,0.055C40.646,13.746,40.736,13.172,40.471,13.051z"/>
<path fill="#664129" d="M23.523,13.051c1.725-0.852,5.017-0.895,6.243-0.297c0.262,0.113,0.09,0.926-0.133,0.848
	c-1.711-0.633-4.464-0.65-6.07,0.055C23.353,13.746,23.268,13.172,23.523,13.051z"/>
<path fill="#006DAE" d="M32.018,14.111c-2.77,0.002-8.386-4.523-11.032,0.977c1.151,10.52,8.205,2.352,11.032,2.355
	c2.82,0.004,9.94,8.26,10.997-2.355C40.367,9.586,34.78,14.109,32.018,14.111z"/>
<path fill="#FFFFFF" d="M40.056,16.223c-1.008,2.629-5.097,2.246-5.843,0.402C34.779,13.668,39.502,13.414,40.056,16.223z"/>
<path fill="#FFFFFF" d="M23.945,16.223c1.002,2.629,5.095,2.246,5.846,0.402C29.22,13.664,24.492,13.41,23.945,16.223z"/>
<path fill="#613F34" d="M35.255,15.941c0,2.309,3.34,2.309,3.34,0C38.595,13.797,35.255,13.797,35.255,15.941z"/>
<path fill="#7D5037" d="M35.587,16.68c0,1.324,2.679,1.324,2.679,0C38.266,15.449,35.587,15.449,35.587,16.68z"/>
<path fill="#1A1626" d="M36.231,15.977c0,0.957,1.388,0.957,1.388,0C37.619,15.086,36.231,15.086,36.231,15.977z"/>
<path fill="#AB968C" d="M35.76,15.695c0,0.484,0.698,0.484,0.698,0C36.458,15.246,35.76,15.246,35.76,15.695z"/>
<path fill="#613F34" d="M25.404,15.941c0,2.309,3.343,2.309,3.343,0C28.747,13.797,25.404,13.797,25.404,15.941z"/>
<path fill="#7D5037" d="M25.735,16.68c0,1.324,2.68,1.324,2.68,0C28.415,15.449,25.735,15.449,25.735,16.68z"/>
<path fill="#1A1626" d="M26.38,15.977c0,0.957,1.391,0.957,1.391,0C27.771,15.086,26.38,15.086,26.38,15.977z"/>
<path fill="#AB968C" d="M25.911,15.695c0,0.484,0.699,0.484,0.699,0C26.61,15.246,25.911,15.246,25.911,15.695z"/>
<path fill="#014D87" d="M40.056,16.199c0-2.824-5.843-2.824-5.843,0.449C35.049,13.965,39.22,13.965,40.056,16.199z"/>
<path fill="#014D87" d="M23.945,16.199c0-2.824,5.846-2.824,5.846,0.449C28.954,13.961,24.778,13.961,23.945,16.199z"/>
</svg>
