<?xml version="1.0" encoding="utf-8"?>
<!-- Generator: Adobe Illustrator 15.0.0, SVG Export Plug-In . SVG Version: 6.00 Build 0)  -->
<!DOCTYPE svg PUBLIC "-//W3C//DTD SVG 1.1//EN" "http://www.w3.org/Graphics/SVG/1.1/DTD/svg11.dtd" [
	<!ENTITY ns_flows "http://ns.adobe.com/Flows/1.0/">
	<!ENTITY ns_extend "http://ns.adobe.com/Extensibility/1.0/">
	<!ENTITY ns_ai "http://ns.adobe.com/AdobeIllustrator/10.0/">
	<!ENTITY ns_graphs "http://ns.adobe.com/Graphs/1.0/">
]>
<svg version="1.1" id="Layer_1" xmlns:x="&ns_extend;" xmlns:i="&ns_ai;" xmlns:graph="&ns_graphs;"
	 xmlns="http://www.w3.org/2000/svg" xmlns:xlink="http://www.w3.org/1999/xlink" xmlns:a="http://ns.adobe.com/AdobeSVGViewerExtensions/3.0/"
	 x="0px" y="0px" width="64px" height="64px" viewBox="0 0 64 64" enable-background="new 0 0 64 64" xml:space="preserve">
<path fill="#947D41" d="M24.033,9.02c-5.364,23.027-4.873,22.535,6.419,22.535C24.204,27.183,36.176,8.708,24.033,9.02z"/>
<path fill="#BA9D52" d="M22.097,8.664c-3.912,17.496-0.532,21.989,2.464,22.892h3.436C19.959,25.889,32.523,8.318,22.097,8.664z"/>
<path fill="#947D41" d="M39.817,9.02c5.363,23.027,4.872,22.535-6.421,22.535C39.146,28.046,27.678,8.708,39.817,9.02z"/>
<path fill="#BA9D52" d="M41.752,8.664c5.725,15.917-0.011,22.154-2.463,22.892h-3.437C43.897,26.35,31.326,8.318,41.752,8.664z"/>
<path fill="#EFDE8B" d="M42.704,17.214c1.659,4.048,0.016,12.354-3.415,14.341c3.803,0,6.124-5.265,7.249-12.506
	C47.952,9.998,39.754,9.995,42.704,17.214z"/>
<path fill="#EFDE8B" d="M17.739,20.729c1.384,6.537,3.086,10.826,6.821,10.826c-4.158-4.308-3.675-13.399-2.486-15.661
	C28.098,12.305,15.395,9.672,17.739,20.729z"/>
<path fill="#006DAE" d="M62,62.001H2c0,0,7.186-26.026,13.045-30.106c5.063-3.523,29.371-3.811,33.908,0
	C54.445,36.506,62,62.001,62,62.001z"/>
<path fill="#014D87" d="M54.641,62.001H9.375c0,0,1.439-21.464,6.738-25.091c7.33-5.021,24.963-5.663,31.791,0
	C52.834,40.998,54.641,62.001,54.641,62.001z"/>
<path fill="#E81C27" d="M59.893,45.979c-1.211-4.083-10.15-12.709-11.961-14.229l-15.939-5.086L16.055,31.75
	c-1.811,1.52-10.752,10.146-11.961,14.229c-0.838,2.824,3.574,6.721,12.127,13.34c3.973-1.219,1.895-4.535,1.895-4.535
	c-3.119-2.004-5.1-5.43-7.863-8.492c1.221-0.188,7.859-6.813,8.385-6.313c1.738,1.652,4.656,6.75,3.146,15.188
	c0.877,5.875,19.541,5.875,20.418,0c-1.51-8.438,1.41-13.535,3.148-15.188c0.525-0.5,7.164,6.125,8.383,6.313
	c-2.762,3.063-4.742,6.488-7.863,8.492c0,0-2.078,3.316,1.895,4.535C56.318,52.7,60.729,48.804,59.893,45.979z"/>
<path fill="#AD1413" d="M41.938,56.396c-3.514,3.775-16.365,3.773-19.879,0l-0.545,5.605h20.971L41.938,56.396z"/>
<path fill="#E3C19B" d="M18.115,54.784c2.076,0.373,2.473-0.961,3.863-0.473c0,0,0.445,0.338,0.535,1.418
	c0.088,1.029,0.664,1.822,2.682,3.094c1.328,0.836,0.223,2.604-1,2.02c-0.68,1.166-2.396,1.158-2.693,1.158
	c-1.359,0-3.746-1.859-5.281-2.682C18.111,56.927,18.115,54.784,18.115,54.784z"/>
<path fill="#E3C19B" d="M45.869,54.784c-2.076,0.373-2.473-0.961-3.861-0.473c0,0-0.447,0.338-0.537,1.418
	c-0.086,1.029-0.664,1.822-2.68,3.094c-1.328,0.836-0.223,2.604,1,2.02c0.678,1.166,2.396,1.158,2.693,1.158
	c1.359,0,3.746-1.859,5.279-2.682C45.875,56.927,45.869,54.784,45.869,54.784z"/>
<path fill="#FFE12C" d="M37.297,35.359c-2.961-0.48-7.648-0.48-10.609,0c-0.674,2.775-6.689,3.793-6.689,3.793l11.994,11.849
	l11.994-11.849C43.986,39.152,37.971,38.135,37.297,35.359z"/>
<path fill="#D47706" d="M38.182,37.123l-2.59,2.57H29.76c-0.471,0-0.707,0.105-0.707,0.322c0,0.213,0.236,0.322,0.707,0.322h3.527
	c2.82,0,4.232,0.963,4.232,2.891c0,1.931-1.412,2.896-4.232,2.896h-4.832l-2.588-2.575h7.42c0.471,0,0.705-0.105,0.705-0.32
	c0-0.217-0.234-0.322-0.705-0.322H29.76c-2.82,0-4.234-0.963-4.234-2.891c0-1.93,1.414-2.893,4.234-2.893H38.182z"/>
<path fill="#006DAE" d="M22.619,33.649c3.098-1.857,3.166-5.013,3.166-5.013s-1.973-0.898-3.453,0.463c0,0-2.373-0.773-3.086,0.562
	c-2.215-0.633-3.543,1.041-3.246,2.105C18.715,30.741,21.174,34.134,22.619,33.649z"/>
<path fill="#014D87" d="M16,31.766c0.873-2.31,5.729,2.11,7.057,1.606C21.188,35.09,18.922,31.597,16,31.766z"/>
<path fill="#014D87" d="M19.246,29.661c1.631,0.404,2.385,1.899,2.381,1.724c-0.051-0.948-1.756-1.786-0.686-2.501
	C20.941,28.883,19.512,28.784,19.246,29.661z"/>
<path fill="#014D87" d="M22.332,29.099c1.186,0.922,0.998,2.248,1.059,2.082c0.314-0.944-0.309-2.385,0.375-2.786
	C23.766,28.395,22.662,28.542,22.332,29.099z"/>
<path fill="#0FB4D4" d="M24.527,33.563c0.078,1.899-3.887,2.206-3.963,0.307C20.488,32.107,24.455,31.802,24.527,33.563z"/>
<path fill="#006DAE" d="M41.381,33.649c-3.098-1.857-3.166-5.013-3.166-5.013s1.973-0.898,3.453,0.463c0,0,2.373-0.773,3.086,0.562
	c2.213-0.633,3.541,1.041,3.244,2.105C45.283,30.741,42.826,34.134,41.381,33.649z"/>
<path fill="#014D87" d="M47.998,31.766c-0.871-2.31-5.729,2.11-7.057,1.606C42.813,35.09,45.076,31.597,47.998,31.766z"/>
<path fill="#014D87" d="M44.754,29.661c-1.631,0.404-2.385,1.899-2.381,1.724c0.049-0.948,1.754-1.786,0.684-2.501
	C43.057,28.883,44.488,28.784,44.754,29.661z"/>
<path fill="#014D87" d="M41.668,29.099c-1.186,0.922-1,2.248-1.059,2.082c-0.314-0.944,0.307-2.385-0.377-2.786
	C40.232,28.395,41.338,28.542,41.668,29.099z"/>
<path fill="#0FB4D4" d="M39.473,33.563c-0.08,1.899,3.885,2.206,3.961,0.307C43.51,32.107,39.545,31.802,39.473,33.563z"/>
<path fill="#D6A67A" d="M27.991,28.739c0,4.223,8,4.223,8,0v-4.374h-8V28.739z"/>
<path fill="#E3C19B" d="M31.99,3.488c-7.149,0-10.591,5.821-10.159,13.306c0.086,1.505,0.506,3.677,1.023,5.537
	c1.069,3.862,6.728,7.755,9.136,7.755c2.412,0,8.063-3.893,9.14-7.755c0.515-1.86,0.934-4.032,1.023-5.537
	C42.581,9.309,39.144,3.488,31.99,3.488z"/>
<path fill="#C97E55" d="M31.99,23.913c-1.736-0.766-1.752-0.03-4.437,0.15c1.013,1.143,1.756,2.61,4.437,2.61
	c3.083,0,3.6-1.665,4.437-2.61C33.742,23.882,33.727,23.147,31.99,23.913z"/>
<path fill="#FFFFFF" d="M28.359,24.344c1.752,1.823,5.533,1.804,7.261,0.004C32.925,24.636,31.064,24.636,28.359,24.344z"/>
<path fill="#594640" d="M39.87,14.073c-1.613-0.958-4.501-1.077-5.645-0.421c-0.24,0.132-0.172,0.825,0.034,0.739
	c1.631-0.679,4.114-0.713,5.645,0.07C40.111,14.567,40.114,14.214,39.87,14.073z"/>
<path fill="#594640" d="M24.115,14.073c1.607-0.958,4.496-1.077,5.644-0.421c0.24,0.132,0.176,0.825-0.034,0.739
	c-1.631-0.679-4.114-0.713-5.641,0.07C23.873,14.567,23.866,14.214,24.115,14.073z"/>
<path fill="#D6A67A" d="M34.206,21.303c0,1.439-4.428,1.439-4.428,0C29.778,20.969,34.206,20.969,34.206,21.303z"/>
<path fill="#006DAE" d="M32.009,14.926c-2.659,0.003-8.053-4.343-10.593,0.939c1.105,10.1,7.878,2.256,10.593,2.261
	c2.707,0.004,9.545,7.93,10.56-2.261C40.026,10.582,34.662,14.924,32.009,14.926z"/>
<path fill="#FFFFFF" d="M39.713,17.001c-0.952,2.493-4.839,2.129-5.548,0.382C34.702,14.571,39.188,14.331,39.713,17.001z"/>
<path fill="#613F34" d="M35.134,16.727c0,2.213,3.206,2.213,3.206,0C38.34,14.667,35.134,14.667,35.134,16.727z"/>
<path fill="#7D5037" d="M35.452,17.436c0,1.271,2.569,1.271,2.569,0C38.021,16.258,35.452,16.258,35.452,17.436z"/>
<path fill="#1A1626" d="M36.07,16.761c0,0.919,1.331,0.919,1.331,0C37.401,15.91,36.07,15.91,36.07,16.761z"/>
<path fill="#AB968C" d="M35.62,16.491c0,0.465,0.669,0.465,0.669,0C36.289,16.064,35.62,16.064,35.62,16.491z"/>
<path fill="#014D87" d="M39.713,16.982c0-2.688-5.548-2.688-5.548,0.424C34.953,14.852,38.921,14.852,39.713,16.982z"/>
<path fill="#FFFFFF" d="M24.269,17.001c0.955,2.493,4.846,2.129,5.555,0.382C29.282,14.571,24.797,14.331,24.269,17.001z"/>
<path fill="#613F34" d="M25.649,16.731c0,2.212,3.198,2.212,3.198,0C28.848,14.676,25.649,14.676,25.649,16.731z"/>
<path fill="#7D5037" d="M25.963,17.436c0,1.271,2.569,1.271,2.569,0C28.532,16.262,25.963,16.262,25.963,17.436z"/>
<path fill="#1A1626" d="M26.579,16.764c0,0.92,1.334,0.92,1.334,0C27.913,15.91,26.579,15.91,26.579,16.764z"/>
<path fill="#AB968C" d="M26.129,16.499c0,0.462,0.67,0.462,0.67,0C26.799,16.068,26.129,16.068,26.129,16.499z"/>
<path fill="#014D87" d="M24.269,16.982c0-2.688,5.555-2.688,5.555,0.42C29.032,14.848,25.063,14.848,24.269,16.982z"/>
<path fill="#EFDE8B" d="M39.979,4.527c-5.014,5.139-0.225,5.468,2.726,12.688c1.659,4.048,2.709,9.076,3.834,1.835
	C47.952,9.998,42.525,3.774,39.979,4.527z"/>
<path fill="#EFDE8B" d="M27.678,2.561c-6.361,1.494-12.283,7.111-9.938,18.168c1.384,6.537,3.146-2.573,4.335-4.835
	c6.023-3.589,16.337-6.308,17.904-11.367C40.774,3.36,34.034,0.893,27.678,2.561z"/>
<path fill="#BA9D52" d="M22.806,10.611c2.688-0.545,15.545-0.8,17.173-6.084C36.941,6.95,33.794,7.61,22.806,10.611z"/>
<path fill="#BA9D52" d="M18.169,19.018c4.51-6.02,19.282-5.355,21.81-14.491C35.073,12.194,19.399,13.233,18.169,19.018z"/>
<path fill="#BA9D52" d="M38.493,5.78c-1.162,1.833,2.881-0.858,7.239,10.951C44.659,9.827,40.972,5.071,38.493,5.78z"/>
</svg>
