<?xml version="1.0" encoding="utf-8"?>
<!-- Generator: Adobe Illustrator 15.0.0, SVG Export Plug-In . SVG Version: 6.00 Build 0)  -->
<!DOCTYPE svg PUBLIC "-//W3C//DTD SVG 1.1//EN" "http://www.w3.org/Graphics/SVG/1.1/DTD/svg11.dtd" [
	<!ENTITY ns_flows "http://ns.adobe.com/Flows/1.0/">
	<!ENTITY ns_extend "http://ns.adobe.com/Extensibility/1.0/">
	<!ENTITY ns_ai "http://ns.adobe.com/AdobeIllustrator/10.0/">
	<!ENTITY ns_graphs "http://ns.adobe.com/Graphs/1.0/">
]>
<svg version="1.1" id="Layer_1" xmlns:x="&ns_extend;" xmlns:i="&ns_ai;" xmlns:graph="&ns_graphs;"
	 xmlns="http://www.w3.org/2000/svg" xmlns:xlink="http://www.w3.org/1999/xlink" xmlns:a="http://ns.adobe.com/AdobeSVGViewerExtensions/3.0/"
	 x="0px" y="0px" width="64px" height="64px" viewBox="0 0 64 64" enable-background="new 0 0 64 64" xml:space="preserve">
<path fill="#B3C2C6" d="M16.41,34.339h-5.718c0.092,4.697,0.828,10.102,2.17,14.698c0.438-3.215-0.562-4.542,0.94-8.417
	C15.047,37.417,15.725,35.476,16.41,34.339z"/>
<path fill="#B3C2C6" d="M47.782,34.339c0.733,1.094,1.431,3.017,2.789,6.281c1.38,3.323,0.501,5.202,0.942,8.417
	c1.73-6.377,2.131-11.192,1.568-14.698H47.782z"/>
<path fill="#E6EBEF" d="M10.284,42.921c-2.44-6.111-1.872-16.839,5.852-21.68C16.497,27.278,12.509,36.389,10.284,42.921z"/>
<path fill="#B3C2C6" d="M10.284,42.921c-1.861-6.44,4.306-13.299,5.852-21.68C16.497,27.278,12.509,36.389,10.284,42.921z"/>
<path fill="#E6EBEF" d="M10.151,44.663c2.773-9.194-1.285-18.247,5.984-23.422C16.562,27.156,20.942,32.32,10.151,44.663z"/>
<path fill="#B3C2C6" d="M10.151,44.663c8.994-14.375,1.476-17.798,5.984-23.42C16.562,27.156,20.942,32.32,10.151,44.663z"/>
<path fill="#E6EBEF" d="M16.136,21.243c23.359,11.795,32.147,9.083,37.939,22.836C60.561,19.487,31.356,6.372,16.136,21.243z"/>
<path fill="#B3C2C6" d="M16.136,21.243c23.359,11.795,30.46,9.485,37.939,22.836C54.688,31.814,31.522,22.179,16.136,21.243z"/>
<path fill="#E6EBEF" d="M16.351,21.243c-6.113,8.19,18.714,12.93,27.979,13.141C36.658,27.479,29.862,19.821,16.351,21.243z"/>
<path fill="#B3C2C6" d="M44.33,34.382c-9.944-3.162-30.482-5.363-27.979-13.141C10.237,29.434,34.386,34.382,44.33,34.382z"/>
<path fill="#E6EBEF" d="M28.915,34.382c-5.908-4.034-5.62-12.855-12.779-13.141C8.113,29.733,21.687,34.173,28.915,34.382z"/>
<path fill="#B3C2C6" d="M28.915,34.382c-8.136-3.977-17.945-5.053-12.779-13.141C8.113,29.733,21.186,34.59,28.915,34.382z"/>
<polygon fill="#6E8189" points="62,62 56.5,62 56.5,59 59,59 59,56.5 62,56.5 "/>
<path fill="#6E8189" d="M49.5,62h-7v-3h7V62z M35.5,62h-7v-3h7V62z M21.5,62h-7v-3h7V62z"/>
<polygon fill="#6E8189" points="7.5,62 2,62 2,56.5 5,56.5 5,59 7.5,59 "/>
<path fill="#6E8189" d="M5,49.5H2v-7h3V49.5z M5,35.5H2v-7h3V35.5z M5,21.5H2v-7h3V21.5z"/>
<polygon fill="#6E8189" points="5,7.5 2,7.5 2,2 7.5,2 7.5,5 5,5 "/>
<path fill="#6E8189" d="M49.5,5h-7V2h7V5z M35.5,5h-7V2h7V5z M21.5,5h-7V2h7V5z"/>
<polygon fill="#6E8189" points="62,7.5 59,7.5 59,5 56.5,5 56.5,2 62,2 "/>
<path fill="#6E8189" d="M62,49.5h-3v-7h3V49.5z M62,35.5h-3v-7h3V35.5z M62,21.5h-3v-7h3V21.5z"/>
</svg>
