<?xml version="1.0" encoding="utf-8"?>
<!-- Generator: Adobe Illustrator 19.0.0, SVG Export Plug-In . SVG Version: 6.00 Build 0)  -->
<svg version="1.1" id="Layer_1" xmlns="http://www.w3.org/2000/svg" xmlns:xlink="http://www.w3.org/1999/xlink" x="0px" y="0px"
	 width="64px" height="64px" viewBox="0 0 64 64" enable-background="new 0 0 64 64" xml:space="preserve">
<path fill="#B3C2C6" d="M24.058,18.245c-6.702,33.573-6.09,32.854,8.02,32.854C24.271,44.725,39.228,17.789,24.058,18.245z"/>
<path fill="#CFD8DD" d="M21.642,17.727c-4.893,25.506-0.674,32.056,3.074,33.373h4.293C18.964,42.838,34.667,17.225,21.642,17.727z"
	/>
<path fill="#B3C2C6" d="M43.776,18.245c6.702,33.571,6.089,32.853-8.02,32.853C42.937,45.98,28.608,17.787,43.776,18.245z"/>
<path fill="#CFD8DD" d="M46.193,17.725c7.15,23.205-0.016,32.298-3.077,33.373h-4.291C48.873,43.511,33.167,17.223,46.193,17.725z"
	/>
<path fill="#E6EBEF" d="M47.184,30.193c2.041,5.9,0.021,18.008-4.202,20.906c4.681,0,7.532-7.677,8.923-18.233
	C53.641,19.674,43.55,19.667,47.184,30.193z"/>
<path fill="#E6EBEF" d="M16.455,35.314c1.708,9.527,3.806,15.785,8.399,15.785c-5.121-6.285-4.52-19.536-3.064-22.832
	C29.212,23.035,13.57,19.197,16.455,35.314z"/>
<path fill="#006DAE" d="M12,62h44.002C56.002,44.281,12,44.281,12,62z"/>
<path fill="#014D87" d="M13.293,46.091C14.26,55.388,33.54,55.833,33.521,62h0.961c-0.02-6.167,19.261-6.612,20.226-15.909
	C44.733,41.891,22.993,42.006,13.293,46.091z"/>
<path fill="#FFCC66" d="M33.985,62L33.985,62c-0.014-4.545,5.357-7.112,10.93-10.117c-3.283-1.46-5.195-3.028-5.195-3.028h-11.4
	c0,0-1.938,1.579-5.233,3.044C28.653,54.894,33.999,57.463,33.985,62z"/>
<path fill="#014D87" d="M61,27.281C61,30.533,55.576,30,33.999,30c-21.577,0-27.001,0.533-27.001-2.719
	C6.998,24.025,61,24.025,61,27.281z"/>
<radialGradient id="SVGID_1_" cx="7.0488" cy="41.8604" r="5.3779" gradientUnits="userSpaceOnUse">
	<stop  offset="0.2303" style="stop-color:#A2FF00"/>
	<stop  offset="0.432" style="stop-color:#9FFD02"/>
	<stop  offset="0.563" style="stop-color:#97F608"/>
	<stop  offset="0.674" style="stop-color:#88E911"/>
	<stop  offset="0.7737" style="stop-color:#73D81F"/>
	<stop  offset="0.8659" style="stop-color:#57C231"/>
	<stop  offset="0.9514" style="stop-color:#36A647"/>
	<stop  offset="1" style="stop-color:#209456"/>
</radialGradient>
<circle fill="url(#SVGID_1_)" cx="8.5" cy="43.5" r="5.5"/>
<radialGradient id="SVGID_2_" cx="563.2011" cy="62.8889" r="7.5734" gradientTransform="matrix(0.3583 0.4654 -0.7152 0.5506 -151.4178 -257.493)" gradientUnits="userSpaceOnUse">
	<stop  offset="0" style="stop-color:#FFFFFF"/>
	<stop  offset="1" style="stop-color:#FFFFFF;stop-opacity:0"/>
</radialGradient>
<path fill="url(#SVGID_2_)" d="M8.337,43.159c-1.546,1.191-3.427,1.34-4.2,0.334c-0.775-1.007-0.15-2.787,1.395-3.977
	c1.546-1.191,3.427-1.34,4.202-0.334C10.51,40.189,9.883,41.97,8.337,43.159z"/>
<linearGradient id="SVGID_3_" gradientUnits="userSpaceOnUse" x1="6.4667" y1="53.0093" x2="15.0723" y2="53.0093">
	<stop  offset="0.2545" style="stop-color:#916958"/>
	<stop  offset="0.4316" style="stop-color:#8D6655"/>
	<stop  offset="0.6087" style="stop-color:#815C4C"/>
	<stop  offset="0.7858" style="stop-color:#6D4C3E"/>
	<stop  offset="0.9621" style="stop-color:#513529"/>
	<stop  offset="1" style="stop-color:#4A2F24"/>
</linearGradient>
<path fill="url(#SVGID_3_)" d="M13.422,44.019c0,0,2.567,3.436,1.164,5.101C12.656,51.406,15.072,62,15.072,62h-2.609
	c0,0-0.847-8.14-5.817-13.038C5.151,47.49,13.516,48.62,13.422,44.019z"/>
<linearGradient id="SVGID_4_" gradientUnits="userSpaceOnUse" x1="4.3372" y1="46.0004" x2="14.2793" y2="46.0004">
	<stop  offset="0.2545" style="stop-color:#916958"/>
	<stop  offset="0.4316" style="stop-color:#8D6655"/>
	<stop  offset="0.6087" style="stop-color:#815C4C"/>
	<stop  offset="0.7858" style="stop-color:#6D4C3E"/>
	<stop  offset="0.9621" style="stop-color:#513529"/>
	<stop  offset="1" style="stop-color:#4A2F24"/>
</linearGradient>
<path fill="url(#SVGID_4_)" d="M13.544,41.636c1.115,0.122,1.432,6.568-2.514,8.55c-1.668,0.839-7.138-1.362-6.664-3.169
	c0.381-1.441,4.651,0.984,5.961,0.268C11.75,46.501,11.927,41.461,13.544,41.636z"/>
<path fill="#FFCC66" d="M28.001,49.448c0,5.538,12,5.538,12,0c0-3.379,0-8.963,0-8.963h-12
	C28.001,40.485,28.001,45.087,28.001,49.448z"/>
<path fill="#E6B045" d="M27.646,46.001c5.775,5.791,6.936,5.787,12.709-0.004L27.646,46.001z"/>
<path fill="#FFCC66" d="M33.999,10.178c-10.422,0-15.441,8.488-14.814,19.4c0.129,2.193,0.738,5.359,1.492,8.069
	c1.563,5.636,9.811,11.312,13.322,11.312c3.512,0,11.761-5.676,13.323-11.312c0.754-2.71,1.363-5.876,1.494-8.069
	C49.441,18.666,44.423,10.178,33.999,10.178z"/>
<path fill="#D47706" d="M34.001,39.957c-2.535-1.113-2.553-0.046-6.465,0.217c1.469,1.666,2.549,3.811,6.463,3.811
	c4.49,0,5.25-2.434,6.467-3.811C36.552,39.911,36.534,38.844,34.001,39.957z"/>
<path fill="#FFFFFF" d="M28.71,40.59c2.553,2.656,8.059,2.621,10.58,0C35.358,41.012,32.642,41.012,28.71,40.59z"/>
<path fill="#99A8AE" d="M45.485,25.614c-2.348-1.401-6.561-1.571-8.227-0.617c-0.354,0.19-0.258,1.202,0.047,1.077
	c2.377-0.991,5.998-1.041,8.231,0.104C45.836,26.332,45.842,25.818,45.485,25.614z"/>
<path fill="#99A8AE" d="M22.515,25.614c2.348-1.401,6.56-1.571,8.229-0.617c0.354,0.19,0.26,1.202-0.049,1.077
	c-2.377-0.991-5.996-1.041-8.229,0.104C22.167,26.332,22.159,25.818,22.515,25.614z"/>
<path fill="#E6B045" d="M37.231,36.148c0,2.102-6.463,2.102-6.463,0C30.769,35.666,37.231,35.666,37.231,36.148z"/>
<path fill="#FFFFFF" d="M45.259,29.875c-1.393,3.645-7.057,3.11-8.094,0.559C37.95,26.336,44.493,25.986,45.259,29.875z"/>
<path fill="#613F34" d="M38.583,29.479c0,3.229,4.668,3.229,4.668,0C43.251,26.482,38.583,26.482,38.583,29.479z"/>
<path fill="#7D5037" d="M39.044,30.512c0,1.852,3.746,1.852,3.746,0C42.79,28.793,39.044,28.793,39.044,30.512z"/>
<path fill="#1A1626" d="M39.948,29.529c0,1.34,1.939,1.34,1.939,0C41.888,28.287,39.948,28.287,39.948,29.529z"/>
<path fill="#AB968C" d="M39.286,29.139c0,0.677,0.979,0.677,0.979,0C40.265,28.511,39.286,28.511,39.286,29.139z"/>
<path fill="#45332C" d="M45.259,29.847c0-3.915-8.094-3.915-8.094,0.62C38.319,26.745,44.103,26.745,45.259,29.847z"/>
<path fill="#FFFFFF" d="M22.741,29.875c1.395,3.645,7.059,3.111,8.098,0.559C30.052,26.336,23.509,25.986,22.741,29.875z"/>
<path fill="#613F34" d="M24.749,29.484c0,3.227,4.668,3.227,4.668,0C29.417,26.487,24.749,26.487,24.749,29.484z"/>
<path fill="#7D5037" d="M25.21,30.517c0,1.852,3.746,1.852,3.746,0C28.956,28.799,25.21,28.799,25.21,30.517z"/>
<path fill="#1A1626" d="M26.114,29.535c0,1.34,1.938,1.34,1.938,0C28.052,28.291,26.114,28.291,26.114,29.535z"/>
<path fill="#AB968C" d="M25.452,29.144c0,0.677,0.979,0.677,0.979,0C26.431,28.514,25.452,28.514,25.452,29.144z"/>
<path fill="#45332C" d="M22.741,29.847c0-3.915,8.098-3.915,8.098,0.619C29.683,26.745,23.899,26.745,22.741,29.847z"/>
<path fill="#E6EBEF" d="M42.46,20.958c1.26,2.146,4.55,5.249,5.874,12.295c1.153,6.136,2.18,10.17,3.57-0.387
	c0.598-4.538,0.199-8.591-0.709-11.908H42.46z"/>
<path fill="#E6EBEF" d="M16.836,20.958c-1.137,3.828-1.414,8.58-0.381,14.356c1.708,9.527,1.307-1.985,2.762-5.282
	c3.027-4.41,10.278-6.37,15.013-9.074H16.836z"/>
<linearGradient id="SVGID_5_" gradientUnits="userSpaceOnUse" x1="33.9922" y1="31.469" x2="33.9922" y2="24.2931">
	<stop  offset="0.2788" style="stop-color:#1A1626;stop-opacity:0"/>
	<stop  offset="1" style="stop-color:#1A1626;stop-opacity:0.8"/>
</linearGradient>
<path fill="url(#SVGID_5_)" d="M59.393,28.141c-11.291,4.002-41.176,4.852-50.801,0.005C17.239,23.01,53.531,23.01,59.393,28.141z"
	/>
<path fill="#006DAE" d="M61,27.281C61,30.533,55.576,25,33.999,25c-21.575,0-27.001,5.533-27.001,2.281
	C6.998,16.025,61,16.025,61,27.281z"/>
<path fill="#006DAE" d="M45.626,15.488c0.167-3.02-5.205-5.309-4.373-8.465C41.657,5.496,44.124,4.471,42.995,2
	c-1.869,3.305-11.162,0-15.803,5.828c-3.713,2.186-11.517,11.822-8.154,15.182c7.066-1.203,21.148-1.686,29.935,0
	C52.264,19.719,46.813,16.012,45.626,15.488z"/>
<path opacity="0.2" fill="#013366" enable-background="new    " d="M42.995,2c1.332,3.121-4.215,3.961-4.517,7.922
	c1.396-2.223,2.99-0.629,2.746-1.678C40.624,5.574,44.343,4.996,42.995,2z"/>
<path opacity="0.2" fill="#013366" enable-background="new    " d="M44.054,12.269c0,0-9.701,0-19.742,5.949
	c6.965-2.145,16.574-3.945,21.314-2.729C45.906,14.121,44.054,12.269,44.054,12.269z"/>
<path opacity="0.2" fill="#013366" enable-background="new    " d="M46.688,18.219c0,0-3.442,0.762-13.001,2.855
	C41.468,16.98,46.688,18.219,46.688,18.219z"/>
<path fill="#E6B045" d="M35.888,55.9c-1.063,0.623-1.889,2.045-1.889,2.045s-0.824-1.422-1.885-2.045
	c1.885,3.193,1.43,4.631,1.43,4.631h0.912C34.456,60.531,33.999,58.896,35.888,55.9z"/>
<path fill="#F59E01" d="M28.407,59.637c0,1.334-2,1.334-2,0S28.407,58.303,28.407,59.637z"/>
<path fill="#F59E01" d="M41.595,59.637c0,1.334-2,1.334-2,0S41.595,58.303,41.595,59.637z"/>
<path fill="#F9B700" d="M40.878,60.135c-4.512,1.158-9.242,1.158-13.754,0c0.098-0.379,0.195-0.76,0.293-1.141
	c4.32,1.109,8.848,1.109,13.168,0C40.683,59.375,40.78,59.756,40.878,60.135z"/>
</svg>
