<?xml version="1.0" encoding="utf-8"?>
<!-- Generator: Adobe Illustrator 15.0.0, SVG Export Plug-In . SVG Version: 6.00 Build 0)  -->
<!DOCTYPE svg PUBLIC "-//W3C//DTD SVG 1.1//EN" "http://www.w3.org/Graphics/SVG/1.1/DTD/svg11.dtd" [
	<!ENTITY ns_flows "http://ns.adobe.com/Flows/1.0/">
	<!ENTITY ns_extend "http://ns.adobe.com/Extensibility/1.0/">
	<!ENTITY ns_ai "http://ns.adobe.com/AdobeIllustrator/10.0/">
	<!ENTITY ns_graphs "http://ns.adobe.com/Graphs/1.0/">
]>
<svg version="1.1" id="Layer_1" xmlns:x="&ns_extend;" xmlns:i="&ns_ai;" xmlns:graph="&ns_graphs;"
	 xmlns="http://www.w3.org/2000/svg" xmlns:xlink="http://www.w3.org/1999/xlink" xmlns:a="http://ns.adobe.com/AdobeSVGViewerExtensions/3.0/"
	 x="0px" y="0px" width="64px" height="64px" viewBox="0 0 64 64" enable-background="new 0 0 64 64" xml:space="preserve">
<linearGradient id="SVGID_1_" gradientUnits="userSpaceOnUse" x1="32.0005" y1="62" x2="32.0005" y2="2.0005">
	<stop  offset="0" style="stop-color:#FFA027"/>
	<stop  offset="0.2723" style="stop-color:#FFC151"/>
	<stop  offset="0.7633" style="stop-color:#FFC93F"/>
	<stop  offset="1" style="stop-color:#FFE261"/>
	<a:midPointStop  offset="0" style="stop-color:#FFA027"/>
	<a:midPointStop  offset="0.5" style="stop-color:#FFA027"/>
	<a:midPointStop  offset="0.2723" style="stop-color:#FFC151"/>
	<a:midPointStop  offset="0.5" style="stop-color:#FFC151"/>
	<a:midPointStop  offset="0.7633" style="stop-color:#FFC93F"/>
	<a:midPointStop  offset="0.5" style="stop-color:#FFC93F"/>
	<a:midPointStop  offset="1" style="stop-color:#FFE261"/>
</linearGradient>
<circle fill="url(#SVGID_1_)" cx="31.999" cy="32" r="30"/>
<circle fill="#302C3B" cx="22" cy="26.5" r="4.5"/>
<ellipse fill="#302C3B" cx="43" cy="26.5" rx="4.5" ry="6"/>
<path fill="#917524" d="M12.386,17.705c7.518-3.539,13.434,2.342,16.143,0.504c0.682-0.465,1.475,1.092,0.818,1.592
	c-3.527,2.688-10.111-2.521-15.701,0.9C12.878,21.17,11.558,18.094,12.386,17.705z"/>
<path fill="#917524" d="M35.741,14.291c7.889-3.27,12.115-7.883,17.061-1.803c0.547,0.672-2.049,2.186-2.615,1.527
	c-2.914-3.386-6.456-0.085-13.719,1.889C35.552,16.154,35.153,14.535,35.741,14.291z"/>
<path fill="#6E8189" d="M59.486,29c0,1.333-2,1.333-2,0S59.486,27.667,59.486,29z"/>
<path fill="#99A8AE" d="M59.486,31c0,1.333-2,1.333-2,0S59.486,29.667,59.486,31z"/>
<path fill="#6E8189" d="M59.486,33c0,1.333-2,1.333-2,0S59.486,31.667,59.486,33z"/>
<path fill="#99A8AE" d="M59.486,35c0,1.333-2,1.333-2,0S59.486,33.667,59.486,35z"/>
<path fill="#6E8189" d="M59.486,37c0,1.333-2,1.333-2,0S59.486,35.667,59.486,37z"/>
<path fill="#99A8AE" d="M59.486,39c0,1.333-2,1.333-2,0S59.486,37.667,59.486,39z"/>
<path fill="#6E8189" d="M59.486,41c0,1.333-2,1.333-2,0S59.486,39.667,59.486,41z"/>
<path fill="#99A8AE" d="M59.486,43c0,1.333-2,1.333-2,0S59.486,41.667,59.486,43z"/>
<path fill="#6E8189" d="M59.486,45c0,1.333-2,1.333-2,0S59.486,43.667,59.486,45z"/>
<path fill="#99A8AE" d="M59.486,47c0,1.333-2,1.333-2,0S59.486,45.667,59.486,47z"/>
<path fill="#6E8189" d="M59.486,49c0,1.333-2,1.333-2,0S59.486,47.667,59.486,49z"/>
<path fill="#99A8AE" d="M59.486,51c0,1.333-2,1.333-2,0S59.486,49.667,59.486,51z"/>
<path fill="#6E8189" d="M59.486,53c0,1.333-2,1.333-2,0S59.486,51.667,59.486,53z"/>
<path fill="#99A8AE" d="M59.486,55c0,1.333-2,1.333-2,0S59.486,53.667,59.486,55z"/>
<path fill="#6E8189" d="M59.486,57c0,1.333-2,1.333-2,0S59.486,55.667,59.486,57z"/>
<path fill="#99A8AE" d="M59.486,59c0,1.333-2,1.333-2,0S59.486,57.667,59.486,59z"/>
<path fill="#6E8189" d="M59.486,61c0,1.333-2,1.333-2,0S59.486,59.667,59.486,61z"/>
<path fill="#445159" d="M56.11,29.546c-0.128,0-0.128-6.092,0-6.092C59.509,23.454,59.509,29.546,56.11,29.546z"/>
<linearGradient id="SVGID_2_" gradientUnits="userSpaceOnUse" x1="44.9277" y1="37.9541" x2="44.9277" y2="15.0464">
	<stop  offset="0" style="stop-color:#FFFFFF;stop-opacity:0"/>
	<stop  offset="1" style="stop-color:#FFFFFF"/>
	<a:midPointStop  offset="0" style="stop-color:#FFFFFF;stop-opacity:0"/>
	<a:midPointStop  offset="0.5" style="stop-color:#FFFFFF;stop-opacity:0"/>
	<a:midPointStop  offset="1" style="stop-color:#FFFFFF"/>
</linearGradient>
<path opacity="0.8" fill="url(#SVGID_2_)" d="M44.928,37.954c-6.329,0-11.454-5.127-11.454-11.454s5.125-11.454,11.454-11.454
	c6.324,0,11.455,5.127,11.455,11.454S51.252,37.954,44.928,37.954z"/>
<path fill="#4E5E67" d="M44.928,14.5c-6.631,0-12,5.371-12,12s5.369,12,12,12c6.624,0,12-5.371,12-12S51.552,14.5,44.928,14.5z
	 M44.928,37.409c-6.027,0-10.909-4.884-10.909-10.909S38.9,15.591,44.928,15.591c6.022,0,10.909,4.884,10.909,10.909
	S50.95,37.409,44.928,37.409z"/>
<path fill="#302C3B" d="M34.107,46H23.895c-2.524,0-2.524-4,0-4h10.213C36.631,42,36.631,46,34.107,46z"/>
</svg>
