<?xml version="1.0" encoding="utf-8"?>
<!-- Generator: Adobe Illustrator 19.0.0, SVG Export Plug-In . SVG Version: 6.00 Build 0)  -->
<svg version="1.1" id="Layer_1" xmlns="http://www.w3.org/2000/svg" xmlns:xlink="http://www.w3.org/1999/xlink" x="0px" y="0px"
	 width="64px" height="64px" viewBox="0 0 64 64" enable-background="new 0 0 64 64" xml:space="preserve">
<path fill="#946346" d="M8.682,27.566c-7.797-1.406-1.707,20.396,4.397,14.383C15.907,39.162,12.329,28.225,8.682,27.566z"/>
<path fill="#946346" d="M55.319,27.566c-3.648,0.659-7.227,11.596-4.396,14.383C57.028,47.963,63.112,26.16,55.319,27.566z"/>
<path fill="#B88A6F" d="M32.001,2.002C15.878,2.002,8.11,14.2,9.083,31.16c0.195,3.413,2.309,14.544,4.307,18.536
	c2.045,4.084,8.879,10.383,13.068,11.687c2.646,0.823,8.44,0.823,11.084,0c4.189-1.304,11.027-7.603,13.07-11.687
	c2-3.992,4.113-15.123,4.307-18.536C55.893,14.2,48.126,2.002,32.001,2.002z"/>
<path fill="#80553C" d="M32.001,48.176c-3.627-1.067-9,0.505-9,0.505c2.047,2.229,3.547,5.121,9,5.121c6.248,0,7.311-3.282,9-5.121
	C41.001,48.681,35.624,47.103,32.001,48.176z"/>
<path fill="#FFFFFF" d="M24.374,49.057c3.801,3.19,11.48,3.21,15.301,0C35.624,49.231,28.454,49.233,24.374,49.057z"/>
<path fill="#FFFFFF" d="M49.262,32.473c-2.154,5.64-10.918,4.813-12.525,0.866C37.956,26.999,48.079,26.456,49.262,32.473z"/>
<path fill="#FFFFFF" d="M14.737,32.473c2.154,5.64,10.922,4.813,12.525,0.866C26.044,26.996,15.924,26.454,14.737,32.473z"/>
<path fill="#80553C" d="M50.157,25.684c-3.688-1.83-10.744-1.919-13.373-0.644c-0.563,0.247-0.191,1.982,0.283,1.816
	c3.664-1.357,9.572-1.39,13.002,0.117C50.526,27.168,50.715,25.94,50.157,25.684z"/>
<path fill="#80553C" d="M13.844,25.684c3.688-1.83,10.742-1.919,13.373-0.644c0.563,0.247,0.191,1.982-0.281,1.816
	c-3.67-1.357-9.572-1.39-13.004,0.117C13.475,27.168,13.288,25.94,13.844,25.684z"/>
<path fill="#946346" d="M37.001,42.179c0,3.254-9.998,3.254-9.998,0C27.003,41.432,37.001,41.432,37.001,42.179z"/>
<path fill="#875B49" d="M32.001,2C20.909,2,14.208,5.664,11.317,4.258c0,0-0.314,1.892,0.818,3.123c0,0-1.195,1.033-3.125-0.71
	c-1.838,5.968,3.617,9.426,22.99,9.426c19.373,0,14.744-4.718,24.27,3.567C55.337,9.452,48.846,2,32.001,2z"/>
<path fill="#6B4435" d="M40.204,10.904c-10.666,3.937-14.566-3.166-24.627-3.852c4.785,2.26,7.123,5.738,11.053,8.249
	c-8.555-2.865-14.832-7.789-15.309-11.025c0,0-1.428,4.725,4.217,8.255c-5.396,0.5-6.523-5.841-6.523-5.841
	c-2.115,3.398-2.365,12.651-0.963,21.533C8.655,36.314,8.038,39.345,9.34,43.71C13.657,58.156,22.633,61.994,32.001,62
	c9.367-0.006,18.344-3.844,22.658-18.29c1.324-4.434,0.666-7.483,1.318-15.863C58.397,10.894,50.132,7.239,40.204,10.904z
	 M34.973,56.067c-1.299-0.535-1.723-1.607-1.723-1.607h-2.5c0,0-0.424,1.072-1.723,1.607c-2.988,1.213-8.742-7.291-7.117-7.826
	c2.072-0.683,5.684-0.919,10.09-0.92c4.404,0.001,8.016,0.237,10.09,0.92C43.715,48.776,37.962,57.28,34.973,56.067z M45.676,49.36
	c0,0-0.824-2.043-3.012-3.123c-2.75-1.361-5.225-1.028-10.664-1.02c-5.441-0.009-7.916-0.342-10.664,1.02
	c-2.188,1.08-3.012,3.123-3.012,3.123c-9.119-6.037-9.428-18.516-7.543-23.429c5.188-13.506,1.85-7.835,21.221-7.835
	c19.373,0,15.875-5.171,21.221,7.835C55.051,30.379,54.739,43.36,45.676,49.36z"/>
<path fill="#613F34" d="M38.973,31.872c0,4.949,7.16,4.949,7.16,0C46.133,27.278,38.973,27.278,38.973,31.872z"/>
<path fill="#7D5037" d="M39.682,33.456c0,2.838,5.742,2.838,5.742,0C45.424,30.821,39.682,30.821,39.682,33.456z"/>
<path fill="#1A1626" d="M41.067,31.95c0,2.055,2.973,2.055,2.973,0C44.04,30.044,41.067,30.044,41.067,31.95z"/>
<path fill="#AB968C" d="M40.053,31.35c0,1.037,1.5,1.037,1.5,0C41.553,30.388,40.053,30.388,40.053,31.35z"/>
<path fill="#613F34" d="M17.87,31.871c0,4.949,7.158,4.949,7.158,0C25.028,27.277,17.87,27.277,17.87,31.871z"/>
<path fill="#7D5037" d="M18.577,33.454c0,2.838,5.744,2.838,5.744,0C24.321,30.82,18.577,30.82,18.577,33.454z"/>
<path fill="#1A1626" d="M19.964,31.949c0,2.054,2.971,2.054,2.971,0C22.934,30.042,19.964,30.042,19.964,31.949z"/>
<path fill="#AB968C" d="M18.948,31.348c0,1.038,1.5,1.038,1.5,0C20.448,30.386,18.948,30.386,18.948,31.348z"/>
<path fill="#946346" d="M49.262,32.431c0-6.056-12.525-6.056-12.525,0.959C38.526,27.635,47.473,27.635,49.262,32.431z"/>
<path fill="#946346" d="M14.737,32.431c0-6.056,12.525-6.056,12.525,0.957C25.475,27.631,16.526,27.631,14.737,32.431z"/>
</svg>
