<?xml version="1.0" encoding="utf-8"?>
<!-- Generator: Adobe Illustrator 15.0.0, SVG Export Plug-In . SVG Version: 6.00 Build 0)  -->
<!DOCTYPE svg PUBLIC "-//W3C//DTD SVG 1.1//EN" "http://www.w3.org/Graphics/SVG/1.1/DTD/svg11.dtd" [
	<!ENTITY ns_flows "http://ns.adobe.com/Flows/1.0/">
	<!ENTITY ns_extend "http://ns.adobe.com/Extensibility/1.0/">
	<!ENTITY ns_ai "http://ns.adobe.com/AdobeIllustrator/10.0/">
	<!ENTITY ns_graphs "http://ns.adobe.com/Graphs/1.0/">
]>
<svg version="1.1" id="Layer_1" xmlns:x="&ns_extend;" xmlns:i="&ns_ai;" xmlns:graph="&ns_graphs;"
	 xmlns="http://www.w3.org/2000/svg" xmlns:xlink="http://www.w3.org/1999/xlink" xmlns:a="http://ns.adobe.com/AdobeSVGViewerExtensions/3.0/"
	 x="0px" y="0px" width="64px" height="64px" viewBox="0 0 64 64" enable-background="new 0 0 64 64" xml:space="preserve">
<rect x="17.025" y="31.799" fill="#AD883D" width="29.949" height="22.832"/>
<polygon fill="#DBA97F" points="23.582,50.029 32,57.242 40.422,50.029 40.422,42.34 23.582,42.34 "/>
<path fill="#529320" d="M54.277,52.943c-0.086-0.041-0.104-0.336,0-0.424c-3.512-1.289-7.008-2.193-10.166-2.848
	c-0.941-4.15,0.971-6.018,0.971-6.018C34.818,43.654,32,57.242,32,57.242s-2.818-13.588-13.082-13.588c0,0,1.912,1.867,0.971,6.018
	c-3.158,0.654-6.654,1.559-10.164,2.848c0.102,0.088,0.084,0.383,0,0.424C5.822,54.887,5,62,5,62h54
	C59,62,58.18,54.887,54.277,52.943z"/>
<path fill="#297124" d="M54.277,52.52C49.709,57.393,51.432,62,51.432,62s-0.316-5.258,3.02-8.963
	C54.561,52.76,54.445,52.533,54.277,52.52z"/>
<path fill="#297124" d="M34.854,59.439c0,0,6.598-5.154,9.248-9.775C41.988,55.26,34.854,59.439,34.854,59.439z"/>
<path fill="#297124" d="M9.725,52.52c4.566,4.873,2.844,9.48,2.844,9.48s0.316-5.258-3.021-8.963
	C9.439,52.76,9.555,52.533,9.725,52.52z"/>
<path fill="#297124" d="M29.146,59.439c0,0-6.598-5.154-9.248-9.775C22.012,55.26,29.146,59.439,29.146,59.439z"/>
<path fill="#C49A45" d="M33.688,58.598c0,3.283-3.375,3.283-3.375,0C30.313,55.553,33.688,55.553,33.688,58.598z"/>
<path fill="#E5BC5E" d="M33.131,58.621c0,2.463-2.25,2.463-2.25,0C30.881,56.338,33.131,56.338,33.131,58.621z"/>
<path fill="#C49A45" d="M46.986,19.707c0,0-0.533,16.588-1.795,21.832c-2.076,8.621,0.66,12.703,0.902,20.42
	c2.074-5.971,3.871-13.092,2.668-23.994c-0.777-7.031,1.408-9.65,0.582-18.258C49.277,19.006,46.986,19.707,46.986,19.707z"/>
<path fill="#C49A45" d="M17.014,19.707c0,0,0.533,16.588,1.797,21.832c2.076,8.621-0.66,12.703-0.904,20.42
	c-2.072-5.971-3.871-13.092-2.666-23.994c0.777-7.031-1.408-9.65-0.582-18.258C14.725,19.006,17.014,19.707,17.014,19.707z"/>
<path fill="#DBA97F" d="M11.285,17.988c-1.945-0.33,3.035,20.932,6.92,17.314C20.34,33.314,14.037,18.459,11.285,17.988z"/>
<path fill="#DBA97F" d="M52.715,17.988c-2.752,0.471-9.055,15.326-6.92,17.314C49.682,38.918,54.66,17.658,52.715,17.988z"/>
<path fill="#E81C27" d="M31.898,16.537C32.006,16.537,32.006,16.537,31.898,16.537C32.006,16.537,32.006,16.537,31.898,16.537z"/>
<path fill="#FFD68C" d="M32.002,2C19.549,2,14.23,8.59,14.23,17.609h35.535C49.766,8.59,44.445,2,32.002,2z"/>
<path fill="#FCD5B2" d="M31.998,9.002c-11.824,0-17.521,2.945-16.807,15.381c0.143,2.504,1.693,10.666,3.158,13.594
	c1.498,2.994,6.512,7.613,9.584,8.57c1.939,0.604,6.188,0.604,8.127,0c3.072-0.957,8.086-5.576,9.586-8.57
	c1.465-2.928,3.016-11.09,3.158-13.594C49.52,11.947,43.822,9.002,31.998,9.002z"/>
<path fill="#DBA97F" d="M35.664,32.463c0,2.387-7.332,2.387-7.332,0C28.332,31.916,35.664,31.916,35.664,32.463z"/>
<path fill="#C49A45" d="M32,7.529C25.293,5.053,9.379,4.453,15.641,27.75c0.373-2.75-0.371-6.357,0.799-9.201
	C20.068,9.725,21.625,9.424,32,12.805c10.377-3.381,11.934-3.08,15.561,5.744c1.17,2.844,0.426,6.451,0.799,9.201
	C54.621,4.453,38.707,5.053,32,7.529z"/>
<path fill="#FFFFFF" d="M44.656,25.346c-1.58,4.135-8.008,3.529-9.186,0.635C36.365,21.33,43.789,20.934,44.656,25.346z"/>
<path fill="#FFFFFF" d="M19.338,25.346c1.58,4.135,8.01,3.529,9.186,0.635C27.629,21.328,20.207,20.932,19.338,25.346z"/>
<path fill="#CC9D76" d="M45.313,20.367c-2.705-1.342-7.879-1.408-9.807-0.473c-0.412,0.182-0.141,1.455,0.207,1.332
	c2.688-0.994,7.02-1.018,9.535,0.086C45.582,21.455,45.723,20.555,45.313,20.367z"/>
<path fill="#CC9D76" d="M18.684,20.367c2.703-1.342,7.877-1.408,9.807-0.473c0.412,0.182,0.141,1.455-0.207,1.332
	c-2.691-0.994-7.02-1.018-9.537,0.086C18.412,21.455,18.273,20.555,18.684,20.367z"/>
<path fill="#613F34" d="M37.111,24.904c0,3.629,5.25,3.629,5.25,0C42.361,21.535,37.111,21.535,37.111,24.904z"/>
<path fill="#7D5037" d="M37.631,26.066c0,2.08,4.211,2.08,4.211,0C41.842,24.135,37.631,24.135,37.631,26.066z"/>
<path fill="#1A1626" d="M38.646,24.961c0,1.508,2.18,1.508,2.18,0C40.826,23.564,38.646,23.564,38.646,24.961z"/>
<path fill="#AB968C" d="M37.902,24.521c0,0.762,1.102,0.762,1.102,0C39.004,23.816,37.902,23.816,37.902,24.521z"/>
<path fill="#613F34" d="M21.635,24.904c0,3.629,5.25,3.629,5.25,0C26.885,21.535,21.635,21.535,21.635,24.904z"/>
<path fill="#7D5037" d="M22.154,26.064c0,2.082,4.211,2.082,4.211,0C26.365,24.133,22.154,24.133,22.154,26.064z"/>
<path fill="#1A1626" d="M23.17,24.961c0,1.506,2.18,1.506,2.18,0C25.35,23.563,23.17,23.563,23.17,24.961z"/>
<path fill="#AB968C" d="M22.426,24.521c0,0.76,1.1,0.76,1.1,0C23.525,23.814,22.426,23.814,22.426,24.521z"/>
<path fill="#DBA97F" d="M44.656,25.314c0-4.441-9.186-4.441-9.186,0.703C36.783,21.797,43.344,21.797,44.656,25.314z"/>
<path fill="#DBA97F" d="M19.338,25.314c0-4.441,9.186-4.441,9.186,0.701C27.213,21.795,20.65,21.795,19.338,25.314z"/>
<path fill="#CC9D76" d="M31.998,36.861c-2.66-0.783-6.6,0.369-6.6,0.369c1.5,1.635,2.6,3.756,6.6,3.756
	c4.582,0,5.359-2.406,6.6-3.756C38.598,37.23,34.654,36.074,31.998,36.861z"/>
<path fill="#FFFFFF" d="M26.404,37.508c2.787,2.34,8.418,2.354,11.221,0C34.654,37.635,29.396,37.637,26.404,37.508z"/>
</svg>
