<?xml version="1.0" encoding="utf-8"?>
<!-- Generator: Adobe Illustrator 15.0.0, SVG Export Plug-In . SVG Version: 6.00 Build 0)  -->
<!DOCTYPE svg PUBLIC "-//W3C//DTD SVG 1.1//EN" "http://www.w3.org/Graphics/SVG/1.1/DTD/svg11.dtd" [
	<!ENTITY ns_flows "http://ns.adobe.com/Flows/1.0/">
	<!ENTITY ns_extend "http://ns.adobe.com/Extensibility/1.0/">
	<!ENTITY ns_ai "http://ns.adobe.com/AdobeIllustrator/10.0/">
	<!ENTITY ns_graphs "http://ns.adobe.com/Graphs/1.0/">
]>
<svg version="1.1" id="Layer_1" xmlns:x="&ns_extend;" xmlns:i="&ns_ai;" xmlns:graph="&ns_graphs;"
	 xmlns="http://www.w3.org/2000/svg" xmlns:xlink="http://www.w3.org/1999/xlink" xmlns:a="http://ns.adobe.com/AdobeSVGViewerExtensions/3.0/"
	 x="0px" y="0px" width="64px" height="64px" viewBox="0 0 64 64" enable-background="new 0 0 64 64" xml:space="preserve">
<path fill="#AD883D" d="M43.408,9.716c7.919,48.295,7.193,47.262-9.475,47.262C42.416,49.617,25.487,9.059,43.408,9.716z"/>
<path fill="#C49A45" d="M47.264,8.968c8.447,33.383-0.019,46.463-3.634,48.01h-4.071C51.429,46.064,31.874,8.246,47.264,8.968z"/>
<path fill="#FFD68C" d="M47.669,26.907c2.446,8.487,0.026,25.903-5.039,30.071c5.614,0,9.033-11.041,10.7-26.228
	C55.413,11.773,43.311,11.763,47.669,26.907z"/>
<path fill="#AD883D" d="M20.551,9.716c-7.918,48.295-7.193,47.262,9.475,47.262C21.544,49.617,38.473,9.059,20.551,9.716z"/>
<path fill="#C49A45" d="M16.696,8.968c-8.447,33.383,0.019,46.463,3.634,48.01h4.071C12.531,46.064,32.086,8.246,16.696,8.968z"/>
<path fill="#FFD68C" d="M16.291,26.907c-2.447,8.487-0.025,25.903,5.039,30.071c-5.614,0-9.033-11.041-10.7-26.228
	C8.547,11.773,20.648,11.763,16.291,26.907z"/>
<path fill="#FFD68C" d="M31.958,2c-12.756,0-20.745,9.3-20.745,19.257l0.965,6.162h39.604l0.966-6.162
	C52.747,11.914,44.455,2,31.958,2z"/>
<polygon fill="#E6B045" points="24.518,51.018 32,57.637 39.486,51.018 39.486,43.965 24.518,43.965 "/>
<path fill="#529320" d="M51.801,53.691c-0.074-0.037-0.09-0.309,0-0.389c-3.119-1.184-6.226-2.012-9.035-2.611
	c-0.837-3.807,0.864-5.521,0.864-5.521C34.506,45.17,32,57.637,32,57.637S29.496,45.17,20.372,45.17c0,0,1.7,1.715,0.863,5.521
	c-2.81,0.6-5.915,1.428-9.036,2.611c0.091,0.08,0.076,0.352,0,0.389C8.73,55.475,8,62,8,62h48C56,62,55.27,55.475,51.801,53.691z"/>
<path fill="#297124" d="M51.801,53.303C47.742,57.773,49.273,62,49.273,62s-0.281-4.824,2.685-8.223
	C52.055,53.523,51.951,53.314,51.801,53.303z"/>
<path fill="#297124" d="M34.537,59.65c0,0,5.864-4.727,8.221-8.969C40.879,55.816,34.537,59.65,34.537,59.65z"/>
<path fill="#297124" d="M12.199,53.303C16.26,57.773,14.729,62,14.729,62s0.28-4.824-2.686-8.223
	C11.947,53.523,12.049,53.314,12.199,53.303z"/>
<path fill="#297124" d="M29.463,59.65c0,0-5.863-4.727-8.219-8.969C23.122,55.816,29.463,59.65,29.463,59.65z"/>
<path fill="#C49A45" d="M33.5,58.877c0,3.014-3,3.014-3,0C30.5,56.086,33.5,56.086,33.5,58.877z"/>
<path fill="#E5BC5E" d="M33.006,58.898c0,2.262-2,2.262-2,0C31.006,56.805,33.006,56.805,33.006,58.898z"/>
<path fill="#E6B045" d="M10.264,17.988c-1.945-0.33,3.035,20.932,6.92,17.314C19.318,33.314,13.017,18.459,10.264,17.988z"/>
<path fill="#E6B045" d="M53.694,17.988c-2.752,0.471-9.055,15.326-6.92,17.314C50.66,38.918,55.639,17.658,53.694,17.988z"/>
<path fill="#FFCC66" d="M31.978,7.8c-3.91,8.022-17.202,7.455-16.503,19.611c0.143,2.444,0.822,5.97,1.661,8.989
	C18.877,42.678,28.064,49,31.977,49c3.911,0,13.1-6.322,14.841-12.6c0.839-3.02,1.519-6.545,1.663-8.989
	C49.178,15.255,37.87,17.316,31.978,7.8z"/>
<path fill="#D47706" d="M31.978,38.973c-2.822-1.24-2.844-0.051-7.2,0.242c1.636,1.855,2.839,4.244,7.198,4.244
	c5.003,0,5.849-2.711,7.203-4.244C34.819,38.922,34.8,37.732,31.978,38.973z"/>
<path fill="#FFFFFF" d="M26.085,39.678c2.844,2.959,8.977,2.92,11.784,0C33.491,40.148,30.465,40.148,26.085,39.678z"/>
<path fill="#594640" d="M44.771,22.995c-2.616-1.56-7.308-1.75-9.165-0.688c-0.394,0.214-0.287,1.341,0.053,1.2
	c2.648-1.104,6.682-1.158,9.168,0.117C45.16,23.794,45.167,23.222,44.771,22.995z"/>
<path fill="#594640" d="M19.184,22.995c2.615-1.56,7.307-1.75,9.166-0.688c0.394,0.214,0.289,1.341-0.054,1.2
	c-2.648-1.104-6.68-1.159-9.167,0.117C18.795,23.794,18.788,23.222,19.184,22.995z"/>
<path fill="#E6B045" d="M35.577,34.73c0,2.342-7.2,2.342-7.2,0C28.377,34.193,35.577,34.193,35.577,34.73z"/>
<path fill="#FFFFFF" d="M44.519,27.742c-1.552,4.06-7.861,3.465-9.017,0.623C36.378,23.8,43.665,23.409,44.519,27.742z"/>
<path fill="#613F34" d="M37.083,27.301c0,3.596,5.2,3.596,5.2,0C42.283,23.963,37.083,23.963,37.083,27.301z"/>
<path fill="#7D5037" d="M37.597,28.451c0,2.063,4.172,2.063,4.172,0C41.769,26.537,37.597,26.537,37.597,28.451z"/>
<path fill="#1A1626" d="M38.604,27.357c0,1.492,2.159,1.492,2.159,0C40.763,25.973,38.604,25.973,38.604,27.357z"/>
<path fill="#AB968C" d="M37.866,26.922c0,0.754,1.09,0.754,1.09,0C38.956,26.222,37.866,26.222,37.866,26.922z"/>
<path fill="#45332C" d="M44.519,27.711c0-4.361-9.017-4.361-9.017,0.691C36.788,24.256,43.231,24.256,44.519,27.711z"/>
<path fill="#FFFFFF" d="M19.437,27.742c1.552,4.06,7.862,3.466,9.019,0.623C27.579,23.8,20.291,23.409,19.437,27.742z"/>
<path fill="#613F34" d="M21.672,27.307c0,3.596,5.2,3.596,5.2,0C26.872,23.969,21.672,23.969,21.672,27.307z"/>
<path fill="#7D5037" d="M22.186,28.457c0,2.062,4.172,2.062,4.172,0C26.357,26.543,22.186,26.543,22.186,28.457z"/>
<path fill="#1A1626" d="M23.192,27.363c0,1.492,2.159,1.492,2.159,0C25.352,25.978,23.192,25.978,23.192,27.363z"/>
<path fill="#AB968C" d="M22.455,26.927c0,0.755,1.09,0.755,1.09,0C23.545,26.227,22.455,26.227,22.455,26.927z"/>
<path fill="#45332C" d="M19.437,27.711c0-4.361,9.019-4.361,9.019,0.689C27.168,24.255,20.725,24.255,19.437,27.711z"/>
<path fill="#C49A45" d="M31.979,4.999c-1.019,5.84-17.192,9.71-16.529,20.816c2.169-10.076,16.529-13.07,16.529-13.07
	s14.361,2.994,16.53,13.07C49.173,14.709,32.998,10.839,31.979,4.999z"/>
<path fill="#529320" d="M31.591,22.196c-3.893-6.779-12.456-0.546-19.413-6.854c-0.138-0.126-0.428,1.071-0.354,1.14
	c6.512,6.169,14.764,1.638,19.768,8.656C31.93,25.616,32.062,23.018,31.591,22.196z"/>
<path fill="#529320" d="M32.202,25.138c5.003-7.018,13.338-2.486,19.851-8.656c0.072-0.068-0.24-1.266-0.379-1.14
	c-6.957,6.308-15.58,0.075-19.472,6.854C31.73,23.018,31.862,25.616,32.202,25.138z"/>
<path fill="#0FB4D4" d="M34.034,22.702c0,4.051-4.278,4.051-4.278,0C29.756,18.948,34.034,18.948,34.034,22.702z"/>
<path fill="#75D6FF" d="M33.33,22.734c0,3.035-2.851,3.035-2.851,0C30.479,19.916,33.33,19.916,33.33,22.734z"/>
</svg>
