<?xml version="1.0" encoding="utf-8"?>
<!-- Generator: Adobe Illustrator 19.0.0, SVG Export Plug-In . SVG Version: 6.00 Build 0)  -->
<svg version="1.1" id="Layer_1" xmlns="http://www.w3.org/2000/svg" xmlns:xlink="http://www.w3.org/1999/xlink" x="0px" y="0px"
	 width="64px" height="64px" viewBox="0 0 64 64" enable-background="new 0 0 64 64" xml:space="preserve">
<path fill="#302C3B" d="M14.655,23.411c-5,2.434-8.58,10.165-7.027,17.179c0.793-6.45,7.027-7.78,7.027-7.78V23.411z"/>
<path fill="#302C3B" d="M14.005,10.684c-4.58,2.631-8.943,9.165-6.707,17.983c1.125-8.108,6.707-8.991,6.707-8.991V10.684z"/>
<path fill="#302C3B" d="M45.507,12.705l0.99-4.468c4.564,1.703,10.088,7.32,10.809,16.509
	C54.009,16.927,45.507,12.705,45.507,12.705z"/>
<path fill="#302C3B" d="M50.241,14.392l-3.795,4.864c0,0,7.9,10.063,7.383,21.491C58.276,29.148,54.81,19.11,50.241,14.392z"/>
<path fill="#1A1626" d="M17.937,10.643c-8.131,34.904-5.387,36.156,11.73,36.156C20.194,40.172,36.341,10.168,17.937,10.643z"/>
<path fill="#1A1626" d="M45.86,10.641c8.133,34.906,5.387,36.158-11.73,36.158C42.843,41.481,27.456,10.166,45.86,10.641z"/>
<path fill="#302C3B" d="M48.235,25.065c2.512,6.133,0.027,18.723-5.176,21.734c5.768,0,9.277-7.978,10.99-18.955
	C56.189,14.127,43.761,14.12,48.235,25.065z"/>
<path fill="#302C3B" d="M10.394,30.389c2.1,9.906,4.684,16.41,10.342,16.41c-6.309-6.531-5.566-20.308-3.771-23.736
	C26.103,17.621,6.839,13.633,10.394,30.389z"/>
<path fill="#4E5E67" d="M13.513,46.016c2.248-1.508,11.576-5.493,11.576-5.493h13.899c0,0,9.32,3.976,11.553,5.489
	C53.792,48.207,47.921,57.9,47.921,62h-31.84C16.081,57.904,10.251,48.199,13.513,46.016z"/>
<path fill="#4E5E67" d="M19.786,49.574L4.522,47.678C8.026,35.871,32.638,41.959,19.786,49.574z"/>
<path fill="#302C3B" d="M19.731,51.816L5.046,47.623C7.347,40.042,20.702,41.4,19.731,51.816z"/>
<path fill="#99A8AE" d="M19.991,52.367C18.101,41.309,9.521,41.549,4.099,48.174c-0.305,0.371-2.205,4.48-2.094,5.313
	c0.547,4.123,0.133,6.008,2.185,5.461c0.307,2.23,1.883,1.434,2.344,1.529c-0.016,1.998,3.633,1.98,3.717-0.549
	c0.115,2.98,3.762,2.576,3.303-0.129c-0.897-5.283,0.363-8.686,2.322-7.174c1.826,1.408-0.432,5.049,1.937,6.854
	C19.315,60.623,20.132,53.182,19.991,52.367z"/>
<path fill="#6E8189" d="M8.829,61.81c0,0,1.305-0.191,1.426-1.799c-1.01-4.898-0.608-5.496,0.721-9.383
	C7.126,56.771,10.897,60.139,8.829,61.81z"/>
<path fill="#6E8189" d="M5.046,60.433c0,0,0.74,0.318,1.488,0.043c-0.715-6.217,0.004-7.281,1.492-10.373
	C3.73,55.433,7.364,60.365,5.046,60.433z"/>
<path fill="#6E8189" d="M2.933,58.801c0,0,0.465,0.498,1.258,0.146c-1.141-5.975,0.584-6.32,1.246-8.988
	C1.706,55.207,4.827,59.066,2.933,58.801z"/>
<path fill="#4E5E67" d="M44.212,49.574l15.266-1.896C55.972,35.871,31.362,41.959,44.212,49.574z"/>
<path fill="#302C3B" d="M44.267,51.816l14.685-4.193C56.653,40.042,43.298,41.4,44.267,51.816z"/>
<path fill="#99A8AE" d="M44.007,52.367c1.893-11.058,10.471-10.818,15.894-4.193c0.305,0.371,2.205,4.48,2.094,5.313
	c-0.547,4.123-0.133,6.008-2.186,5.461c-0.307,2.23-1.883,1.434-2.344,1.529c0.016,1.998-3.635,1.98-3.717-0.549
	c-0.117,2.98-3.762,2.576-3.303-0.129c0.895-5.283-0.363-8.686-2.324-7.174c-1.824,1.408,0.432,5.049-1.936,6.854
	C44.685,60.623,43.868,53.182,44.007,52.367z"/>
<path fill="#6E8189" d="M55.171,61.81c0,0-1.307-0.191-1.428-1.799c1.01-4.898,0.608-5.496-0.721-9.383
	C56.874,56.771,53.101,60.139,55.171,61.81z"/>
<path fill="#6E8189" d="M58.952,60.433c0,0-0.74,0.318-1.486,0.043c0.713-6.217-0.004-7.281-1.494-10.373
	C60.269,55.433,56.636,60.365,58.952,60.433z"/>
<path fill="#6E8189" d="M61.067,58.801c0,0-0.467,0.498-1.258,0.146c1.141-5.975-0.586-6.32-1.248-8.988
	C62.294,55.207,59.173,59.066,61.067,58.801z"/>
<path fill="#6E8189" d="M25.001,41.998c0,6.75,14,6.75,14,0v-7h-14V41.998z"/>
<path fill="#99A8AE" d="M31.999,4.254c-10.836,0-16.053,8.824-15.402,20.17c0.135,2.281,0.767,5.57,1.551,8.391
	c1.625,5.859,10.201,11.759,13.852,11.759s12.227-5.9,13.85-11.759c0.785-2.82,1.42-6.109,1.555-8.391
	C48.054,13.079,42.837,4.254,31.999,4.254z"/>
<path fill="#302C3B" d="M43.94,20.301c-2.441-1.453-6.82-1.633-8.555-0.641c-0.365,0.201-0.268,1.252,0.051,1.121
	c2.471-1.029,6.234-1.08,8.555,0.109C44.304,21.047,44.31,20.514,43.94,20.301z"/>
<path fill="#302C3B" d="M20.06,20.301c2.441-1.453,6.818-1.633,8.555-0.641c0.367,0.201,0.27,1.252-0.051,1.121
	c-2.473-1.029-6.234-1.082-8.555,0.109C19.696,21.047,19.689,20.514,20.06,20.301z"/>
<path fill="#6E8189" d="M35.358,31.256c0,2.185-6.719,2.185-6.719,0C28.64,30.752,35.358,30.752,35.358,31.256z"/>
<path fill="#302C3B" d="M44.106,5.832c-7.598,7.785-0.346,8.287,4.129,19.232c2.512,6.133,4.102,13.756,5.814,2.779
	C56.189,14.127,47.968,4.688,44.106,5.832z"/>
<path fill="#302C3B" d="M25.456,2.85C15.821,5.118,6.839,13.633,10.394,30.389c2.1,9.906,4.775-3.898,6.57-7.326
	c9.139-5.441,24.768-9.561,27.143-17.23C45.314,4.061,35.099,0.325,25.456,2.85z"/>
<path fill="#1A1626" d="M18.073,15.055c4.074-0.826,23.566-1.215,26.033-9.223C39.501,9.502,34.73,10.502,18.073,15.055z"/>
<path fill="#1A1626" d="M11.05,27.795c6.834-9.123,29.226-8.117,33.057-21.963C36.671,17.454,12.917,19.024,11.05,27.795z"/>
<path fill="#1A1626" d="M41.855,7.729c-1.766,2.781,4.365-1.303,10.971,16.6C51.198,13.862,45.614,6.657,41.855,7.729z"/>
<path fill="#1A1626" d="M36.409,39.273c0,1.559-1.973,2.13-4.406,2.13s-4.404-0.571-4.404-2.13
	C27.599,33.294,36.409,33.294,36.409,39.273z"/>
<path fill="#F46C60" d="M35.694,40.154c0,1.559-1.654,2.13-3.691,2.13c-2.037,0-3.689-0.571-3.689-2.13
	C28.314,37.701,35.694,37.701,35.694,40.154z"/>
<path fill="#E03636" d="M32.003,40.522l0.586-2.184c-0.389-0.028-0.783-0.028-1.17,0L32.003,40.522z"/>
<path fill="#6E8189" d="M37.69,22.221c-5.213,1.603-2.051,8.942,3.162,7.339C46.065,27.957,42.903,20.618,37.69,22.221z"/>
<path fill="#FCC7C3" d="M35.683,25.344c0,4,6.973,4,6.973,0C42.655,22.344,35.683,22.344,35.683,25.344z"/>
<path fill="#613F34" d="M36.968,25.27c0,2.764,4,2.764,4,0C40.968,22.702,36.968,22.702,36.968,25.27z"/>
<path fill="#7D5037" d="M37.364,26.156c0,1.584,3.207,1.584,3.207,0C40.571,24.684,37.364,24.684,37.364,26.156z"/>
<path fill="#1A1626" d="M38.138,25.313c0,1.147,1.66,1.147,1.66,0C39.798,24.249,38.138,24.249,38.138,25.313z"/>
<path fill="#AB968C" d="M37.571,24.977c0,0.581,0.838,0.581,0.838,0C38.409,24.441,37.571,24.441,37.571,24.977z"/>
<path fill="#4E5E67" d="M42.655,25.348c0-0.001,0-0.003,0-0.004c0-4-6.973-4-6.973,0c0,0.002,0,0.003,0,0.004
	C37.106,23.344,40.968,23.344,42.655,25.348z"/>
<path fill="#6E8189" d="M26.319,22.221c-5.215-1.603-8.377,5.736-3.166,7.339C28.368,31.163,31.53,23.824,26.319,22.221z"/>
<path fill="#FCC7C3" d="M21.353,25.344c0-3,6.973-3,6.973,0C28.325,29.344,21.353,29.344,21.353,25.344z"/>
<path fill="#613F34" d="M23.04,25.27c0,2.764,4,2.764,4,0C27.04,22.702,23.04,22.702,23.04,25.27z"/>
<path fill="#7D5037" d="M23.435,26.154c0,1.585,3.209,1.585,3.209,0C26.644,24.683,23.435,24.683,23.435,26.154z"/>
<path fill="#1A1626" d="M24.208,25.313c0,1.147,1.662,1.147,1.662,0C25.87,24.248,24.208,24.248,24.208,25.313z"/>
<path fill="#AB968C" d="M23.642,24.977c0,0.579,0.838,0.579,0.838,0C24.48,24.44,23.642,24.44,23.642,24.977z"/>
<path fill="#4E5E67" d="M28.325,25.348c0-0.001,0-0.003,0-0.004c0-4-6.973-4-6.973,0c0,0.002,0,0.003,0,0.004
	C23.108,24.024,26.569,24.024,28.325,25.348z"/>
</svg>
