<?xml version="1.0" encoding="utf-8"?>
<!-- Generator: Adobe Illustrator 15.0.0, SVG Export Plug-In . SVG Version: 6.00 Build 0)  -->
<!DOCTYPE svg PUBLIC "-//W3C//DTD SVG 1.1//EN" "http://www.w3.org/Graphics/SVG/1.1/DTD/svg11.dtd" [
	<!ENTITY ns_flows "http://ns.adobe.com/Flows/1.0/">
	<!ENTITY ns_extend "http://ns.adobe.com/Extensibility/1.0/">
	<!ENTITY ns_ai "http://ns.adobe.com/AdobeIllustrator/10.0/">
	<!ENTITY ns_graphs "http://ns.adobe.com/Graphs/1.0/">
]>
<svg version="1.1" id="Layer_1" xmlns:x="&ns_extend;" xmlns:i="&ns_ai;" xmlns:graph="&ns_graphs;"
	 xmlns="http://www.w3.org/2000/svg" xmlns:xlink="http://www.w3.org/1999/xlink" xmlns:a="http://ns.adobe.com/AdobeSVGViewerExtensions/3.0/"
	 x="0px" y="0px" width="64px" height="64px" viewBox="0 0 64 64" enable-background="new 0 0 64 64" xml:space="preserve">
<path opacity="0.15" fill="#A6AEB0" d="M2,62h60V28.307c-24.665,9.24-39.114-8.317-60,0V62z"/>
<path opacity="0.15" fill="#A6AEB0" d="M62,62H2V38.427c24.665,8.541,39.114-7.686,60,0V62z"/>
<path fill="#FFCC66" d="M54.271,51.42c-2.323-1.352-11.833-4.604-14.377-5.464c0-2.793,0-4.236,0-4.236H24.104c0,0,0,0.676,0,4.266
	c-2.665,0.901-12.008,4.104-14.316,5.438C5.87,53.682,5,62,5,62h54C59,62,58.176,53.689,54.271,51.42z"/>
<path fill="#E6B045" d="M23.9,42.886c7.361,7.407,8.84,7.401,16.197-0.004L23.9,42.886z"/>
<path fill="#E6B045" d="M14.901,20.749c-5.719-1.031-1.252,14.957,3.225,10.547C20.198,29.251,17.575,21.231,14.901,20.749z"/>
<path fill="#E6B045" d="M49.101,20.749c-2.674,0.482-5.299,8.502-3.223,10.547C50.354,35.706,54.815,19.718,49.101,20.749z"/>
<path fill="#FFCC66" d="M32.001,2.002c-11.824,0-17.521,8.944-16.807,21.382c0.143,2.504,1.693,10.666,3.158,13.594
	c1.498,2.994,6.512,7.613,9.584,8.57c1.939,0.604,6.188,0.604,8.127,0c3.072-0.957,8.086-5.576,9.586-8.57
	c1.465-2.928,3.016-11.09,3.158-13.594C49.522,10.946,43.825,2.002,32.001,2.002z"/>
<path fill="#E6A400" d="M32.001,35.862c-2.66-0.783-6.6,0.369-6.6,0.369c1.5,1.635,2.6,3.756,6.6,3.756
	c4.582,0,5.359-2.406,6.6-3.756C38.601,36.231,34.657,35.075,32.001,35.862z"/>
<path fill="#FFFFFF" d="M26.407,36.509c2.787,2.34,8.418,2.354,11.221,0C34.657,36.636,29.399,36.638,26.407,36.509z"/>
<path fill="#E6B045" d="M35.667,31.464c0,2.387-7.332,2.387-7.332,0C28.335,30.917,35.667,30.917,35.667,31.464z"/>
<path fill="#594640" d="M32.001,2c-8.135,0-13.049,2.688-15.168,1.656c0,0-0.23,1.387,0.6,2.291c0,0-0.877,0.757-2.291-0.521
	c-1.348,4.376,2.652,6.911,16.859,6.911s10.813-3.459,17.797,2.617C49.112,7.464,44.354,2,32.001,2z"/>
<path fill="#453631" d="M38.017,8.528c-7.822,2.889-10.682-2.32-18.061-2.823c3.51,1.657,5.223,4.208,8.105,6.048
	c-6.273-2.1-10.877-5.71-11.227-8.083c0,0-1.047,3.462,3.094,6.052c-3.959,0.367-4.785-4.282-4.785-4.282
	c-2.004,3.22-1.727,13.604,0.5,21.312c0.371-2.75-0.475-3.887,0.797-7.201c3.805-9.904,1.355-5.746,15.563-5.746
	c14.205,0,11.641-3.793,15.561,5.746c1.17,2.844,0.426,4.451,0.799,7.201C53.032,9.374,46.315,5.467,38.017,8.528z"/>
<path fill="#FFFFFF" d="M44.659,24.347c-1.58,4.135-8.008,3.529-9.186,0.635C36.368,20.331,43.792,19.935,44.659,24.347z"/>
<path fill="#FFFFFF" d="M19.341,24.347c1.58,4.135,8.01,3.529,9.186,0.635C27.632,20.329,20.21,19.933,19.341,24.347z"/>
<path fill="#C1873C" d="M45.315,19.368c-2.705-1.342-7.879-1.408-9.807-0.473c-0.412,0.182-0.141,1.455,0.207,1.332
	c2.688-0.994,7.02-1.018,9.535,0.086C45.585,20.456,45.726,19.556,45.315,19.368z"/>
<path fill="#C1873C" d="M18.687,19.368c2.703-1.342,7.877-1.408,9.807-0.473c0.412,0.182,0.141,1.455-0.207,1.332
	c-2.691-0.994-7.02-1.018-9.537,0.086C18.415,20.456,18.276,19.556,18.687,19.368z"/>
<path fill="#613F34" d="M37.114,23.905c0,3.629,5.25,3.629,5.25,0C42.364,20.536,37.114,20.536,37.114,23.905z"/>
<path fill="#7D5037" d="M37.634,25.067c0,2.08,4.211,2.08,4.211,0C41.845,23.136,37.634,23.136,37.634,25.067z"/>
<path fill="#1A1626" d="M38.649,23.962c0,1.508,2.18,1.508,2.18,0C40.829,22.565,38.649,22.565,38.649,23.962z"/>
<path fill="#AB968C" d="M37.905,23.522c0,0.762,1.102,0.762,1.102,0C39.007,22.817,37.905,22.817,37.905,23.522z"/>
<path fill="#613F34" d="M21.638,23.905c0,3.629,5.25,3.629,5.25,0C26.888,20.536,21.638,20.536,21.638,23.905z"/>
<path fill="#7D5037" d="M22.157,25.065c0,2.082,4.211,2.082,4.211,0C26.368,23.134,22.157,23.134,22.157,25.065z"/>
<path fill="#1A1626" d="M23.173,23.962c0,1.506,2.18,1.506,2.18,0C25.353,22.563,23.173,22.563,23.173,23.962z"/>
<path fill="#AB968C" d="M22.429,23.522c0,0.76,1.1,0.76,1.1,0C23.528,22.815,22.429,22.815,22.429,23.522z"/>
<path fill="#E6B045" d="M44.659,24.315c0-4.441-9.186-4.441-9.186,0.703C36.786,20.798,43.347,20.798,44.659,24.315z"/>
<path fill="#E6B045" d="M19.341,24.315c0-4.441,9.186-4.441,9.186,0.701C27.216,20.796,20.653,20.796,19.341,24.315z"/>
<path fill="#A0D8E9" d="M21.658,62h30.341c0,0-0.375-5.057-4.739-5C19.842,57.342,21.658,62,21.658,62z"/>
<path fill="#CAE8F0" d="M34.293,57.492C20.202,57.463,22.196,57.016,16.743,57c-4.369-0.014-4.744,5-4.744,5h30.343
	C42.342,62,41.326,57.508,34.293,57.492z"/>
<path opacity="0.2" fill="#A6AEB0" d="M62,62H2V48.548c24.03-7.938,37.938,8.664,60,0V62z"/>
</svg>
