<?xml version="1.0" encoding="utf-8"?>
<!-- Generator: Adobe Illustrator 15.0.0, SVG Export Plug-In . SVG Version: 6.00 Build 0)  -->
<!DOCTYPE svg PUBLIC "-//W3C//DTD SVG 1.1//EN" "http://www.w3.org/Graphics/SVG/1.1/DTD/svg11.dtd" [
	<!ENTITY ns_flows "http://ns.adobe.com/Flows/1.0/">
	<!ENTITY ns_extend "http://ns.adobe.com/Extensibility/1.0/">
	<!ENTITY ns_ai "http://ns.adobe.com/AdobeIllustrator/10.0/">
	<!ENTITY ns_graphs "http://ns.adobe.com/Graphs/1.0/">
]>
<svg version="1.1" id="Layer_1" xmlns:x="&ns_extend;" xmlns:i="&ns_ai;" xmlns:graph="&ns_graphs;"
	 xmlns="http://www.w3.org/2000/svg" xmlns:xlink="http://www.w3.org/1999/xlink" xmlns:a="http://ns.adobe.com/AdobeSVGViewerExtensions/3.0/"
	 x="0px" y="0px" width="64px" height="64px" viewBox="0 0 64 64" enable-background="new 0 0 64 64" xml:space="preserve">
<path fill="#AD883D" d="M43.408,9.717c7.918,48.295,7.193,47.262-9.475,47.262C42.416,49.617,25.486,9.061,43.408,9.717z"/>
<path fill="#C49A45" d="M47.264,8.969c8.447,33.383-0.02,46.463-3.635,48.01h-4.07C51.428,46.064,31.873,8.246,47.264,8.969z"/>
<path fill="#FFD68C" d="M47.668,26.908c2.447,8.486,0.027,25.902-5.039,30.07c5.615,0,9.033-11.041,10.701-26.229
	C55.412,11.773,43.311,11.764,47.668,26.908z"/>
<path fill="#AD883D" d="M20.551,9.717c-7.918,48.295-7.193,47.262,9.475,47.262C21.543,49.617,38.473,9.061,20.551,9.717z"/>
<path fill="#C49A45" d="M16.695,8.969c-8.447,33.383,0.02,46.463,3.635,48.01h4.07C12.531,46.064,32.086,8.246,16.695,8.969z"/>
<path fill="#FFD68C" d="M16.291,26.908c-2.447,8.486-0.025,25.902,5.039,30.07c-5.615,0-9.033-11.041-10.701-26.229
	C8.547,11.773,20.648,11.764,16.291,26.908z"/>
<path fill="#FFD68C" d="M31.957,2c-12.756,0-20.744,9.301-20.744,19.258l0.965,6.162h39.604l0.965-6.162
	C52.746,11.914,44.455,2,31.957,2z"/>
<polygon fill="#423225" points="24.518,51.018 32,57.637 39.486,51.018 39.486,43.965 24.518,43.965 "/>
<path fill="#529320" d="M51.801,53.691c-0.074-0.037-0.09-0.309,0-0.389c-3.119-1.184-6.227-2.012-9.035-2.611
	c-0.838-3.807,0.863-5.521,0.863-5.521C34.506,45.17,32,57.637,32,57.637S29.496,45.17,20.371,45.17c0,0,1.701,1.715,0.863,5.521
	c-2.809,0.6-5.914,1.428-9.035,2.611c0.09,0.08,0.076,0.352,0,0.389C8.73,55.475,8,62,8,62h48C56,62,55.27,55.475,51.801,53.691z"/>
<path fill="#297124" d="M51.801,53.303C47.742,57.773,49.273,62,49.273,62s-0.281-4.824,2.684-8.223
	C52.055,53.523,51.951,53.314,51.801,53.303z"/>
<path fill="#297124" d="M34.537,59.65c0,0,5.863-4.727,8.221-8.969C40.879,55.816,34.537,59.65,34.537,59.65z"/>
<path fill="#297124" d="M12.199,53.303C16.26,57.773,14.729,62,14.729,62s0.279-4.824-2.686-8.223
	C11.947,53.523,12.049,53.314,12.199,53.303z"/>
<path fill="#297124" d="M29.463,59.65c0,0-5.863-4.727-8.219-8.969C23.121,55.816,29.463,59.65,29.463,59.65z"/>
<path fill="#C49A45" d="M33.5,58.877c0,3.014-3,3.014-3,0C30.5,56.086,33.5,56.086,33.5,58.877z"/>
<path fill="#E5BC5E" d="M33.006,58.898c0,2.262-2,2.262-2,0C31.006,56.805,33.006,56.805,33.006,58.898z"/>
<path fill="#423225" d="M10.264,17.988c-1.945-0.33,3.035,20.932,6.92,17.314C19.318,33.314,13.016,18.459,10.264,17.988z"/>
<path fill="#423225" d="M53.693,17.988c-2.752,0.471-9.055,15.326-6.92,17.314C50.66,38.918,55.639,17.658,53.693,17.988z"/>
<path fill="#614A36" d="M31.977,7.801c-3.91,8.021-17.201,7.455-16.502,19.611c0.143,2.443,0.822,5.969,1.66,8.988
	C18.877,42.678,28.064,49,31.977,49c3.91,0,13.1-6.322,14.84-12.6c0.84-3.02,1.52-6.545,1.664-8.988
	C49.178,15.256,37.869,17.316,31.977,7.801z"/>
<path fill="#36281D" d="M31.977,38.973c-2.822-1.24-2.844-0.051-7.199,0.242c1.635,1.855,2.838,4.244,7.197,4.244
	c5.004,0,5.85-2.711,7.203-4.244C34.818,38.922,34.799,37.732,31.977,38.973z"/>
<path fill="#FFFFFF" d="M26.084,39.678c2.844,2.959,8.977,2.92,11.785,0C33.49,40.148,30.465,40.148,26.084,39.678z"/>
<path fill="#36281D" d="M44.771,22.996c-2.617-1.561-7.309-1.75-9.166-0.688c-0.393,0.213-0.287,1.34,0.053,1.199
	c2.648-1.104,6.682-1.158,9.168,0.117C45.16,23.795,45.166,23.223,44.771,22.996z"/>
<path fill="#36281D" d="M19.184,22.996c2.615-1.561,7.307-1.75,9.166-0.688c0.393,0.213,0.289,1.34-0.055,1.199
	c-2.648-1.104-6.68-1.158-9.166,0.117C18.795,23.795,18.787,23.223,19.184,22.996z"/>
<path fill="#423225" d="M35.576,34.73c0,2.342-7.199,2.342-7.199,0C28.377,34.193,35.576,34.193,35.576,34.73z"/>
<path fill="#FFFFFF" d="M44.518,27.742c-1.551,4.061-7.861,3.465-9.016,0.623C36.377,23.801,43.664,23.41,44.518,27.742z"/>
<path fill="#613F34" d="M37.082,27.301c0,3.596,5.201,3.596,5.201,0C42.283,23.963,37.082,23.963,37.082,27.301z"/>
<path fill="#7D5037" d="M37.596,28.451c0,2.063,4.172,2.063,4.172,0C41.768,26.537,37.596,26.537,37.596,28.451z"/>
<path fill="#1A1626" d="M38.604,27.357c0,1.492,2.158,1.492,2.158,0C40.762,25.973,38.604,25.973,38.604,27.357z"/>
<path fill="#AB968C" d="M37.865,26.922c0,0.754,1.09,0.754,1.09,0C38.955,26.223,37.865,26.223,37.865,26.922z"/>
<path fill="#45332C" d="M44.518,27.711c0-4.361-9.016-4.361-9.016,0.691C36.787,24.256,43.23,24.256,44.518,27.711z"/>
<path fill="#FFFFFF" d="M19.436,27.742c1.553,4.061,7.863,3.467,9.02,0.623C27.578,23.801,20.291,23.41,19.436,27.742z"/>
<path fill="#613F34" d="M21.672,27.307c0,3.596,5.199,3.596,5.199,0C26.871,23.969,21.672,23.969,21.672,27.307z"/>
<path fill="#7D5037" d="M22.186,28.457c0,2.063,4.172,2.063,4.172,0C26.357,26.543,22.186,26.543,22.186,28.457z"/>
<path fill="#1A1626" d="M23.191,27.363c0,1.492,2.16,1.492,2.16,0C25.352,25.979,23.191,25.979,23.191,27.363z"/>
<path fill="#AB968C" d="M22.455,26.928c0,0.754,1.09,0.754,1.09,0C23.545,26.227,22.455,26.227,22.455,26.928z"/>
<path fill="#45332C" d="M19.436,27.711c0-4.361,9.02-4.361,9.02,0.689C27.168,24.256,20.725,24.256,19.436,27.711z"/>
<path fill="#C49A45" d="M31.979,5c-1.018,5.84-17.191,9.709-16.529,20.814c2.17-10.076,16.529-13.068,16.529-13.068
	S46.34,15.738,48.51,25.814C49.172,14.709,32.998,10.84,31.979,5z"/>
<path fill="#529320" d="M31.59,22.197c-3.893-6.779-12.455-0.547-19.412-6.855c-0.139-0.125-0.428,1.072-0.355,1.141
	c6.512,6.17,14.764,1.637,19.768,8.656C31.93,25.615,32.061,23.018,31.59,22.197z"/>
<path fill="#529320" d="M32.201,25.139c5.004-7.02,13.338-2.486,19.852-8.656c0.072-0.068-0.24-1.266-0.379-1.141
	c-6.957,6.309-15.58,0.076-19.473,6.855C31.73,23.018,31.861,25.615,32.201,25.139z"/>
<path fill="#0FB4D4" d="M34.033,22.703c0,4.051-4.277,4.051-4.277,0C29.756,18.947,34.033,18.947,34.033,22.703z"/>
<path fill="#75D6FF" d="M33.33,22.734c0,3.035-2.852,3.035-2.852,0C30.479,19.916,33.33,19.916,33.33,22.734z"/>
</svg>
