<?xml version="1.0" encoding="utf-8"?>
<!-- Generator: Adobe Illustrator 15.0.0, SVG Export Plug-In . SVG Version: 6.00 Build 0)  -->
<!DOCTYPE svg PUBLIC "-//W3C//DTD SVG 1.1//EN" "http://www.w3.org/Graphics/SVG/1.1/DTD/svg11.dtd" [
	<!ENTITY ns_flows "http://ns.adobe.com/Flows/1.0/">
	<!ENTITY ns_extend "http://ns.adobe.com/Extensibility/1.0/">
	<!ENTITY ns_ai "http://ns.adobe.com/AdobeIllustrator/10.0/">
	<!ENTITY ns_graphs "http://ns.adobe.com/Graphs/1.0/">
]>
<svg version="1.1" id="Layer_1" xmlns:x="&ns_extend;" xmlns:i="&ns_ai;" xmlns:graph="&ns_graphs;"
	 xmlns="http://www.w3.org/2000/svg" xmlns:xlink="http://www.w3.org/1999/xlink" xmlns:a="http://ns.adobe.com/AdobeSVGViewerExtensions/3.0/"
	 x="0px" y="0px" width="64px" height="64px" viewBox="0 0 64 64" enable-background="new 0 0 64 64" xml:space="preserve">
<rect x="17.025" y="31.799" fill="#AD883D" width="29.949" height="22.832"/>
<polygon fill="#E6B045" points="23.582,50.029 32,57.243 40.421,50.029 40.421,42.34 23.582,42.34 "/>
<path fill="#529320" d="M54.276,52.943c-0.085-0.041-0.103-0.335,0-0.424c-3.511-1.289-7.008-2.193-10.166-2.847
	c-0.941-4.151,0.971-6.019,0.971-6.019C34.818,43.654,32,57.243,32,57.243s-2.818-13.589-13.082-13.589c0,0,1.912,1.867,0.971,6.019
	c-3.159,0.653-6.654,1.558-10.165,2.847c0.102,0.089,0.085,0.383,0,0.424C5.821,54.887,5,62,5,62h54
	C59,62,58.179,54.887,54.276,52.943z"/>
<path fill="#297124" d="M54.276,52.52C49.709,57.393,51.432,62,51.432,62s-0.316-5.258,3.02-8.963
	C54.561,52.76,54.444,52.533,54.276,52.52z"/>
<path fill="#297124" d="M34.854,59.439c0,0,6.597-5.153,9.248-9.775C41.988,55.26,34.854,59.439,34.854,59.439z"/>
<path fill="#297124" d="M9.724,52.52c4.567,4.873,2.845,9.48,2.845,9.48s0.315-5.258-3.021-8.963
	C9.439,52.76,9.555,52.533,9.724,52.52z"/>
<path fill="#297124" d="M29.146,59.439c0,0-6.597-5.153-9.247-9.775C22.011,55.26,29.146,59.439,29.146,59.439z"/>
<path fill="#C49A45" d="M33.688,58.598c0,3.283-3.375,3.283-3.375,0C30.313,55.553,33.688,55.553,33.688,58.598z"/>
<path fill="#E5BC5E" d="M33.131,58.621c0,2.463-2.25,2.463-2.25,0C30.881,56.338,33.131,56.338,33.131,58.621z"/>
<path fill="#C49A45" d="M46.986,19.707c0,0-0.533,16.588-1.796,21.832c-2.075,8.621,0.661,12.703,0.902,20.42
	c2.074-5.971,3.872-13.092,2.668-23.994c-0.777-7.031,1.409-9.651,0.582-18.258C49.276,19.006,46.986,19.707,46.986,19.707z"/>
<path fill="#C49A45" d="M17.014,19.707c0,0,0.533,16.588,1.796,21.832c2.076,8.621-0.66,12.703-0.903,20.42
	c-2.073-5.971-3.871-13.092-2.666-23.994c0.776-7.031-1.409-9.651-0.583-18.258C14.724,19.006,17.014,19.707,17.014,19.707z"/>
<path fill="#E6B045" d="M11.284,17.988c-1.945-0.33,3.035,20.932,6.921,17.314C20.339,33.314,14.037,18.459,11.284,17.988z"/>
<path fill="#E6B045" d="M52.715,17.988c-2.752,0.471-9.055,15.326-6.92,17.314C49.681,38.918,54.66,17.658,52.715,17.988z"/>
<path fill="#E81C27" d="M31.897,16.537C32.005,16.537,32.005,16.537,31.897,16.537C32.005,16.537,32.005,16.537,31.897,16.537z"/>
<path fill="#FFD68C" d="M32.001,2C19.549,2,14.23,8.589,14.23,17.608h35.535C49.766,8.589,44.445,2,32.001,2z"/>
<path fill="#FFCC66" d="M31.998,9.001c-11.824,0-17.521,2.945-16.807,15.383c0.143,2.504,1.693,10.666,3.158,13.594
	c1.498,2.994,6.512,7.613,9.584,8.57c1.939,0.604,6.188,0.604,8.127,0c3.072-0.957,8.086-5.576,9.586-8.57
	c1.465-2.928,3.016-11.09,3.158-13.594C49.52,11.946,43.822,9.001,31.998,9.001z"/>
<path fill="#E6B045" d="M35.664,32.464c0,2.387-7.332,2.387-7.332,0C28.332,31.917,35.664,31.917,35.664,32.464z"/>
<path fill="#C49A45" d="M32,7.528C25.293,5.053,9.379,4.453,15.641,27.751c0.373-2.75-0.371-6.357,0.799-9.201
	C20.067,9.724,21.624,9.424,32,12.804c10.376-3.38,11.933-3.08,15.561,5.746c1.17,2.844,0.426,6.451,0.799,9.201
	C54.621,4.453,38.707,5.053,32,7.528z"/>
<path fill="#FFFFFF" d="M44.656,25.347c-1.58,4.135-8.008,3.529-9.186,0.635C36.365,21.331,43.789,20.935,44.656,25.347z"/>
<path fill="#FFFFFF" d="M19.338,25.347c1.58,4.135,8.01,3.529,9.186,0.635C27.629,21.329,20.207,20.933,19.338,25.347z"/>
<path fill="#C1873C" d="M45.313,20.368c-2.705-1.342-7.879-1.408-9.807-0.473c-0.412,0.182-0.141,1.455,0.207,1.332
	c2.688-0.994,7.02-1.018,9.535,0.086C45.582,21.456,45.723,20.556,45.313,20.368z"/>
<path fill="#C1873C" d="M18.684,20.368c2.703-1.342,7.877-1.408,9.807-0.473c0.412,0.182,0.141,1.455-0.207,1.332
	c-2.691-0.994-7.02-1.018-9.537,0.086C18.412,21.456,18.273,20.556,18.684,20.368z"/>
<path fill="#613F34" d="M37.111,24.905c0,3.629,5.25,3.629,5.25,0C42.361,21.536,37.111,21.536,37.111,24.905z"/>
<path fill="#7D5037" d="M37.631,26.067c0,2.08,4.211,2.08,4.211,0C41.842,24.136,37.631,24.136,37.631,26.067z"/>
<path fill="#1A1626" d="M38.646,24.962c0,1.508,2.18,1.508,2.18,0C40.826,23.565,38.646,23.565,38.646,24.962z"/>
<path fill="#AB968C" d="M37.902,24.522c0,0.762,1.102,0.762,1.102,0C39.004,23.817,37.902,23.817,37.902,24.522z"/>
<path fill="#613F34" d="M21.635,24.905c0,3.629,5.25,3.629,5.25,0C26.885,21.536,21.635,21.536,21.635,24.905z"/>
<path fill="#7D5037" d="M22.154,26.065c0,2.082,4.211,2.082,4.211,0C26.365,24.134,22.154,24.134,22.154,26.065z"/>
<path fill="#1A1626" d="M23.17,24.962c0,1.506,2.18,1.506,2.18,0C25.35,23.563,23.17,23.563,23.17,24.962z"/>
<path fill="#AB968C" d="M22.426,24.522c0,0.76,1.1,0.76,1.1,0C23.525,23.815,22.426,23.815,22.426,24.522z"/>
<path fill="#E6B045" d="M44.656,25.315c0-4.441-9.186-4.441-9.186,0.703C36.783,21.798,43.344,21.798,44.656,25.315z"/>
<path fill="#E6B045" d="M19.338,25.315c0-4.441,9.186-4.441,9.186,0.701C27.213,21.796,20.65,21.796,19.338,25.315z"/>
<path fill="#E6A400" d="M31.997,36.862c-2.66-0.783-6.6,0.369-6.6,0.369c1.5,1.635,2.6,3.756,6.6,3.756
	c4.582,0,5.359-2.406,6.6-3.756C38.597,37.231,34.653,36.075,31.997,36.862z"/>
<path fill="#FFFFFF" d="M26.403,37.509c2.787,2.34,8.418,2.354,11.221,0C34.653,37.636,29.396,37.638,26.403,37.509z"/>
</svg>
