<?xml version="1.0" encoding="utf-8"?>
<!-- Generator: Adobe Illustrator 15.0.0, SVG Export Plug-In . SVG Version: 6.00 Build 0)  -->
<!DOCTYPE svg PUBLIC "-//W3C//DTD SVG 1.1//EN" "http://www.w3.org/Graphics/SVG/1.1/DTD/svg11.dtd" [
	<!ENTITY ns_flows "http://ns.adobe.com/Flows/1.0/">
	<!ENTITY ns_extend "http://ns.adobe.com/Extensibility/1.0/">
	<!ENTITY ns_ai "http://ns.adobe.com/AdobeIllustrator/10.0/">
	<!ENTITY ns_graphs "http://ns.adobe.com/Graphs/1.0/">
]>
<svg version="1.1" id="Layer_1" xmlns:x="&ns_extend;" xmlns:i="&ns_ai;" xmlns:graph="&ns_graphs;"
	 xmlns="http://www.w3.org/2000/svg" xmlns:xlink="http://www.w3.org/1999/xlink" xmlns:a="http://ns.adobe.com/AdobeSVGViewerExtensions/3.0/"
	 x="0px" y="0px" width="64px" height="64px" viewBox="0 0 64 64" enable-background="new 0 0 64 64" xml:space="preserve">
<path fill="#1A1626" d="M62,22c-8.074,8.922-20.783,8.977-30,8.971C22.783,30.976,10.076,30.921,2,22
	c0,16.413,19.279,21.006,12.486,30.965c-2.146,3.146,37.176,3.146,35.029,0C42.723,43.006,62,38.412,62,22z"/>
<path fill="#E81C27" d="M32,30.97c-9.217,0.006-19.984-0.516-28-7.018c0,9.727,26.279,21.069,19.486,31.026
	c-2.146,3.148,19.174,3.148,17.027,0c-6.793-9.957,19.488-21.299,19.488-31.026C51.986,30.455,41.217,30.976,32,30.97z"/>
<path fill="#E81C27" d="M31.896,16.537C32.004,16.537,32.004,16.537,31.896,16.537C32.004,16.537,32.004,16.537,31.896,16.537z"/>
<path fill="#1A1626" d="M54.205,52.6c-2.699-1.373-13.912-5.002-13.912-5.002l-16.695,0.02c0,0-11.191,3.648-13.879,5.033
	C5.82,54.66,5.01,62,5.01,62l54-0.064C59.01,61.936,58.127,54.592,54.205,52.6z"/>
<path fill="#755035" d="M40.006,48.781c0,4.096-16,4.096-16,0c0-2.635,0-9.08,0-9.08h16C40.006,39.701,40.006,47.211,40.006,48.781z
	"/>
<polygon fill="#E6EBEF" points="23.287,51.346 25.037,62 38.98,62 40.732,51.346 "/>
<path fill="#BEC3CF" d="M23.287,51.346c0,0,0.559,4.775,1.75,5.654c1.402,1.033,4.18-1.449,6.961-1.449
	c2.789,0.002,5.578,2.484,6.982,1.449c1.191-0.877,1.752-5.654,1.752-5.654H23.287z"/>
<path fill="#302C3B" d="M39.916,62c0,0,4.457-5.756,6.301-12.166l-7.123,0.918c0,0,0.104,4.385-2.434,11.248H39.916z"/>
<path fill="#302C3B" d="M24.104,62c0,0-4.457-5.756-6.299-12.166l7.121,0.918c0,0-0.104,4.385,2.436,11.248H24.104z"/>
<path fill="#E81C27" d="M31.359,51.33c-2.197-5.926-11.33-4.805-10.561-2.619c0.502,1.43,0.477,3.152-0.131,4.535
	C19.518,55.859,29.734,57.969,31.359,51.33z"/>
<path fill="#E81C27" d="M32.629,51.324c2.182-5.926,11.318-4.83,10.555-2.643c-0.498,1.43-0.469,3.152,0.143,4.533
	C44.48,55.826,34.27,57.965,32.629,51.324z"/>
<path fill="#B00505" d="M32.951,50.916c1.748,0.35,3.586-2.705,4.125-0.668C37.756,52.799,33.82,53.002,32.951,50.916z"/>
<path fill="#B00505" d="M30.76,52.76c-2.363,3.201-8.324,2.998-9.482,1.332C19.834,52.02,26.035,56.258,30.76,52.76z"/>
<path fill="#B00505" d="M33.234,52.76c2.363,3.201,8.324,2.998,9.484,1.332C44.16,52.02,37.959,56.258,33.234,52.76z"/>
<path fill="#B00505" d="M31.035,50.92c-1.748,0.354-3.594-2.695-4.127-0.658C26.234,52.814,30.17,53.01,31.035,50.92z"/>
<path fill="#E81C27" d="M32,54.014c-1.385,0-1.727,1.078-1.732-2.666c-0.004-3.746,0.34-2.666,1.727-2.67
	c1.385,0,1.727-1.082,1.732,2.666C33.73,55.086,33.387,54.012,32,54.014z"/>
<path fill="#302C3B" d="M32,2C19.549,2,14.23,8.589,14.23,17.609h35.535C49.766,8.589,44.445,2,32,2z"/>
<path fill="#755035" d="M14.898,21.748c-5.719-1.031-1.252,14.958,3.225,10.547C20.195,30.25,17.572,22.23,14.898,21.748z"/>
<path fill="#755035" d="M49.098,21.748c-2.674,0.482-5.299,8.502-3.223,10.547C50.352,36.705,54.813,20.716,49.098,21.748z"/>
<path fill="#916B50" d="M31.998,9.001c-11.824,0-17.521,2.945-16.807,15.381c0.143,2.504,1.693,10.667,3.158,13.594
	c1.498,2.994,6.512,7.613,9.584,8.57c1.939,0.604,6.188,0.604,8.127,0c3.072-0.957,8.086-5.576,9.586-8.57
	c1.465-2.928,3.016-11.09,3.158-13.594C49.52,11.947,43.822,9.001,31.998,9.001z"/>
<path fill="#755035" d="M35.664,32.463c0,2.387-7.332,2.387-7.332,0C28.332,31.916,35.664,31.916,35.664,32.463z"/>
<path fill="#1A1626" d="M32,7.529C25.293,5.053,9.379,4.453,15.641,27.75c0.373-2.75-0.371-6.357,0.799-9.201
	C20.066,9.724,21.623,9.423,32,12.804c10.375-3.381,11.932-3.08,15.561,5.744c1.17,2.844,0.426,6.451,0.799,9.201
	C54.621,4.453,38.707,5.053,32,7.529z"/>
<path fill="#FFFFFF" d="M44.656,25.345c-1.58,4.135-8.008,3.529-9.186,0.635C36.365,21.33,43.789,20.933,44.656,25.345z"/>
<path fill="#FFFFFF" d="M19.338,25.345c1.58,4.135,8.01,3.529,9.186,0.635C27.629,21.328,20.207,20.931,19.338,25.345z"/>
<path fill="#302C3B" d="M45.313,20.367c-2.705-1.342-7.879-1.408-9.807-0.473c-0.412,0.182-0.141,1.455,0.207,1.332
	c2.688-0.994,7.02-1.018,9.535,0.086C45.582,21.455,45.723,20.554,45.313,20.367z"/>
<path fill="#302C3B" d="M18.684,20.367c2.703-1.342,7.877-1.408,9.807-0.473c0.412,0.182,0.141,1.455-0.207,1.332
	c-2.691-0.994-7.02-1.018-9.537,0.086C18.412,21.455,18.273,20.554,18.684,20.367z"/>
<path fill="#820505" d="M37.111,24.904c0,3.629,5.25,3.629,5.25,0C42.361,21.535,37.111,21.535,37.111,24.904z"/>
<path fill="#B00505" d="M37.631,26.066c0,2.08,4.211,2.08,4.211,0C41.842,24.134,37.631,24.134,37.631,26.066z"/>
<path fill="#1A1626" d="M38.646,24.96c0,1.508,2.18,1.508,2.18,0C40.826,23.564,38.646,23.564,38.646,24.96z"/>
<path fill="#AB968C" d="M37.902,24.521c0,0.762,1.102,0.762,1.102,0C39.004,23.816,37.902,23.816,37.902,24.521z"/>
<path fill="#820505" d="M21.635,24.904c0,3.629,5.25,3.629,5.25,0C26.885,21.535,21.635,21.535,21.635,24.904z"/>
<path fill="#B00505" d="M22.154,26.064c0,2.082,4.211,2.082,4.211,0C26.365,24.132,22.154,24.132,22.154,26.064z"/>
<path fill="#1A1626" d="M23.17,24.96c0,1.506,2.18,1.506,2.18,0C25.35,23.562,23.17,23.562,23.17,24.96z"/>
<path fill="#AB968C" d="M22.426,24.521c0,0.76,1.1,0.76,1.1,0C23.525,23.814,22.426,23.814,22.426,24.521z"/>
<path fill="#302C3B" d="M44.656,25.314c0-4.441-9.186-4.441-9.186,0.703C36.783,21.796,43.344,21.796,44.656,25.314z"/>
<path fill="#302C3B" d="M19.338,25.314c0-4.441,9.186-4.441,9.186,0.701C27.213,21.794,20.65,21.794,19.338,25.314z"/>
<path fill="#302C3B" d="M32,36.834c-2.467-0.688-7.252,0.383-7.252,0.383c1.65,1.691,2.859,3.887,7.252,3.887
	c4.391,0,5.6-2.195,7.248-3.887C39.248,37.217,34.465,36.146,32,36.834z"/>
<path fill="#FFFFFF" d="M25.674,37.273c0.197,0.482,2.807,2.281,6.324,2.281c3.52,0,6.129-1.799,6.326-2.281
	C35.172,37.428,28.85,37.43,25.674,37.273z"/>
<polygon fill="#FFFFFF" points="26.93,37.371 27.869,42.104 28.869,37.492 "/>
<polygon fill="#FFFFFF" points="37.068,37.371 36.129,42.104 35.129,37.492 "/>
</svg>
