<?xml version="1.0" encoding="utf-8"?>
<!-- Generator: Adobe Illustrator 15.0.0, SVG Export Plug-In . SVG Version: 6.00 Build 0)  -->
<!DOCTYPE svg PUBLIC "-//W3C//DTD SVG 1.1//EN" "http://www.w3.org/Graphics/SVG/1.1/DTD/svg11.dtd" [
	<!ENTITY ns_flows "http://ns.adobe.com/Flows/1.0/">
	<!ENTITY ns_extend "http://ns.adobe.com/Extensibility/1.0/">
	<!ENTITY ns_ai "http://ns.adobe.com/AdobeIllustrator/10.0/">
	<!ENTITY ns_graphs "http://ns.adobe.com/Graphs/1.0/">
]>
<svg version="1.1" id="Layer_1" xmlns:x="&ns_extend;" xmlns:i="&ns_ai;" xmlns:graph="&ns_graphs;"
	 xmlns="http://www.w3.org/2000/svg" xmlns:xlink="http://www.w3.org/1999/xlink" xmlns:a="http://ns.adobe.com/AdobeSVGViewerExtensions/3.0/"
	 x="0px" y="0px" width="64px" height="64px" viewBox="0 0 64 64" enable-background="new 0 0 64 64" xml:space="preserve">
<path fill="#302C3B" d="M38.844,45.043H25.155c-1.764,3.014-9.683-1.211-14.404-0.106c0,0,17.037,11.998,21.498,12.026
	c4.462-0.028,21-12.026,21-12.026C48.525,43.832,40.607,48.057,38.844,45.043z"/>
<path fill="#DBA97F" d="M32.594,54.342c0.806,0.241,1.605,0.394,2.4,0.401c1.393-0.473,2.992,0.856,4.471,1.15
	c1.666,0.33,4.248-0.649,5.559,0.267c1.691-0.477,2.318,1.343,1.166,1.738c0.299,0.53-0.125,0.955-0.387,1.023
	c0.209,0.459-0.197,0.94-0.426,0.949c0.117,0.346-0.172,0.727-0.52,0.798c-0.332,2.091-7.199-0.931-9.018-1.321
	c-0.793-0.172-1.381-0.855-2.363-1.289L32.034,58C32.292,56.795,32.44,55.538,32.594,54.342z"/>
<path fill="#DBA97F" d="M44.883,57.718c0.449,0.406,1.561,0.577,1.77-0.163C46.291,57.76,46.045,57.769,44.883,57.718z"/>
<path fill="#DBA97F" d="M44.709,59.047c0,0,1.316,0.295,1.551-0.587C45.9,58.902,44.709,59.047,44.709,59.047z"/>
<path fill="#DBA97F" d="M44.48,60.081c0,0,1.053,0.232,1.307-0.582C45.428,59.94,44.48,60.081,44.48,60.081z"/>
<path fill="#DBA97F" d="M44.053,60.78c0,0,1.061,0.281,1.271-0.458C44.965,60.763,44.053,60.78,44.053,60.78z"/>
<path fill="#4E5E67" d="M10.768,44.861c6.319-1.25,12.377,6.318,22.543,9.674c-0.517,2.396-0.791,3.827-0.791,3.827
	c-12.787-0.553-19.326-4.273-22.723-6.498C6.943,49.995,7.008,45.605,10.768,44.861z"/>
<path fill="#FCD5B2" d="M31.405,54.688c-0.807,0.249-1.607,0.407-2.4,0.415c-1.395-0.489-2.993,0.888-4.471,1.192
	c-1.666,0.342-4.246-0.673-5.557,0.276c-1.693-0.493-2.321,1.391-1.166,1.801c-0.299,0.55,0.123,0.989,0.386,1.061
	c-0.209,0.475,0.196,0.974,0.425,0.983c-0.116,0.358,0.173,0.752,0.519,0.826c0.333,2.166,7.201-0.965,9.019-1.369
	c0.795-0.178,1.383-0.887,2.361-1.336l1.447-0.061C31.708,57.229,31.559,55.928,31.405,54.688z"/>
<path fill="#DBA97F" d="M19.115,58.186c-0.449,0.421-1.559,0.598-1.77-0.169C17.709,58.229,17.955,58.238,19.115,58.186z"/>
<path fill="#DBA97F" d="M19.29,59.563c0,0-1.316,0.306-1.55-0.608C18.1,59.413,19.29,59.563,19.29,59.563z"/>
<path fill="#DBA97F" d="M19.517,60.634c0,0-1.052,0.24-1.307-0.604C18.571,60.489,19.517,60.634,19.517,60.634z"/>
<path fill="#DBA97F" d="M19.944,61.358c0,0-1.06,0.291-1.269-0.475C19.035,61.341,19.944,61.358,19.944,61.358z"/>
<path fill="#4E5E67" d="M53.232,44.866c-6.32-1.295-12.453,6.416-22.621,9.893c0.518,2.482,0.867,4.095,0.867,4.095
	c12.785-0.572,19.326-4.427,22.724-6.732C57.057,50.186,56.992,45.637,53.232,44.866z"/>
<path fill="#FCD5B2" d="M61.332,42.767c-0.127-0.025-1.324,0.031-1.324,0.031s1.131-0.301,1.436-0.394
	c0.83-0.251,0.572-1.044-0.051-1.044c-0.93-0.001-2.057,0.383-2.057,0.383s0.008-1.152-0.133-1.902
	c-0.076-0.41-1.205-0.45-1.576-0.691c-0.086-0.057-0.174-0.068-0.26-0.063c0.932-0.63,0.355-1.369-0.092-1.198
	c-1.229,0.468-1.523-0.085-2.109,0.438c-0.41,0.366-1.834,2.302-2.221,2.195c-1.869-0.521-4.1-2.435-4.904-3.44
	c-3.91-4.892-2.273-11.668-8.039-11.363c-0.758-0.161-1.941-0.269-4.139-0.324c-0.264-0.518-0.389-1.124-0.441-1.716h-6.843
	c-0.053,0.592-0.18,1.198-0.441,1.716c-2.199,0.056-3.381,0.163-4.14,0.324c-5.765-0.305-4.129,6.472-8.039,11.363
	c-0.805,1.006-3.035,2.92-4.904,3.44c-0.387,0.106-1.811-1.829-2.221-2.195c-0.586-0.522-0.881,0.03-2.108-0.438
	c-0.448-0.171-1.023,0.568-0.093,1.198c-0.085-0.005-0.173,0.007-0.26,0.063c-0.371,0.241-1.5,0.281-1.575,0.691
	c-0.142,0.75-0.134,1.902-0.134,1.902s-1.126-0.384-2.056-0.383c-0.624,0-0.882,0.793-0.052,1.044
	c0.306,0.093,1.437,0.394,1.437,0.394s-1.197-0.057-1.324-0.031c-0.837,0.168-0.867,1.065,0.061,1.207
	c0.215,0.033,0.767-0.043,0.898-0.035c-0.582,0.246-0.688,1.235,0.571,1.203c1.7-0.044,3.265,0.234,3.919,0.234
	c0.496,0,2.952-0.141,3.849-1.369c0.654-0.897,4.346-1.443,6.016-2.658c1.215-0.887,4.023-3.12,4.829-6.709
	c-0.044,2.145,0.857,4.412,0.857,4.412h16.664c0,0,0.9-2.268,0.857-4.412c0.805,3.589,3.613,5.822,4.828,6.709
	c1.67,1.215,5.361,1.761,6.016,2.658c0.896,1.229,3.354,1.369,3.85,1.369c0.654,0,2.219-0.278,3.918-0.234
	c1.26,0.032,1.154-0.957,0.572-1.203c0.131-0.008,0.684,0.068,0.898,0.035C62.199,43.832,62.168,42.935,61.332,42.767z
	 M8.309,40.827c-0.563,0.624-0.255,1.416-1.99,0.638c-0.229-0.302-0.31-0.729-0.146-1.059c0.856-0.387,0.943-0.885,0.765-1.148
	c0.292,0.144,0.672,0.275,1.173,0.382C8.393,40.048,8.309,40.827,8.309,40.827z M57.682,41.465c-1.736,0.778-1.428-0.014-1.99-0.638
	c0,0-0.084-0.779,0.197-1.188c0.502-0.106,0.881-0.238,1.174-0.382c-0.18,0.264-0.092,0.762,0.764,1.148
	C57.99,40.735,57.91,41.163,57.682,41.465z"/>
<path fill="#DBA97F" d="M8.016,43.681c0.045-0.619,0.924-2.153,2.407-1.974C9.037,42.078,8.361,43.002,8.016,43.681z"/>
<path fill="#DBA97F" d="M6.397,42.923c-1.979-0.153-4.993,0.071-4.294-1.305C1.952,42.789,4.829,42.564,6.397,42.923z"/>
<path fill="#DBA97F" d="M4.664,41.531l-0.005,0.212c0.867,0.302,1.312,0.231,1.312,0.231S5.475,41.85,4.664,41.531z"/>
<path fill="#DBA97F" d="M6.61,44.063c-2.397-0.415-4.901,0.66-4.542-0.855C2.12,44.423,4.305,43.328,6.61,44.063z"/>
<path fill="#DBA97F" d="M55.984,43.681c-0.045-0.619-0.924-2.153-2.408-1.974C54.963,42.078,55.639,43.002,55.984,43.681z"/>
<path fill="#DBA97F" d="M57.602,42.923c1.98-0.153,4.994,0.071,4.295-1.305C62.047,42.789,59.17,42.564,57.602,42.923z"/>
<path fill="#DBA97F" d="M59.336,41.531l0.004,0.212c-0.867,0.302-1.311,0.231-1.311,0.231S58.525,41.85,59.336,41.531z"/>
<path fill="#DBA97F" d="M57.389,44.063c2.398-0.415,4.902,0.66,4.543-0.855C61.879,44.423,59.695,43.328,57.389,44.063z"/>
<path fill="#7AB51D" d="M40.475,39.087c0,0-1.959-6.283-0.547-13.37c0.055-0.276-2.936-0.73-3.014-0.346
	c-2.143,10.691-7.687,10.688-9.828,0c-0.078-0.385-3.068,0.069-3.014,0.346c1.412,7.087-0.548,13.37-0.548,13.37
	c0.732,3.616,0.974,6.627,0.974,6.627c3.985,4.37,11.02,4.366,15.002,0C39.5,45.714,39.742,42.703,40.475,39.087z"/>
<path fill="#DBA97F" d="M28.379,23.883c3.291,2.502,3.951,2.5,7.242-0.001L28.379,23.883z"/>
<path fill="#DBA97F" d="M23.068,11.792c-2.986-0.538-0.653,7.813,1.685,5.51C25.836,16.233,24.465,12.045,23.068,11.792z"/>
<path fill="#DBA97F" d="M40.932,11.792c-1.396,0.253-2.77,4.441-1.684,5.51C41.586,19.604,43.916,11.254,40.932,11.792z"/>
<path fill="#FCD5B2" d="M32,2c-6.176,0-9.152,4.672-8.779,11.169c0.074,1.309,0.885,5.571,1.649,7.101
	c0.782,1.564,3.403,3.977,5.006,4.476c1.014,0.315,3.23,0.315,4.244,0c1.605-0.499,4.225-2.911,5.008-4.476
	c0.764-1.529,1.574-5.792,1.648-7.101C41.15,6.672,38.176,2,32,2z"/>
<path fill="#CC9D76" d="M32,19.687c-1.391-0.409-3.447,0.192-3.447,0.192c0.783,0.854,1.357,1.963,3.447,1.963
	c2.392,0,2.798-1.257,3.447-1.963C35.447,19.879,33.387,19.275,32,19.687z"/>
<path fill="#FFFFFF" d="M29.079,20.024c1.455,1.222,4.396,1.229,5.861,0C33.387,20.09,30.641,20.091,29.079,20.024z"/>
<path fill="#DBA97F" d="M33.914,17.39c0,1.247-3.83,1.247-3.83,0C30.084,17.104,33.914,17.104,33.914,17.39z"/>
<path fill="#3A2C29" d="M32,2c-4.25,0-6.816,1.403-7.923,0.865c0,0-0.12,0.724,0.313,1.195c0,0-0.457,0.396-1.196-0.271
	C22.49,6.074,24.58,7.398,32,7.398c7.419,0,5.646-1.807,9.294,1.367C40.938,4.854,38.453,2,32,2z"/>
<path fill="#1E1513" d="M35.143,5.409c-4.085,1.509-5.58-1.211-9.434-1.475c1.833,0.866,2.727,2.198,4.233,3.159
	c-3.276-1.097-5.68-2.983-5.863-4.223c0,0-0.547,1.81,1.615,3.161c-2.067,0.192-2.499-2.236-2.499-2.236
	c-1.047,1.682-0.901,7.106,0.262,11.132c0.193-1.437-0.248-2.031,0.415-3.762c1.987-5.173,0.709-3.001,8.13-3.001
	c7.417,0,6.078-1.981,8.126,3.001c0.609,1.485,0.223,2.325,0.416,3.762C42.984,5.852,39.477,3.811,35.143,5.409z"/>
<path fill="#CC9D76" d="M38.953,11.071c-1.412-0.701-4.115-0.735-5.121-0.248c-0.215,0.096-0.074,0.762,0.107,0.696
	c1.404-0.519,3.668-0.531,4.98,0.046C39.094,11.639,39.168,11.17,38.953,11.071z"/>
<path fill="#CC9D76" d="M25.045,11.071c1.413-0.701,4.116-0.735,5.124-0.248c0.215,0.096,0.074,0.762-0.109,0.696
	c-1.404-0.519-3.666-0.531-4.981,0.046C24.904,11.639,24.831,11.17,25.045,11.071z"/>
<path fill="#45332C" d="M30.004,13.688c-1.17,0.746-2.986,0.746-4.157,0c-0.179-0.115-0.284,0.01-0.229,0.105
	c1.137,1.926,3.477,1.926,4.614,0C30.29,13.698,30.182,13.573,30.004,13.688z"/>
<path fill="#45332C" d="M38.15,13.688c-1.17,0.746-2.986,0.746-4.154,0c-0.18-0.115-0.285,0.01-0.23,0.105
	c1.137,1.926,3.477,1.926,4.613,0C38.436,13.698,38.33,13.573,38.15,13.688z"/>
</svg>
