<?xml version="1.0" encoding="utf-8"?>
<!-- Generator: Adobe Illustrator 15.0.0, SVG Export Plug-In . SVG Version: 6.00 Build 0)  -->
<!DOCTYPE svg PUBLIC "-//W3C//DTD SVG 1.1//EN" "http://www.w3.org/Graphics/SVG/1.1/DTD/svg11.dtd" [
	<!ENTITY ns_flows "http://ns.adobe.com/Flows/1.0/">
	<!ENTITY ns_extend "http://ns.adobe.com/Extensibility/1.0/">
	<!ENTITY ns_ai "http://ns.adobe.com/AdobeIllustrator/10.0/">
	<!ENTITY ns_graphs "http://ns.adobe.com/Graphs/1.0/">
]>
<svg version="1.1" id="Layer_1" xmlns:x="&ns_extend;" xmlns:i="&ns_ai;" xmlns:graph="&ns_graphs;"
	 xmlns="http://www.w3.org/2000/svg" xmlns:xlink="http://www.w3.org/1999/xlink" xmlns:a="http://ns.adobe.com/AdobeSVGViewerExtensions/3.0/"
	 x="0px" y="0px" width="64px" height="64px" viewBox="0 0 64 64" enable-background="new 0 0 64 64" xml:space="preserve">
<path fill="#4A148C" d="M51.799,51.613c-11.348-7.299-28.186-7.246-39.543,0.004C8.773,53.836,8,62,8,62h48
	C56,62,55.27,53.842,51.799,51.613z"/>
<path fill="#916B50" d="M32,6.371c-11.609,0-17.201,9.455-16.502,21.611c0.143,2.445,0.822,5.969,1.66,8.99
	c1.742,6.277,10.93,12.6,14.842,12.6c3.91,0,13.1-6.322,14.84-12.6c0.84-3.021,1.52-6.545,1.664-8.99
	C49.201,15.826,43.611,6.371,32,6.371z"/>
<radialGradient id="SVGID_1_" cx="32.001" cy="42.6592" r="29.3746" gradientUnits="userSpaceOnUse">
	<stop  offset="0.6424" style="stop-color:#1A1626;stop-opacity:0"/>
	<stop  offset="0.8504" style="stop-color:#1A1626;stop-opacity:0.8801"/>
	<stop  offset="0.8788" style="stop-color:#1A1626"/>
	<a:midPointStop  offset="0.6424" style="stop-color:#1A1626;stop-opacity:0"/>
	<a:midPointStop  offset="0.7755" style="stop-color:#1A1626;stop-opacity:0"/>
	<a:midPointStop  offset="0.8788" style="stop-color:#1A1626"/>
</radialGradient>
<path opacity="0.6" fill="url(#SVGID_1_)" d="M32,6.371c-11.609,0-17.201,9.455-16.502,21.611c0.143,2.445,0.822,5.969,1.66,8.99
	c1.742,6.277,10.93,12.6,14.842,12.6c3.91,0,13.1-6.322,14.84-12.6c0.84-3.021,1.52-6.545,1.664-8.99
	C49.201,15.826,43.611,6.371,32,6.371z"/>
<path fill="#7A421B" d="M32,39.545c-2.822-1.242-2.844-0.051-7.199,0.242c1.635,1.855,2.838,4.242,7.197,4.242
	c5.004,0,5.85-2.711,7.203-4.242C34.842,39.494,34.822,38.303,32,39.545z"/>
<path fill="#FFFFFF" d="M26.107,40.248c2.844,2.961,8.977,2.922,11.785,0.002C33.514,40.721,30.488,40.721,26.107,40.248z"/>
<path fill="#36281D" d="M44.795,23.566c-2.617-1.559-7.309-1.75-9.166-0.688c-0.393,0.215-0.287,1.342,0.053,1.201
	c2.648-1.104,6.682-1.158,9.168,0.117C45.184,24.365,45.189,23.793,44.795,23.566z"/>
<path fill="#36281D" d="M19.207,23.566c2.615-1.559,7.307-1.75,9.166-0.688c0.393,0.215,0.289,1.342-0.055,1.201
	c-2.648-1.104-6.68-1.16-9.166,0.117C18.818,24.365,18.811,23.793,19.207,23.566z"/>
<path fill="#755035" d="M35.6,35.303c0,2.342-7.199,2.342-7.199,0C28.4,34.764,35.6,34.764,35.6,35.303z"/>
<path fill="#FFFFFF" d="M44.541,28.314c-1.551,4.059-7.861,3.465-9.016,0.623C36.4,24.371,43.688,23.98,44.541,28.314z"/>
<path fill="#613F34" d="M37.105,27.873c0,3.596,5.201,3.596,5.201,0C42.307,24.535,37.105,24.535,37.105,27.873z"/>
<path fill="#7D5037" d="M37.619,29.023c0,2.063,4.172,2.063,4.172,0C41.791,27.109,37.619,27.109,37.619,29.023z"/>
<path fill="#1A1626" d="M38.627,27.93c0,1.492,2.158,1.492,2.158,0C40.785,26.545,38.627,26.545,38.627,27.93z"/>
<path fill="#AB968C" d="M37.889,27.494c0,0.754,1.09,0.754,1.09,0C38.979,26.793,37.889,26.793,37.889,27.494z"/>
<path fill="#45332C" d="M44.541,28.283c0-4.361-9.016-4.361-9.016,0.691C36.811,24.828,43.254,24.828,44.541,28.283z"/>
<path fill="#FFFFFF" d="M19.459,28.314c1.553,4.059,7.863,3.465,9.02,0.623C27.602,24.371,20.314,23.98,19.459,28.314z"/>
<path fill="#613F34" d="M21.695,27.879c0,3.596,5.199,3.596,5.199,0C26.895,24.541,21.695,24.541,21.695,27.879z"/>
<path fill="#7D5037" d="M22.209,29.029c0,2.061,4.172,2.061,4.172,0C26.381,27.115,22.209,27.115,22.209,29.029z"/>
<path fill="#1A1626" d="M23.215,27.936c0,1.492,2.16,1.492,2.16,0C25.375,26.549,23.215,26.549,23.215,27.936z"/>
<path fill="#AB968C" d="M22.479,27.498c0,0.756,1.09,0.756,1.09,0C23.568,26.799,22.479,26.799,22.479,27.498z"/>
<path fill="#45332C" d="M19.459,28.283c0-4.361,9.02-4.361,9.02,0.689C27.191,24.826,20.748,24.826,19.459,28.283z"/>
<path fill="#8E3ED6" d="M47.471,45.924C49.803,43.752,52,34.201,52,22.846C52,8.949,41.5,2,32,2S12,8.949,12,22.846
	c0,11.355,2.195,20.906,4.527,23.078c-1.281,2.432-3.527,2.316-2.434,4.611c10.561,1.605,8.064,8.943,17.906,8.943
	s7.346-7.338,17.904-8.943C51,48.24,48.752,48.355,47.471,45.924z M32,49.428c-3.885,0-13.01-6.281-14.74-12.516
	c-0.834-3.002-1.51-6.502-1.65-8.932C15.217,21.184,32,14.518,32,14.518s16.783,6.666,16.393,13.463
	c-0.143,2.43-0.818,5.93-1.652,8.932C45.012,43.146,35.885,49.428,32,49.428z"/>
<path fill="#732EB0" d="M31.48,5.947c24.672,6.895,23.504,41.408-2.02,47.502C55.092,51.248,60.383,10.455,31.48,5.947z"/>
<path fill="#732EB0" d="M47.471,45.924c-10.502,5.633-11.281,14.83-25.129,6.439C35.859,64.051,39.566,52.371,47.471,45.924z"/>
<path fill="#A253E8" d="M15.912,39.363c1.594,8.025,8.287,14.506,17.098,11.713C25.256,51.482,20.225,47.514,15.912,39.363z"/>
<path fill="#A253E8" d="M26.365,12.086c-8.049,1.471-14.631,8.064-11.973,16.916C14.105,21.242,18.15,16.273,26.365,12.086z"/>
</svg>
