<?xml version="1.0" encoding="utf-8"?>
<!-- Generator: Adobe Illustrator 15.0.0, SVG Export Plug-In . SVG Version: 6.00 Build 0)  -->
<!DOCTYPE svg PUBLIC "-//W3C//DTD SVG 1.1//EN" "http://www.w3.org/Graphics/SVG/1.1/DTD/svg11.dtd" [
	<!ENTITY ns_flows "http://ns.adobe.com/Flows/1.0/">
	<!ENTITY ns_extend "http://ns.adobe.com/Extensibility/1.0/">
	<!ENTITY ns_ai "http://ns.adobe.com/AdobeIllustrator/10.0/">
	<!ENTITY ns_graphs "http://ns.adobe.com/Graphs/1.0/">
]>
<svg version="1.1" id="Layer_1" xmlns:x="&ns_extend;" xmlns:i="&ns_ai;" xmlns:graph="&ns_graphs;"
	 xmlns="http://www.w3.org/2000/svg" xmlns:xlink="http://www.w3.org/1999/xlink" xmlns:a="http://ns.adobe.com/AdobeSVGViewerExtensions/3.0/"
	 x="0px" y="0px" width="64px" height="64px" viewBox="0 0 64 64" enable-background="new 0 0 64 64" xml:space="preserve">
<path fill="#B1E5FD" d="M62,2C15.773,3.899,19.887,43.024,47.533,48.512c-6.553-5.17-1.512-9.592-5.648-13.116
	C59.023,25.256,44.463,15.108,62,2z"/>
<path fill="#7ED2FC" d="M49.646,9.903c-29.037,1.382-26.453,29.821-9.086,33.812c-4.117-3.757-0.951-6.972-3.549-9.534
	C47.777,26.809,38.631,19.432,49.646,9.903z"/>
<path fill="#B1E5FD" d="M2,3.775c32.889,1.697,29.963,36.638,10.291,41.539c4.664-4.615,1.076-8.566,4.02-11.713
	C4.117,24.546,14.477,15.481,2,3.775z"/>
<path fill="#7ED2FC" d="M10.789,10.834c20.658,1.232,18.82,26.634,6.463,30.198c2.932-3.357,0.678-6.228,2.525-8.516
	C12.119,25.933,18.627,19.346,10.789,10.834z"/>
<path fill="#FFE12C" d="M46.541,13.329L44.74,8.438c-0.211,0.098-0.412,0.21-0.6,0.346l1.73,4.703
	C46.094,13.435,46.316,13.381,46.541,13.329z"/>
<path fill="#D6A67A" d="M33.338,61.937c0.203-2.481-2.42-1.556-2.822-5.599c-0.18-1.774-1.348-0.156-2.201-0.807
	c-3.398-2.584-2.805-8.665-7.543-11.938c11.654-10.855,9.799-13.228,8.529-13.625c-4.355-1.366-12.762,10.972-11.926,13.208
	C22.742,57.536,33.279,62.643,33.338,61.937z"/>
<path fill="#D6A67A" d="M23.107,20.55c-0.832,2.924-0.832,4.537-0.684,5.194c-0.754,1.536-0.254,3.051-0.508,4.41
	c-0.066,0.361-0.428-0.557-0.701-1.041c0,0-0.354,0.561-0.078,1.166c0,0-1.08-0.757-1.307-1.538
	c-0.402,1.334,1.154,2.318,0.955,2.646c-0.361,0.585-1.313,0.982-1.311,1.891c1.533-1.409,2.061-0.577,3.012-1.218
	c0.631,0.038,1.037-0.519,0.584-1.576C23.307,29.49,25.926,25.366,23.107,20.55z"/>
<path fill="#E3C19B" d="M31.443,17.258c-0.416-0.102-0.658-0.176-1.225-0.201c-0.703-0.959,0.418-2.626-2.244-2.385
	c-1.42,0.248-0.777,1.937-1.412,2.574c-1.314,0.115-1.512,0.662-2.027,0.702c-2.65,0.187-3.73,2.987-1.357,4.591
	c-0.561,1.517,0.43,2.8,0.426,4.342c-0.01,2.853,1.584,4.396,2.943,6.474c-4.996,3.316-9.543,8.424-8.396,9.76
	c9.986,11.63,20.201,13.052,20.012,12.369c-0.664-2.4-2.805-0.628-4.578-4.283c-0.777-1.604-1.316,0.316-2.344,0
	c-4.08-1.256-2.789-6.905-8.363-8.345c15.959-6.801,11.357-10.756,8.955-12.305c-4.688-3.021-1.316-4.322,0.557-8.875
	C33.061,20.043,33.834,17.844,31.443,17.258z"/>
<path fill="#E3C19B" d="M45.814,13.334l-0.23-0.629c-0.932,0.986-0.031,0.396-0.033,2.085c-0.414,0.816-4.816,3.942-6.143,5.508
	c-0.854-0.018-3.045-1.235-5.314-1.93c-4.531-4.131-7.479,3.38-1.043,3.234c1.188,0.455,6.117,1.497,7.389,0.878
	c1.889-0.92,4.781-5.947,6.146-6.112C49.172,16.056,47.459,11.467,45.814,13.334z"/>
<path fill="#FFE12C" d="M46.686,15.709l1.576,4.286c0.068,0.178,0.705-0.063,0.641-0.241l-1.547-4.204
	C46.9,15.299,46.686,15.709,46.686,15.709z"/>
<polygon fill="#F9C802" points="43.543,9.998 43.283,8.493 41.904,7.853 43.248,7.143 43.426,5.623 44.516,6.688 46.006,6.391 
	45.334,7.762 46.078,9.095 44.574,8.876 "/>
<path fill="#D6A67A" d="M26.652,15.929c1.549,2,1.861,1.997,3.404-0.005L26.652,15.929z"/>
<path fill="#8E3ED6" d="M23.238,18.297c3.273-0.375,7.623,0.271,9.186,3.294c-2.09,5.911-4.777,4.973,0.318,9.189
	c5.639,4.664-1.469,16.184-1.313,10.809c0.094-3.219-3.402,3.944-3.625,0.656c-0.189-2.813-4.164,1.71-4-0.188
	c0.438-5.031-5.438,2.229-4.5-1.594c0.5-2.032-5.682,0.227-2.738-1.416c2.613-1.459,6.332-5.771,7.934-7.706
	c-1.852-3.847-1.145-6.813-2.008-8.128C20.961,20.881,21.939,18.839,23.238,18.297z"/>
<linearGradient id="SVGID_1_" gradientUnits="userSpaceOnUse" x1="31.3691" y1="9.9336" x2="44.1875" y2="9.9336">
	<stop  offset="0" style="stop-color:#B721CF"/>
	<stop  offset="1" style="stop-color:#FFABF7"/>
	<a:midPointStop  offset="0" style="stop-color:#B721CF"/>
	<a:midPointStop  offset="0.5" style="stop-color:#B721CF"/>
	<a:midPointStop  offset="1" style="stop-color:#FFABF7"/>
</linearGradient>
<path fill="url(#SVGID_1_)" d="M44.188,17.68c-0.688-0.026-1.559-1.067-2.338-2.444c0.668,0.123,1.391,0.079,2.18-0.235
	c-6.48-2.413-4.068-16.224-12.66-12.022L32.617,6.9C37.625,3.963,36.494,17.58,44.188,17.68z"/>
<linearGradient id="SVGID_2_" gradientUnits="userSpaceOnUse" x1="32.2832" y1="10.9141" x2="44.1875" y2="10.9141">
	<stop  offset="0" style="stop-color:#B721CF"/>
	<stop  offset="0.1331" style="stop-color:#BB28D1"/>
	<stop  offset="0.3284" style="stop-color:#C53CD7"/>
	<stop  offset="0.5621" style="stop-color:#D65CE0"/>
	<stop  offset="0.8232" style="stop-color:#ED89ED"/>
	<stop  offset="1" style="stop-color:#FFABF7"/>
	<a:midPointStop  offset="0" style="stop-color:#B721CF"/>
	<a:midPointStop  offset="0.6242" style="stop-color:#B721CF"/>
	<a:midPointStop  offset="1" style="stop-color:#FFABF7"/>
</linearGradient>
<path fill="url(#SVGID_2_)" d="M44.188,17.68c-0.688-0.026-2.967-1.296-3.744-2.674c1.891,0.697,2.912,0.658,3.586-0.006
	c-7.361-0.935-5.16-14.526-11.746-9.896L32.617,6.9C37.105,5.284,34.021,17.946,44.188,17.68z"/>
<path fill="#8E3ED6" d="M30.834,2.669c-1.4,0.593,2.156,6.794,3.543,4.72C35.844,5.201,32.842,1.817,30.834,2.669z"/>
<path fill="#D6A67A" d="M32.748,12.106c1.436,1.428,2.867-3.756,1.033-3.422C32.924,8.841,32.08,11.442,32.748,12.106z"/>
<path fill="#D6A67A" d="M23.84,12.106c0.668-0.664-0.174-3.266-1.033-3.422C20.971,8.351,22.404,13.534,23.84,12.106z"/>
<path fill="#E3C19B" d="M28.293,2.669c-3.824,0-5.668,3.107-5.438,7.105c0.047,0.804,0.271,1.963,0.549,2.956
	c0.572,2.063,3.602,4.142,4.889,4.142c1.291,0,4.314-2.078,4.889-4.142c0.277-0.993,0.5-2.152,0.549-2.956
	C33.961,5.776,32.121,2.669,28.293,2.669z"/>
<path fill="#594640" d="M32.51,8.32c-0.863-0.512-2.41-0.575-3.021-0.225c-0.129,0.07-0.092,0.441,0.018,0.396
	c0.873-0.362,2.203-0.383,3.021,0.038C32.637,8.585,32.639,8.396,32.51,8.32z"/>
<path fill="#594640" d="M24.08,8.32c0.859-0.512,2.406-0.575,3.02-0.225c0.127,0.07,0.094,0.441-0.02,0.396
	c-0.873-0.362-2.201-0.383-3.018,0.038C23.949,8.585,23.945,8.396,24.08,8.32z"/>
<path fill="#D6A67A" d="M29.479,12.182c0,0.771-2.369,0.771-2.369,0C27.109,12.004,29.479,12.004,29.479,12.182z"/>
<path fill="#FFFFFF" d="M32.424,9.885c-0.508,1.332-2.588,1.137-2.967,0.204C29.742,8.586,32.143,8.458,32.424,9.885z"/>
<path fill="#613F34" d="M29.975,9.737c0,1.183,1.715,1.183,1.715,0C31.689,8.639,29.975,8.639,29.975,9.737z"/>
<path fill="#7D5037" d="M30.146,10.115c0,0.679,1.375,0.679,1.375,0C31.521,9.487,30.146,9.487,30.146,10.115z"/>
<path fill="#1A1626" d="M30.477,9.758c0,0.49,0.711,0.49,0.711,0C31.188,9.3,30.477,9.3,30.477,9.758z"/>
<path fill="#AB968C" d="M30.234,9.612c0,0.248,0.361,0.248,0.361,0C30.596,9.383,30.234,9.383,30.234,9.612z"/>
<path fill="#45332C" d="M32.424,9.873c0-1.436-2.967-1.436-2.967,0.227C29.879,8.735,32,8.735,32.424,9.873z"/>
<path fill="#FFFFFF" d="M24.16,9.885c0.514,1.332,2.592,1.137,2.973,0.204C26.844,8.586,24.443,8.458,24.16,9.885z"/>
<path fill="#613F34" d="M24.898,9.741c0,1.181,1.713,1.181,1.713,0C26.611,8.642,24.898,8.642,24.898,9.741z"/>
<path fill="#7D5037" d="M25.07,10.118c0,0.678,1.371,0.678,1.371,0C26.441,9.489,25.07,9.489,25.07,10.118z"/>
<path fill="#1A1626" d="M25.396,9.759c0,0.491,0.713,0.491,0.713,0C26.109,9.302,25.396,9.302,25.396,9.759z"/>
<path fill="#AB968C" d="M25.156,9.616c0,0.246,0.359,0.246,0.359,0C25.516,9.385,25.156,9.385,25.156,9.616z"/>
<path fill="#45332C" d="M24.16,9.873c0-1.436,2.973-1.436,2.973,0.225C26.709,8.735,24.586,8.735,24.16,9.873z"/>
<linearGradient id="SVGID_3_" gradientUnits="userSpaceOnUse" x1="30.8452" y1="6.8457" x2="34.3906" y2="6.8457">
	<stop  offset="0" style="stop-color:#FFABF7"/>
	<stop  offset="1" style="stop-color:#B721CF"/>
	<a:midPointStop  offset="0" style="stop-color:#FFABF7"/>
	<a:midPointStop  offset="0.5" style="stop-color:#FFABF7"/>
	<a:midPointStop  offset="1" style="stop-color:#B721CF"/>
</linearGradient>
<path fill="url(#SVGID_3_)" d="M33.73,10.043c-0.805-4.128-4.633-3.596-1.938-6.351C33.479,3.164,35.441,7.605,33.73,10.043z"/>
<linearGradient id="SVGID_4_" gradientUnits="userSpaceOnUse" x1="22.5977" y1="5.8892" x2="31.8379" y2="5.8892">
	<stop  offset="0" style="stop-color:#FFABF7"/>
	<stop  offset="1" style="stop-color:#B721CF"/>
	<a:midPointStop  offset="0" style="stop-color:#FFABF7"/>
	<a:midPointStop  offset="0.5" style="stop-color:#FFABF7"/>
	<a:midPointStop  offset="1" style="stop-color:#B721CF"/>
</linearGradient>
<path fill="url(#SVGID_4_)" d="M31.793,3.691c-1.635,4.106-7.492,3.561-8.959,6.087c-0.588-2.106-0.295-6.121,3.404-7.405
	C29.576,1.215,32.219,3.065,31.793,3.691z"/>
<linearGradient id="SVGID_5_" gradientUnits="userSpaceOnUse" x1="30.8286" y1="5.8003" x2="33.707" y2="5.8003">
	<stop  offset="0" style="stop-color:#FFABF7"/>
	<stop  offset="0.1768" style="stop-color:#ED89ED"/>
	<stop  offset="0.4379" style="stop-color:#D65CE0"/>
	<stop  offset="0.6716" style="stop-color:#C53CD7"/>
	<stop  offset="0.8669" style="stop-color:#BB28D1"/>
	<stop  offset="1" style="stop-color:#B721CF"/>
	<a:midPointStop  offset="0" style="stop-color:#FFABF7"/>
	<a:midPointStop  offset="0.3758" style="stop-color:#FFABF7"/>
	<a:midPointStop  offset="1" style="stop-color:#B721CF"/>
</linearGradient>
<path fill="url(#SVGID_5_)" d="M33.707,7.438c-1.322-3.646-3.197-2.18-2.832-3.138C31.963,3.739,33.404,4.904,33.707,7.438z"/>
<path fill="#C97E55" d="M28.293,13.52c-0.898-0.396-0.906-0.017-2.295,0.076c0.523,0.591,0.906,1.35,2.293,1.35
	c1.598,0,1.865-0.862,2.297-1.35C29.201,13.503,29.193,13.124,28.293,13.52z"/>
<path fill="#FFFFFF" d="M26.416,13.741c0.906,0.941,2.859,0.931,3.756,0.001C28.775,13.893,27.813,13.893,26.416,13.741z"/>
<linearGradient id="SVGID_6_" gradientUnits="userSpaceOnUse" x1="23.6074" y1="5.5024" x2="31.793" y2="5.5024">
	<stop  offset="0" style="stop-color:#FFABF7"/>
	<stop  offset="0.2111" style="stop-color:#FDA8F6"/>
	<stop  offset="0.3793" style="stop-color:#F89EF3"/>
	<stop  offset="0.5327" style="stop-color:#EF8DEE"/>
	<stop  offset="0.6774" style="stop-color:#E375E7"/>
	<stop  offset="0.8158" style="stop-color:#D357DF"/>
	<stop  offset="0.9478" style="stop-color:#C032D4"/>
	<stop  offset="1" style="stop-color:#B721CF"/>
	<a:midPointStop  offset="0" style="stop-color:#FFABF7"/>
	<a:midPointStop  offset="0.7515" style="stop-color:#FFABF7"/>
	<a:midPointStop  offset="1" style="stop-color:#B721CF"/>
</linearGradient>
<path fill="url(#SVGID_6_)" d="M31.793,3.692c-0.945,2.356-4.105,1.85-8.186,3.62C27.4,4.638,28.969,5.801,31.793,3.692z"/>
<linearGradient id="SVGID_7_" gradientUnits="userSpaceOnUse" x1="22.834" y1="6.7349" x2="31.793" y2="6.7349">
	<stop  offset="0" style="stop-color:#FFABF7"/>
	<stop  offset="0.2111" style="stop-color:#FDA8F6"/>
	<stop  offset="0.3793" style="stop-color:#F89EF3"/>
	<stop  offset="0.5327" style="stop-color:#EF8DEE"/>
	<stop  offset="0.6774" style="stop-color:#E375E7"/>
	<stop  offset="0.8158" style="stop-color:#D357DF"/>
	<stop  offset="0.9478" style="stop-color:#C032D4"/>
	<stop  offset="1" style="stop-color:#B721CF"/>
	<a:midPointStop  offset="0" style="stop-color:#FFABF7"/>
	<a:midPointStop  offset="0.7515" style="stop-color:#FFABF7"/>
	<a:midPointStop  offset="1" style="stop-color:#B721CF"/>
</linearGradient>
<path fill="url(#SVGID_7_)" d="M31.793,3.691c-1.469,4.718-6.719,3.693-8.959,6.087C23.826,6.979,29.34,7.594,31.793,3.691z"/>
</svg>
