<?xml version="1.0" encoding="utf-8"?>
<!-- Generator: Adobe Illustrator 15.0.0, SVG Export Plug-In . SVG Version: 6.00 Build 0)  -->
<!DOCTYPE svg PUBLIC "-//W3C//DTD SVG 1.1//EN" "http://www.w3.org/Graphics/SVG/1.1/DTD/svg11.dtd" [
	<!ENTITY ns_flows "http://ns.adobe.com/Flows/1.0/">
	<!ENTITY ns_extend "http://ns.adobe.com/Extensibility/1.0/">
	<!ENTITY ns_ai "http://ns.adobe.com/AdobeIllustrator/10.0/">
	<!ENTITY ns_graphs "http://ns.adobe.com/Graphs/1.0/">
]>
<svg version="1.1" id="Layer_1" xmlns:x="&ns_extend;" xmlns:i="&ns_ai;" xmlns:graph="&ns_graphs;"
	 xmlns="http://www.w3.org/2000/svg" xmlns:xlink="http://www.w3.org/1999/xlink" xmlns:a="http://ns.adobe.com/AdobeSVGViewerExtensions/3.0/"
	 x="0px" y="0px" width="64px" height="64px" viewBox="0 0 64 64" enable-background="new 0 0 64 64" xml:space="preserve">
<path opacity="0.15" fill="#A6AEB0" d="M2,62h60V28.307c-24.665,9.24-39.114-8.317-60,0V62z"/>
<path opacity="0.15" fill="#A6AEB0" d="M62,62H2V38.427c24.665,8.541,39.114-7.686,60,0V62z"/>
<path fill="#3B2C29" d="M19.076,13.401c-8.712,37.397-7.915,36.597,10.426,36.597C19.353,42.897,38.795,12.894,19.076,13.401z"/>
<path fill="#453631" d="M15.934,12.823c-6.357,28.412-0.872,35.71,3.998,37.175h5.583C12.453,40.796,32.869,12.265,15.934,12.823z"
	/>
<path fill="#3B2C29" d="M44.709,13.401c8.713,37.397,7.915,36.597-10.425,36.597C43.617,44.298,24.99,12.892,44.709,13.401z"/>
<path fill="#453631" d="M47.85,12.821c9.295,25.85-0.02,35.979-3.998,37.177h-5.579C51.334,41.546,30.918,12.263,47.85,12.821z"/>
<path fill="#FFCC66" d="M24.981,48.869c0,5.754,14.035,5.754,14.035,0c0-3.513,0-5.317,0-5.317H24.981
	C24.981,43.552,24.981,44.335,24.981,48.869z"/>
<path fill="#E6B045" d="M24.801,44.294c6.543,6.737,7.857,6.731,14.397-0.004L24.801,44.294z"/>
<path fill="#FFCC66" d="M32,4.415c-11.609,0-17.201,9.455-16.502,21.611c0.143,2.443,0.822,5.969,1.662,8.988
	C18.9,41.292,28.088,47.615,32,47.615c3.911,0,13.1-6.323,14.84-12.601c0.84-3.02,1.52-6.545,1.664-8.988
	C49.201,13.87,43.611,4.415,32,4.415z"/>
<path fill="#FFFFFF" d="M44.542,26.356c-1.552,4.061-7.861,3.465-9.017,0.623C36.4,22.415,43.688,22.024,44.542,26.356z"/>
<path fill="#FFFFFF" d="M19.46,26.356c1.552,4.061,7.862,3.467,9.02,0.623C27.603,22.415,20.314,22.024,19.46,26.356z"/>
<path fill="#D47706" d="M32.001,37.587c-2.822-1.24-2.844-0.051-7.2,0.242c1.636,1.855,2.839,4.244,7.198,4.244
	c5.003,0,5.849-2.711,7.202-4.244C34.842,37.536,34.823,36.347,32.001,37.587z"/>
<path fill="#FFFFFF" d="M26.108,38.292c2.844,2.959,8.977,2.92,11.784,0C33.515,38.763,30.488,38.763,26.108,38.292z"/>
<path fill="#594640" d="M44.795,21.61c-2.617-1.561-7.308-1.75-9.165-0.688c-0.394,0.213-0.287,1.34,0.053,1.199
	c2.648-1.104,6.681-1.158,9.167,0.117C45.184,22.409,45.189,21.837,44.795,21.61z"/>
<path fill="#594640" d="M19.207,21.61c2.616-1.561,7.307-1.75,9.167-0.688c0.393,0.213,0.288,1.34-0.055,1.199
	c-2.648-1.104-6.68-1.158-9.167,0.117C18.818,22.409,18.813,21.837,19.207,21.61z"/>
<path fill="#E6B045" d="M35.601,33.345c0,2.342-7.2,2.342-7.2,0C28.4,32.808,35.601,32.808,35.601,33.345z"/>
<path fill="#594640" d="M44.973,6.104c-8.14,8.342-0.371,8.881,4.424,20.607c2.692,6.572,0.029,20.06-5.545,23.286
	c6.177,0,9.939-8.55,11.774-20.31C57.917,14.993,49.109,4.879,44.973,6.104z"/>
<path fill="#594640" d="M24.99,2.911C14.667,5.341,5.045,14.462,8.851,32.415c2.25,10.613,5.019,17.583,11.081,17.583
	c-6.758-6.999-5.964-21.761-4.043-25.433c9.793-5.828,26.539-10.24,29.084-18.461C46.265,4.209,35.32,0.205,24.99,2.911z"/>
<path fill="#453631" d="M17.081,15.987c4.366-0.885,25.249-1.301,27.892-9.883C40.037,10.038,34.924,11.11,17.081,15.987z"/>
<path fill="#453631" d="M9.555,29.636c7.324-9.773,31.314-8.695,35.418-23.531C37.007,18.558,11.557,20.241,9.555,29.636z"/>
<path fill="#453631" d="M42.559,8.14c-1.89,2.977,4.678-1.398,11.757,17.785C52.569,14.71,46.589,6.987,42.559,8.14z"/>
<path fill="#613F34" d="M37.106,25.915c0,3.596,5.199,3.596,5.199,0C42.306,22.577,37.106,22.577,37.106,25.915z"/>
<path fill="#7D5037" d="M37.619,27.065c0,2.063,4.172,2.063,4.172,0C41.791,25.151,37.619,25.151,37.619,27.065z"/>
<path fill="#1A1626" d="M38.626,25.972c0,1.492,2.16,1.492,2.16,0C40.786,24.587,38.626,24.587,38.626,25.972z"/>
<path fill="#AB968C" d="M37.889,25.536c0,0.754,1.09,0.754,1.09,0C38.979,24.837,37.889,24.837,37.889,25.536z"/>
<path fill="#613F34" d="M21.695,25.921c0,3.596,5.2,3.596,5.2,0C26.896,22.583,21.695,22.583,21.695,25.921z"/>
<path fill="#7D5037" d="M22.21,27.071c0,2.063,4.172,2.063,4.172,0C26.382,25.157,22.21,25.157,22.21,27.071z"/>
<path fill="#1A1626" d="M23.217,25.978c0,1.492,2.158,1.492,2.158,0C25.375,24.593,23.217,24.593,23.217,25.978z"/>
<path fill="#AB968C" d="M22.479,25.542c0,0.754,1.09,0.754,1.09,0C23.569,24.841,22.479,24.841,22.479,25.542z"/>
<path fill="#45332C" d="M44.542,26.325c0-4.361-9.017-4.361-9.017,0.691C36.811,22.87,43.254,22.87,44.542,26.325z"/>
<path fill="#45332C" d="M19.46,26.325c0-4.361,9.02-4.361,9.02,0.689C27.191,22.87,20.748,22.87,19.46,26.325z"/>
<path fill="#FFCC66" d="M12.256,52.379c2.4-1.42,13.365-5.166,13.365-5.166c3.531,3.727,9.301,3.727,12.832,0
	c0,0,10.952,3.74,13.343,5.162C55.267,54.441,56,62,56,62H8C8,62,8.773,54.434,12.256,52.379z"/>
<path fill="#A0D8E9" d="M23.21,62H49c0,0-0.319-4.139-4.029-4.092C21.665,58.188,23.21,62,23.21,62z"/>
<path fill="#CAE8F0" d="M33.949,58.311c-11.978-0.023-10.28-0.391-14.918-0.402C15.317,57.896,15,62,15,62h25.791
	C40.791,62,39.928,58.324,33.949,58.311z"/>
<path opacity="0.2" fill="#A6AEB0" d="M62,62H2V48.548c24.03-7.938,37.938,8.664,60,0V62z"/>
</svg>
