<?xml version="1.0" encoding="utf-8"?>
<!-- Generator: Adobe Illustrator 15.0.0, SVG Export Plug-In . SVG Version: 6.00 Build 0)  -->
<!DOCTYPE svg PUBLIC "-//W3C//DTD SVG 1.1//EN" "http://www.w3.org/Graphics/SVG/1.1/DTD/svg11.dtd" [
	<!ENTITY ns_flows "http://ns.adobe.com/Flows/1.0/">
	<!ENTITY ns_extend "http://ns.adobe.com/Extensibility/1.0/">
	<!ENTITY ns_ai "http://ns.adobe.com/AdobeIllustrator/10.0/">
	<!ENTITY ns_graphs "http://ns.adobe.com/Graphs/1.0/">
]>
<svg version="1.1" id="Layer_1" xmlns:x="&ns_extend;" xmlns:i="&ns_ai;" xmlns:graph="&ns_graphs;"
	 xmlns="http://www.w3.org/2000/svg" xmlns:xlink="http://www.w3.org/1999/xlink" xmlns:a="http://ns.adobe.com/AdobeSVGViewerExtensions/3.0/"
	 x="0px" y="0px" width="64px" height="64px" viewBox="0 0 64 64" enable-background="new 0 0 64 64" xml:space="preserve">
<path fill="#4A148C" d="M51.799,51.614c-11.348-7.299-28.186-7.247-39.543,0.004C8.773,53.836,8,62,8,62h48
	C56,62,55.27,53.843,51.799,51.614z"/>
<path fill="#FFCC66" d="M32,6.372c-11.609,0-17.201,9.455-16.502,21.611c0.143,2.445,0.822,5.969,1.66,8.99
	c1.742,6.277,10.93,12.6,14.842,12.6c3.91,0,13.1-6.322,14.84-12.6c0.84-3.021,1.52-6.545,1.664-8.99
	C49.201,15.827,43.611,6.372,32,6.372z"/>
<radialGradient id="SVGID_1_" cx="32.001" cy="42.6602" r="29.3746" gradientUnits="userSpaceOnUse">
	<stop  offset="0.6424" style="stop-color:#1A1626;stop-opacity:0"/>
	<stop  offset="0.8504" style="stop-color:#1A1626;stop-opacity:0.8801"/>
	<stop  offset="0.8788" style="stop-color:#1A1626"/>
	<a:midPointStop  offset="0.6424" style="stop-color:#1A1626;stop-opacity:0"/>
	<a:midPointStop  offset="0.7755" style="stop-color:#1A1626;stop-opacity:0"/>
	<a:midPointStop  offset="0.8788" style="stop-color:#1A1626"/>
</radialGradient>
<path opacity="0.6" fill="url(#SVGID_1_)" d="M32,6.372c-11.609,0-17.201,9.455-16.502,21.611c0.143,2.445,0.822,5.969,1.66,8.99
	c1.742,6.277,10.93,12.6,14.842,12.6c3.91,0,13.1-6.322,14.84-12.6c0.84-3.021,1.52-6.545,1.664-8.99
	C49.201,15.827,43.611,6.372,32,6.372z"/>
<path fill="#D47706" d="M32,39.546c-2.822-1.242-2.844-0.051-7.199,0.242c1.635,1.855,2.838,4.242,7.197,4.242
	c5.004,0,5.85-2.711,7.203-4.242C34.842,39.495,34.822,38.304,32,39.546z"/>
<path fill="#FFFFFF" d="M26.107,40.249c2.844,2.961,8.977,2.922,11.785,0.002C33.514,40.722,30.488,40.722,26.107,40.249z"/>
<path fill="#594640" d="M44.795,23.567c-2.617-1.559-7.309-1.75-9.166-0.688c-0.393,0.215-0.287,1.342,0.053,1.201
	c2.648-1.104,6.682-1.158,9.168,0.117C45.184,24.366,45.189,23.794,44.795,23.567z"/>
<path fill="#594640" d="M19.207,23.567c2.615-1.559,7.307-1.75,9.166-0.688c0.393,0.215,0.289,1.342-0.055,1.201
	c-2.648-1.104-6.68-1.16-9.166,0.117C18.818,24.366,18.811,23.794,19.207,23.567z"/>
<path fill="#E6B045" d="M35.6,35.304c0,2.342-7.199,2.342-7.199,0C28.4,34.765,35.6,34.765,35.6,35.304z"/>
<path fill="#FFFFFF" d="M44.541,28.315c-1.551,4.059-7.861,3.465-9.016,0.623C36.4,24.372,43.688,23.981,44.541,28.315z"/>
<path fill="#613F34" d="M37.105,27.874c0,3.596,5.201,3.596,5.201,0C42.307,24.536,37.105,24.536,37.105,27.874z"/>
<path fill="#7D5037" d="M37.619,29.024c0,2.063,4.172,2.063,4.172,0C41.791,27.11,37.619,27.11,37.619,29.024z"/>
<path fill="#1A1626" d="M38.627,27.931c0,1.492,2.158,1.492,2.158,0C40.785,26.546,38.627,26.546,38.627,27.931z"/>
<path fill="#AB968C" d="M37.889,27.495c0,0.754,1.09,0.754,1.09,0C38.979,26.794,37.889,26.794,37.889,27.495z"/>
<path fill="#45332C" d="M44.541,28.284c0-4.361-9.016-4.361-9.016,0.691C36.811,24.829,43.254,24.829,44.541,28.284z"/>
<path fill="#FFFFFF" d="M19.459,28.315c1.553,4.059,7.863,3.465,9.02,0.623C27.602,24.372,20.314,23.981,19.459,28.315z"/>
<path fill="#613F34" d="M21.695,27.88c0,3.596,5.199,3.596,5.199,0C26.895,24.542,21.695,24.542,21.695,27.88z"/>
<path fill="#7D5037" d="M22.209,29.03c0,2.061,4.172,2.061,4.172,0C26.381,27.116,22.209,27.116,22.209,29.03z"/>
<path fill="#1A1626" d="M23.215,27.937c0,1.492,2.16,1.492,2.16,0C25.375,26.55,23.215,26.55,23.215,27.937z"/>
<path fill="#AB968C" d="M22.479,27.499c0,0.756,1.09,0.756,1.09,0C23.568,26.8,22.479,26.8,22.479,27.499z"/>
<path fill="#45332C" d="M19.459,28.284c0-4.361,9.02-4.361,9.02,0.689C27.191,24.827,20.748,24.827,19.459,28.284z"/>
<path fill="#8E3ED6" d="M47.471,45.925C49.804,43.752,52,34.201,52,22.847C52,8.949,41.5,2,32,2S12,8.949,12,22.847
	c0,11.354,2.196,20.905,4.528,23.078c-1.282,2.432-3.528,2.316-2.434,4.61c10.56,1.606,8.063,8.943,17.905,8.943
	s7.346-7.337,17.904-8.943C51,48.241,48.753,48.356,47.471,45.925z M32,49.428c-3.885,0-13.01-6.28-14.74-12.516
	c-0.834-3.001-1.51-6.501-1.65-8.931C15.218,21.185,32,14.518,32,14.518s16.784,6.667,16.393,13.464
	c-0.143,2.43-0.818,5.93-1.652,8.931C45.012,43.147,35.885,49.428,32,49.428z"/>
<path fill="#732EB0" d="M31.481,5.948c24.672,6.894,23.503,41.408-2.02,47.502C55.092,51.248,60.383,10.455,31.481,5.948z"/>
<path fill="#732EB0" d="M47.471,45.925c-10.502,5.632-11.281,14.83-25.128,6.438C35.86,64.051,39.566,52.372,47.471,45.925z"/>
<path fill="#A253E8" d="M15.913,39.364C17.507,47.39,24.2,53.87,33.01,51.077C25.257,51.483,20.226,47.515,15.913,39.364z"/>
<path fill="#A253E8" d="M26.366,12.087c-8.049,1.47-14.632,8.063-11.974,16.915C14.105,21.243,18.15,16.273,26.366,12.087z"/>
</svg>
