<?xml version="1.0" encoding="utf-8"?>
<!-- Generator: Adobe Illustrator 15.0.0, SVG Export Plug-In . SVG Version: 6.00 Build 0)  -->
<!DOCTYPE svg PUBLIC "-//W3C//DTD SVG 1.1//EN" "http://www.w3.org/Graphics/SVG/1.1/DTD/svg11.dtd" [
	<!ENTITY ns_flows "http://ns.adobe.com/Flows/1.0/">
	<!ENTITY ns_extend "http://ns.adobe.com/Extensibility/1.0/">
	<!ENTITY ns_ai "http://ns.adobe.com/AdobeIllustrator/10.0/">
	<!ENTITY ns_graphs "http://ns.adobe.com/Graphs/1.0/">
]>
<svg version="1.1" id="Layer_1" xmlns:x="&ns_extend;" xmlns:i="&ns_ai;" xmlns:graph="&ns_graphs;"
	 xmlns="http://www.w3.org/2000/svg" xmlns:xlink="http://www.w3.org/1999/xlink" xmlns:a="http://ns.adobe.com/AdobeSVGViewerExtensions/3.0/"
	 x="0px" y="0px" width="64px" height="64px" viewBox="0 0 64 64" enable-background="new 0 0 64 64" xml:space="preserve">
<path fill="#F9B700" d="M47.567,53.634c0,0.577,3.051,0.577,3.051,0C50.618,51.298,47.567,51.298,47.567,53.634z"/>
<path fill="#F59E01" d="M44.776,55.403c0,0.715,8.633,0.715,8.633,0C53.409,52.509,44.776,52.509,44.776,55.403z"/>
<path fill="#F59E01" d="M44.776,61.464c0,0.715,8.633,0.715,8.633,0C53.409,58.571,44.776,58.571,44.776,61.464z"/>
<path fill="#F59E01" d="M56.019,58.75c7.49,3.769,3.059-7.946-2.23-2.876C49.3,58.022,54.632,62.745,56.019,58.75z M54.308,56.528
	c3.063-2.932,6.52,2.456,2.711,1.926c1.23-1.854-2.215-2.367-1.773-0.688c-0.953-0.584-2.105,0.658-1.016,1.445
	C52.944,59.007,52.62,57.337,54.308,56.528z"/>
<path fill="#F9B700" d="M54.97,55.685c-5.346-2.746-8.012,0.461-16.77-2.451c-0.768,0.432-2.227,0.506-1.18,1.748
	C45.222,53.91,47.212,66.06,54.97,55.685z"/>
<path fill="#AB5C10" d="M38.347,53.522c-0.097-0.191-1.515,0.531-1.418,0.724C37.324,55.022,38.744,54.3,38.347,53.522z"/>
<path fill="#0FB4D4" d="M33.616,35.595c-2.148,8.857-9.323,11.584-11.426,5.801c-2.568-0.82-10.931-0.822-13.506,0
	c-5.17,13.68,15.162,23.426,24.807,0.502c8.063-19.157,22.899-8.189,5.896,2.104c-9.945,6.021-5.594,9.041-1.332,10.392
	c-4.088-3.481-1.779-5.417,3.291-7.686C74.547,31.838,38.357,16.052,33.616,35.595z"/>
<path fill="#B30BAD" d="M21.649,39.262c0,2.667-12.426,2.667-12.426,0c0,0-0.105-5.249-1.797-8.333h16.02
	C21.753,34.013,21.649,39.262,21.649,39.262z"/>
<path fill="#F9B700" d="M22.19,41.396c0,2.666-6.754,4.408-6.754,4.408s-6.752-1.742-6.752-4.408
	c0.66-2.154,0.539-2.134,0.539-2.134c3.62,1.86,8.808,1.86,12.426,0C21.649,39.262,21.554,39.804,22.19,41.396z"/>
<path fill="#014D87" d="M39.184,20.683C24.56,18.409,31.217,5.762,21.947,2.356c-5.935-2.181-9.389,6.247-5.978,9.2
	C25.319,5.16,21.95,25.443,39.184,20.683z"/>
<path fill="#012A4A" d="M34.488,22.193C22.506,19.004,27.77,5.813,21.214,3.656c-4.884-1.607-7.097,5.434-4.318,8.031
	C25.956,6.649,17.611,23.334,34.488,22.193z"/>
<path fill="#F59E01" d="M15.072,4.319c1.065-3.015,7.193-0.844,6.126,2.171C20.968,7.141,14.802,5.077,15.072,4.319z"/>
<path fill="#0FB4D4" d="M18.13,18.07c-0.727-0.609-4.665-0.609-5.388,0c-0.103,3.602-0.389,3.322-5.51,4.562
	c0,2.631,8.203,5.984,8.203,5.984s8.203-3.353,8.203-5.984C18.515,21.393,18.231,21.672,18.13,18.07z"/>
<path fill="#006DAE" d="M16.203,25.001c-0.43,0.449-0.768,1.472-0.768,1.472s-0.335-1.022-0.768-1.472
	c0.768,2.3,0.582,3.335,0.582,3.335h0.372C15.622,28.336,15.436,27.157,16.203,25.001z"/>
<path fill="#B30BAD" d="M8.68,33.074h13.512c0.425-3.133,1.495-5.989,4.198-6.306c0.979-1.209,0.671-4.473-2.903-4.267
	c-4.444,1.613-2.684,5.095-8.051,5.095c-5.369,0-3.608-3.481-8.053-5.095c-3.572-0.207-3.883,3.057-2.901,4.267
	C7.186,27.085,8.256,29.941,8.68,33.074z"/>
<path fill="#0FB4D4" d="M4.557,26.281c0.85-1.189,3.032-0.107,3.522,0.71c0.882,2.015,1.059,4.83,1.512,5.308
	c3.678-0.979,11.611-0.35,10.717,1.997c-8.757,1.326-11.34,1.556-13.075,1.492C6.641,35.768,5.4,31.96,4.557,26.281z"/>
<path fill="#0099B5" d="M9.591,32.299c3.678-0.979,11.611-0.35,10.717,1.997c0,0-2.129,0.435-4.043,0.598
	C14.176,33.218,10.795,32.35,9.591,32.299z"/>
<path fill="#0FB4D4" d="M26.313,26.281c-0.85-1.189-3.031-0.107-3.522,0.71c-0.882,2.015-0.699,4.18-1.152,4.658
	c-6.202-0.877-11.089-1.923-12.047,0.65c4.274-0.658,7.818,3.024,14.048,3.489C24.229,35.833,25.47,31.96,26.313,26.281z"/>
<path fill="#D47706" d="M11.663,30.811c-0.501,0.143-0.721,1.15-0.265,1.451c0.455,0.298,4.029,1.413,4.35,1.306
	c-0.475-0.582,0.049-2.492,1.209-2.591C16.724,30.61,13.36,30.325,11.663,30.811z"/>
<path fill="#F9B700" d="M16.311,31.268c-1.725-0.349-4.291-0.222-4.982-0.18c-0.114,0.177-0.18,0.404-0.178,0.622
	c1.19,0.029,3.351,0.226,4.561,0.479C15.83,31.833,16.035,31.5,16.311,31.268z"/>
<path fill="#0099B5" d="M18.156,19.442c-2.475,3.08-2.972,3.078-5.446-0.002L18.156,19.442z"/>
<path fill="#0099B5" d="M20.69,15.055c1.695,1.691,3.387-4.44,1.221-4.045C20.897,11.195,19.904,14.271,20.69,15.055z"/>
<path fill="#0099B5" d="M10.178,15.055c0.786-0.784-0.208-3.859-1.222-4.045C6.792,10.614,8.481,16.746,10.178,15.055z"/>
<path fill="#0FB4D4" d="M21.88,12.261c-0.056,0.955-0.321,2.332-0.649,3.512c-0.68,2.452-4.269,4.921-5.797,4.921
	s-5.117-2.469-5.797-4.922c-0.328-1.18-0.594-2.557-0.649-3.511c-0.273-4.749,1.911-8.441,6.446-8.441
	C19.97,3.819,22.152,7.513,21.88,12.261z"/>
<path fill="#006DAE" d="M18.247,16.872c-0.529,0.599-0.859,1.658-2.813,1.658c-1.703,0-2.173-0.933-2.813-1.658
	c1.702-0.114,1.711-0.579,2.813-0.095C16.536,16.292,16.544,16.757,18.247,16.872z"/>
<path fill="#FFFFFF" d="M17.735,17.053c-1.097,1.14-3.492,1.155-4.604,0C14.843,17.236,16.025,17.236,17.735,17.053z"/>
<path fill="#014D87" d="M20.453,10.782c-0.971-0.498-2.547-0.477-3.581-0.045c-0.133,0.055-0.175-0.385-0.021-0.469
	c0.726-0.416,2.559-0.341,3.58,0.269C20.586,10.625,20.583,10.848,20.453,10.782z"/>
<path fill="#014D87" d="M10.415,10.782c0.972-0.499,2.546-0.477,3.581-0.045c0.134,0.055,0.175-0.385,0.021-0.469
	c-0.727-0.416-2.559-0.341-3.58,0.269C10.282,10.625,10.284,10.848,10.415,10.782z"/>
<path fill="#0099B5" d="M14.027,15.12c0,0.915,2.813,0.915,2.813,0C16.84,14.91,14.027,14.91,14.027,15.12z"/>
<path fill="#014D87" d="M21.852,12.617c-0.948-4.883-5.468-4.253-2.288-7.512C21.555,4.48,23.873,9.732,21.852,12.617z"/>
<path fill="#014D87" d="M19.563,5.104c-1.93,4.856-8.842,4.211-10.573,7.199c-0.694-2.493-0.349-7.241,4.018-8.759
	C16.948,2.174,20.068,4.364,19.563,5.104z"/>
<path fill="#012A4A" d="M19.563,5.105c-1.117,2.786-4.845,2.187-9.662,4.283C14.381,6.224,16.229,7.599,19.563,5.105z"/>
<path fill="#012A4A" d="M19.563,5.104c-1.732,5.579-7.929,4.368-10.573,7.199C10.161,8.992,16.672,9.72,19.563,5.104z"/>
<path fill="#012A4A" d="M21.826,9.536c-1.563-4.312-3.778-2.577-3.344-3.711C19.765,5.161,21.467,6.539,21.826,9.536z"/>
<path fill="#FFFFFF" d="M20.299,12.445c-0.604,1.576-3.049,1.345-3.5,0.242C17.143,10.917,19.967,10.764,20.299,12.445z"/>
<path fill="#302C3B" d="M17.424,12.274c0,1.383,1.998,1.383,1.998,0C19.422,10.992,17.424,10.992,17.424,12.274z"/>
<path fill="#302C3B" d="M20.299,12.433c0-1.691-3.5-1.691-3.5,0.269C17.301,11.094,19.797,11.094,20.299,12.433z"/>
<path fill="#F5F5F5" d="M17.537,11.934c0,0.346,0.502,0.346,0.502,0C18.039,11.613,17.537,11.613,17.537,11.934z"/>
<path fill="#FFFFFF" d="M10.572,12.445c0.602,1.576,3.049,1.345,3.496,0.242C13.729,10.917,10.902,10.764,10.572,12.445z"/>
<path fill="#302C3B" d="M13.445,12.277c0,1.383-1.996,1.383-1.996,0C11.449,10.993,13.445,10.993,13.445,12.277z"/>
<path fill="#302C3B" d="M10.572,12.433c0-1.691,3.496-1.691,3.496,0.269C13.568,11.093,11.072,11.093,10.572,12.433z"/>
<path fill="#F5F5F5" d="M12.127,11.864c0,0.346-0.5,0.346-0.5,0C11.627,11.544,12.127,11.544,12.127,11.864z"/>
<path fill="#D47706" d="M21.649,39.262c-0.504,0.259-1.043,0.474-1.6,0.66c0.048,1.247,0.194,2.505,0.449,3.757
	c0.969-0.645,1.691-1.414,1.691-2.283C21.554,39.804,21.649,39.262,21.649,39.262z"/>
<path fill="#D47706" d="M10.825,39.923c-0.557-0.188-1.098-0.402-1.602-0.661c0,0,0.121-0.021-0.539,2.134
	c0,0.869,0.724,1.639,1.692,2.284C10.631,42.427,10.777,41.169,10.825,39.923z"/>
</svg>
