<?xml version="1.0" encoding="utf-8"?>
<!-- Generator: Adobe Illustrator 15.0.0, SVG Export Plug-In . SVG Version: 6.00 Build 0)  -->
<!DOCTYPE svg PUBLIC "-//W3C//DTD SVG 1.1//EN" "http://www.w3.org/Graphics/SVG/1.1/DTD/svg11.dtd" [
	<!ENTITY ns_flows "http://ns.adobe.com/Flows/1.0/">
	<!ENTITY ns_extend "http://ns.adobe.com/Extensibility/1.0/">
	<!ENTITY ns_ai "http://ns.adobe.com/AdobeIllustrator/10.0/">
	<!ENTITY ns_graphs "http://ns.adobe.com/Graphs/1.0/">
]>
<svg version="1.1" id="Layer_1" xmlns:x="&ns_extend;" xmlns:i="&ns_ai;" xmlns:graph="&ns_graphs;"
	 xmlns="http://www.w3.org/2000/svg" xmlns:xlink="http://www.w3.org/1999/xlink" xmlns:a="http://ns.adobe.com/AdobeSVGViewerExtensions/3.0/"
	 x="0px" y="0px" width="64px" height="64px" viewBox="0 0 64 64" enable-background="new 0 0 64 64" xml:space="preserve">
<path fill="#99A8AE" d="M10.576,49.518c1.174-4.439,5.5-11.139,2.611-16.635C3.416,29.018,7.585,43.967,10.576,49.518z"/>
<path fill="#99A8AE" d="M50.812,32.883c-2.889,5.496,1.438,12.195,2.611,16.635C56.413,43.967,60.583,29.018,50.812,32.883z"/>
<path fill="#D6A67A" d="M12.019,43.043c2.701-2.516,0.25-12.377-3.232-12.971C1.345,28.805,6.193,48.465,12.019,43.043z"/>
<path fill="#D6A67A" d="M51.981,43.043c-2.701-2.516-0.25-12.377,3.232-12.971C62.653,28.805,57.808,48.463,51.981,43.043z"/>
<path fill="#E3C19B" d="M32.001,12c-26.041,0-15.549,3.018-22.5,18.312c0,0,0.049,7.016,1.506,14.539
	C12.882,54.553,23.8,62,32.001,62c8.199,0,19.117-7.447,20.994-17.148c1.455-7.523,1.506-14.539,1.506-14.539
	C54.915,16.291,58.04,12,32.001,12z"/>
<path fill="#99A8AE" d="M8.025,33.264c-2.682-6.833-2.057-18.83,6.43-24.242C14.851,15.772,10.47,25.959,8.025,33.264z"/>
<path fill="#6E8189" d="M8.025,33.264c-2.045-7.201,4.73-14.871,6.43-24.242C14.851,15.772,10.47,25.959,8.025,33.264z"/>
<path fill="#99A8AE" d="M7.878,35.213c3.049-10.281-1.41-20.404,6.576-26.191C14.921,15.635,19.734,21.413,7.878,35.213z"/>
<path fill="#6E8189" d="M7.878,35.213c9.883-16.074,1.623-19.904,6.576-26.191C14.921,15.635,19.734,21.413,7.878,35.213z"/>
<path fill="#99A8AE" d="M14.455,9.022C40.116,22.211,49.771,19.18,56.134,34.559C63.259,7.059,31.177-7.607,14.455,9.022z"/>
<path fill="#6E8189" d="M14.455,9.022c25.662,13.189,34.662,10.359,41.679,25.537C58.929,22.567,31.359,10.071,14.455,9.022z"/>
<path fill="#99A8AE" d="M14.691,9.022c-6.717,9.16,20.558,14.461,30.74,14.695C36.999,15.997,29.535,7.434,14.691,9.022z"/>
<path fill="#6E8189" d="M45.431,23.717c-10.926-3.537-33.49-6-30.74-14.695C7.974,18.182,34.505,23.717,45.431,23.717z"/>
<path fill="#99A8AE" d="M28.494,23.717c-6.488-4.514-6.172-14.375-14.039-14.695C5.642,18.518,20.552,23.483,28.494,23.717z"/>
<path fill="#6E8189" d="M28.494,23.717c-8.938-4.447-19.717-5.65-14.039-14.695C5.642,18.518,20.001,23.95,28.494,23.717z"/>
<path fill="#D6A67A" d="M37.054,34.799c1.996,3.773,9.945,5.084,9.945,5.084S38.505,36.809,37.054,34.799z"/>
<path fill="#D6A67A" d="M17,39.883c0,0,7.922-1.273,9.945-5.084C25.494,36.809,17,39.883,17,39.883z"/>
<path fill="#A17C5B" d="M22.251,49.141c4.275,3.988,15.238,4.012,19.546,0C36.69,50.277,27.394,50.285,22.251,49.141z"/>
<path fill="#99A8AE" d="M50.155,26.685c-3.688-1.83-10.744-1.919-13.373-0.644c-0.563,0.247-0.191,1.982,0.283,1.816
	c3.664-1.357,9.572-1.389,13.002,0.117C50.524,28.168,50.714,26.941,50.155,26.685z"/>
<path fill="#99A8AE" d="M13.843,26.685c3.688-1.83,10.742-1.919,13.373-0.644c0.563,0.247,0.191,1.982-0.281,1.816
	c-3.67-1.357-9.572-1.389-13.004,0.117C13.474,28.168,13.287,26.941,13.843,26.685z"/>
<path fill="#FFFFFF" d="M49.001,34.109c-1.281,3.893-11.244,2.348-12,0.193C38.169,27.254,47.866,27.42,49.001,34.109z"/>
<path fill="#613F34" d="M38.921,32.521c0,4.949,7.158,4.949,7.158,0C46.079,27.928,38.921,27.928,38.921,32.521z"/>
<path fill="#7D5037" d="M39.628,34.105c0,2.838,5.744,2.838,5.744,0C45.372,31.471,39.628,31.471,39.628,34.105z"/>
<path fill="#1A1626" d="M41.015,32.6c0,2.055,2.971,2.055,2.971,0C43.985,30.693,41.015,30.693,41.015,32.6z"/>
<path fill="#AB968C" d="M40.001,32c0,1.037,1.5,1.037,1.5,0C41.501,31.037,40.001,31.037,40.001,32z"/>
<path fill="#D6A67A" d="M49.001,34.063c0-6.734-12-7.503-12,0.295C38.714,27.959,47.286,28.729,49.001,34.063z"/>
<path fill="#FFFFFF" d="M15,34.109c1.283,3.893,11.246,2.348,12,0.193C25.833,27.254,16.136,27.42,15,34.109z"/>
<path fill="#613F34" d="M17.919,32.521c0,4.949,7.158,4.949,7.158,0C25.078,27.928,17.919,27.928,17.919,32.521z"/>
<path fill="#7D5037" d="M18.626,34.105c0,2.838,5.744,2.838,5.744,0C24.371,31.471,18.626,31.471,18.626,34.105z"/>
<path fill="#1A1626" d="M20.013,32.6c0,2.055,2.971,2.055,2.971,0C22.984,30.693,20.013,30.693,20.013,32.6z"/>
<path fill="#AB968C" d="M19,32c0,1.037,1.5,1.037,1.5,0C20.5,31.037,19,31.037,19,32z"/>
<path fill="#D6A67A" d="M15,34.063c0-6.732,12-7.503,12,0.293C25.287,27.959,16.714,28.729,15,34.063z"/>
<path fill="#D6A67A" d="M36.999,43.18c0,3.254-9.998,3.254-9.998,0C27.001,42.434,36.999,42.434,36.999,43.18z"/>
<path fill="#D6A67A" d="M26.501,43.521c-2.992,3.211-6.209,5.219-4.975,9.768C21.66,48.971,24.398,48.156,26.501,43.521z"/>
<path fill="#D6A67A" d="M42.472,53.287c1.223-4.5-1.953-6.523-4.975-9.764C39.603,48.162,42.337,48.971,42.472,53.287z"/>
</svg>
