<?xml version="1.0" encoding="utf-8"?>
<!-- Generator: Adobe Illustrator 15.0.0, SVG Export Plug-In . SVG Version: 6.00 Build 0)  -->
<!DOCTYPE svg PUBLIC "-//W3C//DTD SVG 1.1//EN" "http://www.w3.org/Graphics/SVG/1.1/DTD/svg11.dtd" [
	<!ENTITY ns_flows "http://ns.adobe.com/Flows/1.0/">
	<!ENTITY ns_extend "http://ns.adobe.com/Extensibility/1.0/">
	<!ENTITY ns_ai "http://ns.adobe.com/AdobeIllustrator/10.0/">
	<!ENTITY ns_graphs "http://ns.adobe.com/Graphs/1.0/">
]>
<svg version="1.1" id="Layer_1" xmlns:x="&ns_extend;" xmlns:i="&ns_ai;" xmlns:graph="&ns_graphs;"
	 xmlns="http://www.w3.org/2000/svg" xmlns:xlink="http://www.w3.org/1999/xlink" xmlns:a="http://ns.adobe.com/AdobeSVGViewerExtensions/3.0/"
	 x="0px" y="0px" width="64px" height="64px" viewBox="0 0 64 64" enable-background="new 0 0 64 64" xml:space="preserve">
<path fill="#99A8AE" d="M10.576,49.518c1.174-4.439,5.5-11.139,2.611-16.635C3.416,29.018,7.586,43.967,10.576,49.518z"/>
<path fill="#99A8AE" d="M50.813,32.883c-2.889,5.496,1.438,12.195,2.611,16.635C56.414,43.967,60.584,29.018,50.813,32.883z"/>
<path fill="#E6B045" d="M12.02,43.043c2.7-2.516,0.249-12.377-3.233-12.971C1.346,28.805,6.193,48.465,12.02,43.043z"/>
<path fill="#E6B045" d="M51.981,43.043c-2.7-2.516-0.249-12.377,3.233-12.971C62.653,28.805,57.809,48.463,51.981,43.043z"/>
<path fill="#FFCC66" d="M32.001,12c-26.04,0-15.548,3.018-22.5,18.312c0,0,0.05,7.016,1.506,14.539
	C12.883,54.553,23.801,62,32.001,62s19.118-7.447,20.994-17.148c1.456-7.523,1.506-14.539,1.506-14.539
	C54.916,16.291,58.041,12,32.001,12z"/>
<path fill="#99A8AE" d="M8.024,33.264c-2.681-6.833-2.056-18.83,6.43-24.242C14.852,15.772,10.471,25.959,8.024,33.264z"/>
<path fill="#6E8189" d="M8.024,33.264c-2.044-7.201,4.731-14.871,6.43-24.242C14.852,15.772,10.471,25.959,8.024,33.264z"/>
<path fill="#99A8AE" d="M7.879,35.213c3.049-10.281-1.41-20.404,6.575-26.191C14.922,15.635,19.734,21.413,7.879,35.213z"/>
<path fill="#6E8189" d="M7.879,35.213c9.883-16.074,1.622-19.904,6.575-26.191C14.922,15.635,19.734,21.413,7.879,35.213z"/>
<path fill="#99A8AE" d="M14.454,9.022C40.117,22.211,49.771,19.18,56.135,34.559C63.26,7.059,31.178-7.607,14.454,9.022z"/>
<path fill="#6E8189" d="M14.454,9.022c25.663,13.189,34.662,10.359,41.681,25.537C58.929,22.567,31.358,10.071,14.454,9.022z"/>
<path fill="#99A8AE" d="M14.69,9.022c-6.716,9.16,20.56,14.461,30.741,14.695C37,15.997,29.535,7.434,14.69,9.022z"/>
<path fill="#6E8189" d="M45.432,23.717c-10.927-3.537-33.491-6-30.741-14.695C7.975,18.182,34.505,23.717,45.432,23.717z"/>
<path fill="#99A8AE" d="M28.494,23.717c-6.488-4.514-6.172-14.375-14.04-14.695C5.643,18.518,20.553,23.483,28.494,23.717z"/>
<path fill="#6E8189" d="M28.494,23.717c-8.938-4.447-19.717-5.65-14.04-14.695C5.643,18.518,20.002,23.95,28.494,23.717z"/>
<path fill="#E6B045" d="M37.055,34.798C39.051,38.571,47,39.882,47,39.882S38.505,36.808,37.055,34.798z"/>
<path fill="#E6B045" d="M17,39.882c0,0,7.921-1.273,9.945-5.084C25.494,36.808,17,39.882,17,39.882z"/>
<path fill="#A17B31" d="M22.251,49.14c4.276,3.988,15.238,4.013,19.547,0C36.69,50.277,27.395,50.284,22.251,49.14z"/>
<path fill="#99A8AE" d="M50.156,26.685c-3.688-1.83-10.744-1.919-13.373-0.644c-0.563,0.247-0.191,1.982,0.283,1.816
	c3.664-1.357,9.572-1.39,13.002,0.117C50.524,28.168,50.715,26.94,50.156,26.685z"/>
<path fill="#99A8AE" d="M13.844,26.685c3.688-1.83,10.742-1.919,13.373-0.644c0.563,0.247,0.191,1.982-0.281,1.816
	c-3.67-1.357-9.573-1.39-13.005,0.117C13.475,28.168,13.286,26.94,13.844,26.685z"/>
<path fill="#FFFFFF" d="M49.001,34.108c-1.281,3.893-11.244,2.348-12,0.193C38.169,27.254,47.866,27.42,49.001,34.108z"/>
<path fill="#613F34" d="M38.921,32.521c0,4.949,7.158,4.949,7.158,0C46.079,27.928,38.921,27.928,38.921,32.521z"/>
<path fill="#7D5037" d="M39.628,34.105c0,2.838,5.744,2.838,5.744,0C45.372,31.471,39.628,31.471,39.628,34.105z"/>
<path fill="#1A1626" d="M41.015,32.6c0,2.055,2.971,2.055,2.971,0C43.985,30.693,41.015,30.693,41.015,32.6z"/>
<path fill="#AB968C" d="M40.001,32c0,1.037,1.5,1.037,1.5,0C41.501,31.037,40.001,31.037,40.001,32z"/>
<path fill="#E6B045" d="M49.001,34.062c0-6.733-12-7.503-12,0.295C38.714,27.959,47.286,28.729,49.001,34.062z"/>
<path fill="#FFFFFF" d="M14.999,34.108c1.283,3.893,11.246,2.348,12,0.193C25.833,27.254,16.136,27.42,14.999,34.108z"/>
<path fill="#613F34" d="M17.919,32.521c0,4.949,7.158,4.949,7.158,0C25.077,27.928,17.919,27.928,17.919,32.521z"/>
<path fill="#7D5037" d="M18.626,34.105c0,2.838,5.744,2.838,5.744,0C24.37,31.471,18.626,31.471,18.626,34.105z"/>
<path fill="#1A1626" d="M20.013,32.6c0,2.055,2.971,2.055,2.971,0C22.983,30.693,20.013,30.693,20.013,32.6z"/>
<path fill="#AB968C" d="M18.999,32c0,1.037,1.5,1.037,1.5,0C20.499,31.037,18.999,31.037,18.999,32z"/>
<path fill="#E6B045" d="M14.999,34.062c0-6.731,12-7.503,12,0.293C25.286,27.959,16.714,28.729,14.999,34.062z"/>
<path fill="#E6B045" d="M36.999,43.179c0,3.254-9.998,3.254-9.998,0C27.001,42.433,36.999,42.433,36.999,43.179z"/>
<path fill="#E6B045" d="M26.502,43.521c-2.993,3.21-6.209,5.218-4.975,9.767C21.659,48.971,24.397,48.156,26.502,43.521z"/>
<path fill="#E6B045" d="M42.473,53.287c1.223-4.501-1.953-6.523-4.976-9.765C39.603,48.161,42.337,48.97,42.473,53.287z"/>
</svg>
