<?xml version="1.0" encoding="utf-8"?>
<!-- Generator: Adobe Illustrator 15.0.0, SVG Export Plug-In . SVG Version: 6.00 Build 0)  -->
<!DOCTYPE svg PUBLIC "-//W3C//DTD SVG 1.1//EN" "http://www.w3.org/Graphics/SVG/1.1/DTD/svg11.dtd" [
	<!ENTITY ns_flows "http://ns.adobe.com/Flows/1.0/">
	<!ENTITY ns_extend "http://ns.adobe.com/Extensibility/1.0/">
	<!ENTITY ns_ai "http://ns.adobe.com/AdobeIllustrator/10.0/">
	<!ENTITY ns_graphs "http://ns.adobe.com/Graphs/1.0/">
]>
<svg version="1.1" id="Layer_1" xmlns:x="&ns_extend;" xmlns:i="&ns_ai;" xmlns:graph="&ns_graphs;"
	 xmlns="http://www.w3.org/2000/svg" xmlns:xlink="http://www.w3.org/1999/xlink" xmlns:a="http://ns.adobe.com/AdobeSVGViewerExtensions/3.0/"
	 x="0px" y="0px" width="64px" height="64px" viewBox="0 0 64 64" enable-background="new 0 0 64 64" xml:space="preserve">
<path fill="#946346" d="M2.61,37.898c-0.48-0.793,0.746-2.084,3.35-3.988c2.457-1.795,2.531-3.857,4.35-5.795l2.455-3.729
	c1.414,0.661,2.742,0.622,3.42,2.239c-0.459,0.867-1.91,1.787-2.695,3.086C11.8,32.736,7.519,35.59,7.519,35.59
	c-2.746,4.369-3.111,4.58-2.498,2.354c-0.291-0.309-0.465,0.16-1.707,1.369C0.858,41.701,2.61,37.898,2.61,37.898z"/>
<linearGradient id="SVGID_1_" gradientUnits="userSpaceOnUse" x1="1357.9883" y1="54.7109" x2="1357.9883" y2="29.3262" gradientTransform="matrix(-1 -0.0013 -0.0013 1 1408.1316 -0.0872)">
	<stop  offset="0.103" style="stop-color:#00CCCC"/>
	<stop  offset="0.2127" style="stop-color:#00B3B8"/>
	<stop  offset="0.4797" style="stop-color:#007B8D"/>
	<stop  offset="0.7095" style="stop-color:#00526D"/>
	<stop  offset="0.8904" style="stop-color:#003959"/>
	<stop  offset="1" style="stop-color:#003052"/>
	<a:midPointStop  offset="0.103" style="stop-color:#00CCCC"/>
	<a:midPointStop  offset="0.4027" style="stop-color:#00CCCC"/>
	<a:midPointStop  offset="1" style="stop-color:#003052"/>
</linearGradient>
<path fill="url(#SVGID_1_)" d="M59.597,27.485c8.031,22.227-6.393,19.091-9.883,25.372c-0.285-6.227-18.625-5.574-8.463-22.784
	c0.389,5.501,6.152,6.093,9.031,14.112C50.938,34.971,58.749,35.637,59.597,27.485z"/>
<path fill="#B88A6F" d="M41.497,35.098c-3.965-2.555-2.582-6.256-6.344-7.928c-0.969-0.432-1.236-2.51-3.479-5.205
	c-0.225-0.867-1.791-4.402-5.242-3.875c-0.578-0.159-2.285-0.996-3.008-1.039c-0.896-1.521,1.043-3.5-3.604-2.92
	c-1.994,0.345-0.844,2.354-1.652,3.369c-1.361,0.765-3.383,0.765-4.201,2.882c-2.396,3.917-1.42,4.843-0.75,5.376
	c-0.787,2.127,1.152,6.16,1.193,9.451c-2.244,6.043,12.131,4.402,10.223,0.48c-1.199-3.174,0.404-3.588,2.617-10.127
	c1.041,1.448,2.205,2.689,4.785,4.301c1.266,2.262,7.473,7.311,7.473,7.311C43.03,44.256,46.888,34.623,41.497,35.098z"/>
<path fill="#F9AF02" d="M56.556,9.208c0,0,0.459,1.871,0.76,1.692c1.256-0.741,0.904-6.926,0.904-6.926s-4.963,3.707-4.723,5.146
	c0.057,0.347,1.783-0.508,1.783-0.508L33.251,55.902l1.273,0.597L56.556,9.208z"/>
<path fill="#946346" d="M18.169,16.861c2.094,1.872,2.514,1.871,4.598-0.007L18.169,16.861z"/>
<path fill="#946346" d="M14.419,8.631c-2.021-0.366-0.443,5.291,1.139,3.73C16.292,11.64,15.362,8.802,14.419,8.631z"/>
<path fill="#946346" d="M26.513,8.631c-0.945,0.171-1.873,3.009-1.137,3.73C26.958,13.922,28.536,8.266,26.513,8.631z"/>
<path fill="#B88A6F" d="M20.466,2c-4.18,0-6.197,3.162-5.943,7.564c0.051,0.885,0.598,3.771,1.115,4.807
	c0.533,1.06,2.305,2.693,3.393,3.03c0.686,0.213,2.188,0.213,2.873,0c1.086-0.337,2.859-1.971,3.391-3.03
	c0.518-1.036,1.064-3.922,1.117-4.807C26.663,5.163,24.649,1.999,20.466,2z"/>
<path fill="#80553C" d="M20.466,13.977c-0.941-0.276-2.334,0.132-2.334,0.132c0.531,0.577,0.92,1.327,2.334,1.327
	c1.621,0,1.896-0.851,2.332-1.327C22.798,14.108,21.405,13.698,20.466,13.977z"/>
<path fill="#FFFFFF" d="M18.487,14.206c0.988,0.827,2.979,0.831,3.971,0C21.405,14.25,19.546,14.251,18.487,14.206z"/>
<path fill="#946346" d="M21.763,12.421c0,0.845-2.592,0.844-2.592,0C19.171,12.229,21.763,12.229,21.763,12.421z"/>
<linearGradient id="SVGID_2_" gradientUnits="userSpaceOnUse" x1="15.7446" y1="5.2715" x2="28.0894" y2="5.2715" gradientTransform="matrix(1 0 0 1 -1.3286 -0.981)">
	<stop  offset="0" style="stop-color:#99F2FF"/>
	<stop  offset="0.3222" style="stop-color:#67D8ED"/>
	<stop  offset="1" style="stop-color:#00A4C9"/>
	<a:midPointStop  offset="0" style="stop-color:#99F2FF"/>
	<a:midPointStop  offset="0.4909" style="stop-color:#99F2FF"/>
	<a:midPointStop  offset="1" style="stop-color:#00A4C9"/>
</linearGradient>
<path fill="url(#SVGID_2_)" d="M20.466,2c-2.875,0-4.615,0.951-5.365,0.587c0,0-0.08,0.489,0.215,0.81c0,0-0.311,0.267-0.813-0.185
	c-0.477,1.548,0.939,2.444,5.963,2.444c5.025,0,3.824-1.224,6.295,0.925C26.519,3.933,24.835,2,20.466,2z"/>
<linearGradient id="SVGID_3_" gradientUnits="userSpaceOnUse" x1="15.3555" y1="7.6533" x2="28.1245" y2="7.6533" gradientTransform="matrix(1 0 0 1 -1.3286 -0.981)">
	<stop  offset="0" style="stop-color:#99F2FF"/>
	<stop  offset="0.1506" style="stop-color:#95F0FD"/>
	<stop  offset="0.3137" style="stop-color:#88E9F9"/>
	<stop  offset="0.4827" style="stop-color:#72DEF1"/>
	<stop  offset="0.6557" style="stop-color:#54CFE7"/>
	<stop  offset="0.83" style="stop-color:#2DBBD9"/>
	<stop  offset="1" style="stop-color:#00A4C9"/>
	<a:midPointStop  offset="0" style="stop-color:#99F2FF"/>
	<a:midPointStop  offset="0.6909" style="stop-color:#99F2FF"/>
	<a:midPointStop  offset="1" style="stop-color:#00A4C9"/>
</linearGradient>
<path fill="url(#SVGID_3_)" d="M22.593,4.311c-2.766,1.021-3.775-0.822-6.387-1.001c1.244,0.586,1.85,1.488,2.867,2.141
	c-2.219-0.742-3.848-2.021-3.971-2.859c0,0-0.371,1.225,1.094,2.141c-1.4,0.129-1.693-1.516-1.693-1.516
	c-0.707,1.139-0.609,4.813,0.178,7.538c0.131-0.973-0.168-1.374,0.281-2.547c1.346-3.503,0.48-2.032,5.504-2.032
	s4.119-1.342,5.504,2.032c0.416,1.006,0.15,1.574,0.283,2.547C27.905,4.607,25.53,3.227,22.593,4.311z"/>
<path fill="#FFFFFF" d="M24.944,9.904c-0.561,1.462-2.834,1.248-3.248,0.225C22.011,8.484,24.636,8.343,24.944,9.904z"/>
<path fill="#FFFFFF" d="M15.991,9.904c0.555,1.462,2.828,1.248,3.246,0.225C18.921,8.483,16.294,8.342,15.991,9.904z"/>
<path fill="#80553C" d="M25.175,8.143c-0.957-0.474-2.787-0.498-3.469-0.165c-0.145,0.063-0.049,0.513,0.074,0.47
	c0.949-0.352,2.482-0.36,3.371,0.031C25.272,8.528,25.321,8.209,25.175,8.143z"/>
<path fill="#80553C" d="M15.757,8.143c0.957-0.474,2.787-0.498,3.469-0.165c0.145,0.063,0.049,0.513-0.074,0.471
	c-0.951-0.353-2.482-0.361-3.373,0.03C15.661,8.528,15.612,8.209,15.757,8.143z"/>
<path fill="#613F34" d="M22.276,9.748c0,1.284,1.855,1.284,1.855,0C24.132,8.557,22.276,8.557,22.276,9.748z"/>
<path fill="#7D5037" d="M22.46,10.159c0,0.735,1.49,0.735,1.49,0C23.95,9.476,22.46,9.476,22.46,10.159z"/>
<path fill="#1A1626" d="M22.817,9.769c0,0.531,0.771,0.531,0.771,0C23.589,9.273,22.817,9.273,22.817,9.769z"/>
<path fill="#AB968C" d="M22.556,9.612c0,0.269,0.389,0.269,0.389,0C22.944,9.362,22.556,9.362,22.556,9.612z"/>
<path fill="#613F34" d="M16.8,9.748c0,1.284,1.859,1.284,1.859-0.001C18.659,8.557,16.8,8.557,16.8,9.748z"/>
<path fill="#7D5037" d="M16.985,10.157c0,0.737,1.488,0.737,1.488,0.001C18.474,9.476,16.985,9.476,16.985,10.157z"/>
<path fill="#1A1626" d="M17.343,9.769c0,0.531,0.773,0.53,0.773-0.001C18.116,9.273,17.343,9.273,17.343,9.769z"/>
<path fill="#AB968C" d="M17.083,9.612c0,0.269,0.389,0.269,0.389-0.001C17.472,9.361,17.083,9.363,17.083,9.612z"/>
<path fill="#946346" d="M24.944,9.892c0-1.569-3.248-1.569-3.248,0.25C22.161,8.649,24.479,8.649,24.944,9.892z"/>
<path fill="#946346" d="M15.991,9.892c0-1.569,3.246-1.569,3.246,0.249C18.774,8.648,16.452,8.648,15.991,9.892z"/>
<path fill="#B88A6F" d="M42.171,39.033c0,0-0.098-0.59,0.559-0.795c-0.305-0.559,0.229-0.99,0.641-0.984
	c-0.162-0.203,0.135-0.668,0.135-0.668s-1.418,1.125-2.076,0.773c-1.443-0.771-0.451-2.071,0.07-2.299
	c1.422-0.623,2.162,0.294,3.717,0.67c0.291,0.07,0.82,0.557-0.355,1.148c0,0,0.746,0.582-0.23,1.248
	c0.553,0.369-0.141,1.195-0.664,1.035c-0.055,0.809-0.701,1.002-0.967,0.832C42.218,41.082,40.771,39.298,42.171,39.033z"/>
<path fill="#946346" d="M12.972,24.48c-0.219,0.461,0.674,0.881,0.893,0.418C14.065,24.473,13.173,24.053,12.972,24.48z"/>
<path fill="#946346" d="M23.321,24.897c0.225,0.554,1.262,0.134,1.037-0.419C24.151,23.965,23.112,24.387,23.321,24.897z"/>
<path fill="#946346" d="M15.294,26.459c-2.369-0.213-2.781-1.664-2.781-1.664C12.323,26.15,13.503,26.889,15.294,26.459z"/>
<path fill="#946346" d="M26.433,24.202c-1.523,1.103-3.084,2.298-5.916,2.476C23.567,27.064,25.601,26.104,26.433,24.202z"/>
<path fill="#946346" d="M17.399,34.567c0.27,1.52-0.385,1.45-0.24,1.95C17.308,37.016,18.487,36.088,17.399,34.567z"/>
<linearGradient id="SVGID_4_" gradientUnits="userSpaceOnUse" x1="1357.3887" y1="50.4922" x2="1395.6123" y2="50.4922" gradientTransform="matrix(-1 -0.0013 -0.0013 1 1408.1316 -0.0872)">
	<stop  offset="0" style="stop-color:#00CCCC"/>
	<stop  offset="1" style="stop-color:#007CA6"/>
	<a:midPointStop  offset="0" style="stop-color:#00CCCC"/>
	<a:midPointStop  offset="0.5" style="stop-color:#00CCCC"/>
	<a:midPointStop  offset="1" style="stop-color:#007CA6"/>
</linearGradient>
<path fill="url(#SVGID_4_)" d="M14.411,35.209c-1.746,2.225-2.264,7.68-1.775,11.313c2.855,21.308,33.227,17.993,37.645,5.778
	c0.447-1.232,1.02-2.117-1.455-0.863c-6.646,3.359-21.51,4.414-20.768-6.498c0.346-5.084-2.264-8.381-3.424-9.25
	C24.726,38.152,14.089,41.455,14.411,35.209z"/>
<linearGradient id="SVGID_5_" gradientUnits="userSpaceOnUse" x1="54.835" y1="218.8838" x2="62.2471" y2="218.8838" gradientTransform="matrix(0.9063 0.4226 -0.4226 0.9063 96.6529 -207.7241)">
	<stop  offset="0" style="stop-color:#F9AF02"/>
	<stop  offset="1" style="stop-color:#FFCA4D"/>
	<a:midPointStop  offset="0" style="stop-color:#F9AF02"/>
	<a:midPointStop  offset="0.5" style="stop-color:#F9AF02"/>
	<a:midPointStop  offset="1" style="stop-color:#FFCA4D"/>
</linearGradient>
<path fill="url(#SVGID_5_)" d="M60.79,15.153c0.182-0.301,0.117,0.802,0.316,0.512c1.896-2.788-0.096-6.835-0.096-6.835
	s-0.092,3.432-2.762,4.782c0.709,0.519,2.686-0.799,1.795,0.69c-2.781,4.647-8.24,3.909-8.24,3.909l-0.973,2.538
	C50.831,20.75,57.489,20.618,60.79,15.153z"/>
<linearGradient id="SVGID_6_" gradientUnits="userSpaceOnUse" x1="47.0225" y1="218.8848" x2="54.4336" y2="218.8848" gradientTransform="matrix(0.9063 0.4226 -0.4226 0.9063 96.6529 -207.7241)">
	<stop  offset="0" style="stop-color:#FFCA4D"/>
	<stop  offset="1" style="stop-color:#F9AF02"/>
	<a:midPointStop  offset="0" style="stop-color:#FFCA4D"/>
	<a:midPointStop  offset="0.5" style="stop-color:#FFCA4D"/>
	<a:midPointStop  offset="1" style="stop-color:#F9AF02"/>
</linearGradient>
<path fill="url(#SVGID_6_)" d="M48.007,9.192c0.113-0.333-0.689,0.425-0.596,0.087c0.916-3.245,5.297-4.321,5.297-4.321
	s-2.57,2.277-1.887,5.19c-0.855-0.21-1.115-2.571-1.684-0.931c-1.771,5.117,2.303,8.823,2.303,8.823l-1.32,2.378
	C50.12,20.419,45.942,15.234,48.007,9.192z"/>
<linearGradient id="SVGID_7_" gradientUnits="userSpaceOnUse" x1="52.5088" y1="224.4395" x2="56.7588" y2="224.4395" gradientTransform="matrix(0.9063 0.4226 -0.4226 0.9063 96.6529 -207.7241)">
	<stop  offset="0" style="stop-color:#FFCA4D"/>
	<stop  offset="1" style="stop-color:#F9AF02"/>
	<a:midPointStop  offset="0" style="stop-color:#FFCA4D"/>
	<a:midPointStop  offset="0.5" style="stop-color:#FFCA4D"/>
	<a:midPointStop  offset="1" style="stop-color:#F9AF02"/>
</linearGradient>
<path fill="url(#SVGID_7_)" d="M53.245,19.673c-1.709,3.666-5.561,1.87-3.852-1.797C51.104,14.209,54.956,16.005,53.245,19.673z"/>
</svg>
