<?xml version="1.0" encoding="utf-8"?>
<!-- Generator: Adobe Illustrator 19.0.0, SVG Export Plug-In . SVG Version: 6.00 Build 0)  -->
<svg version="1.1" id="Layer_1" xmlns="http://www.w3.org/2000/svg" xmlns:xlink="http://www.w3.org/1999/xlink" x="0px" y="0px"
	 width="64px" height="64px" viewBox="0 0 64 64" enable-background="new 0 0 64 64" xml:space="preserve">
<path fill="#99A8AE" d="M10.576,49.518c1.174-4.439,5.5-11.139,2.611-16.635C3.415,29.018,7.585,43.967,10.576,49.518z"/>
<path fill="#99A8AE" d="M50.812,32.883c-2.889,5.496,1.438,12.195,2.611,16.635C56.414,43.967,60.583,29.018,50.812,32.883z"/>
<path fill="#DBA97F" d="M12.019,43.043c2.701-2.516,0.25-12.377-3.232-12.971C1.345,28.805,6.193,48.465,12.019,43.043z"/>
<path fill="#DBA97F" d="M51.982,43.043c-2.701-2.516-0.25-12.377,3.232-12.971C62.654,28.805,57.808,48.463,51.982,43.043z"/>
<path fill="#FCD5B2" d="M32.001,12c-26.041,0-15.549,3.018-22.5,18.313c0,0,0.049,7.016,1.506,14.539
	C12.882,54.553,23.8,62,32.001,62c8.199,0,19.117-7.447,20.994-17.148c1.455-7.523,1.506-14.539,1.506-14.539
	C54.915,16.29,58.04,12,32.001,12z"/>
<path fill="#99A8AE" d="M8.025,33.264c-2.682-6.834-2.057-18.83,6.43-24.242C14.851,15.772,10.47,25.959,8.025,33.264z"/>
<path fill="#6E8189" d="M8.025,33.264c-2.045-7.201,4.73-14.871,6.43-24.242C14.851,15.772,10.47,25.959,8.025,33.264z"/>
<path fill="#99A8AE" d="M7.878,35.213c3.049-10.281-1.41-20.404,6.576-26.191C14.921,15.635,19.734,21.412,7.878,35.213z"/>
<path fill="#6E8189" d="M7.878,35.213c9.883-16.074,1.623-19.904,6.576-26.191C14.921,15.635,19.734,21.412,7.878,35.213z"/>
<path fill="#99A8AE" d="M14.455,9.022c25.662,13.189,35.316,10.158,41.68,25.537C63.259,7.059,31.177-7.607,14.455,9.022z"/>
<path fill="#6E8189" d="M14.455,9.022c25.662,13.189,34.662,10.359,41.68,25.537C58.929,22.567,31.359,10.07,14.455,9.022z"/>
<path fill="#99A8AE" d="M14.691,9.022c-6.717,9.16,20.559,14.461,30.74,14.695C36.999,15.996,29.535,7.434,14.691,9.022z"/>
<path fill="#6E8189" d="M45.431,23.717c-10.926-3.537-33.49-6-30.74-14.695C7.974,18.182,34.505,23.717,45.431,23.717z"/>
<path fill="#99A8AE" d="M28.494,23.717c-6.488-4.514-6.172-14.375-14.039-14.695C5.642,18.518,20.552,23.483,28.494,23.717z"/>
<path fill="#6E8189" d="M28.494,23.717c-8.938-4.447-19.717-5.65-14.039-14.695C5.642,18.518,20.001,23.949,28.494,23.717z"/>
<path fill="#DBA97F" d="M37.054,34.798c1.996,3.773,9.945,5.084,9.945,5.084S38.505,36.808,37.054,34.798z"/>
<path fill="#DBA97F" d="M16.999,39.882c0,0,7.922-1.273,9.945-5.084C25.494,36.808,16.999,39.882,16.999,39.882z"/>
<path fill="#B08766" d="M22.251,49.14c4.275,3.988,15.238,4.013,19.547,0C36.691,50.277,27.394,50.284,22.251,49.14z"/>
<path fill="#99A8AE" d="M50.156,26.685c-3.688-1.83-10.744-1.919-13.373-0.644c-0.563,0.247-0.191,1.982,0.283,1.816
	c3.664-1.357,9.572-1.39,13.002,0.117C50.525,28.168,50.714,26.941,50.156,26.685z"/>
<path fill="#99A8AE" d="M13.843,26.685c3.688-1.83,10.742-1.919,13.373-0.644c0.563,0.247,0.191,1.982-0.281,1.816
	c-3.67-1.357-9.572-1.39-13.004,0.117C13.474,28.168,13.287,26.941,13.843,26.685z"/>
<path fill="#FFFFFF" d="M49.001,34.109c-1.281,3.893-11.244,2.348-12,0.193C38.169,27.254,47.867,27.42,49.001,34.109z"/>
<path fill="#613F34" d="M38.921,32.522c0,4.949,7.158,4.949,7.158,0C46.08,27.928,38.921,27.928,38.921,32.522z"/>
<path fill="#7D5037" d="M39.628,34.106c0,2.838,5.744,2.838,5.744,0C45.373,31.471,39.628,31.471,39.628,34.106z"/>
<path fill="#1A1626" d="M41.015,32.6c0,2.055,2.971,2.055,2.971,0C43.986,30.694,41.015,30.694,41.015,32.6z"/>
<path fill="#AB968C" d="M40.001,32c0,1.037,1.5,1.037,1.5,0C41.501,31.037,40.001,31.037,40.001,32z"/>
<path fill="#DBA97F" d="M49.001,34.062c0-6.733-12-7.503-12,0.295C38.714,27.959,47.287,28.729,49.001,34.062z"/>
<path fill="#FFFFFF" d="M14.999,34.109c1.283,3.893,11.246,2.348,12,0.193C25.833,27.254,16.136,27.42,14.999,34.109z"/>
<path fill="#613F34" d="M17.919,32.522c0,4.949,7.158,4.949,7.158,0C25.078,27.928,17.919,27.928,17.919,32.522z"/>
<path fill="#7D5037" d="M18.626,34.106c0,2.838,5.744,2.838,5.744,0C24.371,31.471,18.626,31.471,18.626,34.106z"/>
<path fill="#1A1626" d="M20.013,32.6c0,2.055,2.971,2.055,2.971,0C22.984,30.694,20.013,30.694,20.013,32.6z"/>
<path fill="#AB968C" d="M18.999,32c0,1.037,1.5,1.037,1.5,0C20.499,31.037,18.999,31.037,18.999,32z"/>
<path fill="#DBA97F" d="M14.999,34.062c0-6.731,12-7.503,12,0.293C25.287,27.959,16.714,28.729,14.999,34.062z"/>
<path fill="#DBA97F" d="M36.999,43.179c0,3.254-9.998,3.254-9.998,0C27.001,42.433,36.999,42.433,36.999,43.179z"/>
<path fill="#DBA97F" d="M26.501,43.522c-2.992,3.21-6.209,5.218-4.975,9.767C21.66,48.971,24.398,48.156,26.501,43.522z"/>
<path fill="#DBA97F" d="M42.472,53.287c1.223-4.501-1.953-6.523-4.975-9.765C39.603,48.161,42.337,48.97,42.472,53.287z"/>
</svg>
