<?xml version="1.0" encoding="utf-8"?>
<!-- Generator: Adobe Illustrator 15.0.0, SVG Export Plug-In . SVG Version: 6.00 Build 0)  -->
<!DOCTYPE svg PUBLIC "-//W3C//DTD SVG 1.1//EN" "http://www.w3.org/Graphics/SVG/1.1/DTD/svg11.dtd" [
	<!ENTITY ns_flows "http://ns.adobe.com/Flows/1.0/">
	<!ENTITY ns_extend "http://ns.adobe.com/Extensibility/1.0/">
	<!ENTITY ns_ai "http://ns.adobe.com/AdobeIllustrator/10.0/">
	<!ENTITY ns_graphs "http://ns.adobe.com/Graphs/1.0/">
]>
<svg version="1.1" id="Layer_1" xmlns:x="&ns_extend;" xmlns:i="&ns_ai;" xmlns:graph="&ns_graphs;"
	 xmlns="http://www.w3.org/2000/svg" xmlns:xlink="http://www.w3.org/1999/xlink" xmlns:a="http://ns.adobe.com/AdobeSVGViewerExtensions/3.0/"
	 x="0px" y="0px" width="64px" height="64px" viewBox="0 0 64 64" enable-background="new 0 0 64 64" xml:space="preserve">
<linearGradient id="SVGID_1_" gradientUnits="userSpaceOnUse" x1="21.4512" y1="28.4336" x2="49.7422" y2="28.4336" gradientTransform="matrix(1 -0.0013 0.0013 1 1.1892 0.8938)">
	<stop  offset="0" style="stop-color:#FFDDD6"/>
	<stop  offset="1" style="stop-color:#00A4C9"/>
	<a:midPointStop  offset="0" style="stop-color:#FFDDD6"/>
	<a:midPointStop  offset="0.5" style="stop-color:#FFDDD6"/>
	<a:midPointStop  offset="1" style="stop-color:#00A4C9"/>
</linearGradient>
<path fill="url(#SVGID_1_)" d="M50.973,32.389c-9.633-3.102-13.422,2.012-28.303-8.586C33.678,37.831,41.041,35.552,50.973,32.389z"
	/>
<linearGradient id="SVGID_2_" gradientUnits="userSpaceOnUse" x1="20.0562" y1="11.4395" x2="38.0166" y2="11.4395" gradientTransform="matrix(1 -0.0013 0.0013 1 1.1892 0.8938)">
	<stop  offset="0" style="stop-color:#FFDDD6"/>
	<stop  offset="1" style="stop-color:#00A4C9"/>
	<a:midPointStop  offset="0" style="stop-color:#FFDDD6"/>
	<a:midPointStop  offset="0.5" style="stop-color:#FFDDD6"/>
	<a:midPointStop  offset="1" style="stop-color:#00A4C9"/>
</linearGradient>
<path fill="url(#SVGID_2_)" d="M39.215,8.203c-6.191,2.225-5.695,6.848-17.951,6.85C33.193,18.712,35.773,14.26,39.215,8.203z"/>
<linearGradient id="SVGID_3_" gradientUnits="userSpaceOnUse" x1="22.3994" y1="16.6211" x2="58.3525" y2="16.6211" gradientTransform="matrix(1 -0.0013 0.0013 1 1.1892 0.8938)">
	<stop  offset="0" style="stop-color:#FFDDD6"/>
	<stop  offset="1" style="stop-color:#00A4C9"/>
	<a:midPointStop  offset="0" style="stop-color:#FFDDD6"/>
	<a:midPointStop  offset="0.5" style="stop-color:#FFDDD6"/>
	<a:midPointStop  offset="1" style="stop-color:#00A4C9"/>
</linearGradient>
<path fill="url(#SVGID_3_)" d="M58.793,9.228c-0.906-3.19-3.334-5.187-4.086-4.801c0.49-0.766-3.682-3.049-7.895-2.281
	C35.049,4.29,36.537,15.276,23.611,18.655C37.811,46.063,64.406,28.973,58.793,9.228z"/>
<linearGradient id="SVGID_4_" gradientUnits="userSpaceOnUse" x1="29.3662" y1="17.2148" x2="54.165" y2="17.2148" gradientTransform="matrix(1 -0.0013 0.0013 1 1.1892 0.8938)">
	<stop  offset="0" style="stop-color:#FFDDD6"/>
	<stop  offset="1" style="stop-color:#00A4C9"/>
	<a:midPointStop  offset="0" style="stop-color:#FFDDD6"/>
	<a:midPointStop  offset="0.5" style="stop-color:#FFDDD6"/>
	<a:midPointStop  offset="1" style="stop-color:#00A4C9"/>
</linearGradient>
<path fill="url(#SVGID_4_)" d="M55.367,11.272c-8.709,4.429-7.404,10.285-24.781,13.143C47.627,26.545,50.689,20.204,55.367,11.272z
	"/>
<path fill="#E6B045" d="M56.906,26.795c1.168,4.101,1.17,6.363,0.961,7.283c1.059,2.155,0.357,4.278,0.713,6.187
	c0.092,0.506,0.6-0.779,0.982-1.462c0,0,0.498,0.788,0.109,1.638c0,0,1.516-1.063,1.83-2.159c0.566,1.872-1.617,3.255-1.336,3.714
	c0.506,0.818,1.84,1.376,1.838,2.649c-2.15-1.978-2.891-0.81-4.225-1.707c-0.887,0.052-1.453-0.726-0.82-2.212
	C56.627,39.332,52.955,33.549,56.906,26.795z"/>
<linearGradient id="SVGID_5_" gradientUnits="userSpaceOnUse" x1="12.6626" y1="52.0996" x2="12.6626" y2="26.7163" gradientTransform="matrix(1 -0.0013 0.0013 1 1.1892 0.8938)">
	<stop  offset="0.103" style="stop-color:#00CCCC"/>
	<stop  offset="0.2127" style="stop-color:#00B3B8"/>
	<stop  offset="0.4797" style="stop-color:#007B8D"/>
	<stop  offset="0.7095" style="stop-color:#00526D"/>
	<stop  offset="0.8904" style="stop-color:#003959"/>
	<stop  offset="1" style="stop-color:#003052"/>
	<a:midPointStop  offset="0.103" style="stop-color:#00CCCC"/>
	<a:midPointStop  offset="0.4027" style="stop-color:#00CCCC"/>
	<a:midPointStop  offset="1" style="stop-color:#003052"/>
</linearGradient>
<path fill="url(#SVGID_5_)" d="M4.395,27.605c-8.031,22.226,6.393,19.089,9.883,25.37c0.285-6.227,18.625-5.574,8.463-22.783
	c-0.389,5.5-6.152,6.091-9.031,14.111C13.053,35.091,5.242,35.757,4.395,27.605z"/>
<linearGradient id="SVGID_6_" gradientUnits="userSpaceOnUse" x1="12.061" y1="49.6973" x2="52.9229" y2="49.6973" gradientTransform="matrix(1 -0.0013 0.0013 1 1.1892 0.8938)">
	<stop  offset="0" style="stop-color:#00CCCC"/>
	<stop  offset="1" style="stop-color:#007CA6"/>
	<a:midPointStop  offset="0" style="stop-color:#00CCCC"/>
	<a:midPointStop  offset="0.5" style="stop-color:#00CCCC"/>
	<a:midPointStop  offset="1" style="stop-color:#007CA6"/>
</linearGradient>
<path fill="url(#SVGID_6_)" d="M53.482,39.063c1.746,2.225-0.361,3.712-0.85,7.347c-2.855,21.307-34.506,18.225-38.924,6.009
	c-0.445-1.23-1.02-2.116,1.457-0.863c6.646,3.36,19.131,3.525,23.531-6.488C42.633,36.11,46.877,40.258,53.482,39.063z"/>
<path fill="#FFCC66" d="M54.904,23.144c-0.723-0.052-1.412-0.784-3.082-0.963c-0.809-1.016,0.252-3.282-1.74-3.629
	c-3.734-0.338-2.012,1.803-2.908,3.325c-0.723,0.042-1.379,0.142-1.957,0.3c-3.363-1.454-4.889,2.407-5.094,3.28
	c-2.186,2.741-3.82,6.115-4.779,6.566c-4.016,1.887-6.051,8.021-7.195,8.601c-1.193,0.06-2.854,0.18-3.74-0.429
	c0.096,0.229,0.227,0.422,0.379,0.595c-0.918-0.037-1.799-0.182-2.398-0.592c0.311,0.744,0.893,1.23,1.584,1.53
	c-0.725,0.017-1.582-0.048-2.676-0.233c0.941,1.871,5.998,0.857,5.771,1.956c-0.283,1.363-1.662,1.927-0.887,3.204
	c1.039-2.248,3.551-2.6,3.766-4.602c0.209-1.92,6.65-5.059,8.037-7.662c2.545-1.667,4.896-4.549,5.906-6.019
	c2.213,6.54,6.742,7.923,2.68,11.107c-1.949,1.528,3.469,9.306,3.988,8.065c1.934-4.621,5.672-6.709,5.654-11.871
	c-0.006-2.164,1.383-3.962,0.596-6.089C60.139,27.335,58.621,23.41,54.904,23.144z"/>
<path fill="#E6B045" d="M47.428,20.256c1.879,2.397,2.256,2.396,4.125-0.006L47.428,20.256z"/>
<path fill="#FFCC66" d="M53.402,6.381c-2.426,2.218-7.406,3.802-10.543,5.647c0.006,0.171,0.348,2.912,0.686,4.125
	c0.703,2.521,4.398,5.058,5.969,5.056c1.572-0.002,5.26-2.548,5.957-5.071c0.336-1.214,0.67-3.947,0.674-4.114
	C54.676,8.999,52.834,8.057,53.402,6.381z"/>
<path fill="#F5F5F5" d="M54.543,12.661c-0.621,1.632-3.156,1.396-3.625,0.255C51.27,11.08,54.197,10.919,54.543,12.661z"/>
<path fill="#45332C" d="M51.564,12.487c0.002,1.432,2.072,1.43,2.07-0.002C53.633,11.155,51.563,11.157,51.564,12.487z"/>
<path fill="#45332C" d="M54.543,12.648c-0.002-1.752-3.627-1.748-3.625,0.283C51.436,11.264,54.021,11.26,54.543,12.648z"/>
<path fill="#F5F5F5" d="M51.684,12.133c0,0.359,0.518,0.358,0.518,0C52.201,11.801,51.684,11.802,51.684,12.133z"/>
<path fill="#F5F5F5" d="M44.465,12.673c0.625,1.631,3.162,1.389,3.625,0.246C47.734,11.084,44.807,10.931,44.465,12.673z"/>
<path fill="#45332C" d="M47.443,12.494c0.002,1.433-2.068,1.436-2.07,0.002C45.371,11.167,47.441,11.165,47.443,12.494z"/>
<path fill="#45332C" d="M44.465,12.661c-0.002-1.752,3.623-1.757,3.625,0.273C47.57,11.267,44.982,11.27,44.465,12.661z"/>
<path fill="#F5F5F5" d="M46.074,12.069c0,0.357-0.518,0.358-0.518,0.001C45.557,11.737,46.074,11.736,46.074,12.069z"/>
<path fill="#D47706" d="M49.51,17.18c-1.135-0.497-1.143-0.019-2.893,0.101c0.66,0.745,1.143,1.704,2.893,1.702
	c2.012-0.003,2.35-1.093,2.893-1.709C50.652,17.158,50.643,16.68,49.51,17.18z"/>
<path fill="#FFFFFF" d="M47.143,17.466c1.145,1.188,3.607,1.168,4.732-0.005C50.119,17.651,48.904,17.652,47.143,17.466z"/>
<path fill="#594640" d="M54.643,10.752c-1.053-0.625-2.938-0.699-3.684-0.271c-0.158,0.085-0.115,0.538,0.021,0.481
	c1.063-0.445,2.684-0.469,3.684,0.042C54.797,11.072,54.801,10.843,54.643,10.752z"/>
<path fill="#594640" d="M44.361,10.766c1.053-0.628,2.936-0.707,3.684-0.281c0.158,0.085,0.117,0.538-0.021,0.481
	c-1.064-0.442-2.684-0.462-3.684,0.052C44.207,11.085,44.201,10.856,44.361,10.766z"/>
<path fill="#E6B045" d="M50.951,15.473c0.002,0.941-2.889,0.945-2.891,0.003C48.061,15.261,50.951,15.257,50.951,15.473z"/>
<linearGradient id="SVGID_7_" gradientUnits="userSpaceOnUse" x1="39.2822" y1="8.3779" x2="53.5137" y2="8.3779" gradientTransform="matrix(1 -0.0013 0.0013 1 1.1892 0.8938)">
	<stop  offset="0" style="stop-color:#FFDDD6"/>
	<stop  offset="1" style="stop-color:#00A4C9"/>
	<a:midPointStop  offset="0" style="stop-color:#FFDDD6"/>
	<a:midPointStop  offset="0.5" style="stop-color:#FFDDD6"/>
	<a:midPointStop  offset="1" style="stop-color:#00A4C9"/>
</linearGradient>
<path fill="url(#SVGID_7_)" d="M40.488,13.997c2.938-3.932,12.578-3.605,14.219-9.57C51.514,9.435,41.287,10.219,40.488,13.997z"/>
<linearGradient id="SVGID_8_" gradientUnits="userSpaceOnUse" x1="52.4707" y1="11.5488" x2="57.3242" y2="11.5488" gradientTransform="matrix(1 -0.0013 0.0013 1 1.1892 0.8938)">
	<stop  offset="0" style="stop-color:#FFDDD6"/>
	<stop  offset="1" style="stop-color:#00A4C9"/>
	<a:midPointStop  offset="0" style="stop-color:#FFDDD6"/>
	<a:midPointStop  offset="0.5" style="stop-color:#FFDDD6"/>
	<a:midPointStop  offset="1" style="stop-color:#00A4C9"/>
</linearGradient>
<path fill="url(#SVGID_8_)" d="M53.736,5.341c-0.758,1.197,4.922,2.837,3.893,14.093C60.615,9.638,55.355,4.875,53.736,5.341z"/>
<linearGradient id="SVGID_9_" gradientUnits="userSpaceOnUse" x1="32.1865" y1="9.1934" x2="53.5137" y2="9.1934" gradientTransform="matrix(1 -0.0013 0.0013 1 1.1892 0.8938)">
	<stop  offset="0" style="stop-color:#FFDDD6"/>
	<stop  offset="1" style="stop-color:#00A4C9"/>
	<a:midPointStop  offset="0" style="stop-color:#FFDDD6"/>
	<a:midPointStop  offset="0.5" style="stop-color:#FFDDD6"/>
	<a:midPointStop  offset="1" style="stop-color:#00A4C9"/>
</linearGradient>
<path fill="url(#SVGID_9_)" d="M54.707,4.427c-6.166,3.464-15.326-0.872-21.313,11.209C43.391,6.153,51.42,10.549,54.707,4.427z"/>
<path fill="#E6B045" d="M54.004,39.358c-0.885,1.264-0.26,1.477-0.604,1.868C53.057,41.616,52.377,40.279,54.004,39.358z"/>
<path fill="#007CA6" d="M57.896,29.381c0.482,0.003,0.766-0.396,0.697-0.738c0.371-0.158,0.484-0.742,0.352-0.984
	c0.295-0.266,0.313-1.028,0.035-1.307c0.145-0.238,0.066-0.825-0.303-0.997c0.088-0.341-0.172-0.752-0.654-0.771
	c-1.432-1.348-3.828,1.765-3.842,2.312C54.17,27.44,56.396,30.661,57.896,29.381z"/>
<path fill="#005878" d="M54.324,26.804c1.541-2.31,3.596-2.336,3.699-2.221C58.146,24.716,56.211,24.465,54.324,26.804z"/>
<path fill="#005878" d="M54.324,26.804c2.004-1.556,4.311-1.604,4.354-1.449C58.721,25.499,56.768,25.223,54.324,26.804z"/>
<path fill="#005878" d="M54.324,26.804c2.492-0.572,4.66-0.612,4.656-0.452C58.975,26.504,57.148,26.276,54.324,26.804z"/>
<path fill="#005878" d="M54.32,26.995c1.414,2.376,3.465,2.498,3.576,2.386C58.025,29.253,56.078,29.415,54.32,26.995z"/>
<path fill="#005878" d="M54.32,26.995c1.92,1.645,4.221,1.798,4.273,1.648C58.639,28.498,56.678,28.684,54.32,26.995z"/>
<path fill="#005878" d="M54.32,26.995c2.459,0.685,4.619,0.823,4.625,0.664C58.949,27.505,57.111,27.65,54.32,26.995z"/>
<path fill="#007CA6" d="M46.727,24.859c-0.91,0.168-1.199,0.862-0.861,1.337c-0.615,0.375-0.467,1.261-0.07,1.553
	c-0.396,0.499,0.023,1.575,0.705,1.832c-0.131,0.389,0.352,1.142,1.102,1.206c0.035,0.486,0.711,0.898,1.543,0.7
	c2.984,1.019,5.322-3.832,5.115-4.538C54.049,26.233,48.75,22.468,46.727,24.859z"/>
<path fill="#005878" d="M54.078,27.118c-1.377,3.526-4.697,4.47-4.934,4.369C48.867,31.37,52.17,30.829,54.078,27.118z"/>
<path fill="#005878" d="M54.078,27.118c-2.457,2.777-6.316,3.851-6.477,3.668C47.451,30.612,50.916,30.113,54.078,27.118z"/>
<path fill="#005878" d="M54.078,27.118c-3.734,1.705-7.494,2.683-7.578,2.462C46.42,29.37,49.764,28.9,54.078,27.118z"/>
<path fill="#005878" d="M54.004,26.871c-3.412-2.736-7.135-2.216-7.277-2.012C46.564,25.093,49.979,24.184,54.004,26.871z"/>
<path fill="#005878" d="M54.004,26.871c-3.902-1.536-8.133-0.916-8.139-0.675C45.861,26.422,49.316,25.428,54.004,26.871z"/>
<path fill="#005878" d="M54.004,26.871c-4.334-0.009-8.297,0.647-8.209,0.878C45.879,27.967,49.111,27.029,54.004,26.871z"/>
</svg>
