<?xml version="1.0" encoding="utf-8"?>
<!-- Generator: Adobe Illustrator 15.0.0, SVG Export Plug-In . SVG Version: 6.00 Build 0)  -->
<!DOCTYPE svg PUBLIC "-//W3C//DTD SVG 1.1//EN" "http://www.w3.org/Graphics/SVG/1.1/DTD/svg11.dtd" [
	<!ENTITY ns_flows "http://ns.adobe.com/Flows/1.0/">
	<!ENTITY ns_extend "http://ns.adobe.com/Extensibility/1.0/">
	<!ENTITY ns_ai "http://ns.adobe.com/AdobeIllustrator/10.0/">
	<!ENTITY ns_graphs "http://ns.adobe.com/Graphs/1.0/">
]>
<svg version="1.1" id="Layer_1" xmlns:x="&ns_extend;" xmlns:i="&ns_ai;" xmlns:graph="&ns_graphs;"
	 xmlns="http://www.w3.org/2000/svg" xmlns:xlink="http://www.w3.org/1999/xlink" xmlns:a="http://ns.adobe.com/AdobeSVGViewerExtensions/3.0/"
	 x="0px" y="0px" width="64px" height="64px" viewBox="0 0 64 64" enable-background="new 0 0 64 64" xml:space="preserve">
<path fill="#302C3B" d="M39.167,46.17H24.828c-1.147,1.855-10.463-1.633-14.647-0.709c0,0,17.491,11.629,22.071,11.656
	c4.58-0.027,21.556-11.656,21.556-11.656C49.618,44.536,40.319,48.027,39.167,46.17z"/>
<path fill="#946346" d="M23,50.563c4.376,1.679,8.267,4.718,12.054,4.753c1.432-0.475,3.072,0.859,4.59,1.154
	c1.711,0.332,4.359-0.65,5.705,0.27c1.736-0.479,2.381,1.348,1.197,1.744c0.307,0.533-0.129,0.959-0.396,1.029
	c0.215,0.459-0.203,0.943-0.438,0.953c0.121,0.346-0.176,0.729-0.533,0.801c-0.342,2.098-7.391-0.936-9.256-1.328
	c-0.816-0.172-1.42-0.859-2.426-1.295l-10.095-0.4C22.006,53.269,23,50.563,23,50.563z"/>
<path fill="#946346" d="M45.204,58.303c0.461,0.408,1.602,0.58,1.816-0.164C46.649,58.346,46.397,58.355,45.204,58.303z"/>
<path fill="#946346" d="M45.026,59.639c0,0,1.352,0.295,1.592-0.59C46.249,59.494,45.026,59.639,45.026,59.639z"/>
<path fill="#946346" d="M44.792,60.676c0,0,1.08,0.234,1.342-0.584C45.765,60.535,44.792,60.676,44.792,60.676z"/>
<path fill="#946346" d="M44.353,61.379c0,0,1.088,0.281,1.305-0.461C45.288,61.361,44.353,61.379,44.353,61.379z"/>
<path fill="#4E5E67" d="M10.181,45.394c3.223-1.036,9.211,2.179,13.267,5.347c0,4.225,0.851,7.539,0.851,7.539
	c-6.759-0.068-11.625-3.619-15.113-5.854C6.255,50.549,6.438,46.599,10.181,45.394z"/>
<path fill="#B88A6F" d="M40.997,50.563c-4.375,1.679-8.265,4.718-12.054,4.753c-1.43-0.475-3.071,0.859-4.588,1.154
	c-1.711,0.332-4.36-0.65-5.706,0.27c-1.737-0.479-2.382,1.348-1.197,1.744c-0.307,0.533,0.128,0.959,0.396,1.029
	c-0.215,0.459,0.202,0.943,0.437,0.953c-0.12,0.346,0.177,0.729,0.533,0.801c0.342,2.098,7.392-0.936,9.258-1.328
	c0.814-0.172,1.418-0.859,2.426-1.295l10.093-0.4C41.991,53.269,40.997,50.563,40.997,50.563z"/>
<path fill="#946346" d="M18.792,58.303c-0.461,0.408-1.601,0.58-1.816-0.164C17.348,58.346,17.6,58.355,18.792,58.303z"/>
<path fill="#946346" d="M18.971,59.639c0,0-1.352,0.295-1.592-0.59C17.748,59.494,18.971,59.639,18.971,59.639z"/>
<path fill="#946346" d="M19.204,60.676c0,0-1.08,0.234-1.342-0.584C18.232,60.535,19.204,60.676,19.204,60.676z"/>
<path fill="#946346" d="M19.644,61.379c0,0-1.088,0.281-1.304-0.461C18.709,61.361,19.644,61.379,19.644,61.379z"/>
<path fill="#4E5E67" d="M53.815,45.394c-3.223-1.036-9.211,2.179-13.266,5.347c0,4.225-0.85,7.539-0.85,7.539
	c6.758-0.068,11.623-3.619,15.111-5.854C57.741,50.549,57.558,46.599,53.815,45.394z"/>
<path fill="#5C3A2E" d="M24.999,8.177c-4.719,20.257-4.288,19.822,5.647,19.822C25.148,24.153,35.679,7.901,24.999,8.177z"/>
<path fill="#6B4435" d="M23.297,7.863c-3.444,15.39-0.473,19.343,2.165,20.136h3.024C21.411,23.016,32.47,7.561,23.297,7.863z"/>
<path fill="#5C3A2E" d="M38.884,8.176c4.717,20.258,4.285,19.823-5.648,19.823C38.292,24.912,28.203,7.9,38.884,8.176z"/>
<path fill="#6B4435" d="M40.585,7.861c5.031,14.002-0.012,19.489-2.166,20.138h-3.023C42.472,23.422,31.414,7.559,40.585,7.861z"/>
<path fill="#875B49" d="M41.423,15.385c1.457,3.561,0.016,10.866-3.004,12.614c3.346,0,5.381-4.63,6.375-11
	C46.036,9.037,38.825,9.033,41.423,15.385z"/>
<path fill="#875B49" d="M19.46,18.475c1.219,5.75,2.719,9.524,6.002,9.524c-3.661-3.79-3.23-11.786-2.189-13.775
	C28.576,11.066,17.397,8.752,19.46,18.475z"/>
<path fill="#B88A6F" d="M61.36,43.713c-0.121-0.023-1.268,0.031-1.268,0.031s1.082-0.289,1.375-0.379
	c0.795-0.238,0.549-0.998-0.049-0.998c-0.889-0.002-1.967,0.367-1.967,0.367s0.008-1.105-0.129-1.822
	c-0.07-0.393-1.152-0.432-1.508-0.662c-0.082-0.055-0.166-0.066-0.248-0.063c0.891-0.602,0.34-1.311-0.088-1.146
	c-1.176,0.447-1.457-0.082-2.018,0.42c-0.393,0.35-1.779,2.141-2.148,2.039c-1.918-0.52-4.51-2.465-5.336-3.471
	c-4.037-4.842-4.424-10.972-7.844-10.804c-0.785-0.156-2.51-0.634-4.604-0.69c-0.25-0.535-0.371-0.879-0.42-1.49h-6.222
	c-0.047,0.611-0.17,0.955-0.418,1.49c-2.095,0.057-3.818,0.534-4.605,0.69c-3.42-0.168-3.806,5.962-7.844,10.804
	c-0.826,1.006-3.418,2.951-5.335,3.471c-0.37,0.102-1.756-1.689-2.148-2.039c-0.561-0.502-0.843,0.027-2.018-0.42
	c-0.429-0.164-0.979,0.545-0.089,1.146c-0.081-0.004-0.165,0.008-0.248,0.063c-0.355,0.23-1.437,0.27-1.508,0.662
	c-0.136,0.717-0.128,1.822-0.128,1.822s-1.078-0.369-1.967-0.367c-0.598,0-0.845,0.76-0.05,0.998
	c0.293,0.09,1.375,0.379,1.375,0.379s-1.146-0.055-1.268-0.031c-0.802,0.162-0.83,1.02,0.058,1.156
	c0.206,0.031,0.733-0.041,0.86-0.033C3,45.072,2.898,46.018,4.104,45.988c1.627-0.043,3.123,0.225,3.75,0.225
	c0.475,0,2.881-0.123,3.738-1.301c0.665-0.9,5.479-2.447,7.191-3.662c1.157-1.008,3.499-3.888,4.382-7.306
	c0,0,0.292,0.925,0.292,1.987h17.085c0-1.063,0.293-1.987,0.293-1.987c0.883,3.418,3.225,6.298,4.381,7.306
	c1.713,1.215,6.527,2.762,7.191,3.662c0.857,1.178,3.264,1.301,3.738,1.301c0.627,0,2.125-0.268,3.75-0.225
	c1.205,0.029,1.105-0.916,0.547-1.152c0.127-0.008,0.654,0.064,0.861,0.033C62.19,44.732,62.163,43.875,61.36,43.713z M8.036,41.855
	c-0.539,0.598-0.244,1.357-1.904,0.611c-0.219-0.289-0.297-0.699-0.14-1.014c0.82-0.371,0.903-0.848,0.732-1.102
	c0.279,0.139,0.643,0.264,1.122,0.367C8.117,41.109,8.036,41.855,8.036,41.855z M57.868,42.467c-1.66,0.746-1.365-0.014-1.904-0.611
	c0,0-0.082-0.746,0.189-1.137c0.479-0.104,0.842-0.229,1.121-0.367c-0.17,0.254-0.088,0.73,0.732,1.102
	C58.165,41.768,58.087,42.178,57.868,42.467z"/>
<path fill="#946346" d="M56.243,44.59c-0.043-0.594-0.883-2.064-2.303-1.893C55.267,43.053,55.913,43.938,56.243,44.59z"/>
<path fill="#946346" d="M57.792,43.863c1.895-0.148,4.777,0.066,4.109-1.25C62.046,43.734,59.294,43.52,57.792,43.863z"/>
<path fill="#946346" d="M59.452,42.529l0.004,0.205c-0.83,0.287-1.256,0.221-1.256,0.221S58.675,42.834,59.452,42.529z"/>
<path fill="#946346" d="M57.589,44.955c2.293-0.398,4.689,0.633,4.346-0.818C61.886,45.299,59.794,44.25,57.589,44.955z"/>
<path fill="none" d="M57.274,40.352c-0.279,0.139-0.643,0.264-1.121,0.367c-0.271,0.391-0.189,1.137-0.189,1.137
	c0.539,0.598,0.244,1.357,1.904,0.611c0.219-0.289,0.297-0.699,0.139-1.014C57.187,41.082,57.104,40.605,57.274,40.352z"/>
<path fill="#946346" d="M7.756,44.59c0.043-0.594,0.884-2.064,2.304-1.893C8.733,43.053,8.087,43.938,7.756,44.59z"/>
<path fill="#946346" d="M6.207,43.863c-1.894-0.148-4.777,0.066-4.108-1.25C1.953,43.734,4.706,43.52,6.207,43.863z"/>
<path fill="#946346" d="M4.548,42.529l-0.004,0.205c0.83,0.287,1.255,0.221,1.255,0.221S5.324,42.834,4.548,42.529z"/>
<path fill="#946346" d="M6.411,44.955c-2.294-0.398-4.69,0.633-4.347-0.818C2.114,45.299,4.205,44.25,6.411,44.955z"/>
<path fill="none" d="M6.725,40.352c0.279,0.139,0.643,0.264,1.122,0.367c0.271,0.391,0.189,1.137,0.189,1.137
	c-0.539,0.598-0.244,1.357-1.904,0.611c-0.219-0.289-0.297-0.699-0.14-1.014C6.813,41.082,6.896,40.605,6.725,40.352z"/>
<path fill="#946346" d="M32.695,31.77C32.302,32.026,32,32.608,32,32.608s-0.305-0.582-0.695-0.839
	c0.695,1.311,0.527,1.898,0.527,1.898h0.336C32.167,33.668,32,32.997,32.695,31.77z"/>
<path fill="#8E3ED6" d="M39.138,27.012c0.057-0.268-2.014-0.705-2.094-0.334c-1.914,8.98-8.177,8.971-10.089,0
	c-0.08-0.371-2.15,0.066-2.094,0.334c1.449,6.834-1.535,8.125-1.535,8.125c-0.295,1.343,1.185,4.844,1.185,4.844
	c0.603,3.475,0.317,6.189,0.317,6.189c4.089,4.215,10.249,4.211,14.339,0c0,0-0.281-2.715,0.32-6.189c0,0,1.48-3.501,1.186-4.844
	C40.673,35.137,37.688,33.846,39.138,27.012z"/>
<path fill="#946346" d="M28.017,24.541c3.615,4.172,4.342,4.17,7.955-0.003L28.017,24.541z"/>
<path fill="#B88A6F" d="M32,3.309c-6.29,0-9.317,5.121-8.94,11.705c0.078,1.324,0.446,3.232,0.9,4.869
	c0.943,3.401,5.92,6.825,8.04,6.825c2.117,0,7.095-3.424,8.039-6.825c0.455-1.637,0.822-3.545,0.9-4.869
	C41.315,8.43,38.29,3.309,32,3.309z"/>
<path fill="#84401E" d="M32,21.277c-1.529-0.673-1.541-0.028-3.898,0.131c0.885,1.006,1.537,2.297,3.896,2.297
	c2.71,0,3.169-1.468,3.902-2.297C33.538,21.249,33.528,20.604,32,21.277z"/>
<path fill="#FFFFFF" d="M28.808,21.657c1.541,1.604,4.861,1.584,6.384,0.001C32.82,21.913,31.181,21.913,28.808,21.657z"/>
<path fill="#423225" d="M38.929,12.621c-1.416-0.844-3.957-0.947-4.965-0.371c-0.213,0.116-0.154,0.726,0.029,0.649
	c1.436-0.597,3.619-0.626,4.965,0.063C39.14,13.055,39.144,12.744,38.929,12.621z"/>
<path fill="#423225" d="M25.069,12.621c1.418-0.844,3.958-0.947,4.965-0.371c0.213,0.116,0.156,0.726-0.029,0.649
	c-1.434-0.597-3.618-0.627-4.965,0.063C24.859,13.055,24.854,12.744,25.069,12.621z"/>
<path fill="#946346" d="M33.948,18.979c0,1.27-3.898,1.27-3.898,0C30.05,18.686,33.948,18.686,33.948,18.979z"/>
<path fill="#875B49" d="M39.026,4.225c-4.41,4.518-0.201,4.809,2.396,11.16c1.457,3.561,2.377,7.984,3.371,1.614
	C46.036,9.037,41.267,3.56,39.026,4.225z"/>
<path fill="#875B49" d="M28.203,2.493C22.61,3.81,17.397,8.752,19.46,18.475c1.219,5.75,2.771-2.262,3.813-4.251
	c5.303-3.157,14.375-5.548,15.754-9.999C39.726,3.195,33.798,1.027,28.203,2.493z"/>
<path fill="#6B4435" d="M23.917,9.576c2.365-0.479,13.678-0.705,15.109-5.352C36.354,6.354,33.583,6.934,23.917,9.576z"/>
<path fill="#6B4435" d="M19.841,16.971c3.967-5.295,16.963-4.711,19.186-12.746C34.71,10.969,20.925,11.881,19.841,16.971z"/>
<path fill="#6B4435" d="M37.72,5.325c-1.025,1.614,2.531-0.757,6.363,9.634C43.142,8.885,39.901,4.702,37.72,5.325z"/>
<path fill="#45332C" d="M30.003,15.238c-1.17,0.745-2.986,0.745-4.156,0c-0.179-0.115-0.285,0.009-0.229,0.105
	c1.136,1.926,3.476,1.926,4.613,0C30.289,15.247,30.181,15.123,30.003,15.238z"/>
<path fill="#45332C" d="M38.151,15.238c-1.17,0.745-2.986,0.745-4.156,0c-0.178-0.115-0.285,0.009-0.229,0.105
	c1.137,1.926,3.477,1.926,4.611,0C38.437,15.247,38.329,15.123,38.151,15.238z"/>
</svg>
