<?xml version="1.0" encoding="utf-8"?>
<!-- Generator: Adobe Illustrator 15.0.0, SVG Export Plug-In . SVG Version: 6.00 Build 0)  -->
<!DOCTYPE svg PUBLIC "-//W3C//DTD SVG 1.1//EN" "http://www.w3.org/Graphics/SVG/1.1/DTD/svg11.dtd" [
	<!ENTITY ns_flows "http://ns.adobe.com/Flows/1.0/">
	<!ENTITY ns_extend "http://ns.adobe.com/Extensibility/1.0/">
	<!ENTITY ns_ai "http://ns.adobe.com/AdobeIllustrator/10.0/">
	<!ENTITY ns_graphs "http://ns.adobe.com/Graphs/1.0/">
]>
<svg version="1.1" id="Layer_1" xmlns:x="&ns_extend;" xmlns:i="&ns_ai;" xmlns:graph="&ns_graphs;"
	 xmlns="http://www.w3.org/2000/svg" xmlns:xlink="http://www.w3.org/1999/xlink" xmlns:a="http://ns.adobe.com/AdobeSVGViewerExtensions/3.0/"
	 x="0px" y="0px" width="64px" height="64px" viewBox="0 0 64 64" enable-background="new 0 0 64 64" xml:space="preserve">
<path fill="#E6B045" d="M8.682,27.566c-7.797-1.406-1.707,20.396,4.396,14.383C15.907,39.162,12.329,28.226,8.682,27.566z"/>
<path fill="#E6B045" d="M55.319,27.566c-3.648,0.659-7.227,11.596-4.396,14.383C57.028,47.963,63.112,26.16,55.319,27.566z"/>
<path fill="#FFCC66" d="M32,2.002C15.877,2.002,8.109,14.2,9.083,31.16c0.195,3.412,2.309,14.543,4.307,18.535
	c2.044,4.084,8.879,10.383,13.068,11.688c2.646,0.822,8.44,0.822,11.084,0c4.189-1.305,11.026-7.604,13.07-11.688
	c1.999-3.992,4.112-15.123,4.307-18.535C55.894,14.2,48.126,2.002,32,2.002z"/>
<path fill="#E6A400" d="M32,48.176c-3.628-1.068-9,0.504-9,0.504c2.047,2.229,3.547,5.121,9,5.121c6.249,0,7.31-3.281,9-5.121
	C41,48.68,35.623,47.104,32,48.176z"/>
<path fill="#FFFFFF" d="M24.374,49.057c3.8,3.191,11.48,3.211,15.301,0C35.623,49.23,28.454,49.232,24.374,49.057z"/>
<path fill="#FFFFFF" d="M49.262,32.473c-2.153,5.639-10.918,4.813-12.524,0.865C37.956,26.999,48.079,26.456,49.262,32.473z"/>
<path fill="#FFFFFF" d="M14.737,32.473c2.154,5.639,10.922,4.813,12.525,0.865C26.043,26.996,15.923,26.454,14.737,32.473z"/>
<path fill="#C1873C" d="M50.157,25.685c-3.688-1.83-10.744-1.919-13.373-0.644c-0.563,0.247-0.191,1.982,0.283,1.816
	c3.664-1.357,9.572-1.39,13.002,0.117C50.525,27.168,50.716,25.94,50.157,25.685z"/>
<path fill="#C1873C" d="M13.844,25.685c3.688-1.83,10.742-1.919,13.373-0.644c0.563,0.247,0.191,1.982-0.281,1.816
	c-3.67-1.357-9.573-1.39-13.005,0.117C13.475,27.168,13.287,25.94,13.844,25.685z"/>
<path fill="#E6B045" d="M37.001,42.178c0,3.254-10,3.254-10,0C27.001,41.432,37.001,41.432,37.001,42.178z"/>
<path fill="#594640" d="M32,2C20.909,2,14.207,5.664,11.317,4.258c0,0-0.314,1.892,0.818,3.123c0,0-1.195,1.033-3.125-0.71
	c-1.838,5.968,3.617,9.426,22.99,9.426c19.374,0,14.745-4.718,24.269,3.567C55.336,9.452,48.847,2,32,2z"/>
<path fill="#453631" d="M40.204,10.904c-10.667,3.937-14.567-3.166-24.627-3.853c4.785,2.26,7.122,5.738,11.052,8.249
	c-8.554-2.865-14.832-7.789-15.308-11.025c0,0-1.428,4.725,4.217,8.255c-5.396,0.5-6.523-5.841-6.523-5.841
	c-2.116,3.398-2.366,12.651-0.963,21.533c0.603,8.092-0.015,11.121,1.289,15.486C13.656,58.156,22.632,61.994,32,62
	c9.368-0.006,18.344-3.844,22.66-18.291c1.324-4.434,0.666-7.482,1.317-15.862C58.397,10.895,50.132,7.239,40.204,10.904z
	 M34.973,56.066c-1.299-0.535-1.723-1.607-1.723-1.607h-2.5c0,0-0.424,1.072-1.723,1.607c-2.988,1.213-8.742-7.291-7.117-7.826
	c2.073-0.682,5.685-0.918,10.09-0.92c4.406,0.002,8.017,0.238,10.09,0.92C43.715,48.775,37.961,57.279,34.973,56.066z
	 M45.676,49.359c0,0-0.824-2.043-3.012-3.123c-2.749-1.361-5.224-1.027-10.665-1.02c-5.44-0.008-7.915-0.342-10.664,1.02
	c-2.188,1.08-3.012,3.123-3.012,3.123c-9.119-6.037-9.427-18.515-7.542-23.428c5.188-13.506,1.85-7.835,21.221-7.835
	c19.373,0,15.875-5.171,21.221,7.835C55.052,30.379,54.739,43.359,45.676,49.359z"/>
<path fill="#613F34" d="M38.974,31.871c0,4.949,7.159,4.949,7.159,0C46.133,27.278,38.974,27.278,38.974,31.871z"/>
<path fill="#7D5037" d="M39.682,33.455c0,2.838,5.743,2.838,5.743,0C45.425,30.821,39.682,30.821,39.682,33.455z"/>
<path fill="#1A1626" d="M41.067,31.949c0,2.055,2.972,2.055,2.972,0C44.039,30.044,41.067,30.044,41.067,31.949z"/>
<path fill="#AB968C" d="M40.054,31.35c0,1.037,1.5,1.037,1.5,0C41.554,30.388,40.054,30.388,40.054,31.35z"/>
<path fill="#613F34" d="M17.869,31.871c0,4.949,7.159,4.949,7.159,0C25.028,27.277,17.869,27.277,17.869,31.871z"/>
<path fill="#7D5037" d="M18.577,33.453c0,2.838,5.743,2.838,5.743,0C24.32,30.82,18.577,30.82,18.577,33.453z"/>
<path fill="#1A1626" d="M19.962,31.949c0,2.053,2.972,2.053,2.972,0C22.934,30.042,19.962,30.042,19.962,31.949z"/>
<path fill="#AB968C" d="M18.948,31.348c0,1.039,1.5,1.039,1.5,0C20.448,30.386,18.948,30.386,18.948,31.348z"/>
<path fill="#E6B045" d="M49.262,32.43c0-6.055-12.524-6.055-12.524,0.959C38.526,27.635,47.474,27.635,49.262,32.43z"/>
<path fill="#E6B045" d="M14.737,32.43c0-6.055,12.525-6.055,12.525,0.957C25.475,27.631,16.526,27.631,14.737,32.43z"/>
</svg>
