<?xml version="1.0" encoding="utf-8"?>
<!-- Generator: Adobe Illustrator 15.0.0, SVG Export Plug-In . SVG Version: 6.00 Build 0)  -->
<!DOCTYPE svg PUBLIC "-//W3C//DTD SVG 1.1//EN" "http://www.w3.org/Graphics/SVG/1.1/DTD/svg11.dtd" [
	<!ENTITY ns_flows "http://ns.adobe.com/Flows/1.0/">
	<!ENTITY ns_extend "http://ns.adobe.com/Extensibility/1.0/">
	<!ENTITY ns_ai "http://ns.adobe.com/AdobeIllustrator/10.0/">
	<!ENTITY ns_graphs "http://ns.adobe.com/Graphs/1.0/">
]>
<svg version="1.1" id="Layer_1" xmlns:x="&ns_extend;" xmlns:i="&ns_ai;" xmlns:graph="&ns_graphs;"
	 xmlns="http://www.w3.org/2000/svg" xmlns:xlink="http://www.w3.org/1999/xlink" xmlns:a="http://ns.adobe.com/AdobeSVGViewerExtensions/3.0/"
	 x="0px" y="0px" width="64px" height="64px" viewBox="0 0 64 64" enable-background="new 0 0 64 64" xml:space="preserve">
<path fill="#014D87" d="M62,27.281C62,30.533,56.576,30,35,30S8,30.533,8,27.281C8,24.025,62,24.025,62,27.281z"/>
<path fill="#006DAE" d="M10.001,62h50C60.001,36.429,10.001,36.429,10.001,62z"/>
<path fill="#014D87" d="M13.744,40.483C14.841,53.9,33.341,53.101,33.318,62h3.365c-0.022-8.899,18.478-8.1,19.574-21.517
	C44.925,34.422,24.766,34.589,13.744,40.483z"/>
<path fill="#F59E01" d="M29.407,59.637c0,1.334-2,1.334-2,0S29.407,58.303,29.407,59.637z"/>
<path fill="#F59E01" d="M42.595,59.637c0,1.334-2,1.334-2,0S42.595,58.303,42.595,59.637z"/>
<path fill="#F9B700" d="M41.878,60.135c-4.512,1.158-9.242,1.158-13.754,0c0.098-0.379,0.195-0.76,0.293-1.141
	c4.32,1.109,8.848,1.109,13.168,0C41.683,59.375,41.78,59.756,41.878,60.135z"/>
<path fill="#E6B045" d="M49.684,26.097c-2.297,0.415-4.549,7.302-2.77,9.056C50.76,38.938,54.59,25.212,49.684,26.097z"/>
<path fill="#E6B045" d="M20.32,26.097c-4.91-0.885-1.076,12.842,2.768,9.056C24.867,33.398,22.615,26.512,20.32,26.097z"/>
<path fill="#FFCC66" d="M35.001,10.001c-10.15,0-15.042,7.68-14.431,18.358c0.123,2.15,1.455,9.157,2.712,11.672
	c1.287,2.57,5.591,6.537,8.229,7.358c1.666,0.518,5.313,0.518,6.979,0c2.638-0.821,6.942-4.788,8.229-7.358
	c1.259-2.515,2.591-9.521,2.711-11.672C50.045,17.681,45.153,10.001,35.001,10.001z"/>
<path fill="#FFFFFF" d="M45.87,29.186c-1.355,3.552-6.875,3.03-7.888,0.546C38.751,25.739,45.124,25.398,45.87,29.186z"/>
<path fill="#FFFFFF" d="M24.132,29.186c1.355,3.552,6.877,3.03,7.888,0.546C31.251,25.738,24.88,25.397,24.132,29.186z"/>
<path fill="#E6EBEF" d="M46.433,25.589c-2.322-1.638-6.764-1.719-8.419-0.578c-0.354,0.223-0.122,1.775,0.179,1.627
	c2.307-1.215,6.027-1.242,8.187,0.105C46.665,26.917,46.785,25.818,46.433,25.589z"/>
<path fill="#E6EBEF" d="M23.569,25.589c2.322-1.638,6.764-1.719,8.419-0.578c0.354,0.223,0.122,1.775-0.177,1.627
	c-2.311-1.215-6.027-1.242-8.187,0.105C23.337,26.917,23.219,25.818,23.569,25.589z"/>
<path fill="#613F34" d="M39.392,28.808c0,3.116,4.508,3.116,4.508,0C43.899,25.915,39.392,25.915,39.392,28.808z"/>
<path fill="#7D5037" d="M39.838,29.806c0,1.785,3.615,1.785,3.615,0C43.453,28.146,39.838,28.146,39.838,29.806z"/>
<path fill="#1A1626" d="M40.71,28.856c0,1.294,1.871,1.294,1.871,0C42.581,27.656,40.71,27.656,40.71,28.856z"/>
<path fill="#AB968C" d="M40.072,28.479c0,0.652,0.945,0.652,0.945,0C41.018,27.872,40.072,27.872,40.072,28.479z"/>
<path fill="#613F34" d="M26.104,28.808c0,3.116,4.507,3.116,4.507,0C30.611,25.915,26.104,25.915,26.104,28.808z"/>
<path fill="#7D5037" d="M26.549,29.805c0,1.786,3.617,1.786,3.617,0C30.165,28.146,26.549,28.146,26.549,29.805z"/>
<path fill="#1A1626" d="M27.423,28.856c0,1.294,1.871,1.294,1.871,0C29.294,27.656,27.423,27.656,27.423,28.856z"/>
<path fill="#AB968C" d="M26.783,28.478c0,0.654,0.944,0.654,0.944,0C27.728,27.872,26.783,27.872,26.783,28.478z"/>
<path fill="#E6B045" d="M45.87,29.16c0-3.814-7.888-3.814-7.888,0.604C39.109,26.14,44.744,26.14,45.87,29.16z"/>
<path fill="#E6B045" d="M24.132,29.16c0-3.814,7.888-3.814,7.888,0.602C30.893,26.138,25.258,26.138,24.132,29.16z"/>
<path fill="#E6B045" d="M38.148,35.297c0,2.05-6.294,2.05-6.294,0C31.854,34.828,38.148,34.828,38.148,35.297z"/>
<linearGradient id="SVGID_1_" gradientUnits="userSpaceOnUse" x1="35.002" y1="58.5928" x2="35.002" y2="21.2729">
	<stop  offset="0" style="stop-color:#D8DDE0"/>
	<stop  offset="0.8182" style="stop-color:#FFFFFF"/>
	<a:midPointStop  offset="0" style="stop-color:#D8DDE0"/>
	<a:midPointStop  offset="0.5" style="stop-color:#D8DDE0"/>
	<a:midPointStop  offset="0.8182" style="stop-color:#FFFFFF"/>
</linearGradient>
<path fill="url(#SVGID_1_)" d="M48.874,21.272L48.874,21.272c0.274,9.522-0.716,15.087-4.708,18.14
	c-0.883-1.956-3.146-3.259-9.164-2.287c-6.02-0.973-8.283,0.332-9.165,2.288c-4.064-3.085-5.037-8.555-4.716-18.14h-1.128
	c0.258,10.609-0.02,19.365,0.74,21.914c2.718,9.097,14.268,15.405,14.268,15.405s11.55-6.309,14.267-15.406
	c0.761-2.548,0.483-11.305,0.743-21.914H48.874z"/>
<path fill="#45332C" d="M37.733,40.823c-1.71,0.229-2.731-0.661-2.731-0.661s-1.021,0.89-2.733,0.661
	c-0.777-0.104-1.395-0.055-1.897,0.104c2.518,2.233,6.754,2.247,9.27,0.002C39.136,40.769,38.516,40.719,37.733,40.823z"/>
<linearGradient id="SVGID_2_" gradientUnits="userSpaceOnUse" x1="34.9922" y1="30.9634" x2="34.9922" y2="24.0903">
	<stop  offset="0.2788" style="stop-color:#1A1626;stop-opacity:0"/>
	<stop  offset="1" style="stop-color:#1A1626;stop-opacity:0.8"/>
	<a:midPointStop  offset="0.2788" style="stop-color:#1A1626;stop-opacity:0"/>
	<a:midPointStop  offset="0.6723" style="stop-color:#1A1626;stop-opacity:0"/>
	<a:midPointStop  offset="1" style="stop-color:#1A1626;stop-opacity:0.8"/>
</linearGradient>
<path fill="url(#SVGID_2_)" d="M60.392,28.141c-13.846,2.794-37.913,4.622-50.798,0.005C18.479,23.739,46.273,21.825,60.392,28.141z
	"/>
<path fill="#006DAE" d="M62,27.281C62,30.533,56.576,25,35,25c-21.574,0-27,5.533-27,2.281C8,16.025,62,16.025,62,27.281z"/>
<path fill="#006DAE" d="M46.627,15.488c0.165-3.02-5.205-5.309-4.373-8.465C42.657,5.496,45.125,4.471,43.995,2
	c-1.869,3.305-11.161,0-15.802,5.828C24.48,10.014,16.678,19.65,20.039,23.01c7.066-1.203,21.148-1.686,29.934,0
	C53.264,19.719,47.813,16.012,46.627,15.488z"/>
<path opacity="0.2" fill="#013366" enable-background="new    " d="M43.995,2c1.333,3.121-4.214,3.961-4.517,7.922
	c1.396-2.223,2.99-0.629,2.746-1.678C41.625,5.574,45.344,4.996,43.995,2z"/>
<path opacity="0.2" fill="#013366" enable-background="new    " d="M45.055,12.27c0,0-9.701,0-19.742,5.949
	c6.965-2.145,16.574-3.945,21.314-2.729C46.906,14.121,45.055,12.27,45.055,12.27z"/>
<path opacity="0.2" fill="#013366" enable-background="new    " d="M47.688,18.219c0,0-3.441,0.762-13,2.855
	C42.469,16.98,47.688,18.219,47.688,18.219z"/>
<radialGradient id="SVGID_3_" cx="6.0488" cy="41.8604" r="5.3779" gradientUnits="userSpaceOnUse">
	<stop  offset="0.2303" style="stop-color:#A2FF00"/>
	<stop  offset="0.432" style="stop-color:#9FFD02"/>
	<stop  offset="0.563" style="stop-color:#97F608"/>
	<stop  offset="0.674" style="stop-color:#88E911"/>
	<stop  offset="0.7737" style="stop-color:#73D81F"/>
	<stop  offset="0.8659" style="stop-color:#57C231"/>
	<stop  offset="0.9514" style="stop-color:#36A647"/>
	<stop  offset="1" style="stop-color:#209456"/>
	<a:midPointStop  offset="0.2303" style="stop-color:#A2FF00"/>
	<a:midPointStop  offset="0.7874" style="stop-color:#A2FF00"/>
	<a:midPointStop  offset="1" style="stop-color:#209456"/>
</radialGradient>
<circle fill="url(#SVGID_3_)" cx="7.5" cy="43.5" r="5.5"/>
<radialGradient id="SVGID_4_" cx="562.499" cy="63.4912" r="7.5726" gradientTransform="matrix(0.3583 0.4654 -0.7152 0.5506 -151.7332 -257.4975)" gradientUnits="userSpaceOnUse">
	<stop  offset="0" style="stop-color:#FFFFFF"/>
	<stop  offset="1" style="stop-color:#FFFFFF;stop-opacity:0"/>
	<a:midPointStop  offset="0" style="stop-color:#FFFFFF"/>
	<a:midPointStop  offset="0.5515" style="stop-color:#FFFFFF"/>
	<a:midPointStop  offset="1" style="stop-color:#FFFFFF;stop-opacity:0"/>
</radialGradient>
<path fill="url(#SVGID_4_)" d="M7.337,43.159c-1.546,1.191-3.427,1.34-4.2,0.334c-0.775-1.007-0.15-2.787,1.396-3.977
	c1.546-1.191,3.427-1.34,4.202-0.334C9.51,40.189,8.883,41.97,7.337,43.159z"/>
<linearGradient id="SVGID_5_" gradientUnits="userSpaceOnUse" x1="5.4668" y1="53.0098" x2="14.0723" y2="53.0098">
	<stop  offset="0.2545" style="stop-color:#916958"/>
	<stop  offset="0.4316" style="stop-color:#8D6655"/>
	<stop  offset="0.6087" style="stop-color:#815C4C"/>
	<stop  offset="0.7858" style="stop-color:#6D4C3E"/>
	<stop  offset="0.9621" style="stop-color:#513529"/>
	<stop  offset="1" style="stop-color:#4A2F24"/>
	<a:midPointStop  offset="0.2545" style="stop-color:#916958"/>
	<a:midPointStop  offset="0.7073" style="stop-color:#916958"/>
	<a:midPointStop  offset="1" style="stop-color:#4A2F24"/>
</linearGradient>
<path fill="url(#SVGID_5_)" d="M12.422,44.019c0,0,2.567,3.436,1.164,5.102C11.656,51.406,14.072,62,14.072,62h-2.609
	c0,0-0.847-8.14-5.817-13.038C4.151,47.49,12.516,48.62,12.422,44.019z"/>
<linearGradient id="SVGID_6_" gradientUnits="userSpaceOnUse" x1="3.3374" y1="46" x2="13.2793" y2="46">
	<stop  offset="0.2545" style="stop-color:#916958"/>
	<stop  offset="0.4316" style="stop-color:#8D6655"/>
	<stop  offset="0.6087" style="stop-color:#815C4C"/>
	<stop  offset="0.7858" style="stop-color:#6D4C3E"/>
	<stop  offset="0.9621" style="stop-color:#513529"/>
	<stop  offset="1" style="stop-color:#4A2F24"/>
	<a:midPointStop  offset="0.2545" style="stop-color:#916958"/>
	<a:midPointStop  offset="0.7073" style="stop-color:#916958"/>
	<a:midPointStop  offset="1" style="stop-color:#4A2F24"/>
</linearGradient>
<path fill="url(#SVGID_6_)" d="M12.544,41.636c1.115,0.122,1.432,6.568-2.514,8.55c-1.668,0.839-7.138-1.362-6.664-3.169
	c0.381-1.441,4.651,0.984,5.961,0.268C10.75,46.501,10.927,41.461,12.544,41.636z"/>
</svg>
