<?xml version="1.0" encoding="utf-8"?>
<!-- Generator: Adobe Illustrator 19.0.0, SVG Export Plug-In . SVG Version: 6.00 Build 0)  -->
<svg version="1.1" id="Layer_1" xmlns="http://www.w3.org/2000/svg" xmlns:xlink="http://www.w3.org/1999/xlink" x="0px" y="0px"
	 width="64px" height="64px" viewBox="0 0 64 64" enable-background="new 0 0 64 64" xml:space="preserve">
<path fill="#4E5E67" d="M12.257,45.336c2.4-1.572,12.361-5.727,12.361-5.727H39.46c0,0,9.951,4.145,12.338,5.723
	C55.269,47.621,49,57.727,49,62H15C15,57.73,8.775,47.613,12.257,45.336z"/>
<path fill="#4E5E67" d="M19.787,49.574L4.522,47.678C8.027,35.871,32.637,41.959,19.787,49.574z"/>
<path fill="#302C3B" d="M19.732,51.816L5.046,47.623C7.347,40.043,20.703,41.4,19.732,51.816z"/>
<path fill="#99A8AE" d="M19.992,52.367C18.101,41.31,9.521,41.55,4.098,48.174c-0.305,0.371-2.204,4.48-2.094,5.313
	c0.548,4.123,0.133,6.008,2.186,5.461c0.307,2.23,1.884,1.434,2.344,1.529c-0.016,1.998,3.634,1.98,3.718-0.549
	c0.115,2.98,3.762,2.576,3.303-0.129c-0.896-5.283,0.363-8.686,2.322-7.174c1.826,1.408-0.432,5.049,1.938,6.854
	C19.315,60.623,20.132,53.182,19.992,52.367z"/>
<path fill="#6E8189" d="M8.829,61.811c0,0,1.306-0.191,1.427-1.799c-1.01-4.898-0.607-5.496,0.721-9.383
	C7.126,56.771,10.898,60.139,8.829,61.811z"/>
<path fill="#6E8189" d="M5.046,60.434c0,0,0.74,0.318,1.487,0.043C5.82,54.26,6.538,53.195,8.027,50.104
	C3.73,55.434,7.365,60.365,5.046,60.434z"/>
<path fill="#6E8189" d="M2.933,58.801c0,0,0.465,0.498,1.257,0.146c-1.14-5.975,0.585-6.32,1.247-8.988
	C1.706,55.207,4.828,59.066,2.933,58.801z"/>
<path fill="#4E5E67" d="M44.212,49.574l15.266-1.896C55.972,35.871,31.362,41.959,44.212,49.574z"/>
<path fill="#302C3B" d="M44.267,51.816l14.686-4.193C56.654,40.043,43.297,41.4,44.267,51.816z"/>
<path fill="#99A8AE" d="M44.007,52.367c1.892-11.058,10.471-10.817,15.895-4.193c0.305,0.371,2.205,4.48,2.094,5.313
	c-0.547,4.123-0.133,6.008-2.186,5.461c-0.307,2.23-1.883,1.434-2.344,1.529c0.016,1.998-3.635,1.98-3.717-0.549
	c-0.117,2.98-3.763,2.576-3.304-0.129c0.896-5.283-0.363-8.686-2.323-7.174c-1.825,1.408,0.432,5.049-1.937,6.854
	C44.684,60.623,43.868,53.182,44.007,52.367z"/>
<path fill="#6E8189" d="M55.171,61.811c0,0-1.307-0.191-1.428-1.799c1.01-4.898,0.607-5.496-0.721-9.383
	C56.875,56.771,53.101,60.139,55.171,61.811z"/>
<path fill="#6E8189" d="M58.953,60.434c0,0-0.74,0.318-1.486,0.043c0.713-6.217-0.004-7.281-1.494-10.373
	C60.269,55.434,56.636,60.365,58.953,60.434z"/>
<path fill="#6E8189" d="M61.068,58.801c0,0-0.467,0.498-1.258,0.146c1.141-5.975-0.586-6.32-1.248-8.988
	C62.294,55.207,59.173,59.066,61.068,58.801z"/>
<path fill="#302C3B" d="M23.75,7.896l-0.623-3.892c-4.07,1.205-9.185,5.717-10.31,13.563C16.111,11.041,23.75,7.896,23.75,7.896z"/>
<path fill="#302C3B" d="M41.039,3.903l-1.895,5.021c0,0,9.182,4.552,11.717,13.237C51.552,11.891,46.062,5.716,41.039,3.903z"/>
<path fill="#6E8189" d="M24.001,40.998c0,6.75,16,6.75,16,0v-7h-16V40.998z"/>
<path fill="#E81C27" d="M31.914,14.922C32.009,14.922,32.009,14.922,31.914,14.922C32.009,14.922,32.009,14.922,31.914,14.922z"/>
<path fill="#302C3B" d="M32.005,2C20.937,2,16.208,7.856,16.208,15.874h31.588C47.796,7.856,43.066,2,32.005,2z"/>
<path fill="#6E8189" d="M16.804,19.555c-5.084-0.917-1.113,13.295,2.865,9.375C21.511,27.111,19.179,19.983,16.804,19.555z"/>
<path fill="#6E8189" d="M47.203,19.555c-2.377,0.429-4.709,7.557-2.865,9.375C48.318,32.85,52.283,18.638,47.203,19.555z"/>
<path fill="#99A8AE" d="M32.003,8.223c-10.512,0-15.576,2.618-14.94,13.674c0.127,2.226,1.504,9.482,2.807,12.083
	c1.332,2.662,5.789,6.768,8.52,7.618c1.723,0.536,5.5,0.536,7.225,0c2.73-0.851,7.188-4.956,8.519-7.618
	c1.303-2.601,2.682-9.857,2.809-12.083C47.578,10.841,42.513,8.223,32.003,8.223z"/>
<path fill="#302C3B" d="M32.005,6.914c-6.355,0-20.109-2.734-14.543,17.976c0.332-2.444-0.33-5.651,0.711-8.179
	c3.225-7.846,4.131-5.108,13.832-5.108c9.699,0,10.605-2.737,13.83,5.108c1.041,2.527,0.379,5.734,0.711,8.179
	C52.113,4.18,38.361,6.914,32.005,6.914z"/>
<path fill="#6E8189" d="M35.302,28.518c0,2.149-6.6,2.149-6.6,0C28.703,28.025,35.302,28.025,35.302,28.518z"/>
<path fill="#302C3B" d="M43.986,17.631c-2.436-1.207-7.092-1.268-8.826-0.426c-0.371,0.164-0.127,1.311,0.186,1.199
	c2.42-0.894,6.318-0.916,8.582,0.078C44.228,18.609,44.355,17.801,43.986,17.631z"/>
<path fill="#302C3B" d="M20.019,17.631c2.434-1.207,7.09-1.268,8.826-0.426c0.371,0.164,0.127,1.311-0.186,1.199
	c-2.422-0.894-6.318-0.916-8.584,0.078C19.775,18.609,19.65,17.801,20.019,17.631z"/>
<path fill="#1A1626" d="M36.41,36.439c0,1.56-1.973,2.131-4.406,2.131s-4.404-0.571-4.404-2.131
	C27.599,30.461,36.41,30.461,36.41,36.439z"/>
<path fill="#F46C60" d="M35.695,37.321c0,1.559-1.654,2.13-3.691,2.13s-3.69-0.571-3.69-2.13
	C28.314,34.867,35.695,34.867,35.695,37.321z"/>
<path fill="#E03636" d="M32.003,37.689l0.586-2.185c-0.389-0.027-0.783-0.027-1.17,0L32.003,37.689z"/>
<path fill="#302C3B" d="M18.449,10.375c-3.309,2.293-6.275,9.402-6.023,15.782c1.129-5.899,5.086-7.203,5.086-7.203L18.449,10.375z"
	/>
<path fill="#6E8189" d="M37.689,19.388c-5.213,1.603-2.051,8.942,3.162,7.34C46.064,25.124,42.902,17.785,37.689,19.388z"/>
<path fill="#FCC7C3" d="M35.681,22.511c0,4,6.973,4,6.973,0C42.654,19.511,35.681,19.511,35.681,22.511z"/>
<path fill="#613F34" d="M36.966,22.437c0,2.765,4,2.765,4,0C40.966,19.869,36.966,19.869,36.966,22.437z"/>
<path fill="#7D5037" d="M37.363,23.322c0,1.584,3.207,1.584,3.207,0C40.57,21.852,37.363,21.852,37.363,23.322z"/>
<path fill="#1A1626" d="M38.136,22.479c0,1.147,1.66,1.147,1.66,0C39.796,21.416,38.136,21.416,38.136,22.479z"/>
<path fill="#AB968C" d="M37.57,22.144c0,0.581,0.838,0.581,0.838,0C38.408,21.608,37.57,21.608,37.57,22.144z"/>
<path fill="#4E5E67" d="M42.654,22.515c0-0.001,0-0.003,0-0.004c0-4-6.973-4-6.973,0c0,0.001,0,0.003,0,0.004
	C37.105,20.511,40.966,20.511,42.654,22.515z"/>
<path fill="#6E8189" d="M26.318,19.388c-5.215-1.602-8.377,5.736-3.166,7.34C28.367,28.33,31.529,20.99,26.318,19.388z"/>
<path fill="#FCC7C3" d="M21.351,22.511c0-3,6.973-3,6.973,0C28.324,26.511,21.351,26.511,21.351,22.511z"/>
<path fill="#613F34" d="M23.039,22.437c0,2.765,4,2.765,4,0C27.039,19.869,23.039,19.869,23.039,22.437z"/>
<path fill="#7D5037" d="M23.433,23.321c0,1.585,3.209,1.585,3.209,0C26.642,21.85,23.433,21.85,23.433,23.321z"/>
<path fill="#1A1626" d="M24.207,22.479c0,1.147,1.662,1.147,1.662,0C25.869,21.415,24.207,21.415,24.207,22.479z"/>
<path fill="#AB968C" d="M23.64,22.144c0,0.579,0.838,0.579,0.838,0C24.478,21.606,23.64,21.606,23.64,22.144z"/>
<path fill="#4E5E67" d="M28.324,22.515c0-0.001,0-0.003,0-0.004c0-4-6.973-4-6.973,0c0,0.001,0,0.003,0,0.004
	C23.107,21.19,26.568,21.19,28.324,22.515z"/>
<path fill="#302C3B" d="M31.032,7.831c2.059,3.669,9.766,5.963,12.415,5.725C41.048,11.129,39.983,4.883,31.032,7.831z"/>
<path fill="#302C3B" d="M20.632,7.633c2.913,4.37,13.817,7.102,17.565,6.818C34.804,11.562,33.297,4.122,20.632,7.633z"/>
<path fill="#302C3B" d="M20.209,6.63c-3.491,5.686,5.597,8.018,9.351,7.788C26.194,12.198,23.935,6.452,20.209,6.63z"/>
</svg>
