<?xml version="1.0" encoding="utf-8"?>
<!-- Generator: Adobe Illustrator 15.0.0, SVG Export Plug-In . SVG Version: 6.00 Build 0)  -->
<!DOCTYPE svg PUBLIC "-//W3C//DTD SVG 1.1//EN" "http://www.w3.org/Graphics/SVG/1.1/DTD/svg11.dtd" [
	<!ENTITY ns_flows "http://ns.adobe.com/Flows/1.0/">
	<!ENTITY ns_extend "http://ns.adobe.com/Extensibility/1.0/">
	<!ENTITY ns_ai "http://ns.adobe.com/AdobeIllustrator/10.0/">
	<!ENTITY ns_graphs "http://ns.adobe.com/Graphs/1.0/">
]>
<svg version="1.1" id="Layer_1" xmlns:x="&ns_extend;" xmlns:i="&ns_ai;" xmlns:graph="&ns_graphs;"
	 xmlns="http://www.w3.org/2000/svg" xmlns:xlink="http://www.w3.org/1999/xlink" xmlns:a="http://ns.adobe.com/AdobeSVGViewerExtensions/3.0/"
	 x="0px" y="0px" width="64px" height="64px" viewBox="0 0 64 64" enable-background="new 0 0 64 64" xml:space="preserve">
<path fill="#594640" d="M12.62,27.521c8.063,11.81-3.144,16.636-2.499,24.627C4.219,45.019,6.881,31.131,12.62,27.521z"/>
<path fill="#594640" d="M17.45,35.355c4.521,7.629-4.33,12.035-3.685,20.027C7.495,48.838,11.02,36.803,17.45,35.355z"/>
<path fill="#594640" d="M19.399,42.969c5.576,4.292-2.447,8.721-0.618,13.912C11.649,53.606,13.308,45.022,19.399,42.969z"/>
<path fill="#594640" d="M51.38,27.521c-8.063,11.81,3.144,16.636,2.499,24.627C59.78,45.019,57.118,31.131,51.38,27.521z"/>
<path fill="#594640" d="M46.55,35.355c-4.521,7.629,4.33,12.035,3.685,20.027C56.505,48.838,52.979,36.803,46.55,35.355z"/>
<path fill="#594640" d="M44.601,42.969c-5.576,4.292,2.447,8.721,0.618,13.912C52.351,53.606,50.691,45.022,44.601,42.969z"/>
<path fill="#E6B045" d="M12.019,43.043c2.701-2.516,0.25-12.377-3.232-12.971C1.345,28.804,6.193,48.465,12.019,43.043z"/>
<path fill="#E6B045" d="M51.981,43.043c-2.701-2.516-0.25-12.377,3.232-12.971C62.653,28.804,57.808,48.463,51.981,43.043z"/>
<path fill="#FFCC66" d="M32,2C15.875,2,8.108,15.131,9.08,32.016c0.198,3.394,1.143,8.289,2.308,12.484
	C13.806,53.22,26.567,62,32,62c5.431,0,18.193-8.78,20.612-17.5c1.165-4.195,2.109-9.091,2.31-12.484C55.889,15.131,48.125,2,32,2z"
	/>
<path fill="#FFFFFF" d="M49.418,32.475c-2.155,5.639-10.918,4.813-12.523,0.867C38.112,27,48.232,26.458,49.418,32.475z"/>
<path fill="#FFFFFF" d="M14.583,32.475c2.155,5.639,10.921,4.814,12.526,0.867C25.891,27,15.77,26.458,14.583,32.475z"/>
<path fill="#C1873C" d="M49.77,25.882c-3.633-2.166-10.15-2.431-12.729-0.955c-0.547,0.297-0.399,1.862,0.073,1.667
	c3.678-1.532,9.28-1.608,12.734,0.163C50.31,26.991,50.319,26.197,49.77,25.882z"/>
<path fill="#C1873C" d="M14.231,25.882c3.633-2.166,10.148-2.431,12.73-0.955c0.547,0.297,0.401,1.862-0.074,1.667
	c-3.678-1.532-9.277-1.61-12.731,0.163C13.691,26.991,13.682,26.197,14.231,25.882z"/>
<path fill="#E6B045" d="M36.999,42.18c0,3.254-9.999,3.254-9.999,0C27,41.434,36.999,41.434,36.999,42.18z"/>
<path fill="#613F34" d="M39.091,31.862c0,4.994,7.223,4.994,7.223,0C46.313,27.227,39.091,27.227,39.091,31.862z"/>
<path fill="#7D5037" d="M39.805,33.459c0,2.864,5.795,2.864,5.795,0C45.6,30.803,39.805,30.803,39.805,33.459z"/>
<path fill="#1A1626" d="M41.202,31.941c0,2.072,2.999,2.072,2.999,0C44.201,30.017,41.202,30.017,41.202,31.941z"/>
<path fill="#AB968C" d="M40.178,31.335c0,1.048,1.516,1.048,1.516,0C41.693,30.363,40.178,30.363,40.178,31.335z"/>
<path fill="#613F34" d="M17.687,31.869c0,4.994,7.223,4.994,7.223,0C24.91,27.234,17.687,27.234,17.687,31.869z"/>
<path fill="#7D5037" d="M18.401,33.467c0,2.864,5.795,2.864,5.795,0C24.196,30.81,18.401,30.81,18.401,33.467z"/>
<path fill="#1A1626" d="M19.799,31.948c0,2.073,2.999,2.073,2.999,0C22.798,30.023,19.799,30.023,19.799,31.948z"/>
<path fill="#AB968C" d="M18.775,31.342c0,1.049,1.515,1.049,1.515,0C20.29,30.371,18.775,30.371,18.775,31.342z"/>
<path fill="#45332C" d="M49.418,32.432c0-6.057-12.523-6.057-12.523,0.959C38.682,27.634,47.631,27.634,49.418,32.432z"/>
<path fill="#45332C" d="M14.583,32.432c0-6.057,12.526-6.057,12.526,0.957C25.321,27.631,16.372,27.631,14.583,32.432z"/>
<path fill="#594640" d="M6.507,34.615c-2.865-7.13-2.196-19.645,6.869-25.291C13.801,16.367,9.12,26.994,6.507,34.615z"/>
<path fill="#453631" d="M6.507,34.615c-2.186-7.513,5.056-15.515,6.869-25.291C13.801,16.367,9.12,26.994,6.507,34.615z"/>
<path fill="#594640" d="M6.351,36.648c3.256-10.727-1.508-21.287,7.025-27.324C13.876,16.224,19.019,22.25,6.351,36.648z"/>
<path fill="#453631" d="M6.351,36.648c10.56-16.77,1.732-20.764,7.025-27.322C13.876,16.224,19.019,22.25,6.351,36.648z"/>
<path fill="#594640" d="M13.376,9.326c27.422,13.76,37.738,10.596,44.538,26.641C65.526,7.277,31.245-8.023,13.376,9.326z"/>
<path fill="#453631" d="M13.376,9.326c27.422,13.76,35.756,11.065,44.538,26.641C58.633,21.658,31.439,10.418,13.376,9.326z"/>
<path fill="#594640" d="M13.629,9.326c-7.177,9.555,21.967,15.084,32.845,15.33C37.468,16.602,29.491,7.668,13.629,9.326z"/>
<path fill="#453631" d="M46.475,24.654C34.8,20.965,10.691,18.396,13.629,9.324C6.453,18.881,34.8,24.654,46.475,24.654z"/>
<path fill="#594640" d="M28.379,24.654c-6.936-4.707-6.598-14.996-15.003-15.33C3.959,19.23,19.893,24.41,28.379,24.654z"/>
<path fill="#453631" d="M28.379,24.654c-9.552-4.64-21.067-5.895-15.003-15.33C3.959,19.23,19.305,24.896,28.379,24.654z"/>
<path fill="#E6A400" d="M32,48.176c-3.628-1.067-9,0.505-9,0.505c2.047,2.229,3.547,5.121,9,5.121c6.248,0,7.309-3.282,8.999-5.121
	C40.999,48.681,35.622,47.104,32,48.176z"/>
<path fill="#FFFFFF" d="M24.374,49.058c3.8,3.19,11.479,3.21,15.3,0C35.622,49.231,28.454,49.233,24.374,49.058z"/>
</svg>
