<?xml version="1.0" encoding="utf-8"?>
<!-- Generator: Adobe Illustrator 19.0.0, SVG Export Plug-In . SVG Version: 6.00 Build 0)  -->
<svg version="1.1" id="Layer_1" xmlns="http://www.w3.org/2000/svg" xmlns:xlink="http://www.w3.org/1999/xlink" x="0px" y="0px"
	 width="64px" height="64px" viewBox="0 0 64 64" enable-background="new 0 0 64 64" xml:space="preserve">
<path fill="#3A2C29" d="M14.427,32.148C4.238,34.525,9.287,47.07,9.654,52.131C22.666,45.177,14.427,32.148,14.427,32.148z"/>
<path fill="#3A2C29" d="M49.57,32.131c0,0-8.236,13.029,4.779,19.983C54.712,47.054,59.761,34.508,49.57,32.131z"/>
<path fill="#DBA97F" d="M8.634,31.431c-9.108-1.393-3.174,20.217,3.957,14.258C15.896,42.925,12.896,32.083,8.634,31.431z"/>
<path fill="#DBA97F" d="M55.367,31.431c-4.264,0.652-7.264,11.494-3.959,14.258C58.541,51.647,64.472,30.038,55.367,31.431z"/>
<path fill="#FCD5B2" d="M55.07,30.977c0-15.339-9.059-11.925-23.07-11.925c-14.008,0-23.068-3.414-23.068,11.925
	c0,0,0.051,5.844,1.543,13.522C12.919,57.067,23.072,61.999,32,61.999s19.084-4.933,21.525-17.501
	C55.019,36.818,55.07,30.977,55.07,30.977z"/>
<path fill="#FFFFFF" d="M49.017,35.735c-2.125,5.559-10.764,4.745-12.348,0.854C37.871,30.339,47.849,29.804,49.017,35.735z"/>
<path fill="#613F34" d="M38.875,35.142c0,4.879,7.059,4.879,7.059,0C45.933,30.614,38.875,30.614,38.875,35.142z"/>
<path fill="#7D5037" d="M39.574,36.704c0,2.797,5.66,2.797,5.66,0C45.234,34.107,39.574,34.107,39.574,36.704z"/>
<path fill="#1A1626" d="M40.939,35.22c0,2.025,2.93,2.025,2.93,0C43.869,33.34,40.939,33.34,40.939,35.22z"/>
<path fill="#AB968C" d="M39.939,34.628c0,1.022,1.479,1.022,1.479,0C41.418,33.679,39.939,33.679,39.939,34.628z"/>
<path fill="#DBA97F" d="M49.017,35.693c0-5.969-12.348-5.969-12.348,0.945C38.433,30.966,47.253,30.966,49.017,35.693z"/>
<path fill="#FFFFFF" d="M14.984,35.735c2.123,5.559,10.766,4.745,12.346,0.854C26.128,30.336,16.154,29.802,14.984,35.735z"/>
<path fill="#613F34" d="M18.072,35.141c0,4.879,7.057,4.879,7.057,0C25.128,30.613,18.072,30.613,18.072,35.141z"/>
<path fill="#7D5037" d="M18.769,36.702c0,2.797,5.662,2.797,5.662,0C24.431,34.106,18.769,34.106,18.769,36.702z"/>
<path fill="#1A1626" d="M20.136,35.219c0,2.024,2.928,2.024,2.928,0C23.064,33.338,20.136,33.338,20.136,35.219z"/>
<path fill="#AB968C" d="M19.134,34.626c0,1.023,1.479,1.023,1.479,0C20.613,33.677,19.134,33.677,19.134,34.626z"/>
<path fill="#DBA97F" d="M14.984,35.693c0-5.969,12.346-5.969,12.346,0.943C25.568,30.962,16.748,30.962,14.984,35.693z"/>
<path fill="#CC9D76" d="M50.158,29.641c-3.688-1.83-10.744-1.919-13.373-0.644c-0.563,0.247-0.191,1.982,0.283,1.816
	c3.664-1.357,9.572-1.39,13.002,0.117C50.525,31.124,50.716,29.896,50.158,29.641z"/>
<path fill="#CC9D76" d="M13.845,29.641c3.688-1.83,10.742-1.919,13.373-0.644c0.563,0.247,0.191,1.982-0.281,1.816
	c-3.67-1.357-9.574-1.39-13.006,0.117C13.476,31.124,13.287,29.896,13.845,29.641z"/>
<path fill="#CC9D76" d="M32.002,50.581c-3.627-1.067-9,0.505-9,0.505c2.047,2.229,3.547,5.121,9,5.121c6.248,0,7.311-3.283,9-5.121
	C41.002,51.086,35.625,49.509,32.002,50.581z"/>
<path fill="#FFFFFF" d="M24.375,51.463c3.801,3.19,11.481,3.21,15.301,0C35.625,51.637,28.455,51.639,24.375,51.463z"/>
<path fill="#DBA97F" d="M37.002,45.802c0,3.254-10,3.254-10,0C27.002,45.056,37.002,45.056,37.002,45.802z"/>
<path fill="#3A2C29" d="M13.5,10.066c-9.799,6.295-8.527,17.293-6.838,26.907C13.73,21.189,13.679,17.5,13.5,10.066z"/>
<path fill="#1E1513" d="M6.662,36.973c5.955-18.3,3.67-22.208,6.838-26.907C13.679,17.5,15.544,22.84,6.662,36.973z"/>
<path fill="#3A2C29" d="M13.5,10.066c26.678,15.575,36.59,8.211,43.205,26.371C63.91,4.253,27.5-7.309,13.5,10.066z"/>
<path fill="#1E1513" d="M13.5,10.066c26.678,15.575,35.908,8.449,43.205,26.371C59.607,22.275,31.072,11.304,13.5,10.066z"/>
<path fill="#3A2C29" d="M13.5,10.066c5.201,10.781,27.17,16.986,35.133,17.293C42.099,19.853,40.957,5.253,13.5,10.066z"/>
<path fill="#1E1513" d="M48.632,27.359C42.099,19.853,22.15,20.191,13.5,10.066C18.701,20.847,39.746,27.359,48.632,27.359z"/>
<path fill="#3A2C29" d="M13.5,10.066C5.341,21.932,22,26.046,29.351,26.339C23.345,20.699,20.781,10.464,13.5,10.066z"/>
<path fill="#1E1513" d="M29.351,26.339C21.078,20.781,8.246,21.369,13.5,10.066C5.341,21.932,21.492,26.628,29.351,26.339z"/>
</svg>
