<?xml version="1.0" encoding="utf-8"?>
<!-- Generator: Adobe Illustrator 15.0.0, SVG Export Plug-In . SVG Version: 6.00 Build 0)  -->
<!DOCTYPE svg PUBLIC "-//W3C//DTD SVG 1.1//EN" "http://www.w3.org/Graphics/SVG/1.1/DTD/svg11.dtd" [
	<!ENTITY ns_flows "http://ns.adobe.com/Flows/1.0/">
	<!ENTITY ns_extend "http://ns.adobe.com/Extensibility/1.0/">
	<!ENTITY ns_ai "http://ns.adobe.com/AdobeIllustrator/10.0/">
	<!ENTITY ns_graphs "http://ns.adobe.com/Graphs/1.0/">
]>
<svg version="1.1" id="Layer_1" xmlns:x="&ns_extend;" xmlns:i="&ns_ai;" xmlns:graph="&ns_graphs;"
	 xmlns="http://www.w3.org/2000/svg" xmlns:xlink="http://www.w3.org/1999/xlink" xmlns:a="http://ns.adobe.com/AdobeSVGViewerExtensions/3.0/"
	 x="0px" y="0px" width="64px" height="64px" viewBox="0 0 64 64" enable-background="new 0 0 64 64" xml:space="preserve">
<path fill="#EFDE8B" d="M14.427,32.147C4.238,34.524,9.287,47.069,9.654,52.132C22.666,45.177,14.427,32.147,14.427,32.147z"/>
<path fill="#EFDE8B" d="M49.569,32.132c0,0-8.236,13.029,4.779,19.982C54.712,47.054,59.761,34.509,49.569,32.132z"/>
<path fill="#D6A67A" d="M8.634,31.431c-9.107-1.393-3.174,20.218,3.957,14.259C15.896,42.925,12.896,32.083,8.634,31.431z"/>
<path fill="#D6A67A" d="M55.366,31.431c-4.264,0.652-7.264,11.494-3.959,14.259C58.54,51.647,64.472,30.038,55.366,31.431z"/>
<path fill="#E3C19B" d="M55.069,30.978c0-15.339-9.059-11.925-23.07-11.925c-14.008,0-23.068-3.414-23.068,11.925
	c0,0,0.051,5.844,1.543,13.521c2.445,12.568,12.598,17.5,21.525,17.5c8.927,0,19.083-4.932,21.525-17.5
	C55.019,36.817,55.069,30.978,55.069,30.978z"/>
<path fill="#FFFFFF" d="M49.017,35.735c-2.125,5.559-10.764,4.744-12.348,0.854C37.87,30.339,47.849,29.804,49.017,35.735z"/>
<path fill="#613F34" d="M38.874,35.143c0,4.879,7.059,4.879,7.059,0C45.933,30.614,38.874,30.614,38.874,35.143z"/>
<path fill="#7D5037" d="M39.573,36.704c0,2.797,5.66,2.797,5.66,0C45.233,34.106,39.573,34.106,39.573,36.704z"/>
<path fill="#1A1626" d="M40.938,35.22c0,2.025,2.93,2.025,2.93,0C43.868,33.341,40.938,33.341,40.938,35.22z"/>
<path fill="#AB968C" d="M39.938,34.628c0,1.023,1.479,1.023,1.479,0C41.417,33.679,39.938,33.679,39.938,34.628z"/>
<path fill="#D6A67A" d="M49.017,35.693c0-5.97-12.348-5.97-12.348,0.945C38.433,30.966,47.253,30.966,49.017,35.693z"/>
<path fill="#FFFFFF" d="M14.984,35.735c2.123,5.559,10.766,4.744,12.346,0.854C26.128,30.336,16.154,29.802,14.984,35.735z"/>
<path fill="#613F34" d="M18.072,35.142c0,4.879,7.057,4.879,7.057,0C25.128,30.613,18.072,30.613,18.072,35.142z"/>
<path fill="#7D5037" d="M18.769,36.702c0,2.797,5.662,2.797,5.662,0C24.431,34.106,18.769,34.106,18.769,36.702z"/>
<path fill="#1A1626" d="M20.136,35.219c0,2.024,2.928,2.024,2.928,0C23.064,33.339,20.136,33.339,20.136,35.219z"/>
<path fill="#AB968C" d="M19.134,34.626c0,1.023,1.479,1.023,1.479,0C20.613,33.677,19.134,33.677,19.134,34.626z"/>
<path fill="#D6A67A" d="M14.984,35.693c0-5.97,12.346-5.97,12.346,0.943C25.568,30.962,16.748,30.962,14.984,35.693z"/>
<path fill="#BF8C6B" d="M50.157,29.641c-3.688-1.83-10.744-1.919-13.373-0.644c-0.563,0.247-0.191,1.982,0.283,1.816
	c3.664-1.357,9.572-1.39,13.002,0.117C50.524,31.124,50.716,29.896,50.157,29.641z"/>
<path fill="#BF8C6B" d="M13.845,29.641c3.688-1.83,10.742-1.919,13.373-0.644c0.563,0.247,0.191,1.982-0.281,1.816
	c-3.67-1.357-9.574-1.39-13.006,0.117C13.476,31.124,13.287,29.896,13.845,29.641z"/>
<path fill="#BF8C6B" d="M32.001,50.581c-3.627-1.066-9,0.506-9,0.506c2.047,2.229,3.547,5.121,9,5.121c6.248,0,7.31-3.283,9-5.121
	C41.001,51.087,35.624,49.509,32.001,50.581z"/>
<path fill="#FFFFFF" d="M24.375,51.464c3.801,3.189,11.48,3.209,15.3,0C35.624,51.638,28.455,51.64,24.375,51.464z"/>
<path fill="#D6A67A" d="M37.001,45.802c0,3.254-10,3.254-10,0C27.001,45.056,37.001,45.056,37.001,45.802z"/>
<path fill="#EFDE8B" d="M13.5,10.066c-9.799,6.295-8.527,17.292-6.838,26.908C13.73,21.189,13.679,17.5,13.5,10.066z"/>
<path fill="#BA9D52" d="M6.662,36.974c5.955-18.3,3.67-22.208,6.838-26.908C13.679,17.5,15.544,22.84,6.662,36.974z"/>
<path fill="#EFDE8B" d="M13.5,10.066c26.677,15.575,36.589,8.211,43.205,26.371C63.909,4.253,27.5-7.309,13.5,10.066z"/>
<path fill="#BA9D52" d="M13.5,10.066c26.677,15.575,35.908,8.449,43.205,26.371C59.606,22.275,31.072,11.304,13.5,10.066z"/>
<path fill="#EFDE8B" d="M13.5,10.066c5.201,10.781,27.169,16.986,35.132,17.292C42.099,19.853,40.956,5.253,13.5,10.066z"/>
<path fill="#BA9D52" d="M48.632,27.358C42.099,19.853,22.15,20.191,13.5,10.066C18.701,20.847,39.745,27.358,48.632,27.358z"/>
<path fill="#EFDE8B" d="M13.5,10.066C5.341,21.932,22,26.046,29.351,26.339C23.345,20.699,20.781,10.464,13.5,10.066z"/>
<path fill="#BA9D52" d="M29.351,26.339C21.078,20.781,8.246,21.369,13.5,10.066C5.341,21.932,21.492,26.628,29.351,26.339z"/>
</svg>
