<?xml version="1.0" encoding="utf-8"?>
<!-- Generator: Adobe Illustrator 15.0.0, SVG Export Plug-In . SVG Version: 6.00 Build 0)  -->
<!DOCTYPE svg PUBLIC "-//W3C//DTD SVG 1.1//EN" "http://www.w3.org/Graphics/SVG/1.1/DTD/svg11.dtd" [
	<!ENTITY ns_flows "http://ns.adobe.com/Flows/1.0/">
	<!ENTITY ns_extend "http://ns.adobe.com/Extensibility/1.0/">
	<!ENTITY ns_ai "http://ns.adobe.com/AdobeIllustrator/10.0/">
	<!ENTITY ns_graphs "http://ns.adobe.com/Graphs/1.0/">
]>
<svg version="1.1" id="Layer_1" xmlns:x="&ns_extend;" xmlns:i="&ns_ai;" xmlns:graph="&ns_graphs;"
	 xmlns="http://www.w3.org/2000/svg" xmlns:xlink="http://www.w3.org/1999/xlink" xmlns:a="http://ns.adobe.com/AdobeSVGViewerExtensions/3.0/"
	 x="0px" y="0px" width="64px" height="64px" viewBox="0 0 64 64" enable-background="new 0 0 64 64" xml:space="preserve">
<path fill="#D6A67A" d="M8.682,27.566c-7.797-1.406-1.707,20.396,4.396,14.382C15.907,39.161,12.329,28.226,8.682,27.566z"/>
<path fill="#D6A67A" d="M55.319,27.566c-3.648,0.659-7.227,11.595-4.396,14.382C57.028,47.962,63.112,26.16,55.319,27.566z"/>
<path fill="#E3C19B" d="M32,2.002C15.877,2.002,8.11,14.2,9.083,31.16c0.195,3.413,2.309,14.544,4.307,18.536
	c2.045,4.084,8.879,10.383,13.068,11.686c2.646,0.824,8.44,0.824,11.084,0c4.189-1.303,11.027-7.602,13.07-11.686
	c2-3.992,4.113-15.123,4.307-18.536C55.894,14.2,48.126,2.002,32,2.002z"/>
<path fill="#BF8C6B" d="M32,48.175c-3.627-1.066-9,0.506-9,0.506c2.047,2.229,3.547,5.121,9,5.121c6.249,0,7.311-3.283,9-5.121
	C41.001,48.681,35.624,47.103,32,48.175z"/>
<path fill="#FFFFFF" d="M24.374,49.058c3.801,3.189,11.481,3.209,15.301,0C35.624,49.231,28.454,49.233,24.374,49.058z"/>
<path fill="#FFFFFF" d="M49.263,32.472c-2.154,5.641-10.918,4.814-12.525,0.867C37.956,26.999,48.079,26.456,49.263,32.472z"/>
<path fill="#FFFFFF" d="M14.737,32.472c2.154,5.641,10.922,4.814,12.525,0.867C26.043,26.996,15.924,26.454,14.737,32.472z"/>
<path fill="#BF8C6B" d="M50.157,25.685c-3.688-1.83-10.744-1.919-13.373-0.644c-0.563,0.247-0.191,1.982,0.283,1.816
	c3.664-1.357,9.572-1.39,13.002,0.117C50.526,27.168,50.716,25.94,50.157,25.685z"/>
<path fill="#BF8C6B" d="M13.844,25.685c3.688-1.83,10.742-1.919,13.373-0.644c0.563,0.247,0.191,1.982-0.281,1.816
	c-3.67-1.357-9.572-1.39-13.004,0.117C13.475,27.168,13.288,25.94,13.844,25.685z"/>
<path fill="#D6A67A" d="M37.001,42.179c0,3.254-9.999,3.254-9.999,0C27.002,41.433,37.001,41.433,37.001,42.179z"/>
<path fill="#EFDE8B" d="M32,2C20.909,2,14.208,5.664,11.317,4.258c0,0-0.314,1.892,0.818,3.123c0,0-1.195,1.033-3.125-0.71
	c-1.838,5.968,3.617,9.426,22.99,9.426c19.374,0,14.745-4.718,24.27,3.567C55.337,9.452,48.847,2,32,2z"/>
<path fill="#BA9D52" d="M40.204,10.904c-10.667,3.937-14.567-3.166-24.627-3.853c4.785,2.26,7.123,5.738,11.053,8.249
	c-8.555-2.865-14.832-7.789-15.309-11.025c0,0-1.428,4.725,4.217,8.255c-5.396,0.5-6.523-5.841-6.523-5.841
	c-2.115,3.398-2.365,12.651-0.963,21.533C8.655,36.313,8.038,39.345,9.34,43.71C13.657,58.155,22.633,61.993,32,61.999
	c9.368-0.006,18.344-3.844,22.659-18.289c1.324-4.434,0.666-7.484,1.318-15.863C58.397,10.895,50.132,7.239,40.204,10.904z
	 M34.974,56.067c-1.299-0.535-1.723-1.607-1.723-1.607h-2.5c0,0-0.424,1.072-1.723,1.607c-2.988,1.213-8.742-7.291-7.117-7.826
	c2.072-0.684,5.684-0.92,10.09-0.92c4.405,0,8.016,0.236,10.09,0.92C43.716,48.776,37.962,57.28,34.974,56.067z M45.677,49.36
	c0,0-0.824-2.043-3.012-3.123c-2.75-1.361-5.225-1.029-10.665-1.02c-5.441-0.01-7.916-0.342-10.664,1.02
	c-2.188,1.08-3.012,3.123-3.012,3.123c-9.119-6.037-9.428-18.516-7.543-23.429c5.188-13.506,1.85-7.835,21.221-7.835
	c19.374,0,15.875-5.171,21.221,7.835C55.052,30.379,54.739,43.36,45.677,49.36z"/>
<path fill="#613F34" d="M38.974,31.872c0,4.949,7.16,4.949,7.16,0C46.134,27.278,38.974,27.278,38.974,31.872z"/>
<path fill="#7D5037" d="M39.683,33.456c0,2.838,5.742,2.838,5.742,0C45.425,30.821,39.683,30.821,39.683,33.456z"/>
<path fill="#1A1626" d="M41.067,31.95c0,2.055,2.973,2.055,2.973,0C44.04,30.044,41.067,30.044,41.067,31.95z"/>
<path fill="#AB968C" d="M40.054,31.351c0,1.037,1.5,1.037,1.5,0C41.554,30.388,40.054,30.388,40.054,31.351z"/>
<path fill="#613F34" d="M17.87,31.871c0,4.948,7.158,4.948,7.158,0C25.028,27.277,17.87,27.277,17.87,31.871z"/>
<path fill="#7D5037" d="M18.577,33.454c0,2.838,5.744,2.838,5.744,0C24.321,30.82,18.577,30.82,18.577,33.454z"/>
<path fill="#1A1626" d="M19.963,31.948c0,2.055,2.971,2.055,2.971,0C22.934,30.042,19.963,30.042,19.963,31.948z"/>
<path fill="#AB968C" d="M18.948,31.349c0,1.037,1.5,1.037,1.5,0C20.448,30.386,18.948,30.386,18.948,31.349z"/>
<path fill="#D6A67A" d="M49.263,32.431c0-6.056-12.525-6.056-12.525,0.959C38.526,27.635,47.474,27.635,49.263,32.431z"/>
<path fill="#D6A67A" d="M14.737,32.431c0-6.056,12.525-6.056,12.525,0.957C25.475,27.631,16.526,27.631,14.737,32.431z"/>
</svg>
