<?xml version="1.0" encoding="utf-8"?>
<!-- Generator: Adobe Illustrator 15.0.0, SVG Export Plug-In . SVG Version: 6.00 Build 0)  -->
<!DOCTYPE svg PUBLIC "-//W3C//DTD SVG 1.1//EN" "http://www.w3.org/Graphics/SVG/1.1/DTD/svg11.dtd" [
	<!ENTITY ns_flows "http://ns.adobe.com/Flows/1.0/">
	<!ENTITY ns_extend "http://ns.adobe.com/Extensibility/1.0/">
	<!ENTITY ns_ai "http://ns.adobe.com/AdobeIllustrator/10.0/">
	<!ENTITY ns_graphs "http://ns.adobe.com/Graphs/1.0/">
]>
<svg version="1.1" id="Layer_1" xmlns:x="&ns_extend;" xmlns:i="&ns_ai;" xmlns:graph="&ns_graphs;"
	 xmlns="http://www.w3.org/2000/svg" xmlns:xlink="http://www.w3.org/1999/xlink" xmlns:a="http://ns.adobe.com/AdobeSVGViewerExtensions/3.0/"
	 x="0px" y="0px" width="64px" height="64px" viewBox="0 0 64 64" enable-background="new 0 0 64 64" xml:space="preserve">
<path fill="#1A1626" d="M62,22c-8.075,8.922-20.783,8.977-30,8.971C22.783,30.977,10.075,30.922,2,22
	c0,16.412,19.279,21.006,12.485,30.964c-2.146,3.147,37.176,3.147,35.029,0C42.723,43.006,62,38.412,62,22z"/>
<path fill="#E81C27" d="M32,30.971c-9.217,0.006-19.985-0.516-28-7.018c0,9.727,26.279,21.068,19.486,31.025
	c-2.146,3.147,19.174,3.147,17.027,0c-6.793-9.957,19.487-21.299,19.487-31.025C51.985,30.455,41.217,30.977,32,30.971z"/>
<path fill="#E81C27" d="M31.896,16.537C32.004,16.537,32.004,16.537,31.896,16.537C32.004,16.537,32.004,16.537,31.896,16.537z"/>
<path fill="#1A1626" d="M54.205,52.6c-2.7-1.373-13.912-5.002-13.912-5.002l-16.695,0.02c0,0-11.192,3.647-13.88,5.032
	C5.819,54.659,5.01,62,5.01,62l54-0.064C59.01,61.936,58.126,54.591,54.205,52.6z"/>
<path fill="#E6B045" d="M40.006,48.78c0,4.096-16,4.096-16,0c0-2.634,0-9.079,0-9.079h16C40.006,39.701,40.006,47.21,40.006,48.78z"
	/>
<polygon fill="#E6EBEF" points="23.287,51.345 25.037,62 38.98,62 40.732,51.345 "/>
<path fill="#BEC3CF" d="M23.287,51.345c0,0,0.559,4.776,1.75,5.655c1.401,1.033,4.18-1.45,6.96-1.449
	c2.789,0.002,5.578,2.484,6.983,1.449c1.191-0.878,1.752-5.655,1.752-5.655H23.287z"/>
<path fill="#302C3B" d="M39.916,62c0,0,4.457-5.756,6.301-12.166l-7.123,0.917c0,0,0.104,4.385-2.434,11.249H39.916z"/>
<path fill="#302C3B" d="M24.104,62c0,0-4.457-5.756-6.299-12.166l7.121,0.917c0,0-0.104,4.385,2.436,11.249H24.104z"/>
<path fill="#E81C27" d="M31.359,51.329c-2.197-5.925-11.33-4.804-10.561-2.619c0.502,1.43,0.477,3.153-0.131,4.535
	C19.518,55.859,29.734,57.968,31.359,51.329z"/>
<path fill="#E81C27" d="M32.629,51.324c2.182-5.926,11.318-4.83,10.555-2.643c-0.498,1.429-0.469,3.152,0.143,4.532
	C44.48,55.826,34.27,57.964,32.629,51.324z"/>
<path fill="#B00505" d="M32.95,50.916c1.748,0.349,3.586-2.706,4.125-0.669C37.755,52.799,33.819,53.002,32.95,50.916z"/>
<path fill="#B00505" d="M30.76,52.76c-2.363,3.2-8.324,2.997-9.483,1.332C19.834,52.019,26.035,56.258,30.76,52.76z"/>
<path fill="#B00505" d="M33.234,52.76c2.363,3.2,8.324,2.997,9.483,1.332C44.16,52.019,37.959,56.258,33.234,52.76z"/>
<path fill="#B00505" d="M31.034,50.92c-1.748,0.354-3.594-2.696-4.127-0.659C26.233,52.814,30.169,53.009,31.034,50.92z"/>
<path fill="#E81C27" d="M32,54.013c-1.385,0.001-1.727,1.079-1.732-2.665c-0.004-3.746,0.34-2.667,1.727-2.67
	c1.385-0.001,1.727-1.082,1.732,2.665C33.73,55.086,33.387,54.011,32,54.013z"/>
<path fill="#302C3B" d="M32,2C19.548,2,14.229,8.588,14.229,17.608h35.535C49.765,8.588,44.444,2,32,2z"/>
<path fill="#E6B045" d="M14.897,21.749c-5.719-1.031-1.252,14.958,3.225,10.547C20.194,30.25,17.571,22.231,14.897,21.749z"/>
<path fill="#E6B045" d="M49.097,21.749c-2.674,0.482-5.299,8.502-3.223,10.547C50.351,36.706,54.812,20.717,49.097,21.749z"/>
<path fill="#FFCC66" d="M31.997,9C20.173,9,14.476,11.946,15.19,24.383c0.143,2.504,1.693,10.667,3.158,13.594
	c1.498,2.994,6.512,7.613,9.584,8.57c1.939,0.604,6.188,0.604,8.127,0c3.072-0.957,8.086-5.576,9.586-8.57
	c1.465-2.928,3.016-11.09,3.158-13.594C49.519,11.946,43.821,9,31.997,9z"/>
<path fill="#E6B045" d="M35.663,32.464c0,2.387-7.332,2.387-7.332,0C28.331,31.917,35.663,31.917,35.663,32.464z"/>
<path fill="#1A1626" d="M31.999,7.528C25.292,5.052,9.378,4.453,15.64,27.75c0.373-2.75-0.371-6.357,0.799-9.201
	c3.628-8.826,5.185-9.125,15.561-5.746c10.376-3.379,11.933-3.08,15.561,5.746c1.17,2.844,0.426,6.451,0.799,9.201
	C54.62,4.453,38.706,5.052,31.999,7.528z"/>
<path fill="#FFFFFF" d="M44.655,25.346c-1.58,4.135-8.008,3.529-9.186,0.635C36.364,21.331,43.788,20.934,44.655,25.346z"/>
<path fill="#FFFFFF" d="M19.337,25.346c1.58,4.135,8.01,3.529,9.186,0.635C27.628,21.329,20.206,20.932,19.337,25.346z"/>
<path fill="#302C3B" d="M45.312,20.368c-2.705-1.342-7.879-1.408-9.807-0.473c-0.412,0.182-0.141,1.455,0.207,1.332
	c2.688-0.994,7.02-1.018,9.535,0.086C45.581,21.456,45.722,20.555,45.312,20.368z"/>
<path fill="#302C3B" d="M18.683,20.368c2.703-1.342,7.877-1.408,9.807-0.473c0.412,0.182,0.141,1.455-0.207,1.332
	c-2.691-0.994-7.02-1.018-9.537,0.086C18.411,21.456,18.272,20.555,18.683,20.368z"/>
<path fill="#820505" d="M37.11,24.905c0,3.629,5.25,3.629,5.25,0C42.36,21.536,37.11,21.536,37.11,24.905z"/>
<path fill="#B00505" d="M37.63,26.067c0,2.08,4.211,2.08,4.211,0C41.841,24.135,37.63,24.135,37.63,26.067z"/>
<path fill="#1A1626" d="M38.646,24.961c0,1.508,2.18,1.508,2.18,0C40.825,23.565,38.646,23.565,38.646,24.961z"/>
<path fill="#AB968C" d="M37.901,24.522c0,0.762,1.102,0.762,1.102,0C39.003,23.817,37.901,23.817,37.901,24.522z"/>
<path fill="#820505" d="M21.634,24.905c0,3.629,5.25,3.629,5.25,0C26.884,21.536,21.634,21.536,21.634,24.905z"/>
<path fill="#B00505" d="M22.153,26.065c0,2.082,4.211,2.082,4.211,0C26.364,24.133,22.153,24.133,22.153,26.065z"/>
<path fill="#1A1626" d="M23.169,24.961c0,1.506,2.18,1.506,2.18,0C25.349,23.563,23.169,23.563,23.169,24.961z"/>
<path fill="#AB968C" d="M22.425,24.522c0,0.76,1.1,0.76,1.1,0C23.524,23.815,22.425,23.815,22.425,24.522z"/>
<path fill="#302C3B" d="M44.655,25.315c0-4.441-9.186-4.441-9.186,0.703C36.782,21.797,43.343,21.797,44.655,25.315z"/>
<path fill="#302C3B" d="M19.337,25.315c0-4.441,9.186-4.441,9.186,0.701C27.212,21.795,20.649,21.795,19.337,25.315z"/>
<path fill="#302C3B" d="M31.999,36.834c-2.467-0.688-7.252,0.383-7.252,0.383c1.65,1.691,2.859,3.887,7.252,3.887
	c4.391,0,5.6-2.195,7.248-3.887C39.247,37.217,34.464,36.146,31.999,36.834z"/>
<path fill="#FFFFFF" d="M25.673,37.273c0.197,0.482,2.807,2.281,6.324,2.281c3.52,0,6.129-1.799,6.326-2.281
	C35.171,37.428,28.849,37.43,25.673,37.273z"/>
<polygon fill="#FFFFFF" points="26.929,37.371 27.868,42.104 28.868,37.492 "/>
<polygon fill="#FFFFFF" points="37.067,37.371 36.128,42.104 35.128,37.492 "/>
</svg>
