<?xml version="1.0" encoding="utf-8"?>
<!-- Generator: Adobe Illustrator 15.0.0, SVG Export Plug-In . SVG Version: 6.00 Build 0)  -->
<!DOCTYPE svg PUBLIC "-//W3C//DTD SVG 1.1//EN" "http://www.w3.org/Graphics/SVG/1.1/DTD/svg11.dtd" [
	<!ENTITY ns_flows "http://ns.adobe.com/Flows/1.0/">
	<!ENTITY ns_extend "http://ns.adobe.com/Extensibility/1.0/">
	<!ENTITY ns_ai "http://ns.adobe.com/AdobeIllustrator/10.0/">
	<!ENTITY ns_graphs "http://ns.adobe.com/Graphs/1.0/">
]>
<svg version="1.1" id="Layer_1" xmlns:x="&ns_extend;" xmlns:i="&ns_ai;" xmlns:graph="&ns_graphs;"
	 xmlns="http://www.w3.org/2000/svg" xmlns:xlink="http://www.w3.org/1999/xlink" xmlns:a="http://ns.adobe.com/AdobeSVGViewerExtensions/3.0/"
	 x="0px" y="0px" width="64px" height="64px" viewBox="0 0 64 64" enable-background="new 0 0 64 64" xml:space="preserve">
<path fill="#614036" d="M51.212,37.699c-0.275-0.44,0.007-1.431,0.542-2.506c0.208,0.47,0.545,0.904,1.079,1.264
	c-1.251-5.09,9.157-10.09,2.16-13.062l-1.937,2.457c3.126,0.657-4.364,2.926-3.148,6.859c-0.002-0.506,0.527-1.034,1.223-1.59
	C49.827,33.406,48.975,35.955,51.212,37.699z"/>
<path fill="#4A2E24" d="M51.212,37.699c-0.275-0.44-0.45-2.409,0.085-3.484c0.369,1.48,0.83,2.104,1.536,2.242
	c-2.559-5.01,6.945-9.433,1.212-11.582l-0.988,0.978c3.126,0.657-4.364,2.926-3.148,6.859c0.062-1.539,0.795-2.165,1.514-2.295
	C50.119,32.701,48.975,35.955,51.212,37.699z"/>
<path fill="#8E3ED6" d="M57.795,24.687c-0.746-1.008-4.503-0.754-4.638,1.138C53.044,27.375,58.796,26.022,57.795,24.687z"/>
<path fill="#755035" d="M47.512,23.358c1.604,0.68-1.848,2.694-2.113,2.939c0,0,2.637-0.483,4.989,1.803
	c0,0,0.694-1.184,2.116-2.791C56.928,21.41,47.512,23.358,47.512,23.358z"/>
<path fill="#916B50" d="M51.862,13.842c-0.823,0.334-1.61,0.876-2.045,1.544c-0.671,1.03-1.482,1.055-2.719,0.982
	c-1.175-0.07-0.981,1.116-0.313,1.772c-0.061,0.33-0.365,0.411-0.365,0.411c0.069,0.988-0.65,1.682-1.089,1.631
	c0,0,0.08,0.246-0.256,0.518c-0.957,0.777-0.682,1.577,1.032,2.449c3.387,1.719,5.507,0.021,5.507,0.021
	c-0.217,1.258,2.616,1.566,4.199,0.075C58.449,20.775,59.937,14.912,51.862,13.842z"/>
<path fill="#755035" d="M52.876,21.989c0.626-0.627,1.683-0.669,2.201-0.161c0,0-1.629-0.125-2.408,1.107
	C52.669,22.936,52.438,22.427,52.876,21.989z"/>
<path fill="#F5F5F5" d="M50.706,18.524c-0.72,0.052-1.76-0.553-1.979-0.88C50.061,14.986,51.111,17.248,50.706,18.524z"/>
<path fill="#45332C" d="M48.752,17.68c0.812,0.757,2.479-1.78,0.802-1.169C49.324,16.681,48.588,17.527,48.752,17.68z"/>
<path fill="#45332C" d="M50.706,18.524c0.57-0.991-0.219-2.903-1.152-2.014C50.261,16.23,50.903,17.503,50.706,18.524z"/>
<path fill="#F5F5F5" d="M49.771,16.77c-0.189,0.197,0.097,0.464,0.286,0.268C50.228,16.854,49.942,16.587,49.771,16.77z"/>
<path fill="#423225" d="M52.141,17.498c-0.109-0.945-1.229-1.992-1.897-2.12c-0.139-0.035-0.356,0.353-0.247,0.376
	c0.73,0.162,1.664,0.914,2.001,1.854C52.034,17.713,52.163,17.639,52.141,17.498z"/>
<path fill="#84401E" d="M46.258,19.175c0.074,0.407-0.442,0.44-0.442,0.44c-0.211-0.226-0.806,0.364-0.483,0.567
	c0.944,0.588,2.188,0.692,2.441,0.493c-0.156-0.146-1.263-1.335-1.353-2.124C46.421,18.552,46.137,18.748,46.258,19.175z"/>
<path fill="#FFFFFF" d="M46.258,19.175l-0.442,0.44c0.186,0.2,1.068,0.778,1.711,0.931C47.526,20.546,46.564,19.807,46.258,19.175z"
	/>
<path fill="#614036" d="M59.409,22.064c1.691-1.877,1.013-4.713-1.139-6.858c-2.784-2.778-5.891-2.525-6.408-1.364
	c4.754,1.653-1.034,7.872,2.18,7.137c1.609-0.366,2.497,1.584,0.854,2.633c-1.659,1.061-2.719,0.435-2.719,0.435
	c-0.295,0.962,0.057,1.478,0.057,1.478C54.751,27.368,60.083,24.385,59.409,22.064z"/>
<path fill="#4A2E24" d="M59.409,22.064c1.691-1.877-0.5-5.711-1.689-6.512c1.206,1.676,1.948,4.298,1.543,5.078
	c-0.854-1.512-1.893-3.97-4.016-5.887c1.057,1.394,1.038,3.425,3.11,6.346c0,0-2.204-1.444-3.348-4.251
	c-0.185,1.244,0.582,3.369,1.078,4.295c-0.843-0.76-1.653-1.748-2.264-4.846c0.106,2.343-2.021,5.202,0.218,4.69
	c1.609-0.366,2.497,1.584,0.854,2.633c-1.659,1.061-2.719,0.435-2.719,0.435c-0.295,0.962,0.057,1.478,0.057,1.478
	C54.751,27.368,60.083,24.385,59.409,22.064z"/>
<path fill="#755035" d="M47.689,18.408c-0.366,0.162-0.835-0.172-1.066-0.42c-0.309-0.33-0.446-0.798-0.353-1.159
	C46.664,16.694,46.648,18.06,47.689,18.408z"/>
<polygon fill="#916858" points="32.683,12.509 34.426,2 15.513,2 20.774,38.193 22.936,28.101 35.39,14.744 "/>
<polygon fill="#6B4D40" points="23.891,2 20.774,18.24 23.491,19.456 20.175,31.423 23.891,32.423 20.113,46.081 17.178,51.214 
	16.444,56.484 20.475,59.994 20.897,62 2,62 2,2 "/>
<polygon fill="#9E7666" points="2.424,51.734 6.564,54.379 11.708,56.545 16.522,56.328 20.475,59.994 11.332,58.078 6.25,55.331 
	"/>
<polygon fill="#9E7666" points="14.593,32.454 2.424,29.548 20.403,30.604 23.891,32.423 "/>
<polygon fill="#543D32" points="11.271,31.66 6.062,46.839 2.633,29.548 "/>
<polygon fill="#543D32" points="17.77,32.454 15.063,42.303 14.593,32.454 "/>
<polygon fill="#543D32" points="6.25,55.331 4.097,60.756 2.424,51.734 "/>
<polygon fill="#543D32" points="11.332,58.078 10.736,61.122 8.742,56.679 "/>
<polygon fill="#543D32" points="3.929,16.82 11.77,25.486 14.781,20.119 "/>
<polygon fill="#543D32" points="3.636,2 7.286,5.892 7.819,12.767 13.464,9.142 16.444,2 "/>
<polygon fill="#9E7666" points="3.929,16.82 15.095,18.739 20.823,17.986 24.797,20.06 20.364,19.563 14.781,20.119 "/>
<polygon fill="#6B4D40" points="24.797,11.324 34.749,12.281 35.39,14.744 "/>
<polygon fill="#543D32" points="21.383,22.813 20.364,19.563 24.708,19.923 21.557,26.433 "/>
<polygon fill="#6B4D40" points="33.912,2 40.97,2 35.919,4.735 33.13,9.807 32.114,4.215 "/>
<path fill="#755035" d="M34.616,29.101c-1.257-0.689-5.485,3.813-9.775,6.771c-0.261,0.179,0.73,2.279,1.001,2.122
	c3.458-1.995,5.657-1.995,7.517-4.047c0.284,0.593,1.041,1.259,1.421,2.132c0.263,0.603,4.417-2.468,3.901-2.967
	C35.941,30.454,35.72,29.706,34.616,29.101z"/>
<path fill="#755035" d="M43.208,20.375c-0.794-1.852-2.948-4.652-3.841-6.256c-0.527-0.949-3.727-2.831-4.573-2.793
	c-0.68,0.031-3.775,1.583-3.347,2.228c2.044-0.98,2.368-0.76,2.703-0.633c0.858,0.327,1.495,1.158-0.854,1.655
	c-0.407,0.087-0.501,0.606,0.415,0.461c1.465-0.235,1.399-0.557,2.438-0.703c0.703-0.098,1.145,0.396,1.402,0.917
	c1.18,2.384,1.267,4.763,2.614,6.788c2.124,3.194,2.088,4.848,4.37,6.188c0.482,0.282,2.991-0.847,2.868-1.332
	C46.864,24.745,43.994,22.21,43.208,20.375z"/>
<path fill="#302C3B" d="M25.18,35.636c-0.819-0.656-1.804-4.108-2.746-3.771c-1.267,3.311,0,3.351,1.168,6.895
	c0.173,0.525,2.028,0.505,2.24-0.765L25.18,35.636z"/>
<path fill="#5D1E96" d="M40.108,34.156c-0.228-0.771-1.776-1.892-1.776-1.892s-2.244,1.993-3.906,3.477c0,0,0.541,2.058,0.559,3.337
	C35.012,41.258,40.741,36.293,40.108,34.156z"/>
<path fill="#594640" d="M39.346,37.282L25.958,2H27.5L40.97,37.534C40.927,37.659,38.728,39.201,39.346,37.282z"/>
<path fill="#916B50" d="M39.828,24.824c-3.887-0.707-5.055-0.473-6.652-0.686c-1.091-1.212-5.045-2.321-6.174-3.465
	c-0.772-2.084-3.351-2.384-3.625-2.419c-0.615-0.081-2.548,0.163-2.601,0.64c-0.071,0.617,2.091,0.63,2.638,1.085
	c0.496,0.413,0.865,1.586,1.539,1.854c1.637,0.649,6.68,5.527,7.404,5.909c0.802,0.424,2.444,0.421,6.127,0.961
	C39.198,28.809,40.536,24.953,39.828,24.824z"/>
<path fill="#916B50" d="M17.779,55.269c2.439-4.409,3.281-7.169,5.061-8.909c1.276-1.248,4.04-2.993,5.879-4.449
	c0.598-0.475,4.179,3.173,3.569,3.64c-1.386,1.069-4.688,2.111-6.329,2.899c-1.161,2.999-3.729,3.337-5.32,5.93
	C20.461,54.665,17.608,55.578,17.779,55.269z"/>
<path fill="#302C3B" d="M17.779,55.269c-0.986,0.849-4.571,2.23-4.107,3.165c3.602,0.907,3.433-0.597,7.304-1.856
	c0.551-0.18,0.494-1.177-0.337-2.198L17.779,55.269z"/>
<path fill="#8E3ED6" d="M39.532,24.6l-1.611,4.162c1.426,0.066,1.724,0.41,1.724,0.41s-0.918,1.356,0.388,2.263
	c-0.51,1.42-0.847,2.918-1.598,3.939c-1.633,2.22-6.968,3.8-10.073,6.488c-0.11,0.944,3.426,4.219,3.426,4.219
	c1.969-1.06,5.775-1.225,8.243-1.393c6.406-0.437,4.011-6.83,10.37-16.423c0.668-1.007-3.808-3-4.975-3.09
	C43.74,25.046,39.532,24.6,39.532,24.6z"/>
<path fill="#302C3B" d="M39.161,33.987c0,0,3.382,5.072,5.88,6.458c-0.037,1.063-0.646,1.494-0.646,1.494l-1.337-0.841l-3.099,2.692
	c0,0,0.33,0.43,0.9,0.808c-0.747,0.456-1.512,0.293-1.512,0.293s-3.581-2.239-4.731-6.8c0.553-0.751,1.442-0.805,1.442-0.805
	c0.735,3.058,2.734,5.43,2.734,5.43l2.981-2.845c0,0-2.197-2.487-3.273-4.657C38.752,34.326,39.161,33.987,39.161,33.987z"/>
<path fill="#302C3B" d="M57.27,23.9c0,0-0.132-1.043-0.355-0.932c-0.933,0.465-3.493,0.741-3.493,0.741s0.291-3.045,2.401-5.124
	c0.181-0.178-0.59-0.632-0.834-0.569c-1.481,0.378-2.768,5.751-2.768,5.751s-3.865,0.212-5.42-0.307
	C49.25,26.376,57.27,23.9,57.27,23.9z"/>
<path fill="#E81C27" d="M61.219,15.791c-1.812-3.654-6.184-5.188-9.766-3.426c-0.987,0.485,2.233,3.815,3.546,6.464
	c1.195,2.414,1.793,7.365,3.008,6.766C61.589,23.836,63.028,19.445,61.219,15.791z"/>
</svg>
