<?xml version="1.0" encoding="utf-8"?>
<!-- Generator: Adobe Illustrator 15.0.0, SVG Export Plug-In . SVG Version: 6.00 Build 0)  -->
<!DOCTYPE svg PUBLIC "-//W3C//DTD SVG 1.1//EN" "http://www.w3.org/Graphics/SVG/1.1/DTD/svg11.dtd" [
	<!ENTITY ns_flows "http://ns.adobe.com/Flows/1.0/">
	<!ENTITY ns_extend "http://ns.adobe.com/Extensibility/1.0/">
	<!ENTITY ns_ai "http://ns.adobe.com/AdobeIllustrator/10.0/">
	<!ENTITY ns_graphs "http://ns.adobe.com/Graphs/1.0/">
]>
<svg version="1.1" id="Layer_1" xmlns:x="&ns_extend;" xmlns:i="&ns_ai;" xmlns:graph="&ns_graphs;"
	 xmlns="http://www.w3.org/2000/svg" xmlns:xlink="http://www.w3.org/1999/xlink" xmlns:a="http://ns.adobe.com/AdobeSVGViewerExtensions/3.0/"
	 x="0px" y="0px" width="64px" height="64px" viewBox="0 0 64 64" enable-background="new 0 0 64 64" xml:space="preserve">
<path fill="#AD883D" d="M43.408,9.717c7.92,48.295,7.193,47.262-9.475,47.262C42.416,49.617,25.488,9.061,43.408,9.717z"/>
<path fill="#C49A45" d="M47.264,8.969c8.447,33.383-0.018,46.463-3.633,48.01h-4.072C51.43,46.064,31.875,8.246,47.264,8.969z"/>
<path fill="#FFD68C" d="M47.67,26.908c2.445,8.486,0.025,25.902-5.039,30.07c5.613,0,9.033-11.041,10.699-26.229
	C55.414,11.773,43.311,11.764,47.67,26.908z"/>
<path fill="#AD883D" d="M20.551,9.717c-7.918,48.295-7.193,47.262,9.475,47.262C21.545,49.617,38.473,9.061,20.551,9.717z"/>
<path fill="#C49A45" d="M16.697,8.969c-8.447,33.383,0.018,46.463,3.633,48.01h4.072C12.531,46.064,32.086,8.246,16.697,8.969z"/>
<path fill="#FFD68C" d="M16.291,26.908c-2.447,8.486-0.025,25.902,5.039,30.07c-5.613,0-9.033-11.041-10.699-26.229
	C8.547,11.773,20.648,11.764,16.291,26.908z"/>
<path fill="#FFD68C" d="M31.959,2c-12.756,0-20.746,9.301-20.746,19.258l0.965,6.162h39.604l0.967-6.162
	C52.748,11.914,44.455,2,31.959,2z"/>
<polygon fill="#755035" points="24.518,51.018 32,57.637 39.486,51.018 39.486,43.965 24.518,43.965 "/>
<path fill="#529320" d="M51.801,53.691c-0.074-0.037-0.09-0.309,0-0.389c-3.119-1.184-6.225-2.012-9.035-2.611
	c-0.836-3.807,0.865-5.521,0.865-5.521C34.506,45.17,32,57.637,32,57.637S29.496,45.17,20.373,45.17c0,0,1.699,1.715,0.863,5.521
	c-2.811,0.6-5.916,1.428-9.037,2.611c0.092,0.08,0.076,0.352,0,0.389C8.73,55.475,8,62,8,62h48C56,62,55.27,55.475,51.801,53.691z"
	/>
<path fill="#297124" d="M51.801,53.303C47.742,57.773,49.273,62,49.273,62s-0.281-4.824,2.686-8.223
	C52.055,53.523,51.951,53.314,51.801,53.303z"/>
<path fill="#297124" d="M34.537,59.65c0,0,5.865-4.727,8.221-8.969C40.879,55.816,34.537,59.65,34.537,59.65z"/>
<path fill="#297124" d="M12.199,53.303C16.26,57.773,14.729,62,14.729,62s0.281-4.824-2.686-8.223
	C11.947,53.523,12.049,53.314,12.199,53.303z"/>
<path fill="#297124" d="M29.463,59.65c0,0-5.863-4.727-8.219-8.969C23.123,55.816,29.463,59.65,29.463,59.65z"/>
<path fill="#C49A45" d="M33.5,58.877c0,3.014-3,3.014-3,0C30.5,56.086,33.5,56.086,33.5,58.877z"/>
<path fill="#E5BC5E" d="M33.006,58.898c0,2.262-2,2.262-2,0C31.006,56.805,33.006,56.805,33.006,58.898z"/>
<path fill="#755035" d="M10.264,17.988c-1.945-0.33,3.035,20.932,6.92,17.314C19.318,33.314,13.018,18.459,10.264,17.988z"/>
<path fill="#755035" d="M53.695,17.988c-2.752,0.471-9.055,15.326-6.92,17.314C50.66,38.918,55.639,17.658,53.695,17.988z"/>
<path fill="#916B50" d="M31.979,7.801c-3.91,8.021-17.203,7.455-16.504,19.611c0.143,2.443,0.822,5.969,1.662,8.988
	c1.74,6.277,10.928,12.6,14.84,12.6s13.1-6.322,14.842-12.6c0.838-3.02,1.518-6.545,1.662-8.988
	C49.178,15.256,37.871,17.316,31.979,7.801z"/>
<path fill="#7A421B" d="M31.979,38.973c-2.822-1.24-2.844-0.051-7.201,0.242c1.637,1.855,2.84,4.244,7.199,4.244
	c5.002,0,5.848-2.711,7.203-4.244C34.82,38.922,34.801,37.732,31.979,38.973z"/>
<path fill="#FFFFFF" d="M26.086,39.678c2.844,2.959,8.977,2.92,11.783,0C33.492,40.148,30.465,40.148,26.086,39.678z"/>
<path fill="#36281D" d="M44.771,22.996c-2.615-1.561-7.307-1.75-9.164-0.688c-0.395,0.213-0.287,1.34,0.053,1.199
	c2.648-1.104,6.682-1.158,9.168,0.117C45.16,23.795,45.168,23.223,44.771,22.996z"/>
<path fill="#36281D" d="M19.184,22.996c2.615-1.561,7.307-1.75,9.166-0.688c0.395,0.213,0.289,1.34-0.053,1.199
	c-2.648-1.104-6.68-1.158-9.168,0.117C18.795,23.795,18.789,23.223,19.184,22.996z"/>
<path fill="#755035" d="M35.578,34.73c0,2.342-7.201,2.342-7.201,0C28.377,34.193,35.578,34.193,35.578,34.73z"/>
<path fill="#FFFFFF" d="M44.52,27.742c-1.553,4.061-7.861,3.465-9.018,0.623C36.379,23.801,43.666,23.41,44.52,27.742z"/>
<path fill="#613F34" d="M37.084,27.301c0,3.596,5.199,3.596,5.199,0C42.283,23.963,37.084,23.963,37.084,27.301z"/>
<path fill="#7D5037" d="M37.598,28.451c0,2.063,4.172,2.063,4.172,0C41.77,26.537,37.598,26.537,37.598,28.451z"/>
<path fill="#1A1626" d="M38.604,27.357c0,1.492,2.16,1.492,2.16,0C40.764,25.973,38.604,25.973,38.604,27.357z"/>
<path fill="#AB968C" d="M37.867,26.922c0,0.754,1.09,0.754,1.09,0C38.957,26.223,37.867,26.223,37.867,26.922z"/>
<path fill="#45332C" d="M44.52,27.711c0-4.361-9.018-4.361-9.018,0.691C36.789,24.256,43.232,24.256,44.52,27.711z"/>
<path fill="#FFFFFF" d="M19.438,27.742c1.551,4.061,7.861,3.467,9.018,0.623C27.58,23.801,20.291,23.41,19.438,27.742z"/>
<path fill="#613F34" d="M21.672,27.307c0,3.596,5.201,3.596,5.201,0C26.873,23.969,21.672,23.969,21.672,27.307z"/>
<path fill="#7D5037" d="M22.186,28.457c0,2.063,4.172,2.063,4.172,0C26.357,26.543,22.186,26.543,22.186,28.457z"/>
<path fill="#1A1626" d="M23.193,27.363c0,1.492,2.158,1.492,2.158,0C25.352,25.979,23.193,25.979,23.193,27.363z"/>
<path fill="#AB968C" d="M22.455,26.928c0,0.754,1.09,0.754,1.09,0C23.545,26.227,22.455,26.227,22.455,26.928z"/>
<path fill="#45332C" d="M19.438,27.711c0-4.361,9.018-4.361,9.018,0.689C27.168,24.256,20.725,24.256,19.438,27.711z"/>
<path fill="#C49A45" d="M31.98,5c-1.02,5.84-17.193,9.709-16.529,20.814C17.619,15.738,31.98,12.746,31.98,12.746
	s14.361,2.992,16.529,13.068C49.174,14.709,32.998,10.84,31.98,5z"/>
<path fill="#529320" d="M31.592,22.197c-3.893-6.779-12.457-0.547-19.414-6.855c-0.137-0.125-0.428,1.072-0.354,1.141
	c6.512,6.17,14.764,1.637,19.768,8.656C31.93,25.615,32.063,23.018,31.592,22.197z"/>
<path fill="#529320" d="M32.203,25.139c5.002-7.02,13.338-2.486,19.85-8.656c0.072-0.068-0.24-1.266-0.379-1.141
	c-6.957,6.309-15.58,0.076-19.471,6.855C31.73,23.018,31.863,25.615,32.203,25.139z"/>
<path fill="#0FB4D4" d="M34.035,22.703c0,4.051-4.279,4.051-4.279,0C29.756,18.947,34.035,18.947,34.035,22.703z"/>
<path fill="#75D6FF" d="M33.33,22.734c0,3.035-2.85,3.035-2.85,0C30.48,19.916,33.33,19.916,33.33,22.734z"/>
</svg>
