<?xml version="1.0" encoding="utf-8"?>
<!-- Generator: Adobe Illustrator 15.0.0, SVG Export Plug-In . SVG Version: 6.00 Build 0)  -->
<!DOCTYPE svg PUBLIC "-//W3C//DTD SVG 1.1//EN" "http://www.w3.org/Graphics/SVG/1.1/DTD/svg11.dtd" [
	<!ENTITY ns_flows "http://ns.adobe.com/Flows/1.0/">
	<!ENTITY ns_extend "http://ns.adobe.com/Extensibility/1.0/">
	<!ENTITY ns_ai "http://ns.adobe.com/AdobeIllustrator/10.0/">
	<!ENTITY ns_graphs "http://ns.adobe.com/Graphs/1.0/">
]>
<svg version="1.1" id="Layer_1" xmlns:x="&ns_extend;" xmlns:i="&ns_ai;" xmlns:graph="&ns_graphs;"
	 xmlns="http://www.w3.org/2000/svg" xmlns:xlink="http://www.w3.org/1999/xlink" xmlns:a="http://ns.adobe.com/AdobeSVGViewerExtensions/3.0/"
	 x="0px" y="0px" width="64px" height="64px" viewBox="0 0 64 64" enable-background="new 0 0 64 64" xml:space="preserve">
<path opacity="0.15" fill="#A6AEB0" d="M2,62h60V28.307c-24.664,9.24-39.113-8.316-60,0V62z"/>
<path opacity="0.15" fill="#A6AEB0" d="M62,62H2V38.428c24.666,8.541,39.115-7.688,60,0V62z"/>
<path fill="#E3C19B" d="M54.271,51.42c-2.324-1.352-11.834-4.604-14.377-5.463c0-2.793,0-4.236,0-4.236H24.105c0,0,0,0.676,0,4.266
	c-2.666,0.9-12.008,4.104-14.316,5.438C5.871,53.682,5,62,5,62h54C59,62,58.176,53.689,54.271,51.42z"/>
<path fill="#D6A67A" d="M23.9,42.887c7.361,7.406,8.84,7.4,16.197-0.004L23.9,42.887z"/>
<path fill="#D6A67A" d="M14.902,20.75c-5.719-1.031-1.252,14.957,3.225,10.547C20.199,29.252,17.576,21.232,14.902,20.75z"/>
<path fill="#D6A67A" d="M49.102,20.75c-2.674,0.482-5.299,8.502-3.223,10.547C50.355,35.707,54.816,19.719,49.102,20.75z"/>
<path fill="#E3C19B" d="M32.002,2.002c-11.824,0-17.521,8.945-16.807,21.383c0.143,2.504,1.693,10.666,3.158,13.594
	c1.498,2.994,6.512,7.613,9.584,8.57c1.939,0.604,6.188,0.604,8.127,0c3.072-0.957,8.086-5.576,9.586-8.57
	c1.465-2.928,3.016-11.09,3.158-13.594C49.523,10.947,43.826,2.002,32.002,2.002z"/>
<path fill="#BF8C6B" d="M32.002,35.863c-2.66-0.783-6.6,0.369-6.6,0.369c1.5,1.635,2.6,3.756,6.6,3.756
	c4.582,0,5.359-2.406,6.6-3.756C38.602,36.232,34.658,35.076,32.002,35.863z"/>
<path fill="#FFFFFF" d="M26.408,36.51c2.787,2.34,8.418,2.354,11.221,0C34.658,36.637,29.4,36.639,26.408,36.51z"/>
<path fill="#D6A67A" d="M35.668,31.465c0,2.387-7.332,2.387-7.332,0C28.336,30.918,35.668,30.918,35.668,31.465z"/>
<path fill="#EFDE8B" d="M32.002,2c-8.135,0-13.049,2.688-15.168,1.656c0,0-0.23,1.387,0.6,2.291c0,0-0.877,0.758-2.291-0.521
	c-1.348,4.377,2.652,6.912,16.859,6.912s10.813-3.459,17.797,2.617C49.113,7.465,44.355,2,32.002,2z"/>
<path fill="#BA9D52" d="M38.018,8.529c-7.822,2.889-10.682-2.32-18.061-2.824c3.51,1.658,5.223,4.209,8.105,6.049
	c-6.273-2.1-10.877-5.711-11.227-8.084c0,0-1.047,3.463,3.094,6.053c-3.959,0.367-4.785-4.283-4.785-4.283
	c-2.004,3.221-1.727,13.605,0.5,21.313c0.371-2.75-0.475-3.887,0.797-7.201c3.805-9.904,1.355-5.746,15.563-5.746
	c14.205,0,11.641-3.793,15.561,5.746c1.17,2.844,0.426,4.451,0.799,7.201C53.033,9.375,46.316,5.467,38.018,8.529z"/>
<path fill="#FFFFFF" d="M44.66,24.348c-1.58,4.135-8.008,3.529-9.186,0.635C36.369,20.332,43.793,19.936,44.66,24.348z"/>
<path fill="#FFFFFF" d="M19.342,24.348c1.58,4.135,8.01,3.529,9.186,0.635C27.633,20.33,20.211,19.934,19.342,24.348z"/>
<path fill="#BF8C6B" d="M45.316,19.369c-2.705-1.342-7.879-1.408-9.807-0.473c-0.412,0.182-0.141,1.455,0.207,1.332
	c2.688-0.994,7.02-1.018,9.535,0.086C45.586,20.457,45.727,19.557,45.316,19.369z"/>
<path fill="#BF8C6B" d="M18.688,19.369c2.703-1.342,7.877-1.408,9.807-0.473c0.412,0.182,0.141,1.455-0.207,1.332
	c-2.691-0.994-7.02-1.018-9.537,0.086C18.416,20.457,18.277,19.557,18.688,19.369z"/>
<path fill="#613F34" d="M37.115,23.906c0,3.629,5.25,3.629,5.25,0C42.365,20.537,37.115,20.537,37.115,23.906z"/>
<path fill="#7D5037" d="M37.635,25.068c0,2.08,4.211,2.08,4.211,0C41.846,23.137,37.635,23.137,37.635,25.068z"/>
<path fill="#1A1626" d="M38.65,23.963c0,1.508,2.18,1.508,2.18,0C40.83,22.566,38.65,22.566,38.65,23.963z"/>
<path fill="#AB968C" d="M37.906,23.523c0,0.762,1.102,0.762,1.102,0C39.008,22.818,37.906,22.818,37.906,23.523z"/>
<path fill="#613F34" d="M21.639,23.906c0,3.629,5.25,3.629,5.25,0C26.889,20.537,21.639,20.537,21.639,23.906z"/>
<path fill="#7D5037" d="M22.158,25.066c0,2.082,4.211,2.082,4.211,0C26.369,23.135,22.158,23.135,22.158,25.066z"/>
<path fill="#1A1626" d="M23.174,23.963c0,1.506,2.18,1.506,2.18,0C25.354,22.564,23.174,22.564,23.174,23.963z"/>
<path fill="#AB968C" d="M22.43,23.523c0,0.76,1.1,0.76,1.1,0C23.529,22.816,22.43,22.816,22.43,23.523z"/>
<path fill="#D6A67A" d="M44.66,24.316c0-4.441-9.186-4.441-9.186,0.703C36.787,20.799,43.348,20.799,44.66,24.316z"/>
<path fill="#D6A67A" d="M19.342,24.316c0-4.441,9.186-4.441,9.186,0.701C27.217,20.797,20.654,20.797,19.342,24.316z"/>
<path fill="#A0D8E9" d="M21.658,62H52c0,0-0.375-5.057-4.74-5C19.842,57.342,21.658,62,21.658,62z"/>
<path fill="#CAE8F0" d="M34.293,57.492C20.203,57.463,22.197,57.016,16.744,57C12.375,56.986,12,62,12,62h30.342
	C42.342,62,41.326,57.508,34.293,57.492z"/>
<path opacity="0.2" fill="#A6AEB0" d="M62,62H2V48.549c24.031-7.939,37.939,8.664,60,0V62z"/>
</svg>
