<?xml version="1.0" encoding="utf-8"?>
<!-- Generator: Adobe Illustrator 15.0.0, SVG Export Plug-In . SVG Version: 6.00 Build 0)  -->
<!DOCTYPE svg PUBLIC "-//W3C//DTD SVG 1.1//EN" "http://www.w3.org/Graphics/SVG/1.1/DTD/svg11.dtd" [
	<!ENTITY ns_flows "http://ns.adobe.com/Flows/1.0/">
	<!ENTITY ns_extend "http://ns.adobe.com/Extensibility/1.0/">
	<!ENTITY ns_ai "http://ns.adobe.com/AdobeIllustrator/10.0/">
	<!ENTITY ns_graphs "http://ns.adobe.com/Graphs/1.0/">
]>
<svg version="1.1" id="Layer_1" xmlns:x="&ns_extend;" xmlns:i="&ns_ai;" xmlns:graph="&ns_graphs;"
	 xmlns="http://www.w3.org/2000/svg" xmlns:xlink="http://www.w3.org/1999/xlink" xmlns:a="http://ns.adobe.com/AdobeSVGViewerExtensions/3.0/"
	 x="0px" y="0px" width="64px" height="64px" viewBox="0 0 64 64" enable-background="new 0 0 64 64" xml:space="preserve">
<polygon fill="#916858" points="32.684,12.509 34.427,2 15.514,2 20.774,38.193 22.937,28.101 35.391,14.744 "/>
<polygon fill="#6B4D40" points="23.892,2 20.774,18.24 23.491,19.457 20.176,31.423 23.892,32.423 20.113,46.082 17.179,51.214 
	16.444,56.485 20.476,59.994 20.897,62 2,62 2,2 "/>
<polygon fill="#9E7666" points="2.425,51.735 6.564,54.379 11.709,56.545 16.522,56.329 20.476,59.994 11.332,58.079 6.251,55.332 
	"/>
<polygon fill="#9E7666" points="14.594,32.454 2.425,29.548 20.403,30.604 23.892,32.423 "/>
<polygon fill="#543D32" points="11.271,31.661 6.063,46.839 2.634,29.548 "/>
<polygon fill="#543D32" points="17.771,32.454 15.063,42.303 14.594,32.454 "/>
<polygon fill="#543D32" points="6.251,55.332 4.098,60.756 2.425,51.735 "/>
<polygon fill="#543D32" points="11.332,58.079 10.736,61.123 8.742,56.679 "/>
<polygon fill="#543D32" points="3.93,16.82 11.771,25.486 14.781,20.119 "/>
<polygon fill="#543D32" points="3.637,2 7.286,5.893 7.819,12.768 13.465,9.143 16.444,2 "/>
<polygon fill="#9E7666" points="3.93,16.82 15.096,18.739 20.823,17.986 24.798,20.06 20.364,19.563 14.781,20.119 "/>
<polygon fill="#6B4D40" points="24.798,11.325 34.75,12.282 35.391,14.744 "/>
<polygon fill="#543D32" points="21.384,22.813 20.364,19.563 24.708,19.923 21.558,26.433 "/>
<polygon fill="#6B4D40" points="33.913,2 40.971,2 35.92,4.736 33.131,9.808 32.114,4.216 "/>
<path fill="#423225" d="M46.507,23.192c1.541,0.729-1.248,1.925-1.525,2.157c0,0,2.995,0.391,5.173,2.732
	c0,0,0.762-1.146,2.266-2.686C57.029,21.698,46.507,23.192,46.507,23.192z"/>
<path fill="#614A36" d="M52.015,14.021c-0.863,0.304-1.384,0.794-1.873,1.45c-0.75,1.017-1.584,1.009-2.845,0.891
	c-1.198-0.115-1.075,1.088-0.431,1.778c-0.085,0.329-0.468,0.58-0.468,0.58s0.049,0.902-1.121,1.139
	c-0.053,1.044-1.915,0.913-0.709,2.33c1.177,1.384,3.816,2.253,4.393,2.291c0.911,0.06,2.532-1.086,2.532-1.086
	c-0.301,1.265,2.403,1.498,4.122,0.053C58.465,21.052,60.213,15.403,52.015,14.021z"/>
<path fill="#423225" d="M53.304,21.839c0.656-0.601,1.717-0.589,2.209-0.054c0,0-1.623-0.206-2.465,0.991
	C53.048,22.776,52.845,22.255,53.304,21.839z"/>
<path fill="#F5F5F5" d="M51.044,18.807c-0.72-0.028-1.688-0.748-1.868-1.102C50.803,15.204,51.591,17.579,51.044,18.807z"/>
<path fill="#45332C" d="M49.198,17.745c0.718,0.845,2.667-1.497,0.929-1.077C49.878,16.812,49.053,17.574,49.198,17.745z"/>
<path fill="#423225" d="M51.044,18.807c0.679-0.927,0.112-2.922-0.917-2.139C50.861,16.47,51.355,17.807,51.044,18.807z"/>
<path fill="#F5F5F5" d="M50.313,16.951c-0.21,0.175,0.045,0.475,0.254,0.3C50.76,17.087,50.507,16.787,50.313,16.951z"/>
<path fill="#36281D" d="M52.584,17.699c-0.063-0.955-0.998-2.101-1.66-2.262c-0.137-0.044-0.5,0.366-0.396,0.407
	c0.822,0.313,1.631,1.25,1.737,2.101C52.279,18.056,52.598,17.84,52.584,17.699z"/>
<path fill="#36281D" d="M46.111,19.004c0.054,0.415-0.41,0.444-0.41,0.444c-0.109-0.13-0.587,0.22-0.424,0.411
	c0.813,0.956,1.751,0.788,2.323,0.749C46.765,19.51,46.404,18.012,46.111,19.004z"/>
<path fill="#FFFFFF" d="M46.111,19.004c0,0-0.392,0.346-0.41,0.444c0.177,0.21,1.007,0.844,1.656,1.019L46.111,19.004z"/>
<path fill="#38332D" d="M60.609,21.607c0.611-1.583,0.248-3.509-1.691-5.792c-1.785-2.103-3.568-2.779-3.764-3.555
	c0,0-0.448,0.185-0.63,0.575c-0.262-0.28-0.215-0.616-0.218-0.614c-0.504,0.076-1.666,0.455-2.292,1.8
	c4.079,2.271,3.066,3.459,2.773,5.011c-0.07,0.358-1.505,0.628-1.747,2.328c2.338-1.651,4.297,1.064,2.16,2.358
	c-1.369,0.829-2.334,0.722-2.859,0.662c0.26,0.609-0.16,1.264-0.16,1.264C54.198,28.017,60.727,24.032,60.609,21.607z"/>
<path fill="#423225" d="M47.772,18.442c-0.384,0.151-0.844-0.203-1.063-0.461c-0.296-0.348-0.408-0.824-0.29-1.185
	C46.832,16.676,46.729,18.054,47.772,18.442z"/>
<path fill="#423225" d="M34.541,29.101c-1.252-0.689-5.465,3.814-9.74,6.771c-0.258,0.178,0.95,2.524,1.22,2.366
	c3.447-1.994,5.087-1.31,6.94-3.362c0.281,0.594,1.035,1.26,1.414,2.133c0.264,0.602,4.73-3.398,4.219-3.896
	C35.863,30.454,35.641,29.706,34.541,29.101z"/>
<path fill="#423225" d="M43.102,20.377c-0.789-1.853-2.887-4.721-3.855-6.533c-0.528-0.988-3.683-2.555-4.527-2.518
	c-0.677,0.031-3.76,1.584-3.334,2.229c2.035-0.98,2.359-0.76,2.692-0.633c0.854,0.326,1.49,1.158-0.851,1.654
	c-0.406,0.088-0.5,0.607,0.412,0.461c1.46-0.234,1.396-0.557,2.431-0.703c0.7-0.098,1.144,0.396,1.396,0.917
	c1.156,2.382,1.109,4.996,2.453,7.022c2.116,3.193,1.684,4.969,3.957,6.308c0.481,0.281,3.529-1.201,3.408-1.685
	C46.745,24.746,43.887,22.211,43.102,20.377z"/>
<path fill="#302C3B" d="M25.141,35.636c-0.818-0.656-1.797-4.107-2.738-3.771c-1.26,3.311,0,3.35,1.164,6.895
	c0.172,0.525,2.243,0.749,2.454-0.521L25.141,35.636z"/>
<path fill="#529320" d="M40.016,34.155c-0.229-0.77-1.77-1.891-1.77-1.891s-2.568,2.922-4.225,4.406c0,0,0.871,1.127,0.887,2.406
	C34.936,41.257,40.646,36.292,40.016,34.155z"/>
<path fill="#594640" d="M39.255,37.282L25.916,2h1.537l13.42,35.534C40.83,37.659,38.639,39.2,39.255,37.282z"/>
<path fill="#614A36" d="M39.734,24.826c-3.871-0.707-5.035-0.473-6.627-0.686c-1.088-1.213-4.908-1.547-6.154-3.465
	c-0.77-2.084-3.338-2.385-3.611-2.42c-0.613-0.08-2.539,0.164-2.592,0.641c-0.068,0.617,2.084,0.629,2.631,1.084
	c0.492,0.413,0.675,1.29,1.531,1.854c0.938,0.617,6.49,6.057,7.213,6.438c0.8,0.424,2.436,0.42,6.105,0.961
	C38.941,29.339,40.439,24.955,39.734,24.826z"/>
<path fill="#614A36" d="M17.764,55.269c2.432-4.41,2.986-7.797,4.76-9.537c1.273-1.248,4.027-2.992,5.857-4.449
	c0.598-0.475,4.447,4.035,3.842,4.502c-1.383,1.068-4.672,2.111-6.307,2.898c-1.158,3-3.349,3.312-4.937,5.903
	C20.804,54.873,17.594,55.577,17.764,55.269z"/>
<path fill="#302C3B" d="M17.764,55.269c-0.98,0.848-4.555,2.23-4.092,3.164c3.588,0.908,3.617-0.066,7.475-1.326
	c0.549-0.18,0.661-1.499-0.167-2.521L17.764,55.269z"/>
<path fill="#7AB51D" d="M39.439,24.602l-1.771,4.69c1.422,0.066,2.896,0.969,2.896,0.969s-1.469,4.092-2.219,5.113
	c-1.625,2.219-7.227,3.172-10.318,5.861c-0.109,0.943,3.695,5.08,3.695,5.08c1.963-1.061,5.754-1.459,8.215-1.627
	c6.381-0.438,3.994-6.83,10.332-16.422c0.664-1.007-3.397-3.25-4.56-3.34C44.03,24.796,39.439,24.602,39.439,24.602z"/>
<path fill="#302C3B" d="M57.27,23.9c0,0-0.132-1.043-0.355-0.931c-0.933,0.465-3.493,0.74-3.493,0.74s0.291-3.045,2.401-5.124
	c0.181-0.177-0.59-0.632-0.834-0.569c-1.481,0.378-2.768,5.751-2.768,5.751s-4.292,0.289-5.847-0.229
	C48.823,26.453,57.27,23.9,57.27,23.9z"/>
<path fill="#E81C27" d="M61.219,16.154c-1.812-3.654-6.184-5.188-9.766-3.425c-0.987,0.485,2.233,3.814,3.546,6.463
	c1.195,2.414,1.793,7.365,3.008,6.767C61.589,24.199,63.028,19.809,61.219,16.154z"/>
<path fill="#302C3B" d="M39.162,33.988c0,0,3.382,5.072,5.879,6.458c-0.037,1.063-0.646,1.494-0.646,1.494L43.058,41.1l-3.098,2.692
	c0,0,0.33,0.43,0.9,0.808c-0.747,0.456-1.512,0.293-1.512,0.293s-3.581-2.239-4.731-6.8c0.553-0.751,1.442-0.805,1.442-0.805
	c0.735,3.058,2.734,5.43,2.734,5.43l2.981-2.845c0,0-2.197-2.487-3.273-4.657C38.753,34.327,39.162,33.988,39.162,33.988z"/>
</svg>
