<?xml version="1.0" encoding="utf-8"?>
<!-- Generator: Adobe Illustrator 15.0.0, SVG Export Plug-In . SVG Version: 6.00 Build 0)  -->
<!DOCTYPE svg PUBLIC "-//W3C//DTD SVG 1.1//EN" "http://www.w3.org/Graphics/SVG/1.1/DTD/svg11.dtd" [
	<!ENTITY ns_flows "http://ns.adobe.com/Flows/1.0/">
	<!ENTITY ns_extend "http://ns.adobe.com/Extensibility/1.0/">
	<!ENTITY ns_ai "http://ns.adobe.com/AdobeIllustrator/10.0/">
	<!ENTITY ns_graphs "http://ns.adobe.com/Graphs/1.0/">
]>
<svg version="1.1" id="Layer_1" xmlns:x="&ns_extend;" xmlns:i="&ns_ai;" xmlns:graph="&ns_graphs;"
	 xmlns="http://www.w3.org/2000/svg" xmlns:xlink="http://www.w3.org/1999/xlink" xmlns:a="http://ns.adobe.com/AdobeSVGViewerExtensions/3.0/"
	 x="0px" y="0px" width="64px" height="64px" viewBox="0 0 64 64" enable-background="new 0 0 64 64" xml:space="preserve">
<path fill="#F9B700" d="M49.567,53.634c0,0.576,3.051,0.576,3.051,0C52.618,51.298,49.567,51.298,49.567,53.634z"/>
<path fill="#F59E01" d="M46.776,55.403c0,0.715,8.633,0.715,8.633,0C55.409,52.509,46.776,52.509,46.776,55.403z"/>
<path fill="#F59E01" d="M46.776,61.464c0,0.715,8.633,0.715,8.633,0C55.409,58.57,46.776,58.57,46.776,61.464z"/>
<path fill="#F59E01" d="M58.019,58.749c7.49,3.769,3.059-7.945-2.23-2.876C51.3,58.022,56.632,62.745,58.019,58.749z M56.308,56.528
	c3.063-2.933,6.52,2.455,2.711,1.926c1.23-1.854-2.215-2.368-1.773-0.688c-0.953-0.583-2.105,0.658-1.016,1.445
	C54.944,59.007,54.62,57.337,56.308,56.528z"/>
<path fill="#F9B700" d="M56.97,55.685c-5.346-2.747-8.012,0.461-16.77-2.451c-0.768,0.431-2.227,0.506-1.18,1.748
	C47.222,53.909,49.212,66.06,56.97,55.685z"/>
<path fill="#AB5C10" d="M40.347,53.522c-0.098-0.192-1.516,0.531-1.418,0.723C39.323,55.022,40.743,54.3,40.347,53.522z"/>
<path fill="#0FB4D4" d="M36.212,35.595c-2.148,8.856-8.318,10.971-10.66,5.188c-2.859-0.82-12.17-0.822-15.037,0
	C4.757,54.463,26.442,64.82,36.087,41.896c8.063-19.156,22.898-8.189,5.895,2.104c-9.945,6.021-6.08,8.956-1.818,10.307
	c-4.088-3.481-1.293-5.332,3.777-7.601C77.142,31.839,40.952,16.052,36.212,35.595z"/>
<path fill="#0FB4D4" d="M24.95,38.649c0,2.666-13.836,2.666-13.836,0c0,0-0.117-4.637-2-7.722H26.95
	C25.065,34.013,24.95,38.649,24.95,38.649z"/>
<path fill="#F9B700" d="M25.552,40.782c0,2.667-7.52,4.408-7.52,4.408s-7.518-1.741-7.518-4.408c0.734-2.154,0.6-2.133,0.6-2.133
	c4.031,1.859,9.807,1.859,13.836,0C24.95,38.649,24.843,39.19,25.552,40.782z"/>
<path fill="#0FB4D4" d="M26.667,32.562c1.654-3.795,4.326-8.1,2.871-10.678c-4.01-7.097-19.006-7.097-23.016,0
	c-1.455,2.578,1.217,6.883,2.871,10.678H26.667z"/>
<path fill="#0FB4D4" d="M11.755,19.631c-2.662-3.04-8.287-0.059-7.578,3.06c-4.77,6.348-0.24,8.695-0.063,10.623
	c7.08-0.228,8.846-5.727,6.635-9.012C12.366,23.195,13.222,21.309,11.755,19.631z"/>
<path fill="#00859E" d="M7.433,24.412c-1.746-0.479-3.352-2.131-2.473-4.29c-0.654,0.743-0.992,1.65-0.783,2.568
	c-4.77,6.348-0.24,8.695-0.063,10.623c2.684-2.509-3.068-5.557,0.877-9.701C6.026,24.46,7.433,24.412,7.433,24.412z"/>
<path fill="#00859E" d="M12.274,22.553c-1.088,1.505-2.135,1.91-3.027,2.011c0,0,0.355,0.056,0.605,0.016
	c1.982,1.658,1.373,4.4,0.807,5.778c1.318-1.884,1.279-4.289,0.09-6.056C11.433,23.833,11.981,23.225,12.274,22.553z"/>
<path fill="#0FB4D4" d="M24.308,19.631c2.662-3.04,8.287-0.059,7.578,3.06c4.77,6.348,0.24,8.695,0.063,10.623
	c-7.08-0.228-8.846-5.727-6.635-9.012C23.696,23.195,22.841,21.309,24.308,19.631z"/>
<path fill="#00859E" d="M28.628,24.412c1.748-0.479,3.354-2.131,2.473-4.29c0.652,0.743,0.994,1.65,0.785,2.568
	c4.77,6.348,0.24,8.695,0.063,10.623c-2.684-2.509,3.066-5.557-0.877-9.701C30.034,24.46,28.628,24.412,28.628,24.412z"/>
<path fill="#00859E" d="M23.786,22.553c1.088,1.505,2.135,1.91,3.027,2.011c0,0-0.355,0.056-0.604,0.016
	c-0.85,0.712-1.225,1.621-1.328,2.538c2.49,0.39,9.748,5.38-0.275,1.296c-7.65,1.798-4.256-1.237-0.184-1.351
	c0.033-0.98,0.338-1.939,0.891-2.761C24.628,23.833,24.081,23.225,23.786,22.553z"/>
<path fill="#0FB4D4" d="M21.177,32.69c-1.105,0.912-9.75,4.012-14.967,1.314C0.222,33.961,8.267,23.695,21.177,32.69z"/>
<path fill="#00859E" d="M21.177,32.69c-1.105,0.912-9.707,5.143-15.367,1.502c-3.021-0.02-2.367-2.692,0.68-4.18
	c-5.873,5.075,26.416,5.727,4.443-0.973C13.749,29.022,17.257,29.96,21.177,32.69z"/>
<path fill="#0FB4D4" d="M10.134,29.103c7.084,0.266,12.754,9.219,20.016,5.367c5.35-0.764-2.188-8.934-9.35-6.52
	C14.212,28.42,14.323,27.019,10.134,29.103z"/>
<path fill="#00859E" d="M10.134,29.103c8.189,1.588,12.717,9.429,20.24,5.589c2.141-0.255,2.904-2.618-0.42-4.853
	c3.588,5.375-6.027,5.216-8.777,2.693c-1.164-1.064,5.254-0.635,6.879-1.413C19.185,32.073,16.233,28.755,10.134,29.103z"/>
<path fill="#D47706" d="M13.349,27.946c-0.703,0.229-1.041,1.557-0.402,2.032c0.639,0.474,4.381,2.552,4.83,2.383
	c-0.666-0.922,0.512-4.085,2.139-4.244C19.589,27.534,15.729,27.177,13.349,27.946z"/>
<path fill="#F9B700" d="M17.978,29.979c0.254-0.57,0.613-1.106,1.045-1.456c-2.76-0.796-6.203-0.032-6.236-0.032
	c-0.152,0.298-0.213,0.661-0.15,0.972C14.312,29.48,16.267,29.523,17.978,29.979z"/>
<path fill="#0099B5" d="M11.476,9.188c-2.191-0.434-0.48,6.289,1.236,4.435C13.505,12.764,12.501,9.392,11.476,9.188z"/>
<path fill="#0099B5" d="M24.587,9.188c-1.027,0.203-2.035,3.575-1.238,4.435C25.065,15.478,26.776,8.755,24.587,9.188z"/>
<path fill="#0FB4D4" d="M18.03,2c-4.533,0-6.717,3.429-6.443,8.197c0.057,0.96,0.652,4.088,1.213,5.211
	c0.572,1.148,2.496,2.918,3.674,3.285c0.742,0.231,2.371,0.231,3.115,0c1.176-0.367,3.1-2.137,3.674-3.285
	c0.563-1.123,1.154-4.251,1.211-5.211C24.747,5.429,22.563,2,18.03,2z"/>
<path fill="#00859E" d="M18.03,14.98c-1.02-0.3-2.529,0.142-2.529,0.142c0.574,0.627,0.996,1.439,2.529,1.439
	c1.758,0,2.055-0.922,2.529-1.439C20.56,15.122,19.05,14.68,18.03,14.98z"/>
<path fill="#FFFFFF" d="M15.888,15.229c1.068,0.897,3.225,0.902,4.301,0C19.05,15.277,17.034,15.278,15.888,15.229z"/>
<path fill="#F5F5F5" d="M22.884,10.565c-0.605,1.586-3.07,1.354-3.521,0.244C19.704,9.027,22.552,8.875,22.884,10.565z"/>
<path fill="#302C3B" d="M19.991,10.398c0,1.391,2.012,1.391,2.012,0C22.003,9.105,19.991,9.105,19.991,10.398z"/>
<path fill="#005A80" d="M22.884,10.555c0-1.702-3.521-1.702-3.521,0.27C19.866,9.206,22.38,9.206,22.884,10.555z"/>
<path fill="#F5F5F5" d="M20.114,10.06c0,0.348,0.504,0.348,0.504,0C20.618,9.736,20.114,9.736,20.114,10.06z"/>
<path fill="#F5F5F5" d="M13.177,10.565c0.605,1.586,3.072,1.354,3.521,0.244C16.354,9.026,13.511,8.874,13.177,10.565z"/>
<path fill="#302C3B" d="M16.071,10.397c0,1.392-2.012,1.392-2.012,0C14.06,9.105,16.071,9.105,16.071,10.397z"/>
<path fill="#005A80" d="M13.177,10.555c0-1.702,3.521-1.702,3.521,0.27C16.194,9.205,13.681,9.205,13.177,10.555z"/>
<path fill="#F5F5F5" d="M14.749,9.988c0,0.349-0.504,0.349-0.504,0C14.245,9.665,14.749,9.665,14.749,9.988z"/>
<path fill="#014D87" d="M23.136,8.762c-1.039-0.642-3.021-0.672-3.76-0.226c-0.158,0.086-0.055,0.693,0.08,0.635
	c1.029-0.475,2.691-0.486,3.654,0.042C23.237,9.28,23.294,8.851,23.136,8.762z"/>
<path fill="#014D87" d="M12.927,8.762c1.037-0.642,3.02-0.672,3.758-0.226c0.158,0.086,0.055,0.693-0.076,0.635
	c-1.031-0.475-2.693-0.486-3.658,0.042C12.823,9.28,12.772,8.851,12.927,8.762z"/>
<path fill="#00859E" d="M19.437,13.295c0,0.915-2.813,0.915-2.813,0C16.624,13.085,19.437,13.085,19.437,13.295z"/>
<path fill="#014D87" d="M18.854,17.507c-0.479-0.153-0.822-0.701-0.822-0.701s-0.344,0.548-0.822,0.701
	c-2.322,0.742-4.307-1.912-4.307-1.912c1.391,2.955,5.129,5.179,5.129,5.179s3.717-2.181,5.125-5.175
	C23.157,15.599,21.177,18.249,18.854,17.507z"/>
<path fill="#D47706" d="M12.831,39.292c-0.598-0.182-1.176-0.393-1.717-0.643c0,0,0.135-0.021-0.6,2.133
	c0,0.874,0.813,1.646,1.898,2.293C12.673,41.812,12.806,40.546,12.831,39.292z"/>
<path fill="#D47706" d="M24.95,38.649c-0.543,0.25-1.119,0.46-1.715,0.643c0.023,1.254,0.158,2.52,0.416,3.783
	c1.088-0.646,1.9-1.419,1.9-2.293C24.843,39.19,24.95,38.649,24.95,38.649z"/>
</svg>
