<?xml version="1.0" encoding="utf-8"?>
<!-- Generator: Adobe Illustrator 15.0.0, SVG Export Plug-In . SVG Version: 6.00 Build 0)  -->
<!DOCTYPE svg PUBLIC "-//W3C//DTD SVG 1.1//EN" "http://www.w3.org/Graphics/SVG/1.1/DTD/svg11.dtd" [
	<!ENTITY ns_flows "http://ns.adobe.com/Flows/1.0/">
	<!ENTITY ns_extend "http://ns.adobe.com/Extensibility/1.0/">
	<!ENTITY ns_ai "http://ns.adobe.com/AdobeIllustrator/10.0/">
	<!ENTITY ns_graphs "http://ns.adobe.com/Graphs/1.0/">
]>
<svg version="1.1" id="Layer_1" xmlns:x="&ns_extend;" xmlns:i="&ns_ai;" xmlns:graph="&ns_graphs;"
	 xmlns="http://www.w3.org/2000/svg" xmlns:xlink="http://www.w3.org/1999/xlink" xmlns:a="http://ns.adobe.com/AdobeSVGViewerExtensions/3.0/"
	 x="0px" y="0px" width="64px" height="64px" viewBox="0 0 64 64" enable-background="new 0 0 64 64" xml:space="preserve">
<path fill="#1A1626" d="M62,19.244c-8.075,10.42-20.783,10.482-30,10.475c-9.217,0.008-21.925-0.055-30-10.475
	C2,38.41,15.278,43.775,8.485,55.402c-2.146,3.676,49.176,3.676,47.029,0C48.724,43.775,62,38.41,62,19.244z"/>
<path fill="#E81C27" d="M32,29.719c-9.217,0.008-19.985-0.6-28-8.193c0,11.357,20.279,24.602,13.486,36.23
	c-2.147,3.676,31.175,3.676,29.027,0c-6.793-11.629,13.487-24.873,13.487-36.23C51.985,29.119,41.217,29.727,32,29.719z"/>
<path fill="#302C3B" d="M45.146,54.348c-0.358-5.432,3.639-12.105,7.578-17.697c0.551-3.604,0.719-7.111,0.777-10.008v-3.055
	C54.216,11.603,45.688,2,31.943,2C18.072,2,9.784,11.603,10.499,23.588v3.055c0.029,2.854,0.174,6.322,0.701,9.898
	c3.98,5.652,8.048,12.391,7.646,17.879C21.937,57.213,42.043,57.182,45.146,54.348z"/>
<path fill="#1A1626" d="M45.146,54.348c5.946-6.72,5.396-35.732,5.396-35.732h-2c0,0-15.203,4.804-33,0h-2
	c0,0-0.968,29.365,5.304,35.805C23.434,59.131,40.788,59.271,45.146,54.348z"/>
<path fill="#1A1626" d="M11.434,50.848c6.534-4.299,34.667-4.334,41.191-0.004C56.24,53.236,57,62,57,62H7
	C7,62,7.809,53.229,11.434,50.848"/>
<path fill="#FFCC66" d="M38.999,47.488v-9.709h-7H25v9.709l-8.438,1.564l2.218,6.436c0,0,3.109,4.959,13.219,6.508v0.002
	c0,0,0.001,0,0.002-0.002c0,0.002,0,0.002,0,0.002l0.001-0.002c10.11-1.549,13.219-6.508,13.219-6.508l2.219-6.436L38.999,47.488z"
	/>
<path fill="#E6B045" d="M34.269,54.43c-1.277,0.75-2.27,2.459-2.27,2.459s-0.992-1.709-2.268-2.459
	c2.266,3.84,1.719,5.568,1.719,5.568h1.098C32.548,59.998,31.997,58.031,34.269,54.43z"/>
<path fill="#E81C27" d="M32.001,61.996c4.057-0.621,6.987-1.793,9.041-2.971H32h-0.001h-9.042c2.055,1.178,4.984,2.35,9.041,2.971
	v0.002C31.998,61.998,31.999,61.998,32.001,61.996C32,61.998,32,61.998,32,61.998L32.001,61.996z"/>
<path fill="#302C3B" d="M42.991,62c0,0,5.635-7.818,7.965-16.525l-9.004,1.246c0,0,0.131,5.955-3.076,15.279H42.991z"/>
<path fill="#302C3B" d="M21.005,62c0,0-5.633-7.818-7.961-16.525l9,1.246c0,0-0.131,5.955,3.078,15.279H21.005z"/>
<path fill="#E6B045" d="M24.286,43.686c7.051,7.257,8.467,7.253,15.514-0.004L24.286,43.686z"/>
<path fill="#FFCC66" d="M32.042,19.068c-10.528,0.008-16.5-0.451-16.5-0.453c-0.021,3.951,0.773,11.689,1.354,14.545
	c1.665,8.129,11.397,14.455,15.146,14.455s13.481-6.326,15.146-14.455c0.592-2.855,1.375-10.594,1.354-14.545
	C48.542,18.617,42.569,19.076,32.042,19.068z"/>
<path fill="#AB1C27" d="M32.001,38.152c-2.446-0.285-4.966-0.33-7.5-0.096c5.479,3.803,9.521,3.803,15,0
	C36.967,37.822,34.462,37.867,32.001,38.152z"/>
<polygon fill="#FFFFFF" points="26.93,38.072 27.869,41.387 28.869,38.156 "/>
<polygon fill="#FFFFFF" points="37.068,38.072 36.129,41.387 35.129,38.156 "/>
<path fill="#820505" d="M34.989,37.207c-2.212-0.791-3.003,0.264-2.988,0.25c0.015,0.014-0.776-1.041-2.988-0.25
	c-1.699,0.594-4.512,0.82-4.512,0.85c3.076-0.043,3.53,0.77,7.5,0.66c3.97,0.109,4.424-0.703,7.5-0.66
	C39.501,38.027,36.688,37.801,34.989,37.207z"/>
<path fill="#594640" d="M44.836,21.61c-2.616-1.56-7.308-1.75-9.165-0.688c-0.394,0.214-0.287,1.341,0.053,1.2
	c2.648-1.104,6.682-1.158,9.168,0.117C45.225,22.409,45.231,21.837,44.836,21.61z"/>
<path fill="#594640" d="M19.248,21.61c2.615-1.56,7.307-1.75,9.166-0.688c0.394,0.214,0.289,1.341-0.054,1.2
	c-2.648-1.104-6.68-1.159-9.167,0.117C18.859,22.409,18.853,21.837,19.248,21.61z"/>
<path fill="#E6B045" d="M35.642,33.346c0,2.342-7.2,2.342-7.2,0C28.441,32.809,35.642,32.809,35.642,33.346z"/>
<path fill="#FFFFFF" d="M44.583,26.357c-1.552,4.06-7.861,3.465-9.017,0.623C36.442,22.415,43.729,22.024,44.583,26.357z"/>
<path fill="#613F34" d="M37.147,25.916c0,3.596,5.2,3.596,5.2,0C42.348,22.578,37.147,22.578,37.147,25.916z"/>
<path fill="#B00505" d="M37.661,27.066c0,2.063,4.172,2.063,4.172,0C41.833,25.152,37.661,25.152,37.661,27.066z"/>
<path fill="#1A1626" d="M38.668,25.973c0,1.492,2.159,1.492,2.159,0C40.827,24.588,38.668,24.588,38.668,25.973z"/>
<path fill="#AB968C" d="M37.931,25.537c0,0.754,1.09,0.754,1.09,0C39.021,24.837,37.931,24.837,37.931,25.537z"/>
<path fill="#45332C" d="M44.583,26.326c0-4.361-9.017-4.361-9.017,0.691C36.853,22.871,43.296,22.871,44.583,26.326z"/>
<path fill="#FFFFFF" d="M19.501,26.357c1.552,4.06,7.862,3.466,9.019,0.623C27.644,22.415,20.355,22.024,19.501,26.357z"/>
<path fill="#613F34" d="M21.736,25.922c0,3.596,5.2,3.596,5.2,0C26.937,22.584,21.736,22.584,21.736,25.922z"/>
<path fill="#B00505" d="M22.25,27.072c0,2.062,4.172,2.062,4.172,0C26.422,25.158,22.25,25.158,22.25,27.072z"/>
<path fill="#1A1626" d="M23.257,25.979c0,1.492,2.159,1.492,2.159,0C25.416,24.593,23.257,24.593,23.257,25.979z"/>
<path fill="#AB968C" d="M22.52,25.542c0,0.755,1.09,0.755,1.09,0C23.609,24.842,22.52,24.842,22.52,25.542z"/>
<path fill="#45332C" d="M19.501,26.326c0-4.361,9.019-4.361,9.019,0.689C27.232,22.87,20.789,22.87,19.501,26.326z"/>
</svg>
