<?xml version="1.0" encoding="utf-8"?>
<!-- Generator: Adobe Illustrator 19.0.0, SVG Export Plug-In . SVG Version: 6.00 Build 0)  -->
<svg version="1.1" id="Layer_1" xmlns="http://www.w3.org/2000/svg" xmlns:xlink="http://www.w3.org/1999/xlink" x="0px" y="0px"
	 width="64px" height="64px" viewBox="0 0 64 64" enable-background="new 0 0 64 64" xml:space="preserve">
<path fill="#875B49" d="M12.619,27.521c8.063,11.81-3.143,16.636-2.498,24.627C4.218,45.019,6.88,31.13,12.619,27.521z"/>
<path fill="#875B49" d="M17.449,35.356c4.521,7.629-4.33,12.036-3.683,20.027C7.494,48.838,11.019,36.803,17.449,35.356z"/>
<path fill="#875B49" d="M19.398,42.969c5.576,4.292-2.447,8.72-0.617,13.912C11.648,53.607,13.308,45.023,19.398,42.969z"/>
<path fill="#875B49" d="M51.38,27.521c-8.065,11.81,3.143,16.636,2.498,24.627C59.781,45.019,57.119,31.13,51.38,27.521z"/>
<path fill="#875B49" d="M46.55,35.356c-4.521,7.629,4.33,12.036,3.684,20.027C56.505,48.838,52.98,36.803,46.55,35.356z"/>
<path fill="#875B49" d="M44.601,42.969c-5.576,4.292,2.447,8.72,0.617,13.912C52.351,53.607,50.691,45.023,44.601,42.969z"/>
<path fill="#946346" d="M12.019,43.043c2.701-2.516,0.25-12.377-3.233-12.971C1.345,28.804,6.193,48.465,12.019,43.043z"/>
<path fill="#946346" d="M51.982,43.043c-2.701-2.516-0.25-12.377,3.232-12.971C62.654,28.804,57.808,48.463,51.982,43.043z"/>
<path fill="#B88A6F" d="M31.999,2C15.874,2,8.107,15.131,9.08,32.015c0.197,3.394,1.143,8.29,2.307,12.485
	c2.42,8.72,15.18,17.5,20.613,17.5c5.432,0,18.193-8.78,20.611-17.5c1.166-4.195,2.109-9.091,2.311-12.485
	C55.888,15.131,48.124,2,31.999,2z"/>
<path fill="#FFFFFF" d="M49.417,32.475c-2.154,5.638-10.918,4.811-12.523,0.866C38.113,27,48.232,26.458,49.417,32.475z"/>
<path fill="#FFFFFF" d="M14.582,32.475c2.156,5.638,10.922,4.813,12.527,0.866C25.89,27,15.769,26.458,14.582,32.475z"/>
<path fill="#80553C" d="M49.769,25.882c-3.633-2.165-10.15-2.431-12.729-0.955c-0.547,0.297-0.4,1.862,0.072,1.667
	c3.678-1.532,9.281-1.608,12.734,0.163C50.31,26.991,50.32,26.197,49.769,25.882z"/>
<path fill="#80553C" d="M14.23,25.882c3.633-2.165,10.148-2.431,12.731-0.955c0.547,0.297,0.402,1.862-0.074,1.667
	c-3.678-1.532-9.277-1.61-12.73,0.163C13.691,26.991,13.681,26.197,14.23,25.882z"/>
<path fill="#946346" d="M36.999,42.18c0,3.253-10,3.253-10,0C26.999,41.434,36.999,41.434,36.999,42.18z"/>
<path fill="#613F34" d="M39.091,31.862c0,4.994,7.223,4.994,7.223,0C46.314,27.227,39.091,27.227,39.091,31.862z"/>
<path fill="#7D5037" d="M39.804,33.46c0,2.864,5.795,2.864,5.795,0C45.599,30.802,39.804,30.802,39.804,33.46z"/>
<path fill="#1A1626" d="M41.203,31.941c0,2.072,2.998,2.072,2.998,0C44.201,30.017,41.203,30.017,41.203,31.941z"/>
<path fill="#AB968C" d="M40.177,31.335c0,1.047,1.516,1.047,1.516,0C41.693,30.363,40.177,30.363,40.177,31.335z"/>
<path fill="#613F34" d="M17.687,31.87c0,4.994,7.223,4.994,7.223,0C24.91,27.234,17.687,27.234,17.687,31.87z"/>
<path fill="#7D5037" d="M18.4,33.467c0,2.864,5.795,2.864,5.795,0C24.195,30.81,18.4,30.81,18.4,33.467z"/>
<path fill="#1A1626" d="M19.798,31.948c0,2.073,3,2.073,3,0C22.798,30.024,19.798,30.024,19.798,31.948z"/>
<path fill="#AB968C" d="M18.775,31.342c0,1.048,1.514,1.048,1.514,0C20.289,30.371,18.775,30.371,18.775,31.342z"/>
<path fill="#45332C" d="M49.417,32.432c0-6.057-12.523-6.057-12.523,0.959C38.681,27.634,47.63,27.634,49.417,32.432z"/>
<path fill="#45332C" d="M14.582,32.432c0-6.057,12.527-6.057,12.527,0.957C25.32,27.631,16.371,27.631,14.582,32.432z"/>
<path fill="#875B49" d="M6.507,34.615c-2.865-7.13-2.197-19.645,6.869-25.291C13.8,16.367,9.119,26.994,6.507,34.615z"/>
<path fill="#6B4435" d="M6.507,34.615c-2.186-7.513,5.055-15.515,6.869-25.291C13.8,16.367,9.119,26.994,6.507,34.615z"/>
<path fill="#875B49" d="M6.351,36.649c3.256-10.727-1.508-21.287,7.025-27.324C13.876,16.224,19.019,22.25,6.351,36.649z"/>
<path fill="#6B4435" d="M6.351,36.649c10.559-16.77,1.732-20.764,7.025-27.322C13.876,16.224,19.019,22.25,6.351,36.649z"/>
<path fill="#875B49" d="M13.376,9.326c27.422,13.76,37.738,10.596,44.537,26.641C65.527,7.277,31.244-8.023,13.376,9.326z"/>
<path fill="#6B4435" d="M13.376,9.326c27.422,13.76,35.756,11.065,44.537,26.641C58.632,21.658,31.439,10.418,13.376,9.326z"/>
<path fill="#875B49" d="M13.628,9.326c-7.176,9.555,21.969,15.084,32.846,15.33C37.468,16.602,29.49,7.668,13.628,9.326z"/>
<path fill="#6B4435" d="M46.474,24.654C34.8,20.965,10.691,18.397,13.628,9.324C6.453,18.881,34.8,24.654,46.474,24.654z"/>
<path fill="#875B49" d="M28.378,24.654c-6.936-4.707-6.598-14.996-15.002-15.33C3.958,19.231,19.892,24.41,28.378,24.654z"/>
<path fill="#6B4435" d="M28.378,24.654c-9.551-4.64-21.066-5.895-15.002-15.33C3.958,19.231,19.304,24.897,28.378,24.654z"/>
<path fill="#80553C" d="M31.999,48.175c-3.627-1.067-9,0.505-9,0.505c2.047,2.229,3.547,5.121,9,5.121c6.248,0,7.311-3.283,9-5.121
	C40.999,48.681,35.623,47.103,31.999,48.175z"/>
<path fill="#FFFFFF" d="M24.373,49.058c3.801,3.191,11.48,3.21,15.301,0C35.623,49.232,28.453,49.233,24.373,49.058z"/>
</svg>
