<?xml version="1.0" encoding="utf-8"?>
<!-- Generator: Adobe Illustrator 19.0.0, SVG Export Plug-In . SVG Version: 6.00 Build 0)  -->
<svg version="1.1" id="Layer_1" xmlns="http://www.w3.org/2000/svg" xmlns:xlink="http://www.w3.org/1999/xlink" x="0px" y="0px"
	 width="64px" height="64px" viewBox="0 0 64 64" enable-background="new 0 0 64 64" xml:space="preserve">
<path fill="#302C3B" d="M38.844,45.043H25.155c-1.764,3.014-9.683-1.21-14.404-0.106c0,0,17.037,11.998,21.498,12.026
	c4.462-0.028,20.999-12.026,20.999-12.026C48.526,43.832,40.607,48.057,38.844,45.043z"/>
<path fill="#F7C259" d="M32.595,54.342c0.807,0.241,1.605,0.393,2.4,0.401c1.393-0.473,2.991,0.856,4.47,1.15
	c1.666,0.331,4.248-0.649,5.559,0.267c1.691-0.476,2.319,1.342,1.166,1.738c0.299,0.531-0.125,0.956-0.386,1.024
	c0.209,0.458-0.198,0.94-0.427,0.949c0.118,0.346-0.171,0.726-0.519,0.797c-0.333,2.091-7.199-0.931-9.019-1.321
	c-0.793-0.171-1.381-0.855-2.362-1.289L32.033,58C32.292,56.795,32.44,55.539,32.595,54.342z"/>
<path fill="#E6B045" d="M44.883,57.718c0.449,0.406,1.561,0.577,1.77-0.163C46.291,57.76,46.045,57.769,44.883,57.718z"/>
<path fill="#E6B045" d="M44.71,59.047c0,0,1.316,0.295,1.55-0.587C45.9,58.903,44.71,59.047,44.71,59.047z"/>
<path fill="#E6B045" d="M44.481,60.081c0,0,1.052,0.232,1.307-0.582C45.429,59.941,44.481,60.081,44.481,60.081z"/>
<path fill="#E6B045" d="M44.054,60.78c0,0,1.06,0.281,1.271-0.458C44.965,60.763,44.054,60.78,44.054,60.78z"/>
<path fill="#4E5E67" d="M10.768,44.862c6.319-1.25,12.377,6.318,22.544,9.674c-0.518,2.396-0.791,3.827-0.791,3.827
	c-12.787-0.553-19.326-4.273-22.724-6.499C6.943,49.996,7.008,45.605,10.768,44.862z"/>
<path fill="#FFCC66" d="M31.405,54.688c-0.807,0.25-1.607,0.407-2.4,0.416c-1.395-0.49-2.993,0.888-4.472,1.192
	c-1.666,0.342-4.246-0.673-5.557,0.276c-1.693-0.493-2.321,1.391-1.166,1.801c-0.299,0.55,0.123,0.99,0.386,1.061
	c-0.209,0.475,0.196,0.974,0.425,0.983c-0.116,0.358,0.173,0.752,0.519,0.826c0.333,2.166,7.201-0.964,9.019-1.369
	c0.795-0.177,1.383-0.886,2.362-1.335l1.446-0.061C31.708,57.23,31.56,55.928,31.405,54.688z"/>
<path fill="#E6B045" d="M19.115,58.186c-0.449,0.42-1.559,0.597-1.77-0.169C17.709,58.229,17.955,58.239,19.115,58.186z"/>
<path fill="#E6B045" d="M19.29,59.562c0,0-1.316,0.306-1.55-0.608C18.1,59.414,19.29,59.562,19.29,59.562z"/>
<path fill="#E6B045" d="M19.517,60.634c0,0-1.052,0.24-1.307-0.604C18.571,60.489,19.517,60.634,19.517,60.634z"/>
<path fill="#E6B045" d="M19.944,61.359c0,0-1.059,0.291-1.268-0.475C19.035,61.341,19.944,61.359,19.944,61.359z"/>
<path fill="#4E5E67" d="M53.232,44.867c-6.319-1.295-12.453,6.416-22.62,9.893c0.518,2.482,0.867,4.095,0.867,4.095
	c12.785-0.572,19.326-4.427,22.724-6.733C57.057,50.185,56.992,45.637,53.232,44.867z"/>
<path fill="#FFCC66" d="M61.332,42.767c-0.127-0.025-1.324,0.031-1.324,0.031s1.131-0.301,1.437-0.393
	c0.83-0.251,0.572-1.044-0.052-1.044c-0.93,0-2.056,0.383-2.056,0.383s0.008-1.152-0.134-1.902c-0.075-0.41-1.204-0.45-1.575-0.691
	c-0.087-0.057-0.175-0.069-0.26-0.063c0.931-0.63,0.355-1.369-0.093-1.199c-1.227,0.468-1.522-0.085-2.108,0.438
	c-0.41,0.367-1.834,2.302-2.221,2.195c-1.869-0.521-4.1-2.435-4.904-3.44c-3.91-4.892-2.274-11.668-8.039-11.363
	c-0.759-0.162-1.941-0.269-4.14-0.325c-0.263-0.517-0.389-1.124-0.441-1.716h-6.844c-0.053,0.592-0.179,1.199-0.441,1.716
	c-2.198,0.056-3.381,0.163-4.14,0.325c-5.765-0.305-4.129,6.471-8.039,11.363c-0.805,1.006-3.035,2.92-4.904,3.44
	c-0.387,0.106-1.811-1.829-2.221-2.195c-0.586-0.522-0.881,0.03-2.108-0.438c-0.448-0.17-1.023,0.568-0.093,1.199
	c-0.085-0.005-0.173,0.007-0.26,0.063c-0.371,0.241-1.5,0.281-1.575,0.691c-0.142,0.75-0.134,1.902-0.134,1.902
	S3.537,41.36,2.607,41.36c-0.624,0-0.882,0.793-0.052,1.044c0.306,0.092,1.436,0.393,1.436,0.393s-1.197-0.057-1.324-0.031
	c-0.837,0.168-0.867,1.065,0.06,1.208c0.215,0.033,0.767-0.043,0.899-0.036c-0.582,0.246-0.688,1.236,0.571,1.203
	c1.7-0.044,3.265,0.234,3.919,0.234c0.496,0,2.952-0.141,3.849-1.369c0.654-0.897,4.346-1.443,6.016-2.658
	c1.215-0.887,4.024-3.12,4.829-6.708c-0.044,2.144,0.858,4.412,0.858,4.412h16.664c0,0,0.901-2.268,0.857-4.412
	c0.806,3.589,3.614,5.822,4.829,6.708c1.67,1.215,5.361,1.761,6.016,2.658c0.896,1.229,3.353,1.369,3.849,1.369
	c0.654,0,2.219-0.278,3.919-0.234c1.259,0.033,1.153-0.957,0.571-1.203c0.132-0.007,0.684,0.068,0.898,0.036
	C62.199,43.832,62.169,42.935,61.332,42.767z M8.309,40.827c-0.564,0.625-0.255,1.416-1.99,0.638
	c-0.229-0.302-0.31-0.73-0.145-1.059c0.856-0.387,0.943-0.885,0.765-1.148c0.292,0.143,0.672,0.275,1.173,0.381
	C8.393,40.048,8.309,40.827,8.309,40.827z M57.682,41.465c-1.735,0.778-1.427-0.014-1.99-0.638c0,0-0.084-0.779,0.198-1.188
	c0.501-0.106,0.881-0.238,1.173-0.381c-0.179,0.263-0.092,0.761,0.765,1.148C57.991,40.735,57.91,41.163,57.682,41.465z"/>
<path fill="#E6B045" d="M8.016,43.681c0.045-0.619,0.924-2.153,2.407-1.973C9.037,42.078,8.361,43.002,8.016,43.681z"/>
<path fill="#E6B045" d="M6.398,42.923c-1.979-0.153-4.993,0.071-4.294-1.304C1.952,42.789,4.829,42.565,6.398,42.923z"/>
<path fill="#E6B045" d="M4.664,41.532l-0.005,0.212c0.867,0.302,1.311,0.231,1.311,0.231S5.475,41.85,4.664,41.532z"/>
<path fill="#E6B045" d="M6.61,44.063c-2.398-0.415-4.901,0.66-4.542-0.855C2.12,44.423,4.305,43.328,6.61,44.063z"/>
<path fill="#E6B045" d="M55.984,43.681c-0.045-0.619-0.924-2.153-2.407-1.973C54.963,42.078,55.639,43.002,55.984,43.681z"/>
<path fill="#E6B045" d="M57.603,42.923c1.979-0.153,4.993,0.071,4.294-1.304C62.048,42.789,59.171,42.565,57.603,42.923z"/>
<path fill="#E6B045" d="M59.336,41.532l0.005,0.212c-0.867,0.302-1.312,0.231-1.312,0.231S58.525,41.85,59.336,41.532z"/>
<path fill="#E6B045" d="M57.39,44.063c2.398-0.415,4.901,0.66,4.542-0.855C61.88,44.423,59.695,43.328,57.39,44.063z"/>
<path fill="#7AB51D" d="M40.476,39.087c0,0-1.96-6.283-0.548-13.37c0.055-0.277-2.936-0.731-3.014-0.346
	c-2.143,10.691-7.688,10.688-9.828,0c-0.078-0.385-3.068,0.069-3.014,0.346c1.412,7.087-0.548,13.37-0.548,13.37
	c0.732,3.616,0.974,6.627,0.974,6.627c3.984,4.37,11.02,4.366,15.002,0C39.5,45.714,39.743,42.703,40.476,39.087z"/>
<path fill="#E6B045" d="M28.379,23.883c3.291,2.502,3.952,2.5,7.242-0.002L28.379,23.883z"/>
<path fill="#E6B045" d="M23.068,11.792c-2.986-0.538-0.653,7.812,1.684,5.51C25.836,16.233,24.465,12.045,23.068,11.792z"/>
<path fill="#E6B045" d="M40.932,11.792c-1.396,0.253-2.768,4.441-1.683,5.51C41.587,19.605,43.917,11.254,40.932,11.792z"/>
<path fill="#FFCC66" d="M32,2c-6.176,0-9.151,4.672-8.778,11.169c0.074,1.308,0.885,5.571,1.649,7.101
	c0.782,1.564,3.402,3.976,5.007,4.476c1.013,0.315,3.23,0.315,4.244,0c1.604-0.5,4.224-2.912,5.007-4.476
	c0.765-1.529,1.575-5.793,1.649-7.101C41.151,6.672,38.177,2,32,2z"/>
<path fill="#E6A400" d="M32,19.687c-1.39-0.409-3.446,0.192-3.446,0.192c0.783,0.854,1.357,1.963,3.446,1.963
	c2.394,0,2.8-1.257,3.447-1.963C35.447,19.879,33.388,19.276,32,19.687z"/>
<path fill="#FFFFFF" d="M29.079,20.025c1.455,1.222,4.397,1.229,5.86,0C33.388,20.09,30.642,20.091,29.079,20.025z"/>
<path fill="#E6B045" d="M33.915,17.39c0,1.247-3.83,1.247-3.83,0C30.085,17.104,33.915,17.104,33.915,17.39z"/>
<path fill="#594640" d="M32,2c-4.249,0-6.815,1.403-7.923,0.865c0,0-0.12,0.724,0.313,1.196c0,0-0.457,0.396-1.196-0.272
	C22.49,6.075,24.58,7.399,32,7.399c7.421,0,5.647-1.807,9.296,1.367C40.938,4.854,38.453,2,32,2z"/>
<path fill="#453631" d="M35.143,5.409c-4.085,1.509-5.58-1.211-9.434-1.474c1.833,0.866,2.728,2.198,4.233,3.159
	c-3.276-1.097-5.681-2.983-5.863-4.223c0,0-0.547,1.809,1.615,3.161c-2.067,0.192-2.499-2.237-2.499-2.237
	c-1.047,1.682-0.901,7.107,0.262,11.132c0.193-1.436-0.248-2.031,0.415-3.761c1.987-5.173,0.709-3.001,8.13-3.001
	c7.419,0,6.079-1.982,8.127,3.001c0.61,1.485,0.223,2.325,0.417,3.761C42.985,5.852,39.478,3.81,35.143,5.409z"/>
<path fill="#C1873C" d="M38.954,11.071c-1.412-0.701-4.115-0.735-5.122-0.248c-0.215,0.095-0.073,0.761,0.108,0.696
	c1.404-0.519,3.667-0.531,4.98,0.045C39.095,11.639,39.169,11.17,38.954,11.071z"/>
<path fill="#C1873C" d="M25.045,11.071c1.413-0.701,4.115-0.735,5.124-0.248c0.214,0.095,0.073,0.761-0.109,0.696
	c-1.405-0.519-3.666-0.531-4.982,0.045C24.904,11.639,24.831,11.17,25.045,11.071z"/>
<path fill="#45332C" d="M30.004,13.688c-1.17,0.746-2.985,0.746-4.156,0c-0.179-0.115-0.284,0.01-0.229,0.105
	c1.137,1.926,3.478,1.926,4.613,0C30.289,13.698,30.183,13.574,30.004,13.688z"/>
<path fill="#45332C" d="M38.151,13.688c-1.17,0.746-2.986,0.746-4.155,0c-0.179-0.115-0.284,0.01-0.229,0.105
	c1.137,1.926,3.477,1.926,4.613,0C38.437,13.698,38.33,13.574,38.151,13.688z"/>
</svg>
