<?xml version="1.0" encoding="utf-8"?>
<!-- Generator: Adobe Illustrator 15.0.0, SVG Export Plug-In . SVG Version: 6.00 Build 0)  -->
<!DOCTYPE svg PUBLIC "-//W3C//DTD SVG 1.1//EN" "http://www.w3.org/Graphics/SVG/1.1/DTD/svg11.dtd" [
	<!ENTITY ns_flows "http://ns.adobe.com/Flows/1.0/">
	<!ENTITY ns_extend "http://ns.adobe.com/Extensibility/1.0/">
	<!ENTITY ns_ai "http://ns.adobe.com/AdobeIllustrator/10.0/">
	<!ENTITY ns_graphs "http://ns.adobe.com/Graphs/1.0/">
]>
<svg version="1.1" id="Layer_1" xmlns:x="&ns_extend;" xmlns:i="&ns_ai;" xmlns:graph="&ns_graphs;"
	 xmlns="http://www.w3.org/2000/svg" xmlns:xlink="http://www.w3.org/1999/xlink" xmlns:a="http://ns.adobe.com/AdobeSVGViewerExtensions/3.0/"
	 x="0px" y="0px" width="64px" height="64px" viewBox="0 0 64 64" enable-background="new 0 0 64 64" xml:space="preserve">
<path fill="#1A1626" d="M62,19.244c-8.076,10.42-20.783,10.482-30,10.475c-9.217,0.008-21.926-0.055-30-10.475
	C2,38.41,15.277,43.775,8.484,55.402c-2.146,3.676,49.176,3.676,47.029,0C48.723,43.775,62,38.41,62,19.244z"/>
<path fill="#E81C27" d="M32,29.719c-9.217,0.008-19.986-0.6-28-8.193c0,11.357,20.279,24.602,13.486,36.23
	c-2.148,3.676,31.174,3.676,29.027,0C39.721,46.127,60,32.883,60,21.525C51.984,29.119,41.217,29.727,32,29.719z"/>
<path fill="#302C3B" d="M45.145,54.348c-0.357-5.432,3.639-12.105,7.578-17.697c0.551-3.604,0.719-7.111,0.777-10.008v-3.055
	C54.215,11.604,45.688,2,31.943,2c-13.871,0-22.16,9.604-21.445,21.588v3.055c0.029,2.854,0.174,6.322,0.701,9.898
	c3.98,5.652,8.049,12.391,7.646,17.879C21.936,57.213,42.043,57.182,45.145,54.348z"/>
<path fill="#1A1626" d="M45.145,54.348c5.947-6.721,5.396-35.732,5.396-35.732h-2c0,0-15.203,4.803-33,0h-2
	c0,0-0.967,29.365,5.305,35.805C23.434,59.131,40.787,59.271,45.145,54.348z"/>
<path fill="#1A1626" d="M11.434,50.848c6.533-4.299,34.666-4.334,41.191-0.004C56.24,53.236,57,62,57,62H7
	C7,62,7.809,53.229,11.434,50.848"/>
<path fill="#B88A6F" d="M38.998,47.488v-9.709h-7H25v9.709l-8.439,1.564l2.219,6.436c0,0,3.109,4.959,13.219,6.508v0.002
	c0,0,0,0,0.002-0.002c0,0.002,0,0.002,0,0.002v-0.002c10.111-1.549,13.219-6.508,13.219-6.508l2.219-6.436L38.998,47.488z"/>
<path fill="#946346" d="M34.268,54.43c-1.277,0.75-2.27,2.459-2.27,2.459s-0.992-1.709-2.268-2.459
	c2.266,3.84,1.719,5.568,1.719,5.568h1.098C32.547,59.998,31.996,58.031,34.268,54.43z"/>
<path fill="#E81C27" d="M32,61.996c4.057-0.621,6.988-1.793,9.041-2.971H32h-0.002h-9.041c2.055,1.178,4.984,2.35,9.041,2.971v0.002
	C31.998,61.998,31.998,61.998,32,61.996c0,0.002,0,0.002,0,0.002V61.996z"/>
<path fill="#302C3B" d="M42.99,62c0,0,5.635-7.818,7.965-16.525l-9.004,1.246c0,0,0.131,5.955-3.076,15.279H42.99z"/>
<path fill="#302C3B" d="M21.004,62c0,0-5.633-7.818-7.961-16.525l9,1.246c0,0-0.131,5.955,3.078,15.279H21.004z"/>
<path fill="#946346" d="M24.285,43.686c7.051,7.256,8.467,7.252,15.514-0.004L24.285,43.686z"/>
<path fill="#B88A6F" d="M32.041,19.068c-10.527,0.008-16.5-0.451-16.5-0.453c-0.021,3.951,0.773,11.689,1.354,14.545
	c1.666,8.129,11.398,14.455,15.146,14.455c3.75,0,13.482-6.326,15.146-14.455c0.592-2.855,1.375-10.594,1.354-14.545
	C48.541,18.617,42.568,19.076,32.041,19.068z"/>
<path fill="#AB1C27" d="M32,38.152c-2.445-0.285-4.965-0.33-7.5-0.096c5.479,3.803,9.521,3.803,15,0
	C36.967,37.822,34.461,37.867,32,38.152z"/>
<polygon fill="#FFFFFF" points="26.93,38.072 27.869,41.387 28.869,38.156 "/>
<polygon fill="#FFFFFF" points="37.068,38.072 36.129,41.387 35.129,38.156 "/>
<path fill="#820505" d="M34.988,37.207c-2.211-0.791-3.002,0.264-2.988,0.25c0.016,0.014-0.775-1.041-2.988-0.25
	c-1.699,0.594-4.512,0.82-4.512,0.85c3.076-0.043,3.531,0.77,7.5,0.66c3.971,0.109,4.424-0.703,7.5-0.66
	C39.5,38.027,36.688,37.801,34.988,37.207z"/>
<path fill="#36281D" d="M44.836,21.611c-2.617-1.561-7.309-1.75-9.166-0.688c-0.393,0.213-0.287,1.34,0.053,1.199
	c2.648-1.104,6.682-1.158,9.168,0.117C45.225,22.41,45.23,21.838,44.836,21.611z"/>
<path fill="#36281D" d="M19.248,21.611c2.615-1.561,7.307-1.75,9.166-0.688c0.393,0.213,0.289,1.34-0.055,1.199
	c-2.648-1.104-6.68-1.158-9.166,0.117C18.859,22.41,18.852,21.838,19.248,21.611z"/>
<path fill="#946346" d="M35.641,33.346c0,2.342-7.199,2.342-7.199,0C28.441,32.809,35.641,32.809,35.641,33.346z"/>
<path fill="#FFFFFF" d="M44.582,26.357c-1.551,4.061-7.861,3.465-9.016,0.623C36.441,22.416,43.729,22.025,44.582,26.357z"/>
<path fill="#613F34" d="M37.146,25.916c0,3.596,5.201,3.596,5.201,0C42.348,22.578,37.146,22.578,37.146,25.916z"/>
<path fill="#B00505" d="M37.66,27.066c0,2.063,4.172,2.063,4.172,0C41.832,25.152,37.66,25.152,37.66,27.066z"/>
<path fill="#1A1626" d="M38.668,25.973c0,1.492,2.158,1.492,2.158,0C40.826,24.588,38.668,24.588,38.668,25.973z"/>
<path fill="#AB968C" d="M37.93,25.537c0,0.754,1.09,0.754,1.09,0C39.02,24.838,37.93,24.838,37.93,25.537z"/>
<path fill="#45332C" d="M44.582,26.326c0-4.361-9.016-4.361-9.016,0.691C36.852,22.871,43.295,22.871,44.582,26.326z"/>
<path fill="#FFFFFF" d="M19.5,26.357c1.553,4.061,7.863,3.467,9.02,0.623C27.643,22.416,20.355,22.025,19.5,26.357z"/>
<path fill="#613F34" d="M21.736,25.922c0,3.596,5.199,3.596,5.199,0C26.936,22.584,21.736,22.584,21.736,25.922z"/>
<path fill="#B00505" d="M22.25,27.072c0,2.063,4.172,2.063,4.172,0C26.422,25.158,22.25,25.158,22.25,27.072z"/>
<path fill="#1A1626" d="M23.256,25.979c0,1.492,2.16,1.492,2.16,0C25.416,24.594,23.256,24.594,23.256,25.979z"/>
<path fill="#AB968C" d="M22.52,25.543c0,0.754,1.09,0.754,1.09,0C23.609,24.842,22.52,24.842,22.52,25.543z"/>
<path fill="#45332C" d="M19.5,26.326c0-4.361,9.02-4.361,9.02,0.689C27.232,22.871,20.789,22.871,19.5,26.326z"/>
</svg>
