<?xml version="1.0" encoding="utf-8"?>
<!-- Generator: Adobe Illustrator 15.0.0, SVG Export Plug-In . SVG Version: 6.00 Build 0)  -->
<!DOCTYPE svg PUBLIC "-//W3C//DTD SVG 1.1//EN" "http://www.w3.org/Graphics/SVG/1.1/DTD/svg11.dtd" [
	<!ENTITY ns_flows "http://ns.adobe.com/Flows/1.0/">
	<!ENTITY ns_extend "http://ns.adobe.com/Extensibility/1.0/">
	<!ENTITY ns_ai "http://ns.adobe.com/AdobeIllustrator/10.0/">
	<!ENTITY ns_graphs "http://ns.adobe.com/Graphs/1.0/">
]>
<svg version="1.1" id="Layer_1" xmlns:x="&ns_extend;" xmlns:i="&ns_ai;" xmlns:graph="&ns_graphs;"
	 xmlns="http://www.w3.org/2000/svg" xmlns:xlink="http://www.w3.org/1999/xlink" xmlns:a="http://ns.adobe.com/AdobeSVGViewerExtensions/3.0/"
	 x="0px" y="0px" width="64px" height="64px" viewBox="0 0 64 64" enable-background="new 0 0 64 64" xml:space="preserve">
<path opacity="0.15" fill="#A6AEB0" d="M2,61.999h60V28.306c-24.666,9.24-39.115-8.316-60,0V61.999z"/>
<path opacity="0.15" fill="#A6AEB0" d="M62,61.999H2V38.427c24.664,8.539,39.113-7.688,60,0V61.999z"/>
<path fill="#5C3A2E" d="M19.076,13.401c-8.713,37.396-7.916,36.596,10.426,36.596C19.352,42.896,38.795,12.894,19.076,13.401z"/>
<path fill="#6B4435" d="M15.934,12.823c-6.357,28.41-0.873,35.709,3.998,37.174h5.582C12.453,40.794,32.869,12.265,15.934,12.823z"
	/>
<path fill="#5C3A2E" d="M44.709,13.401c8.713,37.396,7.914,36.596-10.426,36.596C43.617,44.296,24.99,12.892,44.709,13.401z"/>
<path fill="#6B4435" d="M47.85,12.821c9.295,25.848-0.02,35.979-3.998,37.176h-5.58C51.334,41.544,30.918,12.263,47.85,12.821z"/>
<path fill="#B88A6F" d="M24.98,48.868c0,5.754,14.035,5.754,14.035,0c0-3.514,0-5.318,0-5.318H24.98
	C24.98,43.55,24.98,44.333,24.98,48.868z"/>
<path fill="#946346" d="M24.801,44.292c6.543,6.738,7.857,6.732,14.396-0.004L24.801,44.292z"/>
<path fill="#B88A6F" d="M32,4.416c-11.609,0-17.201,9.454-16.502,21.608c0.143,2.443,0.822,5.969,1.662,8.988
	C18.9,41.29,28.088,47.614,32,47.614c3.91,0,13.1-6.324,14.84-12.602c0.84-3.02,1.52-6.545,1.664-8.988
	C49.201,13.87,43.611,4.416,32,4.416z"/>
<path fill="#FFFFFF" d="M44.541,26.354c-1.551,4.061-7.861,3.465-9.016,0.623C36.4,22.413,43.688,22.022,44.541,26.354z"/>
<path fill="#FFFFFF" d="M19.459,26.354c1.553,4.061,7.863,3.467,9.02,0.623C27.602,22.413,20.314,22.022,19.459,26.354z"/>
<path fill="#84401E" d="M32,37.585c-2.822-1.24-2.844-0.051-7.199,0.242c1.635,1.855,2.838,4.244,7.197,4.244
	c5.004,0,5.85-2.711,7.203-4.244C34.842,37.534,34.822,36.345,32,37.585z"/>
<path fill="#FFFFFF" d="M26.107,38.29c2.844,2.959,8.977,2.92,11.785,0C33.514,38.761,30.488,38.761,26.107,38.29z"/>
<path fill="#36281D" d="M44.795,21.608c-2.617-1.561-7.309-1.75-9.166-0.688c-0.393,0.213-0.287,1.34,0.053,1.199
	c2.648-1.104,6.682-1.158,9.168,0.117C45.184,22.407,45.189,21.835,44.795,21.608z"/>
<path fill="#36281D" d="M19.207,21.608c2.615-1.561,7.307-1.75,9.166-0.688c0.393,0.213,0.289,1.34-0.055,1.199
	c-2.648-1.104-6.68-1.158-9.166,0.117C18.818,22.407,18.813,21.835,19.207,21.608z"/>
<path fill="#946346" d="M35.6,33.343c0,2.342-7.199,2.342-7.199,0C28.4,32.806,35.6,32.806,35.6,33.343z"/>
<path fill="#875B49" d="M44.973,6.104c-8.141,8.34-0.371,8.879,4.424,20.605c2.691,6.572,0.029,20.061-5.545,23.287
	c6.176,0,9.939-8.551,11.773-20.311C57.916,14.991,49.109,4.879,44.973,6.104z"/>
<path fill="#875B49" d="M24.99,2.912C14.666,5.342,5.045,14.46,8.85,32.413c2.25,10.613,5.02,17.584,11.082,17.584
	c-6.758-7-5.965-21.762-4.043-25.434c9.793-5.828,26.539-10.24,29.084-18.459C46.264,4.209,35.32,0.205,24.99,2.912z"/>
<path fill="#6B4435" d="M17.08,15.985c4.367-0.885,25.25-1.301,27.893-9.881C40.037,10.038,34.924,11.11,17.08,15.985z"/>
<path fill="#6B4435" d="M9.555,29.634c7.324-9.773,31.314-8.695,35.418-23.529C37.006,18.556,11.557,20.239,9.555,29.634z"/>
<path fill="#6B4435" d="M42.559,8.14c-1.891,2.977,4.678-1.398,11.756,17.783C52.568,14.708,46.588,6.987,42.559,8.14z"/>
<path fill="#613F34" d="M37.105,25.913c0,3.596,5.199,3.596,5.199,0C42.305,22.575,37.105,22.575,37.105,25.913z"/>
<path fill="#7D5037" d="M37.619,27.063c0,2.063,4.172,2.063,4.172,0C41.791,25.149,37.619,25.149,37.619,27.063z"/>
<path fill="#1A1626" d="M38.625,25.97c0,1.492,2.16,1.492,2.16,0C40.785,24.585,38.625,24.585,38.625,25.97z"/>
<path fill="#AB968C" d="M37.889,25.534c0,0.754,1.09,0.754,1.09,0C38.979,24.835,37.889,24.835,37.889,25.534z"/>
<path fill="#613F34" d="M21.695,25.919c0,3.596,5.199,3.596,5.199,0C26.895,22.581,21.695,22.581,21.695,25.919z"/>
<path fill="#7D5037" d="M22.209,27.069c0,2.063,4.172,2.063,4.172,0C26.381,25.155,22.209,25.155,22.209,27.069z"/>
<path fill="#1A1626" d="M23.217,25.976c0,1.492,2.158,1.492,2.158,0C25.375,24.591,23.217,24.591,23.217,25.976z"/>
<path fill="#AB968C" d="M22.479,25.54c0,0.754,1.09,0.754,1.09,0C23.568,24.839,22.479,24.839,22.479,25.54z"/>
<path fill="#45332C" d="M44.541,26.323c0-4.361-9.016-4.361-9.016,0.691C36.811,22.868,43.254,22.868,44.541,26.323z"/>
<path fill="#45332C" d="M19.459,26.323c0-4.361,9.02-4.361,9.02,0.689C27.191,22.868,20.748,22.868,19.459,26.323z"/>
<path fill="#B88A6F" d="M12.256,52.378c2.4-1.42,13.365-5.166,13.365-5.166c3.531,3.727,9.301,3.727,12.832,0
	c0,0,10.951,3.74,13.342,5.162C55.266,54.44,56,61.999,56,61.999H8C8,61.999,8.773,54.433,12.256,52.378z"/>
<path fill="#A0D8E9" d="M23.209,61.999H49c0,0-0.32-4.139-4.029-4.092C21.664,58.187,23.209,61.999,23.209,61.999z"/>
<path fill="#CAE8F0" d="M33.949,58.31c-11.979-0.023-10.281-0.391-14.918-0.402C15.316,57.896,15,61.999,15,61.999h25.791
	C40.791,61.999,39.928,58.323,33.949,58.31z"/>
<path opacity="0.2" fill="#A6AEB0" d="M62,61.999H2V48.546c24.029-7.938,37.938,8.666,60,0V61.999z"/>
</svg>
