<?xml version="1.0" encoding="utf-8"?>
<!-- Generator: Adobe Illustrator 15.0.0, SVG Export Plug-In . SVG Version: 6.00 Build 0)  -->
<!DOCTYPE svg PUBLIC "-//W3C//DTD SVG 1.1//EN" "http://www.w3.org/Graphics/SVG/1.1/DTD/svg11.dtd" [
	<!ENTITY ns_flows "http://ns.adobe.com/Flows/1.0/">
	<!ENTITY ns_extend "http://ns.adobe.com/Extensibility/1.0/">
	<!ENTITY ns_ai "http://ns.adobe.com/AdobeIllustrator/10.0/">
	<!ENTITY ns_graphs "http://ns.adobe.com/Graphs/1.0/">
]>
<svg version="1.1" id="Layer_1" xmlns:x="&ns_extend;" xmlns:i="&ns_ai;" xmlns:graph="&ns_graphs;"
	 xmlns="http://www.w3.org/2000/svg" xmlns:xlink="http://www.w3.org/1999/xlink" xmlns:a="http://ns.adobe.com/AdobeSVGViewerExtensions/3.0/"
	 x="0px" y="0px" width="64px" height="64px" viewBox="0 0 64 64" enable-background="new 0 0 64 64" xml:space="preserve">
<path fill="#594640" d="M14.428,32.148C4.238,34.525,9.287,47.07,9.654,52.131C22.666,45.178,14.428,32.148,14.428,32.148z"/>
<path fill="#594640" d="M49.57,32.13c0,0-8.236,13.03,4.779,19.985C54.713,47.055,59.762,34.508,49.57,32.13z"/>
<path fill="#E6B045" d="M8.635,31.431c-9.107-1.393-3.174,20.217,3.957,14.258C15.896,42.925,12.896,32.083,8.635,31.431z"/>
<path fill="#E6B045" d="M55.366,31.431c-4.263,0.652-7.263,11.494-3.958,14.258C58.541,51.646,64.472,30.039,55.366,31.431z"/>
<path fill="#FFCC66" d="M55.07,30.976c0-15.338-9.06-11.924-23.07-11.924c-14.008,0-23.068-3.414-23.068,11.924
	c0,0,0.05,5.844,1.543,13.522C12.92,57.066,23.072,62,32,62s19.083-4.934,21.525-17.502C55.02,36.818,55.07,30.976,55.07,30.976z"/>
<path fill="#FFFFFF" d="M49.017,35.734c-2.124,5.56-10.763,4.745-12.347,0.854C37.871,30.338,47.85,29.803,49.017,35.734z"/>
<path fill="#613F34" d="M38.874,35.143c0,4.879,7.059,4.879,7.059,0C45.933,30.614,38.874,30.614,38.874,35.143z"/>
<path fill="#7D5037" d="M39.573,36.704c0,2.798,5.66,2.798,5.66,0C45.233,34.107,39.573,34.107,39.573,36.704z"/>
<path fill="#1A1626" d="M40.938,35.22c0,2.025,2.93,2.025,2.93,0C43.868,33.34,40.938,33.34,40.938,35.22z"/>
<path fill="#AB968C" d="M39.938,34.629c0,1.021,1.479,1.021,1.479,0C41.417,33.68,39.938,33.68,39.938,34.629z"/>
<path fill="#E6B045" d="M49.017,35.693c0-5.969-12.347-5.969-12.347,0.945C38.434,30.965,47.253,30.965,49.017,35.693z"/>
<path fill="#FFFFFF" d="M14.983,35.734c2.123,5.56,10.766,4.745,12.347,0.854C26.129,30.335,16.154,29.801,14.983,35.734z"/>
<path fill="#613F34" d="M18.071,35.142c0,4.879,7.057,4.879,7.057,0C25.128,30.613,18.071,30.613,18.071,35.142z"/>
<path fill="#7D5037" d="M18.769,36.702c0,2.798,5.662,2.798,5.662,0C24.431,34.105,18.769,34.105,18.769,36.702z"/>
<path fill="#1A1626" d="M20.136,35.219c0,2.024,2.928,2.024,2.928,0C23.063,33.338,20.136,33.338,20.136,35.219z"/>
<path fill="#AB968C" d="M19.134,34.627c0,1.023,1.479,1.023,1.479,0C20.613,33.678,19.134,33.678,19.134,34.627z"/>
<path fill="#E6B045" d="M14.983,35.693c0-5.969,12.347-5.969,12.347,0.943C25.568,30.961,16.747,30.961,14.983,35.693z"/>
<path fill="#C1873C" d="M50.157,29.64c-3.688-1.83-10.744-1.919-13.373-0.644c-0.563,0.247-0.191,1.982,0.283,1.816
	c3.664-1.357,9.572-1.39,13.002,0.117C50.525,31.124,50.716,29.896,50.157,29.64z"/>
<path fill="#C1873C" d="M13.845,29.64c3.688-1.83,10.742-1.919,13.373-0.644c0.563,0.247,0.191,1.982-0.281,1.816
	c-3.67-1.357-9.573-1.39-13.005,0.117C13.476,31.124,13.287,29.896,13.845,29.64z"/>
<path fill="#E6A400" d="M32.001,50.581c-3.627-1.067-9,0.505-9,0.505c2.047,2.229,3.547,5.121,9,5.121c6.248,0,7.311-3.282,9-5.121
	C41.001,51.086,35.624,49.509,32.001,50.581z"/>
<path fill="#FFFFFF" d="M24.374,51.463c3.801,3.191,11.48,3.211,15.301,0C35.624,51.637,28.454,51.639,24.374,51.463z"/>
<path fill="#E6B045" d="M37.001,45.803c0,3.254-10,3.254-10,0C27.001,45.056,37.001,45.056,37.001,45.803z"/>
<path fill="#594640" d="M13.5,10.065C3.701,16.36,4.973,27.358,6.662,36.973C13.73,21.188,13.68,17.5,13.5,10.065z"/>
<path fill="#453631" d="M6.662,36.973c5.955-18.3,3.67-22.208,6.838-26.907C13.68,17.5,15.545,22.84,6.662,36.973z"/>
<path fill="#594640" d="M13.5,10.065c26.678,15.575,36.59,8.211,43.205,26.372C63.91,4.253,27.5-7.31,13.5,10.065z"/>
<path fill="#453631" d="M13.5,10.065c26.678,15.575,35.908,8.449,43.205,26.372C59.607,22.274,31.072,11.304,13.5,10.065z"/>
<path fill="#594640" d="M13.5,10.065c5.201,10.781,27.17,16.986,35.133,17.293C42.1,19.853,40.957,5.253,13.5,10.065z"/>
<path fill="#453631" d="M48.633,27.358C42.1,19.853,22.15,20.19,13.5,10.065C18.701,20.847,39.746,27.358,48.633,27.358z"/>
<path fill="#594640" d="M13.5,10.065C5.342,21.932,22,26.046,29.352,26.339C23.346,20.698,20.781,10.464,13.5,10.065z"/>
<path fill="#453631" d="M29.352,26.339C21.078,20.78,8.246,21.368,13.5,10.065C5.342,21.932,21.492,26.628,29.352,26.339z"/>
</svg>
