<?xml version="1.0" encoding="utf-8"?>
<!-- Generator: Adobe Illustrator 15.0.0, SVG Export Plug-In . SVG Version: 6.00 Build 0)  -->
<!DOCTYPE svg PUBLIC "-//W3C//DTD SVG 1.1//EN" "http://www.w3.org/Graphics/SVG/1.1/DTD/svg11.dtd" [
	<!ENTITY ns_flows "http://ns.adobe.com/Flows/1.0/">
	<!ENTITY ns_extend "http://ns.adobe.com/Extensibility/1.0/">
	<!ENTITY ns_ai "http://ns.adobe.com/AdobeIllustrator/10.0/">
	<!ENTITY ns_graphs "http://ns.adobe.com/Graphs/1.0/">
]>
<svg version="1.1" id="Layer_1" xmlns:x="&ns_extend;" xmlns:i="&ns_ai;" xmlns:graph="&ns_graphs;"
	 xmlns="http://www.w3.org/2000/svg" xmlns:xlink="http://www.w3.org/1999/xlink" xmlns:a="http://ns.adobe.com/AdobeSVGViewerExtensions/3.0/"
	 x="0px" y="0px" width="64px" height="64px" viewBox="0 0 64 64" enable-background="new 0 0 64 64" xml:space="preserve">
<path fill="#B1E5FD" d="M62,1.999c-46.227,1.9-42.113,41.026-14.467,46.513c-6.553-5.17-1.512-9.592-5.648-13.115
	C59.023,25.255,44.463,15.108,62,1.999z"/>
<path fill="#7ED2FC" d="M49.646,9.903c-29.037,1.381-26.453,29.821-9.086,33.812c-4.117-3.756-0.951-6.971-3.549-9.533
	C47.777,26.808,38.631,19.431,49.646,9.903z"/>
<path fill="#B1E5FD" d="M2,3.774c32.889,1.697,29.963,36.64,10.291,41.54c4.664-4.615,1.076-8.566,4.02-11.713
	C4.117,24.546,14.477,15.481,2,3.774z"/>
<path fill="#7ED2FC" d="M10.789,10.833c20.658,1.232,18.82,26.636,6.463,30.2c2.932-3.357,0.678-6.229,2.525-8.516
	C12.119,25.933,18.627,19.345,10.789,10.833z"/>
<path fill="#FFE12C" d="M7.979,13.001l2.189-5.941c0.256,0.117,0.502,0.254,0.729,0.42l-2.102,5.715
	C8.525,13.128,8.254,13.063,7.979,13.001z"/>
<path fill="#E3C19B" d="M17.666,20.183c-0.801,0.322-1.504,0.543-1.906,0.551c-1.611-1.9-4.246-2.719-6.578-5.959
	c0-2.049,1.094-1.334-0.039-2.533l-0.281,0.766c-1.996-2.27-4.98,2.912-1.434,3.902c2.316,0.768,4.24,5.871,7.209,7.545
	c0.834,0.469,3.084,0.078,5.135-0.404C19.098,22.792,18.443,21.384,17.666,20.183z"/>
<path fill="#FFE12C" d="M7.805,15.892l-1.916,5.207c-0.08,0.217-0.855-0.076-0.777-0.291l1.879-5.109
	C7.543,15.396,7.805,15.892,7.805,15.892z"/>
<polygon fill="#F9C802" points="11.621,8.954 11.938,7.126 13.611,6.347 11.98,5.483 11.766,3.64 10.441,4.933 8.631,4.571 
	9.447,6.237 8.543,7.856 10.369,7.591 "/>
<path fill="#E3C19B" d="M36.955,50.639c-0.141-0.811-1.375-0.912-2.77,0.322c-2.791-0.633,0.063,4.045,0.063,4.045
	c1.822,1.182,3.318,4.002,5.533,4.387C42.1,59.797,37.988,56.623,36.955,50.639z"/>
<path fill="#E3C19B" d="M45.811,53.566c-0.033-0.93-1.324-2.59-3.055-1.482c-3.006-1.227-0.596,3.992-0.596,3.992
	c1.244,0.885,2.76,4.922,4.518,5.686C49.135,62.822,46.068,60.404,45.811,53.566z"/>
<path fill="#8E3ED6" d="M42.756,52.084c-3.006-1.227-2.527-3.135-5.064-5.537c-3.828-3.625-0.873-7.73-3.379-13.26
	c-6.1,1.512-10.512-0.16-10.512-0.16c-1.572,4.041-1.637,10.707,0.063,13.859c0.613,1.137,0.551,3.045,2.898,4.17
	c3.049,1.463,7.486,3.85,7.486,3.85c1.822,1.182,0.592-4.055-0.063-4.045c-2.791-0.633-2.361-2.426-5.117-3.555
	c-1.049-0.43-0.012-3.305-0.434-6.715c1.158,3.41,1.906,4.992,2.914,6.166c0.547,0.639,0.902,1.768,1.979,2.512
	c3.168,2.193,8.633,6.707,8.633,6.707C43.404,56.961,43.443,52.111,42.756,52.084z"/>
<path fill="#E3C19B" d="M43.256,37.959c0.619-0.547-0.08-1.973-1.791-4.285c-1.613-2.184-1.129-3.958-2.16-6.091l-1.098-3.83
	c-1.379,0.188-2.5-0.201-3.506,0.996c0.158,0.861,1.148,2.031,1.471,3.346c0.635,3.024,3.52,6.593,3.52,6.593
	c1.176,4.451,1.43,4.729,1.5,2.67c0.33-0.186,0.354,0.26,1.09,1.619C43.736,41.664,43.256,37.959,43.256,37.959z"/>
<path fill-rule="evenodd" clip-rule="evenodd" fill="#8E3ED6" d="M23.906,31.471c-0.787-1.153-0.021-4.845-1.184-7.718
	c-0.07-0.176-3.439,1.09-3.516,0.926c0,0-1.426-2.486-2.422-4.365c1.99-0.912,3.08-1.59,5.629-2.777
	c2.947-1.369,8.449-2.381,12.145,0.244c1.434,1.021,3.051,2.264,3.994,6.111c-1.404,1.904-4.023,1.213-4.023,1.213
	s-0.121-0.338-0.721-1.146c-0.248,3.402,0.508,5.816,0.213,6.809C33.359,32.99,25.072,34.932,23.906,31.471z"/>
<path fill="#5D1E96" d="M34.021,30.767c-2.059,2.438-8.592,3.12-10.115,0.728c-0.217,0.107-0.244,1.324-0.105,1.633
	c1.068,2.367,5.244,2.896,10.512,0.139C34.557,33.02,34.148,30.767,34.021,30.767z"/>
<path fill="#D6A67A" d="M25.986,16.37c0,2.451,4.758,2.451,4.758,0v-2.541h-4.758V16.37z"/>
<path fill="#D6A67A" d="M22.615,8.3c-1.922-0.346-0.422,5.027,1.084,3.545C24.396,11.159,23.514,8.462,22.615,8.3z"/>
<path fill="#D6A67A" d="M34.117,8.3c-0.9,0.162-1.783,2.859-1.082,3.545C34.539,13.327,36.041,7.954,34.117,8.3z"/>
<path fill="#E3C19B" d="M28.365,1.999c-3.975,0-5.893,3.006-5.65,7.188c0.047,0.842,0.568,3.584,1.061,4.568
	c0.506,1.008,2.191,2.561,3.225,2.879c0.652,0.205,2.082,0.205,2.732,0c1.035-0.318,2.721-1.871,3.225-2.879
	c0.494-0.984,1.014-3.727,1.063-4.568C34.26,5.005,32.344,1.999,28.365,1.999z"/>
<path fill="#BF8C6B" d="M28.365,13.38c-0.895-0.262-2.219,0.125-2.219,0.125c0.504,0.551,0.873,1.264,2.219,1.264
	c1.541,0,1.805-0.809,2.221-1.264C30.586,13.505,29.26,13.116,28.365,13.38z"/>
<path fill="#FFFFFF" d="M26.484,13.599c0.938,0.785,2.832,0.789,3.775,0C29.26,13.64,27.492,13.642,26.484,13.599z"/>
<path fill="#D6A67A" d="M29.6,11.903c0,0.801-2.467,0.801-2.467,0C27.133,11.718,29.6,11.718,29.6,11.903z"/>
<linearGradient id="SVGID_1_" gradientUnits="userSpaceOnUse" x1="22.6143" y1="4.1758" x2="34.3535" y2="4.1758">
	<stop  offset="0" style="stop-color:#FFABF7"/>
	<stop  offset="1" style="stop-color:#B721CF"/>
	<a:midPointStop  offset="0" style="stop-color:#FFABF7"/>
	<a:midPointStop  offset="0.5" style="stop-color:#FFABF7"/>
	<a:midPointStop  offset="1" style="stop-color:#B721CF"/>
</linearGradient>
<path fill="url(#SVGID_1_)" d="M28.365,1.999c-2.734,0-4.387,0.904-5.1,0.557c0,0-0.078,0.465,0.201,0.77
	c0,0-0.295,0.256-0.77-0.176c-0.455,1.473,0.893,2.324,5.668,2.324c4.779,0,3.637-1.162,5.988,0.879
	C34.121,3.837,32.521,1.999,28.365,1.999z"/>
<linearGradient id="SVGID_2_" gradientUnits="userSpaceOnUse" x1="22.2427" y1="6.4385" x2="34.3857" y2="6.4385">
	<stop  offset="0" style="stop-color:#FFABF7"/>
	<stop  offset="0.2111" style="stop-color:#FDA8F6"/>
	<stop  offset="0.3793" style="stop-color:#F89EF3"/>
	<stop  offset="0.5327" style="stop-color:#EF8DEE"/>
	<stop  offset="0.6774" style="stop-color:#E375E7"/>
	<stop  offset="0.8158" style="stop-color:#D357DF"/>
	<stop  offset="0.9478" style="stop-color:#C032D4"/>
	<stop  offset="1" style="stop-color:#B721CF"/>
	<a:midPointStop  offset="0" style="stop-color:#FFABF7"/>
	<a:midPointStop  offset="0.7515" style="stop-color:#FFABF7"/>
	<a:midPointStop  offset="1" style="stop-color:#B721CF"/>
</linearGradient>
<path fill="url(#SVGID_2_)" d="M30.389,4.192c-2.631,0.973-3.592-0.779-6.074-0.949c1.184,0.559,1.758,1.416,2.729,2.035
	c-2.111-0.707-3.66-1.92-3.777-2.719c0,0-0.352,1.164,1.039,2.035c-1.332,0.123-1.607-1.441-1.607-1.441
	c-0.676,1.084-0.58,4.576,0.168,7.164c0.123-0.924-0.16-1.307,0.268-2.42c1.279-3.33,0.457-1.932,5.234-1.932
	s3.916-1.273,5.234,1.932c0.393,0.955,0.143,1.496,0.268,2.42C35.439,4.476,33.182,3.165,30.389,4.192z"/>
<path fill="#FFFFFF" d="M32.623,9.511c-0.531,1.389-2.691,1.186-3.088,0.213C29.836,8.159,32.33,8.026,32.623,9.511z"/>
<path fill="#FFFFFF" d="M24.109,9.511c0.529,1.389,2.693,1.186,3.088,0.213C26.898,8.159,24.398,8.024,24.109,9.511z"/>
<path fill="#BF8C6B" d="M32.844,7.837c-0.91-0.451-2.648-0.475-3.297-0.158c-0.139,0.061-0.047,0.486,0.07,0.447
	c0.902-0.334,2.359-0.342,3.205,0.029C32.938,8.202,32.982,7.899,32.844,7.837z"/>
<path fill="#BF8C6B" d="M23.889,7.837c0.908-0.451,2.648-0.475,3.297-0.158c0.139,0.061,0.049,0.486-0.068,0.447
	c-0.904-0.334-2.359-0.342-3.209,0.029C23.797,8.202,23.75,7.899,23.889,7.837z"/>
<path fill="#613F34" d="M30.086,9.362c0,1.221,1.766,1.221,1.766,0C31.852,8.229,30.086,8.229,30.086,9.362z"/>
<path fill="#7D5037" d="M30.262,9.753c0,0.699,1.416,0.699,1.416,0C31.678,9.103,30.262,9.103,30.262,9.753z"/>
<path fill="#1A1626" d="M30.602,9.382c0,0.504,0.734,0.504,0.734,0C31.336,8.911,30.602,8.911,30.602,9.382z"/>
<path fill="#AB968C" d="M30.352,9.233c0,0.254,0.369,0.254,0.369,0C30.721,8.995,30.352,8.995,30.352,9.233z"/>
<path fill="#613F34" d="M24.879,9.362c0,1.221,1.768,1.221,1.768,0C26.646,8.229,24.879,8.229,24.879,9.362z"/>
<path fill="#7D5037" d="M25.055,9.751c0,0.701,1.416,0.701,1.416,0C26.471,9.103,25.055,9.103,25.055,9.751z"/>
<path fill="#1A1626" d="M25.396,9.382c0,0.504,0.734,0.504,0.734,0C26.131,8.911,25.396,8.911,25.396,9.382z"/>
<path fill="#AB968C" d="M25.146,9.233c0,0.254,0.369,0.254,0.369,0C25.516,8.995,25.146,8.995,25.146,9.233z"/>
<path fill="#D6A67A" d="M32.623,9.499c0-1.492-3.088-1.492-3.088,0.236C29.977,8.317,32.184,8.317,32.623,9.499z"/>
<path fill="#D6A67A" d="M24.109,9.499c0-1.492,3.088-1.492,3.088,0.236C26.756,8.317,24.551,8.317,24.109,9.499z"/>
</svg>
