<?xml version="1.0" encoding="utf-8"?>
<!-- Generator: Adobe Illustrator 15.0.0, SVG Export Plug-In . SVG Version: 6.00 Build 0)  -->
<!DOCTYPE svg PUBLIC "-//W3C//DTD SVG 1.1//EN" "http://www.w3.org/Graphics/SVG/1.1/DTD/svg11.dtd" [
	<!ENTITY ns_flows "http://ns.adobe.com/Flows/1.0/">
	<!ENTITY ns_extend "http://ns.adobe.com/Extensibility/1.0/">
	<!ENTITY ns_ai "http://ns.adobe.com/AdobeIllustrator/10.0/">
	<!ENTITY ns_graphs "http://ns.adobe.com/Graphs/1.0/">
]>
<svg version="1.1" id="Layer_1" xmlns:x="&ns_extend;" xmlns:i="&ns_ai;" xmlns:graph="&ns_graphs;"
	 xmlns="http://www.w3.org/2000/svg" xmlns:xlink="http://www.w3.org/1999/xlink" xmlns:a="http://ns.adobe.com/AdobeSVGViewerExtensions/3.0/"
	 x="0px" y="0px" width="64px" height="64px" viewBox="0 0 64 64" enable-background="new 0 0 64 64" xml:space="preserve">
<path fill="#B3C2C6" d="M24.057,18.244c-6.701,33.574-6.09,32.855,8.02,32.855C24.27,44.725,39.227,17.789,24.057,18.244z"/>
<path fill="#CFD8DD" d="M21.641,17.727c-4.893,25.506-0.674,32.055,3.074,33.373h4.293C18.963,42.838,34.666,17.225,21.641,17.727z"
	/>
<path fill="#B3C2C6" d="M43.775,18.244c6.703,33.572,6.09,32.854-8.02,32.854C42.936,45.98,28.607,17.787,43.775,18.244z"/>
<path fill="#CFD8DD" d="M46.193,17.725c7.15,23.205-0.016,32.297-3.078,33.373h-4.291C48.873,43.51,33.166,17.223,46.193,17.725z"/>
<path fill="#E6EBEF" d="M47.184,30.193c2.041,5.9,0.021,18.008-4.203,20.906c4.682,0,7.533-7.678,8.924-18.234
	C53.641,19.674,43.549,19.666,47.184,30.193z"/>
<path fill="#E6EBEF" d="M16.455,35.314C18.162,44.842,20.26,51.1,24.854,51.1c-5.121-6.285-4.52-19.537-3.064-22.832
	C29.211,23.035,13.57,19.197,16.455,35.314z"/>
<path fill="#006DAE" d="M12,62h44.002C56.002,44.281,12,44.281,12,62z"/>
<path fill="#014D87" d="M13.293,46.09C14.26,55.387,33.539,55.832,33.52,62h0.961c-0.02-6.168,19.262-6.613,20.227-15.91
	C44.732,41.891,22.992,42.006,13.293,46.09z"/>
<path fill="#FCD5B2" d="M33.984,62L33.984,62c-0.014-4.545,5.357-7.113,10.93-10.117c-3.283-1.461-5.195-3.029-5.195-3.029h-11.4
	c0,0-1.938,1.58-5.232,3.045C28.652,54.893,33.998,57.463,33.984,62z"/>
<path fill="#014D87" d="M61,27.281C61,30.533,55.576,30,33.998,30c-21.576,0-27,0.533-27-2.719C6.998,24.025,61,24.025,61,27.281z"
	/>
<radialGradient id="SVGID_1_" cx="7.0488" cy="41.8604" r="5.3779" gradientUnits="userSpaceOnUse">
	<stop  offset="0.2303" style="stop-color:#A2FF00"/>
	<stop  offset="0.432" style="stop-color:#9FFD02"/>
	<stop  offset="0.563" style="stop-color:#97F608"/>
	<stop  offset="0.674" style="stop-color:#88E911"/>
	<stop  offset="0.7737" style="stop-color:#73D81F"/>
	<stop  offset="0.8659" style="stop-color:#57C231"/>
	<stop  offset="0.9514" style="stop-color:#36A647"/>
	<stop  offset="1" style="stop-color:#209456"/>
	<a:midPointStop  offset="0.2303" style="stop-color:#A2FF00"/>
	<a:midPointStop  offset="0.7874" style="stop-color:#A2FF00"/>
	<a:midPointStop  offset="1" style="stop-color:#209456"/>
</radialGradient>
<circle fill="url(#SVGID_1_)" cx="8.5" cy="43.5" r="5.5"/>
<radialGradient id="SVGID_2_" cx="563.2002" cy="62.8896" r="7.5726" gradientTransform="matrix(0.3583 0.4654 -0.7152 0.5506 -151.4179 -257.4933)" gradientUnits="userSpaceOnUse">
	<stop  offset="0" style="stop-color:#FFFFFF"/>
	<stop  offset="1" style="stop-color:#FFFFFF;stop-opacity:0"/>
	<a:midPointStop  offset="0" style="stop-color:#FFFFFF"/>
	<a:midPointStop  offset="0.5515" style="stop-color:#FFFFFF"/>
	<a:midPointStop  offset="1" style="stop-color:#FFFFFF;stop-opacity:0"/>
</radialGradient>
<path fill="url(#SVGID_2_)" d="M8.336,43.158c-1.545,1.191-3.426,1.34-4.199,0.334c-0.775-1.006-0.15-2.785,1.395-3.977
	c1.547-1.189,3.428-1.34,4.203-0.334C10.51,40.189,9.883,41.971,8.336,43.158z"/>
<linearGradient id="SVGID_3_" gradientUnits="userSpaceOnUse" x1="6.4658" y1="53.0088" x2="15.0723" y2="53.0088">
	<stop  offset="0.2545" style="stop-color:#916958"/>
	<stop  offset="0.4316" style="stop-color:#8D6655"/>
	<stop  offset="0.6087" style="stop-color:#815C4C"/>
	<stop  offset="0.7858" style="stop-color:#6D4C3E"/>
	<stop  offset="0.9621" style="stop-color:#513529"/>
	<stop  offset="1" style="stop-color:#4A2F24"/>
	<a:midPointStop  offset="0.2545" style="stop-color:#916958"/>
	<a:midPointStop  offset="0.7073" style="stop-color:#916958"/>
	<a:midPointStop  offset="1" style="stop-color:#4A2F24"/>
</linearGradient>
<path fill="url(#SVGID_3_)" d="M13.422,44.018c0,0,2.566,3.436,1.164,5.102C12.656,51.406,15.072,62,15.072,62h-2.609
	c0,0-0.848-8.141-5.818-13.039C5.15,47.49,13.516,48.619,13.422,44.018z"/>
<linearGradient id="SVGID_4_" gradientUnits="userSpaceOnUse" x1="4.3364" y1="46" x2="14.2783" y2="46">
	<stop  offset="0.2545" style="stop-color:#916958"/>
	<stop  offset="0.4316" style="stop-color:#8D6655"/>
	<stop  offset="0.6087" style="stop-color:#815C4C"/>
	<stop  offset="0.7858" style="stop-color:#6D4C3E"/>
	<stop  offset="0.9621" style="stop-color:#513529"/>
	<stop  offset="1" style="stop-color:#4A2F24"/>
	<a:midPointStop  offset="0.2545" style="stop-color:#916958"/>
	<a:midPointStop  offset="0.7073" style="stop-color:#916958"/>
	<a:midPointStop  offset="1" style="stop-color:#4A2F24"/>
</linearGradient>
<path fill="url(#SVGID_4_)" d="M13.543,41.635c1.115,0.123,1.432,6.568-2.514,8.551c-1.668,0.838-7.137-1.363-6.664-3.17
	c0.381-1.441,4.652,0.984,5.961,0.268C11.75,46.5,11.926,41.461,13.543,41.635z"/>
<path fill="#FCD5B2" d="M28,49.447c0,5.539,12,5.539,12,0c0-3.379,0-8.963,0-8.963H28C28,40.484,28,45.086,28,49.447z"/>
<path fill="#DBA97F" d="M27.645,46c5.775,5.791,6.936,5.787,12.709-0.004L27.645,46z"/>
<path fill="#FCD5B2" d="M33.998,10.178c-10.422,0-15.441,8.488-14.814,19.4c0.129,2.193,0.738,5.359,1.492,8.068
	c1.563,5.637,9.811,11.313,13.322,11.313s11.762-5.676,13.324-11.313c0.754-2.709,1.363-5.875,1.494-8.068
	C49.441,18.666,44.422,10.178,33.998,10.178z"/>
<path fill="#D88D56" d="M34,39.957c-2.535-1.113-2.553-0.047-6.465,0.217c1.469,1.666,2.549,3.811,6.463,3.811
	c4.49,0,5.25-2.434,6.467-3.811C36.551,39.91,36.533,38.844,34,39.957z"/>
<path fill="#FFFFFF" d="M28.709,40.59c2.553,2.656,8.059,2.621,10.58,0C35.357,41.012,32.641,41.012,28.709,40.59z"/>
<path fill="#99A8AE" d="M45.484,25.613c-2.348-1.4-6.561-1.57-8.227-0.617c-0.354,0.191-0.258,1.203,0.047,1.078
	c2.377-0.992,5.998-1.041,8.23,0.104C45.836,26.332,45.842,25.818,45.484,25.613z"/>
<path fill="#99A8AE" d="M22.514,25.613c2.348-1.4,6.561-1.57,8.229-0.617c0.354,0.191,0.26,1.203-0.049,1.078
	c-2.377-0.992-5.996-1.041-8.229,0.104C22.166,26.332,22.158,25.818,22.514,25.613z"/>
<path fill="#DBA97F" d="M37.23,36.148c0,2.102-6.463,2.102-6.463,0C30.768,35.666,37.23,35.666,37.23,36.148z"/>
<path fill="#FFFFFF" d="M45.258,29.875c-1.393,3.645-7.057,3.109-8.094,0.559C37.949,26.336,44.492,25.986,45.258,29.875z"/>
<path fill="#613F34" d="M38.582,29.479c0,3.229,4.668,3.229,4.668,0C43.25,26.482,38.582,26.482,38.582,29.479z"/>
<path fill="#7D5037" d="M39.043,30.512c0,1.852,3.746,1.852,3.746,0C42.789,28.793,39.043,28.793,39.043,30.512z"/>
<path fill="#1A1626" d="M39.947,29.529c0,1.34,1.939,1.34,1.939,0C41.887,28.287,39.947,28.287,39.947,29.529z"/>
<path fill="#AB968C" d="M39.285,29.139c0,0.676,0.979,0.676,0.979,0C40.264,28.51,39.285,28.51,39.285,29.139z"/>
<path fill="#45332C" d="M45.258,29.846c0-3.914-8.094-3.914-8.094,0.621C38.318,26.744,44.102,26.744,45.258,29.846z"/>
<path fill="#FFFFFF" d="M22.74,29.875c1.395,3.645,7.059,3.111,8.098,0.559C30.051,26.336,23.508,25.986,22.74,29.875z"/>
<path fill="#613F34" d="M24.748,29.484c0,3.227,4.668,3.227,4.668,0C29.416,26.486,24.748,26.486,24.748,29.484z"/>
<path fill="#7D5037" d="M25.209,30.516c0,1.852,3.746,1.852,3.746,0C28.955,28.799,25.209,28.799,25.209,30.516z"/>
<path fill="#1A1626" d="M26.113,29.535c0,1.34,1.938,1.34,1.938,0C28.051,28.291,26.113,28.291,26.113,29.535z"/>
<path fill="#AB968C" d="M25.451,29.143c0,0.678,0.979,0.678,0.979,0C26.43,28.514,25.451,28.514,25.451,29.143z"/>
<path fill="#45332C" d="M22.74,29.846c0-3.914,8.098-3.914,8.098,0.619C29.682,26.744,23.898,26.744,22.74,29.846z"/>
<path fill="#E6EBEF" d="M42.459,20.957c1.26,2.146,4.551,5.25,5.875,12.295c1.152,6.137,2.18,10.17,3.57-0.387
	c0.598-4.537,0.199-8.59-0.709-11.908H42.459z"/>
<path fill="#E6EBEF" d="M16.836,20.957c-1.137,3.828-1.414,8.58-0.381,14.357c1.707,9.527,1.307-1.986,2.762-5.283
	c3.027-4.41,10.277-6.369,15.012-9.074H16.836z"/>
<linearGradient id="SVGID_5_" gradientUnits="userSpaceOnUse" x1="33.9922" y1="31.4688" x2="33.9922" y2="24.293">
	<stop  offset="0.2788" style="stop-color:#1A1626;stop-opacity:0"/>
	<stop  offset="1" style="stop-color:#1A1626;stop-opacity:0.8"/>
	<a:midPointStop  offset="0.2788" style="stop-color:#1A1626;stop-opacity:0"/>
	<a:midPointStop  offset="0.6723" style="stop-color:#1A1626;stop-opacity:0"/>
	<a:midPointStop  offset="1" style="stop-color:#1A1626;stop-opacity:0.8"/>
</linearGradient>
<path fill="url(#SVGID_5_)" d="M59.393,28.141c-11.291,4.002-41.176,4.852-50.801,0.004C17.238,23.01,53.531,23.01,59.393,28.141z"
	/>
<path fill="#006DAE" d="M61,27.281C61,30.533,55.576,25,33.998,25c-21.574,0-27,5.533-27,2.281C6.998,16.025,61,16.025,61,27.281z"
	/>
<path fill="#006DAE" d="M45.625,15.488c0.168-3.02-5.205-5.309-4.373-8.465C41.656,5.496,44.123,4.471,42.994,2
	c-1.869,3.305-11.162,0-15.803,5.828c-3.713,2.186-11.516,11.822-8.154,15.182c7.066-1.203,21.148-1.686,29.936,0
	C52.264,19.719,46.813,16.012,45.625,15.488z"/>
<path opacity="0.2" fill="#013366" enable-background="new    " d="M42.994,2c1.332,3.121-4.215,3.961-4.518,7.922
	c1.396-2.223,2.99-0.629,2.746-1.678C40.623,5.574,44.342,4.996,42.994,2z"/>
<path opacity="0.2" fill="#013366" enable-background="new    " d="M44.053,12.27c0,0-9.701,0-19.742,5.949
	c6.965-2.145,16.574-3.945,21.314-2.729C45.906,14.121,44.053,12.27,44.053,12.27z"/>
<path opacity="0.2" fill="#013366" enable-background="new    " d="M46.688,18.219c0,0-3.443,0.762-13.002,2.855
	C41.467,16.98,46.688,18.219,46.688,18.219z"/>
<path fill="#DBA97F" d="M35.887,55.9c-1.063,0.623-1.889,2.045-1.889,2.045s-0.824-1.422-1.885-2.045
	c1.885,3.193,1.43,4.631,1.43,4.631h0.912C34.455,60.531,33.998,58.895,35.887,55.9z"/>
<path fill="#F59E01" d="M28.406,59.637c0,1.334-2,1.334-2,0S28.406,58.303,28.406,59.637z"/>
<path fill="#F59E01" d="M41.594,59.637c0,1.334-2,1.334-2,0S41.594,58.303,41.594,59.637z"/>
<path fill="#F9B700" d="M40.877,60.135c-4.512,1.158-9.242,1.158-13.754,0c0.098-0.379,0.195-0.76,0.293-1.141
	c4.32,1.109,8.848,1.109,13.168,0C40.682,59.375,40.779,59.756,40.877,60.135z"/>
</svg>
