<?xml version="1.0" encoding="utf-8"?>
<!-- Generator: Adobe Illustrator 15.0.0, SVG Export Plug-In . SVG Version: 6.00 Build 0)  -->
<!DOCTYPE svg PUBLIC "-//W3C//DTD SVG 1.1//EN" "http://www.w3.org/Graphics/SVG/1.1/DTD/svg11.dtd" [
	<!ENTITY ns_flows "http://ns.adobe.com/Flows/1.0/">
	<!ENTITY ns_extend "http://ns.adobe.com/Extensibility/1.0/">
	<!ENTITY ns_ai "http://ns.adobe.com/AdobeIllustrator/10.0/">
	<!ENTITY ns_graphs "http://ns.adobe.com/Graphs/1.0/">
]>
<svg version="1.1" id="Layer_1" xmlns:x="&ns_extend;" xmlns:i="&ns_ai;" xmlns:graph="&ns_graphs;"
	 xmlns="http://www.w3.org/2000/svg" xmlns:xlink="http://www.w3.org/1999/xlink" xmlns:a="http://ns.adobe.com/AdobeSVGViewerExtensions/3.0/"
	 x="0px" y="0px" width="64px" height="64px" viewBox="0 0 64 64" enable-background="new 0 0 64 64" xml:space="preserve">
<path opacity="0.15" fill="#A6AEB0" d="M2,61.999h60V28.306c-24.664,9.24-39.113-8.316-60,0V61.999z"/>
<path opacity="0.15" fill="#A6AEB0" d="M62,61.999H2V38.427c24.666,8.539,39.115-7.688,60,0V61.999z"/>
<path fill="#947D41" d="M19.076,13.401c-8.711,37.396-7.914,36.596,10.426,36.596C19.354,42.896,38.795,12.894,19.076,13.401z"/>
<path fill="#BA9D52" d="M15.934,12.823c-6.357,28.41-0.871,35.709,3.998,37.174h5.584C12.453,40.794,32.869,12.265,15.934,12.823z"
	/>
<path fill="#947D41" d="M44.709,13.401c8.713,37.396,7.916,36.596-10.424,36.596C43.617,44.296,24.99,12.892,44.709,13.401z"/>
<path fill="#BA9D52" d="M47.85,12.821c9.295,25.848-0.02,35.979-3.998,37.176h-5.578C51.334,41.544,30.918,12.263,47.85,12.821z"/>
<path fill="#E3C19B" d="M24.982,48.868c0,5.754,14.035,5.754,14.035,0c0-3.514,0-5.318,0-5.318H24.982
	C24.982,43.55,24.982,44.333,24.982,48.868z"/>
<path fill="#D6A67A" d="M24.801,44.292c6.543,6.738,7.857,6.732,14.398-0.004L24.801,44.292z"/>
<path fill="#E3C19B" d="M32,4.416c-11.609,0-17.201,9.454-16.502,21.608c0.143,2.443,0.822,5.969,1.662,8.988
	C18.9,41.29,28.088,47.614,32,47.614s13.1-6.324,14.84-12.602c0.84-3.02,1.52-6.545,1.664-8.988C49.201,13.87,43.611,4.416,32,4.416
	z"/>
<path fill="#FFFFFF" d="M44.543,26.354c-1.553,4.061-7.861,3.465-9.018,0.623C36.4,22.413,43.689,22.022,44.543,26.354z"/>
<path fill="#FFFFFF" d="M19.461,26.354c1.551,4.061,7.861,3.467,9.02,0.623C27.604,22.413,20.314,22.022,19.461,26.354z"/>
<path fill="#C97E55" d="M32.002,37.585c-2.822-1.24-2.844-0.051-7.201,0.242c1.637,1.855,2.84,4.244,7.199,4.244
	c5.002,0,5.848-2.711,7.201-4.244C34.842,37.534,34.824,36.345,32.002,37.585z"/>
<path fill="#FFFFFF" d="M26.109,38.29c2.844,2.959,8.977,2.92,11.783,0C33.516,38.761,30.488,38.761,26.109,38.29z"/>
<path fill="#594640" d="M44.795,21.608c-2.617-1.561-7.307-1.75-9.164-0.688c-0.395,0.213-0.287,1.34,0.053,1.199
	c2.648-1.104,6.68-1.158,9.166,0.117C45.184,22.407,45.189,21.835,44.795,21.608z"/>
<path fill="#594640" d="M19.207,21.608c2.617-1.561,7.307-1.75,9.168-0.688c0.393,0.213,0.287,1.34-0.055,1.199
	c-2.648-1.104-6.68-1.158-9.168,0.117C18.818,22.407,18.813,21.835,19.207,21.608z"/>
<path fill="#D6A67A" d="M35.602,33.343c0,2.342-7.201,2.342-7.201,0C28.4,32.806,35.602,32.806,35.602,33.343z"/>
<path fill="#EFDE8B" d="M44.973,6.104c-8.139,8.34-0.371,8.879,4.424,20.605c2.693,6.572,0.029,20.061-5.545,23.287
	c6.178,0,9.939-8.551,11.775-20.311C57.918,14.991,49.109,4.879,44.973,6.104z"/>
<path fill="#EFDE8B" d="M24.99,2.912C14.668,5.342,5.045,14.46,8.852,32.413c2.25,10.613,5.018,17.584,11.08,17.584
	c-6.758-7-5.963-21.762-4.043-25.434c9.793-5.828,26.539-10.24,29.084-18.459C46.266,4.209,35.32,0.205,24.99,2.912z"/>
<path fill="#BA9D52" d="M17.082,15.985c4.365-0.885,25.248-1.301,27.891-9.881C40.037,10.038,34.924,11.11,17.082,15.985z"/>
<path fill="#BA9D52" d="M9.555,29.634c7.324-9.773,31.314-8.695,35.418-23.529C37.008,18.556,11.557,20.239,9.555,29.634z"/>
<path fill="#BA9D52" d="M42.559,8.14c-1.889,2.977,4.678-1.398,11.758,17.783C52.57,14.708,46.59,6.987,42.559,8.14z"/>
<path fill="#613F34" d="M37.107,25.913c0,3.596,5.199,3.596,5.199,0C42.307,22.575,37.107,22.575,37.107,25.913z"/>
<path fill="#7D5037" d="M37.619,27.063c0,2.063,4.172,2.063,4.172,0C41.791,25.149,37.619,25.149,37.619,27.063z"/>
<path fill="#1A1626" d="M38.627,25.97c0,1.492,2.16,1.492,2.16,0C40.787,24.585,38.627,24.585,38.627,25.97z"/>
<path fill="#AB968C" d="M37.889,25.534c0,0.754,1.09,0.754,1.09,0C38.979,24.835,37.889,24.835,37.889,25.534z"/>
<path fill="#613F34" d="M21.695,25.919c0,3.596,5.201,3.596,5.201,0C26.896,22.581,21.695,22.581,21.695,25.919z"/>
<path fill="#7D5037" d="M22.211,27.069c0,2.063,4.172,2.063,4.172,0C26.383,25.155,22.211,25.155,22.211,27.069z"/>
<path fill="#1A1626" d="M23.217,25.976c0,1.492,2.158,1.492,2.158,0C25.375,24.591,23.217,24.591,23.217,25.976z"/>
<path fill="#AB968C" d="M22.48,25.54c0,0.754,1.09,0.754,1.09,0C23.57,24.839,22.48,24.839,22.48,25.54z"/>
<path fill="#45332C" d="M44.543,26.323c0-4.361-9.018-4.361-9.018,0.691C36.811,22.868,43.254,22.868,44.543,26.323z"/>
<path fill="#45332C" d="M19.461,26.323c0-4.361,9.02-4.361,9.02,0.689C27.191,22.868,20.748,22.868,19.461,26.323z"/>
<path fill="#E3C19B" d="M12.256,52.378c2.4-1.42,13.365-5.166,13.365-5.166c3.531,3.727,9.301,3.727,12.832,0
	c0,0,10.953,3.74,13.344,5.162C55.268,54.44,56,61.999,56,61.999H8C8,61.999,8.773,54.433,12.256,52.378z"/>
<path fill="#A0D8E9" d="M23.211,61.999H49c0,0-0.318-4.139-4.029-4.092C21.666,58.187,23.211,61.999,23.211,61.999z"/>
<path fill="#CAE8F0" d="M33.949,58.31c-11.977-0.023-10.279-0.391-14.918-0.402C15.318,57.896,15,61.999,15,61.999h25.791
	C40.791,61.999,39.928,58.323,33.949,58.31z"/>
<path opacity="0.2" fill="#A6AEB0" d="M62,61.999H2V48.546c24.031-7.938,37.939,8.666,60,0V61.999z"/>
</svg>
