<?xml version="1.0" encoding="utf-8"?>
<!-- Generator: Adobe Illustrator 15.0.0, SVG Export Plug-In . SVG Version: 6.00 Build 0)  -->
<!DOCTYPE svg PUBLIC "-//W3C//DTD SVG 1.1//EN" "http://www.w3.org/Graphics/SVG/1.1/DTD/svg11.dtd" [
	<!ENTITY ns_flows "http://ns.adobe.com/Flows/1.0/">
	<!ENTITY ns_extend "http://ns.adobe.com/Extensibility/1.0/">
	<!ENTITY ns_ai "http://ns.adobe.com/AdobeIllustrator/10.0/">
	<!ENTITY ns_graphs "http://ns.adobe.com/Graphs/1.0/">
]>
<svg version="1.1" id="Layer_1" xmlns:x="&ns_extend;" xmlns:i="&ns_ai;" xmlns:graph="&ns_graphs;"
	 xmlns="http://www.w3.org/2000/svg" xmlns:xlink="http://www.w3.org/1999/xlink" xmlns:a="http://ns.adobe.com/AdobeSVGViewerExtensions/3.0/"
	 x="0px" y="0px" width="64px" height="64px" viewBox="0 0 64 64" enable-background="new 0 0 64 64" xml:space="preserve">
<path fill="#CFB79D" d="M59.099,32.593c-0.121-0.088-6.521,1.365-7.498,0.474c-0.646-5.224,2.012-11.98,4.488-15.666
	c0.076-0.115,0.025-0.143-0.018-0.186c-0.654-0.631-0.979-1.055-0.979-1.055c-3.434,2.68-16.102,3.355-17.154-1.344
	c-0.627-2.797,2.641-3.18,2.988-5.564c0.264-1.799-0.953-4.117-2.5-5.279C33.214,17.677,21.415,19.845,6.45,24.72
	c0.418,1.336,1.361,2.404,2.027,2.383c0.766-0.025,3.656-2.674,5.736-2.289C25.179,38.835,2.751,52.999,2.751,52.999
	c8.738,5.709,18.535,5.525,18.92,3.77c0.416-1.908-2.979-3.242-1.123-7.045c1.541-3.166,6.502-3.701,9.717-1.727
	c5.303-0.387,4.584,9.852-1.354,10.559c2.043,2.873,13.242,3.984,19.441,3.199c0.236-0.031,0.271-0.211,0.219-0.393
	c-2.684-9.143-1.117-17.193,2.342-17.578c2.313-0.26,3.064,3.1,6.422,2.625C62.356,45.7,63.894,36.011,59.099,32.593z"/>
<g>
	<defs>
		<path id="SVGID_1_" d="M55.069,16.298c-3.643,5.516-7.154,18.433-2.689,16.414c11.395-5.164,10.852,11.681,3.797,12.677
			c-3.355,0.473-4.107-2.887-6.42-2.627c-3.461,0.387-5.205,8.664-2.521,17.809c0.068,0.232-0.023,0.367-0.242,0.395
			c-6.4,0.838-17.541-0.559-18.252-2.709c-0.691-2.092,4.146-2.092,3.512-6.166c-1.1-7.086-10.258-7.342-12.527-2.684
			c-1.855,3.803,1.438,4.576,1.021,6.484c-0.379,1.738-8.723,2.434-17.904-2.828c-0.199-0.113-0.297-0.311-0.313-0.418
			c-1.803-13.303,1.426-18.668,3.156-18.76c2.49-0.133,3.031,3.504,5.971,2.854c2.32-0.514,4.041-4.191,3.934-6.384
			c-0.523-10.684-7.004-3.816-8.004-4.074c-1.596-0.41-3.832-7.799,2.818-17.553c0.055-0.08,0.369-0.164,0.479-0.123
			c5.021,1.908,18.85,7.201,16.326,2.371C21.03-0.84,41.433-0.252,40.165,8.441c-0.324,2.242-3.346,2.699-3.145,5.072
			c0.445,5.178,13.869,3.162,17.85,2.623C55.022,16.117,55.183,16.126,55.069,16.298z"/>
	</defs>
	<clipPath id="SVGID_2_">
		<use xlink:href="#SVGID_1_"  overflow="visible"/>
	</clipPath>
	
		<radialGradient id="SVGID_3_" cx="-95.1982" cy="171.6055" r="31.0661" gradientTransform="matrix(0.9797 0.2006 -0.2006 0.9797 160.8907 -116.1503)" gradientUnits="userSpaceOnUse">
		<stop  offset="0" style="stop-color:#FFAA00"/>
		<stop  offset="0.3422" style="stop-color:#FFA700"/>
		<stop  offset="0.5973" style="stop-color:#FF9D00"/>
		<stop  offset="0.8234" style="stop-color:#FF8D00"/>
		<stop  offset="1" style="stop-color:#FF7B00"/>
		<a:midPointStop  offset="0" style="stop-color:#FFAA00"/>
		<a:midPointStop  offset="0.7636" style="stop-color:#FFAA00"/>
		<a:midPointStop  offset="1" style="stop-color:#FF7B00"/>
	</radialGradient>
	<polygon clip-path="url(#SVGID_2_)" fill="url(#SVGID_3_)" points="9.756,-3.536 68.092,8.412 61.522,40.495 3.186,28.548 	"/>
	
		<linearGradient id="SVGID_4_" gradientUnits="userSpaceOnUse" x1="-95.6938" y1="186.3008" x2="-95.6938" y2="160.4971" gradientTransform="matrix(0.9797 0.2006 -0.2006 0.9797 160.8907 -116.1503)">
		<stop  offset="0" style="stop-color:#FFB700"/>
		<stop  offset="0.2854" style="stop-color:#FFC700"/>
		<stop  offset="0.619" style="stop-color:#FFD200"/>
		<stop  offset="1" style="stop-color:#FFD500"/>
		<a:midPointStop  offset="0" style="stop-color:#FFB700"/>
		<a:midPointStop  offset="0.2667" style="stop-color:#FFB700"/>
		<a:midPointStop  offset="1" style="stop-color:#FFD500"/>
	</linearGradient>
	<path clip-path="url(#SVGID_2_)" fill="url(#SVGID_4_)" d="M34.943,21.884c6.979,1.429,11.479,8.247,10.05,15.226
		c-1.43,6.979-8.248,11.481-15.229,10.053c-6.979-1.432-11.479-8.249-10.049-15.229C21.145,24.955,27.961,20.455,34.943,21.884z"/>
	
		<radialGradient id="SVGID_5_" cx="-95.3223" cy="170.2705" r="50.1439" gradientTransform="matrix(0.9797 0.2006 -0.1329 0.6489 149.3565 -59.8281)" gradientUnits="userSpaceOnUse">
		<stop  offset="0.0606" style="stop-color:#FEE29A"/>
		<stop  offset="0.0976" style="stop-color:#F8E09C"/>
		<stop  offset="0.1479" style="stop-color:#E6DAA1"/>
		<stop  offset="0.2058" style="stop-color:#CACFAA"/>
		<stop  offset="0.2694" style="stop-color:#A2C1B6"/>
		<stop  offset="0.3378" style="stop-color:#6FAFC6"/>
		<stop  offset="0.4089" style="stop-color:#3199D9"/>
		<stop  offset="0.4606" style="stop-color:#0087E8"/>
		<stop  offset="1" style="stop-color:#004C78"/>
		<a:midPointStop  offset="0.0606" style="stop-color:#FEE29A"/>
		<a:midPointStop  offset="0.6418" style="stop-color:#FEE29A"/>
		<a:midPointStop  offset="0.4606" style="stop-color:#0087E8"/>
		<a:midPointStop  offset="0.4944" style="stop-color:#0087E8"/>
		<a:midPointStop  offset="1" style="stop-color:#004C78"/>
	</radialGradient>
	<polygon clip-path="url(#SVGID_2_)" fill="url(#SVGID_5_)" points="3.186,28.548 61.522,40.495 56.146,66.747 -2.19,54.8 	"/>
	<path opacity="0.7" clip-path="url(#SVGID_2_)" fill="#FEEC9A" d="M26.476,48.388c-0.335,1.641,5.834,1.193,5.834,1.193
		S26.812,46.747,26.476,48.388z"/>
	<path opacity="0.7" clip-path="url(#SVGID_2_)" fill="#FEEC9A" d="M24.885,45.023c0,0,9.874,3.729,10.21,2.09
		C35.429,45.473,24.885,45.023,24.885,45.023z"/>
	<path opacity="0.7" clip-path="url(#SVGID_2_)" fill="#FEEC9A" d="M31.896,44.181c0,0,6.955,3.133,7.291,1.491
		C39.523,44.032,31.896,44.181,31.896,44.181z"/>
	<path opacity="0.7" clip-path="url(#SVGID_2_)" fill="#FEEC9A" d="M43.448,39.706c0,0-22.662-8.058-23.334-4.776
		C19.442,38.211,43.448,39.706,43.448,39.706z"/>
	<path opacity="0.7" clip-path="url(#SVGID_2_)" fill="#FEEC9A" d="M22.283,39.173c0,0,18.288,7.163,18.96,3.882
		C41.916,39.772,22.283,39.173,22.283,39.173z"/>
	<path opacity="0.7" clip-path="url(#SVGID_2_)" fill="#FEEC9A" d="M21.687,42.09c-0.335,1.64,8.752,1.79,8.752,1.79
		S22.022,40.448,21.687,42.09z"/>
	<path clip-path="url(#SVGID_2_)" fill="#F9B700" d="M9.671,19.769c2.357-0.763,4.806-1.887,7.701-0.835
		c3.324,1.211,4.771,2.196,6.902,1.095c2.131-1.103,2.965,2.414,5.355,3.521c2.391,1.104,7.89,2.71,4.608,2.392
		c-4.063-0.397-29.237-4.554-27.919-5.72C6.776,19.821,8.353,20.195,9.671,19.769z"/>
	<path clip-path="url(#SVGID_2_)" fill="#F9B700" d="M56.507,35.445c-1.559-0.87-3.098-1.909-5.492-2.192
		c-2.75-0.33-4.057-0.292-5.365-1.242c-1.309-0.95-2.778,0.231-4.814,0.088c-2.034-0.144-6.488-0.842-3.985-0.172
		c3.1,0.827,22.717,5.287,22.023,4.509C58.633,36.167,57.377,35.931,56.507,35.445z"/>
	<path clip-path="url(#SVGID_2_)" fill="#F9B700" d="M25.653,29.485c0.93-1.044,2.167-1.091,2.933-0.083
		c-0.176-1.318-1.967-1.748-2.763-0.757c-0.336-1.227-2.156-1.535-2.838-0.393C24.087,27.625,25.211,28.159,25.653,29.485z"/>
	<path clip-path="url(#SVGID_2_)" fill="#F9B700" d="M22.548,30.384c0.562-0.627,1.307-0.656,1.768-0.05
		c-0.108-0.793-1.186-1.051-1.665-0.456c-0.2-0.734-1.295-0.923-1.704-0.235C21.607,29.267,22.282,29.586,22.548,30.384z"/>
	<path clip-path="url(#SVGID_2_)" fill="#F9B700" d="M28.181,31.382c0.367-0.41,0.854-0.428,1.154-0.032
		c-0.069-0.518-0.773-0.687-1.087-0.297c-0.132-0.482-0.845-0.604-1.112-0.155C27.567,30.652,28.008,30.861,28.181,31.382z"/>
	<path clip-path="url(#SVGID_2_)" fill="#FFE463" d="M18.002,26.952c0.502-0.561,1.168-0.587,1.58-0.044
		c-0.096-0.71-1.06-0.941-1.487-0.408c-0.182-0.66-1.162-0.827-1.528-0.212C17.158,25.951,17.766,26.236,18.002,26.952z"/>
	<path clip-path="url(#SVGID_2_)" fill="#FFE463" d="M18.941,28.501c0.317-0.355,0.741-0.371,1.003-0.027
		c-0.061-0.449-0.673-0.596-0.944-0.258c-0.113-0.418-0.736-0.525-0.97-0.134C18.406,27.868,18.79,28.048,18.941,28.501z"/>
</g>
</svg>
