<?xml version="1.0" encoding="utf-8"?>
<!-- Generator: Adobe Illustrator 15.0.0, SVG Export Plug-In . SVG Version: 6.00 Build 0)  -->
<!DOCTYPE svg PUBLIC "-//W3C//DTD SVG 1.1//EN" "http://www.w3.org/Graphics/SVG/1.1/DTD/svg11.dtd">
<svg version="1.1" id="Layer_1" xmlns="http://www.w3.org/2000/svg" xmlns:xlink="http://www.w3.org/1999/xlink" x="0px" y="0px"
	 width="64px" height="64px" viewBox="0 0 64 64" enable-background="new 0 0 64 64" xml:space="preserve">
<path fill="#013D6B" d="M34.899,54.994c-0.536,2.03-1.461,4.156-1.461,4.156l1.371,0.427c0,0,0.877-1.767,1.554-4.382
	C36.397,55.066,34.986,54.669,34.899,54.994z"/>
<path fill="#013D6B" d="M31.814,58.893l-1.367-0.423c1.507-3.064,1.926-5.028,2.387-8.273l1.478,0.066
	C33.832,53.632,33.376,55.716,31.814,58.893z"/>
<path fill="#013D6B" d="M28.877,57.895l-1.365-0.424c1.507-3.063,2.137-5.477,2.6-8.721l1.476,0.066
	C31.108,52.185,30.44,54.717,28.877,57.895z"/>
<path fill="#A30505" d="M36.526,54.489c0.845-4.056,2.324-17.368-0.388-39.562c-1.227-4.974-17.96,29.307-19.204,33.896
	C16.772,49.42,36.469,54.768,36.526,54.489z"/>
<path fill="#014D87" d="M27.733,53.686c2.418,0.566,5.279,1.096,8.628,1.51c0.195-0.66,0.342-1.432,0.498-2.65
	C31.587,54.5,28.668,47.973,27.733,53.686z"/>
<path fill="#014D87" d="M25.875,55.928c-0.953,1.871-2.107,3.664-3.451,5.365L23.674,62c1.4-1.762,2.375-3.152,3.59-5.564
	C27.324,56.316,26.029,55.629,25.875,55.928z"/>
<path fill="#014D87" d="M21.207,60.172l-1.246-0.703c2.121-2.676,3.773-5.592,4.91-8.666l1.43,0.377
	C25.119,54.371,23.406,57.396,21.207,60.172z"/>
<path fill="#014D87" d="M18.85,58.182l-1.244-0.703c2.121-2.676,3.771-5.592,4.91-8.666l1.428,0.377
	C22.764,52.381,21.051,55.406,18.85,58.182z"/>
<path fill="#014D87" d="M14.137,54.783l-1.246-0.703c2.121-2.676,3.773-5.592,4.91-8.666l1.43,0.377
	C18.049,48.982,16.336,52.008,14.137,54.783z"/>
<path fill="#014D87" d="M11.332,52.793l-1.244-0.703c2.119-2.676,3.77-5.592,4.908-8.668l1.43,0.379
	C15.246,46.992,13.531,50.018,11.332,52.793z"/>
<path fill="#014D87" d="M16.492,56.191l-1.244-0.703c2.121-2.676,3.771-5.592,4.91-8.668l1.43,0.379
	C20.406,50.391,18.693,53.414,16.492,56.191z"/>
<path fill="#014D87" d="M8.232,50.803L7,50.082c1.086-1.52,1.621-2.344,2.227-3.27l1.988-0.832
	C10.455,47.691,9.453,49.313,8.232,50.803z"/>
<path fill="#C21413" d="M15.432,13.833c12.262,0.834,11.572,4.238,20.129,3.197c6.002-0.732,14.104-6.291,20.484-6.24
	c1.084,0.01,1.299-1.477,0.365-1.939l-0.016-0.008c0.279-0.451,0.236-2.387-0.717-3.418c0.283-2.42-1.789-3.639-2.725-3.395
	C36.85,6.8,30.523,5.9,17.605,4.023c-2.291-0.096-2.592,2.775-2.256,3.428C14.838,7.898,12.229,13.57,15.432,13.833z"/>
<path fill="#E81C27" d="M27.572,55.779c1.684-3.785,5.943-16.484,7.984-38.75c-0.148-5.121-0.908-5.746,0.547-11.424
	c0-1.121-2.238-2.152-4.121-2.043c-0.299,0.018-3.807,0.377-4.764,0.135c-2.398-0.609-4.379,0.65-4.475,1.699
	c-3.018,6.711-0.268,7.822-1.285,11.633c-1.646,8.215-9.51,24.575-11.695,28.797C9.479,46.375,27.457,56.039,27.572,55.779z"/>
<path fill="#A30505" d="M35.783,13.97c5.465,2.221,14.088-6.098,20.611-5.125C49.383,5.638,42.092,14.853,35.783,13.97z"/>
<path fill="#A30505" d="M55.682,5.427C48.607,4.892,47.152,7.63,43.277,7.64C45.557,5.357,52.609,3.089,55.682,5.427z"/>
<path fill="#A30505" d="M15.35,7.451c1.656,0.016,3.939,0.469,5.447,1.094C19.264,8.882,16.576,8.373,15.35,7.451z"/>
<path fill="#C21413" d="M27.326,15.193c0.072-1.186,0.068-8.697,0.883-11.172C24.176,8.673,27.326,15.193,27.326,15.193z"/>
<path fill="#C21413" d="M35.561,17.031c-7.406,0.588-12.508,0.553-13.887-2.369c0.055,0.711,0.029,1.463-0.213,2.367
	C23.496,19.605,35.539,19.529,35.561,17.031z"/>
<path fill="#006DAE" d="M24.674,53.789c-2.453,0,0.297-4.379-5.643-2.736c-0.574,0.16-1.193-0.105-1.367-0.594
	c-0.447-1.285-1.355-3.453-2.418-3.639C13.73,46.559,9.93,46.732,9.621,46.1c-0.205,0.391-0.344,0.637-0.395,0.713
	c0,0,4.498,4.895,18.035,9.621c0.33-0.604,0.637-1.326,1.047-2.484C27.41,54.09,25.498,53.789,24.674,53.789z"/>
<path fill="#FFE1BD" d="M28.311,53.949c0.152-0.324,0.236-0.617,0.357-0.982c-1.078,0.102-2.039,0.824-3.127,0.676
	c-1.102-0.152-1.391-1.773-1.863-2.461c-0.703-1.027-1.768-1.186-3.09-1.012c-0.996,0.131-2.295,0.672-2.951-0.215
	c-0.615-0.832-0.52-1.953-1.244-2.744c-0.807-0.881-2.266-0.777-3.438-0.725c-1.029,0.045-2.955-0.395-2.42-2.186
	c-0.408,0.732-0.703,1.35-0.914,1.799l0,0c0.963,2.316,4.039,1.156,5.154,1.404c1.039,0.229,1.1,1.262,1.385,2.004
	c0.307,0.803,0.752,1.654,1.807,1.885c1.227,0.271,2.422-0.391,3.645-0.309c2.107,0.139,1.379,3.553,3.969,3.553
	C26.402,54.639,27.41,54.09,28.311,53.949L28.311,53.949z"/>
<path fill="#006DAE" d="M25.688,48.342c-0.744-1.027-1.869-1.188-3.27-1.012c-1.055,0.131-2.426,0.672-3.121-0.215
	c-0.652-0.832-0.551-1.951-1.316-2.742c-0.854-0.881-2.396-0.777-3.637-0.727c-1.088,0.045-2.98-0.262-2.418-2.195
	c-0.354,0.736-0.711,1.326-0.982,2.021c1.064,2.104,4.146,0.945,5.326,1.191c1.096,0.229,1.162,1.262,1.461,2.006
	c0.326,0.803,0.799,1.652,1.914,1.885c1.299,0.27,2.564-0.391,3.855-0.311c2.23,0.141,1.395,5.17,5.666,3.244
	c0.123-0.322,0.221-0.621,0.316-0.99C26.639,52.068,26.188,49.029,25.688,48.342z"/>
<path fill="#FFE1BD" d="M26.93,45.355c-0.412-1.135-1.768-1.186-3.09-1.012c-0.996,0.131-2.295,0.674-2.949-0.215
	c-0.615-0.832-0.52-1.951-1.246-2.742c-0.807-0.881-2.266-0.777-3.438-0.727c-1.029,0.045-3.094-0.479-2.383-3.266
	c-0.432,0.82-0.793,1.547-1.111,2.396c0.143,0.826,0.947,1.619,1.893,1.832c1.115,0.248,2.307-0.191,3.424,0.057
	c1.037,0.229,1.098,1.262,1.383,2.006c0.305,0.803,0.754,1.652,1.807,1.885c1.225,0.271,2.422-0.393,3.645-0.311
	c2.109,0.139,0.99,4.816,5.205,3.293c0.09-0.318,0.182-0.643,0.273-0.977C29.836,47.748,28.135,48.688,26.93,45.355z"/>
<path fill="#C21413" d="M31.422,18.294c0,6.459-3.113,10.637-8.795,17.727c2.219-5.161,5.23-11.167,5.23-17.625
	C27.857,17.125,31.422,17.021,31.422,18.294z"/>
<path fill="#C21413" d="M26.637,18.537c-1.176,5.27-2.615,8.055-5.236,11.283c2.543-4.746,2.623-7.482,3.107-11.488
	C24.609,17.496,26.82,17.71,26.637,18.537z"/>
</svg>
