<?xml version="1.0" encoding="utf-8"?>
<!-- Generator: Adobe Illustrator 15.0.0, SVG Export Plug-In . SVG Version: 6.00 Build 0)  -->
<!DOCTYPE svg PUBLIC "-//W3C//DTD SVG 1.1//EN" "http://www.w3.org/Graphics/SVG/1.1/DTD/svg11.dtd" [
	<!ENTITY ns_flows "http://ns.adobe.com/Flows/1.0/">
	<!ENTITY ns_extend "http://ns.adobe.com/Extensibility/1.0/">
	<!ENTITY ns_ai "http://ns.adobe.com/AdobeIllustrator/10.0/">
	<!ENTITY ns_graphs "http://ns.adobe.com/Graphs/1.0/">
]>
<svg version="1.1" id="Layer_1" xmlns:x="&ns_extend;" xmlns:i="&ns_ai;" xmlns:graph="&ns_graphs;"
	 xmlns="http://www.w3.org/2000/svg" xmlns:xlink="http://www.w3.org/1999/xlink" xmlns:a="http://ns.adobe.com/AdobeSVGViewerExtensions/3.0/"
	 x="0px" y="0px" width="64px" height="64px" viewBox="0 0 64 64" enable-background="new 0 0 64 64" xml:space="preserve">
<linearGradient id="SVGID_1_" gradientUnits="userSpaceOnUse" x1="32.0005" y1="50.0957" x2="32.0005" y2="13.9048">
	<stop  offset="0" style="stop-color:#D9F5FF"/>
	<stop  offset="1" style="stop-color:#FFFFFF"/>
	<a:midPointStop  offset="0" style="stop-color:#D9F5FF"/>
	<a:midPointStop  offset="0.5152" style="stop-color:#D9F5FF"/>
	<a:midPointStop  offset="1" style="stop-color:#FFFFFF"/>
</linearGradient>
<path fill="url(#SVGID_1_)" d="M13.994,50.096c-1.065,0-2.122-0.16-3.138-0.484c-4.099-1.29-6.855-4.924-6.855-9.039
	c0-2.746,1.252-5.36,3.427-7.172c0.565-0.471,1.174-0.874,1.829-1.209l-0.033-0.004l0.665-2.203c1.653-5.5,6.998-9.34,12.997-9.34
	c0.599,0,1.213,0.046,1.933,0.144c0.55,0.076,1.094,0.181,1.626,0.32l0.263-0.457c2.422-4.161,7.025-6.747,12.009-6.747
	c7.568,0,13.725,5.868,13.725,13.08c0,0.355-0.023,0.697-0.056,1.043l-0.018,0.255c0.581,0.211,1.148,0.472,1.7,0.774
	C57.725,31.065,60,34.809,60,38.819c0,5.283-3.772,9.802-9.174,10.981c-0.883,0.195-1.778,0.295-2.654,0.295H13.994z"/>
<linearGradient id="SVGID_2_" gradientUnits="userSpaceOnUse" x1="32.0005" y1="52" x2="32.0005" y2="12.0005">
	<stop  offset="0" style="stop-color:#8FBACC"/>
	<stop  offset="0.2558" style="stop-color:#9CC6D8"/>
	<stop  offset="0.6633" style="stop-color:#ABD4E6"/>
	<stop  offset="1" style="stop-color:#B0D9EB"/>
	<a:midPointStop  offset="0" style="stop-color:#8FBACC"/>
	<a:midPointStop  offset="0.3333" style="stop-color:#8FBACC"/>
	<a:midPointStop  offset="1" style="stop-color:#B0D9EB"/>
</linearGradient>
<path fill="url(#SVGID_2_)" d="M38.716,15.809c6.475,0,11.724,5.004,11.724,11.176c0,0.303-0.023,0.595-0.049,0.887
	c-2.707,0.2-5.171,1.229-7.107,2.83c1.44-0.789,3.105-1.246,4.887-1.246c0.658,0,1.302,0.063,1.927,0.179
	c1.061,0.202,2.06,0.571,2.969,1.073C56.015,32.324,58,35.347,58,38.819c0,4.448-3.257,8.171-7.621,9.126
	c-0.711,0.156-1.447,0.248-2.207,0.248H48.17H13.994l0,0c-0.874,0-1.718-0.141-2.505-0.392c-3.187-0.999-5.485-3.856-5.485-7.229
	c0-2.294,1.061-4.344,2.74-5.738c0.763-0.633,1.646-1.127,2.62-1.454c0.823-0.271,1.708-0.429,2.63-0.429
	c2.578,0,4.863,1.166,6.326,2.973h0.075c-1.698-2.978-4.871-5.079-8.587-5.415c1.383-4.593,5.814-7.96,11.077-7.96
	c0.563,0,1.108,0.051,1.647,0.125c1.071,0.148,2.088,0.427,3.042,0.83c3.546,1.508,6.136,4.669,6.713,8.454
	c0-0.021,0.003-0.044,0.003-0.064c0-4.312-2.321-8.106-5.837-10.319C30.459,18.14,34.297,15.809,38.716,15.809 M38.716,12
	c-5.392,0-10.396,2.641-13.275,6.951c-0.109-0.019-0.221-0.033-0.333-0.049c-0.824-0.111-1.527-0.162-2.222-0.162
	c-6.885,0-13.021,4.406-14.92,10.72l-0.455,1.503c-0.489,0.299-0.958,0.636-1.4,1.005C3.501,34.139,2,37.274,2,40.572
	c0,4.94,3.31,9.299,8.234,10.848c1.21,0.385,2.478,0.58,3.76,0.58H48.17c1.029,0,2.076-0.113,3.111-0.344
	C57.592,50.274,62,44.998,62,38.819c0-4.692-2.656-9.067-6.934-11.416c-0.206-0.111-0.416-0.221-0.627-0.323c0-0.032,0-0.06,0-0.096
	C54.439,18.723,47.384,12,38.716,12L38.716,12z"/>
</svg>
