<?xml version="1.0" encoding="utf-8"?>
<!-- Generator: Adobe Illustrator 15.0.0, SVG Export Plug-In . SVG Version: 6.00 Build 0)  -->
<!DOCTYPE svg PUBLIC "-//W3C//DTD SVG 1.1//EN" "http://www.w3.org/Graphics/SVG/1.1/DTD/svg11.dtd" [
	<!ENTITY ns_flows "http://ns.adobe.com/Flows/1.0/">
	<!ENTITY ns_extend "http://ns.adobe.com/Extensibility/1.0/">
	<!ENTITY ns_ai "http://ns.adobe.com/AdobeIllustrator/10.0/">
	<!ENTITY ns_graphs "http://ns.adobe.com/Graphs/1.0/">
]>
<svg version="1.1" id="Layer_1" xmlns:x="&ns_extend;" xmlns:i="&ns_ai;" xmlns:graph="&ns_graphs;"
	 xmlns="http://www.w3.org/2000/svg" xmlns:xlink="http://www.w3.org/1999/xlink" xmlns:a="http://ns.adobe.com/AdobeSVGViewerExtensions/3.0/"
	 x="0px" y="0px" width="64px" height="64px" viewBox="0 0 64 64" enable-background="new 0 0 64 64" xml:space="preserve">
<radialGradient id="SVGID_1_" cx="29.4736" cy="72.418" r="18.2596" gradientTransform="matrix(1 0 0 1.0597 0 -33.9715)" gradientUnits="userSpaceOnUse">
	<stop  offset="0" style="stop-color:#FFFFFF"/>
	<stop  offset="0.2711" style="stop-color:#FBFBFC"/>
	<stop  offset="0.5561" style="stop-color:#EEF1F3"/>
	<stop  offset="0.8466" style="stop-color:#D9E0E5"/>
	<stop  offset="1" style="stop-color:#CBD4DB"/>
	<a:midPointStop  offset="0" style="stop-color:#FFFFFF"/>
	<a:midPointStop  offset="0.697" style="stop-color:#FFFFFF"/>
	<a:midPointStop  offset="1" style="stop-color:#CBD4DB"/>
</radialGradient>
<path fill="url(#SVGID_1_)" d="M49.162,48.053C49.162,60.921,41.479,62,32,62c-9.479,0-17.162-1.079-17.162-13.947
	c0-10.045,7.684-16.188,17.162-16.188C41.479,31.865,49.162,38.008,49.162,48.053z"/>
<radialGradient id="SVGID_2_" cx="28.4961" cy="50.4111" r="12.3449" gradientTransform="matrix(1.0617 0 0 1.0568 -0.8743 -33.1213)" gradientUnits="userSpaceOnUse">
	<stop  offset="0" style="stop-color:#FFFFFF"/>
	<stop  offset="0.2606" style="stop-color:#F8F9FA"/>
	<stop  offset="0.6522" style="stop-color:#E3E8EC"/>
	<stop  offset="1" style="stop-color:#CBD4DB"/>
	<a:midPointStop  offset="0" style="stop-color:#FFFFFF"/>
	<a:midPointStop  offset="0.6182" style="stop-color:#FFFFFF"/>
	<a:midPointStop  offset="1" style="stop-color:#CBD4DB"/>
</radialGradient>
<ellipse fill="url(#SVGID_2_)" cx="32" cy="23.527" rx="13.107" ry="13.047"/>
<path fill="#302C3B" d="M27.617,21.893c0,2.654-4,2.654-4,0C23.616,19.237,27.617,19.237,27.617,21.893z"/>
<path fill="#302C3B" d="M40.385,21.893c0,2.654-4,2.654-4,0C36.385,19.237,40.385,19.237,40.385,21.893z"/>
<path fill="#302C3B" d="M32,45.131c-2.666,0-2.666-3.979,0-3.979C34.666,41.151,34.666,45.131,32,45.131z"/>
<path fill="#302C3B" d="M32,54.743c-2.666,0-2.666-3.979,0-3.979C34.666,50.765,34.666,54.743,32,54.743z"/>
<path fill="#302C3B" d="M29.727,14.051c-3.435,0.767-11.306-0.753-10.812,1.461c0.423,1.91,4.547,3.387,11.543,1.826
	c6.995-1.559,10.104-4.649,9.68-6.558C39.645,8.563,33.162,13.283,29.727,14.051z"/>
<path fill="#302C3B" d="M29.612,13.527c-6.097,1.362-10.902,0.147-10.502,1.941c0.338,1.522,4.621,3.036,11.279,1.552
	c6.656-1.484,9.892-4.676,9.552-6.195C39.543,9.028,35.709,12.169,29.612,13.527z"/>
<radialGradient id="SVGID_3_" cx="172.002" cy="-167.668" r="7.6158" gradientTransform="matrix(0.9138 -0.2038 1.1773 5.2936 68.8837 931.8301)" gradientUnits="userSpaceOnUse">
	<stop  offset="0" style="stop-color:#1A1626"/>
	<stop  offset="0.1928" style="stop-color:#1D1929"/>
	<stop  offset="0.3233" style="stop-color:#262232"/>
	<stop  offset="0.4349" style="stop-color:#353141"/>
	<stop  offset="0.497" style="stop-color:#413D4D"/>
	<stop  offset="0.7091" style="stop-color:#413D4D"/>
	<stop  offset="0.7227" style="stop-color:#3D3949"/>
	<stop  offset="0.814" style="stop-color:#2A2636"/>
	<stop  offset="0.9062" style="stop-color:#1E1A2A"/>
	<stop  offset="1" style="stop-color:#1A1626"/>
	<a:midPointStop  offset="0" style="stop-color:#1A1626"/>
	<a:midPointStop  offset="0.7805" style="stop-color:#1A1626"/>
	<a:midPointStop  offset="0.497" style="stop-color:#413D4D"/>
	<a:midPointStop  offset="0.5" style="stop-color:#413D4D"/>
	<a:midPointStop  offset="0.7091" style="stop-color:#413D4D"/>
	<a:midPointStop  offset="0.2892" style="stop-color:#413D4D"/>
	<a:midPointStop  offset="1" style="stop-color:#1A1626"/>
</radialGradient>
<path fill="url(#SVGID_3_)" d="M34.926,2.365c-4.993,0.911-9.951,2.016-14.857,3.313c0.003-0.001,1.294,3.024,2.491,7.732
	c0.023,2.835,7.273,1.103,7.279,1.15c-0.011-0.047,7.288-1.559,6.106-4.135C35.035,5.653,34.92,2.366,34.926,2.365z"/>
<path fill="#E81C27" d="M35.945,10.427c0.506,1.646-4.059,2.79-6.288,3.313c-2.237,0.475-6.857,1.379-7.098-0.328
	c-0.206,0.173,0.336,1.564,0.625,2.449c0.241,0.708,3.087,1.253,7.028,0.37c3.941-0.876,6.287-2.577,6.207-3.321
	C36.307,11.984,36.205,10.496,35.945,10.427z"/>
<path fill="#302C3B" d="M20.069,5.679c0.344,1.083,15.005-2.183,14.857-3.313C34.703,0.893,19.646,4.249,20.069,5.679z"/>
<path fill="#302C3B" d="M20.252,5.837c1.618,0.527,13.332-2.086,14.574-3.25C32.5,3.733,22.842,5.888,20.252,5.837z"/>
<line fill="#9E6C49" x1="54.299" y1="33.502" x2="51.908" y2="33.502"/>
<path fill="#9E6C49" d="M55.908,28.939c0,0-9.23,9.186-11.129,11.076c-0.516,0.512,1.176,2.195,1.693,1.68
	C48.369,39.809,57.6,30.623,57.6,30.623L55.908,28.939z"/>
<path fill="#014D87" d="M54.662,35.643c-1.33-0.1-3.904-2.703-3.762-3.99C51.445,26.59,59.412,36.008,54.662,35.643z"/>
<path fill="#006DAE" d="M60.879,26.496c-4.076-3.439-6.076,3.861-6.289,1.037c-0.137-1.846-1.516-2.424-2.268,0.326
	c-0.736,2.701,1.172,6.051,4.051,6.145C59.195,34.094,64.256,29.344,60.879,26.496z"/>
<line fill="#9E6C49" x1="9.701" y1="33.502" x2="12.092" y2="33.502"/>
<path fill="#9E6C49" d="M8.094,28.939c0,0,9.229,9.186,11.127,11.076c0.516,0.512-1.176,2.195-1.693,1.68
	C15.631,39.809,6.402,30.623,6.402,30.623L8.094,28.939z"/>
<path fill="#014D87" d="M9.338,35.643c1.33-0.1,3.904-2.703,3.762-3.99C12.555,26.59,4.588,36.008,9.338,35.643z"/>
<path fill="#006DAE" d="M3.122,26.496c4.076-3.439,6.076,3.861,6.289,1.037c0.137-1.846,1.518-2.424,2.268,0.326
	c0.736,2.701-1.172,6.051-4.051,6.145C4.805,34.094-0.255,29.344,3.122,26.496z"/>
<path fill="#E6EBEF" d="M14.375,16.823c0,3.979-6,3.979-6,0C8.375,12.842,14.375,12.842,14.375,16.823z"/>
<path fill="#E6EBEF" d="M9.402,48.425c0,3.981-6,3.981-6,0S9.402,44.443,9.402,48.425z"/>
<path fill="#E6EBEF" d="M51.998,54.045c0,3.979-6,3.979-6,0C45.998,50.063,51.998,50.063,51.998,54.045z"/>
<path fill="#E6EBEF" d="M59.082,43.458c0,2.655-4,2.655-4,0C55.082,40.804,59.082,40.804,59.082,43.458z"/>
<path fill="#E6EBEF" d="M12.471,56.486c0,2.654-4,2.654-4,0C8.471,53.833,12.471,53.833,12.471,56.486z"/>
<path fill="#E6EBEF" d="M53.998,14.732c0,2.654-4,2.654-4,0C49.998,12.079,53.998,12.079,53.998,14.732z"/>
<path fill="#B00505" d="M42.943,30.338c-2.586,2.175-19.301,2.175-21.887,0c-1.443-1.215-1.128,5.143-0.419,5.584
	c4.093,2.548,18.632,2.548,22.726,0C44.072,35.48,44.387,29.123,42.943,30.338z"/>
<path fill="#E81C27" d="M21.837,30.761c-0.319-0.13-0.598-0.269-0.781-0.423c-1.443-1.215-1.128,5.143-0.419,5.584
	c0.329,0.205,0.745,0.387,1.2,0.558V30.761z"/>
<path fill="#E81C27" d="M26.367,31.688c-0.692-0.073-1.35-0.158-1.952-0.261v5.743c0.615,0.124,1.27,0.227,1.952,0.316V31.688z"/>
<path fill="#E81C27" d="M30.781,31.944c-0.646-0.015-1.287-0.033-1.914-0.064v5.832c0.629,0.041,1.27,0.068,1.914,0.087V31.944z"/>
<path fill="#E81C27" d="M42.943,30.354c-0.156,0.133-0.385,0.252-0.643,0.368v5.721c0.398-0.156,0.768-0.32,1.063-0.504
	C44.072,35.497,44.387,29.141,42.943,30.354z"/>
<path fill="#E81C27" d="M33.201,31.961v5.854c0.65-0.018,1.297-0.044,1.932-0.086v-5.833C34.5,31.928,33.854,31.947,33.201,31.961z"
	/>
<path fill="#B00505" d="M44.059,45.566c-3.406-0.753-4.707,1.615-5.459,0.354c-2.791-4.688-1.082-14.044-2.281-14.104
	c0.355-0.732,5.822-1.779,5.51,0.46C40.342,42.939,45.941,45.982,44.059,45.566z"/>
<path fill="#E81C27" d="M36.783,33.329c1.658-0.124,3.314-0.253,4.973-0.347c0.025-0.238,0.039-0.459,0.072-0.706
	c0.313-2.239-5.227-1.802-5.51-0.46C36.611,31.831,36.73,32.406,36.783,33.329z"/>
<path fill="#E81C27" d="M41.666,37.742c-0.082-0.854-0.082-1.793-0.045-2.814c-1.607,0.115-3.199,0.356-4.785,0.665
	c0.01,0.868,0.025,1.833,0.072,2.83C38.475,38.089,40.064,37.938,41.666,37.742z"/>
<path fill="#E81C27" d="M42.934,42.732c0,0-0.625-1.561-0.879-2.608c-1.654,0.317-3.232,0.765-4.893,1.065
	c0,0.839,0.324,2.211,0.576,2.744C39.34,43.326,41.139,42.924,42.934,42.732z"/>
<radialGradient id="SVGID_4_" cx="32.9463" cy="53.7988" r="2.5507" gradientTransform="matrix(0.9496 0 0 2.6419 0.7137 -118.4005)" gradientUnits="userSpaceOnUse">
	<stop  offset="0" style="stop-color:#FFD500"/>
	<stop  offset="0.9091" style="stop-color:#FF8800"/>
	<a:midPointStop  offset="0" style="stop-color:#FFD500"/>
	<a:midPointStop  offset="0.5101" style="stop-color:#FFD500"/>
	<a:midPointStop  offset="0.9091" style="stop-color:#FF8800"/>
</radialGradient>
<path fill="url(#SVGID_4_)" d="M34.297,25.884c0,1.696-1.207,5.007-2.297,5.009c-1.09-0.002-2.295-3.432-2.295-5.009
	C29.705,23.253,34.297,23.046,34.297,25.884z"/>
</svg>
