<?xml version="1.0" encoding="utf-8"?>
<!-- Generator: Adobe Illustrator 19.0.0, SVG Export Plug-In . SVG Version: 6.00 Build 0)  -->
<svg version="1.1" id="Layer_1" xmlns="http://www.w3.org/2000/svg" xmlns:xlink="http://www.w3.org/1999/xlink" x="0px" y="0px"
	 width="64px" height="64px" viewBox="0 0 64 64" enable-background="new 0 0 64 64" xml:space="preserve">
<radialGradient id="SVGID_1_" cx="46.831" cy="42.9719" r="23.3365" gradientTransform="matrix(0.9834 0 0 0.9813 -8.7366 -1.3691)" gradientUnits="userSpaceOnUse">
	<stop  offset="0.4485" style="stop-color:#E3C19B"/>
	<stop  offset="0.7869" style="stop-color:#E3BF99"/>
	<stop  offset="0.9495" style="stop-color:#E3B991"/>
	<stop  offset="1" style="stop-color:#E3B68D"/>
</radialGradient>
<path fill="url(#SVGID_1_)" d="M13.436,36.282C10.55,56.669,24.653,61.175,32.165,61.249c6.504,0.063,15.797-2.594,18.561-14.105
	C55.983,25.233,18.052,28.739,13.436,36.282z"/>
<path fill="#CF9E70" d="M12.7,36.177C9.739,56.46,23.491,61.913,32.171,61.999c4.676,0,16.109-1.43,19.289-14.682
	C57.216,23.337,13.864,28.212,12.7,36.177z M50.001,46.968c-2.93,12.213-13.51,13.531-17.83,13.531
	c-8.887-0.086-20.525-5.672-18.008-23.949C18.78,29.686,54.976,26.241,50.001,46.968z"/>
<linearGradient id="SVGID_2_" gradientUnits="userSpaceOnUse" x1="43.5969" y1="30.9758" x2="44.7222" y2="2.9046">
	<stop  offset="0" style="stop-color:#E3B68D"/>
	<stop  offset="0.078" style="stop-color:#E3B991"/>
	<stop  offset="0.3317" style="stop-color:#E3BF99"/>
	<stop  offset="0.8545" style="stop-color:#E3C19B"/>
</linearGradient>
<path fill="url(#SVGID_2_)" d="M48.401,35.305c-1.082-9.291-0.205-17.129-0.439-28.383c-0.121-5.719-8.217-5.506-8.213,0.215
	c0.004,4.709-0.141,22.914-1.168,24.787C41.815,33.024,45.265,33.907,48.401,35.305z"/>
<path fill="#CF9E70" d="M47.227,6.938c0.082,3.875-0.201,20.652,0.443,28.154c0.547,0.365,1.072,0.76,1.594,1.156
	c-0.805-6.742-0.484-25.223-0.57-29.342c-0.141-6.728-9.684-6.426-9.68,0.233c0.008,8.633-0.295,21.764-0.969,24.148h1.408
	c0.527-2.342,1.043-8.377,1.027-24.15C40.477,2.343,47.128,2.218,47.227,6.938z"/>
<path fill="#CF9E70" d="M12.042,31.458c-0.621-7.336,9.381-8.021,9.926-0.705l0.535,6.141c0.617,7.264-9.377,7.918-9.934,0.668
	L12.042,31.458z"/>
<radialGradient id="SVGID_3_" cx="-253.4552" cy="51.9238" r="5.5925" gradientTransform="matrix(0.8144 -0.0635 0.0957 1.188 219.3033 -46.3496)" gradientUnits="userSpaceOnUse">
	<stop  offset="0.4545" style="stop-color:#E3C19B"/>
	<stop  offset="0.7558" style="stop-color:#E3BD96"/>
	<stop  offset="1" style="stop-color:#E3B68D"/>
</radialGradient>
<path fill="url(#SVGID_3_)" d="M13.505,31.303c-0.438-5.271,6.572-5.773,7.017-0.498l0.518,6.217
	c0.441,5.25-6.576,5.725-7.022,0.473L13.505,31.303z"/>
<path fill="#CF9E70" d="M20.261,28.053c-0.621-7.336,9.381-8.021,9.926-0.705l0.535,6.141c0.617,7.264-9.377,7.916-9.932,0.666
	L20.261,28.053z"/>
<radialGradient id="SVGID_4_" cx="-243.4768" cy="47.74" r="5.5924" gradientTransform="matrix(0.8144 -0.0635 0.0957 1.188 219.7964 -44.1505)" gradientUnits="userSpaceOnUse">
	<stop  offset="0.4545" style="stop-color:#E3C19B"/>
	<stop  offset="0.7558" style="stop-color:#E3BD96"/>
	<stop  offset="1" style="stop-color:#E3B68D"/>
</radialGradient>
<path fill="url(#SVGID_4_)" d="M21.726,27.899c-0.44-5.272,6.57-5.775,7.016-0.498l0.518,6.215c0.441,5.252-6.576,5.727-7.02,0.473
	L21.726,27.899z"/>
<path fill="#CF9E70" d="M29.136,25.753c-0.014-7.363,10.01-7.182,9.947,0.156l0.025,6.164c0.018,7.291-9.996,7.078-9.951-0.193
	L29.136,25.753z"/>
<radialGradient id="SVGID_5_" cx="-239.0314" cy="118.5101" r="5.5927" gradientTransform="matrix(0.8168 0.0071 -0.0028 1.192 230.4921 -113.3391)" gradientUnits="userSpaceOnUse">
	<stop  offset="0.4545" style="stop-color:#E3C19B"/>
	<stop  offset="0.7558" style="stop-color:#E3BD96"/>
	<stop  offset="1" style="stop-color:#E3B68D"/>
</radialGradient>
<path fill="url(#SVGID_5_)" d="M30.606,25.727c0-5.291,7.025-5.188,7.033,0.109l0.004,6.238c0.004,5.27-7.027,5.137-7.035-0.137
	L30.606,25.727z"/>
<path fill="#CF9E70" d="M42.532,41.194L41.52,39.93c-4.217-0.85-12.295,3.838-13.725,11.602
	C29.901,44.704,38.528,40.165,42.532,41.194z"/>
<path fill="#E3C19B" d="M35.856,31.585c-1.717-0.01-5.789,1.555-11.568,1.725c-2.531,0.072-2.949,4.328,0.881,6.203
	c5.336,2.605,13.566-0.795,16.035,4.939c0.609,1.412,9.512-2.266,8.459-4.982C47.013,32.624,37.056,31.591,35.856,31.585z"/>
<path fill="#CF9E70" d="M40.538,44.757c-2.301-5.342-10.648-2.111-15.684-4.566c-4.699-2.301-3.941-7.533-0.586-7.629
	c3.563-0.105,8.566-1.928,11.619-1.928c3.375,0,9.438,0.805,13.297,4.867c1.648,1.732-0.148,2.121-1.34,0.814
	c-2.832-3.107-8.645-4.32-11.957-4.32c-3.338,0-7.881,1.955-11.58,2.064c-1.504,0.043-2.227,3.111,1.174,4.775
	c5.176,2.527,13.654-1.037,16.391,5.313L40.538,44.757z"/>
</svg>
