<?xml version="1.0" encoding="utf-8"?>
<!-- Generator: Adobe Illustrator 15.0.0, SVG Export Plug-In . SVG Version: 6.00 Build 0)  -->
<!DOCTYPE svg PUBLIC "-//W3C//DTD SVG 1.1//EN" "http://www.w3.org/Graphics/SVG/1.1/DTD/svg11.dtd" [
	<!ENTITY ns_flows "http://ns.adobe.com/Flows/1.0/">
	<!ENTITY ns_extend "http://ns.adobe.com/Extensibility/1.0/">
	<!ENTITY ns_ai "http://ns.adobe.com/AdobeIllustrator/10.0/">
	<!ENTITY ns_graphs "http://ns.adobe.com/Graphs/1.0/">
]>
<svg version="1.1" id="Layer_1" xmlns:x="&ns_extend;" xmlns:i="&ns_ai;" xmlns:graph="&ns_graphs;"
	 xmlns="http://www.w3.org/2000/svg" xmlns:xlink="http://www.w3.org/1999/xlink" xmlns:a="http://ns.adobe.com/AdobeSVGViewerExtensions/3.0/"
	 x="0px" y="0px" width="64px" height="64px" viewBox="0 0 64 64" enable-background="new 0 0 64 64" xml:space="preserve">
<radialGradient id="SVGID_1_" cx="29.4736" cy="71.2139" r="18.8258" gradientTransform="matrix(1 0 0 1.0597 0 -33.9715)" gradientUnits="userSpaceOnUse">
	<stop  offset="0" style="stop-color:#FFFFFF"/>
	<stop  offset="0.2711" style="stop-color:#FBFBFC"/>
	<stop  offset="0.5561" style="stop-color:#EEF1F3"/>
	<stop  offset="0.8466" style="stop-color:#D9E0E5"/>
	<stop  offset="1" style="stop-color:#CBD4DB"/>
	<a:midPointStop  offset="0" style="stop-color:#FFFFFF"/>
	<a:midPointStop  offset="0.697" style="stop-color:#FFFFFF"/>
	<a:midPointStop  offset="1" style="stop-color:#CBD4DB"/>
</radialGradient>
<path fill="url(#SVGID_1_)" d="M49.162,48.053C49.162,60.921,41.477,62,32,62c-9.479,0-17.162-1.079-17.162-13.947
	c0-10.045,7.684-18.188,17.162-18.188C41.479,29.865,49.162,38.008,49.162,48.053z"/>
<radialGradient id="SVGID_2_" cx="28.4966" cy="50.4111" r="12.3443" gradientTransform="matrix(1.0617 0 0 1.0568 -0.8743 -33.1213)" gradientUnits="userSpaceOnUse">
	<stop  offset="0" style="stop-color:#FFFFFF"/>
	<stop  offset="0.2606" style="stop-color:#F8F9FA"/>
	<stop  offset="0.6522" style="stop-color:#E3E8EC"/>
	<stop  offset="1" style="stop-color:#CBD4DB"/>
	<a:midPointStop  offset="0" style="stop-color:#FFFFFF"/>
	<a:midPointStop  offset="0.6182" style="stop-color:#FFFFFF"/>
	<a:midPointStop  offset="1" style="stop-color:#CBD4DB"/>
</radialGradient>
<path fill="url(#SVGID_2_)" d="M45.106,23.527c0,9.87-5.866,13.047-13.107,13.047c-7.238,0-13.106-3.177-13.106-13.047
	c0-7.203,5.869-13.044,13.106-13.044C39.24,10.483,45.106,16.324,45.106,23.527z"/>
<path fill="#302C3B" d="M27.616,22.893c0,2.654-4,2.654-4,0C23.616,20.237,27.616,20.237,27.616,22.893z"/>
<path fill="#302C3B" d="M40.383,22.893c0,2.654-4,2.654-4,0C36.383,20.237,40.383,20.237,40.383,22.893z"/>
<path fill="#302C3B" d="M32,43.131c-2.666,0-2.666-3.979,0-3.979C34.666,39.151,34.666,43.131,32,43.131z"/>
<path fill="#302C3B" d="M32,52.743c-2.666,0-2.666-3.979,0-3.979C34.666,48.765,34.666,52.743,32,52.743z"/>
<radialGradient id="SVGID_3_" cx="32.9448" cy="55.6914" r="2.5507" gradientTransform="matrix(0.9496 0 0 2.6419 0.7137 -121.4005)" gradientUnits="userSpaceOnUse">
	<stop  offset="0" style="stop-color:#FFD500"/>
	<stop  offset="0.9091" style="stop-color:#FF8800"/>
	<a:midPointStop  offset="0" style="stop-color:#FFD500"/>
	<a:midPointStop  offset="0.5101" style="stop-color:#FFD500"/>
	<a:midPointStop  offset="0.9091" style="stop-color:#FF8800"/>
</radialGradient>
<path fill="url(#SVGID_3_)" d="M34.295,27.884c0,1.696-1.205,5.007-2.294,5.009c-1.091-0.002-2.297-3.432-2.297-5.009
	C29.704,25.253,34.295,25.046,34.295,27.884z"/>
<path fill="#9E6C49" d="M8.605,33.214c0.702-0.224-0.519-1.857-1.447-1.62c-2.063,0.526-4.702-0.079-4.882,0.146
	c-0.38,0.476-0.324,1.334-0.095,1.334C4.833,33.072,6.964,33.738,8.605,33.214z"/>
<path fill="#B47D56" d="M4.865,24.803c4.861,9.611,12.003,12.268,13.92,14.186c0.521,0.521-1.188,2.229-1.71,1.706
	c-1.916-1.913-8.958-4.702-13.473-15.088C3.379,25.094,4.569,24.219,4.865,24.803z"/>
<path fill="#9E6C49" d="M55.395,33.214c-0.703-0.224,0.518-1.857,1.445-1.62c2.064,0.526,4.704-0.079,4.884,0.146
	c0.381,0.476,0.323,1.334,0.095,1.334C59.166,33.072,57.035,33.738,55.395,33.214z"/>
<path fill="#B47D56" d="M59.135,24.803c-4.861,9.611-12.002,12.268-13.92,14.186c-0.521,0.521,1.188,2.229,1.711,1.706
	c1.915-1.913,8.957-4.702,13.472-15.088C60.62,25.094,59.431,24.219,59.135,24.803z"/>
<path fill="#302C3B" d="M29.727,14.051c-3.435,0.767-11.306-0.753-10.812,1.461c0.423,1.91,4.547,3.387,11.544,1.826
	c6.994-1.559,10.102-4.649,9.679-6.558C39.645,8.563,33.162,13.283,29.727,14.051z"/>
<path fill="#302C3B" d="M29.612,13.527c-6.097,1.362-10.902,0.147-10.502,1.941c0.338,1.522,4.621,3.036,11.279,1.552
	c6.656-1.484,9.892-4.676,9.552-6.195C39.543,9.028,35.707,12.169,29.612,13.527z"/>
<radialGradient id="SVGID_4_" cx="172.002" cy="-167.6675" r="7.6148" gradientTransform="matrix(0.9138 -0.2038 1.1773 5.2936 68.8832 931.8279)" gradientUnits="userSpaceOnUse">
	<stop  offset="0" style="stop-color:#1A1626"/>
	<stop  offset="0.1928" style="stop-color:#1D1929"/>
	<stop  offset="0.3233" style="stop-color:#262232"/>
	<stop  offset="0.4349" style="stop-color:#353141"/>
	<stop  offset="0.497" style="stop-color:#413D4D"/>
	<stop  offset="0.7091" style="stop-color:#413D4D"/>
	<stop  offset="0.7227" style="stop-color:#3D3949"/>
	<stop  offset="0.814" style="stop-color:#2A2636"/>
	<stop  offset="0.9062" style="stop-color:#1E1A2A"/>
	<stop  offset="1" style="stop-color:#1A1626"/>
	<a:midPointStop  offset="0" style="stop-color:#1A1626"/>
	<a:midPointStop  offset="0.7805" style="stop-color:#1A1626"/>
	<a:midPointStop  offset="0.497" style="stop-color:#413D4D"/>
	<a:midPointStop  offset="0.5" style="stop-color:#413D4D"/>
	<a:midPointStop  offset="0.7091" style="stop-color:#413D4D"/>
	<a:midPointStop  offset="0.2892" style="stop-color:#413D4D"/>
	<a:midPointStop  offset="1" style="stop-color:#1A1626"/>
</radialGradient>
<path fill="url(#SVGID_4_)" d="M34.924,2.365c-4.991,0.911-9.949,2.016-14.855,3.313c0.003-0.001,1.294,3.024,2.491,7.732
	c0.023,2.835,7.272,1.103,7.28,1.15c-0.012-0.047,7.286-1.559,6.105-4.135C35.034,5.653,34.919,2.366,34.924,2.365z"/>
<path fill="#E81C27" d="M35.945,10.427c0.504,1.646-4.06,2.79-6.287,3.313c-2.238,0.475-6.858,1.379-7.099-0.328
	c-0.206,0.173,0.336,1.564,0.625,2.449c0.241,0.708,3.087,1.253,7.028,0.37c3.94-0.876,6.287-2.577,6.205-3.321
	C36.307,11.984,36.205,10.496,35.945,10.427z"/>
<path fill="#302C3B" d="M20.069,5.679c0.344,1.083,15.005-2.183,14.855-3.313C34.702,0.893,19.646,4.249,20.069,5.679z"/>
<path fill="#302C3B" d="M20.252,5.837c1.618,0.527,13.332-2.086,14.574-3.25C32.5,3.733,22.842,5.888,20.252,5.837z"/>
</svg>
