<?xml version="1.0" encoding="utf-8"?>
<!-- Generator: Adobe Illustrator 15.0.0, SVG Export Plug-In . SVG Version: 6.00 Build 0)  -->
<!DOCTYPE svg PUBLIC "-//W3C//DTD SVG 1.1//EN" "http://www.w3.org/Graphics/SVG/1.1/DTD/svg11.dtd" [
	<!ENTITY ns_flows "http://ns.adobe.com/Flows/1.0/">
	<!ENTITY ns_extend "http://ns.adobe.com/Extensibility/1.0/">
	<!ENTITY ns_ai "http://ns.adobe.com/AdobeIllustrator/10.0/">
	<!ENTITY ns_graphs "http://ns.adobe.com/Graphs/1.0/">
]>
<svg version="1.1" id="Layer_1" xmlns:x="&ns_extend;" xmlns:i="&ns_ai;" xmlns:graph="&ns_graphs;"
	 xmlns="http://www.w3.org/2000/svg" xmlns:xlink="http://www.w3.org/1999/xlink" xmlns:a="http://ns.adobe.com/AdobeSVGViewerExtensions/3.0/"
	 x="0px" y="0px" width="64px" height="64px" viewBox="0 0 64 64" enable-background="new 0 0 64 64" xml:space="preserve">
<path fill="#C21413" d="M25.97,15.5c6.935-8.293,14.375-3.991,18.312-6.52c1.635-1.05,0.715,4.308,1.377,7.908
	c0.5,2.715-10.629-5.38-16.841,1.36C28.818,18.249,25.332,16.259,25.97,15.5z"/>
<path fill="#302C3B" d="M32.715,26.613L31.354,29.7l-4.695,6.907c-1.374,1.385-1.662,2.731,1.012,7.007l7.176-2.282
	c1.451-1.673-0.43-2.459,0.938-4.166c5.875-4.126,10.334-8.25,5.852-12.203L32.715,26.613z"/>
<path fill="#006DAE" d="M43.935,26.07c-2.314-3.962-6.516-3.524-9.359-6.215c-5.945-5.617-9.519-3.017-9.374-1.851
	c0.404,3.301-0.062,5.819,0.865,6.697l5.288,4.998c0,0,1.772-1.736,4.84-2.257C41.239,26.585,43.935,26.07,43.935,26.07z"/>
<path fill="#E03636" d="M8.004,60.887c-5.247,0.942-6.16-1.586-5.984-0.568c0.157,0.905,2.386,2.153,6.035,1.5
	c12.832-2.303,42.479-7.621,53.085-9.523c1.26-0.226,1.076-1.131-0.158-0.909C53.68,52.694,13.565,59.89,8.004,60.887z"/>
<path fill="#FFCC66" d="M14.516,11.958c-0.005,0.969,0.292,1.66,0.762,2.382c0.729,1.106,0.431,1.936-0.12,3.147
	c-0.529,1.153,0.685,1.458,1.58,1.06c0.292,0.201,0.4,0.674,0.4,0.674s0.895,0.272,0.722,1.52c0.997,0.424,0.222,2.23,2.022,1.534
	c1.754-0.682,3.282-3.183,3.75-3.561C34.032,10.324,18.706,4.287,14.516,11.958z"/>
<path fill="#E6A400" d="M17.315,19.606c0.424,0.095,0.29,0.567,0.29,0.567c-0.164,0.064,0.011,0.661,0.255,0.566
	c1.212-0.471,1.373-1.463,1.534-2.047C18.035,19.137,16.453,18.964,17.315,19.606z"/>
<path fill="#FFFFFF" d="M17.315,19.606c0,0,0.2,0.512,0.29,0.567c0.267-0.104,1.172-0.703,1.567-1.289L17.315,19.606z"/>
<path fill="#E6B045" d="M17.347,17.754c0.014,0.435-0.492,0.769-0.818,0.894c-0.442,0.171-0.943,0.114-1.254-0.132
	C15.3,18.063,16.605,18.655,17.347,17.754z"/>
<path fill="#0FB4D4" d="M18.64,12.173c-0.915-0.273-2.229,0.201-4.401,1.371l1.286,2.501c0.597-0.321,0.765,0.193,1.036,0.719
	c0.535,1.043,3.399-0.507,3.661-1.326C20.574,14.332,19.784,12.518,18.64,12.173z"/>
<path fill="#A0D8E9" d="M17.83,12.111l-1.403,4.386c0.042,0.084,0.551,0.629,0.904,0.614l1.55-4.838
	C18.805,12.232,18.131,12.082,17.83,12.111z"/>
<path fill="#302C3B" d="M22.992,12.827l-0.795-1.546l-2.552,1.324c-0.28-0.311-0.598-0.54-0.94-0.644
	c-0.932-0.278-2.168,0.099-4.564,1.388c-0.186,0.101,0.087,0.442,0.198,0.387c2.271-1.17,3.435-1.591,4.233-1.353
	c0.472,0.142,0.927,0.602,1.223,1.234c0.286,0.614,0.371,1.286,0.22,1.756c-0.075,0.228-0.519,0.656-1.226,1.038
	c-0.842,0.453-1.81,0.683-2.035,0.247c-0.026-0.054-0.054-0.106-0.079-0.16c-0.166-0.335-0.325-0.651-0.634-0.746
	c-0.184-0.059-0.387-0.024-0.615,0.099c-0.152,0.082,0.073,0.455,0.198,0.387c0.119-0.063,0.212-0.084,0.276-0.065
	c0.139,0.043,0.255,0.279,0.38,0.531c0.027,0.055,0.055,0.109,0.083,0.164c0.397,0.777,1.662,0.448,2.621-0.068
	c0.6-0.323,1.294-0.835,1.441-1.302c0.125-0.385,0.116-0.858,0.005-1.342L22.992,12.827z"/>
<path fill="#C21413" d="M25.499,5.016c-0.711,3.546-6.656,2.882-5.95-0.667C20.257,0.804,26.208,1.471,25.499,5.016z"/>
<path fill="#E03636" d="M28.499,11.494c-0.393,1.914-14.628,0.025-14.23-1.889C16.046,1.017,30.278,2.905,28.499,11.494z"/>
<path fill="#C21413" d="M27.524,14.051c-4.273-1.244-8.764-1.88-13.283-1.876c-0.889,0.007-1.035-2.665-0.041-2.673
	c4.887-0.001,9.75,0.685,14.378,2.033C29.516,11.816,28.366,14.303,27.524,14.051z"/>
<path fill="#E03636" d="M19.966,23.167c0.712,1.053,2.195-0.498,2.814-0.359c0.653,0.148,1.516,1.363,2.177,1.131
	c1.851-0.647-0.481-4.278,0.219-5.646c0.521-1.018,4.454-1.761,4.785-2.805c0.114-0.36-1.05-0.732-1.259-1.049
	c-0.203-0.31,0.108-1.266-0.35-1.376c-1.57-0.368-4.344,2.31-5.475,3.301C21.453,17.606,19.059,21.83,19.966,23.167z"/>
<path fill="#014D87" d="M38.769,54.209c-0.111-0.259-0.844-0.252-1.001-0.484c0.544-4.657-9.875,0.146-12.128,2.429
	c-0.284,0.289-0.763,1.378-0.506,1.694l13.258-2.393C38.604,55.213,38.895,54.506,38.769,54.209z"/>
<path fill="#006DAE" d="M37.906,50.354c-0.364-1.173-1.026-2.378-1.694-2.753c-1.331-0.747-5.161,0.201-5.87,1.571
	c-0.722,1.388-2.773,2.896-4.103,4.113l1.775,3.503c4.373-1.418,3.904-1.973,7.836-2.559L37.906,50.354z"/>
<path fill="#0FB4D4" d="M28.014,56.788c0,0-0.35-2.017-1.775-3.503C24.126,54.805,24.431,57.974,28.014,56.788z"/>
<path fill="#0FB4D4" d="M37.906,50.354c-1.103,0.925-1.716,2.499-2.056,3.876C37.783,54.122,38.675,52.494,37.906,50.354z"/>
<path fill="#0FB4D4" d="M34.847,41.332c-2.325-0.295-6.963,1.719-7.176,2.282c-0.207,0.563,1.57,5.431,2.145,6.107
	c0.377,0.443,4.312,1.094,5.06,0.748c0.729-0.338,1.693-1.863,1.874-2.665C36.888,47.188,35.35,42.401,34.847,41.332z"/>
<path fill="#302C3B" d="M34.072,48.088c0.517-0.094,1.007,0.259,1.099,0.788c0.09,0.527-0.254,1.033-0.77,1.126
	c-0.516,0.092-1.01-0.262-1.102-0.788C33.21,48.686,33.556,48.181,34.072,48.088z"/>
<path fill="#014D87" d="M26.586,52.973c1.044,0.846,1.681,1.888,1.681,1.888l1.122-0.803c0,0-0.531-1.38-1.738-2.106
	C27.321,51.754,26.322,52.76,26.586,52.973z"/>
<path fill="#014D87" d="M28.327,51.425c1.043,0.845,1.682,1.887,1.682,1.887l1.123-0.803c0,0-0.533-1.38-1.742-2.106
	C29.063,50.206,28.063,51.211,28.327,51.425z"/>
<path fill="#014D87" d="M31.284,43.723c0,0-1.942,0.107-3.494,1.086c-0.418,0.267,0.203,1.57,0.609,1.373
	c1.6-0.78,3.198-1.092,3.198-1.092L31.284,43.723z"/>
<path fill="#014D87" d="M31.902,46.406c0,0-1.776,0.154-3.139,1.162c-0.37,0.273,0.282,1.554,0.643,1.351
	c1.417-0.814,2.866-1.161,2.866-1.161L31.902,46.406z"/>
<path fill="#E03636" d="M48.975,25.948C37.708,30.113,21.83,35.986,21.83,35.986l0.321,0.901c0,0,15.875-5.871,27.147-10.038
	L48.975,25.948z"/>
<path fill="#99A8AE" d="M23.014,37.287c1.8-0.53,0.943-2.94-0.773-2.173c-2.167,1.139-4.443,1.976-6.822,2.521
	c-1.8,0.532-0.943,2.941,0.774,2.173C18.358,38.673,20.634,37.831,23.014,37.287z"/>
<path fill="#302C3B" d="M50.364,29.352c1.178-0.436-0.963-6.448-2.139-6.014C47.047,23.772,49.188,29.787,50.364,29.352z"/>
<path fill="#E03636" d="M49.984,26.596c0,0,2.004-0.924,4.053-1.682c0.435-0.161,0.229-0.737-0.204-0.577
	c-2.047,0.757-4.172,1.356-4.172,1.356C49.439,25.776,49.761,26.678,49.984,26.596z"/>
<path fill="#302C3B" d="M20.193,34.659c-1.41-0.148-1.783,0.804-2.851,1.392c-0.546,0.299-0.918,0.936-0.54,1.23l0.875-0.209
	c-0.124,0.884-0.497,2.613,0.443,2.466c1.711-0.268,2.012,0.745,3.84,0.04c0.664-0.257,1.29-1.341,1.312-2.002l0.667-0.717
	l-3.082-2.913L20.193,34.659z"/>
<path fill="#014D87" d="M27.192,16.147c-1.349,0.04-2.676,1.213-2.366,2.535c1.788,7.677-4.319,15.111-4.319,15.111l3.564,3.371
	c0,0,7.982-11.595,5.638-18.636C29.284,17.239,28.542,16.103,27.192,16.147z"/>
</svg>
