<?xml version="1.0" encoding="utf-8"?>
<!-- Generator: Adobe Illustrator 15.0.0, SVG Export Plug-In . SVG Version: 6.00 Build 0)  -->
<!DOCTYPE svg PUBLIC "-//W3C//DTD SVG 1.1//EN" "http://www.w3.org/Graphics/SVG/1.1/DTD/svg11.dtd" [
	<!ENTITY ns_flows "http://ns.adobe.com/Flows/1.0/">
	<!ENTITY ns_extend "http://ns.adobe.com/Extensibility/1.0/">
	<!ENTITY ns_ai "http://ns.adobe.com/AdobeIllustrator/10.0/">
	<!ENTITY ns_graphs "http://ns.adobe.com/Graphs/1.0/">
]>
<svg version="1.1" id="Layer_1" xmlns:x="&ns_extend;" xmlns:i="&ns_ai;" xmlns:graph="&ns_graphs;"
	 xmlns="http://www.w3.org/2000/svg" xmlns:xlink="http://www.w3.org/1999/xlink" xmlns:a="http://ns.adobe.com/AdobeSVGViewerExtensions/3.0/"
	 x="0px" y="0px" width="64px" height="64px" viewBox="0 0 64 64" enable-background="new 0 0 64 64" xml:space="preserve">
<path fill="#423225" d="M29.424,17.639c1.736-0.776,1.475,3.863,1.473,4.261c0,0,1.521-2.46,4.908-3.801
	c0,0,0.008-1.503-0.223-3.857C35.75,7.754,29.424,17.639,29.424,17.639z"/>
<path fill="#614A36" d="M25.621,6.518c-0.359,0.94-0.316,1.724-0.109,2.6c0.322,1.349-0.281,2.042-1.283,3.017
	c-0.951,0.923,0.154,1.674,1.195,1.622c0.221,0.304,0.158,0.804,0.158,0.804s0.797,0.601,0.162,1.748
	c0.846,0.785-0.596,2.251,1.465,2.246c2.01-0.006,4.627-1.604,5.074-2.061c0.703-0.722,0.893-2.893,0.893-2.893
	c0.854,1.148,2.982-0.955,2.988-3.421C36.174,6.091,32.65,0.621,25.621,6.518z"/>
<path fill="#423225" d="M33.154,10.977c-0.039-0.974,0.727-1.855,1.529-1.89c0,0-1.33,1.216-0.92,2.771
	C33.764,11.857,33.178,11.657,33.154,10.977z"/>
<path fill="#F5F5F5" d="M28.975,10.724c-0.539,0.585-1.84,0.885-2.266,0.786C25.758,8.372,28.328,9.394,28.975,10.724z"/>
<path fill="#45332C" d="M26.758,11.521c1.229-0.005,0.639-3.299-0.248-1.544C26.455,10.288,26.508,11.521,26.758,11.521z"/>
<path fill="#423225" d="M28.975,10.724c-0.299-1.226-2.389-2.166-2.465-0.747C26.865,9.22,28.352,9.755,28.975,10.724z"/>
<path fill="#F5F5F5" d="M26.883,10.021c-0.002,0.301,0.432,0.3,0.434-0.001C27.316,9.744,26.883,9.744,26.883,10.021z"/>
<path fill="#36281D" d="M29.139,8.647c-0.852-0.625-2.488-0.652-3.1-0.212c-0.131,0.083-0.047,0.68,0.061,0.622
	c0.855-0.468,2.225-0.482,3.021,0.033C29.223,9.156,29.268,8.735,29.139,8.647z"/>
<path fill="#36281D" d="M25.615,15.001c0.389,0.25,0.084,0.659,0.084,0.659c-0.189,0.002-0.234,0.649,0.045,0.647
	c1.389-0.004,1.918-0.911,2.293-1.418C26.512,14.812,24.986,14.052,25.615,15.001z"/>
<path fill="#FFFFFF" d="M25.615,15.001c0,0,0.014,0.572,0.084,0.659c0.305,0,1.432-0.246,2.045-0.667L25.615,15.001z"/>
<path fill="#38332D" d="M38.178,4.688c-0.9-1.636-2.789-2.696-6.105-2.688c-3.055,0.007-4.9,1.021-5.695,0.637
	c0,0-0.162,0.506,0.035,0.935c-0.422,0.021-0.674-0.258-0.676-0.253c-0.293,0.479-0.803,1.721-0.115,3.199
	c4.834-1.812,5.117-0.118,6.219,1.227c0.254,0.312-0.545,1.706,0.723,3.114c0.273-3.132,3.969-2.848,3.535-0.139
	c-0.277,1.735-1.057,2.467-1.484,2.868c0.701,0.213,1.012,1.03,1.012,1.03C39.074,14.608,40.313,6.308,38.178,4.688z"/>
<path fill="#423225" d="M26.33,13.21c-0.146,0.43-0.777,0.563-1.152,0.563c-0.504,0.002-0.986-0.241-1.205-0.596
	C24.164,12.745,25.254,13.809,26.33,13.21z"/>
<path fill="#614A36" d="M24.002,57.533c1.988-5.916,4.465-5.88,4.611-11.498c0.43-0.087,0.867-0.174,1.299-0.264
	c-0.369-2.603-1.51-3.98-3.26-5.056c-1.627,0.563-2.498,1.577-2.611,1.753c-0.662,1.04-0.309,6.304-3.248,14.074
	C20.553,57.177,23.895,57.854,24.002,57.533z"/>
<path fill="#7AB51D" d="M21.734,61.603h2.529c0.371,0,0.158-0.606,0.158-0.606s-2.363-1.442-9.871-0.669
	C14.551,60.327,16.285,62.982,21.734,61.603z"/>
<path fill="#302C3B" d="M24.217,58.529c0.393-0.705,0.307-1.508,0.063-1.38c-0.469,0.247-2.379,0.144-2.77-0.125
	c0.469-1.521-0.68-1.941-0.73-1.475c-0.43,3.936-6.514,1.724-6.229,4.777c0,0,3.26,1.878,7.1,0.689l2.771-0.021
	C24.758,59.362,24.217,58.53,24.217,58.529z"/>
<path fill="#7AB51D" d="M17.285,58.42c0.951,0.929,1.488,0.988,1.568,0.339c0.643,0.464,1.012,0.09,1.02-0.296
	c0.693,0.301,0.947-0.31,0.133-0.992C19.539,57.11,17.029,58.171,17.285,58.42z"/>
<path fill="#614A36" d="M53.457,46.756c-5.586-0.472-6.08-2.633-11.016-1.568c-0.168-0.356-0.336-0.715-0.506-1.072
	c-2.193,0.872-3.166,1.73-3.734,3.479c0.838,1.294,1.906,2.648,2.084,2.709c1.049,0.355,5.58-1.456,12.988-0.551
	C53.879,49.827,53.762,46.781,53.457,46.756z"/>
<path fill="#614A36" d="M29.941,19.728c-1.441-0.183-6.133,1.854-9.678,2.357c-1.01,0.145-7.785,3.62-8.236,3.904
	c-0.467,0.293-1.797,1.078-2.203,1.54c-0.447,0.518-2.301,2.55-1.707,3.911c0.537,1.228,2.787-2.182,3.746-1.981
	c-0.451,1.541,0.391,2.145,0.729,1.2c0.785-2.198,0.412-2.572,0.76-2.854c0.506-0.407,6.436-2.092,8.043-2.485
	c3.207-0.785,5.342-0.85,8.24-0.969C32.713,24.225,33.775,20.206,29.941,19.728z"/>
<path fill="#529320" d="M34.715,40.445c0,0-0.736,7.653,4.43,9.723c0,0,3.332-0.438,3.561-5.948
	c-3.086-1.539,0.709-6.24-2.553-10.55L34.715,40.445z"/>
<path fill="#E6EBEF" d="M42.705,44.22c-0.23,4.873-3.135,5.317-3.561,5.948c0.393,0.164,0.795,0.304,1.207,0.405
	c0,0,3.152-0.283,3.381-5.792C43.301,44.621,42.977,44.43,42.705,44.22z"/>
<path fill="#423225" d="M35.959,17.657c-3.254,8.578-6.857,12.063-6.523,1.838C30.578,19.308,32.963,16.907,35.959,17.657z"/>
<path fill="#7AB51D" d="M40.564,33.647l-10.27,0.805c-0.875,1.686-3.549,3.762-5.158,6.109c0,0,0.818,2.89,6.867,4.645
	C34.379,41.313,44.385,41.314,40.564,33.647z"/>
<path fill="#E6EBEF" d="M25.137,40.562c0,0-0.467,0.419-0.912,1.162c0,0,2.24,3.735,7.383,5.151
	c0.113-0.913,0.396-1.669,0.396-1.669C28.471,43.991,25.766,41.636,25.137,40.562z"/>
<path fill="#E6EBEF" d="M39.873,33.712l-1.457-0.189c2.426,5.563-7.09,5.003-8.781,11.104c0,0,0.895,0.653,1.506,0.832
	C32.631,39.135,43.104,40.249,39.873,33.712z"/>
<path fill="#7AB51D" d="M38.494,17.67c-0.477-0.861-2.98-0.159-3.172-0.029c-1.914,1.296-3.762,6.398-3.762,6.398
	c-0.234,0.043-2.459-1.18-0.979-4.781c0.357-0.867-1.439,0.291-1.439,0.291c-1.713,7.024,0.441,9.925,1.162,13.34
	c7.932,2.492,10.316-0.697,10.316-0.697S42.635,25.119,38.494,17.67z"/>
<path fill="#E6EBEF" d="M35.23,17.705c-2.008,1.151-3.809,6.044-3.809,6.044c-0.236,0.045-1.604-1.688-0.672-4.856
	c-0.305-0.132-0.451,0.069-0.451,0.069c-1.449,5.09,1.316,5.903,1.316,5.903C32.707,22.635,34.031,18.702,35.23,17.705z"/>
<path fill="#E6EBEF" d="M30.305,32.889c0.014,0.484,0.014,0.999-0.01,1.563c7.934,2.492,10.27-0.805,10.27-0.805
	s0.043-0.541,0.057-1.456C39.029,32.568,36.473,34.472,30.305,32.889z"/>
<path fill="#E6EBEF" d="M40.814,23.123c1.25,5.801-2.58,6.66-4.666,1.107C33.215,16.417,39.109,15.221,40.814,23.123z"/>
<path fill="#614A36" d="M40.426,22.537c0.99,4.595-2.031,5.195-3.785,0.832C34.051,16.918,39.008,15.951,40.426,22.537z"/>
<radialGradient id="SVGID_1_" cx="15.4775" cy="72.0957" r="7.2104" gradientTransform="matrix(1.0548 0 0 1.0506 -6.8719 -35.0184)" gradientUnits="userSpaceOnUse">
	<stop  offset="0" style="stop-color:#FF8800"/>
	<stop  offset="0.2913" style="stop-color:#FC8500"/>
	<stop  offset="0.5282" style="stop-color:#F27E00"/>
	<stop  offset="0.7453" style="stop-color:#E17000"/>
	<stop  offset="0.9273" style="stop-color:#CC6000"/>
	<a:midPointStop  offset="0" style="stop-color:#FF8800"/>
	<a:midPointStop  offset="0.7476" style="stop-color:#FF8800"/>
	<a:midPointStop  offset="0.9273" style="stop-color:#CC6000"/>
</radialGradient>
<ellipse fill="url(#SVGID_1_)" cx="10.659" cy="42.283" rx="6.659" ry="6.631"/>
<path fill="#1A1626" d="M13.957,43.799c-2.453-0.809-4.566-1.506-5.402-3.183c-0.059-0.113-0.104-0.229-0.143-0.346
	c3.188-1.219,6.951-1.501,8.547-0.141c-0.057-0.161-0.119-0.319-0.184-0.474c-0.773-0.521-2.084-0.819-3.561-0.76
	c-1.539,0.063-3.297,0.441-4.885,1.039c-0.117-0.695,0.059-1.443,0.516-2.104c0.787-1.138,2.184-1.804,3.84-1.866
	c-0.205-0.065-0.416-0.121-0.627-0.167c-1.678,0.155-2.809,0.845-3.496,1.838c-0.525,0.759-0.715,1.625-0.559,2.427
	c-0.273,0.109-0.539,0.225-0.797,0.346c-0.191,0.091-0.375,0.184-0.553,0.278c-0.182-0.728-0.277-1.433-0.266-2.08
	c0.008-0.548,0.098-1.199,0.41-1.729c-0.148,0.106-0.295,0.22-0.434,0.338c-0.563,1.28-0.227,2.83-0.02,3.639
	c-0.348,0.197-0.664,0.401-0.943,0.609c-0.182-0.637-0.449-1.239-0.873-1.774c-0.055,0.125-0.105,0.252-0.148,0.381
	c0.346,0.491,0.57,1.043,0.723,1.625c-0.482,0.397-0.844,0.808-1.072,1.219c0.014,0.167,0.037,0.332,0.064,0.496
	c0.197-0.388,0.514-0.842,1.094-1.344c0.141,0.668,0.203,1.369,0.268,2.061c0.094,1.032,0.221,2.391,0.729,3.068
	c0.182,0.163,0.371,0.316,0.568,0.46c-0.709-0.869-0.824-2.147-0.953-3.56c-0.07-0.764-0.139-1.537-0.311-2.274
	c0.279-0.212,0.596-0.421,0.949-0.625c0.285,0.995,0.715,2.038,1.264,3.034c1.107,2.008,2.58,4.047,4.795,4.428
	c0.189-0.055,0.377-0.117,0.559-0.188c-0.422-0.006-0.865-0.12-1.326-0.347c-2.053-1.004-4.164-4.172-4.988-7.097
	c0.195-0.104,0.4-0.207,0.613-0.308c0.24-0.113,0.486-0.221,0.734-0.322c0.043,0.126,0.094,0.251,0.154,0.371
	c0.898,1.806,3.078,2.524,5.604,3.357c0.922,0.305,1.869,0.617,2.824,1.002c0.053-0.104,0.1-0.209,0.143-0.315
	C15.844,44.423,14.889,44.106,13.957,43.799z"/>
<radialGradient id="SVGID_2_" cx="568.5586" cy="6.249" r="4.8784" gradientTransform="matrix(0.3597 0.4654 -0.7956 0.61 -191.1028 -228.6484)" gradientUnits="userSpaceOnUse">
	<stop  offset="0" style="stop-color:#FFDADA"/>
	<stop  offset="1" style="stop-color:#FFDADA;stop-opacity:0"/>
	<a:midPointStop  offset="0" style="stop-color:#FFDADA"/>
	<a:midPointStop  offset="0.4857" style="stop-color:#FFDADA"/>
	<a:midPointStop  offset="1" style="stop-color:#FFDADA;stop-opacity:0"/>
</radialGradient>
<path opacity="0.5" fill="url(#SVGID_2_)" d="M10.191,42.04C8.047,43.684,5.523,44,4.555,42.745
	c-0.969-1.254-0.02-3.603,2.127-5.246c2.143-1.644,4.664-1.959,5.635-0.705C13.285,38.048,12.332,40.396,10.191,42.04z"/>
<path fill="#614A36" d="M36.6,18.33c-2.146,2.472,5.576,6.176,8.334,7.572c-1.451,1.804-4.607,7.229-4.969,7.064
	c-1.057-0.476-1.518-0.387-2.885,0.304c-0.381,0.189,0.068,0.796,0.068,0.796c-0.752,0.661,0.113,0.751,0.291,1.287
	c0.164,0.495,0.617,0.372,0.887,0.857c0.607,1.081,2.438-0.145,3.324-1.773c0.635-1.167,5.59-4.647,7.666-9.379
	C49.754,24.062,38.896,16.342,36.6,18.33z"/>
<path fill="#7AB51D" d="M57.459,46.857l-1.182-2.24c-0.172-0.328-0.607,0.145-0.607,0.145s-0.17,2.766,4.021,9.052
	C59.691,53.813,61.225,51.036,57.459,46.857z"/>
<path fill="#302C3B" d="M53.586,46.095c-0.805-0.017-1.473,0.434-1.246,0.589c0.438,0.302,1.238,2.042,1.184,2.513
	c-1.563,0.295-1.395,1.508-0.959,1.335c3.674-1.46,4.564,4.961,7.127,3.282c0,0,0.135-3.764-2.709-6.608l-1.313-2.443
	C54.068,45.228,53.588,46.095,53.586,46.095z"/>
<path fill="#7AB51D" d="M56.73,52.282c0.375-1.275,0.178-1.778-0.434-1.547c0.109-0.784-0.395-0.937-0.738-0.762
	c-0.059-0.756-0.715-0.695-0.938,0.345C54.521,50.9,56.631,52.627,56.73,52.282z"/>
</svg>
