<?xml version="1.0" encoding="utf-8"?>
<!-- Generator: Adobe Illustrator 15.0.0, SVG Export Plug-In . SVG Version: 6.00 Build 0)  -->
<!DOCTYPE svg PUBLIC "-//W3C//DTD SVG 1.1//EN" "http://www.w3.org/Graphics/SVG/1.1/DTD/svg11.dtd" [
	<!ENTITY ns_flows "http://ns.adobe.com/Flows/1.0/">
	<!ENTITY ns_extend "http://ns.adobe.com/Extensibility/1.0/">
	<!ENTITY ns_ai "http://ns.adobe.com/AdobeIllustrator/10.0/">
	<!ENTITY ns_graphs "http://ns.adobe.com/Graphs/1.0/">
]>
<svg version="1.1" id="Layer_1" xmlns:x="&ns_extend;" xmlns:i="&ns_ai;" xmlns:graph="&ns_graphs;"
	 xmlns="http://www.w3.org/2000/svg" xmlns:xlink="http://www.w3.org/1999/xlink" xmlns:a="http://ns.adobe.com/AdobeSVGViewerExtensions/3.0/"
	 x="0px" y="0px" width="64px" height="64px" viewBox="0 0 64 64" enable-background="new 0 0 64 64" xml:space="preserve">
<path fill="#594640" d="M46.656,18.954c-0.568-0.132-1.133-1.141-1.564-2.417c0.537,0.208,1.152,0.287,1.861,0.15
	c-5.04-3.049-0.77-15.242-8.678-12.069l0.42,3.48c3-1.951-1.132,5.772,2.96,7.93c-0.403-0.4-0.403-1.237-0.295-2.228
	C42.145,16.644,43.493,19.338,46.656,18.954z"/>
<path fill="#453631" d="M46.656,18.954c-0.568-0.132-2.273-1.556-2.705-2.833c1.469,0.884,2.332,1.013,3.002,0.565
	C40.94,14.734,44.954,3.715,38.7,6.541l-0.005,1.557c3-1.951-1.132,5.772,2.96,7.93c-1.174-1.27-1.091-2.346-0.626-3.017
	C41.813,15.854,43.493,19.338,46.656,18.954z"/>
<path fill="#8E3ED6" d="M37.868,4.614c-1.136,0.622-0.876,3.789,1.251,3.917C40.863,8.641,39.379,3.784,37.868,4.614z"/>
<path fill="#F7C259" d="M29.399,17.333c1.707-0.761,1.45,3.789,1.448,4.178c0,0,1.495-2.412,4.824-3.727c0,0,0.007-1.475-0.22-3.783
	C35.618,7.642,29.399,17.333,29.399,17.333z"/>
<path fill="#FFCC66" d="M25.886,5.983c-0.386,0.916-0.58,1.968-0.393,2.842c0.287,1.347-0.338,2.009-1.374,2.929
	c-0.986,0.872,0.11,1.661,1.162,1.653c0.216,0.309,0.037,0.614,0.037,0.614c0.841,0.729,0.821,1.849,0.435,2.154
	c0,0,0.261,0.133,0.211,0.613c-0.142,1.374,0.711,1.792,2.764,1.127c4.052-1.313,4.381-4.337,4.381-4.337
	c0.829,1.17,3.319-0.825,3.388-3.259C36.619,6.277,33.135,0.45,25.886,5.983z"/>
<path fill="#E6B045" d="M33.167,11.646c-0.002-0.993,0.802-1.861,1.618-1.868c0,0-1.392,1.189-1.028,2.782
	C33.757,12.56,33.169,12.338,33.167,11.646z"/>
<path fill="#F5F5F5" d="M28.692,10.613c-0.529,0.609-1.834,0.953-2.269,0.866C25.367,8.316,27.999,9.279,28.692,10.613z"/>
<path fill="#45332C" d="M26.473,11.486c1.244-0.041,0.549-3.372-0.296-1.56C26.131,10.242,26.222,11.495,26.473,11.486z"/>
<path fill="#45332C" d="M28.692,10.613c-0.335-1.238-2.481-2.131-2.516-0.687C26.516,9.143,28.035,9.645,28.692,10.613z"/>
<path fill="#F5F5F5" d="M26.555,9.96c0.008,0.305,0.447,0.292,0.44-0.015C26.986,9.665,26.547,9.678,26.555,9.96z"/>
<path fill="#594640" d="M29.013,8.664C28.176,8,26.455,8.056,25.824,8.482c-0.14,0.082-0.002,0.562,0.104,0.493
	c0.707-0.448,2.045-0.589,3.061-0.109C29.099,8.918,29.145,8.757,29.013,8.664z"/>
<path fill="#D47706" d="M25.685,14.646c0.384,0.264,0,0.698,0,0.698c-0.346-0.013-0.348,0.926,0.068,0.832
	c1.216-0.279,2.285-1.181,2.327-1.538c-0.24,0.009-2.063-0.061-2.762-0.616C25.318,14.021,25.251,14.401,25.685,14.646z"/>
<path fill="#FFFFFF" d="M25.685,14.646v0.698c0.307,0.013,1.465-0.226,2.097-0.614C27.781,14.729,26.43,14.903,25.685,14.646z"/>
<path fill="#594640" d="M38.405,6.542C38.254,3.715,35.459,2.001,32.048,2c-4.416-0.002-6.676,2.653-6.162,3.983
	c5.081-2.445,5.442,7.063,7.403,3.94c0.984-1.564,3.238-0.717,2.771,1.413c-0.472,2.152-1.808,2.494-1.808,2.494
	c0.531,0.996,1.219,1.128,1.219,1.128C38.933,14.431,40.784,7.85,38.405,6.542z"/>
<path fill="#453631" d="M38.405,6.542c-0.151-2.827-4.939-4.136-6.517-3.831c2.287,0.375,4.961,1.87,5.259,2.81
	c-1.877-0.524-4.656-1.654-7.864-1.497c1.947,0.271,3.549,1.896,7.514,2.575c0,0-2.896,0.597-6.035-0.726
	c0.845,1.133,3.143,2.213,4.271,2.555c-1.271,0.063-2.699-0.08-5.647-2.054c1.949,1.773,2.537,5.723,3.903,3.549
	c0.984-1.564,3.238-0.717,2.771,1.413c-0.472,2.152-1.808,2.494-1.808,2.494c0.531,0.996,1.219,1.128,1.219,1.128
	C38.933,14.431,40.784,7.85,38.405,6.542z"/>
<path fill="#E6B045" d="M26.211,12.905c-0.163,0.418-0.8,0.524-1.18,0.51c-0.508-0.019-0.988-0.28-1.201-0.641
	C24.035,12.354,25.108,13.452,26.211,12.905z"/>
<path fill="#FFCC66" d="M24.001,57.532c1.988-5.916,4.466-5.879,4.611-11.497c0.431-0.087,0.867-0.175,1.3-0.264
	c-0.37-2.603-1.046-3.882-2.797-4.956c-1.627,0.563-2.498,1.576-2.61,1.752c-0.663,1.041-0.773,6.205-3.713,13.975
	C20.553,57.177,23.894,57.854,24.001,57.532z"/>
<path fill="#8E3ED6" d="M21.733,61.603h2.53c0.37,0,0.157-0.606,0.157-0.606s-2.363-1.442-9.87-0.669
	C14.551,60.327,16.285,62.981,21.733,61.603z"/>
<path fill="#302C3B" d="M24.217,58.529c0.392-0.706,0.307-1.509,0.063-1.38c-0.47,0.247-2.38,0.143-2.771-0.125
	c0.47-1.521-0.679-1.941-0.729-1.475c-0.43,3.936-6.514,1.724-6.229,4.777c0,0,3.259,1.878,7.099,0.689l2.771-0.021
	C24.757,59.362,24.216,58.53,24.217,58.529z"/>
<path fill="#8E3ED6" d="M17.285,58.42c0.951,0.929,1.487,0.988,1.568,0.339c0.643,0.464,1.012,0.09,1.019-0.297
	c0.693,0.302,0.947-0.309,0.134-0.992C19.539,57.11,17.029,58.171,17.285,58.42z"/>
<path fill="#FFCC66" d="M53.457,46.755c-5.587-0.471-6.08-2.632-11.017-1.567c-0.167-0.356-0.335-0.716-0.505-1.073
	c-2.194,0.873-3.167,1.73-3.734,3.48c0.837,1.294,1.905,1.836,2.084,1.896c1.049,0.355,5.58-0.645,12.987,0.262
	C53.878,49.827,53.761,46.78,53.457,46.755z"/>
<path fill="#FFCC66" d="M29.94,19.727c-1.441-0.182-6.133,1.855-9.677,2.358c-1.011,0.144-7.785,3.62-8.237,3.904
	c-0.466,0.293-1.797,1.078-2.203,1.541c-0.447,0.517-2.3,2.55-1.707,3.911c0.537,1.227,2.787-2.182,3.746-1.981
	c-0.45,1.541,0.391,2.144,0.729,1.2c0.784-2.198,0.411-2.572,0.76-2.854c0.505-0.407,6.385-2.422,7.992-2.815
	c3.207-0.786,5.319-0.73,8.219-0.849C32.641,24.014,33.775,20.206,29.94,19.727z"/>
<path fill="#5D1E96" d="M34.714,40.444c0,0-0.736,6.842,4.43,8.911c0,0,3.333,0.374,3.561-5.136
	c-3.085-1.539,0.709-6.24-2.552-10.551L34.714,40.444z"/>
<path fill="#E6EBEF" d="M42.704,44.22c-0.229,4.873-3.135,4.505-3.561,5.136c0.393,0.163,0.795,0.304,1.208,0.405
	c0,0,3.152,0.529,3.38-4.98C43.3,44.621,42.976,44.43,42.704,44.22z"/>
<path fill="#F7C259" d="M35.958,17.657c-3.253,8.578-6.856,12.063-6.522,1.838C30.578,19.308,32.963,16.907,35.958,17.657z"/>
<path fill="#8E3ED6" d="M40.563,33.647l-9.223,0.904c-0.876,1.686-4.132,3.762-5.74,6.109c0,0,0.354,2.789,6.403,4.545
	C34.378,41.312,44.385,41.313,40.563,33.647z"/>
<path fill="#E6EBEF" d="M25.601,40.661c0,0-0.467,0.419-0.912,1.162c0,0,1.776,3.635,6.919,5.052
	c0.113-0.913,0.396-1.669,0.396-1.669C28.471,43.991,26.229,41.735,25.601,40.661z"/>
<path fill="#E6EBEF" d="M39.873,33.712l-1.458-0.189c2.426,5.563-7.089,5.002-8.78,11.104c0,0,0.895,0.654,1.506,0.832
	C32.63,39.134,43.104,40.249,39.873,33.712z"/>
<path fill="#8E3ED6" d="M38.493,17.67c-0.477-0.862-2.979-0.16-3.172-0.03c-1.913,1.296-3.761,6.398-3.761,6.398
	c-0.234,0.043-2.459-1.179-0.979-4.781c0.358-0.867-1.439,0.292-1.439,0.292c-0.353,4.731-1.8,5.943,0.258,8.713
	c0.632,0.851,1.941,2.897,1.95,4.725c7.932,2.492,9.271-0.797,9.271-0.797S42.635,25.119,38.493,17.67z"/>
<path fill="#E6EBEF" d="M35.229,17.705c-2.007,1.151-3.808,6.043-3.808,6.043c-0.237,0.045-1.604-1.687-0.673-4.856
	c-0.305-0.132-0.451,0.07-0.451,0.07c-1.449,5.089,1.317,5.903,1.317,5.903C32.707,22.635,34.031,18.702,35.229,17.705z"/>
<path fill="#E6EBEF" d="M31.35,32.987c0.015,0.484,0.015,1-0.009,1.564c7.933,2.492,9.223-0.904,9.223-0.904
	s0.044-0.541,0.057-1.457C39.028,32.567,37.518,34.571,31.35,32.987z"/>
<path fill="#E6EBEF" d="M40.814,23.123c1.249,5.801-2.581,6.66-4.667,1.107C33.215,16.417,39.108,15.221,40.814,23.123z"/>
<path fill="#FFCC66" d="M40.426,22.537c0.99,4.595-2.032,5.195-3.785,0.832C34.05,16.918,39.007,15.951,40.426,22.537z"/>
<radialGradient id="SVGID_1_" cx="15.4766" cy="72.0957" r="7.2104" gradientTransform="matrix(1.0548 0 0 1.0506 -6.8719 -35.0184)" gradientUnits="userSpaceOnUse">
	<stop  offset="0" style="stop-color:#FF8800"/>
	<stop  offset="0.2913" style="stop-color:#FC8500"/>
	<stop  offset="0.5282" style="stop-color:#F27E00"/>
	<stop  offset="0.7453" style="stop-color:#E17000"/>
	<stop  offset="0.9273" style="stop-color:#CC6000"/>
	<a:midPointStop  offset="0" style="stop-color:#FF8800"/>
	<a:midPointStop  offset="0.7476" style="stop-color:#FF8800"/>
	<a:midPointStop  offset="0.9273" style="stop-color:#CC6000"/>
</radialGradient>
<ellipse fill="url(#SVGID_1_)" cx="10.659" cy="42.282" rx="6.659" ry="6.632"/>
<path fill="#1A1626" d="M13.956,43.798c-2.452-0.808-4.566-1.506-5.402-3.182c-0.058-0.113-0.103-0.229-0.142-0.346
	c3.187-1.219,6.951-1.501,8.546-0.141c-0.056-0.161-0.118-0.319-0.184-0.475c-0.773-0.52-2.084-0.818-3.56-0.76
	c-1.539,0.063-3.298,0.441-4.886,1.04c-0.117-0.695,0.06-1.444,0.517-2.104c0.787-1.139,2.183-1.805,3.84-1.867
	c-0.206-0.064-0.416-0.12-0.628-0.166c-1.678,0.155-2.809,0.845-3.496,1.838c-0.525,0.758-0.715,1.625-0.558,2.427
	c-0.273,0.109-0.539,0.224-0.797,0.346c-0.191,0.091-0.375,0.183-0.554,0.278c-0.181-0.728-0.276-1.434-0.266-2.08
	c0.008-0.549,0.099-1.199,0.41-1.729c-0.148,0.105-0.295,0.219-0.434,0.338c-0.563,1.279-0.226,2.83-0.019,3.639
	c-0.349,0.197-0.664,0.401-0.944,0.609c-0.181-0.637-0.449-1.24-0.873-1.774c-0.054,0.125-0.104,0.252-0.148,0.381
	c0.347,0.491,0.57,1.042,0.723,1.625c-0.481,0.397-0.844,0.808-1.072,1.219c0.015,0.167,0.037,0.332,0.064,0.495
	c0.197-0.387,0.514-0.842,1.095-1.344c0.141,0.669,0.203,1.369,0.268,2.061c0.093,1.033,0.221,2.392,0.729,3.069
	c0.182,0.163,0.37,0.316,0.567,0.46c-0.709-0.869-0.824-2.147-0.953-3.56c-0.07-0.764-0.139-1.538-0.31-2.274
	c0.278-0.212,0.595-0.422,0.949-0.625c0.284,0.995,0.714,2.037,1.264,3.033c1.107,2.008,2.58,4.047,4.795,4.428
	c0.189-0.054,0.377-0.117,0.559-0.187c-0.422-0.006-0.865-0.12-1.326-0.347c-2.053-1.004-4.165-4.172-4.988-7.098
	c0.195-0.104,0.399-0.207,0.613-0.307c0.24-0.113,0.485-0.221,0.734-0.322c0.042,0.126,0.093,0.25,0.153,0.371
	c0.899,1.805,3.079,2.524,5.604,3.357c0.923,0.305,1.869,0.617,2.825,1.002c0.053-0.104,0.099-0.209,0.142-0.315
	C15.844,44.423,14.888,44.106,13.956,43.798z"/>
<radialGradient id="SVGID_2_" cx="568.5586" cy="6.25" r="4.8779" gradientTransform="matrix(0.3597 0.4654 -0.7956 0.61 -191.1028 -228.6484)" gradientUnits="userSpaceOnUse">
	<stop  offset="0" style="stop-color:#FFDADA"/>
	<stop  offset="1" style="stop-color:#FFDADA;stop-opacity:0"/>
	<a:midPointStop  offset="0" style="stop-color:#FFDADA"/>
	<a:midPointStop  offset="0.4857" style="stop-color:#FFDADA"/>
	<a:midPointStop  offset="1" style="stop-color:#FFDADA;stop-opacity:0"/>
</radialGradient>
<path opacity="0.5" fill="url(#SVGID_2_)" d="M10.19,42.04c-2.144,1.644-4.667,1.959-5.637,0.705
	c-0.968-1.254-0.019-3.603,2.128-5.246c2.142-1.644,4.664-1.959,5.634-0.705S12.332,40.396,10.19,42.04z"/>
<path fill="#FFCC66" d="M36.6,18.33c-2.146,2.472,6.235,5.843,8.993,7.239c-1.452,1.804-5.267,7.563-5.629,7.397
	c-1.057-0.476-1.517-0.387-2.885,0.304c-0.38,0.189,0.069,0.795,0.069,0.795c-0.752,0.662,0.113,0.752,0.291,1.288
	c0.164,0.495,0.616,0.372,0.887,0.857c0.606,1.081,2.437-0.145,3.324-1.774c0.635-1.166,5.589-4.646,7.666-9.378
	C49.754,24.061,38.896,16.342,36.6,18.33z"/>
<path fill="#8E3ED6" d="M57.459,46.857l-1.182-2.241c-0.173-0.327-0.608,0.145-0.608,0.145s-0.169,2.767,4.022,9.053
	C59.691,53.813,61.225,51.036,57.459,46.857z"/>
<path fill="#302C3B" d="M53.586,46.095c-0.806-0.017-1.474,0.434-1.247,0.589c0.438,0.302,1.239,2.042,1.184,2.513
	c-1.562,0.295-1.395,1.508-0.959,1.334c3.675-1.459,4.565,4.962,7.128,3.283c0,0,0.135-3.764-2.709-6.608l-1.313-2.444
	C54.067,45.228,53.588,46.095,53.586,46.095z"/>
<path fill="#8E3ED6" d="M56.729,52.282c0.376-1.275,0.178-1.778-0.434-1.547c0.109-0.785-0.395-0.938-0.738-0.762
	c-0.058-0.756-0.715-0.695-0.938,0.344C54.521,50.899,56.63,52.626,56.729,52.282z"/>
</svg>
