<?xml version="1.0" encoding="utf-8"?>
<!-- Generator: Adobe Illustrator 19.0.0, SVG Export Plug-In . SVG Version: 6.00 Build 0)  -->
<svg version="1.1" id="Layer_1" xmlns="http://www.w3.org/2000/svg" xmlns:xlink="http://www.w3.org/1999/xlink" x="0px" y="0px"
	 width="64px" height="64px" viewBox="0 0 64 64" enable-background="new 0 0 64 64" xml:space="preserve">
<path fill="#F7C259" d="M29.423,17.639c1.736-0.776,1.476,3.863,1.474,4.261c0,0,1.521-2.46,4.908-3.801
	c0,0,0.008-1.503-0.224-3.857C35.75,7.754,29.423,17.639,29.423,17.639z"/>
<path fill="#FFCC66" d="M25.621,6.517c-0.36,0.94-0.316,1.724-0.11,2.6c0.322,1.349-0.28,2.042-1.282,3.017
	c-0.952,0.923,0.153,1.674,1.195,1.622c0.22,0.304,0.157,0.804,0.157,0.804s0.797,0.601,0.163,1.748
	c0.845,0.785-0.597,2.251,1.464,2.246c2.011-0.006,4.628-1.604,5.074-2.061c0.703-0.722,0.893-2.893,0.893-2.893
	c0.854,1.148,2.982-0.955,2.988-3.421C36.174,6.091,32.65,0.621,25.621,6.517z"/>
<path fill="#E6B045" d="M33.153,10.976c-0.039-0.974,0.728-1.855,1.53-1.89c0,0-1.331,1.216-0.92,2.771
	C33.764,11.857,33.177,11.657,33.153,10.976z"/>
<path fill="#F5F5F5" d="M28.974,10.724c-0.54,0.585-1.841,0.885-2.267,0.786C25.757,8.372,28.327,9.393,28.974,10.724z"/>
<path fill="#45332C" d="M26.757,11.52c1.229-0.005,0.639-3.299-0.248-1.544C26.454,10.288,26.507,11.52,26.757,11.52z"/>
<path fill="#E6B045" d="M28.974,10.724c-0.3-1.226-2.39-2.166-2.466-0.747C26.865,9.22,28.351,9.755,28.974,10.724z"/>
<path fill="#F5F5F5" d="M26.882,10.021c-0.002,0.301,0.432,0.3,0.434-0.001C27.315,9.744,26.882,9.744,26.882,10.021z"/>
<path fill="#C1873C" d="M29.138,8.647c-0.851-0.625-2.488-0.652-3.099-0.212c-0.132,0.083-0.047,0.68,0.06,0.622
	c0.854-0.468,2.224-0.482,3.021,0.033C29.223,9.156,29.267,8.735,29.138,8.647z"/>
<path fill="#E6A400" d="M25.615,15.001c0.388,0.25,0.083,0.659,0.083,0.659c-0.189,0.002-0.234,0.649,0.046,0.647
	c1.388-0.004,1.918-0.911,2.293-1.418C26.511,14.811,24.986,14.052,25.615,15.001z"/>
<path fill="#FFFFFF" d="M25.615,15.001c0,0,0.013,0.572,0.083,0.659c0.305,0,1.432-0.246,2.045-0.667L25.615,15.001z"/>
<path fill="#594640" d="M38.178,4.687C37.276,3.052,35.388,1.991,32.072,2c-3.055,0.007-4.9,1.022-5.696,0.637
	c0,0-0.162,0.505,0.036,0.934c-0.422,0.021-0.674-0.258-0.676-0.253c-0.294,0.478-0.803,1.72-0.115,3.199
	c4.834-1.812,5.116-0.118,6.219,1.227c0.253,0.312-0.546,1.706,0.722,3.114c0.274-3.132,3.969-2.848,3.535-0.139
	c-0.276,1.735-1.057,2.467-1.483,2.868c0.701,0.213,1.012,1.03,1.012,1.03C39.073,14.608,40.311,6.308,38.178,4.687z"/>
<path fill="#E6B045" d="M26.329,13.21c-0.146,0.43-0.776,0.564-1.151,0.564c-0.504,0.002-0.986-0.241-1.206-0.596
	C24.163,12.745,25.253,13.809,26.329,13.21z"/>
<path fill="#FFCC66" d="M24.001,57.533c1.988-5.916,4.466-5.88,4.611-11.498c0.431-0.087,0.867-0.174,1.3-0.264
	c-0.37-2.603-1.51-3.98-3.261-5.056c-1.627,0.563-2.498,1.577-2.61,1.753c-0.663,1.04-0.31,6.304-3.249,14.074
	C20.553,57.177,23.893,57.853,24.001,57.533z"/>
<path fill="#7AB51D" d="M21.733,61.602h2.53c0.37,0,0.157-0.606,0.157-0.606s-2.363-1.442-9.87-0.669
	C14.551,60.327,16.285,62.982,21.733,61.602z"/>
<path fill="#302C3B" d="M24.217,58.529c0.392-0.705,0.307-1.508,0.063-1.38c-0.47,0.247-2.38,0.143-2.771-0.125
	c0.47-1.522-0.679-1.941-0.729-1.475c-0.43,3.936-6.514,1.724-6.229,4.777c0,0,3.259,1.878,7.099,0.689l2.771-0.021
	C24.757,59.362,24.216,58.53,24.217,58.529z"/>
<path fill="#7AB51D" d="M17.285,58.42c0.951,0.929,1.487,0.988,1.568,0.339c0.643,0.464,1.012,0.09,1.019-0.296
	c0.693,0.301,0.947-0.31,0.134-0.992C19.539,57.11,17.029,58.171,17.285,58.42z"/>
<path fill="#FFCC66" d="M53.457,46.756c-5.587-0.472-6.08-2.633-11.017-1.568c-0.167-0.356-0.335-0.715-0.505-1.072
	c-2.194,0.872-3.167,1.73-3.734,3.479c0.837,1.294,1.905,2.648,2.084,2.709c1.049,0.355,5.58-1.456,12.987-0.551
	C53.878,49.827,53.761,46.781,53.457,46.756z"/>
<path fill="#FFCC66" d="M29.94,19.727c-1.441-0.183-6.133,1.854-9.677,2.357c-1.011,0.145-7.785,3.62-8.237,3.904
	c-0.466,0.293-1.797,1.078-2.203,1.54c-0.447,0.517-2.3,2.55-1.707,3.911c0.537,1.227,2.787-2.182,3.746-1.982
	c-0.45,1.541,0.391,2.145,0.729,1.2c0.784-2.198,0.411-2.572,0.76-2.854c0.505-0.407,6.436-2.092,8.043-2.485
	c3.207-0.785,5.341-0.85,8.24-0.969C32.713,24.225,33.775,20.206,29.94,19.727z"/>
<path fill="#529320" d="M34.714,40.445c0,0-0.736,7.653,4.43,9.723c0,0,3.333-0.438,3.561-5.948
	c-3.085-1.539,0.709-6.24-2.552-10.55L34.714,40.445z"/>
<path fill="#E6EBEF" d="M42.704,44.22c-0.229,4.873-3.135,5.317-3.561,5.948c0.392,0.164,0.795,0.304,1.208,0.405
	c0,0,3.152-0.283,3.38-5.792C43.3,44.621,42.975,44.43,42.704,44.22z"/>
<path fill="#F7C259" d="M35.958,17.657c-3.253,8.578-6.856,12.063-6.523,1.838C30.578,19.308,32.963,16.907,35.958,17.657z"/>
<path fill="#7AB51D" d="M40.563,33.647l-10.269,0.805c-0.876,1.686-3.55,3.762-5.158,6.109c0,0,0.817,2.89,6.867,4.645
	C34.378,41.312,44.385,41.314,40.563,33.647z"/>
<path fill="#E6EBEF" d="M25.137,40.561c0,0-0.467,0.419-0.912,1.162c0,0,2.24,3.735,7.383,5.151
	c0.113-0.913,0.396-1.669,0.396-1.669C28.471,43.991,25.764,41.636,25.137,40.561z"/>
<path fill="#E6EBEF" d="M39.873,33.712l-1.458-0.19c2.426,5.563-7.089,5.003-8.78,11.104c0,0,0.895,0.653,1.506,0.832
	C32.63,39.135,43.103,40.249,39.873,33.712z"/>
<path fill="#7AB51D" d="M38.493,17.67c-0.477-0.861-2.979-0.159-3.172-0.029c-1.913,1.296-3.761,6.398-3.761,6.398
	c-0.234,0.043-2.459-1.18-0.979-4.781c0.358-0.867-1.44,0.291-1.44,0.291c-1.713,7.024,0.441,9.925,1.162,13.34
	c7.932,2.492,10.316-0.697,10.316-0.697S42.635,25.119,38.493,17.67z"/>
<path fill="#E6EBEF" d="M35.229,17.705c-2.007,1.151-3.808,6.044-3.808,6.044c-0.237,0.045-1.604-1.688-0.673-4.856
	c-0.305-0.132-0.451,0.069-0.451,0.069c-1.449,5.09,1.317,5.903,1.317,5.903C32.707,22.635,34.031,18.702,35.229,17.705z"/>
<path fill="#E6EBEF" d="M30.304,32.889c0.015,0.484,0.015,0.999-0.009,1.564c7.933,2.492,10.269-0.805,10.269-0.805
	s0.044-0.541,0.057-1.456C39.028,32.568,36.472,34.472,30.304,32.889z"/>
<path fill="#E6EBEF" d="M40.814,23.123c1.249,5.801-2.581,6.66-4.667,1.107C33.215,16.417,39.108,15.221,40.814,23.123z"/>
<path fill="#FFCC66" d="M40.426,22.537c0.99,4.595-2.032,5.195-3.785,0.832C34.05,16.918,39.007,15.951,40.426,22.537z"/>
<radialGradient id="SVGID_1_" cx="15.4764" cy="72.0954" r="7.2103" gradientTransform="matrix(1.0548 0 0 1.0506 -6.8711 -35.018)" gradientUnits="userSpaceOnUse">
	<stop  offset="0" style="stop-color:#FF8800"/>
	<stop  offset="0.2913" style="stop-color:#FC8500"/>
	<stop  offset="0.5282" style="stop-color:#F27E00"/>
	<stop  offset="0.7453" style="stop-color:#E17000"/>
	<stop  offset="0.9273" style="stop-color:#CC6000"/>
</radialGradient>
<ellipse fill="url(#SVGID_1_)" cx="10.659" cy="42.283" rx="6.659" ry="6.631"/>
<path fill="#1A1626" d="M13.956,43.799c-2.452-0.809-4.567-1.506-5.402-3.183c-0.058-0.113-0.102-0.229-0.142-0.346
	c3.187-1.219,6.951-1.501,8.546-0.141c-0.056-0.161-0.118-0.319-0.184-0.474c-0.773-0.521-2.084-0.819-3.56-0.76
	c-1.539,0.063-3.298,0.442-4.886,1.039c-0.117-0.695,0.06-1.443,0.517-2.104c0.787-1.138,2.183-1.804,3.84-1.866
	c-0.206-0.065-0.416-0.121-0.628-0.167c-1.678,0.155-2.809,0.845-3.496,1.838c-0.525,0.759-0.715,1.625-0.558,2.427
	c-0.273,0.109-0.539,0.225-0.797,0.346c-0.191,0.091-0.375,0.184-0.554,0.278c-0.181-0.728-0.276-1.433-0.266-2.08
	c0.008-0.548,0.099-1.199,0.41-1.729c-0.148,0.106-0.295,0.22-0.434,0.338c-0.563,1.28-0.226,2.83-0.019,3.639
	c-0.349,0.197-0.664,0.401-0.944,0.609c-0.181-0.637-0.449-1.239-0.873-1.774c-0.054,0.125-0.104,0.252-0.148,0.381
	c0.347,0.491,0.57,1.043,0.723,1.625c-0.481,0.397-0.844,0.808-1.072,1.219c0.015,0.167,0.037,0.332,0.064,0.496
	c0.197-0.388,0.514-0.842,1.095-1.344c0.141,0.668,0.203,1.369,0.268,2.06c0.093,1.032,0.221,2.391,0.728,3.068
	c0.182,0.163,0.37,0.316,0.567,0.46c-0.709-0.869-0.824-2.147-0.953-3.56c-0.07-0.764-0.139-1.537-0.31-2.274
	c0.278-0.212,0.595-0.421,0.949-0.625c0.284,0.995,0.714,2.038,1.264,3.034c1.107,2.008,2.58,4.047,4.795,4.428
	c0.189-0.055,0.377-0.117,0.559-0.188c-0.422-0.006-0.865-0.12-1.326-0.347c-2.053-1.004-4.165-4.172-4.988-7.097
	c0.195-0.104,0.399-0.207,0.613-0.308c0.24-0.113,0.485-0.221,0.734-0.322c0.042,0.126,0.093,0.251,0.153,0.371
	c0.899,1.806,3.079,2.524,5.603,3.357c0.923,0.305,1.869,0.617,2.825,1.002c0.053-0.103,0.099-0.209,0.142-0.315
	C15.844,44.423,14.888,44.106,13.956,43.799z"/>
<radialGradient id="SVGID_2_" cx="568.5572" cy="6.2497" r="4.878" gradientTransform="matrix(0.3597 0.4654 -0.7956 0.61 -191.1028 -228.6487)" gradientUnits="userSpaceOnUse">
	<stop  offset="0" style="stop-color:#FFDADA"/>
	<stop  offset="1" style="stop-color:#FFDADA;stop-opacity:0"/>
</radialGradient>
<path opacity="0.5" fill="url(#SVGID_2_)" d="M10.19,42.04C8.047,43.684,5.523,44,4.554,42.745
	c-0.968-1.254-0.018-3.603,2.128-5.246c2.142-1.644,4.664-1.959,5.634-0.705C13.285,38.048,12.332,40.396,10.19,42.04z"/>
<path fill="#FFCC66" d="M36.599,18.33c-2.147,2.472,5.576,6.176,8.334,7.572c-1.452,1.804-4.607,7.229-4.97,7.064
	c-1.057-0.476-1.517-0.387-2.885,0.304c-0.38,0.189,0.069,0.796,0.069,0.796c-0.752,0.661,0.113,0.751,0.291,1.287
	c0.164,0.495,0.616,0.372,0.887,0.857c0.606,1.081,2.437-0.144,3.324-1.773c0.635-1.167,5.589-4.647,7.666-9.379
	C49.754,24.061,38.896,16.342,36.599,18.33z"/>
<path fill="#7AB51D" d="M57.459,46.857l-1.182-2.24c-0.173-0.328-0.608,0.145-0.608,0.145s-0.169,2.766,4.022,9.052
	C59.691,53.813,61.224,51.036,57.459,46.857z"/>
<path fill="#302C3B" d="M53.586,46.095c-0.806-0.017-1.474,0.434-1.247,0.589c0.438,0.302,1.239,2.042,1.184,2.513
	c-1.562,0.295-1.395,1.508-0.959,1.335c3.675-1.46,4.565,4.961,7.128,3.282c0,0,0.135-3.764-2.709-6.608l-1.313-2.443
	C54.067,45.227,53.588,46.095,53.586,46.095z"/>
<path fill="#7AB51D" d="M56.729,52.282c0.376-1.275,0.178-1.778-0.434-1.547c0.109-0.784-0.394-0.937-0.738-0.762
	c-0.058-0.756-0.715-0.695-0.938,0.345C54.52,50.9,56.63,52.627,56.729,52.282z"/>
</svg>
