<?xml version="1.0" encoding="utf-8"?>
<!-- Generator: Adobe Illustrator 19.0.0, SVG Export Plug-In . SVG Version: 6.00 Build 0)  -->
<svg version="1.1" id="Layer_1" xmlns="http://www.w3.org/2000/svg" xmlns:xlink="http://www.w3.org/1999/xlink" x="0px" y="0px"
	 width="64px" height="64px" viewBox="0 0 64 64" enable-background="new 0 0 64 64" xml:space="preserve">
<radialGradient id="SVGID_1_" cx="-6.0938" cy="37.8783" r="37.7416" gradientTransform="matrix(0.8994 0 0 0.9244 45.3521 -4.7729)" gradientUnits="userSpaceOnUse">
	<stop  offset="0.4485" style="stop-color:#E3C19B"/>
	<stop  offset="0.7869" style="stop-color:#E3BF99"/>
	<stop  offset="0.9495" style="stop-color:#E3B991"/>
	<stop  offset="1" style="stop-color:#E3B68D"/>
</radialGradient>
<path fill="url(#SVGID_1_)" d="M4.665,24.084c-5.391,15.385,1.918,38.563,27.924,36.822c16.131-1.08,25.031-8.691,27.697-20.133
	C68.13,7.108,9.103,11.422,4.665,24.084z"/>
<path fill="#CF9E70" d="M29.87,62c-12.463,0-19.207-5.824-22.672-10.709c-5.336-7.525-6.701-18.334-3.477-27.537
	c2.281-6.507,15.768-10.018,27.301-10.018c12.307,0,22.219,3.596,27.193,9.865C61.857,28.188,62.88,34.041,61.259,41
	c-2.939,12.619-12.83,19.849-28.604,20.904C31.714,61.967,30.776,62,29.87,62z M31.023,15.737c-12.336,0-23.736,3.893-25.412,8.678
	c-3.018,8.611-1.754,18.707,3.219,25.721C12.021,54.635,18.263,60,29.87,60c0.863,0,1.756-0.031,2.65-0.091
	c14.807-0.991,24.07-7.687,26.791-19.363c1.477-6.334,0.58-11.616-2.662-15.701C52.056,19.057,42.714,15.737,31.023,15.737z"/>
<path fill="#CF9E70" d="M47.36,31.916l-1.623-1.836c-6.752-1.233-19.686,5.574-21.978,16.842
	C27.132,37.008,40.946,30.42,47.36,31.916z"/>
<radialGradient id="SVGID_2_" cx="-3.1626" cy="89.3726" r="11.4854" gradientTransform="matrix(0.9677 0.0045 0.0036 1.1739 41.5441 -96.197)" gradientUnits="userSpaceOnUse">
	<stop  offset="0.4545" style="stop-color:#E3C19B"/>
	<stop  offset="0.7558" style="stop-color:#E3BD96"/>
	<stop  offset="1" style="stop-color:#E3B68D"/>
</radialGradient>
<path fill="url(#SVGID_2_)" d="M30.025,9.791c-0.053-9.109,13.791-9.028,13.861,0.082l0.061,9.467
	c0.072,9.111-13.793,9.029-13.861-0.086L30.025,9.791z"/>
<radialGradient id="SVGID_3_" cx="-17.317" cy="92.3691" r="11.4854" gradientTransform="matrix(0.9677 0.0045 0.0036 1.1739 41.308 -98.4169)" gradientUnits="userSpaceOnUse">
	<stop  offset="0.4545" style="stop-color:#E3C19B"/>
	<stop  offset="0.7558" style="stop-color:#E3BD96"/>
	<stop  offset="1" style="stop-color:#E3B68D"/>
</radialGradient>
<path fill="url(#SVGID_3_)" d="M16.101,11.025c-0.053-9.108,13.793-9.026,13.863,0.082l0.061,9.468
	c0.07,9.111-13.797,9.029-13.863-0.087L16.101,11.025z"/>
<radialGradient id="SVGID_4_" cx="-30.5792" cy="98.7255" r="10.3155" gradientTransform="matrix(0.9677 0.0045 0.0036 1.1739 40.7213 -101.583)" gradientUnits="userSpaceOnUse">
	<stop  offset="0.4545" style="stop-color:#E3C19B"/>
	<stop  offset="0.7558" style="stop-color:#E3BD96"/>
	<stop  offset="1" style="stop-color:#E3B68D"/>
</radialGradient>
<path fill="url(#SVGID_4_)" d="M3.599,15.151C3.55,6.969,15.985,7.043,16.048,15.223l0.053,8.506
	c0.064,8.184-12.389,8.106-12.449-0.08L3.599,15.151z"/>
<radialGradient id="SVGID_5_" cx="11.4132" cy="90.4579" r="11.4858" gradientTransform="matrix(0.9677 0.0045 0.0036 1.1739 41.3578 -95.1876)" gradientUnits="userSpaceOnUse">
	<stop  offset="0.4545" style="stop-color:#E3C19B"/>
	<stop  offset="0.7558" style="stop-color:#E3BD96"/>
	<stop  offset="1" style="stop-color:#E3B68D"/>
</radialGradient>
<path fill="url(#SVGID_5_)" d="M43.946,12.139C43.894,3.03,57.735,3.112,57.81,12.221l0.061,9.471
	c0.066,9.109-13.793,9.025-13.863-0.09L43.946,12.139z"/>
<path fill="#CF9E70" d="M58.81,12.213C58.743,4.149,48.653,1.862,44.485,7.28C42.319,0.524,32.21,0.206,29.614,6.587
	C25.81,1.049,15.726,2.444,15.13,10.254C11.161,6.149,2.556,7.813,2.599,15.157l0.053,8.5c0,8.533,12.338,9.826,14.256,1.879
	c3.664,4.406,11.371,3.561,13.529-1.756c2.981,4.332,9.869,4.455,12.973,0.426c2.471,7.67,15.461,7.103,15.461-2.521L58.81,12.213z
	 M4.651,23.643l-0.053-8.498C4.56,8.38,15.048,8.254,15.048,15.229l0.053,8.507C15.155,30.516,4.651,30.502,4.651,23.643z
	 M17.161,20.481l-0.061-9.463c0-7.723,11.863-7.744,11.863,0.095l0.061,9.47C29.025,28.42,17.161,28.191,17.161,20.481z
	 M31.085,19.247l-0.06-9.462c0-7.785,11.861-7.677,11.861,0.095l0.061,9.469C42.946,27.252,31.085,26.92,31.085,19.247z
	 M45.007,21.594l-0.061-9.462c0-7.879,11.863-7.671,11.863,0.095l0.061,9.471C56.87,29.545,45.007,29.295,45.007,21.594z"/>
<path fill="#E3C19B" d="M37.14,17.965c-2.697-0.012-9.09,2.26-18.168,2.506c-3.975,0.106-4.631,6.283,1.381,9.002
	c8.383,3.781,21.307-1.152,25.186,7.169c0.955,2.051,14.727-6.378,12.543-10.077C52.765,17.563,39.023,17.975,37.14,17.965z"/>
<path fill="#CF9E70" d="M44.632,37.065c-2.086-4.475-7.18-4.642-13.078-4.836c-3.99-0.131-8.117-0.268-11.611-1.844
	c-4.092-1.851-5.426-5.145-4.932-7.589c0.396-1.967,1.941-3.273,3.936-3.325c5.615-0.152,10.176-1.09,13.506-1.773
	c2.08-0.428,3.568-0.736,4.691-0.733c0.135-0.002,0.316-0.004,0.557-0.01c13.586-0.343,19.414,4.53,21.896,8.662l-1.059,2.285
	c-2.506-4.809-8.148-9.25-20.791-8.947c-0.266,0.006-0.473,0.009-0.613,0.01c-0.006,0-0.012,0-0.018,0
	c-0.9,0-2.385,0.305-4.262,0.691c-3.402,0.699-8.063,1.656-13.856,1.813c-1.074,0.028-1.814,0.656-2.029,1.722
	c-0.324,1.613,0.725,3.981,3.795,5.37c3.135,1.413,7.059,1.543,10.855,1.668c6.008,0.198,12.219,0.402,14.824,5.989L44.632,37.065z"
	/>
</svg>
