<?xml version="1.0" encoding="utf-8"?>
<!-- Generator: Adobe Illustrator 19.0.0, SVG Export Plug-In . SVG Version: 6.00 Build 0)  -->
<svg version="1.1" id="Layer_1" xmlns="http://www.w3.org/2000/svg" xmlns:xlink="http://www.w3.org/1999/xlink" x="0px" y="0px"
	 width="64px" height="64px" viewBox="0 0 64 64" enable-background="new 0 0 64 64" xml:space="preserve">
<radialGradient id="SVGID_1_" cx="-6.0937" cy="37.8783" r="37.7416" gradientTransform="matrix(0.8994 0 0 0.9244 45.3521 -4.7729)" gradientUnits="userSpaceOnUse">
	<stop  offset="0.4485" style="stop-color:#FCD5B2"/>
	<stop  offset="0.7565" style="stop-color:#FBD3B0"/>
	<stop  offset="0.9046" style="stop-color:#F6CDA8"/>
	<stop  offset="1" style="stop-color:#F0C59E"/>
</radialGradient>
<path fill="url(#SVGID_1_)" d="M4.665,24.084c-5.391,15.385,1.918,38.563,27.923,36.822c16.132-1.08,25.032-8.691,27.698-20.133
	C68.13,7.108,9.103,11.422,4.665,24.084z"/>
<path fill="#E0AF82" d="M29.869,62c-12.462,0-19.207-5.824-22.671-10.709c-5.337-7.525-6.701-18.334-3.477-27.537
	c2.28-6.507,15.767-10.018,27.301-10.018c12.306,0,22.218,3.596,27.193,9.865C61.857,28.188,62.88,34.041,61.259,41
	C58.32,53.62,48.428,60.849,32.656,61.905C31.714,61.967,30.777,62,29.869,62z M31.023,15.737c-12.336,0-23.736,3.893-25.413,8.678
	c-3.018,8.611-1.753,18.707,3.22,25.721c3.191,4.5,9.433,9.865,21.04,9.865c0.864,0,1.756-0.031,2.651-0.091
	c14.807-0.991,24.07-7.687,26.791-19.363c1.477-6.334,0.58-11.616-2.662-15.701C52.056,19.057,42.714,15.737,31.023,15.737z"/>
<path fill="#E0AF82" d="M47.361,31.916l-1.623-1.836c-6.753-1.233-19.687,5.574-21.979,16.842
	C27.131,37.008,40.946,30.42,47.361,31.916z"/>
<radialGradient id="SVGID_2_" cx="-3.1629" cy="89.3727" r="11.4854" gradientTransform="matrix(0.9677 0.0045 0.0036 1.1739 41.5441 -96.197)" gradientUnits="userSpaceOnUse">
	<stop  offset="0.4545" style="stop-color:#FCD5B2"/>
	<stop  offset="0.6999" style="stop-color:#F9D1AD"/>
	<stop  offset="0.9919" style="stop-color:#F0C59F"/>
	<stop  offset="1" style="stop-color:#F0C59E"/>
</radialGradient>
<path fill="url(#SVGID_2_)" d="M30.024,9.791c-0.053-9.109,13.792-9.028,13.862,0.082l0.061,9.467
	c0.072,9.111-13.794,9.029-13.862-0.086L30.024,9.791z"/>
<radialGradient id="SVGID_3_" cx="-17.3175" cy="92.3692" r="11.4854" gradientTransform="matrix(0.9677 0.0045 0.0036 1.1739 41.308 -98.4169)" gradientUnits="userSpaceOnUse">
	<stop  offset="0.4545" style="stop-color:#FCD5B2"/>
	<stop  offset="0.6999" style="stop-color:#F9D1AD"/>
	<stop  offset="0.9919" style="stop-color:#F0C59F"/>
	<stop  offset="1" style="stop-color:#F0C59E"/>
</radialGradient>
<path fill="url(#SVGID_3_)" d="M16.101,11.025c-0.053-9.108,13.792-9.026,13.862,0.082l0.061,9.468
	c0.07,9.111-13.796,9.029-13.862-0.087L16.101,11.025z"/>
<radialGradient id="SVGID_4_" cx="-30.5791" cy="98.7255" r="10.3155" gradientTransform="matrix(0.9677 0.0045 0.0036 1.1739 40.7213 -101.583)" gradientUnits="userSpaceOnUse">
	<stop  offset="0.4545" style="stop-color:#FCD5B2"/>
	<stop  offset="0.6999" style="stop-color:#F9D1AD"/>
	<stop  offset="0.9919" style="stop-color:#F0C59F"/>
	<stop  offset="1" style="stop-color:#F0C59E"/>
</radialGradient>
<path fill="url(#SVGID_4_)" d="M3.599,15.151C3.55,6.969,15.986,7.043,16.048,15.223l0.053,8.506
	c0.064,8.184-12.389,8.106-12.449-0.08L3.599,15.151z"/>
<radialGradient id="SVGID_5_" cx="11.4133" cy="90.4579" r="11.4858" gradientTransform="matrix(0.9677 0.0045 0.0036 1.1739 41.3578 -95.1876)" gradientUnits="userSpaceOnUse">
	<stop  offset="0.4545" style="stop-color:#FCD5B2"/>
	<stop  offset="0.6999" style="stop-color:#F9D1AD"/>
	<stop  offset="0.9919" style="stop-color:#F0C59F"/>
	<stop  offset="1" style="stop-color:#F0C59E"/>
</radialGradient>
<path fill="url(#SVGID_5_)" d="M43.947,12.139C43.894,3.03,57.736,3.112,57.81,12.221l0.061,9.471
	c0.066,9.109-13.793,9.025-13.863-0.09L43.947,12.139z"/>
<path fill="#E0AF82" d="M58.81,12.213C58.744,4.149,48.654,1.862,44.486,7.28C42.32,0.524,32.21,0.206,29.615,6.587
	c-3.806-5.538-13.889-4.143-14.484,3.667C11.16,6.149,2.555,7.813,2.599,15.157l0.053,8.5c0,8.533,12.338,9.826,14.256,1.879
	c3.664,4.406,11.371,3.561,13.529-1.756c2.98,4.332,9.869,4.455,12.973,0.426c2.471,7.67,15.461,7.103,15.461-2.521L58.81,12.213z
	 M4.652,23.643l-0.053-8.498C4.56,8.38,15.048,8.254,15.048,15.229l0.053,8.507C15.155,30.516,4.652,30.502,4.652,23.643z
	 M17.161,20.481l-0.06-9.463c0-7.723,11.862-7.744,11.862,0.095l0.061,9.47C29.024,28.42,17.161,28.191,17.161,20.481z
	 M31.084,19.247l-0.061-9.462c0-7.785,11.862-7.677,11.862,0.095l0.061,9.469C42.947,27.252,31.084,26.92,31.084,19.247z
	 M45.007,21.594l-0.061-9.462c0-7.879,11.863-7.671,11.863,0.095l0.061,9.471C56.87,29.545,45.007,29.295,45.007,21.594z"/>
<path fill="#FCD5B2" d="M37.139,17.965c-2.697-0.012-9.09,2.26-18.167,2.506c-3.975,0.106-4.631,6.283,1.381,9.002
	c8.382,3.781,21.306-1.152,25.186,7.169c0.955,2.051,14.726-6.378,12.543-10.077C52.765,17.563,39.022,17.975,37.139,17.965z"/>
<path fill="#E0AF82" d="M44.632,37.065c-2.086-4.475-7.18-4.642-13.078-4.836c-3.99-0.131-8.117-0.268-11.611-1.844
	c-4.092-1.851-5.426-5.145-4.933-7.589c0.397-1.967,1.941-3.273,3.936-3.325c5.615-0.152,10.176-1.09,13.506-1.773
	c2.081-0.428,3.569-0.736,4.692-0.733c0.135-0.002,0.316-0.004,0.557-0.01c13.586-0.343,19.413,4.53,21.896,8.662l-1.059,2.285
	c-2.506-4.809-8.149-9.25-20.791-8.947c-0.266,0.006-0.473,0.009-0.613,0.01c-0.006,0-0.012,0-0.018,0
	c-0.9,0-2.385,0.305-4.262,0.691c-3.403,0.699-8.063,1.656-13.855,1.813c-1.074,0.028-1.814,0.656-2.029,1.722
	c-0.324,1.613,0.725,3.981,3.795,5.37c3.134,1.413,7.059,1.543,10.855,1.668c6.008,0.198,12.219,0.402,14.824,5.989L44.632,37.065z"
	/>
</svg>
