<?xml version="1.0" encoding="utf-8"?>
<!-- Generator: Adobe Illustrator 15.0.0, SVG Export Plug-In . SVG Version: 6.00 Build 0)  -->
<!DOCTYPE svg PUBLIC "-//W3C//DTD SVG 1.1//EN" "http://www.w3.org/Graphics/SVG/1.1/DTD/svg11.dtd" [
	<!ENTITY ns_flows "http://ns.adobe.com/Flows/1.0/">
	<!ENTITY ns_extend "http://ns.adobe.com/Extensibility/1.0/">
	<!ENTITY ns_ai "http://ns.adobe.com/AdobeIllustrator/10.0/">
	<!ENTITY ns_graphs "http://ns.adobe.com/Graphs/1.0/">
]>
<svg version="1.1" id="Layer_1" xmlns:x="&ns_extend;" xmlns:i="&ns_ai;" xmlns:graph="&ns_graphs;"
	 xmlns="http://www.w3.org/2000/svg" xmlns:xlink="http://www.w3.org/1999/xlink" xmlns:a="http://ns.adobe.com/AdobeSVGViewerExtensions/3.0/"
	 x="0px" y="0px" width="64px" height="64px" viewBox="0 0 64 64" enable-background="new 0 0 64 64" xml:space="preserve">
<radialGradient id="SVGID_1_" cx="-6.2817" cy="37.5938" r="37.7407" gradientTransform="matrix(0.8994 0 0 0.9244 45.5208 -4.5102)" gradientUnits="userSpaceOnUse">
	<stop  offset="0.4485" style="stop-color:#FFCC66"/>
	<stop  offset="0.7332" style="stop-color:#FECB64"/>
	<stop  offset="0.87" style="stop-color:#FAC65C"/>
	<stop  offset="0.9751" style="stop-color:#F4BD4F"/>
	<stop  offset="1" style="stop-color:#F2BA4B"/>
	<a:midPointStop  offset="0.4485" style="stop-color:#FFCC66"/>
	<a:midPointStop  offset="0.8333" style="stop-color:#FFCC66"/>
	<a:midPointStop  offset="1" style="stop-color:#F2BA4B"/>
</radialGradient>
<path fill="url(#SVGID_1_)" d="M4.666,24.084c-5.391,15.384,1.918,38.564,27.922,36.824c16.131-1.08,25.031-8.693,27.697-20.135
	C68.129,7.108,9.103,11.422,4.666,24.084z"/>
<path fill="#D9A640" d="M29.869,62c-12.461,0-19.207-5.822-22.671-10.707c-5.337-7.525-6.702-18.335-3.477-27.539
	c2.28-6.506,15.768-10.017,27.3-10.017c12.306,0,22.218,3.596,27.194,9.865c3.641,4.586,4.665,10.44,3.044,17.399
	c-2.941,12.62-12.832,19.849-28.605,20.904C31.714,61.969,30.777,62,29.869,62z M31.022,15.737c-12.335,0-23.736,3.893-25.413,8.678
	c-3.018,8.611-1.753,18.708,3.22,25.721c3.191,4.5,9.432,9.864,21.04,9.864c0.864,0,1.756-0.03,2.652-0.09
	c14.805-0.992,24.069-7.688,26.79-19.363c1.477-6.334,0.581-11.617-2.661-15.702C52.055,19.057,42.714,15.737,31.022,15.737z"/>
<path fill="#D9A640" d="M47.359,31.917l-1.623-1.835c-6.752-1.233-19.686,5.574-21.979,16.842
	C27.131,37.009,40.945,30.421,47.359,31.917z"/>
<radialGradient id="SVGID_2_" cx="-3.291" cy="89.7705" r="11.4864" gradientTransform="matrix(0.9677 0.0044 0.0036 1.1738 41.6659 -96.6622)" gradientUnits="userSpaceOnUse">
	<stop  offset="0.4545" style="stop-color:#FFCC66"/>
	<stop  offset="0.6609" style="stop-color:#FDC961"/>
	<stop  offset="0.9065" style="stop-color:#F6BF53"/>
	<stop  offset="1" style="stop-color:#F2BA4B"/>
	<a:midPointStop  offset="0.4545" style="stop-color:#FFCC66"/>
	<a:midPointStop  offset="0.6703" style="stop-color:#FFCC66"/>
	<a:midPointStop  offset="1" style="stop-color:#F2BA4B"/>
</radialGradient>
<path fill="url(#SVGID_2_)" d="M30.023,9.791c-0.053-9.109,13.791-9.028,13.861,0.082l0.061,9.468
	c0.072,9.111-13.793,9.029-13.861-0.087L30.023,9.791z"/>
<radialGradient id="SVGID_3_" cx="-17.4443" cy="92.7676" r="11.4855" gradientTransform="matrix(0.9677 0.0044 0.0036 1.1738 41.4297 -98.8821)" gradientUnits="userSpaceOnUse">
	<stop  offset="0.4545" style="stop-color:#FFCC66"/>
	<stop  offset="0.6609" style="stop-color:#FDC961"/>
	<stop  offset="0.9065" style="stop-color:#F6BF53"/>
	<stop  offset="1" style="stop-color:#F2BA4B"/>
	<a:midPointStop  offset="0.4545" style="stop-color:#FFCC66"/>
	<a:midPointStop  offset="0.6703" style="stop-color:#FFCC66"/>
	<a:midPointStop  offset="1" style="stop-color:#F2BA4B"/>
</radialGradient>
<path fill="url(#SVGID_3_)" d="M16.101,11.025c-0.053-9.108,13.792-9.027,13.862,0.082l0.061,9.468
	c0.07,9.112-13.795,9.029-13.862-0.087L16.101,11.025z"/>
<radialGradient id="SVGID_4_" cx="-30.7056" cy="99.123" r="10.316" gradientTransform="matrix(0.9677 0.0044 0.0036 1.1738 40.8432 -102.0478)" gradientUnits="userSpaceOnUse">
	<stop  offset="0.4545" style="stop-color:#FFCC66"/>
	<stop  offset="0.6609" style="stop-color:#FDC961"/>
	<stop  offset="0.9065" style="stop-color:#F6BF53"/>
	<stop  offset="1" style="stop-color:#F2BA4B"/>
	<a:midPointStop  offset="0.4545" style="stop-color:#FFCC66"/>
	<a:midPointStop  offset="0.6703" style="stop-color:#FFCC66"/>
	<a:midPointStop  offset="1" style="stop-color:#F2BA4B"/>
</radialGradient>
<path fill="url(#SVGID_4_)" d="M3.599,15.151C3.55,6.969,15.986,7.043,16.048,15.224l0.053,8.505
	c0.064,8.184-12.389,8.107-12.449-0.079L3.599,15.151z"/>
<radialGradient id="SVGID_5_" cx="11.2847" cy="90.8574" r="11.4861" gradientTransform="matrix(0.9677 0.0044 0.0036 1.1738 41.4795 -95.6533)" gradientUnits="userSpaceOnUse">
	<stop  offset="0.4545" style="stop-color:#FFCC66"/>
	<stop  offset="0.6609" style="stop-color:#FDC961"/>
	<stop  offset="0.9065" style="stop-color:#F6BF53"/>
	<stop  offset="1" style="stop-color:#F2BA4B"/>
	<a:midPointStop  offset="0.4545" style="stop-color:#FFCC66"/>
	<a:midPointStop  offset="0.6703" style="stop-color:#FFCC66"/>
	<a:midPointStop  offset="1" style="stop-color:#F2BA4B"/>
</radialGradient>
<path fill="url(#SVGID_5_)" d="M43.945,12.139c-0.053-9.109,13.789-9.027,13.863,0.083l0.061,9.47
	c0.066,9.109-13.793,9.026-13.863-0.09L43.945,12.139z"/>
<path fill="#D9A640" d="M58.809,12.213C58.743,4.149,48.652,1.862,44.484,7.28c-2.166-6.755-12.275-7.074-14.87-0.692
	c-3.806-5.539-13.889-4.143-14.485,3.667C11.16,6.149,2.555,7.813,2.599,15.157l0.053,8.499c0,8.534,12.338,9.826,14.256,1.879
	c3.664,4.407,11.371,3.561,13.528-1.755c2.98,4.332,9.87,4.455,12.973,0.426c2.47,7.67,15.46,7.102,15.46-2.521L58.809,12.213z
	 M4.652,23.643l-0.053-8.498c-0.04-6.765,10.449-6.891,10.449,0.084l0.053,8.506C15.154,30.517,4.652,30.503,4.652,23.643z
	 M17.162,20.481l-0.061-9.462c0-7.724,11.862-7.745,11.862,0.094l0.061,9.469C29.023,28.42,17.162,28.191,17.162,20.481z
	 M31.084,19.247l-0.061-9.462c0-7.785,11.861-7.677,11.861,0.094l0.061,9.469C42.945,27.253,31.084,26.92,31.084,19.247z
	 M45.006,21.595l-0.061-9.462c0-7.879,11.863-7.671,11.863,0.095l0.061,9.471C56.869,29.545,45.006,29.295,45.006,21.595z"/>
<path fill="#FFCC66" d="M37.139,17.965c-2.697-0.012-9.09,2.26-18.167,2.505c-3.975,0.106-4.631,6.284,1.381,9.002
	c8.381,3.782,21.305-1.152,25.184,7.169c0.955,2.051,14.727-6.378,12.543-10.077C52.764,17.563,39.021,17.976,37.139,17.965z"/>
<path fill="#D9A640" d="M44.631,37.064c-2.086-4.474-7.18-4.641-13.077-4.835c-3.991-0.131-8.118-0.268-11.612-1.844
	c-4.091-1.85-5.425-5.144-4.932-7.588c0.397-1.967,1.941-3.272,3.936-3.325c5.615-0.152,10.176-1.089,13.506-1.774
	c2.081-0.428,3.568-0.736,4.691-0.732c0.135-0.002,0.316-0.004,0.557-0.01c13.587-0.343,19.414,4.53,21.898,8.662l-1.061,2.285
	c-2.506-4.81-8.148-9.25-20.79-8.948c-0.266,0.006-0.474,0.009-0.614,0.01c-0.006,0-0.012,0-0.018,0
	c-0.899,0-2.385,0.305-4.261,0.691c-3.403,0.7-8.063,1.657-13.855,1.814c-1.074,0.029-1.814,0.656-2.029,1.722
	c-0.325,1.613,0.724,3.981,3.795,5.37c3.133,1.414,7.059,1.543,10.855,1.668c6.007,0.198,12.219,0.402,14.823,5.991L44.631,37.064z"
	/>
</svg>
