<?xml version="1.0" encoding="utf-8"?>
<!-- Generator: Adobe Illustrator 19.0.0, SVG Export Plug-In . SVG Version: 6.00 Build 0)  -->
<svg version="1.1" id="Layer_1" xmlns="http://www.w3.org/2000/svg" xmlns:xlink="http://www.w3.org/1999/xlink" x="0px" y="0px"
	 width="64px" height="64px" viewBox="0 0 64 64" enable-background="new 0 0 64 64" xml:space="preserve">
<radialGradient id="SVGID_1_" cx="208.7653" cy="-597.884" r="47.4407" gradientTransform="matrix(-0.0056 0.8974 -0.7113 0.0043 -395.2511 -164.0669)" gradientUnits="userSpaceOnUse">
	<stop  offset="0.4364" style="stop-color:#B88A6F"/>
	<stop  offset="0.7049" style="stop-color:#B7886D"/>
	<stop  offset="0.8242" style="stop-color:#B28266"/>
	<stop  offset="0.903" style="stop-color:#AB795B"/>
</radialGradient>
<path fill="url(#SVGID_1_)" d="M51.645,32.215c-8.023,0.201-8.746,7.758-11.072,5.953C39.971,37.7,40.2,34.448,40.2,34.448
	c0.139-5.336,0.242-12.682,0.309-23.492c0.035-5.438-8.225-5.393-8.26,0.051c0.01-1.365,0.018-2.76,0.029-4.19
	c0.033-5.434-8.227-5.432-8.258,0.051c-0.01,1.465-0.021,2.854-0.031,4.189c0.037-5.428-8.225-5.377-8.258,0.049
	c-0.008,1.16-0.022,3.824-0.045,6.967c-0.205-5.412-7.051-5.252-7.275,0.168c-0.252,6.17-0.629,18.717-0.66,25.267
	c-0.047,9.395,5.426,18,16.059,17.738c23.109-0.57,17.514-16.693,31.754-25.1C57.329,35.106,55.643,32.118,51.645,32.215z"/>
<path fill="#996748" d="M40.178,37.43c-4.09,0.184-10.5,6.838-10.211,14.203c0.533-6.672,7.604-12.734,11.539-12.707L40.178,37.43z"
	/>
<path fill="#996748" d="M51.645,31.465c-7.723,0.193-9.67,7.213-10.559,6.15c-0.256-0.309-0.231-1.787-0.135-3.148
	c0.144-5.619,0.242-13.088,0.307-23.506c0.031-4.721-5.395-6.102-8.234-3.547l0.004-0.594c0-6.436-9.758-6.436-9.758,0.043
	l-0.006,0.631c-2.752-2.484-8.254-1.17-8.283,3.607l-0.022,3.357c-2.605-2.438-7.111-0.764-7.297,3.752
	C7.411,24.321,7.032,36.842,7,43.504C6.963,50.788,10.61,62,23.809,62c23.566-0.58,18.168-16.963,32.135-25.207
	C58.211,35.458,56.85,31.465,51.645,31.465z M55.182,35.5c-14.795,8.73-8.656,24.441-31.373,25C12.621,60.5,8.461,51.467,8.5,43.512
	c0.031-6.644,0.41-19.141,0.66-25.24c0.188-4.498,5.594-4.561,5.775-0.188l-0.098,15.533l1.5,0.01l0.098-15.549h0.002l0.045-6.967
	c0-4.455,6.756-4.457,6.756-0.063l-0.141,22.52l1.5,0.01l0.15-23.783l0,0l0.021-2.924c0.027-4.592,6.781-4.359,6.758-0.06
	l-0.029,4.191H31.5l-0.142,22.516l1.5,0.01L33,10.983c0-4.426,6.758-4.426,6.758-0.031c0,10.408-0.162,17.867-0.307,23.443
	c-0.17,2.422,0.051,3.891,0.66,4.367c3.279,2.539,3.695-5.601,11.533-5.797C54.959,32.965,56.145,34.932,55.182,35.5z"/>
</svg>
