<?xml version="1.0" encoding="utf-8"?>
<!-- Generator: Adobe Illustrator 15.0.0, SVG Export Plug-In . SVG Version: 6.00 Build 0)  -->
<!DOCTYPE svg PUBLIC "-//W3C//DTD SVG 1.1//EN" "http://www.w3.org/Graphics/SVG/1.1/DTD/svg11.dtd" [
	<!ENTITY ns_flows "http://ns.adobe.com/Flows/1.0/">
	<!ENTITY ns_extend "http://ns.adobe.com/Extensibility/1.0/">
	<!ENTITY ns_ai "http://ns.adobe.com/AdobeIllustrator/10.0/">
	<!ENTITY ns_graphs "http://ns.adobe.com/Graphs/1.0/">
]>
<svg version="1.1" id="Layer_1" xmlns:x="&ns_extend;" xmlns:i="&ns_ai;" xmlns:graph="&ns_graphs;"
	 xmlns="http://www.w3.org/2000/svg" xmlns:xlink="http://www.w3.org/1999/xlink" xmlns:a="http://ns.adobe.com/AdobeSVGViewerExtensions/3.0/"
	 x="0px" y="0px" width="64px" height="64px" viewBox="0 0 64 64" enable-background="new 0 0 64 64" xml:space="preserve">
<radialGradient id="SVGID_1_" cx="208.6719" cy="-597.6675" r="47.4408" gradientTransform="matrix(-0.0056 0.8974 -0.7113 0.0043 -395.0905 -163.977)" gradientUnits="userSpaceOnUse">
	<stop  offset="0.4364" style="stop-color:#FFCC66"/>
	<stop  offset="0.6859" style="stop-color:#FECB64"/>
	<stop  offset="0.7967" style="stop-color:#FAC65D"/>
	<stop  offset="0.88" style="stop-color:#F4BD50"/>
	<stop  offset="0.903" style="stop-color:#F2BA4B"/>
	<a:midPointStop  offset="0.4364" style="stop-color:#FFCC66"/>
	<a:midPointStop  offset="0.844" style="stop-color:#FFCC66"/>
	<a:midPointStop  offset="0.903" style="stop-color:#F2BA4B"/>
</radialGradient>
<path fill="url(#SVGID_1_)" d="M51.644,32.216c-8.022,0.2-8.746,7.756-11.071,5.952c-0.603-0.469-0.373-3.72-0.373-3.72
	c0.139-5.336,0.241-12.682,0.308-23.493c0.036-5.438-8.224-5.394-8.258,0.051c0.01-1.365,0.017-2.76,0.028-4.19
	c0.033-5.433-8.227-5.43-8.258,0.052c-0.01,1.465-0.021,2.853-0.03,4.189c0.036-5.428-8.225-5.378-8.257,0.049
	c-0.008,1.16-0.022,3.824-0.045,6.967c-0.206-5.412-7.051-5.253-7.275,0.168c-0.253,6.168-0.63,18.715-0.66,25.267
	c-0.047,9.395,5.425,18,16.057,17.738c23.109-0.569,17.515-16.693,31.755-25.1C57.327,35.106,55.642,32.118,51.644,32.216z"/>
<path fill="#D9A640" d="M40.177,37.43c-4.09,0.184-10.499,6.838-10.209,14.204c0.532-6.672,7.602-12.735,11.537-12.709L40.177,37.43
	z"/>
<path fill="#D9A640" d="M51.644,31.465c-7.722,0.193-9.669,7.213-10.558,6.149c-0.257-0.308-0.23-1.786-0.136-3.146
	c0.146-5.619,0.243-13.089,0.308-23.507c0.03-4.721-5.396-6.102-8.235-3.546l0.004-0.594c0-6.435-9.758-6.435-9.758,0.042
	l-0.005,0.631c-2.753-2.483-8.254-1.17-8.283,3.607l-0.021,3.359c-2.605-2.438-7.111-0.764-7.298,3.751
	C7.411,24.321,7.031,36.843,7,43.504C6.963,50.787,10.609,62,23.808,62c23.567-0.58,18.168-16.962,32.136-25.207
	C58.212,35.457,56.85,31.465,51.644,31.465z M55.182,35.501c-14.795,8.73-8.656,24.44-31.374,24.999
	C12.621,60.5,8.46,51.467,8.5,43.512c0.03-6.645,0.409-19.141,0.66-25.239c0.187-4.499,5.593-4.561,5.775-0.188l-0.098,15.534
	l1.5,0.01l0.098-15.55h0.001l0.045-6.967c0-4.454,6.757-4.456,6.757-0.062l-0.141,22.519l1.5,0.01l0.15-23.784h-0.001l0.021-2.923
	c0.028-4.592,6.782-4.36,6.758-0.062l-0.028,4.191H31.5l-0.144,22.516l1.5,0.01L33,10.982c0-4.425,6.757-4.425,6.757-0.031
	c0,10.408-0.161,17.869-0.306,23.445c-0.171,2.422,0.051,3.89,0.66,4.365c3.278,2.541,3.694-5.601,11.532-5.796
	C54.959,32.965,56.144,34.933,55.182,35.501z"/>
</svg>
