<?xml version="1.0" encoding="utf-8"?>
<!-- Generator: Adobe Illustrator 19.0.0, SVG Export Plug-In . SVG Version: 6.00 Build 0)  -->
<svg version="1.1" id="Layer_1" xmlns="http://www.w3.org/2000/svg" xmlns:xlink="http://www.w3.org/1999/xlink" x="0px" y="0px"
	 width="64px" height="64px" viewBox="0 0 64 64" enable-background="new 0 0 64 64" xml:space="preserve">
<radialGradient id="SVGID_1_" cx="47.2063" cy="42.8452" r="23.336" gradientTransform="matrix(0.9834 0 0 0.9813 -9.0957 -1.2445)" gradientUnits="userSpaceOnUse">
	<stop  offset="0.4485" style="stop-color:#E3C19B"/>
	<stop  offset="0.7869" style="stop-color:#E3BF99"/>
	<stop  offset="0.9495" style="stop-color:#E3B991"/>
	<stop  offset="1" style="stop-color:#E3B68D"/>
</radialGradient>
<path fill="url(#SVGID_1_)" d="M13.447,36.283c-2.889,20.385,11.217,24.891,18.729,24.965c6.504,0.063,15.797-2.592,18.561-14.105
	C55.993,25.233,18.062,28.74,13.447,36.283z"/>
<path fill="#CF9E70" d="M12.71,36.178C9.747,56.461,23.499,61.914,32.179,62c4.676,0,16.111-1.432,19.291-14.682
	C57.226,23.338,13.872,28.211,12.71,36.178z M50.011,46.969C47.081,59.182,36.499,60.5,32.179,60.5
	c-8.885-0.086-20.525-5.672-18.008-23.951C18.788,29.686,54.986,26.242,50.011,46.969z"/>
<path fill="#CF9E70" d="M42.542,41.194l-1.014-1.264c-4.217-0.85-12.293,3.838-13.725,11.602
	C29.909,44.703,38.536,40.164,42.542,41.194z"/>
<path fill="#CF9E70" d="M52.853,8.672c1.457-6.541-8.357-8.859-9.971-1.992c-1.98,8.432-4.254,17.34-5.133,18.961
	c-0.801-1.754-2.621-11.197-3.805-19.469c-0.932-6.516-10.859-5.027-9.992,1.879c1.404,11.193,3.738,22.314,3.74,22.32
	c3.699,2.963,11.639-1.787,20.535,4.725C47.759,27.565,49.798,22.375,52.853,8.672z"/>
<linearGradient id="SVGID_2_" gradientUnits="userSpaceOnUse" x1="37.6278" y1="34.464" x2="38.9857" y2="-11.364">
	<stop  offset="0" style="stop-color:#E3B68D"/>
	<stop  offset="0.078" style="stop-color:#E3B991"/>
	<stop  offset="0.3317" style="stop-color:#E3BF99"/>
	<stop  offset="0.8545" style="stop-color:#E3C19B"/>
</linearGradient>
<path fill="url(#SVGID_2_)" d="M44.222,7.119c-1.983,8.432-4.473,20.524-6.518,20.51c-0.967-0.006-2.455-2.268-5.115-20.822
	c-0.754-5.26-7.822-3.988-7.16,1.281c1.404,11.193,4.047,23.639,4.047,23.639c0.357,1.818,5.51-3.174,17.195,2.23
	c-0.238-7.537,1.934-12.713,4.686-25.424C52.448,3.487,45.402,2.094,44.222,7.119z"/>
<path fill="#CF9E70" d="M11.048,31.713c-0.828-7.316,9.379-8.268,10.129-0.971l0.707,6.123c0.822,7.242-9.379,8.164-10.137,0.934
	L11.048,31.713z"/>
<radialGradient id="SVGID_3_" cx="-230.6732" cy="29.1846" r="5.5926" gradientTransform="matrix(0.8309 -0.0853 0.129 1.1847 204.8886 -22.7154)" gradientUnits="userSpaceOnUse">
	<stop  offset="0.4545" style="stop-color:#E3C19B"/>
	<stop  offset="0.7558" style="stop-color:#E3BD96"/>
	<stop  offset="1" style="stop-color:#E3B68D"/>
</radialGradient>
<path fill="url(#SVGID_3_)" d="M12.54,31.52c-0.586-5.256,6.566-5.947,7.16-0.685l0.691,6.199c0.59,5.236-6.572,5.898-7.166,0.66
	L12.54,31.52z"/>
<path fill="#CF9E70" d="M19.361,28.09c-0.828-7.316,9.381-8.27,10.129-0.971l0.707,6.123c0.822,7.242-9.377,8.164-10.135,0.932
	L19.361,28.09z"/>
<radialGradient id="SVGID_4_" cx="-220.6946" cy="24.9999" r="5.5926" gradientTransform="matrix(0.8309 -0.0853 0.129 1.1847 205.4505 -20.5305)" gradientUnits="userSpaceOnUse">
	<stop  offset="0.4545" style="stop-color:#E3C19B"/>
	<stop  offset="0.7558" style="stop-color:#E3BD96"/>
	<stop  offset="1" style="stop-color:#E3B68D"/>
</radialGradient>
<path fill="url(#SVGID_4_)" d="M20.853,27.897c-0.586-5.258,6.568-5.947,7.16-0.686l0.693,6.197c0.588,5.236-6.572,5.9-7.164,0.66
	L20.853,27.897z"/>
<path fill="#E3C19B" d="M35.866,31.584c-1.719-0.01-5.791,1.555-11.57,1.725c-2.531,0.072-2.949,4.328,0.881,6.203
	c5.336,2.606,13.566-0.795,16.037,4.94c0.607,1.412,9.512-2.266,8.459-4.982C47.023,32.623,37.066,31.59,35.866,31.584z"/>
<path fill="#CF9E70" d="M40.546,44.756c-2.301-5.342-10.649-2.111-15.682-4.566c-4.699-2.301-3.941-7.533-0.588-7.629
	c3.563-0.105,8.566-1.928,11.621-1.928c3.373,0,9.438,0.805,13.297,4.867c1.646,1.734-0.15,2.121-1.34,0.815
	c-2.832-3.106-8.645-4.32-11.957-4.32c-3.338,0-7.881,1.955-11.58,2.065c-1.504,0.043-2.227,3.111,1.174,4.775
	c5.174,2.527,13.654-1.037,16.391,5.313L40.546,44.756z"/>
</svg>
