<?xml version="1.0" encoding="utf-8"?>
<!-- Generator: Adobe Illustrator 15.0.0, SVG Export Plug-In . SVG Version: 6.00 Build 0)  -->
<!DOCTYPE svg PUBLIC "-//W3C//DTD SVG 1.1//EN" "http://www.w3.org/Graphics/SVG/1.1/DTD/svg11.dtd" [
	<!ENTITY ns_flows "http://ns.adobe.com/Flows/1.0/">
	<!ENTITY ns_extend "http://ns.adobe.com/Extensibility/1.0/">
	<!ENTITY ns_ai "http://ns.adobe.com/AdobeIllustrator/10.0/">
	<!ENTITY ns_graphs "http://ns.adobe.com/Graphs/1.0/">
]>
<svg version="1.1" id="Layer_1" xmlns:x="&ns_extend;" xmlns:i="&ns_ai;" xmlns:graph="&ns_graphs;"
	 xmlns="http://www.w3.org/2000/svg" xmlns:xlink="http://www.w3.org/1999/xlink" xmlns:a="http://ns.adobe.com/AdobeSVGViewerExtensions/3.0/"
	 x="0px" y="0px" width="64px" height="64px" viewBox="0 0 64 64" enable-background="new 0 0 64 64" xml:space="preserve">
<radialGradient id="SVGID_1_" cx="37.6768" cy="41.874" r="35.6375" gradientTransform="matrix(0.9925 0.1479 -0.0822 0.5988 2.9696 7.8864)" gradientUnits="userSpaceOnUse">
	<stop  offset="0.4364" style="stop-color:#FFCC66"/>
	<stop  offset="0.6859" style="stop-color:#FECB64"/>
	<stop  offset="0.7967" style="stop-color:#FAC65D"/>
	<stop  offset="0.88" style="stop-color:#F4BD50"/>
	<stop  offset="0.903" style="stop-color:#F2BA4B"/>
	<a:midPointStop  offset="0.4364" style="stop-color:#FFCC66"/>
	<a:midPointStop  offset="0.844" style="stop-color:#FFCC66"/>
	<a:midPointStop  offset="0.903" style="stop-color:#F2BA4B"/>
</radialGradient>
<path fill="url(#SVGID_1_)" d="M58.763,34.396c-1.558,0-6.354-0.124-9.194-0.583c-4.857-0.785-12.95-4.709-26.128-9.155
	c-2.187-0.737-5.528,4.135-16.808,8.322c-3.155,1.171,0.112,5.437-3.593,17.96c-1.664,5.629,4.132,6.396,6.508,4.727
	c0.502,5.063,6.267,5.334,6.643,1.875c2.339,3.25,5.302,1.04,5.39-0.629c1.941,2.941,5.681,1.17,5.39-1.246
	c2.631,6.063,17.336,5.396,21.649,1.044c0,0,4.871-0.745,9.68-0.745C61.671,55.965,61.871,34.396,58.763,34.396z"/>
<path fill="#D9A640" d="M27.584,57.465c-0.422,1.758-2.605,2.865-5.478,0.838c-1.017,2.077-3.809,2.247-5.608,0.686
	c-1.611,2.78-6.45,1.923-7.505-2.188c-3.325,1.283-8.322-0.471-6.665-6.074C6.062,38.1,2.531,33.703,6.377,32.276
	c10.584-3.931,13.945-8.443,16.6-8.443c2.021,0,17.091,6.584,25.534,9.006c2.613,0.749,8.451,0.807,10.254,0.807
	c4.598,0,4.162,23.069-0.463,23.069c-4.106,0-8.308,0.558-9.332,0.702C44.167,62.009,34.643,62.328,27.584,57.465z M25.777,54.165
	c10.138,9.08,20.51,4.424,22.489,1.841c0,0,5.226-0.791,10.035-0.791c2.77,0,3.043-20.073,0.287-20.073
	c-0.023,0-6.387-0.236-9.136-0.589c-4.214-0.541-18.831-6.874-26.247-9.185c-1.679-0.523-5.271,4.216-16.313,8.314
	c-2.423,0.899,0.431,5.416-3.135,17.471c-1.419,4.807,3.698,5.717,6.408,3.164c-0.331,4.803,5.485,7.225,5.495,1.205
	c2.136,4.379,6.412,3.895,4.732-0.722C24.174,58.87,27.424,59.292,25.777,54.165z"/>
<path fill="#D9A640" d="M11.218,38.33c2.769,4.344-4.676,14.1,2.883,3.449C23.231,28.917,14.687,40.695,11.218,38.33z"/>
<linearGradient id="SVGID_2_" gradientUnits="userSpaceOnUse" x1="19.7363" y1="30.3218" x2="25.6522" y2="34.4528">
	<stop  offset="0.1333" style="stop-color:#4E5E67"/>
	<stop  offset="0.1832" style="stop-color:#47525C"/>
	<stop  offset="0.2779" style="stop-color:#3C414D"/>
	<stop  offset="0.3952" style="stop-color:#353543"/>
	<stop  offset="0.5588" style="stop-color:#312E3D"/>
	<stop  offset="1" style="stop-color:#302C3B"/>
	<a:midPointStop  offset="0.1333" style="stop-color:#4E5E67"/>
	<a:midPointStop  offset="0.1333" style="stop-color:#4E5E67"/>
	<a:midPointStop  offset="1" style="stop-color:#302C3B"/>
</linearGradient>
<polygon fill="url(#SVGID_2_)" points="43.951,4.476 40.505,2 37.355,6.736 36.482,6.11 7.688,49.41 4.593,58.891 4.593,58.891 
	2.93,61.393 3.775,62 5.438,59.498 12.881,53.139 41.673,9.839 40.802,9.214 "/>
<path fill="#FFCC66" d="M44.194,54.897c23.691-9.481-7.726-22.24-21.581-16.395c-2.58,1.088-8.074,7.048-14.267,10.821
	c-3.338,2.035-1.243,9.225,4.256,7.326c4.842-1.672,5.154-4.234,12.599-5.371C28.812,54.015,33.415,59.211,44.194,54.897z"/>
<path fill="#D9A640" d="M7.982,48.683c6.553-4.021,12.466-10.632,17.862-12.39l0.461,1.428c-4.904,1.598-11.451,8.547-17.55,12.245
	c-3.129,1.899-0.89,7.207,3.666,5.963c4.79-1.309,5.039-4.84,13.054-5.424c4.665,4.253,10.174,7.199,19.336,3.345l0.577,1.383
	c-9.763,4.111-15.598,0.95-20.411-3.178c-6.737,0.564-6.739,3.753-12.148,5.317C6.224,59.282,3.724,51.296,7.982,48.683z"/>
</svg>
